<?xml version="1.0" encoding="utf-8"?>
<!-- Generator: Adobe Illustrator 25.2.0, SVG Export Plug-In . SVG Version: 6.00 Build 0)  -->
<svg version="1.1" xmlns="http://www.w3.org/2000/svg" xmlns:xlink="http://www.w3.org/1999/xlink" x="0px" y="0px"
	 viewBox="0 0 1728 276" enable-background="new 0 0 1728 276" xml:space="preserve">
<g id="Teams">
</g>
<g id="Table">
</g>
<g id="Table__x5B_edible_x5D_">
</g>
<g id="Fixture">
</g>
<g id="Groupphase__x5B_edible_x5D_">
</g>
<g id="Groupphase">
	<g>
		<rect fill="#E6E6E6" width="1728" height="276"/>
	</g>
	<g>
		<rect x="617" y="47" fill="#ADADAD" width="150" height="14"/>
		<rect x="843" y="47" fill="#ADADAD" width="120" height="14"/>
		<rect x="1069" y="47" fill="#ADADAD" width="145" height="14"/>
		<rect x="1300" y="47" fill="#ADADAD" width="28" height="14"/>
		<rect x="1459.5" y="47" fill="#ADADAD" width="28" height="14"/>
		<rect x="1381.6" y="47" fill="#ADADAD" width="28" height="14"/>
	</g>
	<g>
		<g>
			<circle fill="#979797" cx="305.4" cy="91.8" r="16"/>
		</g>
		<rect x="339" y="84.8" fill="#979797" width="212" height="14"/>
		<rect x="617" y="84.8" fill="#979797" width="28" height="14"/>
		<rect x="843" y="84.8" fill="#979797" width="28" height="14"/>
		<rect x="1069.6" y="84.8" fill="#979797" width="28" height="14"/>
		<rect x="1300" y="84.8" fill="#979797" width="28" height="14"/>
		<rect x="1381.6" y="84.8" fill="#979797" width="28" height="14"/>
		<rect x="1459.5" y="84.8" fill="#979797" width="28" height="14"/>
		<rect x="221" y="115" fill="#ADADAD" width="1268" height="1"/>
	</g>
	<g>
		<g>
			<circle fill="#979797" cx="305.4" cy="147.2" r="16"/>
		</g>
		<rect x="339" y="140.3" fill="#979797" width="212" height="14"/>
		<rect x="617" y="140.3" fill="#979797" width="28" height="14"/>
		<rect x="843" y="140.3" fill="#979797" width="28" height="14"/>
		<rect x="1069.6" y="140.3" fill="#979797" width="28" height="14"/>
		<rect x="1300" y="140.3" fill="#979797" width="28" height="14"/>
		<rect x="1381.6" y="140.3" fill="#979797" width="28" height="14"/>
		<rect x="1459.5" y="140.3" fill="#979797" width="28" height="14"/>
		<rect x="221" y="170" fill="#ADADAD" width="1268" height="1"/>
	</g>
	<g>
		<path fill="#ADADAD" d="M232.7,101v-3.8h4.4v-9.9l-3.8,1.5l-0.7-4.1l5.7-1.9h3.2v14.4h3.8v3.8H232.7z"/>
		<path fill="#ADADAD" d="M232.3,155v-3.5l1.9-1.8c4.7-4.4,5.3-5.7,5.3-7c0-1.3-0.9-2.2-2.6-2.2c-1.5,0-2.8,0.5-3.7,1.1l-0.8-3.8
			c1.4-0.8,3.4-1.3,5.5-1.3c4.5,0,6.4,2.7,6.4,5.4c0,2.4-1,4.4-4.6,7.7l-1.4,1.3v0.1c1.4-0.1,3.1-0.1,4.8-0.1h1.8v4.1H232.3z"/>
	</g>
	<rect x="222" y="191" fill="#ADADAD" width="212" height="14"/>
	<polyline fill="none" stroke="#979797" stroke-width="2" stroke-linecap="round" stroke-miterlimit="10" points="1472,191 
		1478,197 1484,191 	"/>
	<rect x="222" y="222" fill="#ADADAD" width="1268" height="1"/>
	<g>
		<path fill="#ADADAD" d="M231.5,37.3c-6.4,0-9.6-3.1-9.6-7.9c0-5.5,3.8-9,10.7-9c2,0,4,0.3,5.5,0.7l-0.9,3.4
			c-1.4-0.5-3-0.8-4.8-0.8c-4.1,0-5.8,2.3-5.8,5.2c0,3,1.8,4.9,5.4,4.9c0.7,0,1.3-0.1,1.8-0.2v-5.4h4.4v7.9
			C236.3,36.9,233.9,37.3,231.5,37.3z"/>
		<path fill="#ADADAD" d="M249.2,28.3c-2.3-0.5-3.6,0.7-3.6,3.7v5h-4.3V24.9h4c0,0.5-0.1,1.4-0.2,2.1h0.1c0.7-1.4,2-2.5,4.2-2.4
			L249.2,28.3z"/>
		<path fill="#ADADAD" d="M257,37.3c-4,0-6.7-1.7-6.7-6c0-3.9,3.1-6.6,7.4-6.6c4.2,0,6.7,2,6.7,6C264.3,34.6,261.2,37.3,257,37.3z
			 M257.3,27.8c-1.3,0-2.7,0.9-2.7,3c0,2.2,0.8,3.2,2.6,3.2c1.5,0,2.6-1.1,2.6-3.1C259.9,28.9,259.1,27.8,257.3,27.8z"/>
		<path fill="#ADADAD" d="M275.3,37c0-0.5,0-1.3,0.2-1.9l-0.1,0c-0.8,1.3-2.4,2.2-4.6,2.2c-3.1,0-4.1-1.7-4.1-3.8v-8.5h4.3v7.7
			c0,1,0.3,1.6,1.3,1.6c1.5,0,2.7-1.6,2.7-3.4v-5.9h4.3V37H275.3z"/>
		<path fill="#ADADAD" d="M288.3,37.2c-0.5,0-1,0-1.4-0.1v5.7h-4.3V24.9h3.9c0,0.5,0,1.1-0.1,1.7h0.1c0.8-1.3,2.2-2,4.2-2
			c3.3,0,5.1,2.1,5.1,5.6C295.7,34.4,293.3,37.2,288.3,37.2z M289.3,27.7c-1.5,0-2.5,1.5-2.5,3.5v3c0.4,0.1,0.9,0.1,1.5,0.1
			c1.7,0,2.9-0.9,2.9-3.6C291.2,28.7,290.6,27.7,289.3,27.7z"/>
		<path fill="#ADADAD" d="M315.8,37l-1.1-3h-6.6l-1.1,3h-4.3l6.3-16.4h5.2l6.5,16.4H315.8z M312.1,26.9c-0.3-0.8-0.5-1.6-0.7-2.3
			h-0.1c-0.2,0.7-0.4,1.5-0.7,2.3l-1.5,4h4.5L312.1,26.9z"/>
	</g>
	<g>
		<defs>
			<rect id="SVGID_3_" x="204" y="239" width="126" height="37"/>
		</defs>
		<clipPath id="SVGID_2_">
			<use xlink:href="#SVGID_3_"  overflow="visible"/>
		</clipPath>
		<g clip-path="url(#SVGID_2_)">
			<path fill="#ADADAD" d="M231.5,279.5c-6.4,0-9.6-3.1-9.6-7.9c0-5.5,3.8-9,10.7-9c2,0,4,0.3,5.5,0.7l-0.9,3.4
				c-1.4-0.5-3-0.8-4.8-0.8c-4.1,0-5.8,2.3-5.8,5.2c0,3,1.8,4.9,5.4,4.9c0.7,0,1.3-0.1,1.8-0.2v-5.4h4.4v7.9
				C236.3,279.1,233.9,279.5,231.5,279.5z"/>
			<path fill="#ADADAD" d="M249.2,270.5c-2.3-0.5-3.6,0.7-3.6,3.7v5h-4.3v-12.1h4c0,0.5-0.1,1.4-0.2,2.1h0.1c0.7-1.4,2-2.5,4.2-2.4
				L249.2,270.5z"/>
			<path fill="#ADADAD" d="M257,279.5c-4,0-6.7-1.7-6.7-6c0-3.9,3.1-6.6,7.4-6.6c4.2,0,6.7,2,6.7,6
				C264.3,276.9,261.2,279.5,257,279.5z M257.3,270.1c-1.3,0-2.7,0.9-2.7,3c0,2.2,0.8,3.2,2.6,3.2c1.5,0,2.6-1.1,2.6-3.1
				C259.9,271.1,259.1,270.1,257.3,270.1z"/>
			<path fill="#ADADAD" d="M275.3,279.2c0-0.5,0-1.3,0.2-1.9l-0.1,0c-0.8,1.3-2.4,2.2-4.6,2.2c-3.1,0-4.1-1.7-4.1-3.8v-8.5h4.3v7.7
				c0,1,0.3,1.6,1.3,1.6c1.5,0,2.7-1.6,2.7-3.4v-5.9h4.3v12.1H275.3z"/>
			<path fill="#ADADAD" d="M288.3,279.4c-0.5,0-1,0-1.4-0.1v5.7h-4.3v-17.8h3.9c0,0.5,0,1.1-0.1,1.7h0.1c0.8-1.3,2.2-2,4.2-2
				c3.3,0,5.1,2.1,5.1,5.6C295.7,276.7,293.3,279.4,288.3,279.4z M289.3,270c-1.5,0-2.5,1.5-2.5,3.5v3c0.4,0.1,0.9,0.1,1.5,0.1
				c1.7,0,2.9-0.9,2.9-3.6C291.2,270.9,290.6,270,289.3,270z"/>
			<path fill="#ADADAD" d="M310.4,279.3c-1.2,0-3.2,0-6,0v-16.4c1.7-0.1,4.5-0.1,6.8-0.1c4.1,0,6.5,1.4,6.5,4.1
				c0,1.5-0.9,2.9-2.6,3.5v0.1c1.8,0.4,3.1,1.9,3.1,3.6C318.2,276.8,315.9,279.3,310.4,279.3z M310.4,265.7c-0.7,0-1.2,0-1.7,0v3.6
				c0.4,0,0.8,0,1.3,0c2.1,0,3-0.8,3-2C313,266.4,312.2,265.7,310.4,265.7z M310.2,272.2c-0.2,0-1.1,0-1.5,0v3.9
				c0.4,0,1.1,0.1,1.7,0.1c2,0,3.1-0.8,3.1-2.1C313.5,272.9,312.3,272.2,310.2,272.2z"/>
		</g>
	</g>
</g>
</svg>
