<?xml version="1.0" encoding="UTF-8" standalone="no"?>
<svg width="499px" height="277px" viewBox="0 0 499 277" version="1.1" xmlns="http://www.w3.org/2000/svg" xmlns:xlink="http://www.w3.org/1999/xlink">
    <!-- Generator: Sketch 39.1 (31720) - http://www.bohemiancoding.com/sketch -->
    <title>Media Slider</title>
    <desc>Created with Sketch.</desc>
    <defs></defs>
    <g id="Page-1" stroke="none" stroke-width="1" fill="none" fill-rule="evenodd">
        <g id="Media-Slider" transform="translate(-1.000000, 0.000000)">
            <rect id="Rectangle" fill="#eaeaea" x="1.58227848" y="0" width="498.417722" height="236.550633"></rect>
            <ellipse id="Oval" fill="#949494" cx="454.905063" cy="122.626582" rx="28.4810127" ry="28.4810127"></ellipse>
            <circle id="Oval" fill="#949494" cx="43.5126582" cy="122.626582" r="28.4810127"></circle>
            <path d="M18.9873418,122.621835 L18.9873418,122.616297 C18.9873418,121.945411 18.7088608,121.34019 18.2610759,120.908228 L18.2618671,120.907437 L4.02136076,106.66693 L4.01503165,106.673259 C3.58860759,106.264241 3.01107595,106.012658 2.37341772,106.012658 C1.0625,106.012658 0,107.075158 0,108.386076 C0,109.106013 0.321202532,109.750791 0.827531646,110.185918 L13.2626582,122.621044 L0.664556962,135.219146 L0.665348101,135.219937 C0.253955696,135.647152 0,136.227057 0,136.867089 C0,138.178006 1.0625,139.240506 2.37341772,139.240506 C3.01344937,139.240506 3.59335443,138.987342 4.02056962,138.575158 L4.02136076,138.575949 L18.2618671,124.335443 L18.2610759,124.334652 C18.7088608,123.90269 18.9873418,123.297468 18.9873418,122.626582 L18.9873418,122.621835 L18.9873418,122.621835 Z" id="Page-1" fill="#FFFFFF" transform="translate(25.316456, 113.924051) scale(-1, 1) translate(-25.316456, -113.924051) "></path>
            <rect id="Rectangle" fill="#eaeaea" x="1.58227848" y="245.253165" width="498.417722" height="31.6455696"></rect>
            <path d="M466.772152,122.621835 L466.772152,122.616297 C466.772152,121.945411 466.493671,121.34019 466.045886,120.908228 L466.046677,120.907437 L451.806171,106.66693 L451.799842,106.673259 C451.373418,106.264241 450.795886,106.012658 450.158228,106.012658 C448.84731,106.012658 447.78481,107.075158 447.78481,108.386076 C447.78481,109.106013 448.106013,109.750791 448.612342,110.185918 L461.047468,122.621044 L448.449367,135.219146 L448.450158,135.219937 C448.038766,135.647152 447.78481,136.227057 447.78481,136.867089 C447.78481,138.178006 448.84731,139.240506 450.158228,139.240506 C450.798259,139.240506 451.378165,138.987342 451.80538,138.575158 L451.806171,138.575949 L466.046677,124.335443 L466.045886,124.334652 C466.493671,123.90269 466.772152,123.297468 466.772152,122.626582 L466.772152,122.621835 L466.772152,122.621835 Z" id="Page-1" fill="#FFFFFF"></path>
        </g>
    </g>
</svg>