<?xml version="1.0" encoding="UTF-8"?>
<svg width="931px" height="328px" viewBox="0 0 931 328" version="1.1" xmlns="http://www.w3.org/2000/svg" xmlns:xlink="http://www.w3.org/1999/xlink">
    <!-- Generator: Sketch 42 (36781) - http://www.bohemiancoding.com/sketch -->
    <title>Group 10</title>
    <desc>Created with Sketch.</desc>
    <defs></defs>
    <g id="Bluewin-Placeholders" stroke="none" stroke-width="1" fill="none" fill-rule="evenodd">
        <g id="Group-10" transform="translate(2.000000, 2.000000)">
            <g id="Teaser-Demi" transform="translate(629.000000, 0.000000)">
                <g>
                    <g id="image">
                        <rect fill="#eaeaea" x="0" y="0" width="298.765457" height="165.933951"></rect>
                        <g id="cross" stroke="#FFFFFF" stroke-width="2" stroke-linecap="square">
                            <path d="M0.452674934,0.138278292 L298.312782,165.795672" id="Line"></path>
                            <path d="M298.312782,0.138278292 L0.452674934,165.795672" id="Line"></path>
                        </g>
                    </g>
                    <rect id="Text" fill="#d4d4d4" x="0" y="198" width="282" height="22"></rect>
                    <rect id="Text" fill="#d4d4d4" x="0" y="226" width="262" height="22"></rect>
                    <rect id="Text" fill="#d4d4d4" x="0" y="266" width="262" height="16"></rect>
                    <rect id="Text" fill="#d4d4d4" x="0" y="176" width="72" height="16"></rect>
                    <rect id="Text" fill="#d4d4d4" x="0" y="288" width="235" height="16"></rect>
                    <rect id="Text" fill="#d4d4d4" x="0" y="310" width="161" height="16"></rect>
                </g>
            </g>
            <g id="Teaser-Demi" transform="translate(310.000000, 0.000000)">
                <g>
                    <g id="image">
                        <rect fill="#eaeaea" x="0" y="0" width="298.765457" height="165.933951"></rect>
                        <g id="cross" stroke="#FFFFFF" stroke-width="2" stroke-linecap="square">
                            <path d="M0.452674934,0.138278292 L298.312782,165.795672" id="Line"></path>
                            <path d="M298.312782,0.138278292 L0.452674934,165.795672" id="Line"></path>
                        </g>
                    </g>
                    <rect id="Text" fill="#d4d4d4" x="0" y="198" width="282" height="22"></rect>
                    <rect id="Text" fill="#d4d4d4" x="0" y="226" width="262" height="22"></rect>
                    <rect id="Text" fill="#d4d4d4" x="0" y="266" width="262" height="16"></rect>
                    <rect id="Text" fill="#d4d4d4" x="0" y="176" width="72" height="16"></rect>
                    <rect id="Text" fill="#d4d4d4" x="0" y="288" width="235" height="16"></rect>
                    <rect id="Text" fill="#d4d4d4" x="0" y="310" width="161" height="16"></rect>
                </g>
            </g>
            <g id="Teaser-Small">
                <g>
                    <g id="image">
                        <rect fill="#eaeaea" x="0" y="0" width="139.89018" height="78.7186663"></rect>
                        <g id="cross" transform="translate(0.000000, 1.000000)" stroke="#FFFFFF" stroke-width="2" stroke-linecap="square">
                            <path d="M0.211954819,0.0655988886 L139.678225,78.6530674" id="Line"></path>
                            <path d="M139.678225,0.0655988886 L0.211954819,78.6530674" id="Line"></path>
                        </g>
                    </g>
                    <rect id="Text" fill="#d4d4d4" x="150" y="21" width="140" height="16"></rect>
                    <rect id="Text" fill="#d4d4d4" x="150" y="1" width="63" height="16"></rect>
                    <rect id="Text" fill="#d4d4d4" x="150" y="41" width="133" height="16"></rect>
                    <rect id="Text" fill="#d4d4d4" x="150" y="61" width="98" height="16"></rect>
                </g>
            </g>
            <g id="Teaser-Small" transform="translate(0.000000, 104.000000)">
                <g>
                    <g id="image">
                        <rect fill="#eaeaea" x="0" y="0" width="139.89018" height="78.7186663"></rect>
                        <g id="cross" transform="translate(0.000000, 1.000000)" stroke="#FFFFFF" stroke-width="2" stroke-linecap="square">
                            <path d="M0.211954819,0.0655988886 L139.678225,78.6530674" id="Line"></path>
                            <path d="M139.678225,0.0655988886 L0.211954819,78.6530674" id="Line"></path>
                        </g>
                    </g>
                    <rect id="Text" fill="#d4d4d4" x="150" y="21" width="140" height="16"></rect>
                    <rect id="Text" fill="#d4d4d4" x="150" y="1" width="63" height="16"></rect>
                    <rect id="Text" fill="#d4d4d4" x="150" y="41" width="133" height="16"></rect>
                    <rect id="Text" fill="#d4d4d4" x="150" y="61" width="98" height="16"></rect>
                </g>
            </g>
            <g id="Teaser-Small" transform="translate(0.000000, 208.000000)">
                <g>
                    <g id="image">
                        <rect fill="#eaeaea" x="0" y="0" width="139.89018" height="78.7186663"></rect>
                        <g id="cross" transform="translate(0.000000, 1.000000)" stroke="#FFFFFF" stroke-width="2" stroke-linecap="square">
                            <path d="M0.211954819,0.0655988886 L139.678225,78.6530674" id="Line"></path>
                            <path d="M139.678225,0.0655988886 L0.211954819,78.6530674" id="Line"></path>
                        </g>
                    </g>
                    <rect id="Text" fill="#d4d4d4" x="150" y="21" width="140" height="16"></rect>
                    <rect id="Text" fill="#d4d4d4" x="150" y="1" width="63" height="16"></rect>
                    <rect id="Text" fill="#d4d4d4" x="150" y="41" width="133" height="16"></rect>
                    <rect id="Text" fill="#d4d4d4" x="150" y="61" width="98" height="16"></rect>
                </g>
            </g>
        </g>
    </g>
</svg>