<?xml version="1.0" encoding="utf-8"?>
<!-- Generator: Adobe Illustrator 24.2.3, SVG Export Plug-In . SVG Version: 6.00 Build 0)  -->
<svg version="1.1" id="Ebene_1" xmlns="http://www.w3.org/2000/svg" xmlns:xlink="http://www.w3.org/1999/xlink" x="0px" y="0px"
	 viewBox="0 0 940 400" style="enable-background:new 0 0 940 400;" xml:space="preserve">
<style type="text/css">
	.st0{fill-rule:evenodd;clip-rule:evenodd;fill:#eaeaea;}
	.st1{fill:#b8b8b8;}
</style>
<rect id="image" class="st0" width="940" height="399.1"/>
<g>
	<path class="st1" d="M369.2,173.8c2,4.1,5.2,6,9,6c4.1,0,6.4-1.6,6.4-4.3c0-2.4-1.5-3.4-6.6-5.2l-3.7-1.3c-5.8-2.1-8.4-4.7-8.4-9.6
		c0-5.8,5.3-9.8,12.2-9.8c5.8,0,10.3,2.5,13,6.9l-4.9,3.5c-2.3-3.9-5.2-5.3-8.7-5.3c-3.4,0-5.3,1.7-5.3,4c0,2.2,1.3,3.3,5.7,4.8
		l3.9,1.3c6.3,2,9.2,4.9,9.2,10c0,6.1-5.1,10.4-13,10.4c-6.2,0-11.1-2.9-13.9-7.8L369.2,173.8z"/>
	<path class="st1" d="M397.6,184.4v-34h14c4.7,0,7.5,0.7,9.4,2.1c2.6,1.8,3.7,4.9,3.7,8.3c0,3.8-1.4,7.2-4.3,8.9
		c-2.5,1.4-6,1.9-10.1,1.9h-6.6v12.8H397.6z M409.8,166.4c3.3,0,5.5-0.3,6.8-1.3c1.3-0.9,1.7-2.4,1.7-4.3c0-1.7-0.6-3.2-1.7-4.1
		c-1.3-1-2.9-1.2-6.5-1.2h-6.5v10.8H409.8z"/>
	<path class="st1" d="M428.3,167.2c0-10.8,6.3-17.6,16.2-17.6c9.3,0,15.4,7.1,15.4,17.9c0,11.1-6.1,17.6-15.4,17.6
		C434.4,185.2,428.3,178.2,428.3,167.2z M444.3,155.1c-5.8,0-9.5,4.4-9.5,12c0,7.9,3.8,12.7,9.7,12.7c5.4,0,9.1-4.1,9.1-12.3
		C453.5,159.6,449.8,155.1,444.3,155.1z"/>
	<path class="st1" d="M487.2,184.4l-8.6-13.6h-5.8v13.6h-6.1v-34h11c4.4,0,7.8,0.2,10.3,1.2c3.5,1.4,5.1,4.2,5.1,8.8
		c0,5.6-3.1,8.7-8.5,9.5l9.7,14.5H487.2z M479.2,165.9c3.1,0,4.8-0.4,5.9-1.3c1.1-0.9,1.7-2.3,1.7-4c0-1.8-0.4-3.2-1.9-4.1
		c-1.1-0.7-2.8-1-5.5-1h-6.6v10.4H479.2z"/>
	<path class="st1" d="M506.3,184.4v-28.8h-9.6v-5.3h25.6v5.3h-9.6v28.8H506.3z"/>
	<path class="st1" d="M529.1,173.8c2,4.1,5.2,6,9,6c4.1,0,6.4-1.6,6.4-4.3c0-2.4-1.5-3.4-6.6-5.2l-3.7-1.3c-5.8-2.1-8.4-4.7-8.4-9.6
		c0-5.8,5.3-9.8,12.2-9.8c5.8,0,10.3,2.5,13,6.9l-4.9,3.5c-2.3-3.9-5.2-5.3-8.7-5.3c-3.4,0-5.3,1.7-5.3,4c0,2.2,1.3,3.3,5.7,4.8
		l3.9,1.3c6.3,2,9.2,4.9,9.2,10c0,6.1-5.1,10.4-13,10.4c-6.2,0-11.1-2.9-13.9-7.8L529.1,173.8z"/>
	<path class="st1" d="M331,242.3v-34h14c4.7,0,7.5,0.7,9.4,2.1c2.6,1.8,3.7,4.9,3.7,8.3c0,3.8-1.4,7.2-4.3,8.9
		c-2.5,1.4-6,1.9-10.1,1.9H337v12.8H331z M343.2,224.2c3.3,0,5.5-0.3,6.8-1.3c1.3-0.9,1.7-2.4,1.7-4.3c0-1.7-0.6-3.2-1.7-4.1
		c-1.3-1-2.9-1.2-6.5-1.2H337v10.8H343.2z"/>
	<path class="st1" d="M382.1,242.3l-2.7-8h-13.5l-2.7,8h-6.6l12.9-34h6.8l12.4,34H382.1z M377.9,229.5c-1.9-5.5-3.6-10.2-5.2-15.1
		c-1.1,3.4-2.3,6.8-5.3,15.1H377.9z"/>
	<path class="st1" d="M414.3,218.9c-0.9-3.7-3.3-6-7-6c-6.2,0-9.5,4.5-9.5,11.9c0,7.8,3.5,12.8,9.5,12.8c3.8,0,6.7-2.1,7.6-6.3
		l5.9,2.1c-2.1,6.3-7.1,9.6-13.7,9.6c-9.8,0-15.7-6.8-15.7-18s6.4-17.6,16.1-17.6c6.8,0,11.2,3.6,12.9,9.2L414.3,218.9z"/>
	<path class="st1" d="M448.4,242.3l-10-16.2l-5.9,6.5v9.7h-6.1v-34h6.1v16.3l14.5-16.3h7.5l-12,13.3l13.2,20.8H448.4z"/>
	<path class="st1" d="M483.4,242.3l-2.7-8h-13.5l-2.7,8h-6.6l12.9-34h6.8l12.4,34H483.4z M479.2,229.5c-1.9-5.5-3.6-10.2-5.2-15.1
		c-1.1,3.4-2.3,6.8-5.3,15.1H479.2z"/>
	<path class="st1" d="M517.4,242.3v-3.7c-2.4,3-5.6,4.4-10,4.4c-8.6,0-14.8-6.8-14.8-17.3c0-10.4,6.1-18.2,16.8-18.2
		c6.8,0,11.3,3.1,13.5,9l-6.1,2.3c-1.1-3.6-3.5-5.8-7.6-5.8c-6.4,0-10.3,4.8-10.3,12.4c0,8,4.1,12.3,9.9,12.3c5.4,0,8.1-3.3,8.2-8.9
		h-9.5v-5.2h15.2v18.8H517.4z"/>
	<path class="st1" d="M531,242.3v-34h23.7v5.3h-17.5v8.7h16.2v5.3h-16.2v9.5h18.5v5.3H531z"/>
	<path class="st1" d="M564.7,231.7c2,4.1,5.2,6,9,6c4.1,0,6.4-1.6,6.4-4.3c0-2.4-1.5-3.4-6.6-5.2l-3.7-1.3c-5.8-2.1-8.4-4.7-8.4-9.6
		c0-5.8,5.3-9.8,12.2-9.8c5.8,0,10.3,2.5,13,6.9l-4.9,3.5c-2.3-3.9-5.2-5.3-8.7-5.3c-3.4,0-5.3,1.7-5.3,4c0,2.2,1.3,3.3,5.7,4.8
		l3.9,1.3c6.3,2,9.2,4.9,9.2,10c0,6.1-5.1,10.4-13,10.4c-6.2,0-11.1-2.9-13.9-7.8L564.7,231.7z"/>
</g>
</svg>
