<?xml version="1.0" encoding="utf-8"?>
<!-- Generator: Adobe Illustrator 24.2.1, SVG Export Plug-In . SVG Version: 6.00 Build 0)  -->
<svg version="1.1" id="Ebene_1" xmlns="http://www.w3.org/2000/svg" xmlns:xlink="http://www.w3.org/1999/xlink" x="0px" y="0px"
	 viewBox="0 0 470 400" style="enable-background:new 0 0 470 400;" xml:space="preserve">
<style type="text/css">
	.st0{fill-rule:evenodd;clip-rule:evenodd;fill:#eaeaea;}
	.st1{fill:#b8b8b8;}
</style>
<rect id="image" class="st0" width="470" height="399.1"/>
<g>
	<path class="st1" d="M106,188.1v-33.9h14c4.7,0,7.5,0.7,9.4,2.1c2.5,1.8,3.7,4.9,3.7,8.3c0,3.8-1.3,7.2-4.3,8.9
		c-2.5,1.4-6,1.9-10.1,1.9h-6.6v12.8H106z M118.2,170.2c3.3,0,5.5-0.3,6.8-1.2c1.2-0.9,1.7-2.4,1.7-4.3c0-1.7-0.6-3.2-1.7-4.1
		c-1.3-1-2.9-1.2-6.4-1.2h-6.5v10.8H118.2z"/>
	<path class="st1" d="M157.4,188.1l-2.7-7.9h-13.4l-2.7,7.9H132l12.9-33.9h6.8l12.4,33.9H157.4z M153.2,175.4
		c-1.9-5.5-3.6-10.1-5.1-15.1c-1.1,3.4-2.3,6.8-5.3,15.1H153.2z"/>
	<path class="st1" d="M190,164.8c-0.9-3.7-3.3-6-7-6c-6.2,0-9.5,4.5-9.5,11.8c0,7.7,3.5,12.7,9.5,12.7c3.7,0,6.6-2.1,7.5-6.2
		l5.9,2.1c-2.1,6.2-7.1,9.6-13.6,9.6c-9.7,0-15.6-6.8-15.6-18c0-11.1,6.4-17.5,16-17.5c6.7,0,11.1,3.6,12.9,9.2L190,164.8z"/>
	<path class="st1" d="M224.4,188.1l-9.9-16.1l-5.9,6.5v9.6h-6.1v-33.9h6.1v16.3l14.4-16.3h7.4l-11.9,13.2l13.1,20.7H224.4z"/>
	<path class="st1" d="M259.7,188.1l-2.7-7.9h-13.4l-2.7,7.9h-6.6l12.9-33.9h6.8l12.4,33.9H259.7z M255.6,175.4
		c-1.9-5.5-3.6-10.1-5.1-15.1c-1.1,3.4-2.3,6.8-5.3,15.1H255.6z"/>
	<path class="st1" d="M294.1,188.1v-3.7c-2.4,3-5.6,4.4-9.9,4.4c-8.5,0-14.7-6.8-14.7-17.2c0-10.3,6-18.1,16.8-18.1
		c6.8,0,11.3,3.1,13.4,8.9l-6,2.3c-1.1-3.6-3.5-5.8-7.5-5.8c-6.4,0-10.2,4.8-10.2,12.3c0,8,4.1,12.2,9.9,12.2c5.4,0,8-3.3,8.2-8.8
		h-9.5v-5.2h15.1v18.7H294.1z"/>
	<path class="st1" d="M308.1,188.1v-33.9h23.6v5.2h-17.4v8.6h16.1v5.2h-16.1v9.5h18.4v5.3H308.1z"/>
	<path class="st1" d="M342.1,177.6c2,4,5.2,6,8.9,6c4.1,0,6.4-1.6,6.4-4.3c0-2.4-1.5-3.4-6.5-5.1l-3.6-1.3c-5.8-2.1-8.4-4.7-8.4-9.6
		c0-5.8,5.2-9.8,12.1-9.8c5.8,0,10.3,2.4,13,6.9l-4.9,3.5c-2.3-3.8-5.2-5.2-8.6-5.2c-3.4,0-5.3,1.7-5.3,4c0,2.2,1.2,3.3,5.7,4.8
		l3.9,1.3c6.3,2,9.2,4.8,9.2,9.9c0,6.1-5,10.3-12.9,10.3c-6.1,0-11.1-2.9-13.9-7.8L342.1,177.6z"/>
	<path class="st1" d="M184.5,235.2c2,4,5.2,6,8.9,6c4.1,0,6.4-1.6,6.4-4.3c0-2.4-1.5-3.4-6.5-5.1l-3.6-1.3c-5.8-2.1-8.4-4.7-8.4-9.6
		c0-5.8,5.2-9.8,12.1-9.8c5.8,0,10.3,2.4,13,6.9l-4.9,3.5c-2.3-3.8-5.2-5.2-8.6-5.2c-3.4,0-5.3,1.7-5.3,4c0,2.2,1.2,3.3,5.7,4.8
		l3.9,1.3c6.3,2,9.2,4.8,9.2,9.9c0,6.1-5,10.3-12.9,10.3c-6.1,0-11.1-2.9-13.9-7.8L184.5,235.2z"/>
	<path class="st1" d="M219.5,245.7h-6.2v-33.9h6.2V245.7z"/>
	<path class="st1" d="M227.9,211.8h10.5c6,0,8.5,0.4,11.1,1.7c4.7,2.3,6.9,7.9,6.9,14.9c0,5.5-1.5,10.3-4.4,13.2
		c-3.1,3.1-7.2,4.1-14.1,4.1h-10V211.8z M238.4,240.5c4.6,0,7.4-1,9.2-2.9c1.8-2,2.4-5,2.4-9.2c0-3.6-0.7-6.7-2.5-8.7
		c-1.6-1.7-3.6-2.7-8.3-2.7H234v23.5H238.4z"/>
	<path class="st1" d="M263.7,245.7v-33.9h23.6v5.2h-17.4v8.6h16.1v5.2h-16.1v9.5h18.4v5.3H263.7z"/>
</g>
</svg>
