<?xml version="1.0" encoding="UTF-8"?>
<svg width="566px" height="222px" viewBox="0 0 566 222" version="1.1" xmlns="http://www.w3.org/2000/svg" xmlns:xlink="http://www.w3.org/1999/xlink">
    <!-- Generator: Sketch 43 (38999) - http://www.bohemiancoding.com/sketch -->
    <title>Tweet</title>
    <desc>Created with Sketch.</desc>
    <defs></defs>
    <g id="Bluewin-Placeholders" stroke="none" stroke-width="1" fill="none" fill-rule="evenodd">
        <g id="Tweet" transform="translate(2.000000, 2.000000)">
            <g>
                <g id="image">
                    <rect fill="#eaeaea" x="0" y="0" width="79.9372459" height="79.9681689"></rect>
                    <rect fill="#eaeaea" x="0" y="0" width="79.9372459" height="79.9681689"></rect>
                    <g id="cross" stroke="#FFFFFF" stroke-width="2" stroke-linecap="square">
                        <path d="M0.121117039,0.0666401408 L79.8161289,79.9015288" id="Line"></path>
                        <path d="M79.8161289,0.0666401408 L0.121117039,79.9015288" id="Line"></path>
                    </g>
                </g>
                <rect id="Text" fill="#d4d4d4" x="100" y="2" width="282" height="30"></rect>
                <rect id="Text" fill="#d4d4d4" x="0" y="100" width="502" height="30"></rect>
                <rect id="Text" fill="#d4d4d4" x="0" y="144" width="445" height="30"></rect>
                <rect id="Text" fill="#d4d4d4" x="0" y="190" width="191" height="30"></rect>
                <rect id="Ghost-Button" stroke="#979797" stroke-width="4" x="422" y="4" width="140" height="46" rx="5"></rect>
                <rect id="Text" fill="#d4d4d4" x="100" y="48" width="282" height="30"></rect>
            </g>
            <g id="tweet-embed" transform="translate(479.000000, 136.000000)" fill-rule="nonzero" fill="#d4d4d4">
                <g id="Slice-1">
                    <g id="Page-1">
                        <g id="tweet-embed">
                            <path d="M40.5,0 C18.131502,0 0,18.131502 0,40.5 C0,62.8686563 18.131502,81 40.5,81 C62.8686563,81 81,62.8686563 81,40.5 C81,18.131502 62.8686563,0 40.5,0 L40.5,0 Z M40.5,74.671875 C21.6268418,74.671875 6.328125,59.3733164 6.328125,40.5 C6.328125,21.6268418 21.6268418,6.328125 40.5,6.328125 C59.3733164,6.328125 74.671875,21.6268418 74.671875,40.5 C74.671875,59.3733164 59.3733164,74.671875 40.5,74.671875 L40.5,74.671875 Z" id="Shape"></path>
                            <path d="M56.1125918,28.4567871 C57.3364512,27.7462969 59.1481934,25.4188125 59.5955918,23.5698926 C58.4193516,24.3781523 55.717084,25.5572402 54.3827988,25.5572402 C52.8621504,23.8491211 50.7211875,22.78125 48.3432363,22.78125 C43.7309824,22.78125 39.9885293,26.8092598 39.9885293,31.7790527 C39.9885293,32.4688184 40.064625,33.1388086 40.2032109,33.7838027 C33.9416895,33.6107285 26.6249531,30.2327754 22.5017051,24.4498184 C19.9704551,29.172498 22.1606191,34.4238926 25.0353281,36.3373594 C24.0539941,36.4189922 22.2397207,36.2161758 21.3870059,35.323752 C21.3276797,38.4556992 22.7292012,42.6086895 27.8314102,44.1139922 C26.8472285,44.6851055 25.1118984,44.521998 24.3534727,44.395752 C24.6203613,47.0456543 28.0612793,50.5060312 31.8209766,50.5060312 C30.4809961,52.172543 25.9084512,55.2056133 20.2498418,54.2389922 C24.0940195,56.7604336 28.5754395,58.21875 33.3188437,58.21875 C46.798541,58.21875 57.267,46.4549238 56.7034805,31.9423184 C56.6985762,31.85325 56.7034805,31.8136992 56.7034805,31.7790527 C56.7034805,31.7345977 56.6985762,31.6901426 56.6985762,31.6431562 C57.9246504,30.7432969 59.5707539,29.1463945 60.75,27.0403945 C60.0676699,27.4457109 58.0213125,28.2539707 56.1125918,28.4567871 Z" id="Shape"></path>
                        </g>
                    </g>
                </g>
            </g>
        </g>
    </g>
</svg>