<?xml version="1.0" encoding="utf-8"?>
<!-- Generator: Adobe Illustrator 25.2.0, SVG Export Plug-In . SVG Version: 6.00 Build 0)  -->
<svg version="1.1" xmlns="http://www.w3.org/2000/svg" xmlns:xlink="http://www.w3.org/1999/xlink" x="0px" y="0px"
	 viewBox="0 0 1728 276" enable-background="new 0 0 1728 276" xml:space="preserve">
<g id="Teams">
</g>
<g id="Table">
	<g>
		<rect fill="#E6E6E6" width="1728" height="276"/>
	</g>
	<g>
		<rect x="617" y="17" fill="#ADADAD" width="150" height="14"/>
		<rect x="843" y="17" fill="#ADADAD" width="120" height="14"/>
		<rect x="1069" y="17" fill="#ADADAD" width="145" height="14"/>
		<rect x="1300" y="17" fill="#ADADAD" width="28" height="14"/>
		<rect x="1459.5" y="17" fill="#ADADAD" width="28" height="14"/>
		<rect x="1381.6" y="17" fill="#ADADAD" width="28" height="14"/>
	</g>
	<g>
		<g>
			<circle fill="#979797" cx="305.4" cy="78.9" r="16"/>
		</g>
		<rect x="339" y="72" fill="#979797" width="212" height="14"/>
		<rect x="617" y="72" fill="#979797" width="28" height="14"/>
		<rect x="843" y="72" fill="#979797" width="28" height="14"/>
		<rect x="1069.6" y="72" fill="#979797" width="28" height="14"/>
		<rect x="1300" y="72" fill="#979797" width="28" height="14"/>
		<rect x="1381.6" y="72" fill="#979797" width="28" height="14"/>
		<rect x="1459.5" y="72" fill="#979797" width="28" height="14"/>
		<rect x="221" y="113.7" fill="#ADADAD" width="1268" height="1"/>
	</g>
	<g>
		<g>
			<circle fill="#979797" cx="305.4" cy="155.4" r="16"/>
		</g>
		<rect x="339" y="148.5" fill="#979797" width="212" height="14"/>
		<rect x="617" y="148.5" fill="#979797" width="28" height="14"/>
		<rect x="843" y="148.5" fill="#979797" width="28" height="14"/>
		<rect x="1069.6" y="148.5" fill="#979797" width="28" height="14"/>
		<rect x="1300" y="148.5" fill="#979797" width="28" height="14"/>
		<rect x="1381.6" y="148.5" fill="#979797" width="28" height="14"/>
		<rect x="1459.5" y="148.5" fill="#979797" width="28" height="14"/>
		<rect x="221" y="190.2" fill="#ADADAD" width="1268" height="1"/>
	</g>
	<g>
		<g>
			<circle fill="#979797" cx="305.4" cy="225.9" r="16"/>
		</g>
		<rect x="339" y="219" fill="#979797" width="212" height="14"/>
		<rect x="617" y="219" fill="#979797" width="28" height="14"/>
		<rect x="843" y="219" fill="#979797" width="28" height="14"/>
		<rect x="1069.6" y="219" fill="#979797" width="28" height="14"/>
		<rect x="1300" y="219" fill="#979797" width="28" height="14"/>
		<rect x="1381.6" y="219" fill="#979797" width="28" height="14"/>
		<rect x="1459.5" y="219" fill="#979797" width="28" height="14"/>
		<rect x="221" y="260.7" fill="#ADADAD" width="1268" height="1"/>
	</g>
	<g>
		<path fill="#ADADAD" d="M232.7,90v-3.8h4.4v-9.9l-3.8,1.5l-0.7-4.1l5.7-1.9h3.2v14.4h3.8V90H232.7z"/>
		<path fill="#ADADAD" d="M232.3,163v-3.5l1.9-1.8c4.7-4.4,5.3-5.7,5.3-7c0-1.3-0.9-2.2-2.6-2.2c-1.5,0-2.8,0.5-3.7,1.1l-0.8-3.8
			c1.4-0.8,3.4-1.3,5.5-1.3c4.5,0,6.4,2.7,6.4,5.4c0,2.4-1,4.4-4.6,7.7l-1.4,1.3v0.1c1.4-0.1,3.1-0.1,4.8-0.1h1.8v4.1H232.3z"/>
		<path fill="#ADADAD" d="M236.3,236.3c-1.5,0-2.9-0.2-3.7-0.4l0.4-3.6c1.1,0.4,2.2,0.5,3.6,0.5c2.5,0,3.6-1,3.6-2.3
			c0-1.3-1-2.1-3.6-2.1c-1.1,0-2,0.1-3,0.2v-3.3h1c3.1,0,5.3-0.7,5.3-2.4c0-1.1-0.8-1.9-2.7-1.9c-1.6,0-2.9,0.4-3.8,0.9l-0.4-3.6
			c1.4-0.5,3.1-0.9,5.1-0.9c4.3,0,6.3,1.9,6.3,4.6c0,2-1.1,3.4-3,4l0,0.1c2.1,0.3,3.4,2,3.4,4C244.7,234.1,241.3,236.3,236.3,236.3z
			"/>
	</g>
</g>
<g id="Table__x5B_edible_x5D_">
</g>
<g id="Fixture">
</g>
<g id="Groupphase">
</g>
</svg>
