<?xml version="1.0" encoding="utf-8"?>
<!-- Generator: Adobe Illustrator 24.2.1, SVG Export Plug-In . SVG Version: 6.00 Build 0)  -->
<svg version="1.1" id="Ebene_1" xmlns="http://www.w3.org/2000/svg" xmlns:xlink="http://www.w3.org/1999/xlink" x="0px" y="0px"
	 viewBox="0 0 940 400" style="enable-background:new 0 0 940 400;" xml:space="preserve">
<style type="text/css">
	.st0{fill-rule:evenodd;clip-rule:evenodd;fill:#eaeaea;}
	.st1{fill:#b8b8b8;}
</style>
<rect id="image" class="st0" width="940" height="399.1"/>
<g>
	<path class="st1" d="M303,217v-33.9h23.3v5.2h-17.1v8.9h15.6v5.2h-15.6V217H303z"/>
	<path class="st1" d="M339.1,217h-6.2v-33.9h6.2V217z"/>
	<path class="st1" d="M347.5,217v-33.9h6.1v28.6h16v5.3H347.5z"/>
	<path class="st1" d="M376.1,217v-28.7h-9.6v-5.2H392v5.2h-9.6V217H376.1z"/>
	<path class="st1" d="M398.2,217v-33.9h23.6v5.2h-17.4v8.6h16.1v5.2h-16.1v9.5h18.4v5.3H398.2z"/>
	<path class="st1" d="M450,217l-8.5-13.5h-5.8V217h-6v-33.9h11c4.4,0,7.7,0.2,10.2,1.2c3.5,1.4,5.1,4.2,5.1,8.7
		c0,5.6-3.1,8.6-8.4,9.5l9.6,14.4H450z M442,198.6c3.1,0,4.8-0.4,5.9-1.2c1.1-0.9,1.7-2.3,1.7-4c0-1.8-0.4-3.2-1.9-4.1
		c-1.1-0.7-2.8-1-5.5-1h-6.5v10.4H442z"/>
	<path class="st1" d="M503.6,203.1c-1.2,3-2.5,5.3-4.2,7.2l0.6,0.6c1,1,1.7,1.4,3.3,1.4c0.3,0,0.8,0,1.1-0.1v4.7
		c-0.6,0.1-1.3,0.1-1.8,0.1c-2.5,0-4.2-0.1-7-2.9c-2.7,2.4-6,3.3-9.6,3.3c-6.7,0-11.2-4-11.2-9.7c0-4.1,1.7-7.1,7.9-10.4
		c-1.7-2.4-2.5-4.5-2.5-6.8c0-4.5,3.2-7.7,8.8-7.7c4.7,0,7.9,2.8,7.9,6.7c0,3.6-1.5,6.1-6.6,9.2l6,7.8c1.2-1.6,2.2-3.6,2.8-6
		L503.6,203.1z M485.3,201.3c-3.9,2.2-4.9,4-4.9,6.4c0,3.2,2.6,5.1,6.2,5.1c2.3,0,4.1-0.7,5.8-2.3L485.3,201.3z M491.7,190.2
		c0-1.6-1.2-2.8-3.1-2.8c-2.1,0-3.3,1.2-3.3,3c0,1.4,0.5,2.6,2.2,4.9C490.6,193.5,491.7,191.9,491.7,190.2z"/>
	<path class="st1" d="M546.4,217v-3.7c-2.4,3-5.6,4.4-9.9,4.4c-8.5,0-14.7-6.8-14.7-17.2c0-10.3,6-18.1,16.8-18.1
		c6.8,0,11.3,3.1,13.4,8.9l-6,2.3c-1.1-3.6-3.5-5.8-7.5-5.8c-6.4,0-10.2,4.8-10.2,12.3c0,8,4.1,12.2,9.9,12.2c5.4,0,8-3.3,8.2-8.8
		h-9.5v-5.2h15.1V217H546.4z"/>
	<path class="st1" d="M580.8,217l-8.5-13.5h-5.8V217h-6v-33.9h11c4.4,0,7.7,0.2,10.2,1.2c3.5,1.4,5.1,4.2,5.1,8.7
		c0,5.6-3.1,8.6-8.4,9.5l9.6,14.4H580.8z M572.8,198.6c3.1,0,4.8-0.4,5.9-1.2c1.1-0.9,1.7-2.3,1.7-4c0-1.8-0.4-3.2-1.9-4.1
		c-1.1-0.7-2.8-1-5.5-1h-6.5v10.4H572.8z"/>
	<path class="st1" d="M600.1,217h-6.2v-33.9h6.2V217z"/>
	<path class="st1" d="M608.6,183.1H619c6,0,8.5,0.4,11.1,1.7c4.7,2.3,6.9,7.9,6.9,14.9c0,5.5-1.5,10.3-4.4,13.2
		c-3.1,3.1-7.2,4.1-14.1,4.1h-10V183.1z M619,211.8c4.6,0,7.4-1,9.2-2.9c1.8-2,2.4-5,2.4-9.2c0-3.6-0.7-6.7-2.5-8.7
		c-1.6-1.7-3.6-2.7-8.3-2.7h-5.1v23.5H619z"/>
</g>
</svg>
