<?xml version="1.0" encoding="UTF-8"?>
<svg width="291px" height="244px" viewBox="0 0 291 244" version="1.1" xmlns="http://www.w3.org/2000/svg" xmlns:xlink="http://www.w3.org/1999/xlink">
    <!-- Generator: Sketch 43 (38999) - http://www.bohemiancoding.com/sketch -->
    <title>Group 24@2x</title>
    <desc>Created with Sketch.</desc>
    <defs></defs>
    <g id="Bluewin-Placeholders" stroke="none" stroke-width="1" fill="none" fill-rule="evenodd">
        <g id="Group-24" fill="#d4d4d4">
            <g id="Group-23">
                <g id="Group-12">
                    <g id="Group-11">
                        <polygon id="Text" points="0 0 42 2.96981085e-16 42 21.3997425 0 21.3997425"></polygon>
                        <polygon id="Text" points="58.0630189 0 290.836066 2.96981085e-16 290.836066 21.3997425 58.0630189 21.3997425"></polygon>
                        <polygon id="Text" points="58.0630189 27.3441154 215.288842 27.3441154 215.288842 48.7438579 58.0630189 48.7438579"></polygon>
                    </g>
                </g>
            </g>
            <g id="Group-23" transform="translate(0.000000, 65.066667)">
                <g id="Group-12">
                    <g id="Group-11">
                        <polygon id="Text" points="0 0 42 2.96981085e-16 42 21.3997425 0 21.3997425"></polygon>
                        <polygon id="Text" points="58.0630189 0 290.836066 2.96981085e-16 290.836066 21.3997425 58.0630189 21.3997425"></polygon>
                        <polygon id="Text" points="58.0630189 27.3441154 215.288842 27.3441154 215.288842 48.7438579 58.0630189 48.7438579"></polygon>
                    </g>
                </g>
            </g>
            <g id="Group-23" transform="translate(0.000000, 130.133333)">
                <g id="Group-12">
                    <g id="Group-11">
                        <polygon id="Text" points="0 0 42 2.96981085e-16 42 21.3997425 0 21.3997425"></polygon>
                        <polygon id="Text" points="58.0630189 0 290.836066 2.96981085e-16 290.836066 21.3997425 58.0630189 21.3997425"></polygon>
                        <polygon id="Text" points="58.0630189 27.3441154 215.288842 27.3441154 215.288842 48.7438579 58.0630189 48.7438579"></polygon>
                    </g>
                </g>
            </g>
            <g id="Group-23" transform="translate(0.000000, 195.200000)">
                <g id="Group-12">
                    <g id="Group-11">
                        <polygon id="Text" points="0 0 42 2.96981085e-16 42 21.3997425 0 21.3997425"></polygon>
                        <polygon id="Text" points="58.0630189 0 290.836066 2.96981085e-16 290.836066 21.3997425 58.0630189 21.3997425"></polygon>
                        <polygon id="Text" points="58.0630189 27.3441154 215.288842 27.3441154 215.288842 48.7438579 58.0630189 48.7438579"></polygon>
                    </g>
                </g>
            </g>
        </g>
    </g>
</svg>