<?xml version="1.0" encoding="utf-8"?>
<!-- Generator: Adobe Illustrator 24.2.1, SVG Export Plug-In . SVG Version: 6.00 Build 0)  -->
<svg version="1.1" id="Ebene_1" xmlns="http://www.w3.org/2000/svg" xmlns:xlink="http://www.w3.org/1999/xlink" x="0px" y="0px"
	 viewBox="0 0 940 400" style="enable-background:new 0 0 940 400;" xml:space="preserve">
<style type="text/css">
	.st0{fill-rule:evenodd;clip-rule:evenodd;fill:#F2F2F2;}
	.st1{enable-background:new    ;}
	.st2{fill:#d4d4d4;}
</style>
<rect id="image" class="st0" width="940" height="399.1"/>
<g class="st1">
	<path class="st2" d="M361.7,217V183H385v5.2h-17.1v8.9h15.6v5.2h-15.6v14.5h-6.2V217z"/>
	<path class="st2" d="M411.9,217l-8.5-13.5h-5.8V217h-6V183h11c4.4,0,7.7,0.2,10.2,1.2c3.5,1.4,5.1,4.2,5.1,8.7
		c0,5.6-3.1,8.6-8.4,9.5l9.6,14.4h-7.2V217z M403.9,198.5c3.1,0,4.8-0.4,5.9-1.2c1.1-0.9,1.7-2.3,1.7-4c0-1.8-0.4-3.2-1.9-4.1
		c-1.1-0.7-2.8-1-5.5-1h-6.5v10.4h6.3V198.5z"/>
	<path class="st2" d="M425,217V183h23.6v5.2h-17.4v8.6h16.1v5.2h-16.1v9.5h18.4v5.3H425V217z"/>
	<path class="st2" d="M456.4,217V183H480v5.2h-17.4v8.6h16.1v5.2h-16.1v9.5H481v5.3h-24.6V217z"/>
	<path class="st2" d="M508.2,217v-28.7h-9.6v-5.2H524v5.2h-9.6V217H508.2z"/>
	<path class="st2" d="M539,217L527.2,183h6.6c3.9,11.9,6.4,19.2,8.5,26.8c2.1-7.5,4.4-15,8.3-26.8h6.5l-11.7,33.9L539,217L539,217z"
		/>
</g>
</svg>
