<?xml version="1.0" encoding="utf-8"?>
<!-- Generator: Adobe Illustrator 25.2.0, SVG Export Plug-In . SVG Version: 6.00 Build 0)  -->
<svg version="1.1" xmlns="http://www.w3.org/2000/svg" xmlns:xlink="http://www.w3.org/1999/xlink" x="0px" y="0px"
	 viewBox="0 0 1728 276" enable-background="new 0 0 1728 276" xml:space="preserve">
<g id="Teams">
	<g>
		<rect fill="#E6E6E6" width="1728" height="276"/>
	</g>
	<g>
		<g>
			<g>
				<circle fill="#979797" cx="276.4" cy="49.3" r="16"/>
			</g>
			<rect x="310.7" y="42.8" fill="#979797" width="211.8" height="13"/>
			<rect x="258" y="84.2" fill="#ADADAD" width="276" height="1"/>
		</g>
		<g>
			<g>
				<circle fill="#979797" cx="588.4" cy="49.3" r="16"/>
			</g>
			<rect x="622.7" y="42.8" fill="#979797" width="211.8" height="13"/>
			<rect x="570" y="84.2" fill="#ADADAD" width="276" height="1"/>
		</g>
		<g>
			<g>
				<circle fill="#979797" cx="900.4" cy="49.3" r="16"/>
			</g>
			<rect x="934.7" y="42.8" fill="#979797" width="211.8" height="13"/>
			<rect x="882" y="84.2" fill="#ADADAD" width="276" height="1"/>
		</g>
		<g>
			<g>
				<circle fill="#979797" cx="1212.4" cy="49.3" r="16"/>
			</g>
			<rect x="1246.7" y="42.8" fill="#979797" width="211.8" height="13"/>
			<rect x="1194" y="84.2" fill="#ADADAD" width="276" height="1"/>
		</g>
	</g>
	<g>
		<g>
			<g>
				<circle fill="#979797" cx="276.4" cy="131.1" r="16"/>
			</g>
			<rect x="310.7" y="124.6" fill="#979797" width="211.8" height="13"/>
			<rect x="258" y="165.9" fill="#ADADAD" width="276" height="1"/>
		</g>
		<g>
			<g>
				<circle fill="#979797" cx="588.4" cy="131.1" r="16"/>
			</g>
			<rect x="622.7" y="124.6" fill="#979797" width="211.8" height="13"/>
			<rect x="570" y="165.9" fill="#ADADAD" width="276" height="1"/>
		</g>
		<g>
			<g>
				<circle fill="#979797" cx="900.4" cy="131.1" r="16"/>
			</g>
			<rect x="934.7" y="124.6" fill="#979797" width="211.8" height="13"/>
			<rect x="882" y="165.9" fill="#ADADAD" width="276" height="1"/>
		</g>
		<g>
			<g>
				<circle fill="#979797" cx="1212.4" cy="131.1" r="16"/>
			</g>
			<rect x="1246.7" y="124.6" fill="#979797" width="211.8" height="13"/>
			<rect x="1194" y="165.9" fill="#ADADAD" width="276" height="1"/>
		</g>
	</g>
	<g>
		<g>
			<g>
				<circle fill="#979797" cx="276.4" cy="212.9" r="16"/>
			</g>
			<rect x="310.7" y="206.4" fill="#979797" width="211.8" height="13"/>
			<rect x="258" y="247.7" fill="#ADADAD" width="276" height="1"/>
		</g>
		<g>
			<g>
				<circle fill="#979797" cx="588.4" cy="212.9" r="16"/>
			</g>
			<rect x="622.7" y="206.4" fill="#979797" width="211.8" height="13"/>
			<rect x="570" y="247.7" fill="#ADADAD" width="276" height="1"/>
		</g>
		<g>
			<g>
				<circle fill="#979797" cx="900.4" cy="212.9" r="16"/>
			</g>
			<rect x="934.7" y="206.4" fill="#979797" width="211.8" height="13"/>
			<rect x="882" y="247.7" fill="#ADADAD" width="276" height="1"/>
		</g>
		<g>
			<g>
				<circle fill="#979797" cx="1212.4" cy="212.9" r="16"/>
			</g>
			<rect x="1246.7" y="206.4" fill="#979797" width="211.8" height="13"/>
			<rect x="1194" y="247.7" fill="#ADADAD" width="276" height="1"/>
		</g>
	</g>
</g>
<g id="Table">
</g>
<g id="Table__x5B_edible_x5D_">
</g>
<g id="Fixture">
</g>
<g id="Groupphase">
</g>
</svg>
