<?xml version="1.0" encoding="UTF-8"?>
<svg width="920px" height="214px" viewBox="0 0 920 214" version="1.1" xmlns="http://www.w3.org/2000/svg" xmlns:xlink="http://www.w3.org/1999/xlink">
    <!-- Generator: Sketch 42 (36781) - http://www.bohemiancoding.com/sketch -->
    <title>teaser-list--videos</title>
    <desc>Created with Sketch.</desc>
    <defs></defs>
    <g id="Bluewin-Placeholders" stroke="none" stroke-width="1" fill="none" fill-rule="evenodd">
        <g id="teaser-list-videos" transform="translate(1.000000, 2.000000)">
            <g id="teaser-list--videos">
                <g id="Demi-Teaser">
                    <g id="image">
                        <rect fill="#eaeaea" x="0" y="0.149167438" width="214.348485" height="119.135391"></rect>
                        <g id="cross" transform="translate(0.571809, 0.000000)" stroke="#FFFFFF" stroke-width="2" stroke-linecap="square">
                            <path d="M0.324770432,0.0992794926 L214.023714,119.036112" id="Line"></path>
                            <path d="M214.023714,0.0992794926 L0.324770432,119.036112" id="Line"></path>
                        </g>
                    </g>
                    <rect id="Ghost-Button" fill="#b8b8b8" x="8" y="70" width="96" height="42" rx="5"></rect>
                    <g id="Play-icon" transform="translate(16.000000, 76.000000)" fill="#eaeaea">
                        <circle id="Oval" stroke="#eaeaea" stroke-width="2" fill-opacity="0" cx="15" cy="15" r="15"></circle>
                        <polygon id="Triangle" transform="translate(16.000000, 14.833333) rotate(90.000000) translate(-16.000000, -14.833333) " points="16 9 23 20.6666667 9 20.6666667"></polygon>
                    </g>
                    <rect id="Text" fill="#b8b8b8" x="0" y="125" width="194.929993" height="24"></rect>
                    <rect id="Text" fill="#b8b8b8" x="0" y="153" width="153.162109" height="24"></rect>
                    <polygon id="Text" fill="#b8b8b8" points="0 193 76 193 76 212 0 212"></polygon>
                </g>
                <g id="Demi-Teaser" transform="translate(235.000000, 0.000000)">
                    <g id="image">
                        <rect fill="#eaeaea" x="0" y="0.149167438" width="214.348485" height="119.135391"></rect>
                        <g id="cross" transform="translate(0.571809, 0.000000)" stroke="#FFFFFF" stroke-width="2" stroke-linecap="square">
                            <path d="M0.324770432,0.0992794926 L214.023714,119.036112" id="Line"></path>
                            <path d="M214.023714,0.0992794926 L0.324770432,119.036112" id="Line"></path>
                        </g>
                    </g>
                    <rect id="Ghost-Button" fill="#b8b8b8" x="8" y="70" width="96" height="42" rx="5"></rect>
                    <g id="Play-icon" transform="translate(16.000000, 76.000000)" fill="#eaeaea">
                        <circle id="Oval" stroke="#eaeaea" stroke-width="2" fill-opacity="0" cx="15" cy="15" r="15"></circle>
                        <polygon id="Triangle" transform="translate(16.000000, 14.833333) rotate(90.000000) translate(-16.000000, -14.833333) " points="16 9 23 20.6666667 9 20.6666667"></polygon>
                    </g>
                    <rect id="Text" fill="#b8b8b8" x="0" y="125" width="194.929993" height="24"></rect>
                    <rect id="Text" fill="#b8b8b8" x="0" y="153" width="153.162109" height="24"></rect>
                    <polygon id="Text" fill="#b8b8b8" points="0 193 76 193 76 212 0 212"></polygon>
                </g>
                <g id="Demi-Teaser" transform="translate(470.000000, 0.000000)">
                    <g id="image">
                        <rect fill="#eaeaea" x="0" y="0.149167438" width="214.348485" height="119.135391"></rect>
                        <g id="cross" transform="translate(0.571809, 0.000000)" stroke="#FFFFFF" stroke-width="2" stroke-linecap="square">
                            <path d="M0.324770432,0.0992794926 L214.023714,119.036112" id="Line"></path>
                            <path d="M214.023714,0.0992794926 L0.324770432,119.036112" id="Line"></path>
                        </g>
                    </g>
                    <rect id="Ghost-Button" fill="#b8b8b8" x="8" y="70" width="96" height="42" rx="5"></rect>
                    <g id="Play-icon" transform="translate(16.000000, 76.000000)" fill="#eaeaea">
                        <circle id="Oval" stroke="#eaeaea" stroke-width="2" fill-opacity="0" cx="15" cy="15" r="15"></circle>
                        <polygon id="Triangle" transform="translate(16.000000, 14.833333) rotate(90.000000) translate(-16.000000, -14.833333) " points="16 9 23 20.6666667 9 20.6666667"></polygon>
                    </g>
                    <rect id="Text" fill="#b8b8b8" x="0" y="125" width="194.929993" height="24"></rect>
                    <rect id="Text" fill="#b8b8b8" x="0" y="153" width="153.162109" height="24"></rect>
                    <polygon id="Text" fill="#b8b8b8" points="0 193 76 193 76 212 0 212"></polygon>
                </g>
                <g id="Demi-Teaser" transform="translate(703.000000, 0.000000)">
                    <g id="image">
                        <rect fill="#eaeaea" x="0" y="0.149167438" width="214.348485" height="119.135391"></rect>
                        <g id="cross" transform="translate(0.571809, 0.000000)" stroke="#FFFFFF" stroke-width="2" stroke-linecap="square">
                            <path d="M0.324770432,0.0992794926 L214.023714,119.036112" id="Line"></path>
                            <path d="M214.023714,0.0992794926 L0.324770432,119.036112" id="Line"></path>
                        </g>
                    </g>
                    <rect id="Ghost-Button" fill="#b8b8b8" x="8" y="70" width="96" height="42" rx="5"></rect>
                    <g id="Play-icon" transform="translate(16.000000, 76.000000)" fill="#eaeaea">
                        <circle id="Oval" stroke="#eaeaea" stroke-width="2" fill-opacity="0" cx="15" cy="15" r="15"></circle>
                        <polygon id="Triangle" transform="translate(16.000000, 14.833333) rotate(90.000000) translate(-16.000000, -14.833333) " points="16 9 23 20.6666667 9 20.6666667"></polygon>
                    </g>
                    <rect id="Text" fill="#b8b8b8" x="0" y="125" width="194.929993" height="24"></rect>
                    <rect id="Text" fill="#b8b8b8" x="0" y="153" width="153.162109" height="24"></rect>
                    <polygon id="Text" fill="#b8b8b8" points="0 193 76 193 76 212 0 212"></polygon>
                </g>
            </g>
        </g>
    </g>
</svg>