<?xml version="1.0" encoding="utf-8"?>
<!-- Generator: Adobe Illustrator 23.0.3, SVG Export Plug-In . SVG Version: 6.00 Build 0)  -->
<svg version="1.1" id="Ebene_1" xmlns="http://www.w3.org/2000/svg" xmlns:xlink="http://www.w3.org/1999/xlink" x="0px" y="0px"
	 viewBox="0 0 621 348" style="enable-background:new 0 0 621 348;" xml:space="preserve">
<style type="text/css">
	.st0{fill:#eaeaea;}
	.st1{fill-rule:evenodd;clip-rule:evenodd;fill:none;stroke:#eaeaea;stroke-width:2;}
	.st2{fill-rule:evenodd;clip-rule:evenodd;fill:#eaeaea;}
</style>
<g>
	<path class="st0" d="M619.9,1v346H1V1H619.9 M620.9,0H0v348h620.9V0L620.9,0z"/>
</g>
<g>
	<polygon class="st0" points="372.2,141 620.1,3.2 620.9,2.7 620,0.9 372.2,138.7 	"/>
	<polygon class="st0" points="249.8,139 1.6,0.9 0.6,2.7 249.8,141.3 	"/>
	<polygon class="st0" points="249.8,206.8 1.5,344.9 0.6,345.4 1.6,347.2 249.8,209.1 	"/>
	<polygon class="st0" points="372.2,209.3 619.1,346.7 620,347.2 620.9,345.4 372.2,207 	"/>
</g>
<circle id="Oval" class="st1" cx="310" cy="174.1" r="31.1"/>
<polygon id="Triangle" class="st2" points="324.1,173.8 299.9,188.3 299.9,159.2 "/>
</svg>
