<?xml version="1.0" encoding="utf-8"?>
<!-- Generator: Adobe Illustrator 23.0.2, SVG Export Plug-In . SVG Version: 6.00 Build 0)  -->
<svg version="1.1" id="Ebene_1" xmlns="http://www.w3.org/2000/svg" xmlns:xlink="http://www.w3.org/1999/xlink" x="0px" y="0px"
	 viewBox="0 0 931 841.6" style="enable-background:new 0 0 931 841.6;" xml:space="preserve">
<style type="text/css">
	.st0{fill-rule:evenodd;clip-rule:evenodd;fill:#D4D4CE;}
	.st1{fill:none;stroke:#FFFFFF;stroke-width:2;stroke-linecap:square;}
	.st2{fill-rule:evenodd;clip-rule:evenodd;fill:#9F9E97;}
</style>
<title>Group 10</title>
<desc>Created with Sketch.</desc>
<g id="Bluewin-Placeholders">
	<g id="Group-10" transform="translate(2.000000, 2.000000)">
		<g id="Teaser-Demi" transform="translate(629.000000, 0.000000)">
			<g>
				<g id="image">
					<rect y="513.6" class="st0" width="298.8" height="165.9"/>
					<g id="cross">
						<path id="Line" class="st1" d="M0.5,513.7l297.9,165.7"/>
						<path class="st1" d="M298.3,513.7L0.5,679.4"/>
					</g>
				</g>
				<rect id="Text" y="711.6" class="st2" width="282" height="22"/>
				<rect y="739.6" class="st2" width="262" height="22"/>
				<rect y="779.6" class="st2" width="262" height="16"/>
				<rect y="689.6" class="st2" width="72" height="16"/>
				<rect y="801.6" class="st2" width="235" height="16"/>
				<rect y="823.6" class="st2" width="161" height="16"/>
			</g>
		</g>
		<g transform="translate(310.000000, 0.000000)">
			<g>
				<g>
					<rect x="3" y="513.6" class="st0" width="298.8" height="165.9"/>
					<g>
						<path class="st1" d="M3.5,513.7l297.9,165.7"/>
						<path class="st1" d="M301.3,513.7L3.5,679.4"/>
					</g>
				</g>
				<rect x="3" y="711.6" class="st2" width="282" height="22"/>
				<rect x="3" y="739.6" class="st2" width="262" height="22"/>
				<rect x="3" y="779.6" class="st2" width="262" height="16"/>
				<rect x="3" y="689.6" class="st2" width="72" height="16"/>
				<rect x="3" y="801.6" class="st2" width="235" height="16"/>
				<rect x="3" y="823.6" class="st2" width="161" height="16"/>
			</g>
		</g>
	</g>
</g>
<g transform="translate(310.000000, 0.000000)">
	<g>
		<g>
			<rect x="-310" y="515.6" class="st0" width="298.8" height="165.9"/>
			<g>
				<path class="st1" d="M-309.5,515.7l297.9,165.7"/>
				<path class="st1" d="M-11.7,515.7l-297.9,165.7"/>
			</g>
		</g>
		<rect x="-310" y="713.6" class="st2" width="282" height="22"/>
		<rect x="-310" y="741.6" class="st2" width="262" height="22"/>
		<rect x="-310" y="781.6" class="st2" width="262" height="16"/>
		<rect x="-310" y="691.6" class="st2" width="72" height="16"/>
		<rect x="-310" y="803.6" class="st2" width="235" height="16"/>
		<rect x="-310" y="825.6" class="st2" width="161" height="16"/>
	</g>
</g>
<g transform="translate(310.000000, 0.000000)">
	<g>
		<g>
			<rect x="321" y="0.3" class="st0" width="298.8" height="165.9"/>
			<g>
				<path class="st1" d="M321.5,0.4l297.9,165.7"/>
				<path class="st1" d="M619.3,0.4L321.5,166.1"/>
			</g>
		</g>
		<rect x="321" y="198.3" class="st2" width="282" height="22"/>
		<rect x="321" y="226.3" class="st2" width="262" height="22"/>
		<rect x="321" y="266.3" class="st2" width="262" height="16"/>
		<rect x="321" y="176.3" class="st2" width="72" height="16"/>
		<rect x="321" y="288.3" class="st2" width="235" height="16"/>
		<rect x="321" y="310.3" class="st2" width="161" height="16"/>
	</g>
</g>
<g id="Bluewin-Placeholders_1_">
	<g id="Group-9" transform="translate(0.000000, 2.000000)">
		<g id="Teaser-Demi_1_" transform="translate(1.000000, 0.000000)">
			<g id="Group-22">
				<g id="image_1_">
					<rect x="-1" y="-2" class="st0" width="613.8" height="344.4"/>
					<g id="cross_1_">
						<path id="Line_1_" class="st1" d="M-0.1-1.7l611.9,343.8"/>
						<path class="st1" d="M611.8-1.7L-0.1,342.1"/>
					</g>
				</g>
				<g id="Group-8" transform="translate(0.000000, 268.000000)">
					<rect id="Text_1_" x="-0.8" y="112.5" class="st2" width="488.9" height="24"/>
					<rect x="-0.1" y="154.5" class="st2" width="553.4" height="18"/>
					<rect x="-0.8" y="84.5" class="st2" width="111.8" height="18"/>
					<rect x="-0.1" y="176.5" class="st2" width="511.5" height="18"/>
					<rect x="-0.1" y="198.5" class="st2" width="396.6" height="18"/>
				</g>
			</g>
		</g>
	</g>
</g>
</svg>
