<?xml version="1.0" encoding="utf-8"?>
<!-- Generator: Adobe Illustrator 24.2.1, SVG Export Plug-In . SVG Version: 6.00 Build 0)  -->
<svg version="1.1" id="Ebene_1" xmlns="http://www.w3.org/2000/svg" xmlns:xlink="http://www.w3.org/1999/xlink" x="0px" y="0px"
	 viewBox="0 0 940 400" style="enable-background:new 0 0 940 400;" xml:space="preserve">
<style type="text/css">
	.st0{fill-rule:evenodd;clip-rule:evenodd;fill:#D4D4CE;}
	.st1{enable-background:new    ;}
	.st2{fill:#9F9E97;}
</style>
<desc>Created with Sketch.</desc>
<rect id="image" class="st0" width="940" height="399.1"/>
<g class="st1">
	<path class="st2" d="M266.7,206.4c2,4,5.2,6,8.9,6c4.1,0,6.4-1.6,6.4-4.3c0-2.4-1.5-3.4-6.5-5.1l-3.6-1.3c-5.8-2.1-8.4-4.7-8.4-9.6
		c0-5.8,5.2-9.8,12.1-9.8c5.8,0,10.3,2.4,13,6.9l-4.9,3.5c-2.3-3.8-5.2-5.2-8.6-5.2s-5.3,1.7-5.3,4c0,2.2,1.2,3.3,5.7,4.8l3.9,1.3
		c6.3,2,9.2,4.8,9.2,9.9c0,6.1-5,10.3-12.9,10.3c-6.1,0-11.1-2.9-13.9-7.8L266.7,206.4z"/>
	<path class="st2" d="M322.5,202.5c0,5.3-0.7,8.7-2.8,11.2c-2.4,2.7-6,4-10.9,4c-4.8,0-8.6-1.3-10.8-4.1c-2.1-2.8-2.6-6-2.6-11.1
		v-19.4h6.1v19.8c0,2.5,0.1,4.7,1.1,6.3c1.2,2.3,3.5,3.1,6.3,3.1c3,0,5.3-0.8,6.6-3.2c0.7-1.4,1-3.6,1-6.1v-20h6.1v19.5H322.5z"/>
	<path class="st2" d="M345.1,183.1c3.8,0,6.1,0.4,7.8,1.3c2.4,1.3,3.7,3.9,3.7,7.1c0,3.6-1.9,6.3-5.8,7.5c4.7,0.8,7,4,7,8.4
		c0,3.6-1.6,6.4-4.3,8c-2.1,1.2-4.7,1.6-9.5,1.6h-13.2v-33.9H345.1z M337,196.8h7c2,0,3.6-0.2,4.6-0.8c1.2-0.6,1.9-2,1.9-3.6
		s-0.4-2.9-1.8-3.6c-1-0.5-2.4-0.7-4.5-0.7H337V196.8z M337,211.9h6.6c2.6,0,4.8-0.2,6.1-1.2c1.1-0.7,1.7-2,1.7-3.7
		c0-1.8-0.6-3.3-1.9-4.1c-1.2-0.8-2.8-1-5.4-1H337V211.9z"/>
	<path class="st2" d="M367.5,206.4c2,4,5.2,6,8.9,6c4.1,0,6.4-1.6,6.4-4.3c0-2.4-1.5-3.4-6.5-5.1l-3.6-1.3c-5.8-2.1-8.4-4.7-8.4-9.6
		c0-5.8,5.2-9.8,12.1-9.8c5.8,0,10.3,2.4,13,6.9l-4.9,3.5c-2.3-3.8-5.2-5.2-8.6-5.2s-5.3,1.7-5.3,4c0,2.2,1.2,3.3,5.7,4.8l3.9,1.3
		c6.3,2,9.2,4.8,9.2,9.9c0,6.1-5,10.3-12.9,10.3c-6.1,0-11.1-2.9-13.9-7.8L367.5,206.4z"/>
	<path class="st2" d="M417.9,193.7c-0.9-3.7-3.3-6-7-6c-6.2,0-9.5,4.5-9.5,11.8c0,7.7,3.5,12.7,9.5,12.7c3.7,0,6.6-2.1,7.5-6.2
		l5.9,2.1c-2.1,6.2-7.1,9.6-13.6,9.6c-9.7,0-15.6-6.8-15.6-18c0-11.2,6.4-17.5,16-17.5c6.7,0,11.1,3.6,12.9,9.2L417.9,193.7z"/>
	<path class="st2" d="M450.9,217l-8.5-13.5h-5.8V217h-6v-33.9h11c4.4,0,7.7,0.2,10.2,1.2c3.5,1.4,5.1,4.2,5.1,8.7
		c0,5.6-3.1,8.6-8.4,9.5l9.6,14.4h-7.2V217z M442.9,198.6c3.1,0,4.8-0.4,5.9-1.2c1.1-0.9,1.7-2.3,1.7-4c0-1.8-0.4-3.2-1.9-4.1
		c-1.1-0.7-2.8-1-5.5-1h-6.5v10.4h6.3V198.6z"/>
	<path class="st2" d="M470.2,217H464v-33.9h6.2V217z"/>
	<path class="st2" d="M478.6,217v-33.9h14c4.7,0,7.5,0.7,9.4,2.1c2.5,1.8,3.7,4.9,3.7,8.3c0,3.8-1.3,7.2-4.3,8.9
		c-2.5,1.4-6,1.9-10.1,1.9h-6.6v12.8L478.6,217L478.6,217z M490.8,199c3.3,0,5.5-0.3,6.8-1.2c1.2-0.9,1.7-2.4,1.7-4.3
		c0-1.7-0.6-3.2-1.7-4.1c-1.3-1-2.9-1.2-6.4-1.2h-6.5V199H490.8z"/>
	<path class="st2" d="M518.3,217v-28.7h-9.6v-5.2h25.4v5.2h-9.6V217H518.3z"/>
	<path class="st2" d="M546.7,217h-6.2v-33.9h6.2V217z"/>
	<path class="st2" d="M554,199.8c0-10.7,6.3-17.5,16.1-17.5c9.3,0,15.3,7.1,15.3,17.9c0,11.1-6.1,17.6-15.3,17.6
		C560,217.8,554,210.8,554,199.8z M569.9,187.8c-5.8,0-9.5,4.4-9.5,12c0,7.9,3.8,12.6,9.6,12.6c5.3,0,9.1-4.1,9.1-12.2
		C579.1,192.3,575.4,187.8,569.9,187.8z"/>
	<path class="st2" d="M599.5,183.1c7.4,12.4,11.8,19.3,15,25.1c-0.2-5.2-0.2-12-0.2-25.1h6V217h-6.7c-7.1-11.6-11.5-18.9-15.1-24.9
		c0.1,2.9,0.2,9.5,0.2,24.9h-6v-33.9H599.5z"/>
	<path class="st2" d="M631.4,206.4c2,4,5.2,6,8.9,6c4.1,0,6.4-1.6,6.4-4.3c0-2.4-1.5-3.4-6.5-5.1l-3.6-1.3c-5.8-2.1-8.4-4.7-8.4-9.6
		c0-5.8,5.2-9.8,12.1-9.8c5.8,0,10.3,2.4,13,6.9l-4.9,3.5c-2.3-3.8-5.2-5.2-8.6-5.2c-3.4,0-5.3,1.7-5.3,4c0,2.2,1.2,3.3,5.7,4.8
		l3.9,1.3c6.3,2,9.2,4.8,9.2,9.9c0,6.1-5,10.3-12.9,10.3c-6.1,0-11.1-2.9-13.9-7.8L631.4,206.4z"/>
</g>
</svg>
