<?xml version="1.0" encoding="utf-8"?>
<!-- Generator: Adobe Illustrator 24.2.1, SVG Export Plug-In . SVG Version: 6.00 Build 0)  -->
<svg version="1.1" id="Ebene_1" xmlns="http://www.w3.org/2000/svg" xmlns:xlink="http://www.w3.org/1999/xlink" x="0px" y="0px"
	 viewBox="0 0 940 400" style="enable-background:new 0 0 940 400;" xml:space="preserve">
<style type="text/css">
	.st0{fill-rule:evenodd;clip-rule:evenodd;fill:#F2F2F2;}
	.st1{enable-background:new    ;}
	.st2{fill:#d4d4d4;}
</style>
<rect id="image" class="st0" width="940" height="399.1"/>
<g class="st1">
	<path class="st2" d="M329.6,217v-33.9h14c4.7,0,7.5,0.7,9.4,2.1c2.5,1.8,3.7,4.9,3.7,8.3c0,3.8-1.3,7.2-4.3,8.9
		c-2.5,1.4-6,1.9-10.1,1.9h-6.6v12.8h-6.1V217z M341.8,199c3.3,0,5.5-0.3,6.8-1.2c1.2-0.9,1.7-2.4,1.7-4.3c0-1.7-0.6-3.2-1.7-4.1
		c-1.3-1-2.9-1.2-6.4-1.2h-6.5V199H341.8z"/>
	<path class="st2" d="M381,217l-2.7-7.9h-13.4l-2.7,7.9h-6.6l12.9-33.9h6.8l12.4,33.9H381L381,217z M376.8,204.3
		c-1.9-5.5-3.6-10.1-5.1-15.1c-1.1,3.4-2.3,6.8-5.3,15.1H376.8z"/>
	<path class="st2" d="M413.6,193.7c-0.9-3.7-3.3-6-7-6c-6.2,0-9.5,4.5-9.5,11.8c0,7.7,3.5,12.7,9.5,12.7c3.7,0,6.6-2.1,7.5-6.2
		l5.9,2.1c-2.1,6.2-7.1,9.6-13.6,9.6c-9.7,0-15.6-6.8-15.6-18c0-11.2,6.4-17.5,16-17.5c6.7,0,11.1,3.6,12.9,9.2L413.6,193.7z"/>
	<path class="st2" d="M448,217l-9.9-16.1l-5.9,6.5v9.6h-6.1v-33.9h6.1v16.3l14.4-16.3h7.4l-11.9,13.2l13.1,20.7H448L448,217z"/>
	<path class="st2" d="M483.3,217l-2.7-7.9h-13.4l-2.7,7.9H458l12.9-33.9h6.8l12.4,33.9H483.3L483.3,217z M479.2,204.3
		c-1.9-5.5-3.6-10.1-5.1-15.1c-1.1,3.4-2.3,6.8-5.3,15.1H479.2z"/>
	<path class="st2" d="M517.7,217v-3.7c-2.4,3-5.6,4.4-9.9,4.4c-8.5,0-14.7-6.8-14.7-17.2c0-10.3,6-18.1,16.8-18.1
		c6.8,0,11.3,3.1,13.4,8.9l-6,2.3c-1.1-3.6-3.5-5.8-7.5-5.8c-6.4,0-10.2,4.8-10.2,12.3c0,8,4.1,12.2,9.9,12.2c5.4,0,8-3.3,8.2-8.8
		h-9.5v-5.2h15.1V217H517.7L517.7,217z"/>
	<path class="st2" d="M531.7,217v-33.9h23.6v5.2h-17.4v8.6H554v5.2h-16.1v9.5h18.4v5.3h-24.6V217z"/>
	<path class="st2" d="M565.7,206.4c2,4,5.2,6,8.9,6c4.1,0,6.4-1.6,6.4-4.3c0-2.4-1.5-3.4-6.5-5.1l-3.6-1.3c-5.8-2.1-8.4-4.7-8.4-9.6
		c0-5.8,5.2-9.8,12.1-9.8c5.8,0,10.3,2.4,13,6.9l-4.9,3.5c-2.3-3.8-5.2-5.2-8.6-5.2c-3.4,0-5.3,1.7-5.3,4c0,2.2,1.2,3.3,5.7,4.8
		l3.9,1.3c6.3,2,9.2,4.8,9.2,9.9c0,6.1-5,10.3-12.9,10.3c-6.1,0-11.1-2.9-13.9-7.8L565.7,206.4z"/>
</g>
</svg>
