<?xml version="1.0" encoding="UTF-8"?>
<svg width="940px" height="760px" viewBox="0 0 940 760" version="1.1" xmlns="http://www.w3.org/2000/svg" xmlns:xlink="http://www.w3.org/1999/xlink">
    <!-- Generator: Sketch 42 (36781) - http://www.bohemiancoding.com/sketch -->
    <title>Group 9</title>
    <desc>Created with Sketch.</desc>
    <defs></defs>
    <g id="Bluewin-Placeholders" stroke="none" stroke-width="1" fill="none" fill-rule="evenodd">
        <g id="Group-9" transform="translate(1.000000, 2.000000)">
            <g id="Teaser-Demi" transform="translate(639.000000, 432.000000)">
                <g>
                    <g id="image">
                        <rect fill="#eaeaea" x="0" y="0" width="298.765457" height="165.933951"></rect>
                        <g id="cross" stroke="#FFFFFF" stroke-width="2" stroke-linecap="square">
                            <path d="M0.452674934,0.138278292 L298.312782,165.795672" id="Line"></path>
                            <path d="M298.312782,0.138278292 L0.452674934,165.795672" id="Line"></path>
                        </g>
                    </g>
                    <rect id="Text" fill="#b8b8b8" x="0" y="198" width="282" height="22"></rect>
                    <rect id="Text" fill="#b8b8b8" x="0" y="226" width="262" height="22"></rect>
                    <rect id="Text" fill="#b8b8b8" x="0" y="266" width="262" height="16"></rect>
                    <rect id="Text" fill="#b8b8b8" x="0" y="176" width="72" height="16"></rect>
                    <rect id="Text" fill="#b8b8b8" x="0" y="288" width="235" height="16"></rect>
                    <rect id="Text" fill="#b8b8b8" x="0" y="310" width="161" height="16"></rect>
                </g>
            </g>
            <g id="Teaser-Demi" transform="translate(1.000000, 0.000000)">
                <g id="image">
                    <rect fill="#eaeaea" x="0" y="0" width="459.639164" height="257.897345"></rect>
                    <g id="cross" stroke="#FFFFFF" stroke-width="2" stroke-linecap="square">
                        <path d="M0.696422976,0.214914454 L458.942741,257.68243" id="Line"></path>
                        <path d="M458.942741,0.214914454 L0.696422976,257.68243" id="Line"></path>
                    </g>
                </g>
                <g id="image" transform="translate(477.000000, 0.000000)">
                    <rect fill="#eaeaea" x="0" y="0" width="459.639164" height="257.897345"></rect>
                    <rect fill="#eaeaea" x="0" y="0" width="459.639164" height="257.897345"></rect>
                    <g id="cross" stroke="#FFFFFF" stroke-width="2" stroke-linecap="square">
                        <path d="M0.696422976,0.214914454 L458.942741,257.68243" id="Line"></path>
                        <path d="M458.942741,0.214914454 L0.696422976,257.68243" id="Line"></path>
                    </g>
                </g>
                <g id="Group-8" transform="translate(478.000000, 268.000000)" fill="#b8b8b8">
                    <rect id="Text" x="0.25" y="28" width="437.75" height="24"></rect>
                    <rect id="Text" x="0.25" y="70" width="406.703901" height="18"></rect>
                    <rect id="Text" x="0.25" y="0" width="111.765957" height="18"></rect>
                    <rect id="Text" x="0.25" y="92" width="364.791667" height="18"></rect>
                    <rect id="Text" x="0.25" y="114" width="249.921099" height="18"></rect>
                </g>
                <g id="Group-8" transform="translate(0.000000, 268.000000)" fill="#b8b8b8">
                    <rect id="Text" x="0.25" y="28" width="437.75" height="24"></rect>
                    <rect id="Text" x="0.25" y="70" width="406.703901" height="18"></rect>
                    <rect id="Text" x="0.25" y="0" width="111.765957" height="18"></rect>
                    <rect id="Text" x="0.25" y="92" width="364.791667" height="18"></rect>
                    <rect id="Text" x="0.25" y="114" width="249.921099" height="18"></rect>
                </g>
            </g>
            <g id="Teaser-Demi" transform="translate(320.000000, 432.000000)">
                <g>
                    <g id="image">
                        <rect fill="#eaeaea" x="0" y="0" width="298.765457" height="165.933951"></rect>
                        <g id="cross" stroke="#FFFFFF" stroke-width="2" stroke-linecap="square">
                            <path d="M0.452674934,0.138278292 L298.312782,165.795672" id="Line"></path>
                            <path d="M298.312782,0.138278292 L0.452674934,165.795672" id="Line"></path>
                        </g>
                    </g>
                    <rect id="Text" fill="#b8b8b8" x="0" y="198" width="282" height="22"></rect>
                    <rect id="Text" fill="#b8b8b8" x="0" y="226" width="262" height="22"></rect>
                    <rect id="Text" fill="#b8b8b8" x="0" y="266" width="262" height="16"></rect>
                    <rect id="Text" fill="#b8b8b8" x="0" y="176" width="72" height="16"></rect>
                    <rect id="Text" fill="#b8b8b8" x="0" y="288" width="235" height="16"></rect>
                    <rect id="Text" fill="#b8b8b8" x="0" y="310" width="161" height="16"></rect>
                </g>
            </g>
            <g id="Teaser-Demi" transform="translate(0.000000, 432.000000)">
                <g>
                    <g id="image">
                        <rect fill="#eaeaea" x="0" y="0" width="298.765457" height="165.933951"></rect>
                        <g id="cross" stroke="#FFFFFF" stroke-width="2" stroke-linecap="square">
                            <path d="M0.452674934,0.138278292 L298.312782,165.795672" id="Line"></path>
                            <path d="M298.312782,0.138278292 L0.452674934,165.795672" id="Line"></path>
                        </g>
                    </g>
                    <rect id="Text" fill="#b8b8b8" x="0" y="198" width="282" height="22"></rect>
                    <rect id="Text" fill="#b8b8b8" x="0" y="226" width="262" height="22"></rect>
                    <rect id="Text" fill="#b8b8b8" x="0" y="266" width="262" height="16"></rect>
                    <rect id="Text" fill="#b8b8b8" x="0" y="176" width="72" height="16"></rect>
                    <rect id="Text" fill="#b8b8b8" x="0" y="288" width="235" height="16"></rect>
                    <rect id="Text" fill="#b8b8b8" x="0" y="310" width="161" height="16"></rect>
                </g>
            </g>
        </g>
    </g>
</svg>