<?xml version="1.0" encoding="UTF-8"?>
<svg width="940px" height="328px" viewBox="0 0 940 328" version="1.1" xmlns="http://www.w3.org/2000/svg" xmlns:xlink="http://www.w3.org/1999/xlink">
    <!-- Generator: Sketch 42 (36781) - http://www.bohemiancoding.com/sketch -->
    <title>Group 9</title>
    <desc>Created with Sketch.</desc>
    <defs></defs>
    <g id="Bluewin-Placeholders" stroke="none" stroke-width="1" fill="none" fill-rule="evenodd">
        <g id="Group-9" transform="translate(1.000000, 2.000000)">
            <g id="Teaser-Demi" transform="translate(639.000000, 0.000000)">
                <g>
                    <g id="image">
                        <rect fill="#eaeaea" x="0" y="0" width="298.765457" height="165.933951"></rect>
                        <g id="cross" stroke="#FFFFFF" stroke-width="2" stroke-linecap="square">
                            <path d="M0.452674934,0.138278292 L298.312782,165.795672" id="Line"></path>
                            <path d="M298.312782,0.138278292 L0.452674934,165.795672" id="Line"></path>
                        </g>
                    </g>
                    <rect id="Text" fill="#d4d4d4" x="0" y="198" width="282" height="22"></rect>
                    <rect id="Text" fill="#d4d4d4" x="0" y="226" width="262" height="22"></rect>
                    <rect id="Text" fill="#d4d4d4" x="0" y="266" width="262" height="16"></rect>
                    <rect id="Text" fill="#d4d4d4" x="0" y="176" width="72" height="16"></rect>
                    <rect id="Text" fill="#d4d4d4" x="0" y="288" width="235" height="16"></rect>
                    <rect id="Text" fill="#d4d4d4" x="0" y="310" width="161" height="16"></rect>
                </g>
            </g>
            <g id="Teaser-Demi" transform="translate(320.000000, 0.000000)">
                <g>
                    <g id="image">
                        <rect fill="#eaeaea" x="0" y="0" width="298.765457" height="165.933951"></rect>
                        <g id="cross" stroke="#FFFFFF" stroke-width="2" stroke-linecap="square">
                            <path d="M0.452674934,0.138278292 L298.312782,165.795672" id="Line"></path>
                            <path d="M298.312782,0.138278292 L0.452674934,165.795672" id="Line"></path>
                        </g>
                    </g>
                    <rect id="Text" fill="#d4d4d4" x="0" y="198" width="282" height="22"></rect>
                    <rect id="Text" fill="#d4d4d4" x="0" y="226" width="262" height="22"></rect>
                    <rect id="Text" fill="#d4d4d4" x="0" y="266" width="262" height="16"></rect>
                    <rect id="Text" fill="#d4d4d4" x="0" y="176" width="72" height="16"></rect>
                    <rect id="Text" fill="#d4d4d4" x="0" y="288" width="235" height="16"></rect>
                    <rect id="Text" fill="#d4d4d4" x="0" y="310" width="161" height="16"></rect>
                </g>
            </g>
            <g id="Teaser-Demi" transform="translate(0.000000, 0.000000)">
                <g>
                    <g id="image">
                        <rect fill="#eaeaea" x="0" y="0" width="298.765457" height="165.933951"></rect>
                        <g id="cross" stroke="#FFFFFF" stroke-width="2" stroke-linecap="square">
                            <path d="M0.452674934,0.138278292 L298.312782,165.795672" id="Line"></path>
                            <path d="M298.312782,0.138278292 L0.452674934,165.795672" id="Line"></path>
                        </g>
                    </g>
                    <rect id="Text" fill="#d4d4d4" x="0" y="198" width="282" height="22"></rect>
                    <rect id="Text" fill="#d4d4d4" x="0" y="226" width="262" height="22"></rect>
                    <rect id="Text" fill="#d4d4d4" x="0" y="266" width="262" height="16"></rect>
                    <rect id="Text" fill="#d4d4d4" x="0" y="176" width="72" height="16"></rect>
                    <rect id="Text" fill="#d4d4d4" x="0" y="288" width="235" height="16"></rect>
                    <rect id="Text" fill="#d4d4d4" x="0" y="310" width="161" height="16"></rect>
                </g>
            </g>
        </g>
    </g>
</svg>
