<svg width="100" height="100" viewBox="0 0 100 100" fill="none" xmlns="http://www.w3.org/2000/svg">
<path d="M29.1664 70.49C27.3697 70.49 25.9764 70.1417 24.9864 69.445C24.0331 68.7483 23.5564 67.8133 23.5564 66.64C23.5564 65.6133 23.9047 64.825 24.6014 64.275C25.3347 63.725 26.1781 63.45 27.1314 63.45C28.0847 63.45 28.9281 63.67 29.6614 64.11C30.3947 64.5133 31.0731 65.2283 31.6964 66.255L32.6864 67.96C32.8697 68.2167 33.0897 68.345 33.3464 68.345C33.6397 68.345 33.8414 68.18 33.9514 67.85C34.1714 67.1167 34.3181 66.0533 34.3914 64.66C34.5014 63.23 34.5564 61.5067 34.5564 59.49C34.5564 57.18 34.5014 54.21 34.3914 50.58C34.2814 46.95 34.1714 42.4767 34.0614 37.16C34.0614 35.5833 33.4747 34.5933 32.3014 34.19L31.0364 33.75V33.2H45.4464V33.75L44.2364 34.19C43.5764 34.4467 43.1181 34.795 42.8614 35.235C42.6414 35.6383 42.5314 36.225 42.5314 36.995V47.885C42.5314 51.4783 42.3664 54.4483 42.0364 56.795C41.7064 59.1417 41.1747 61.1767 40.4414 62.9C39.5247 65.3567 38.0214 67.245 35.9314 68.565C33.8781 69.8483 31.6231 70.49 29.1664 70.49ZM47.1522 69.5V68.84L66.2372 34.3H55.7872C54.5772 34.3 53.5872 34.575 52.8172 35.125C52.0839 35.675 51.4239 36.4817 50.8372 37.545L48.3072 42H47.7572L48.1422 33.2H75.0372V33.86L55.9522 68.4H67.9422C69.1522 68.4 70.1056 68.125 70.8022 67.575C71.5356 66.9883 72.1956 66.1633 72.7822 65.1L75.1472 60.7H75.6972L75.3122 69.5H47.1522Z" fill="#E04D66"/>
</svg>
