<svg width="100" height="100" viewBox="0 0 100 100" fill="none" xmlns="http://www.w3.org/2000/svg">
<path d="M26.0159 69.5V68.95L27.6659 68.51C28.9493 68.1433 29.5909 67.2267 29.5909 65.76V55.31L20.5159 36.83C20.1859 36.0967 19.8743 35.5467 19.5809 35.18C19.3243 34.8133 18.9209 34.5017 18.3709 34.245L17.3809 33.75V33.2H32.1209V33.75L31.1309 34.135C30.3243 34.465 29.8843 34.9233 29.8109 35.51C29.7376 36.06 29.8843 36.7567 30.2509 37.6L36.7409 52.01L44.0009 37.05C44.2943 36.4633 44.4043 35.8583 44.3309 35.235C44.2943 34.6117 43.9093 34.2083 43.1759 34.025L42.4059 33.75V33.2H49.0059V33.75L47.9609 34.135C47.2643 34.3917 46.7509 34.7583 46.4209 35.235C46.0909 35.675 45.7609 36.2433 45.4309 36.94L37.8959 52.78V65.76C37.8959 66.4933 38.0243 67.0983 38.2809 67.575C38.5743 68.015 39.0693 68.3267 39.7659 68.51L41.4709 68.95V69.5H26.0159ZM66.9853 70.49C63.2453 70.49 59.9453 69.72 57.0853 68.18C54.262 66.6033 52.0437 64.385 50.4303 61.525C48.8537 58.6283 48.0653 55.2183 48.0653 51.295C48.0653 47.4817 48.8537 44.145 50.4303 41.285C52.007 38.425 54.2803 36.2067 57.2503 34.63C60.257 33.0167 63.887 32.21 68.1403 32.21C70.0837 32.21 71.8803 32.43 73.5303 32.87C75.217 33.31 76.812 33.9517 78.3153 34.795L78.5353 42.495H77.9853L74.9053 36.775C74.4287 35.8583 73.9887 35.1983 73.5853 34.795C73.182 34.3917 72.6687 34.08 72.0453 33.86C71.4587 33.6767 70.9087 33.5483 70.3953 33.475C69.9187 33.365 69.277 33.31 68.4703 33.31C66.197 33.31 64.1803 33.915 62.4203 35.125C60.697 36.335 59.3587 38.26 58.4053 40.9C57.452 43.54 56.9753 47.005 56.9753 51.295C56.9753 55.5483 57.4153 59.0133 58.2953 61.69C59.212 64.3667 60.4953 66.3283 62.1453 67.575C63.7953 68.785 65.702 69.39 67.8653 69.39C68.1953 69.39 68.507 69.3717 68.8003 69.335C69.1303 69.2617 69.442 69.1883 69.7353 69.115C70.432 69.005 70.8903 68.7117 71.1103 68.235C71.3303 67.7583 71.4403 67.19 71.4403 66.53V55.64C71.4403 54.21 70.707 53.33 69.2403 53L66.7103 52.34V51.79H82.2203V52.34L81.4503 52.56C80.057 53 79.3603 53.9167 79.3603 55.31V67.245C77.4537 68.3083 75.5103 69.115 73.5303 69.665C71.587 70.215 69.4053 70.49 66.9853 70.49Z" fill="#1AB6B6"/>
</svg>
