<svg width="100" height="100" viewBox="0 0 100 100" fill="none" xmlns="http://www.w3.org/2000/svg">
<path d="M18.3121 69.5V68.95L19.4121 68.565C20.1454 68.345 20.6221 68.015 20.8421 67.575C21.0987 67.135 21.2271 66.5483 21.2271 65.815V36.995C21.2271 36.2617 21.0987 35.675 20.8421 35.235C20.5854 34.795 20.0904 34.4467 19.3571 34.19L18.3121 33.75V33.2H31.6771C37.1404 33.2 41.0821 34.2083 43.5021 36.225C45.9587 38.205 47.1871 40.8267 47.1871 44.09C47.1871 46.18 46.6737 48.105 45.6471 49.865C44.6571 51.5883 43.0071 52.9633 40.6971 53.99C38.3871 55.0167 35.2704 55.53 31.3471 55.53H29.4771V65.65C29.4771 67.08 30.1921 68.015 31.6221 68.455L33.2721 68.95V69.5H18.3121ZM29.4771 54.43H31.5671C33.3637 54.43 34.8304 54.1367 35.9671 53.55C37.1037 52.9633 37.9471 51.9367 38.4971 50.47C39.0471 49.0033 39.3221 46.9683 39.3221 44.365C39.3221 41.725 39.0104 39.6717 38.3871 38.205C37.8004 36.7383 36.9204 35.73 35.7471 35.18C34.5737 34.5933 33.1071 34.3 31.3471 34.3H29.4771V54.43ZM56.9955 69.5V68.95L59.2505 68.4C60.7539 68.07 61.5055 67.1533 61.5055 65.65V34.3H56.8305C55.4739 34.3 54.5022 34.6667 53.9155 35.4C53.3289 36.0967 52.7055 37.0683 52.0455 38.315L50.0655 42.165H49.5155L49.7905 33.2H81.5255L81.7455 42.165H81.1955L79.2155 38.315C78.5922 37.0683 77.9872 36.0967 77.4005 35.4C76.8139 34.6667 75.8422 34.3 74.4855 34.3H69.8105V65.65C69.8105 67.1533 70.5622 68.07 72.0655 68.4L74.3205 68.95V69.5H56.9955Z" fill="#1251CE"/>
</svg>
