<?xml version="1.0" encoding="utf-8"?>
<!-- Generator: Adobe Illustrator 22.1.0, SVG Export Plug-In . SVG Version: 6.00 Build 0)  -->
<svg version="1.1" id="labels" xmlns="http://www.w3.org/2000/svg" xmlns:xlink="http://www.w3.org/1999/xlink" x="0px" y="0px"
	 viewBox="0 0 1201 653" style="enable-background:new 0 0 1201 653;" xml:space="preserve">
<style type="text/css">
	.st0{fill:#141414;}
	.st1{fill:#636FF7;}
</style>
<g>
	<path class="st0" d="M202.1,124.4v-10.6h4.4c1.5,0,2.3,0.2,2.9,0.6c0.8,0.6,1.2,1.5,1.2,2.6c0,1.2-0.4,2.2-1.3,2.8
		c-0.8,0.4-1.9,0.6-3.1,0.6H204v4H202.1z M205.9,118.7c1,0,1.7-0.1,2.1-0.4c0.4-0.3,0.5-0.7,0.5-1.3c0-0.5-0.2-1-0.5-1.3
		c-0.4-0.3-0.9-0.4-2-0.4h-2v3.4H205.9z"/>
	<path class="st0" d="M211.3,124.4v-7.5h1.7v1.2c0.5-0.8,1-1.2,2.1-1.2c0.2,0,0.4,0,0.6,0.1v1.8c-0.3-0.1-0.5-0.2-0.8-0.2
		c-0.6,0-1.1,0.3-1.4,0.7c-0.3,0.4-0.4,0.9-0.4,1.7v3.5H211.3z"/>
	<path class="st0" d="M216.7,115.4v-1.6h1.8v1.6H216.7z M218.5,124.4h-1.8v-7.5h1.8V124.4z"/>
	<path class="st0" d="M225,124.4v-4.3c0-0.6-0.1-1-0.3-1.3c-0.2-0.3-0.5-0.4-1-0.4s-1,0.3-1.3,0.7c-0.4,0.5-0.4,1-0.4,1.8v3.6h-1.8
		v-7.5h1.7v1.1c0.5-0.8,1.4-1.2,2.5-1.2c0.9,0,1.5,0.3,1.9,0.9c0.3,0.5,0.4,1,0.4,2v4.7H225z"/>
	<path class="st0" d="M232.2,124.3c-0.4,0.1-0.9,0.2-1.3,0.2c-0.7,0-1.2-0.2-1.5-0.5c-0.3-0.4-0.4-0.9-0.4-1.6v-4.1h-1.2v-1.4h1.2
		v-2.4h1.7v2.4h1.5v1.4h-1.5v3.7c0,0.8,0.2,1,0.8,1c0.2,0,0.5,0,0.7-0.1V124.3z"/>
	<path class="st0" d="M241.3,124.4v-4.3c0-0.6-0.1-1-0.3-1.3c-0.2-0.3-0.5-0.4-1-0.4s-1,0.3-1.3,0.7c-0.4,0.5-0.4,1-0.4,1.8v3.6
		h-1.8v-7.5h1.7v1.1c0.5-0.8,1.4-1.2,2.5-1.2c0.9,0,1.5,0.3,1.9,0.9c0.3,0.5,0.4,1,0.4,2v4.7H241.3z"/>
	<path class="st0" d="M251.4,122.5c-0.6,1.4-1.7,2.1-3.3,2.1c-2.4,0-3.7-1.6-3.7-4c0-2.4,1.4-3.9,3.6-3.9c2.4,0,3.4,1.7,3.4,4.4
		h-5.2c0.1,1.3,0.8,2,2,2c0.8,0,1.4-0.3,1.7-1.2L251.4,122.5z M249.6,119.8c-0.1-1.2-0.7-1.8-1.6-1.8s-1.7,0.6-1.8,1.8H249.6z"/>
	<path class="st0" d="M258.9,124.4c-0.5-2-1-3.8-1.3-5.5c-0.3,1.4-0.7,2.8-1.4,5.5h-2l-2.2-7.5h1.9c0.5,2,1.1,4.2,1.5,5.6
		c0.3-1.4,0.6-2.9,1.4-5.6h1.8c0.6,2.4,1,4,1.4,5.6c0.4-1.6,0.9-3.7,1.5-5.6h1.8l-2.3,7.5H258.9z"/>
	<path class="st0" d="M264.7,122c0.4,0.8,1.1,1.2,1.9,1.2c0.8,0,1.2-0.3,1.2-0.8c0-0.5-0.3-0.7-1.4-1.1l-0.8-0.3
		c-1.2-0.4-1.9-1-1.9-2.2c0-1.2,1.1-2.2,2.9-2.2c1.2,0,2.3,0.5,2.9,1.5l-1.3,0.9c-0.4-0.7-0.9-1-1.7-1c-0.8,0-1.1,0.3-1.1,0.7
		c0,0.5,0.2,0.7,1.2,1l0.8,0.2c1.3,0.4,2.1,1,2.1,2.2c0,1.4-1.2,2.4-3,2.4c-1.5,0-2.6-0.7-3.2-1.7L264.7,122z"/>
	<path class="st0" d="M270.9,124.4v-7.5h1.7v1.2c0.5-0.8,1-1.2,2.1-1.2c0.2,0,0.4,0,0.6,0.1v1.8c-0.3-0.1-0.5-0.2-0.8-0.2
		c-0.6,0-1.1,0.3-1.4,0.7c-0.3,0.4-0.4,0.9-0.4,1.7v3.5H270.9z"/>
	<path class="st0" d="M279.5,124.6c-2.3,0-3.7-1.5-3.7-4c0-2.5,1.5-3.9,3.8-3.9c2.2,0,3.6,1.5,3.6,4
		C283.2,123.2,281.7,124.6,279.5,124.6z M279.6,118.1c-1.1,0-1.9,0.9-1.9,2.4c0,1.7,0.8,2.5,1.9,2.5c1.1,0,1.9-0.8,1.9-2.4
		C281.4,119,280.7,118.1,279.6,118.1z"/>
	<path class="st0" d="M287.8,124.6c-2.3,0-3.7-1.5-3.7-4c0-2.5,1.5-3.9,3.8-3.9c2.2,0,3.6,1.5,3.6,4
		C291.5,123.2,290,124.6,287.8,124.6z M287.9,118.1c-1.1,0-1.9,0.9-1.9,2.4c0,1.7,0.8,2.5,1.9,2.5c1.1,0,1.9-0.8,1.9-2.4
		C289.7,119,289,118.1,287.9,118.1z"/>
	<path class="st0" d="M294.7,116.9v1.1c0.6-0.8,1.4-1.2,2.4-1.2c1.1,0,1.7,0.4,2,1.3c0.6-0.8,1.5-1.3,2.6-1.3c0.9,0,1.6,0.4,1.9,1.2
		c0.2,0.5,0.2,1,0.2,2v4.3h-1.8v-4c0-0.8-0.1-1.2-0.2-1.5c-0.2-0.3-0.5-0.5-0.9-0.5s-0.9,0.2-1.2,0.6c-0.4,0.5-0.5,1-0.5,1.9v3.6
		h-1.8v-4.1c0-0.8,0-1.1-0.2-1.4c-0.2-0.4-0.5-0.5-1-0.5c-0.5,0-1,0.3-1.3,0.7c-0.3,0.4-0.4,0.9-0.4,1.8v3.6h-1.8v-7.5H294.7z"/>
</g>
<g>
	<path class="st0" d="M501.8,119c0-3.3,2-5.5,5-5.5c2.9,0,4.8,2.2,4.8,5.6c0,3.5-1.9,5.5-4.8,5.5C503.6,124.6,501.8,122.4,501.8,119
		z M506.7,115.2c-1.8,0-3,1.4-3,3.7c0,2.5,1.2,3.9,3,3.9c1.7,0,2.8-1.3,2.8-3.8C509.6,116.6,508.4,115.2,506.7,115.2z"/>
	<path class="st0" d="M517.9,124.4v-4.3c0-0.6-0.1-1-0.3-1.3c-0.2-0.3-0.5-0.4-1-0.4s-1,0.3-1.3,0.7c-0.4,0.5-0.4,1-0.4,1.8v3.6
		h-1.8v-7.5h1.7v1.1c0.5-0.8,1.4-1.2,2.5-1.2c0.9,0,1.5,0.3,1.9,0.9c0.3,0.5,0.4,1,0.4,2v4.7H517.9z"/>
	<path class="st0" d="M523.1,124.4h-1.8v-10.6h1.8V124.4z"/>
	<path class="st0" d="M524.9,115.4v-1.6h1.8v1.6H524.9z M526.7,124.4H525v-7.5h1.8V124.4z"/>
	<path class="st0" d="M533.3,124.4v-4.3c0-0.6-0.1-1-0.3-1.3c-0.2-0.3-0.5-0.4-1-0.4s-1,0.3-1.3,0.7c-0.4,0.5-0.4,1-0.4,1.8v3.6
		h-1.8v-7.5h1.7v1.1c0.5-0.8,1.4-1.2,2.5-1.2c0.9,0,1.5,0.3,1.9,0.9c0.3,0.5,0.4,1,0.4,2v4.7H533.3z"/>
	<path class="st0" d="M543.3,122.5c-0.6,1.4-1.7,2.1-3.3,2.1c-2.4,0-3.7-1.6-3.7-4c0-2.4,1.4-3.9,3.6-3.9c2.4,0,3.4,1.7,3.4,4.4
		h-5.2c0.1,1.3,0.8,2,2,2c0.8,0,1.4-0.3,1.7-1.2L543.3,122.5z M541.6,119.8c-0.1-1.2-0.7-1.8-1.6-1.8s-1.7,0.6-1.8,1.8H541.6z"/>
	<path class="st0" d="M552.9,124.4v-4.3c0-0.6-0.1-1-0.3-1.3c-0.2-0.3-0.5-0.4-1-0.4s-1,0.3-1.3,0.7c-0.4,0.5-0.4,1-0.4,1.8v3.6
		h-1.8v-7.5h1.7v1.1c0.5-0.8,1.4-1.2,2.5-1.2c0.9,0,1.5,0.3,1.9,0.9c0.3,0.5,0.4,1,0.4,2v4.7H552.9z"/>
	<path class="st0" d="M562.9,122.5c-0.6,1.4-1.7,2.1-3.3,2.1c-2.4,0-3.7-1.6-3.7-4c0-2.4,1.4-3.9,3.6-3.9c2.4,0,3.4,1.7,3.4,4.4
		h-5.2c0.1,1.3,0.8,2,2,2c0.8,0,1.4-0.3,1.7-1.2L562.9,122.5z M561.1,119.8c-0.1-1.2-0.7-1.8-1.6-1.8s-1.7,0.6-1.8,1.8H561.1z"/>
	<path class="st0" d="M570.4,124.4c-0.5-2-1-3.8-1.3-5.5c-0.3,1.4-0.7,2.8-1.4,5.5h-2l-2.2-7.5h1.9c0.5,2,1.1,4.2,1.5,5.6
		c0.3-1.4,0.6-2.9,1.4-5.6h1.8c0.6,2.4,1,4,1.4,5.6c0.4-1.6,0.9-3.7,1.5-5.6h1.8l-2.3,7.5H570.4z"/>
	<path class="st0" d="M576.2,122c0.4,0.8,1.1,1.2,1.9,1.2c0.8,0,1.2-0.3,1.2-0.8c0-0.5-0.3-0.7-1.4-1.1l-0.8-0.3
		c-1.2-0.4-1.9-1-1.9-2.2c0-1.2,1.1-2.2,2.9-2.2c1.2,0,2.3,0.5,2.9,1.5l-1.3,0.9c-0.4-0.7-0.9-1-1.7-1c-0.8,0-1.1,0.3-1.1,0.7
		c0,0.5,0.2,0.7,1.2,1l0.8,0.2c1.3,0.4,2.1,1,2.1,2.2c0,1.4-1.2,2.4-3,2.4c-1.5,0-2.6-0.7-3.2-1.7L576.2,122z"/>
	<path class="st0" d="M582.4,124.4v-7.5h1.7v1.2c0.5-0.8,1-1.2,2.1-1.2c0.2,0,0.4,0,0.6,0.1v1.8c-0.3-0.1-0.5-0.2-0.8-0.2
		c-0.6,0-1.1,0.3-1.4,0.7c-0.3,0.4-0.4,0.9-0.4,1.7v3.5H582.4z"/>
	<path class="st0" d="M591,124.6c-2.3,0-3.7-1.5-3.7-4c0-2.5,1.5-3.9,3.8-3.9c2.2,0,3.6,1.5,3.6,4
		C594.7,123.2,593.2,124.6,591,124.6z M591.1,118.1c-1.1,0-1.9,0.9-1.9,2.4c0,1.7,0.8,2.5,1.9,2.5c1.1,0,1.9-0.8,1.9-2.4
		C592.9,119,592.2,118.1,591.1,118.1z"/>
	<path class="st0" d="M599.3,124.6c-2.3,0-3.7-1.5-3.7-4c0-2.5,1.5-3.9,3.8-3.9c2.2,0,3.6,1.5,3.6,4
		C603,123.2,601.5,124.6,599.3,124.6z M599.4,118.1c-1.1,0-1.9,0.9-1.9,2.4c0,1.7,0.8,2.5,1.9,2.5c1.1,0,1.9-0.8,1.9-2.4
		C601.2,119,600.5,118.1,599.4,118.1z"/>
	<path class="st0" d="M606.2,116.9v1.1c0.6-0.8,1.4-1.2,2.4-1.2c1.1,0,1.7,0.4,2,1.3c0.6-0.8,1.5-1.3,2.6-1.3c0.9,0,1.6,0.4,1.9,1.2
		c0.2,0.5,0.2,1,0.2,2v4.3h-1.8v-4c0-0.8-0.1-1.2-0.2-1.5c-0.2-0.3-0.5-0.5-0.9-0.5s-0.9,0.2-1.2,0.6c-0.4,0.5-0.5,1-0.5,1.9v3.6
		H609v-4.1c0-0.8,0-1.1-0.2-1.4c-0.2-0.4-0.5-0.5-1-0.5c-0.5,0-1,0.3-1.3,0.7c-0.3,0.4-0.4,0.9-0.4,1.8v3.6h-1.8v-7.5H606.2z"/>
</g>
<g>
	<path class="st1" d="M51.1,70.4V59.8h4.4c1.5,0,2.3,0.2,2.9,0.6c0.8,0.6,1.2,1.5,1.2,2.6c0,1.2-0.4,2.2-1.3,2.8
		c-0.8,0.4-1.9,0.6-3.1,0.6H53v4H51.1z M54.9,64.7c1,0,1.7-0.1,2.1-0.4c0.4-0.3,0.5-0.7,0.5-1.3c0-0.5-0.2-1-0.5-1.3
		c-0.4-0.3-0.9-0.4-2-0.4h-2v3.4H54.9z"/>
	<path class="st1" d="M61,70.4V59.8h1.9v8.9h5v1.6H61z"/>
	<path class="st1" d="M76.2,70.4l-0.8-2.5h-4.2l-0.9,2.5h-2.1l4-10.6h2.1l3.9,10.6H76.2z M74.9,66.4c-0.6-1.7-1.1-3.2-1.6-4.7
		c-0.3,1.1-0.7,2.1-1.6,4.7H74.9z"/>
	<path class="st1" d="M81.4,59.8c2.3,3.9,3.7,6,4.7,7.8C86,66,86,63.8,86,59.8h1.9v10.6h-2.1c-2.2-3.6-3.6-5.9-4.7-7.8
		c0,0.9,0.1,3,0.1,7.8h-1.9V59.8H81.4z"/>
</g>
<g>
	<path class="st1" d="M51.1,271.4v-10.6h4.4c1.5,0,2.3,0.2,2.9,0.6c0.8,0.6,1.2,1.5,1.2,2.6c0,1.2-0.4,2.2-1.3,2.8
		c-0.8,0.4-1.9,0.6-3.1,0.6H53v4H51.1z M54.9,265.7c1,0,1.7-0.1,2.1-0.4c0.4-0.3,0.5-0.7,0.5-1.3c0-0.5-0.2-1-0.5-1.3
		c-0.4-0.3-0.9-0.4-2-0.4h-2v3.4H54.9z"/>
	<path class="st1" d="M67.4,271.4l-2.7-4.2h-1.8v4.2H61v-10.6h3.4c1.4,0,2.4,0.1,3.2,0.4c1.1,0.4,1.6,1.3,1.6,2.7c0,1.7-1,2.7-2.6,3
		l3,4.5H67.4z M64.9,265.6c1,0,1.5-0.1,1.8-0.4c0.3-0.3,0.5-0.7,0.5-1.2c0-0.6-0.1-1-0.6-1.3c-0.3-0.2-0.9-0.3-1.7-0.3h-2v3.2H64.9z
		"/>
	<path class="st1" d="M70.4,266c0-3.3,2-5.5,5-5.5c2.9,0,4.8,2.2,4.8,5.6c0,3.5-1.9,5.5-4.8,5.5C72.3,271.6,70.4,269.4,70.4,266z
		 M75.4,262.2c-1.8,0-3,1.4-3,3.7c0,2.5,1.2,3.9,3,3.9c1.7,0,2.8-1.3,2.8-3.8C78.3,263.6,77.1,262.2,75.4,262.2z"/>
	<path class="st1" d="M81.9,260.8h3.3c1.9,0,2.7,0.1,3.5,0.5c1.5,0.7,2.1,2.5,2.1,4.7c0,1.7-0.5,3.2-1.4,4.1c-1,1-2.2,1.3-4.4,1.3
		h-3.1V260.8z M85.1,269.7c1.4,0,2.3-0.3,2.9-0.9c0.6-0.6,0.8-1.6,0.8-2.9c0-1.1-0.2-2.1-0.8-2.7c-0.5-0.5-1.1-0.8-2.6-0.8h-1.6v7.3
		H85.1z"/>
	<path class="st1" d="M100.8,266.8c0,1.7-0.2,2.7-0.9,3.5c-0.7,0.9-1.9,1.3-3.4,1.3c-1.5,0-2.7-0.4-3.4-1.3
		c-0.7-0.9-0.8-1.9-0.8-3.5v-6.1h1.9v6.2c0,0.8,0,1.5,0.3,2c0.4,0.7,1.1,1,2,1c0.9,0,1.7-0.2,2.1-1c0.2-0.4,0.3-1.1,0.3-1.9v-6.3
		h1.9V266.8z"/>
	<path class="st1" d="M109.5,264.1c-0.3-1.2-1-1.9-2.2-1.9c-1.9,0-3,1.4-3,3.7c0,2.4,1.1,4,3,4c1.2,0,2.1-0.7,2.4-2l1.8,0.7
		c-0.7,1.9-2.2,3-4.3,3c-3,0-4.9-2.1-4.9-5.6c0-3.5,2-5.5,5-5.5c2.1,0,3.5,1.1,4,2.9L109.5,264.1z"/>
	<path class="st1" d="M112.8,271.4v-10.6h7.4v1.6h-5.4v2.7h5v1.6h-5v3h5.7v1.6H112.8z"/>
</g>
<g>
	<path class="st1" d="M51.1,474.4v-10.6h4.4c1.5,0,2.3,0.2,2.9,0.6c0.8,0.6,1.2,1.5,1.2,2.6c0,1.2-0.4,2.2-1.3,2.8
		c-0.8,0.4-1.9,0.6-3.1,0.6H53v4H51.1z M54.9,468.7c1,0,1.7-0.1,2.1-0.4c0.4-0.3,0.5-0.7,0.5-1.3c0-0.5-0.2-1-0.5-1.3
		c-0.4-0.3-0.9-0.4-2-0.4h-2v3.4H54.9z"/>
	<path class="st1" d="M67.4,474.4l-2.7-4.2h-1.8v4.2H61v-10.6h3.4c1.4,0,2.4,0.1,3.2,0.4c1.1,0.4,1.6,1.3,1.6,2.7c0,1.7-1,2.7-2.6,3
		l3,4.5H67.4z M64.9,468.6c1,0,1.5-0.1,1.8-0.4c0.3-0.3,0.5-0.7,0.5-1.2c0-0.6-0.1-1-0.6-1.3c-0.3-0.2-0.9-0.3-1.7-0.3h-2v3.2H64.9z
		"/>
	<path class="st1" d="M70.8,474.4v-10.6h7.4v1.6h-5.4v2.7h5v1.6h-5v3h5.7v1.6H70.8z"/>
	<path class="st1" d="M80.8,471.1c0.6,1.3,1.6,1.9,2.8,1.9c1.3,0,2-0.5,2-1.3c0-0.8-0.5-1-2-1.6l-1.1-0.4c-1.8-0.6-2.6-1.5-2.6-3
		c0-1.8,1.6-3.1,3.8-3.1c1.8,0,3.2,0.8,4,2.2l-1.5,1.1c-0.7-1.2-1.6-1.6-2.7-1.6c-1.1,0-1.6,0.5-1.6,1.2c0,0.7,0.4,1,1.8,1.5
		l1.2,0.4c2,0.6,2.9,1.5,2.9,3.1c0,1.9-1.6,3.2-4,3.2c-1.9,0-3.5-0.9-4.3-2.4L80.8,471.1z"/>
	<path class="st1" d="M89.1,474.4v-10.6h7.4v1.6H91v2.7h5v1.6h-5v3h5.7v1.6H89.1z"/>
	<path class="st1" d="M100.3,463.8c2.3,3.9,3.7,6,4.7,7.8c-0.1-1.6-0.1-3.8-0.1-7.8h1.9v10.6h-2.1c-2.2-3.6-3.6-5.9-4.7-7.8
		c0,0.9,0.1,3,0.1,7.8h-1.9v-10.6H100.3z"/>
	<path class="st1" d="M111.1,474.4v-9h-3v-1.6h7.9v1.6h-3v9H111.1z"/>
</g>
<g>
	<path class="st0" d="M803.9,524.1c0.6,1.3,1.6,1.9,2.8,1.9c1.3,0,2-0.5,2-1.3c0-0.8-0.5-1-2-1.6l-1.1-0.4c-1.8-0.6-2.6-1.5-2.6-3
		c0-1.8,1.6-3.1,3.8-3.1c1.8,0,3.2,0.8,4,2.2l-1.5,1.1c-0.7-1.2-1.6-1.6-2.7-1.6c-1.1,0-1.7,0.5-1.7,1.2c0,0.7,0.4,1,1.8,1.5
		l1.2,0.4c2,0.6,2.9,1.5,2.9,3.1c0,1.9-1.6,3.2-4,3.2c-1.9,0-3.5-0.9-4.3-2.4L803.9,524.1z"/>
	<path class="st0" d="M811.6,527.4v-1.4l5.8-7.5h-5.5v-1.6h7.9v1.5l-5.7,7.5h5.7v1.6H811.6z"/>
	<path class="st0" d="M827.8,527.6c-2.3,0-3.7-1.5-3.7-4c0-2.5,1.5-3.9,3.8-3.9c2.2,0,3.6,1.5,3.6,4
		C831.5,526.2,830,527.6,827.8,527.6z M827.9,521.1c-1.1,0-1.9,0.9-1.9,2.4c0,1.7,0.8,2.5,1.9,2.5c1.1,0,1.9-0.8,1.9-2.4
		C829.7,522,829,521.1,827.9,521.1z"/>
	<path class="st0" d="M837.6,527.4v-4.3c0-0.6-0.1-1-0.3-1.3c-0.2-0.3-0.5-0.4-1-0.4s-1,0.3-1.3,0.7c-0.4,0.5-0.4,1.1-0.4,1.8v3.6
		h-1.8v-7.5h1.7v1.1c0.5-0.8,1.4-1.2,2.5-1.2c0.9,0,1.5,0.3,1.9,0.9c0.3,0.5,0.4,1,0.4,2v4.7H837.6z"/>
	<path class="st0" d="M842.9,527.4h-1.8v-10.6h1.8V527.4z"/>
	<path class="st0" d="M844.7,518.4v-1.6h1.8v1.6H844.7z M846.5,527.4h-1.8v-7.5h1.8V527.4z"/>
	<path class="st0" d="M853.1,527.4v-4.3c0-0.6-0.1-1-0.3-1.3c-0.2-0.3-0.5-0.4-1-0.4s-1,0.3-1.3,0.7c-0.4,0.5-0.4,1.1-0.4,1.8v3.6
		h-1.8v-7.5h1.7v1.1c0.5-0.8,1.4-1.2,2.5-1.2c0.9,0,1.5,0.3,1.9,0.9c0.3,0.5,0.4,1,0.4,2v4.7H853.1z"/>
	<path class="st0" d="M863.1,525.5c-0.6,1.4-1.7,2.1-3.3,2.1c-2.4,0-3.7-1.6-3.7-4c0-2.4,1.4-3.9,3.6-3.9c2.4,0,3.4,1.7,3.4,4.4
		h-5.2c0.1,1.3,0.8,2,2,2c0.8,0,1.4-0.3,1.7-1.2L863.1,525.5z M861.4,522.8c-0.1-1.2-0.7-1.8-1.6-1.8s-1.7,0.6-1.8,1.8H861.4z"/>
	<path class="st0" d="M869.6,519.9v1.1c0.5-0.7,1.2-1.2,2.3-1.2c1.7,0,3,1.3,3,3.9c0,2.4-1.4,3.9-3.1,3.9c-1.1,0-1.7-0.4-2.1-1v3.8
		h-1.7v-10.4H869.6z M871.3,526c1,0,1.7-0.8,1.7-2.4c0-1.5-0.6-2.5-1.7-2.5c-1,0-1.8,0.8-1.8,2.4C869.6,525.1,870.2,526,871.3,526z"
		/>
	<path class="st0" d="M876.2,527.4v-7.5h1.7v1.2c0.5-0.8,1-1.2,2.1-1.2c0.2,0,0.4,0,0.6,0.1v1.8c-0.3-0.1-0.5-0.2-0.8-0.2
		c-0.6,0-1.1,0.3-1.4,0.7c-0.3,0.4-0.4,0.9-0.4,1.7v3.5H876.2z"/>
	<path class="st0" d="M884.9,527.6c-2.3,0-3.7-1.5-3.7-4c0-2.5,1.5-3.9,3.8-3.9c2.2,0,3.6,1.5,3.6,4
		C888.5,526.2,887.1,527.6,884.9,527.6z M884.9,521.1c-1.1,0-1.9,0.9-1.9,2.4c0,1.7,0.8,2.5,1.9,2.5c1.1,0,1.9-0.8,1.9-2.4
		C886.8,522,886.1,521.1,884.9,521.1z"/>
	<path class="st0" d="M894.8,527.4v-1c-0.5,0.7-1.2,1.2-2.2,1.2c-1.7,0-3-1.3-3-3.9c0-2.4,1.4-3.9,3.1-3.9c1.1,0,1.7,0.4,2.1,1v-3.9
		h1.7v10.6H894.8z M893.1,521.2c-1,0-1.7,0.8-1.7,2.4c0,1.5,0.6,2.5,1.7,2.5s1.8-0.8,1.8-2.4C894.8,522.1,894.2,521.2,893.1,521.2z"
		/>
	<path class="st0" d="M900,519.9v4.3c0,0.5,0.1,0.9,0.2,1.2c0.2,0.4,0.6,0.6,1.1,0.6c0.5,0,0.9-0.3,1.2-0.6c0.3-0.4,0.5-0.9,0.5-1.6
		v-3.9h1.8v7.5h-1.7v-1.1c-0.5,0.7-1.3,1.2-2.3,1.2c-1,0-1.5-0.3-2-0.9c-0.3-0.5-0.5-1.1-0.5-2v-4.7H900z"/>
	<path class="st0" d="M911.2,522.5c-0.2-1-0.8-1.3-1.5-1.3c-1,0-1.8,0.8-1.8,2.4c0,1.7,0.7,2.5,1.8,2.5c0.8,0,1.3-0.4,1.5-1.2
		l1.6,0.5c-0.4,1.2-1.4,2.1-3.1,2.1c-2.2,0-3.6-1.5-3.6-4c0-2.4,1.4-3.9,3.6-3.9c1.6,0,2.6,0.9,3,2.2L911.2,522.5z"/>
	<path class="st0" d="M917.6,527.3c-0.4,0.1-0.9,0.2-1.3,0.2c-0.7,0-1.2-0.2-1.5-0.5c-0.3-0.4-0.4-0.9-0.4-1.6v-4.1h-1.2v-1.4h1.2
		v-2.4h1.7v2.4h1.5v1.4h-1.5v3.7c0,0.8,0.2,1,0.8,1c0.2,0,0.5,0,0.7-0.1V527.3z"/>
	<path class="st0" d="M919.3,525c0.4,0.8,1.1,1.2,1.9,1.2c0.8,0,1.2-0.3,1.2-0.8c0-0.5-0.3-0.7-1.4-1.1l-0.8-0.3
		c-1.2-0.4-1.9-1-1.9-2.2c0-1.2,1-2.2,2.9-2.2c1.2,0,2.3,0.5,2.9,1.5l-1.3,0.9c-0.4-0.7-0.9-1-1.7-1c-0.8,0-1.1,0.3-1.1,0.7
		c0,0.5,0.2,0.7,1.2,1l0.8,0.2c1.3,0.4,2.1,1,2.1,2.2c0,1.4-1.2,2.4-3,2.4c-1.5,0-2.6-0.7-3.2-1.7L919.3,525z"/>
</g>
<g>
	<path class="st0" d="M202.9,524.1c0.6,1.3,1.6,1.9,2.8,1.9c1.3,0,2-0.5,2-1.3c0-0.8-0.5-1-2-1.6l-1.1-0.4c-1.8-0.6-2.6-1.5-2.6-3
		c0-1.8,1.6-3.1,3.8-3.1c1.8,0,3.2,0.8,4,2.2l-1.5,1.1c-0.7-1.2-1.6-1.6-2.7-1.6c-1.1,0-1.6,0.5-1.6,1.2c0,0.7,0.4,1,1.8,1.5
		l1.2,0.4c2,0.6,2.9,1.5,2.9,3.1c0,1.9-1.6,3.2-4,3.2c-1.9,0-3.5-0.9-4.3-2.4L202.9,524.1z"/>
	<path class="st0" d="M210.6,527.4v-1.4l5.8-7.5h-5.5v-1.6h7.9v1.5l-5.7,7.5h5.7v1.6H210.6z"/>
	<path class="st0" d="M225.3,519.9v1.1c0.5-0.7,1.2-1.2,2.3-1.2c1.7,0,3,1.3,3,3.9c0,2.4-1.4,3.9-3.1,3.9c-1.1,0-1.7-0.4-2.1-1v3.8
		h-1.7v-10.4H225.3z M227,526c1,0,1.7-0.8,1.7-2.4c0-1.5-0.6-2.5-1.6-2.5c-1,0-1.8,0.8-1.8,2.4C225.3,525.1,225.9,526,227,526z"/>
	<path class="st0" d="M231.9,527.4v-7.5h1.7v1.2c0.5-0.8,1-1.2,2.1-1.2c0.2,0,0.4,0,0.6,0.1v1.8c-0.3-0.1-0.5-0.2-0.8-0.2
		c-0.6,0-1.1,0.3-1.4,0.7c-0.3,0.4-0.4,0.9-0.4,1.7v3.5H231.9z"/>
	<path class="st0" d="M237.3,518.4v-1.6h1.8v1.6H237.3z M239.1,527.4h-1.8v-7.5h1.8V527.4z"/>
	<path class="st0" d="M245.6,527.4v-4.3c0-0.6-0.1-1-0.3-1.3c-0.2-0.3-0.5-0.4-1-0.4s-1,0.3-1.3,0.7c-0.4,0.5-0.4,1.1-0.4,1.8v3.6
		h-1.8v-7.5h1.7v1.1c0.5-0.8,1.4-1.2,2.5-1.2c0.9,0,1.5,0.3,1.9,0.9c0.3,0.5,0.4,1,0.4,2v4.7H245.6z"/>
	<path class="st0" d="M252.8,527.3c-0.4,0.1-0.9,0.2-1.3,0.2c-0.7,0-1.2-0.2-1.5-0.5c-0.3-0.4-0.4-0.9-0.4-1.6v-4.1h-1.2v-1.4h1.2
		v-2.4h1.7v2.4h1.5v1.4h-1.5v3.7c0,0.8,0.2,1,0.8,1c0.2,0,0.5,0,0.7-0.1V527.3z"/>
	<path class="st0" d="M259,519.9v1.1c0.6-0.8,1.4-1.2,2.4-1.2c1.1,0,1.7,0.4,2,1.3c0.6-0.8,1.5-1.3,2.6-1.3c0.9,0,1.6,0.4,1.9,1.2
		c0.2,0.5,0.2,1,0.2,2v4.3h-1.8v-4c0-0.8-0.1-1.2-0.2-1.5c-0.2-0.3-0.5-0.5-0.9-0.5s-0.9,0.2-1.2,0.6c-0.4,0.5-0.5,1-0.5,1.9v3.6
		h-1.8v-4.1c0-0.8,0-1.1-0.2-1.4c-0.2-0.4-0.5-0.5-1-0.5c-0.5,0-1,0.3-1.3,0.7s-0.4,0.9-0.4,1.8v3.6h-1.8v-7.5H259z"/>
	<path class="st0" d="M274.2,522.3c0-0.4-0.1-0.7-0.3-0.9c-0.2-0.2-0.6-0.3-1-0.3c-0.9,0-1.3,0.5-1.4,1.3l-1.7-0.2
		c0.1-1.6,1.3-2.5,3.2-2.5c1,0,1.7,0.2,2.2,0.7c0.5,0.4,0.6,1,0.6,2.2v2.7c0,0.9,0.1,1.6,0.2,2h-1.7c-0.1-0.2-0.2-0.7-0.2-0.9
		c-0.6,0.7-1.4,1.1-2.4,1.1c-1.4,0-2.3-0.9-2.3-2.2c0-1,0.5-1.6,1.4-2c0.7-0.3,2.2-0.5,3.4-0.6V522.3z M274.2,523.9
		c-0.9,0-1.9,0.2-2.4,0.5c-0.5,0.2-0.6,0.5-0.6,0.9c0,0.5,0.4,0.9,1.1,0.9c0.7,0,1.2-0.3,1.6-0.8c0.2-0.3,0.3-0.8,0.3-1.2V523.9z"/>
	<path class="st0" d="M282.4,526.3c-0.5,0.6-1.2,1-2.2,1c-1.8,0-3-1.4-3-3.8c0-2.3,1.3-3.8,3.1-3.8c1,0,1.8,0.4,2.2,1v-0.9h1.7v7
		c0,1.5-0.4,2.5-1.2,3.1c-0.6,0.4-1.4,0.6-2.4,0.6c-1.8,0-3-0.8-3.3-2.3l1.8-0.3c0.1,0.8,0.7,1.2,1.5,1.2c0.7,0,1.2-0.2,1.4-0.6
		c0.2-0.3,0.3-0.8,0.3-1.5V526.3z M280.8,521.2c-1.1,0-1.8,0.8-1.8,2.3c0,1.5,0.7,2.4,1.7,2.4c1,0,1.7-0.7,1.7-2.2
		C282.4,522.2,281.9,521.2,280.8,521.2z"/>
	<path class="st0" d="M290.3,522.3c0-0.4-0.1-0.7-0.3-0.9c-0.2-0.2-0.6-0.3-1-0.3c-0.9,0-1.3,0.5-1.4,1.3l-1.7-0.2
		c0.1-1.6,1.3-2.5,3.2-2.5c1,0,1.7,0.2,2.2,0.7c0.5,0.4,0.6,1,0.6,2.2v2.7c0,0.9,0.1,1.6,0.2,2h-1.7c-0.1-0.2-0.2-0.7-0.2-0.9
		c-0.6,0.7-1.4,1.1-2.4,1.1c-1.4,0-2.3-0.9-2.3-2.2c0-1,0.5-1.6,1.4-2c0.7-0.3,2.2-0.5,3.4-0.6V522.3z M290.3,523.9
		c-0.9,0-1.9,0.2-2.4,0.5c-0.5,0.2-0.6,0.5-0.6,0.9c0,0.5,0.4,0.9,1.1,0.9c0.7,0,1.2-0.3,1.6-0.8c0.2-0.3,0.3-0.8,0.3-1.2V523.9z"/>
	<path class="st0" d="M293.2,527.4v-1.1l3.7-4.9h-3.5v-1.4h5.7v1.1l-3.6,4.9h3.8v1.4H293.2z"/>
	<path class="st0" d="M300.4,518.4v-1.6h1.8v1.6H300.4z M302.2,527.4h-1.8v-7.5h1.8V527.4z"/>
	<path class="st0" d="M308.8,527.4v-4.3c0-0.6-0.1-1-0.3-1.3c-0.2-0.3-0.5-0.4-1-0.4s-1,0.3-1.3,0.7c-0.4,0.5-0.4,1.1-0.4,1.8v3.6
		H304v-7.5h1.7v1.1c0.5-0.8,1.4-1.2,2.5-1.2c0.9,0,1.5,0.3,1.9,0.9c0.3,0.5,0.4,1,0.4,2v4.7H308.8z"/>
	<path class="st0" d="M318.8,525.5c-0.6,1.4-1.7,2.1-3.3,2.1c-2.4,0-3.7-1.6-3.7-4c0-2.4,1.4-3.9,3.6-3.9c2.4,0,3.4,1.7,3.4,4.4
		h-5.2c0.1,1.3,0.8,2,2,2c0.8,0,1.4-0.3,1.7-1.2L318.8,525.5z M317.1,522.8c-0.1-1.2-0.7-1.8-1.6-1.8s-1.7,0.6-1.8,1.8H317.1z"/>
</g>
<g>
	<path class="st0" d="M192.9,307.1c0.6,1.3,1.6,1.9,2.8,1.9c1.3,0,2-0.5,2-1.3c0-0.8-0.5-1.1-2-1.6l-1.1-0.4c-1.8-0.6-2.6-1.5-2.6-3
		c0-1.8,1.6-3.1,3.8-3.1c1.8,0,3.2,0.8,4,2.2l-1.5,1.1c-0.7-1.2-1.6-1.6-2.7-1.6c-1.1,0-1.6,0.5-1.6,1.2c0,0.7,0.4,1,1.8,1.5
		l1.2,0.4c2,0.6,2.9,1.5,2.9,3.1c0,1.9-1.6,3.2-4,3.2c-1.9,0-3.5-0.9-4.3-2.4L192.9,307.1z"/>
	<path class="st0" d="M200.6,310.4v-1.4l5.8-7.5h-5.5v-1.6h7.9v1.5l-5.7,7.5h5.7v1.6H200.6z"/>
	<path class="st0" d="M215.3,302.9v1.1c0.5-0.7,1.2-1.2,2.3-1.2c1.7,0,3,1.3,3,3.9c0,2.4-1.4,3.9-3.1,3.9c-1.1,0-1.7-0.4-2.1-1v3.8
		h-1.7v-10.4H215.3z M217,309c1,0,1.7-0.8,1.7-2.4c0-1.5-0.6-2.5-1.6-2.5c-1,0-1.8,0.8-1.8,2.4C215.3,308.1,215.9,309,217,309z"/>
	<path class="st0" d="M221.9,310.4v-7.5h1.7v1.2c0.5-0.8,1-1.2,2.1-1.2c0.2,0,0.4,0,0.6,0.1v1.8c-0.3-0.1-0.5-0.2-0.8-0.2
		c-0.6,0-1.1,0.3-1.4,0.7c-0.3,0.4-0.4,0.9-0.4,1.7v3.5H221.9z"/>
	<path class="st0" d="M227.3,301.4v-1.6h1.8v1.6H227.3z M229.1,310.4h-1.8v-7.5h1.8V310.4z"/>
	<path class="st0" d="M235.6,310.4v-4.3c0-0.6-0.1-1-0.3-1.3c-0.2-0.3-0.5-0.4-1-0.4s-1,0.3-1.3,0.7c-0.4,0.5-0.4,1-0.4,1.8v3.6
		h-1.8v-7.5h1.7v1.1c0.5-0.8,1.4-1.2,2.5-1.2c0.9,0,1.5,0.3,1.9,0.9c0.3,0.5,0.4,1,0.4,2v4.7H235.6z"/>
	<path class="st0" d="M242.8,310.3c-0.4,0.1-0.9,0.2-1.3,0.2c-0.7,0-1.2-0.2-1.5-0.5c-0.3-0.4-0.4-0.9-0.4-1.6v-4.1h-1.2v-1.4h1.2
		v-2.4h1.7v2.4h1.5v1.4h-1.5v3.7c0,0.8,0.2,1,0.8,1c0.2,0,0.5,0,0.7-0.1V310.3z"/>
	<path class="st0" d="M192.9,325.1c0.6,1.3,1.6,1.9,2.8,1.9c1.3,0,2-0.5,2-1.3c0-0.8-0.5-1.1-2-1.6l-1.1-0.4c-1.8-0.6-2.6-1.5-2.6-3
		c0-1.8,1.6-3.1,3.8-3.1c1.8,0,3.2,0.8,4,2.2l-1.5,1.1c-0.7-1.2-1.6-1.6-2.7-1.6c-1.1,0-1.6,0.5-1.6,1.2c0,0.7,0.4,1,1.8,1.5
		l1.2,0.4c2,0.6,2.9,1.5,2.9,3.1c0,1.9-1.6,3.2-4,3.2c-1.9,0-3.5-0.9-4.3-2.4L192.9,325.1z"/>
	<path class="st0" d="M203.2,328.5l-2.9-7.6h1.9c0.8,2.1,1.4,4,1.9,5.6c0.5-1.5,1.1-3.6,1.8-5.6h1.8l-2.6,7.5
		c-0.9,2.5-1.4,3.1-3.2,3.1c-0.3,0-0.6,0-0.9-0.1v-1.5c0.2,0.1,0.5,0.1,0.7,0.1c0.8,0,1.1-0.2,1.4-1.2L203.2,328.5z"/>
	<path class="st0" d="M209.2,326c0.4,0.8,1.1,1.2,1.9,1.2c0.8,0,1.2-0.3,1.2-0.8c0-0.5-0.3-0.7-1.4-1.1l-0.8-0.3
		c-1.2-0.4-1.9-1-1.9-2.2c0-1.2,1.1-2.2,2.9-2.2c1.2,0,2.3,0.5,2.9,1.5l-1.3,0.9c-0.4-0.7-0.9-1-1.7-1c-0.8,0-1.1,0.3-1.1,0.7
		c0,0.5,0.2,0.7,1.2,1l0.8,0.2c1.3,0.4,2.1,1,2.1,2.2c0,1.4-1.2,2.4-3,2.4c-1.5,0-2.6-0.7-3.2-1.7L209.2,326z"/>
	<path class="st0" d="M219,328.3c-0.4,0.1-0.9,0.2-1.3,0.2c-0.7,0-1.2-0.2-1.5-0.5c-0.3-0.4-0.4-0.9-0.4-1.6v-4.1h-1.2v-1.4h1.2
		v-2.4h1.7v2.4h1.5v1.4h-1.5v3.7c0,0.8,0.2,1,0.8,1c0.2,0,0.5,0,0.7-0.1V328.3z"/>
	<path class="st0" d="M226.6,326.5c-0.6,1.4-1.7,2.1-3.3,2.1c-2.4,0-3.7-1.6-3.7-4c0-2.4,1.4-3.9,3.6-3.9c2.4,0,3.4,1.7,3.4,4.4
		h-5.2c0.1,1.3,0.8,2,2,2c0.8,0,1.4-0.3,1.7-1.2L226.6,326.5z M224.8,323.8c-0.1-1.2-0.7-1.8-1.6-1.8s-1.7,0.6-1.8,1.8H224.8z"/>
	<path class="st0" d="M229.7,320.9v1.1c0.6-0.8,1.4-1.2,2.4-1.2c1.1,0,1.7,0.4,2,1.3c0.6-0.8,1.5-1.3,2.6-1.3c0.9,0,1.6,0.4,1.9,1.2
		c0.2,0.5,0.2,1,0.2,2v4.3h-1.8v-4c0-0.8-0.1-1.2-0.2-1.5c-0.2-0.3-0.5-0.5-0.9-0.5s-0.9,0.2-1.2,0.6c-0.4,0.5-0.5,1-0.5,1.9v3.6
		h-1.8v-4.1c0-0.8,0-1.1-0.2-1.4c-0.2-0.4-0.5-0.5-1-0.5c-0.5,0-1,0.3-1.3,0.7c-0.3,0.4-0.4,0.9-0.4,1.8v3.6H228v-7.5H229.7z"/>
</g>
<g>
	<path class="st0" d="M938.9,104.1c0.6,1.3,1.6,1.9,2.8,1.9c1.3,0,2-0.5,2-1.3c0-0.8-0.5-1.1-2-1.6l-1.1-0.4c-1.8-0.6-2.6-1.5-2.6-3
		c0-1.8,1.6-3.1,3.8-3.1c1.8,0,3.2,0.8,4,2.2l-1.5,1.1c-0.7-1.2-1.6-1.6-2.7-1.6c-1.1,0-1.7,0.5-1.7,1.2c0,0.7,0.4,1,1.8,1.5
		l1.2,0.4c2,0.6,2.9,1.5,2.9,3.1c0,1.9-1.6,3.2-4,3.2c-1.9,0-3.5-0.9-4.3-2.4L938.9,104.1z"/>
	<path class="st0" d="M950.8,107.3c-0.4,0.1-0.9,0.2-1.3,0.2c-0.7,0-1.2-0.2-1.5-0.5c-0.3-0.4-0.4-0.9-0.4-1.6v-4.1h-1.2v-1.4h1.2
		v-2.4h1.7v2.4h1.5v1.4h-1.5v3.7c0,0.8,0.2,1,0.8,1c0.2,0,0.5,0,0.7-0.1V107.3z"/>
	<path class="st0" d="M956.5,102.3c0-0.4-0.1-0.7-0.3-0.9c-0.2-0.2-0.6-0.3-1-0.3c-0.9,0-1.3,0.5-1.4,1.3l-1.7-0.2
		c0.1-1.6,1.3-2.5,3.2-2.5c1,0,1.7,0.2,2.2,0.7c0.5,0.4,0.6,1.1,0.6,2.2v2.7c0,0.9,0.1,1.6,0.2,2h-1.7c-0.1-0.2-0.2-0.7-0.2-0.9
		c-0.6,0.7-1.4,1.1-2.4,1.1c-1.4,0-2.3-0.9-2.3-2.2c0-1,0.5-1.6,1.4-2c0.7-0.3,2.2-0.5,3.4-0.6V102.3z M956.5,103.9
		c-0.9,0-1.9,0.2-2.4,0.4c-0.5,0.2-0.6,0.5-0.6,0.9c0,0.5,0.4,0.9,1.1,0.9c0.7,0,1.2-0.3,1.6-0.8c0.2-0.3,0.3-0.8,0.3-1.2V103.9z"/>
	<path class="st0" d="M963.6,107.3c-0.4,0.1-0.9,0.2-1.3,0.2c-0.7,0-1.2-0.2-1.5-0.5c-0.3-0.4-0.4-0.9-0.4-1.6v-4.1h-1.2v-1.4h1.2
		v-2.4h1.7v2.4h1.5v1.4h-1.5v3.7c0,0.8,0.2,1,0.8,1c0.2,0,0.5,0,0.7-0.1V107.3z"/>
	<path class="st0" d="M964.6,98.4v-1.6h1.8v1.6H964.6z M966.4,107.4h-1.8v-7.5h1.8V107.4z"/>
	<path class="st0" d="M968.9,105c0.4,0.8,1.1,1.2,1.9,1.2c0.8,0,1.2-0.3,1.2-0.8c0-0.5-0.3-0.7-1.4-1.1l-0.8-0.3
		c-1.2-0.4-1.9-1-1.9-2.2c0-1.2,1.1-2.2,2.9-2.2c1.2,0,2.3,0.5,2.9,1.5l-1.3,0.9c-0.4-0.7-0.9-1-1.7-1c-0.8,0-1.1,0.3-1.1,0.7
		c0,0.5,0.2,0.7,1.2,1l0.8,0.2c1.3,0.4,2.1,1,2.1,2.2c0,1.4-1.2,2.4-3,2.4c-1.5,0-2.6-0.7-3.2-1.7L968.9,105z"/>
	<path class="st0" d="M978.7,107.3c-0.4,0.1-0.9,0.2-1.3,0.2c-0.7,0-1.2-0.2-1.5-0.5c-0.3-0.4-0.4-0.9-0.4-1.6v-4.1h-1.2v-1.4h1.2
		v-2.4h1.7v2.4h1.5v1.4h-1.5v3.7c0,0.8,0.2,1,0.8,1c0.2,0,0.5,0,0.7-0.1V107.3z"/>
	<path class="st0" d="M979.8,98.4v-1.6h1.8v1.6H979.8z M981.5,107.4h-1.8v-7.5h1.8V107.4z"/>
	<path class="st0" d="M988,102.5c-0.2-1-0.8-1.3-1.5-1.3c-1,0-1.8,0.8-1.8,2.4c0,1.6,0.7,2.5,1.8,2.5c0.8,0,1.3-0.4,1.5-1.2l1.6,0.5
		c-0.4,1.2-1.4,2.1-3.1,2.1c-2.2,0-3.6-1.5-3.6-4c0-2.4,1.4-3.9,3.6-3.9c1.6,0,2.6,0.9,3,2.2L988,102.5z"/>
	<path class="st0" d="M991.4,105c0.4,0.8,1.1,1.2,1.9,1.2c0.8,0,1.2-0.3,1.2-0.8c0-0.5-0.3-0.7-1.4-1.1l-0.8-0.3
		c-1.2-0.4-1.9-1-1.9-2.2c0-1.2,1-2.2,2.9-2.2c1.2,0,2.3,0.5,2.9,1.5l-1.3,0.9c-0.4-0.7-0.9-1-1.7-1c-0.8,0-1.1,0.3-1.1,0.7
		c0,0.5,0.2,0.7,1.2,1l0.8,0.2c1.3,0.4,2.1,1,2.1,2.2c0,1.4-1.2,2.4-3,2.4c-1.5,0-2.6-0.7-3.2-1.7L991.4,105z"/>
	<path class="st0" d="M999.2,107.3c0,1.2-0.2,1.7-1,2.4l-0.8-0.7c0.4-0.4,0.6-0.8,0.6-1.7h-0.6v-2.2h1.8V107.3z"/>
	<path class="st0" d="M947.2,125.4c0-5.3,0-6.8,0.1-8.5c-0.6,2-0.9,2.9-2.8,8.5h-1.7c-1.3-4.2-2.1-6.2-2.8-8.5c0,1.9,0,3.3,0,8.5
		h-1.8v-10.6h2.7c1.3,3.9,2.1,6,2.7,8.1c0.6-2.1,1-3.3,2.7-8.1h2.7v10.6H947.2z"/>
	<path class="st0" d="M954.2,125.6c-2.3,0-3.7-1.5-3.7-4c0-2.5,1.5-3.9,3.8-3.9c2.2,0,3.6,1.5,3.6,4
		C957.8,124.2,956.3,125.6,954.2,125.6z M954.2,119.1c-1.1,0-1.9,0.9-1.9,2.4c0,1.7,0.8,2.5,1.9,2.5c1.1,0,1.9-0.8,1.9-2.4
		C956,120,955.3,119.1,954.2,119.1z"/>
	<path class="st0" d="M964,125.4v-4.3c0-0.6-0.1-1-0.3-1.3c-0.2-0.3-0.5-0.4-1-0.4s-1,0.3-1.3,0.7c-0.4,0.5-0.4,1-0.4,1.8v3.6h-1.8
		v-7.5h1.7v1.1c0.5-0.8,1.4-1.2,2.5-1.2c0.9,0,1.5,0.3,1.9,0.9c0.3,0.5,0.4,1,0.4,2v4.7H964z"/>
	<path class="st0" d="M967.5,116.4v-1.6h1.8v1.6H967.5z M969.2,125.4h-1.8v-7.5h1.8V125.4z"/>
	<path class="st0" d="M974.7,125.3c-0.4,0.1-0.9,0.2-1.3,0.2c-0.7,0-1.2-0.2-1.5-0.5c-0.3-0.4-0.4-0.9-0.4-1.6v-4.1h-1.2v-1.4h1.2
		v-2.4h1.7v2.4h1.5v1.4h-1.5v3.7c0,0.8,0.2,1,0.8,1c0.2,0,0.5,0,0.7-0.1V125.3z"/>
	<path class="st0" d="M979,125.6c-2.3,0-3.7-1.5-3.7-4c0-2.5,1.5-3.9,3.8-3.9c2.2,0,3.6,1.5,3.6,4
		C982.7,124.2,981.2,125.6,979,125.6z M979.1,119.1c-1.1,0-1.9,0.9-1.9,2.4c0,1.7,0.8,2.5,1.9,2.5c1.1,0,1.9-0.8,1.9-2.4
		C980.9,120,980.2,119.1,979.1,119.1z"/>
	<path class="st0" d="M984.1,125.4v-7.5h1.7v1.2c0.5-0.8,1-1.2,2.1-1.2c0.2,0,0.4,0,0.6,0.1v1.8c-0.3-0.1-0.5-0.2-0.8-0.2
		c-0.6,0-1.1,0.3-1.4,0.7c-0.3,0.4-0.4,0.9-0.4,1.7v3.5H984.1z"/>
	<path class="st0" d="M989.5,116.4v-1.6h1.8v1.6H989.5z M991.3,125.4h-1.8v-7.5h1.8V125.4z"/>
	<path class="st0" d="M997.9,125.4v-4.3c0-0.6-0.1-1-0.3-1.3c-0.2-0.3-0.5-0.4-1-0.4s-1,0.3-1.3,0.7c-0.4,0.5-0.4,1-0.4,1.8v3.6
		h-1.8v-7.5h1.7v1.1c0.5-0.8,1.4-1.2,2.5-1.2c0.9,0,1.5,0.3,1.9,0.9c0.3,0.5,0.4,1,0.4,2v4.7H997.9z"/>
	<path class="st0" d="M1006.1,124.3c-0.5,0.6-1.2,1-2.2,1c-1.8,0-3-1.4-3-3.7c0-2.3,1.3-3.8,3.1-3.8c1,0,1.8,0.4,2.2,1.1v-0.9h1.7v7
		c0,1.5-0.4,2.5-1.2,3.1c-0.6,0.4-1.4,0.6-2.4,0.6c-1.8,0-3-0.8-3.3-2.3l1.8-0.3c0.1,0.8,0.7,1.2,1.5,1.2c0.7,0,1.2-0.2,1.4-0.6
		c0.2-0.3,0.3-0.8,0.3-1.5V124.3z M1004.6,119.2c-1.1,0-1.8,0.8-1.8,2.3c0,1.5,0.7,2.4,1.7,2.4c1,0,1.7-0.7,1.7-2.2
		C1006.2,120.2,1005.6,119.2,1004.6,119.2z"/>
</g>
<g>
	<path class="st0" d="M493.1,310.4v-10.6h1.9v8.9h5v1.6H493.1z"/>
	<path class="st0" d="M501.3,301.4v-1.6h1.8v1.6H501.3z M503.1,310.4h-1.8v-7.5h1.8V310.4z"/>
	<path class="st0" d="M506.7,310.4l-2.7-7.5h1.9c0.9,2.5,1.4,4.1,1.8,5.7c0.4-1.5,0.9-3.1,1.8-5.7h1.9l-2.7,7.5H506.7z"/>
	<path class="st0" d="M512.4,301.4v-1.6h1.8v1.6H512.4z M514.1,310.4h-1.8v-7.5h1.8V310.4z"/>
	<path class="st0" d="M520.7,310.4v-4.3c0-0.6-0.1-1-0.3-1.3c-0.2-0.3-0.5-0.4-1-0.4s-1,0.3-1.3,0.7c-0.4,0.5-0.4,1-0.4,1.8v3.6H516
		v-7.5h1.7v1.1c0.5-0.8,1.4-1.2,2.5-1.2c0.9,0,1.5,0.3,1.9,0.9c0.3,0.5,0.4,1,0.4,2v4.7H520.7z"/>
	<path class="st0" d="M529,309.3c-0.5,0.6-1.2,1-2.2,1c-1.8,0-3-1.4-3-3.7c0-2.3,1.3-3.8,3.1-3.8c1,0,1.8,0.4,2.2,1.1v-0.9h1.7v7
		c0,1.5-0.4,2.5-1.2,3.1c-0.6,0.4-1.4,0.6-2.4,0.6c-1.8,0-3-0.8-3.3-2.3l1.8-0.3c0.1,0.8,0.7,1.2,1.5,1.2c0.7,0,1.2-0.2,1.4-0.6
		c0.2-0.3,0.3-0.8,0.3-1.5V309.3z M527.4,304.2c-1.1,0-1.8,0.8-1.8,2.3c0,1.5,0.7,2.4,1.7,2.4c1,0,1.7-0.7,1.7-2.2
		C529,305.2,528.5,304.2,527.4,304.2z"/>
	<path class="st0" d="M537.5,310.4v-1c-0.5,0.7-1.2,1.2-2.2,1.2c-1.7,0-3-1.3-3-3.9c0-2.4,1.4-3.9,3.1-3.9c1.1,0,1.7,0.4,2.1,1v-3.9
		h1.7v10.6H537.5z M535.8,304.2c-1,0-1.7,0.8-1.7,2.4c0,1.5,0.6,2.5,1.7,2.5c1,0,1.8-0.8,1.8-2.4
		C537.5,305.1,536.8,304.2,535.8,304.2z"/>
	<path class="st0" d="M544.3,310.6c-2.3,0-3.7-1.5-3.7-4c0-2.5,1.5-3.9,3.8-3.9c2.2,0,3.6,1.5,3.6,4
		C547.9,309.2,546.5,310.6,544.3,310.6z M544.3,304.1c-1.1,0-1.9,0.9-1.9,2.4c0,1.7,0.8,2.5,1.9,2.5c1.1,0,1.9-0.8,1.9-2.4
		C546.2,305,545.4,304.1,544.3,304.1z"/>
	<path class="st0" d="M554,305.5c-0.2-1-0.8-1.3-1.5-1.3c-1,0-1.8,0.8-1.8,2.4c0,1.6,0.7,2.5,1.8,2.5c0.8,0,1.3-0.4,1.5-1.2l1.6,0.5
		c-0.4,1.2-1.4,2.1-3.1,2.1c-2.2,0-3.6-1.5-3.6-4c0-2.4,1.4-3.9,3.6-3.9c1.6,0,2.6,0.9,3,2.2L554,305.5z"/>
	<path class="st0" d="M557.4,308c0.4,0.8,1.1,1.2,1.9,1.2c0.8,0,1.2-0.3,1.2-0.8c0-0.5-0.3-0.7-1.4-1.1l-0.8-0.3
		c-1.2-0.4-1.9-1-1.9-2.2c0-1.2,1.1-2.2,2.9-2.2c1.2,0,2.3,0.5,2.9,1.5l-1.3,0.9c-0.4-0.7-0.9-1-1.7-1c-0.8,0-1.1,0.3-1.1,0.7
		c0,0.5,0.2,0.7,1.2,1l0.8,0.2c1.3,0.4,2.1,1,2.1,2.2c0,1.4-1.2,2.4-3,2.4c-1.5,0-2.6-0.7-3.2-1.7L557.4,308z"/>
	<path class="st0" d="M493.1,328.4v-10.6h7.4v1.6H495v2.7h5v1.6h-5v3h5.7v1.6H493.1z"/>
	<path class="st0" d="M506.7,328.4v-1c-0.5,0.7-1.2,1.2-2.2,1.2c-1.7,0-3-1.3-3-3.9c0-2.4,1.4-3.9,3.1-3.9c1.1,0,1.7,0.4,2.1,1v-3.9
		h1.7v10.6H506.7z M505,322.2c-1,0-1.7,0.8-1.7,2.4c0,1.5,0.6,2.5,1.7,2.5c1,0,1.8-0.8,1.8-2.4C506.7,323.1,506.1,322.2,505,322.2z"
		/>
	<path class="st0" d="M510.2,319.4v-1.6h1.8v1.6H510.2z M512,328.4h-1.8v-7.5h1.8V328.4z"/>
	<path class="st0" d="M517.5,328.3c-0.4,0.1-0.9,0.2-1.3,0.2c-0.7,0-1.2-0.2-1.5-0.5c-0.3-0.4-0.4-0.9-0.4-1.6v-4.1h-1.2v-1.4h1.2
		v-2.4h1.7v2.4h1.5v1.4H516v3.7c0,0.8,0.2,1,0.8,1c0.2,0,0.5,0,0.7-0.1V328.3z"/>
	<path class="st0" d="M521.8,328.6c-2.3,0-3.7-1.5-3.7-4c0-2.5,1.5-3.9,3.8-3.9c2.2,0,3.6,1.5,3.6,4
		C525.5,327.2,524,328.6,521.8,328.6z M521.9,322.1c-1.1,0-1.9,0.9-1.9,2.4c0,1.7,0.8,2.5,1.9,2.5c1.1,0,1.9-0.8,1.9-2.4
		C523.7,323,523,322.1,521.9,322.1z"/>
	<path class="st0" d="M526.9,328.4v-7.5h1.7v1.2c0.5-0.8,1-1.2,2.1-1.2c0.2,0,0.4,0,0.6,0.1v1.8c-0.3-0.1-0.5-0.2-0.8-0.2
		c-0.6,0-1.1,0.3-1.4,0.7c-0.3,0.4-0.4,0.9-0.4,1.7v3.5H526.9z"/>
</g>
<g>
	<path class="st0" d="M793.1,310.4v-10.6h1.9v8.9h5v1.6H793.1z"/>
	<path class="st0" d="M801.3,301.4v-1.6h1.8v1.6H801.3z M803.1,310.4h-1.8v-7.5h1.8V310.4z"/>
	<path class="st0" d="M806.7,310.4l-2.7-7.5h2c0.9,2.5,1.4,4.1,1.8,5.7c0.4-1.5,0.9-3.1,1.8-5.7h1.9l-2.7,7.5H806.7z"/>
	<path class="st0" d="M812.4,301.4v-1.6h1.8v1.6H812.4z M814.1,310.4h-1.8v-7.5h1.8V310.4z"/>
	<path class="st0" d="M820.7,310.4v-4.3c0-0.6-0.1-1-0.3-1.3c-0.2-0.3-0.5-0.4-1-0.4s-1,0.3-1.3,0.7c-0.4,0.5-0.4,1-0.4,1.8v3.6H816
		v-7.5h1.7v1.1c0.5-0.8,1.4-1.2,2.5-1.2c0.9,0,1.5,0.3,1.9,0.9c0.3,0.5,0.4,1,0.4,2v4.7H820.7z"/>
	<path class="st0" d="M829,309.3c-0.5,0.6-1.2,1-2.2,1c-1.8,0-3-1.4-3-3.7c0-2.3,1.3-3.8,3.1-3.8c1,0,1.8,0.4,2.2,1.1v-0.9h1.7v7
		c0,1.5-0.4,2.5-1.2,3.1c-0.6,0.4-1.4,0.6-2.4,0.6c-1.8,0-3-0.8-3.3-2.3l1.8-0.3c0.1,0.8,0.7,1.2,1.5,1.2c0.7,0,1.2-0.2,1.4-0.6
		c0.2-0.3,0.3-0.8,0.3-1.5V309.3z M827.4,304.2c-1.1,0-1.8,0.8-1.8,2.3c0,1.5,0.7,2.4,1.7,2.4c1,0,1.7-0.7,1.7-2.2
		C829,305.2,828.5,304.2,827.4,304.2z"/>
	<path class="st0" d="M837.5,310.4v-1c-0.5,0.7-1.2,1.2-2.2,1.2c-1.7,0-3-1.3-3-3.9c0-2.4,1.4-3.9,3.1-3.9c1.1,0,1.7,0.4,2.1,1v-3.9
		h1.7v10.6H837.5z M835.8,304.2c-1,0-1.7,0.8-1.7,2.4c0,1.5,0.6,2.5,1.7,2.5c1,0,1.8-0.8,1.8-2.4
		C837.5,305.1,836.8,304.2,835.8,304.2z"/>
	<path class="st0" d="M844.3,310.6c-2.3,0-3.7-1.5-3.7-4c0-2.5,1.5-3.9,3.8-3.9c2.2,0,3.6,1.5,3.6,4
		C847.9,309.2,846.5,310.6,844.3,310.6z M844.3,304.1c-1.1,0-1.9,0.9-1.9,2.4c0,1.7,0.8,2.5,1.9,2.5c1.1,0,1.9-0.8,1.9-2.4
		C846.2,305,845.4,304.1,844.3,304.1z"/>
	<path class="st0" d="M854,305.5c-0.2-1-0.8-1.3-1.5-1.3c-1,0-1.8,0.8-1.8,2.4c0,1.6,0.7,2.5,1.8,2.5c0.8,0,1.3-0.4,1.5-1.2l1.6,0.5
		c-0.4,1.2-1.4,2.1-3.1,2.1c-2.2,0-3.6-1.5-3.6-4c0-2.4,1.4-3.9,3.6-3.9c1.6,0,2.6,0.9,3,2.2L854,305.5z"/>
	<path class="st0" d="M857.4,308c0.4,0.8,1.1,1.2,1.9,1.2c0.8,0,1.2-0.3,1.2-0.8c0-0.5-0.3-0.7-1.4-1.1l-0.8-0.3
		c-1.2-0.4-1.9-1-1.9-2.2c0-1.2,1-2.2,2.9-2.2c1.2,0,2.3,0.5,2.9,1.5l-1.3,0.9c-0.4-0.7-0.9-1-1.7-1c-0.8,0-1.1,0.3-1.1,0.7
		c0,0.5,0.2,0.7,1.2,1l0.8,0.2c1.3,0.4,2.1,1,2.1,2.2c0,1.4-1.2,2.4-3,2.4c-1.5,0-2.6-0.7-3.2-1.7L857.4,308z"/>
	<path class="st0" d="M793.9,325.1c0.6,1.3,1.6,1.9,2.8,1.9c1.3,0,2-0.5,2-1.3c0-0.8-0.5-1.1-2-1.6l-1.1-0.4c-1.8-0.6-2.6-1.5-2.6-3
		c0-1.8,1.6-3.1,3.8-3.1c1.8,0,3.2,0.8,4,2.2l-1.5,1.1c-0.7-1.2-1.6-1.6-2.7-1.6c-1.1,0-1.7,0.5-1.7,1.2c0,0.7,0.4,1,1.8,1.5
		l1.2,0.4c2,0.6,2.9,1.5,2.9,3.1c0,1.9-1.6,3.2-4,3.2c-1.9,0-3.5-0.9-4.3-2.4L793.9,325.1z"/>
	<path class="st0" d="M808.7,326.5c-0.6,1.4-1.7,2.1-3.3,2.1c-2.4,0-3.7-1.6-3.7-4c0-2.4,1.4-3.9,3.6-3.9c2.4,0,3.4,1.7,3.4,4.4
		h-5.2c0.1,1.3,0.8,2,1.9,2c0.8,0,1.4-0.3,1.7-1.2L808.7,326.5z M807,323.8c-0.1-1.2-0.7-1.8-1.6-1.8s-1.7,0.6-1.8,1.8H807z"/>
	<path class="st0" d="M810.1,328.4v-7.5h1.7v1.2c0.5-0.8,1-1.2,2.1-1.2c0.2,0,0.4,0,0.6,0.1v1.8c-0.3-0.1-0.5-0.2-0.8-0.2
		c-0.6,0-1.1,0.3-1.4,0.7c-0.3,0.4-0.4,0.9-0.4,1.7v3.5H810.1z"/>
	<path class="st0" d="M817.5,328.4l-2.7-7.5h2c0.9,2.5,1.4,4.1,1.8,5.7c0.4-1.5,0.9-3.1,1.8-5.7h1.9l-2.7,7.5H817.5z"/>
	<path class="st0" d="M829.5,326.5c-0.6,1.4-1.7,2.1-3.3,2.1c-2.4,0-3.7-1.6-3.7-4c0-2.4,1.4-3.9,3.6-3.9c2.4,0,3.4,1.7,3.4,4.4
		h-5.2c0.1,1.3,0.8,2,2,2c0.8,0,1.4-0.3,1.7-1.2L829.5,326.5z M827.8,323.8c-0.1-1.2-0.7-1.8-1.6-1.8s-1.7,0.6-1.8,1.8H827.8z"/>
	<path class="st0" d="M830.9,328.4v-7.5h1.7v1.2c0.5-0.8,1-1.2,2.1-1.2c0.2,0,0.4,0,0.6,0.1v1.8c-0.3-0.1-0.5-0.2-0.8-0.2
		c-0.6,0-1.1,0.3-1.4,0.7c-0.3,0.4-0.4,0.9-0.4,1.7v3.5H830.9z"/>
</g>
<g>
</g>
<g>
</g>
<g>
</g>
<g>
</g>
<g>
</g>
<g>
</g>
<g>
</g>
<g>
</g>
<g>
</g>
<g>
</g>
<g>
</g>
<g>
</g>
<g>
</g>
<g>
</g>
<g>
</g>
</svg>
