<?xml version="1.0" encoding="utf-8"?>
<!-- Generator: Adobe Illustrator 22.1.0, SVG Export Plug-In . SVG Version: 6.00 Build 0)  -->
<svg version="1.1" id="arrows" xmlns="http://www.w3.org/2000/svg" xmlns:xlink="http://www.w3.org/1999/xlink" x="0px" y="0px"
	 viewBox="0 0 551 650" style="enable-background:new 0 0 551 650;" xml:space="preserve">
<style type="text/css">
	.st0{opacity:0.33;}
	.st1{fill:none;stroke:#000000;stroke-miterlimit:10;}
</style>
<g class="st0">
	<g>
		<line class="st1" x1="148.5" y1="324.4" x2="148.5" y2="200"/>
		<g>
			<polygon points="154.6,319.4 153.5,318.4 148.5,323.8 143.5,318.4 142.4,319.4 148.5,326 			"/>
		</g>
	</g>
</g>
<g class="st0">
	<g>
		<line class="st1" x1="274.5" y1="324.4" x2="274.5" y2="200"/>
		<g>
			<polygon points="280.6,319.4 279.5,318.4 274.5,323.8 269.5,318.4 268.4,319.4 274.5,326 			"/>
		</g>
	</g>
</g>
<g class="st0">
	<g>
		<line class="st1" x1="148.5" y1="498.4" x2="148.5" y2="374"/>
		<g>
			<polygon points="154.6,493.4 153.5,492.4 148.5,497.8 143.5,492.4 142.4,493.4 148.5,500 			"/>
		</g>
	</g>
</g>
<g class="st0">
	<g>
		<line class="st1" x1="248.4" y1="350.5" x2="176" y2="350.5"/>
		<g>
			<polygon points="243.4,344.4 242.4,345.5 247.8,350.5 242.4,355.5 243.4,356.6 250,350.5 			"/>
		</g>
	</g>
</g>
<g class="st0">
	<g>
		<line class="st1" x1="372.4" y1="350.5" x2="301.6" y2="350.5"/>
		<g>
			<polygon points="367.4,344.4 366.4,345.5 371.8,350.5 366.4,355.5 367.4,356.6 374,350.5 			"/>
		</g>
		<g>
			<polygon points="306.6,344.4 307.6,345.5 302.2,350.5 307.6,355.5 306.6,356.6 300,350.5 			"/>
		</g>
	</g>
</g>
<g class="st0">
	<g>
		<line class="st1" x1="400.5" y1="499.4" x2="400.5" y2="375"/>
		<g>
			<polygon points="406.6,494.4 405.5,493.4 400.5,498.8 395.5,493.4 394.4,494.4 400.5,501 			"/>
		</g>
	</g>
</g>
<g class="st0">
	<g>
		<line class="st1" x1="328.6" y1="150.5" x2="374.5" y2="150.5"/>
		<g>
			<polygon points="333.6,156.6 334.6,155.5 329.2,150.5 334.6,145.5 333.6,144.4 327,150.5 			"/>
		</g>
	</g>
</g>
<g class="st0">
	<g>
		<line class="st1" x1="276.1" y1="150.5" x2="326" y2="150.5"/>
		<g>
			<polygon points="281.1,156.6 282.1,155.5 276.7,150.5 282.1,145.5 281.1,144.4 274.5,150.5 			"/>
		</g>
	</g>
</g>
<g class="st0">
	<g>
		<polyline class="st1" points="426.6,150.5 451.5,150.5 451.5,499.5 401.5,550.5 		"/>
		<g>
			<polygon points="431.6,156.6 432.6,155.5 427.2,150.5 432.6,145.5 431.6,144.4 425,150.5 			"/>
		</g>
	</g>
</g>
</svg>
