<?xml version="1.0" encoding="utf-8"?>
<!-- Generator: Adobe Illustrator 22.1.0, SVG Export Plug-In . SVG Version: 6.00 Build 0)  -->
<svg version="1.1" id="Ebene_1" xmlns="http://www.w3.org/2000/svg" xmlns:xlink="http://www.w3.org/1999/xlink" x="0px" y="0px"
	 viewBox="0 0 100 100" style="enable-background:new 0 0 100 100;" xml:space="preserve">
<style type="text/css">
	.st0{fill:#bf69f0;}
	.st1{fill:#FFFFFF;}
</style>
<circle class="st0" cx="49.6" cy="50" r="50"/>
<g id="jqfgiS_1_">
	<g>
		<path class="st1" d="M73.2,31.4c-0.1,0.3-0.3,0.5-0.4,0.8c-0.6,1.4-1.2,2.9-1.8,4.3c-0.5,1.1-1,2.2-1.4,3.4
			C69,40.9,68.6,42,68.2,43c-0.7,1.6-1.4,3.1-2,4.7c-0.6,1.4-1.2,2.9-1.8,4.3c-0.5,1.2-1,2.4-1.6,3.6c-0.4,0.9-0.7,1.8-1.1,2.6
			c0,0,0,0.1-0.1,0.1c-0.2,0.4-0.2,0.5,0.3,0.5c1.2,0,2.4,0,3.6-0.1c0.8-0.1,1.6-0.2,2.4-0.3c0.6-0.1,1.2-0.2,1.8-0.3
			c0.5-0.1,1-0.2,1.5-0.3c0.6-0.1,1.2-0.2,1.9-0.4c-0.1,0.4-0.3,0.7-0.4,0.9c-0.2,0.4-0.4,0.8-0.6,1.3c0,0.1-0.1,0.1-0.1,0.2
			c-0.1,0.2-0.2,0.3-0.5,0.3c-0.3,0-0.7,0-1,0c-5.3,0-10.5,0-15.8,0c-0.1,0-0.1,0-0.2,0c0.2-0.6,0.5-1.1,0.7-1.6c0.4-1,0.9-2,1.3-3
			c0.4-0.8,0.7-1.7,1.1-2.5c0.4-0.9,0.8-1.7,1.2-2.6c0.4-1,0.9-2,1.3-3c0.4-1,0.9-2,1.4-3.1c0.4-1,0.9-2,1.3-3
			c0.6-1.4,1.2-2.7,1.8-4.1c0.4-0.8,0.7-1.6,1.1-2.4c0.2-0.5,0.5-1,0.7-1.5c0-0.1,0.1-0.1,0.1-0.2c0.1-0.2,0-0.3-0.3-0.3
			c-0.4,0-0.7,0-1.1,0c-1.1,0-2.3,0-3.4,0c-0.6,0-1.1,0.1-1.7,0.1c-0.5,0-1.1,0.1-1.6,0.2c-0.6,0.2-1.2,0.3-1.8,0.5
			c-0.4,0.1-0.8,0.3-1.1,0.5c-0.3,0.1-0.5,0.3-0.7,0.5c-1.1,1-2.3,2-3.4,2.9c-0.1,0.1-0.2,0.1-0.2,0.2c-0.1,0.1-0.2,0.1-0.4,0
			c-1.2-0.9-2.4-1.7-3.8-2.4c-0.9-0.5-1.8-0.9-2.7-1.3c-0.9-0.4-1.9-0.6-2.9-0.8c-1.2-0.2-2.5-0.4-3.8-0.1c-0.5,0.1-1,0.1-1.5,0.3
			c-0.6,0.2-1.2,0.5-1.8,0.8c-0.6,0.4-1.1,0.9-1.5,1.5c-0.5,0.9-0.5,1.8,0,2.7c0.5,0.8,1.2,1.4,2,1.8c1.2,0.7,2.6,1.2,4,1.6
			c1.1,0.3,2.2,0.7,3.2,1.1c1.5,0.6,3,1.2,4.4,1.9c1.5,0.7,3,1.6,4.2,2.7c0.6,0.6,1,1.3,1.4,2c0.5,1.2,0.4,2.4,0.4,3.7
			c0,0.3-0.1,0.6-0.2,0.9c-0.3,0.9-0.6,1.7-1.1,2.5c-0.8,1.2-1.8,2-3,2.7c-0.8,0.4-1.6,0.7-2.4,0.8c-1.4,0.2-2.8,0.4-4.2,0.2
			c-0.4-0.1-0.8-0.1-1.2-0.1c-0.5-0.1-0.9-0.2-1.4-0.3c-0.4-0.1-0.8-0.2-1.2-0.3c-0.7-0.2-1.3-0.4-2-0.6c-1-0.3-1.9-0.7-2.7-1.1
			c-0.8-0.4-1.6-0.8-2.3-1.4c-0.3-0.2-0.3-0.2-0.6,0.1c-0.4,0.4-0.9,0.9-1.3,1.3c-0.1,0.1-0.2,0.2-0.4,0.3c-0.3-0.2-0.5-0.5-0.8-0.7
			c0.3-0.3,0.5-0.5,0.7-0.7c1.1-1.1,2.2-2.3,3.4-3.4c0.2-0.2,0.2-0.2,0.5,0c1.1,0.7,2.1,1.5,3.2,2.2c0.9,0.6,1.9,1.1,3,1.5
			c0.6,0.3,1.3,0.5,1.9,0.8c0.6,0.2,1.3,0.3,1.9,0.5c0.6,0.2,1.2,0.2,1.8,0.2c1.2,0,2.4-0.2,3.4-0.9c0.8-0.5,1.3-1.2,1.4-2.1
			c0.2-1.1-0.1-2.2-0.9-3.1c-0.9-1-2.1-1.8-3.3-2.4c-0.9-0.5-1.9-0.8-2.9-1.1c-0.6-0.2-1.2-0.4-1.8-0.6c-0.3-0.1-0.7-0.2-1-0.3
			c-0.3-0.1-0.6-0.2-0.9-0.2c-1.1-0.4-2.2-0.7-3.2-1.2c-2-0.9-3.6-2.3-4.7-4.2c-0.6-1.1-0.9-2.4-0.9-3.7c0.1-1.4,0.5-2.6,1.4-3.7
			c1-1.3,2.3-2.3,3.8-3.1c0.8-0.4,1.6-0.7,2.5-0.9c0.8-0.2,1.6-0.3,2.4-0.4c0,0,0.1,0,0.1-0.1c0.9,0,1.8,0,2.7,0
			c0,0,0.1,0.1,0.1,0.1c1.6,0.1,3.1,0.5,4.5,1c1.6,0.6,3.1,1.3,4.5,2.2c0.2,0.2,0.5,0.3,0.7,0.5c0.2,0.1,0.3,0.1,0.4-0.2
			c0,0,0-0.1,0-0.1c0.1-0.9,0.1-1.9,0.2-2.8c0-0.4,0-0.4,0.4-0.4c6.7,0,13.3,0,20,0C73,31.2,73.1,31.3,73.2,31.4
			C73.2,31.3,73.2,31.4,73.2,31.4z"/>
		<path class="st1" d="M47.3,76c-0.1-0.1-0.2-0.1-0.3-0.2c-0.4-0.1-0.7-0.3-1-0.6c0.1-0.1,0.1-0.1,0.2-0.2c0.1-0.1,0.1-0.1,0.2-0.2
			c0.4,0.3,0.9,0.6,1.4,0.7c0.4,0.1,0.9-0.1,1.1-0.5c0.1-0.2,0-0.4-0.3-0.5c-0.2-0.1-0.5-0.2-0.7-0.2c-0.3,0-0.7,0-1,0
			c-0.2,0-0.4-0.1-0.5-0.3c-0.1-0.2-0.1-0.4,0.1-0.6c0.1-0.1,0.2-0.2,0.4-0.4c-0.2-0.1-0.3-0.2-0.5-0.3c-0.5-0.3-1-0.7-1.2-1.3
			c-0.2-0.6-0.4-1.1-0.2-1.8c0.2-0.6,0.4-1.2,0.9-1.6c0.4-0.4,0.8-0.6,1.4-0.6c0.7-0.1,1.4-0.1,2.1,0.2c0.2,0.1,0.4,0.2,0.5,0.4
			c0.3,0.2,0.3,0.2,0.5-0.1c0.1-0.3,0.5-0.5,0.8-0.5c0.3,0.1,0.6,0.4,0.5,0.7c0,0.3-0.3,0.6-0.6,0.6c-0.4,0-0.5,0.1-0.3,0.5
			c0.2,0.5,0.2,1,0.1,1.6c0,0.3-0.2,0.7-0.4,0.9c-0.4,0.6-0.9,1-1.6,1.2c-0.4,0.1-0.7,0.2-1.1,0.2c-0.3,0-0.5,0.2-0.7,0.3
			c-0.1,0.1-0.1,0.2,0,0.4c0.2,0.1,0.4,0.2,0.6,0.2c0.4,0,0.9-0.1,1.3,0c0.6,0.1,0.9,0.8,0.5,1.4c-0.2,0.2-0.4,0.4-0.7,0.5
			c-0.1,0-0.2,0.1-0.3,0.2C48.2,76,47.7,76,47.3,76z M46.4,70.2c0,0.6,0.1,1.2,0.4,1.7c0.5,0.8,1.4,1.1,2.1,0.1
			c0.5-0.6,0.6-1.4,0.5-2.2c0-0.2-0.1-0.3-0.1-0.5c-0.1-0.5-0.3-0.9-0.7-1.2c-0.3-0.3-0.6-0.4-0.9-0.3c-0.2,0.1-0.5,0.2-0.7,0.4
			C46.6,68.8,46.4,69.4,46.4,70.2z"/>
		<path class="st1" d="M30.1,65.4c0,0.1,0,0.2,0,0.2c0,1.6-0.1,3.1-0.1,4.7c0,0.7-0.1,1.4-0.1,2.2c0,0.2-0.1,0.3-0.2,0.3
			c-0.2,0-0.3,0-0.5,0c0-0.1,0-0.2,0-0.4c0.1-1,0.1-2,0.2-3c0-0.5,0.1-1.1,0.1-1.6c0-0.7,0.1-1.4,0.1-2.2c0-0.3,0-0.5,0.1-0.8
			c0-0.3,0-0.4-0.3-0.4c-0.1,0-0.3,0-0.4,0c-0.1,0-0.1-0.1-0.2-0.2c0.1,0,0.1-0.1,0.2-0.1c0.8,0,1.6,0,2.4,0c0.2,0,0.3,0.1,0.3,0.3
			c0.1,0.3,0.2,0.6,0.3,0.9c0.3,0.8,0.5,1.5,0.8,2.3c0.2,0.7,0.4,1.4,0.7,2.1c0.1,0.4,0.3,0.9,0.4,1.3c0,0,0.1,0.1,0.1,0.1
			c0,0,0.1-0.1,0.1-0.1c0.1-0.4,0.3-0.8,0.4-1.1c0.4-1.1,0.7-2.3,1.1-3.4c0.2-0.6,0.4-1.2,0.6-1.9c0.1-0.3,0.2-0.4,0.5-0.4
			c0.4,0,0.7,0,1.1,0c0.3,0,0.3,0,0.3,0.3c0,1,0.1,2,0.2,3c0.1,1.6,0.1,3.2,0.2,4.8c0,0.1,0,0.2,0,0.2c0,0.2-0.1,0.3-0.3,0.3
			c-0.4,0-0.8,0-1.2,0c-0.2,0-0.3-0.1-0.3-0.3c0-2.2,0-4.3-0.1-6.5c0-0.2,0-0.4-0.1-0.7c-0.3,0.2-0.3,0.4-0.4,0.7
			c-0.2,0.6-0.3,1.1-0.5,1.7c-0.2,0.6-0.3,1.1-0.5,1.7c-0.2,0.7-0.5,1.4-0.7,2.1c-0.1,0.3-0.2,0.7-0.3,1c0,0.2-0.1,0.2-0.3,0.2
			c-0.3,0-0.5,0-0.8,0c-0.2,0-0.2-0.1-0.3-0.2c-0.2-0.5-0.4-1.1-0.6-1.6c-0.3-0.8-0.5-1.5-0.8-2.3c-0.2-0.5-0.3-0.9-0.4-1.4
			c-0.2-0.5-0.3-1-0.5-1.6C30.4,65.6,30.3,65.4,30.1,65.4z"/>
		<path class="st1" d="M70.6,72.7c0.1-1,0.2-2.1,0.1-3.1c0-0.3-0.1-0.6-0.2-0.9c-0.2-0.5-0.7-0.6-1.1-0.4c-0.2,0.1-0.4,0.2-0.5,0.3
			c-0.5,0.3-0.7,0.7-0.7,1.3c0.1,0.8,0,1.7,0,2.6c0,0.3,0,0.3-0.3,0.3c-0.3,0-0.6,0-1,0c-0.2,0-0.3-0.1-0.3-0.3c0-1.1,0-2.1,0-3.2
			c0-0.4,0-0.9,0-1.3c0-0.3-0.1-0.3-0.3-0.4c-0.1,0-0.1,0-0.2,0c0,0-0.1-0.1-0.1-0.1c0,0,0.1-0.1,0.1-0.1c0.1,0,0.2,0,0.3,0
			c0.5,0,1,0,1.4,0c0.2,0,0.3,0.1,0.3,0.2c0,0.2,0,0.4,0,0.7c0,0.1,0.1,0.2,0.1,0.3c0.4-0.3,0.7-0.5,1-0.8c0.4-0.3,0.8-0.4,1.2-0.5
			c0.7-0.1,1.1,0.2,1.4,0.9c0.1,0.4,0.2,0.8,0.2,1.2c0,1,0,2,0,3c0,0.4,0,0.4-0.4,0.4C71.4,72.7,71,72.8,70.6,72.7z"/>
		<path class="st1" d="M39.9,68.3c-0.1-0.2-0.1-0.2-0.2-0.3c-0.1-0.2-0.1-0.3,0.1-0.4c0.5-0.3,1.1-0.4,1.7-0.4c0.6,0,1.2,0,1.8,0.2
			c0.5,0.1,0.9,0.6,0.9,1.1c0,1.3,0,2.6,0,3.9c0,0.2,0,0.3-0.3,0.3c-0.3,0-0.7,0-1,0c-0.2,0-0.3,0-0.2-0.3c0-0.2-0.1-0.2-0.2-0.2
			c-0.1,0-0.1,0.1-0.2,0.1c-0.7,0.6-1.5,0.6-2.3,0.3c-0.4-0.1-0.7-0.4-0.8-0.9c-0.1-0.3-0.2-0.6-0.2-1c0.1-0.9,0.5-1.4,1.2-1.7
			c0.4-0.1,0.8-0.2,1.2-0.1c0.3,0,0.7,0,1,0.2c0.1,0.1,0.2,0,0.2-0.2c0.1-0.9-0.5-1.4-1.3-1.3C40.8,67.8,40.3,67.9,39.9,68.3z
			 M40.2,70.9c0.1,0.2,0.1,0.5,0.3,0.7c0.4,0.7,1,0.8,1.6,0.5c0.9-0.5,1-1.6,0.3-2.4c-0.3-0.3-0.6-0.4-1.1-0.3
			C40.7,69.6,40.2,70.2,40.2,70.9z"/>
		<path class="st1" d="M52.6,68.3c-0.5-0.6-0.3-0.5,0.2-0.7c0.4-0.2,0.9-0.3,1.4-0.3c0.6,0,1.2,0,1.9,0.2c0.6,0.2,0.9,0.5,0.9,1.2
			c0,1.3,0,2.5,0,3.8c0,0.3,0,0.3-0.4,0.3c-0.4,0-0.8,0-1.2,0c0-0.2,0-0.3,0.1-0.4c0,0-0.1,0-0.1,0c-0.1,0.1-0.2,0.2-0.4,0.3
			c-0.6,0.3-1.2,0.4-1.8,0.3c-0.4-0.1-0.7-0.2-0.9-0.5c-0.2-0.3-0.4-0.7-0.4-1.1c0-0.5,0.1-1,0.5-1.5c0.3-0.3,0.6-0.5,1.1-0.6
			c0.4-0.1,0.8-0.1,1.2,0c0.2,0,0.3,0.1,0.5,0.2c0.1,0,0.2,0,0.2,0c0-0.3,0.1-0.7-0.1-1c-0.3-0.4-0.7-0.5-1.2-0.5
			c-0.5,0-1,0.2-1.4,0.5C52.7,68.2,52.6,68.2,52.6,68.3z M55.5,70.6c0-0.3-0.2-0.8-0.6-1.1c-0.4-0.3-0.8-0.3-1.2,0
			c-0.8,0.4-1,1.6-0.4,2.3c0.5,0.5,1.4,0.4,1.8-0.1C55.4,71.5,55.5,71.2,55.5,70.6z"/>
		<path class="st1" d="M62.5,72c0,0.6-0.1,0.7-0.6,0.7c-1.1,0-2.2,0-3.3,0c-0.1,0-0.2,0-0.3,0c0.2-0.3,0.3-0.7,0.5-1
			c0.6-1.2,1.2-2.4,1.8-3.6c0-0.1,0.1-0.2,0.1-0.3c0-0.1-0.1-0.2-0.1-0.2c-0.1,0-0.2,0-0.2,0c-0.9,0-1.8,0.2-2.5,0.8
			c-0.1-0.2-0.1-0.3,0-0.5c0.2-0.6,0.2-0.6,0.8-0.6c1.2,0,2.4,0,3.6,0c0.1,0,0.1,0,0.2,0c0,0.1,0,0.2-0.1,0.3
			c-0.6,1.2-1.2,2.4-1.8,3.6c-0.1,0.3-0.3,0.6-0.4,0.9c-0.1,0.2,0,0.3,0.2,0.3c0.7,0,1.4-0.1,2-0.3C62.3,72.1,62.4,72.1,62.5,72z"/>
		<path class="st1" d="M65.3,70c0,0.8,0,1.6,0,2.4c0,0.3,0,0.3-0.3,0.3c-0.3,0-0.5,0-0.8,0c-0.4,0-0.4,0-0.4-0.4c0-1.2,0-2.5,0-3.7
			c0-0.2,0-0.4,0-0.7c0-0.3-0.1-0.3-0.3-0.3c-0.1,0-0.3,0-0.4,0c0,0-0.1-0.1-0.1-0.1c0,0,0.1-0.1,0.1-0.1c0.1,0,0.3,0,0.4,0
			c0.5,0,1,0,1.5,0c0.3,0,0.3,0,0.3,0.3C65.3,68.4,65.3,69.2,65.3,70C65.3,70,65.3,70,65.3,70z"/>
		<path class="st1" d="M64.5,66.8c-0.4,0-0.7-0.3-0.7-0.7c0-0.4,0.3-0.7,0.7-0.7c0.4,0,0.7,0.3,0.7,0.7
			C65.2,66.5,64.9,66.8,64.5,66.8z"/>
	</g>
</g>
</svg>
