<?xml version="1.0" encoding="utf-8"?>
<!-- Generator: Adobe Illustrator 22.1.0, SVG Export Plug-In . SVG Version: 6.00 Build 0)  -->
<svg version="1.1" id="Ebene_1" xmlns="http://www.w3.org/2000/svg" xmlns:xlink="http://www.w3.org/1999/xlink" x="0px" y="0px"
	 viewBox="0 0 75 75" style="enable-background:new 0 0 75 75;" xml:space="preserve">
<style type="text/css">
	.st0{fill:#9F9E97;}
	.st1{fill:#FFFFFF;}
</style>
<circle class="st0" cx="37.5" cy="37.5" r="37.5"/>
<g>
	<path class="st1" d="M23.9,50c0-2,0-3.8,0-5.6c0-0.3,0.2-0.6,0.4-0.8c5.6-5.6,11.2-11.2,16.8-16.8c0.1-0.1,0.2-0.2,0.3-0.2
		c1.9,2,3.9,4,5.9,6.1c0,0.1-0.2,0.3-0.4,0.5C41.4,38.5,36,43.9,30.5,49.3c-0.4,0.3-0.9,0.6-1.4,0.6C27.4,50,25.7,50,23.9,50z"/>
	<path class="st1" d="M49.1,30.7c-2-2-4-4-6-6c0.9-0.9,1.9-2,2.9-2.9c0.7-0.6,1.5-0.6,2.2,0.1c1.3,1.2,2.5,2.4,3.7,3.7
		c0.7,0.7,0.7,1.6,0,2.3C51.1,28.8,50.1,29.8,49.1,30.7z"/>
</g>
</svg>
