<?xml version="1.0" encoding="utf-8"?>
<!-- Generator: Adobe Illustrator 22.1.0, SVG Export Plug-In . SVG Version: 6.00 Build 0)  -->
<svg version="1.1" id="Ebene_1" xmlns="http://www.w3.org/2000/svg" xmlns:xlink="http://www.w3.org/1999/xlink" x="0px" y="0px"
	 viewBox="0 0 100 100" style="enable-background:new 0 0 100 100;" xml:space="preserve">
<style type="text/css">
	.st0{clip-path:url(#SVGID_2_);}
	.st1{fill:#FFFFFF;}
</style>
<g>
	<defs>
		<circle id="SVGID_1_" cx="50" cy="50" r="50"/>
	</defs>
	<use xlink:href="#SVGID_1_"  style="overflow:visible;fill:#3A2F3C;"/>
	<clipPath id="SVGID_2_">
		<use xlink:href="#SVGID_1_"  style="overflow:visible;"/>
	</clipPath>
	<g class="st0">
		<g>
			<g>
				<path class="st1" d="M-63.1-9.4c1.3,0,2.3-1.3,2.3-2.9c0-1.6-1-2.9-2.3-2.9c-1.3,0-2.3,1.3-2.3,2.9
					C-65.4-10.7-64.4-9.4-63.1-9.4z"/>
				<path class="st1" d="M-59.9-8.7c0,0-0.1-0.1-0.2-0.1c-2.1-0.2-4.1-0.2-6.2,0c0,0-0.1,0-0.1,0.1c0,0,0,0,0,0
					c-0.7,0-1.3,0.5-1.4,1.3l-0.5,5.9h10.2l-0.5-5.9C-58.5-8.2-59.1-8.7-59.9-8.7C-59.8-8.7-59.8-8.7-59.9-8.7z"/>
			</g>
			<g>
				<path class="st1" d="M-49-9.8c1.3,0,2.3-1.3,2.3-2.9c0-1.6-1-2.9-2.3-2.9c-1.3,0-2.3,1.3-2.3,2.9C-51.3-11.1-50.3-9.8-49-9.8z"
					/>
				<path class="st1" d="M-45.8-9c0,0-0.1-0.1-0.2-0.1c-2.1-0.2-4.1-0.2-6.2,0c0,0-0.1,0-0.1,0.1c0,0,0,0,0,0
					c-0.7,0-1.3,0.5-1.4,1.3l-0.5,5.9h10.2l-0.5-5.9C-44.4-8.5-45-9.1-45.8-9C-45.7-9-45.8-9-45.8-9z"/>
			</g>
			<g>
				<path class="st1" d="M-35-9.4c1.3,0,2.3-1.3,2.3-2.9c0-1.6-1-2.9-2.3-2.9c-1.3,0-2.3,1.3-2.3,2.9C-37.3-10.7-36.2-9.4-35-9.4z"
					/>
				<path class="st1" d="M-31.7-8.7c0,0-0.1-0.1-0.2-0.1C-34-9-36-9-38.1-8.8c0,0-0.1,0-0.1,0.1c0,0,0,0,0,0c-0.7,0-1.3,0.5-1.4,1.3
					L-40-1.5h10.2l-0.5-5.9C-30.3-8.2-31-8.7-31.7-8.7C-31.7-8.7-31.7-8.7-31.7-8.7z"/>
			</g>
			<g>
				<path class="st1" d="M-20.9-9.8c1.3,0,2.3-1.3,2.3-2.9c0-1.6-1-2.9-2.3-2.9c-1.3,0-2.3,1.3-2.3,2.9
					C-23.2-11.1-22.2-9.8-20.9-9.8z"/>
				<path class="st1" d="M-17.7-9c0,0-0.1-0.1-0.2-0.1c-2.1-0.2-4.1-0.2-6.2,0c0,0-0.1,0-0.1,0.1c0,0,0,0,0,0
					c-0.7,0-1.3,0.5-1.4,1.3L-26-1.9h10.2l-0.5-5.9C-16.3-8.5-16.9-9.1-17.7-9C-17.6-9-17.6-9-17.7-9z"/>
			</g>
			<g>
				<path class="st1" d="M-6.8-9.4c1.3,0,2.3-1.3,2.3-2.9c0-1.6-1-2.9-2.3-2.9c-1.3,0-2.3,1.3-2.3,2.9C-9.2-10.7-8.1-9.4-6.8-9.4z"
					/>
				<path class="st1" d="M-3.6-8.7c0,0-0.1-0.1-0.2-0.1C-5.8-9-7.9-9-9.9-8.8c0,0-0.1,0-0.1,0.1c0,0,0,0,0,0c-0.7,0-1.3,0.5-1.4,1.3
					l-0.5,5.9h10.2l-0.5-5.9C-2.2-8.2-2.8-8.7-3.6-8.7C-3.6-8.7-3.6-8.7-3.6-8.7z"/>
			</g>
			<g>
				<path class="st1" d="M7.2-9.8c1.3,0,2.3-1.3,2.3-2.9c0-1.6-1-2.9-2.3-2.9c-1.3,0-2.3,1.3-2.3,2.9C4.9-11.1,5.9-9.8,7.2-9.8z"/>
				<path class="st1" d="M10.4-9c0,0-0.1-0.1-0.2-0.1c-2.1-0.2-4.1-0.2-6.2,0C4.1-9.1,4-9,4-9c0,0,0,0,0,0c-0.7,0-1.3,0.5-1.4,1.3
					L2.1-1.9h10.2l-0.5-5.9C11.8-8.5,11.2-9.1,10.4-9C10.5-9,10.5-9,10.4-9z"/>
			</g>
			<g>
				<path class="st1" d="M21.3-9.4c1.3,0,2.3-1.3,2.3-2.9c0-1.6-1-2.9-2.3-2.9c-1.3,0-2.3,1.3-2.3,2.9C19-10.7,20-9.4,21.3-9.4z"/>
				<path class="st1" d="M24.5-8.7c0,0-0.1-0.1-0.2-0.1c-2.1-0.2-4.1-0.2-6.2,0c0,0-0.1,0-0.1,0.1c0,0,0,0,0,0
					c-0.7,0-1.3,0.5-1.4,1.3l-0.5,5.9h10.2L26-7.4C25.9-8.2,25.3-8.7,24.5-8.7C24.6-8.7,24.5-8.7,24.5-8.7z"/>
			</g>
			<g>
				<path class="st1" d="M35.3-9.8c1.3,0,2.3-1.3,2.3-2.9c0-1.6-1-2.9-2.3-2.9c-1.3,0-2.3,1.3-2.3,2.9C33-11.1,34.1-9.8,35.3-9.8z"
					/>
				<path class="st1" d="M38.6-9c0,0-0.1-0.1-0.2-0.1c-2.1-0.2-4.1-0.2-6.2,0c0,0-0.1,0-0.1,0.1c0,0,0,0,0,0c-0.7,0-1.3,0.5-1.4,1.3
					l-0.5,5.9h10.2L40-7.7C40-8.5,39.3-9.1,38.6-9C38.6-9,38.6-9,38.6-9z"/>
			</g>
			<g>
				<path class="st1" d="M49.4-9.4c1.3,0,2.3-1.3,2.3-2.9c0-1.6-1-2.9-2.3-2.9c-1.3,0-2.3,1.3-2.3,2.9C47.1-10.7,48.1-9.4,49.4-9.4z
					"/>
				<path class="st1" d="M52.6-8.7c0,0-0.1-0.1-0.2-0.1c-2.1-0.2-4.1-0.2-6.2,0c0,0-0.1,0-0.1,0.1c0,0,0,0,0,0
					c-0.7,0-1.3,0.5-1.4,1.3l-0.5,5.9h10.2l-0.5-5.9C54-8.2,53.4-8.7,52.6-8.7C52.7-8.7,52.7-8.7,52.6-8.7z"/>
			</g>
			<g>
				<path class="st1" d="M63.5-9.8c1.3,0,2.3-1.3,2.3-2.9c0-1.6-1-2.9-2.3-2.9c-1.3,0-2.3,1.3-2.3,2.9C61.1-11.1,62.2-9.8,63.5-9.8z
					"/>
				<path class="st1" d="M66.7-9c0,0-0.1-0.1-0.2-0.1c-2.1-0.2-4.1-0.2-6.2,0c0,0-0.1,0-0.1,0.1c0,0,0,0,0,0c-0.7,0-1.3,0.5-1.4,1.3
					l-0.5,5.9h10.2l-0.5-5.9C68.1-8.5,67.5-9.1,66.7-9C66.7-9,66.7-9,66.7-9z"/>
			</g>
			<g>
				<path class="st1" d="M77.5-9.4c1.3,0,2.3-1.3,2.3-2.9c0-1.6-1-2.9-2.3-2.9c-1.3,0-2.3,1.3-2.3,2.9C75.2-10.7,76.2-9.4,77.5-9.4z
					"/>
				<path class="st1" d="M80.7-8.7c0,0-0.1-0.1-0.2-0.1c-2.1-0.2-4.1-0.2-6.2,0c0,0-0.1,0-0.1,0.1c0,0,0,0,0,0
					c-0.7,0-1.3,0.5-1.4,1.3l-0.5,5.9h10.2l-0.5-5.9C82.1-8.2,81.5-8.7,80.7-8.7C80.8-8.7,80.8-8.7,80.7-8.7z"/>
			</g>
			<g>
				<path class="st1" d="M91.6-9.8c1.3,0,2.3-1.3,2.3-2.9c0-1.6-1-2.9-2.3-2.9c-1.3,0-2.3,1.3-2.3,2.9C89.3-11.1,90.3-9.8,91.6-9.8z
					"/>
				<path class="st1" d="M94.8-9c0,0-0.1-0.1-0.2-0.1c-2.1-0.2-4.1-0.2-6.2,0c0,0-0.1,0-0.1,0.1c0,0,0,0,0,0c-0.7,0-1.3,0.5-1.4,1.3
					l-0.5,5.9h10.2l-0.5-5.9C96.2-8.5,95.6-9.1,94.8-9C94.9-9,94.8-9,94.8-9z"/>
			</g>
			<g>
				<path class="st1" d="M105.6-9.4c1.3,0,2.3-1.3,2.3-2.9c0-1.6-1-2.9-2.3-2.9c-1.3,0-2.3,1.3-2.3,2.9
					C103.3-10.7,104.4-9.4,105.6-9.4z"/>
				<path class="st1" d="M108.9-8.7c0,0-0.1-0.1-0.2-0.1c-2.1-0.2-4.1-0.2-6.2,0c0,0-0.1,0-0.1,0.1c0,0,0,0,0,0
					c-0.7,0-1.3,0.5-1.4,1.3l-0.5,5.9h10.2l-0.5-5.9C110.3-8.2,109.6-8.7,108.9-8.7C108.9-8.7,108.9-8.7,108.9-8.7z"/>
			</g>
			<g>
				<path class="st1" d="M119.7-9.8c1.3,0,2.3-1.3,2.3-2.9c0-1.6-1-2.9-2.3-2.9c-1.3,0-2.3,1.3-2.3,2.9
					C117.4-11.1,118.4-9.8,119.7-9.8z"/>
				<path class="st1" d="M122.9-9c0,0-0.1-0.1-0.2-0.1c-2.1-0.2-4.1-0.2-6.2,0c0,0-0.1,0-0.1,0.1c0,0,0,0,0,0
					c-0.7,0-1.3,0.5-1.4,1.3l-0.5,5.9h10.2l-0.5-5.9C124.3-8.5,123.7-9.1,122.9-9C123-9,123-9,122.9-9z"/>
			</g>
			<g>
				<path class="st1" d="M133.8-9.4c1.3,0,2.3-1.3,2.3-2.9c0-1.6-1-2.9-2.3-2.9c-1.3,0-2.3,1.3-2.3,2.9
					C131.4-10.7,132.5-9.4,133.8-9.4z"/>
				<path class="st1" d="M137-8.7c0,0-0.1-0.1-0.2-0.1c-2.1-0.2-4.1-0.2-6.2,0c0,0-0.1,0-0.1,0.1c0,0,0,0,0,0
					c-0.7,0-1.3,0.5-1.4,1.3l-0.5,5.9h10.2l-0.5-5.9C138.4-8.2,137.8-8.7,137-8.7C137-8.7,137-8.7,137-8.7z"/>
			</g>
			<g>
				<path class="st1" d="M147.8-9.8c1.3,0,2.3-1.3,2.3-2.9c0-1.6-1-2.9-2.3-2.9c-1.3,0-2.3,1.3-2.3,2.9
					C145.5-11.1,146.5-9.8,147.8-9.8z"/>
				<path class="st1" d="M151.1-9c0,0-0.1-0.1-0.2-0.1c-2.1-0.2-4.1-0.2-6.2,0c0,0-0.1,0-0.1,0.1c0,0,0,0,0,0
					c-0.7,0-1.3,0.5-1.4,1.3l-0.5,5.9H153l-0.5-5.9C152.4-8.5,151.8-9.1,151.1-9C151.1-9,151.1-9,151.1-9z"/>
			</g>
		</g>
		<g>
			<g>
				<path class="st1" d="M-56.1,7.2c1.3,0,2.3-1.3,2.3-2.9c0-1.6-1-2.9-2.3-2.9c-1.3,0-2.3,1.3-2.3,2.9C-58.4,6-57.3,7.2-56.1,7.2z"
					/>
				<path class="st1" d="M-52.8,8c0,0-0.1-0.1-0.2-0.1c-2.1-0.2-4.1-0.2-6.2,0c0,0-0.1,0-0.1,0.1c0,0,0,0,0,0
					c-0.7,0-1.3,0.5-1.4,1.3l-0.5,5.9h10.2l-0.5-5.9C-51.4,8.5-52,8-52.8,8C-52.8,8-52.8,8-52.8,8z"/>
			</g>
			<g>
				<path class="st1" d="M-42,6.9c1.3,0,2.3-1.3,2.3-2.9c0-1.6-1-2.9-2.3-2.9c-1.3,0-2.3,1.3-2.3,2.9C-44.3,5.6-43.3,6.9-42,6.9z"/>
				<path class="st1" d="M-38.8,7.7c0,0-0.1-0.1-0.2-0.1c-2.1-0.2-4.1-0.2-6.2,0c0,0-0.1,0-0.1,0.1c0,0,0,0,0,0
					c-0.7,0-1.3,0.5-1.4,1.3l-0.5,5.9h10.2L-37.3,9C-37.4,8.2-38,7.6-38.8,7.7C-38.7,7.7-38.7,7.7-38.8,7.7z"/>
			</g>
			<g>
				<path class="st1" d="M-27.9,7.2c1.3,0,2.3-1.3,2.3-2.9c0-1.6-1-2.9-2.3-2.9c-1.3,0-2.3,1.3-2.3,2.9C-30.3,6-29.2,7.2-27.9,7.2z"
					/>
				<path class="st1" d="M-24.7,8c0,0-0.1-0.1-0.2-0.1c-2.1-0.2-4.1-0.2-6.2,0c0,0-0.1,0-0.1,0.1c0,0,0,0,0,0
					c-0.7,0-1.3,0.5-1.4,1.3l-0.5,5.9h10.2l-0.5-5.9C-23.3,8.5-23.9,8-24.7,8C-24.7,8-24.7,8-24.7,8z"/>
			</g>
			<g>
				<path class="st1" d="M-13.9,6.9c1.3,0,2.3-1.3,2.3-2.9c0-1.6-1-2.9-2.3-2.9c-1.3,0-2.3,1.3-2.3,2.9C-16.2,5.6-15.2,6.9-13.9,6.9
					z"/>
				<path class="st1" d="M-10.6,7.7c0,0-0.1-0.1-0.2-0.1c-2.1-0.2-4.1-0.2-6.2,0c0,0-0.1,0-0.1,0.1c0,0,0,0,0,0
					c-0.7,0-1.3,0.5-1.4,1.3l-0.5,5.9h10.2L-9.2,9C-9.3,8.2-9.9,7.6-10.6,7.7C-10.6,7.7-10.6,7.7-10.6,7.7z"/>
			</g>
			<g>
				<path class="st1" d="M0.2,7.2c1.3,0,2.3-1.3,2.3-2.9c0-1.6-1-2.9-2.3-2.9c-1.3,0-2.3,1.3-2.3,2.9C-2.1,6-1.1,7.2,0.2,7.2z"/>
				<path class="st1" d="M3.4,8c0,0-0.1-0.1-0.2-0.1c-2.1-0.2-4.1-0.2-6.2,0C-2.9,8-3,8-3,8c0,0,0,0,0,0c-0.7,0-1.3,0.5-1.4,1.3
					l-0.5,5.9H5.3L4.9,9.3C4.8,8.5,4.2,8,3.4,8C3.5,8,3.4,8,3.4,8z"/>
			</g>
			<g>
				<path class="st1" d="M14.2,6.9c1.3,0,2.3-1.3,2.3-2.9c0-1.6-1-2.9-2.3-2.9c-1.3,0-2.3,1.3-2.3,2.9C11.9,5.6,13,6.9,14.2,6.9z"/>
				<path class="st1" d="M17.5,7.7c0,0-0.1-0.1-0.2-0.1c-2.1-0.2-4.1-0.2-6.2,0c0,0-0.1,0-0.1,0.1c0,0,0,0,0,0
					c-0.7,0-1.3,0.5-1.4,1.3l-0.5,5.9h10.2L18.9,9C18.9,8.2,18.3,7.6,17.5,7.7C17.5,7.7,17.5,7.7,17.5,7.7z"/>
			</g>
			<g>
				<path class="st1" d="M28.3,7.2c1.3,0,2.3-1.3,2.3-2.9c0-1.6-1-2.9-2.3-2.9C27,1.5,26,2.8,26,4.4C26,6,27,7.2,28.3,7.2z"/>
				<path class="st1" d="M31.5,8c0,0-0.1-0.1-0.2-0.1c-2.1-0.2-4.1-0.2-6.2,0c0,0-0.1,0-0.1,0.1c0,0,0,0,0,0c-0.7,0-1.3,0.5-1.4,1.3
					l-0.5,5.9h10.2L33,9.3C32.9,8.5,32.3,8,31.5,8C31.6,8,31.6,8,31.5,8z"/>
			</g>
			<g>
				<path class="st1" d="M42.4,6.9c1.3,0,2.3-1.3,2.3-2.9c0-1.6-1-2.9-2.3-2.9c-1.3,0-2.3,1.3-2.3,2.9C40,5.6,41.1,6.9,42.4,6.9z"/>
				<path class="st1" d="M45.6,7.7c0,0-0.1-0.1-0.2-0.1c-2.1-0.2-4.1-0.2-6.2,0c0,0-0.1,0-0.1,0.1c0,0,0,0,0,0
					c-0.7,0-1.3,0.5-1.4,1.3l-0.5,5.9h10.2L47.1,9C47,8.2,46.4,7.6,45.6,7.7C45.6,7.7,45.6,7.7,45.6,7.7z"/>
			</g>
			<g>
				<path class="st1" d="M56.4,7.2c1.3,0,2.3-1.3,2.3-2.9c0-1.6-1-2.9-2.3-2.9c-1.3,0-2.3,1.3-2.3,2.9C54.1,6,55.1,7.2,56.4,7.2z"/>
				<path class="st1" d="M59.7,8c0,0-0.1-0.1-0.2-0.1c-2.1-0.2-4.1-0.2-6.2,0c0,0-0.1,0-0.1,0.1c0,0,0,0,0,0c-0.7,0-1.3,0.5-1.4,1.3
					l-0.5,5.9h10.2l-0.5-5.9C61,8.5,60.4,8,59.7,8C59.7,8,59.7,8,59.7,8z"/>
			</g>
			<g>
				<path class="st1" d="M70.5,6.9c1.3,0,2.3-1.3,2.3-2.9c0-1.6-1-2.9-2.3-2.9c-1.3,0-2.3,1.3-2.3,2.9C68.2,5.6,69.2,6.9,70.5,6.9z"
					/>
				<path class="st1" d="M73.7,7.7c0,0-0.1-0.1-0.2-0.1c-2.1-0.2-4.1-0.2-6.2,0c0,0-0.1,0-0.1,0.1c0,0,0,0,0,0
					c-0.7,0-1.3,0.5-1.4,1.3l-0.5,5.9h10.2L75.2,9C75.1,8.2,74.5,7.6,73.7,7.7C73.8,7.7,73.7,7.7,73.7,7.7z"/>
			</g>
			<g>
				<path class="st1" d="M84.5,7.2c1.3,0,2.3-1.3,2.3-2.9c0-1.6-1-2.9-2.3-2.9c-1.3,0-2.3,1.3-2.3,2.9C82.2,6,83.3,7.2,84.5,7.2z"/>
				<path class="st1" d="M87.8,8c0,0-0.1-0.1-0.2-0.1c-2.1-0.2-4.1-0.2-6.2,0c0,0-0.1,0-0.1,0.1c0,0,0,0,0,0c-0.7,0-1.3,0.5-1.4,1.3
					l-0.5,5.9h10.2l-0.5-5.9C89.2,8.5,88.6,8,87.8,8C87.8,8,87.8,8,87.8,8z"/>
			</g>
			<g>
				<path class="st1" d="M98.6,6.9c1.3,0,2.3-1.3,2.3-2.9c0-1.6-1-2.9-2.3-2.9c-1.3,0-2.3,1.3-2.3,2.9C96.3,5.6,97.3,6.9,98.6,6.9z"
					/>
				<path class="st1" d="M101.8,7.7c0,0-0.1-0.1-0.2-0.1c-2.1-0.2-4.1-0.2-6.2,0c0,0-0.1,0-0.1,0.1c0,0,0,0,0,0
					c-0.7,0-1.3,0.5-1.4,1.3l-0.5,5.9h10.2L103.3,9C103.2,8.2,102.6,7.6,101.8,7.7C101.9,7.7,101.9,7.7,101.8,7.7z"/>
			</g>
			<g>
				<path class="st1" d="M112.7,7.2c1.3,0,2.3-1.3,2.3-2.9c0-1.6-1-2.9-2.3-2.9c-1.3,0-2.3,1.3-2.3,2.9C110.3,6,111.4,7.2,112.7,7.2
					z"/>
				<path class="st1" d="M115.9,8c0,0-0.1-0.1-0.2-0.1c-2.1-0.2-4.1-0.2-6.2,0c0,0-0.1,0-0.1,0.1c0,0,0,0,0,0
					c-0.7,0-1.3,0.5-1.4,1.3l-0.5,5.9h10.2l-0.5-5.9C117.3,8.5,116.7,8,115.9,8C115.9,8,115.9,8,115.9,8z"/>
			</g>
			<g>
				<path class="st1" d="M126.7,6.9c1.3,0,2.3-1.3,2.3-2.9c0-1.6-1-2.9-2.3-2.9c-1.3,0-2.3,1.3-2.3,2.9
					C124.4,5.6,125.4,6.9,126.7,6.9z"/>
				<path class="st1" d="M130,7.7c0,0-0.1-0.1-0.2-0.1c-2.1-0.2-4.1-0.2-6.2,0c0,0-0.1,0-0.1,0.1c0,0,0,0,0,0
					c-0.7,0-1.3,0.5-1.4,1.3l-0.5,5.9h10.2L131.4,9C131.3,8.2,130.7,7.6,130,7.7C130,7.7,130,7.7,130,7.7z"/>
			</g>
			<g>
				<path class="st1" d="M140.8,7.2c1.3,0,2.3-1.3,2.3-2.9c0-1.6-1-2.9-2.3-2.9c-1.3,0-2.3,1.3-2.3,2.9C138.5,6,139.5,7.2,140.8,7.2
					z"/>
				<path class="st1" d="M144,8c0,0-0.1-0.1-0.2-0.1c-2.1-0.2-4.1-0.2-6.2,0c0,0-0.1,0-0.1,0.1c0,0,0,0,0,0c-0.7,0-1.3,0.5-1.4,1.3
					l-0.5,5.9h10.2l-0.5-5.9C145.4,8.5,144.8,8,144,8C144.1,8,144,8,144,8z"/>
			</g>
			<g>
				<path class="st1" d="M154.8,6.9c1.3,0,2.3-1.3,2.3-2.9c0-1.6-1-2.9-2.3-2.9c-1.3,0-2.3,1.3-2.3,2.9
					C152.5,5.6,153.6,6.9,154.8,6.9z"/>
				<path class="st1" d="M158.1,7.7c0,0-0.1-0.1-0.2-0.1c-2.1-0.2-4.1-0.2-6.2,0c0,0-0.1,0-0.1,0.1c0,0,0,0,0,0
					c-0.7,0-1.3,0.5-1.4,1.3l-0.5,5.9H160L159.5,9C159.5,8.2,158.9,7.6,158.1,7.7C158.1,7.7,158.1,7.7,158.1,7.7z"/>
			</g>
		</g>
		<g>
			<g>
				<path class="st1" d="M-63.1,23.9c1.3,0,2.3-1.3,2.3-2.9c0-1.6-1-2.9-2.3-2.9c-1.3,0-2.3,1.3-2.3,2.9
					C-65.4,22.7-64.4,23.9-63.1,23.9z"/>
				<path class="st1" d="M-59.9,24.7c0,0-0.1-0.1-0.2-0.1c-2.1-0.2-4.1-0.2-6.2,0c0,0-0.1,0-0.1,0.1c0,0,0,0,0,0
					c-0.7,0-1.3,0.5-1.4,1.3l-0.5,5.9h10.2l-0.5-5.9C-58.5,25.2-59.1,24.7-59.9,24.7C-59.8,24.7-59.8,24.7-59.9,24.7z"/>
			</g>
			<g>
				<path class="st1" d="M-49,23.6c1.3,0,2.3-1.3,2.3-2.9c0-1.6-1-2.9-2.3-2.9c-1.3,0-2.3,1.3-2.3,2.9C-51.3,22.3-50.3,23.6-49,23.6
					z"/>
				<path class="st1" d="M-45.8,24.4c0,0-0.1-0.1-0.2-0.1c-2.1-0.2-4.1-0.2-6.2,0c0,0-0.1,0-0.1,0.1c0,0,0,0,0,0
					c-0.7,0-1.3,0.5-1.4,1.3l-0.5,5.9h10.2l-0.5-5.9C-44.4,24.9-45,24.3-45.8,24.4C-45.7,24.4-45.8,24.4-45.8,24.4z"/>
			</g>
			<g>
				<path class="st1" d="M-35,23.9c1.3,0,2.3-1.3,2.3-2.9c0-1.6-1-2.9-2.3-2.9c-1.3,0-2.3,1.3-2.3,2.9C-37.3,22.7-36.2,23.9-35,23.9
					z"/>
				<path class="st1" d="M-31.7,24.7c0,0-0.1-0.1-0.2-0.1c-2.1-0.2-4.1-0.2-6.2,0c0,0-0.1,0-0.1,0.1c0,0,0,0,0,0
					c-0.7,0-1.3,0.5-1.4,1.3l-0.5,5.9h10.2l-0.5-5.9C-30.3,25.2-31,24.7-31.7,24.7C-31.7,24.7-31.7,24.7-31.7,24.7z"/>
			</g>
			<g>
				<path class="st1" d="M-20.9,23.6c1.3,0,2.3-1.3,2.3-2.9c0-1.6-1-2.9-2.3-2.9c-1.3,0-2.3,1.3-2.3,2.9
					C-23.2,22.3-22.2,23.6-20.9,23.6z"/>
				<path class="st1" d="M-17.7,24.4c0,0-0.1-0.1-0.2-0.1c-2.1-0.2-4.1-0.2-6.2,0c0,0-0.1,0-0.1,0.1c0,0,0,0,0,0
					c-0.7,0-1.3,0.5-1.4,1.3l-0.5,5.9h10.2l-0.5-5.9C-16.3,24.9-16.9,24.3-17.7,24.4C-17.6,24.4-17.6,24.4-17.7,24.4z"/>
			</g>
			<g>
				<path class="st1" d="M-6.8,23.9c1.3,0,2.3-1.3,2.3-2.9c0-1.6-1-2.9-2.3-2.9c-1.3,0-2.3,1.3-2.3,2.9C-9.2,22.7-8.1,23.9-6.8,23.9
					z"/>
				<path class="st1" d="M-3.6,24.7c0,0-0.1-0.1-0.2-0.1c-2.1-0.2-4.1-0.2-6.2,0c0,0-0.1,0-0.1,0.1c0,0,0,0,0,0
					c-0.7,0-1.3,0.5-1.4,1.3l-0.5,5.9h10.2L-2.2,26C-2.2,25.2-2.8,24.7-3.6,24.7C-3.6,24.7-3.6,24.7-3.6,24.7z"/>
			</g>
			<g>
				<path class="st1" d="M7.2,23.6c1.3,0,2.3-1.3,2.3-2.9c0-1.6-1-2.9-2.3-2.9c-1.3,0-2.3,1.3-2.3,2.9C4.9,22.3,5.9,23.6,7.2,23.6z"
					/>
				<path class="st1" d="M10.4,24.4c0,0-0.1-0.1-0.2-0.1c-2.1-0.2-4.1-0.2-6.2,0c0,0-0.1,0-0.1,0.1c0,0,0,0,0,0
					c-0.7,0-1.3,0.5-1.4,1.3l-0.5,5.9h10.2l-0.5-5.9C11.8,24.9,11.2,24.3,10.4,24.4C10.5,24.4,10.5,24.4,10.4,24.4z"/>
			</g>
			<g>
				<path class="st1" d="M21.3,23.9c1.3,0,2.3-1.3,2.3-2.9c0-1.6-1-2.9-2.3-2.9c-1.3,0-2.3,1.3-2.3,2.9C19,22.7,20,23.9,21.3,23.9z"
					/>
				<path class="st1" d="M24.5,24.7c0,0-0.1-0.1-0.2-0.1c-2.1-0.2-4.1-0.2-6.2,0c0,0-0.1,0-0.1,0.1c0,0,0,0,0,0
					c-0.7,0-1.3,0.5-1.4,1.3l-0.5,5.9h10.2L26,26C25.9,25.2,25.3,24.7,24.5,24.7C24.6,24.7,24.5,24.7,24.5,24.7z"/>
			</g>
			<g>
				<path class="st1" d="M35.3,23.6c1.3,0,2.3-1.3,2.3-2.9c0-1.6-1-2.9-2.3-2.9c-1.3,0-2.3,1.3-2.3,2.9C33,22.3,34.1,23.6,35.3,23.6
					z"/>
				<path class="st1" d="M38.6,24.4c0,0-0.1-0.1-0.2-0.1c-2.1-0.2-4.1-0.2-6.2,0c0,0-0.1,0-0.1,0.1c0,0,0,0,0,0
					c-0.7,0-1.3,0.5-1.4,1.3l-0.5,5.9h10.2L40,25.6C40,24.9,39.3,24.3,38.6,24.4C38.6,24.4,38.6,24.4,38.6,24.4z"/>
			</g>
			<g>
				<path class="st1" d="M49.4,23.9c1.3,0,2.3-1.3,2.3-2.9c0-1.6-1-2.9-2.3-2.9c-1.3,0-2.3,1.3-2.3,2.9
					C47.1,22.7,48.1,23.9,49.4,23.9z"/>
				<path class="st1" d="M52.6,24.7c0,0-0.1-0.1-0.2-0.1c-2.1-0.2-4.1-0.2-6.2,0c0,0-0.1,0-0.1,0.1c0,0,0,0,0,0
					c-0.7,0-1.3,0.5-1.4,1.3l-0.5,5.9h10.2L54.1,26C54,25.2,53.4,24.7,52.6,24.7C52.7,24.7,52.7,24.7,52.6,24.7z"/>
			</g>
			<g>
				<path class="st1" d="M63.5,23.6c1.3,0,2.3-1.3,2.3-2.9c0-1.6-1-2.9-2.3-2.9c-1.3,0-2.3,1.3-2.3,2.9
					C61.1,22.3,62.2,23.6,63.5,23.6z"/>
				<path class="st1" d="M66.7,24.4c0,0-0.1-0.1-0.2-0.1c-2.1-0.2-4.1-0.2-6.2,0c0,0-0.1,0-0.1,0.1c0,0,0,0,0,0
					c-0.7,0-1.3,0.5-1.4,1.3l-0.5,5.9h10.2l-0.5-5.9C68.1,24.9,67.5,24.3,66.7,24.4C66.7,24.4,66.7,24.4,66.7,24.4z"/>
			</g>
			<g>
				<path class="st1" d="M77.5,23.9c1.3,0,2.3-1.3,2.3-2.9c0-1.6-1-2.9-2.3-2.9c-1.3,0-2.3,1.3-2.3,2.9
					C75.2,22.7,76.2,23.9,77.5,23.9z"/>
				<path class="st1" d="M80.7,24.7c0,0-0.1-0.1-0.2-0.1c-2.1-0.2-4.1-0.2-6.2,0c0,0-0.1,0-0.1,0.1c0,0,0,0,0,0
					c-0.7,0-1.3,0.5-1.4,1.3l-0.5,5.9h10.2L82.2,26C82.1,25.2,81.5,24.7,80.7,24.7C80.8,24.7,80.8,24.7,80.7,24.7z"/>
			</g>
			<g>
				<path class="st1" d="M91.6,23.6c1.3,0,2.3-1.3,2.3-2.9c0-1.6-1-2.9-2.3-2.9c-1.3,0-2.3,1.3-2.3,2.9
					C89.3,22.3,90.3,23.6,91.6,23.6z"/>
				<path class="st1" d="M94.8,24.4c0,0-0.1-0.1-0.2-0.1c-2.1-0.2-4.1-0.2-6.2,0c0,0-0.1,0-0.1,0.1c0,0,0,0,0,0
					c-0.7,0-1.3,0.5-1.4,1.3l-0.5,5.9h10.2l-0.5-5.9C96.2,24.9,95.6,24.3,94.8,24.4C94.9,24.4,94.8,24.4,94.8,24.4z"/>
			</g>
			<g>
				<path class="st1" d="M105.6,23.9c1.3,0,2.3-1.3,2.3-2.9c0-1.6-1-2.9-2.3-2.9c-1.3,0-2.3,1.3-2.3,2.9
					C103.3,22.7,104.4,23.9,105.6,23.9z"/>
				<path class="st1" d="M108.9,24.7c0,0-0.1-0.1-0.2-0.1c-2.1-0.2-4.1-0.2-6.2,0c0,0-0.1,0-0.1,0.1c0,0,0,0,0,0
					c-0.7,0-1.3,0.5-1.4,1.3l-0.5,5.9h10.2l-0.5-5.9C110.3,25.2,109.6,24.7,108.9,24.7C108.9,24.7,108.9,24.7,108.9,24.7z"/>
			</g>
			<g>
				<path class="st1" d="M119.7,23.6c1.3,0,2.3-1.3,2.3-2.9c0-1.6-1-2.9-2.3-2.9c-1.3,0-2.3,1.3-2.3,2.9
					C117.4,22.3,118.4,23.6,119.7,23.6z"/>
				<path class="st1" d="M122.9,24.4c0,0-0.1-0.1-0.2-0.1c-2.1-0.2-4.1-0.2-6.2,0c0,0-0.1,0-0.1,0.1c0,0,0,0,0,0
					c-0.7,0-1.3,0.5-1.4,1.3l-0.5,5.9h10.2l-0.5-5.9C124.3,24.9,123.7,24.3,122.9,24.4C123,24.4,123,24.4,122.9,24.4z"/>
			</g>
			<g>
				<path class="st1" d="M133.8,23.9c1.3,0,2.3-1.3,2.3-2.9c0-1.6-1-2.9-2.3-2.9c-1.3,0-2.3,1.3-2.3,2.9
					C131.4,22.7,132.5,23.9,133.8,23.9z"/>
				<path class="st1" d="M137,24.7c0,0-0.1-0.1-0.2-0.1c-2.1-0.2-4.1-0.2-6.2,0c0,0-0.1,0-0.1,0.1c0,0,0,0,0,0
					c-0.7,0-1.3,0.5-1.4,1.3l-0.5,5.9h10.2l-0.5-5.9C138.4,25.2,137.8,24.7,137,24.7C137,24.7,137,24.7,137,24.7z"/>
			</g>
			<g>
				<path class="st1" d="M147.8,23.6c1.3,0,2.3-1.3,2.3-2.9c0-1.6-1-2.9-2.3-2.9c-1.3,0-2.3,1.3-2.3,2.9
					C145.5,22.3,146.5,23.6,147.8,23.6z"/>
				<path class="st1" d="M151.1,24.4c0,0-0.1-0.1-0.2-0.1c-2.1-0.2-4.1-0.2-6.2,0c0,0-0.1,0-0.1,0.1c0,0,0,0,0,0
					c-0.7,0-1.3,0.5-1.4,1.3l-0.5,5.9H153l-0.5-5.9C152.4,24.9,151.8,24.3,151.1,24.4C151.1,24.4,151.1,24.4,151.1,24.4z"/>
			</g>
		</g>
		<g>
			<g>
				<path class="st1" d="M-56.1,40.6c1.3,0,2.3-1.3,2.3-2.9c0-1.6-1-2.9-2.3-2.9c-1.3,0-2.3,1.3-2.3,2.9
					C-58.4,39.4-57.3,40.6-56.1,40.6z"/>
				<path class="st1" d="M-52.8,41.4c0,0-0.1-0.1-0.2-0.1c-2.1-0.2-4.1-0.2-6.2,0c0,0-0.1,0-0.1,0.1c0,0,0,0,0,0
					c-0.7,0-1.3,0.5-1.4,1.3l-0.5,5.9h10.2l-0.5-5.9C-51.4,41.9-52,41.4-52.8,41.4C-52.8,41.4-52.8,41.4-52.8,41.4z"/>
			</g>
			<g>
				<path class="st1" d="M-42,40.3c1.3,0,2.3-1.3,2.3-2.9c0-1.6-1-2.9-2.3-2.9c-1.3,0-2.3,1.3-2.3,2.9C-44.3,39-43.3,40.3-42,40.3z"
					/>
				<path class="st1" d="M-38.8,41.1c0,0-0.1-0.1-0.2-0.1c-2.1-0.2-4.1-0.2-6.2,0c0,0-0.1,0-0.1,0.1c0,0,0,0,0,0
					c-0.7,0-1.3,0.5-1.4,1.3l-0.5,5.9h10.2l-0.5-5.9C-37.4,41.6-38,41-38.8,41.1C-38.7,41.1-38.7,41.1-38.8,41.1z"/>
			</g>
			<g>
				<path class="st1" d="M-27.9,40.6c1.3,0,2.3-1.3,2.3-2.9c0-1.6-1-2.9-2.3-2.9c-1.3,0-2.3,1.3-2.3,2.9
					C-30.3,39.4-29.2,40.6-27.9,40.6z"/>
				<path class="st1" d="M-24.7,41.4c0,0-0.1-0.1-0.2-0.1c-2.1-0.2-4.1-0.2-6.2,0c0,0-0.1,0-0.1,0.1c0,0,0,0,0,0
					c-0.7,0-1.3,0.5-1.4,1.3l-0.5,5.9h10.2l-0.5-5.9C-23.3,41.9-23.9,41.4-24.7,41.4C-24.7,41.4-24.7,41.4-24.7,41.4z"/>
			</g>
			<g>
				<path class="st1" d="M-13.9,40.3c1.3,0,2.3-1.3,2.3-2.9c0-1.6-1-2.9-2.3-2.9c-1.3,0-2.3,1.3-2.3,2.9
					C-16.2,39-15.2,40.3-13.9,40.3z"/>
				<path class="st1" d="M-10.6,41.1c0,0-0.1-0.1-0.2-0.1c-2.1-0.2-4.1-0.2-6.2,0c0,0-0.1,0-0.1,0.1c0,0,0,0,0,0
					c-0.7,0-1.3,0.5-1.4,1.3l-0.5,5.9h10.2l-0.5-5.9C-9.3,41.6-9.9,41-10.6,41.1C-10.6,41.1-10.6,41.1-10.6,41.1z"/>
			</g>
			<g>
				<path class="st1" d="M0.2,40.6c1.3,0,2.3-1.3,2.3-2.9c0-1.6-1-2.9-2.3-2.9c-1.3,0-2.3,1.3-2.3,2.9C-2.1,39.4-1.1,40.6,0.2,40.6z
					"/>
				<path class="st1" d="M3.4,41.4c0,0-0.1-0.1-0.2-0.1c-2.1-0.2-4.1-0.2-6.2,0c0,0-0.1,0-0.1,0.1c0,0,0,0,0,0
					c-0.7,0-1.3,0.5-1.4,1.3l-0.5,5.9H5.3l-0.5-5.9C4.8,41.9,4.2,41.4,3.4,41.4C3.5,41.4,3.4,41.4,3.4,41.4z"/>
			</g>
			<g>
				<path class="st1" d="M14.2,40.3c1.3,0,2.3-1.3,2.3-2.9c0-1.6-1-2.9-2.3-2.9c-1.3,0-2.3,1.3-2.3,2.9C11.9,39,13,40.3,14.2,40.3z"
					/>
				<path class="st1" d="M17.5,41.1c0,0-0.1-0.1-0.2-0.1c-2.1-0.2-4.1-0.2-6.2,0c0,0-0.1,0-0.1,0.1c0,0,0,0,0,0
					c-0.7,0-1.3,0.5-1.4,1.3l-0.5,5.9h10.2l-0.5-5.9C18.9,41.6,18.3,41,17.5,41.1C17.5,41.1,17.5,41.1,17.5,41.1z"/>
			</g>
			<g>
				<path class="st1" d="M28.3,40.6c1.3,0,2.3-1.3,2.3-2.9c0-1.6-1-2.9-2.3-2.9c-1.3,0-2.3,1.3-2.3,2.9C26,39.4,27,40.6,28.3,40.6z"
					/>
				<path class="st1" d="M31.5,41.4c0,0-0.1-0.1-0.2-0.1c-2.1-0.2-4.1-0.2-6.2,0c0,0-0.1,0-0.1,0.1c0,0,0,0,0,0
					c-0.7,0-1.3,0.5-1.4,1.3l-0.5,5.9h10.2L33,42.7C32.9,41.9,32.3,41.4,31.5,41.4C31.6,41.4,31.6,41.4,31.5,41.4z"/>
			</g>
			<g>
				<path class="st1" d="M42.4,40.3c1.3,0,2.3-1.3,2.3-2.9c0-1.6-1-2.9-2.3-2.9c-1.3,0-2.3,1.3-2.3,2.9C40,39,41.1,40.3,42.4,40.3z"
					/>
				<path class="st1" d="M45.6,41.1c0,0-0.1-0.1-0.2-0.1c-2.1-0.2-4.1-0.2-6.2,0c0,0-0.1,0-0.1,0.1c0,0,0,0,0,0
					c-0.7,0-1.3,0.5-1.4,1.3l-0.5,5.9h10.2l-0.5-5.9C47,41.6,46.4,41,45.6,41.1C45.6,41.1,45.6,41.1,45.6,41.1z"/>
			</g>
			<g>
				<path class="st1" d="M56.4,40.6c1.3,0,2.3-1.3,2.3-2.9c0-1.6-1-2.9-2.3-2.9c-1.3,0-2.3,1.3-2.3,2.9
					C54.1,39.4,55.1,40.6,56.4,40.6z"/>
				<path class="st1" d="M59.7,41.4c0,0-0.1-0.1-0.2-0.1c-2.1-0.2-4.1-0.2-6.2,0c0,0-0.1,0-0.1,0.1c0,0,0,0,0,0
					c-0.7,0-1.3,0.5-1.4,1.3l-0.5,5.9h10.2l-0.5-5.9C61,41.9,60.4,41.4,59.7,41.4C59.7,41.4,59.7,41.4,59.7,41.4z"/>
			</g>
			<g>
				<path class="st1" d="M70.5,40.3c1.3,0,2.3-1.3,2.3-2.9c0-1.6-1-2.9-2.3-2.9c-1.3,0-2.3,1.3-2.3,2.9C68.2,39,69.2,40.3,70.5,40.3
					z"/>
				<path class="st1" d="M73.7,41.1c0,0-0.1-0.1-0.2-0.1c-2.1-0.2-4.1-0.2-6.2,0c0,0-0.1,0-0.1,0.1c0,0,0,0,0,0
					c-0.7,0-1.3,0.5-1.4,1.3l-0.5,5.9h10.2l-0.5-5.9C75.1,41.6,74.5,41,73.7,41.1C73.8,41.1,73.7,41.1,73.7,41.1z"/>
			</g>
			<g>
				<path class="st1" d="M84.5,40.6c1.3,0,2.3-1.3,2.3-2.9c0-1.6-1-2.9-2.3-2.9c-1.3,0-2.3,1.3-2.3,2.9
					C82.2,39.4,83.3,40.6,84.5,40.6z"/>
				<path class="st1" d="M87.8,41.4c0,0-0.1-0.1-0.2-0.1c-2.1-0.2-4.1-0.2-6.2,0c0,0-0.1,0-0.1,0.1c0,0,0,0,0,0
					c-0.7,0-1.3,0.5-1.4,1.3l-0.5,5.9h10.2l-0.5-5.9C89.2,41.9,88.6,41.4,87.8,41.4C87.8,41.4,87.8,41.4,87.8,41.4z"/>
			</g>
			<g>
				<path class="st1" d="M98.6,40.3c1.3,0,2.3-1.3,2.3-2.9c0-1.6-1-2.9-2.3-2.9c-1.3,0-2.3,1.3-2.3,2.9C96.3,39,97.3,40.3,98.6,40.3
					z"/>
				<path class="st1" d="M101.8,41.1c0,0-0.1-0.1-0.2-0.1c-2.1-0.2-4.1-0.2-6.2,0c0,0-0.1,0-0.1,0.1c0,0,0,0,0,0
					c-0.7,0-1.3,0.5-1.4,1.3l-0.5,5.9h10.2l-0.5-5.9C103.2,41.6,102.6,41,101.8,41.1C101.9,41.1,101.9,41.1,101.8,41.1z"/>
			</g>
			<g>
				<path class="st1" d="M112.7,40.6c1.3,0,2.3-1.3,2.3-2.9c0-1.6-1-2.9-2.3-2.9c-1.3,0-2.3,1.3-2.3,2.9
					C110.3,39.4,111.4,40.6,112.7,40.6z"/>
				<path class="st1" d="M115.9,41.4c0,0-0.1-0.1-0.2-0.1c-2.1-0.2-4.1-0.2-6.2,0c0,0-0.1,0-0.1,0.1c0,0,0,0,0,0
					c-0.7,0-1.3,0.5-1.4,1.3l-0.5,5.9h10.2l-0.5-5.9C117.3,41.9,116.7,41.4,115.9,41.4C115.9,41.4,115.9,41.4,115.9,41.4z"/>
			</g>
			<g>
				<path class="st1" d="M126.7,40.3c1.3,0,2.3-1.3,2.3-2.9c0-1.6-1-2.9-2.3-2.9c-1.3,0-2.3,1.3-2.3,2.9
					C124.4,39,125.4,40.3,126.7,40.3z"/>
				<path class="st1" d="M130,41.1c0,0-0.1-0.1-0.2-0.1c-2.1-0.2-4.1-0.2-6.2,0c0,0-0.1,0-0.1,0.1c0,0,0,0,0,0
					c-0.7,0-1.3,0.5-1.4,1.3l-0.5,5.9h10.2l-0.5-5.9C131.3,41.6,130.7,41,130,41.1C130,41.1,130,41.1,130,41.1z"/>
			</g>
			<g>
				<path class="st1" d="M140.8,40.6c1.3,0,2.3-1.3,2.3-2.9c0-1.6-1-2.9-2.3-2.9c-1.3,0-2.3,1.3-2.3,2.9
					C138.5,39.4,139.5,40.6,140.8,40.6z"/>
				<path class="st1" d="M144,41.4c0,0-0.1-0.1-0.2-0.1c-2.1-0.2-4.1-0.2-6.2,0c0,0-0.1,0-0.1,0.1c0,0,0,0,0,0
					c-0.7,0-1.3,0.5-1.4,1.3l-0.5,5.9h10.2l-0.5-5.9C145.4,41.9,144.8,41.4,144,41.4C144.1,41.4,144,41.4,144,41.4z"/>
			</g>
			<g>
				<path class="st1" d="M154.8,40.3c1.3,0,2.3-1.3,2.3-2.9c0-1.6-1-2.9-2.3-2.9c-1.3,0-2.3,1.3-2.3,2.9
					C152.5,39,153.6,40.3,154.8,40.3z"/>
				<path class="st1" d="M158.1,41.1c0,0-0.1-0.1-0.2-0.1c-2.1-0.2-4.1-0.2-6.2,0c0,0-0.1,0-0.1,0.1c0,0,0,0,0,0
					c-0.7,0-1.3,0.5-1.4,1.3l-0.5,5.9H160l-0.5-5.9C159.5,41.6,158.9,41,158.1,41.1C158.1,41.1,158.1,41.1,158.1,41.1z"/>
			</g>
		</g>
		<g>
			<g>
				<path class="st1" d="M-63.1,57.3c1.3,0,2.3-1.3,2.3-2.9c0-1.6-1-2.9-2.3-2.9c-1.3,0-2.3,1.3-2.3,2.9
					C-65.4,56.1-64.4,57.3-63.1,57.3z"/>
				<path class="st1" d="M-59.9,58.1c0,0-0.1-0.1-0.2-0.1c-2.1-0.2-4.1-0.2-6.2,0c0,0-0.1,0-0.1,0.1c0,0,0,0,0,0
					c-0.7,0-1.3,0.5-1.4,1.3l-0.5,5.9h10.2l-0.5-5.9C-58.5,58.6-59.1,58.1-59.9,58.1C-59.8,58.1-59.8,58.1-59.9,58.1z"/>
			</g>
			<g>
				<path class="st1" d="M-49,57c1.3,0,2.3-1.3,2.3-2.9c0-1.6-1-2.9-2.3-2.9c-1.3,0-2.3,1.3-2.3,2.9C-51.3,55.7-50.3,57-49,57z"/>
				<path class="st1" d="M-45.8,57.8c0,0-0.1-0.1-0.2-0.1c-2.1-0.2-4.1-0.2-6.2,0c0,0-0.1,0-0.1,0.1c0,0,0,0,0,0
					c-0.7,0-1.3,0.5-1.4,1.3l-0.5,5.9h10.2l-0.5-5.9C-44.4,58.3-45,57.7-45.8,57.8C-45.7,57.8-45.8,57.8-45.8,57.8z"/>
			</g>
			<g>
				<path class="st1" d="M-35,57.3c1.3,0,2.3-1.3,2.3-2.9c0-1.6-1-2.9-2.3-2.9c-1.3,0-2.3,1.3-2.3,2.9C-37.3,56.1-36.2,57.3-35,57.3
					z"/>
				<path class="st1" d="M-31.7,58.1c0,0-0.1-0.1-0.2-0.1c-2.1-0.2-4.1-0.2-6.2,0c0,0-0.1,0-0.1,0.1c0,0,0,0,0,0
					c-0.7,0-1.3,0.5-1.4,1.3l-0.5,5.9h10.2l-0.5-5.9C-30.3,58.6-31,58.1-31.7,58.1C-31.7,58.1-31.7,58.1-31.7,58.1z"/>
			</g>
			<g>
				<path class="st1" d="M-20.9,57c1.3,0,2.3-1.3,2.3-2.9c0-1.6-1-2.9-2.3-2.9c-1.3,0-2.3,1.3-2.3,2.9C-23.2,55.7-22.2,57-20.9,57z"
					/>
				<path class="st1" d="M-17.7,57.8c0,0-0.1-0.1-0.2-0.1c-2.1-0.2-4.1-0.2-6.2,0c0,0-0.1,0-0.1,0.1c0,0,0,0,0,0
					c-0.7,0-1.3,0.5-1.4,1.3l-0.5,5.9h10.2l-0.5-5.9C-16.3,58.3-16.9,57.7-17.7,57.8C-17.6,57.8-17.6,57.8-17.7,57.8z"/>
			</g>
			<g>
				<path class="st1" d="M-6.8,57.3c1.3,0,2.3-1.3,2.3-2.9c0-1.6-1-2.9-2.3-2.9c-1.3,0-2.3,1.3-2.3,2.9C-9.2,56.1-8.1,57.3-6.8,57.3
					z"/>
				<path class="st1" d="M-3.6,58.1c0,0-0.1-0.1-0.2-0.1c-2.1-0.2-4.1-0.2-6.2,0c0,0-0.1,0-0.1,0.1c0,0,0,0,0,0
					c-0.7,0-1.3,0.5-1.4,1.3l-0.5,5.9h10.2l-0.5-5.9C-2.2,58.6-2.8,58.1-3.6,58.1C-3.6,58.1-3.6,58.1-3.6,58.1z"/>
			</g>
			<g>
				<path class="st1" d="M7.2,57c1.3,0,2.3-1.3,2.3-2.9c0-1.6-1-2.9-2.3-2.9c-1.3,0-2.3,1.3-2.3,2.9C4.9,55.7,5.9,57,7.2,57z"/>
				<path class="st1" d="M10.4,57.8c0,0-0.1-0.1-0.2-0.1c-2.1-0.2-4.1-0.2-6.2,0c0,0-0.1,0-0.1,0.1c0,0,0,0,0,0
					c-0.7,0-1.3,0.5-1.4,1.3l-0.5,5.9h10.2L11.9,59C11.8,58.3,11.2,57.7,10.4,57.8C10.5,57.8,10.5,57.8,10.4,57.8z"/>
			</g>
			<g>
				<path class="st1" d="M21.3,57.3c1.3,0,2.3-1.3,2.3-2.9c0-1.6-1-2.9-2.3-2.9c-1.3,0-2.3,1.3-2.3,2.9C19,56.1,20,57.3,21.3,57.3z"
					/>
				<path class="st1" d="M24.5,58.1c0,0-0.1-0.1-0.2-0.1c-2.1-0.2-4.1-0.2-6.2,0c0,0-0.1,0-0.1,0.1c0,0,0,0,0,0
					c-0.7,0-1.3,0.5-1.4,1.3l-0.5,5.9h10.2L26,59.4C25.9,58.6,25.3,58.1,24.5,58.1C24.6,58.1,24.5,58.1,24.5,58.1z"/>
			</g>
			<g>
				<path class="st1" d="M35.3,57c1.3,0,2.3-1.3,2.3-2.9c0-1.6-1-2.9-2.3-2.9c-1.3,0-2.3,1.3-2.3,2.9C33,55.7,34.1,57,35.3,57z"/>
				<path class="st1" d="M38.6,57.8c0,0-0.1-0.1-0.2-0.1c-2.1-0.2-4.1-0.2-6.2,0c0,0-0.1,0-0.1,0.1c0,0,0,0,0,0
					c-0.7,0-1.3,0.5-1.4,1.3l-0.5,5.9h10.2L40,59C40,58.3,39.3,57.7,38.6,57.8C38.6,57.8,38.6,57.8,38.6,57.8z"/>
			</g>
			<g>
				<path class="st1" d="M49.4,57.3c1.3,0,2.3-1.3,2.3-2.9c0-1.6-1-2.9-2.3-2.9c-1.3,0-2.3,1.3-2.3,2.9
					C47.1,56.1,48.1,57.3,49.4,57.3z"/>
				<path class="st1" d="M52.6,58.1c0,0-0.1-0.1-0.2-0.1c-2.1-0.2-4.1-0.2-6.2,0c0,0-0.1,0-0.1,0.1c0,0,0,0,0,0
					c-0.7,0-1.3,0.5-1.4,1.3l-0.5,5.9h10.2l-0.5-5.9C54,58.6,53.4,58.1,52.6,58.1C52.7,58.1,52.7,58.1,52.6,58.1z"/>
			</g>
			<g>
				<path class="st1" d="M63.5,57c1.3,0,2.3-1.3,2.3-2.9c0-1.6-1-2.9-2.3-2.9c-1.3,0-2.3,1.3-2.3,2.9C61.1,55.7,62.2,57,63.5,57z"/>
				<path class="st1" d="M66.7,57.8c0,0-0.1-0.1-0.2-0.1c-2.1-0.2-4.1-0.2-6.2,0c0,0-0.1,0-0.1,0.1c0,0,0,0,0,0
					c-0.7,0-1.3,0.5-1.4,1.3l-0.5,5.9h10.2L68.1,59C68.1,58.3,67.5,57.7,66.7,57.8C66.7,57.8,66.7,57.8,66.7,57.8z"/>
			</g>
			<g>
				<path class="st1" d="M77.5,57.3c1.3,0,2.3-1.3,2.3-2.9c0-1.6-1-2.9-2.3-2.9c-1.3,0-2.3,1.3-2.3,2.9
					C75.2,56.1,76.2,57.3,77.5,57.3z"/>
				<path class="st1" d="M80.7,58.1c0,0-0.1-0.1-0.2-0.1c-2.1-0.2-4.1-0.2-6.2,0c0,0-0.1,0-0.1,0.1c0,0,0,0,0,0
					c-0.7,0-1.3,0.5-1.4,1.3l-0.5,5.9h10.2l-0.5-5.9C82.1,58.6,81.5,58.1,80.7,58.1C80.8,58.1,80.8,58.1,80.7,58.1z"/>
			</g>
			<g>
				<path class="st1" d="M91.6,57c1.3,0,2.3-1.3,2.3-2.9c0-1.6-1-2.9-2.3-2.9c-1.3,0-2.3,1.3-2.3,2.9C89.3,55.7,90.3,57,91.6,57z"/>
				<path class="st1" d="M94.8,57.8c0,0-0.1-0.1-0.2-0.1c-2.1-0.2-4.1-0.2-6.2,0c0,0-0.1,0-0.1,0.1c0,0,0,0,0,0
					c-0.7,0-1.3,0.5-1.4,1.3l-0.5,5.9h10.2L96.3,59C96.2,58.3,95.6,57.7,94.8,57.8C94.9,57.8,94.8,57.8,94.8,57.8z"/>
			</g>
			<g>
				<path class="st1" d="M105.6,57.3c1.3,0,2.3-1.3,2.3-2.9c0-1.6-1-2.9-2.3-2.9c-1.3,0-2.3,1.3-2.3,2.9
					C103.3,56.1,104.4,57.3,105.6,57.3z"/>
				<path class="st1" d="M108.9,58.1c0,0-0.1-0.1-0.2-0.1c-2.1-0.2-4.1-0.2-6.2,0c0,0-0.1,0-0.1,0.1c0,0,0,0,0,0
					c-0.7,0-1.3,0.5-1.4,1.3l-0.5,5.9h10.2l-0.5-5.9C110.3,58.6,109.6,58.1,108.9,58.1C108.9,58.1,108.9,58.1,108.9,58.1z"/>
			</g>
			<g>
				<path class="st1" d="M119.7,57c1.3,0,2.3-1.3,2.3-2.9c0-1.6-1-2.9-2.3-2.9c-1.3,0-2.3,1.3-2.3,2.9C117.4,55.7,118.4,57,119.7,57
					z"/>
				<path class="st1" d="M122.9,57.8c0,0-0.1-0.1-0.2-0.1c-2.1-0.2-4.1-0.2-6.2,0c0,0-0.1,0-0.1,0.1c0,0,0,0,0,0
					c-0.7,0-1.3,0.5-1.4,1.3l-0.5,5.9h10.2l-0.5-5.9C124.3,58.3,123.7,57.7,122.9,57.8C123,57.8,123,57.8,122.9,57.8z"/>
			</g>
			<g>
				<path class="st1" d="M133.8,57.3c1.3,0,2.3-1.3,2.3-2.9c0-1.6-1-2.9-2.3-2.9c-1.3,0-2.3,1.3-2.3,2.9
					C131.4,56.1,132.5,57.3,133.8,57.3z"/>
				<path class="st1" d="M137,58.1c0,0-0.1-0.1-0.2-0.1c-2.1-0.2-4.1-0.2-6.2,0c0,0-0.1,0-0.1,0.1c0,0,0,0,0,0
					c-0.7,0-1.3,0.5-1.4,1.3l-0.5,5.9h10.2l-0.5-5.9C138.4,58.6,137.8,58.1,137,58.1C137,58.1,137,58.1,137,58.1z"/>
			</g>
			<g>
				<path class="st1" d="M147.8,57c1.3,0,2.3-1.3,2.3-2.9c0-1.6-1-2.9-2.3-2.9c-1.3,0-2.3,1.3-2.3,2.9C145.5,55.7,146.5,57,147.8,57
					z"/>
				<path class="st1" d="M151.1,57.8c0,0-0.1-0.1-0.2-0.1c-2.1-0.2-4.1-0.2-6.2,0c0,0-0.1,0-0.1,0.1c0,0,0,0,0,0
					c-0.7,0-1.3,0.5-1.4,1.3l-0.5,5.9H153l-0.5-5.9C152.4,58.3,151.8,57.7,151.1,57.8C151.1,57.8,151.1,57.8,151.1,57.8z"/>
			</g>
		</g>
		<g>
			<g>
				<path class="st1" d="M-56.1,74c1.3,0,2.3-1.3,2.3-2.9c0-1.6-1-2.9-2.3-2.9c-1.3,0-2.3,1.3-2.3,2.9C-58.4,72.8-57.3,74-56.1,74z"
					/>
				<path class="st1" d="M-52.8,74.8c0,0-0.1-0.1-0.2-0.1c-2.1-0.2-4.1-0.2-6.2,0c0,0-0.1,0-0.1,0.1c0,0,0,0,0,0
					c-0.7,0-1.3,0.5-1.4,1.3l-0.5,5.9h10.2l-0.5-5.9C-51.4,75.3-52,74.8-52.8,74.8C-52.8,74.8-52.8,74.8-52.8,74.8z"/>
			</g>
			<g>
				<path class="st1" d="M-42,73.7c1.3,0,2.3-1.3,2.3-2.9c0-1.6-1-2.9-2.3-2.9c-1.3,0-2.3,1.3-2.3,2.9C-44.3,72.4-43.3,73.7-42,73.7
					z"/>
				<path class="st1" d="M-38.8,74.5c0,0-0.1-0.1-0.2-0.1c-2.1-0.2-4.1-0.2-6.2,0c0,0-0.1,0-0.1,0.1c0,0,0,0,0,0
					c-0.7,0-1.3,0.5-1.4,1.3l-0.5,5.9h10.2l-0.5-5.9C-37.4,75-38,74.4-38.8,74.5C-38.7,74.5-38.7,74.5-38.8,74.5z"/>
			</g>
			<g>
				<path class="st1" d="M-27.9,74c1.3,0,2.3-1.3,2.3-2.9c0-1.6-1-2.9-2.3-2.9c-1.3,0-2.3,1.3-2.3,2.9C-30.3,72.8-29.2,74-27.9,74z"
					/>
				<path class="st1" d="M-24.7,74.8c0,0-0.1-0.1-0.2-0.1c-2.1-0.2-4.1-0.2-6.2,0c0,0-0.1,0-0.1,0.1c0,0,0,0,0,0
					c-0.7,0-1.3,0.5-1.4,1.3L-33,82h10.2l-0.5-5.9C-23.3,75.3-23.9,74.8-24.7,74.8C-24.7,74.8-24.7,74.8-24.7,74.8z"/>
			</g>
			<g>
				<path class="st1" d="M-13.9,73.7c1.3,0,2.3-1.3,2.3-2.9c0-1.6-1-2.9-2.3-2.9c-1.3,0-2.3,1.3-2.3,2.9
					C-16.2,72.4-15.2,73.7-13.9,73.7z"/>
				<path class="st1" d="M-10.6,74.5c0,0-0.1-0.1-0.2-0.1c-2.1-0.2-4.1-0.2-6.2,0c0,0-0.1,0-0.1,0.1c0,0,0,0,0,0
					c-0.7,0-1.3,0.5-1.4,1.3l-0.5,5.9h10.2l-0.5-5.9C-9.3,75-9.9,74.4-10.6,74.5C-10.6,74.5-10.6,74.5-10.6,74.5z"/>
			</g>
			<g>
				<path class="st1" d="M0.2,74c1.3,0,2.3-1.3,2.3-2.9c0-1.6-1-2.9-2.3-2.9c-1.3,0-2.3,1.3-2.3,2.9C-2.1,72.8-1.1,74,0.2,74z"/>
				<path class="st1" d="M3.4,74.8c0,0-0.1-0.1-0.2-0.1c-2.1-0.2-4.1-0.2-6.2,0c0,0-0.1,0-0.1,0.1c0,0,0,0,0,0
					c-0.7,0-1.3,0.5-1.4,1.3L-4.9,82H5.3l-0.5-5.9C4.8,75.3,4.2,74.8,3.4,74.8C3.5,74.8,3.4,74.8,3.4,74.8z"/>
			</g>
			<g>
				<path class="st1" d="M14.2,73.7c1.3,0,2.3-1.3,2.3-2.9c0-1.6-1-2.9-2.3-2.9c-1.3,0-2.3,1.3-2.3,2.9C11.9,72.4,13,73.7,14.2,73.7
					z"/>
				<path class="st1" d="M17.5,74.5c0,0-0.1-0.1-0.2-0.1c-2.1-0.2-4.1-0.2-6.2,0c0,0-0.1,0-0.1,0.1c0,0,0,0,0,0
					c-0.7,0-1.3,0.5-1.4,1.3l-0.5,5.9h10.2l-0.5-5.9C18.9,75,18.3,74.4,17.5,74.5C17.5,74.5,17.5,74.5,17.5,74.5z"/>
			</g>
			<g>
				<path class="st1" d="M28.3,74c1.3,0,2.3-1.3,2.3-2.9c0-1.6-1-2.9-2.3-2.9c-1.3,0-2.3,1.3-2.3,2.9C26,72.8,27,74,28.3,74z"/>
				<path class="st1" d="M31.5,74.8c0,0-0.1-0.1-0.2-0.1c-2.1-0.2-4.1-0.2-6.2,0c0,0-0.1,0-0.1,0.1c0,0,0,0,0,0
					c-0.7,0-1.3,0.5-1.4,1.3L23.2,82h10.2L33,76.1C32.9,75.3,32.3,74.8,31.5,74.8C31.6,74.8,31.6,74.8,31.5,74.8z"/>
			</g>
			<g>
				<path class="st1" d="M42.4,73.7c1.3,0,2.3-1.3,2.3-2.9c0-1.6-1-2.9-2.3-2.9c-1.3,0-2.3,1.3-2.3,2.9C40,72.4,41.1,73.7,42.4,73.7
					z"/>
				<path class="st1" d="M45.6,74.5c0,0-0.1-0.1-0.2-0.1c-2.1-0.2-4.1-0.2-6.2,0c0,0-0.1,0-0.1,0.1c0,0,0,0,0,0
					c-0.7,0-1.3,0.5-1.4,1.3l-0.5,5.9h10.2l-0.5-5.9C47,75,46.4,74.4,45.6,74.5C45.6,74.5,45.6,74.5,45.6,74.5z"/>
			</g>
			<g>
				<path class="st1" d="M56.4,74c1.3,0,2.3-1.3,2.3-2.9c0-1.6-1-2.9-2.3-2.9c-1.3,0-2.3,1.3-2.3,2.9C54.1,72.8,55.1,74,56.4,74z"/>
				<path class="st1" d="M59.7,74.8c0,0-0.1-0.1-0.2-0.1c-2.1-0.2-4.1-0.2-6.2,0c0,0-0.1,0-0.1,0.1c0,0,0,0,0,0
					c-0.7,0-1.3,0.5-1.4,1.3L51.3,82h10.2l-0.5-5.9C61,75.3,60.4,74.8,59.7,74.8C59.7,74.8,59.7,74.8,59.7,74.8z"/>
			</g>
			<g>
				<path class="st1" d="M70.5,73.7c1.3,0,2.3-1.3,2.3-2.9c0-1.6-1-2.9-2.3-2.9c-1.3,0-2.3,1.3-2.3,2.9
					C68.2,72.4,69.2,73.7,70.5,73.7z"/>
				<path class="st1" d="M73.7,74.5c0,0-0.1-0.1-0.2-0.1c-2.1-0.2-4.1-0.2-6.2,0c0,0-0.1,0-0.1,0.1c0,0,0,0,0,0
					c-0.7,0-1.3,0.5-1.4,1.3l-0.5,5.9h10.2l-0.5-5.9C75.1,75,74.5,74.4,73.7,74.5C73.8,74.5,73.7,74.5,73.7,74.5z"/>
			</g>
			<g>
				<path class="st1" d="M84.5,74c1.3,0,2.3-1.3,2.3-2.9c0-1.6-1-2.9-2.3-2.9c-1.3,0-2.3,1.3-2.3,2.9C82.2,72.8,83.3,74,84.5,74z"/>
				<path class="st1" d="M87.8,74.8c0,0-0.1-0.1-0.2-0.1c-2.1-0.2-4.1-0.2-6.2,0c0,0-0.1,0-0.1,0.1c0,0,0,0,0,0
					c-0.7,0-1.3,0.5-1.4,1.3L79.5,82h10.2l-0.5-5.9C89.2,75.3,88.6,74.8,87.8,74.8C87.8,74.8,87.8,74.8,87.8,74.8z"/>
			</g>
			<g>
				<path class="st1" d="M98.6,73.7c1.3,0,2.3-1.3,2.3-2.9c0-1.6-1-2.9-2.3-2.9c-1.3,0-2.3,1.3-2.3,2.9
					C96.3,72.4,97.3,73.7,98.6,73.7z"/>
				<path class="st1" d="M101.8,74.5c0,0-0.1-0.1-0.2-0.1c-2.1-0.2-4.1-0.2-6.2,0c0,0-0.1,0-0.1,0.1c0,0,0,0,0,0
					c-0.7,0-1.3,0.5-1.4,1.3l-0.5,5.9h10.2l-0.5-5.9C103.2,75,102.6,74.4,101.8,74.5C101.9,74.5,101.9,74.5,101.8,74.5z"/>
			</g>
			<g>
				<path class="st1" d="M112.7,74c1.3,0,2.3-1.3,2.3-2.9c0-1.6-1-2.9-2.3-2.9c-1.3,0-2.3,1.3-2.3,2.9C110.3,72.8,111.4,74,112.7,74
					z"/>
				<path class="st1" d="M115.9,74.8c0,0-0.1-0.1-0.2-0.1c-2.1-0.2-4.1-0.2-6.2,0c0,0-0.1,0-0.1,0.1c0,0,0,0,0,0
					c-0.7,0-1.3,0.5-1.4,1.3l-0.5,5.9h10.2l-0.5-5.9C117.3,75.3,116.7,74.8,115.9,74.8C115.9,74.8,115.9,74.8,115.9,74.8z"/>
			</g>
			<g>
				<path class="st1" d="M126.7,73.7c1.3,0,2.3-1.3,2.3-2.9c0-1.6-1-2.9-2.3-2.9c-1.3,0-2.3,1.3-2.3,2.9
					C124.4,72.4,125.4,73.7,126.7,73.7z"/>
				<path class="st1" d="M130,74.5c0,0-0.1-0.1-0.2-0.1c-2.1-0.2-4.1-0.2-6.2,0c0,0-0.1,0-0.1,0.1c0,0,0,0,0,0
					c-0.7,0-1.3,0.5-1.4,1.3l-0.5,5.9h10.2l-0.5-5.9C131.3,75,130.7,74.4,130,74.5C130,74.5,130,74.5,130,74.5z"/>
			</g>
			<g>
				<path class="st1" d="M140.8,74c1.3,0,2.3-1.3,2.3-2.9c0-1.6-1-2.9-2.3-2.9c-1.3,0-2.3,1.3-2.3,2.9C138.5,72.8,139.5,74,140.8,74
					z"/>
				<path class="st1" d="M144,74.8c0,0-0.1-0.1-0.2-0.1c-2.1-0.2-4.1-0.2-6.2,0c0,0-0.1,0-0.1,0.1c0,0,0,0,0,0
					c-0.7,0-1.3,0.5-1.4,1.3l-0.5,5.9h10.2l-0.5-5.9C145.4,75.3,144.8,74.8,144,74.8C144.1,74.8,144,74.8,144,74.8z"/>
			</g>
			<g>
				<path class="st1" d="M154.8,73.7c1.3,0,2.3-1.3,2.3-2.9c0-1.6-1-2.9-2.3-2.9c-1.3,0-2.3,1.3-2.3,2.9
					C152.5,72.4,153.6,73.7,154.8,73.7z"/>
				<path class="st1" d="M158.1,74.5c0,0-0.1-0.1-0.2-0.1c-2.1-0.2-4.1-0.2-6.2,0c0,0-0.1,0-0.1,0.1c0,0,0,0,0,0
					c-0.7,0-1.3,0.5-1.4,1.3l-0.5,5.9H160l-0.5-5.9C159.5,75,158.9,74.4,158.1,74.5C158.1,74.5,158.1,74.5,158.1,74.5z"/>
			</g>
		</g>
		<g>
			<g>
				<path class="st1" d="M-63.1,90.7c1.3,0,2.3-1.3,2.3-2.9c0-1.6-1-2.9-2.3-2.9c-1.3,0-2.3,1.3-2.3,2.9
					C-65.4,89.4-64.4,90.7-63.1,90.7z"/>
				<path class="st1" d="M-59.9,91.5c0,0-0.1-0.1-0.2-0.1c-2.1-0.2-4.1-0.2-6.2,0c0,0-0.1,0-0.1,0.1c0,0,0,0,0,0
					c-0.7,0-1.3,0.5-1.4,1.3l-0.5,5.9h10.2l-0.5-5.9C-58.5,92-59.1,91.4-59.9,91.5C-59.8,91.5-59.8,91.5-59.9,91.5z"/>
			</g>
			<g>
				<path class="st1" d="M-49,90.4c1.3,0,2.3-1.3,2.3-2.9c0-1.6-1-2.9-2.3-2.9c-1.3,0-2.3,1.3-2.3,2.9C-51.3,89.1-50.3,90.4-49,90.4
					z"/>
				<path class="st1" d="M-45.8,91.2c0,0-0.1-0.1-0.2-0.1c-2.1-0.2-4.1-0.2-6.2,0c0,0-0.1,0-0.1,0.1c0,0,0,0,0,0
					c-0.7,0-1.3,0.5-1.4,1.3l-0.5,5.9h10.2l-0.5-5.9C-44.4,91.7-45,91.1-45.8,91.2C-45.7,91.2-45.8,91.2-45.8,91.2z"/>
			</g>
			<g>
				<path class="st1" d="M-35,90.7c1.3,0,2.3-1.3,2.3-2.9c0-1.6-1-2.9-2.3-2.9c-1.3,0-2.3,1.3-2.3,2.9C-37.3,89.4-36.2,90.7-35,90.7
					z"/>
				<path class="st1" d="M-31.7,91.5c0,0-0.1-0.1-0.2-0.1c-2.1-0.2-4.1-0.2-6.2,0c0,0-0.1,0-0.1,0.1c0,0,0,0,0,0
					c-0.7,0-1.3,0.5-1.4,1.3l-0.5,5.9h10.2l-0.5-5.9C-30.3,92-31,91.4-31.7,91.5C-31.7,91.5-31.7,91.5-31.7,91.5z"/>
			</g>
			<g>
				<path class="st1" d="M-20.9,90.4c1.3,0,2.3-1.3,2.3-2.9c0-1.6-1-2.9-2.3-2.9c-1.3,0-2.3,1.3-2.3,2.9
					C-23.2,89.1-22.2,90.4-20.9,90.4z"/>
				<path class="st1" d="M-17.7,91.2c0,0-0.1-0.1-0.2-0.1c-2.1-0.2-4.1-0.2-6.2,0c0,0-0.1,0-0.1,0.1c0,0,0,0,0,0
					c-0.7,0-1.3,0.5-1.4,1.3l-0.5,5.9h10.2l-0.5-5.9C-16.3,91.7-16.9,91.1-17.7,91.2C-17.6,91.2-17.6,91.2-17.7,91.2z"/>
			</g>
			<g>
				<path class="st1" d="M-6.8,90.7c1.3,0,2.3-1.3,2.3-2.9c0-1.6-1-2.9-2.3-2.9c-1.3,0-2.3,1.3-2.3,2.9C-9.2,89.4-8.1,90.7-6.8,90.7
					z"/>
				<path class="st1" d="M-3.6,91.5c0,0-0.1-0.1-0.2-0.1c-2.1-0.2-4.1-0.2-6.2,0c0,0-0.1,0-0.1,0.1c0,0,0,0,0,0
					c-0.7,0-1.3,0.5-1.4,1.3l-0.5,5.9h10.2l-0.5-5.9C-2.2,92-2.8,91.4-3.6,91.5C-3.6,91.5-3.6,91.5-3.6,91.5z"/>
			</g>
			<g>
				<path class="st1" d="M7.2,90.4c1.3,0,2.3-1.3,2.3-2.9c0-1.6-1-2.9-2.3-2.9c-1.3,0-2.3,1.3-2.3,2.9C4.9,89.1,5.9,90.4,7.2,90.4z"
					/>
				<path class="st1" d="M10.4,91.2c0,0-0.1-0.1-0.2-0.1c-2.1-0.2-4.1-0.2-6.2,0c0,0-0.1,0-0.1,0.1c0,0,0,0,0,0
					c-0.7,0-1.3,0.5-1.4,1.3l-0.5,5.9h10.2l-0.5-5.9C11.8,91.7,11.2,91.1,10.4,91.2C10.5,91.2,10.5,91.2,10.4,91.2z"/>
			</g>
			<g>
				<path class="st1" d="M21.3,90.7c1.3,0,2.3-1.3,2.3-2.9c0-1.6-1-2.9-2.3-2.9C20,85,19,86.3,19,87.9C19,89.4,20,90.7,21.3,90.7z"
					/>
				<path class="st1" d="M24.5,91.5c0,0-0.1-0.1-0.2-0.1c-2.1-0.2-4.1-0.2-6.2,0c0,0-0.1,0-0.1,0.1c0,0,0,0,0,0
					c-0.7,0-1.3,0.5-1.4,1.3l-0.5,5.9h10.2L26,92.8C25.9,92,25.3,91.4,24.5,91.5C24.6,91.5,24.5,91.5,24.5,91.5z"/>
			</g>
			<g>
				<path class="st1" d="M35.3,90.4c1.3,0,2.3-1.3,2.3-2.9c0-1.6-1-2.9-2.3-2.9c-1.3,0-2.3,1.3-2.3,2.9C33,89.1,34.1,90.4,35.3,90.4
					z"/>
				<path class="st1" d="M38.6,91.2c0,0-0.1-0.1-0.2-0.1c-2.1-0.2-4.1-0.2-6.2,0c0,0-0.1,0-0.1,0.1c0,0,0,0,0,0
					c-0.7,0-1.3,0.5-1.4,1.3l-0.5,5.9h10.2L40,92.4C40,91.7,39.3,91.1,38.6,91.2C38.6,91.2,38.6,91.2,38.6,91.2z"/>
			</g>
			<g>
				<path class="st1" d="M49.4,90.7c1.3,0,2.3-1.3,2.3-2.9c0-1.6-1-2.9-2.3-2.9c-1.3,0-2.3,1.3-2.3,2.9
					C47.1,89.4,48.1,90.7,49.4,90.7z"/>
				<path class="st1" d="M52.6,91.5c0,0-0.1-0.1-0.2-0.1c-2.1-0.2-4.1-0.2-6.2,0c0,0-0.1,0-0.1,0.1c0,0,0,0,0,0
					c-0.7,0-1.3,0.5-1.4,1.3l-0.5,5.9h10.2l-0.5-5.9C54,92,53.4,91.4,52.6,91.5C52.7,91.5,52.7,91.5,52.6,91.5z"/>
			</g>
			<g>
				<path class="st1" d="M63.5,90.4c1.3,0,2.3-1.3,2.3-2.9c0-1.6-1-2.9-2.3-2.9c-1.3,0-2.3,1.3-2.3,2.9
					C61.1,89.1,62.2,90.4,63.5,90.4z"/>
				<path class="st1" d="M66.7,91.2c0,0-0.1-0.1-0.2-0.1c-2.1-0.2-4.1-0.2-6.2,0c0,0-0.1,0-0.1,0.1c0,0,0,0,0,0
					c-0.7,0-1.3,0.5-1.4,1.3l-0.5,5.9h10.2l-0.5-5.9C68.1,91.7,67.5,91.1,66.7,91.2C66.7,91.2,66.7,91.2,66.7,91.2z"/>
			</g>
			<g>
				<path class="st1" d="M77.5,90.7c1.3,0,2.3-1.3,2.3-2.9c0-1.6-1-2.9-2.3-2.9c-1.3,0-2.3,1.3-2.3,2.9
					C75.2,89.4,76.2,90.7,77.5,90.7z"/>
				<path class="st1" d="M80.7,91.5c0,0-0.1-0.1-0.2-0.1c-2.1-0.2-4.1-0.2-6.2,0c0,0-0.1,0-0.1,0.1c0,0,0,0,0,0
					c-0.7,0-1.3,0.5-1.4,1.3l-0.5,5.9h10.2l-0.5-5.9C82.1,92,81.5,91.4,80.7,91.5C80.8,91.5,80.8,91.5,80.7,91.5z"/>
			</g>
			<g>
				<path class="st1" d="M91.6,90.4c1.3,0,2.3-1.3,2.3-2.9c0-1.6-1-2.9-2.3-2.9c-1.3,0-2.3,1.3-2.3,2.9
					C89.3,89.1,90.3,90.4,91.6,90.4z"/>
				<path class="st1" d="M94.8,91.2c0,0-0.1-0.1-0.2-0.1c-2.1-0.2-4.1-0.2-6.2,0c0,0-0.1,0-0.1,0.1c0,0,0,0,0,0
					c-0.7,0-1.3,0.5-1.4,1.3l-0.5,5.9h10.2l-0.5-5.9C96.2,91.7,95.6,91.1,94.8,91.2C94.9,91.2,94.8,91.2,94.8,91.2z"/>
			</g>
			<g>
				<path class="st1" d="M105.6,90.7c1.3,0,2.3-1.3,2.3-2.9c0-1.6-1-2.9-2.3-2.9c-1.3,0-2.3,1.3-2.3,2.9
					C103.3,89.4,104.4,90.7,105.6,90.7z"/>
				<path class="st1" d="M108.9,91.5c0,0-0.1-0.1-0.2-0.1c-2.1-0.2-4.1-0.2-6.2,0c0,0-0.1,0-0.1,0.1c0,0,0,0,0,0
					c-0.7,0-1.3,0.5-1.4,1.3l-0.5,5.9h10.2l-0.5-5.9C110.3,92,109.6,91.4,108.9,91.5C108.9,91.5,108.9,91.5,108.9,91.5z"/>
			</g>
			<g>
				<path class="st1" d="M119.7,90.4c1.3,0,2.3-1.3,2.3-2.9c0-1.6-1-2.9-2.3-2.9c-1.3,0-2.3,1.3-2.3,2.9
					C117.4,89.1,118.4,90.4,119.7,90.4z"/>
				<path class="st1" d="M122.9,91.2c0,0-0.1-0.1-0.2-0.1c-2.1-0.2-4.1-0.2-6.2,0c0,0-0.1,0-0.1,0.1c0,0,0,0,0,0
					c-0.7,0-1.3,0.5-1.4,1.3l-0.5,5.9h10.2l-0.5-5.9C124.3,91.7,123.7,91.1,122.9,91.2C123,91.2,123,91.2,122.9,91.2z"/>
			</g>
			<g>
				<path class="st1" d="M133.8,90.7c1.3,0,2.3-1.3,2.3-2.9c0-1.6-1-2.9-2.3-2.9c-1.3,0-2.3,1.3-2.3,2.9
					C131.4,89.4,132.5,90.7,133.8,90.7z"/>
				<path class="st1" d="M137,91.5c0,0-0.1-0.1-0.2-0.1c-2.1-0.2-4.1-0.2-6.2,0c0,0-0.1,0-0.1,0.1c0,0,0,0,0,0
					c-0.7,0-1.3,0.5-1.4,1.3l-0.5,5.9h10.2l-0.5-5.9C138.4,92,137.8,91.4,137,91.5C137,91.5,137,91.5,137,91.5z"/>
			</g>
			<g>
				<path class="st1" d="M147.8,90.4c1.3,0,2.3-1.3,2.3-2.9c0-1.6-1-2.9-2.3-2.9c-1.3,0-2.3,1.3-2.3,2.9
					C145.5,89.1,146.5,90.4,147.8,90.4z"/>
				<path class="st1" d="M151.1,91.2c0,0-0.1-0.1-0.2-0.1c-2.1-0.2-4.1-0.2-6.2,0c0,0-0.1,0-0.1,0.1c0,0,0,0,0,0
					c-0.7,0-1.3,0.5-1.4,1.3l-0.5,5.9H153l-0.5-5.9C152.4,91.7,151.8,91.1,151.1,91.2C151.1,91.2,151.1,91.2,151.1,91.2z"/>
			</g>
		</g>
		<g>
			<g>
				<path class="st1" d="M-56.1,107.4c1.3,0,2.3-1.3,2.3-2.9c0-1.6-1-2.9-2.3-2.9c-1.3,0-2.3,1.3-2.3,2.9
					C-58.4,106.1-57.3,107.4-56.1,107.4z"/>
				<path class="st1" d="M-52.8,108.2c0,0-0.1-0.1-0.2-0.1c-2.1-0.2-4.1-0.2-6.2,0c0,0-0.1,0-0.1,0.1c0,0,0,0,0,0
					c-0.7,0-1.3,0.5-1.4,1.3l-0.5,5.9h10.2l-0.5-5.9C-51.4,108.7-52,108.1-52.8,108.2C-52.8,108.2-52.8,108.2-52.8,108.2z"/>
			</g>
			<g>
				<path class="st1" d="M-42,107.1c1.3,0,2.3-1.3,2.3-2.9c0-1.6-1-2.9-2.3-2.9c-1.3,0-2.3,1.3-2.3,2.9
					C-44.3,105.8-43.3,107.1-42,107.1z"/>
				<path class="st1" d="M-38.8,107.9c0,0-0.1-0.1-0.2-0.1c-2.1-0.2-4.1-0.2-6.2,0c0,0-0.1,0-0.1,0.1c0,0,0,0,0,0
					c-0.7,0-1.3,0.5-1.4,1.3l-0.5,5.9h10.2l-0.5-5.9C-37.4,108.4-38,107.8-38.8,107.9C-38.7,107.9-38.7,107.9-38.8,107.9z"/>
			</g>
			<g>
				<path class="st1" d="M-27.9,107.4c1.3,0,2.3-1.3,2.3-2.9c0-1.6-1-2.9-2.3-2.9c-1.3,0-2.3,1.3-2.3,2.9
					C-30.3,106.1-29.2,107.4-27.9,107.4z"/>
				<path class="st1" d="M-24.7,108.2c0,0-0.1-0.1-0.2-0.1c-2.1-0.2-4.1-0.2-6.2,0c0,0-0.1,0-0.1,0.1c0,0,0,0,0,0
					c-0.7,0-1.3,0.5-1.4,1.3l-0.5,5.9h10.2l-0.5-5.9C-23.3,108.7-23.9,108.1-24.7,108.2C-24.7,108.2-24.7,108.2-24.7,108.2z"/>
			</g>
			<g>
				<path class="st1" d="M-13.9,107.1c1.3,0,2.3-1.3,2.3-2.9c0-1.6-1-2.9-2.3-2.9c-1.3,0-2.3,1.3-2.3,2.9
					C-16.2,105.8-15.2,107.1-13.9,107.1z"/>
				<path class="st1" d="M-10.6,107.9c0,0-0.1-0.1-0.2-0.1c-2.1-0.2-4.1-0.2-6.2,0c0,0-0.1,0-0.1,0.1c0,0,0,0,0,0
					c-0.7,0-1.3,0.5-1.4,1.3L-19,115h10.2l-0.5-5.9C-9.3,108.4-9.9,107.8-10.6,107.9C-10.6,107.9-10.6,107.9-10.6,107.9z"/>
			</g>
			<g>
				<path class="st1" d="M0.2,107.4c1.3,0,2.3-1.3,2.3-2.9c0-1.6-1-2.9-2.3-2.9c-1.3,0-2.3,1.3-2.3,2.9
					C-2.1,106.1-1.1,107.4,0.2,107.4z"/>
				<path class="st1" d="M3.4,108.2c0,0-0.1-0.1-0.2-0.1c-2.1-0.2-4.1-0.2-6.2,0c0,0-0.1,0-0.1,0.1c0,0,0,0,0,0
					c-0.7,0-1.3,0.5-1.4,1.3l-0.5,5.9H5.3l-0.5-5.9C4.8,108.7,4.2,108.1,3.4,108.2C3.5,108.2,3.4,108.2,3.4,108.2z"/>
			</g>
			<g>
				<path class="st1" d="M14.2,107.1c1.3,0,2.3-1.3,2.3-2.9c0-1.6-1-2.9-2.3-2.9c-1.3,0-2.3,1.3-2.3,2.9
					C11.9,105.8,13,107.1,14.2,107.1z"/>
				<path class="st1" d="M17.5,107.9c0,0-0.1-0.1-0.2-0.1c-2.1-0.2-4.1-0.2-6.2,0c0,0-0.1,0-0.1,0.1c0,0,0,0,0,0
					c-0.7,0-1.3,0.5-1.4,1.3L9.2,115h10.2l-0.5-5.9C18.9,108.4,18.3,107.8,17.5,107.9C17.5,107.9,17.5,107.9,17.5,107.9z"/>
			</g>
			<g>
				<path class="st1" d="M28.3,107.4c1.3,0,2.3-1.3,2.3-2.9c0-1.6-1-2.9-2.3-2.9c-1.3,0-2.3,1.3-2.3,2.9
					C26,106.1,27,107.4,28.3,107.4z"/>
				<path class="st1" d="M31.5,108.2c0,0-0.1-0.1-0.2-0.1c-2.1-0.2-4.1-0.2-6.2,0c0,0-0.1,0-0.1,0.1c0,0,0,0,0,0
					c-0.7,0-1.3,0.5-1.4,1.3l-0.5,5.9h10.2l-0.5-5.9C32.9,108.7,32.3,108.1,31.5,108.2C31.6,108.2,31.6,108.2,31.5,108.2z"/>
			</g>
			<g>
				<path class="st1" d="M42.4,107.1c1.3,0,2.3-1.3,2.3-2.9c0-1.6-1-2.9-2.3-2.9c-1.3,0-2.3,1.3-2.3,2.9
					C40,105.8,41.1,107.1,42.4,107.1z"/>
				<path class="st1" d="M45.6,107.9c0,0-0.1-0.1-0.2-0.1c-2.1-0.2-4.1-0.2-6.2,0c0,0-0.1,0-0.1,0.1c0,0,0,0,0,0
					c-0.7,0-1.3,0.5-1.4,1.3l-0.5,5.9h10.2l-0.5-5.9C47,108.4,46.4,107.8,45.6,107.9C45.6,107.9,45.6,107.9,45.6,107.9z"/>
			</g>
			<g>
				<path class="st1" d="M56.4,107.4c1.3,0,2.3-1.3,2.3-2.9c0-1.6-1-2.9-2.3-2.9c-1.3,0-2.3,1.3-2.3,2.9
					C54.1,106.1,55.1,107.4,56.4,107.4z"/>
				<path class="st1" d="M59.7,108.2c0,0-0.1-0.1-0.2-0.1c-2.1-0.2-4.1-0.2-6.2,0c0,0-0.1,0-0.1,0.1c0,0,0,0,0,0
					c-0.7,0-1.3,0.5-1.4,1.3l-0.5,5.9h10.2l-0.5-5.9C61,108.7,60.4,108.1,59.7,108.2C59.7,108.2,59.7,108.2,59.7,108.2z"/>
			</g>
			<g>
				<path class="st1" d="M70.5,107.1c1.3,0,2.3-1.3,2.3-2.9c0-1.6-1-2.9-2.3-2.9c-1.3,0-2.3,1.3-2.3,2.9
					C68.2,105.8,69.2,107.1,70.5,107.1z"/>
				<path class="st1" d="M73.7,107.9c0,0-0.1-0.1-0.2-0.1c-2.1-0.2-4.1-0.2-6.2,0c0,0-0.1,0-0.1,0.1c0,0,0,0,0,0
					c-0.7,0-1.3,0.5-1.4,1.3l-0.5,5.9h10.2l-0.5-5.9C75.1,108.4,74.5,107.8,73.7,107.9C73.8,107.9,73.7,107.9,73.7,107.9z"/>
			</g>
			<g>
				<path class="st1" d="M84.5,107.4c1.3,0,2.3-1.3,2.3-2.9c0-1.6-1-2.9-2.3-2.9c-1.3,0-2.3,1.3-2.3,2.9
					C82.2,106.1,83.3,107.4,84.5,107.4z"/>
				<path class="st1" d="M87.8,108.2c0,0-0.1-0.1-0.2-0.1c-2.1-0.2-4.1-0.2-6.2,0c0,0-0.1,0-0.1,0.1c0,0,0,0,0,0
					c-0.7,0-1.3,0.5-1.4,1.3l-0.5,5.9h10.2l-0.5-5.9C89.2,108.7,88.6,108.1,87.8,108.2C87.8,108.2,87.8,108.2,87.8,108.2z"/>
			</g>
			<g>
				<path class="st1" d="M98.6,107.1c1.3,0,2.3-1.3,2.3-2.9c0-1.6-1-2.9-2.3-2.9c-1.3,0-2.3,1.3-2.3,2.9
					C96.3,105.8,97.3,107.1,98.6,107.1z"/>
				<path class="st1" d="M101.8,107.9c0,0-0.1-0.1-0.2-0.1c-2.1-0.2-4.1-0.2-6.2,0c0,0-0.1,0-0.1,0.1c0,0,0,0,0,0
					c-0.7,0-1.3,0.5-1.4,1.3l-0.5,5.9h10.2l-0.5-5.9C103.2,108.4,102.6,107.8,101.8,107.9C101.9,107.9,101.9,107.9,101.8,107.9z"/>
			</g>
			<g>
				<path class="st1" d="M112.7,107.4c1.3,0,2.3-1.3,2.3-2.9c0-1.6-1-2.9-2.3-2.9c-1.3,0-2.3,1.3-2.3,2.9
					C110.3,106.1,111.4,107.4,112.7,107.4z"/>
				<path class="st1" d="M115.9,108.2c0,0-0.1-0.1-0.2-0.1c-2.1-0.2-4.1-0.2-6.2,0c0,0-0.1,0-0.1,0.1c0,0,0,0,0,0
					c-0.7,0-1.3,0.5-1.4,1.3l-0.5,5.9h10.2l-0.5-5.9C117.3,108.7,116.7,108.1,115.9,108.2C115.9,108.2,115.9,108.2,115.9,108.2z"/>
			</g>
			<g>
				<path class="st1" d="M126.7,107.1c1.3,0,2.3-1.3,2.3-2.9c0-1.6-1-2.9-2.3-2.9c-1.3,0-2.3,1.3-2.3,2.9
					C124.4,105.8,125.4,107.1,126.7,107.1z"/>
				<path class="st1" d="M130,107.9c0,0-0.1-0.1-0.2-0.1c-2.1-0.2-4.1-0.2-6.2,0c0,0-0.1,0-0.1,0.1c0,0,0,0,0,0
					c-0.7,0-1.3,0.5-1.4,1.3l-0.5,5.9h10.2l-0.5-5.9C131.3,108.4,130.7,107.8,130,107.9C130,107.9,130,107.9,130,107.9z"/>
			</g>
			<g>
				<path class="st1" d="M140.8,107.4c1.3,0,2.3-1.3,2.3-2.9c0-1.6-1-2.9-2.3-2.9c-1.3,0-2.3,1.3-2.3,2.9
					C138.5,106.1,139.5,107.4,140.8,107.4z"/>
				<path class="st1" d="M144,108.2c0,0-0.1-0.1-0.2-0.1c-2.1-0.2-4.1-0.2-6.2,0c0,0-0.1,0-0.1,0.1c0,0,0,0,0,0
					c-0.7,0-1.3,0.5-1.4,1.3l-0.5,5.9h10.2l-0.5-5.9C145.4,108.7,144.8,108.1,144,108.2C144.1,108.2,144,108.2,144,108.2z"/>
			</g>
			<g>
				<path class="st1" d="M154.8,107.1c1.3,0,2.3-1.3,2.3-2.9c0-1.6-1-2.9-2.3-2.9c-1.3,0-2.3,1.3-2.3,2.9
					C152.5,105.8,153.6,107.1,154.8,107.1z"/>
				<path class="st1" d="M158.1,107.9c0,0-0.1-0.1-0.2-0.1c-2.1-0.2-4.1-0.2-6.2,0c0,0-0.1,0-0.1,0.1c0,0,0,0,0,0
					c-0.7,0-1.3,0.5-1.4,1.3l-0.5,5.9H160l-0.5-5.9C159.5,108.4,158.9,107.8,158.1,107.9C158.1,107.9,158.1,107.9,158.1,107.9z"/>
			</g>
		</g>
	</g>
</g>
</svg>
