<?xml version="1.0" encoding="utf-8"?>
<!-- Generator: Adobe Illustrator 24.1.0, SVG Export Plug-In . SVG Version: 6.00 Build 0)  -->
<svg version="1.1" id="labels_de" xmlns="http://www.w3.org/2000/svg" xmlns:xlink="http://www.w3.org/1999/xlink" x="0px" y="0px"
	 viewBox="0 0 1201 653" style="enable-background:new 0 0 1201 653;" xml:space="preserve">
<style type="text/css">
	.st0{fill:#3A2F3C;}
	.st1{fill:#3661b5;}
</style>
<g>
	<path class="st0" d="M202.12,124.36v-10.59h4.36c1.46,0,2.34,0.22,2.92,0.64c0.79,0.56,1.15,1.53,1.15,2.6
		c0,1.19-0.42,2.25-1.35,2.77c-0.78,0.44-1.88,0.58-3.15,0.58h-2.06v3.99H202.12z M205.92,118.75c1.03,0,1.71-0.1,2.13-0.39
		c0.39-0.28,0.54-0.73,0.54-1.33c0-0.54-0.18-0.99-0.54-1.28c-0.41-0.3-0.92-0.36-2.01-0.36h-2.02v3.36H205.92z"/>
	<path class="st0" d="M211.3,124.36v-7.47h1.68v1.15c0.45-0.81,1.04-1.24,2.07-1.24c0.24,0,0.42,0.03,0.64,0.09v1.77
		c-0.28-0.15-0.51-0.21-0.84-0.21c-0.58,0-1.08,0.25-1.41,0.73c-0.26,0.38-0.39,0.9-0.39,1.69v3.48H211.3z"/>
	<path class="st0" d="M216.67,115.42v-1.65h1.79v1.65H216.67z M218.46,124.36h-1.77v-7.47h1.77V124.36z"/>
	<path class="st0" d="M225.03,124.36v-4.29c0-0.58-0.06-1.02-0.27-1.32c-0.19-0.28-0.52-0.42-1-0.42s-0.98,0.25-1.27,0.66
		c-0.38,0.49-0.44,1.05-0.44,1.77v3.6h-1.75v-7.47h1.74V118c0.54-0.76,1.43-1.24,2.48-1.24c0.9,0,1.48,0.31,1.86,0.88
		c0.3,0.45,0.42,1.04,0.42,2.04v4.68H225.03z"/>
	<path class="st0" d="M232.17,124.33c-0.39,0.1-0.87,0.16-1.31,0.16c-0.73,0-1.23-0.18-1.53-0.54c-0.31-0.36-0.42-0.89-0.42-1.58
		v-4.08h-1.17v-1.41h1.2v-2.43h1.74v2.43h1.46v1.41h-1.46v3.73c0,0.76,0.23,1.03,0.77,1.03c0.21,0,0.48-0.04,0.72-0.13V124.33z"/>
	<path class="st0" d="M238.78,113.77c2.31,3.87,3.67,6.03,4.69,7.83c-0.06-1.62-0.08-3.77-0.08-7.83h1.89v10.59h-2.08
		c-2.21-3.63-3.6-5.91-4.71-7.77c0.05,0.92,0.06,2.95,0.06,7.77h-1.89v-10.59H238.78z"/>
	<path class="st0" d="M253.72,122.48c-0.55,1.35-1.69,2.1-3.25,2.1c-2.4,0-3.69-1.56-3.69-4.04c0-2.38,1.44-3.87,3.62-3.87
		c2.37,0,3.36,1.73,3.37,4.4h-5.22c0.06,1.29,0.77,2.02,1.95,2.02c0.76,0,1.41-0.3,1.68-1.16L253.72,122.48z M251.98,119.81
		c-0.06-1.17-0.67-1.77-1.63-1.77s-1.67,0.6-1.79,1.77H251.98z"/>
	<path class="st0" d="M261.22,124.36c-0.5-2.04-0.96-3.75-1.33-5.55c-0.31,1.44-0.66,2.76-1.44,5.55h-1.98l-2.25-7.47h1.92
		c0.51,1.98,1.11,4.2,1.46,5.62c0.3-1.41,0.63-2.9,1.38-5.62h1.84c0.63,2.4,1.02,3.98,1.38,5.62c0.36-1.6,0.93-3.71,1.46-5.62h1.8
		l-2.26,7.47H261.22z"/>
	<path class="st0" d="M267.04,121.99c0.39,0.77,1.08,1.22,1.9,1.22c0.77,0,1.19-0.33,1.19-0.78c0-0.49-0.25-0.7-1.38-1.06
		l-0.79-0.25c-1.15-0.36-1.89-1.04-1.89-2.17c0-1.17,1.05-2.25,2.9-2.25c1.19,0,2.28,0.45,2.94,1.5l-1.3,0.88
		c-0.38-0.66-0.95-1.05-1.67-1.05c-0.75,0-1.11,0.3-1.11,0.73c0,0.45,0.24,0.66,1.2,0.96l0.79,0.24c1.32,0.42,2.07,1.03,2.07,2.23
		c0,1.38-1.15,2.38-3.01,2.38c-1.53,0-2.56-0.73-3.19-1.68L267.04,121.99z"/>
	<path class="st0" d="M273.19,124.36v-7.47h1.68v1.15c0.45-0.81,1.04-1.24,2.07-1.24c0.24,0,0.42,0.03,0.64,0.09v1.77
		c-0.28-0.15-0.51-0.21-0.84-0.21c-0.58,0-1.08,0.25-1.41,0.73c-0.26,0.38-0.39,0.9-0.39,1.69v3.48H273.19z"/>
	<path class="st0" d="M281.83,124.57c-2.34,0-3.66-1.47-3.66-3.96c0-2.47,1.46-3.93,3.77-3.93c2.22,0,3.55,1.48,3.55,4.02
		C285.49,123.19,284.02,124.57,281.83,124.57z M281.89,118.15c-1.11,0-1.92,0.85-1.92,2.42c0,1.69,0.78,2.54,1.88,2.54
		c1.09,0,1.87-0.77,1.87-2.45C283.72,118.99,283,118.15,281.89,118.15z"/>
	<path class="st0" d="M290.17,124.57c-2.34,0-3.66-1.47-3.66-3.96c0-2.47,1.46-3.93,3.77-3.93c2.22,0,3.55,1.48,3.55,4.02
		C293.83,123.19,292.36,124.57,290.17,124.57z M290.23,118.15c-1.11,0-1.92,0.85-1.92,2.42c0,1.69,0.78,2.54,1.88,2.54
		c1.09,0,1.87-0.77,1.87-2.45C292.06,118.99,291.34,118.15,290.23,118.15z"/>
	<path class="st0" d="M297,116.89V118c0.56-0.78,1.42-1.24,2.4-1.24c1.06,0,1.73,0.45,2.02,1.32c0.63-0.84,1.53-1.31,2.58-1.31
		c0.93,0,1.65,0.39,1.95,1.23c0.17,0.47,0.24,0.96,0.24,2.04v4.32h-1.75v-4.05c0-0.84-0.06-1.23-0.2-1.5
		c-0.17-0.31-0.48-0.48-0.94-0.48s-0.92,0.24-1.17,0.56c-0.39,0.46-0.52,1-0.52,1.9v3.57h-1.75v-4.09c0-0.79-0.03-1.11-0.17-1.41
		c-0.17-0.36-0.51-0.52-0.99-0.52c-0.49,0-0.96,0.25-1.26,0.67c-0.3,0.42-0.42,0.85-0.42,1.77v3.58h-1.75v-7.47H297z"/>
</g>
<g>
	<path class="st0" d="M501.76,118.99c0-3.35,1.97-5.46,5.04-5.46c2.9,0,4.78,2.22,4.78,5.58c0,3.46-1.9,5.49-4.78,5.49
		C503.64,124.6,501.76,122.42,501.76,118.99z M506.71,115.22c-1.81,0-2.97,1.38-2.97,3.73c0,2.46,1.19,3.94,3.02,3.94
		c1.67,0,2.83-1.29,2.83-3.82C509.59,116.63,508.44,115.22,506.71,115.22z"/>
	<path class="st0" d="M517.86,124.36v-4.29c0-0.58-0.06-1.02-0.27-1.32c-0.19-0.28-0.52-0.42-1-0.42s-0.98,0.25-1.27,0.66
		c-0.38,0.49-0.44,1.05-0.44,1.77v3.6h-1.75v-7.47h1.74V118c0.54-0.76,1.42-1.24,2.48-1.24c0.9,0,1.48,0.31,1.86,0.88
		c0.3,0.45,0.42,1.04,0.42,2.04v4.68H517.86z"/>
	<path class="st0" d="M523.12,124.36h-1.77v-10.59h1.77V124.36z"/>
	<path class="st0" d="M524.94,115.42v-1.65h1.79v1.65H524.94z M526.72,124.36h-1.77v-7.47h1.77V124.36z"/>
	<path class="st0" d="M533.29,124.36v-4.29c0-0.58-0.06-1.02-0.27-1.32c-0.19-0.28-0.52-0.42-1-0.42s-0.98,0.25-1.27,0.66
		c-0.38,0.49-0.44,1.05-0.44,1.77v3.6h-1.75v-7.47h1.74V118c0.54-0.76,1.42-1.24,2.48-1.24c0.9,0,1.48,0.31,1.86,0.88
		c0.3,0.45,0.42,1.04,0.42,2.04v4.68H533.29z"/>
	<path class="st0" d="M543.33,122.48c-0.55,1.35-1.69,2.1-3.25,2.1c-2.4,0-3.69-1.56-3.69-4.04c0-2.38,1.44-3.87,3.62-3.87
		c2.37,0,3.36,1.73,3.37,4.4h-5.22c0.06,1.29,0.77,2.02,1.95,2.02c0.76,0,1.41-0.3,1.68-1.16L543.33,122.48z M541.59,119.81
		c-0.06-1.17-0.67-1.77-1.63-1.77s-1.67,0.6-1.79,1.77H541.59z"/>
	<path class="st0" d="M550.29,113.77c2.31,3.87,3.67,6.03,4.69,7.83c-0.06-1.62-0.08-3.77-0.08-7.83h1.89v10.59h-2.08
		c-2.21-3.63-3.6-5.91-4.71-7.77c0.05,0.92,0.06,2.95,0.06,7.77h-1.89v-10.59H550.29z"/>
	<path class="st0" d="M565.23,122.48c-0.55,1.35-1.69,2.1-3.25,2.1c-2.4,0-3.69-1.56-3.69-4.04c0-2.38,1.44-3.87,3.62-3.87
		c2.37,0,3.36,1.73,3.37,4.4h-5.22c0.06,1.29,0.77,2.02,1.95,2.02c0.76,0,1.41-0.3,1.68-1.16L565.23,122.48z M563.49,119.81
		c-0.06-1.17-0.67-1.77-1.63-1.77s-1.67,0.6-1.79,1.77H563.49z"/>
	<path class="st0" d="M572.73,124.36c-0.5-2.04-0.96-3.75-1.33-5.55c-0.31,1.44-0.66,2.76-1.44,5.55h-1.98l-2.25-7.47h1.92
		c0.51,1.98,1.11,4.2,1.46,5.62c0.3-1.41,0.63-2.9,1.38-5.62h1.84c0.63,2.4,1.02,3.98,1.38,5.62c0.36-1.6,0.93-3.71,1.46-5.62h1.8
		l-2.26,7.47H572.73z"/>
	<path class="st0" d="M578.55,121.99c0.39,0.77,1.08,1.22,1.9,1.22c0.77,0,1.19-0.33,1.19-0.78c0-0.49-0.25-0.7-1.38-1.06
		l-0.79-0.25c-1.15-0.36-1.89-1.04-1.89-2.17c0-1.17,1.05-2.25,2.9-2.25c1.19,0,2.28,0.45,2.94,1.5l-1.3,0.88
		c-0.38-0.66-0.95-1.05-1.67-1.05c-0.75,0-1.11,0.3-1.11,0.73c0,0.45,0.24,0.66,1.2,0.96l0.79,0.24c1.32,0.42,2.07,1.03,2.07,2.23
		c0,1.38-1.15,2.38-3.01,2.38c-1.53,0-2.56-0.73-3.19-1.68L578.55,121.99z"/>
	<path class="st0" d="M584.7,124.36v-7.47h1.68v1.15c0.45-0.81,1.04-1.24,2.07-1.24c0.24,0,0.42,0.03,0.64,0.09v1.77
		c-0.28-0.15-0.51-0.21-0.84-0.21c-0.58,0-1.08,0.25-1.41,0.73c-0.26,0.38-0.39,0.9-0.39,1.69v3.48H584.7z"/>
	<path class="st0" d="M593.34,124.57c-2.34,0-3.66-1.47-3.66-3.96c0-2.47,1.46-3.93,3.77-3.93c2.22,0,3.55,1.48,3.55,4.02
		C597,123.19,595.53,124.57,593.34,124.57z M593.4,118.15c-1.11,0-1.92,0.85-1.92,2.42c0,1.69,0.78,2.54,1.88,2.54
		c1.09,0,1.87-0.77,1.87-2.45C595.23,118.99,594.51,118.15,593.4,118.15z"/>
	<path class="st0" d="M601.68,124.57c-2.34,0-3.66-1.47-3.66-3.96c0-2.47,1.46-3.93,3.77-3.93c2.22,0,3.55,1.48,3.55,4.02
		C605.34,123.19,603.87,124.57,601.68,124.57z M601.74,118.15c-1.11,0-1.92,0.85-1.92,2.42c0,1.69,0.78,2.54,1.88,2.54
		c1.09,0,1.88-0.77,1.88-2.45C603.57,118.99,602.85,118.15,601.74,118.15z"/>
	<path class="st0" d="M608.5,116.89V118c0.56-0.78,1.42-1.24,2.4-1.24c1.07,0,1.73,0.45,2.03,1.32c0.63-0.84,1.53-1.31,2.58-1.31
		c0.93,0,1.65,0.39,1.95,1.23c0.17,0.47,0.24,0.96,0.24,2.04v4.32h-1.75v-4.05c0-0.84-0.06-1.23-0.2-1.5
		c-0.17-0.31-0.48-0.48-0.95-0.48s-0.92,0.24-1.17,0.56c-0.39,0.46-0.53,1-0.53,1.9v3.57h-1.75v-4.09c0-0.79-0.03-1.11-0.17-1.41
		c-0.16-0.36-0.51-0.52-0.99-0.52c-0.49,0-0.96,0.25-1.26,0.67c-0.3,0.42-0.42,0.85-0.42,1.77v3.58h-1.75v-7.47H608.5z"/>
</g>
<g>
	<path class="st1" d="M50.99,70.36v-9.18h3.78c1.26,0,2.03,0.19,2.54,0.56c0.69,0.48,1,1.33,1,2.25c0,1.03-0.36,1.95-1.17,2.4
		c-0.68,0.38-1.62,0.51-2.73,0.51h-1.78v3.46H50.99z M54.28,65.49c0.9,0,1.48-0.09,1.85-0.34c0.34-0.25,0.47-0.64,0.47-1.16
		c0-0.47-0.16-0.86-0.47-1.1c-0.35-0.26-0.79-0.31-1.74-0.31h-1.76v2.91H54.28z"/>
	<path class="st1" d="M59.57,70.36v-9.18h1.65v7.75h4.33v1.43H59.57z"/>
	<path class="st1" d="M72.75,70.36l-0.73-2.15H68.4l-0.74,2.15h-1.78l3.48-9.18h1.83l3.35,9.18H72.75z M71.62,66.91
		c-0.52-1.5-0.96-2.74-1.39-4.08c-0.3,0.92-0.62,1.83-1.43,4.08H71.62z"/>
	<path class="st1" d="M77.23,61.18c2,3.35,3.19,5.23,4.07,6.79c-0.05-1.4-0.06-3.26-0.06-6.79h1.64v9.18h-1.81
		c-1.91-3.15-3.12-5.12-4.08-6.73c0.04,0.79,0.05,2.56,0.05,6.73h-1.64v-9.18H77.23z"/>
	<path class="st1" d="M91.89,66.43c0,1.44-0.19,2.37-0.77,3.03c-0.64,0.74-1.61,1.09-2.95,1.09c-1.31,0-2.34-0.35-2.91-1.1
		c-0.57-0.77-0.7-1.62-0.7-3.02v-5.25h1.65v5.37c0,0.69,0.04,1.27,0.29,1.72c0.34,0.61,0.94,0.85,1.7,0.85
		c0.81,0,1.44-0.21,1.78-0.86c0.2-0.38,0.26-0.98,0.26-1.65v-5.42h1.65V66.43z"/>
	<path class="st1" d="M95.43,61.18c2,3.35,3.19,5.23,4.07,6.79c-0.05-1.4-0.06-3.26-0.06-6.79h1.64v9.18h-1.81
		c-1.91-3.15-3.12-5.12-4.08-6.73c0.04,0.79,0.05,2.56,0.05,6.73h-1.64v-9.18H95.43z"/>
	<path class="st1" d="M109.11,70.36v-1c-0.64,0.82-1.52,1.18-2.69,1.18c-2.31,0-3.98-1.83-3.98-4.65c0-2.79,1.64-4.91,4.54-4.91
		c1.85,0,3.06,0.83,3.64,2.42l-1.64,0.62c-0.29-0.98-0.95-1.57-2.04-1.57c-1.73,0-2.77,1.29-2.77,3.34c0,2.16,1.1,3.31,2.68,3.31
		c1.47,0,2.17-0.9,2.22-2.39h-2.56v-1.4h4.1v5.06H109.11z"/>
</g>
<g>
	<path class="st1" d="M50.99,271.36v-9.18h3.78c1.26,0,2.03,0.19,2.54,0.56c0.69,0.48,1,1.33,1,2.25c0,1.03-0.36,1.95-1.17,2.4
		c-0.68,0.38-1.62,0.51-2.73,0.51h-1.78v3.46H50.99z M54.28,266.49c0.9,0,1.48-0.09,1.85-0.34c0.34-0.25,0.47-0.64,0.47-1.16
		c0-0.47-0.16-0.86-0.47-1.1c-0.35-0.26-0.79-0.31-1.74-0.31h-1.76v2.91H54.28z"/>
	<path class="st1" d="M65.1,271.36l-2.31-3.67h-1.57v3.67h-1.64v-9.18h2.98c1.18,0,2.09,0.05,2.77,0.32
		c0.94,0.38,1.38,1.13,1.38,2.37c0,1.51-0.85,2.34-2.29,2.57l2.61,3.91H65.1z M62.93,266.36c0.83,0,1.3-0.1,1.6-0.34
		c0.3-0.23,0.46-0.61,0.46-1.08c0-0.48-0.12-0.87-0.51-1.12c-0.3-0.19-0.77-0.27-1.5-0.27h-1.77v2.81H62.93z"/>
	<path class="st1" d="M67.74,266.7c0-2.9,1.7-4.73,4.37-4.73c2.51,0,4.15,1.92,4.15,4.84c0,3-1.65,4.76-4.15,4.76
		C69.36,271.56,67.74,269.68,67.74,266.7z M72.03,263.44c-1.57,0-2.57,1.2-2.57,3.24c0,2.13,1.03,3.42,2.61,3.42
		c1.44,0,2.46-1.12,2.46-3.31C74.52,264.66,73.52,263.44,72.03,263.44z"/>
	<path class="st1" d="M77.63,262.18h2.83c1.61,0,2.31,0.12,3.02,0.47c1.26,0.62,1.86,2.13,1.86,4.04c0,1.48-0.4,2.78-1.18,3.56
		c-0.83,0.83-1.94,1.1-3.81,1.1h-2.72V262.18z M80.45,269.95c1.24,0,2.02-0.26,2.5-0.79c0.48-0.55,0.65-1.36,0.65-2.48
		c0-0.99-0.2-1.82-0.69-2.37c-0.43-0.47-0.99-0.73-2.24-0.73h-1.39v6.37H80.45z"/>
	<path class="st1" d="M94.05,267.43c0,1.44-0.19,2.37-0.77,3.03c-0.64,0.74-1.61,1.09-2.95,1.09c-1.31,0-2.34-0.35-2.91-1.1
		c-0.57-0.77-0.7-1.62-0.7-3.02v-5.25h1.65v5.37c0,0.69,0.04,1.27,0.29,1.72c0.34,0.61,0.94,0.85,1.7,0.85
		c0.81,0,1.44-0.21,1.78-0.86c0.2-0.38,0.26-0.98,0.26-1.65v-5.42h1.65V267.43z"/>
	<path class="st1" d="M101.68,271.36l-2.69-4.37l-1.59,1.75v2.61h-1.65v-9.18h1.65v4.41l3.91-4.41h2.02l-3.22,3.58l3.55,5.6H101.68z
		"/>
	<path class="st1" d="M106.23,271.36v-7.76h-2.59v-1.42h6.89v1.42h-2.6v7.76H106.23z"/>
	<path class="st1" d="M113.34,271.36h-1.69v-9.18h1.69V271.36z"/>
	<path class="st1" d="M114.73,266.7c0-2.9,1.7-4.73,4.37-4.73c2.51,0,4.15,1.92,4.15,4.84c0,3-1.65,4.76-4.15,4.76
		C116.36,271.56,114.73,269.68,114.73,266.7z M119.02,263.44c-1.57,0-2.57,1.2-2.57,3.24c0,2.13,1.03,3.42,2.61,3.42
		c1.44,0,2.46-1.12,2.46-3.31C121.52,264.66,120.52,263.44,119.02,263.44z"/>
	<path class="st1" d="M126.46,262.18c2,3.35,3.19,5.23,4.07,6.79c-0.05-1.4-0.06-3.26-0.06-6.79h1.64v9.18h-1.81
		c-1.91-3.15-3.12-5.12-4.08-6.73c0.04,0.79,0.05,2.56,0.05,6.73h-1.64v-9.18H126.46z"/>
</g>
<g>
	<path class="st1" d="M50.99,474.36v-9.18h3.78c1.26,0,2.03,0.2,2.54,0.56c0.69,0.48,1,1.33,1,2.25c0,1.03-0.36,1.95-1.17,2.4
		c-0.68,0.38-1.62,0.51-2.73,0.51h-1.78v3.46H50.99z M54.28,469.49c0.9,0,1.48-0.09,1.85-0.34c0.34-0.25,0.47-0.64,0.47-1.16
		c0-0.47-0.16-0.86-0.47-1.1c-0.35-0.26-0.79-0.31-1.74-0.31h-1.76v2.91H54.28z"/>
	<path class="st1" d="M65.1,474.36l-2.31-3.67h-1.57v3.67h-1.64v-9.18h2.98c1.18,0,2.09,0.05,2.77,0.33
		c0.94,0.38,1.38,1.13,1.38,2.37c0,1.51-0.85,2.34-2.29,2.57l2.61,3.91H65.1z M62.93,469.36c0.83,0,1.3-0.1,1.6-0.34
		c0.3-0.23,0.46-0.61,0.46-1.08c0-0.48-0.12-0.87-0.51-1.12c-0.3-0.19-0.77-0.27-1.5-0.27h-1.77v2.81H62.93z"/>
	<path class="st1" d="M74.08,474.36l-0.73-2.15h-3.63l-0.74,2.15H67.2l3.48-9.18h1.83l3.35,9.18H74.08z M69.36,464.4v-1.4h1.36v1.4
		H69.36z M72.95,470.91c-0.52-1.5-0.96-2.74-1.39-4.08c-0.3,0.92-0.62,1.83-1.43,4.08H72.95z M72.44,464.4v-1.4h1.37v1.4H72.44z"/>
	<path class="st1" d="M77.15,471.5c0.55,1.09,1.4,1.62,2.42,1.62c1.12,0,1.73-0.44,1.73-1.16c0-0.65-0.4-0.91-1.77-1.39l-0.99-0.35
		c-1.56-0.56-2.27-1.27-2.27-2.6c0-1.57,1.42-2.65,3.29-2.65c1.57,0,2.78,0.66,3.51,1.87l-1.33,0.95c-0.61-1.04-1.4-1.42-2.34-1.42
		c-0.91,0-1.43,0.46-1.43,1.08c0,0.6,0.34,0.9,1.53,1.29l1.05,0.35c1.7,0.54,2.48,1.31,2.48,2.69c0,1.65-1.36,2.8-3.5,2.8
		c-1.66,0-3-0.78-3.76-2.11L77.15,471.5z"/>
	<path class="st1" d="M84.35,474.36v-9.18h6.38v1.42h-4.72v2.34h4.35v1.42h-4.35v2.57h4.98v1.43H84.35z"/>
	<path class="st1" d="M94.1,465.18c2,3.35,3.19,5.23,4.07,6.79c-0.05-1.4-0.06-3.26-0.06-6.79h1.64v9.18h-1.81
		c-1.91-3.15-3.12-5.12-4.08-6.73c0.04,0.79,0.05,2.56,0.05,6.73h-1.64v-9.18H94.1z"/>
	<path class="st1" d="M103.45,474.36v-7.76h-2.59v-1.42h6.89v1.42h-2.6v7.76H103.45z"/>
	<path class="st1" d="M113.46,474.36l-0.73-2.15h-3.63l-0.74,2.15h-1.78l3.48-9.18h1.83l3.35,9.18H113.46z M112.33,470.91
		c-0.52-1.5-0.96-2.74-1.39-4.08c-0.3,0.92-0.62,1.83-1.43,4.08H112.33z"/>
	<path class="st1" d="M116.67,474.36v-7.76h-2.59v-1.42h6.89v1.42h-2.6v7.76H116.67z"/>
	<path class="st1" d="M123.78,474.36h-1.69v-9.18h1.69V474.36z"/>
	<path class="st1" d="M125.17,469.7c0-2.9,1.7-4.73,4.37-4.73c2.51,0,4.15,1.92,4.15,4.84c0,3-1.65,4.76-4.15,4.76
		C126.79,474.56,125.17,472.68,125.17,469.7z M129.46,466.44c-1.57,0-2.57,1.2-2.57,3.24c0,2.13,1.03,3.42,2.61,3.42
		c1.44,0,2.46-1.12,2.46-3.32C131.96,467.66,130.96,466.44,129.46,466.44z"/>
	<path class="st1" d="M136.9,465.18c2,3.35,3.19,5.23,4.07,6.79c-0.05-1.4-0.06-3.26-0.06-6.79h1.64v9.18h-1.81
		c-1.91-3.15-3.12-5.12-4.08-6.73c0.04,0.79,0.05,2.56,0.05,6.73h-1.64v-9.18H136.9z"/>
</g>
<g>
	<path class="st0" d="M803.95,524.06c0.63,1.26,1.62,1.88,2.79,1.88c1.29,0,2-0.51,2-1.33c0-0.75-0.46-1.05-2.04-1.6l-1.14-0.41
		c-1.8-0.64-2.62-1.47-2.62-3c0-1.82,1.63-3.06,3.79-3.06c1.81,0,3.21,0.76,4.05,2.16l-1.53,1.09c-0.71-1.2-1.62-1.63-2.7-1.63
		c-1.05,0-1.65,0.53-1.65,1.25c0,0.69,0.39,1.04,1.77,1.49l1.21,0.4c1.96,0.63,2.87,1.52,2.87,3.11c0,1.9-1.58,3.22-4.04,3.22
		c-1.92,0-3.46-0.9-4.33-2.43L803.95,524.06z"/>
	<path class="st0" d="M811.55,527.36v-1.41l5.76-7.54h-5.46v-1.63h7.89v1.47l-5.7,7.49h5.71v1.63H811.55z"/>
	<path class="st0" d="M824.24,521.99c0-3.34,1.96-5.46,5.04-5.46c2.9,0,4.78,2.22,4.78,5.58c0,3.46-1.9,5.49-4.78,5.49
		C826.12,527.6,824.24,525.42,824.24,521.99z M829.19,518.22c-1.82,0-2.97,1.38-2.97,3.74c0,2.46,1.18,3.94,3.01,3.94
		c1.67,0,2.83-1.29,2.83-3.83C832.07,519.63,830.92,518.22,829.19,518.22z"/>
	<path class="st0" d="M840.34,527.36v-4.29c0-0.58-0.06-1.02-0.27-1.32c-0.19-0.28-0.52-0.42-1-0.42c-0.48,0-0.98,0.26-1.28,0.66
		c-0.38,0.5-0.44,1.05-0.44,1.77v3.6h-1.75v-7.47h1.74V521c0.54-0.76,1.42-1.24,2.48-1.24c0.9,0,1.48,0.31,1.86,0.88
		c0.3,0.45,0.42,1.04,0.42,2.04v4.68H840.34z"/>
	<path class="st0" d="M845.6,527.36h-1.77v-10.59h1.77V527.36z"/>
	<path class="st0" d="M847.42,518.42v-1.65h1.79v1.65H847.42z M849.2,527.36h-1.77v-7.47h1.77V527.36z"/>
	<path class="st0" d="M855.77,527.36v-4.29c0-0.58-0.06-1.02-0.27-1.32c-0.2-0.28-0.53-0.42-1-0.42s-0.98,0.26-1.27,0.66
		c-0.38,0.5-0.44,1.05-0.44,1.77v3.6h-1.75v-7.47h1.74V521c0.54-0.76,1.43-1.24,2.48-1.24c0.9,0,1.49,0.31,1.86,0.88
		c0.3,0.45,0.42,1.04,0.42,2.04v4.68H855.77z"/>
	<path class="st0" d="M865.81,525.48c-0.55,1.35-1.7,2.1-3.25,2.1c-2.4,0-3.69-1.56-3.69-4.04c0-2.38,1.44-3.87,3.62-3.87
		c2.37,0,3.36,1.73,3.38,4.4h-5.22c0.06,1.29,0.76,2.02,1.95,2.02c0.76,0,1.41-0.3,1.68-1.16L865.81,525.48z M864.07,522.81
		c-0.06-1.17-0.67-1.77-1.63-1.77s-1.66,0.6-1.79,1.77H864.07z"/>
	<path class="st0" d="M866.95,523.53v-1.41h4.33v1.41H866.95z"/>
	<path class="st0" d="M872.9,527.36v-10.59h4.36c1.46,0,2.34,0.22,2.92,0.64c0.79,0.55,1.15,1.53,1.15,2.59
		c0,1.18-0.42,2.25-1.35,2.77c-0.78,0.44-1.88,0.59-3.15,0.59h-2.06v3.99H872.9z M876.7,521.75c1.03,0,1.71-0.1,2.13-0.39
		c0.39-0.28,0.54-0.74,0.54-1.33c0-0.54-0.18-0.99-0.54-1.28c-0.4-0.3-0.91-0.36-2.01-0.36h-2.03v3.36H876.7z"/>
	<path class="st0" d="M882.08,527.36v-7.47h1.68v1.15c0.45-0.81,1.04-1.24,2.07-1.24c0.24,0,0.42,0.03,0.64,0.09v1.77
		c-0.29-0.15-0.51-0.21-0.84-0.21c-0.58,0-1.08,0.25-1.41,0.73c-0.25,0.38-0.39,0.9-0.39,1.7v3.48H882.08z"/>
	<path class="st0" d="M890.72,527.57c-2.34,0-3.66-1.47-3.66-3.96c0-2.47,1.46-3.93,3.76-3.93c2.22,0,3.55,1.49,3.55,4.02
		C894.38,526.19,892.91,527.57,890.72,527.57z M890.78,521.15c-1.11,0-1.92,0.86-1.92,2.42c0,1.69,0.78,2.54,1.88,2.54
		c1.1,0,1.88-0.76,1.88-2.45C892.61,521.99,891.89,521.15,890.78,521.15z"/>
	<path class="st0" d="M900.64,527.36v-1.05c-0.48,0.71-1.19,1.2-2.24,1.2c-1.72,0-3-1.32-3-3.91c0-2.45,1.38-3.86,3.1-3.86
		c1.11,0,1.73,0.41,2.13,0.98v-3.94h1.71v10.59H900.64z M898.94,521.19c-1.04,0-1.74,0.79-1.74,2.38c0,1.5,0.63,2.46,1.67,2.46
		c1.04,0,1.77-0.81,1.77-2.4C900.64,522.14,899.99,521.19,898.94,521.19z"/>
	<path class="st0" d="M905.87,519.89v4.26c0,0.45,0.06,0.88,0.2,1.17c0.2,0.41,0.55,0.63,1.12,0.63c0.5,0,0.93-0.25,1.2-0.58
		c0.32-0.4,0.46-0.9,0.46-1.6v-3.87h1.75v7.47h-1.72v-1.07c-0.51,0.72-1.28,1.2-2.33,1.2c-0.96,0-1.54-0.3-1.96-0.9
		c-0.33-0.46-0.46-1.12-0.46-2v-4.71H905.87z"/>
	<path class="st0" d="M917.35,527.36l-2.08-3.41l-1.1,1.16v2.25h-1.75v-10.59h1.75v6.3l2.84-3.18h2.13l-2.62,2.83l2.88,4.63H917.35z
		"/>
	<path class="st0" d="M923.95,527.33c-0.39,0.11-0.87,0.17-1.31,0.17c-0.73,0-1.23-0.18-1.53-0.54c-0.31-0.36-0.42-0.88-0.42-1.57
		v-4.08h-1.17v-1.41h1.2v-2.43h1.74v2.43h1.46v1.41h-1.46v3.73c0,0.77,0.22,1.04,0.77,1.04c0.21,0,0.48-0.04,0.72-0.13V527.33z"/>
	<path class="st0" d="M931.55,525.48c-0.55,1.35-1.7,2.1-3.25,2.1c-2.4,0-3.69-1.56-3.69-4.04c0-2.38,1.44-3.87,3.62-3.87
		c2.37,0,3.36,1.73,3.38,4.4h-5.22c0.06,1.29,0.76,2.02,1.95,2.02c0.76,0,1.41-0.3,1.68-1.16L931.55,525.48z M929.81,522.81
		c-0.06-1.17-0.67-1.77-1.63-1.77s-1.66,0.6-1.79,1.77H929.81z"/>
</g>
<g>
	<path class="st0" d="M202.95,524.06c0.63,1.26,1.62,1.88,2.79,1.88c1.29,0,2-0.51,2-1.33c0-0.75-0.47-1.05-2.04-1.6l-1.14-0.41
		c-1.8-0.64-2.62-1.47-2.62-3c0-1.82,1.64-3.06,3.79-3.06c1.81,0,3.21,0.76,4.05,2.16l-1.53,1.09c-0.71-1.2-1.62-1.63-2.7-1.63
		c-1.05,0-1.65,0.53-1.65,1.25c0,0.69,0.39,1.04,1.77,1.49l1.22,0.4c1.96,0.63,2.86,1.52,2.86,3.11c0,1.9-1.58,3.22-4.04,3.22
		c-1.92,0-3.46-0.9-4.33-2.43L202.95,524.06z"/>
	<path class="st0" d="M210.55,527.36v-1.41l5.76-7.54h-5.46v-1.63h7.89v1.47l-5.7,7.49h5.71v1.63H210.55z"/>
	<path class="st0" d="M223.6,527.36v-10.59h4.36c1.46,0,2.34,0.22,2.92,0.64c0.79,0.55,1.15,1.53,1.15,2.59
		c0,1.18-0.42,2.25-1.35,2.77c-0.78,0.44-1.88,0.59-3.15,0.59h-2.06v3.99H223.6z M227.4,521.75c1.03,0,1.71-0.1,2.13-0.39
		c0.39-0.28,0.54-0.74,0.54-1.33c0-0.54-0.18-0.99-0.54-1.28c-0.41-0.3-0.92-0.36-2.01-0.36h-2.02v3.36H227.4z"/>
	<path class="st0" d="M232.78,527.36v-7.47h1.68v1.15c0.45-0.81,1.04-1.24,2.07-1.24c0.24,0,0.42,0.03,0.64,0.09v1.77
		c-0.28-0.15-0.51-0.21-0.84-0.21c-0.58,0-1.08,0.25-1.41,0.73c-0.26,0.38-0.39,0.9-0.39,1.7v3.48H232.78z"/>
	<path class="st0" d="M238.15,518.42v-1.65h1.79v1.65H238.15z M239.94,527.36h-1.77v-7.47h1.77V527.36z"/>
	<path class="st0" d="M246.51,527.36v-4.29c0-0.58-0.06-1.02-0.27-1.32c-0.19-0.28-0.52-0.42-1-0.42s-0.98,0.26-1.27,0.66
		c-0.38,0.5-0.44,1.05-0.44,1.77v3.6h-1.75v-7.47h1.74V521c0.54-0.76,1.42-1.24,2.48-1.24c0.9,0,1.48,0.31,1.86,0.88
		c0.3,0.45,0.42,1.04,0.42,2.04v4.68H246.51z"/>
	<path class="st0" d="M253.65,527.33c-0.39,0.11-0.87,0.17-1.3,0.17c-0.73,0-1.23-0.18-1.53-0.54c-0.31-0.36-0.42-0.88-0.42-1.57
		v-4.08h-1.17v-1.41h1.2v-2.43h1.74v2.43h1.46v1.41h-1.46v3.73c0,0.77,0.23,1.04,0.77,1.04c0.21,0,0.48-0.04,0.72-0.13V527.33z"/>
	<path class="st0" d="M254.44,523.53v-1.41h4.33v1.41H254.44z"/>
	<path class="st0" d="M269.44,527.36c0-5.29,0-6.79,0.06-8.55c-0.65,2.03-0.93,2.88-2.83,8.55h-1.65c-1.33-4.16-2.11-6.22-2.82-8.53
		c0.04,1.89,0.04,3.25,0.04,8.53h-1.84v-10.59h2.74c1.35,3.93,2.08,5.97,2.73,8.08c0.6-2.05,1.05-3.34,2.65-8.08h2.75v10.59H269.44z
		"/>
	<path class="st0" d="M277.42,522.29c0-0.42-0.09-0.71-0.28-0.9c-0.21-0.21-0.57-0.31-1.04-0.31c-0.92,0-1.32,0.46-1.41,1.29
		l-1.68-0.15c0.12-1.62,1.32-2.52,3.22-2.52c1.02,0,1.74,0.24,2.24,0.72c0.46,0.43,0.63,1.05,0.63,2.22v2.75
		c0,0.88,0.06,1.62,0.21,1.98h-1.69c-0.06-0.24-0.15-0.71-0.15-0.93c-0.57,0.69-1.38,1.07-2.44,1.07c-1.36,0-2.32-0.85-2.32-2.19
		c0-0.96,0.48-1.59,1.36-2c0.73-0.33,2.17-0.54,3.36-0.62V522.29z M277.42,523.86c-0.85,0.04-1.86,0.2-2.38,0.45
		c-0.46,0.21-0.65,0.5-0.65,0.92c0,0.54,0.36,0.95,1.14,0.95c0.67,0,1.23-0.29,1.56-0.78c0.24-0.34,0.32-0.76,0.33-1.18V523.86z"/>
	<path class="st0" d="M285.67,526.32c-0.52,0.65-1.25,0.96-2.21,0.96c-1.83,0-3-1.39-3-3.75c0-2.34,1.26-3.76,3.1-3.76
		c1.04,0,1.75,0.38,2.17,1.05v-0.91h1.74v6.96c0,1.54-0.36,2.52-1.16,3.08c-0.58,0.42-1.44,0.6-2.4,0.6c-1.81,0-2.97-0.79-3.3-2.34
		l1.85-0.33c0.13,0.83,0.69,1.25,1.5,1.25c0.72,0,1.17-0.21,1.42-0.63c0.21-0.32,0.27-0.83,0.27-1.46V526.32z M284.08,521.22
		c-1.11,0-1.8,0.84-1.8,2.29c0,1.53,0.68,2.4,1.74,2.4c1.02,0,1.68-0.72,1.69-2.23C285.72,522.15,285.16,521.22,284.08,521.22z"/>
	<path class="st0" d="M293.56,522.29c0-0.42-0.09-0.71-0.28-0.9c-0.21-0.21-0.57-0.31-1.04-0.31c-0.92,0-1.32,0.46-1.41,1.29
		l-1.68-0.15c0.12-1.62,1.32-2.52,3.22-2.52c1.02,0,1.74,0.24,2.24,0.72c0.46,0.43,0.63,1.05,0.63,2.22v2.75
		c0,0.88,0.06,1.62,0.21,1.98h-1.69c-0.06-0.24-0.15-0.71-0.15-0.93c-0.57,0.69-1.38,1.07-2.44,1.07c-1.36,0-2.32-0.85-2.32-2.19
		c0-0.96,0.48-1.59,1.36-2c0.73-0.33,2.17-0.54,3.36-0.62V522.29z M293.56,523.86c-0.85,0.04-1.86,0.2-2.38,0.45
		c-0.46,0.21-0.65,0.5-0.65,0.92c0,0.54,0.36,0.95,1.14,0.95c0.67,0,1.23-0.29,1.56-0.78c0.24-0.34,0.32-0.76,0.33-1.18V523.86z"/>
	<path class="st0" d="M296.46,527.36v-1.12l3.67-4.93h-3.49v-1.41h5.7v1.14l-3.63,4.89h3.75v1.44H296.46z"/>
	<path class="st0" d="M303.7,518.42v-1.65h1.79v1.65H303.7z M305.49,527.36h-1.77v-7.47h1.77V527.36z"/>
	<path class="st0" d="M312.06,527.36v-4.29c0-0.58-0.06-1.02-0.27-1.32c-0.19-0.28-0.52-0.42-1-0.42s-0.98,0.26-1.27,0.66
		c-0.38,0.5-0.44,1.05-0.44,1.77v3.6h-1.75v-7.47h1.74V521c0.54-0.76,1.42-1.24,2.48-1.24c0.9,0,1.48,0.31,1.86,0.88
		c0.3,0.45,0.42,1.04,0.42,2.04v4.68H312.06z"/>
</g>
<g>
	<path class="st0" d="M192.95,307.06c0.63,1.26,1.62,1.88,2.79,1.88c1.29,0,2-0.51,2-1.33c0-0.75-0.47-1.05-2.04-1.6l-1.14-0.41
		c-1.8-0.64-2.62-1.47-2.62-3c0-1.81,1.64-3.06,3.79-3.06c1.81,0,3.21,0.77,4.05,2.16l-1.53,1.09c-0.71-1.2-1.62-1.63-2.7-1.63
		c-1.05,0-1.65,0.52-1.65,1.24c0,0.69,0.39,1.04,1.77,1.49l1.22,0.4c1.96,0.63,2.86,1.52,2.86,3.1c0,1.9-1.58,3.22-4.04,3.22
		c-1.92,0-3.46-0.9-4.33-2.43L192.95,307.06z"/>
	<path class="st0" d="M200.55,310.36v-1.41l5.76-7.54h-5.46v-1.63h7.89v1.47l-5.7,7.48h5.71v1.63H200.55z"/>
	<path class="st0" d="M213.6,310.36v-10.59h4.36c1.46,0,2.34,0.22,2.92,0.64c0.79,0.56,1.15,1.53,1.15,2.6
		c0,1.19-0.42,2.25-1.35,2.77c-0.78,0.44-1.88,0.58-3.15,0.58h-2.06v3.99H213.6z M217.4,304.75c1.03,0,1.71-0.1,2.13-0.39
		c0.39-0.28,0.54-0.73,0.54-1.33c0-0.54-0.18-0.99-0.54-1.28c-0.41-0.3-0.92-0.36-2.01-0.36h-2.02v3.36H217.4z"/>
	<path class="st0" d="M222.78,310.36v-7.47h1.68v1.15c0.45-0.81,1.04-1.24,2.07-1.24c0.24,0,0.42,0.03,0.64,0.09v1.77
		c-0.28-0.15-0.51-0.21-0.84-0.21c-0.58,0-1.08,0.25-1.41,0.73c-0.26,0.38-0.39,0.9-0.39,1.69v3.48H222.78z"/>
	<path class="st0" d="M228.15,301.42v-1.65h1.79v1.65H228.15z M229.94,310.36h-1.77v-7.47h1.77V310.36z"/>
	<path class="st0" d="M236.51,310.36v-4.29c0-0.58-0.06-1.02-0.27-1.32c-0.19-0.28-0.52-0.42-1-0.42s-0.98,0.25-1.27,0.66
		c-0.38,0.49-0.44,1.05-0.44,1.77v3.6h-1.75v-7.47h1.74V304c0.54-0.76,1.42-1.24,2.48-1.24c0.9,0,1.48,0.31,1.86,0.88
		c0.3,0.45,0.42,1.04,0.42,2.04v4.68H236.51z"/>
	<path class="st0" d="M243.65,310.33c-0.39,0.1-0.87,0.16-1.3,0.16c-0.73,0-1.23-0.18-1.53-0.54c-0.31-0.36-0.42-0.89-0.42-1.58
		v-4.08h-1.17v-1.41h1.2v-2.43h1.74v2.43h1.46v1.41h-1.46v3.73c0,0.76,0.23,1.03,0.77,1.03c0.21,0,0.48-0.04,0.72-0.13V310.33z"/>
	<path class="st0" d="M244.44,306.53v-1.41h4.33v1.41H244.44z"/>
	<path class="st0" d="M192.95,325.06c0.63,1.26,1.62,1.88,2.79,1.88c1.29,0,2-0.51,2-1.33c0-0.75-0.47-1.05-2.04-1.6l-1.14-0.41
		c-1.8-0.64-2.62-1.47-2.62-3c0-1.81,1.64-3.06,3.79-3.06c1.81,0,3.21,0.77,4.05,2.16l-1.53,1.09c-0.71-1.2-1.62-1.63-2.7-1.63
		c-1.05,0-1.65,0.52-1.65,1.24c0,0.69,0.39,1.04,1.77,1.49l1.22,0.4c1.96,0.63,2.86,1.52,2.86,3.1c0,1.9-1.58,3.22-4.04,3.22
		c-1.92,0-3.46-0.9-4.33-2.43L192.95,325.06z"/>
	<path class="st0" d="M203.18,328.48l-2.9-7.59h1.95c0.75,2.13,1.4,4.03,1.89,5.59c0.46-1.54,1.08-3.55,1.75-5.59h1.84l-2.64,7.5
		c-0.88,2.5-1.4,3.15-3.23,3.15c-0.3,0-0.61-0.04-0.88-0.1v-1.5c0.21,0.08,0.5,0.12,0.67,0.12c0.75,0,1.05-0.19,1.4-1.2
		L203.18,328.48z"/>
	<path class="st0" d="M209.16,325.99c0.39,0.77,1.08,1.22,1.9,1.22c0.77,0,1.19-0.33,1.19-0.78c0-0.49-0.25-0.7-1.38-1.06
		l-0.79-0.25c-1.15-0.36-1.89-1.04-1.89-2.17c0-1.17,1.05-2.25,2.9-2.25c1.19,0,2.28,0.45,2.94,1.5l-1.3,0.88
		c-0.38-0.66-0.95-1.05-1.67-1.05c-0.75,0-1.11,0.3-1.11,0.73c0,0.45,0.24,0.66,1.2,0.96l0.79,0.24c1.32,0.42,2.07,1.03,2.07,2.23
		c0,1.38-1.15,2.38-3.01,2.38c-1.53,0-2.56-0.73-3.19-1.68L209.16,325.99z"/>
	<path class="st0" d="M218.96,328.33c-0.39,0.1-0.87,0.16-1.3,0.16c-0.73,0-1.23-0.18-1.53-0.54c-0.31-0.36-0.42-0.89-0.42-1.58
		v-4.08h-1.17v-1.41h1.2v-2.43h1.74v2.43h1.46v1.41h-1.46v3.73c0,0.76,0.23,1.03,0.77,1.03c0.21,0,0.48-0.04,0.72-0.13V328.33z"/>
	<path class="st0" d="M226.56,326.48c-0.55,1.35-1.69,2.1-3.25,2.1c-2.4,0-3.69-1.56-3.69-4.04c0-2.38,1.44-3.87,3.62-3.87
		c2.37,0,3.36,1.73,3.37,4.4h-5.22c0.06,1.29,0.77,2.02,1.95,2.02c0.76,0,1.41-0.3,1.68-1.16L226.56,326.48z M224.82,323.81
		c-0.06-1.17-0.67-1.77-1.63-1.77s-1.67,0.6-1.79,1.77H224.82z"/>
	<path class="st0" d="M229.71,320.89V322c0.56-0.78,1.42-1.24,2.4-1.24c1.06,0,1.73,0.45,2.02,1.32c0.63-0.84,1.53-1.31,2.58-1.31
		c0.93,0,1.65,0.39,1.95,1.23c0.17,0.47,0.24,0.96,0.24,2.04v4.32h-1.75v-4.05c0-0.84-0.06-1.23-0.2-1.5
		c-0.17-0.31-0.48-0.48-0.94-0.48s-0.92,0.24-1.17,0.56c-0.39,0.46-0.52,1-0.52,1.9v3.57h-1.75v-4.09c0-0.79-0.03-1.11-0.17-1.41
		c-0.17-0.36-0.51-0.52-0.99-0.52c-0.49,0-0.96,0.25-1.26,0.67c-0.3,0.42-0.42,0.85-0.42,1.77v3.58h-1.75v-7.47H229.71z"/>
</g>
<g>
	<path class="st0" d="M938.95,104.06c0.63,1.26,1.62,1.88,2.79,1.88c1.29,0,2-0.51,2-1.33c0-0.75-0.46-1.05-2.04-1.6l-1.14-0.41
		c-1.8-0.64-2.62-1.47-2.62-3c0-1.81,1.63-3.06,3.79-3.06c1.81,0,3.21,0.77,4.05,2.16l-1.53,1.09c-0.71-1.2-1.62-1.63-2.7-1.63
		c-1.05,0-1.65,0.52-1.65,1.24c0,0.69,0.39,1.04,1.77,1.49l1.21,0.4c1.96,0.63,2.87,1.52,2.87,3.1c0,1.9-1.58,3.22-4.04,3.22
		c-1.92,0-3.46-0.9-4.33-2.43L938.95,104.06z"/>
	<path class="st0" d="M950.84,107.33c-0.39,0.1-0.87,0.16-1.3,0.16c-0.73,0-1.23-0.18-1.53-0.54c-0.32-0.36-0.42-0.89-0.42-1.58
		v-4.08h-1.17v-1.41h1.2v-2.43h1.74v2.43h1.46v1.41h-1.46v3.73c0,0.76,0.22,1.03,0.76,1.03c0.21,0,0.48-0.04,0.72-0.13V107.33z"/>
	<path class="st0" d="M956.48,102.29c0-0.42-0.09-0.71-0.29-0.9c-0.21-0.21-0.57-0.31-1.04-0.31c-0.92,0-1.32,0.46-1.41,1.29
		l-1.68-0.15c0.12-1.62,1.32-2.52,3.22-2.52c1.02,0,1.74,0.24,2.24,0.72c0.46,0.44,0.63,1.05,0.63,2.22v2.74
		c0,0.89,0.06,1.62,0.21,1.98h-1.69c-0.06-0.24-0.15-0.71-0.15-0.93c-0.57,0.69-1.38,1.06-2.45,1.06c-1.37,0-2.32-0.85-2.32-2.19
		c0-0.96,0.48-1.59,1.36-2c0.74-0.33,2.17-0.54,3.36-0.62V102.29z M956.48,103.86c-0.86,0.04-1.86,0.19-2.38,0.45
		c-0.46,0.21-0.65,0.5-0.65,0.92c0,0.54,0.36,0.94,1.14,0.94c0.68,0,1.23-0.28,1.56-0.78c0.24-0.35,0.31-0.77,0.33-1.19V103.86z"/>
	<path class="st0" d="M963.58,107.33c-0.39,0.1-0.87,0.16-1.31,0.16c-0.73,0-1.23-0.18-1.53-0.54c-0.31-0.36-0.42-0.89-0.42-1.58
		v-4.08h-1.17v-1.41h1.2v-2.43h1.74v2.43h1.46v1.41h-1.46v3.73c0,0.76,0.22,1.03,0.77,1.03c0.21,0,0.48-0.04,0.72-0.13V107.33z"/>
	<path class="st0" d="M964.63,98.42v-1.65h1.79v1.65H964.63z M966.41,107.36h-1.77v-7.47h1.77V107.36z"/>
	<path class="st0" d="M968.92,104.99c0.39,0.77,1.08,1.22,1.91,1.22c0.76,0,1.18-0.33,1.18-0.78c0-0.49-0.25-0.7-1.38-1.06
		l-0.79-0.25c-1.16-0.36-1.89-1.04-1.89-2.17c0-1.17,1.05-2.25,2.89-2.25c1.19,0,2.28,0.45,2.94,1.5l-1.3,0.88
		c-0.38-0.66-0.95-1.05-1.67-1.05c-0.75,0-1.11,0.3-1.11,0.73c0,0.45,0.24,0.66,1.2,0.96l0.79,0.24c1.32,0.42,2.07,1.03,2.07,2.23
		c0,1.38-1.16,2.38-3.02,2.38c-1.53,0-2.56-0.73-3.19-1.68L968.92,104.99z"/>
	<path class="st0" d="M978.71,107.33c-0.39,0.1-0.87,0.16-1.3,0.16c-0.73,0-1.23-0.18-1.53-0.54c-0.32-0.36-0.42-0.89-0.42-1.58
		v-4.08h-1.17v-1.41h1.2v-2.43h1.74v2.43h1.46v1.41h-1.46v3.73c0,0.76,0.22,1.03,0.76,1.03c0.21,0,0.48-0.04,0.72-0.13V107.33z"/>
	<path class="st0" d="M979.76,98.42v-1.65h1.79v1.65H979.76z M981.55,107.36h-1.77v-7.47h1.77V107.36z"/>
	<path class="st0" d="M988.31,107.36l-2.08-3.4l-1.1,1.15v2.25h-1.75V96.77h1.75v6.3l2.84-3.18h2.13l-2.62,2.83l2.88,4.63H988.31z"
		/>
	<path class="st0" d="M997.48,105.48c-0.55,1.35-1.69,2.1-3.25,2.1c-2.4,0-3.69-1.56-3.69-4.04c0-2.38,1.44-3.87,3.62-3.87
		c2.37,0,3.36,1.73,3.37,4.4h-5.22c0.06,1.29,0.77,2.02,1.95,2.02c0.76,0,1.41-0.3,1.68-1.16L997.48,105.48z M995.74,102.81
		c-0.06-1.17-0.68-1.77-1.64-1.77s-1.67,0.6-1.78,1.77H995.74z"/>
	<path class="st0" d="M1003.63,107.36v-4.29c0-0.58-0.06-1.02-0.27-1.32c-0.19-0.28-0.52-0.42-1-0.42c-0.48,0-0.98,0.25-1.28,0.66
		c-0.38,0.49-0.44,1.05-0.44,1.77v3.6h-1.75v-7.47h1.74V101c0.54-0.76,1.42-1.24,2.48-1.24c0.9,0,1.48,0.31,1.86,0.88
		c0.3,0.45,0.42,1.04,0.42,2.04v4.68H1003.63z"/>
	<path class="st0" d="M1008.74,107.28c0,1.17-0.22,1.74-0.97,2.43l-0.84-0.66c0.45-0.44,0.63-0.81,0.64-1.69h-0.58v-2.17h1.75
		V107.28z"/>
	<path class="st0" d="M947.17,125.36c0-5.29,0-6.79,0.06-8.55c-0.64,2.02-0.93,2.88-2.83,8.55h-1.65c-1.33-4.15-2.12-6.22-2.82-8.53
		c0.04,1.89,0.04,3.25,0.04,8.53h-1.84v-10.59h2.74c1.35,3.93,2.08,5.97,2.73,8.08c0.6-2.05,1.05-3.34,2.65-8.08H949v10.59H947.17z"
		/>
	<path class="st0" d="M954.16,125.57c-2.34,0-3.66-1.47-3.66-3.96c0-2.47,1.46-3.93,3.76-3.93c2.22,0,3.55,1.48,3.55,4.02
		C957.82,124.19,956.35,125.57,954.16,125.57z M954.22,119.15c-1.11,0-1.92,0.85-1.92,2.42c0,1.69,0.78,2.54,1.88,2.54
		c1.1,0,1.88-0.77,1.88-2.45C956.05,119.99,955.33,119.15,954.22,119.15z"/>
	<path class="st0" d="M963.98,125.36v-4.29c0-0.58-0.06-1.02-0.27-1.32c-0.19-0.28-0.52-0.42-1-0.42s-0.97,0.25-1.28,0.66
		c-0.38,0.49-0.43,1.05-0.43,1.77v3.6h-1.75v-7.47h1.74V119c0.54-0.76,1.42-1.24,2.47-1.24c0.9,0,1.48,0.31,1.86,0.88
		c0.3,0.45,0.42,1.04,0.42,2.04v4.68H963.98z"/>
	<path class="st0" d="M967.46,116.42v-1.65h1.79v1.65H967.46z M969.25,125.36h-1.77v-7.47h1.77V125.36z"/>
	<path class="st0" d="M974.72,125.33c-0.39,0.1-0.87,0.16-1.3,0.16c-0.74,0-1.23-0.18-1.53-0.54c-0.31-0.36-0.42-0.89-0.42-1.58
		v-4.08h-1.17v-1.41h1.2v-2.43h1.74v2.43h1.46v1.41h-1.46v3.73c0,0.76,0.23,1.03,0.77,1.03c0.21,0,0.48-0.04,0.72-0.13V125.33z"/>
	<path class="st0" d="M979.04,125.57c-2.34,0-3.66-1.47-3.66-3.96c0-2.47,1.46-3.93,3.76-3.93c2.22,0,3.55,1.48,3.55,4.02
		C982.7,124.19,981.23,125.57,979.04,125.57z M979.1,119.15c-1.11,0-1.92,0.85-1.92,2.42c0,1.69,0.78,2.54,1.88,2.54
		c1.1,0,1.88-0.77,1.88-2.45C980.93,119.99,980.21,119.15,979.1,119.15z"/>
	<path class="st0" d="M984.13,125.36v-7.47h1.68v1.15c0.45-0.81,1.04-1.24,2.07-1.24c0.24,0,0.42,0.03,0.64,0.09v1.77
		c-0.29-0.15-0.51-0.21-0.84-0.21c-0.58,0-1.08,0.25-1.41,0.73c-0.25,0.38-0.39,0.9-0.39,1.69v3.48H984.13z"/>
	<path class="st0" d="M989.5,116.42v-1.65h1.79v1.65H989.5z M991.28,125.36h-1.77v-7.47h1.77V125.36z"/>
	<path class="st0" d="M997.85,125.36v-4.29c0-0.58-0.06-1.02-0.27-1.32c-0.2-0.28-0.53-0.42-1.01-0.42c-0.48,0-0.97,0.25-1.27,0.66
		c-0.38,0.49-0.43,1.05-0.43,1.77v3.6h-1.76v-7.47h1.74V119c0.54-0.76,1.42-1.24,2.47-1.24c0.9,0,1.49,0.31,1.86,0.88
		c0.3,0.45,0.42,1.04,0.42,2.04v4.68H997.85z"/>
	<path class="st0" d="M1006.15,124.32c-0.53,0.65-1.25,0.96-2.21,0.96c-1.83,0-3-1.39-3-3.75c0-2.34,1.26-3.77,3.11-3.77
		c1.04,0,1.75,0.38,2.17,1.05v-0.92h1.74v6.96c0,1.54-0.36,2.52-1.15,3.08c-0.59,0.42-1.44,0.6-2.4,0.6c-1.81,0-2.97-0.79-3.3-2.34
		l1.84-0.33c0.13,0.83,0.69,1.25,1.5,1.25c0.72,0,1.17-0.21,1.43-0.63c0.21-0.31,0.27-0.83,0.27-1.46V124.32z M1004.56,119.22
		c-1.11,0-1.8,0.84-1.8,2.29c0,1.53,0.68,2.4,1.74,2.4c1.02,0,1.68-0.72,1.7-2.23C1006.19,120.15,1005.64,119.22,1004.56,119.22z"/>
</g>
<g>
	<path class="st0" d="M493.12,310.36v-10.59h1.9v8.94h4.99v1.65H493.12z"/>
	<path class="st0" d="M501.3,301.42v-1.65h1.79v1.65H501.3z M503.08,310.36h-1.77v-7.47h1.77V310.36z"/>
	<path class="st0" d="M506.73,310.36l-2.73-7.47h1.95c0.87,2.55,1.38,4.09,1.85,5.68c0.44-1.53,0.93-3.15,1.8-5.68h1.86l-2.68,7.47
		H506.73z"/>
	<path class="st0" d="M512.35,301.42v-1.65h1.79v1.65H512.35z M514.14,310.36h-1.77v-7.47h1.77V310.36z"/>
	<path class="st0" d="M520.71,310.36v-4.29c0-0.58-0.06-1.02-0.27-1.32c-0.19-0.28-0.52-0.42-1-0.42s-0.98,0.25-1.27,0.66
		c-0.38,0.49-0.44,1.05-0.44,1.77v3.6h-1.75v-7.47h1.74V304c0.54-0.76,1.43-1.24,2.48-1.24c0.9,0,1.48,0.31,1.86,0.88
		c0.3,0.45,0.42,1.04,0.42,2.04v4.68H520.71z"/>
	<path class="st0" d="M529,309.32c-0.52,0.65-1.25,0.96-2.21,0.96c-1.83,0-3-1.39-3-3.75c0-2.34,1.26-3.77,3.1-3.77
		c1.04,0,1.75,0.38,2.17,1.05v-0.92h1.74v6.96c0,1.54-0.36,2.52-1.16,3.08c-0.58,0.42-1.44,0.6-2.4,0.6c-1.81,0-2.97-0.79-3.3-2.34
		l1.85-0.33c0.13,0.83,0.69,1.25,1.5,1.25c0.72,0,1.17-0.21,1.42-0.63c0.21-0.31,0.27-0.83,0.27-1.46V309.32z M527.41,304.22
		c-1.11,0-1.8,0.84-1.8,2.29c0,1.53,0.68,2.4,1.74,2.4c1.02,0,1.68-0.72,1.69-2.23C529.05,305.15,528.49,304.22,527.41,304.22z"/>
	<path class="st0" d="M537.48,310.36v-1.05c-0.48,0.7-1.19,1.2-2.23,1.2c-1.72,0-3-1.32-3-3.91c0-2.45,1.38-3.85,3.1-3.85
		c1.11,0,1.73,0.4,2.13,0.98v-3.94h1.71v10.59H537.48z M535.78,304.19c-1.04,0-1.74,0.79-1.74,2.38c0,1.5,0.63,2.46,1.66,2.46
		c1.04,0,1.77-0.81,1.77-2.4C537.48,305.14,536.83,304.19,535.78,304.19z"/>
	<path class="st0" d="M544.27,310.57c-2.34,0-3.66-1.47-3.66-3.96c0-2.47,1.46-3.93,3.77-3.93c2.22,0,3.55,1.48,3.55,4.02
		C547.93,309.19,546.46,310.57,544.27,310.57z M544.33,304.15c-1.11,0-1.92,0.85-1.92,2.42c0,1.69,0.78,2.54,1.88,2.54
		c1.09,0,1.87-0.77,1.87-2.45C546.16,304.99,545.44,304.15,544.33,304.15z"/>
	<path class="st0" d="M554.01,305.47c-0.21-0.99-0.75-1.32-1.46-1.32c-1.02,0-1.8,0.77-1.8,2.43c0,1.65,0.69,2.52,1.84,2.52
		c0.79,0,1.27-0.42,1.46-1.22l1.57,0.54c-0.44,1.25-1.42,2.15-3.12,2.15c-2.17,0-3.56-1.5-3.56-3.96c0-2.44,1.41-3.93,3.65-3.93
		c1.62,0,2.64,0.92,2.98,2.25L554.01,305.47z"/>
	<path class="st0" d="M557.4,307.99c0.39,0.77,1.08,1.22,1.9,1.22c0.77,0,1.19-0.33,1.19-0.78c0-0.49-0.25-0.7-1.38-1.06l-0.79-0.25
		c-1.15-0.36-1.89-1.04-1.89-2.17c0-1.17,1.05-2.25,2.9-2.25c1.19,0,2.28,0.45,2.94,1.5l-1.3,0.88c-0.38-0.66-0.95-1.05-1.67-1.05
		c-0.75,0-1.11,0.3-1.11,0.73c0,0.45,0.24,0.66,1.2,0.96l0.79,0.24c1.32,0.42,2.07,1.03,2.07,2.23c0,1.38-1.15,2.38-3.01,2.38
		c-1.53,0-2.56-0.73-3.19-1.68L557.4,307.99z"/>
	<path class="st0" d="M493.12,328.36v-10.59h7.36v1.63h-5.44v2.7h5.02v1.64h-5.02v2.97h5.74v1.65H493.12z"/>
	<path class="st0" d="M506.7,328.36v-1.05c-0.48,0.7-1.18,1.2-2.23,1.2c-1.72,0-3-1.32-3-3.91c0-2.45,1.38-3.85,3.1-3.85
		c1.11,0,1.73,0.4,2.13,0.98v-3.94h1.71v10.59H506.7z M505,322.19c-1.04,0-1.74,0.79-1.74,2.38c0,1.5,0.63,2.46,1.66,2.46
		c1.04,0,1.77-0.81,1.77-2.4C506.7,323.14,506.05,322.19,505,322.19z"/>
	<path class="st0" d="M510.22,319.42v-1.65h1.79v1.65H510.22z M512.01,328.36h-1.77v-7.47h1.77V328.36z"/>
	<path class="st0" d="M517.48,328.33c-0.39,0.1-0.87,0.16-1.31,0.16c-0.73,0-1.23-0.18-1.53-0.54c-0.31-0.36-0.42-0.89-0.42-1.58
		v-4.08h-1.17v-1.41h1.2v-2.43H516v2.43h1.46v1.41H516v3.73c0,0.76,0.23,1.03,0.77,1.03c0.21,0,0.48-0.04,0.72-0.13V328.33z"/>
	<path class="st0" d="M521.8,328.57c-2.34,0-3.66-1.47-3.66-3.96c0-2.47,1.46-3.93,3.77-3.93c2.22,0,3.55,1.48,3.55,4.02
		C525.46,327.19,523.99,328.57,521.8,328.57z M521.86,322.15c-1.11,0-1.92,0.85-1.92,2.42c0,1.69,0.78,2.54,1.88,2.54
		c1.09,0,1.87-0.77,1.87-2.45C523.69,322.99,522.97,322.15,521.86,322.15z"/>
	<path class="st0" d="M526.89,328.36v-7.47h1.68v1.15c0.45-0.81,1.04-1.24,2.07-1.24c0.24,0,0.42,0.03,0.64,0.09v1.77
		c-0.28-0.15-0.51-0.21-0.84-0.21c-0.58,0-1.08,0.25-1.41,0.73c-0.26,0.38-0.39,0.9-0.39,1.69v3.48H526.89z"/>
</g>
<g>
	<path class="st0" d="M793.12,310.36v-10.59h1.9v8.94h4.99v1.65H793.12z"/>
	<path class="st0" d="M801.3,301.42v-1.65h1.79v1.65H801.3z M803.08,310.36h-1.77v-7.47h1.77V310.36z"/>
	<path class="st0" d="M806.73,310.36l-2.73-7.47h1.95c0.87,2.55,1.38,4.09,1.84,5.68c0.43-1.53,0.93-3.15,1.8-5.68h1.86l-2.68,7.47
		H806.73z"/>
	<path class="st0" d="M812.35,301.42v-1.65h1.79v1.65H812.35z M814.14,310.36h-1.77v-7.47h1.77V310.36z"/>
	<path class="st0" d="M820.71,310.36v-4.29c0-0.58-0.06-1.02-0.27-1.32c-0.19-0.28-0.52-0.42-1-0.42s-0.97,0.25-1.28,0.66
		c-0.38,0.49-0.43,1.05-0.43,1.77v3.6h-1.75v-7.47h1.74V304c0.54-0.76,1.42-1.24,2.47-1.24c0.9,0,1.48,0.31,1.86,0.88
		c0.3,0.45,0.42,1.04,0.42,2.04v4.68H820.71z"/>
	<path class="st0" d="M829,309.32c-0.53,0.65-1.25,0.96-2.21,0.96c-1.83,0-3-1.39-3-3.75c0-2.34,1.26-3.77,3.1-3.77
		c1.04,0,1.75,0.38,2.17,1.05v-0.92h1.74v6.96c0,1.54-0.36,2.52-1.16,3.08c-0.58,0.42-1.44,0.6-2.4,0.6c-1.82,0-2.97-0.79-3.3-2.34
		l1.85-0.33c0.13,0.83,0.69,1.25,1.5,1.25c0.72,0,1.17-0.21,1.42-0.63c0.21-0.31,0.27-0.83,0.27-1.46V309.32z M827.41,304.22
		c-1.11,0-1.8,0.84-1.8,2.29c0,1.53,0.68,2.4,1.74,2.4c1.02,0,1.68-0.72,1.7-2.23C829.05,305.15,828.49,304.22,827.41,304.22z"/>
	<path class="st0" d="M837.48,310.36v-1.05c-0.48,0.7-1.19,1.2-2.24,1.2c-1.72,0-3-1.32-3-3.91c0-2.45,1.38-3.85,3.1-3.85
		c1.11,0,1.73,0.4,2.13,0.98v-3.94h1.71v10.59H837.48z M835.78,304.19c-1.04,0-1.74,0.79-1.74,2.38c0,1.5,0.63,2.46,1.67,2.46
		c1.04,0,1.77-0.81,1.77-2.4C837.48,305.14,836.83,304.19,835.78,304.19z"/>
	<path class="st0" d="M844.27,310.57c-2.34,0-3.66-1.47-3.66-3.96c0-2.47,1.46-3.93,3.77-3.93c2.22,0,3.55,1.48,3.55,4.02
		C847.93,309.19,846.46,310.57,844.27,310.57z M844.33,304.15c-1.11,0-1.92,0.85-1.92,2.42c0,1.69,0.78,2.54,1.88,2.54
		c1.09,0,1.87-0.77,1.87-2.45C846.16,304.99,845.44,304.15,844.33,304.15z"/>
	<path class="st0" d="M854.01,305.47c-0.21-0.99-0.75-1.32-1.46-1.32c-1.02,0-1.8,0.77-1.8,2.43c0,1.65,0.69,2.52,1.84,2.52
		c0.79,0,1.28-0.42,1.46-1.22l1.58,0.54c-0.43,1.25-1.42,2.15-3.12,2.15c-2.17,0-3.55-1.5-3.55-3.96c0-2.44,1.41-3.93,3.64-3.93
		c1.62,0,2.64,0.92,2.99,2.25L854.01,305.47z"/>
	<path class="st0" d="M857.4,307.99c0.39,0.77,1.08,1.22,1.9,1.22c0.77,0,1.19-0.33,1.19-0.78c0-0.49-0.25-0.7-1.38-1.06l-0.79-0.25
		c-1.16-0.36-1.89-1.04-1.89-2.17c0-1.17,1.05-2.25,2.89-2.25c1.19,0,2.28,0.45,2.94,1.5l-1.3,0.88c-0.38-0.66-0.95-1.05-1.66-1.05
		c-0.75,0-1.11,0.3-1.11,0.73c0,0.45,0.24,0.66,1.2,0.96l0.79,0.24c1.32,0.42,2.07,1.03,2.07,2.23c0,1.38-1.16,2.38-3.01,2.38
		c-1.53,0-2.56-0.73-3.2-1.68L857.4,307.99z"/>
	<path class="st0" d="M793.95,325.06c0.63,1.26,1.62,1.88,2.79,1.88c1.29,0,2-0.51,2-1.33c0-0.75-0.46-1.05-2.04-1.6l-1.14-0.41
		c-1.8-0.64-2.62-1.47-2.62-3c0-1.81,1.63-3.06,3.79-3.06c1.81,0,3.21,0.77,4.05,2.16l-1.53,1.09c-0.71-1.2-1.62-1.63-2.7-1.63
		c-1.05,0-1.65,0.52-1.65,1.24c0,0.69,0.39,1.04,1.77,1.49l1.21,0.4c1.96,0.63,2.87,1.52,2.87,3.1c0,1.9-1.58,3.22-4.04,3.22
		c-1.92,0-3.46-0.9-4.33-2.43L793.95,325.06z"/>
	<path class="st0" d="M808.74,326.48c-0.55,1.35-1.69,2.1-3.25,2.1c-2.4,0-3.69-1.56-3.69-4.04c0-2.38,1.44-3.87,3.62-3.87
		c2.37,0,3.36,1.73,3.37,4.4h-5.22c0.06,1.29,0.76,2.02,1.95,2.02c0.77,0,1.41-0.3,1.68-1.16L808.74,326.48z M807,323.81
		c-0.06-1.17-0.67-1.77-1.63-1.77s-1.67,0.6-1.79,1.77H807z"/>
	<path class="st0" d="M810.15,328.36v-7.47h1.68v1.15c0.45-0.81,1.04-1.24,2.07-1.24c0.24,0,0.42,0.03,0.64,0.09v1.77
		c-0.28-0.15-0.51-0.21-0.84-0.21c-0.58,0-1.08,0.25-1.41,0.73c-0.26,0.38-0.39,0.9-0.39,1.69v3.48H810.15z"/>
	<path class="st0" d="M817.51,328.36l-2.73-7.47h1.95c0.87,2.55,1.38,4.09,1.84,5.68c0.43-1.53,0.93-3.15,1.8-5.68h1.86l-2.68,7.47
		H817.51z"/>
	<path class="st0" d="M829.53,326.48c-0.55,1.35-1.7,2.1-3.26,2.1c-2.4,0-3.69-1.56-3.69-4.04c0-2.38,1.44-3.87,3.62-3.87
		c2.37,0,3.36,1.73,3.38,4.4h-5.22c0.06,1.29,0.77,2.02,1.95,2.02c0.76,0,1.41-0.3,1.68-1.16L829.53,326.48z M827.79,323.81
		c-0.06-1.17-0.67-1.77-1.63-1.77s-1.67,0.6-1.79,1.77H827.79z"/>
	<path class="st0" d="M830.94,328.36v-7.47h1.68v1.15c0.45-0.81,1.04-1.24,2.07-1.24c0.24,0,0.42,0.03,0.64,0.09v1.77
		c-0.29-0.15-0.51-0.21-0.84-0.21c-0.59,0-1.08,0.25-1.41,0.73c-0.26,0.38-0.39,0.9-0.39,1.69v3.48H830.94z"/>
</g>
</svg>
