<?xml version="1.0" encoding="utf-8"?>
<!-- Generator: Adobe Illustrator 24.2.3, SVG Export Plug-In . SVG Version: 6.00 Build 0)  -->
<svg version="1.1" id="Ebene_1" xmlns="http://www.w3.org/2000/svg" xmlns:xlink="http://www.w3.org/1999/xlink" x="0px" y="0px"
	 viewBox="0 0 100 100" style="enable-background:new 0 0 100 100;" xml:space="preserve">
<style type="text/css">
	.st0{fill:#ffcf30;}
	.st1{fill-rule:evenodd;clip-rule:evenodd;fill:#FFFFFF;}
</style>
<circle class="st0" cx="50" cy="50.5" r="50"/>
<g id="g6498" transform="translate(194.85,770.558)">
	<path id="path6500" class="st1" d="M-116.5-719.9l0.1-0.9c0.2-1.5-0.1-1.9-1.1-1.9c-0.8,0-1.2,0.4-1.4,1.9l-0.1,0.9H-116.5z
		 M-119.2-716.9l-0.2,1.9c-0.1,0.8-0.1,1.9,1,1.9c1.1,0,1.3-1,1.5-2.6h5.5c-0.2,2.1-1,3.5-2.3,4.5c-1.3,0.9-3,1.3-5,1.3
		c-6.6,0-7-3.7-6.5-7.9c0.5-4.3,1.6-8,8.2-8c6.8,0,6.5,3.9,6,8.7l0,0.3H-119.2z M-142.4-710.4l0.2-1.7h-0.1c-1,1.5-2.5,2.1-4.5,2.1
		c-2.2,0-4-1.1-3.7-4l1.2-11.7h6.1l-1,10c-0.1,1.1,0.2,1.5,0.9,1.5c0.8,0,1.2-0.6,1.3-1.5l1.1-10h6.1l-1.6,15.2H-142.4z
		 M-155.9-719.9l0.1-0.9c0.2-1.5-0.1-1.9-1.1-1.9c-0.8,0-1.2,0.4-1.4,1.9l-0.1,0.9H-155.9z M-158.7-716.9l-0.2,1.9
		c-0.1,0.8-0.1,1.9,1,1.9c1.1,0,1.3-1,1.5-2.6h5.5c-0.2,2.1-1,3.5-2.3,4.5c-1.3,0.9-3,1.3-5,1.3c-6.6,0-7-3.7-6.5-7.9
		c0.5-4.3,1.6-8,8.2-8c6.8,0,6.5,3.9,6,8.7l0,0.3H-158.7z M-170.6-723.1l0.8-7.2h6.1l-2.1,19.9h-6.1l0.8-7.9h-3.1l-0.8,7.9h-6.1
		l2.1-19.9h6.2l-0.8,7.1H-170.6z M-132.6-725.6l0.4-4.2h6.1l-0.4,4.2h2.1l-0.4,3.7h-2.1l-0.7,6.6c-0.1,1,0,1.4,1,1.4
		c0.5,0,0.7,0,1-0.1l-0.4,3.7c-0.5,0.1-2.1,0.2-3,0.2c-3.5,0-5.2-0.1-4.9-3.5l0.9-8.2h-1.8l0.4-3.7H-132.6z"/>
</g>
</svg>
