<?xml version="1.0" encoding="utf-8"?>
<!-- Generator: Adobe Illustrator 24.2.3, SVG Export Plug-In . SVG Version: 6.00 Build 0)  -->
<svg version="1.1" id="labels_de" xmlns="http://www.w3.org/2000/svg" xmlns:xlink="http://www.w3.org/1999/xlink" x="0px" y="0px"
	 viewBox="0 0 601 750" style="enable-background:new 0 0 601 750;" xml:space="preserve">
<style type="text/css">
	.st0{fill:#FFFFFF;}
	.st1{enable-background:new    ;}
	.st2{fill:#3A2F3C;}
	.st3{fill:#3661b5;}
</style>
<rect x="258" y="69" class="st0" width="80" height="29"/>
<g class="st1">
	<path class="st2" d="M273.2,90.4l-2.7-4.2h-1.8v4.2h-1.9V79.8h3.4c1.4,0,2.4,0.1,3.2,0.4c1.1,0.4,1.6,1.3,1.6,2.7
		c0,1.7-1,2.7-2.6,3l3,4.5H273.2z M270.7,84.6c1,0,1.5-0.1,1.8-0.4c0.3-0.3,0.5-0.7,0.5-1.2c0-0.6-0.1-1-0.6-1.3
		c-0.3-0.2-0.9-0.3-1.7-0.3h-2v3.2H270.7z"/>
	<path class="st2" d="M283.1,88.5c-0.6,1.3-1.7,2.1-3.3,2.1c-2.4,0-3.7-1.6-3.7-4c0-2.4,1.4-3.9,3.6-3.9c2.4,0,3.4,1.7,3.4,4.4h-5.2
		c0.1,1.3,0.8,2,2,2c0.8,0,1.4-0.3,1.7-1.2L283.1,88.5z M281.4,85.8c-0.1-1.2-0.7-1.8-1.6-1.8s-1.7,0.6-1.8,1.8H281.4z"/>
	<path class="st2" d="M289.3,90.4v-1c-0.5,0.7-1.2,1.2-2.2,1.2c-1.7,0-3-1.3-3-3.9c0-2.4,1.4-3.9,3.1-3.9c1.1,0,1.7,0.4,2.1,1v-3.9
		h1.7v10.6H289.3z M287.6,84.2c-1,0-1.7,0.8-1.7,2.4c0,1.5,0.6,2.5,1.7,2.5c1,0,1.8-0.8,1.8-2.4C289.3,85.1,288.7,84.2,287.6,84.2z"
		/>
	<path class="st2" d="M297.1,85.3c0-0.4-0.1-0.7-0.3-0.9c-0.2-0.2-0.6-0.3-1-0.3c-0.9,0-1.3,0.5-1.4,1.3l-1.7-0.1
		c0.1-1.6,1.3-2.5,3.2-2.5c1,0,1.7,0.2,2.2,0.7c0.5,0.4,0.6,1,0.6,2.2v2.7c0,0.9,0.1,1.6,0.2,2h-1.7c-0.1-0.2-0.2-0.7-0.2-0.9
		c-0.6,0.7-1.4,1.1-2.4,1.1c-1.4,0-2.3-0.9-2.3-2.2c0-1,0.5-1.6,1.4-2c0.7-0.3,2.2-0.5,3.4-0.6V85.3z M297.1,86.9
		c-0.9,0-1.9,0.2-2.4,0.5c-0.5,0.2-0.6,0.5-0.6,0.9c0,0.5,0.4,0.9,1.1,0.9c0.7,0,1.2-0.3,1.6-0.8c0.2-0.3,0.3-0.8,0.3-1.2V86.9z"/>
	<path class="st2" d="M305.5,90.4l-2.1-3.4l-1.1,1.2v2.2h-1.8V79.8h1.8v6.3l2.8-3.2h2.1l-2.6,2.8l2.9,4.6H305.5z"/>
	<path class="st2" d="M312.1,90.3c-0.4,0.1-0.9,0.2-1.3,0.2c-0.7,0-1.2-0.2-1.5-0.5c-0.3-0.4-0.4-0.9-0.4-1.6v-4.1h-1.2v-1.4h1.2
		v-2.4h1.7v2.4h1.5v1.4h-1.5V88c0,0.8,0.2,1,0.8,1c0.2,0,0.5,0,0.7-0.1V90.3z"/>
	<path class="st2" d="M313.2,81.4v-1.7h1.8v1.7H313.2z M314.9,90.4h-1.8v-7.5h1.8V90.4z"/>
	<path class="st2" d="M320,90.6c-2.3,0-3.7-1.5-3.7-4c0-2.5,1.5-3.9,3.8-3.9c2.2,0,3.6,1.5,3.6,4C323.7,89.2,322.2,90.6,320,90.6z
		 M320.1,84.1c-1.1,0-1.9,0.9-1.9,2.4c0,1.7,0.8,2.5,1.9,2.5s1.9-0.8,1.9-2.4C321.9,85,321.2,84.1,320.1,84.1z"/>
	<path class="st2" d="M329.9,90.4v-4.3c0-0.6-0.1-1-0.3-1.3c-0.2-0.3-0.5-0.4-1-0.4c-0.5,0-1,0.3-1.3,0.7c-0.4,0.5-0.4,1-0.4,1.8
		v3.6h-1.8v-7.5h1.7V84c0.5-0.8,1.4-1.2,2.5-1.2c0.9,0,1.5,0.3,1.9,0.9c0.3,0.5,0.4,1,0.4,2v4.7H329.9z"/>
</g>
<g class="st1">
	<path class="st3" d="M64.8,156.8H54.2v-4.4c0-1.5,0.2-2.3,0.6-2.9c0.6-0.8,1.5-1.2,2.6-1.2c1.2,0,2.2,0.4,2.8,1.3
		c0.4,0.8,0.6,1.9,0.6,3.1v2.1h4V156.8z M59.2,153c0-1-0.1-1.7-0.4-2.1c-0.3-0.4-0.7-0.5-1.3-0.5c-0.5,0-1,0.2-1.3,0.5
		c-0.3,0.4-0.4,0.9-0.4,2v2h3.4V153z"/>
	<path class="st3" d="M64.8,145.7v1.8H54.2v-1.8H64.8z"/>
	<path class="st3" d="M59.7,139.6c-0.4,0-0.7,0.1-0.9,0.3c-0.2,0.2-0.3,0.6-0.3,1c0,0.9,0.5,1.3,1.3,1.4l-0.1,1.7
		c-1.6-0.1-2.5-1.3-2.5-3.2c0-1,0.2-1.7,0.7-2.2c0.4-0.5,1-0.6,2.2-0.6h2.7c0.9,0,1.6-0.1,2-0.2v1.7c-0.2,0.1-0.7,0.2-0.9,0.2
		c0.7,0.6,1.1,1.4,1.1,2.4c0,1.4-0.9,2.3-2.2,2.3c-1,0-1.6-0.5-2-1.4c-0.3-0.7-0.5-2.2-0.6-3.4H59.7z M61.3,139.6
		c0,0.9,0.2,1.9,0.5,2.4c0.2,0.5,0.5,0.6,0.9,0.6c0.5,0,0.9-0.4,0.9-1.1c0-0.7-0.3-1.2-0.8-1.6c-0.3-0.2-0.8-0.3-1.2-0.3H61.3z"/>
	<path class="st3" d="M64.8,131.4h-4.3c-0.6,0-1,0.1-1.3,0.3c-0.3,0.2-0.4,0.5-0.4,1s0.3,1,0.7,1.3c0.5,0.4,1,0.4,1.8,0.4h3.6v1.8
		h-7.5v-1.7h1.1c-0.8-0.5-1.2-1.4-1.2-2.5c0-0.9,0.3-1.5,0.9-1.9c0.5-0.3,1-0.4,2-0.4h4.7V131.4z"/>
	<path class="st3" d="M57.3,126.2h4.3c0.5,0,0.9-0.1,1.2-0.2c0.4-0.2,0.6-0.6,0.6-1.1c0-0.5-0.3-0.9-0.6-1.2
		c-0.4-0.3-0.9-0.5-1.6-0.5h-3.9v-1.8h7.5v1.7h-1.1c0.7,0.5,1.2,1.3,1.2,2.3c0,1-0.3,1.5-0.9,2c-0.5,0.3-1.1,0.5-2,0.5h-4.7V126.2z"
		/>
	<path class="st3" d="M64.8,114.9h-4.3c-0.6,0-1,0.1-1.3,0.3c-0.3,0.2-0.4,0.5-0.4,1s0.3,1,0.7,1.3c0.5,0.4,1,0.4,1.8,0.4h3.6v1.8
		h-7.5v-1.7h1.1c-0.8-0.5-1.2-1.4-1.2-2.5c0-0.9,0.3-1.5,0.9-1.9c0.5-0.3,1-0.4,2-0.4h4.7V114.9z"/>
	<path class="st3" d="M63.8,106.6c0.6,0.5,1,1.2,1,2.2c0,1.8-1.4,3-3.8,3c-2.3,0-3.8-1.3-3.8-3.1c0-1,0.4-1.8,1-2.2h-0.9v-1.7h7
		c1.5,0,2.5,0.4,3.1,1.2c0.4,0.6,0.6,1.4,0.6,2.4c0,1.8-0.8,3-2.3,3.3l-0.3-1.8c0.8-0.1,1.2-0.7,1.2-1.5c0-0.7-0.2-1.2-0.6-1.4
		c-0.3-0.2-0.8-0.3-1.5-0.3H63.8z M58.7,108.2c0,1.1,0.8,1.8,2.3,1.8c1.5,0,2.4-0.7,2.4-1.7c0-1-0.7-1.7-2.2-1.7
		C59.6,106.6,58.7,107.2,58.7,108.2z"/>
	<path class="st3" d="M60.5,91c0.9,0.4,1.7,0.8,2.3,1.3l0.2-0.2c0.3-0.3,0.5-0.5,0.5-1c0-0.1,0-0.2,0-0.3h1.5c0,0.2,0,0.4,0,0.6
		c0,0.8,0,1.3-0.9,2.2c0.8,0.9,1,1.9,1,3c0,2.1-1.2,3.5-3,3.5c-1.3,0-2.2-0.5-3.2-2.5c-0.8,0.5-1.4,0.8-2.1,0.8
		c-1.4,0-2.4-1-2.4-2.7c0-1.5,0.9-2.5,2.1-2.5c1.1,0,1.9,0.5,2.9,2.1l2.4-1.9c-0.5-0.4-1.1-0.7-1.9-0.9L60.5,91z M56.4,94.7
		c-0.5,0-0.9,0.4-0.9,1c0,0.6,0.4,1,0.9,1c0.4,0,0.8-0.1,1.5-0.7C57.5,95,57,94.7,56.4,94.7z M59.9,96.7c0.7,1.2,1.2,1.5,2,1.5
		c1,0,1.6-0.8,1.6-1.9c0-0.7-0.2-1.3-0.7-1.8L59.9,96.7z"/>
</g>
<g class="st1">
	<path class="st3" d="M72.2,154.7c0-1.2,0.1-1.9,0.4-2.4c0.4-0.7,1.2-1.2,2.2-1.2c1.1,0,2,0.6,2.3,1.8c0.3-1.5,1.3-2.2,2.6-2.2
		c1.1,0,2,0.5,2.5,1.3c0.4,0.6,0.5,1.5,0.5,3v4.1H72.2V154.7z M76.5,157.3v-2.2c0-0.6-0.1-1.1-0.2-1.4c-0.2-0.4-0.6-0.6-1.1-0.6
		s-0.9,0.1-1.1,0.6c-0.2,0.3-0.2,0.8-0.2,1.4v2.2H76.5z M81.2,157.3v-2.1c0-0.8-0.1-1.5-0.4-1.9c-0.2-0.3-0.6-0.5-1.2-0.5
		c-0.6,0-1,0.2-1.3,0.6c-0.2,0.4-0.3,0.9-0.3,1.7v2.2H81.2z"/>
	<path class="st3" d="M80.9,142.8c1.3,0.6,2.1,1.7,2.1,3.3c0,2.4-1.6,3.7-4,3.7c-2.4,0-3.9-1.4-3.9-3.6c0-2.4,1.7-3.4,4.4-3.4v5.2
		c1.3-0.1,2-0.8,2-2c0-0.8-0.3-1.4-1.2-1.7L80.9,142.8z M78.2,144.5c-1.2,0.1-1.8,0.7-1.8,1.6s0.6,1.7,1.8,1.8V144.5z"/>
	<path class="st3" d="M80.4,140.7c0.8-0.4,1.2-1.1,1.2-1.9c0-0.8-0.3-1.2-0.8-1.2c-0.5,0-0.7,0.3-1.1,1.4l-0.3,0.8
		c-0.4,1.2-1,1.9-2.2,1.9c-1.2,0-2.2-1.1-2.2-2.9c0-1.2,0.5-2.3,1.5-2.9l0.9,1.3c-0.7,0.4-1,0.9-1,1.7c0,0.8,0.3,1.1,0.7,1.1
		c0.4,0,0.7-0.2,1-1.2l0.2-0.8c0.4-1.3,1-2.1,2.2-2.1c1.4,0,2.4,1.2,2.4,3c0,1.5-0.7,2.6-1.7,3.2L80.4,140.7z"/>
	<path class="st3" d="M82.8,130.9c0.1,0.4,0.2,0.9,0.2,1.3c0,0.7-0.2,1.2-0.5,1.5c-0.4,0.3-0.9,0.4-1.6,0.4h-4.1v1.2h-1.4v-1.2h-2.4
		v-1.7h2.4v-1.5h1.4v1.5h3.7c0.8,0,1-0.2,1-0.8c0-0.2,0-0.5-0.1-0.7H82.8z"/>
	<path class="st3" d="M80.9,123.3c1.3,0.6,2.1,1.7,2.1,3.3c0,2.4-1.6,3.7-4,3.7c-2.4,0-3.9-1.4-3.9-3.6c0-2.4,1.7-3.4,4.4-3.4v5.2
		c1.3-0.1,2-0.8,2-2c0-0.8-0.3-1.4-1.2-1.7L80.9,123.3z M78.2,125c-1.2,0.1-1.8,0.7-1.8,1.6s0.6,1.7,1.8,1.8V125z"/>
	<path class="st3" d="M82.8,120.1v1.8H72.2v-1.8H82.8z"/>
	<path class="st3" d="M82.8,116.5v1.8H72.2v-1.8H82.8z"/>
	<path class="st3" d="M75.3,113h4.3c0.5,0,0.9-0.1,1.2-0.2c0.4-0.2,0.6-0.6,0.6-1.1c0-0.5-0.3-0.9-0.6-1.2c-0.4-0.3-0.9-0.5-1.6-0.5
		h-3.9v-1.8h7.5v1.7h-1.1c0.7,0.5,1.2,1.3,1.2,2.3c0,1-0.3,1.5-0.9,2c-0.5,0.3-1.1,0.5-2,0.5h-4.7V113z"/>
	<path class="st3" d="M82.8,101.7h-4.3c-0.6,0-1,0.1-1.3,0.3c-0.3,0.2-0.4,0.5-0.4,1s0.3,1,0.7,1.3c0.5,0.4,1,0.4,1.8,0.4h3.6v1.8
		h-7.5v-1.7h1.1c-0.8-0.5-1.2-1.4-1.2-2.5c0-0.9,0.3-1.5,0.9-1.9c0.5-0.3,1-0.4,2-0.4h4.7V101.7z"/>
	<path class="st3" d="M81.8,93.4c0.6,0.5,1,1.2,1,2.2c0,1.8-1.4,3-3.8,3c-2.3,0-3.8-1.3-3.8-3.1c0-1,0.4-1.8,1-2.2h-0.9v-1.7h7
		c1.5,0,2.5,0.4,3.1,1.2c0.4,0.6,0.6,1.4,0.6,2.4c0,1.8-0.8,3-2.3,3.3l-0.3-1.8c0.8-0.1,1.2-0.7,1.2-1.5c0-0.7-0.2-1.2-0.6-1.4
		c-0.3-0.2-0.8-0.3-1.5-0.3H81.8z M76.7,95c0,1.1,0.8,1.8,2.3,1.8c1.5,0,2.4-0.7,2.4-1.7c0-1-0.7-1.7-2.2-1.7
		C77.6,93.4,76.7,93.9,76.7,95z"/>
</g>
<g class="st1">
	<path class="st3" d="M65,373.1H54.4v-4.4c0-1.5,0.2-2.3,0.6-2.9c0.6-0.8,1.5-1.2,2.6-1.2c1.2,0,2.2,0.4,2.8,1.3
		c0.4,0.8,0.6,1.9,0.6,3.1v2.1h4V373.1z M59.4,369.3c0-1-0.1-1.7-0.4-2.1c-0.3-0.4-0.7-0.5-1.3-0.5c-0.5,0-1,0.2-1.3,0.5
		c-0.3,0.4-0.4,0.9-0.4,2v2h3.4V369.3z"/>
	<path class="st3" d="M65,363.9h-7.5v-1.7h1.2c-0.8-0.5-1.2-1-1.2-2.1c0-0.2,0-0.4,0.1-0.6h1.8c-0.1,0.3-0.2,0.5-0.2,0.8
		c0,0.6,0.3,1.1,0.7,1.4c0.4,0.3,0.9,0.4,1.7,0.4H65V363.9z"/>
	<path class="st3" d="M65.2,355.3c0,2.3-1.5,3.7-4,3.7c-2.5,0-3.9-1.5-3.9-3.8c0-2.2,1.5-3.6,4-3.6
		C63.9,351.6,65.2,353.1,65.2,355.3z M58.8,355.2c0,1.1,0.9,1.9,2.4,1.9c1.7,0,2.5-0.8,2.5-1.9c0-1.1-0.8-1.9-2.4-1.9
		C59.7,353.4,58.8,354.1,58.8,355.2z"/>
	<path class="st3" d="M65,345.4h-1c0.7,0.5,1.2,1.2,1.2,2.2c0,1.7-1.3,3-3.9,3c-2.4,0-3.9-1.4-3.9-3.1c0-1.1,0.4-1.7,1-2.1h-3.9
		v-1.7H65V345.4z M58.9,347.1c0,1,0.8,1.7,2.4,1.7c1.5,0,2.5-0.6,2.5-1.7c0-1-0.8-1.8-2.4-1.8C59.8,345.4,58.9,346,58.9,347.1z"/>
	<path class="st3" d="M57.6,340.2h4.3c0.5,0,0.9-0.1,1.2-0.2c0.4-0.2,0.6-0.6,0.6-1.1c0-0.5-0.3-0.9-0.6-1.2
		c-0.4-0.3-0.9-0.5-1.6-0.5h-3.9v-1.8H65v1.7H64c0.7,0.5,1.2,1.3,1.2,2.3c0,1-0.3,1.5-0.9,2c-0.5,0.3-1.1,0.5-2,0.5h-4.7V340.2z"/>
	<path class="st3" d="M65,328.7l-3.4,2.1l1.2,1.1H65v1.8H54.4v-1.8h6.3l-3.2-2.8v-2.1l2.8,2.6l4.6-2.9V328.7z"/>
	<path class="st3" d="M65,322.1c0.1,0.4,0.2,0.9,0.2,1.3c0,0.7-0.2,1.2-0.5,1.5c-0.4,0.3-0.9,0.4-1.6,0.4H59v1.2h-1.4v-1.2h-2.4
		v-1.7h2.4v-1.5H59v1.5h3.7c0.8,0,1-0.2,1-0.8c0-0.2,0-0.5-0.1-0.7H65z"/>
	<path class="st3" d="M56.1,321h-1.7v-1.8h1.7V321z M65,319.2v1.8h-7.5v-1.8H65z"/>
	<path class="st3" d="M65.2,314.2c0,2.3-1.5,3.7-4,3.7c-2.5,0-3.9-1.5-3.9-3.8c0-2.2,1.5-3.6,4-3.6C63.9,310.5,65.2,312,65.2,314.2z
		 M58.8,314.1c0,1.1,0.9,1.9,2.4,1.9c1.7,0,2.5-0.8,2.5-1.9c0-1.1-0.8-1.9-2.4-1.9C59.7,312.3,58.8,313,58.8,314.1z"/>
	<path class="st3" d="M65,304.3h-4.3c-0.6,0-1,0.1-1.3,0.3c-0.3,0.2-0.4,0.5-0.4,1s0.3,1,0.7,1.3c0.5,0.4,1,0.4,1.8,0.4H65v1.8h-7.5
		v-1.7h1.1c-0.8-0.5-1.2-1.4-1.2-2.5c0-0.9,0.3-1.5,0.9-1.9c0.5-0.3,1-0.4,2-0.4H65V304.3z"/>
	<path class="st3" d="M60.7,288.8c0.9,0.4,1.7,0.8,2.3,1.3l0.2-0.2c0.3-0.3,0.5-0.5,0.5-1c0-0.1,0-0.2,0-0.3H65c0,0.2,0,0.4,0,0.6
		c0,0.8,0,1.3-0.9,2.2c0.8,0.9,1,1.9,1,3c0,2.1-1.2,3.5-3,3.5c-1.3,0-2.2-0.5-3.2-2.5c-0.8,0.5-1.4,0.8-2.1,0.8
		c-1.4,0-2.4-1-2.4-2.7c0-1.5,0.9-2.5,2.1-2.5c1.1,0,1.9,0.5,2.9,2.1l2.4-1.9c-0.5-0.4-1.1-0.7-1.9-0.9L60.7,288.8z M56.6,292.5
		c-0.5,0-0.9,0.4-0.9,1c0,0.6,0.4,1,0.9,1c0.4,0,0.8-0.1,1.5-0.7C57.7,292.9,57.2,292.5,56.6,292.5z M60.1,294.5
		c0.7,1.2,1.2,1.5,2,1.5c1,0,1.6-0.8,1.6-1.9c0-0.7-0.2-1.3-0.7-1.8L60.1,294.5z"/>
</g>
<g class="st1">
	<path class="st3" d="M83,368.5l-2.5,0.8v4.2l2.5,0.9v2.1l-10.6-4v-2.1l10.6-3.9V368.5z M79.1,369.8c-1.7,0.6-3.2,1.1-4.7,1.6
		c1.1,0.3,2.1,0.7,4.7,1.6V369.8z"/>
	<path class="st3" d="M83,365.5h-7.5v-1.7h1.2c-0.8-0.5-1.2-1-1.2-2.1c0-0.2,0-0.4,0.1-0.6h1.8c-0.1,0.3-0.2,0.5-0.2,0.8
		c0,0.6,0.3,1.1,0.7,1.4c0.4,0.3,0.9,0.4,1.7,0.4H83V365.5z"/>
	<path class="st3" d="M83,360.1h-7.5v-1.7h1.2c-0.8-0.5-1.2-1-1.2-2.1c0-0.2,0-0.4,0.1-0.6h1.8c-0.1,0.3-0.2,0.5-0.2,0.8
		c0,0.6,0.3,1.1,0.7,1.4c0.4,0.3,0.9,0.4,1.7,0.4H83V360.1z"/>
	<path class="st3" d="M78,350.5c-0.4,0-0.7,0.1-0.9,0.3c-0.2,0.2-0.3,0.6-0.3,1c0,0.9,0.5,1.3,1.3,1.4l-0.1,1.7
		c-1.6-0.1-2.5-1.3-2.5-3.2c0-1,0.2-1.7,0.7-2.2c0.4-0.5,1-0.6,2.2-0.6H81c0.9,0,1.6-0.1,2-0.2v1.7c-0.2,0.1-0.7,0.2-0.9,0.2
		c0.7,0.6,1.1,1.4,1.1,2.4c0,1.4-0.9,2.3-2.2,2.3c-1,0-1.6-0.5-2-1.4c-0.3-0.7-0.5-2.2-0.6-3.4H78z M79.5,350.5
		c0,0.9,0.2,1.9,0.5,2.4c0.2,0.5,0.5,0.6,0.9,0.6c0.5,0,0.9-0.4,0.9-1.1c0-0.7-0.3-1.2-0.8-1.6c-0.3-0.2-0.8-0.3-1.2-0.3H79.5z"/>
	<path class="st3" d="M83,342.3h-4.3c-0.6,0-1,0.1-1.3,0.3c-0.3,0.2-0.4,0.5-0.4,1s0.3,1,0.7,1.3c0.5,0.4,1,0.4,1.8,0.4H83v1.8h-7.5
		v-1.7h1.1c-0.8-0.5-1.2-1.4-1.2-2.5c0-0.9,0.3-1.5,0.9-1.9c0.5-0.3,1-0.4,2-0.4H83V342.3z"/>
	<path class="st3" d="M82,334c0.6,0.5,1,1.2,1,2.2c0,1.8-1.4,3-3.8,3c-2.3,0-3.8-1.3-3.8-3.1c0-1,0.4-1.8,1-2.2h-0.9v-1.7h7
		c1.5,0,2.5,0.4,3.1,1.2c0.4,0.6,0.6,1.4,0.6,2.4c0,1.8-0.8,3-2.3,3.3l-0.3-1.8c0.8-0.1,1.2-0.7,1.2-1.5c0-0.7-0.2-1.2-0.6-1.4
		c-0.3-0.2-0.8-0.3-1.5-0.3H82z M76.9,335.6c0,1.1,0.8,1.8,2.3,1.8c1.5,0,2.4-0.7,2.4-1.7c0-1-0.7-1.7-2.2-1.7
		C77.8,333.9,76.9,334.5,76.9,335.6z"/>
	<path class="st3" d="M81.2,323.8c1.3,0.6,2.1,1.7,2.1,3.3c0,2.4-1.6,3.7-4,3.7c-2.4,0-3.9-1.4-3.9-3.6c0-2.4,1.7-3.4,4.4-3.4v5.2
		c1.3-0.1,2-0.8,2-2c0-0.8-0.3-1.4-1.2-1.7L81.2,323.8z M78.5,325.5c-1.2,0.1-1.8,0.7-1.8,1.6s0.6,1.7,1.8,1.8V325.5z"/>
	<path class="st3" d="M75.6,320.6h1.1c-0.8-0.6-1.2-1.4-1.2-2.4c0-1.1,0.5-1.7,1.3-2c-0.8-0.6-1.3-1.5-1.3-2.6
		c0-0.9,0.4-1.6,1.2-1.9c0.5-0.2,1-0.2,2-0.2H83v1.8h-4c-0.8,0-1.2,0.1-1.5,0.2c-0.3,0.2-0.5,0.5-0.5,0.9s0.2,0.9,0.6,1.2
		c0.5,0.4,1,0.5,1.9,0.5H83v1.8h-4.1c-0.8,0-1.1,0-1.4,0.2c-0.4,0.2-0.5,0.5-0.5,1c0,0.5,0.3,1,0.7,1.3s0.9,0.4,1.8,0.4H83v1.8h-7.5
		V320.6z"/>
	<path class="st3" d="M81.2,303.2c1.3,0.6,2.1,1.7,2.1,3.3c0,2.4-1.6,3.7-4,3.7c-2.4,0-3.9-1.4-3.9-3.6c0-2.4,1.7-3.4,4.4-3.4v5.2
		c1.3-0.1,2-0.8,2-2c0-0.8-0.3-1.4-1.2-1.7L81.2,303.2z M78.5,304.9c-1.2,0.1-1.8,0.7-1.8,1.6s0.6,1.7,1.8,1.8V304.9z"/>
	<path class="st3" d="M83,297h-4.3c-0.6,0-1,0.1-1.3,0.3c-0.3,0.2-0.4,0.5-0.4,1s0.3,1,0.7,1.3c0.5,0.4,1,0.4,1.8,0.4H83v1.8h-7.5
		V300h1.1c-0.8-0.5-1.2-1.4-1.2-2.5c0-0.9,0.3-1.5,0.9-1.9c0.5-0.3,1-0.4,2-0.4H83V297z"/>
	<path class="st3" d="M83,289.9c0.1,0.4,0.2,0.9,0.2,1.3c0,0.7-0.2,1.2-0.5,1.5c-0.4,0.3-0.9,0.4-1.6,0.4H77v1.2h-1.4v-1.2h-2.4
		v-1.7h2.4v-1.5H77v1.5h3.7c0.8,0,1-0.2,1-0.8c0-0.2,0-0.5-0.1-0.7H83z"/>
</g>
<g class="st1">
	<path class="st3" d="M64.9,673.6l-2.5,0.8v4.2l2.5,0.9v2.1l-10.6-4v-2.1l10.6-3.9V673.6z M61,674.9c-1.7,0.6-3.2,1.1-4.7,1.6
		c1.1,0.3,2.1,0.7,4.7,1.7V674.9z"/>
	<path class="st3" d="M57.5,668.9h4.3c0.5,0,0.9-0.1,1.2-0.2c0.4-0.2,0.6-0.6,0.6-1.1c0-0.5-0.3-0.9-0.6-1.2
		c-0.4-0.3-0.9-0.5-1.6-0.5h-3.9v-1.8h7.5v1.7h-1.1c0.7,0.5,1.2,1.3,1.2,2.3c0,1-0.3,1.5-0.9,2c-0.5,0.3-1.1,0.5-2,0.5h-4.7V668.9z"
		/>
	<path class="st3" d="M62.6,661.7c0.8-0.4,1.2-1.1,1.2-1.9c0-0.8-0.3-1.2-0.8-1.2c-0.5,0-0.7,0.3-1.1,1.4l-0.3,0.8
		c-0.4,1.2-1,1.9-2.2,1.9c-1.2,0-2.2-1-2.2-2.9c0-1.2,0.5-2.3,1.5-2.9l0.9,1.3c-0.7,0.4-1,0.9-1,1.7c0,0.8,0.3,1.1,0.7,1.1
		c0.4,0,0.7-0.2,1-1.2l0.2-0.8c0.4-1.3,1-2.1,2.2-2.1c1.4,0,2.4,1.2,2.4,3c0,1.5-0.7,2.6-1.7,3.2L62.6,661.7z"/>
	<path class="st3" d="M64.9,653.7v1.8H54.4v-1.8H64.9z"/>
	<path class="st3" d="M56,651.9h-1.7v-1.8H56V651.9z M64.9,650.1v1.8h-7.5v-1.8H64.9z"/>
	<path class="st3" d="M63.1,641.8c1.3,0.6,2.1,1.7,2.1,3.3c0,2.4-1.6,3.7-4,3.7c-2.4,0-3.9-1.4-3.9-3.6c0-2.4,1.7-3.4,4.4-3.4v5.2
		c1.3-0.1,2-0.8,2-2c0-0.8-0.3-1.4-1.2-1.7L63.1,641.8z M60.4,643.5c-1.2,0.1-1.8,0.7-1.8,1.6s0.6,1.7,1.8,1.8V643.5z"/>
	<path class="st3" d="M58.9,638.2h6.1v1.8h-6.1v1.3h-1.4v-1.3h-0.9c-0.9,0-1.5-0.2-1.8-0.6c-0.4-0.4-0.5-0.9-0.5-1.5
		c0-0.5,0-0.8,0.2-1.1h1.4c-0.1,0.2-0.2,0.5-0.2,0.7c0,0.3,0.1,0.6,0.3,0.7c0.2,0.1,0.4,0.1,0.8,0.1h0.7v-1.5h1.4V638.2z"/>
	<path class="st3" d="M63.1,629.5c1.3,0.6,2.1,1.7,2.1,3.3c0,2.4-1.6,3.7-4,3.7c-2.4,0-3.9-1.4-3.9-3.6c0-2.4,1.7-3.4,4.4-3.4v5.2
		c1.3-0.1,2-0.8,2-1.9c0-0.8-0.3-1.4-1.2-1.7L63.1,629.5z M60.4,631.3c-1.2,0.1-1.8,0.7-1.8,1.6s0.6,1.7,1.8,1.8V631.3z"/>
	<path class="st3" d="M64.9,628.1h-7.5v-1.7h1.2c-0.8-0.5-1.2-1-1.2-2.1c0-0.2,0-0.4,0.1-0.6h1.8c-0.1,0.3-0.2,0.5-0.2,0.8
		c0,0.6,0.3,1.1,0.7,1.4c0.4,0.3,0.9,0.4,1.7,0.4h3.5V628.1z"/>
	<path class="st3" d="M57.5,621.1h4.3c0.5,0,0.9-0.1,1.2-0.2c0.4-0.2,0.6-0.6,0.6-1.1c0-0.5-0.3-0.9-0.6-1.2
		c-0.4-0.3-0.9-0.5-1.6-0.5h-3.9v-1.8h7.5v1.7h-1.1c0.7,0.5,1.2,1.3,1.2,2.3c0,1-0.3,1.5-0.9,2c-0.5,0.3-1.1,0.5-2,0.5h-4.7V621.1z"
		/>
	<path class="st3" d="M64.9,609.8h-4.3c-0.6,0-1,0.1-1.3,0.3c-0.3,0.2-0.4,0.5-0.4,1c0,0.5,0.3,1,0.7,1.3c0.5,0.4,1,0.4,1.8,0.4h3.6
		v1.8h-7.5v-1.7h1.1c-0.8-0.5-1.2-1.4-1.2-2.5c0-0.9,0.3-1.5,0.9-1.9c0.5-0.3,1-0.4,2-0.4h4.7V609.8z"/>
	<path class="st3" d="M63.9,601.5c0.6,0.5,1,1.2,1,2.2c0,1.8-1.4,3-3.8,3c-2.3,0-3.8-1.3-3.8-3.1c0-1,0.4-1.8,1-2.2h-0.9v-1.7h7
		c1.5,0,2.5,0.4,3.1,1.2c0.4,0.6,0.6,1.4,0.6,2.4c0,1.8-0.8,3-2.3,3.3l-0.3-1.8c0.8-0.1,1.2-0.7,1.2-1.5c0-0.7-0.2-1.2-0.6-1.4
		c-0.3-0.2-0.8-0.3-1.5-0.3H63.9z M58.8,603.1c0,1.1,0.8,1.8,2.3,1.8c1.5,0,2.4-0.7,2.4-1.7c0-1-0.7-1.7-2.2-1.7
		C59.7,601.4,58.8,602,58.8,603.1z"/>
	<path class="st3" d="M60.6,585.8c0.9,0.4,1.7,0.8,2.3,1.3l0.2-0.2c0.3-0.3,0.5-0.5,0.5-1c0-0.1,0-0.2,0-0.3h1.5c0,0.2,0,0.4,0,0.6
		c0,0.8,0,1.3-0.9,2.2c0.8,0.9,1,1.9,1,3c0,2.1-1.2,3.5-3,3.5c-1.3,0-2.2-0.5-3.2-2.5c-0.8,0.5-1.4,0.8-2.1,0.8
		c-1.4,0-2.4-1-2.4-2.7c0-1.5,0.9-2.5,2.1-2.5c1.1,0,1.9,0.5,2.9,2.1l2.4-1.9c-0.5-0.4-1.1-0.7-1.9-0.9L60.6,585.8z M56.6,589.5
		c-0.5,0-0.9,0.4-0.9,1c0,0.6,0.4,1,0.9,1c0.4,0,0.8-0.2,1.5-0.7C57.6,589.9,57.1,589.5,56.6,589.5z M60,591.5
		c0.7,1.2,1.2,1.5,2,1.5c1,0,1.6-0.8,1.6-1.9c0-0.7-0.2-1.3-0.7-1.8L60,591.5z"/>
</g>
<g class="st1">
	<path class="st3" d="M77.6,666.4c-3.3,0-5.5-2-5.5-5c0-2.9,2.2-4.8,5.6-4.8c3.5,0,5.5,1.9,5.5,4.8C83.2,664.5,81,666.4,77.6,666.4z
		 M73.8,661.5c0,1.8,1.4,3,3.7,3c2.5,0,3.9-1.2,3.9-3c0-1.7-1.3-2.8-3.8-2.8C75.2,658.6,73.8,659.7,73.8,661.5z"/>
	<path class="st3" d="M75.5,653.3h1.1c-0.7-0.5-1.2-1.2-1.2-2.3c0-1.7,1.3-3,3.9-3c2.4,0,3.9,1.4,3.9,3.1c0,1.1-0.4,1.7-1,2.1h3.8
		v1.7H75.5V653.3z M81.6,651.6c0-1-0.8-1.7-2.4-1.7c-1.5,0-2.5,0.6-2.5,1.7s0.8,1.8,2.4,1.8C80.7,653.3,81.6,652.7,81.6,651.6z"/>
	<path class="st3" d="M82.9,643c0.1,0.4,0.2,0.9,0.2,1.3c0,0.7-0.2,1.2-0.5,1.5c-0.4,0.3-0.9,0.4-1.6,0.4h-4.1v1.2h-1.4v-1.2H73
		v-1.7h2.4v-1.5h1.4v1.5h3.7c0.8,0,1-0.2,1-0.8c0-0.2,0-0.5-0.1-0.7H82.9z"/>
	<path class="st3" d="M74,642h-1.7v-1.8H74V642z M82.9,640.2v1.8h-7.5v-1.8H82.9z"/>
	<path class="st3" d="M75.5,636.6h1.1c-0.8-0.6-1.2-1.4-1.2-2.4c0-1.1,0.5-1.7,1.3-2c-0.8-0.6-1.3-1.5-1.3-2.6
		c0-0.9,0.4-1.7,1.2-1.9c0.5-0.2,1-0.2,2-0.2h4.3v1.8h-4c-0.8,0-1.2,0.1-1.5,0.2c-0.3,0.2-0.5,0.5-0.5,0.9s0.2,0.9,0.6,1.2
		c0.5,0.4,1,0.5,1.9,0.5h3.6v1.8h-4.1c-0.8,0-1.1,0-1.4,0.2c-0.4,0.2-0.5,0.5-0.5,1c0,0.5,0.3,1,0.7,1.3c0.4,0.3,0.9,0.4,1.8,0.4
		h3.6v1.8h-7.5V636.6z"/>
	<path class="st3" d="M74,625.7h-1.7v-1.8H74V625.7z M82.9,623.9v1.8h-7.5v-1.8H82.9z"/>
	<path class="st3" d="M81.1,615.5c1.3,0.6,2.1,1.7,2.1,3.3c0,2.4-1.6,3.7-4,3.7c-2.4,0-3.9-1.4-3.9-3.6c0-2.4,1.7-3.4,4.4-3.4v5.2
		c1.3-0.1,2-0.8,2-1.9c0-0.8-0.3-1.4-1.2-1.7L81.1,615.5z M78.4,617.3c-1.2,0.1-1.8,0.7-1.8,1.6s0.6,1.7,1.8,1.8V617.3z"/>
	<path class="st3" d="M82.9,614.1h-7.5v-1.7h1.2c-0.8-0.5-1.2-1-1.2-2.1c0-0.2,0-0.4,0.1-0.6h1.8c-0.1,0.3-0.2,0.5-0.2,0.8
		c0,0.6,0.3,1.1,0.7,1.4c0.4,0.3,0.9,0.4,1.7,0.4h3.5V614.1z"/>
	<path class="st3" d="M75.5,607.1h4.3c0.5,0,0.9-0.1,1.2-0.2c0.4-0.2,0.6-0.6,0.6-1.1c0-0.5-0.3-0.9-0.6-1.2
		c-0.4-0.3-0.9-0.5-1.6-0.5h-3.9v-1.8h7.5v1.7h-1.1c0.7,0.5,1.2,1.3,1.2,2.3c0,1-0.3,1.5-0.9,2c-0.5,0.3-1.1,0.5-2,0.5h-4.7V607.1z"
		/>
	<path class="st3" d="M82.9,595.8h-4.3c-0.6,0-1,0.1-1.3,0.3c-0.3,0.2-0.4,0.5-0.4,1c0,0.5,0.3,1,0.7,1.3c0.5,0.4,1,0.4,1.8,0.4h3.6
		v1.8h-7.5v-1.7h1.1c-0.8-0.5-1.2-1.4-1.2-2.5c0-0.9,0.3-1.5,0.9-1.9c0.5-0.3,1-0.4,2-0.4h4.7V595.8z"/>
	<path class="st3" d="M81.9,587.5c0.6,0.5,1,1.2,1,2.2c0,1.8-1.4,3-3.8,3c-2.3,0-3.8-1.3-3.8-3.1c0-1,0.4-1.8,1-2.2h-0.9v-1.7h7
		c1.5,0,2.5,0.4,3.1,1.2c0.4,0.6,0.6,1.4,0.6,2.4c0,1.8-0.8,3-2.3,3.3l-0.3-1.8c0.8-0.1,1.2-0.7,1.2-1.5c0-0.7-0.2-1.2-0.6-1.4
		c-0.3-0.2-0.8-0.3-1.5-0.3H81.9z M76.8,589.1c0,1.1,0.8,1.8,2.3,1.8c1.5,0,2.4-0.7,2.4-1.7c0-1-0.7-1.7-2.2-1.7
		C77.7,587.4,76.8,588,76.8,589.1z"/>
</g>
<g class="st1">
	<path class="st2" d="M115.6,315.4v-10.6h1.9v8.9h5v1.7H115.6z"/>
	<path class="st2" d="M123.8,306.4v-1.7h1.8v1.7H123.8z M125.6,315.4h-1.8v-7.5h1.8V315.4z"/>
	<path class="st2" d="M129.2,315.4l-2.7-7.5h1.9c0.9,2.5,1.4,4.1,1.8,5.7c0.4-1.5,0.9-3.1,1.8-5.7h1.9l-2.7,7.5H129.2z"/>
	<path class="st2" d="M134.9,306.4v-1.7h1.8v1.7H134.9z M136.7,315.4h-1.8v-7.5h1.8V315.4z"/>
	<path class="st2" d="M143.2,315.4v-4.3c0-0.6-0.1-1-0.3-1.3c-0.2-0.3-0.5-0.4-1-0.4s-1,0.3-1.3,0.7c-0.4,0.5-0.4,1-0.4,1.8v3.6
		h-1.8v-7.5h1.7v1.1c0.5-0.8,1.4-1.2,2.5-1.2c0.9,0,1.5,0.3,1.9,0.9c0.3,0.5,0.4,1,0.4,2v4.7H143.2z"/>
	<path class="st2" d="M151.5,314.3c-0.5,0.6-1.2,1-2.2,1c-1.8,0-3-1.4-3-3.8c0-2.3,1.3-3.8,3.1-3.8c1,0,1.8,0.4,2.2,1v-0.9h1.7v7
		c0,1.5-0.4,2.5-1.2,3.1c-0.6,0.4-1.4,0.6-2.4,0.6c-1.8,0-3-0.8-3.3-2.3l1.8-0.3c0.1,0.8,0.7,1.2,1.5,1.2c0.7,0,1.2-0.2,1.4-0.6
		c0.2-0.3,0.3-0.8,0.3-1.5V314.3z M149.9,309.2c-1.1,0-1.8,0.8-1.8,2.3c0,1.5,0.7,2.4,1.7,2.4c1,0,1.7-0.7,1.7-2.2
		C151.6,310.2,151,309.2,149.9,309.2z"/>
	<path class="st2" d="M160,315.4v-1c-0.5,0.7-1.2,1.2-2.2,1.2c-1.7,0-3-1.3-3-3.9c0-2.4,1.4-3.9,3.1-3.9c1.1,0,1.7,0.4,2.1,1v-3.9
		h1.7v10.6H160z M158.3,309.2c-1,0-1.7,0.8-1.7,2.4c0,1.5,0.6,2.5,1.7,2.5c1,0,1.8-0.8,1.8-2.4C160,310.1,159.3,309.2,158.3,309.2z"
		/>
	<path class="st2" d="M166.8,315.6c-2.3,0-3.7-1.5-3.7-4c0-2.5,1.5-3.9,3.8-3.9c2.2,0,3.6,1.5,3.6,4
		C170.4,314.2,169,315.6,166.8,315.6z M166.8,309.1c-1.1,0-1.9,0.9-1.9,2.4c0,1.7,0.8,2.5,1.9,2.5c1.1,0,1.9-0.8,1.9-2.4
		C168.7,310,168,309.1,166.8,309.1z"/>
	<path class="st2" d="M176.5,310.5c-0.2-1-0.8-1.3-1.5-1.3c-1,0-1.8,0.8-1.8,2.4c0,1.7,0.7,2.5,1.8,2.5c0.8,0,1.3-0.4,1.5-1.2
		l1.6,0.5c-0.4,1.2-1.4,2.1-3.1,2.1c-2.2,0-3.6-1.5-3.6-4c0-2.4,1.4-3.9,3.6-3.9c1.6,0,2.6,0.9,3,2.2L176.5,310.5z"/>
	<path class="st2" d="M179.9,313c0.4,0.8,1.1,1.2,1.9,1.2c0.8,0,1.2-0.3,1.2-0.8c0-0.5-0.3-0.7-1.4-1.1l-0.8-0.3
		c-1.2-0.4-1.9-1-1.9-2.2c0-1.2,1.1-2.2,2.9-2.2c1.2,0,2.3,0.5,2.9,1.5l-1.3,0.9c-0.4-0.7-0.9-1-1.7-1c-0.8,0-1.1,0.3-1.1,0.7
		c0,0.4,0.2,0.7,1.2,1l0.8,0.2c1.3,0.4,2.1,1,2.1,2.2c0,1.4-1.2,2.4-3,2.4c-1.5,0-2.6-0.7-3.2-1.7L179.9,313z"/>
</g>
<g class="st1">
	<path class="st2" d="M121.1,631.1h-10.6v-7.3h1.6v5.4h2.8v-4.9h1.6v4.9h4.5V631.1z"/>
	<path class="st2" d="M119.2,616.6c1.3,0.6,2.1,1.7,2.1,3.3c0,2.4-1.6,3.7-4,3.7c-2.4,0-3.9-1.4-3.9-3.6c0-2.4,1.7-3.4,4.4-3.4v5.2
		c1.3-0.1,2-0.8,2-1.9c0-0.8-0.3-1.4-1.2-1.7L119.2,616.6z M116.5,618.4c-1.2,0.1-1.8,0.7-1.8,1.6s0.6,1.7,1.8,1.8V618.4z"/>
	<path class="st2" d="M119.2,608.7c1.3,0.6,2.1,1.7,2.1,3.3c0,2.4-1.6,3.7-4,3.7c-2.4,0-3.9-1.4-3.9-3.6c0-2.4,1.7-3.4,4.4-3.4v5.2
		c1.3-0.1,2-0.8,2-2c0-0.8-0.3-1.4-1.2-1.7L119.2,608.7z M116.5,610.4c-1.2,0.1-1.8,0.7-1.8,1.6s0.6,1.7,1.8,1.8V610.4z"/>
	<path class="st2" d="M121.1,602.5h-1c0.7,0.5,1.2,1.2,1.2,2.2c0,1.7-1.3,3-3.9,3c-2.4,0-3.9-1.4-3.9-3.1c0-1.1,0.4-1.7,1-2.1h-3.9
		v-1.7h10.6V602.5z M114.9,604.2c0,1,0.8,1.7,2.4,1.7c1.5,0,2.5-0.6,2.5-1.7c0-1-0.8-1.8-2.4-1.8
		C115.8,602.5,114.9,603.1,114.9,604.2z"/>
	<path class="st2" d="M110.5,597.2h4.1c-0.6-0.5-1.2-1.3-1.2-2.3c0-1.8,1.5-2.9,3.9-2.9c2.4,0,3.9,1.2,3.9,3.1c0,1-0.4,1.7-1.1,2.2
		h1v1.7h-10.6V597.2z M119.7,595.5c0-1-0.8-1.7-2.4-1.7c-1.5,0-2.4,0.6-2.4,1.6c0,1.1,0.9,1.8,2.3,1.8
		C118.8,597.2,119.7,596.6,119.7,595.5z"/>
	<path class="st2" d="M116,586.3c-0.4,0-0.7,0.1-0.9,0.3c-0.2,0.2-0.3,0.6-0.3,1c0,0.9,0.5,1.3,1.3,1.4l-0.1,1.7
		c-1.6-0.1-2.5-1.3-2.5-3.2c0-1,0.2-1.7,0.7-2.2c0.4-0.5,1-0.6,2.2-0.6h2.7c0.9,0,1.6-0.1,2-0.2v1.7c-0.2,0.1-0.7,0.2-0.9,0.2
		c0.7,0.6,1.1,1.4,1.1,2.4c0,1.4-0.9,2.3-2.2,2.3c-1,0-1.6-0.5-2-1.4c-0.3-0.7-0.5-2.2-0.6-3.4H116z M117.6,586.3
		c0,0.9,0.2,1.9,0.5,2.4c0.2,0.5,0.5,0.6,0.9,0.6c0.5,0,0.9-0.4,0.9-1.1c0-0.7-0.3-1.2-0.8-1.6c-0.3-0.2-0.8-0.3-1.2-0.3H117.6z"/>
	<path class="st2" d="M116.2,578.2c-1,0.2-1.3,0.8-1.3,1.5c0,1,0.8,1.8,2.4,1.8c1.7,0,2.5-0.7,2.5-1.8c0-0.8-0.4-1.3-1.2-1.5
		l0.5-1.6c1.2,0.4,2.1,1.4,2.1,3.1c0,2.2-1.5,3.6-4,3.6c-2.4,0-3.9-1.4-3.9-3.6c0-1.6,0.9-2.6,2.2-3L116.2,578.2z"/>
	<path class="st2" d="M121.1,570.5l-3.4,2.1l1.2,1.1h2.2v1.8h-10.6v-1.8h6.3l-3.2-2.8v-2.1l2.8,2.6l4.6-2.9V570.5z"/>
</g>
<g class="st1">
	<path class="st2" d="M523.1,631.1h-10.6v-7.3h1.6v5.4h2.8v-4.9h1.6v4.9h4.5V631.1z"/>
	<path class="st2" d="M521.2,616.6c1.3,0.6,2.1,1.7,2.1,3.3c0,2.4-1.6,3.7-4,3.7c-2.4,0-3.9-1.4-3.9-3.6c0-2.4,1.7-3.4,4.4-3.4v5.2
		c1.3-0.1,2-0.8,2-1.9c0-0.8-0.3-1.4-1.2-1.7L521.2,616.6z M518.5,618.4c-1.2,0.1-1.8,0.7-1.8,1.6s0.6,1.7,1.8,1.8V618.4z"/>
	<path class="st2" d="M521.2,608.7c1.3,0.6,2.1,1.7,2.1,3.3c0,2.4-1.6,3.7-4,3.7c-2.4,0-3.9-1.4-3.9-3.6c0-2.4,1.7-3.4,4.4-3.4v5.2
		c1.3-0.1,2-0.8,2-2c0-0.8-0.3-1.4-1.2-1.7L521.2,608.7z M518.5,610.4c-1.2,0.1-1.8,0.7-1.8,1.6s0.6,1.7,1.8,1.8V610.4z"/>
	<path class="st2" d="M523.1,602.5h-1c0.7,0.5,1.2,1.2,1.2,2.2c0,1.7-1.3,3-3.9,3c-2.4,0-3.9-1.4-3.9-3.1c0-1.1,0.4-1.7,1-2.1h-3.9
		v-1.7h10.6V602.5z M516.9,604.2c0,1,0.8,1.7,2.4,1.7c1.5,0,2.5-0.6,2.5-1.7c0-1-0.8-1.8-2.4-1.8
		C517.8,602.5,516.9,603.1,516.9,604.2z"/>
	<path class="st2" d="M512.5,597.2h4.1c-0.6-0.5-1.2-1.3-1.2-2.3c0-1.8,1.5-2.9,3.9-2.9c2.4,0,3.9,1.2,3.9,3.1c0,1-0.4,1.7-1.1,2.2
		h1v1.7h-10.6V597.2z M521.7,595.5c0-1-0.8-1.7-2.4-1.7c-1.5,0-2.4,0.6-2.4,1.6c0,1.1,0.9,1.8,2.3,1.8
		C520.8,597.2,521.7,596.6,521.7,595.5z"/>
	<path class="st2" d="M518,586.3c-0.4,0-0.7,0.1-0.9,0.3c-0.2,0.2-0.3,0.6-0.3,1c0,0.9,0.5,1.3,1.3,1.4l-0.1,1.7
		c-1.6-0.1-2.5-1.3-2.5-3.2c0-1,0.2-1.7,0.7-2.2c0.4-0.5,1-0.6,2.2-0.6h2.7c0.9,0,1.6-0.1,2-0.2v1.7c-0.2,0.1-0.7,0.2-0.9,0.2
		c0.7,0.6,1.1,1.4,1.1,2.4c0,1.4-0.9,2.3-2.2,2.3c-1,0-1.6-0.5-2-1.4c-0.3-0.7-0.5-2.2-0.6-3.4H518z M519.6,586.3
		c0,0.9,0.2,1.9,0.5,2.4c0.2,0.5,0.5,0.6,0.9,0.6c0.5,0,0.9-0.4,0.9-1.1c0-0.7-0.3-1.2-0.8-1.6c-0.3-0.2-0.8-0.3-1.2-0.3H519.6z"/>
	<path class="st2" d="M518.2,578.2c-1,0.2-1.3,0.8-1.3,1.5c0,1,0.8,1.8,2.4,1.8c1.7,0,2.5-0.7,2.5-1.8c0-0.8-0.4-1.3-1.2-1.5
		l0.5-1.6c1.2,0.4,2.1,1.4,2.1,3.1c0,2.2-1.5,3.6-4,3.6c-2.4,0-3.9-1.4-3.9-3.6c0-1.6,0.9-2.6,2.2-3L518.2,578.2z"/>
	<path class="st2" d="M523.1,570.5l-3.4,2.1l1.2,1.1h2.2v1.8h-10.6v-1.8h6.3l-3.2-2.8v-2.1l2.8,2.6l4.6-2.9V570.5z"/>
</g>
<g class="st1">
	<path class="st2" d="M178.4,720.4v-4.3c0-0.6-0.1-1.1-0.3-1.4c-0.2-0.3-0.5-0.4-1-0.4c-0.5,0-1,0.3-1.3,0.7c-0.4,0.5-0.4,1-0.4,1.8
		v3.6h-1.8v-10.6h1.7v4.2c0.5-0.8,1.4-1.2,2.5-1.2c0.9,0,1.5,0.3,1.8,0.8c0.3,0.5,0.4,1,0.4,2.2v4.6H178.4z"/>
	<path class="st2" d="M188.4,718.5c-0.6,1.3-1.7,2.1-3.3,2.1c-2.4,0-3.7-1.6-3.7-4c0-2.4,1.4-3.9,3.6-3.9c2.4,0,3.4,1.7,3.4,4.4
		h-5.2c0.1,1.3,0.8,2,2,2c0.8,0,1.4-0.3,1.7-1.2L188.4,718.5z M186.7,715.8c-0.1-1.2-0.7-1.8-1.6-1.8s-1.7,0.6-1.8,1.8H186.7z"/>
	<path class="st2" d="M191.5,712.9v4.3c0,0.5,0.1,0.9,0.2,1.2c0.2,0.4,0.6,0.6,1.1,0.6c0.5,0,0.9-0.3,1.2-0.6
		c0.3-0.4,0.5-0.9,0.5-1.6v-3.9h1.8v7.5h-1.7v-1.1c-0.5,0.7-1.3,1.2-2.3,1.2c-1,0-1.5-0.3-2-0.9c-0.3-0.5-0.5-1.1-0.5-2v-4.7H191.5z
		"/>
	<path class="st2" d="M201.7,720.3c-0.4,0.1-0.9,0.2-1.3,0.2c-0.7,0-1.2-0.2-1.5-0.5c-0.3-0.4-0.4-0.9-0.4-1.6v-4.1h-1.2v-1.4h1.2
		v-2.4h1.7v2.4h1.5v1.4h-1.5v3.7c0,0.8,0.2,1,0.8,1c0.2,0,0.5,0,0.7-0.1V720.3z"/>
	<path class="st2" d="M209.3,718.5c-0.6,1.3-1.7,2.1-3.3,2.1c-2.4,0-3.7-1.6-3.7-4c0-2.4,1.4-3.9,3.6-3.9c2.4,0,3.4,1.7,3.4,4.4
		h-5.2c0.1,1.3,0.8,2,2,2c0.8,0,1.4-0.3,1.7-1.2L209.3,718.5z M207.6,715.8c-0.1-1.2-0.7-1.8-1.6-1.8s-1.7,0.6-1.8,1.8H207.6z"/>
	<path class="st2" d="M212.4,720.4h-1.8v-2.2h1.8V720.4z"/>
	<path class="st2" d="M218.3,715.3c0-0.4-0.1-0.7-0.3-0.9c-0.2-0.2-0.6-0.3-1-0.3c-0.9,0-1.3,0.5-1.4,1.3l-1.7-0.1
		c0.1-1.6,1.3-2.5,3.2-2.5c1,0,1.7,0.2,2.2,0.7c0.5,0.4,0.6,1,0.6,2.2v2.7c0,0.9,0.1,1.6,0.2,2h-1.7c-0.1-0.2-0.2-0.7-0.2-0.9
		c-0.6,0.7-1.4,1.1-2.4,1.1c-1.4,0-2.3-0.9-2.3-2.2c0-1,0.5-1.6,1.4-2c0.7-0.3,2.2-0.5,3.4-0.6V715.3z M218.3,716.9
		c-0.9,0-1.9,0.2-2.4,0.5c-0.5,0.2-0.6,0.5-0.6,0.9c0,0.5,0.4,0.9,1.1,0.9c0.7,0,1.2-0.3,1.6-0.8c0.2-0.3,0.3-0.8,0.3-1.2V716.9z"/>
	<path class="st2" d="M225.4,720.3c-0.4,0.1-0.9,0.2-1.3,0.2c-0.7,0-1.2-0.2-1.5-0.5c-0.3-0.4-0.4-0.9-0.4-1.6v-4.1H221v-1.4h1.2
		v-2.4h1.7v2.4h1.5v1.4h-1.5v3.7c0,0.8,0.2,1,0.8,1c0.2,0,0.5,0,0.7-0.1V720.3z"/>
</g>
<g class="st1">
	<path class="st2" d="M359.2,720.4v-10.6h4.4c1.5,0,2.3,0.2,2.9,0.6c0.8,0.6,1.2,1.5,1.2,2.6c0,1.2-0.4,2.2-1.3,2.8
		c-0.8,0.4-1.9,0.6-3.1,0.6h-2.1v4H359.2z M363,714.7c1,0,1.7-0.1,2.1-0.4c0.4-0.3,0.5-0.7,0.5-1.3c0-0.5-0.2-1-0.5-1.3
		c-0.4-0.3-0.9-0.4-2-0.4h-2v3.4H363z"/>
	<path class="st2" d="M368.4,720.4v-7.5h1.7v1.2c0.5-0.8,1-1.2,2.1-1.2c0.2,0,0.4,0,0.6,0.1v1.8c-0.3-0.1-0.5-0.2-0.8-0.2
		c-0.6,0-1.1,0.3-1.4,0.7c-0.3,0.4-0.4,0.9-0.4,1.7v3.5H368.4z"/>
	<path class="st2" d="M373.8,711.4v-1.7h1.8v1.7H373.8z M375.6,720.4h-1.8v-7.5h1.8V720.4z"/>
	<path class="st2" d="M382.1,720.4v-4.3c0-0.6-0.1-1-0.3-1.3c-0.2-0.3-0.5-0.4-1-0.4c-0.5,0-1,0.3-1.3,0.7c-0.4,0.5-0.4,1-0.4,1.8
		v3.6h-1.8v-7.5h1.7v1.1c0.5-0.8,1.4-1.2,2.5-1.2c0.9,0,1.5,0.3,1.9,0.9c0.3,0.5,0.4,1,0.4,2v4.7H382.1z"/>
	<path class="st2" d="M389.3,720.3c-0.4,0.1-0.9,0.2-1.3,0.2c-0.7,0-1.2-0.2-1.5-0.5c-0.3-0.4-0.4-0.9-0.4-1.6v-4.1h-1.2v-1.4h1.2
		v-2.4h1.7v2.4h1.5v1.4h-1.5v3.7c0,0.8,0.2,1,0.8,1c0.2,0,0.5,0,0.7-0.1V720.3z"/>
	<path class="st2" d="M390.1,716.5v-1.4h4.3v1.4H390.1z"/>
	<path class="st2" d="M394.7,720.4v-1.4l5.8-7.5H395v-1.6h7.9v1.5l-5.7,7.5h5.7v1.6H394.7z"/>
	<path class="st2" d="M410.3,718.5c-0.6,1.3-1.7,2.1-3.3,2.1c-2.4,0-3.7-1.6-3.7-4c0-2.4,1.4-3.9,3.6-3.9c2.4,0,3.4,1.7,3.4,4.4
		h-5.2c0.1,1.3,0.8,2,2,2c0.8,0,1.4-0.3,1.7-1.2L410.3,718.5z M408.6,715.8c-0.1-1.2-0.7-1.8-1.6-1.8s-1.7,0.6-1.8,1.8H408.6z"/>
	<path class="st2" d="M411.7,711.4v-1.7h1.8v1.7H411.7z M413.5,720.4h-1.8v-7.5h1.8V720.4z"/>
	<path class="st2" d="M419,720.3c-0.4,0.1-0.9,0.2-1.3,0.2c-0.7,0-1.2-0.2-1.5-0.5c-0.3-0.4-0.4-0.9-0.4-1.6v-4.1h-1.2v-1.4h1.2
		v-2.4h1.7v2.4h1.5v1.4h-1.5v3.7c0,0.8,0.2,1,0.8,1c0.2,0,0.5,0,0.7-0.1V720.3z"/>
	<path class="st2" d="M421.7,712.9v4.3c0,0.5,0.1,0.9,0.2,1.2c0.2,0.4,0.6,0.6,1.1,0.6c0.5,0,0.9-0.3,1.2-0.6
		c0.3-0.4,0.5-0.9,0.5-1.6v-3.9h1.8v7.5h-1.7v-1.1c-0.5,0.7-1.3,1.2-2.3,1.2c-1,0-1.5-0.3-2-0.9c-0.3-0.5-0.5-1.1-0.5-2v-4.7H421.7z
		"/>
	<path class="st2" d="M433,720.4v-4.3c0-0.6-0.1-1-0.3-1.3c-0.2-0.3-0.5-0.4-1-0.4c-0.5,0-1,0.3-1.3,0.7c-0.4,0.5-0.4,1-0.4,1.8v3.6
		h-1.8v-7.5h1.7v1.1c0.5-0.8,1.4-1.2,2.5-1.2c0.9,0,1.5,0.3,1.9,0.9c0.3,0.5,0.4,1,0.4,2v4.7H433z"/>
	<path class="st2" d="M441.3,719.3c-0.5,0.6-1.2,1-2.2,1c-1.8,0-3-1.4-3-3.8c0-2.3,1.3-3.8,3.1-3.8c1,0,1.8,0.4,2.2,1v-0.9h1.7v7
		c0,1.5-0.4,2.5-1.2,3.1c-0.6,0.4-1.4,0.6-2.4,0.6c-1.8,0-3-0.8-3.3-2.3l1.8-0.3c0.1,0.8,0.7,1.2,1.5,1.2c0.7,0,1.2-0.2,1.4-0.6
		c0.2-0.3,0.3-0.8,0.3-1.5V719.3z M439.7,714.2c-1.1,0-1.8,0.8-1.8,2.3c0,1.5,0.7,2.4,1.7,2.4c1,0,1.7-0.7,1.7-2.2
		C441.4,715.2,440.8,714.2,439.7,714.2z"/>
</g>
<g class="st1">
	<path class="st2" d="M169.3,415.4l-0.8-2.5h-4.2l-0.9,2.5h-2.1l4-10.6h2.1l3.9,10.6H169.3z M168,411.4c-0.6-1.7-1.1-3.2-1.6-4.7
		c-0.3,1.1-0.7,2.1-1.6,4.7H168z"/>
	<path class="st2" d="M172.3,415.4v-10.6h4.4c1.5,0,2.3,0.2,2.9,0.6c0.8,0.6,1.2,1.5,1.2,2.6c0,1.2-0.4,2.2-1.3,2.8
		c-0.8,0.4-1.9,0.6-3.1,0.6h-2.1v4H172.3z M176.1,409.7c1,0,1.7-0.1,2.1-0.4c0.4-0.3,0.5-0.7,0.5-1.3c0-0.5-0.2-1-0.5-1.3
		c-0.4-0.3-0.9-0.4-2-0.4h-2v3.4H176.1z"/>
	<path class="st2" d="M184.2,415.4h-1.9v-10.6h1.9V415.4z"/>
</g>
<g class="st1">
	<path class="st2" d="M278.2,115.4l-2.7-4.2h-1.8v4.2h-1.9v-10.6h3.4c1.4,0,2.4,0.1,3.2,0.4c1.1,0.4,1.6,1.3,1.6,2.7
		c0,1.7-1,2.7-2.6,3l3,4.5H278.2z M275.7,109.6c1,0,1.5-0.1,1.8-0.4c0.3-0.3,0.5-0.7,0.5-1.2c0-0.6-0.1-1-0.6-1.3
		c-0.3-0.2-0.9-0.3-1.7-0.3h-2v3.2H275.7z"/>
	<path class="st2" d="M288.1,113.5c-0.6,1.3-1.7,2.1-3.3,2.1c-2.4,0-3.7-1.6-3.7-4c0-2.4,1.4-3.9,3.6-3.9c2.4,0,3.4,1.7,3.4,4.4
		h-5.2c0.1,1.3,0.8,2,2,2c0.8,0,1.4-0.3,1.7-1.2L288.1,113.5z M286.3,110.8c-0.1-1.2-0.7-1.8-1.6-1.8s-1.7,0.6-1.8,1.8H286.3z"/>
	<path class="st2" d="M290.1,113c0.4,0.8,1.1,1.2,1.9,1.2c0.8,0,1.2-0.3,1.2-0.8c0-0.5-0.3-0.7-1.4-1.1l-0.8-0.3
		c-1.2-0.4-1.9-1-1.9-2.2c0-1.2,1.1-2.2,2.9-2.2c1.2,0,2.3,0.5,2.9,1.5l-1.3,0.9c-0.4-0.7-0.9-1-1.7-1c-0.8,0-1.1,0.3-1.1,0.7
		c0,0.4,0.2,0.7,1.2,1l0.8,0.2c1.3,0.4,2.1,1,2.1,2.2c0,1.4-1.2,2.4-3,2.4c-1.5,0-2.6-0.7-3.2-1.7L290.1,113z"/>
	<path class="st2" d="M297,113c0.4,0.8,1.1,1.2,1.9,1.2c0.8,0,1.2-0.3,1.2-0.8c0-0.5-0.3-0.7-1.4-1.1l-0.8-0.3
		c-1.2-0.4-1.9-1-1.9-2.2c0-1.2,1.1-2.2,2.9-2.2c1.2,0,2.3,0.5,2.9,1.5l-1.3,0.9c-0.4-0.7-0.9-1-1.7-1c-0.8,0-1.1,0.3-1.1,0.7
		c0,0.4,0.2,0.7,1.2,1l0.8,0.2c1.3,0.4,2.1,1,2.1,2.2c0,1.4-1.2,2.4-3,2.4c-1.5,0-2.6-0.7-3.2-1.7L297,113z"/>
	<path class="st2" d="M306.4,115.6c-2.3,0-3.7-1.5-3.7-4c0-2.5,1.5-3.9,3.8-3.9c2.2,0,3.6,1.5,3.6,4
		C310,114.2,308.6,115.6,306.4,115.6z M306.4,109.1c-1.1,0-1.9,0.9-1.9,2.4c0,1.7,0.8,2.5,1.9,2.5c1.1,0,1.9-0.8,1.9-2.4
		C308.3,110,307.5,109.1,306.4,109.1z"/>
	<path class="st2" d="M311.5,115.4v-7.5h1.7v1.2c0.5-0.8,1-1.2,2.1-1.2c0.2,0,0.4,0,0.6,0.1v1.8c-0.3-0.1-0.5-0.2-0.8-0.2
		c-0.6,0-1.1,0.3-1.4,0.7c-0.3,0.4-0.4,0.9-0.4,1.7v3.5H311.5z"/>
	<path class="st2" d="M320.7,115.3c-0.4,0.1-0.9,0.2-1.3,0.2c-0.7,0-1.2-0.2-1.5-0.5c-0.3-0.4-0.4-0.9-0.4-1.6v-4.1h-1.2v-1.4h1.2
		v-2.4h1.7v2.4h1.5v1.4h-1.5v3.7c0,0.8,0.2,1,0.8,1c0.2,0,0.5,0,0.7-0.1V115.3z"/>
	<path class="st2" d="M322.4,113c0.4,0.8,1.1,1.2,1.9,1.2c0.8,0,1.2-0.3,1.2-0.8c0-0.5-0.3-0.7-1.4-1.1l-0.8-0.3
		c-1.2-0.4-1.9-1-1.9-2.2c0-1.2,1-2.2,2.9-2.2c1.2,0,2.3,0.5,2.9,1.5l-1.3,0.9c-0.4-0.7-0.9-1-1.7-1c-0.8,0-1.1,0.3-1.1,0.7
		c0,0.4,0.2,0.7,1.2,1l0.8,0.2c1.3,0.4,2.1,1,2.1,2.2c0,1.4-1.2,2.4-3,2.4c-1.5,0-2.6-0.7-3.2-1.7L322.4,113z"/>
</g>
<g class="st1">
	<path class="st2" d="M388.3,115.4v-1.2c-0.7,0.9-1.8,1.4-3.1,1.4c-2.7,0-4.6-2.1-4.6-5.4c0-3.2,1.9-5.7,5.2-5.7
		c2.1,0,3.5,1,4.2,2.8l-1.9,0.7c-0.3-1.1-1.1-1.8-2.4-1.8c-2,0-3.2,1.5-3.2,3.9c0,2.5,1.3,3.8,3.1,3.8c1.7,0,2.5-1,2.6-2.8h-3v-1.6
		h4.7v5.8H388.3z"/>
	<path class="st2" d="M391.9,115.4v-7.5h1.7v1.2c0.5-0.8,1-1.2,2.1-1.2c0.2,0,0.4,0,0.6,0.1v1.8c-0.3-0.1-0.5-0.2-0.8-0.2
		c-0.6,0-1.1,0.3-1.4,0.7c-0.3,0.4-0.4,0.9-0.4,1.7v3.5H391.9z"/>
	<path class="st2" d="M401.5,110.3c0-0.4-0.1-0.7-0.3-0.9c-0.2-0.2-0.6-0.3-1-0.3c-0.9,0-1.3,0.5-1.4,1.3l-1.7-0.1
		c0.1-1.6,1.3-2.5,3.2-2.5c1,0,1.7,0.2,2.2,0.7c0.5,0.4,0.6,1,0.6,2.2v2.7c0,0.9,0.1,1.6,0.2,2h-1.7c-0.1-0.2-0.2-0.7-0.2-0.9
		c-0.6,0.7-1.4,1.1-2.4,1.1c-1.4,0-2.3-0.9-2.3-2.2c0-1,0.5-1.6,1.4-2c0.7-0.3,2.2-0.5,3.4-0.6V110.3z M401.5,111.9
		c-0.9,0-1.9,0.2-2.4,0.5c-0.5,0.2-0.6,0.5-0.6,0.9c0,0.5,0.4,0.9,1.1,0.9c0.7,0,1.2-0.3,1.6-0.8c0.2-0.3,0.3-0.8,0.3-1.2V111.9z"/>
	<path class="st2" d="M407.2,109.3v6.1h-1.8v-6.1h-1.3v-1.4h1.3V107c0-0.9,0.2-1.5,0.6-1.8c0.4-0.4,0.9-0.5,1.5-0.5
		c0.5,0,0.8,0,1.1,0.2v1.4c-0.2-0.1-0.5-0.2-0.7-0.2c-0.3,0-0.6,0.1-0.7,0.3c-0.1,0.2-0.1,0.4-0.1,0.8v0.7h1.5v1.4H407.2z
		 M409.8,106.4v-1.7h1.8v1.7H409.8z M411.5,115.4h-1.7v-7.5h1.7V115.4z"/>
	<path class="st2" d="M418.3,115.4l-2.1-3.4l-1.1,1.2v2.2h-1.8v-10.6h1.8v6.3l2.8-3.2h2.1l-2.6,2.8l2.9,4.6H418.3z"/>
</g>
<g class="st1">
	<path class="st2" d="M168.4,104.8c2.3,3.9,3.7,6,4.7,7.8c-0.1-1.6-0.1-3.8-0.1-7.8h1.9v10.6h-2.1c-2.2-3.6-3.6-5.9-4.7-7.8
		c0,0.9,0.1,3,0.1,7.8h-1.9v-10.6H168.4z"/>
	<path class="st2" d="M183.4,113.5c-0.6,1.3-1.7,2.1-3.3,2.1c-2.4,0-3.7-1.6-3.7-4c0-2.4,1.4-3.9,3.6-3.9c2.4,0,3.4,1.7,3.4,4.4
		h-5.2c0.1,1.3,0.8,2,2,2c0.8,0,1.4-0.3,1.7-1.2L183.4,113.5z M181.6,110.8c-0.1-1.2-0.7-1.8-1.6-1.8s-1.7,0.6-1.8,1.8H181.6z"/>
	<path class="st2" d="M190.9,115.4c-0.5-2-1-3.8-1.3-5.5c-0.3,1.4-0.7,2.8-1.4,5.5h-2l-2.2-7.5h1.9c0.5,2,1.1,4.2,1.5,5.6
		c0.3-1.4,0.6-2.9,1.4-5.6h1.8c0.6,2.4,1,4,1.4,5.6c0.4-1.6,0.9-3.7,1.5-5.6h1.8l-2.3,7.5H190.9z"/>
	<path class="st2" d="M196.7,113c0.4,0.8,1.1,1.2,1.9,1.2c0.8,0,1.2-0.3,1.2-0.8c0-0.5-0.3-0.7-1.4-1.1l-0.8-0.3
		c-1.2-0.4-1.9-1-1.9-2.2c0-1.2,1.1-2.2,2.9-2.2c1.2,0,2.3,0.5,2.9,1.5l-1.3,0.9c-0.4-0.7-0.9-1-1.7-1c-0.8,0-1.1,0.3-1.1,0.7
		c0,0.4,0.2,0.7,1.2,1l0.8,0.2c1.3,0.4,2.1,1,2.1,2.2c0,1.4-1.2,2.4-3,2.4c-1.5,0-2.6-0.7-3.2-1.7L196.7,113z"/>
	<path class="st2" d="M207.7,115.4v-1c-0.5,0.7-1.2,1.2-2.2,1.2c-1.7,0-3-1.3-3-3.9c0-2.4,1.4-3.9,3.1-3.9c1.1,0,1.7,0.4,2.1,1v-3.9
		h1.7v10.6H207.7z M206,109.2c-1,0-1.7,0.8-1.7,2.4c0,1.5,0.6,2.5,1.7,2.5c1,0,1.8-0.8,1.8-2.4C207.7,110.1,207,109.2,206,109.2z"/>
	<path class="st2" d="M217.7,113.5c-0.6,1.3-1.7,2.1-3.3,2.1c-2.4,0-3.7-1.6-3.7-4c0-2.4,1.4-3.9,3.6-3.9c2.4,0,3.4,1.7,3.4,4.4
		h-5.2c0.1,1.3,0.8,2,2,2c0.8,0,1.4-0.3,1.7-1.2L217.7,113.5z M216,110.8c-0.1-1.2-0.7-1.8-1.6-1.8s-1.7,0.6-1.8,1.8H216z"/>
	<path class="st2" d="M219.8,113c0.4,0.8,1.1,1.2,1.9,1.2c0.8,0,1.2-0.3,1.2-0.8c0-0.5-0.3-0.7-1.4-1.1l-0.8-0.3
		c-1.2-0.4-1.9-1-1.9-2.2c0-1.2,1.1-2.2,2.9-2.2c1.2,0,2.3,0.5,2.9,1.5l-1.3,0.9c-0.4-0.7-0.9-1-1.7-1c-0.8,0-1.1,0.3-1.1,0.7
		c0,0.4,0.2,0.7,1.2,1l0.8,0.2c1.3,0.4,2.1,1,2.1,2.2c0,1.4-1.2,2.4-3,2.4c-1.5,0-2.6-0.7-3.2-1.7L219.8,113z"/>
	<path class="st2" d="M230.9,115.4l-2.1-3.4l-1.1,1.2v2.2H226v-10.6h1.8v6.3l2.8-3.2h2.1l-2.6,2.8l2.9,4.6H230.9z"/>
</g>
<g class="st1">
	<path class="st2" d="M422.1,297.4l-0.8-2.5h-4.2l-0.9,2.5h-2.1l4-10.6h2.1l3.9,10.6H422.1z M420.8,293.4c-0.6-1.7-1.1-3.2-1.6-4.7
		c-0.3,1.1-0.7,2.1-1.7,4.7H420.8z"/>
	<path class="st2" d="M429.9,297.4v-1c-0.5,0.7-1.2,1.2-2.2,1.2c-1.7,0-3-1.3-3-3.9c0-2.4,1.4-3.9,3.1-3.9c1.1,0,1.7,0.4,2.1,1v-3.9
		h1.7v10.6H429.9z M428.2,291.2c-1,0-1.7,0.8-1.7,2.4c0,1.5,0.6,2.5,1.7,2.5c1,0,1.8-0.8,1.8-2.4
		C429.9,292.1,429.3,291.2,428.2,291.2z"/>
	<path class="st2" d="M436.7,297.6c-2.3,0-3.7-1.5-3.7-4c0-2.5,1.5-3.9,3.8-3.9c2.2,0,3.6,1.5,3.6,4
		C440.4,296.2,438.9,297.6,436.7,297.6z M436.8,291.1c-1.1,0-1.9,0.9-1.9,2.4c0,1.7,0.8,2.5,1.9,2.5c1.1,0,1.9-0.8,1.9-2.4
		C438.6,292,437.9,291.1,436.8,291.1z"/>
	<path class="st2" d="M443.5,286.8v4.1c0.5-0.6,1.3-1.2,2.3-1.2c1.8,0,2.9,1.5,2.9,3.9c0,2.4-1.2,3.9-3.1,3.9c-1,0-1.7-0.4-2.2-1.1
		v1h-1.7v-10.6H443.5z M445.2,296c1,0,1.7-0.8,1.7-2.4c0-1.5-0.6-2.4-1.6-2.4c-1.1,0-1.8,0.9-1.8,2.3
		C443.5,295.1,444.1,296,445.2,296z"/>
	<path class="st2" d="M456.7,295.5c-0.6,1.3-1.7,2.1-3.3,2.1c-2.4,0-3.7-1.6-3.7-4c0-2.4,1.4-3.9,3.6-3.9c2.4,0,3.4,1.7,3.4,4.4
		h-5.2c0.1,1.3,0.8,2,2,2c0.8,0,1.4-0.3,1.7-1.2L456.7,295.5z M455,292.8c-0.1-1.2-0.7-1.8-1.6-1.8s-1.7,0.6-1.8,1.8H455z"/>
</g>
<g class="st1">
	<path class="st2" d="M417.1,315.4h-1.9v-10.6h1.9V315.4z"/>
	<path class="st2" d="M423.7,315.4v-4.3c0-0.6-0.1-1-0.3-1.3c-0.2-0.3-0.5-0.4-1-0.4c-0.5,0-1,0.3-1.3,0.7c-0.4,0.5-0.4,1-0.4,1.8
		v3.6H419v-7.5h1.7v1.1c0.5-0.8,1.4-1.2,2.5-1.2c0.9,0,1.5,0.3,1.9,0.9c0.3,0.5,0.4,1,0.4,2v4.7H423.7z"/>
	<path class="st2" d="M427.3,304.8h3.3c1.9,0,2.7,0.1,3.5,0.5c1.5,0.7,2.1,2.5,2.1,4.7c0,1.7-0.5,3.2-1.4,4.1c-1,1-2.2,1.3-4.4,1.3
		h-3.1V304.8z M430.5,313.7c1.4,0,2.3-0.3,2.9-0.9c0.6-0.6,0.8-1.6,0.8-2.9c0-1.1-0.2-2.1-0.8-2.7c-0.5-0.5-1.1-0.8-2.6-0.8h-1.6
		v7.3H430.5z"/>
	<path class="st2" d="M444.2,313.5c-0.6,1.3-1.7,2.1-3.3,2.1c-2.4,0-3.7-1.6-3.7-4c0-2.4,1.4-3.9,3.6-3.9c2.4,0,3.4,1.7,3.4,4.4
		h-5.2c0.1,1.3,0.8,2,2,2c0.8,0,1.4-0.3,1.7-1.2L444.2,313.5z M442.5,310.8c-0.1-1.2-0.7-1.8-1.6-1.8s-1.7,0.6-1.8,1.8H442.5z"/>
	<path class="st2" d="M446.3,313c0.4,0.8,1.1,1.2,1.9,1.2c0.8,0,1.2-0.3,1.2-0.8c0-0.5-0.3-0.7-1.4-1.1l-0.8-0.3
		c-1.2-0.4-1.9-1-1.9-2.2c0-1.2,1.1-2.2,2.9-2.2c1.2,0,2.3,0.5,2.9,1.5l-1.3,0.9c-0.4-0.7-0.9-1-1.7-1c-0.8,0-1.1,0.3-1.1,0.7
		c0,0.4,0.2,0.7,1.2,1l0.8,0.2c1.3,0.4,2.1,1,2.1,2.2c0,1.4-1.2,2.4-3,2.4c-1.5,0-2.6-0.7-3.2-1.7L446.3,313z"/>
	<path class="st2" d="M452.5,306.4v-1.7h1.8v1.7H452.5z M454.2,315.4h-1.8v-7.5h1.8V315.4z"/>
	<path class="st2" d="M460.9,314.3c-0.5,0.6-1.2,1-2.2,1c-1.8,0-3-1.4-3-3.8c0-2.3,1.3-3.8,3.1-3.8c1,0,1.8,0.4,2.2,1v-0.9h1.7v7
		c0,1.5-0.4,2.5-1.2,3.1c-0.6,0.4-1.4,0.6-2.4,0.6c-1.8,0-3-0.8-3.3-2.3l1.8-0.3c0.1,0.8,0.7,1.2,1.5,1.2c0.7,0,1.2-0.2,1.4-0.6
		c0.2-0.3,0.3-0.8,0.3-1.5V314.3z M459.3,309.2c-1.1,0-1.8,0.8-1.8,2.3c0,1.5,0.7,2.4,1.7,2.4c1,0,1.7-0.7,1.7-2.2
		C460.9,310.2,460.4,309.2,459.3,309.2z"/>
	<path class="st2" d="M469.3,315.4v-4.3c0-0.6-0.1-1-0.3-1.3c-0.2-0.3-0.5-0.4-1-0.4c-0.5,0-1,0.3-1.3,0.7c-0.4,0.5-0.4,1-0.4,1.8
		v3.6h-1.8v-7.5h1.7v1.1c0.5-0.8,1.4-1.2,2.5-1.2c0.9,0,1.5,0.3,1.9,0.9c0.3,0.5,0.4,1,0.4,2v4.7H469.3z"/>
</g>
<g class="st1">
	<path class="st2" d="M317.1,415.4l-0.8-2.5h-4.2l-0.9,2.5h-2.1l4-10.6h2.1l3.9,10.6H317.1z M315.8,411.4c-0.6-1.7-1.1-3.2-1.6-4.7
		c-0.3,1.1-0.7,2.1-1.7,4.7H315.8z"/>
	<path class="st2" d="M324.9,415.4v-1c-0.5,0.7-1.2,1.2-2.2,1.2c-1.7,0-3-1.3-3-3.9c0-2.4,1.4-3.9,3.1-3.9c1.1,0,1.7,0.4,2.1,1v-3.9
		h1.7v10.6H324.9z M323.2,409.2c-1,0-1.7,0.8-1.7,2.4c0,1.5,0.6,2.5,1.7,2.5c1,0,1.8-0.8,1.8-2.4
		C324.9,410.1,324.3,409.2,323.2,409.2z"/>
	<path class="st2" d="M329.1,413c0.4,0.8,1.1,1.2,1.9,1.2c0.8,0,1.2-0.3,1.2-0.8c0-0.5-0.3-0.7-1.4-1.1l-0.8-0.3
		c-1.2-0.4-1.9-1-1.9-2.2c0-1.2,1-2.2,2.9-2.2c1.2,0,2.3,0.5,2.9,1.5l-1.3,0.9c-0.4-0.7-0.9-1-1.7-1c-0.8,0-1.1,0.3-1.1,0.7
		c0,0.4,0.2,0.7,1.2,1l0.8,0.2c1.3,0.4,2.1,1,2.1,2.2c0,1.4-1.2,2.4-3,2.4c-1.5,0-2.6-0.7-3.2-1.7L329.1,413z"/>
</g>
</svg>
