<?xml version="1.0" encoding="utf-8"?>
<!-- Generator: Adobe Illustrator 22.1.0, SVG Export Plug-In . SVG Version: 6.00 Build 0)  -->
<svg version="1.1" id="Ebene_1" xmlns="http://www.w3.org/2000/svg" xmlns:xlink="http://www.w3.org/1999/xlink" x="0px" y="0px"
	 viewBox="0 0 75 75" style="enable-background:new 0 0 75 75;" xml:space="preserve">
<style type="text/css">
	.st0{fill:#141414;}
	.st1{fill:#FFFFFF;}
</style>
<circle class="st0" cx="37.5" cy="37.5" r="37.5"/>
<g id="adobe">
	<path class="st1" d="M56.4,21.8c0,0.1,0,0.1,0,0.2c0,10.8,0,21.5,0,32.3c0,0,0,0.1,0,0.1c0,0,0,0,0,0c0,0,0-0.1-0.1-0.1
		c-4.5-10.7-9-21.5-13.5-32.2c0-0.1,0-0.2-0.1-0.3C47.3,21.8,51.9,21.8,56.4,21.8z"/>
	<path class="st1" d="M33.1,21.8c0,0.1,0,0.2-0.1,0.3c-4.5,10.8-9,21.5-13.5,32.3c0,0.1-0.1,0.1-0.1,0.2c0-10.9,0-21.8,0-32.7
		C24,21.8,28.5,21.8,33.1,21.8z"/>
	<path class="st1" d="M46.6,54.6c-0.5,0-1.1,0-1.6,0c-1.3,0-2.6,0-4,0c-0.1,0-0.2,0-0.3-0.2c-0.8-2.1-1.6-4.1-2.4-6.2
		c-0.1-0.2-0.2-0.2-0.4-0.2c-1.9,0-3.9,0-5.8,0c-0.1,0-0.1,0-0.3,0c2-4.7,4-9.4,6-14.1C40.8,40.8,43.7,47.7,46.6,54.6z"/>
</g>
</svg>
