<?xml version="1.0" encoding="utf-8"?>
<!-- Generator: Adobe Illustrator 24.2.3, SVG Export Plug-In . SVG Version: 6.00 Build 0)  -->
<svg version="1.1" id="Ebene_1" xmlns="http://www.w3.org/2000/svg" xmlns:xlink="http://www.w3.org/1999/xlink" x="0px" y="0px"
	 viewBox="0 0 75 75" style="enable-background:new 0 0 75 75;" xml:space="preserve">
<style type="text/css">
	.st0{fill:#141414;}
	.st1{enable-background:new    ;}
	.st2{fill:#FFFFFF;}
</style>
<circle class="st0" cx="37" cy="37.5" r="37.5"/>
<g class="st1">
	<path class="st2" d="M39.3,21.9c4,0.3,7.3,2,9.6,5.5l-4.1,3c-1.3-2.6-3.1-3.7-5.5-3.9V35l1.5,0.5c5.8,1.9,8.4,3.9,8.4,8.6
		c0,5-3.7,8.6-9.9,9v4.5h-2.7v-4.4c-4.9-0.3-8.5-2.7-10.5-6.5l4.2-3.1c1,2.6,3,4.3,6.3,4.8v-8.9l-2.1-0.7c-4.7-1.6-7.2-4.1-7.2-8.5
		c0-4.7,3.8-8,9.3-8.5v-4.4h2.7V21.9z M32.5,29.9c0,1.9,1,3.2,4.1,4.3v-7.7C34,26.6,32.5,28,32.5,29.9z M39.3,48.6
		c3.1-0.4,4.6-1.8,4.6-3.9c0-2.2-1.2-3-4.6-4.1V48.6z"/>
</g>
</svg>
