<?xml version="1.0" encoding="utf-8"?>
<!-- Generator: Adobe Illustrator 24.2.3, SVG Export Plug-In . SVG Version: 6.00 Build 0)  -->
<svg version="1.1" id="arrows" xmlns="http://www.w3.org/2000/svg" xmlns:xlink="http://www.w3.org/1999/xlink" x="0px" y="0px"
	 viewBox="0 0 601 750" style="enable-background:new 0 0 601 750;" xml:space="preserve">
<style type="text/css">
	.st0{opacity:0.165;fill:none;stroke:#000000;stroke-miterlimit:10;}
	.st1{opacity:0.33;}
	.st2{fill:none;stroke:#000000;stroke-miterlimit:10;}
</style>
<rect x="140.5" y="85.5" class="st0" width="318" height="125"/>
<g class="st1">
	<g>
		<line class="st2" x1="198.5" y1="323.4" x2="198.5" y2="176"/>
		<g>
			<polygon points="204.6,318.4 203.5,317.4 198.5,322.8 193.5,317.4 192.4,318.4 198.5,325 			"/>
		</g>
	</g>
</g>
<g class="st1">
	<g>
		<line class="st2" x1="400.5" y1="323.4" x2="400.5" y2="176"/>
		<g>
			<polygon points="406.6,318.4 405.5,317.4 400.5,322.8 395.5,317.4 394.4,318.4 400.5,325 			"/>
		</g>
	</g>
</g>
<g class="st1">
	<g>
		<line class="st2" x1="387.8" y1="326" x2="311.5" y2="171.5"/>
		<g>
			<polygon points="391.1,318.9 389.6,318.4 387.5,325.5 380.6,322.9 380.1,324.3 388.5,327.5 			"/>
		</g>
	</g>
</g>
<g class="st1">
	<g>
		<line class="st2" x1="211.2" y1="326" x2="287.5" y2="171.5"/>
		<g>
			<polygon points="218.9,324.3 218.4,322.9 211.5,325.5 209.4,318.4 207.9,318.9 210.5,327.5 			"/>
		</g>
	</g>
</g>
<g class="st1">
	<g>
		<line class="st2" x1="400.5" y1="599.4" x2="400.5" y2="375"/>
		<g>
			<polygon points="406.6,594.4 405.5,593.4 400.5,598.8 395.5,593.4 394.4,594.4 400.5,601 			"/>
		</g>
	</g>
</g>
<g class="st1">
	<g>
		<line class="st2" x1="199.5" y1="424.4" x2="199.5" y2="375.5"/>
		<g>
			<polygon points="205.6,419.4 204.5,418.4 199.5,423.8 194.5,418.4 193.4,419.4 199.5,426 			"/>
		</g>
	</g>
</g>
<g class="st1">
	<g>
		<line class="st2" x1="199.5" y1="598.4" x2="199.5" y2="475"/>
		<g>
			<polygon points="205.6,593.4 204.5,592.4 199.5,597.8 194.5,592.4 193.4,593.4 199.5,600 			"/>
		</g>
	</g>
</g>
<g class="st1">
	<g>
		<polyline class="st2" points="460.6,150.5 501.5,150.5 501.5,650.5 450,650.5 		"/>
		<g>
			<polygon points="465.6,156.6 466.6,155.5 461.2,150.5 466.6,145.5 465.6,144.4 459,150.5 			"/>
		</g>
	</g>
</g>
<g class="st1">
	<g>
		<polyline class="st2" points="138.4,150.5 99.5,150.5 99.5,650.5 150.5,650.5 		"/>
		<g>
			<polygon points="133.4,144.4 132.4,145.5 137.8,150.5 132.4,155.5 133.4,156.6 140,150.5 			"/>
		</g>
	</g>
</g>
<g class="st1">
	<g>
		<line class="st2" x1="217.6" y1="368.7" x2="280.5" y2="432.5"/>
		<g>
			<polygon points="216.8,376.5 218.3,376.5 218,369.1 225.4,369.4 225.5,367.9 216.5,367.5 			"/>
		</g>
	</g>
</g>
<g class="st1">
	<g>
		<line class="st2" x1="272.4" y1="450.5" x2="224" y2="450.5"/>
		<g>
			<polygon points="267.4,444.4 266.4,445.5 271.8,450.5 266.4,455.5 267.4,456.6 274,450.5 			"/>
		</g>
	</g>
</g>
</svg>
