<?xml version="1.0" encoding="utf-8"?>
<!-- Generator: Adobe Illustrator 24.2.3, SVG Export Plug-In . SVG Version: 6.00 Build 0)  -->
<svg version="1.1" id="Ebene_1" xmlns="http://www.w3.org/2000/svg" xmlns:xlink="http://www.w3.org/1999/xlink" x="0px" y="0px"
	 viewBox="0 0 75 75" style="enable-background:new 0 0 75 75;" xml:space="preserve">
<style type="text/css">
	.st0{clip-path:url(#SVGID_2_);}
	.st1{fill:#FFFFFF;}
</style>
<g>
	<defs>
		<circle id="SVGID_1_" cx="37.5" cy="37.5" r="37.5"/>
	</defs>
	<use xlink:href="#SVGID_1_"  style="overflow:visible;fill:#3A2F3C;"/>
	<clipPath id="SVGID_2_">
		<use xlink:href="#SVGID_1_"  style="overflow:visible;"/>
	</clipPath>
	<g class="st0">
		<g>
			<g>
				<path class="st1" d="M-132.1-51.7c1.9,0,3.5-1.9,3.5-4.3c0-2.4-1.6-4.3-3.5-4.3c-1.9,0-3.5,1.9-3.5,4.3
					C-135.6-53.6-134.1-51.7-132.1-51.7z"/>
				<path class="st1" d="M-127.3-50.5c-0.1,0-0.1-0.1-0.2-0.1c-3.1-0.4-6.1-0.4-9.2,0c-0.1,0-0.1,0.1-0.2,0.1c0,0,0,0,0,0
					c-1-0.1-2,0.8-2.1,1.9l-0.7,8.8h15.4l-0.7-8.8c-0.1-1.1-1-2-2.1-1.9C-127.2-50.5-127.2-50.5-127.3-50.5z"/>
			</g>
			<g>
				<path class="st1" d="M-111-52.2c1.9,0,3.5-1.9,3.5-4.3c0-2.4-1.6-4.3-3.5-4.3c-1.9,0-3.5,1.9-3.5,4.3
					C-114.5-54.1-113-52.2-111-52.2z"/>
				<path class="st1" d="M-106.2-51c-0.1,0-0.1-0.1-0.2-0.1c-3.1-0.4-6.1-0.4-9.2,0c-0.1,0-0.1,0.1-0.2,0.1c0,0,0,0,0,0
					c-1-0.1-2,0.8-2.1,1.9l-0.7,8.8h15.4l-0.7-8.8c-0.1-1.1-1-2-2.1-1.9C-106.1-51-106.2-51-106.2-51z"/>
			</g>
			<g>
				<path class="st1" d="M-90-51.7c1.9,0,3.5-1.9,3.5-4.3c0-2.4-1.6-4.3-3.5-4.3c-1.9,0-3.5,1.9-3.5,4.3
					C-93.4-53.6-91.9-51.7-90-51.7z"/>
				<path class="st1" d="M-85.1-50.5c-0.1,0-0.1-0.1-0.2-0.1c-3.1-0.4-6.1-0.4-9.2,0c-0.1,0-0.1,0.1-0.2,0.1c0,0,0,0,0,0
					c-1-0.1-2,0.8-2.1,1.9l-0.7,8.8h15.4l-0.7-8.8c-0.1-1.1-1-2-2.1-1.9C-85-50.5-85.1-50.5-85.1-50.5z"/>
			</g>
			<g>
				<path class="st1" d="M-68.9-52.2c1.9,0,3.5-1.9,3.5-4.3c0-2.4-1.6-4.3-3.5-4.3c-1.9,0-3.5,1.9-3.5,4.3
					C-72.3-54.1-70.8-52.2-68.9-52.2z"/>
				<path class="st1" d="M-64-51c-0.1,0-0.1-0.1-0.2-0.1c-3.1-0.4-6.1-0.4-9.2,0c-0.1,0-0.1,0.1-0.2,0.1c0,0,0,0,0,0
					c-1-0.1-2,0.8-2.1,1.9l-0.7,8.8h15.4l-0.7-8.8c-0.1-1.1-1-2-2.1-1.9C-63.9-51-64-51-64-51z"/>
			</g>
			<g>
				<path class="st1" d="M-47.8-51.7c1.9,0,3.5-1.9,3.5-4.3c0-2.4-1.6-4.3-3.5-4.3c-1.9,0-3.5,1.9-3.5,4.3
					C-51.3-53.6-49.7-51.7-47.8-51.7z"/>
				<path class="st1" d="M-42.9-50.5c-0.1,0-0.1-0.1-0.2-0.1c-3.1-0.4-6.1-0.4-9.2,0c-0.1,0-0.1,0.1-0.2,0.1c0,0,0,0,0,0
					c-1-0.1-2,0.8-2.1,1.9l-0.7,8.8H-40l-0.7-8.8c-0.1-1.1-1-2-2.1-1.9C-42.8-50.5-42.9-50.5-42.9-50.5z"/>
			</g>
			<g>
				<path class="st1" d="M-26.7-52.2c1.9,0,3.5-1.9,3.5-4.3c0-2.4-1.6-4.3-3.5-4.3c-1.9,0-3.5,1.9-3.5,4.3
					C-30.2-54.1-28.6-52.2-26.7-52.2z"/>
				<path class="st1" d="M-21.8-51c-0.1,0-0.1-0.1-0.2-0.1c-3.1-0.4-6.1-0.4-9.2,0c-0.1,0-0.1,0.1-0.2,0.1c0,0,0,0,0,0
					c-1-0.1-2,0.8-2.1,1.9l-0.7,8.8H-19l-0.7-8.8c-0.1-1.1-1-2-2.1-1.9C-21.8-51-21.8-51-21.8-51z"/>
			</g>
			<g>
				<path class="st1" d="M-5.6-51.7c1.9,0,3.5-1.9,3.5-4.3c0-2.4-1.6-4.3-3.5-4.3c-1.9,0-3.5,1.9-3.5,4.3
					C-9.1-53.6-7.5-51.7-5.6-51.7z"/>
				<path class="st1" d="M-0.7-50.5c-0.1,0-0.1-0.1-0.2-0.1c-3.1-0.4-6.1-0.4-9.2,0c-0.1,0-0.1,0.1-0.2,0.1c0,0,0,0,0,0
					c-1-0.1-2,0.8-2.1,1.9l-0.7,8.8H2.1l-0.7-8.8c-0.1-1.1-1-2-2.1-1.9C-0.7-50.5-0.7-50.5-0.7-50.5z"/>
			</g>
			<g>
				<path class="st1" d="M15.5-52.2c1.9,0,3.5-1.9,3.5-4.3c0-2.4-1.6-4.3-3.5-4.3c-1.9,0-3.5,1.9-3.5,4.3
					C12-54.1,13.6-52.2,15.5-52.2z"/>
				<path class="st1" d="M20.4-51c-0.1,0-0.1-0.1-0.2-0.1c-3.1-0.4-6.1-0.4-9.2,0c-0.1,0-0.1,0.1-0.2,0.1c0,0,0,0,0,0
					c-1-0.1-2,0.8-2.1,1.9l-0.7,8.8h15.4l-0.7-8.8c-0.1-1.1-1-2-2.1-1.9C20.4-51,20.4-51,20.4-51z"/>
			</g>
			<g>
				<path class="st1" d="M36.6-51.7c1.9,0,3.5-1.9,3.5-4.3c0-2.4-1.6-4.3-3.5-4.3c-1.9,0-3.5,1.9-3.5,4.3
					C33.1-53.6,34.7-51.7,36.6-51.7z"/>
				<path class="st1" d="M41.4-50.5c-0.1,0-0.1-0.1-0.2-0.1c-3.1-0.4-6.1-0.4-9.2,0c-0.1,0-0.1,0.1-0.2,0.1c0,0,0,0,0,0
					c-1-0.1-2,0.8-2.1,1.9L29-39.8h15.4l-0.7-8.8c-0.1-1.1-1-2-2.1-1.9C41.5-50.5,41.5-50.5,41.4-50.5z"/>
			</g>
			<g>
				<path class="st1" d="M57.7-52.2c1.9,0,3.5-1.9,3.5-4.3c0-2.4-1.6-4.3-3.5-4.3c-1.9,0-3.5,1.9-3.5,4.3
					C54.2-54.1,55.8-52.2,57.7-52.2z"/>
				<path class="st1" d="M62.5-51c-0.1,0-0.1-0.1-0.2-0.1c-3.1-0.4-6.1-0.4-9.2,0c-0.1,0-0.1,0.1-0.2,0.1c0,0,0,0,0,0
					c-1-0.1-2,0.8-2.1,1.9l-0.7,8.8h15.4l-0.7-8.8c-0.1-1.1-1-2-2.1-1.9C62.6-51,62.6-51,62.5-51z"/>
			</g>
			<g>
				<path class="st1" d="M78.8-51.7c1.9,0,3.5-1.9,3.5-4.3c0-2.4-1.6-4.3-3.5-4.3c-1.9,0-3.5,1.9-3.5,4.3
					C75.3-53.6,76.9-51.7,78.8-51.7z"/>
				<path class="st1" d="M83.6-50.5c-0.1,0-0.1-0.1-0.2-0.1c-3.1-0.4-6.1-0.4-9.2,0c-0.1,0-0.1,0.1-0.2,0.1c0,0,0,0,0,0
					c-1-0.1-2,0.8-2.1,1.9l-0.7,8.8h15.4l-0.7-8.8c-0.1-1.1-1-2-2.1-1.9C83.7-50.5,83.7-50.5,83.6-50.5z"/>
			</g>
			<g>
				<path class="st1" d="M99.9-52.2c1.9,0,3.5-1.9,3.5-4.3c0-2.4-1.6-4.3-3.5-4.3c-1.9,0-3.5,1.9-3.5,4.3
					C96.4-54.1,97.9-52.2,99.9-52.2z"/>
				<path class="st1" d="M104.7-51c-0.1,0-0.1-0.1-0.2-0.1c-3.1-0.4-6.1-0.4-9.2,0c-0.1,0-0.1,0.1-0.2,0.1c0,0,0,0,0,0
					c-1-0.1-2,0.8-2.1,1.9l-0.7,8.8h15.4l-0.7-8.8c-0.1-1.1-1-2-2.1-1.9C104.8-51,104.8-51,104.7-51z"/>
			</g>
			<g>
				<path class="st1" d="M120.9-51.7c1.9,0,3.5-1.9,3.5-4.3c0-2.4-1.6-4.3-3.5-4.3c-1.9,0-3.5,1.9-3.5,4.3
					C117.5-53.6,119-51.7,120.9-51.7z"/>
				<path class="st1" d="M125.8-50.5c-0.1,0-0.1-0.1-0.2-0.1c-3.1-0.4-6.1-0.4-9.2,0c-0.1,0-0.1,0.1-0.2,0.1c0,0,0,0,0,0
					c-1-0.1-2,0.8-2.1,1.9l-0.7,8.8h15.4l-0.7-8.8c-0.1-1.1-1-2-2.1-1.9C125.9-50.5,125.8-50.5,125.8-50.5z"/>
			</g>
			<g>
				<path class="st1" d="M142-52.2c1.9,0,3.5-1.9,3.5-4.3c0-2.4-1.6-4.3-3.5-4.3c-1.9,0-3.5,1.9-3.5,4.3
					C138.6-54.1,140.1-52.2,142-52.2z"/>
				<path class="st1" d="M146.9-51c-0.1,0-0.1-0.1-0.2-0.1c-3.1-0.4-6.1-0.4-9.2,0c-0.1,0-0.1,0.1-0.2,0.1c0,0,0,0,0,0
					c-1-0.1-2,0.8-2.1,1.9l-0.7,8.8h15.4l-0.7-8.8c-0.1-1.1-1-2-2.1-1.9C147-51,146.9-51,146.9-51z"/>
			</g>
			<g>
				<path class="st1" d="M163.1-51.7c1.9,0,3.5-1.9,3.5-4.3c0-2.4-1.6-4.3-3.5-4.3c-1.9,0-3.5,1.9-3.5,4.3
					C159.7-53.6,161.2-51.7,163.1-51.7z"/>
				<path class="st1" d="M168-50.5c-0.1,0-0.1-0.1-0.2-0.1c-3.1-0.4-6.1-0.4-9.2,0c-0.1,0-0.1,0.1-0.2,0.1c0,0,0,0,0,0
					c-1-0.1-2,0.8-2.1,1.9l-0.7,8.8h15.4l-0.7-8.8c-0.1-1.1-1-2-2.1-1.9C168.1-50.5,168-50.5,168-50.5z"/>
			</g>
			<g>
				<path class="st1" d="M184.2-52.2c1.9,0,3.5-1.9,3.5-4.3c0-2.4-1.6-4.3-3.5-4.3c-1.9,0-3.5,1.9-3.5,4.3
					C180.7-54.1,182.3-52.2,184.2-52.2z"/>
				<path class="st1" d="M189.1-51c-0.1,0-0.1-0.1-0.2-0.1c-3.1-0.4-6.1-0.4-9.2,0c-0.1,0-0.1,0.1-0.2,0.1c0,0,0,0,0,0
					c-1-0.1-2,0.8-2.1,1.9l-0.7,8.8H192l-0.7-8.8c-0.1-1.1-1-2-2.1-1.9C189.2-51,189.1-51,189.1-51z"/>
			</g>
		</g>
		<g>
			<g>
				<path class="st1" d="M-121.6-26.6c1.9,0,3.5-1.9,3.5-4.3c0-2.4-1.6-4.3-3.5-4.3c-1.9,0-3.5,1.9-3.5,4.3
					C-125.1-28.6-123.5-26.6-121.6-26.6z"/>
				<path class="st1" d="M-116.7-25.5c-0.1,0-0.1-0.1-0.2-0.1c-3.1-0.4-6.1-0.4-9.2,0c-0.1,0-0.1,0.1-0.2,0.1c0,0,0,0,0,0
					c-1-0.1-2,0.8-2.1,1.9l-0.7,8.8h15.4l-0.7-8.8c-0.1-1.1-1-2-2.1-1.9C-116.7-25.5-116.7-25.5-116.7-25.5z"/>
			</g>
			<g>
				<path class="st1" d="M-100.5-27.1c1.9,0,3.5-1.9,3.5-4.3c0-2.4-1.6-4.3-3.5-4.3c-1.9,0-3.5,1.9-3.5,4.3
					C-104-29-102.4-27.1-100.5-27.1z"/>
				<path class="st1" d="M-95.6-26c-0.1,0-0.1-0.1-0.2-0.1c-3.1-0.4-6.1-0.4-9.2,0c-0.1,0-0.1,0.1-0.2,0.1c0,0,0,0,0,0
					c-1-0.1-2,0.8-2.1,1.9l-0.7,8.8h15.4l-0.7-8.8c-0.1-1.1-1-2-2.1-1.9C-95.6-26-95.6-26-95.6-26z"/>
			</g>
			<g>
				<path class="st1" d="M-79.4-26.6c1.9,0,3.5-1.9,3.5-4.3c0-2.4-1.6-4.3-3.5-4.3c-1.9,0-3.5,1.9-3.5,4.3
					C-82.9-28.6-81.3-26.6-79.4-26.6z"/>
				<path class="st1" d="M-74.6-25.5c-0.1,0-0.1-0.1-0.2-0.1c-3.1-0.4-6.1-0.4-9.2,0c-0.1,0-0.1,0.1-0.2,0.1c0,0,0,0,0,0
					c-1-0.1-2,0.8-2.1,1.9l-0.7,8.8h15.4l-0.7-8.8c-0.1-1.1-1-2-2.1-1.9C-74.5-25.5-74.5-25.5-74.6-25.5z"/>
			</g>
			<g>
				<path class="st1" d="M-58.3-27.1c1.9,0,3.5-1.9,3.5-4.3c0-2.4-1.6-4.3-3.5-4.3c-1.9,0-3.5,1.9-3.5,4.3
					C-61.8-29-60.2-27.1-58.3-27.1z"/>
				<path class="st1" d="M-53.5-26c-0.1,0-0.1-0.1-0.2-0.1c-3.1-0.4-6.1-0.4-9.2,0c-0.1,0-0.1,0.1-0.2,0.1c0,0,0,0,0,0
					c-1-0.1-2,0.8-2.1,1.9l-0.7,8.8h15.4l-0.7-8.8c-0.1-1.1-1-2-2.1-1.9C-53.4-26-53.4-26-53.5-26z"/>
			</g>
			<g>
				<path class="st1" d="M-37.2-26.6c1.9,0,3.5-1.9,3.5-4.3c0-2.4-1.6-4.3-3.5-4.3c-1.9,0-3.5,1.9-3.5,4.3
					C-40.7-28.6-39.1-26.6-37.2-26.6z"/>
				<path class="st1" d="M-32.4-25.5c-0.1,0-0.1-0.1-0.2-0.1c-3.1-0.4-6.1-0.4-9.2,0c-0.1,0-0.1,0.1-0.2,0.1c0,0,0,0,0,0
					c-1-0.1-2,0.8-2.1,1.9l-0.7,8.8h15.4l-0.7-8.8c-0.1-1.1-1-2-2.1-1.9C-32.3-25.5-32.3-25.5-32.4-25.5z"/>
			</g>
			<g>
				<path class="st1" d="M-16.1-27.1c1.9,0,3.5-1.9,3.5-4.3c0-2.4-1.6-4.3-3.5-4.3c-1.9,0-3.5,1.9-3.5,4.3
					C-19.6-29-18.1-27.1-16.1-27.1z"/>
				<path class="st1" d="M-11.3-26c-0.1,0-0.1-0.1-0.2-0.1c-3.1-0.4-6.1-0.4-9.2,0c-0.1,0-0.1,0.1-0.2,0.1c0,0,0,0,0,0
					c-1-0.1-2,0.8-2.1,1.9l-0.7,8.8h15.4l-0.7-8.8c-0.1-1.1-1-2-2.1-1.9C-11.2-26-11.2-26-11.3-26z"/>
			</g>
			<g>
				<path class="st1" d="M5-26.6c1.9,0,3.5-1.9,3.5-4.3c0-2.4-1.6-4.3-3.5-4.3c-1.9,0-3.5,1.9-3.5,4.3C1.5-28.6,3-26.6,5-26.6z"/>
				<path class="st1" d="M9.8-25.5c-0.1,0-0.1-0.1-0.2-0.1c-3.1-0.4-6.1-0.4-9.2,0c-0.1,0-0.1,0.1-0.2,0.1c0,0,0,0,0,0
					c-1-0.1-2,0.8-2.1,1.9l-0.7,8.8h15.4L12-23.6c-0.1-1.1-1-2-2.1-1.9C9.9-25.5,9.8-25.5,9.8-25.5z"/>
			</g>
			<g>
				<path class="st1" d="M26-27.1c1.9,0,3.5-1.9,3.5-4.3c0-2.4-1.6-4.3-3.5-4.3c-1.9,0-3.5,1.9-3.5,4.3C22.6-29,24.1-27.1,26-27.1z"
					/>
				<path class="st1" d="M30.9-26c-0.1,0-0.1-0.1-0.2-0.1c-3.1-0.4-6.1-0.4-9.2,0c-0.1,0-0.1,0.1-0.2,0.1c0,0,0,0,0,0
					c-1-0.1-2,0.8-2.1,1.9l-0.7,8.8h15.4l-0.7-8.8c-0.1-1.1-1-2-2.1-1.9C31-26,30.9-26,30.9-26z"/>
			</g>
			<g>
				<path class="st1" d="M47.1-26.6c1.9,0,3.5-1.9,3.5-4.3c0-2.4-1.6-4.3-3.5-4.3c-1.9,0-3.5,1.9-3.5,4.3
					C43.7-28.6,45.2-26.6,47.1-26.6z"/>
				<path class="st1" d="M52-25.5c-0.1,0-0.1-0.1-0.2-0.1c-3.1-0.4-6.1-0.4-9.2,0c-0.1,0-0.1,0.1-0.2,0.1c0,0,0,0,0,0
					c-1-0.1-2,0.8-2.1,1.9l-0.7,8.8h15.4l-0.7-8.8c-0.1-1.1-1-2-2.1-1.9C52.1-25.5,52-25.5,52-25.5z"/>
			</g>
			<g>
				<path class="st1" d="M68.2-27.1c1.9,0,3.5-1.9,3.5-4.3c0-2.4-1.6-4.3-3.5-4.3c-1.9,0-3.5,1.9-3.5,4.3
					C64.7-29,66.3-27.1,68.2-27.1z"/>
				<path class="st1" d="M73.1-26c-0.1,0-0.1-0.1-0.2-0.1c-3.1-0.4-6.1-0.4-9.2,0c-0.1,0-0.1,0.1-0.2,0.1c0,0,0,0,0,0
					c-1-0.1-2,0.8-2.1,1.9l-0.7,8.8H76l-0.7-8.8c-0.1-1.1-1-2-2.1-1.9C73.2-26,73.1-26,73.1-26z"/>
			</g>
			<g>
				<path class="st1" d="M89.3-26.6c1.9,0,3.5-1.9,3.5-4.3c0-2.4-1.6-4.3-3.5-4.3c-1.9,0-3.5,1.9-3.5,4.3
					C85.8-28.6,87.4-26.6,89.3-26.6z"/>
				<path class="st1" d="M94.2-25.5c-0.1,0-0.1-0.1-0.2-0.1c-3.1-0.4-6.1-0.4-9.2,0c-0.1,0-0.1,0.1-0.2,0.1c0,0,0,0,0,0
					c-1-0.1-2,0.8-2.1,1.9l-0.7,8.8H97l-0.7-8.8c-0.1-1.1-1-2-2.1-1.9C94.2-25.5,94.2-25.5,94.2-25.5z"/>
			</g>
			<g>
				<path class="st1" d="M110.4-27.1c1.9,0,3.5-1.9,3.5-4.3c0-2.4-1.6-4.3-3.5-4.3c-1.9,0-3.5,1.9-3.5,4.3
					C106.9-29,108.5-27.1,110.4-27.1z"/>
				<path class="st1" d="M115.3-26c-0.1,0-0.1-0.1-0.2-0.1c-3.1-0.4-6.1-0.4-9.2,0c-0.1,0-0.1,0.1-0.2,0.1c0,0,0,0,0,0
					c-1-0.1-2,0.8-2.1,1.9l-0.7,8.8h15.4l-0.7-8.8c-0.1-1.1-1-2-2.1-1.9C115.3-26,115.3-26,115.3-26z"/>
			</g>
			<g>
				<path class="st1" d="M131.5-26.6c1.9,0,3.5-1.9,3.5-4.3c0-2.4-1.6-4.3-3.5-4.3c-1.9,0-3.5,1.9-3.5,4.3
					C128-28.6,129.6-26.6,131.5-26.6z"/>
				<path class="st1" d="M136.4-25.5c-0.1,0-0.1-0.1-0.2-0.1c-3.1-0.4-6.1-0.4-9.2,0c-0.1,0-0.1,0.1-0.2,0.1c0,0,0,0,0,0
					c-1-0.1-2,0.8-2.1,1.9l-0.7,8.8h15.4l-0.7-8.8c-0.1-1.1-1-2-2.1-1.9C136.4-25.5,136.4-25.5,136.4-25.5z"/>
			</g>
			<g>
				<path class="st1" d="M152.6-27.1c1.9,0,3.5-1.9,3.5-4.3c0-2.4-1.6-4.3-3.5-4.3c-1.9,0-3.5,1.9-3.5,4.3
					C149.1-29,150.7-27.1,152.6-27.1z"/>
				<path class="st1" d="M157.4-26c-0.1,0-0.1-0.1-0.2-0.1c-3.1-0.4-6.1-0.4-9.2,0c-0.1,0-0.1,0.1-0.2,0.1c0,0,0,0,0,0
					c-1-0.1-2,0.8-2.1,1.9l-0.7,8.8h15.4l-0.7-8.8c-0.1-1.1-1-2-2.1-1.9C157.5-26,157.5-26,157.4-26z"/>
			</g>
			<g>
				<path class="st1" d="M173.7-26.6c1.9,0,3.5-1.9,3.5-4.3c0-2.4-1.6-4.3-3.5-4.3c-1.9,0-3.5,1.9-3.5,4.3
					C170.2-28.6,171.8-26.6,173.7-26.6z"/>
				<path class="st1" d="M178.5-25.5c-0.1,0-0.1-0.1-0.2-0.1c-3.1-0.4-6.1-0.4-9.2,0c-0.1,0-0.1,0.1-0.2,0.1c0,0,0,0,0,0
					c-1-0.1-2,0.8-2.1,1.9l-0.7,8.8h15.4l-0.7-8.8c-0.1-1.1-1-2-2.1-1.9C178.6-25.5,178.6-25.5,178.5-25.5z"/>
			</g>
			<g>
				<path class="st1" d="M194.8-27.1c1.9,0,3.5-1.9,3.5-4.3c0-2.4-1.6-4.3-3.5-4.3c-1.9,0-3.5,1.9-3.5,4.3
					C191.3-29,192.8-27.1,194.8-27.1z"/>
				<path class="st1" d="M199.6-26c-0.1,0-0.1-0.1-0.2-0.1c-3.1-0.4-6.1-0.4-9.2,0c-0.1,0-0.1,0.1-0.2,0.1c0,0,0,0,0,0
					c-1-0.1-2,0.8-2.1,1.9l-0.7,8.8h15.4l-0.7-8.8c-0.1-1.1-1-2-2.1-1.9C199.7-26,199.7-26,199.6-26z"/>
			</g>
		</g>
		<g>
			<g>
				<path class="st1" d="M-132.1-1.6c1.9,0,3.5-1.9,3.5-4.3c0-2.4-1.6-4.3-3.5-4.3c-1.9,0-3.5,1.9-3.5,4.3
					C-135.6-3.5-134.1-1.6-132.1-1.6z"/>
				<path class="st1" d="M-127.3-0.4c-0.1,0-0.1-0.1-0.2-0.1c-3.1-0.4-6.1-0.4-9.2,0c-0.1,0-0.1,0.1-0.2,0.1c0,0,0,0,0,0
					c-1-0.1-2,0.8-2.1,1.9l-0.7,8.8h15.4l-0.7-8.8c-0.1-1.1-1-2-2.1-1.9C-127.2-0.5-127.2-0.4-127.3-0.4z"/>
			</g>
			<g>
				<path class="st1" d="M-111-2.1c1.9,0,3.5-1.9,3.5-4.3c0-2.4-1.6-4.3-3.5-4.3c-1.9,0-3.5,1.9-3.5,4.3C-114.5-4-113-2.1-111-2.1z"
					/>
				<path class="st1" d="M-106.2-0.9c-0.1,0-0.1-0.1-0.2-0.1c-3.1-0.4-6.1-0.4-9.2,0c-0.1,0-0.1,0.1-0.2,0.1c0,0,0,0,0,0
					c-1-0.1-2,0.8-2.1,1.9l-0.7,8.8h15.4L-104,1c-0.1-1.1-1-2-2.1-1.9C-106.1-0.9-106.2-0.9-106.2-0.9z"/>
			</g>
			<g>
				<path class="st1" d="M-90-1.6c1.9,0,3.5-1.9,3.5-4.3c0-2.4-1.6-4.3-3.5-4.3c-1.9,0-3.5,1.9-3.5,4.3C-93.4-3.5-91.9-1.6-90-1.6z"
					/>
				<path class="st1" d="M-85.1-0.4c-0.1,0-0.1-0.1-0.2-0.1c-3.1-0.4-6.1-0.4-9.2,0c-0.1,0-0.1,0.1-0.2,0.1c0,0,0,0,0,0
					c-1-0.1-2,0.8-2.1,1.9l-0.7,8.8h15.4l-0.7-8.8c-0.1-1.1-1-2-2.1-1.9C-85-0.5-85.1-0.4-85.1-0.4z"/>
			</g>
			<g>
				<path class="st1" d="M-68.9-2.1c1.9,0,3.5-1.9,3.5-4.3c0-2.4-1.6-4.3-3.5-4.3c-1.9,0-3.5,1.9-3.5,4.3C-72.3-4-70.8-2.1-68.9-2.1
					z"/>
				<path class="st1" d="M-64-0.9C-64.1-1-64.2-1-64.2-1c-3.1-0.4-6.1-0.4-9.2,0c-0.1,0-0.1,0.1-0.2,0.1c0,0,0,0,0,0
					c-1-0.1-2,0.8-2.1,1.9l-0.7,8.8h15.4L-61.8,1c-0.1-1.1-1-2-2.1-1.9C-63.9-0.9-64-0.9-64-0.9z"/>
			</g>
			<g>
				<path class="st1" d="M-47.8-1.6c1.9,0,3.5-1.9,3.5-4.3c0-2.4-1.6-4.3-3.5-4.3c-1.9,0-3.5,1.9-3.5,4.3
					C-51.3-3.5-49.7-1.6-47.8-1.6z"/>
				<path class="st1" d="M-42.9-0.4c-0.1,0-0.1-0.1-0.2-0.1c-3.1-0.4-6.1-0.4-9.2,0c-0.1,0-0.1,0.1-0.2,0.1c0,0,0,0,0,0
					c-1-0.1-2,0.8-2.1,1.9l-0.7,8.8H-40l-0.7-8.8c-0.1-1.1-1-2-2.1-1.9C-42.8-0.5-42.9-0.4-42.9-0.4z"/>
			</g>
			<g>
				<path class="st1" d="M-26.7-2.1c1.9,0,3.5-1.9,3.5-4.3c0-2.4-1.6-4.3-3.5-4.3c-1.9,0-3.5,1.9-3.5,4.3C-30.2-4-28.6-2.1-26.7-2.1
					z"/>
				<path class="st1" d="M-21.8-0.9C-21.9-1-22-1-22.1-1c-3.1-0.4-6.1-0.4-9.2,0c-0.1,0-0.1,0.1-0.2,0.1c0,0,0,0,0,0
					c-1-0.1-2,0.8-2.1,1.9l-0.7,8.8H-19L-19.6,1c-0.1-1.1-1-2-2.1-1.9C-21.8-0.9-21.8-0.9-21.8-0.9z"/>
			</g>
			<g>
				<path class="st1" d="M-5.6-1.6c1.9,0,3.5-1.9,3.5-4.3c0-2.4-1.6-4.3-3.5-4.3c-1.9,0-3.5,1.9-3.5,4.3C-9.1-3.5-7.5-1.6-5.6-1.6z"
					/>
				<path class="st1" d="M-0.7-0.4c-0.1,0-0.1-0.1-0.2-0.1c-3.1-0.4-6.1-0.4-9.2,0c-0.1,0-0.1,0.1-0.2,0.1c0,0,0,0,0,0
					c-1-0.1-2,0.8-2.1,1.9l-0.7,8.8H2.1L1.4,1.5c-0.1-1.1-1-2-2.1-1.9C-0.7-0.5-0.7-0.4-0.7-0.4z"/>
			</g>
			<g>
				<path class="st1" d="M15.5-2.1C17.4-2.1,19-4,19-6.4c0-2.4-1.6-4.3-3.5-4.3c-1.9,0-3.5,1.9-3.5,4.3C12-4,13.6-2.1,15.5-2.1z"/>
				<path class="st1" d="M20.4-0.9C20.3-1,20.2-1,20.1-1C17-1.4,14-1.4,10.9-1c-0.1,0-0.1,0.1-0.2,0.1c0,0,0,0,0,0
					C9.6-1,8.7-0.2,8.6,1L7.9,9.8h15.4L22.5,1c-0.1-1.1-1-2-2.1-1.9C20.4-0.9,20.4-0.9,20.4-0.9z"/>
			</g>
			<g>
				<path class="st1" d="M36.6-1.6c1.9,0,3.5-1.9,3.5-4.3c0-2.4-1.6-4.3-3.5-4.3c-1.9,0-3.5,1.9-3.5,4.3C33.1-3.5,34.7-1.6,36.6-1.6
					z"/>
				<path class="st1" d="M41.4-0.4c-0.1,0-0.1-0.1-0.2-0.1c-3.1-0.4-6.1-0.4-9.2,0c-0.1,0-0.1,0.1-0.2,0.1c0,0,0,0,0,0
					c-1-0.1-2,0.8-2.1,1.9L29,10.3h15.4l-0.7-8.8c-0.1-1.1-1-2-2.1-1.9C41.5-0.5,41.5-0.4,41.4-0.4z"/>
			</g>
			<g>
				<path class="st1" d="M57.7-2.1c1.9,0,3.5-1.9,3.5-4.3c0-2.4-1.6-4.3-3.5-4.3c-1.9,0-3.5,1.9-3.5,4.3C54.2-4,55.8-2.1,57.7-2.1z"
					/>
				<path class="st1" d="M62.5-0.9C62.5-1,62.4-1,62.3-1c-3.1-0.4-6.1-0.4-9.2,0C53-1,52.9-1,52.9-0.9c0,0,0,0,0,0
					c-1-0.1-2,0.8-2.1,1.9l-0.7,8.8h15.4L64.7,1c-0.1-1.1-1-2-2.1-1.9C62.6-0.9,62.6-0.9,62.5-0.9z"/>
			</g>
			<g>
				<path class="st1" d="M78.8-1.6c1.9,0,3.5-1.9,3.5-4.3c0-2.4-1.6-4.3-3.5-4.3c-1.9,0-3.5,1.9-3.5,4.3C75.3-3.5,76.9-1.6,78.8-1.6
					z"/>
				<path class="st1" d="M83.6-0.4c-0.1,0-0.1-0.1-0.2-0.1c-3.1-0.4-6.1-0.4-9.2,0c-0.1,0-0.1,0.1-0.2,0.1c0,0,0,0,0,0
					c-1-0.1-2,0.8-2.1,1.9l-0.7,8.8h15.4l-0.7-8.8c-0.1-1.1-1-2-2.1-1.9C83.7-0.5,83.7-0.4,83.6-0.4z"/>
			</g>
			<g>
				<path class="st1" d="M99.9-2.1c1.9,0,3.5-1.9,3.5-4.3c0-2.4-1.6-4.3-3.5-4.3c-1.9,0-3.5,1.9-3.5,4.3C96.4-4,97.9-2.1,99.9-2.1z"
					/>
				<path class="st1" d="M104.7-0.9c-0.1,0-0.1-0.1-0.2-0.1c-3.1-0.4-6.1-0.4-9.2,0C95.2-1,95.1-1,95-0.9c0,0,0,0,0,0
					C94-1,93-0.2,92.9,1l-0.7,8.8h15.4L106.9,1c-0.1-1.1-1-2-2.1-1.9C104.8-0.9,104.8-0.9,104.7-0.9z"/>
			</g>
			<g>
				<path class="st1" d="M120.9-1.6c1.9,0,3.5-1.9,3.5-4.3c0-2.4-1.6-4.3-3.5-4.3c-1.9,0-3.5,1.9-3.5,4.3
					C117.5-3.5,119-1.6,120.9-1.6z"/>
				<path class="st1" d="M125.8-0.4c-0.1,0-0.1-0.1-0.2-0.1c-3.1-0.4-6.1-0.4-9.2,0c-0.1,0-0.1,0.1-0.2,0.1c0,0,0,0,0,0
					c-1-0.1-2,0.8-2.1,1.9l-0.7,8.8h15.4L128,1.5c-0.1-1.1-1-2-2.1-1.9C125.9-0.5,125.8-0.4,125.8-0.4z"/>
			</g>
			<g>
				<path class="st1" d="M142-2.1c1.9,0,3.5-1.9,3.5-4.3c0-2.4-1.6-4.3-3.5-4.3c-1.9,0-3.5,1.9-3.5,4.3C138.6-4,140.1-2.1,142-2.1z"
					/>
				<path class="st1" d="M146.9-0.9c-0.1,0-0.1-0.1-0.2-0.1c-3.1-0.4-6.1-0.4-9.2,0c-0.1,0-0.1,0.1-0.2,0.1c0,0,0,0,0,0
					c-1-0.1-2,0.8-2.1,1.9l-0.7,8.8h15.4L149.1,1c-0.1-1.1-1-2-2.1-1.9C147-0.9,146.9-0.9,146.9-0.9z"/>
			</g>
			<g>
				<path class="st1" d="M163.1-1.6c1.9,0,3.5-1.9,3.5-4.3c0-2.4-1.6-4.3-3.5-4.3c-1.9,0-3.5,1.9-3.5,4.3
					C159.7-3.5,161.2-1.6,163.1-1.6z"/>
				<path class="st1" d="M168-0.4c-0.1,0-0.1-0.1-0.2-0.1c-3.1-0.4-6.1-0.4-9.2,0c-0.1,0-0.1,0.1-0.2,0.1c0,0,0,0,0,0
					c-1-0.1-2,0.8-2.1,1.9l-0.7,8.8h15.4l-0.7-8.8c-0.1-1.1-1-2-2.1-1.9C168.1-0.5,168-0.4,168-0.4z"/>
			</g>
			<g>
				<path class="st1" d="M184.2-2.1c1.9,0,3.5-1.9,3.5-4.3c0-2.4-1.6-4.3-3.5-4.3c-1.9,0-3.5,1.9-3.5,4.3
					C180.7-4,182.3-2.1,184.2-2.1z"/>
				<path class="st1" d="M189.1-0.9C189-1,188.9-1,188.8-1c-3.1-0.4-6.1-0.4-9.2,0c-0.1,0-0.1,0.1-0.2,0.1c0,0,0,0,0,0
					c-1-0.1-2,0.8-2.1,1.9l-0.7,8.8H192L191.3,1c-0.1-1.1-1-2-2.1-1.9C189.2-0.9,189.1-0.9,189.1-0.9z"/>
			</g>
		</g>
		<g>
			<g>
				<path class="st1" d="M-121.6,23.5c1.9,0,3.5-1.9,3.5-4.3c0-2.4-1.6-4.3-3.5-4.3c-1.9,0-3.5,1.9-3.5,4.3
					C-125.1,21.5-123.5,23.5-121.6,23.5z"/>
				<path class="st1" d="M-116.7,24.6c-0.1,0-0.1-0.1-0.2-0.1c-3.1-0.4-6.1-0.4-9.2,0c-0.1,0-0.1,0.1-0.2,0.1c0,0,0,0,0,0
					c-1-0.1-2,0.8-2.1,1.9l-0.7,8.8h15.4l-0.7-8.8c-0.1-1.1-1-2-2.1-1.9C-116.7,24.6-116.7,24.6-116.7,24.6z"/>
			</g>
			<g>
				<path class="st1" d="M-100.5,23c1.9,0,3.5-1.9,3.5-4.3c0-2.4-1.6-4.3-3.5-4.3c-1.9,0-3.5,1.9-3.5,4.3C-104,21-102.4,23-100.5,23
					z"/>
				<path class="st1" d="M-95.6,24.1c-0.1,0-0.1-0.1-0.2-0.1c-3.1-0.4-6.1-0.4-9.2,0c-0.1,0-0.1,0.1-0.2,0.1c0,0,0,0,0,0
					c-1-0.1-2,0.8-2.1,1.9l-0.7,8.8h15.4l-0.7-8.8c-0.1-1.1-1-2-2.1-1.9C-95.6,24.1-95.6,24.1-95.6,24.1z"/>
			</g>
			<g>
				<path class="st1" d="M-79.4,23.5c1.9,0,3.5-1.9,3.5-4.3c0-2.4-1.6-4.3-3.5-4.3c-1.9,0-3.5,1.9-3.5,4.3
					C-82.9,21.5-81.3,23.5-79.4,23.5z"/>
				<path class="st1" d="M-74.6,24.6c-0.1,0-0.1-0.1-0.2-0.1c-3.1-0.4-6.1-0.4-9.2,0c-0.1,0-0.1,0.1-0.2,0.1c0,0,0,0,0,0
					c-1-0.1-2,0.8-2.1,1.9l-0.7,8.8h15.4l-0.7-8.8c-0.1-1.1-1-2-2.1-1.9C-74.5,24.6-74.5,24.6-74.6,24.6z"/>
			</g>
			<g>
				<path class="st1" d="M-58.3,23c1.9,0,3.5-1.9,3.5-4.3c0-2.4-1.6-4.3-3.5-4.3c-1.9,0-3.5,1.9-3.5,4.3C-61.8,21-60.2,23-58.3,23z"
					/>
				<path class="st1" d="M-53.5,24.1c-0.1,0-0.1-0.1-0.2-0.1c-3.1-0.4-6.1-0.4-9.2,0c-0.1,0-0.1,0.1-0.2,0.1c0,0,0,0,0,0
					c-1-0.1-2,0.8-2.1,1.9l-0.7,8.8h15.4l-0.7-8.8c-0.1-1.1-1-2-2.1-1.9C-53.4,24.1-53.4,24.1-53.5,24.1z"/>
			</g>
			<g>
				<path class="st1" d="M-37.2,23.5c1.9,0,3.5-1.9,3.5-4.3c0-2.4-1.6-4.3-3.5-4.3c-1.9,0-3.5,1.9-3.5,4.3
					C-40.7,21.5-39.1,23.5-37.2,23.5z"/>
				<path class="st1" d="M-32.4,24.6c-0.1,0-0.1-0.1-0.2-0.1c-3.1-0.4-6.1-0.4-9.2,0c-0.1,0-0.1,0.1-0.2,0.1c0,0,0,0,0,0
					c-1-0.1-2,0.8-2.1,1.9l-0.7,8.8h15.4l-0.7-8.8c-0.1-1.1-1-2-2.1-1.9C-32.3,24.6-32.3,24.6-32.4,24.6z"/>
			</g>
			<g>
				<path class="st1" d="M-16.1,23c1.9,0,3.5-1.9,3.5-4.3c0-2.4-1.6-4.3-3.5-4.3c-1.9,0-3.5,1.9-3.5,4.3C-19.6,21-18.1,23-16.1,23z"
					/>
				<path class="st1" d="M-11.3,24.1c-0.1,0-0.1-0.1-0.2-0.1c-3.1-0.4-6.1-0.4-9.2,0c-0.1,0-0.1,0.1-0.2,0.1c0,0,0,0,0,0
					c-1-0.1-2,0.8-2.1,1.9l-0.7,8.8h15.4L-9.1,26c-0.1-1.1-1-2-2.1-1.9C-11.2,24.1-11.2,24.1-11.3,24.1z"/>
			</g>
			<g>
				<path class="st1" d="M5,23.5c1.9,0,3.5-1.9,3.5-4.3c0-2.4-1.6-4.3-3.5-4.3c-1.9,0-3.5,1.9-3.5,4.3C1.5,21.5,3,23.5,5,23.5z"/>
				<path class="st1" d="M9.8,24.6c-0.1,0-0.1-0.1-0.2-0.1c-3.1-0.4-6.1-0.4-9.2,0c-0.1,0-0.1,0.1-0.2,0.1c0,0,0,0,0,0
					c-1-0.1-2,0.8-2.1,1.9l-0.7,8.8h15.4L12,26.5c-0.1-1.1-1-2-2.1-1.9C9.9,24.6,9.8,24.6,9.8,24.6z"/>
			</g>
			<g>
				<path class="st1" d="M26,23c1.9,0,3.5-1.9,3.5-4.3c0-2.4-1.6-4.3-3.5-4.3c-1.9,0-3.5,1.9-3.5,4.3C22.6,21,24.1,23,26,23z"/>
				<path class="st1" d="M30.9,24.1c-0.1,0-0.1-0.1-0.2-0.1c-3.1-0.4-6.1-0.4-9.2,0c-0.1,0-0.1,0.1-0.2,0.1c0,0,0,0,0,0
					c-1-0.1-2,0.8-2.1,1.9l-0.7,8.8h15.4L33.1,26c-0.1-1.1-1-2-2.1-1.9C31,24.1,30.9,24.1,30.9,24.1z"/>
			</g>
			<g>
				<path class="st1" d="M47.1,23.5c1.9,0,3.5-1.9,3.5-4.3c0-2.4-1.6-4.3-3.5-4.3c-1.9,0-3.5,1.9-3.5,4.3
					C43.7,21.5,45.2,23.5,47.1,23.5z"/>
				<path class="st1" d="M52,24.6c-0.1,0-0.1-0.1-0.2-0.1c-3.1-0.4-6.1-0.4-9.2,0c-0.1,0-0.1,0.1-0.2,0.1c0,0,0,0,0,0
					c-1-0.1-2,0.8-2.1,1.9l-0.7,8.8h15.4l-0.7-8.8c-0.1-1.1-1-2-2.1-1.9C52.1,24.6,52,24.6,52,24.6z"/>
			</g>
			<g>
				<path class="st1" d="M68.2,23c1.9,0,3.5-1.9,3.5-4.3c0-2.4-1.6-4.3-3.5-4.3c-1.9,0-3.5,1.9-3.5,4.3C64.7,21,66.3,23,68.2,23z"/>
				<path class="st1" d="M73.1,24.1c-0.1,0-0.1-0.1-0.2-0.1c-3.1-0.4-6.1-0.4-9.2,0c-0.1,0-0.1,0.1-0.2,0.1c0,0,0,0,0,0
					c-1-0.1-2,0.8-2.1,1.9l-0.7,8.8H76L75.3,26c-0.1-1.1-1-2-2.1-1.9C73.2,24.1,73.1,24.1,73.1,24.1z"/>
			</g>
			<g>
				<path class="st1" d="M89.3,23.5c1.9,0,3.5-1.9,3.5-4.3c0-2.4-1.6-4.3-3.5-4.3c-1.9,0-3.5,1.9-3.5,4.3
					C85.8,21.5,87.4,23.5,89.3,23.5z"/>
				<path class="st1" d="M94.2,24.6c-0.1,0-0.1-0.1-0.2-0.1c-3.1-0.4-6.1-0.4-9.2,0c-0.1,0-0.1,0.1-0.2,0.1c0,0,0,0,0,0
					c-1-0.1-2,0.8-2.1,1.9l-0.7,8.8H97l-0.7-8.8c-0.1-1.1-1-2-2.1-1.9C94.2,24.6,94.2,24.6,94.2,24.6z"/>
			</g>
			<g>
				<path class="st1" d="M110.4,23c1.9,0,3.5-1.9,3.5-4.3c0-2.4-1.6-4.3-3.5-4.3c-1.9,0-3.5,1.9-3.5,4.3C106.9,21,108.5,23,110.4,23
					z"/>
				<path class="st1" d="M115.3,24.1c-0.1,0-0.1-0.1-0.2-0.1c-3.1-0.4-6.1-0.4-9.2,0c-0.1,0-0.1,0.1-0.2,0.1c0,0,0,0,0,0
					c-1-0.1-2,0.8-2.1,1.9l-0.7,8.8h15.4l-0.7-8.8c-0.1-1.1-1-2-2.1-1.9C115.3,24.1,115.3,24.1,115.3,24.1z"/>
			</g>
			<g>
				<path class="st1" d="M131.5,23.5c1.9,0,3.5-1.9,3.5-4.3c0-2.4-1.6-4.3-3.5-4.3c-1.9,0-3.5,1.9-3.5,4.3
					C128,21.5,129.6,23.5,131.5,23.5z"/>
				<path class="st1" d="M136.4,24.6c-0.1,0-0.1-0.1-0.2-0.1c-3.1-0.4-6.1-0.4-9.2,0c-0.1,0-0.1,0.1-0.2,0.1c0,0,0,0,0,0
					c-1-0.1-2,0.8-2.1,1.9l-0.7,8.8h15.4l-0.7-8.8c-0.1-1.1-1-2-2.1-1.9C136.4,24.6,136.4,24.6,136.4,24.6z"/>
			</g>
			<g>
				<path class="st1" d="M152.6,23c1.9,0,3.5-1.9,3.5-4.3c0-2.4-1.6-4.3-3.5-4.3c-1.9,0-3.5,1.9-3.5,4.3C149.1,21,150.7,23,152.6,23
					z"/>
				<path class="st1" d="M157.4,24.1c-0.1,0-0.1-0.1-0.2-0.1c-3.1-0.4-6.1-0.4-9.2,0c-0.1,0-0.1,0.1-0.2,0.1c0,0,0,0,0,0
					c-1-0.1-2,0.8-2.1,1.9l-0.7,8.8h15.4l-0.7-8.8c-0.1-1.1-1-2-2.1-1.9C157.5,24.1,157.5,24.1,157.4,24.1z"/>
			</g>
			<g>
				<path class="st1" d="M173.7,23.5c1.9,0,3.5-1.9,3.5-4.3c0-2.4-1.6-4.3-3.5-4.3c-1.9,0-3.5,1.9-3.5,4.3
					C170.2,21.5,171.8,23.5,173.7,23.5z"/>
				<path class="st1" d="M178.5,24.6c-0.1,0-0.1-0.1-0.2-0.1c-3.1-0.4-6.1-0.4-9.2,0c-0.1,0-0.1,0.1-0.2,0.1c0,0,0,0,0,0
					c-1-0.1-2,0.8-2.1,1.9l-0.7,8.8h15.4l-0.7-8.8c-0.1-1.1-1-2-2.1-1.9C178.6,24.6,178.6,24.6,178.5,24.6z"/>
			</g>
			<g>
				<path class="st1" d="M194.8,23c1.9,0,3.5-1.9,3.5-4.3c0-2.4-1.6-4.3-3.5-4.3c-1.9,0-3.5,1.9-3.5,4.3C191.3,21,192.8,23,194.8,23
					z"/>
				<path class="st1" d="M199.6,24.1c-0.1,0-0.1-0.1-0.2-0.1c-3.1-0.4-6.1-0.4-9.2,0c-0.1,0-0.1,0.1-0.2,0.1c0,0,0,0,0,0
					c-1-0.1-2,0.8-2.1,1.9l-0.7,8.8h15.4l-0.7-8.8c-0.1-1.1-1-2-2.1-1.9C199.7,24.1,199.7,24.1,199.6,24.1z"/>
			</g>
		</g>
		<g>
			<g>
				<path class="st1" d="M-132.1,48.5c1.9,0,3.5-1.9,3.5-4.3c0-2.4-1.6-4.3-3.5-4.3c-1.9,0-3.5,1.9-3.5,4.3
					C-135.6,46.6-134.1,48.5-132.1,48.5z"/>
				<path class="st1" d="M-127.3,49.7c-0.1,0-0.1-0.1-0.2-0.1c-3.1-0.4-6.1-0.4-9.2,0c-0.1,0-0.1,0.1-0.2,0.1c0,0,0,0,0,0
					c-1-0.1-2,0.8-2.1,1.9l-0.7,8.8h15.4l-0.7-8.8c-0.1-1.1-1-2-2.1-1.9C-127.2,49.6-127.2,49.6-127.3,49.7z"/>
			</g>
			<g>
				<path class="st1" d="M-111,48c1.9,0,3.5-1.9,3.5-4.3c0-2.4-1.6-4.3-3.5-4.3c-1.9,0-3.5,1.9-3.5,4.3C-114.5,46.1-113,48-111,48z"
					/>
				<path class="st1" d="M-106.2,49.2c-0.1,0-0.1-0.1-0.2-0.1c-3.1-0.4-6.1-0.4-9.2,0c-0.1,0-0.1,0.1-0.2,0.1c0,0,0,0,0,0
					c-1-0.1-2,0.8-2.1,1.9l-0.7,8.8h15.4l-0.7-8.8c-0.1-1.1-1-2-2.1-1.9C-106.1,49.1-106.2,49.2-106.2,49.2z"/>
			</g>
			<g>
				<path class="st1" d="M-90,48.5c1.9,0,3.5-1.9,3.5-4.3c0-2.4-1.6-4.3-3.5-4.3c-1.9,0-3.5,1.9-3.5,4.3
					C-93.4,46.6-91.9,48.5-90,48.5z"/>
				<path class="st1" d="M-85.1,49.7c-0.1,0-0.1-0.1-0.2-0.1c-3.1-0.4-6.1-0.4-9.2,0c-0.1,0-0.1,0.1-0.2,0.1c0,0,0,0,0,0
					c-1-0.1-2,0.8-2.1,1.9l-0.7,8.8h15.4l-0.7-8.8c-0.1-1.1-1-2-2.1-1.9C-85,49.6-85.1,49.6-85.1,49.7z"/>
			</g>
			<g>
				<path class="st1" d="M-68.9,48c1.9,0,3.5-1.9,3.5-4.3c0-2.4-1.6-4.3-3.5-4.3c-1.9,0-3.5,1.9-3.5,4.3C-72.3,46.1-70.8,48-68.9,48
					z"/>
				<path class="st1" d="M-64,49.2c-0.1,0-0.1-0.1-0.2-0.1c-3.1-0.4-6.1-0.4-9.2,0c-0.1,0-0.1,0.1-0.2,0.1c0,0,0,0,0,0
					c-1-0.1-2,0.8-2.1,1.9l-0.7,8.8h15.4l-0.7-8.8c-0.1-1.1-1-2-2.1-1.9C-63.9,49.1-64,49.2-64,49.2z"/>
			</g>
			<g>
				<path class="st1" d="M-47.8,48.5c1.9,0,3.5-1.9,3.5-4.3c0-2.4-1.6-4.3-3.5-4.3c-1.9,0-3.5,1.9-3.5,4.3
					C-51.3,46.6-49.7,48.5-47.8,48.5z"/>
				<path class="st1" d="M-42.9,49.7c-0.1,0-0.1-0.1-0.2-0.1c-3.1-0.4-6.1-0.4-9.2,0c-0.1,0-0.1,0.1-0.2,0.1c0,0,0,0,0,0
					c-1-0.1-2,0.8-2.1,1.9l-0.7,8.8H-40l-0.7-8.8c-0.1-1.1-1-2-2.1-1.9C-42.8,49.6-42.9,49.6-42.9,49.7z"/>
			</g>
			<g>
				<path class="st1" d="M-26.7,48c1.9,0,3.5-1.9,3.5-4.3c0-2.4-1.6-4.3-3.5-4.3c-1.9,0-3.5,1.9-3.5,4.3C-30.2,46.1-28.6,48-26.7,48
					z"/>
				<path class="st1" d="M-21.8,49.2c-0.1,0-0.1-0.1-0.2-0.1c-3.1-0.4-6.1-0.4-9.2,0c-0.1,0-0.1,0.1-0.2,0.1c0,0,0,0,0,0
					c-1-0.1-2,0.8-2.1,1.9l-0.7,8.8H-19l-0.7-8.8c-0.1-1.1-1-2-2.1-1.9C-21.8,49.1-21.8,49.2-21.8,49.2z"/>
			</g>
			<g>
				<path class="st1" d="M-5.6,48.5c1.9,0,3.5-1.9,3.5-4.3c0-2.4-1.6-4.3-3.5-4.3c-1.9,0-3.5,1.9-3.5,4.3
					C-9.1,46.6-7.5,48.5-5.6,48.5z"/>
				<path class="st1" d="M-0.7,49.7c-0.1,0-0.1-0.1-0.2-0.1c-3.1-0.4-6.1-0.4-9.2,0c-0.1,0-0.1,0.1-0.2,0.1c0,0,0,0,0,0
					c-1-0.1-2,0.8-2.1,1.9l-0.7,8.8H2.1l-0.7-8.8c-0.1-1.1-1-2-2.1-1.9C-0.7,49.6-0.7,49.6-0.7,49.7z"/>
			</g>
			<g>
				<path class="st1" d="M15.5,48c1.9,0,3.5-1.9,3.5-4.3c0-2.4-1.6-4.3-3.5-4.3c-1.9,0-3.5,1.9-3.5,4.3C12,46.1,13.6,48,15.5,48z"/>
				<path class="st1" d="M20.4,49.2c-0.1,0-0.1-0.1-0.2-0.1c-3.1-0.4-6.1-0.4-9.2,0c-0.1,0-0.1,0.1-0.2,0.1c0,0,0,0,0,0
					c-1-0.1-2,0.8-2.1,1.9l-0.7,8.8h15.4l-0.7-8.8c-0.1-1.1-1-2-2.1-1.9C20.4,49.1,20.4,49.2,20.4,49.2z"/>
			</g>
			<g>
				<path class="st1" d="M36.6,48.5c1.9,0,3.5-1.9,3.5-4.3c0-2.4-1.6-4.3-3.5-4.3c-1.9,0-3.5,1.9-3.5,4.3
					C33.1,46.6,34.7,48.5,36.6,48.5z"/>
				<path class="st1" d="M41.4,49.7c-0.1,0-0.1-0.1-0.2-0.1c-3.1-0.4-6.1-0.4-9.2,0c-0.1,0-0.1,0.1-0.2,0.1c0,0,0,0,0,0
					c-1-0.1-2,0.8-2.1,1.9L29,60.4h15.4l-0.7-8.8c-0.1-1.1-1-2-2.1-1.9C41.5,49.6,41.5,49.6,41.4,49.7z"/>
			</g>
			<g>
				<path class="st1" d="M57.7,48c1.9,0,3.5-1.9,3.5-4.3c0-2.4-1.6-4.3-3.5-4.3c-1.9,0-3.5,1.9-3.5,4.3C54.2,46.1,55.8,48,57.7,48z"
					/>
				<path class="st1" d="M62.5,49.2c-0.1,0-0.1-0.1-0.2-0.1c-3.1-0.4-6.1-0.4-9.2,0c-0.1,0-0.1,0.1-0.2,0.1c0,0,0,0,0,0
					c-1-0.1-2,0.8-2.1,1.9l-0.7,8.8h15.4l-0.7-8.8c-0.1-1.1-1-2-2.1-1.9C62.6,49.1,62.6,49.2,62.5,49.2z"/>
			</g>
			<g>
				<path class="st1" d="M78.8,48.5c1.9,0,3.5-1.9,3.5-4.3c0-2.4-1.6-4.3-3.5-4.3c-1.9,0-3.5,1.9-3.5,4.3
					C75.3,46.6,76.9,48.5,78.8,48.5z"/>
				<path class="st1" d="M83.6,49.7c-0.1,0-0.1-0.1-0.2-0.1c-3.1-0.4-6.1-0.4-9.2,0c-0.1,0-0.1,0.1-0.2,0.1c0,0,0,0,0,0
					c-1-0.1-2,0.8-2.1,1.9l-0.7,8.8h15.4l-0.7-8.8c-0.1-1.1-1-2-2.1-1.9C83.7,49.6,83.7,49.6,83.6,49.7z"/>
			</g>
			<g>
				<path class="st1" d="M99.9,48c1.9,0,3.5-1.9,3.5-4.3c0-2.4-1.6-4.3-3.5-4.3c-1.9,0-3.5,1.9-3.5,4.3C96.4,46.1,97.9,48,99.9,48z"
					/>
				<path class="st1" d="M104.7,49.2c-0.1,0-0.1-0.1-0.2-0.1c-3.1-0.4-6.1-0.4-9.2,0c-0.1,0-0.1,0.1-0.2,0.1c0,0,0,0,0,0
					c-1-0.1-2,0.8-2.1,1.9l-0.7,8.8h15.4l-0.7-8.8c-0.1-1.1-1-2-2.1-1.9C104.8,49.1,104.8,49.2,104.7,49.2z"/>
			</g>
			<g>
				<path class="st1" d="M120.9,48.5c1.9,0,3.5-1.9,3.5-4.3c0-2.4-1.6-4.3-3.5-4.3c-1.9,0-3.5,1.9-3.5,4.3
					C117.5,46.6,119,48.5,120.9,48.5z"/>
				<path class="st1" d="M125.8,49.7c-0.1,0-0.1-0.1-0.2-0.1c-3.1-0.4-6.1-0.4-9.2,0c-0.1,0-0.1,0.1-0.2,0.1c0,0,0,0,0,0
					c-1-0.1-2,0.8-2.1,1.9l-0.7,8.8h15.4l-0.7-8.8c-0.1-1.1-1-2-2.1-1.9C125.9,49.6,125.8,49.6,125.8,49.7z"/>
			</g>
			<g>
				<path class="st1" d="M142,48c1.9,0,3.5-1.9,3.5-4.3c0-2.4-1.6-4.3-3.5-4.3c-1.9,0-3.5,1.9-3.5,4.3C138.6,46.1,140.1,48,142,48z"
					/>
				<path class="st1" d="M146.9,49.2c-0.1,0-0.1-0.1-0.2-0.1c-3.1-0.4-6.1-0.4-9.2,0c-0.1,0-0.1,0.1-0.2,0.1c0,0,0,0,0,0
					c-1-0.1-2,0.8-2.1,1.9l-0.7,8.8h15.4l-0.7-8.8c-0.1-1.1-1-2-2.1-1.9C147,49.1,146.9,49.2,146.9,49.2z"/>
			</g>
			<g>
				<path class="st1" d="M163.1,48.5c1.9,0,3.5-1.9,3.5-4.3c0-2.4-1.6-4.3-3.5-4.3c-1.9,0-3.5,1.9-3.5,4.3
					C159.7,46.6,161.2,48.5,163.1,48.5z"/>
				<path class="st1" d="M168,49.7c-0.1,0-0.1-0.1-0.2-0.1c-3.1-0.4-6.1-0.4-9.2,0c-0.1,0-0.1,0.1-0.2,0.1c0,0,0,0,0,0
					c-1-0.1-2,0.8-2.1,1.9l-0.7,8.8h15.4l-0.7-8.8c-0.1-1.1-1-2-2.1-1.9C168.1,49.6,168,49.6,168,49.7z"/>
			</g>
			<g>
				<path class="st1" d="M184.2,48c1.9,0,3.5-1.9,3.5-4.3c0-2.4-1.6-4.3-3.5-4.3c-1.9,0-3.5,1.9-3.5,4.3
					C180.7,46.1,182.3,48,184.2,48z"/>
				<path class="st1" d="M189.1,49.2c-0.1,0-0.1-0.1-0.2-0.1c-3.1-0.4-6.1-0.4-9.2,0c-0.1,0-0.1,0.1-0.2,0.1c0,0,0,0,0,0
					c-1-0.1-2,0.8-2.1,1.9l-0.7,8.8H192l-0.7-8.8c-0.1-1.1-1-2-2.1-1.9C189.2,49.1,189.1,49.2,189.1,49.2z"/>
			</g>
		</g>
		<g>
			<g>
				<path class="st1" d="M-121.6,73.6c1.9,0,3.5-1.9,3.5-4.3c0-2.4-1.6-4.3-3.5-4.3c-1.9,0-3.5,1.9-3.5,4.3
					C-125.1,71.6-123.5,73.6-121.6,73.6z"/>
				<path class="st1" d="M-116.7,74.7c-0.1,0-0.1-0.1-0.2-0.1c-3.1-0.4-6.1-0.4-9.2,0c-0.1,0-0.1,0.1-0.2,0.1c0,0,0,0,0,0
					c-1-0.1-2,0.8-2.1,1.9l-0.7,8.8h15.4l-0.7-8.8c-0.1-1.1-1-2-2.1-1.9C-116.7,74.7-116.7,74.7-116.7,74.7z"/>
			</g>
			<g>
				<path class="st1" d="M-100.5,73.1c1.9,0,3.5-1.9,3.5-4.3c0-2.4-1.6-4.3-3.5-4.3c-1.9,0-3.5,1.9-3.5,4.3
					C-104,71.1-102.4,73.1-100.5,73.1z"/>
				<path class="st1" d="M-95.6,74.2c-0.1,0-0.1-0.1-0.2-0.1c-3.1-0.4-6.1-0.4-9.2,0c-0.1,0-0.1,0.1-0.2,0.1c0,0,0,0,0,0
					c-1-0.1-2,0.8-2.1,1.9l-0.7,8.8h15.4l-0.7-8.8c-0.1-1.1-1-2-2.1-1.9C-95.6,74.2-95.6,74.2-95.6,74.2z"/>
			</g>
			<g>
				<path class="st1" d="M-79.4,73.6c1.9,0,3.5-1.9,3.5-4.3c0-2.4-1.6-4.3-3.5-4.3c-1.9,0-3.5,1.9-3.5,4.3
					C-82.9,71.6-81.3,73.6-79.4,73.6z"/>
				<path class="st1" d="M-74.6,74.7c-0.1,0-0.1-0.1-0.2-0.1c-3.1-0.4-6.1-0.4-9.2,0c-0.1,0-0.1,0.1-0.2,0.1c0,0,0,0,0,0
					c-1-0.1-2,0.8-2.1,1.9l-0.7,8.8h15.4l-0.7-8.8c-0.1-1.1-1-2-2.1-1.9C-74.5,74.7-74.5,74.7-74.6,74.7z"/>
			</g>
			<g>
				<path class="st1" d="M-58.3,73.1c1.9,0,3.5-1.9,3.5-4.3c0-2.4-1.6-4.3-3.5-4.3c-1.9,0-3.5,1.9-3.5,4.3
					C-61.8,71.1-60.2,73.1-58.3,73.1z"/>
				<path class="st1" d="M-53.5,74.2c-0.1,0-0.1-0.1-0.2-0.1c-3.1-0.4-6.1-0.4-9.2,0c-0.1,0-0.1,0.1-0.2,0.1c0,0,0,0,0,0
					c-1-0.1-2,0.8-2.1,1.9l-0.7,8.8h15.4l-0.7-8.8c-0.1-1.1-1-2-2.1-1.9C-53.4,74.2-53.4,74.2-53.5,74.2z"/>
			</g>
			<g>
				<path class="st1" d="M-37.2,73.6c1.9,0,3.5-1.9,3.5-4.3c0-2.4-1.6-4.3-3.5-4.3c-1.9,0-3.5,1.9-3.5,4.3
					C-40.7,71.6-39.1,73.6-37.2,73.6z"/>
				<path class="st1" d="M-32.4,74.7c-0.1,0-0.1-0.1-0.2-0.1c-3.1-0.4-6.1-0.4-9.2,0c-0.1,0-0.1,0.1-0.2,0.1c0,0,0,0,0,0
					c-1-0.1-2,0.8-2.1,1.9l-0.7,8.8h15.4l-0.7-8.8c-0.1-1.1-1-2-2.1-1.9C-32.3,74.7-32.3,74.7-32.4,74.7z"/>
			</g>
			<g>
				<path class="st1" d="M-16.1,73.1c1.9,0,3.5-1.9,3.5-4.3c0-2.4-1.6-4.3-3.5-4.3c-1.9,0-3.5,1.9-3.5,4.3
					C-19.6,71.1-18.1,73.1-16.1,73.1z"/>
				<path class="st1" d="M-11.3,74.2c-0.1,0-0.1-0.1-0.2-0.1c-3.1-0.4-6.1-0.4-9.2,0c-0.1,0-0.1,0.1-0.2,0.1c0,0,0,0,0,0
					c-1-0.1-2,0.8-2.1,1.9l-0.7,8.8h15.4l-0.7-8.8c-0.1-1.1-1-2-2.1-1.9C-11.2,74.2-11.2,74.2-11.3,74.2z"/>
			</g>
			<g>
				<path class="st1" d="M5,73.6c1.9,0,3.5-1.9,3.5-4.3C8.4,66.9,6.9,65,5,65c-1.9,0-3.5,1.9-3.5,4.3C1.5,71.6,3,73.6,5,73.6z"/>
				<path class="st1" d="M9.8,74.7c-0.1,0-0.1-0.1-0.2-0.1c-3.1-0.4-6.1-0.4-9.2,0c-0.1,0-0.1,0.1-0.2,0.1c0,0,0,0,0,0
					c-1-0.1-2,0.8-2.1,1.9l-0.7,8.8h15.4L12,76.6c-0.1-1.1-1-2-2.1-1.9C9.9,74.7,9.8,74.7,9.8,74.7z"/>
			</g>
			<g>
				<path class="st1" d="M26,73.1c1.9,0,3.5-1.9,3.5-4.3c0-2.4-1.6-4.3-3.5-4.3c-1.9,0-3.5,1.9-3.5,4.3C22.6,71.1,24.1,73.1,26,73.1
					z"/>
				<path class="st1" d="M30.9,74.2c-0.1,0-0.1-0.1-0.2-0.1c-3.1-0.4-6.1-0.4-9.2,0c-0.1,0-0.1,0.1-0.2,0.1c0,0,0,0,0,0
					c-1-0.1-2,0.8-2.1,1.9l-0.7,8.8h15.4l-0.7-8.8c-0.1-1.1-1-2-2.1-1.9C31,74.2,30.9,74.2,30.9,74.2z"/>
			</g>
			<g>
				<path class="st1" d="M47.1,73.6c1.9,0,3.5-1.9,3.5-4.3c0-2.4-1.6-4.3-3.5-4.3c-1.9,0-3.5,1.9-3.5,4.3
					C43.7,71.6,45.2,73.6,47.1,73.6z"/>
				<path class="st1" d="M52,74.7c-0.1,0-0.1-0.1-0.2-0.1c-3.1-0.4-6.1-0.4-9.2,0c-0.1,0-0.1,0.1-0.2,0.1c0,0,0,0,0,0
					c-1-0.1-2,0.8-2.1,1.9l-0.7,8.8h15.4l-0.7-8.8c-0.1-1.1-1-2-2.1-1.9C52.1,74.7,52,74.7,52,74.7z"/>
			</g>
			<g>
				<path class="st1" d="M68.2,73.1c1.9,0,3.5-1.9,3.5-4.3c0-2.4-1.6-4.3-3.5-4.3c-1.9,0-3.5,1.9-3.5,4.3
					C64.7,71.1,66.3,73.1,68.2,73.1z"/>
				<path class="st1" d="M73.1,74.2c-0.1,0-0.1-0.1-0.2-0.1c-3.1-0.4-6.1-0.4-9.2,0c-0.1,0-0.1,0.1-0.2,0.1c0,0,0,0,0,0
					c-1-0.1-2,0.8-2.1,1.9l-0.7,8.8H76l-0.7-8.8c-0.1-1.1-1-2-2.1-1.9C73.2,74.2,73.1,74.2,73.1,74.2z"/>
			</g>
			<g>
				<path class="st1" d="M89.3,73.6c1.9,0,3.5-1.9,3.5-4.3c0-2.4-1.6-4.3-3.5-4.3c-1.9,0-3.5,1.9-3.5,4.3
					C85.8,71.6,87.4,73.6,89.3,73.6z"/>
				<path class="st1" d="M94.2,74.7c-0.1,0-0.1-0.1-0.2-0.1c-3.1-0.4-6.1-0.4-9.2,0c-0.1,0-0.1,0.1-0.2,0.1c0,0,0,0,0,0
					c-1-0.1-2,0.8-2.1,1.9l-0.7,8.8H97l-0.7-8.8c-0.1-1.1-1-2-2.1-1.9C94.2,74.7,94.2,74.7,94.2,74.7z"/>
			</g>
			<g>
				<path class="st1" d="M110.4,73.1c1.9,0,3.5-1.9,3.5-4.3c0-2.4-1.6-4.3-3.5-4.3c-1.9,0-3.5,1.9-3.5,4.3
					C106.9,71.1,108.5,73.1,110.4,73.1z"/>
				<path class="st1" d="M115.3,74.2c-0.1,0-0.1-0.1-0.2-0.1c-3.1-0.4-6.1-0.4-9.2,0c-0.1,0-0.1,0.1-0.2,0.1c0,0,0,0,0,0
					c-1-0.1-2,0.8-2.1,1.9l-0.7,8.8h15.4l-0.7-8.8c-0.1-1.1-1-2-2.1-1.9C115.3,74.2,115.3,74.2,115.3,74.2z"/>
			</g>
			<g>
				<path class="st1" d="M131.5,73.6c1.9,0,3.5-1.9,3.5-4.3c0-2.4-1.6-4.3-3.5-4.3c-1.9,0-3.5,1.9-3.5,4.3
					C128,71.6,129.6,73.6,131.5,73.6z"/>
				<path class="st1" d="M136.4,74.7c-0.1,0-0.1-0.1-0.2-0.1c-3.1-0.4-6.1-0.4-9.2,0c-0.1,0-0.1,0.1-0.2,0.1c0,0,0,0,0,0
					c-1-0.1-2,0.8-2.1,1.9l-0.7,8.8h15.4l-0.7-8.8c-0.1-1.1-1-2-2.1-1.9C136.4,74.7,136.4,74.7,136.4,74.7z"/>
			</g>
			<g>
				<path class="st1" d="M152.6,73.1c1.9,0,3.5-1.9,3.5-4.3c0-2.4-1.6-4.3-3.5-4.3c-1.9,0-3.5,1.9-3.5,4.3
					C149.1,71.1,150.7,73.1,152.6,73.1z"/>
				<path class="st1" d="M157.4,74.2c-0.1,0-0.1-0.1-0.2-0.1c-3.1-0.4-6.1-0.4-9.2,0c-0.1,0-0.1,0.1-0.2,0.1c0,0,0,0,0,0
					c-1-0.1-2,0.8-2.1,1.9l-0.7,8.8h15.4l-0.7-8.8c-0.1-1.1-1-2-2.1-1.9C157.5,74.2,157.5,74.2,157.4,74.2z"/>
			</g>
			<g>
				<path class="st1" d="M173.7,73.6c1.9,0,3.5-1.9,3.5-4.3c0-2.4-1.6-4.3-3.5-4.3c-1.9,0-3.5,1.9-3.5,4.3
					C170.2,71.6,171.8,73.6,173.7,73.6z"/>
				<path class="st1" d="M178.5,74.7c-0.1,0-0.1-0.1-0.2-0.1c-3.1-0.4-6.1-0.4-9.2,0c-0.1,0-0.1,0.1-0.2,0.1c0,0,0,0,0,0
					c-1-0.1-2,0.8-2.1,1.9l-0.7,8.8h15.4l-0.7-8.8c-0.1-1.1-1-2-2.1-1.9C178.6,74.7,178.6,74.7,178.5,74.7z"/>
			</g>
			<g>
				<path class="st1" d="M194.8,73.1c1.9,0,3.5-1.9,3.5-4.3c0-2.4-1.6-4.3-3.5-4.3c-1.9,0-3.5,1.9-3.5,4.3
					C191.3,71.1,192.8,73.1,194.8,73.1z"/>
				<path class="st1" d="M199.6,74.2c-0.1,0-0.1-0.1-0.2-0.1c-3.1-0.4-6.1-0.4-9.2,0c-0.1,0-0.1,0.1-0.2,0.1c0,0,0,0,0,0
					c-1-0.1-2,0.8-2.1,1.9l-0.7,8.8h15.4l-0.7-8.8c-0.1-1.1-1-2-2.1-1.9C199.7,74.2,199.7,74.2,199.6,74.2z"/>
			</g>
		</g>
		<g>
			<g>
				<path class="st1" d="M-132.1,98.6c1.9,0,3.5-1.9,3.5-4.3c0-2.4-1.6-4.3-3.5-4.3c-1.9,0-3.5,1.9-3.5,4.3
					C-135.6,96.7-134.1,98.6-132.1,98.6z"/>
				<path class="st1" d="M-127.3,99.7c-0.1,0-0.1-0.1-0.2-0.1c-3.1-0.4-6.1-0.4-9.2,0c-0.1,0-0.1,0.1-0.2,0.1c0,0,0,0,0,0
					c-1-0.1-2,0.8-2.1,1.9l-0.7,8.8h15.4l-0.7-8.8c-0.1-1.1-1-2-2.1-1.9C-127.2,99.7-127.2,99.7-127.3,99.7z"/>
			</g>
			<g>
				<path class="st1" d="M-111,98.1c1.9,0,3.5-1.9,3.5-4.3c0-2.4-1.6-4.3-3.5-4.3c-1.9,0-3.5,1.9-3.5,4.3
					C-114.5,96.2-113,98.1-111,98.1z"/>
				<path class="st1" d="M-106.2,99.2c-0.1,0-0.1-0.1-0.2-0.1c-3.1-0.4-6.1-0.4-9.2,0c-0.1,0-0.1,0.1-0.2,0.1c0,0,0,0,0,0
					c-1-0.1-2,0.8-2.1,1.9l-0.7,8.8h15.4l-0.7-8.8c-0.1-1.1-1-2-2.1-1.9C-106.1,99.2-106.2,99.2-106.2,99.2z"/>
			</g>
			<g>
				<path class="st1" d="M-90,98.6c1.9,0,3.5-1.9,3.5-4.3c0-2.4-1.6-4.3-3.5-4.3c-1.9,0-3.5,1.9-3.5,4.3
					C-93.4,96.7-91.9,98.6-90,98.6z"/>
				<path class="st1" d="M-85.1,99.7c-0.1,0-0.1-0.1-0.2-0.1c-3.1-0.4-6.1-0.4-9.2,0c-0.1,0-0.1,0.1-0.2,0.1c0,0,0,0,0,0
					c-1-0.1-2,0.8-2.1,1.9l-0.7,8.8h15.4l-0.7-8.8c-0.1-1.1-1-2-2.1-1.9C-85,99.7-85.1,99.7-85.1,99.7z"/>
			</g>
			<g>
				<path class="st1" d="M-68.9,98.1c1.9,0,3.5-1.9,3.5-4.3c0-2.4-1.6-4.3-3.5-4.3c-1.9,0-3.5,1.9-3.5,4.3
					C-72.3,96.2-70.8,98.1-68.9,98.1z"/>
				<path class="st1" d="M-64,99.2c-0.1,0-0.1-0.1-0.2-0.1c-3.1-0.4-6.1-0.4-9.2,0c-0.1,0-0.1,0.1-0.2,0.1c0,0,0,0,0,0
					c-1-0.1-2,0.8-2.1,1.9l-0.7,8.8h15.4l-0.7-8.8c-0.1-1.1-1-2-2.1-1.9C-63.9,99.2-64,99.2-64,99.2z"/>
			</g>
			<g>
				<path class="st1" d="M-47.8,98.6c1.9,0,3.5-1.9,3.5-4.3c0-2.4-1.6-4.3-3.5-4.3c-1.9,0-3.5,1.9-3.5,4.3
					C-51.3,96.7-49.7,98.6-47.8,98.6z"/>
				<path class="st1" d="M-42.9,99.7c-0.1,0-0.1-0.1-0.2-0.1c-3.1-0.4-6.1-0.4-9.2,0c-0.1,0-0.1,0.1-0.2,0.1c0,0,0,0,0,0
					c-1-0.1-2,0.8-2.1,1.9l-0.7,8.8H-40l-0.7-8.8c-0.1-1.1-1-2-2.1-1.9C-42.8,99.7-42.9,99.7-42.9,99.7z"/>
			</g>
			<g>
				<path class="st1" d="M-26.7,98.1c1.9,0,3.5-1.9,3.5-4.3c0-2.4-1.6-4.3-3.5-4.3c-1.9,0-3.5,1.9-3.5,4.3
					C-30.2,96.2-28.6,98.1-26.7,98.1z"/>
				<path class="st1" d="M-21.8,99.2c-0.1,0-0.1-0.1-0.2-0.1c-3.1-0.4-6.1-0.4-9.2,0c-0.1,0-0.1,0.1-0.2,0.1c0,0,0,0,0,0
					c-1-0.1-2,0.8-2.1,1.9l-0.7,8.8H-19l-0.7-8.8c-0.1-1.1-1-2-2.1-1.9C-21.8,99.2-21.8,99.2-21.8,99.2z"/>
			</g>
			<g>
				<path class="st1" d="M-5.6,98.6c1.9,0,3.5-1.9,3.5-4.3c0-2.4-1.6-4.3-3.5-4.3c-1.9,0-3.5,1.9-3.5,4.3
					C-9.1,96.7-7.5,98.6-5.6,98.6z"/>
				<path class="st1" d="M-0.7,99.7c-0.1,0-0.1-0.1-0.2-0.1c-3.1-0.4-6.1-0.4-9.2,0c-0.1,0-0.1,0.1-0.2,0.1c0,0,0,0,0,0
					c-1-0.1-2,0.8-2.1,1.9l-0.7,8.8H2.1l-0.7-8.8c-0.1-1.1-1-2-2.1-1.9C-0.7,99.7-0.7,99.7-0.7,99.7z"/>
			</g>
			<g>
				<path class="st1" d="M15.5,98.1c1.9,0,3.5-1.9,3.5-4.3c0-2.4-1.6-4.3-3.5-4.3c-1.9,0-3.5,1.9-3.5,4.3
					C12,96.2,13.6,98.1,15.5,98.1z"/>
				<path class="st1" d="M20.4,99.2c-0.1,0-0.1-0.1-0.2-0.1c-3.1-0.4-6.1-0.4-9.2,0c-0.1,0-0.1,0.1-0.2,0.1c0,0,0,0,0,0
					c-1-0.1-2,0.8-2.1,1.9L7.9,110h15.4l-0.7-8.8c-0.1-1.1-1-2-2.1-1.9C20.4,99.2,20.4,99.2,20.4,99.2z"/>
			</g>
			<g>
				<path class="st1" d="M36.6,98.6c1.9,0,3.5-1.9,3.5-4.3c0-2.4-1.6-4.3-3.5-4.3c-1.9,0-3.5,1.9-3.5,4.3
					C33.1,96.7,34.7,98.6,36.6,98.6z"/>
				<path class="st1" d="M41.4,99.7c-0.1,0-0.1-0.1-0.2-0.1c-3.1-0.4-6.1-0.4-9.2,0c-0.1,0-0.1,0.1-0.2,0.1c0,0,0,0,0,0
					c-1-0.1-2,0.8-2.1,1.9l-0.7,8.8h15.4l-0.7-8.8c-0.1-1.1-1-2-2.1-1.9C41.5,99.7,41.5,99.7,41.4,99.7z"/>
			</g>
			<g>
				<path class="st1" d="M57.7,98.1c1.9,0,3.5-1.9,3.5-4.3c0-2.4-1.6-4.3-3.5-4.3c-1.9,0-3.5,1.9-3.5,4.3
					C54.2,96.2,55.8,98.1,57.7,98.1z"/>
				<path class="st1" d="M62.5,99.2c-0.1,0-0.1-0.1-0.2-0.1c-3.1-0.4-6.1-0.4-9.2,0c-0.1,0-0.1,0.1-0.2,0.1c0,0,0,0,0,0
					c-1-0.1-2,0.8-2.1,1.9l-0.7,8.8h15.4l-0.7-8.8c-0.1-1.1-1-2-2.1-1.9C62.6,99.2,62.6,99.2,62.5,99.2z"/>
			</g>
			<g>
				<path class="st1" d="M78.8,98.6c1.9,0,3.5-1.9,3.5-4.3c0-2.4-1.6-4.3-3.5-4.3c-1.9,0-3.5,1.9-3.5,4.3
					C75.3,96.7,76.9,98.6,78.8,98.6z"/>
				<path class="st1" d="M83.6,99.7c-0.1,0-0.1-0.1-0.2-0.1c-3.1-0.4-6.1-0.4-9.2,0c-0.1,0-0.1,0.1-0.2,0.1c0,0,0,0,0,0
					c-1-0.1-2,0.8-2.1,1.9l-0.7,8.8h15.4l-0.7-8.8c-0.1-1.1-1-2-2.1-1.9C83.7,99.7,83.7,99.7,83.6,99.7z"/>
			</g>
			<g>
				<path class="st1" d="M99.9,98.1c1.9,0,3.5-1.9,3.5-4.3c0-2.4-1.6-4.3-3.5-4.3c-1.9,0-3.5,1.9-3.5,4.3
					C96.4,96.2,97.9,98.1,99.9,98.1z"/>
				<path class="st1" d="M104.7,99.2c-0.1,0-0.1-0.1-0.2-0.1c-3.1-0.4-6.1-0.4-9.2,0c-0.1,0-0.1,0.1-0.2,0.1c0,0,0,0,0,0
					c-1-0.1-2,0.8-2.1,1.9l-0.7,8.8h15.4l-0.7-8.8c-0.1-1.1-1-2-2.1-1.9C104.8,99.2,104.8,99.2,104.7,99.2z"/>
			</g>
			<g>
				<path class="st1" d="M120.9,98.6c1.9,0,3.5-1.9,3.5-4.3c0-2.4-1.6-4.3-3.5-4.3c-1.9,0-3.5,1.9-3.5,4.3
					C117.5,96.7,119,98.6,120.9,98.6z"/>
				<path class="st1" d="M125.8,99.7c-0.1,0-0.1-0.1-0.2-0.1c-3.1-0.4-6.1-0.4-9.2,0c-0.1,0-0.1,0.1-0.2,0.1c0,0,0,0,0,0
					c-1-0.1-2,0.8-2.1,1.9l-0.7,8.8h15.4l-0.7-8.8c-0.1-1.1-1-2-2.1-1.9C125.9,99.7,125.8,99.7,125.8,99.7z"/>
			</g>
			<g>
				<path class="st1" d="M142,98.1c1.9,0,3.5-1.9,3.5-4.3c0-2.4-1.6-4.3-3.5-4.3c-1.9,0-3.5,1.9-3.5,4.3
					C138.6,96.2,140.1,98.1,142,98.1z"/>
				<path class="st1" d="M146.9,99.2c-0.1,0-0.1-0.1-0.2-0.1c-3.1-0.4-6.1-0.4-9.2,0c-0.1,0-0.1,0.1-0.2,0.1c0,0,0,0,0,0
					c-1-0.1-2,0.8-2.1,1.9l-0.7,8.8h15.4l-0.7-8.8c-0.1-1.1-1-2-2.1-1.9C147,99.2,146.9,99.2,146.9,99.2z"/>
			</g>
			<g>
				<path class="st1" d="M163.1,98.6c1.9,0,3.5-1.9,3.5-4.3c0-2.4-1.6-4.3-3.5-4.3c-1.9,0-3.5,1.9-3.5,4.3
					C159.7,96.7,161.2,98.6,163.1,98.6z"/>
				<path class="st1" d="M168,99.7c-0.1,0-0.1-0.1-0.2-0.1c-3.1-0.4-6.1-0.4-9.2,0c-0.1,0-0.1,0.1-0.2,0.1c0,0,0,0,0,0
					c-1-0.1-2,0.8-2.1,1.9l-0.7,8.8h15.4l-0.7-8.8c-0.1-1.1-1-2-2.1-1.9C168.1,99.7,168,99.7,168,99.7z"/>
			</g>
			<g>
				<path class="st1" d="M184.2,98.1c1.9,0,3.5-1.9,3.5-4.3c0-2.4-1.6-4.3-3.5-4.3c-1.9,0-3.5,1.9-3.5,4.3
					C180.7,96.2,182.3,98.1,184.2,98.1z"/>
				<path class="st1" d="M189.1,99.2c-0.1,0-0.1-0.1-0.2-0.1c-3.1-0.4-6.1-0.4-9.2,0c-0.1,0-0.1,0.1-0.2,0.1c0,0,0,0,0,0
					c-1-0.1-2,0.8-2.1,1.9l-0.7,8.8H192l-0.7-8.8c-0.1-1.1-1-2-2.1-1.9C189.2,99.2,189.1,99.2,189.1,99.2z"/>
			</g>
		</g>
		<g>
			<g>
				<path class="st1" d="M-121.6,123.6c1.9,0,3.5-1.9,3.5-4.3c0-2.4-1.6-4.3-3.5-4.3c-1.9,0-3.5,1.9-3.5,4.3
					C-125.1,121.7-123.5,123.6-121.6,123.6z"/>
				<path class="st1" d="M-116.7,124.8c-0.1,0-0.1-0.1-0.2-0.1c-3.1-0.4-6.1-0.4-9.2,0c-0.1,0-0.1,0.1-0.2,0.1c0,0,0,0,0,0
					c-1-0.1-2,0.8-2.1,1.9l-0.7,8.8h15.4l-0.7-8.8c-0.1-1.1-1-2-2.1-1.9C-116.7,124.8-116.7,124.8-116.7,124.8z"/>
			</g>
			<g>
				<path class="st1" d="M-100.5,123.1c1.9,0,3.5-1.9,3.5-4.3c0-2.4-1.6-4.3-3.5-4.3c-1.9,0-3.5,1.9-3.5,4.3
					C-104,121.2-102.4,123.1-100.5,123.1z"/>
				<path class="st1" d="M-95.6,124.3c-0.1,0-0.1-0.1-0.2-0.1c-3.1-0.4-6.1-0.4-9.2,0c-0.1,0-0.1,0.1-0.2,0.1c0,0,0,0,0,0
					c-1-0.1-2,0.8-2.1,1.9l-0.7,8.8h15.4l-0.7-8.8c-0.1-1.1-1-2-2.1-1.9C-95.6,124.3-95.6,124.3-95.6,124.3z"/>
			</g>
			<g>
				<path class="st1" d="M-79.4,123.6c1.9,0,3.5-1.9,3.5-4.3c0-2.4-1.6-4.3-3.5-4.3c-1.9,0-3.5,1.9-3.5,4.3
					C-82.9,121.7-81.3,123.6-79.4,123.6z"/>
				<path class="st1" d="M-74.6,124.8c-0.1,0-0.1-0.1-0.2-0.1c-3.1-0.4-6.1-0.4-9.2,0c-0.1,0-0.1,0.1-0.2,0.1c0,0,0,0,0,0
					c-1-0.1-2,0.8-2.1,1.9l-0.7,8.8h15.4l-0.7-8.8c-0.1-1.1-1-2-2.1-1.9C-74.5,124.8-74.5,124.8-74.6,124.8z"/>
			</g>
			<g>
				<path class="st1" d="M-58.3,123.1c1.9,0,3.5-1.9,3.5-4.3c0-2.4-1.6-4.3-3.5-4.3c-1.9,0-3.5,1.9-3.5,4.3
					C-61.8,121.2-60.2,123.1-58.3,123.1z"/>
				<path class="st1" d="M-53.5,124.3c-0.1,0-0.1-0.1-0.2-0.1c-3.1-0.4-6.1-0.4-9.2,0c-0.1,0-0.1,0.1-0.2,0.1c0,0,0,0,0,0
					c-1-0.1-2,0.8-2.1,1.9l-0.7,8.8h15.4l-0.7-8.8c-0.1-1.1-1-2-2.1-1.9C-53.4,124.3-53.4,124.3-53.5,124.3z"/>
			</g>
			<g>
				<path class="st1" d="M-37.2,123.6c1.9,0,3.5-1.9,3.5-4.3c0-2.4-1.6-4.3-3.5-4.3c-1.9,0-3.5,1.9-3.5,4.3
					C-40.7,121.7-39.1,123.6-37.2,123.6z"/>
				<path class="st1" d="M-32.4,124.8c-0.1,0-0.1-0.1-0.2-0.1c-3.1-0.4-6.1-0.4-9.2,0c-0.1,0-0.1,0.1-0.2,0.1c0,0,0,0,0,0
					c-1-0.1-2,0.8-2.1,1.9l-0.7,8.8h15.4l-0.7-8.8c-0.1-1.1-1-2-2.1-1.9C-32.3,124.8-32.3,124.8-32.4,124.8z"/>
			</g>
			<g>
				<path class="st1" d="M-16.1,123.1c1.9,0,3.5-1.9,3.5-4.3c0-2.4-1.6-4.3-3.5-4.3c-1.9,0-3.5,1.9-3.5,4.3
					C-19.6,121.2-18.1,123.1-16.1,123.1z"/>
				<path class="st1" d="M-11.3,124.3c-0.1,0-0.1-0.1-0.2-0.1c-3.1-0.4-6.1-0.4-9.2,0c-0.1,0-0.1,0.1-0.2,0.1c0,0,0,0,0,0
					c-1-0.1-2,0.8-2.1,1.9l-0.7,8.8h15.4l-0.7-8.8c-0.1-1.1-1-2-2.1-1.9C-11.2,124.3-11.2,124.3-11.3,124.3z"/>
			</g>
			<g>
				<path class="st1" d="M5,123.6c1.9,0,3.5-1.9,3.5-4.3c0-2.4-1.6-4.3-3.5-4.3c-1.9,0-3.5,1.9-3.5,4.3C1.5,121.7,3,123.6,5,123.6z"
					/>
				<path class="st1" d="M9.8,124.8c-0.1,0-0.1-0.1-0.2-0.1c-3.1-0.4-6.1-0.4-9.2,0c-0.1,0-0.1,0.1-0.2,0.1c0,0,0,0,0,0
					c-1-0.1-2,0.8-2.1,1.9l-0.7,8.8h15.4l-0.7-8.8c-0.1-1.1-1-2-2.1-1.9C9.9,124.8,9.8,124.8,9.8,124.8z"/>
			</g>
			<g>
				<path class="st1" d="M26,123.1c1.9,0,3.5-1.9,3.5-4.3c0-2.4-1.6-4.3-3.5-4.3c-1.9,0-3.5,1.9-3.5,4.3
					C22.6,121.2,24.1,123.1,26,123.1z"/>
				<path class="st1" d="M30.9,124.3c-0.1,0-0.1-0.1-0.2-0.1c-3.1-0.4-6.1-0.4-9.2,0c-0.1,0-0.1,0.1-0.2,0.1c0,0,0,0,0,0
					c-1-0.1-2,0.8-2.1,1.9l-0.7,8.8h15.4l-0.7-8.8c-0.1-1.1-1-2-2.1-1.9C31,124.3,30.9,124.3,30.9,124.3z"/>
			</g>
			<g>
				<path class="st1" d="M47.1,123.6c1.9,0,3.5-1.9,3.5-4.3c0-2.4-1.6-4.3-3.5-4.3c-1.9,0-3.5,1.9-3.5,4.3
					C43.7,121.7,45.2,123.6,47.1,123.6z"/>
				<path class="st1" d="M52,124.8c-0.1,0-0.1-0.1-0.2-0.1c-3.1-0.4-6.1-0.4-9.2,0c-0.1,0-0.1,0.1-0.2,0.1c0,0,0,0,0,0
					c-1-0.1-2,0.8-2.1,1.9l-0.7,8.8h15.4l-0.7-8.8c-0.1-1.1-1-2-2.1-1.9C52.1,124.8,52,124.8,52,124.8z"/>
			</g>
			<g>
				<path class="st1" d="M68.2,123.1c1.9,0,3.5-1.9,3.5-4.3c0-2.4-1.6-4.3-3.5-4.3c-1.9,0-3.5,1.9-3.5,4.3
					C64.7,121.2,66.3,123.1,68.2,123.1z"/>
				<path class="st1" d="M73.1,124.3c-0.1,0-0.1-0.1-0.2-0.1c-3.1-0.4-6.1-0.4-9.2,0c-0.1,0-0.1,0.1-0.2,0.1c0,0,0,0,0,0
					c-1-0.1-2,0.8-2.1,1.9l-0.7,8.8H76l-0.7-8.8c-0.1-1.1-1-2-2.1-1.9C73.2,124.3,73.1,124.3,73.1,124.3z"/>
			</g>
			<g>
				<path class="st1" d="M89.3,123.6c1.9,0,3.5-1.9,3.5-4.3c0-2.4-1.6-4.3-3.5-4.3c-1.9,0-3.5,1.9-3.5,4.3
					C85.8,121.7,87.4,123.6,89.3,123.6z"/>
				<path class="st1" d="M94.2,124.8c-0.1,0-0.1-0.1-0.2-0.1c-3.1-0.4-6.1-0.4-9.2,0c-0.1,0-0.1,0.1-0.2,0.1c0,0,0,0,0,0
					c-1-0.1-2,0.8-2.1,1.9l-0.7,8.8H97l-0.7-8.8c-0.1-1.1-1-2-2.1-1.9C94.2,124.8,94.2,124.8,94.2,124.8z"/>
			</g>
			<g>
				<path class="st1" d="M110.4,123.1c1.9,0,3.5-1.9,3.5-4.3c0-2.4-1.6-4.3-3.5-4.3c-1.9,0-3.5,1.9-3.5,4.3
					C106.9,121.2,108.5,123.1,110.4,123.1z"/>
				<path class="st1" d="M115.3,124.3c-0.1,0-0.1-0.1-0.2-0.1c-3.1-0.4-6.1-0.4-9.2,0c-0.1,0-0.1,0.1-0.2,0.1c0,0,0,0,0,0
					c-1-0.1-2,0.8-2.1,1.9l-0.7,8.8h15.4l-0.7-8.8c-0.1-1.1-1-2-2.1-1.9C115.3,124.3,115.3,124.3,115.3,124.3z"/>
			</g>
			<g>
				<path class="st1" d="M131.5,123.6c1.9,0,3.5-1.9,3.5-4.3c0-2.4-1.6-4.3-3.5-4.3c-1.9,0-3.5,1.9-3.5,4.3
					C128,121.7,129.6,123.6,131.5,123.6z"/>
				<path class="st1" d="M136.4,124.8c-0.1,0-0.1-0.1-0.2-0.1c-3.1-0.4-6.1-0.4-9.2,0c-0.1,0-0.1,0.1-0.2,0.1c0,0,0,0,0,0
					c-1-0.1-2,0.8-2.1,1.9l-0.7,8.8h15.4l-0.7-8.8c-0.1-1.1-1-2-2.1-1.9C136.4,124.8,136.4,124.8,136.4,124.8z"/>
			</g>
			<g>
				<path class="st1" d="M152.6,123.1c1.9,0,3.5-1.9,3.5-4.3c0-2.4-1.6-4.3-3.5-4.3c-1.9,0-3.5,1.9-3.5,4.3
					C149.1,121.2,150.7,123.1,152.6,123.1z"/>
				<path class="st1" d="M157.4,124.3c-0.1,0-0.1-0.1-0.2-0.1c-3.1-0.4-6.1-0.4-9.2,0c-0.1,0-0.1,0.1-0.2,0.1c0,0,0,0,0,0
					c-1-0.1-2,0.8-2.1,1.9L145,135h15.4l-0.7-8.8c-0.1-1.1-1-2-2.1-1.9C157.5,124.3,157.5,124.3,157.4,124.3z"/>
			</g>
			<g>
				<path class="st1" d="M173.7,123.6c1.9,0,3.5-1.9,3.5-4.3c0-2.4-1.6-4.3-3.5-4.3c-1.9,0-3.5,1.9-3.5,4.3
					C170.2,121.7,171.8,123.6,173.7,123.6z"/>
				<path class="st1" d="M178.5,124.8c-0.1,0-0.1-0.1-0.2-0.1c-3.1-0.4-6.1-0.4-9.2,0c-0.1,0-0.1,0.1-0.2,0.1c0,0,0,0,0,0
					c-1-0.1-2,0.8-2.1,1.9l-0.7,8.8h15.4l-0.7-8.8c-0.1-1.1-1-2-2.1-1.9C178.6,124.8,178.6,124.8,178.5,124.8z"/>
			</g>
			<g>
				<path class="st1" d="M194.8,123.1c1.9,0,3.5-1.9,3.5-4.3c0-2.4-1.6-4.3-3.5-4.3c-1.9,0-3.5,1.9-3.5,4.3
					C191.3,121.2,192.8,123.1,194.8,123.1z"/>
				<path class="st1" d="M199.6,124.3c-0.1,0-0.1-0.1-0.2-0.1c-3.1-0.4-6.1-0.4-9.2,0c-0.1,0-0.1,0.1-0.2,0.1c0,0,0,0,0,0
					c-1-0.1-2,0.8-2.1,1.9l-0.7,8.8h15.4l-0.7-8.8c-0.1-1.1-1-2-2.1-1.9C199.7,124.3,199.7,124.3,199.6,124.3z"/>
			</g>
		</g>
	</g>
</g>
</svg>
