<svg width="314" height="260" viewBox="0 0 314 260" fill="none" xmlns="http://www.w3.org/2000/svg">
<g opacity="0.75" filter="url(#filter0_d_4594_45243)">
<path d="M45.2578 116V106.136H49.0312C50.8428 106.136 51.9502 107.086 51.9502 108.59V108.604C51.9502 109.622 51.1982 110.552 50.248 110.723V110.832C51.5947 111.003 52.4492 111.926 52.4492 113.225V113.238C52.4492 114.968 51.2051 116 49.1064 116H45.2578ZM48.7715 107.223H46.4883V110.388H48.457C49.9473 110.388 50.7061 109.854 50.7061 108.815V108.802C50.7061 107.804 49.9951 107.223 48.7715 107.223ZM48.8057 111.447H46.4883V114.913H48.9219C50.4053 114.913 51.1846 114.312 51.1846 113.177V113.163C51.1846 112.028 50.3779 111.447 48.8057 111.447ZM54.9375 107.209C54.4863 107.209 54.1172 106.84 54.1172 106.389C54.1172 105.938 54.4863 105.568 54.9375 105.568C55.3887 105.568 55.7578 105.938 55.7578 106.389C55.7578 106.84 55.3887 107.209 54.9375 107.209ZM54.3359 116V108.631H55.5254V116H54.3359ZM60.3857 116.055C58.8682 116.055 58.2324 115.494 58.2324 114.086V109.615H57.0703V108.631H58.2324V106.724H59.4629V108.631H61.0762V109.615H59.4629V113.785C59.4629 114.653 59.7637 115.002 60.5293 115.002C60.7412 115.002 60.8574 114.995 61.0762 114.975V115.986C60.8438 116.027 60.6182 116.055 60.3857 116.055ZM65.4717 116.055C63.9541 116.055 63.3184 115.494 63.3184 114.086V109.615H62.1562V108.631H63.3184V106.724H64.5488V108.631H66.1621V109.615H64.5488V113.785C64.5488 114.653 64.8496 115.002 65.6152 115.002C65.8271 115.002 65.9434 114.995 66.1621 114.975V115.986C65.9297 116.027 65.7041 116.055 65.4717 116.055ZM70.8379 116.13C68.7324 116.13 67.4609 114.653 67.4609 112.343V112.336C67.4609 110.06 68.7598 108.501 70.7627 108.501C72.7656 108.501 73.9824 109.991 73.9824 112.192V112.657H68.6777C68.7119 114.182 69.5527 115.07 70.8652 115.07C71.8633 115.07 72.4785 114.599 72.6768 114.154L72.7041 114.093H73.8936L73.8799 114.147C73.627 115.146 72.5742 116.13 70.8379 116.13ZM70.7559 109.561C69.6621 109.561 68.8281 110.306 68.6982 111.707H72.7725C72.6494 110.251 71.8428 109.561 70.7559 109.561ZM79.7656 118.461V108.631H80.9551V109.807H81.0645C81.5156 108.986 82.3359 108.501 83.3613 108.501C85.2275 108.501 86.4512 110.012 86.4512 112.309V112.322C86.4512 114.633 85.2344 116.13 83.3613 116.13C82.3496 116.13 81.4678 115.624 81.0645 114.838H80.9551V118.461H79.7656ZM83.0879 115.077C84.4346 115.077 85.2344 114.038 85.2344 112.322V112.309C85.2344 110.593 84.4346 109.554 83.0879 109.554C81.748 109.554 80.9277 110.606 80.9277 112.309V112.322C80.9277 114.024 81.748 115.077 83.0879 115.077ZM88.3789 116V105.705H89.5684V116H88.3789ZM93.875 116.13C92.4736 116.13 91.4141 115.282 91.4141 113.942V113.929C91.4141 112.616 92.3848 111.857 94.1006 111.755L96.2129 111.625V110.955C96.2129 110.046 95.6592 109.554 94.5586 109.554C93.6768 109.554 93.0957 109.882 92.9043 110.456L92.8975 110.477H91.708L91.7148 110.436C91.9062 109.28 93.0273 108.501 94.5996 108.501C96.3975 108.501 97.4023 109.424 97.4023 110.955V116H96.2129V114.913H96.1035C95.6387 115.699 94.8662 116.13 93.875 116.13ZM92.6309 113.915C92.6309 114.66 93.2666 115.098 94.1211 115.098C95.3311 115.098 96.2129 114.305 96.2129 113.252V112.582L94.2441 112.705C93.123 112.773 92.6309 113.17 92.6309 113.901V113.915ZM99.5762 116V108.631H100.766V109.738H100.875C101.244 108.959 101.935 108.501 103.021 108.501C104.676 108.501 105.599 109.479 105.599 111.229V116H104.409V111.516C104.409 110.189 103.862 109.554 102.687 109.554C101.511 109.554 100.766 110.347 100.766 111.639V116H99.5762ZM114.41 116.13C112.544 116.13 111.32 114.619 111.32 112.322V112.309C111.32 109.998 112.537 108.501 114.41 108.501C115.422 108.501 116.304 109.007 116.707 109.793H116.816V105.705H118.006V116H116.816V114.824H116.707C116.256 115.645 115.436 116.13 114.41 116.13ZM114.684 115.077C116.023 115.077 116.844 114.024 116.844 112.322V112.309C116.844 110.606 116.023 109.554 114.684 109.554C113.337 109.554 112.537 110.593 112.537 112.309V112.322C112.537 114.038 113.337 115.077 114.684 115.077ZM122.312 116.13C120.911 116.13 119.852 115.282 119.852 113.942V113.929C119.852 112.616 120.822 111.857 122.538 111.755L124.65 111.625V110.955C124.65 110.046 124.097 109.554 122.996 109.554C122.114 109.554 121.533 109.882 121.342 110.456L121.335 110.477H120.146L120.152 110.436C120.344 109.28 121.465 108.501 123.037 108.501C124.835 108.501 125.84 109.424 125.84 110.955V116H124.65V114.913H124.541C124.076 115.699 123.304 116.13 122.312 116.13ZM121.068 113.915C121.068 114.66 121.704 115.098 122.559 115.098C123.769 115.098 124.65 114.305 124.65 113.252V112.582L122.682 112.705C121.561 112.773 121.068 113.17 121.068 113.901V113.915ZM130.543 116.13C128.902 116.13 127.774 115.337 127.638 114.12H128.854C129.053 114.735 129.641 115.139 130.584 115.139C131.575 115.139 132.279 114.667 132.279 113.997V113.983C132.279 113.484 131.903 113.136 130.994 112.917L129.853 112.644C128.472 112.315 127.85 111.714 127.85 110.654V110.647C127.85 109.424 129.025 108.501 130.591 108.501C132.136 108.501 133.209 109.273 133.373 110.477H132.204C132.047 109.896 131.473 109.492 130.584 109.492C129.709 109.492 129.066 109.943 129.066 110.593V110.606C129.066 111.105 129.436 111.42 130.304 111.632L131.438 111.905C132.826 112.24 133.496 112.842 133.496 113.895V113.908C133.496 115.221 132.218 116.13 130.543 116.13ZM139.771 116V109.615H138.548V108.631H139.771V107.811C139.771 106.341 140.51 105.637 141.911 105.637C142.198 105.637 142.458 105.657 142.704 105.705V106.655C142.561 106.628 142.362 106.621 142.15 106.621C141.303 106.621 140.961 107.038 140.961 107.845V108.631H142.636V109.615H140.961V116H139.771ZM145.78 107.154C145.363 107.154 145.021 106.812 145.021 106.396C145.021 105.985 145.363 105.644 145.78 105.644C146.19 105.644 146.532 105.985 146.532 106.396C146.532 106.812 146.19 107.154 145.78 107.154ZM148.795 107.154C148.385 107.154 148.043 106.812 148.043 106.396C148.043 105.985 148.385 105.644 148.795 105.644C149.212 105.644 149.554 105.985 149.554 106.396C149.554 106.812 149.212 107.154 148.795 107.154ZM146.819 116.13C145.145 116.13 144.283 115.146 144.283 113.402V108.631H145.473V113.115C145.473 114.441 145.951 115.077 147.127 115.077C148.426 115.077 149.116 114.284 149.116 112.992V108.631H150.306V116H149.116V114.899H149.007C148.645 115.686 147.899 116.13 146.819 116.13ZM152.527 116V108.631H153.717V109.725H153.826C154.106 108.952 154.797 108.501 155.795 108.501C156.021 108.501 156.273 108.528 156.39 108.549V109.704C156.144 109.663 155.918 109.636 155.658 109.636C154.523 109.636 153.717 110.354 153.717 111.434V116H152.527ZM164.203 116V107.503H164.094L161.585 109.321V108.022L164.21 106.136H165.434V116H164.203ZM171.586 116.232C169.405 116.232 168.106 114.243 168.106 111.071V111.058C168.106 107.886 169.405 105.903 171.586 105.903C173.767 105.903 175.079 107.886 175.079 111.058V111.071C175.079 114.243 173.767 116.232 171.586 116.232ZM171.586 115.159C173.001 115.159 173.842 113.587 173.842 111.071V111.058C173.842 108.542 173.001 106.983 171.586 106.983C170.171 106.983 169.344 108.542 169.344 111.058V111.071C169.344 113.587 170.171 115.159 171.586 115.159ZM185.107 116.232C182.66 116.232 181.184 114.756 181.184 112.609V106.136H182.414V112.527C182.414 114.045 183.398 115.098 185.107 115.098C186.816 115.098 187.787 114.045 187.787 112.527V106.136H189.018V112.609C189.018 114.756 187.555 116.232 185.107 116.232ZM191.438 116V105.705H192.627V109.738H192.736C193.105 108.959 193.796 108.501 194.883 108.501C196.537 108.501 197.46 109.479 197.46 111.229V116H196.271V111.516C196.271 110.189 195.724 109.554 194.548 109.554C193.372 109.554 192.627 110.347 192.627 111.639V116H191.438ZM199.613 116V108.631H200.803V109.725H200.912C201.192 108.952 201.883 108.501 202.881 108.501C203.106 108.501 203.359 108.528 203.476 108.549V109.704C203.229 109.663 203.004 109.636 202.744 109.636C201.609 109.636 200.803 110.354 200.803 111.434V116H199.613Z" fill="#141414" fill-opacity="0.85"/>
<path d="M208.883 116V108.631H210.072V109.752H210.182C210.51 108.959 211.207 108.501 212.171 108.501C213.169 108.501 213.866 109.027 214.208 109.793H214.317C214.714 109.014 215.555 108.501 216.573 108.501C218.077 108.501 218.918 109.362 218.918 110.907V116H217.729V111.181C217.729 110.094 217.229 109.554 216.19 109.554C215.165 109.554 214.488 110.326 214.488 111.263V116H213.299V110.996C213.299 110.121 212.697 109.554 211.768 109.554C210.804 109.554 210.072 110.395 210.072 111.434V116H208.883ZM224.093 116.13C221.994 116.13 220.695 114.681 220.695 112.322V112.309C220.695 109.943 221.994 108.501 224.093 108.501C226.191 108.501 227.49 109.943 227.49 112.309V112.322C227.49 114.681 226.191 116.13 224.093 116.13ZM224.093 115.077C225.487 115.077 226.273 114.059 226.273 112.322V112.309C226.273 110.565 225.487 109.554 224.093 109.554C222.698 109.554 221.912 110.565 221.912 112.309V112.322C221.912 114.059 222.698 115.077 224.093 115.077ZM229.336 116V108.631H230.525V109.725H230.635C230.915 108.952 231.605 108.501 232.604 108.501C232.829 108.501 233.082 108.528 233.198 108.549V109.704C232.952 109.663 232.727 109.636 232.467 109.636C231.332 109.636 230.525 110.354 230.525 111.434V116H229.336ZM237.498 118.598C235.721 118.598 234.586 117.798 234.401 116.588L234.415 116.581H235.646L235.652 116.588C235.782 117.148 236.438 117.545 237.498 117.545C238.817 117.545 239.604 116.923 239.604 115.836V114.346H239.494C239.029 115.159 238.195 115.617 237.184 115.617C235.276 115.617 234.094 114.141 234.094 112.076V112.062C234.094 109.998 235.283 108.501 237.211 108.501C238.25 108.501 239.057 109.014 239.508 109.848H239.59V108.631H240.779V115.897C240.779 117.545 239.508 118.598 237.498 118.598ZM237.443 114.564C238.811 114.564 239.631 113.539 239.631 112.076V112.062C239.631 110.6 238.804 109.554 237.443 109.554C236.076 109.554 235.311 110.6 235.311 112.062V112.076C235.311 113.539 236.076 114.564 237.443 114.564ZM246.002 116.13C243.896 116.13 242.625 114.653 242.625 112.343V112.336C242.625 110.06 243.924 108.501 245.927 108.501C247.93 108.501 249.146 109.991 249.146 112.192V112.657H243.842C243.876 114.182 244.717 115.07 246.029 115.07C247.027 115.07 247.643 114.599 247.841 114.154L247.868 114.093H249.058L249.044 114.147C248.791 115.146 247.738 116.13 246.002 116.13ZM245.92 109.561C244.826 109.561 243.992 110.306 243.862 111.707H247.937C247.813 110.251 247.007 109.561 245.92 109.561ZM250.992 116V108.631H252.182V109.738H252.291C252.66 108.959 253.351 108.501 254.438 108.501C256.092 108.501 257.015 109.479 257.015 111.229V116H255.825V111.516C255.825 110.189 255.278 109.554 254.103 109.554C252.927 109.554 252.182 110.347 252.182 111.639V116H250.992ZM261.697 116.13C260.057 116.13 258.929 115.337 258.792 114.12H260.009C260.207 114.735 260.795 115.139 261.738 115.139C262.729 115.139 263.434 114.667 263.434 113.997V113.983C263.434 113.484 263.058 113.136 262.148 112.917L261.007 112.644C259.626 112.315 259.004 111.714 259.004 110.654V110.647C259.004 109.424 260.18 108.501 261.745 108.501C263.29 108.501 264.363 109.273 264.527 110.477H263.358C263.201 109.896 262.627 109.492 261.738 109.492C260.863 109.492 260.221 109.943 260.221 110.593V110.606C260.221 111.105 260.59 111.42 261.458 111.632L262.593 111.905C263.98 112.24 264.65 112.842 264.65 113.895V113.908C264.65 115.221 263.372 116.13 261.697 116.13Z" fill="#141414" fill-opacity="0.85"/>
</g>
<defs>
<filter id="filter0_d_4594_45243" x="26" y="53" width="280" height="110" filterUnits="userSpaceOnUse" color-interpolation-filters="sRGB">
<feFlood flood-opacity="0" result="BackgroundImageFix"/>
<feColorMatrix in="SourceAlpha" type="matrix" values="0 0 0 0 0 0 0 0 0 0 0 0 0 0 0 0 0 0 127 0" result="hardAlpha"/>
<feOffset dy="1"/>
<feGaussianBlur stdDeviation="2.5"/>
<feComposite in2="hardAlpha" operator="out"/>
<feColorMatrix type="matrix" values="0 0 0 0 0.0784314 0 0 0 0 0.0784314 0 0 0 0 0.0784314 0 0 0 0.04 0"/>
<feBlend mode="normal" in2="BackgroundImageFix" result="effect1_dropShadow_4594_45243"/>
<feBlend mode="normal" in="SourceGraphic" in2="effect1_dropShadow_4594_45243" result="shape"/>
</filter>
</defs>
</svg>
