<svg width="314" height="260" viewBox="0 0 314 260" fill="none" xmlns="http://www.w3.org/2000/svg">
<g clip-path="url(#clip0_4594_45249)">
<g filter="url(#filter0_d_4594_45249)">
<path d="M27.2578 228V218.136H33.3691V219.243H28.4883V222.408H33.1162V223.502H28.4883V226.893H33.3691V228H27.2578ZM35.4473 228V220.631H36.6367V221.725H36.7461C37.0264 220.952 37.7168 220.501 38.7148 220.501C38.9404 220.501 39.1934 220.528 39.3096 220.549V221.704C39.0635 221.663 38.8379 221.636 38.5781 221.636C37.4434 221.636 36.6367 222.354 36.6367 223.434V228H35.4473ZM40.8477 228V217.705H42.0371V228H40.8477ZM47.3281 228.13C45.2227 228.13 43.9512 226.653 43.9512 224.343V224.336C43.9512 222.06 45.25 220.501 47.2529 220.501C49.2559 220.501 50.4727 221.991 50.4727 224.192V224.657H45.168C45.2021 226.182 46.043 227.07 47.3555 227.07C48.3535 227.07 48.9688 226.599 49.167 226.154L49.1943 226.093H50.3838L50.3701 226.147C50.1172 227.146 49.0645 228.13 47.3281 228.13ZM47.2461 221.561C46.1523 221.561 45.3184 222.306 45.1885 223.707H49.2627C49.1396 222.251 48.333 221.561 47.2461 221.561ZM55.0391 228.13C53.1729 228.13 51.9492 226.619 51.9492 224.322V224.309C51.9492 221.998 53.166 220.501 55.0391 220.501C56.0508 220.501 56.9326 221.007 57.3359 221.793H57.4453V217.705H58.6348V228H57.4453V226.824H57.3359C56.8848 227.645 56.0645 228.13 55.0391 228.13ZM55.3125 227.077C56.6523 227.077 57.4727 226.024 57.4727 224.322V224.309C57.4727 222.606 56.6523 221.554 55.3125 221.554C53.9658 221.554 53.166 222.593 53.166 224.309V224.322C53.166 226.038 53.9658 227.077 55.3125 227.077ZM61.5469 219.209C61.0957 219.209 60.7266 218.84 60.7266 218.389C60.7266 217.938 61.0957 217.568 61.5469 217.568C61.998 217.568 62.3672 217.938 62.3672 218.389C62.3672 218.84 61.998 219.209 61.5469 219.209ZM60.9453 228V220.631H62.1348V228H60.9453ZM67.4121 230.598C65.6348 230.598 64.5 229.798 64.3154 228.588L64.3291 228.581H65.5596L65.5664 228.588C65.6963 229.148 66.3525 229.545 67.4121 229.545C68.7314 229.545 69.5176 228.923 69.5176 227.836V226.346H69.4082C68.9434 227.159 68.1094 227.617 67.0977 227.617C65.1904 227.617 64.0078 226.141 64.0078 224.076V224.062C64.0078 221.998 65.1973 220.501 67.125 220.501C68.1641 220.501 68.9707 221.014 69.4219 221.848H69.5039V220.631H70.6934V227.897C70.6934 229.545 69.4219 230.598 67.4121 230.598ZM67.3574 226.564C68.7246 226.564 69.5449 225.539 69.5449 224.076V224.062C69.5449 222.6 68.7178 221.554 67.3574 221.554C65.9902 221.554 65.2246 222.6 65.2246 224.062V224.076C65.2246 225.539 65.9902 226.564 67.3574 226.564ZM75.5264 228.055C74.0088 228.055 73.373 227.494 73.373 226.086V221.615H72.2109V220.631H73.373V218.724H74.6035V220.631H76.2168V221.615H74.6035V225.785C74.6035 226.653 74.9043 227.002 75.6699 227.002C75.8818 227.002 75.998 226.995 76.2168 226.975V227.986C75.9844 228.027 75.7588 228.055 75.5264 228.055ZM77.6934 230.509L78.2881 226.619H79.6484L78.5752 230.509H77.6934ZM88.8086 228.13C86.9424 228.13 85.7188 226.619 85.7188 224.322V224.309C85.7188 221.998 86.9355 220.501 88.8086 220.501C89.8203 220.501 90.7021 221.007 91.1055 221.793H91.2148V217.705H92.4043V228H91.2148V226.824H91.1055C90.6543 227.645 89.834 228.13 88.8086 228.13ZM89.082 227.077C90.4219 227.077 91.2422 226.024 91.2422 224.322V224.309C91.2422 222.606 90.4219 221.554 89.082 221.554C87.7354 221.554 86.9355 222.593 86.9355 224.309V224.322C86.9355 226.038 87.7354 227.077 89.082 227.077ZM96.7109 228.13C95.3096 228.13 94.25 227.282 94.25 225.942V225.929C94.25 224.616 95.2207 223.857 96.9365 223.755L99.0488 223.625V222.955C99.0488 222.046 98.4951 221.554 97.3945 221.554C96.5127 221.554 95.9316 221.882 95.7402 222.456L95.7334 222.477H94.5439L94.5508 222.436C94.7422 221.28 95.8633 220.501 97.4355 220.501C99.2334 220.501 100.238 221.424 100.238 222.955V228H99.0488V226.913H98.9395C98.4746 227.699 97.7021 228.13 96.7109 228.13ZM95.4668 225.915C95.4668 226.66 96.1025 227.098 96.957 227.098C98.167 227.098 99.0488 226.305 99.0488 225.252V224.582L97.0801 224.705C95.959 224.773 95.4668 225.17 95.4668 225.901V225.915ZM102.412 228V220.631H103.602V221.738H103.711C104.08 220.959 104.771 220.501 105.857 220.501C107.512 220.501 108.435 221.479 108.435 223.229V228H107.245V223.516C107.245 222.189 106.698 221.554 105.522 221.554C104.347 221.554 103.602 222.347 103.602 223.639V228H102.412ZM110.656 228V217.705H111.846V223.851H111.955L115.141 220.631H116.583L113.37 223.728L116.795 228H115.298L112.536 224.534L111.846 225.204V228H110.656ZM120.855 228.13C118.75 228.13 117.479 226.653 117.479 224.343V224.336C117.479 222.06 118.777 220.501 120.78 220.501C122.783 220.501 124 221.991 124 224.192V224.657H118.695C118.729 226.182 119.57 227.07 120.883 227.07C121.881 227.07 122.496 226.599 122.694 226.154L122.722 226.093H123.911L123.897 226.147C123.645 227.146 122.592 228.13 120.855 228.13ZM120.773 221.561C119.68 221.561 118.846 222.306 118.716 223.707H122.79C122.667 222.251 121.86 221.561 120.773 221.561ZM130.275 228V221.615H129.052V220.631H130.275V219.811C130.275 218.341 131.014 217.637 132.415 217.637C132.702 217.637 132.962 217.657 133.208 217.705V218.655C133.064 218.628 132.866 218.621 132.654 218.621C131.807 218.621 131.465 219.038 131.465 219.845V220.631H133.14V221.615H131.465V228H130.275ZM136.284 219.154C135.867 219.154 135.525 218.812 135.525 218.396C135.525 217.985 135.867 217.644 136.284 217.644C136.694 217.644 137.036 217.985 137.036 218.396C137.036 218.812 136.694 219.154 136.284 219.154ZM139.299 219.154C138.889 219.154 138.547 218.812 138.547 218.396C138.547 217.985 138.889 217.644 139.299 217.644C139.716 217.644 140.058 217.985 140.058 218.396C140.058 218.812 139.716 219.154 139.299 219.154ZM137.323 228.13C135.648 228.13 134.787 227.146 134.787 225.402V220.631H135.977V225.115C135.977 226.441 136.455 227.077 137.631 227.077C138.93 227.077 139.62 226.284 139.62 224.992V220.631H140.81V228H139.62V226.899H139.511C139.148 227.686 138.403 228.13 137.323 228.13ZM143.031 228V220.631H144.221V221.725H144.33C144.61 220.952 145.301 220.501 146.299 220.501C146.524 220.501 146.777 220.528 146.894 220.549V221.704C146.647 221.663 146.422 221.636 146.162 221.636C145.027 221.636 144.221 222.354 144.221 223.434V228H143.031ZM155.021 228.13C153.155 228.13 151.932 226.619 151.932 224.322V224.309C151.932 221.998 153.148 220.501 155.021 220.501C156.033 220.501 156.915 221.007 157.318 221.793H157.428V217.705H158.617V228H157.428V226.824H157.318C156.867 227.645 156.047 228.13 155.021 228.13ZM155.295 227.077C156.635 227.077 157.455 226.024 157.455 224.322V224.309C157.455 222.606 156.635 221.554 155.295 221.554C153.948 221.554 153.148 222.593 153.148 224.309V224.322C153.148 226.038 153.948 227.077 155.295 227.077ZM161.529 219.209C161.078 219.209 160.709 218.84 160.709 218.389C160.709 217.938 161.078 217.568 161.529 217.568C161.98 217.568 162.35 217.938 162.35 218.389C162.35 218.84 161.98 219.209 161.529 219.209ZM160.928 228V220.631H162.117V228H160.928ZM167.367 228.13C165.262 228.13 163.99 226.653 163.99 224.343V224.336C163.99 222.06 165.289 220.501 167.292 220.501C169.295 220.501 170.512 221.991 170.512 224.192V224.657H165.207C165.241 226.182 166.082 227.07 167.395 227.07C168.393 227.07 169.008 226.599 169.206 226.154L169.233 226.093H170.423L170.409 226.147C170.156 227.146 169.104 228.13 167.367 228.13ZM167.285 221.561C166.191 221.561 165.357 222.306 165.228 223.707H169.302C169.179 222.251 168.372 221.561 167.285 221.561ZM176.445 228V218.136H182.557V219.243H177.676V222.408H182.304V223.502H177.676V226.893H182.557V228H176.445ZM184.635 228V220.631H185.824V221.725H185.934C186.214 220.952 186.904 220.501 187.902 220.501C188.128 220.501 188.381 220.528 188.497 220.549V221.704C188.251 221.663 188.025 221.636 187.766 221.636C186.631 221.636 185.824 222.354 185.824 223.434V228H184.635ZM190.596 219.209C190.145 219.209 189.775 218.84 189.775 218.389C189.775 217.938 190.145 217.568 190.596 217.568C191.047 217.568 191.416 217.938 191.416 218.389C191.416 218.84 191.047 219.209 190.596 219.209ZM189.994 228V220.631H191.184V228H189.994ZM193.426 228V220.631H194.615V221.738H194.725C195.094 220.959 195.784 220.501 196.871 220.501C198.525 220.501 199.448 221.479 199.448 223.229V228H198.259V223.516C198.259 222.189 197.712 221.554 196.536 221.554C195.36 221.554 194.615 222.347 194.615 223.639V228H193.426ZM201.602 228V220.631H202.791V221.738H202.9C203.27 220.959 203.96 220.501 205.047 220.501C206.701 220.501 207.624 221.479 207.624 223.229V228H206.435V223.516C206.435 222.189 205.888 221.554 204.712 221.554C203.536 221.554 202.791 222.347 202.791 223.639V228H201.602ZM212.785 228.13C210.68 228.13 209.408 226.653 209.408 224.343V224.336C209.408 222.06 210.707 220.501 212.71 220.501C214.713 220.501 215.93 221.991 215.93 224.192V224.657H210.625C210.659 226.182 211.5 227.07 212.812 227.07C213.811 227.07 214.426 226.599 214.624 226.154L214.651 226.093H215.841L215.827 226.147C215.574 227.146 214.521 228.13 212.785 228.13ZM212.703 221.561C211.609 221.561 210.775 222.306 210.646 223.707H214.72C214.597 222.251 213.79 221.561 212.703 221.561ZM217.775 228V220.631H218.965V221.725H219.074C219.354 220.952 220.045 220.501 221.043 220.501C221.269 220.501 221.521 220.528 221.638 220.549V221.704C221.392 221.663 221.166 221.636 220.906 221.636C219.771 221.636 218.965 222.354 218.965 223.434V228H217.775ZM225.575 228.13C223.9 228.13 223.039 227.146 223.039 225.402V220.631H224.229V225.115C224.229 226.441 224.707 227.077 225.883 227.077C227.182 227.077 227.872 226.284 227.872 224.992V220.631H229.062V228H227.872V226.899H227.763C227.4 227.686 226.655 228.13 225.575 228.13ZM231.283 228V220.631H232.473V221.738H232.582C232.951 220.959 233.642 220.501 234.729 220.501C236.383 220.501 237.306 221.479 237.306 223.229V228H236.116V223.516C236.116 222.189 235.569 221.554 234.394 221.554C233.218 221.554 232.473 222.347 232.473 223.639V228H231.283ZM242.494 230.598C240.717 230.598 239.582 229.798 239.397 228.588L239.411 228.581H240.642L240.648 228.588C240.778 229.148 241.435 229.545 242.494 229.545C243.813 229.545 244.6 228.923 244.6 227.836V226.346H244.49C244.025 227.159 243.191 227.617 242.18 227.617C240.272 227.617 239.09 226.141 239.09 224.076V224.062C239.09 221.998 240.279 220.501 242.207 220.501C243.246 220.501 244.053 221.014 244.504 221.848H244.586V220.631H245.775V227.897C245.775 229.545 244.504 230.598 242.494 230.598ZM242.439 226.564C243.807 226.564 244.627 225.539 244.627 224.076V224.062C244.627 222.6 243.8 221.554 242.439 221.554C241.072 221.554 240.307 222.6 240.307 224.062V224.076C240.307 225.539 241.072 226.564 242.439 226.564ZM248.489 224.719L248.373 218.129H249.74L249.624 224.719H248.489ZM249.063 228.123C248.51 228.123 248.113 227.727 248.113 227.173C248.113 226.612 248.51 226.216 249.063 226.216C249.617 226.216 250.007 226.612 250.007 227.173C250.007 227.727 249.617 228.123 249.063 228.123Z" fill="#141414" fill-opacity="0.85"/>
</g>
</g>
<defs>
<filter id="filter0_d_4594_45249" x="0" y="158" width="296" height="104" filterUnits="userSpaceOnUse" color-interpolation-filters="sRGB">
<feFlood flood-opacity="0" result="BackgroundImageFix"/>
<feColorMatrix in="SourceAlpha" type="matrix" values="0 0 0 0 0 0 0 0 0 0 0 0 0 0 0 0 0 0 127 0" result="hardAlpha"/>
<feOffset dy="2"/>
<feGaussianBlur stdDeviation="6.5"/>
<feColorMatrix type="matrix" values="0 0 0 0 0.0784314 0 0 0 0 0.0784314 0 0 0 0 0.0784314 0 0 0 0.06 0"/>
<feBlend mode="normal" in2="BackgroundImageFix" result="effect1_dropShadow_4594_45249"/>
<feBlend mode="normal" in="SourceGraphic" in2="effect1_dropShadow_4594_45249" result="shape"/>
</filter>
<clipPath id="clip0_4594_45249">
<rect width="314" height="260" fill="white"/>
</clipPath>
</defs>
</svg>
