<svg width="314" height="260" viewBox="0 0 314 260" fill="none" xmlns="http://www.w3.org/2000/svg">
<g clip-path="url(#clip0_4594_45247)">
<g filter="url(#filter0_d_4594_45247)">
<path d="M13 171C13 169.895 13.8954 169 15 169H281C282.105 169 283 169.895 283 171V245C283 246.105 282.105 247 281 247H15C13.8954 247 13 246.105 13 245V171Z" fill="white"/>
<path d="M15 169.5H281C281.828 169.5 282.5 170.172 282.5 171V245C282.5 245.828 281.828 246.5 281 246.5H15C14.1716 246.5 13.5 245.828 13.5 245V171C13.5 170.172 14.1716 169.5 15 169.5Z" stroke="#D6D6D6"/>
<rect x="14" y="170" width="268" height="2" fill="#D89522"/>
<path d="M27.043 199V190.545H28.5547V197.729H32.4336V199H27.043ZM36.3594 199.129C34.4551 199.129 33.3008 197.852 33.3008 195.812V195.807C33.3008 193.791 34.4668 192.473 36.2891 192.473C38.1113 192.473 39.2363 193.75 39.2363 195.684V196.164H34.7598C34.7773 197.312 35.3984 197.98 36.3887 197.98C37.1797 197.98 37.6309 197.582 37.7715 197.289L37.7891 197.248H39.1777L39.1602 197.301C38.9551 198.127 38.0996 199.129 36.3594 199.129ZM36.3066 193.615C35.4922 193.615 34.8828 194.166 34.7715 195.186H37.8125C37.7129 194.137 37.1211 193.615 36.3066 193.615ZM43.4609 199.129C41.5391 199.129 40.3789 197.875 40.3789 195.801V195.789C40.3789 193.732 41.5566 192.473 43.4609 192.473C45.3711 192.473 46.543 193.727 46.543 195.789V195.801C46.543 197.875 45.377 199.129 43.4609 199.129ZM43.4609 197.945C44.4746 197.945 45.0488 197.154 45.0488 195.807V195.795C45.0488 194.447 44.4688 193.65 43.4609 193.65C42.4473 193.65 41.8672 194.447 41.8672 195.795V195.807C41.8672 197.154 42.4473 197.945 43.4609 197.945ZM51.3594 199V190.545H53.0938L55.6367 197.049H55.7363L58.2734 190.545H60.0078V199H58.6484V192.988H58.543L56.1992 199H55.168L52.8242 192.988H52.7246V199H51.3594ZM63.2949 191.482C62.8555 191.482 62.4922 191.125 62.4922 190.686C62.4922 190.252 62.8555 189.9 63.2949 189.9C63.7285 189.9 64.0918 190.252 64.0918 190.686C64.0918 191.125 63.7285 191.482 63.2949 191.482ZM66.0605 191.482C65.6211 191.482 65.2637 191.125 65.2637 190.686C65.2637 190.252 65.6211 189.9 66.0605 189.9C66.5 189.9 66.8633 190.252 66.8633 190.686C66.8633 191.125 66.5 191.482 66.0605 191.482ZM64.0625 199.129C62.6211 199.129 61.8828 198.262 61.8828 196.738V192.596H63.3418V196.404C63.3418 197.395 63.7109 197.898 64.5898 197.898C65.5332 197.898 66.0371 197.289 66.0371 196.328V192.596H67.4961V199H66.0371V198.027H65.9375C65.6387 198.713 64.9883 199.129 64.0625 199.129ZM69.3359 199V190.117H70.7949V199H69.3359ZM72.6992 199V190.117H74.1582V199H72.6992ZM78.7461 199.129C76.8418 199.129 75.6875 197.852 75.6875 195.812V195.807C75.6875 193.791 76.8535 192.473 78.6758 192.473C80.498 192.473 81.623 193.75 81.623 195.684V196.164H77.1465C77.1641 197.312 77.7852 197.98 78.7754 197.98C79.5664 197.98 80.0176 197.582 80.1582 197.289L80.1758 197.248H81.5645L81.5469 197.301C81.3418 198.127 80.4863 199.129 78.7461 199.129ZM78.6934 193.615C77.8789 193.615 77.2695 194.166 77.1582 195.186H80.1992C80.0996 194.137 79.5078 193.615 78.6934 193.615ZM83.082 199V192.596H84.541V193.58H84.6406C84.8574 192.895 85.4434 192.49 86.2871 192.49C86.5098 192.49 86.7383 192.52 86.8789 192.561V193.867C86.6445 193.82 86.4043 193.785 86.1523 193.785C85.1797 193.785 84.541 194.365 84.541 195.279V199H83.082Z" fill="#141414" fill-opacity="0.85"/>
<path d="M179.964 200L177.432 193.157H178.6L180.472 198.794H180.574L182.446 193.157H183.614L181.082 200H179.964ZM187.632 200.121C185.684 200.121 184.478 198.775 184.478 196.585V196.572C184.478 194.376 185.684 193.037 187.632 193.037C189.581 193.037 190.787 194.376 190.787 196.572V196.585C190.787 198.775 189.581 200.121 187.632 200.121ZM187.632 199.143C188.927 199.143 189.657 198.197 189.657 196.585V196.572C189.657 194.954 188.927 194.014 187.632 194.014C186.337 194.014 185.607 194.954 185.607 196.572V196.585C185.607 198.197 186.337 199.143 187.632 199.143ZM192.501 200V193.157H193.605V194.173H193.707C193.967 193.456 194.608 193.037 195.535 193.037C195.745 193.037 195.979 193.062 196.087 193.081V194.154C195.859 194.116 195.649 194.09 195.408 194.09C194.354 194.09 193.605 194.757 193.605 195.76V200H192.501Z" fill="#141414" fill-opacity="0.45"/>
<path d="M204.263 200V192.11H204.161L201.832 193.798V192.592L204.269 190.84H205.405V200H204.263ZM211.118 200.216C209.093 200.216 207.887 198.369 207.887 195.423V195.411C207.887 192.465 209.093 190.625 211.118 190.625C213.143 190.625 214.362 192.465 214.362 195.411V195.423C214.362 198.369 213.143 200.216 211.118 200.216ZM211.118 199.219C212.432 199.219 213.213 197.759 213.213 195.423V195.411C213.213 193.075 212.432 191.627 211.118 191.627C209.804 191.627 209.036 193.075 209.036 195.411V195.423C209.036 197.759 209.804 199.219 211.118 199.219Z" fill="#141414" fill-opacity="0.45"/>
<path d="M220.824 200V190.84H222.151L225.287 198.483H225.388L228.524 190.84H229.851V200H228.784V193.005H228.714L225.82 200H224.855L221.96 193.005H221.891V200H220.824ZM232.631 191.837C232.212 191.837 231.869 191.494 231.869 191.075C231.869 190.656 232.212 190.313 232.631 190.313C233.05 190.313 233.393 190.656 233.393 191.075C233.393 191.494 233.05 191.837 232.631 191.837ZM232.072 200V193.157H233.177V200H232.072ZM235.259 200V193.157H236.363V194.186H236.465C236.808 193.462 237.449 193.037 238.458 193.037C239.994 193.037 240.851 193.944 240.851 195.569V200H239.747V195.836C239.747 194.604 239.239 194.014 238.147 194.014C237.055 194.014 236.363 194.75 236.363 195.95V200H235.259ZM245.142 200.121C243.587 200.121 242.787 199.207 242.787 197.588V193.157H243.892V197.321C243.892 198.553 244.336 199.143 245.428 199.143C246.634 199.143 247.275 198.407 247.275 197.207V193.157H248.379V200H247.275V198.978H247.173C246.837 199.708 246.145 200.121 245.142 200.121ZM252.874 200.051C251.464 200.051 250.874 199.53 250.874 198.223V194.071H249.795V193.157H250.874V191.386H252.017V193.157H253.515V194.071H252.017V197.943C252.017 198.75 252.296 199.073 253.007 199.073C253.204 199.073 253.312 199.067 253.515 199.048V199.987C253.299 200.025 253.089 200.051 252.874 200.051ZM257.856 200.121C255.901 200.121 254.721 198.75 254.721 196.604V196.598C254.721 194.484 255.927 193.037 257.787 193.037C259.646 193.037 260.776 194.42 260.776 196.464V196.896H255.851C255.882 198.312 256.663 199.137 257.882 199.137C258.809 199.137 259.38 198.699 259.564 198.286L259.589 198.229H260.694L260.681 198.28C260.446 199.207 259.469 200.121 257.856 200.121ZM257.78 194.021C256.765 194.021 255.99 194.712 255.87 196.014H259.653C259.539 194.662 258.79 194.021 257.78 194.021ZM262.49 200V193.157H263.595V194.186H263.696C264.039 193.462 264.68 193.037 265.689 193.037C267.226 193.037 268.083 193.944 268.083 195.569V200H266.978V195.836C266.978 194.604 266.47 194.014 265.378 194.014C264.287 194.014 263.595 194.75 263.595 195.95V200H262.49Z" fill="#141414" fill-opacity="0.45"/>
</g>
</g>
<defs>
<filter id="filter0_d_4594_45247" x="0" y="158" width="296" height="104" filterUnits="userSpaceOnUse" color-interpolation-filters="sRGB">
<feFlood flood-opacity="0" result="BackgroundImageFix"/>
<feColorMatrix in="SourceAlpha" type="matrix" values="0 0 0 0 0 0 0 0 0 0 0 0 0 0 0 0 0 0 127 0" result="hardAlpha"/>
<feOffset dy="2"/>
<feGaussianBlur stdDeviation="6.5"/>
<feColorMatrix type="matrix" values="0 0 0 0 0.0784314 0 0 0 0 0.0784314 0 0 0 0 0.0784314 0 0 0 0.06 0"/>
<feBlend mode="normal" in2="BackgroundImageFix" result="effect1_dropShadow_4594_45247"/>
<feBlend mode="normal" in="SourceGraphic" in2="effect1_dropShadow_4594_45247" result="shape"/>
</filter>
<clipPath id="clip0_4594_45247">
<rect width="314" height="260" fill="white"/>
</clipPath>
</defs>
</svg>
