<svg width="314" height="260" viewBox="0 0 314 260" fill="none" xmlns="http://www.w3.org/2000/svg">
<g opacity="0.75" filter="url(#filter0_d_4594_45245)">
<path d="M48.1152 138.13C46.0098 138.13 44.7383 136.653 44.7383 134.343V134.336C44.7383 132.06 46.0371 130.501 48.04 130.501C50.043 130.501 51.2598 131.991 51.2598 134.192V134.657H45.9551C45.9893 136.182 46.8301 137.07 48.1426 137.07C49.1406 137.07 49.7559 136.599 49.9541 136.154L49.9814 136.093H51.1709L51.1572 136.147C50.9043 137.146 49.8516 138.13 48.1152 138.13ZM48.0332 131.561C46.9395 131.561 46.1055 132.306 45.9756 133.707H50.0498C49.9268 132.251 49.1201 131.561 48.0332 131.561ZM53.7344 129.209C53.2832 129.209 52.9141 128.84 52.9141 128.389C52.9141 127.938 53.2832 127.568 53.7344 127.568C54.1855 127.568 54.5547 127.938 54.5547 128.389C54.5547 128.84 54.1855 129.209 53.7344 129.209ZM53.1328 138V130.631H54.3223V138H53.1328ZM56.5645 138V130.631H57.7539V131.738H57.8633C58.2324 130.959 58.9229 130.501 60.0098 130.501C61.6641 130.501 62.5869 131.479 62.5869 133.229V138H61.3975V133.516C61.3975 132.189 60.8506 131.554 59.6748 131.554C58.499 131.554 57.7539 132.347 57.7539 133.639V138H56.5645ZM65.7109 138.068C65.2256 138.068 64.8223 137.665 64.8223 137.18C64.8223 136.688 65.2256 136.291 65.7109 136.291C66.2031 136.291 66.5996 136.688 66.5996 137.18C66.5996 137.665 66.2031 138.068 65.7109 138.068Z" fill="#141414" fill-opacity="0.85"/>
</g>
<defs>
<filter id="filter0_d_4594_45245" x="26" y="53" width="280" height="110" filterUnits="userSpaceOnUse" color-interpolation-filters="sRGB">
<feFlood flood-opacity="0" result="BackgroundImageFix"/>
<feColorMatrix in="SourceAlpha" type="matrix" values="0 0 0 0 0 0 0 0 0 0 0 0 0 0 0 0 0 0 127 0" result="hardAlpha"/>
<feOffset dy="1"/>
<feGaussianBlur stdDeviation="2.5"/>
<feComposite in2="hardAlpha" operator="out"/>
<feColorMatrix type="matrix" values="0 0 0 0 0.0784314 0 0 0 0 0.0784314 0 0 0 0 0.0784314 0 0 0 0.04 0"/>
<feBlend mode="normal" in2="BackgroundImageFix" result="effect1_dropShadow_4594_45245"/>
<feBlend mode="normal" in="SourceGraphic" in2="effect1_dropShadow_4594_45245" result="shape"/>
</filter>
</defs>
</svg>
