<svg width="314" height="260" viewBox="0 0 314 260" fill="none" xmlns="http://www.w3.org/2000/svg">
<g opacity="0.75" filter="url(#filter0_d_4594_45241)">
<path d="M31 59C31 57.8954 31.8954 57 33 57H299C300.105 57 301 57.8954 301 59V155C301 156.105 300.105 157 299 157H33C31.8954 157 31 156.105 31 155V59Z" fill="white"/>
<path d="M33 57.5H299C299.828 57.5 300.5 58.1716 300.5 59V155C300.5 155.828 299.828 156.5 299 156.5H33C32.1716 156.5 31.5 155.828 31.5 155V59C31.5 58.1716 32.1716 57.5 33 57.5Z" stroke="#E3E3E3"/>
<rect x="32" y="58" width="268" height="2" fill="#D89522"/>
<path d="M45.043 87V78.5449H46.5547V82.4531H46.6543L49.9883 78.5449H51.7227L48.5352 82.2305L51.9746 87H50.1289L47.457 83.2324L46.5547 84.2812V87H45.043ZM53.2168 89.25C53.041 89.25 52.8359 89.2441 52.6602 89.2266V88.1074C52.7773 88.1191 52.9414 88.125 53.0938 88.125C53.6914 88.125 54.0488 87.8789 54.207 87.2988L54.2832 87.0059L51.9922 80.5957H53.5859L55.0801 85.5996H55.1914L56.6797 80.5957H58.2148L55.918 87.1348C55.3672 88.7402 54.6348 89.25 53.2168 89.25ZM61.9531 87.1289C60.0488 87.1289 58.8945 85.8516 58.8945 83.8125V83.8066C58.8945 81.791 60.0605 80.4727 61.8828 80.4727C63.7051 80.4727 64.8301 81.75 64.8301 83.6836V84.1641H60.3535C60.3711 85.3125 60.9922 85.9805 61.9824 85.9805C62.7734 85.9805 63.2246 85.582 63.3652 85.2891L63.3828 85.248H64.7715L64.7539 85.3008C64.5488 86.127 63.6934 87.1289 61.9531 87.1289ZM61.9004 81.6152C61.0859 81.6152 60.4766 82.166 60.3652 83.1855H63.4062C63.3066 82.1367 62.7148 81.6152 61.9004 81.6152ZM69.6406 87V78.5449H73.0156C74.7324 78.5449 75.8926 79.6758 75.8926 81.3691V81.3809C75.8926 83.0684 74.7324 84.2051 73.0156 84.2051H71.1523V87H69.6406ZM72.6465 79.7812H71.1523V82.9863H72.6465C73.7305 82.9863 74.3633 82.4004 74.3633 81.3867V81.375C74.3633 80.3613 73.7305 79.7812 72.6465 79.7812ZM79.9766 87.1289C78.0723 87.1289 76.918 85.8516 76.918 83.8125V83.8066C76.918 81.791 78.084 80.4727 79.9062 80.4727C81.7285 80.4727 82.8535 81.75 82.8535 83.6836V84.1641H78.377C78.3945 85.3125 79.0156 85.9805 80.0059 85.9805C80.7969 85.9805 81.248 85.582 81.3887 85.2891L81.4062 85.248H82.7949L82.7773 85.3008C82.5723 86.127 81.7168 87.1289 79.9766 87.1289ZM79.9238 81.6152C79.1094 81.6152 78.5 82.166 78.3887 83.1855H81.4297C81.3301 82.1367 80.7383 81.6152 79.9238 81.6152ZM86.832 87.0293C85.3613 87.0293 84.7578 86.5371 84.7578 85.3008V81.7266H83.7617V80.5957H84.7578V79.0254H86.2402V80.5957H87.5938V81.7266H86.2402V84.9551C86.2402 85.5938 86.4922 85.8633 87.1016 85.8633C87.3066 85.8633 87.418 85.8574 87.5938 85.8398V86.9648C87.3828 87.0059 87.1133 87.0293 86.832 87.0293ZM91.7305 87.1289C89.8262 87.1289 88.6719 85.8516 88.6719 83.8125V83.8066C88.6719 81.791 89.8379 80.4727 91.6602 80.4727C93.4824 80.4727 94.6074 81.75 94.6074 83.6836V84.1641H90.1309C90.1484 85.3125 90.7695 85.9805 91.7598 85.9805C92.5508 85.9805 93.002 85.582 93.1426 85.2891L93.1602 85.248H94.5488L94.5312 85.3008C94.3262 86.127 93.4707 87.1289 91.7305 87.1289ZM91.6777 81.6152C90.8633 81.6152 90.2539 82.166 90.1426 83.1855H93.1836C93.084 82.1367 92.4922 81.6152 91.6777 81.6152ZM96.0664 87V80.5957H97.5254V81.5801H97.625C97.8418 80.8945 98.4277 80.4902 99.2715 80.4902C99.4941 80.4902 99.7227 80.5195 99.8633 80.5605V81.8672C99.6289 81.8203 99.3887 81.7852 99.1367 81.7852C98.1641 81.7852 97.5254 82.3652 97.5254 83.2793V87H96.0664ZM103.338 87.1289C101.709 87.1289 100.725 86.3789 100.602 85.2949V85.2832H102.049L102.055 85.2949C102.207 85.7402 102.635 86.0508 103.361 86.0508C104.088 86.0508 104.592 85.7227 104.592 85.2422V85.2305C104.592 84.8555 104.311 84.6094 103.607 84.4512L102.57 84.2168C101.352 83.9473 100.771 83.373 100.771 82.4297V82.4238C100.771 81.2695 101.826 80.4727 103.338 80.4727C104.896 80.4727 105.828 81.2461 105.922 82.2832V82.2949H104.551L104.545 82.2773C104.439 81.873 104.018 81.5449 103.332 81.5449C102.682 81.5449 102.213 81.8613 102.213 82.3418V82.3477C102.213 82.7227 102.482 82.9512 103.174 83.1094L104.211 83.3379C105.465 83.6191 106.057 84.1523 106.057 85.084V85.0957C106.057 86.3145 104.914 87.1289 103.338 87.1289Z" fill="#141414" fill-opacity="0.85"/>
<path d="M202.964 88L200.432 81.1572H201.6L203.472 86.7939H203.574L205.446 81.1572H206.614L204.082 88H202.964ZM210.632 88.1206C208.684 88.1206 207.478 86.7749 207.478 84.585V84.5723C207.478 82.376 208.684 81.0366 210.632 81.0366C212.581 81.0366 213.787 82.376 213.787 84.5723V84.585C213.787 86.7749 212.581 88.1206 210.632 88.1206ZM210.632 87.1431C211.927 87.1431 212.657 86.1973 212.657 84.585V84.5723C212.657 82.9536 211.927 82.0142 210.632 82.0142C209.337 82.0142 208.607 82.9536 208.607 84.5723V84.585C208.607 86.1973 209.337 87.1431 210.632 87.1431ZM215.501 88V81.1572H216.605V82.1729H216.707C216.967 81.4556 217.608 81.0366 218.535 81.0366C218.745 81.0366 218.979 81.062 219.087 81.0811V82.1538C218.859 82.1157 218.649 82.0903 218.408 82.0903C217.354 82.0903 216.605 82.7568 216.605 83.7598V88H215.501Z" fill="#141414" fill-opacity="0.45"/>
<path d="M228.139 88.1523C226.247 88.1523 225.022 87.0986 224.901 85.6514L224.895 85.5752H225.993L226 85.6387C226.088 86.54 226.92 87.1621 228.139 87.1621C229.338 87.1621 230.157 86.4893 230.157 85.5181V85.5054C230.157 84.3818 229.351 83.7534 228.069 83.7534H226.92V82.7886H228.018C229.11 82.7886 229.872 82.1157 229.872 81.2017V81.189C229.872 80.2305 229.243 79.6782 228.126 79.6782C227.047 79.6782 226.279 80.2495 226.184 81.1763L226.177 81.2397H225.079L225.085 81.1763C225.231 79.6846 226.412 78.688 228.126 78.688C229.872 78.688 231.021 79.6592 231.021 81.0493V81.062C231.021 82.1919 230.221 82.9663 229.078 83.2075V83.2329C230.411 83.3472 231.319 84.1787 231.319 85.48V85.4927C231.319 87.0225 229.973 88.1523 228.139 88.1523Z" fill="#141414" fill-opacity="0.45"/>
<path d="M240.827 88.2158C238.821 88.2158 237.526 87.1621 237.393 85.6704L237.386 85.6006H238.529L238.535 85.6704C238.618 86.5845 239.57 87.1621 240.89 87.1621C242.134 87.1621 243.042 86.521 243.042 85.5879V85.5815C243.042 84.8198 242.515 84.2993 241.258 84.02L240.243 83.7979C238.408 83.3916 237.615 82.5474 237.615 81.2207V81.2144C237.621 79.6973 238.948 78.6245 240.839 78.6245C242.667 78.6245 243.943 79.7036 244.039 81.0684L244.045 81.1572H242.902L242.89 81.0747C242.763 80.2686 242.001 79.6719 240.808 79.6782C239.665 79.6846 238.783 80.2241 238.783 81.1826V81.189C238.783 81.9189 239.284 82.4141 240.528 82.687L241.544 82.9155C243.455 83.3408 244.21 84.1089 244.21 85.4292V85.4355C244.21 87.1494 242.871 88.2158 240.827 88.2158ZM248.406 88.0508C246.997 88.0508 246.406 87.5303 246.406 86.2227V82.0713H245.327V81.1572H246.406V79.3862H247.549V81.1572H249.047V82.0713H247.549V85.9434C247.549 86.7495 247.828 87.0732 248.539 87.0732C248.736 87.0732 248.844 87.0669 249.047 87.0479V87.9873C248.831 88.0254 248.622 88.0508 248.406 88.0508ZM252.989 88.1206C251.434 88.1206 250.634 87.2065 250.634 85.5879V81.1572H251.738V85.3213C251.738 86.5527 252.183 87.1431 253.274 87.1431C254.48 87.1431 255.122 86.4067 255.122 85.207V81.1572H256.226V88H255.122V86.978H255.02C254.684 87.708 253.992 88.1206 252.989 88.1206ZM258.289 88V81.1572H259.394V82.1855H259.495C259.838 81.4619 260.479 81.0366 261.488 81.0366C263.024 81.0366 263.881 81.9443 263.881 83.5693V88H262.777V83.8359C262.777 82.6045 262.269 82.0142 261.177 82.0142C260.085 82.0142 259.394 82.7505 259.394 83.9502V88H258.289ZM268.407 88.1206C266.674 88.1206 265.538 86.7178 265.538 84.585V84.5723C265.538 82.4268 266.668 81.0366 268.407 81.0366C269.347 81.0366 270.166 81.5063 270.54 82.2363H270.642V78.4404H271.746V88H270.642V86.9082H270.54C270.121 87.6699 269.359 88.1206 268.407 88.1206ZM268.661 87.1431C269.905 87.1431 270.667 86.1655 270.667 84.585V84.5723C270.667 82.9917 269.905 82.0142 268.661 82.0142C267.411 82.0142 266.668 82.979 266.668 84.5723V84.585C266.668 86.1782 267.411 87.1431 268.661 87.1431ZM276.659 88.1206C274.704 88.1206 273.523 86.7495 273.523 84.604V84.5977C273.523 82.4839 274.729 81.0366 276.589 81.0366C278.449 81.0366 279.579 82.4204 279.579 84.4644V84.896H274.653C274.685 86.3115 275.466 87.1367 276.685 87.1367C277.611 87.1367 278.183 86.6987 278.367 86.2861L278.392 86.229H279.497L279.484 86.2798C279.249 87.2065 278.271 88.1206 276.659 88.1206ZM276.583 82.0205C275.567 82.0205 274.793 82.7124 274.672 84.0137H278.456C278.341 82.6616 277.592 82.0205 276.583 82.0205ZM281.293 88V81.1572H282.397V82.1855H282.499C282.842 81.4619 283.483 81.0366 284.492 81.0366C286.028 81.0366 286.885 81.9443 286.885 83.5693V88H285.781V83.8359C285.781 82.6045 285.273 82.0142 284.181 82.0142C283.089 82.0142 282.397 82.7505 282.397 83.9502V88H281.293Z" fill="#141414" fill-opacity="0.45"/>
</g>
<defs>
<filter id="filter0_d_4594_45241" x="26" y="53" width="280" height="110" filterUnits="userSpaceOnUse" color-interpolation-filters="sRGB">
<feFlood flood-opacity="0" result="BackgroundImageFix"/>
<feColorMatrix in="SourceAlpha" type="matrix" values="0 0 0 0 0 0 0 0 0 0 0 0 0 0 0 0 0 0 127 0" result="hardAlpha"/>
<feOffset dy="1"/>
<feGaussianBlur stdDeviation="2.5"/>
<feComposite in2="hardAlpha" operator="out"/>
<feColorMatrix type="matrix" values="0 0 0 0 0.0784314 0 0 0 0 0.0784314 0 0 0 0 0.0784314 0 0 0 0.04 0"/>
<feBlend mode="normal" in2="BackgroundImageFix" result="effect1_dropShadow_4594_45241"/>
<feBlend mode="normal" in="SourceGraphic" in2="effect1_dropShadow_4594_45241" result="shape"/>
</filter>
</defs>
</svg>
