<svg xmlns="http://www.w3.org/2000/svg" xmlns:xlink="http://www.w3.org/1999/xlink" width="314" height="260" fill="none" viewBox="0 0 314 260"><path fill="#f8f8f8" d="M31 15a2 2 0 0 1 2-2h32a2 2 0 0 1 2 2v32a2 2 0 0 1-2 2H33a2 2 0 0 1-2-2z"/><g clip-path="url(#a)"><path fill="url(#b)" d="M31 13h36v36H31z"/></g><path fill="#141414" fill-opacity=".85" d="m73.416 35 3-8.455h1.705l3 8.455H79.54l-.709-2.185h-3.129L74.998 35zm3.803-6.885-1.137 3.533h2.373l-1.137-3.533zM82.422 35v-6.404h1.459v.984h.1c.216-.685.802-1.09 1.646-1.09.223 0 .451.03.592.07v1.307a3.7 3.7 0 0 0-.727-.082c-.973 0-1.611.58-1.611 1.494V35zm7.652.03c-1.47 0-2.074-.493-2.074-1.73v-3.573h-.996v-1.131H88v-1.57h1.482v1.57h1.354v1.13h-1.354v3.23c0 .638.252.907.862.907.205 0 .316-.006.492-.023v1.125c-.211.04-.48.064-.762.064m2.965-7.507a.865.865 0 0 1-.873-.86c0-.476.393-.862.873-.862.475 0 .867.387.867.861 0 .48-.392.861-.867.861M92.307 35v-6.404h1.459V35zm3.31 0v-8.883h1.46v5.104h.099l2.361-2.625h1.688l-2.578 2.707L101.4 35h-1.757l-2.057-2.772-.51.522V35zm9.293.129c-1.904 0-3.058-1.277-3.058-3.316v-.006c0-2.016 1.166-3.334 2.988-3.334s2.947 1.277 2.947 3.21v.481h-4.476c.017 1.148.638 1.816 1.628 1.816.791 0 1.243-.398 1.383-.69l.018-.042h1.389l-.018.053c-.205.826-1.061 1.828-2.801 1.828m-.053-5.514c-.814 0-1.423.551-1.535 1.57h3.041c-.099-1.048-.691-1.57-1.506-1.57M109.305 35v-8.883h1.459V35zm8.759 0v-7.184h-2.601v-1.271h6.721v1.271h-2.608V35zm7.155.129c-1.905 0-3.059-1.277-3.059-3.316v-.006c0-2.016 1.166-3.334 2.988-3.334s2.948 1.277 2.948 3.21v.481h-4.477c.018 1.148.639 1.816 1.629 1.816.791 0 1.242-.398 1.383-.69l.017-.042h1.389l-.017.053c-.206.826-1.061 1.828-2.801 1.828m-.053-5.514c-.814 0-1.424.551-1.535 1.57h3.041c-.1-1.048-.692-1.57-1.506-1.57m6.135 5.49c-1.219 0-2.104-.75-2.104-1.915v-.012c0-1.143.873-1.81 2.432-1.905l1.646-.1v-.55c0-.639-.416-.99-1.201-.99-.668 0-1.101.24-1.248.662l-.006.023h-1.377l.006-.052c.141-1.078 1.172-1.793 2.696-1.793 1.646 0 2.572.797 2.572 2.15V35h-1.442v-.879h-.099c-.352.621-1.031.984-1.875.984m-.662-1.986c0 .545.463.867 1.107.867.879 0 1.529-.574 1.529-1.336v-.515l-1.441.093c-.814.053-1.195.352-1.195.88zm8.25 2.01c-1.629 0-2.614-.75-2.737-1.834v-.012h1.448l.005.012c.153.445.581.756 1.307.756.727 0 1.231-.328 1.231-.809v-.011c0-.376-.282-.622-.985-.78l-1.037-.234c-1.219-.27-1.799-.844-1.799-1.787v-.006c0-1.154 1.055-1.951 2.567-1.951 1.558 0 2.49.773 2.584 1.81v.012h-1.371l-.006-.018c-.106-.404-.528-.732-1.213-.732-.651 0-1.119.316-1.119.797v.006c0 .375.269.603.961.761l1.037.229c1.254.281 1.845.814 1.845 1.746v.012c0 1.219-1.142 2.033-2.718 2.033m6.931 0c-1.904 0-3.058-1.277-3.058-3.316v-.006c0-2.016 1.166-3.334 2.988-3.334s2.947 1.277 2.947 3.21v.481h-4.476c.017 1.148.638 1.816 1.629 1.816.791 0 1.242-.398 1.382-.69l.018-.042h1.389l-.018.053c-.205.826-1.06 1.828-2.801 1.828m-.052-5.514c-.815 0-1.424.551-1.536 1.57h3.041c-.099-1.048-.691-1.57-1.505-1.57M150.156 35v-6.404h1.459v.984h.1c.217-.685.803-1.09 1.646-1.09.223 0 .451.03.592.07v1.307a3.7 3.7 0 0 0-.726-.082c-.973 0-1.612.58-1.612 1.494V35z"/><defs><clipPath id="a"><path fill="#fff" d="M31 13h36v36H31z"/></clipPath><pattern id="b" width="1" height="1" patternContentUnits="objectBoundingBox"><use xlink:href="#c" transform="scale(.00417)"/></pattern><image xlink:href="stage-1.embedded-image.png" id="c" width="240" height="240" preserveAspectRatio="none"/></defs></svg>