<svg width="60" height="60" viewBox="0 0 60 60" fill="none" xmlns="http://www.w3.org/2000/svg">
<g clip-path="url(#clip0_2434_1885)">
<path d="M38.3729 28.2191L38.3728 28.2193C37.3588 30.3462 35.6315 32.8734 33.778 34.8639C32.8518 35.8585 31.9065 36.7057 31.0163 37.3004C30.1152 37.9024 29.325 38.209 28.6962 38.209C28.1448 38.209 27.6797 37.9266 27.2449 37.326C26.8013 36.7132 26.4335 35.8246 26.0945 34.7484C25.8162 33.8651 25.5678 32.8912 25.311 31.8849C25.2563 31.6706 25.2013 31.4548 25.1455 31.2381C24.8303 30.0139 24.4926 28.7664 24.0725 27.6502L24.0722 27.6494C23.8658 27.1038 23.6594 26.6753 23.4231 26.3758C23.1746 26.061 22.8584 25.8485 22.4535 25.8387C22.0919 25.8299 21.7516 25.9893 21.4563 26.1632C21.2629 26.2771 21.0515 26.4209 20.8267 26.5784L20.468 26.1114C20.781 25.8341 21.0895 25.5564 21.3931 25.2833C22.0872 24.6588 22.7551 24.0577 23.3899 23.5386C23.893 23.1271 24.3547 22.7847 24.7666 22.5394C25.1866 22.2894 25.5119 22.1666 25.7494 22.1445L25.7494 22.1445L25.752 22.1442C26.388 22.0816 26.8525 22.2637 27.2118 22.6679C27.5949 23.0988 27.8967 23.8265 28.0638 24.9229C28.0876 25.0829 28.1121 25.2481 28.1371 25.4175C28.345 26.823 28.5952 28.5149 28.9179 29.908C29.0979 30.6856 29.3075 31.4021 29.5584 31.9338C29.6834 32.1984 29.8316 32.4459 30.0132 32.6339C30.1965 32.8235 30.4528 32.9905 30.7792 32.9905C31.0476 32.9905 31.2865 32.8603 31.461 32.7377C31.6489 32.6058 31.8381 32.4282 32.0206 32.2306C32.3871 31.8338 32.7743 31.3041 33.1288 30.7456C33.4845 30.1851 33.8169 29.5805 34.0704 29.0268C34.3163 28.4895 34.5112 27.9507 34.5528 27.5359C34.6135 26.9894 34.5522 26.5141 34.3476 26.1307C34.137 25.7361 33.8015 25.49 33.4188 25.3647C33.0026 25.2284 32.5294 25.2329 32.06 25.3215C33.2949 22.5502 35.6409 21.5477 37.2628 21.9021C38.1462 22.0952 38.8572 22.6867 39.1509 23.6846C39.4507 24.7031 39.332 26.21 38.3729 28.2191Z" fill="#E7ECF6" stroke="#7A97CE"/>
</g>
<defs>
<clipPath id="clip0_2434_1885">
<rect width="60" height="60" fill="white"/>
</clipPath>
</defs>
</svg>
