<svg width="60" height="60" viewBox="0 0 60 60" fill="none" xmlns="http://www.w3.org/2000/svg">
<g clip-path="url(#clip0_2434_3078)">
<rect width="30" height="30" transform="matrix(1 0 -0.00820296 0.999966 14.877 14.9995)" fill="white"/>
<mask id="mask0_2434_3078" style="mask-type:alpha" maskUnits="userSpaceOnUse" x="14" y="14" width="31" height="31">
<rect x="0.495899" y="0.499983" width="29" height="29" transform="matrix(1 0 -0.00820296 0.999966 14.8811 14.9995)" fill="#F8F8F8" stroke="#B8B8B8"/>
</mask>
<g mask="url(#mask0_2434_3078)">
<path d="M37.3154 25.0093C37.3051 26.2657 36.2782 27.2842 35.0218 27.2842C33.7653 27.2842 32.7551 26.2657 32.7654 25.0093C32.7758 23.7529 33.8027 22.7344 35.0591 22.7344C36.3156 22.7344 37.3258 23.7529 37.3154 25.0093Z" fill="#F8F8F8" stroke="#EAEAEA"/>
<rect x="19.1439" y="51.2593" width="16.2446" height="16.2435" rx="2.5" transform="matrix(0.712883 -0.707107 0.701283 0.707107 -30.4507 28.5503)" fill="#F8F8F8" stroke="#EAEAEA"/>
<rect x="7.72619" y="45.7212" width="16.2446" height="23.2464" rx="5.5" transform="matrix(0.712883 -0.707107 0.701283 0.707107 -29.8452 18.8547)" fill="#F8F8F8" stroke="#EAEAEA"/>
</g>
<rect x="0.495899" y="0.499983" width="29" height="29" transform="matrix(1 0 -0.00820296 0.999966 14.8811 14.9995)" stroke="#D4D4D4"/>
<path d="M19.0052 39.9988L19.0094 39.4946H19.2491C19.4089 39.4946 19.5499 39.4759 19.6719 39.4385C19.8016 39.4012 19.905 39.3265 19.982 39.2145C20.059 39.1024 20.0984 38.9344 20.1003 38.7103L20.1451 33.2427C20.1469 33.0261 20.1064 32.8655 20.0235 32.7609C19.9483 32.6563 19.8461 32.5891 19.717 32.5592C19.5955 32.5219 19.4587 32.5032 19.3065 32.5032H19.0667L19.0709 31.999H22.564L22.5599 32.5032H22.3202C22.1679 32.5032 22.027 32.5219 21.8973 32.5592C21.7676 32.5966 21.6643 32.6713 21.5873 32.7833C21.5103 32.8879 21.4709 33.0559 21.469 33.2875L21.4506 35.5283H24.9666L24.9849 33.2875C24.9868 33.0559 24.9502 32.8879 24.8749 32.7833C24.7997 32.6713 24.6976 32.5966 24.5685 32.5592C24.4471 32.5219 24.3065 32.5032 24.1466 32.5032H23.9069L23.911 31.999H27.4042L27.4001 32.5032H27.1603C27.0081 32.5032 26.8672 32.5219 26.7375 32.5592C26.6078 32.5966 26.5045 32.6713 26.4274 32.7833C26.3505 32.8879 26.311 33.0559 26.3091 33.2875L26.2642 38.7663C26.2625 38.9754 26.2993 39.1323 26.3745 39.2369C26.4574 39.3414 26.5595 39.4124 26.681 39.4498C26.8101 39.4796 26.9508 39.4946 27.103 39.4946H27.3427L27.3386 39.9988H23.8454L23.8496 39.4946H24.0893C24.2491 39.4946 24.39 39.4759 24.5121 39.4385C24.6418 39.4012 24.7452 39.3265 24.8222 39.2145C24.8992 39.1024 24.9386 38.9344 24.9405 38.7103L24.9617 36.1221H21.4457L21.4245 38.7103C21.4226 38.9344 21.4593 39.1024 21.5345 39.2145C21.6097 39.3265 21.7118 39.4012 21.8409 39.4385C21.97 39.4759 22.1106 39.4946 22.2628 39.4946H22.5025L22.4984 39.9988H19.0052Z" fill="#949494"/>
</g>
<defs>
<clipPath id="clip0_2434_3078">
<rect width="60" height="60" fill="white"/>
</clipPath>
</defs>
</svg>
