<svg width="60" height="60" viewBox="0 0 60 60" fill="none" xmlns="http://www.w3.org/2000/svg">
<g clip-path="url(#clip0_2471_1517)">
<rect x="0.495899" y="0.499983" width="4" height="4" transform="matrix(1 0 -0.00820296 0.999966 19.84 19.999)" fill="white" stroke="#C6C6C6"/>
<rect x="0.495899" y="0.499983" width="4" height="4" transform="matrix(1 0 -0.00820296 0.999966 19.717 34.999)" fill="white" stroke="#C6C6C6"/>
<rect x="0.495899" y="0.499983" width="4" height="4" transform="matrix(1 0 -0.00820296 0.999966 27.5067 19.999)" fill="white" stroke="#C6C6C6"/>
<rect x="0.495899" y="0.499983" width="4" height="4" transform="matrix(1 0 -0.00820296 0.999966 27.3837 34.999)" fill="white" stroke="#C6C6C6"/>
<rect x="0.495899" y="0.499983" width="4" height="4" transform="matrix(1 0 -0.00820296 0.999966 34.84 19.999)" fill="white" stroke="#C6C6C6"/>
<rect x="0.495899" y="0.499983" width="4" height="4" transform="matrix(1 0 -0.00820296 0.999966 34.717 34.999)" fill="white" stroke="#C6C6C6"/>
<rect width="10" height="1" transform="matrix(1 0 -0.00820296 0.999966 24.758 29.499)" fill="#7A97CE"/>
</g>
<defs>
<clipPath id="clip0_2471_1517">
<rect width="60" height="60" fill="white"/>
</clipPath>
</defs>
</svg>
