<svg width="60" height="60" viewBox="0 0 60 60" fill="none" xmlns="http://www.w3.org/2000/svg">
<g clip-path="url(#clip0_2480_3257)">
<rect width="15" height="15" transform="matrix(1 0 -0.00820296 0.999966 22.6229 5.33301)" fill="white"/>
<mask id="mask0_2480_3257" style="mask-type:alpha" maskUnits="userSpaceOnUse" x="22" y="5" width="16" height="16">
<rect x="0.495899" y="0.499983" width="14" height="14" transform="matrix(1 0 -0.00820296 0.999966 22.627 5.33302)" fill="#F8F8F8" stroke="#B8B8B8"/>
</mask>
<g mask="url(#mask0_2480_3257)">
<path d="M34.25 10.1659C34.2432 10.9943 33.5661 11.6659 32.7376 11.6659C31.9092 11.6659 31.2432 10.9943 31.25 10.1659C31.2567 9.33755 31.9338 8.666 32.7623 8.666C33.5907 8.666 34.2567 9.33755 34.25 10.1659Z" fill="#FCEDD4" stroke="#F2BC5E"/>
<rect x="26.1195" y="22.2959" width="7.62232" height="7.62174" rx="2.5" transform="matrix(0.712883 -0.707107 0.701283 0.707107 -8.13638 24.9996)" fill="#E7ECF6" stroke="#7A97CE"/>
<rect x="20.4106" y="19.5273" width="7.62232" height="11.1232" rx="2.5" transform="matrix(0.712883 -0.707107 0.701283 0.707107 -7.83395 20.1519)" fill="#E7ECF6" stroke="#7A97CE"/>
</g>
<rect x="0.495899" y="0.499983" width="14" height="14" transform="matrix(1 0 -0.00820296 0.999966 22.627 5.33302)" stroke="#7A97CE"/>
<rect width="15" height="15" transform="matrix(1 0 -0.00820296 0.999966 22.4835 22.3325)" fill="white"/>
<mask id="mask1_2480_3257" style="mask-type:alpha" maskUnits="userSpaceOnUse" x="22" y="22" width="16" height="16">
<rect x="0.495899" y="0.499983" width="14" height="14" transform="matrix(1 0 -0.00820296 0.999966 22.4876 22.3325)" fill="#F8F8F8" stroke="#B8B8B8"/>
</mask>
<g mask="url(#mask1_2480_3257)">
<path d="M35.4813 42.9153C35.4296 49.2203 30.2762 54.3316 23.971 54.3316C17.6657 54.3316 12.5963 49.2203 12.648 42.9153C12.6997 36.6103 17.853 31.499 24.1583 31.499C30.4635 31.499 35.533 36.6103 35.4813 42.9153Z" fill="#FBE8E8" stroke="#E98080"/>
<path d="M48.8119 43.2483C48.7602 49.5533 43.6068 54.6646 37.3016 54.6646C30.9963 54.6646 25.9268 49.5533 25.9785 43.2483C26.0303 36.9433 31.1836 31.832 37.4889 31.832C43.7941 31.832 48.8636 36.9433 48.8119 43.2483Z" fill="#FBE8E8" stroke="#E98080"/>
</g>
<rect x="0.495899" y="0.499983" width="14" height="14" transform="matrix(1 0 -0.00820296 0.999966 22.4876 22.3325)" stroke="#E98080"/>
<rect width="15" height="15" transform="matrix(1 0 -0.00820296 0.999966 22.344 39.332)" fill="white"/>
<mask id="mask2_2480_3257" style="mask-type:alpha" maskUnits="userSpaceOnUse" x="22" y="39" width="16" height="16">
<rect x="0.495899" y="0.499983" width="14" height="14" transform="matrix(1 0 -0.00820296 0.999966 22.3481 39.332)" fill="#F8F8F8" stroke="#B8B8B8"/>
</mask>
<g mask="url(#mask2_2480_3257)">
<path d="M31.2825 46.832C31.2757 47.6604 30.5986 48.3319 29.7702 48.3319C28.9418 48.3319 28.2757 47.6604 28.2825 46.832C28.2893 46.0036 28.9664 45.332 29.7948 45.332C30.6232 45.332 31.2893 46.0036 31.2825 46.832Z" fill="#E5F7EE" stroke="#72D1A0"/>
<rect x="0.435571" y="0.553427" width="16.4893" height="7.83288" transform="matrix(0.992627 0.113331 -0.121485 0.993523 21.6972 45.5768)" fill="#E5F7EE" stroke="#72D1A0"/>
</g>
<rect x="0.495899" y="0.499983" width="14" height="14" transform="matrix(1 0 -0.00820296 0.999966 22.3481 39.332)" stroke="#72D1A0"/>
<circle cx="12.65" cy="47.3831" r="9.45" fill="white"/>
<path d="M12.0792 47.9205C12.25 48.083 12.25 48.3496 12.0792 48.5121C11.9167 48.6746 11.65 48.6746 11.4875 48.5121C10.675 47.6996 10.675 46.3788 11.4875 45.5663L12.9625 44.0913C13.775 43.2788 15.0959 43.2788 15.9084 44.0913C16.7209 44.9038 16.7209 46.2246 15.9084 47.0371L15.2875 47.658C15.2917 47.3163 15.2375 46.9746 15.1209 46.6496L15.3167 46.4496C15.8084 45.9621 15.8084 45.1705 15.3167 44.683C14.8292 44.1913 14.0375 44.1913 13.55 44.683L12.0792 46.1538C11.5875 46.6413 11.5875 47.433 12.0792 47.9205ZM13.2542 46.1538C13.4167 45.9913 13.6834 45.9913 13.8459 46.1538C14.6584 46.9663 14.6584 48.2871 13.8459 49.0996L12.3709 50.5746C11.5584 51.3871 10.2375 51.3871 9.42505 50.5746C8.61255 49.7621 8.61255 48.4413 9.42505 47.6288L10.0459 47.008C10.0417 47.3496 10.0959 47.6913 10.2125 48.0205L10.0167 48.2163C9.52505 48.7038 9.52505 49.4955 10.0167 49.983C10.5042 50.4746 11.2959 50.4746 11.7834 49.983L13.2542 48.5121C13.7459 48.0246 13.7459 47.233 13.2542 46.7455C13.0834 46.583 13.0834 46.3163 13.2542 46.1538Z" fill="#BFBFBF"/>
</g>
<defs>
<clipPath id="clip0_2480_3257">
<rect width="60" height="60" fill="white"/>
</clipPath>
</defs>
</svg>
