<svg width="60" height="60" viewBox="0 0 60 60" fill="none" xmlns="http://www.w3.org/2000/svg">
<g clip-path="url(#clip0_2434_1473)">
<path d="M14.6937 37.332L14.7015 36.3867H15.0586C15.3387 36.3867 15.5632 36.3447 15.7319 36.2606C15.9147 36.1766 16.077 36.0225 16.2189 35.7985C16.3749 35.5604 16.5318 35.2172 16.6895 34.7691L21.4344 22.3325H23.4092L27.9468 35.1682C28.0702 35.4903 28.1942 35.7424 28.3187 35.9245C28.4574 36.0926 28.6175 36.2116 28.799 36.2816C28.9945 36.3517 29.2183 36.3867 29.4704 36.3867H29.7645L29.7568 37.332H23.6643L23.6721 36.3867H24.2393C24.6034 36.3867 24.8912 36.3096 25.1025 36.1556C25.3139 36.0015 25.4209 35.7564 25.4237 35.4203C25.4244 35.3363 25.4181 35.2523 25.4048 35.1682C25.3914 35.0842 25.3712 34.9932 25.344 34.8951C25.3168 34.7971 25.2895 34.7061 25.2622 34.622L24.4616 32.3322H19.0415L18.2889 34.433C18.246 34.545 18.21 34.664 18.181 34.7901C18.152 34.9021 18.1231 35.0142 18.0942 35.1262C18.0794 35.2242 18.0716 35.3223 18.0708 35.4203C18.0681 35.7424 18.1781 35.9875 18.4009 36.1556C18.6237 36.3096 18.9312 36.3867 19.3233 36.3867H19.9326L19.9248 37.332H14.6937ZM19.4708 31.2188H24.0716L22.8618 27.6055C22.7389 27.2133 22.609 26.8282 22.4721 26.45C22.3491 26.0719 22.2401 25.7078 22.1449 25.3576C22.0498 24.9935 21.9617 24.6434 21.8804 24.3072C21.8223 24.5593 21.7572 24.8114 21.6851 25.0635C21.6131 25.3016 21.5341 25.5467 21.448 25.7988C21.3759 26.0509 21.2897 26.317 21.1894 26.5971C21.1031 26.8632 20.9958 27.1433 20.8673 27.4374L19.4708 31.2188Z" fill="#949494"/>
<path d="M29.773 37.332L29.7808 36.3867H30.0329C30.2569 36.3867 30.4463 36.3587 30.6008 36.3026C30.7694 36.2326 30.9175 36.1136 31.0449 35.9455C31.1723 35.7774 31.2933 35.5464 31.4077 35.2523L35.3126 25.3366H37.3924L41.0497 35.3573C41.1867 35.7354 41.3595 36.0015 41.5684 36.1556C41.7912 36.3096 42.0497 36.3867 42.3438 36.3867H42.6169L42.6091 37.332H37.189L37.1967 36.3867H37.785C38.0511 36.3867 38.2616 36.3376 38.4164 36.2396C38.5714 36.1276 38.6496 35.9805 38.6511 35.7985C38.652 35.6864 38.639 35.5744 38.6119 35.4623C38.5849 35.3363 38.5509 35.2172 38.5098 35.1052L37.915 33.3406H33.4612L32.8812 34.8951C32.8239 35.0492 32.7737 35.2032 32.7304 35.3573C32.7012 35.4973 32.6861 35.6304 32.6851 35.7564C32.6836 35.9385 32.7594 36.0926 32.9124 36.2186C33.0655 36.3306 33.2892 36.3867 33.5833 36.3867H34.1505L34.1428 37.332H29.773ZM33.8475 32.3532H37.5659L36.6011 29.6012C36.4646 29.167 36.3212 28.7259 36.1708 28.2777C36.0205 27.8155 35.898 27.3814 35.8033 26.9752C35.7311 27.2413 35.6449 27.5144 35.5445 27.7945C35.4582 28.0746 35.3579 28.3547 35.2435 28.6348C35.1292 28.9149 35.0148 29.202 34.9003 29.4961L33.8475 32.3532Z" fill="#949494"/>
</g>
<defs>
<clipPath id="clip0_2434_1473">
<rect width="60" height="60" fill="white"/>
</clipPath>
</defs>
</svg>
