<svg width="60" height="60" viewBox="0 0 60 60" fill="none" xmlns="http://www.w3.org/2000/svg">
<g clip-path="url(#clip0_2471_3047)">
<rect width="10" height="10" transform="matrix(1 0 -0.00820296 0.999966 24.8934 12.9995)" fill="white"/>
<mask id="mask0_2471_3047" style="mask-type:alpha" maskUnits="userSpaceOnUse" x="24" y="12" width="11" height="11">
<rect x="0.495899" y="0.499983" width="9" height="9" transform="matrix(1 0 -0.00820296 0.999966 24.8975 12.9995)" fill="#F8F8F8" stroke="#B8B8B8"/>
</mask>
<g mask="url(#mask0_2471_3047)">
<circle r="0.833333" transform="matrix(1 0 -0.00820296 0.999966 31.6447 16.2215)" fill="#FCEDD4" stroke="#F2BC5E"/>
<rect x="27.4601" y="24.3081" width="4.74822" height="4.74783" rx="2.37401" transform="matrix(0.712883 -0.707107 0.701283 0.707107 -9.16259 26.5369)" fill="#E7ECF6" stroke="#7A97CE"/>
<rect x="23.6542" y="22.4624" width="4.74822" height="7.08213" rx="2.37401" transform="matrix(0.712883 -0.707107 0.701283 0.707107 -8.96097 23.3051)" fill="#E7ECF6" stroke="#7A97CE"/>
</g>
<rect x="0.495899" y="0.499983" width="9" height="9" transform="matrix(1 0 -0.00820296 0.999966 24.8975 12.9995)" stroke="#BBC9E6"/>
<rect width="10" height="10" transform="matrix(1 0 -0.00820296 0.999966 24.7949 24.999)" fill="white"/>
<mask id="mask1_2471_3047" style="mask-type:alpha" maskUnits="userSpaceOnUse" x="24" y="24" width="11" height="11">
<rect x="0.495899" y="0.499983" width="9" height="9" transform="matrix(1 0 -0.00820296 0.999966 24.799 24.999)" fill="#F8F8F8" stroke="#B8B8B8"/>
</mask>
<g mask="url(#mask1_2471_3047)">
<path d="M33.2934 38.7205C33.2597 42.8319 29.8994 46.1647 25.7879 46.1647C21.6765 46.1647 18.3708 42.8319 18.4046 38.7205C18.4383 34.6092 21.7986 31.2764 25.9101 31.2764C30.0215 31.2764 33.3272 34.6092 33.2934 38.7205Z" fill="#FBE8E8" stroke="#E98080"/>
<path d="M42.1805 38.9432C42.1468 43.0545 38.7865 46.3874 34.675 46.3874C30.5636 46.3874 27.2579 43.0545 27.2916 38.9432C27.3254 34.8319 30.6857 31.499 34.7972 31.499C38.9086 31.499 42.2143 34.8319 42.1805 38.9432Z" fill="#FBE8E8" stroke="#E98080"/>
</g>
<rect x="0.495899" y="0.499983" width="9" height="9" transform="matrix(1 0 -0.00820296 0.999966 24.799 24.999)" stroke="#F4BDBD"/>
<rect width="10" height="10" transform="matrix(1 0 -0.00820296 0.999966 24.6965 36.9985)" fill="white"/>
<mask id="mask2_2471_3047" style="mask-type:alpha" maskUnits="userSpaceOnUse" x="24" y="36" width="11" height="11">
<rect x="0.495899" y="0.499983" width="9" height="9" transform="matrix(1 0 -0.00820296 0.999966 24.7006 36.9986)" fill="#F8F8F8" stroke="#B8B8B8"/>
</mask>
<g mask="url(#mask2_2471_3047)">
<path d="M30.4888 41.9983C30.485 42.4585 30.1089 42.8316 29.6486 42.8316C29.1884 42.8316 28.8184 42.4585 28.8221 41.9983C28.8259 41.5381 29.2021 41.165 29.6623 41.165C30.1225 41.165 30.4926 41.5381 30.4888 41.9983Z" fill="#E5F7EE" stroke="#72D1A0"/>
<rect x="0.435571" y="0.553427" width="10.6595" height="4.88859" transform="matrix(0.992627 0.113331 -0.121485 0.993523 24.2888 41.1461)" fill="#E5F7EE" stroke="#72D1A0"/>
</g>
<rect x="0.495899" y="0.499983" width="9" height="9" transform="matrix(1 0 -0.00820296 0.999966 24.7006 36.9986)" stroke="#B6E7CE"/>
<path d="M8.07922 51.921C8.25005 52.0835 8.25005 52.3501 8.07922 52.5126C7.91672 52.6751 7.65005 52.6751 7.48755 52.5126C6.67505 51.7001 6.67505 50.3793 7.48755 49.5668L8.96255 48.0918C9.77505 47.2793 11.0959 47.2793 11.9084 48.0918C12.7209 48.9043 12.7209 50.2251 11.9084 51.0376L11.2875 51.6585C11.2917 51.3168 11.2375 50.9751 11.1209 50.6501L11.3167 50.4501C11.8084 49.9626 11.8084 49.171 11.3167 48.6835C10.8292 48.1918 10.0375 48.1918 9.55005 48.6835L8.07922 50.1543C7.58755 50.6418 7.58755 51.4335 8.07922 51.921ZM9.25422 50.1543C9.41672 49.9918 9.68338 49.9918 9.84588 50.1543C10.6584 50.9668 10.6584 52.2876 9.84588 53.1001L8.37088 54.5751C7.55838 55.3876 6.23755 55.3876 5.42505 54.5751C4.61255 53.7626 4.61255 52.4418 5.42505 51.6293L6.04588 51.0085C6.04172 51.3501 6.09588 51.6918 6.21255 52.021L6.01672 52.2168C5.52505 52.7043 5.52505 53.496 6.01672 53.9835C6.50422 54.4751 7.29588 54.4751 7.78338 53.9835L9.25422 52.5126C9.74588 52.0251 9.74588 51.2335 9.25422 50.746C9.08338 50.5835 9.08338 50.3168 9.25422 50.1543Z" fill="#6B6B6B"/>
</g>
<defs>
<clipPath id="clip0_2471_3047">
<rect width="60" height="60" fill="white"/>
</clipPath>
</defs>
</svg>
