<svg width="60" height="60" viewBox="0 0 60 60" fill="none" xmlns="http://www.w3.org/2000/svg">
<g clip-path="url(#clip0_2449_1274)">
<path d="M36.0767 24.7044L36.0833 24.7079L36.09 24.7113C36.7671 25.0508 37.4468 25.2271 37.9591 25.2944L37.9394 27.6991C37.8884 27.6943 37.8347 27.6891 37.7789 27.6833C37.3763 27.6412 36.8829 27.5715 36.4727 27.4617C35.8878 27.3043 35.4066 27.1049 35.0732 26.9457C34.9067 26.8662 34.7779 26.7972 34.6923 26.749C34.6495 26.7249 34.6176 26.706 34.5972 26.6938L34.576 26.6809L34.5601 26.67L34.4968 26.6269C34.4444 26.5912 34.3738 26.5434 34.3019 26.4948C34.2302 26.4463 34.1562 26.3966 34.0971 26.3573C34.0677 26.3378 34.0406 26.32 34.0188 26.306L34.0165 26.3044C34.0043 26.2965 33.9676 26.2728 33.9352 26.2566L33.2148 25.8953L33.2082 26.7039L33.1504 33.7419C33.1476 34.0913 33.0423 35.0076 32.7501 35.7511C32.4936 36.3972 32.1322 36.9932 31.6767 37.5111L31.6711 37.5174L31.6665 37.523L31.6663 37.5233L31.6662 37.5234L31.6661 37.5235L31.6659 37.5237L31.6658 37.5239L31.6621 37.5282C31.658 37.5331 31.6509 37.5413 31.6409 37.5526C31.621 37.5752 31.5897 37.6099 31.5473 37.6543C31.4625 37.7433 31.3341 37.8707 31.1654 38.0174C30.8269 38.3119 30.3325 38.6789 29.7089 38.9723L29.7085 38.9725C28.6673 39.4637 27.751 39.4867 27.3723 39.4963C27.3465 39.4969 27.3233 39.4975 27.3027 39.4981L27.3002 39.4982L27.3 39.4982L27.2996 39.4983L27.2993 39.4983L27.2991 39.4983H27.2988L27.2883 39.4985C27.278 39.4987 27.261 39.4989 27.238 39.4988C27.192 39.4987 27.1217 39.4973 27.0311 39.4924C26.8497 39.4826 26.5885 39.4587 26.2782 39.4018C25.6656 39.2895 24.8786 39.052 24.138 38.5568L23.3153 37.7282L23.314 37.8885C23.1014 37.683 22.9031 37.4629 22.7197 37.2283C22.2898 36.6725 22.0054 36.0001 21.9034 35.7299L21.8869 35.6765C21.7665 35.2854 21.5173 34.3991 21.5616 33.5662L21.5616 33.5661C21.6426 32.0336 22.157 31.1116 22.2778 30.9077L22.2778 30.9078L22.2821 30.9003C22.6468 30.2598 23.1052 29.6921 23.6553 29.2226C24.8108 28.261 26.2809 27.7773 27.7599 27.8581L27.74 30.2742C27.6088 30.258 27.476 30.2494 27.3425 30.2494C25.4546 30.2494 23.9277 31.7912 23.9123 33.6689C23.8968 35.5594 25.4112 37.0883 27.2864 37.0883C27.8727 37.0883 28.4393 36.9414 28.9564 36.6479C29.9502 36.0868 30.6074 35.0732 30.7025 33.9358L30.704 33.9171L30.7042 33.8983L30.7042 33.8982L30.7042 33.8982L30.7042 33.8981L30.7042 33.898L30.7042 33.898L30.7042 33.8979L30.7042 33.8979L30.7042 33.8978L30.7042 33.8977L30.7042 33.8977L30.7042 33.8976L30.7042 33.8976L30.7042 33.8975L30.7042 33.8974L30.7042 33.8974L30.7042 33.8973L30.7042 33.8973L30.7042 33.8972L30.7042 33.8972L30.7042 33.8971L30.7042 33.897L30.7042 33.897L30.7042 33.8969L30.7042 33.8969L30.7042 33.8968L30.7042 33.8968L30.7042 33.8967L30.7042 33.8967L30.7042 33.8966L30.7042 33.8965L30.7042 33.8965L30.7042 33.8964L30.7042 33.8964L30.7042 33.8963L30.7042 33.8963L30.7042 33.8962L30.7042 33.8962L30.7042 33.8961L30.7042 33.8961L30.7042 33.896L30.7042 33.896L30.7042 33.8959L30.7042 33.8959L30.7042 33.8958L30.7042 33.8958L30.7042 33.8957L30.7042 33.8957L30.7042 33.8956L30.7042 33.8956L30.7042 33.8955L30.7042 33.8955L30.7042 33.8954L30.7042 33.8954L30.7042 33.8953L30.7042 33.8953L30.7042 33.8952L30.7042 33.8952L30.7042 33.8951L30.7042 33.8951L30.7042 33.895L30.7042 33.895L30.7042 33.8949L30.7042 33.8949L30.7042 33.8948L30.7042 33.8948L30.7042 33.8947L30.7042 33.8947L30.7042 33.8946L30.7042 33.8946L30.7042 33.8946L30.7042 33.8945L30.7042 33.8945L30.7042 33.8944L30.7042 33.8944L30.7042 33.8943L30.7042 33.8943L30.7042 33.8942L30.7042 33.8942L30.7042 33.8942L30.7042 33.8941L30.7042 33.8941L30.7042 33.894L30.7042 33.894L30.7042 33.8939L30.7042 33.8939L30.7042 33.8939L30.7042 33.8938L30.7042 33.8938L30.7042 33.8937L30.7042 33.8937L30.7042 33.8936L30.7042 33.8936L30.7042 33.8936L30.7042 33.8935L30.7042 33.8935L30.7042 33.8934L30.7042 33.8934L30.7042 33.8934L30.7042 33.8933L30.7042 33.8933L30.7042 33.8932L30.7042 33.8932L30.7042 33.8932L30.7042 33.8931L30.7042 33.8931L30.7042 33.893L30.7042 33.893L30.7042 33.893L30.7042 33.8929L30.7042 33.8929L30.7042 33.8929L30.7042 33.8928L30.7042 33.8928L30.7042 33.8927L30.7042 33.8927L30.7042 33.8927L30.7042 33.8926L30.7042 33.8926L30.7042 33.8926L30.7042 33.8925L30.7042 33.8925L30.7042 33.8925L30.7042 33.8924L30.7042 33.8924L30.7042 33.8923L30.7042 33.8923L30.7042 33.8923L30.7042 33.8922L30.7042 33.8922L30.7042 33.8922L30.7042 33.8921L30.7043 33.8921L30.7043 33.8921L30.7043 33.892L30.7043 33.892L30.7043 33.892L30.7043 33.8919L30.7043 33.8919L30.7043 33.8919L30.7043 33.8918L30.7043 33.8918L30.7043 33.8918L30.7043 33.8917L30.7043 33.8917L30.7043 33.8917L30.7043 33.8917L30.7043 33.8916L30.7043 33.8916L30.7043 33.8916L30.7043 33.8915L30.7043 33.8915L30.7043 33.8915L30.7043 33.8914L30.7043 33.8914L30.7043 33.8914L30.7043 33.8914L30.7043 33.8913L30.7043 33.8913L30.7043 33.8913L30.7043 33.8912L30.7043 33.8912L30.7043 33.8912L30.7043 33.8911L30.7043 33.8911L30.7043 33.8911L30.7043 33.8911L30.7043 33.891L30.7043 33.891L30.7043 33.891L30.7043 33.891L30.7043 33.8909L30.7043 33.8909L30.7043 33.8909L30.7043 33.8908L30.7043 33.8908L30.7043 33.8908L30.7043 33.8908L30.7043 33.8907L30.7043 33.8907L30.7043 33.8907L30.7043 33.8907L30.7043 33.8906L30.7043 33.8906L30.7043 33.8906L30.7043 33.8906L30.7043 33.8905L30.7043 33.8905L30.7043 33.8905L30.7043 33.8905L30.7043 33.8904L30.7043 33.8904L30.7043 33.8904L30.7043 33.8904L30.7043 33.8903L30.7043 33.8903L30.7043 33.8903L30.7043 33.8903L30.7043 33.8903L30.7043 33.8902L30.7043 33.8902L30.7043 33.8902L30.7043 33.8902L30.7043 33.8901L30.7043 33.8901L30.7043 33.8901L30.7043 33.8901L30.7043 33.89L30.7043 33.89L30.7043 33.89L30.7043 33.89L30.7043 33.89L30.7043 33.8899L30.7043 33.8899L30.7043 33.8899L30.7043 33.8899L30.7043 33.8899L30.7043 33.8898L30.7043 33.8898L30.7043 33.8898L30.7043 33.8898L30.7043 33.8898L30.7043 33.8897L30.7043 33.8897L30.7043 33.8897L30.7043 33.8897L30.7043 33.8897L30.7043 33.8896L30.7043 33.8896L30.7043 33.8896L30.7043 33.8896L30.7043 33.8896L30.7043 33.8896L30.7043 33.8895L30.7043 33.8895L30.7043 33.8895L30.7043 33.8895L30.7043 33.8895L30.7043 33.8894L30.7043 33.8894L30.7043 33.8894L30.7043 33.8894L30.7043 33.8894L30.7043 33.8894L30.7043 33.8893L30.7043 33.8893L30.7043 33.8893L30.7043 33.8893L30.7043 33.8893L30.7043 33.8893L30.7043 33.8892L30.7043 33.8892L30.7043 33.8892L30.7043 33.8892L30.7043 33.8892L30.7043 33.8892L30.7043 33.8891L30.7043 33.8891L30.7043 33.8891L30.7043 33.8891L30.7043 33.8891L30.7043 33.8891L30.7043 33.8891L30.7043 33.889L30.7043 33.889L30.7043 33.889L30.7043 33.889L30.7043 33.889L30.7043 33.889L30.7043 33.889L30.7043 33.8889L30.7043 33.8889L30.7043 33.8889L30.7043 33.8889L30.7043 33.8889L30.7043 33.8889L30.7043 33.8889L30.7043 33.8889L30.7043 33.8888L30.7043 33.8888L30.7043 33.8888L30.7043 33.8888L30.7043 33.8888L30.7043 33.8888L30.7043 33.8888L30.7043 33.8888L30.7043 33.8887L30.7043 33.8887L30.7043 33.8887L30.7043 33.8887L30.7043 33.8887L30.7043 33.8887L30.7043 33.8887L30.7043 33.8887L30.7043 33.8886L30.7043 33.8886L30.7043 33.8886L30.7043 33.8886L30.7043 33.8886L30.7043 33.8886L30.7043 33.8886L30.7043 33.8886L30.7043 33.8886L30.7043 33.8886L30.7043 33.8885L30.7043 33.8885L30.7043 33.8885L30.7043 33.8885L30.7043 33.8885L30.7043 33.8885L30.7043 33.8885L30.7043 33.8885L30.7043 33.8885L30.7043 33.8885L30.7043 33.8884L30.7043 33.8884L30.7043 33.8884L30.7043 33.8884L30.7043 33.8884L30.7043 33.8884L30.7043 33.8884L30.7043 33.8884L30.7043 33.8884L30.7043 33.8884L30.7043 33.8884L30.7043 33.8884L30.7043 33.8883L30.7043 33.8883L30.7043 33.8883L30.7043 33.8883L30.7043 33.8883L30.7043 33.8883L30.7043 33.8883L30.7043 33.8883L30.7043 33.8883L30.7043 33.8883L30.7043 33.8882L30.7043 33.8882L30.7043 33.8882L30.7043 33.8882L30.7043 33.8882L30.7043 33.8882L30.7043 33.8882L30.7043 33.8882L30.7043 33.8881L30.7043 33.8881L30.7043 33.8881L30.7043 33.8881L30.7043 33.8881L30.7043 33.8881L30.7043 33.8881L30.7043 33.8881L30.7043 33.8881L30.7043 33.8881L30.7043 33.888L30.7043 33.888L30.7043 33.888L30.7043 33.888L30.7043 33.888L30.7043 33.888L30.7043 33.888L30.7043 33.888L30.7043 33.888L30.7043 33.888L30.7043 33.888L30.7043 33.8879L30.7043 33.8879L30.7043 33.8879L30.7043 33.8879L30.7043 33.8879L30.7043 33.8879L30.7043 33.8879L30.7043 33.8879L30.7043 33.8879L30.7043 33.8879L30.7043 33.8879L30.7043 33.8879L30.7043 33.8879L30.7043 33.8878L30.7043 33.8878L30.7043 33.8877L30.7043 33.8877L30.7043 33.8876L30.7043 33.8875L30.7043 33.8875L30.7043 33.8874L30.7043 33.8874L30.7043 33.8873L30.7043 33.8872L30.7043 33.8872L30.7043 33.8871L30.7043 33.8871L30.7043 33.887L30.7043 33.8869L30.7043 33.8869L30.7043 33.8868L30.7043 33.8867L30.7043 33.8867L30.7043 33.8866L30.7043 33.8866L30.7043 33.8865L30.7043 33.8864L30.7043 33.8864L30.7043 33.8863L30.7043 33.8863L30.7043 33.8862L30.7043 33.8861L30.7043 33.8861L30.7043 33.886L30.7043 33.886L30.7043 33.8859L30.7043 33.8858L30.7043 33.8858L30.7043 33.8857L30.7043 33.8856L30.7043 33.8856L30.7043 33.8855L30.7043 33.8855L30.7043 33.8854L30.7043 33.8853L30.7043 33.8853L30.7043 33.8852L30.7043 33.8852L30.7043 33.8851L30.7043 33.885L30.7043 33.885L30.7043 33.8849L30.7043 33.8849L30.7043 33.8848L30.7043 33.8847L30.7043 33.8847L30.7043 33.8846L30.7043 33.8845L30.7043 33.8845L30.7043 33.8844L30.7043 33.8844L30.7043 33.8843L30.7043 33.8842L30.7043 33.8842L30.7043 33.8841L30.7043 33.8841L30.7043 33.884L30.7043 33.8839L30.7043 33.8839L30.7043 33.8838L30.7043 33.8838L30.7043 33.8837L30.7043 33.8836L30.7043 33.8836L30.7043 33.8835L30.7043 33.8834L30.7043 33.8834L30.7043 33.8833L30.7043 33.8833L30.7043 33.8832L30.7043 33.8831L30.7043 33.8831L30.7043 33.883L30.7043 33.883L30.7043 33.8829L30.7043 33.8828L30.7043 33.8828L30.7043 33.8827L30.7043 33.8827L30.7043 33.8826L30.7043 33.8825L30.7043 33.8825L30.7043 33.8824L30.7043 33.8823L30.7043 33.8823L30.7043 33.8822L30.7043 33.8822L30.7043 33.8821L30.7043 33.882L30.7043 33.882L30.7043 33.8819L30.7043 33.8819L30.7043 33.8818L30.7043 33.8817L30.7043 33.8817L30.7043 33.8816L30.7043 33.8816L30.7043 33.8815L30.7043 33.8814L30.7043 33.8814L30.7043 33.8813L30.7043 33.8812L30.7043 33.8812L30.7043 33.8811L30.7043 33.8811L30.7043 33.881L30.7043 33.8809L30.7043 33.8809L30.7043 33.8808L30.7043 33.8808L30.7043 33.8807L30.7043 33.8806L30.7043 33.8806L30.7043 33.8805L30.7043 33.8805L30.7043 33.8804L30.7043 33.8803L30.7043 33.8803L30.7043 33.8802L30.7043 33.8801L30.7043 33.8801L30.7043 33.88L30.7043 33.88L30.7044 33.8799L30.7044 33.8798L30.7044 33.8798L30.7044 33.8797L30.7044 33.8797L30.7044 33.8796L30.7044 33.8795L30.7044 33.8795L30.7044 33.8794L30.7044 33.8794L30.7044 33.8793L30.7044 33.8792L30.7044 33.8792L30.7044 33.8791L30.7044 33.879L30.7044 33.879L30.7044 33.8789L30.7044 33.8789L30.7044 33.8788L30.7044 33.8787L30.7044 33.8787L30.7044 33.8786L30.7044 33.8786L30.7044 33.8785L30.7044 33.8784L30.7044 33.8784L30.7044 33.8783L30.7044 33.8783L30.7044 33.8782L30.7044 33.8781L30.7044 33.8781L30.7044 33.878L30.7044 33.8779L30.7044 33.8779L30.7044 33.8778L30.7044 33.8778L30.7044 33.8777L30.7044 33.8776L30.7044 33.8776L30.7044 33.8775L30.7044 33.8775L30.7044 33.8774L30.7044 33.8773L30.7044 33.8773L30.7044 33.8772L30.7044 33.8772L30.7044 33.8771L30.7044 33.877L30.7044 33.877L30.7044 33.8769L30.7044 33.8768L30.7044 33.8768L30.7044 33.8767L30.7044 33.8767L30.7044 33.8766L30.7044 33.8765L30.7044 33.8765L30.7044 33.8764L30.7044 33.8764L30.7044 33.8763L30.7044 33.8762L30.7044 33.8762L30.7044 33.8761L30.7044 33.8761L30.7044 33.876L30.7044 33.8759L30.7044 33.8759L30.7044 33.8758L30.7044 33.8757L30.7044 33.8757L30.7044 33.8756L30.7044 33.8756L30.7044 33.8755L30.7044 33.8754L30.7044 33.8754L30.7044 33.8753L30.7044 33.8753L30.7044 33.8752L30.7044 33.8751L30.7044 33.8751L30.7044 33.875L30.7044 33.875L30.7044 33.8749L30.7044 33.8748L30.7044 33.8748L30.7044 33.8747L30.7044 33.8746L30.7044 33.8746L30.7044 33.8745L30.7044 33.8745L30.7044 33.8744L30.7044 33.8743L30.7044 33.8743L30.7044 33.8742L30.7044 33.8742L30.7044 33.8741L30.7044 33.874L30.7044 33.874L30.7044 33.8739L30.7044 33.8739L30.7044 33.8738L30.7044 33.8737L30.7044 33.8737L30.7044 33.8736L30.7044 33.8735L30.7044 33.8735L30.7044 33.8734L30.7044 33.8734L30.7044 33.8733L30.7044 33.8732L30.7044 33.8732L30.7044 33.8731L30.7044 33.8731L30.7044 33.873L30.7044 33.8729L30.7044 33.8729L30.7044 33.8728L30.7044 33.8728L30.7044 33.8727L30.7044 33.8726L30.7044 33.8726L30.7044 33.8725L30.7044 33.8724L30.7044 33.8724L30.7044 33.8723L30.7044 33.8723L30.7044 33.8722L30.7044 33.8721L30.7044 33.8721L30.7044 33.872L30.7044 33.872L30.7044 33.8719L30.7044 33.8718L30.7044 33.8718L30.7044 33.8717L30.7044 33.8717L30.7044 33.8716L30.7044 33.8715L30.7044 33.8715L30.7044 33.8714L30.7044 33.8714L30.7044 33.8713L30.7044 33.8712L30.7044 33.8712L30.7044 33.8711L30.7044 33.871L30.7044 33.871L30.7044 33.8709L30.7044 33.8709L30.7044 33.8708L30.7044 33.8707L30.7044 33.8707L30.7044 33.8706L30.7044 33.8706L30.7044 33.8705L30.7044 33.8704L30.7044 33.8704L30.7044 33.8703L30.7044 33.8703L30.7044 33.8702L30.7044 33.8701L30.7044 33.8701L30.7044 33.87L30.7044 33.8699L30.7044 33.8699L30.7044 33.8698L30.7044 33.8698L30.7044 33.8697L30.7044 33.8696L30.7044 33.8696L30.7044 33.8695L30.7044 33.8695L30.7044 33.8694L30.7044 33.8693L30.7044 33.8693L30.7044 33.8692L30.7044 33.8692L30.7044 33.8691L30.7044 33.869L30.7044 33.869L30.7044 33.8689L30.7044 33.8688L30.7044 33.8688L30.7044 33.8687L30.7044 33.8687L30.7044 33.8686L30.7044 33.8685L30.7044 33.8685L30.7044 33.8684L30.7044 33.8684L30.7044 33.8683L30.7044 33.8682L30.7044 33.8682L30.7044 33.8681L30.7044 33.8681L30.7044 33.868L30.7044 33.8679L30.7044 33.8679L30.7044 33.8678L30.7045 33.8677L30.7045 33.8677L30.7045 33.8676L30.7045 33.8676L30.7045 33.8675L30.7045 33.8674L30.7045 33.8674L30.7045 33.8673L30.7045 33.8673L30.7045 33.8672L30.7045 33.8671L30.7045 33.8671L30.7045 33.867L30.7045 33.867L30.7045 33.8669L30.7045 33.8668L30.7045 33.8668L30.7045 33.8667L30.7045 33.8666L30.7045 33.8666L30.7045 33.8665L30.7045 33.8665L30.7045 33.8664L30.7045 33.8663L30.7045 33.8663L30.7045 33.8662L30.7045 33.8662L30.7045 33.8661L30.7045 33.866L30.7045 33.866L30.7045 33.8659L30.7045 33.8659L30.7045 33.8658L30.7045 33.8657L30.7045 33.8657L30.7045 33.8656L30.7045 33.8655L30.7045 33.8655L30.7045 33.8654L30.7045 33.8654L30.7045 33.8653L30.7045 33.8652L30.7045 33.8652L30.7045 33.8651L30.7045 33.8651L30.7045 33.865L30.7045 33.8649L30.7045 33.8649L30.7045 33.8648L30.7045 33.8648L30.7045 33.8647L30.7045 33.8646L30.7045 33.8646L30.7045 33.8645L30.7045 33.8644L30.7045 33.8644L30.7045 33.8643L30.7045 33.8643L30.7045 33.8642L30.7045 33.8641L30.7045 33.8641L30.7045 33.864L30.7045 33.864L30.7045 33.8639L30.7045 33.8638L30.7045 33.8638L30.7045 33.8637L30.7045 33.8637L30.7045 33.8636L30.7045 33.8635L30.7045 33.8635L30.7045 33.8634L30.7045 33.8633L30.7045 33.8633L30.7045 33.8632L30.7045 33.8632L30.7045 33.8631L30.7045 33.863L30.7045 33.863L30.7045 33.8629L30.7045 33.8629L30.7045 33.8628L30.7045 33.8627L30.7045 33.8627L30.7045 33.8626L30.7045 33.8626L30.7045 33.8625L30.7045 33.8624L30.7045 33.8624L30.7045 33.8623L30.7045 33.8622L30.7045 33.8622L30.7045 33.8621L30.7045 33.8621L30.7045 33.862L30.7045 33.8619L30.7045 33.8619L30.7045 33.8618L30.7045 33.8618L30.7045 33.8617L30.7045 33.8616L30.7045 33.8616L30.7045 33.8615L30.7045 33.8615L30.7045 33.8614L30.7045 33.8613L30.7045 33.8613L30.7045 33.8612L30.7045 33.8611L30.7045 33.8611L30.7045 33.861L30.7045 33.861L30.7045 33.8609L30.7045 33.8608L30.7045 33.8608L30.7045 33.8607L30.7045 33.8607L30.7045 33.8606L30.7045 33.8605L30.7045 33.8605L30.7045 33.8604L30.7045 33.8604L30.7045 33.8603L30.7045 33.8602L30.7045 33.8602L30.7045 33.8601L30.7045 33.86L30.7045 33.86L30.7045 33.8599L30.7045 33.8599L30.7045 33.8598L30.7045 33.8597L30.7045 33.8597L30.7045 33.8596L30.7045 33.8596L30.7045 33.8595L30.7045 33.8594L30.7045 33.8594L30.7045 33.8593L30.7045 33.8593L30.7045 33.8592L30.7045 33.8591L30.7045 33.8591L30.7045 33.859L30.7045 33.8589L30.7045 33.8589L30.7045 33.8588L30.7045 33.8588L30.7045 33.8587L30.7045 33.8586L30.7045 33.8586L30.7045 33.8585L30.7045 33.8585L30.7045 33.8584L30.7045 33.8583L30.7045 33.8583L30.7045 33.8582L30.7045 33.8582L30.7045 33.8581L30.7045 33.858L30.7045 33.858L30.7045 33.8579L30.7045 33.8578L30.7045 33.8578L30.7045 33.8577L30.7045 33.8577L30.7045 33.8576L30.7045 33.8575L30.7045 33.8575L30.7045 33.8574L30.7045 33.8574L30.7045 33.8573L30.7045 33.8572L30.7045 33.8572L30.7045 33.8571L30.7045 33.8571L30.7045 33.857L30.7045 33.8569L30.7045 33.8569L30.7045 33.8568L30.7045 33.8567L30.7045 33.8567L30.7045 33.8566L30.7045 33.8566L30.7045 33.8564L30.7045 33.8563L30.7045 33.8562L30.7045 33.8561L30.7045 33.856L30.7045 33.8558L30.7045 33.8557L30.7045 33.8556L30.7046 33.8555L30.7046 33.8553L30.7046 33.8552L30.7046 33.8551L30.7046 33.855L30.7046 33.8549L30.7046 33.8547L30.7046 33.8546L30.7046 33.8545L30.7046 33.8544L30.7046 33.8542L30.7046 33.8541L30.7046 33.854L30.7046 33.8539L30.7046 33.8538L30.7046 33.8536L30.7046 33.8535L30.7046 33.8534L30.7046 33.8533L30.7046 33.8531L30.7046 33.853L30.7046 33.8529L30.7046 33.8528L30.7046 33.8527L30.7046 33.8525L30.7046 33.8524L30.7046 33.8523L30.7046 33.8522L30.7046 33.852L30.7046 33.8519L30.7046 33.8518L30.7046 33.8517L30.7046 33.8516L30.7046 33.8514L30.7046 33.8513L30.7046 33.8512L30.7046 33.8511L30.7046 33.8509L30.7046 33.8508L30.7046 33.8507L30.7046 33.8506L30.7046 33.8505L30.7046 33.8503L30.7046 33.8502L30.7046 33.8501L30.7046 33.85L30.7046 33.8498L30.7046 33.8497L30.7046 33.8496L30.7046 33.8495L30.7046 33.8494L30.7046 33.8492L30.7046 33.8491L30.7046 33.849L30.7046 33.8489L30.7046 33.8487L30.7046 33.8486L30.7046 33.8485L30.7046 33.8484L30.7046 33.8483L30.7046 33.8481L30.7046 33.848L30.7046 33.8479L30.7046 33.8478L30.7046 33.8476L30.7046 33.8475L30.7046 33.8474L30.7046 33.8473L30.7046 33.8472L30.7046 33.847L30.7046 33.8469L30.7046 33.8468L30.7046 33.8467L30.7046 33.8465L30.7046 33.8464L30.7046 33.8463L30.7046 33.8462L30.7046 33.8461L30.7046 33.8459L30.7046 33.8458L30.7046 33.8457L30.7046 33.8456L30.7046 33.8454L30.7046 33.8453L30.7046 33.8452L30.7046 33.8451L30.7046 33.845L30.7046 33.8448L30.7046 33.8447L30.7046 33.8446L30.7046 33.8445L30.7046 33.8443L30.7046 33.8442L30.7046 33.8441L30.7046 33.844L30.7046 33.8439L30.7046 33.8437L30.7046 33.8436L30.7046 33.8435L30.7047 33.8434L30.7047 33.8432L30.7047 33.8431L30.7047 33.843L30.7047 33.8429L30.7047 33.8428L30.7047 33.8426L30.7047 33.8425L30.7047 33.8424L30.7047 33.8423L30.7047 33.8421L30.7047 33.842L30.7047 33.8419L30.7047 33.8418L30.7047 33.8417L30.7047 33.8415L30.7047 33.8414L30.7047 33.8413L30.7047 33.8412L30.7047 33.841L30.7047 33.8409L30.7047 33.8408L30.7047 33.8407L30.7047 33.8406L30.7047 33.8404L30.7047 33.8403L30.7047 33.8402L30.7047 33.8401L30.7047 33.8399L30.7047 33.8398L30.7047 33.8397L30.7047 33.8396L30.7047 33.8395L30.7047 33.8393L30.7047 33.8392L30.7047 33.8391L30.7047 33.839L30.7047 33.8388L30.7047 33.8387L30.7047 33.8386L30.7047 33.8385L30.7047 33.8384L30.7047 33.8382L30.7047 33.8381L30.7047 33.838L30.7047 33.8379L30.7047 33.8377L30.7047 33.8376L30.7047 33.8375L30.7047 33.8374L30.7047 33.8373L30.7047 33.8371L30.7047 33.837L30.7047 33.8369L30.7047 33.8368L30.7047 33.8366L30.7047 33.8365L30.7047 33.8364L30.7047 33.8363L30.7047 33.8362L30.7047 33.836L30.7047 33.8359L30.7047 33.8358L30.7047 33.8357L30.7047 33.8355L30.7047 33.8354L30.7047 33.8353L30.7047 33.8352L30.7047 33.8351L30.7047 33.8349L30.7047 33.8348L30.7047 33.8347L30.7047 33.8346L30.7047 33.8345L30.7047 33.8343L30.7047 33.8342L30.7047 33.8341L30.7047 33.834L30.7047 33.8338L30.7047 33.8337L30.7047 33.8336L30.7047 33.8335L30.7047 33.8334L30.7047 33.8332L30.7047 33.8331L30.7047 33.833L30.7047 33.8329L30.7047 33.8327L30.7047 33.8326L30.7047 33.8325L30.7047 33.8324L30.7047 33.8323L30.7047 33.8321L30.7047 33.832L30.7047 33.8319L30.7047 33.8318L30.7047 33.8316L30.7047 33.8315L30.7047 33.8314L30.7047 33.8313L30.7048 33.8312L30.7048 33.831L30.7048 33.8309L30.7048 33.8308L30.7048 33.8307L30.7048 33.8305L30.7048 33.8304L30.7048 33.8303L30.7048 33.8302L30.7048 33.8301L30.7048 33.8299L30.7048 33.8298L30.7048 33.8297L30.7048 33.8296L30.7048 33.8294L30.7048 33.8293L30.7048 33.8292L30.7048 33.8291L30.7048 33.829L30.7048 33.8288L30.7048 33.8287L30.7048 33.8286L30.7048 33.8285L30.7048 33.8283L30.7048 33.8282L30.7048 33.8281L30.7048 33.828L30.7048 33.8279L30.7048 33.8277L30.7048 33.8276L30.7048 33.8275L30.7048 33.8274L30.7048 33.8272L30.7048 33.8271L30.7048 33.827L30.7048 33.8269L30.7048 33.8268L30.7048 33.8266L30.7048 33.8265L30.7048 33.8264L30.7048 33.8263L30.7048 33.8261L30.7048 33.826L30.7048 33.8259L30.7048 33.8258L30.7048 33.8257L30.7048 33.8255L30.7048 33.8254L30.7048 33.8253L30.7048 33.8252L30.7048 33.825L30.7048 33.8249L30.7048 33.8248L30.7048 33.8247L30.7048 33.8246L30.7048 33.8244L30.7048 33.8243L30.7048 33.8242L30.7048 33.8241L30.7048 33.8239L30.7048 33.8238L30.7048 33.8237L30.7048 33.8236L30.7048 33.8235L30.7048 33.8233L30.7048 33.8232L30.7048 33.8231L30.7048 33.823L30.7048 33.8228L30.7048 33.8227L30.7048 33.8226L30.7048 33.8225L30.7048 33.8224L30.7048 33.8222L30.7048 33.8221L30.7048 33.822L30.7048 33.8219L30.7048 33.8217L30.7048 33.8216L30.7048 33.8215L30.7048 33.8214L30.7048 33.8213L30.7048 33.8211L30.7048 33.821L30.7048 33.8209L30.7048 33.8208L30.7048 33.8206L30.7048 33.8205L30.7048 33.8204L30.7048 33.8203L30.7048 33.8202L30.7048 33.82L30.7048 33.8199L30.7048 33.8198L30.7048 33.8197L30.7048 33.8195L30.7048 33.8194L30.7048 33.8193L30.7048 33.8192L30.7048 33.8191L30.7049 33.8189L30.7049 33.8188L30.7049 33.8187L30.7049 33.8186L30.7049 33.8184L30.7049 33.8183L30.7049 33.8182L30.7049 33.8181L30.7049 33.818L30.7049 33.8178L30.7049 33.8177L30.7049 33.8176L30.7049 33.8175L30.7049 33.8173L30.7049 33.8172L30.7049 33.8171L30.7049 33.817L30.7049 33.8169L30.7049 33.8167L30.7049 33.8166L30.7049 33.8165L30.7049 33.8164L30.7049 33.8162L30.7049 33.8161L30.7049 33.816L30.7049 33.8159L30.7049 33.8158L30.7049 33.8156L30.7049 33.8155L30.7049 33.8154L30.7049 33.8153L30.7049 33.8151L30.7049 33.815L30.7049 33.8149L30.7049 33.8148L30.7049 33.8147L30.7049 33.8145L30.7049 33.8144L30.7049 33.8143L30.7049 33.8142L30.7049 33.814L30.7049 33.8139L30.7049 33.8138L30.7049 33.8137L30.7049 33.8136L30.7049 33.8134L30.7049 33.8133L30.7049 33.8132L30.7049 33.8131L30.7049 33.8129L30.7049 33.8128L30.7049 33.8127L30.7049 33.8126L30.7049 33.8125L30.7049 33.8123L30.7049 33.8122L30.7049 33.8121L30.7049 33.812L30.7049 33.8118L30.7049 33.8117L30.7049 33.8116L30.7049 33.8115L30.7049 33.8114L30.7049 33.8112L30.7049 33.8111L30.7049 33.811L30.7049 33.8109L30.7049 33.8107L30.7049 33.8106L30.7049 33.8105L30.7049 33.8104L30.7049 33.8103L30.7049 33.8101L30.7049 33.81L30.7049 33.8099L30.7049 33.8098L30.7049 33.8096L30.7049 33.8095L30.7049 33.8094L30.7049 33.8093L30.7049 33.8092L30.7049 33.809L30.7049 33.8089L30.7049 33.8088L30.7049 33.8087L30.7049 33.8085L30.7049 33.8084L30.7049 33.8083C30.7169 33.6215 30.7184 33.4372 30.7198 33.2686L30.7199 33.2622L30.8246 20.4995H33.2569C33.2654 20.6219 33.2802 20.7611 33.304 20.9143L33.3039 20.9143L33.3047 20.9187C33.4156 21.5933 33.7208 22.5593 34.5365 23.5075L34.5426 23.5146L34.549 23.5214C34.8745 23.8721 35.2461 24.1895 35.6431 24.4517C35.787 24.5479 35.939 24.63 36.0681 24.6997L36.0767 24.7044Z" fill="#FBE8E8" stroke="#E98080"/>
</g>
<defs>
<clipPath id="clip0_2449_1274">
<rect width="60" height="60" fill="white"/>
</clipPath>
</defs>
</svg>
