<svg width="60" height="60" viewBox="0 0 60 60" fill="none" xmlns="http://www.w3.org/2000/svg">
<g clip-path="url(#clip0_2480_2261)">
<mask id="path-1-inside-1_2480_2261" fill="white">
<path fill-rule="evenodd" clip-rule="evenodd" d="M31.2353 36.455C30.402 36.9953 29.3704 37.2654 28.1407 37.2654H25.7906L25.9097 22.7467H28.3828C29.2664 22.7467 30.044 22.8932 30.7157 23.1862C31.3964 23.4792 31.9668 23.9096 32.4267 24.4774C32.8957 25.0451 33.2452 25.7457 33.4752 26.579C33.7143 27.4123 33.8294 28.3692 33.8206 29.4497L33.8117 30.5349C33.8003 31.9268 33.5763 33.1264 33.14 34.1337C32.7127 35.1409 32.0778 35.9147 31.2353 36.455ZM25.9322 19.9995H28.4053C29.7261 19.9995 30.9312 20.2239 32.0207 20.6726C33.1101 21.1121 34.0477 21.7485 34.8334 22.5818C35.6281 23.4151 36.2348 24.4133 36.6534 25.5762C37.072 26.7392 37.2754 28.0395 37.2636 29.4772L37.2549 30.5349C37.2431 31.9726 37.0184 33.2729 36.5807 34.4358C36.1431 35.5988 35.52 36.5969 34.7116 37.4302C33.9032 38.2544 32.9415 38.8908 31.8265 39.3395C30.7207 39.7791 29.4846 39.9988 28.1183 39.9988H25.7681H23.8689H22.3386L22.5026 19.9995H23.951H25.9322Z"/>
</mask>
<path fill-rule="evenodd" clip-rule="evenodd" d="M31.2353 36.455C30.402 36.9953 29.3704 37.2654 28.1407 37.2654H25.7906L25.9097 22.7467H28.3828C29.2664 22.7467 30.044 22.8932 30.7157 23.1862C31.3964 23.4792 31.9668 23.9096 32.4267 24.4774C32.8957 25.0451 33.2452 25.7457 33.4752 26.579C33.7143 27.4123 33.8294 28.3692 33.8206 29.4497L33.8117 30.5349C33.8003 31.9268 33.5763 33.1264 33.14 34.1337C32.7127 35.1409 32.0778 35.9147 31.2353 36.455ZM25.9322 19.9995H28.4053C29.7261 19.9995 30.9312 20.2239 32.0207 20.6726C33.1101 21.1121 34.0477 21.7485 34.8334 22.5818C35.6281 23.4151 36.2348 24.4133 36.6534 25.5762C37.072 26.7392 37.2754 28.0395 37.2636 29.4772L37.2549 30.5349C37.2431 31.9726 37.0184 33.2729 36.5807 34.4358C36.1431 35.5988 35.52 36.5969 34.7116 37.4302C33.9032 38.2544 32.9415 38.8908 31.8265 39.3395C30.7207 39.7791 29.4846 39.9988 28.1183 39.9988H25.7681H23.8689H22.3386L22.5026 19.9995H23.951H25.9322Z" fill="#EAEAEA"/>
<path d="M31.2353 36.455L30.7004 35.6146L30.6962 35.6173L31.2353 36.455ZM25.7906 37.2654L24.7906 37.2654L24.7824 38.2654H25.7824L25.7906 37.2654ZM25.9097 22.7467L25.9179 21.7467H24.9179L24.9097 22.7467L25.9097 22.7467ZM30.7157 23.1862L30.3094 24.1033L30.3139 24.1052L30.7157 23.1862ZM32.4267 24.4774L31.6475 25.1107L31.6536 25.118L32.4267 24.4774ZM33.4752 26.579L32.511 26.8523L32.5138 26.862L33.4752 26.579ZM33.14 34.1337L32.2228 33.7425L32.2198 33.7496L33.14 34.1337ZM32.0207 20.6726L31.6333 21.5976L31.64 21.6003L32.0207 20.6726ZM34.8334 22.5818L34.1031 23.271L34.107 23.2751L34.8334 22.5818ZM34.7116 37.4302L35.4227 38.1275L35.4266 38.1235L34.7116 37.4302ZM31.8265 39.3395L32.1894 40.2684L32.1933 40.2668L31.8265 39.3395ZM22.3386 39.9988H21.3386L21.3304 40.9988H22.3304L22.3386 39.9988ZM22.5026 19.9995L22.5108 18.9995H21.5108L21.5026 19.9995H22.5026ZM28.1325 38.2654C29.509 38.2654 30.7422 37.962 31.7745 37.2927L30.6962 35.6173C30.0617 36.0286 29.2319 36.2654 28.1489 36.2654L28.1325 38.2654ZM25.7824 38.2654H28.1325L28.1489 36.2654H25.7988L25.7824 38.2654ZM24.9097 22.7467L24.7906 37.2654L26.7906 37.2654L26.9097 22.7467L24.9097 22.7467ZM28.391 21.7467H25.9179L25.9015 23.7466H28.3746L28.391 21.7467ZM31.1219 22.2692C30.3022 21.9116 29.3846 21.7467 28.391 21.7467L28.3746 23.7466C29.1482 23.7466 29.7858 23.8748 30.3094 24.1033L31.1219 22.2692ZM33.2058 23.8441C32.6438 23.1503 31.9433 22.6227 31.1174 22.2672L30.3139 24.1052C30.8496 24.3358 31.2898 24.669 31.6476 25.1106L33.2058 23.8441ZM34.4394 26.3056C34.1785 25.3605 33.7715 24.5289 33.1998 23.8368L31.6536 25.118C32.0199 25.5614 32.3119 26.1308 32.5111 26.8523L34.4394 26.3056ZM34.8206 29.4497C34.83 28.2957 34.7076 27.2403 34.4366 26.2959L32.5138 26.862C32.721 27.5842 32.8288 28.4427 32.8206 29.4497H34.8206ZM34.8117 30.5349L34.8206 29.4497H32.8206L32.8117 30.5349H34.8117ZM34.0571 34.5248C34.5595 33.3651 34.7994 32.0261 34.8117 30.5349H32.8117C32.8011 31.8275 32.5932 32.8876 32.2228 33.7425L34.0571 34.5248ZM31.7703 37.2954C32.8003 36.6349 33.5612 35.6938 34.0601 34.5177L32.2198 33.7496C31.8641 34.5881 31.3553 35.1946 30.7004 35.6146L31.7703 37.2954ZM25.924 20.9995H28.3971L28.4135 18.9995H25.9404L25.924 20.9995ZM28.3971 20.9995C29.603 20.9995 30.6774 21.2039 31.6333 21.5976L32.408 19.7475C31.1851 19.2438 29.8493 18.9995 28.4135 18.9995L28.3971 20.9995ZM31.64 21.6003C32.6003 21.9878 33.4177 22.544 34.1031 23.2709L35.5637 21.8927C34.6777 20.953 33.62 20.2365 32.4014 19.7448L31.64 21.6003ZM34.107 23.2751C34.8 24.0017 35.3368 24.879 35.7121 25.9217L37.5947 25.2308C37.1328 23.9476 36.4562 22.8286 35.5598 21.8886L34.107 23.2751ZM35.7121 25.9217C36.0851 26.9579 36.2746 28.1389 36.2636 29.4772H38.2636C38.2762 27.9402 38.0589 26.5205 37.5947 25.2308L35.7121 25.9217ZM36.2636 29.4772L36.2549 30.5349H38.2549L38.2636 29.4772H36.2636ZM36.2549 30.5349C36.2439 31.8732 36.0351 33.0542 35.6451 34.0904L37.5163 34.7813C38.0017 33.4915 38.2423 32.0719 38.2549 30.5349H36.2549ZM35.6451 34.0904C35.2527 35.1331 34.7015 36.0104 33.9966 36.737L35.4266 38.1235C36.3385 37.1835 37.0334 36.0645 37.5163 34.7813L35.6451 34.0904ZM34.0004 36.733C33.294 37.4533 32.451 38.0134 31.4597 38.4123L32.1933 40.2668C33.432 39.7683 34.5125 39.0555 35.4227 38.1274L34.0004 36.733ZM31.4637 38.4107C30.4927 38.7967 29.385 38.9989 28.1265 38.9989L28.1101 40.9988C29.5843 40.9988 30.9488 40.7615 32.1893 40.2684L31.4637 38.4107ZM28.1265 38.9989H25.7763L25.7599 40.9988H28.1101L28.1265 38.9989ZM25.7763 38.9989H23.8771L23.8607 40.9988H25.7599L25.7763 38.9989ZM23.8771 38.9989H22.3468L22.3304 40.9988H23.8607L23.8771 38.9989ZM23.3386 39.9988L23.5026 19.9995H21.5026L21.3386 39.9988H23.3386ZM22.4944 20.9995H23.9428L23.9592 18.9995H22.5108L22.4944 20.9995ZM23.9428 20.9995H25.924L25.9404 18.9995H23.9592L23.9428 20.9995Z" fill="#BFBFBF" mask="url(#path-1-inside-1_2480_2261)"/>
</g>
<defs>
<clipPath id="clip0_2480_2261">
<rect width="60" height="60" fill="white"/>
</clipPath>
</defs>
</svg>
