<svg width="60" height="60" viewBox="0 0 60 60" fill="none" xmlns="http://www.w3.org/2000/svg">
<g clip-path="url(#clip0_2471_1980)">
<path d="M27.0271 37.332L27.0344 36.4474H27.2776C27.527 36.4474 27.7642 36.4212 27.9891 36.3687C28.2141 36.3032 28.396 36.1787 28.5347 35.9952C28.6859 35.7986 28.7631 35.5169 28.7661 35.1499L28.8167 28.9771C28.8198 28.5971 28.7473 28.3153 28.5992 28.1318C28.4635 27.9483 28.2836 27.8304 28.0596 27.7779C27.8356 27.7124 27.5989 27.6797 27.3495 27.6797H27.2559L27.2632 26.795H30.8924L30.8246 35.0713C30.8213 35.4644 30.8875 35.7593 31.0231 35.9559C31.1587 36.1525 31.3384 36.2836 31.5624 36.3491C31.7988 36.4146 32.0417 36.4474 32.2912 36.4474H32.5344L32.5271 37.332H27.0271ZM29.8044 24.8881C29.4551 24.8881 29.1629 24.7898 28.9275 24.5933C28.7046 24.3967 28.5951 24.069 28.5988 23.6103C28.6027 23.1385 28.7239 22.8109 28.9624 22.6274C29.2009 22.4308 29.4886 22.3325 29.8253 22.3325C30.1496 22.3325 30.4294 22.4308 30.6647 22.6274C30.9127 22.8109 31.0347 23.1385 31.0308 23.6103C31.0271 24.069 30.8997 24.3967 30.6486 24.5933C30.41 24.7898 30.1286 24.8881 29.8044 24.8881Z" fill="#C6C6C6"/>
</g>
<defs>
<clipPath id="clip0_2471_1980">
<rect width="60" height="60" fill="white"/>
</clipPath>
</defs>
</svg>
