<svg width="60" height="60" viewBox="0 0 60 60" fill="none" xmlns="http://www.w3.org/2000/svg">
<g clip-path="url(#clip0_2434_2635)">
<rect width="15" height="2" transform="matrix(1 0 -0.00820296 0.999966 5.42059 29.999)" fill="#D4D4D4"/>
<rect width="15" height="2" transform="matrix(1 0 -0.00820296 0.999966 5.38776 33.999)" fill="#D4D4D4"/>
<rect width="15" height="2" transform="matrix(1 0 -0.00820296 0.999966 5.35498 37.9985)" fill="#D4D4D4"/>
<path d="M5.437 27.9992L5.44114 27.4951H5.68086C5.84068 27.4951 5.98162 27.4764 6.1037 27.439C6.23338 27.4017 6.33673 27.327 6.41375 27.215C6.49078 27.1029 6.53021 26.9349 6.53205 26.7108L6.5769 21.2432C6.57867 21.0266 6.53813 20.866 6.45528 20.7614C6.38003 20.6568 6.27784 20.5896 6.14871 20.5597C6.02725 20.5224 5.89042 20.5037 5.73821 20.5037H5.49849L5.50262 19.9995H8.99578L8.99164 20.5037H8.75191C8.59971 20.5037 8.45876 20.5224 8.32908 20.5597C8.1994 20.5971 8.09604 20.6718 8.01902 20.7838C7.94206 20.8884 7.90263 21.0564 7.90073 21.288L7.88235 23.5288H11.3983L11.4167 21.288C11.4186 21.0564 11.3819 20.8884 11.3067 20.7838C11.2315 20.6718 11.1294 20.5971 11.0003 20.5597C10.8789 20.5224 10.7382 20.5037 10.5784 20.5037H10.3387L10.3428 19.9995H13.836L13.8318 20.5037H13.5921C13.4399 20.5037 13.2989 20.5224 13.1693 20.5597C13.0396 20.5971 12.9362 20.6718 12.8592 20.7838C12.7822 20.8884 12.7428 21.0564 12.7409 21.288L12.696 26.7668C12.6943 26.9759 12.731 27.1328 12.8063 27.2374C12.8891 27.3419 12.9913 27.4129 13.1127 27.4502C13.2419 27.4801 13.3825 27.4951 13.5347 27.4951H13.7745L13.7703 27.9992H10.2772L10.2813 27.4951H10.521C10.6809 27.4951 10.8218 27.4764 10.9439 27.439C11.0736 27.4017 11.1769 27.327 11.2539 27.215C11.331 27.1029 11.3704 26.9349 11.3722 26.7108L11.3935 24.1226H7.87748L7.85625 26.7108C7.85441 26.9349 7.89108 27.1029 7.96627 27.215C8.04145 27.327 8.14358 27.4017 8.27265 27.439C8.40172 27.4764 8.54235 27.4951 8.69456 27.4951H8.93429L8.93015 27.9992H5.437Z" fill="#D4D4D4"/>
<rect width="15" height="2" transform="matrix(1 0 -0.00820296 0.999966 22.4206 29.999)" fill="#D4D4D4"/>
<rect width="15" height="2" transform="matrix(1 0 -0.00820296 0.999966 22.3878 33.999)" fill="#D4D4D4"/>
<rect width="15" height="2" transform="matrix(1 0 -0.00820296 0.999966 22.355 37.9985)" fill="#D4D4D4"/>
<path d="M22.437 27.9992L22.4411 27.4951H22.6809C22.8407 27.4951 22.9816 27.4764 23.1037 27.439C23.2334 27.4017 23.3367 27.327 23.4138 27.215C23.4908 27.1029 23.5302 26.9349 23.532 26.7108L23.5769 21.2432C23.5787 21.0266 23.5381 20.866 23.4553 20.7614C23.38 20.6568 23.2778 20.5896 23.1487 20.5597C23.0273 20.5224 22.8904 20.5037 22.7382 20.5037H22.4985L22.5026 19.9995H25.9958L25.9916 20.5037H25.7519C25.5997 20.5037 25.4588 20.5224 25.3291 20.5597C25.1994 20.5971 25.096 20.6718 25.019 20.7838C24.9421 20.8884 24.9026 21.0564 24.9007 21.288L24.8823 23.5288H28.3983L28.4167 21.288C28.4186 21.0564 28.3819 20.8884 28.3067 20.7838C28.2315 20.6718 28.1294 20.5971 28.0003 20.5597C27.8789 20.5224 27.7382 20.5037 27.5784 20.5037H27.3387L27.3428 19.9995H30.836L30.8318 20.5037H30.5921C30.4399 20.5037 30.2989 20.5224 30.1693 20.5597C30.0396 20.5971 29.9362 20.6718 29.8592 20.7838C29.7822 20.8884 29.7428 21.0564 29.7409 21.288L29.696 26.7668C29.6943 26.9759 29.731 27.1328 29.8063 27.2374C29.8891 27.3419 29.9913 27.4129 30.1127 27.4502C30.2419 27.4801 30.3825 27.4951 30.5347 27.4951H30.7745L30.7703 27.9992H27.2772L27.2813 27.4951H27.521C27.6809 27.4951 27.8218 27.4764 27.9439 27.439C28.0736 27.4017 28.1769 27.327 28.2539 27.215C28.331 27.1029 28.3704 26.9349 28.3722 26.7108L28.3935 24.1226H24.8775L24.8562 26.7108C24.8544 26.9349 24.8911 27.1029 24.9663 27.215C25.0415 27.327 25.1436 27.4017 25.2726 27.439C25.4017 27.4764 25.5424 27.4951 25.6946 27.4951H25.9343L25.9302 27.9992H22.437Z" fill="#D4D4D4"/>
<rect width="15" height="2" transform="matrix(1 0 -0.00820296 0.999966 39.4206 29.999)" fill="#D4D4D4"/>
<rect width="15" height="2" transform="matrix(1 0 -0.00820296 0.999966 39.3878 33.999)" fill="#D4D4D4"/>
<rect width="15" height="2" transform="matrix(1 0 -0.00820296 0.999966 39.355 37.9985)" fill="#D4D4D4"/>
<path d="M39.437 27.9992L39.4411 27.4951H39.6809C39.8407 27.4951 39.9816 27.4764 40.1037 27.439C40.2334 27.4017 40.3367 27.327 40.4138 27.215C40.4908 27.1029 40.5302 26.9349 40.532 26.7108L40.5769 21.2432C40.5787 21.0266 40.5381 20.866 40.4553 20.7614C40.38 20.6568 40.2778 20.5896 40.1487 20.5597C40.0273 20.5224 39.8904 20.5037 39.7382 20.5037H39.4985L39.5026 19.9995H42.9958L42.9916 20.5037H42.7519C42.5997 20.5037 42.4588 20.5224 42.3291 20.5597C42.1994 20.5971 42.096 20.6718 42.019 20.7838C41.9421 20.8884 41.9026 21.0564 41.9007 21.288L41.8823 23.5288H45.3983L45.4167 21.288C45.4186 21.0564 45.3819 20.8884 45.3067 20.7838C45.2315 20.6718 45.1294 20.5971 45.0003 20.5597C44.8789 20.5224 44.7382 20.5037 44.5784 20.5037H44.3387L44.3428 19.9995H47.836L47.8318 20.5037H47.5921C47.4399 20.5037 47.2989 20.5224 47.1693 20.5597C47.0396 20.5971 46.9362 20.6718 46.8592 20.7838C46.7822 20.8884 46.7428 21.0564 46.7409 21.288L46.696 26.7668C46.6943 26.9759 46.731 27.1328 46.8063 27.2374C46.8891 27.3419 46.9913 27.4129 47.1127 27.4502C47.2419 27.4801 47.3825 27.4951 47.5347 27.4951H47.7745L47.7703 27.9992H44.2772L44.2813 27.4951H44.521C44.6809 27.4951 44.8218 27.4764 44.9439 27.439C45.0736 27.4017 45.1769 27.327 45.2539 27.215C45.331 27.1029 45.3704 26.9349 45.3722 26.7108L45.3935 24.1226H41.8775L41.8562 26.7108C41.8544 26.9349 41.8911 27.1029 41.9663 27.215C42.0414 27.327 42.1436 27.4017 42.2726 27.439C42.4017 27.4764 42.5424 27.4951 42.6946 27.4951H42.9343L42.9302 27.9992H39.437Z" fill="#D4D4D4"/>
<ellipse cx="13.65" cy="46.0501" rx="9.45" ry="9.45" fill="white"/>
<rect width="10" height="10" transform="translate(8.66669 41)" fill="white"/>
<path d="M13.0792 46.5875C13.25 46.75 13.25 47.0166 13.0792 47.1791C12.9167 47.3416 12.65 47.3416 12.4875 47.1791C11.675 46.3666 11.675 45.0458 12.4875 44.2333L13.9625 42.7583C14.775 41.9458 16.0959 41.9458 16.9084 42.7583C17.7209 43.5708 17.7209 44.8916 16.9084 45.7041L16.2876 46.325C16.2917 45.9833 16.2375 45.6416 16.1209 45.3166L16.3167 45.1166C16.8084 44.6291 16.8084 43.8375 16.3167 43.35C15.8292 42.8583 15.0375 42.8583 14.55 43.35L13.0792 44.8208C12.5875 45.3083 12.5875 46.1 13.0792 46.5875ZM14.2542 44.8208C14.4167 44.6583 14.6834 44.6583 14.8459 44.8208C15.6584 45.6333 15.6584 46.9541 14.8459 47.7666L13.3709 49.2416C12.5584 50.0541 11.2375 50.0541 10.425 49.2416C9.61255 48.4291 9.61255 47.1083 10.425 46.2958L11.0459 45.675C11.0417 46.0166 11.0959 46.3583 11.2125 46.6875L11.0167 46.8833C10.525 47.3708 10.525 48.1625 11.0167 48.65C11.5042 49.1416 12.2959 49.1416 12.7834 48.65L14.2542 47.1791C14.7459 46.6916 14.7459 45.9 14.2542 45.4125C14.0834 45.25 14.0834 44.9833 14.2542 44.8208Z" fill="#6B6B6B"/>
</g>
<defs>
<clipPath id="clip0_2434_2635">
<rect width="60" height="60" fill="white"/>
</clipPath>
</defs>
</svg>
