<svg width="60" height="60" viewBox="0 0 60 60" fill="none" xmlns="http://www.w3.org/2000/svg">
<g clip-path="url(#clip0_2480_2199)">
<rect width="45" height="20" transform="matrix(1 0 -0.00820296 0.999966 7.40143 32.332)" fill="white"/>
<mask id="mask0_2480_2199" style="mask-type:alpha" maskUnits="userSpaceOnUse" x="7" y="32" width="46" height="21">
<rect x="0.495899" y="0.499983" width="44" height="19" transform="matrix(1 0 -0.00820296 0.999966 7.40553 32.332)" fill="#F8F8F8" stroke="#B8B8B8"/>
</mask>
<g mask="url(#mask0_2480_2199)">
<path d="M38.5435 42.4426C38.5251 44.6765 36.6748 46.498 34.3977 46.498C32.1206 46.498 30.3001 44.6765 30.3185 42.4426C30.3368 40.2087 32.1871 38.3872 34.4642 38.3872C36.7414 38.3872 38.5618 40.2087 38.5435 42.4426Z" fill="#E5F7EE" stroke="#72D1A0"/>
<path d="M32.0194 42.3316C32.0097 43.5224 31.0225 44.4982 29.8016 44.4982C28.5807 44.4982 27.6097 43.5224 27.6194 42.3316C27.6292 41.1409 28.6163 40.165 29.8372 40.165C31.0581 40.165 32.0292 41.1409 32.0194 42.3316Z" fill="#E5F7EE" stroke="#72D1A0"/>
<path d="M19.2108 40.3316C19.201 41.5224 18.2139 42.4982 16.993 42.4982C15.7721 42.4982 14.801 41.5224 14.8108 40.3316C14.8205 39.1409 15.8076 38.165 17.0285 38.165C18.2494 38.165 19.2205 39.1409 19.2108 40.3316Z" fill="#E5F7EE" stroke="#72D1A0"/>
<rect x="0.434957" y="0.552656" width="48.7182" height="12.6288" transform="matrix(0.992795 0.11195 -0.122882 0.993363 4.06226 39.0028)" fill="#E5F7EE" stroke="#72D1A0"/>
</g>
<rect x="0.495899" y="0.499983" width="44" height="19" transform="matrix(1 0 -0.00820296 0.999966 7.40553 32.332)" stroke="#72D1A0"/>
<rect width="20" height="20" transform="matrix(1 0 -0.00820296 0.999966 32.6065 7.33301)" fill="white"/>
<mask id="mask1_2480_2199" style="mask-type:alpha" maskUnits="userSpaceOnUse" x="32" y="7" width="21" height="21">
<rect x="0.495899" y="0.499983" width="19" height="19" transform="matrix(1 0 -0.00820296 0.999966 32.6106 7.33302)" fill="#F8F8F8" stroke="#B8B8B8"/>
</mask>
<g mask="url(#mask1_2480_2199)">
<path d="M50.1036 34.7765C50.0339 43.2753 43.0875 50.1649 34.5885 50.1649C26.0894 50.1649 19.2561 43.2753 19.3258 34.7765C19.3956 26.2778 26.3419 19.3882 34.841 19.3882C43.34 19.3882 50.1733 26.2778 50.1036 34.7765Z" fill="#FBE8E8" stroke="#E98080"/>
<path d="M67.8777 35.2209C67.808 43.7196 60.8617 50.6092 52.3626 50.6092C43.8636 50.6092 37.0302 43.7196 37.0999 35.2209C37.1697 26.7221 44.116 19.8325 52.6151 19.8325C61.1141 19.8325 67.9474 26.7221 67.8777 35.2209Z" fill="#FBE8E8" stroke="#E98080"/>
</g>
<rect x="0.495899" y="0.499983" width="19" height="19" transform="matrix(1 0 -0.00820296 0.999966 32.6106 7.33302)" stroke="#E98080"/>
<rect width="20" height="20" transform="matrix(1 0 -0.00820296 0.999966 7.60651 7.33301)" fill="white"/>
<mask id="mask2_2480_2199" style="mask-type:alpha" maskUnits="userSpaceOnUse" x="7" y="7" width="21" height="21">
<rect x="0.495899" y="0.499983" width="19" height="19" transform="matrix(1 0 -0.00820296 0.999966 7.61061 7.33302)" fill="#F8F8F8" stroke="#B8B8B8"/>
</mask>
<g mask="url(#mask2_2480_2199)">
<circle r="2.16667" transform="matrix(1 0 -0.00820296 0.999966 21.1092 13.7774)" fill="#FCEDD4" stroke="#F2BC5E"/>
<rect x="12.0329" y="29.9512" width="10.4964" height="10.4957" rx="2.5" transform="matrix(0.712883 -0.707107 0.701283 0.707107 -17.5494 17.2811)" fill="#E7ECF6" stroke="#7A97CE"/>
<rect x="4.42113" y="26.2588" width="10.4964" height="15.1643" rx="2.5" transform="matrix(0.712883 -0.707107 0.701283 0.707107 -17.1455 10.8172)" fill="#E7ECF6" stroke="#7A97CE"/>
</g>
<rect x="0.495899" y="0.499983" width="19" height="19" transform="matrix(1 0 -0.00820296 0.999966 7.61061 7.33302)" stroke="#7A97CE"/>
</g>
<defs>
<clipPath id="clip0_2480_2199">
<rect width="60" height="60" fill="white"/>
</clipPath>
</defs>
</svg>
