<svg width="60" height="60" viewBox="0 0 60 60" fill="none" xmlns="http://www.w3.org/2000/svg">
<g clip-path="url(#clip0_2449_2446)">
<g clip-path="url(#clip1_2449_2446)">
<rect width="20" height="20" rx="9.99998" transform="matrix(1 0 -0.00820296 0.999966 7.16925 19.9995)" fill="white"/>
<mask id="mask0_2449_2446" style="mask-type:alpha" maskUnits="userSpaceOnUse" x="7" y="19" width="21" height="21">
<rect x="0.495899" y="0.499983" width="19" height="19" rx="9.49998" transform="matrix(1 0 -0.00820296 0.999966 7.17335 19.9995)" fill="#CBF7E1" stroke="#1FC47A"/>
</mask>
<g mask="url(#mask0_2449_2446)">
<rect x="0.495899" y="0.499983" width="4.33333" height="4.33333" rx="2.16667" transform="matrix(1 0 -0.00820296 0.999966 14.493 21.666)" fill="#FCEDD4" stroke="#F2BC5E"/>
<rect x="0.495899" y="0.499983" width="6.85713" height="6.85713" rx="3.42856" transform="matrix(1 0 -0.00820296 0.999966 13.2184 23.2139)" fill="#E2F6F6" stroke="#61CCCC"/>
<mask id="path-5-inside-1_2449_2446" fill="white">
<path fill-rule="evenodd" clip-rule="evenodd" d="M20.5375 25.1918C19.5827 25.9081 18.3979 26.3328 17.1173 26.3328C15.8367 26.3328 14.6588 25.9081 13.7158 25.1917C14.4028 24.01 15.6831 23.2139 17.1428 23.2139C18.6026 23.2139 19.8699 24.01 20.5375 25.1918Z"/>
</mask>
<path fill-rule="evenodd" clip-rule="evenodd" d="M20.5375 25.1918C19.5827 25.9081 18.3979 26.3328 17.1173 26.3328C15.8367 26.3328 14.6588 25.9081 13.7158 25.1917C14.4028 24.01 15.6831 23.2139 17.1428 23.2139C18.6026 23.2139 19.8699 24.01 20.5375 25.1918Z" fill="#FCEDD4"/>
<path d="M20.5375 25.1918L21.1334 25.9899L21.8411 25.4591L21.4092 24.6946L20.5375 25.1918ZM13.7158 25.1917L12.8522 24.6945L12.4078 25.4589L13.1067 25.9898L13.7158 25.1917ZM19.9416 24.3937C19.1553 24.9835 18.1812 25.3329 17.1255 25.3329L17.1091 27.3328C18.6145 27.3328 20.0101 26.8327 21.1334 25.9899L19.9416 24.3937ZM17.1255 25.3329C16.0698 25.3329 15.1014 24.9835 14.3248 24.3936L13.1067 25.9898C14.2163 26.8326 15.6037 27.3328 17.1091 27.3328L17.1255 25.3329ZM14.5793 25.689C15.0929 24.8054 16.0477 24.2138 17.1346 24.2138L17.151 22.2139C15.3184 22.2139 13.7126 23.2146 12.8522 24.6945L14.5793 25.689ZM17.1346 24.2138C18.2216 24.2138 19.1667 24.8055 19.6658 25.689L21.4092 24.6946C20.5731 23.2146 18.9837 22.2139 17.151 22.2139L17.1346 24.2138Z" fill="#F2BC5E" mask="url(#path-5-inside-1_2449_2446)"/>
<rect x="0.495899" y="0.499983" width="11.1428" height="11.1428" rx="5.57142" transform="matrix(1 0 -0.00820296 0.999966 11.0023 32.1421)" fill="#F2EAF7" stroke="#B98BD3"/>
<rect x="0.495899" y="0.499983" width="19" height="19" rx="9.49998" transform="matrix(1 0 -0.00820296 0.999966 7.17335 19.9995)" stroke="#D4D4D4"/>
</g>
</g>
<g clip-path="url(#clip2_2449_2446)">
<circle r="9.5" transform="matrix(1 0 -0.00820296 0.999966 42.0872 29.9992)" fill="white" stroke="#D4D4D4"/>
<path d="M39.5661 34.999L39.5714 34.3514H40.5691C40.7752 34.3514 40.9534 34.3274 41.1036 34.2794C41.2634 34.2219 41.386 34.1211 41.4715 33.9772C41.5663 33.8333 41.6149 33.6222 41.6172 33.344L41.6783 25.8893C41.4417 26.1867 41.2194 26.4505 41.0114 26.6808C40.8035 26.9015 40.6054 27.0742 40.417 27.1989C40.2286 27.3236 40.0408 27.386 39.8534 27.386C39.6379 27.386 39.4606 27.3092 39.3213 27.1557C39.1822 26.9926 39.1136 26.7815 39.1158 26.5225C39.3035 26.4745 39.496 26.4122 39.6934 26.3354C39.9002 26.2491 40.126 26.1339 40.3707 25.99C40.6249 25.8365 40.9075 25.6446 41.2185 25.4144L42.2083 24.666H43.2902L43.219 33.344C43.2168 33.6126 43.2573 33.8237 43.3403 33.9772C43.4234 34.1211 43.5444 34.2219 43.7032 34.2794C43.862 34.3274 44.0398 34.3514 44.2365 34.3514H45.0515L45.0462 34.999H39.5661Z" fill="#949494"/>
</g>
<ellipse cx="13.65" cy="46.0501" rx="9.45" ry="9.45" fill="white"/>
<rect width="10" height="10" transform="translate(8.66669 41)" fill="white"/>
<path d="M13.0792 46.5875C13.25 46.75 13.25 47.0166 13.0792 47.1791C12.9167 47.3416 12.65 47.3416 12.4875 47.1791C11.675 46.3666 11.675 45.0458 12.4875 44.2333L13.9625 42.7583C14.775 41.9458 16.0959 41.9458 16.9084 42.7583C17.7209 43.5708 17.7209 44.8916 16.9084 45.7041L16.2876 46.325C16.2917 45.9833 16.2375 45.6416 16.1209 45.3166L16.3167 45.1166C16.8084 44.6291 16.8084 43.8375 16.3167 43.35C15.8292 42.8583 15.0375 42.8583 14.55 43.35L13.0792 44.8208C12.5875 45.3083 12.5875 46.1 13.0792 46.5875ZM14.2542 44.8208C14.4167 44.6583 14.6834 44.6583 14.8459 44.8208C15.6584 45.6333 15.6584 46.9541 14.8459 47.7666L13.3709 49.2416C12.5584 50.0541 11.2375 50.0541 10.425 49.2416C9.61255 48.4291 9.61255 47.1083 10.425 46.2958L11.0459 45.675C11.0417 46.0166 11.0959 46.3583 11.2125 46.6875L11.0167 46.8833C10.525 47.3708 10.525 48.1625 11.0167 48.65C11.5042 49.1416 12.2959 49.1416 12.7834 48.65L14.2542 47.1791C14.7459 46.6916 14.7459 45.9 14.2542 45.4125C14.0834 45.25 14.0834 44.9833 14.2542 44.8208Z" fill="#6B6B6B"/>
</g>
<defs>
<clipPath id="clip0_2449_2446">
<rect width="60" height="60" fill="white"/>
</clipPath>
<clipPath id="clip1_2449_2446">
<rect width="20" height="20" fill="white" transform="matrix(1 0 -0.00820296 0.999966 7.16925 19.9995)"/>
</clipPath>
<clipPath id="clip2_2449_2446">
<rect width="20" height="20" fill="white" transform="matrix(1 0 -0.00820296 0.999966 32.1693 19.9995)"/>
</clipPath>
</defs>
</svg>
