<svg width="60" height="60" viewBox="0 0 60 60" fill="none" xmlns="http://www.w3.org/2000/svg">
<g clip-path="url(#clip0_2434_2302)">
<rect width="20" height="2" transform="matrix(1 0 -0.00820296 0.999966 19.6801 38.999)" fill="#D4D4D4"/>
<rect width="20" height="2" transform="matrix(1 0 -0.00820296 0.999966 19.6473 42.9985)" fill="#D4D4D4"/>
<g clip-path="url(#clip1_2434_2302)">
<rect width="20" height="20" rx="9.99998" transform="matrix(1 0 -0.00820296 0.999966 19.8756 15.166)" fill="white"/>
<mask id="mask0_2434_2302" style="mask-type:alpha" maskUnits="userSpaceOnUse" x="19" y="15" width="21" height="21">
<rect x="0.495899" y="0.499983" width="19" height="19" rx="9.49998" transform="matrix(1 0 -0.00820296 0.999966 19.8797 15.166)" fill="#CBF7E1" stroke="#1FC47A"/>
</mask>
<g mask="url(#mask0_2434_2302)">
<rect x="0.495899" y="0.499983" width="6.85713" height="6.85713" rx="3.42856" transform="matrix(1 0 -0.00820296 0.999966 25.9248 18.3804)" fill="#F2EAF7" stroke="#B98BD3"/>
<mask id="path-6-inside-1_2434_2302" fill="white">
<path fill-rule="evenodd" clip-rule="evenodd" d="M28.1795 18.7504C28.1795 18.754 28.1795 18.7577 28.1794 18.7613C28.1616 20.9309 29.9061 22.6897 32.0758 22.6897C32.6716 22.6897 33.2375 22.5571 33.7454 22.3198C33.7454 22.3161 33.7455 22.3125 33.7455 22.3088C33.7633 20.1392 32.0189 18.3804 29.8492 18.3804C29.2534 18.3804 28.6874 18.513 28.1795 18.7504Z"/>
</mask>
<path fill-rule="evenodd" clip-rule="evenodd" d="M28.1795 18.7504C28.1795 18.754 28.1795 18.7577 28.1794 18.7613C28.1616 20.9309 29.9061 22.6897 32.0758 22.6897C32.6716 22.6897 33.2375 22.5571 33.7454 22.3198C33.7454 22.3161 33.7455 22.3125 33.7455 22.3088C33.7633 20.1392 32.0189 18.3804 29.8492 18.3804C29.2534 18.3804 28.6874 18.513 28.1795 18.7504Z" fill="#FBE8E8"/>
<path d="M28.1795 18.7504L27.7622 17.8451L27.1864 18.1142L27.1796 18.7477L28.1795 18.7504ZM33.7454 22.3198L34.1627 23.2251L34.7385 22.956L34.7454 22.3224L33.7454 22.3198ZM29.1794 18.7613C29.1795 18.7587 29.1795 18.7559 29.1795 18.753L27.1796 18.7477C27.1795 18.7521 27.1795 18.7566 27.1794 18.7613H29.1794ZM32.084 21.6898C30.4666 21.6898 29.1662 20.3787 29.1794 18.7613H27.1794C27.1571 21.4832 29.3456 23.6897 32.0676 23.6897L32.084 21.6898ZM33.3281 21.4145C32.9509 21.5908 32.53 21.6898 32.084 21.6898L32.0676 23.6897C32.8132 23.6897 33.5242 23.5235 34.1627 23.2251L33.3281 21.4145ZM32.7455 22.3088C32.7455 22.3111 32.7455 22.3138 32.7454 22.3172L34.7454 22.3224C34.7454 22.3185 34.7455 22.3138 34.7455 22.3088H32.7455ZM29.841 19.3803C31.4584 19.3803 32.7588 20.6915 32.7455 22.3088H34.7455C34.7678 19.5869 32.5793 17.3804 29.8574 17.3804L29.841 19.3803ZM28.5968 19.6557C28.9741 19.4794 29.395 19.3803 29.841 19.3803L29.8574 17.3804C29.1117 17.3804 28.4008 17.5467 27.7622 17.8451L28.5968 19.6557Z" fill="#E98080" mask="url(#path-6-inside-1_2434_2302)"/>
<rect x="0.495899" y="0.499983" width="11.1428" height="11.1428" rx="5.57142" transform="matrix(1 0 -0.00820296 0.999966 23.7086 27.3086)" fill="#E5F7EE" stroke="#72D1A0"/>
<rect x="0.495899" y="0.499983" width="19" height="19" rx="9.49998" transform="matrix(1 0 -0.00820296 0.999966 19.8797 15.166)" stroke="#D4D4D4"/>
</g>
</g>
<ellipse cx="13.65" cy="46.0501" rx="9.45" ry="9.45" fill="white"/>
<rect width="10" height="10" transform="translate(8.66669 41)" fill="white"/>
<path d="M13.0792 46.5875C13.25 46.75 13.25 47.0166 13.0792 47.1791C12.9167 47.3416 12.65 47.3416 12.4875 47.1791C11.675 46.3666 11.675 45.0458 12.4875 44.2333L13.9625 42.7583C14.775 41.9458 16.0959 41.9458 16.9084 42.7583C17.7209 43.5708 17.7209 44.8916 16.9084 45.7041L16.2876 46.325C16.2917 45.9833 16.2375 45.6416 16.1209 45.3166L16.3167 45.1166C16.8084 44.6291 16.8084 43.8375 16.3167 43.35C15.8292 42.8583 15.0375 42.8583 14.55 43.35L13.0792 44.8208C12.5875 45.3083 12.5875 46.1 13.0792 46.5875ZM14.2542 44.8208C14.4167 44.6583 14.6834 44.6583 14.8459 44.8208C15.6584 45.6333 15.6584 46.9541 14.8459 47.7666L13.3709 49.2416C12.5584 50.0541 11.2375 50.0541 10.425 49.2416C9.61255 48.4291 9.61255 47.1083 10.425 46.2958L11.0459 45.675C11.0417 46.0166 11.0959 46.3583 11.2125 46.6875L11.0167 46.8833C10.525 47.3708 10.525 48.1625 11.0167 48.65C11.5042 49.1416 12.2959 49.1416 12.7834 48.65L14.2542 47.1791C14.7459 46.6916 14.7459 45.9 14.2542 45.4125C14.0834 45.25 14.0834 44.9833 14.2542 44.8208Z" fill="#6B6B6B"/>
</g>
<defs>
<clipPath id="clip0_2434_2302">
<rect width="60" height="60" fill="white"/>
</clipPath>
<clipPath id="clip1_2434_2302">
<rect width="20" height="20" fill="white" transform="matrix(1 0 -0.00820296 0.999966 19.8756 15.166)"/>
</clipPath>
</defs>
</svg>
