<svg width="60" height="60" viewBox="0 0 60 60" fill="none" xmlns="http://www.w3.org/2000/svg">
<g clip-path="url(#clip0_2471_3885)">
<rect width="35" height="20" transform="matrix(1 0 -0.00820296 0.999966 12.5026 19.9995)" fill="white"/>
<mask id="mask0_2471_3885" style="mask-type:alpha" maskUnits="userSpaceOnUse" x="12" y="19" width="36" height="21">
<rect width="35" height="20" transform="matrix(1 0 -0.00820296 0.999966 12.5026 19.9995)" fill="#F8F8F8"/>
</mask>
<g mask="url(#mask0_2471_3885)">
<path d="M42.9534 25.9991C42.9435 27.1957 41.9655 28.1657 40.7689 28.1657C39.5723 28.1657 38.6102 27.1957 38.62 25.9991C38.6298 24.8025 39.6079 23.8325 40.8045 23.8325C42.0011 23.8325 42.9632 24.8025 42.9534 25.9991Z" fill="#FCEDD4" stroke="#F2BC5E"/>
<path fill-rule="evenodd" clip-rule="evenodd" d="M50.4917 31.9494C50.5262 32.0391 50.5435 32.1301 50.5427 32.2221C50.5301 33.7652 45.4501 35.0161 39.1963 35.0161C32.9425 35.0161 27.883 33.7652 27.8957 32.2221C27.9017 31.4821 29.0729 30.8094 30.9798 30.3095C29.2792 29.3282 26.046 28.666 22.3319 28.666C16.838 28.666 12.3723 30.115 12.3577 31.9025C12.3575 31.9181 12.3578 31.9338 12.3583 31.9494H12.3573L12.2426 45.9248H52.0334L52.1481 31.9494H50.4917Z" fill="#E2F6F6"/>
<path d="M50.4917 31.9494L50.4958 31.4494H49.7624L50.0248 32.1321L50.4917 31.9494ZM30.9798 30.3095L31.1029 30.7931L32.2849 30.4833L31.2324 29.876L30.9798 30.3095ZM12.3583 31.9494L12.3542 32.4494H12.8765L12.858 31.9276L12.3583 31.9494ZM12.3573 31.9494L12.3614 31.4494H11.8614L11.8573 31.9494H12.3573ZM12.2426 45.9248H11.7426L11.7385 46.4248H12.2385L12.2426 45.9248ZM52.0334 45.9248L52.0293 46.4248H52.5293L52.5334 45.9248H52.0334ZM52.1481 31.9494H52.6481L52.6522 31.4494H52.1522L52.1481 31.9494ZM50.0248 32.1321C50.0385 32.1678 50.0429 32.1969 50.0427 32.2221H51.0427C51.044 32.0632 51.0139 31.9104 50.9587 31.7667L50.0248 32.1321ZM50.0427 32.2221C50.0419 32.3187 49.9474 32.5573 49.3955 32.8778C48.8792 33.1776 48.0999 33.4646 47.0941 33.7123C45.0904 34.2057 42.2991 34.5161 39.2004 34.5161L39.1922 35.5161C42.3473 35.5161 45.2229 35.201 47.3257 34.6832C48.3733 34.4252 49.2573 34.1102 49.8924 33.7415C50.492 33.3934 51.0372 32.897 51.0427 32.2221H50.0427ZM39.2004 34.5161C36.1017 34.5161 33.3154 34.2057 31.3198 33.7123C30.3181 33.4646 29.5436 33.1776 29.0321 32.8778C28.4855 32.5573 28.3949 32.3187 28.3957 32.2221H27.3957C27.3901 32.897 27.9272 33.3934 28.5211 33.7415C29.1502 34.1102 30.029 34.4252 31.0723 34.6832C33.1667 35.201 36.0371 35.5161 39.1922 35.5161L39.2004 34.5161ZM28.3957 32.2221C28.3964 32.1308 28.48 31.9075 28.982 31.6025C29.4542 31.3156 30.1707 31.0375 31.1029 30.7931L30.8568 29.826C29.8821 30.0815 29.0595 30.3896 28.4679 30.7491C27.906 31.0904 27.401 31.5734 27.3957 32.2221H28.3957ZM31.2324 29.876C29.4205 28.8305 26.0835 28.166 22.336 28.166L22.3278 29.166C26.0085 29.166 29.1379 29.826 30.7273 30.7431L31.2324 29.876ZM22.336 28.166C19.5513 28.166 17.0067 28.5326 15.1393 29.1385C14.2083 29.4406 13.4177 29.8111 12.8481 30.2464C12.2857 30.6763 11.8632 31.2315 11.8577 31.9025H12.8577C12.8595 31.6798 13.0007 31.3835 13.4513 31.039C13.8949 30.6999 14.5668 30.373 15.4409 30.0894C17.1834 29.524 19.6186 29.166 22.3278 29.166L22.336 28.166ZM11.8577 31.9025C11.8575 31.9254 11.8578 31.9483 11.8586 31.9712L12.858 31.9276C12.8577 31.9192 12.8576 31.9109 12.8577 31.9025H11.8577ZM12.3624 31.4494H12.3614L12.3532 32.4494H12.3542L12.3624 31.4494ZM11.8573 31.9494L11.7426 45.9248H12.7426L12.8573 31.9494H11.8573ZM12.2385 46.4248H52.0293L52.0375 45.4248H12.2467L12.2385 46.4248ZM52.5334 45.9248L52.6481 31.9494H51.6481L51.5334 45.9248H52.5334ZM52.1522 31.4494H50.4958L50.4876 32.4494H52.144L52.1522 31.4494Z" fill="#10B2B2"/>
<path fill-rule="evenodd" clip-rule="evenodd" d="M29.0766 24.3843C28.6348 24.6997 28.0606 24.8905 27.4342 24.8905C26.8078 24.8905 26.2366 24.6997 25.8 24.3843C25.8846 25.069 26.5793 25.6018 27.4283 25.6018C28.2773 25.6018 28.9808 25.069 29.0766 24.3843Z" fill="#6B6B6B"/>
<path fill-rule="evenodd" clip-rule="evenodd" d="M32.5922 22.6661C32.1504 22.9815 31.5762 23.1723 30.9498 23.1723C30.3234 23.1723 29.7522 22.9814 29.3156 22.666C29.4001 23.3507 30.0949 23.8835 30.9439 23.8835C31.7929 23.8835 32.4963 23.3508 32.5922 22.6661Z" fill="#6B6B6B"/>
<path fill-rule="evenodd" clip-rule="evenodd" d="M33.8633 25.4777C33.4214 25.793 32.8472 25.9838 32.2209 25.9838C31.5944 25.9838 31.0233 25.793 30.5866 25.4775C30.6712 26.1622 31.3659 26.695 32.215 26.695C33.0639 26.695 33.7674 26.1623 33.8633 25.4777Z" fill="#6B6B6B"/>
</g>
<rect x="0.495899" y="0.499983" width="34" height="19" transform="matrix(1 0 -0.00820296 0.999966 12.5067 19.9995)" stroke="#AEE5E5"/>
<path d="M20.7211 33.9992L15.6975 36.8859L15.7448 31.1126L20.7211 33.9992Z" fill="#6B6B6B"/>
<path d="M52.081 32.1869L54.4346 29.8333L52.081 27.4746L52.8056 26.75L55.8889 29.8333L52.8056 32.9167L52.081 32.1869Z" fill="#6B6B6B"/>
<path d="M7.91901 27.4796L5.5654 29.8332L7.91901 32.1919L7.19442 32.9165L4.11109 29.8332L7.19442 26.7498L7.91901 27.4796Z" fill="#6B6B6B"/>
</g>
<defs>
<clipPath id="clip0_2471_3885">
<rect width="60" height="60" fill="white"/>
</clipPath>
</defs>
</svg>
