<svg width="60" height="60" viewBox="0 0 60 60" fill="none" xmlns="http://www.w3.org/2000/svg">
<g clip-path="url(#clip0_2480_3003)">
<rect width="15" height="15" transform="matrix(1 0 -0.00820296 0.999966 13.9562 5.33301)" fill="white"/>
<mask id="mask0_2480_3003" style="mask-type:alpha" maskUnits="userSpaceOnUse" x="13" y="5" width="16" height="16">
<rect x="0.495899" y="0.499983" width="14" height="14" transform="matrix(1 0 -0.00820296 0.999966 13.9603 5.33302)" fill="#F8F8F8" stroke="#B8B8B8"/>
</mask>
<g mask="url(#mask0_2480_3003)">
<circle r="1.5" transform="matrix(1 0 -0.00820296 0.999966 24.0833 10.1659)" fill="#FCEDD4" stroke="#F2BC5E"/>
<rect x="17.4528" y="22.2959" width="7.62232" height="7.62175" rx="2.5" transform="matrix(0.712883 -0.707107 0.701283 0.707107 -10.6247 18.8713)" fill="#E7ECF6" stroke="#7A97CE"/>
<rect x="11.7439" y="19.5273" width="7.62232" height="11.1232" rx="2.5" transform="matrix(0.712883 -0.707107 0.701283 0.707107 -10.3223 14.0237)" fill="#E7ECF6" stroke="#7A97CE"/>
</g>
<rect x="0.495899" y="0.499983" width="14" height="14" transform="matrix(1 0 -0.00820296 0.999966 13.9603 5.33302)" stroke="#7A97CE"/>
<rect width="15" height="15" transform="matrix(1 0 -0.00820296 0.999966 30.9562 5.33301)" fill="white"/>
<mask id="mask1_2480_3003" style="mask-type:alpha" maskUnits="userSpaceOnUse" x="30" y="5" width="16" height="16">
<rect x="0.495899" y="0.499983" width="14" height="14" transform="matrix(1 0 -0.00820296 0.999966 30.9603 5.33302)" fill="#F8F8F8" stroke="#B8B8B8"/>
</mask>
<g mask="url(#mask1_2480_3003)">
<rect x="0.495899" y="0.499983" width="16.4893" height="7.83288" rx="2.5" transform="matrix(1 0 -0.00820296 0.999966 29.6544 15.499)" fill="#F2EAF7" stroke="#B98BD3"/>
<rect x="0.495899" y="0.499983" width="1" height="3.33333" rx="0.5" transform="matrix(1 0 -0.00820296 0.999966 35.5833 10.666)" fill="#F2EAF7" stroke="#B98BD3"/>
</g>
<rect x="0.495899" y="0.499983" width="14" height="14" transform="matrix(1 0 -0.00820296 0.999966 30.9603 5.33302)" stroke="#B98BD3"/>
<rect width="15" height="15" transform="matrix(1 0 -0.00820296 0.999966 13.8168 22.3325)" fill="white"/>
<mask id="mask2_2480_3003" style="mask-type:alpha" maskUnits="userSpaceOnUse" x="13" y="22" width="16" height="16">
<rect x="0.495899" y="0.499983" width="14" height="14" transform="matrix(1 0 -0.00820296 0.999966 13.8209 22.3325)" fill="#F8F8F8" stroke="#B8B8B8"/>
</mask>
<g mask="url(#mask2_2480_3003)">
<path d="M26.8146 42.9153C26.7629 49.2203 21.6096 54.3316 15.3043 54.3316C8.99905 54.3316 3.92957 49.2203 3.98129 42.9153C4.03301 36.6102 9.18635 31.499 15.4916 31.499C21.7969 31.499 26.8663 36.6102 26.8146 42.9153Z" fill="#FBE8E8" stroke="#E98080"/>
<path d="M40.1452 43.2483C40.0935 49.5533 34.9401 54.6646 28.6349 54.6646C22.3296 54.6646 17.2601 49.5533 17.3119 43.2483C17.3636 36.9433 22.5169 31.832 28.8222 31.832C35.1274 31.832 40.1969 36.9433 40.1452 43.2483Z" fill="#FBE8E8" stroke="#E98080"/>
</g>
<rect x="0.495899" y="0.499983" width="14" height="14" transform="matrix(1 0 -0.00820296 0.999966 13.8209 22.3325)" stroke="#E98080"/>
<rect width="15" height="15" transform="matrix(1 0 -0.00820296 0.999966 30.8168 22.3325)" fill="white"/>
<mask id="mask3_2480_3003" style="mask-type:alpha" maskUnits="userSpaceOnUse" x="30" y="22" width="16" height="16">
<rect x="0.495899" y="0.499983" width="14" height="14" transform="matrix(1 0 -0.00820296 0.999966 30.8209 22.3325)" fill="#F8F8F8" stroke="#B8B8B8"/>
</mask>
<g mask="url(#mask3_2480_3003)">
<path d="M42.4438 27.1655C42.437 27.9939 41.7599 28.6654 40.9315 28.6654C40.1031 28.6654 39.437 27.9939 39.4438 27.1655C39.4506 26.3371 40.1277 25.6655 40.9561 25.6655C41.7845 25.6655 42.4506 26.3371 42.4438 27.1655Z" fill="#FCEDD4" stroke="#F2BC5E"/>
<rect x="34.3133" y="39.2954" width="7.62232" height="7.62174" rx="2.5" transform="matrix(0.712883 -0.707107 0.701283 0.707107 -17.7053 35.7726)" fill="#E7ECF6" stroke="#7A97CE"/>
<rect x="28.6045" y="36.5269" width="7.62232" height="11.1232" rx="2.5" transform="matrix(0.712883 -0.707107 0.701283 0.707107 -17.4028 30.9249)" fill="#E7ECF6" stroke="#7A97CE"/>
</g>
<rect x="0.495899" y="0.499983" width="14" height="14" transform="matrix(1 0 -0.00820296 0.999966 30.8209 22.3325)" stroke="#7A97CE"/>
<rect width="15" height="15" transform="matrix(1 0 -0.00820296 0.999966 13.6774 39.332)" fill="white"/>
<mask id="mask4_2480_3003" style="mask-type:alpha" maskUnits="userSpaceOnUse" x="13" y="39" width="16" height="16">
<rect x="0.495899" y="0.499983" width="14" height="14" transform="matrix(1 0 -0.00820296 0.999966 13.6815 39.332)" fill="#F8F8F8" stroke="#B8B8B8"/>
</mask>
<g mask="url(#mask4_2480_3003)">
<path d="M22.6159 46.832C22.6091 47.6604 21.932 48.3319 21.1036 48.3319C20.2751 48.3319 19.6091 47.6604 19.6159 46.832C19.6227 46.0036 20.2997 45.332 21.1282 45.332C21.9566 45.332 22.6227 46.0036 22.6159 46.832Z" fill="#E5F7EE" stroke="#72D1A0"/>
<rect x="0.435571" y="0.553427" width="16.4893" height="7.83288" transform="matrix(0.992627 0.113331 -0.121485 0.993523 13.0306 45.5768)" fill="#E5F7EE" stroke="#72D1A0"/>
</g>
<rect x="0.495899" y="0.499983" width="14" height="14" transform="matrix(1 0 -0.00820296 0.999966 13.6815 39.332)" stroke="#72D1A0"/>
<rect width="15" height="15" transform="matrix(1 0 -0.00820296 0.999966 30.6774 39.332)" fill="white"/>
<mask id="mask5_2480_3003" style="mask-type:alpha" maskUnits="userSpaceOnUse" x="30" y="39" width="16" height="16">
<rect x="0.495899" y="0.499983" width="14" height="14" transform="matrix(1 0 -0.00820296 0.999966 30.6815 39.332)" fill="#F8F8F8" stroke="#B8B8B8"/>
</mask>
<g mask="url(#mask5_2480_3003)">
<path d="M43.6752 59.9148C43.6235 66.2198 38.4702 71.3311 32.1649 71.3311C25.8596 71.3311 20.7902 66.2198 20.8419 59.9148C20.8936 53.6098 26.047 48.4985 32.3522 48.4985C38.6575 48.4985 43.7269 53.6098 43.6752 59.9148Z" fill="#FBE8E8" stroke="#E98080"/>
<path d="M57.0058 60.2478C56.9541 66.5528 51.8007 71.6641 45.4955 71.6641C39.1902 71.6641 34.1207 66.5528 34.1725 60.2478C34.2242 53.9428 39.3775 48.8315 45.6828 48.8315C51.988 48.8315 57.0575 53.9428 57.0058 60.2478Z" fill="#FBE8E8" stroke="#E98080"/>
</g>
<rect x="0.495899" y="0.499983" width="14" height="14" transform="matrix(1 0 -0.00820296 0.999966 30.6815 39.332)" stroke="#E98080"/>
<circle cx="12.65" cy="47.3831" r="9.45" fill="white"/>
<path d="M12.0792 47.9205C12.25 48.083 12.25 48.3496 12.0792 48.5121C11.9167 48.6746 11.65 48.6746 11.4875 48.5121C10.675 47.6996 10.675 46.3788 11.4875 45.5663L12.9625 44.0913C13.775 43.2788 15.0959 43.2788 15.9084 44.0913C16.7209 44.9038 16.7209 46.2246 15.9084 47.0371L15.2875 47.658C15.2917 47.3163 15.2375 46.9746 15.1209 46.6496L15.3167 46.4496C15.8084 45.9621 15.8084 45.1705 15.3167 44.683C14.8292 44.1913 14.0375 44.1913 13.55 44.683L12.0792 46.1538C11.5875 46.6413 11.5875 47.433 12.0792 47.9205ZM13.2542 46.1538C13.4167 45.9913 13.6834 45.9913 13.8459 46.1538C14.6584 46.9663 14.6584 48.2871 13.8459 49.0996L12.3709 50.5746C11.5584 51.3871 10.2375 51.3871 9.42505 50.5746C8.61255 49.7621 8.61255 48.4413 9.42505 47.6288L10.0459 47.008C10.0417 47.3496 10.0959 47.6913 10.2125 48.0205L10.0167 48.2163C9.52505 48.7038 9.52505 49.4955 10.0167 49.983C10.5042 50.4746 11.2959 50.4746 11.7834 49.983L13.2542 48.5121C13.7459 48.0246 13.7459 47.233 13.2542 46.7455C13.0834 46.583 13.0834 46.3163 13.2542 46.1538Z" fill="#BFBFBF"/>
</g>
<defs>
<clipPath id="clip0_2480_3003">
<rect width="60" height="60" fill="white"/>
</clipPath>
</defs>
</svg>
