<svg width="60" height="60" viewBox="0 0 60 60" fill="none" xmlns="http://www.w3.org/2000/svg">
<g clip-path="url(#clip0_2434_1867)">
<path d="M25.9476 20.0585C26.997 20.0111 27.3318 19.9995 30.0019 19.9995C32.6733 19.9995 33.008 20.0111 34.0579 20.0598C37.6308 20.2226 39.5985 22.2116 39.7295 25.779C39.7684 26.828 39.7772 27.1627 39.7553 29.8325C39.7334 32.5024 39.7191 32.8383 39.663 33.8873C39.4721 37.4612 37.4654 39.4424 33.8963 39.6065C32.8468 39.654 32.5107 39.6655 29.8406 39.6655C27.1705 39.6655 26.8359 39.654 25.7872 39.6065C22.213 39.4424 20.2479 37.4573 20.1143 33.8873C20.0742 32.8383 20.0667 32.5036 20.0886 29.8325C20.1105 27.1614 20.1235 26.828 20.1808 25.7777C20.3743 22.2039 22.3758 20.2226 25.9476 20.0585Z" fill="white"/>
<path d="M29.9874 21.7717C32.6139 21.7717 32.9255 21.782 33.9626 21.8294C36.6266 21.95 37.8602 23.2143 37.9603 25.8598C37.9993 26.896 38.0057 27.2076 37.9841 29.8351C37.9626 32.4626 37.9498 32.7716 37.8951 33.8103C37.7452 36.4533 36.4998 37.7202 33.8312 37.8407C32.7933 37.8882 32.4829 37.8985 29.8551 37.8985C27.2273 37.8985 26.9183 37.8882 25.8799 37.8407C23.2096 37.7125 21.9811 36.4494 21.8822 33.8091C21.8433 32.7729 21.8355 32.4626 21.8571 29.8338C21.8787 27.205 21.8915 26.8972 21.9474 25.8585C22.0974 23.2143 23.3428 21.95 26.0113 21.8281C27.0517 21.782 27.3622 21.7717 29.9874 21.7717ZM30.0019 19.9995C27.3318 19.9995 26.997 20.0111 25.9476 20.0585C22.3758 20.2226 20.3743 22.2039 20.1808 25.7777C20.1235 26.828 20.1105 27.1614 20.0886 29.8325C20.0667 32.5036 20.0742 32.8383 20.1143 33.8873C20.2479 37.4573 22.213 39.4424 25.7872 39.6065C26.8359 39.654 27.1705 39.6655 29.8406 39.6655C32.5107 39.6655 32.8468 39.654 33.8963 39.6065C37.4654 39.4424 39.4721 37.4612 39.663 33.8873C39.7191 32.8383 39.7334 32.5024 39.7553 29.8325C39.7772 27.1627 39.7684 26.828 39.7295 25.779C39.5985 22.2116 37.6308 20.2226 34.0579 20.0598C33.008 20.0111 32.6733 19.9995 30.0019 19.9995ZM29.9627 24.7827C28.9638 24.7827 27.985 25.0788 27.1499 25.6337C26.3148 26.1886 25.661 26.9773 25.2712 27.9C24.8814 28.8228 24.773 29.8381 24.9599 30.8177C25.1467 31.7973 25.6203 32.6971 26.3208 33.4033C27.0214 34.1095 27.9173 34.5905 28.8954 34.7853C29.8735 34.9802 30.8897 34.8802 31.8157 34.498C32.7417 34.1158 33.5357 33.4685 34.0975 32.6381C34.6592 31.8076 34.9634 30.8313 34.9716 29.8325C34.9771 29.1694 34.8518 28.5127 34.6031 27.9C34.3543 27.2873 33.9868 26.7306 33.5217 26.2617C33.0566 25.7928 32.5029 25.4208 31.8922 25.167C31.2816 24.9133 30.6259 24.7827 29.9627 24.7827ZM29.8944 33.1102C29.2461 33.1102 28.6139 32.918 28.0778 32.5578C27.5417 32.1976 27.1257 31.6857 26.8825 31.0868C26.6393 30.4879 26.5798 29.8289 26.7115 29.1931C26.8432 28.5573 27.1602 27.9732 27.6224 27.5149C28.0846 27.0565 28.6712 26.7443 29.3081 26.6178C29.9451 26.4914 30.6036 26.5563 31.2006 26.8043C31.7975 27.0524 32.306 27.4725 32.6618 28.0115C33.0175 28.5506 33.2046 29.1843 33.1993 29.8325C33.1921 30.7018 32.8399 31.5355 32.2202 32.1502C31.6004 32.7649 30.7638 33.1102 29.8944 33.1102ZM35.2244 23.4041C34.991 23.4039 34.7622 23.4729 34.567 23.6023C34.3717 23.7318 34.2188 23.916 34.1275 24.1315C34.0362 24.3471 34.0107 24.5843 34.0542 24.8133C34.0977 25.0422 34.2083 25.2525 34.3719 25.4176C34.5355 25.5828 34.7448 25.6953 34.9733 25.7409C35.2019 25.7865 35.4394 25.7632 35.6558 25.674C35.8722 25.5847 36.0577 25.4335 36.189 25.2395C36.3203 25.0454 36.3914 24.8173 36.3934 24.5839C36.3959 24.2712 36.2742 23.9713 36.0551 23.7501C35.8359 23.5289 35.5371 23.4045 35.2244 23.4041Z" fill="#DBC3E9"/>
<path d="M20.1143 33.8873C20.2479 37.4573 22.213 39.4424 25.7872 39.6065C26.8359 39.654 27.1705 39.6655 29.8406 39.6655C32.5107 39.6655 32.8468 39.654 33.8963 39.6065M20.1143 33.8873L25.9476 20.0585C26.997 20.0111 27.3318 19.9995 30.0019 19.9995C32.6733 19.9995 33.008 20.0111 34.0579 20.0598C37.6308 20.2226 39.5985 22.2116 39.7295 25.779C39.7684 26.828 39.7772 27.1627 39.7553 29.8325C39.7334 32.5024 39.7191 32.8383 39.663 33.8873C39.4721 37.4612 37.4654 39.4424 33.8963 39.6065M20.1143 33.8873C20.0742 32.8383 20.0667 32.5036 20.0886 29.8325C20.1105 27.1614 20.1235 26.828 20.1808 25.7777L20.1143 33.8873ZM33.8963 39.6065L33.8774 39.1071M33.8963 39.6065L33.8778 39.1071C33.8776 39.1071 33.8775 39.1071 33.8774 39.1071M33.8774 39.1071C32.8395 39.154 32.5119 39.1655 29.8447 39.1655C27.1775 39.1655 26.8514 39.154 25.8142 39.1071C24.114 39.029 22.8611 38.522 22.0171 37.6707C21.173 36.8193 20.6775 35.5627 20.614 33.8645L20.614 33.8641C20.5743 32.827 20.5667 32.5017 20.5886 29.8325C20.6105 27.1634 20.6234 26.8393 20.6801 25.8009L20.6801 25.8007C20.7722 24.1007 21.2895 22.8441 22.1479 21.9931C23.0064 21.1421 24.2673 20.6361 25.9662 20.558C27.0043 20.511 27.3304 20.4995 29.9978 20.4995C32.6667 20.4995 32.9923 20.511 34.0306 20.5592L34.031 20.5592C35.7304 20.6367 36.9836 21.1442 37.8278 21.9961C38.6721 22.848 39.1675 24.1049 39.2298 25.8015L39.2298 25.8016C39.2683 26.8393 39.2771 27.1652 39.2553 29.8325C39.2334 32.4998 39.2192 32.827 39.1637 33.8647C39.0729 35.5643 38.5551 36.8208 37.696 37.6718C36.8369 38.5229 35.5751 39.029 33.8774 39.1071Z" stroke="#B98BD3"/>
</g>
<defs>
<clipPath id="clip0_2434_1867">
<rect width="60" height="60" fill="white"/>
</clipPath>
</defs>
</svg>
