<svg width="60" height="60" viewBox="0 0 60 60" fill="none" xmlns="http://www.w3.org/2000/svg">
<g clip-path="url(#clip0_2471_2202)">
<path d="M19.7895 25.666C19.8151 22.5365 22.373 19.9995 25.5026 19.9995H34.1693C37.2989 19.9995 39.8151 22.5365 39.7895 25.666L39.7184 34.3324C39.6927 37.4619 37.1348 39.9988 34.0052 39.9988H25.3385C22.2089 39.9988 19.6927 37.4619 19.7184 34.3324L19.7895 25.666Z" fill="white"/>
<path d="M29.8205 21.8017C32.4915 21.8017 32.8084 21.8122 33.8631 21.8604C36.5722 21.983 37.8267 23.2688 37.9286 25.9591C37.9682 27.0128 37.9747 27.3297 37.9528 30.0018C37.9309 32.6738 37.9178 32.9881 37.8622 34.0444C37.7098 36.7321 36.4432 38.0206 33.7295 38.1431C32.674 38.1914 32.3583 38.2018 29.686 38.2018C27.0136 38.2018 26.6994 38.1914 25.6434 38.1431C22.9278 38.0127 21.6785 36.7282 21.5779 34.0431C21.5383 32.9894 21.5305 32.6738 21.5524 30.0005C21.5743 27.3271 21.5873 27.0141 21.6443 25.9578C21.7967 23.2688 23.0632 21.983 25.777 21.8591C26.8351 21.8122 27.1508 21.8017 29.8205 21.8017ZM29.8353 19.9995C27.1199 19.9995 26.7794 20.0112 25.7122 20.0595C22.0799 20.2264 20.0445 22.2412 19.8477 25.8757C19.7894 26.9437 19.7762 27.2828 19.7539 29.9992C19.7316 32.7156 19.7393 33.0559 19.7801 34.1227C19.9159 37.7532 21.9144 39.7719 25.5491 39.9389C26.6156 39.9871 26.9559 39.9988 29.6712 39.9988C32.3866 39.9988 32.7284 39.9871 33.7956 39.9389C37.4253 39.7719 39.4659 37.7571 39.6601 34.1227C39.7171 33.0559 39.7316 32.7143 39.7539 29.9992C39.7762 27.2841 39.7672 26.9437 39.7277 25.877C39.5945 22.249 37.5934 20.2264 33.96 20.0608C32.8922 20.0112 32.5519 19.9995 29.8353 19.9995ZM29.7954 24.8637C28.7796 24.8637 27.7841 25.1649 26.9349 25.7292C26.0857 26.2935 25.4208 27.0955 25.0244 28.0339C24.6279 28.9723 24.5178 30.0049 24.7078 31.0011C24.8978 31.9972 25.3794 32.9123 26.0918 33.6305C26.8042 34.3487 27.7153 34.8378 28.71 35.036C29.7046 35.2341 30.7381 35.1324 31.6798 34.7437C32.6214 34.355 33.429 33.6968 34.0002 32.8523C34.5715 32.0078 34.8809 31.0149 34.8892 29.9992C34.8948 29.3248 34.7674 28.657 34.5144 28.0339C34.2614 27.4109 33.8877 26.8447 33.4147 26.3679C32.9417 25.891 32.3786 25.5127 31.7576 25.2546C31.1366 24.9966 30.4698 24.8637 29.7954 24.8637ZM29.7259 33.3324C29.0666 33.3324 28.4237 33.1369 27.8785 32.7707C27.3333 32.4044 26.9103 31.8838 26.663 31.2747C26.4157 30.6657 26.3552 29.9955 26.4891 29.3489C26.623 28.7023 26.9454 28.1084 27.4154 27.6422C27.8854 27.1761 28.482 26.8586 29.1297 26.73C29.7774 26.6014 30.4472 26.6674 31.0542 26.9197C31.6613 27.172 32.1784 27.5992 32.5402 28.1473C32.902 28.6955 33.0922 29.3399 33.0868 29.9992C33.0796 30.8832 32.7214 31.731 32.0911 32.3561C31.4608 32.9812 30.61 33.3324 29.7259 33.3324ZM35.1463 23.4618C34.9089 23.4616 34.6763 23.5317 34.4777 23.6634C34.2791 23.7951 34.1236 23.9824 34.0308 24.2016C33.938 24.4208 33.912 24.662 33.9563 24.8948C34.0005 25.1277 34.1129 25.3416 34.2793 25.5095C34.4457 25.6774 34.6585 25.7918 34.8909 25.8382C35.1233 25.8846 35.3649 25.8609 35.5849 25.7701C35.805 25.6794 35.9937 25.5256 36.1273 25.3283C36.2608 25.1309 36.3331 24.8989 36.335 24.6616C36.3376 24.3436 36.2139 24.0387 35.991 23.8137C35.7681 23.5887 35.4643 23.4622 35.1463 23.4618Z" fill="#DBC3E9"/>
<path d="M25.4985 20.4995H34.1652C37.0186 20.4995 39.3129 22.8126 39.2895 25.666L39.2184 34.3324C39.195 37.1857 36.8628 39.4989 34.0093 39.4989H25.3426C22.4892 39.4989 20.195 37.1857 20.2184 34.3324L20.2895 25.666C20.3129 22.8126 22.645 20.4995 25.4985 20.4995Z" stroke="#B98BD3"/>
</g>
<defs>
<clipPath id="clip0_2471_2202">
<rect width="60" height="60" fill="white"/>
</clipPath>
</defs>
</svg>
