<svg width="60" height="60" viewBox="0 0 60 60" fill="none" xmlns="http://www.w3.org/2000/svg">
<g clip-path="url(#clip0_2449_16705)">
<mask id="path-1-outside-1_2449_16705" maskUnits="userSpaceOnUse" x="18.6637" y="19.999" width="21.1723" height="20.9993" fill="black">
<rect fill="white" x="18.6637" y="19.999" width="21.1723" height="20.9993"/>
<path d="M19.8359 19.999H39.8359L39.6719 39.9984H19.6719L19.8359 19.999Z"/>
</mask>
<path d="M19.8359 19.999H39.8359L39.6719 39.9984H19.6719L19.8359 19.999Z" fill="white"/>
<path d="M19.6719 39.9984H18.6719L18.6637 40.9983H19.6637L19.6719 39.9984ZM39.6801 38.9984H19.6801L19.6637 40.9983H39.6637L39.6801 38.9984ZM20.6719 39.9984L20.8359 19.999H18.8359L18.6719 39.9984H20.6719Z" fill="#D4D4D4" mask="url(#path-1-outside-1_2449_16705)"/>
<rect x="0.495899" y="0.499983" width="19" height="19" transform="matrix(1 0 -0.00820296 0.999966 19.84 19.999)" fill="white" stroke="#D4D4D4"/>
<circle r="4.5" transform="matrix(1 0 -0.00820296 0.999966 39.8359 19.9989)" fill="white" stroke="#D4D4D4"/>
<mask id="path-5-inside-2_2449_16705" fill="white">
<path d="M39.877 14.999C40.7569 14.999 41.6193 15.2312 42.3772 15.6722C43.135 16.1131 43.7614 16.7472 44.1931 17.5104C44.6248 18.2736 44.8465 19.1388 44.8357 20.0187C44.825 20.8986 44.5823 21.762 44.1321 22.5217C43.6818 23.2814 43.0401 23.9104 42.2715 24.3453C41.503 24.7802 40.635 25.0055 39.7552 24.9985C38.8753 24.9915 38.0148 24.7525 37.2606 24.3055C36.5063 23.8585 35.885 23.2194 35.4594 22.4527L39.8359 19.9989L39.877 14.999Z"/>
</mask>
<path d="M39.877 14.999C40.7569 14.999 41.6193 15.2312 42.3772 15.6722C43.135 16.1131 43.7614 16.7472 44.1931 17.5104C44.6248 18.2736 44.8465 19.1388 44.8357 20.0187C44.825 20.8986 44.5823 21.762 44.1321 22.5217C43.6818 23.2814 43.0401 23.9104 42.2715 24.3453C41.503 24.7802 40.635 25.0055 39.7552 24.9985C38.8753 24.9915 38.0148 24.7525 37.2606 24.3055C36.5063 23.8585 35.885 23.2194 35.4594 22.4527L39.8359 19.9989L39.877 14.999Z" fill="#E5F7EE" stroke="#72D1A0" stroke-width="2" mask="url(#path-5-inside-2_2449_16705)"/>
</g>
<defs>
<clipPath id="clip0_2449_16705">
<rect width="60" height="60" fill="white"/>
</clipPath>
</defs>
</svg>
