<svg width="60" height="60" viewBox="0 0 60 60" fill="none" xmlns="http://www.w3.org/2000/svg">
<g clip-path="url(#clip0_2449_3182)">
<rect width="20" height="2" transform="matrix(1 0 -0.00820296 0.999966 19.7539 29.999)" fill="#D4D4D4"/>
<rect width="20" height="2" transform="matrix(1 0 -0.00820296 0.999966 19.7211 33.999)" fill="#D4D4D4"/>
<rect width="20" height="2" transform="matrix(1 0 -0.00820296 0.999966 19.6883 37.9985)" fill="#D4D4D4"/>
<path d="M19.7703 27.9992L19.7744 27.4951H20.0142C20.174 27.4951 20.3149 27.4764 20.437 27.439C20.5667 27.4017 20.67 27.327 20.7471 27.215C20.8241 27.1029 20.8635 26.9349 20.8654 26.7108L20.9102 21.2432C20.912 21.0266 20.8714 20.866 20.7886 20.7614C20.7133 20.6568 20.6112 20.5896 20.482 20.5597C20.3606 20.5224 20.2237 20.5037 20.0715 20.5037H19.8318L19.8359 19.9995H23.3291L23.325 20.5037H23.0852C22.933 20.5037 22.7921 20.5224 22.6624 20.5597C22.5327 20.5971 22.4294 20.6718 22.3523 20.7838C22.2754 20.8884 22.2359 21.0564 22.234 21.288L22.2157 23.5288H25.7316L25.75 21.288C25.7519 21.0564 25.7153 20.8884 25.64 20.7838C25.5648 20.6718 25.4627 20.5971 25.3336 20.5597C25.2122 20.5224 25.0715 20.5037 24.9117 20.5037H24.672L24.6761 19.9995H28.1693L28.1651 20.5037H27.9254C27.7732 20.5037 27.6323 20.5224 27.5026 20.5597C27.3729 20.5971 27.2695 20.6718 27.1925 20.7838C27.1156 20.8884 27.0761 21.0564 27.0742 21.288L27.0293 26.7668C27.0276 26.9759 27.0643 27.1328 27.1396 27.2374C27.2224 27.3419 27.3246 27.4129 27.446 27.4502C27.5752 27.4801 27.7158 27.4951 27.8681 27.4951H28.1078L28.1036 27.9992H24.6105L24.6146 27.4951H24.8544C25.0142 27.4951 25.1551 27.4764 25.2772 27.439C25.4069 27.4017 25.5102 27.327 25.5872 27.215C25.6643 27.1029 25.7037 26.9349 25.7055 26.7108L25.7268 24.1226H22.2108L22.1896 26.7108C22.1877 26.9349 22.2244 27.1029 22.2996 27.215C22.3748 27.327 22.4769 27.4017 22.606 27.439C22.735 27.4764 22.8757 27.4951 23.0279 27.4951H23.2676L23.2635 27.9992H19.7703Z" fill="#D4D4D4"/>
<ellipse cx="13.65" cy="46.0501" rx="9.45" ry="9.45" fill="white"/>
<rect width="10" height="10" transform="translate(8.66669 41)" fill="white"/>
<path d="M13.0792 46.5875C13.25 46.75 13.25 47.0166 13.0792 47.1791C12.9167 47.3416 12.65 47.3416 12.4875 47.1791C11.675 46.3666 11.675 45.0458 12.4875 44.2333L13.9625 42.7583C14.775 41.9458 16.0959 41.9458 16.9084 42.7583C17.7209 43.5708 17.7209 44.8916 16.9084 45.7041L16.2876 46.325C16.2917 45.9833 16.2375 45.6416 16.1209 45.3166L16.3167 45.1166C16.8084 44.6291 16.8084 43.8375 16.3167 43.35C15.8292 42.8583 15.0375 42.8583 14.55 43.35L13.0792 44.8208C12.5875 45.3083 12.5875 46.1 13.0792 46.5875ZM14.2542 44.8208C14.4167 44.6583 14.6834 44.6583 14.8459 44.8208C15.6584 45.6333 15.6584 46.9541 14.8459 47.7666L13.3709 49.2416C12.5584 50.0541 11.2375 50.0541 10.425 49.2416C9.61255 48.4291 9.61255 47.1083 10.425 46.2958L11.0459 45.675C11.0417 46.0166 11.0959 46.3583 11.2125 46.6875L11.0167 46.8833C10.525 47.3708 10.525 48.1625 11.0167 48.65C11.5042 49.1416 12.2959 49.1416 12.7834 48.65L14.2542 47.1791C14.7459 46.6916 14.7459 45.9 14.2542 45.4125C14.0834 45.25 14.0834 44.9833 14.2542 44.8208Z" fill="#6B6B6B"/>
</g>
<defs>
<clipPath id="clip0_2449_3182">
<rect width="60" height="60" fill="white"/>
</clipPath>
</defs>
</svg>
