<svg width="60" height="60" viewBox="0 0 60 60" fill="none" xmlns="http://www.w3.org/2000/svg">
<g clip-path="url(#clip0_2471_3225)">
<rect width="30" height="30" transform="matrix(1 0 -0.00820296 0.999966 14.918 9.99951)" fill="white"/>
<mask id="mask0_2471_3225" style="mask-type:alpha" maskUnits="userSpaceOnUse" x="14" y="9" width="31" height="31">
<rect x="0.495899" y="0.499983" width="29" height="29" transform="matrix(1 0 -0.00820296 0.999966 14.9221 9.99953)" fill="#F8F8F8" stroke="#B8B8B8"/>
</mask>
<g mask="url(#mask0_2471_3225)">
<circle r="3.5" transform="matrix(1 0 -0.00820296 0.999966 35.172 19.6659)" fill="#FCEDD4" stroke="#F2BC5E"/>
<rect x="21.2041" y="43.9263" width="16.2446" height="16.2435" rx="2.5" transform="matrix(0.712883 -0.707107 0.701283 0.707107 -24.7167 27.8593)" fill="#E7ECF6" stroke="#7A97CE"/>
<rect x="9.78637" y="38.3882" width="16.2446" height="23.2464" rx="2.5" transform="matrix(0.712883 -0.707107 0.701283 0.707107 -24.1111 18.1636)" fill="#E7ECF6" stroke="#7A97CE"/>
</g>
<rect x="0.495899" y="0.499983" width="29" height="29" transform="matrix(1 0 -0.00820296 0.999966 14.9221 9.99953)" stroke="#BBC9E6"/>
<rect width="20" height="2" transform="matrix(1 0 -0.00820296 0.999966 19.639 43.9985)" fill="#C6C6C6"/>
<rect width="20" height="2" transform="matrix(1 0 -0.00820296 0.999966 19.6063 47.998)" fill="#C6C6C6"/>
</g>
<defs>
<clipPath id="clip0_2471_3225">
<rect width="60" height="60" fill="white"/>
</clipPath>
</defs>
</svg>
