<svg width="60" height="60" viewBox="0 0 60 60" fill="none" xmlns="http://www.w3.org/2000/svg">
<g clip-path="url(#clip0_2629_1791)">
<mask id="path-1-inside-1_2629_1791" fill="white">
<path fill-rule="evenodd" clip-rule="evenodd" d="M35.9919 30.8099C38.2962 28.9774 39.7854 26.1595 39.8113 22.9992C39.8566 17.4765 35.4162 12.9995 29.8934 12.9995C24.3705 12.9995 19.8566 17.4765 19.8113 22.9992C19.7854 26.1595 21.2284 28.9774 23.5026 30.8099L27.3425 43.3318H29.6445L31.9466 43.3318L35.9919 30.8099Z"/>
</mask>
<path fill-rule="evenodd" clip-rule="evenodd" d="M35.9919 30.8099C38.2962 28.9774 39.7854 26.1595 39.8113 22.9992C39.8566 17.4765 35.4162 12.9995 29.8934 12.9995C24.3705 12.9995 19.8566 17.4765 19.8113 22.9992C19.7854 26.1595 21.2284 28.9774 23.5026 30.8099L27.3425 43.3318H29.6445L31.9466 43.3318L35.9919 30.8099Z" fill="#FCEDD4"/>
<path d="M35.9919 30.8099L35.3734 30.0293L35.1343 30.2194L35.0406 30.5096L35.9919 30.8099ZM23.5026 30.8099L24.4589 30.5096L24.3699 30.2194L24.134 30.0293L23.5026 30.8099ZM27.3425 43.3318L26.3862 43.6321L26.6007 44.3318H27.3343L27.3425 43.3318ZM29.6445 43.3318L29.6527 42.3319H29.6527L29.6445 43.3318ZM31.9466 43.3318L31.9384 44.3318L32.672 44.3318L32.898 43.6321L31.9466 43.3318ZM38.8113 22.9992C38.788 25.843 37.4493 28.3784 35.3734 30.0293L36.6105 31.5905C39.1431 29.5765 40.7828 26.476 40.8113 22.9992H38.8113ZM29.8852 13.9995C34.8557 13.9995 38.8521 18.0288 38.8113 22.9992H40.8113C40.8612 16.9242 35.9767 11.9995 29.9016 11.9995L29.8852 13.9995ZM20.8113 22.9992C20.8521 18.0288 24.9146 13.9995 29.8852 13.9995L29.9016 11.9995C23.8264 11.9995 18.8612 16.9242 18.8113 22.9992H20.8113ZM24.134 30.0293C22.0852 28.3784 20.788 25.843 20.8113 22.9992H18.8113C18.7828 26.476 20.3717 29.5765 22.8713 31.5906L24.134 30.0293ZM22.5463 31.1102L26.3862 43.6321L28.2988 43.0315L24.4589 30.5096L22.5463 31.1102ZM27.3343 44.3318H29.6363L29.6527 42.3319H27.3507L27.3343 44.3318ZM29.6363 44.3318L31.9384 44.3318L31.9548 42.3319L29.6527 42.3319L29.6363 44.3318ZM32.898 43.6321L36.9433 31.1102L35.0406 30.5096L30.9953 43.0315L32.898 43.6321Z" fill="#F2BC5E" mask="url(#path-1-inside-1_2629_1791)"/>
<mask id="path-3-inside-2_2629_1791" fill="white">
<path fill-rule="evenodd" clip-rule="evenodd" d="M34.7129 34.999H24.7129L24.6309 44.9987L29.6063 47.9986L34.6309 44.9987L34.7129 34.999Z"/>
</mask>
<path fill-rule="evenodd" clip-rule="evenodd" d="M34.7129 34.999H24.7129L24.6309 44.9987L29.6063 47.9986L34.6309 44.9987L34.7129 34.999Z" fill="#E2F6F6"/>
<path d="M24.7129 34.999L24.7211 33.9991H23.7211L23.7129 34.999H24.7129ZM34.7129 34.999H35.7129L35.7211 33.9991H34.7211L34.7129 34.999ZM24.6309 44.9987H23.6309L23.6262 45.5649L24.1093 45.8562L24.6309 44.9987ZM29.6063 47.9986L29.0847 48.8561L29.5967 49.1647L30.1137 48.8561L29.6063 47.9986ZM34.6309 44.9987L35.1383 45.8562L35.6262 45.5649L35.6309 44.9987H34.6309ZM24.7047 35.999H34.7047L34.7211 33.9991H24.7211L24.7047 35.999ZM25.6309 44.9987L25.7129 34.999H23.7129L23.6309 44.9987H25.6309ZM24.1093 45.8562L29.0847 48.8561L30.1278 47.1411L25.1524 44.1412L24.1093 45.8562ZM30.1137 48.8561L35.1383 45.8562L34.1234 44.1412L29.0988 47.1411L30.1137 48.8561ZM33.7129 34.999L33.6309 44.9987H35.6309L35.7129 34.999H33.7129Z" fill="#61CCCC" mask="url(#path-3-inside-2_2629_1791)"/>
<circle cx="3.33333" cy="3.33333" r="3.33333" transform="matrix(1 0 -0.00820296 0.999966 26.4753 23.3325)" fill="white"/>
<line y1="-0.5" x2="9.33333" y2="-0.5" transform="matrix(1 0 -0.00820296 0.999966 24.9642 44.9985)" stroke="#61CCCC"/>
</g>
<defs>
<clipPath id="clip0_2629_1791">
<rect width="60" height="60" fill="white"/>
</clipPath>
</defs>
</svg>
