<svg width="60" height="60" viewBox="0 0 60 60" fill="none" xmlns="http://www.w3.org/2000/svg">
<g clip-path="url(#clip0_2437_9532)">
<rect width="20" height="2" transform="matrix(1 0 -0.00820296 0.999966 19.7539 29.999)" fill="#949494"/>
<rect width="20" height="2" transform="matrix(1 0 -0.00820296 0.999966 19.7211 33.999)" fill="#949494"/>
<rect width="20" height="2" transform="matrix(1 0 -0.00820296 0.999966 19.6883 37.9985)" fill="#949494"/>
<path d="M19.7703 27.9992L19.7744 27.4951H20.0142C20.174 27.4951 20.3149 27.4764 20.437 27.439C20.5667 27.4017 20.67 27.327 20.7471 27.215C20.8241 27.1029 20.8635 26.9349 20.8654 26.7108L20.9102 21.2432C20.912 21.0266 20.8714 20.866 20.7886 20.7614C20.7133 20.6568 20.6112 20.5896 20.482 20.5597C20.3606 20.5224 20.2237 20.5037 20.0715 20.5037H19.8318L19.8359 19.9995H23.3291L23.325 20.5037H23.0852C22.933 20.5037 22.7921 20.5224 22.6624 20.5597C22.5327 20.5971 22.4294 20.6718 22.3523 20.7838C22.2754 20.8884 22.2359 21.0564 22.234 21.288L22.2157 23.5288H25.7316L25.75 21.288C25.7519 21.0564 25.7153 20.8884 25.64 20.7838C25.5648 20.6718 25.4627 20.5971 25.3336 20.5597C25.2122 20.5224 25.0715 20.5037 24.9117 20.5037H24.672L24.6761 19.9995H28.1693L28.1651 20.5037H27.9254C27.7732 20.5037 27.6323 20.5224 27.5026 20.5597C27.3729 20.5971 27.2695 20.6718 27.1925 20.7838C27.1156 20.8884 27.0761 21.0564 27.0742 21.288L27.0293 26.7668C27.0276 26.9759 27.0643 27.1328 27.1396 27.2374C27.2224 27.3419 27.3246 27.4129 27.446 27.4502C27.5752 27.4801 27.7158 27.4951 27.8681 27.4951H28.1078L28.1036 27.9992H24.6105L24.6146 27.4951H24.8544C25.0142 27.4951 25.1551 27.4764 25.2772 27.439C25.4069 27.4017 25.5102 27.327 25.5872 27.215C25.6643 27.1029 25.7037 26.9349 25.7055 26.7108L25.7268 24.1226H22.2108L22.1896 26.7108C22.1877 26.9349 22.2244 27.1029 22.2996 27.215C22.3748 27.327 22.4769 27.4017 22.606 27.439C22.735 27.4764 22.8757 27.4951 23.0279 27.4951H23.2676L23.2635 27.9992H19.7703Z" fill="#949494"/>
</g>
<defs>
<clipPath id="clip0_2437_9532">
<rect width="60" height="60" fill="white"/>
</clipPath>
</defs>
</svg>
