<svg width="60" height="60" viewBox="0 0 60 60" fill="none" xmlns="http://www.w3.org/2000/svg">
<g clip-path="url(#clip0_2471_2674)">
<rect width="15" height="2" transform="matrix(1 0 -0.00820296 0.999966 29.881 14.4995)" fill="#6B6B6B"/>
<rect width="15" height="2" transform="matrix(1 0 -0.00820296 0.999966 29.8482 18.4995)" fill="#6B6B6B"/>
<rect width="15" height="2" transform="matrix(1 0 -0.00820296 0.999966 29.7785 26.999)" fill="#C6C6C6"/>
<rect width="15" height="2" transform="matrix(1 0 -0.00820296 0.999966 29.7457 30.999)" fill="#C6C6C6"/>
<rect width="15" height="2" transform="matrix(1 0 -0.00820296 0.999966 29.6746 39.6655)" fill="#C6C6C6"/>
<rect width="15" height="2" transform="matrix(1 0 -0.00820296 0.999966 29.6418 43.6655)" fill="#C6C6C6"/>
<g clip-path="url(#clip1_2471_2674)">
<circle r="4.5" transform="matrix(1 0 -0.00820296 0.999966 19.8564 17.4993)" fill="white" stroke="#C6C6C6"/>
<path d="M18.5959 19.9995L18.5985 19.6757H19.0974C19.2004 19.6757 19.2895 19.6637 19.3646 19.6397C19.4445 19.6109 19.5058 19.5606 19.5485 19.4886C19.596 19.4167 19.6202 19.3111 19.6214 19.172L19.652 15.4446C19.5337 15.5934 19.4225 15.7253 19.3185 15.8404C19.2146 15.9507 19.1155 16.0371 19.0213 16.0994C18.9271 16.1618 18.8332 16.193 18.7395 16.193C18.6318 16.193 18.5431 16.1546 18.4735 16.0779C18.4039 15.9963 18.3696 15.8908 18.3707 15.7612C18.4646 15.7373 18.5608 15.7061 18.6595 15.6677C18.7629 15.6245 18.8758 15.567 18.9982 15.495C19.1253 15.4183 19.2666 15.3223 19.4221 15.2072L19.9169 14.833H20.4579L20.4223 19.172C20.4212 19.3063 20.4414 19.4119 20.483 19.4886C20.5245 19.5606 20.585 19.6109 20.6644 19.6397C20.7438 19.6637 20.8327 19.6757 20.9311 19.6757H21.3386L21.3359 19.9995H18.5959Z" fill="#6B6B6B"/>
</g>
<g clip-path="url(#clip2_2471_2674)">
<circle r="4.5" transform="matrix(1 0 -0.00820296 0.999966 19.7539 29.9989)" fill="white" stroke="#C6C6C6"/>
</g>
<g clip-path="url(#clip3_2471_2674)">
<circle r="4.5" transform="matrix(1 0 -0.00820296 0.999966 19.6514 42.4984)" fill="white" stroke="#C6C6C6"/>
</g>
</g>
<defs>
<clipPath id="clip0_2471_2674">
<rect width="60" height="60" fill="white"/>
</clipPath>
<clipPath id="clip1_2471_2674">
<rect width="10" height="10" fill="white" transform="matrix(1 0 -0.00820296 0.999966 14.8975 12.4995)"/>
</clipPath>
<clipPath id="clip2_2471_2674">
<rect width="10" height="10" fill="white" transform="matrix(1 0 -0.00820296 0.999966 14.7949 24.999)"/>
</clipPath>
<clipPath id="clip3_2471_2674">
<rect width="10" height="10" fill="white" transform="matrix(1 0 -0.00820296 0.999966 14.6924 37.4985)"/>
</clipPath>
</defs>
</svg>
