<svg width="60" height="60" viewBox="0 0 60 60" fill="none" xmlns="http://www.w3.org/2000/svg">
<g clip-path="url(#clip0_2471_1278)">
<path d="M16.6954 37.1248L16.7031 36.1925H17.0567C17.3341 36.1925 17.5564 36.1511 17.7235 36.0682C17.9045 35.9854 18.0652 35.8334 18.2057 35.6125C18.3602 35.3777 18.5155 35.0393 18.6717 34.5973L23.37 22.3325H25.3255L29.8193 34.9909C29.9415 35.3086 30.0643 35.5572 30.1877 35.7368C30.325 35.9025 30.4835 36.0199 30.6633 36.089C30.8569 36.158 31.0785 36.1925 31.3281 36.1925H31.6194L31.6117 37.1248H25.5786L25.5863 36.1925H26.148C26.5086 36.1925 26.7935 36.1166 27.0028 35.9647C27.2121 35.8127 27.3181 35.571 27.3208 35.2395C27.3215 35.1567 27.3152 35.0738 27.3021 34.9909C27.2889 34.9081 27.2688 34.8183 27.2418 34.7216C27.2149 34.6249 27.1879 34.5351 27.1608 34.4523L26.368 32.1941H21.0006L20.2555 34.2658C20.213 34.3763 20.1774 34.4937 20.1486 34.618C20.12 34.7285 20.0913 34.839 20.0627 34.9495C20.048 35.0462 20.0403 35.1429 20.0395 35.2395C20.0369 35.5572 20.1459 35.7989 20.3664 35.9647C20.5871 36.1166 20.8916 36.1925 21.2799 36.1925H21.8832L21.8756 37.1248H16.6954ZM21.4257 31.096H25.9818L24.7836 27.5326C24.6619 27.1459 24.5333 26.7661 24.3976 26.3932C24.2759 26.0202 24.1679 25.6611 24.0736 25.3158C23.9795 24.9567 23.8922 24.6114 23.8117 24.28C23.7542 24.5286 23.6897 24.7772 23.6183 25.0258C23.547 25.2606 23.4688 25.5023 23.3835 25.7509C23.3121 25.9995 23.2268 26.2619 23.1274 26.5382C23.0421 26.8006 22.9358 27.0768 22.8086 27.3669L21.4257 31.096Z" fill="#C6C6C6"/>
<path d="M35.8493 37.332C35.239 37.332 34.6852 37.2146 34.1879 36.9798C33.7045 36.7312 33.3261 36.3652 33.0527 35.8818C32.7794 35.3846 32.6458 34.7561 32.6521 33.9965C32.6611 32.8916 33.0562 32.0767 33.8371 31.5518C34.6182 31.0132 35.8065 30.7162 37.4019 30.661L39.1083 30.5988L39.1182 29.3972C39.1222 28.9 39.0842 28.4649 39.004 28.092C38.9378 27.7191 38.7806 27.429 38.5327 27.2219C38.2849 27.0009 37.9044 26.8904 37.3912 26.8904C36.9058 26.8904 36.5305 26.9871 36.2654 27.1804C36.0142 27.3738 35.8386 27.6431 35.7387 27.9884C35.6528 28.3199 35.608 28.7066 35.6044 29.1486C34.9386 29.1486 34.4332 29.0519 34.0881 28.8585C33.743 28.6514 33.5725 28.3061 33.5765 27.8227C33.5805 27.3254 33.7571 26.9318 34.1063 26.6418C34.4692 26.3517 34.9425 26.1376 35.5262 25.9995C36.1237 25.8614 36.7761 25.7923 37.4834 25.7923C38.801 25.7923 39.7835 26.0617 40.4309 26.6003C41.0922 27.139 41.4176 28.0575 41.4069 29.3558L41.3631 34.7009C41.3599 35.0876 41.399 35.3915 41.4804 35.6125C41.5619 35.8196 41.6994 35.9716 41.8927 36.0682C42.0862 36.1511 42.3355 36.1925 42.6407 36.1925H42.7031L42.6954 37.1248H39.5957L39.2558 35.4467H39.0685C38.7742 35.8196 38.4872 36.1511 38.2074 36.4412C37.9278 36.7174 37.607 36.9384 37.245 37.1041C36.8832 37.256 36.4179 37.332 35.8493 37.332ZM36.5261 35.9854C37.0531 35.9854 37.5047 35.8749 37.881 35.6539C38.2574 35.4191 38.5514 35.0876 38.7629 34.6595C38.9745 34.2313 39.0826 33.7341 39.0872 33.1678L39.1007 31.5311L37.8727 31.5933C37.1513 31.6209 36.5817 31.7383 36.1639 31.9455C35.7463 32.1388 35.4458 32.4151 35.2626 32.7742C35.0932 33.1333 35.0063 33.5752 35.002 34.1001C34.9986 34.5144 35.0512 34.8666 35.1598 35.1567C35.2685 35.4329 35.4332 35.6401 35.654 35.7782C35.8886 35.9163 36.1793 35.9854 36.5261 35.9854Z" fill="#C6C6C6"/>
</g>
<defs>
<clipPath id="clip0_2471_1278">
<rect width="60" height="60" fill="white"/>
</clipPath>
</defs>
</svg>
