<svg width="60" height="60" viewBox="0 0 60 60" fill="none" xmlns="http://www.w3.org/2000/svg">
<g clip-path="url(#clip0_2449_1880)">
<path d="M15.6954 37.1248L15.7051 35.9439H15.8916C16.1264 35.9439 16.3408 35.9025 16.5349 35.8196C16.7427 35.7368 16.9304 35.5917 17.0978 35.3846C17.2791 35.1774 17.4473 34.8735 17.6025 34.473L22.1358 22.3325H25.4715L29.6604 34.4937C29.7817 34.8528 29.9244 35.136 30.0885 35.3431C30.2525 35.5503 30.4309 35.7022 30.6234 35.7989C30.8298 35.8956 31.0504 35.9439 31.2852 35.9439H31.5753L31.5656 37.1248H24.2728L24.2825 35.9439H25.1112C25.3184 35.9439 25.5121 35.8956 25.6925 35.7989C25.8868 35.6884 25.985 35.4951 25.9873 35.2188C25.9883 35.0945 25.9755 34.9702 25.9489 34.8459C25.9361 34.7216 25.9094 34.6111 25.8688 34.5144C25.8421 34.4039 25.8151 34.3211 25.7879 34.2658L25.1204 32.2977H20.2723L19.7204 33.9136C19.6919 34.0241 19.6493 34.1553 19.5929 34.3073C19.5502 34.4592 19.5143 34.618 19.4853 34.7838C19.4565 34.9357 19.4415 35.0738 19.4405 35.1981C19.4386 35.4329 19.5061 35.6194 19.6431 35.7575C19.794 35.8818 20.0007 35.9439 20.2631 35.9439H21.2162L21.2065 37.1248H15.6954ZM20.7186 30.9303H24.6965L23.5874 27.2219C23.5068 26.9456 23.4194 26.6556 23.3252 26.3517C23.2449 26.0479 23.1645 25.7371 23.0843 25.4194C23.0041 25.088 22.9308 24.7703 22.8642 24.4664C22.8071 24.6874 22.7431 24.9153 22.6721 25.1501C22.6012 25.3711 22.5303 25.599 22.4593 25.8338C22.3883 26.0686 22.3104 26.3034 22.2256 26.5382C22.1548 26.7592 22.084 26.9732 22.0132 27.1804L20.7186 30.9303Z" fill="#949494"/>
<path d="M35.7171 37.332C35.1232 37.332 34.5786 37.2077 34.0834 36.9591C33.5882 36.7105 33.1976 36.3376 32.9116 35.8404C32.6258 35.3293 32.486 34.694 32.4922 33.9343C32.5015 32.8018 32.8882 31.9662 33.6523 31.4275C34.4302 30.8889 35.5859 30.5919 37.1195 30.5367L38.8189 30.4745L38.8281 29.3558C38.8321 28.8724 38.8009 28.4649 38.7345 28.1334C38.6683 27.7881 38.5531 27.5257 38.3888 27.3462C38.2245 27.1666 37.9904 27.0768 37.6866 27.0768C37.3965 27.0768 37.161 27.1666 36.9799 27.3462C36.7989 27.5257 36.6587 27.7812 36.5593 28.1127C36.4737 28.4442 36.429 28.8447 36.4251 29.3143C35.4168 29.3143 34.658 29.2107 34.1487 29.0036C33.6532 28.7826 33.4077 28.4097 33.412 27.8848C33.4163 27.36 33.62 26.9456 34.023 26.6418C34.44 26.3241 34.9874 26.0962 35.6654 25.9581C36.3434 25.8062 37.0899 25.7302 37.9048 25.7302C39.438 25.7302 40.5822 25.9926 41.3376 26.5175C42.093 27.0285 42.4655 27.9263 42.455 29.2107L42.4118 34.473C42.4088 34.8459 42.4408 35.1429 42.5081 35.3638C42.5893 35.571 42.7192 35.723 42.898 35.8196C43.0907 35.9025 43.339 35.9439 43.6428 35.9439H43.7257L43.716 37.1248H39.4274L38.9614 35.8404H38.7749C38.468 36.2133 38.1755 36.5102 37.8974 36.7312C37.6333 36.9384 37.3282 37.0903 36.9821 37.187C36.6498 37.2837 36.2281 37.332 35.7171 37.332ZM37.139 35.7368C37.4843 35.7368 37.7752 35.6332 38.0117 35.426C38.2622 35.205 38.4511 34.9012 38.5786 34.5144C38.7199 34.1277 38.7926 33.6788 38.7968 33.1678L38.8092 31.6554L38.0422 31.7176C37.5723 31.7452 37.2054 31.8488 36.9415 32.0283C36.6776 32.2079 36.4822 32.4634 36.3551 32.7949C36.242 33.1125 36.1835 33.5131 36.1795 33.9965C36.1765 34.3694 36.2084 34.6871 36.2753 34.9495C36.3422 35.2119 36.4442 35.4122 36.5812 35.5503C36.7321 35.6746 36.918 35.7368 37.139 35.7368Z" fill="#949494"/>
</g>
<defs>
<clipPath id="clip0_2449_1880">
<rect width="60" height="60" fill="white"/>
</clipPath>
</defs>
</svg>
