<svg width="60" height="60" viewBox="0 0 60 60" fill="none" xmlns="http://www.w3.org/2000/svg">
<g clip-path="url(#clip0_2482_2910)">
<g clip-path="url(#clip1_2482_2910)">
<rect width="20" height="20" rx="9.99998" transform="matrix(1 0 -0.00820296 0.999966 7.16925 19.9995)" fill="white"/>
<mask id="mask0_2482_2910" style="mask-type:alpha" maskUnits="userSpaceOnUse" x="7" y="19" width="21" height="21">
<rect x="0.495899" y="0.499983" width="19" height="19" rx="9.49998" transform="matrix(1 0 -0.00820296 0.999966 7.17335 19.9995)" fill="#CBF7E1" stroke="#1FC47A"/>
</mask>
<g mask="url(#mask0_2482_2910)">
<rect x="0.495899" y="0.499983" width="4.33333" height="4.33333" rx="2.16667" transform="matrix(1 0 -0.00820296 0.999966 14.493 21.666)" fill="#FCEDD4" stroke="#F2BC5E"/>
<rect x="0.495899" y="0.499983" width="6.85713" height="6.85713" rx="3.42856" transform="matrix(1 0 -0.00820296 0.999966 13.2184 23.2139)" fill="#E2F6F6" stroke="#61CCCC"/>
<mask id="path-5-inside-1_2482_2910" fill="white">
<path fill-rule="evenodd" clip-rule="evenodd" d="M20.5375 25.1918C19.5827 25.9081 18.3979 26.3328 17.1173 26.3328C15.8367 26.3328 14.6588 25.9081 13.7158 25.1917C14.4028 24.01 15.6831 23.2139 17.1428 23.2139C18.6026 23.2139 19.8699 24.01 20.5375 25.1918Z"/>
</mask>
<path fill-rule="evenodd" clip-rule="evenodd" d="M20.5375 25.1918C19.5827 25.9081 18.3979 26.3328 17.1173 26.3328C15.8367 26.3328 14.6588 25.9081 13.7158 25.1917C14.4028 24.01 15.6831 23.2139 17.1428 23.2139C18.6026 23.2139 19.8699 24.01 20.5375 25.1918Z" fill="#FCEDD4"/>
<path d="M20.5375 25.1918L21.1334 25.9899L21.8411 25.4591L21.4092 24.6946L20.5375 25.1918ZM13.7158 25.1917L12.8522 24.6945L12.4078 25.4589L13.1067 25.9898L13.7158 25.1917ZM19.9416 24.3937C19.1553 24.9835 18.1812 25.3329 17.1255 25.3329L17.1091 27.3328C18.6145 27.3328 20.0101 26.8327 21.1334 25.9899L19.9416 24.3937ZM17.1255 25.3329C16.0698 25.3329 15.1014 24.9835 14.3248 24.3936L13.1067 25.9898C14.2163 26.8326 15.6037 27.3328 17.1091 27.3328L17.1255 25.3329ZM14.5793 25.689C15.0929 24.8054 16.0477 24.2138 17.1346 24.2138L17.151 22.2139C15.3184 22.2139 13.7126 23.2146 12.8522 24.6945L14.5793 25.689ZM17.1346 24.2138C18.2216 24.2138 19.1667 24.8055 19.6658 25.689L21.4092 24.6946C20.5731 23.2146 18.9837 22.2139 17.151 22.2139L17.1346 24.2138Z" fill="#F2BC5E" mask="url(#path-5-inside-1_2482_2910)"/>
<rect x="0.495899" y="0.499983" width="11.1428" height="11.1428" rx="5.57142" transform="matrix(1 0 -0.00820296 0.999966 11.0023 32.1421)" fill="#F2EAF7" stroke="#B98BD3"/>
<rect x="0.495899" y="0.499983" width="19" height="19" rx="9.49998" transform="matrix(1 0 -0.00820296 0.999966 7.17335 19.9995)" stroke="#BFBFBF"/>
</g>
</g>
<g clip-path="url(#clip2_2482_2910)">
<circle r="9.5" transform="matrix(1 0 -0.00820296 0.999966 42.0872 29.9992)" fill="white" stroke="#BFBFBF"/>
<path d="M39.77 28.0354C40.5905 27.9922 41.2106 27.8196 41.6593 27.503L41.5978 34.9992H43.3532L43.4352 24.9995H41.9388C41.7593 25.834 41.0064 26.4095 39.7828 26.4815L39.77 28.0354Z" fill="#B8B8B8"/>
</g>
<circle cx="12.65" cy="47.3831" r="9.45" fill="white"/>
<path d="M12.0792 47.9205C12.25 48.083 12.25 48.3496 12.0792 48.5121C11.9167 48.6746 11.65 48.6746 11.4875 48.5121C10.675 47.6996 10.675 46.3788 11.4875 45.5663L12.9625 44.0913C13.775 43.2788 15.0959 43.2788 15.9084 44.0913C16.7209 44.9038 16.7209 46.2246 15.9084 47.0371L15.2875 47.658C15.2917 47.3163 15.2375 46.9746 15.1209 46.6496L15.3167 46.4496C15.8084 45.9621 15.8084 45.1705 15.3167 44.683C14.8292 44.1913 14.0375 44.1913 13.55 44.683L12.0792 46.1538C11.5875 46.6413 11.5875 47.433 12.0792 47.9205ZM13.2542 46.1538C13.4167 45.9913 13.6834 45.9913 13.8459 46.1538C14.6584 46.9663 14.6584 48.2871 13.8459 49.0996L12.3709 50.5746C11.5584 51.3871 10.2375 51.3871 9.42505 50.5746C8.61255 49.7621 8.61255 48.4413 9.42505 47.6288L10.0459 47.008C10.0417 47.3496 10.0959 47.6913 10.2125 48.0205L10.0167 48.2163C9.52505 48.7038 9.52505 49.4955 10.0167 49.983C10.5042 50.4746 11.2959 50.4746 11.7834 49.983L13.2542 48.5121C13.7459 48.0246 13.7459 47.233 13.2542 46.7455C13.0834 46.583 13.0834 46.3163 13.2542 46.1538Z" fill="#BFBFBF"/>
</g>
<defs>
<clipPath id="clip0_2482_2910">
<rect width="60" height="60" fill="white"/>
</clipPath>
<clipPath id="clip1_2482_2910">
<rect width="20" height="20" fill="white" transform="matrix(1 0 -0.00820296 0.999966 7.16925 19.9995)"/>
</clipPath>
<clipPath id="clip2_2482_2910">
<rect width="20" height="20" fill="white" transform="matrix(1 0 -0.00820296 0.999966 32.1693 19.9995)"/>
</clipPath>
</defs>
</svg>
