<svg width="60" height="60" viewBox="0 0 60 60" fill="none" xmlns="http://www.w3.org/2000/svg">
<g clip-path="url(#clip0_2471_3251)">
<rect width="20" height="20" transform="matrix(1 0 -0.00820296 0.999966 32.5026 19.9995)" fill="white"/>
<mask id="mask0_2471_3251" style="mask-type:alpha" maskUnits="userSpaceOnUse" x="32" y="19" width="21" height="21">
<rect x="0.495899" y="0.499983" width="19" height="19" transform="matrix(1 0 -0.00820296 0.999966 32.5067 19.9995)" fill="#F8F8F8" stroke="#B8B8B8"/>
</mask>
<g mask="url(#mask0_2471_3251)">
<path d="M49.9997 47.443C49.93 55.9418 42.9837 62.8314 34.4846 62.8314C25.9856 62.8314 19.1522 55.9418 19.222 47.443C19.2917 38.9443 26.238 32.0547 34.7371 32.0547C43.2361 32.0547 50.0695 38.9443 49.9997 47.443Z" fill="#FBE8E8" stroke="#E98080"/>
<path d="M67.7738 47.8874C67.7041 56.3861 60.7578 63.2757 52.2587 63.2757C43.7597 63.2757 36.9264 56.3861 36.9961 47.8874C37.0658 39.3886 44.0121 32.499 52.5112 32.499C61.0102 32.499 67.8436 39.3886 67.7738 47.8874Z" fill="#FBE8E8" stroke="#E98080"/>
</g>
<rect x="0.495899" y="0.499983" width="19" height="19" transform="matrix(1 0 -0.00820296 0.999966 32.5067 19.9995)" stroke="#F4BDBD"/>
<rect width="20" height="20" transform="matrix(1 0 -0.00820296 0.999966 7.50262 19.9995)" fill="white"/>
<mask id="mask1_2471_3251" style="mask-type:alpha" maskUnits="userSpaceOnUse" x="7" y="19" width="21" height="21">
<rect x="0.495899" y="0.499983" width="19" height="19" transform="matrix(1 0 -0.00820296 0.999966 7.50673 19.9995)" fill="#F8F8F8" stroke="#B8B8B8"/>
</mask>
<g mask="url(#mask1_2471_3251)">
<circle r="2.16667" transform="matrix(1 0 -0.00820296 0.999966 21.0053 26.4439)" fill="#FCEDD4" stroke="#F2BC5E"/>
<rect x="11.9291" y="42.6177" width="10.4964" height="10.4957" rx="2.5" transform="matrix(0.712883 -0.707107 0.701283 0.707107 -26.462 20.9176)" fill="#E7ECF6" stroke="#7A97CE"/>
<rect x="4.31725" y="38.9253" width="10.4964" height="15.1643" rx="2.5" transform="matrix(0.712883 -0.707107 0.701283 0.707107 -26.0581 14.4537)" fill="#E7ECF6" stroke="#7A97CE"/>
</g>
<rect x="0.495899" y="0.499983" width="19" height="19" transform="matrix(1 0 -0.00820296 0.999966 7.50673 19.9995)" stroke="#BBC9E6"/>
</g>
<defs>
<clipPath id="clip0_2471_3251">
<rect width="60" height="60" fill="white"/>
</clipPath>
</defs>
</svg>
