<svg width="60" height="60" viewBox="0 0 60 60" fill="none" xmlns="http://www.w3.org/2000/svg">
<g clip-path="url(#clip0_2480_1925)">
<path d="M30.7278 38.6637C28.1662 38.6761 25.7803 38.6018 23.3945 38.5026C22.3703 38.4531 21.3461 38.4035 20.3355 38.2176C18.6262 37.9078 17.6717 36.9783 17.4358 35.2805C17.1047 32.9878 17.0112 30.6828 17.1427 28.3529C17.2169 26.9278 17.2786 25.5026 17.5899 24.1022C17.9532 22.4663 19.048 21.5245 20.7361 21.3758C24.6876 21.004 28.6366 20.942 32.5967 21.0412C34.2333 21.0784 35.8697 21.1279 37.4932 21.2395C38.1925 21.289 38.8916 21.3634 39.5654 21.4873C41.0874 21.7723 41.9785 22.8133 42.2273 24.474C42.3812 25.515 42.4602 26.5436 42.4391 27.597C42.4126 29.3072 42.4109 31.0298 42.3969 32.74C42.3888 33.7314 42.2557 34.7228 42.0354 35.6895C41.6981 37.2014 40.5536 38.1061 38.9403 38.2796C36.1513 38.5894 33.3526 38.5646 30.7278 38.6637Z" fill="white"/>
<path d="M30.7278 38.6637C28.1662 38.6761 25.7803 38.6018 23.3945 38.5026C22.3703 38.4531 21.3461 38.4035 20.3355 38.2176C18.6262 37.9078 17.6717 36.9783 17.4358 35.2805C17.1047 32.9878 17.0112 30.6828 17.1427 28.3529C17.2169 26.9278 17.2786 25.5026 17.5899 24.1022C17.9532 22.4663 19.048 21.5245 20.7361 21.3758C24.6876 21.004 28.6366 20.942 32.5967 21.0412C34.2333 21.0784 35.8697 21.1279 37.4932 21.2395C38.1925 21.289 38.8916 21.3634 39.5654 21.4873C41.0874 21.7723 41.9785 22.8133 42.2273 24.474C42.3812 25.515 42.4602 26.5436 42.4391 27.597C42.4126 29.3072 42.4109 31.0298 42.3969 32.74C42.3888 33.7314 42.2557 34.7228 42.0354 35.6895C41.6981 37.2014 40.5536 38.1061 38.9403 38.2796C36.1513 38.5894 33.3526 38.5646 30.7278 38.6637ZM33.9116 29.8277C31.6978 28.5636 29.5339 27.3243 27.345 26.0727C27.3241 28.6132 27.304 31.067 27.2833 33.5951C29.4928 32.331 31.6645 31.1041 33.9116 29.8277Z" fill="#F4BDBD"/>
<path d="M20.4299 37.7258L20.4286 37.7256C19.6429 37.5832 19.08 37.3077 18.6887 36.9151C18.2996 36.5248 18.0378 35.9763 17.931 35.2077L17.9307 35.2051C17.6045 32.9464 17.5122 30.6747 17.6419 28.377L17.6421 28.3748C17.6454 28.3115 17.6486 28.2483 17.6519 28.1851C17.7226 26.8166 17.7908 25.4986 18.078 24.2069L18.078 24.2068C18.2404 23.4754 18.5574 22.9338 18.9916 22.5583C19.4265 22.1821 20.0157 21.9408 20.7759 21.8738L20.7759 21.8738L20.7789 21.8736C24.7049 21.5042 28.6331 21.4422 32.5801 21.541L32.5813 21.541C34.216 21.5782 35.8429 21.6275 37.4543 21.7382C38.1425 21.787 38.8213 21.8596 39.4702 21.9789C40.1354 22.1037 40.6351 22.3863 40.9977 22.7973C41.364 23.2125 41.6188 23.7914 41.7328 24.5517C41.8832 25.5696 41.9597 26.5699 41.9392 27.591L41.9391 27.5933C41.9214 28.7362 41.9148 29.8867 41.9082 31.0325C41.9049 31.6033 41.9016 32.173 41.8969 32.74C41.8891 33.6898 41.7615 34.6449 41.5479 35.5822L41.5474 35.5844C41.2642 36.8538 40.3235 37.6284 38.8909 37.7825L38.8891 37.7826C36.8952 38.0042 34.9065 38.0524 32.9562 38.0997C32.2049 38.1179 31.4593 38.136 30.7213 38.1638C28.1745 38.1759 25.8003 38.102 23.4209 38.0031C22.3918 37.9533 21.4017 37.9046 20.4299 37.7258Z" stroke="#E98080"/>
</g>
<defs>
<clipPath id="clip0_2480_1925">
<rect width="60" height="60" fill="white"/>
</clipPath>
</defs>
</svg>
