<svg width="60" height="60" viewBox="0 0 60 60" fill="none" xmlns="http://www.w3.org/2000/svg">
<g clip-path="url(#clip0_2449_1998)">
<path d="M38.3729 28.2196L38.3728 28.2198C37.3588 30.3467 35.6315 32.8739 33.778 34.8644C32.8518 35.859 31.9065 36.7062 31.0163 37.3009C30.1152 37.9029 29.325 38.2095 28.6962 38.2095C28.1448 38.2095 27.6797 37.9271 27.2449 37.3265C26.8013 36.7137 26.4335 35.8251 26.0945 34.7488C25.8162 33.8656 25.5678 32.8917 25.311 31.8854C25.2563 31.671 25.2013 31.4553 25.1455 31.2386C24.8303 30.0144 24.4926 28.7669 24.0725 27.6507L24.0722 27.6499C23.8658 27.1043 23.6594 26.6758 23.4231 26.3763C23.1746 26.0614 22.8584 25.8489 22.4535 25.8392C22.0919 25.8304 21.7516 25.9898 21.4563 26.1637C21.2629 26.2776 21.0515 26.4214 20.8267 26.5789L20.468 26.1118C20.781 25.8346 21.0895 25.5569 21.3931 25.2838C22.0872 24.6592 22.7551 24.0582 23.3899 23.5391C23.893 23.1276 24.3547 22.7852 24.7666 22.5399C25.1866 22.2899 25.5119 22.1671 25.7494 22.145L25.7494 22.145L25.752 22.1447C26.388 22.0821 26.8525 22.2642 27.2118 22.6684C27.5949 23.0993 27.8967 23.827 28.0638 24.9234C28.0876 25.0834 28.1121 25.2486 28.1371 25.418C28.345 26.8235 28.5952 28.5154 28.9179 29.9085C29.0979 30.6861 29.3075 31.4026 29.5584 31.9342C29.6834 32.1989 29.8316 32.4464 30.0132 32.6344C30.1965 32.824 30.4528 32.991 30.7792 32.991C31.0476 32.991 31.2865 32.8608 31.461 32.7382C31.6489 32.6063 31.8381 32.4287 32.0206 32.2311C32.3871 31.8343 32.7743 31.3046 33.1288 30.7461C33.4845 30.1856 33.8169 29.581 34.0704 29.0273C34.3163 28.49 34.5112 27.9512 34.5528 27.5364C34.6135 26.9898 34.5522 26.5146 34.3476 26.1312C34.137 25.7366 33.8015 25.4904 33.4188 25.3652C33.0026 25.2289 32.5294 25.2334 32.06 25.3219C33.2949 22.5507 35.6409 21.5481 37.2628 21.9026C38.1462 22.0957 38.8572 22.6872 39.1509 23.6851C39.4507 24.7036 39.332 26.2105 38.3729 28.2196Z" fill="#E7ECF6" stroke="#7A97CE"/>
</g>
<defs>
<clipPath id="clip0_2449_1998">
<rect width="60" height="60" fill="white"/>
</clipPath>
</defs>
</svg>
