<svg width="60" height="60" viewBox="0 0 60 60" fill="none" xmlns="http://www.w3.org/2000/svg">
<g clip-path="url(#clip0_2480_3414)">
<rect width="20" height="20" transform="matrix(1 0 -0.00820296 0.999966 19.877 14.9995)" fill="white"/>
<mask id="mask0_2480_3414" style="mask-type:alpha" maskUnits="userSpaceOnUse" x="19" y="14" width="21" height="21">
<rect x="0.495899" y="0.499983" width="19" height="19" transform="matrix(1 0 -0.00820296 0.999966 19.8811 14.9995)" fill="#F8F8F8" stroke="#B8B8B8"/>
</mask>
<g mask="url(#mask0_2480_3414)">
<circle r="2.16667" transform="matrix(1 0 -0.00820296 0.999966 33.3797 21.4439)" fill="#FCEDD4" stroke="#F2BC5E"/>
<rect x="24.3034" y="37.6177" width="10.4964" height="10.4957" rx="2.5" transform="matrix(0.712883 -0.707107 0.701283 0.707107 -19.4027 28.2031)" fill="#E7ECF6" stroke="#7A97CE"/>
<rect x="16.6916" y="33.9253" width="10.4964" height="15.1643" rx="2.5" transform="matrix(0.712883 -0.707107 0.701283 0.707107 -18.9988 21.7392)" fill="#E7ECF6" stroke="#7A97CE"/>
</g>
<rect x="0.495899" y="0.499983" width="19" height="19" transform="matrix(1 0 -0.00820296 0.999966 19.8811 14.9995)" stroke="#7A97CE"/>
<rect width="20" height="2" transform="matrix(1 0 -0.00820296 0.999966 19.6801 38.999)" fill="#BFBFBF"/>
<rect width="20" height="2" transform="matrix(1 0 -0.00820296 0.999966 19.6473 42.9985)" fill="#BFBFBF"/>
</g>
<defs>
<clipPath id="clip0_2480_3414">
<rect width="60" height="60" fill="white"/>
</clipPath>
</defs>
</svg>
