<svg width="60" height="60" viewBox="0 0 60 60" fill="none" xmlns="http://www.w3.org/2000/svg">
<g clip-path="url(#clip0_2434_2488)">
<g clip-path="url(#clip1_2434_2488)">
<rect x="0.495899" y="0.499983" width="19" height="19" transform="matrix(1 0 -0.00820296 0.999966 30.8811 14.9995)" fill="white" stroke="#D4D4D4"/>
<rect width="20" height="2" transform="matrix(1 0 -0.00820296 0.999966 30.6801 38.999)" fill="#D4D4D4"/>
<rect width="20" height="2" transform="matrix(1 0 -0.00820296 0.999966 30.6473 42.9985)" fill="#D4D4D4"/>
</g>
<g clip-path="url(#clip2_2434_2488)">
<rect width="20" height="20" transform="matrix(1 0 -0.00820296 0.999966 8.87695 14.9995)" fill="white"/>
<mask id="mask0_2434_2488" style="mask-type:alpha" maskUnits="userSpaceOnUse" x="8" y="14" width="21" height="21">
<rect x="0.495899" y="0.499983" width="19" height="19" transform="matrix(1 0 -0.00820296 0.999966 8.88105 14.9995)" fill="#F8F8F8" stroke="#B8B8B8"/>
</mask>
<g mask="url(#mask0_2434_2488)">
<path d="M23.6693 21.6727C23.6631 22.4183 23.0538 23.0226 22.3082 23.0226C21.5626 23.0226 20.9631 22.4183 20.9693 21.6727C20.9754 20.9271 21.5848 20.3227 22.3303 20.3227C23.0759 20.3227 23.6754 20.9271 23.6693 21.6727Z" fill="#FCEDD4" stroke="#F2BC5E"/>
<rect x="11.9573" y="39.1729" width="10.4964" height="10.4957" rx="2.5" transform="matrix(0.712883 -0.707107 0.701283 0.707107 -24.0381 19.9285)" fill="#E7ECF6" stroke="#7A97CE"/>
<rect x="4.34545" y="35.4805" width="10.4964" height="15.1643" rx="5.24802" transform="matrix(0.712883 -0.707107 0.701283 0.707107 -23.6342 13.4647)" fill="#E7ECF6" stroke="#7A97CE"/>
</g>
<rect x="0.495899" y="0.499983" width="19" height="19" transform="matrix(1 0 -0.00820296 0.999966 8.88105 14.9995)" stroke="#D4D4D4"/>
<rect width="20" height="2" transform="matrix(1 0 -0.00820296 0.999966 8.68005 38.999)" fill="#D4D4D4"/>
<rect width="20" height="2" transform="matrix(1 0 -0.00820296 0.999966 8.64728 42.9985)" fill="#D4D4D4"/>
</g>
<ellipse cx="13.65" cy="46.0501" rx="9.45" ry="9.45" fill="white"/>
<rect width="10" height="10" transform="translate(8.66669 41)" fill="white"/>
<path d="M13.0792 46.5875C13.25 46.75 13.25 47.0166 13.0792 47.1791C12.9167 47.3416 12.65 47.3416 12.4875 47.1791C11.675 46.3666 11.675 45.0458 12.4875 44.2333L13.9625 42.7583C14.775 41.9458 16.0959 41.9458 16.9084 42.7583C17.7209 43.5708 17.7209 44.8916 16.9084 45.7041L16.2876 46.325C16.2917 45.9833 16.2375 45.6416 16.1209 45.3166L16.3167 45.1166C16.8084 44.6291 16.8084 43.8375 16.3167 43.35C15.8292 42.8583 15.0375 42.8583 14.55 43.35L13.0792 44.8208C12.5875 45.3083 12.5875 46.1 13.0792 46.5875ZM14.2542 44.8208C14.4167 44.6583 14.6834 44.6583 14.8459 44.8208C15.6584 45.6333 15.6584 46.9541 14.8459 47.7666L13.3709 49.2416C12.5584 50.0541 11.2375 50.0541 10.425 49.2416C9.61255 48.4291 9.61255 47.1083 10.425 46.2958L11.0459 45.675C11.0417 46.0166 11.0959 46.3583 11.2125 46.6875L11.0167 46.8833C10.525 47.3708 10.525 48.1625 11.0167 48.65C11.5042 49.1416 12.2959 49.1416 12.7834 48.65L14.2542 47.1791C14.7459 46.6916 14.7459 45.9 14.2542 45.4125C14.0834 45.25 14.0834 44.9833 14.2542 44.8208Z" fill="#6B6B6B"/>
</g>
<defs>
<clipPath id="clip0_2434_2488">
<rect width="60" height="60" fill="white"/>
</clipPath>
<clipPath id="clip1_2434_2488">
<rect width="20" height="30" fill="white" transform="matrix(1 0 -0.00820296 0.999966 30.877 14.9995)"/>
</clipPath>
<clipPath id="clip2_2434_2488">
<rect width="20" height="30" fill="white" transform="matrix(1 0 -0.00820296 0.999966 8.87695 14.9995)"/>
</clipPath>
</defs>
</svg>
