<svg width="60" height="60" viewBox="0 0 60 60" fill="none" xmlns="http://www.w3.org/2000/svg">
<g clip-path="url(#clip0_2449_1211)">
<path d="M38.4657 24.5723C38.2291 24.8199 37.9906 25.0612 37.7447 25.2939C37.6094 25.4209 37.4804 25.5683 37.388 25.7535C37.2927 25.9444 37.2508 26.1462 37.249 26.3635H37.2489L37.2491 26.3759C37.2894 28.7977 36.5367 30.9797 35.1815 32.9792C33.4647 35.5093 31.1528 37.0818 28.1981 37.6185L28.1977 37.6186C25.7996 38.0561 23.5126 37.8343 21.369 36.8344C22.9354 36.7119 24.3899 36.2087 25.7043 35.2327L26.3998 34.7163L25.6107 34.3734C25.4161 34.2888 25.2296 34.2122 25.05 34.1385C24.6066 33.9564 24.2055 33.7918 23.8293 33.5671C23.3011 33.2496 22.8962 32.7884 22.6187 32.2036C22.8757 32.1991 23.1407 32.1754 23.408 32.1259L24.9268 31.845L23.5393 31.1828C23.4454 31.1379 23.362 31.1007 23.285 31.0662C23.1299 30.9968 23.0006 30.939 22.8626 30.8542L22.8626 30.8541L22.8556 30.85C21.8246 30.2396 21.2176 29.3653 21.0649 28.1914C21.323 28.2808 21.6021 28.3728 21.892 28.4411L23.5388 28.829L22.3736 27.6077C21.6463 26.8454 21.2464 26.0712 21.1245 25.2644C21.033 24.6592 21.0936 24.007 21.3226 23.2931C23.5113 25.6515 26.1477 27.0165 29.4073 27.2637L29.9448 27.3045L29.9492 26.7652C29.9508 26.5753 29.948 26.4083 29.9454 26.2544C29.9409 25.9899 29.9371 25.764 29.9572 25.5266C30.2165 23.3742 31.9414 21.9866 34.06 22.1848C34.8008 22.2591 35.4207 22.4742 35.8697 22.9484L35.8697 22.9485L35.8744 22.9534C36.1038 23.189 36.371 23.3479 36.6821 23.3932C36.9837 23.4371 37.2661 23.3653 37.5147 23.2553C37.7343 23.1647 37.9446 23.0751 38.1531 22.9863C38.2162 22.9595 38.2791 22.9327 38.3421 22.906C38.1419 23.1966 37.8916 23.4549 37.6074 23.7121L37.328 23.9649L37.4888 24.2981C37.4889 24.2984 37.489 24.2987 37.4892 24.2991L37.4975 24.3205C37.5011 24.3297 37.5066 24.344 37.5124 24.3584C37.5181 24.3726 37.5265 24.3927 37.537 24.4143L37.721 24.7957L38.1287 24.6726C38.2409 24.6386 38.3532 24.6053 38.4657 24.5723ZM38.4657 24.5723C38.6873 24.3405 38.9072 24.1032 39.1301 23.8626C39.1309 23.8616 39.1318 23.8606 39.1326 23.8597C39.0434 23.8855 38.9543 23.9112 38.8651 23.9369C38.8326 23.9463 38.8 23.9557 38.7674 23.9651C38.6092 24.1389 38.4428 24.2993 38.2751 24.451L38.0311 24.181C38.0166 24.1853 38.0021 24.1897 37.9876 24.194C37.9799 24.178 37.9722 24.1579 37.9644 24.1378C37.9567 24.1177 37.949 24.0976 37.9413 24.0815C37.9447 24.0784 37.9482 24.0752 37.9517 24.0721L37.8466 23.7155C38.0623 23.6504 38.2776 23.5875 38.4915 23.5255C38.7251 23.2536 38.9275 22.9528 39.077 22.6009L38.4657 24.5723ZM20.8463 27.5848C20.6733 27.5205 20.5158 27.4883 20.5294 27.7615C20.5779 29.2849 21.2494 30.4324 22.4725 31.2039C22.5297 31.2048 22.5872 31.2045 22.6447 31.203C22.6453 31.203 22.6459 31.203 22.6465 31.203C22.8416 31.1978 23.0386 31.1788 23.2339 31.1427L23.3209 31.6343L23.1025 32.0859C23.0535 32.0625 22.9959 32.0366 22.9327 32.0083C22.7543 31.9283 22.5322 31.8287 22.3376 31.7096C22.3321 31.7063 22.3266 31.7031 22.3211 31.6998C22.3125 31.6994 22.3038 31.699 22.2952 31.6986C21.9798 31.6825 21.9158 31.795 22.0239 32.0843L20.8463 27.5848ZM20.8463 27.5848C20.9269 27.6122 21.0074 27.6404 21.0883 27.6687C21.0981 27.6721 21.108 27.6755 21.1178 27.679M20.8463 27.5848L21.1178 27.679M21.1178 27.679C21.2768 27.8906 21.4535 28.0979 21.6473 28.301L22.0104 27.9544L22.1289 27.4676C21.8891 27.4112 21.665 27.3379 21.4311 27.2571L21.1178 27.679ZM19.7793 36.5195C19.8067 36.5383 19.8329 36.557 19.8584 36.5754C19.9205 36.6199 19.9792 36.6621 20.046 36.6963C20.1397 36.7528 20.2337 36.8078 20.328 36.8613L20.4692 36.3637C20.3968 36.3629 20.3242 36.3612 20.2513 36.3588C20.2413 36.3585 20.2312 36.3581 20.2212 36.3577C20.134 36.3546 20.0464 36.3504 19.9584 36.3451L19.7793 36.5195ZM19.7793 36.5195L19.9017 36.3415L19.702 36.3267C19.7386 36.4026 19.7535 36.4505 19.7627 36.4803C19.7692 36.501 19.7729 36.5129 19.7793 36.5195ZM39.8051 23.7602C39.7962 23.7736 39.7873 23.7872 39.7783 23.8009L39.775 23.7895L39.8051 23.7602ZM39.8051 23.7602C39.7894 23.7441 39.7582 23.7119 39.7427 23.6798M39.8051 23.7602L39.757 23.7285L39.7427 23.6798M39.7427 23.6798C39.729 23.6839 39.7154 23.688 39.7017 23.6922L39.7084 23.6965L39.7427 23.6798ZM21.0287 27.7221C21.0287 27.7222 21.0287 27.7235 21.0286 27.7261C21.0285 27.7233 21.0286 27.7221 21.0287 27.7221ZM28.9495 26.7176C28.9494 26.7336 28.9493 26.7494 28.9492 26.7652H29.4492L29.4911 26.2666C29.4757 26.2655 29.4604 26.2643 29.4451 26.2631C29.4408 25.9903 29.4379 25.7318 29.4598 25.4796C29.7478 23.0531 31.7167 21.4622 34.1123 21.6872L28.9495 26.7176ZM36.2341 22.6031C36.5782 22.9567 36.9251 22.9727 37.3209 22.796C37.5302 22.7096 37.7396 22.6205 37.9501 22.5309C38.1942 22.427 38.4398 22.3225 38.6887 22.2209L36.2341 22.6031ZM39.4031 24.3006C38.9744 24.7631 38.5437 25.2236 38.0861 25.6564C37.8635 25.8653 37.7515 26.0581 37.749 26.3635L39.4031 24.3006Z" fill="#E2F6F6" stroke="#61CCCC"/>
</g>
<defs>
<clipPath id="clip0_2449_1211">
<rect width="60" height="60" fill="white"/>
</clipPath>
</defs>
</svg>
