<svg width="60" height="60" viewBox="0 0 60 60" fill="none" xmlns="http://www.w3.org/2000/svg">
<g clip-path="url(#clip0_2471_2007)">
<path d="M25.402 32.2633L25.4045 31.9525H25.5224C25.6149 31.9525 25.689 31.9387 25.7447 31.9111C25.805 31.8835 25.8586 31.8328 25.9054 31.7592C25.9569 31.6809 26.0087 31.5681 26.0608 31.4208L27.6268 27.3325H28.2787L29.7766 31.552C29.8174 31.6579 29.8583 31.7407 29.8994 31.8006C29.9452 31.8558 29.998 31.895 30.0579 31.918C30.1225 31.941 30.1963 31.9525 30.2796 31.9525H30.3766L30.3741 32.2633H28.3631L28.3656 31.9525H28.5528C28.673 31.9525 28.768 31.9272 28.8378 31.8766C28.9076 31.8259 28.9429 31.7454 28.9438 31.6349C28.944 31.6072 28.9419 31.5796 28.9375 31.552C28.9331 31.5244 28.9265 31.4944 28.9175 31.4622C28.9085 31.43 28.8995 31.4001 28.8905 31.3724L28.6262 30.6197H26.8371L26.5887 31.3103C26.5745 31.3471 26.5626 31.3862 26.5531 31.4277C26.5435 31.4645 26.534 31.5013 26.5244 31.5382C26.5195 31.5704 26.5169 31.6026 26.5167 31.6349C26.5158 31.7407 26.5521 31.8213 26.6257 31.8766C26.6992 31.9272 26.8007 31.9525 26.9302 31.9525H27.1313L27.1287 32.2633H25.402ZM26.9788 30.2537H28.4974L28.098 29.0659C28.0575 28.937 28.0146 28.8104 27.9694 28.6861C27.9288 28.5618 27.8928 28.4421 27.8614 28.327C27.83 28.2073 27.8009 28.0922 27.7741 27.9817C27.7549 28.0645 27.7334 28.1474 27.7096 28.2303C27.6859 28.3085 27.6598 28.3891 27.6314 28.472C27.6076 28.5549 27.5791 28.6423 27.546 28.7344C27.5175 28.8219 27.4821 28.914 27.4397 29.0106L26.9788 30.2537Z" fill="#C6C6C6"/>
<path d="M31.7866 32.3323C31.5832 32.3323 31.3986 32.2932 31.2328 32.215C31.0717 32.1321 30.9456 32.0101 30.8544 31.8489C30.7633 31.6832 30.7188 31.4737 30.7209 31.2205C30.7239 30.8522 30.8556 30.5806 31.1159 30.4056C31.3763 30.2261 31.7723 30.1271 32.3041 30.1087L32.873 30.088L32.8762 29.6874C32.8776 29.5217 32.8649 29.3766 32.8382 29.2523C32.8161 29.128 32.7637 29.0314 32.6811 28.9623C32.5985 28.8886 32.4716 28.8518 32.3006 28.8518C32.1388 28.8518 32.0137 28.884 31.9253 28.9485C31.8416 29.0129 31.7831 29.1027 31.7498 29.2178C31.7211 29.3283 31.7062 29.4572 31.705 29.6045C31.4831 29.6045 31.3146 29.5723 31.1995 29.5079C31.0845 29.4388 31.0277 29.3237 31.029 29.1626C31.0304 28.9968 31.0892 28.8656 31.2056 28.7689C31.3266 28.6723 31.4844 28.6009 31.6789 28.5549C31.8781 28.5088 32.0956 28.4858 32.3313 28.4858C32.7705 28.4858 33.098 28.5756 33.3138 28.7551C33.5343 28.9347 33.6427 29.2408 33.6392 29.6736L33.6245 31.4553C33.6235 31.5842 33.6365 31.6855 33.6637 31.7592C33.6908 31.8282 33.7366 31.8789 33.8011 31.9111C33.8656 31.9387 33.9487 31.9525 34.0504 31.9525H34.0712L34.0687 32.2633H33.0354L32.9221 31.7039H32.8597C32.7616 31.8282 32.6659 31.9387 32.5727 32.0354C32.4794 32.1275 32.3725 32.2011 32.2519 32.2564C32.1312 32.307 31.9762 32.3323 31.7866 32.3323ZM32.0122 31.8835C32.1879 31.8835 32.3384 31.8466 32.4639 31.773C32.5893 31.6947 32.6873 31.5842 32.7578 31.4415C32.8283 31.2988 32.8644 31.133 32.8659 30.9443L32.8704 30.3987L32.4611 30.4194C32.2206 30.4286 32.0308 30.4678 31.8915 30.5368C31.7523 30.6013 31.6521 30.6934 31.591 30.8131C31.5346 30.9328 31.5056 31.0801 31.5042 31.255C31.5031 31.3932 31.5206 31.5106 31.5568 31.6072C31.593 31.6993 31.6479 31.7684 31.7215 31.8144C31.7997 31.8605 31.8966 31.8835 32.0122 31.8835Z" fill="#C6C6C6"/>
</g>
<defs>
<clipPath id="clip0_2471_2007">
<rect width="60" height="60" fill="white"/>
</clipPath>
</defs>
</svg>
