<svg width="60" height="60" viewBox="0 0 60 60" fill="none" xmlns="http://www.w3.org/2000/svg">
<g clip-path="url(#clip0_2471_3791)">
<rect width="20" height="2" transform="matrix(1 0 -0.00820296 0.999966 19.7347 32.332)" fill="#C6C6C6"/>
<rect width="20" height="2" transform="matrix(1 0 -0.00820296 0.999966 19.7019 36.332)" fill="#C6C6C6"/>
<path d="M26.1511 30.3322L26.2168 22.3325H24.8081L24.7819 25.5279H21.1992L21.2254 22.3325H19.8168L19.7511 30.3322H21.1598L21.1887 26.8083H24.7714L24.7425 30.3322H26.1511Z" fill="#C6C6C6"/>
<path d="M8.07922 51.921C8.25005 52.0835 8.25005 52.3501 8.07922 52.5126C7.91672 52.6751 7.65005 52.6751 7.48755 52.5126C6.67505 51.7001 6.67505 50.3793 7.48755 49.5668L8.96255 48.0918C9.77505 47.2793 11.0959 47.2793 11.9084 48.0918C12.7209 48.9043 12.7209 50.2251 11.9084 51.0376L11.2875 51.6585C11.2917 51.3168 11.2375 50.9751 11.1209 50.6501L11.3167 50.4501C11.8084 49.9626 11.8084 49.171 11.3167 48.6835C10.8292 48.1918 10.0375 48.1918 9.55005 48.6835L8.07922 50.1543C7.58755 50.6418 7.58755 51.4335 8.07922 51.921ZM9.25422 50.1543C9.41672 49.9918 9.68338 49.9918 9.84588 50.1543C10.6584 50.9668 10.6584 52.2876 9.84588 53.1001L8.37088 54.5751C7.55838 55.3876 6.23755 55.3876 5.42505 54.5751C4.61255 53.7626 4.61255 52.4418 5.42505 51.6293L6.04588 51.0085C6.04172 51.3501 6.09588 51.6918 6.21255 52.021L6.01672 52.2168C5.52505 52.7043 5.52505 53.496 6.01672 53.9835C6.50422 54.4751 7.29588 54.4751 7.78338 53.9835L9.25422 52.5126C9.74588 52.0251 9.74588 51.2335 9.25422 50.746C9.08338 50.5835 9.08338 50.3168 9.25422 50.1543Z" fill="#6B6B6B"/>
</g>
<defs>
<clipPath id="clip0_2471_3791">
<rect width="60" height="60" fill="white"/>
</clipPath>
</defs>
</svg>
