<svg width="60" height="60" viewBox="0 0 60 60" fill="none" xmlns="http://www.w3.org/2000/svg">
<g clip-path="url(#clip0_2434_3158)">
<rect width="35" height="20" transform="matrix(1 0 -0.00820296 0.999966 12.5026 19.9995)" fill="white"/>
<mask id="mask0_2434_3158" style="mask-type:alpha" maskUnits="userSpaceOnUse" x="12" y="19" width="36" height="21">
<rect width="35" height="20" transform="matrix(1 0 -0.00820296 0.999966 12.5026 19.9995)" fill="#F8F8F8"/>
</mask>
<g mask="url(#mask0_2434_3158)">
<path d="M34.9499 28.6141C34.942 29.5808 34.1751 30.3424 33.2637 30.3424C32.3523 30.3424 31.598 29.5808 31.6059 28.6141C31.6139 27.6474 32.3807 26.8857 33.2921 26.8857C34.2035 26.8857 34.9578 27.6474 34.9499 28.6141Z" fill="#FCEDD4" stroke="#F2BC5E"/>
<path fill-rule="evenodd" clip-rule="evenodd" d="M50.4677 34.8737C50.5022 34.9634 50.5195 35.0544 50.5187 35.1464C50.5061 36.6895 45.4261 37.9404 39.1723 37.9404C32.9185 37.9404 27.859 36.6895 27.8717 35.1464C27.8778 34.4065 29.0489 33.7337 30.9559 33.2339C29.2552 32.2525 26.022 31.5903 22.3079 31.5903C16.814 31.5903 12.3483 33.0393 12.3337 34.8268C12.3336 34.8425 12.3338 34.8581 12.3343 34.8737H12.3333L12.2187 48.8491H52.0095L52.1241 34.8737H50.4677Z" fill="#E2F6F6"/>
<path d="M50.4677 34.8737L50.4718 34.3737H49.7384L50.0008 35.0564L50.4677 34.8737ZM30.9559 33.2339L31.0789 33.7174L32.2609 33.4076L31.2084 32.8003L30.9559 33.2339ZM12.3343 34.8737L12.3302 35.3737H12.8525L12.834 34.8519L12.3343 34.8737ZM12.3333 34.8737L12.3374 34.3737H11.8374L11.8333 34.8737H12.3333ZM12.2187 48.8491H11.7187L11.7146 49.3491H12.2146L12.2187 48.8491ZM52.0095 48.8491L52.0054 49.3491H52.5054L52.5095 48.8491H52.0095ZM52.1241 34.8737H52.6241L52.6282 34.3737H52.1282L52.1241 34.8737ZM50.0008 35.0564C50.0145 35.0921 50.019 35.1212 50.0187 35.1464H51.0187C51.0201 34.9875 50.9899 34.8348 50.9347 34.691L50.0008 35.0564ZM50.0187 35.1464C50.018 35.243 49.9235 35.4816 49.3716 35.8021C48.8552 36.1019 48.0759 36.389 47.0702 36.6366C45.0664 37.13 42.2751 37.4404 39.1764 37.4404L39.1682 38.4404C42.3233 38.4404 45.1989 38.1253 47.3018 37.6075C48.3493 37.3495 49.2333 37.0345 49.8684 36.6658C50.468 36.3177 51.0132 35.8213 51.0187 35.1464H50.0187ZM39.1764 37.4404C36.0777 37.4404 33.2915 37.13 31.2958 36.6366C30.2942 36.389 29.5196 36.1019 29.0081 35.8021C28.4615 35.4816 28.3709 35.243 28.3717 35.1464H27.3717C27.3662 35.8213 27.9033 36.3177 28.4971 36.6658C29.1262 37.0345 30.005 37.3495 31.0483 37.6075C33.1427 38.1253 36.0131 38.4404 39.1682 38.4404L39.1764 37.4404ZM28.3717 35.1464C28.3724 35.0551 28.456 34.8318 28.958 34.5268C29.4302 34.2399 30.1467 33.9618 31.0789 33.7174L30.8328 32.7503C29.8581 33.0058 29.0355 33.3139 28.4439 33.6734C27.882 34.0147 27.377 34.4977 27.3717 35.1464H28.3717ZM31.2084 32.8003C29.3965 31.7548 26.0595 31.0903 22.312 31.0903L22.3038 32.0903C25.9845 32.0903 29.1139 32.7503 30.7033 33.6674L31.2084 32.8003ZM22.312 31.0903C19.5273 31.0903 16.9827 31.4569 15.1153 32.0628C14.1843 32.3649 13.3937 32.7354 12.8241 33.1707C12.2617 33.6006 11.8392 34.1558 11.8337 34.8268H12.8337C12.8355 34.6041 12.9767 34.3078 13.4274 33.9633C13.8709 33.6243 14.5428 33.2973 15.4169 33.0137C17.1594 32.4483 19.5946 32.0903 22.3038 32.0903L22.312 31.0903ZM11.8337 34.8268C11.8335 34.8498 11.8338 34.8727 11.8346 34.8955L12.834 34.8519C12.8337 34.8435 12.8336 34.8351 12.8337 34.8268H11.8337ZM12.3384 34.3737H12.3374L12.3292 35.3737H12.3302L12.3384 34.3737ZM11.8333 34.8737L11.7187 48.8491H12.7187L12.8333 34.8737H11.8333ZM12.2146 49.3491H52.0054L52.0136 48.3491H12.2228L12.2146 49.3491ZM52.5095 48.8491L52.6241 34.8737H51.6241L51.5095 48.8491H52.5095ZM52.1282 34.3737H50.4718L50.4636 35.3737H52.12L52.1282 34.3737Z" fill="#10B2B2"/>
<path fill-rule="evenodd" clip-rule="evenodd" d="M24.3493 25.2471C23.9075 25.5625 23.3333 25.7533 22.7069 25.7533C22.0805 25.7533 21.5093 25.5625 21.0727 25.2471C21.1573 25.9318 21.852 26.4646 22.701 26.4646C23.55 26.4646 24.2535 25.9318 24.3493 25.2471Z" fill="#6B6B6B"/>
<path fill-rule="evenodd" clip-rule="evenodd" d="M27.865 23.5289C27.4231 23.8443 26.8489 24.035 26.2226 24.035C25.5961 24.035 25.025 23.8442 24.5883 23.5288C24.6729 24.2135 25.3676 24.7463 26.2167 24.7463C27.0656 24.7463 27.7691 24.2136 27.865 23.5289Z" fill="#6B6B6B"/>
<path fill-rule="evenodd" clip-rule="evenodd" d="M29.1359 26.3405C28.6941 26.6558 28.1199 26.8466 27.4936 26.8466C26.8671 26.8466 26.296 26.6557 25.8593 26.3403C25.9439 27.025 26.6386 27.5578 27.4877 27.5578C28.3366 27.5578 29.04 27.0251 29.1359 26.3405Z" fill="#6B6B6B"/>
</g>
<rect x="0.495899" y="0.499983" width="34" height="19" transform="matrix(1 0 -0.00820296 0.999966 12.5067 19.9995)" stroke="#D4D4D4"/>
<rect width="31.6667" height="2" transform="matrix(1 0 -0.00820296 0.999966 14.0353 36.332)" fill="#D4D4D4"/>
<rect width="15.6667" height="2" transform="matrix(1 0 -0.00820296 0.999966 14.0353 36.332)" fill="#949494"/>
<path d="M52.081 32.1869L54.4346 29.8333L52.081 27.4746L52.8056 26.75L55.8889 29.8333L52.8056 32.9167L52.081 32.1869Z" fill="#949494"/>
<path d="M7.91901 27.4796L5.5654 29.8332L7.91901 32.1919L7.19442 32.9165L4.11109 29.8332L7.19442 26.7498L7.91901 27.4796Z" fill="#949494"/>
</g>
<defs>
<clipPath id="clip0_2434_3158">
<rect width="60" height="60" fill="white"/>
</clipPath>
</defs>
</svg>
