<svg width="60" height="60" viewBox="0 0 60 60" fill="none" xmlns="http://www.w3.org/2000/svg">
<g clip-path="url(#clip0_2482_1269)">
<g clip-path="url(#clip1_2482_1269)">
<rect width="25" height="25" transform="matrix(1 0 -0.00820296 0.999966 17.1912 17.333)" fill="white"/>
<path d="M23.7792 26.9167L17.2696 33.1665L17.1999 41.6662L29.3358 40.3329L36.1582 41.6662L41.8269 36.3331L41.9708 18.792L35.8523 28.1667L23.7792 26.9167Z" fill="#FCEDD4"/>
<path d="M16.7789 33.7219L23.7792 26.9166L35.8505 28.3749L42.6032 17.8891" stroke="#F2BC5E"/>
<path d="M29.5493 34.6379L17.2036 41.215L17.1951 42.2614H41.7784L41.8618 32.0967L35.9966 35.9832L29.5493 34.6379Z" fill="#E7ECF6"/>
<path d="M16.7151 41.5143L29.5492 34.6382L35.9965 35.9835L42.4904 31.6486" stroke="#7A97CE"/>
<rect x="0.495899" y="0.499983" width="24" height="24" transform="matrix(1 0 -0.00820296 0.999966 17.1953 17.333)" stroke="#BFBFBF"/>
</g>
</g>
<defs>
<clipPath id="clip0_2482_1269">
<rect width="60" height="60" fill="white"/>
</clipPath>
<clipPath id="clip1_2482_1269">
<rect width="25" height="25" fill="white" transform="matrix(1 0 -0.00820296 0.999966 17.1912 17.333)"/>
</clipPath>
</defs>
</svg>
