<svg width="60" height="60" viewBox="0 0 60 60" fill="none" xmlns="http://www.w3.org/2000/svg">
<g clip-path="url(#clip0_2677_2922)">
<rect width="45" height="25.6667" transform="matrix(1 0 -0.00820296 0.999966 7.52722 16.9995)" fill="white"/>
<mask id="mask0_2677_2922" style="mask-type:alpha" maskUnits="userSpaceOnUse" x="7" y="16" width="46" height="27">
<rect width="45" height="25.6667" transform="matrix(1 0 -0.00820296 0.999966 7.52722 16.9995)" fill="#F8F8F8"/>
</mask>
<g mask="url(#mask0_2677_2922)">
<path d="M46.8072 26.4104C46.7939 28.0234 45.4729 29.3325 43.8546 29.3325C42.2363 29.3325 40.9368 28.0234 40.95 26.4104C40.9632 24.7974 42.2843 23.4883 43.9026 23.4883C45.5208 23.4883 46.8204 24.7974 46.8072 26.4104Z" fill="#FCEDD4" stroke="#F2BC5E"/>
<path fill-rule="evenodd" clip-rule="evenodd" d="M56.3565 34.0462C56.4009 34.1613 56.4231 34.278 56.4221 34.3961C56.4059 36.3764 49.8745 37.9818 41.8339 37.9818C33.7933 37.9818 27.2882 36.3764 27.3045 34.3961C27.3122 33.4466 28.818 32.5832 31.2698 31.9417C29.0833 30.6824 24.9262 29.8325 20.151 29.8325C13.0873 29.8325 7.34583 31.6921 7.32701 33.986C7.32685 34.0061 7.32712 34.0261 7.32783 34.0462H7.32652L7.17939 51.9813H58.339L58.4861 34.0462H56.3565Z" fill="#E2F6F6"/>
<path d="M56.3565 34.0462L56.3606 33.5462H55.6267L55.8897 34.2291L56.3565 34.0462ZM31.2698 31.9417L31.3926 32.4254L32.5769 32.1155L31.522 31.508L31.2698 31.9417ZM7.32783 34.0462L7.32373 34.5461H7.84608L7.82754 34.0243L7.32783 34.0462ZM7.32652 34.0462L7.33062 33.5462H6.83062L6.82652 34.0462H7.32652ZM7.17939 51.9813H6.67939L6.67529 52.4813H7.17529L7.17939 51.9813ZM58.339 51.9813L58.3349 52.4813H58.8349L58.839 51.9813H58.339ZM58.4861 34.0462H58.9861L58.9902 33.5462H58.4902L58.4861 34.0462ZM55.8897 34.2291C55.9132 34.2902 55.9225 34.345 55.9221 34.3961H56.9221C56.9236 34.2111 56.8885 34.0324 56.8233 33.8632L55.8897 34.2291ZM55.9221 34.3961C55.9204 34.6016 55.7352 34.9444 55.0185 35.3597C54.3376 35.7543 53.3206 36.1268 52.0215 36.4461C49.4311 37.0828 45.8302 37.4818 41.838 37.4818L41.8298 38.4818C45.8782 38.4818 49.5633 38.0781 52.2527 37.417C53.5936 37.0875 54.7151 36.6872 55.5146 36.2239C56.2784 35.7813 56.9157 35.1808 56.9221 34.3961H55.9221ZM41.838 37.4818C37.8458 37.4818 34.2514 37.0828 31.6714 36.4461C30.3775 36.1268 29.3667 35.7543 28.6923 35.3597C27.9824 34.9444 27.8028 34.6016 27.8045 34.3961H26.8045C26.798 35.1808 27.4255 35.7813 28.182 36.2239C28.9739 36.6872 30.0889 37.0875 31.4243 37.417C34.1029 38.0781 37.7813 38.4818 41.8298 38.4818L41.838 37.4818ZM27.8045 34.3961C27.8061 34.2005 27.9731 33.8771 28.6273 33.4803C29.2515 33.1018 30.1879 32.7406 31.3926 32.4254L31.1469 31.4581C29.8998 31.7844 28.8575 32.1756 28.1139 32.6265C27.4004 33.0592 26.8106 33.6422 26.8045 34.3961H27.8045ZM31.522 31.508C29.2243 30.1846 24.9636 29.3325 20.1551 29.3325L20.1469 30.3325C24.8888 30.3325 28.9422 31.1802 31.0175 32.3755L31.522 31.508ZM20.1551 29.3325C16.5855 29.3325 13.3297 29.8017 10.9466 30.5735C9.7579 30.9585 8.75838 31.4277 8.04412 31.9727C7.33709 32.5121 6.83356 33.1879 6.82701 33.986H7.82701C7.82987 33.6371 8.05109 33.2202 8.64662 32.7658C9.23492 32.317 10.1158 31.8912 11.2477 31.5246C13.506 30.7931 16.6528 30.3325 20.1469 30.3325L20.1551 29.3325ZM6.82701 33.986C6.82679 34.0134 6.82716 34.0407 6.82813 34.068L7.82754 34.0243C7.82708 34.0116 7.82691 33.9988 7.82701 33.986H6.82701ZM7.33194 33.5462H7.33062L7.32242 34.5461H7.32373L7.33194 33.5462ZM6.82652 34.0462L6.67939 51.9813H7.67939L7.82652 34.0462H6.82652ZM7.17529 52.4813H58.3349L58.3431 51.4813H7.18349L7.17529 52.4813ZM58.839 51.9813L58.9861 34.0462H57.9861L57.839 51.9813H58.839ZM58.4902 33.5462H56.3606L56.3524 34.5461H58.482L58.4902 33.5462Z" fill="#61CCCC"/>
<path fill-rule="evenodd" clip-rule="evenodd" d="M28.8227 24.338C28.2547 24.7427 27.5163 24.9875 26.711 24.9875C25.9056 24.9875 25.1713 24.7427 24.6099 24.3379C24.7186 25.2166 25.6119 25.9004 26.7035 25.9004C27.7951 25.9004 28.6995 25.2166 28.8227 24.338Z" fill="#6B6B6B"/>
<path fill-rule="evenodd" clip-rule="evenodd" d="M33.3427 22.133C32.7746 22.5377 32.0363 22.7825 31.231 22.7825C30.4256 22.7825 29.6912 22.5376 29.1298 22.1328C29.2386 23.0115 30.1318 23.6953 31.2234 23.6953C32.315 23.6953 33.2194 23.0116 33.3427 22.133Z" fill="#6B6B6B"/>
<path fill-rule="evenodd" clip-rule="evenodd" d="M34.9769 25.7409C34.4088 26.1456 33.6705 26.3904 32.8652 26.3904C32.0598 26.3904 31.3255 26.1455 30.764 25.7407C30.8728 26.6194 31.766 27.3032 32.8576 27.3032C33.9492 27.3032 34.8536 26.6195 34.9769 25.7409Z" fill="#6B6B6B"/>
</g>
<rect x="0.495899" y="0.499983" width="44" height="24.6667" transform="matrix(1 0 -0.00820296 0.999966 7.53132 16.9995)" stroke="#61CCCC"/>
</g>
<defs>
<clipPath id="clip0_2677_2922">
<rect width="60" height="60" fill="white"/>
</clipPath>
</defs>
</svg>
