<svg width="60" height="60" viewBox="0 0 60 60" fill="none" xmlns="http://www.w3.org/2000/svg">
<g clip-path="url(#clip0_2471_2912)">
<g clip-path="url(#clip1_2471_2912)">
<rect width="15" height="15" transform="matrix(1 0 -0.00820296 0.999966 5.52448 17.3325)" fill="white"/>
<mask id="mask0_2471_2912" style="mask-type:alpha" maskUnits="userSpaceOnUse" x="5" y="17" width="16" height="16">
<rect x="0.495899" y="0.499983" width="14" height="14" transform="matrix(1 0 -0.00820296 0.999966 5.52858 17.3325)" fill="#F8F8F8" stroke="#B8B8B8"/>
</mask>
<g mask="url(#mask0_2471_2912)">
<path d="M17.1515 22.1655C17.1447 22.9939 16.4676 23.6654 15.6392 23.6654C14.8108 23.6654 14.1447 22.9939 14.1515 22.1655C14.1583 21.3371 14.8354 20.6655 15.6638 20.6655C16.4922 20.6655 17.1583 21.3371 17.1515 22.1655Z" fill="#FCEDD4" stroke="#F2BC5E"/>
<rect x="9.02105" y="34.2954" width="7.62232" height="7.62174" rx="2.5" transform="matrix(0.712883 -0.707107 0.701283 0.707107 -21.4607 16.4237)" fill="#E7ECF6" stroke="#7A97CE"/>
<rect x="3.31219" y="31.5269" width="7.62232" height="11.1232" rx="2.5" transform="matrix(0.712883 -0.707107 0.701283 0.707107 -21.1583 11.5761)" fill="#E7ECF6" stroke="#7A97CE"/>
</g>
<rect x="0.495899" y="0.499983" width="14" height="14" transform="matrix(1 0 -0.00820296 0.999966 5.52858 17.3325)" stroke="#BBC9E6"/>
<rect width="15" height="2" transform="matrix(1 0 -0.00820296 0.999966 5.36859 36.332)" fill="#C6C6C6"/>
<rect width="15" height="2" transform="matrix(1 0 -0.00820296 0.999966 5.33582 40.3315)" fill="#C6C6C6"/>
</g>
<g clip-path="url(#clip2_2471_2912)">
<rect width="15" height="15" transform="matrix(1 0 -0.00820296 0.999966 22.3578 17.3325)" fill="white"/>
<mask id="mask1_2471_2912" style="mask-type:alpha" maskUnits="userSpaceOnUse" x="22" y="17" width="16" height="16">
<rect x="0.495899" y="0.499983" width="14" height="14" transform="matrix(1 0 -0.00820296 0.999966 22.3619 17.3325)" fill="#F8F8F8" stroke="#B8B8B8"/>
</mask>
<g mask="url(#mask1_2471_2912)">
<path d="M35.3556 37.9153C35.3039 44.2203 30.1506 49.3316 23.8453 49.3316C17.5401 49.3316 12.4706 44.2203 12.5223 37.9153C12.574 31.6102 17.7274 26.499 24.0326 26.499C30.3379 26.499 35.4074 31.6102 35.3556 37.9153Z" fill="#FBE8E8" stroke="#E98080"/>
<path d="M48.6862 38.2483C48.6345 44.5533 43.4811 49.6646 37.1759 49.6646C30.8706 49.6646 25.8011 44.5533 25.8529 38.2483C25.9046 31.9433 31.0579 26.832 37.3632 26.832C43.6684 26.832 48.7379 31.9433 48.6862 38.2483Z" fill="#FBE8E8" stroke="#E98080"/>
</g>
<rect x="0.495899" y="0.499983" width="14" height="14" transform="matrix(1 0 -0.00820296 0.999966 22.3619 17.3325)" stroke="#F4BDBD"/>
<rect width="15" height="2" transform="matrix(1 0 -0.00820296 0.999966 22.2019 36.332)" fill="#C6C6C6"/>
<rect width="15" height="2" transform="matrix(1 0 -0.00820296 0.999966 22.1691 40.3315)" fill="#C6C6C6"/>
</g>
<g clip-path="url(#clip3_2471_2912)">
<rect width="15" height="15" transform="matrix(1 0 -0.00820296 0.999966 39.1912 17.3325)" fill="white"/>
<mask id="mask2_2471_2912" style="mask-type:alpha" maskUnits="userSpaceOnUse" x="39" y="17" width="16" height="16">
<rect x="0.495899" y="0.499983" width="14" height="14" transform="matrix(1 0 -0.00820296 0.999966 39.1953 17.3325)" fill="#F8F8F8" stroke="#B8B8B8"/>
</mask>
<g mask="url(#mask2_2471_2912)">
<circle r="1.5" transform="matrix(1 0 -0.00820296 0.999966 46.6297 24.8325)" fill="#E5F7EE" stroke="#72D1A0"/>
<rect x="0.435571" y="0.553427" width="16.4893" height="7.83288" transform="matrix(0.992627 0.113331 -0.121485 0.993523 38.5444 23.5773)" fill="#E5F7EE" stroke="#72D1A0"/>
</g>
<rect x="0.495899" y="0.499983" width="14" height="14" transform="matrix(1 0 -0.00820296 0.999966 39.1953 17.3325)" stroke="#B6E7CE"/>
<rect width="15" height="2" transform="matrix(1 0 -0.00820296 0.999966 39.0353 36.332)" fill="#C6C6C6"/>
<rect width="15" height="2" transform="matrix(1 0 -0.00820296 0.999966 39.0025 40.3315)" fill="#C6C6C6"/>
</g>
<path d="M8.07922 51.921C8.25005 52.0835 8.25005 52.3501 8.07922 52.5126C7.91672 52.6751 7.65005 52.6751 7.48755 52.5126C6.67505 51.7001 6.67505 50.3793 7.48755 49.5668L8.96255 48.0918C9.77505 47.2793 11.0959 47.2793 11.9084 48.0918C12.7209 48.9043 12.7209 50.2251 11.9084 51.0376L11.2875 51.6585C11.2917 51.3168 11.2375 50.9751 11.1209 50.6501L11.3167 50.4501C11.8084 49.9626 11.8084 49.171 11.3167 48.6835C10.8292 48.1918 10.0375 48.1918 9.55005 48.6835L8.07922 50.1543C7.58755 50.6418 7.58755 51.4335 8.07922 51.921ZM9.25422 50.1543C9.41672 49.9918 9.68338 49.9918 9.84588 50.1543C10.6584 50.9668 10.6584 52.2876 9.84588 53.1001L8.37088 54.5751C7.55838 55.3876 6.23755 55.3876 5.42505 54.5751C4.61255 53.7626 4.61255 52.4418 5.42505 51.6293L6.04588 51.0085C6.04172 51.3501 6.09588 51.6918 6.21255 52.021L6.01672 52.2168C5.52505 52.7043 5.52505 53.496 6.01672 53.9835C6.50422 54.4751 7.29588 54.4751 7.78338 53.9835L9.25422 52.5126C9.74588 52.0251 9.74588 51.2335 9.25422 50.746C9.08338 50.5835 9.08338 50.3168 9.25422 50.1543Z" fill="#6B6B6B"/>
</g>
<defs>
<clipPath id="clip0_2471_2912">
<rect width="60" height="60" fill="white"/>
</clipPath>
<clipPath id="clip1_2471_2912">
<rect width="15" height="25" fill="white" transform="matrix(1 0 -0.00820296 0.999966 5.52448 17.3325)"/>
</clipPath>
<clipPath id="clip2_2471_2912">
<rect width="15" height="25" fill="white" transform="matrix(1 0 -0.00820296 0.999966 22.3578 17.3325)"/>
</clipPath>
<clipPath id="clip3_2471_2912">
<rect width="15" height="25" fill="white" transform="matrix(1 0 -0.00820296 0.999966 39.1912 17.3325)"/>
</clipPath>
</defs>
</svg>
