<svg width="60" height="60" viewBox="0 0 60 60" fill="none" xmlns="http://www.w3.org/2000/svg">
<g clip-path="url(#clip0_2434_3633)">
<g clip-path="url(#clip1_2434_3633)">
<rect width="10" height="10" transform="matrix(1 0 -0.00820296 0.999966 6.83594 19.9995)" fill="white"/>
<mask id="mask0_2434_3633" style="mask-type:alpha" maskUnits="userSpaceOnUse" x="6" y="19" width="11" height="11">
<rect x="0.495899" y="0.499983" width="9" height="9" transform="matrix(1 0 -0.00820296 0.999966 6.84004 19.9995)" fill="#F8F8F8" stroke="#B8B8B8"/>
</mask>
<g mask="url(#mask0_2434_3633)">
<mask id="path-3-inside-1_2434_3633" fill="white">
<ellipse rx="0.925" ry="0.925" transform="matrix(1 0 -0.00820296 0.999966 13.5571 23.3361)"/>
</mask>
<ellipse rx="0.925" ry="0.925" transform="matrix(1 0 -0.00820296 0.999966 13.5571 23.3361)" fill="#FCEDD4"/>
<path d="M13.4821 23.3361C13.4825 23.2947 13.5163 23.2611 13.5577 23.2611L13.5413 25.261C14.6045 25.261 15.4734 24.3992 15.4821 23.3361H13.4821ZM13.5577 23.2611C13.5992 23.2611 13.6325 23.2947 13.6321 23.3361H11.6321C11.6234 24.3992 12.4782 25.261 13.5413 25.261L13.5577 23.2611ZM13.6321 23.3361C13.6318 23.3775 13.5979 23.4111 13.5565 23.4111L13.5729 21.4112C12.5098 21.4112 11.6408 22.273 11.6321 23.3361H13.6321ZM13.5565 23.4111C13.5151 23.4111 13.4818 23.3775 13.4821 23.3361H15.4821C15.4908 22.273 14.6361 21.4112 13.5729 21.4112L13.5565 23.4111Z" fill="#F2BC5E" mask="url(#path-3-inside-1_2434_3633)"/>
<rect x="8.72967" y="32.0859" width="4.74822" height="4.74783" rx="2.37401" transform="matrix(0.712883 -0.707107 0.701283 0.707107 -19.9949 15.5706)" fill="#E7ECF6" stroke="#7A97CE"/>
<rect x="4.92376" y="30.2402" width="4.74822" height="7.08213" rx="2.37401" transform="matrix(0.712883 -0.707107 0.701283 0.707107 -19.7933 12.3388)" fill="#E7ECF6" stroke="#7A97CE"/>
</g>
<rect x="0.495899" y="0.499983" width="9" height="9" transform="matrix(1 0 -0.00820296 0.999966 6.84004 19.9995)" stroke="#D4D4D4"/>
<rect width="10" height="2" transform="matrix(1 0 -0.00820296 0.999966 6.72107 33.999)" fill="#D4D4D4"/>
<rect width="10" height="2" transform="matrix(1 0 -0.00820296 0.999966 6.68829 37.9985)" fill="#D4D4D4"/>
</g>
<g clip-path="url(#clip2_2434_3633)">
<rect x="0.495899" y="0.499983" width="9" height="9" transform="matrix(1 0 -0.00820296 0.999966 18.84 19.9995)" fill="white" stroke="#D4D4D4"/>
<rect width="10" height="2" transform="matrix(1 0 -0.00820296 0.999966 18.7211 33.999)" fill="#D4D4D4"/>
<rect width="10" height="2" transform="matrix(1 0 -0.00820296 0.999966 18.6883 37.9985)" fill="#D4D4D4"/>
</g>
<g clip-path="url(#clip3_2434_3633)">
<rect x="0.495899" y="0.499983" width="9" height="9" transform="matrix(1 0 -0.00820296 0.999966 30.84 19.9995)" fill="white" stroke="#D4D4D4"/>
<rect width="10" height="2" transform="matrix(1 0 -0.00820296 0.999966 30.7211 33.999)" fill="#D4D4D4"/>
<rect width="10" height="2" transform="matrix(1 0 -0.00820296 0.999966 30.6883 37.9985)" fill="#D4D4D4"/>
</g>
<g clip-path="url(#clip4_2434_3633)">
<rect x="0.495899" y="0.499983" width="9" height="9" transform="matrix(1 0 -0.00820296 0.999966 42.84 19.9995)" fill="white" stroke="#D4D4D4"/>
<rect width="10" height="2" transform="matrix(1 0 -0.00820296 0.999966 42.7211 33.999)" fill="#D4D4D4"/>
<rect width="10" height="2" transform="matrix(1 0 -0.00820296 0.999966 42.6883 37.9985)" fill="#D4D4D4"/>
</g>
<ellipse cx="13.65" cy="46.0501" rx="9.45" ry="9.45" fill="white"/>
<rect width="10" height="10" transform="translate(8.66669 41)" fill="white"/>
<path d="M13.0792 46.5875C13.25 46.75 13.25 47.0166 13.0792 47.1791C12.9167 47.3416 12.65 47.3416 12.4875 47.1791C11.675 46.3666 11.675 45.0458 12.4875 44.2333L13.9625 42.7583C14.775 41.9458 16.0959 41.9458 16.9084 42.7583C17.7209 43.5708 17.7209 44.8916 16.9084 45.7041L16.2876 46.325C16.2917 45.9833 16.2375 45.6416 16.1209 45.3166L16.3167 45.1166C16.8084 44.6291 16.8084 43.8375 16.3167 43.35C15.8292 42.8583 15.0375 42.8583 14.55 43.35L13.0792 44.8208C12.5875 45.3083 12.5875 46.1 13.0792 46.5875ZM14.2542 44.8208C14.4167 44.6583 14.6834 44.6583 14.8459 44.8208C15.6584 45.6333 15.6584 46.9541 14.8459 47.7666L13.3709 49.2416C12.5584 50.0541 11.2375 50.0541 10.425 49.2416C9.61255 48.4291 9.61255 47.1083 10.425 46.2958L11.0459 45.675C11.0417 46.0166 11.0959 46.3583 11.2125 46.6875L11.0167 46.8833C10.525 47.3708 10.525 48.1625 11.0167 48.65C11.5042 49.1416 12.2959 49.1416 12.7834 48.65L14.2542 47.1791C14.7459 46.6916 14.7459 45.9 14.2542 45.4125C14.0834 45.25 14.0834 44.9833 14.2542 44.8208Z" fill="#6B6B6B"/>
</g>
<defs>
<clipPath id="clip0_2434_3633">
<rect width="60" height="60" fill="white"/>
</clipPath>
<clipPath id="clip1_2434_3633">
<rect width="10" height="20" fill="white" transform="matrix(1 0 -0.00820296 0.999966 6.83594 19.9995)"/>
</clipPath>
<clipPath id="clip2_2434_3633">
<rect width="10" height="20" fill="white" transform="matrix(1 0 -0.00820296 0.999966 18.8359 19.9995)"/>
</clipPath>
<clipPath id="clip3_2434_3633">
<rect width="10" height="20" fill="white" transform="matrix(1 0 -0.00820296 0.999966 30.8359 19.9995)"/>
</clipPath>
<clipPath id="clip4_2434_3633">
<rect width="10" height="20" fill="white" transform="matrix(1 0 -0.00820296 0.999966 42.8359 19.9995)"/>
</clipPath>
</defs>
</svg>
