<svg width="60" height="60" viewBox="0 0 60 60" fill="none" xmlns="http://www.w3.org/2000/svg">
<g clip-path="url(#clip0_2471_3443)">
<g clip-path="url(#clip1_2471_3443)">
<rect width="20" height="2" transform="matrix(1 0 -0.00820296 0.999966 5.40417 31.9985)" fill="#C6C6C6"/>
<rect width="20" height="2" transform="matrix(1 0 -0.00820296 0.999966 5.37134 35.9985)" fill="#C6C6C6"/>
<path d="M11.8206 29.9988L11.8862 21.999H10.4775L10.4513 25.1944H6.86866L6.89487 21.999H5.48621L5.42058 29.9988H6.82925L6.85816 26.4748H10.4408L10.4119 29.9988H11.8206Z" fill="#C6C6C6"/>
</g>
<g clip-path="url(#clip2_2471_3443)">
<rect width="20" height="2" transform="matrix(1 0 -0.00820296 0.999966 22.4042 31.9985)" fill="#C6C6C6"/>
<rect width="20" height="2" transform="matrix(1 0 -0.00820296 0.999966 22.3713 35.9985)" fill="#C6C6C6"/>
<path d="M28.8206 29.9988L28.8862 21.999H27.4775L27.4513 25.1944H23.8687L23.8949 21.999H22.4862L22.4206 29.9988H23.8292L23.8582 26.4748H27.4408L27.4119 29.9988H28.8206Z" fill="#C6C6C6"/>
</g>
<g clip-path="url(#clip3_2471_3443)">
<rect width="20" height="2" transform="matrix(1 0 -0.00820296 0.999966 39.4042 31.9985)" fill="#C6C6C6"/>
<rect width="20" height="2" transform="matrix(1 0 -0.00820296 0.999966 39.3713 35.9985)" fill="#C6C6C6"/>
<path d="M45.8206 29.9988L45.8862 21.999H44.4775L44.4513 25.1944H40.8687L40.8949 21.999H39.4862L39.4206 29.9988H40.8292L40.8582 26.4748H44.4408L44.4119 29.9988H45.8206Z" fill="#C6C6C6"/>
</g>
<path d="M8.07922 51.921C8.25005 52.0835 8.25005 52.3501 8.07922 52.5126C7.91672 52.6751 7.65005 52.6751 7.48755 52.5126C6.67505 51.7001 6.67505 50.3793 7.48755 49.5668L8.96255 48.0918C9.77505 47.2793 11.0959 47.2793 11.9084 48.0918C12.7209 48.9043 12.7209 50.2251 11.9084 51.0376L11.2875 51.6585C11.2917 51.3168 11.2375 50.9751 11.1209 50.6501L11.3167 50.4501C11.8084 49.9626 11.8084 49.171 11.3167 48.6835C10.8292 48.1918 10.0375 48.1918 9.55005 48.6835L8.07922 50.1543C7.58755 50.6418 7.58755 51.4335 8.07922 51.921ZM9.25422 50.1543C9.41672 49.9918 9.68338 49.9918 9.84588 50.1543C10.6584 50.9668 10.6584 52.2876 9.84588 53.1001L8.37088 54.5751C7.55838 55.3876 6.23755 55.3876 5.42505 54.5751C4.61255 53.7626 4.61255 52.4418 5.42505 51.6293L6.04588 51.0085C6.04172 51.3501 6.09588 51.6918 6.21255 52.021L6.01672 52.2168C5.52505 52.7043 5.52505 53.496 6.01672 53.9835C6.50422 54.4751 7.29588 54.4751 7.78338 53.9835L9.25422 52.5126C9.74588 52.0251 9.74588 51.2335 9.25422 50.746C9.08338 50.5835 9.08338 50.3168 9.25422 50.1543Z" fill="#6B6B6B"/>
</g>
<defs>
<clipPath id="clip0_2471_3443">
<rect width="60" height="60" fill="white"/>
</clipPath>
<clipPath id="clip1_2471_3443">
<rect width="15" height="16" fill="white" transform="matrix(1 0 -0.00820296 0.999966 5.48621 21.999)"/>
</clipPath>
<clipPath id="clip2_2471_3443">
<rect width="15" height="16" fill="white" transform="matrix(1 0 -0.00820296 0.999966 22.4862 21.999)"/>
</clipPath>
<clipPath id="clip3_2471_3443">
<rect width="15" height="16" fill="white" transform="matrix(1 0 -0.00820296 0.999966 39.4862 21.999)"/>
</clipPath>
</defs>
</svg>
