<svg width="60" height="60" viewBox="0 0 60 60" fill="none" xmlns="http://www.w3.org/2000/svg">
<g clip-path="url(#clip0_2449_5655)">
<mask id="path-1-outside-1_2449_5655" maskUnits="userSpaceOnUse" x="18.6637" y="19.999" width="21.1723" height="20.9993" fill="black">
<rect fill="white" x="18.6637" y="19.999" width="21.1723" height="20.9993"/>
<path d="M19.8359 19.999H39.8359L39.6719 39.9984H19.6719L19.8359 19.999Z"/>
</mask>
<path d="M19.8359 19.999H39.8359L39.6719 39.9984H19.6719L19.8359 19.999Z" fill="white"/>
<path d="M19.6719 39.9984H18.6719L18.6637 40.9983H19.6637L19.6719 39.9984ZM39.6801 38.9984H19.6801L19.6637 40.9983H39.6637L39.6801 38.9984ZM20.6719 39.9984L20.8359 19.999H18.8359L18.6719 39.9984H20.6719Z" fill="#D4D4D4" mask="url(#path-1-outside-1_2449_5655)"/>
<rect x="0.495899" y="0.499983" width="19" height="19" transform="matrix(1 0 -0.00820296 0.999966 19.84 19.999)" fill="white" stroke="#D4D4D4"/>
</g>
<defs>
<clipPath id="clip0_2449_5655">
<rect width="60" height="60" fill="white"/>
</clipPath>
</defs>
</svg>
