<svg width="60" height="60" viewBox="0 0 60 60" fill="none" xmlns="http://www.w3.org/2000/svg">
<g clip-path="url(#clip0_2471_1197)">
<path d="M29.287 35.1872C28.6911 35.1872 28.1671 35.1276 27.7152 35.0084C27.2753 34.8773 26.9072 34.7045 26.611 34.4899C26.3149 34.2635 26.0905 34.0013 25.938 33.7033C25.7975 33.4053 25.7286 33.0835 25.7314 32.7379C25.7336 32.4757 25.795 32.2492 25.9158 32.0585C26.0365 31.8678 26.1986 31.7248 26.402 31.6295C26.6174 31.5222 26.8622 31.4686 27.1363 31.4686C27.1916 31.993 27.295 32.4697 27.4464 32.8988C27.5979 33.3279 27.8215 33.6735 28.1173 33.9357C28.4131 34.1979 28.8053 34.3409 29.2938 34.3648L29.3288 30.092C28.7468 29.8417 28.2542 29.5914 27.8511 29.3411C27.4598 29.0908 27.1401 28.8346 26.8919 28.5724C26.6558 28.2982 26.4854 28.0062 26.3806 27.6964C26.2879 27.3746 26.2432 27.017 26.2464 26.6237C26.2509 26.0754 26.38 25.5987 26.6336 25.1935C26.8992 24.7763 27.2655 24.4426 27.7324 24.1923C28.1993 23.942 28.7488 23.7871 29.381 23.7275L29.3925 22.333H30.3043L30.2931 23.6917C31.0081 23.7036 31.5854 23.799 32.025 23.9778C32.4645 24.1565 32.7844 24.389 32.9847 24.675C33.185 24.961 33.2836 25.2828 33.2807 25.6404C33.2777 26.0099 33.1382 26.3019 32.8623 26.5164C32.5864 26.731 32.1982 26.8382 31.6976 26.8382C31.7002 26.5164 31.6611 26.1946 31.5803 25.8728C31.5115 25.551 31.3767 25.2709 31.176 25.0326C30.9755 24.7823 30.6787 24.6333 30.2858 24.5856L30.2532 28.5545C30.74 28.7809 31.1852 29.0014 31.5887 29.216C32.0041 29.4305 32.3657 29.6689 32.6734 29.9311C32.9812 30.1814 33.2172 30.4793 33.3812 30.825C33.5453 31.1587 33.6254 31.5639 33.6215 32.0407C33.6142 32.9346 33.3103 33.6497 32.71 34.186C32.1216 34.7223 31.2846 35.0441 30.1991 35.1514L30.1812 37.3325H29.2694L29.287 35.1872ZM30.206 34.3111C30.7312 34.2158 31.1322 34.0072 31.409 33.6854C31.6859 33.3517 31.8263 32.9405 31.8303 32.4519C31.8339 32.0109 31.7118 31.6414 31.464 31.3434C31.228 31.0455 30.8191 30.7654 30.2372 30.5032L30.206 34.3111ZM29.374 24.5856C28.9323 24.669 28.591 24.8657 28.3501 25.1756C28.1091 25.4855 27.9868 25.8669 27.9831 26.3198C27.9807 26.6177 28.0262 26.874 28.1198 27.0885C28.2134 27.303 28.3608 27.4937 28.5621 27.6606C28.7753 27.8275 29.0362 27.9884 29.3448 28.1433L29.374 24.5856Z" fill="#C6C6C6"/>
</g>
<defs>
<clipPath id="clip0_2471_1197">
<rect width="60" height="60" fill="white"/>
</clipPath>
</defs>
</svg>
