<svg width="60" height="60" viewBox="0 0 60 60" fill="none" xmlns="http://www.w3.org/2000/svg">
<g clip-path="url(#clip0_2471_2763)">
<rect width="20" height="2" transform="matrix(1 0 -0.00820296 0.999966 19.6801 38.999)" fill="#C6C6C6"/>
<rect width="20" height="2" transform="matrix(1 0 -0.00820296 0.999966 19.6473 42.9985)" fill="#C6C6C6"/>
<g clip-path="url(#clip1_2471_2763)">
<rect width="20" height="20" rx="9.99998" transform="matrix(1 0 -0.00820296 0.999966 19.8756 15.166)" fill="white"/>
<mask id="mask0_2471_2763" style="mask-type:alpha" maskUnits="userSpaceOnUse" x="19" y="15" width="21" height="21">
<rect x="0.495899" y="0.499983" width="19" height="19" rx="9.49998" transform="matrix(1 0 -0.00820296 0.999966 19.8797 15.166)" fill="#CBF7E1" stroke="#1FC47A"/>
</mask>
<g mask="url(#mask0_2471_2763)">
<rect x="0.495899" y="0.499983" width="6.85713" height="6.85713" rx="3.42856" transform="matrix(1 0 -0.00820296 0.999966 25.9248 18.3804)" fill="#F2EAF7" stroke="#B98BD3"/>
<mask id="path-6-inside-1_2471_2763" fill="white">
<path fill-rule="evenodd" clip-rule="evenodd" d="M28.1795 18.7504C28.1795 18.754 28.1795 18.7577 28.1794 18.7613C28.1616 20.9309 29.9061 22.6897 32.0758 22.6897C32.6716 22.6897 33.2375 22.5571 33.7454 22.3198C33.7454 22.3161 33.7455 22.3125 33.7455 22.3088C33.7633 20.1392 32.0189 18.3804 29.8492 18.3804C29.2534 18.3804 28.6874 18.513 28.1795 18.7504Z"/>
</mask>
<path fill-rule="evenodd" clip-rule="evenodd" d="M28.1795 18.7504C28.1795 18.754 28.1795 18.7577 28.1794 18.7613C28.1616 20.9309 29.9061 22.6897 32.0758 22.6897C32.6716 22.6897 33.2375 22.5571 33.7454 22.3198C33.7454 22.3161 33.7455 22.3125 33.7455 22.3088C33.7633 20.1392 32.0189 18.3804 29.8492 18.3804C29.2534 18.3804 28.6874 18.513 28.1795 18.7504Z" fill="#FBE8E8"/>
<path d="M28.1795 18.7504L27.7622 17.8451L27.1864 18.1142L27.1796 18.7477L28.1795 18.7504ZM33.7454 22.3198L34.1627 23.2251L34.7385 22.956L34.7454 22.3224L33.7454 22.3198ZM29.1794 18.7613C29.1795 18.7587 29.1795 18.7559 29.1795 18.753L27.1796 18.7477C27.1795 18.7521 27.1795 18.7566 27.1794 18.7613H29.1794ZM32.084 21.6898C30.4666 21.6898 29.1662 20.3787 29.1794 18.7613H27.1794C27.1571 21.4832 29.3456 23.6897 32.0676 23.6897L32.084 21.6898ZM33.3281 21.4145C32.9509 21.5908 32.53 21.6898 32.084 21.6898L32.0676 23.6897C32.8132 23.6897 33.5242 23.5235 34.1627 23.2251L33.3281 21.4145ZM32.7455 22.3088C32.7455 22.3111 32.7455 22.3138 32.7454 22.3172L34.7454 22.3224C34.7454 22.3185 34.7455 22.3138 34.7455 22.3088H32.7455ZM29.841 19.3803C31.4584 19.3803 32.7588 20.6915 32.7455 22.3088H34.7455C34.7678 19.5869 32.5793 17.3804 29.8574 17.3804L29.841 19.3803ZM28.5968 19.6557C28.9741 19.4794 29.395 19.3803 29.841 19.3803L29.8574 17.3804C29.1117 17.3804 28.4008 17.5467 27.7622 17.8451L28.5968 19.6557Z" fill="#E98080" mask="url(#path-6-inside-1_2471_2763)"/>
<rect x="0.495899" y="0.499983" width="11.1428" height="11.1428" rx="5.57142" transform="matrix(1 0 -0.00820296 0.999966 23.7086 27.3086)" fill="#E5F7EE" stroke="#72D1A0"/>
<rect x="0.495899" y="0.499983" width="19" height="19" rx="9.49998" transform="matrix(1 0 -0.00820296 0.999966 19.8797 15.166)" stroke="#C6C6C6"/>
</g>
</g>
<path d="M8.07922 51.921C8.25005 52.0835 8.25005 52.3501 8.07922 52.5126C7.91672 52.6751 7.65005 52.6751 7.48755 52.5126C6.67505 51.7001 6.67505 50.3793 7.48755 49.5668L8.96255 48.0918C9.77505 47.2793 11.0959 47.2793 11.9084 48.0918C12.7209 48.9043 12.7209 50.2251 11.9084 51.0376L11.2875 51.6585C11.2917 51.3168 11.2375 50.9751 11.1209 50.6501L11.3167 50.4501C11.8084 49.9626 11.8084 49.171 11.3167 48.6835C10.8292 48.1918 10.0375 48.1918 9.55005 48.6835L8.07922 50.1543C7.58755 50.6418 7.58755 51.4335 8.07922 51.921ZM9.25422 50.1543C9.41672 49.9918 9.68338 49.9918 9.84588 50.1543C10.6584 50.9668 10.6584 52.2876 9.84588 53.1001L8.37088 54.5751C7.55838 55.3876 6.23755 55.3876 5.42505 54.5751C4.61255 53.7626 4.61255 52.4418 5.42505 51.6293L6.04588 51.0085C6.04172 51.3501 6.09588 51.6918 6.21255 52.021L6.01672 52.2168C5.52505 52.7043 5.52505 53.496 6.01672 53.9835C6.50422 54.4751 7.29588 54.4751 7.78338 53.9835L9.25422 52.5126C9.74588 52.0251 9.74588 51.2335 9.25422 50.746C9.08338 50.5835 9.08338 50.3168 9.25422 50.1543Z" fill="#6B6B6B"/>
</g>
<defs>
<clipPath id="clip0_2471_2763">
<rect width="60" height="60" fill="white"/>
</clipPath>
<clipPath id="clip1_2471_2763">
<rect width="20" height="20" fill="white" transform="matrix(1 0 -0.00820296 0.999966 19.8756 15.166)"/>
</clipPath>
</defs>
</svg>
