<svg width="60" height="60" viewBox="0 0 60 60" fill="none" xmlns="http://www.w3.org/2000/svg">
<g clip-path="url(#clip0_2449_2872)">
<rect width="35" height="20" transform="matrix(1 0 -0.00820296 0.999966 8.16925 19.9995)" fill="white"/>
<mask id="mask0_2449_2872" style="mask-type:alpha" maskUnits="userSpaceOnUse" x="8" y="19" width="36" height="21">
<rect width="35" height="20" transform="matrix(1 0 -0.00820296 0.999966 8.16925 19.9995)" fill="#F8F8F8"/>
</mask>
<g mask="url(#mask0_2449_2872)">
<path d="M30.6166 28.6141C30.6087 29.5808 29.8418 30.3424 28.9304 30.3424C28.019 30.3424 27.2647 29.5808 27.2726 28.6141C27.2805 27.6474 28.0474 26.8857 28.9588 26.8857C29.8702 26.8857 30.6245 27.6474 30.6166 28.6141Z" fill="#FCEDD4" stroke="#F2BC5E"/>
<path fill-rule="evenodd" clip-rule="evenodd" d="M46.1344 34.8737C46.1689 34.9634 46.1862 35.0544 46.1854 35.1464C46.1728 36.6895 41.0928 37.9404 34.839 37.9404C28.5852 37.9404 23.5257 36.6895 23.5384 35.1464C23.5444 34.4065 24.7156 33.7337 26.6225 33.2339C24.9219 32.2525 21.6887 31.5903 17.9746 31.5903C12.4807 31.5903 8.01503 33.0393 8.00037 34.8268C8.00031 34.8336 8.00032 34.8404 8.00039 34.8472C8.00049 34.856 8.00069 34.8649 8.00101 34.8737H7.99998L7.88534 48.8491H47.6762L47.7908 34.8737H46.1344Z" fill="#E2F6F6"/>
<path d="M46.1344 34.8737L46.1385 34.3737H45.4051L45.6675 35.0564L46.1344 34.8737ZM26.6225 33.2339L26.7456 33.7174L27.9276 33.4076L26.8751 32.8003L26.6225 33.2339ZM8.00039 34.8472L8.50038 34.8377L8.50038 34.8377L8.00039 34.8472ZM8.00101 34.8737L7.99691 35.3737H8.51922L8.50071 34.8519L8.00101 34.8737ZM7.99998 34.8737L8.00408 34.3737H7.50408L7.49998 34.8737L7.99998 34.8737ZM7.88534 48.8491L7.38534 48.8491L7.38124 49.3491H7.88124L7.88534 48.8491ZM47.6762 48.8491L47.672 49.3491H48.172L48.1762 48.8491L47.6762 48.8491ZM47.7908 34.8737L48.2908 34.8737L48.2949 34.3737H47.7949L47.7908 34.8737ZM45.6675 35.0564C45.6812 35.0921 45.6856 35.1212 45.6854 35.1464H46.6854C46.6867 34.9875 46.6566 34.8348 46.6014 34.691L45.6675 35.0564ZM45.6854 35.1464C45.6846 35.243 45.5901 35.4816 45.0382 35.8021C44.5219 36.1019 43.7426 36.389 42.7368 36.6366C40.7331 37.13 37.9418 37.4404 34.8431 37.4404L34.8349 38.4404C37.99 38.4404 40.8656 38.1253 42.9684 37.6075C44.016 37.3495 44.9 37.0345 45.5351 36.6658C46.1346 36.3177 46.6799 35.8213 46.6854 35.1464H45.6854ZM34.8431 37.4404C31.7444 37.4404 28.9581 37.13 26.9625 36.6366C25.9608 36.389 25.1863 36.1019 24.6748 35.8021C24.1282 35.4816 24.0376 35.243 24.0384 35.1464H23.0384C23.0328 35.8213 23.5699 36.3177 24.1638 36.6658C24.7929 37.0345 25.6717 37.3495 26.715 37.6075C28.8094 38.1253 31.6798 38.4404 34.8349 38.4404L34.8431 37.4404ZM24.0384 35.1464C24.0391 35.0551 24.1227 34.8318 24.6247 34.5268C25.0969 34.2399 25.8134 33.9618 26.7456 33.7174L26.4995 32.7503C25.5248 33.0058 24.7022 33.3139 24.1106 33.6734C23.5487 34.0147 23.0437 34.4977 23.0384 35.1464H24.0384ZM26.8751 32.8003C25.0632 31.7548 21.7262 31.0903 17.9787 31.0903L17.9705 32.0903C21.6512 32.0903 24.7806 32.7503 26.37 33.6674L26.8751 32.8003ZM17.9787 31.0903C15.194 31.0903 12.6494 31.4569 10.782 32.0628C9.85101 32.3649 9.06038 32.7354 8.49084 33.1707C7.92841 33.6006 7.50587 34.1558 7.50037 34.8268H8.50037C8.50219 34.6041 8.64336 34.3078 9.09405 33.9633C9.53762 33.6243 10.2095 33.2973 11.0836 33.0137C12.8261 32.4483 15.2613 32.0903 17.9705 32.0903L17.9787 31.0903ZM7.50037 34.8268C7.50029 34.8368 7.5003 34.8468 7.50041 34.8567L8.50038 34.8377C8.50034 34.8341 8.50034 34.8304 8.50037 34.8268H7.50037ZM7.50041 34.8567C7.50055 34.8697 7.50085 34.8826 7.5013 34.8955L8.50071 34.8519C8.50054 34.8472 8.50043 34.8424 8.50038 34.8377L7.50041 34.8567ZM8.00511 34.3737H8.00408L7.99588 35.3737H7.99691L8.00511 34.3737ZM7.49998 34.8737L7.38534 48.8491L8.38534 48.8491L8.49998 34.8737L7.49998 34.8737ZM7.88124 49.3491H47.672L47.6803 48.3491H7.88944L7.88124 49.3491ZM48.1762 48.8491L48.2908 34.8737L47.2908 34.8737L47.1762 48.8491L48.1762 48.8491ZM47.7949 34.3737H46.1385L46.1303 35.3737H47.7867L47.7949 34.3737Z" fill="#10B2B2"/>
<path fill-rule="evenodd" clip-rule="evenodd" d="M20.016 25.2471C19.5742 25.5625 19 25.7533 18.3736 25.7533C17.7472 25.7533 17.176 25.5625 16.7394 25.2471C16.824 25.9318 17.5187 26.4646 18.3677 26.4646C19.2167 26.4646 19.9202 25.9318 20.016 25.2471Z" fill="#6B6B6B"/>
<path fill-rule="evenodd" clip-rule="evenodd" d="M23.5316 23.5289C23.0898 23.8443 22.5156 24.035 21.8893 24.035C21.2628 24.035 20.6917 23.8442 20.255 23.5288C20.3396 24.2135 21.0343 24.7463 21.8833 24.7463C22.7323 24.7463 23.4358 24.2136 23.5316 23.5289Z" fill="#6B6B6B"/>
<path fill-rule="evenodd" clip-rule="evenodd" d="M24.8026 26.3405C24.3608 26.6558 23.7866 26.8466 23.1602 26.8466C22.5338 26.8466 21.9627 26.6557 21.526 26.3403C21.6106 27.025 22.3053 27.5578 23.1543 27.5578C24.0033 27.5578 24.7067 27.0251 24.8026 26.3405Z" fill="#6B6B6B"/>
</g>
<rect x="0.495899" y="0.499983" width="34" height="19" transform="matrix(1 0 -0.00820296 0.999966 8.17335 19.9995)" stroke="#D4D4D4"/>
<rect x="0.495899" y="0.499983" width="6.5" height="3.21875" transform="matrix(1 0 -0.00820296 0.999966 44.1734 19.9995)" fill="white" stroke="#D4D4D4"/>
<rect x="0.495899" y="0.499983" width="6.5" height="3.21875" transform="matrix(1 0 -0.00820296 0.999966 44.1306 25.2178)" fill="white" stroke="#D4D4D4"/>
<rect x="0.495899" y="0.499983" width="6.5" height="3.21875" transform="matrix(1 0 -0.00820296 0.999966 44.0878 30.4365)" fill="white" stroke="#D4D4D4"/>
<rect x="0.495899" y="0.499983" width="6.5" height="3.21875" transform="matrix(1 0 -0.00820296 0.999966 44.0449 35.6553)" fill="white" stroke="#D4D4D4"/>
<rect width="31.6667" height="2" transform="matrix(1 0 -0.00820296 0.999966 9.70197 36.332)" fill="#D4D4D4"/>
<rect width="15.6667" height="2" transform="matrix(1 0 -0.00820296 0.999966 9.70197 36.332)" fill="#949494"/>
</g>
<defs>
<clipPath id="clip0_2449_2872">
<rect width="60" height="60" fill="white"/>
</clipPath>
</defs>
</svg>
