<svg width="60" height="60" viewBox="0 0 60 60" fill="none" xmlns="http://www.w3.org/2000/svg">
<g clip-path="url(#clip0_2471_3743)">
<g clip-path="url(#clip1_2471_3743)">
<rect width="20" height="2" transform="matrix(1 0 -0.00820296 0.999966 6.73749 31.9985)" fill="#C6C6C6"/>
<rect width="20" height="2" transform="matrix(1 0 -0.00820296 0.999966 6.70465 35.9985)" fill="#C6C6C6"/>
<path d="M13.1539 29.9988L13.2195 21.999H11.8109L11.7846 25.1944H8.20197L8.22818 21.999H6.81952L6.7539 29.9988H8.16256L8.19147 26.4748H11.7741L11.7452 29.9988H13.1539Z" fill="#C6C6C6"/>
</g>
<g clip-path="url(#clip2_2471_3743)">
<rect width="20" height="2" transform="matrix(1 0 -0.00820296 0.999966 18.7375 31.9985)" fill="#C6C6C6"/>
<rect width="20" height="2" transform="matrix(1 0 -0.00820296 0.999966 18.7047 35.9985)" fill="#C6C6C6"/>
<path d="M25.1539 29.9988L25.2195 21.999H23.8109L23.7846 25.1944H20.202L20.2282 21.999H18.8195L18.7539 29.9988H20.1626L20.1915 26.4748H23.7741L23.7452 29.9988H25.1539Z" fill="#C6C6C6"/>
</g>
<g clip-path="url(#clip3_2471_3743)">
<rect width="20" height="2" transform="matrix(1 0 -0.00820296 0.999966 30.7375 31.9985)" fill="#C6C6C6"/>
<rect width="20" height="2" transform="matrix(1 0 -0.00820296 0.999966 30.7047 35.9985)" fill="#C6C6C6"/>
<path d="M37.1539 29.9988L37.2195 21.999H35.8109L35.7846 25.1944H32.202L32.2282 21.999H30.8195L30.7539 29.9988H32.1626L32.1915 26.4748H35.7741L35.7452 29.9988H37.1539Z" fill="#C6C6C6"/>
</g>
<g clip-path="url(#clip4_2471_3743)">
<rect width="20" height="2" transform="matrix(1 0 -0.00820296 0.999966 42.7375 31.9985)" fill="#C6C6C6"/>
<rect width="20" height="2" transform="matrix(1 0 -0.00820296 0.999966 42.7047 35.9985)" fill="#C6C6C6"/>
<path d="M49.1539 29.9988L49.2195 21.999H47.8109L47.7846 25.1944H44.202L44.2282 21.999H42.8195L42.7539 29.9988H44.1626L44.1915 26.4748H47.7741L47.7452 29.9988H49.1539Z" fill="#C6C6C6"/>
</g>
<path d="M8.07922 51.921C8.25005 52.0835 8.25005 52.3501 8.07922 52.5126C7.91672 52.6751 7.65005 52.6751 7.48755 52.5126C6.67505 51.7001 6.67505 50.3793 7.48755 49.5668L8.96255 48.0918C9.77505 47.2793 11.0959 47.2793 11.9084 48.0918C12.7209 48.9043 12.7209 50.2251 11.9084 51.0376L11.2875 51.6585C11.2917 51.3168 11.2375 50.9751 11.1209 50.6501L11.3167 50.4501C11.8084 49.9626 11.8084 49.171 11.3167 48.6835C10.8292 48.1918 10.0375 48.1918 9.55005 48.6835L8.07922 50.1543C7.58755 50.6418 7.58755 51.4335 8.07922 51.921ZM9.25422 50.1543C9.41672 49.9918 9.68338 49.9918 9.84588 50.1543C10.6584 50.9668 10.6584 52.2876 9.84588 53.1001L8.37088 54.5751C7.55838 55.3876 6.23755 55.3876 5.42505 54.5751C4.61255 53.7626 4.61255 52.4418 5.42505 51.6293L6.04588 51.0085C6.04172 51.3501 6.09588 51.6918 6.21255 52.021L6.01672 52.2168C5.52505 52.7043 5.52505 53.496 6.01672 53.9835C6.50422 54.4751 7.29588 54.4751 7.78338 53.9835L9.25422 52.5126C9.74588 52.0251 9.74588 51.2335 9.25422 50.746C9.08338 50.5835 9.08338 50.3168 9.25422 50.1543Z" fill="#6B6B6B"/>
</g>
<defs>
<clipPath id="clip0_2471_3743">
<rect width="60" height="60" fill="white"/>
</clipPath>
<clipPath id="clip1_2471_3743">
<rect width="10" height="16" fill="white" transform="matrix(1 0 -0.00820296 0.999966 6.81952 21.999)"/>
</clipPath>
<clipPath id="clip2_2471_3743">
<rect width="10" height="16" fill="white" transform="matrix(1 0 -0.00820296 0.999966 18.8195 21.999)"/>
</clipPath>
<clipPath id="clip3_2471_3743">
<rect width="10" height="16" fill="white" transform="matrix(1 0 -0.00820296 0.999966 30.8195 21.999)"/>
</clipPath>
<clipPath id="clip4_2471_3743">
<rect width="10" height="16" fill="white" transform="matrix(1 0 -0.00820296 0.999966 42.8195 21.999)"/>
</clipPath>
</defs>
</svg>
