<svg width="60" height="60" viewBox="0 0 60 60" fill="none" xmlns="http://www.w3.org/2000/svg">
<g clip-path="url(#clip0_2434_1803)">
<path d="M30.7278 38.6642C28.1662 38.6766 25.7803 38.6023 23.3945 38.5031C22.3703 38.4536 21.3461 38.404 20.3355 38.2181C18.6262 37.9083 17.6717 36.9788 17.4358 35.281C17.1047 32.9883 17.0112 30.6833 17.1427 28.3534C17.2169 26.9282 17.2786 25.5031 17.5899 24.1027C17.9532 22.4668 19.048 21.525 20.7361 21.3763C24.6876 21.0045 28.6366 20.9425 32.5967 21.0417C34.2333 21.0788 35.8697 21.1284 37.4932 21.2399C38.1925 21.2895 38.8916 21.3639 39.5654 21.4878C41.0874 21.7728 41.9785 22.8138 42.2273 24.4745C42.3812 25.5155 42.4602 26.5441 42.4391 27.5975C42.4126 29.3077 42.4109 31.0303 42.3969 32.7405C42.3888 33.7319 42.2557 34.7233 42.0354 35.69C41.6981 37.2019 40.5536 38.1066 38.9403 38.2801C36.1513 38.5899 33.3526 38.5651 30.7278 38.6642Z" fill="white"/>
<path d="M30.7278 38.6642C28.1662 38.6766 25.7803 38.6023 23.3945 38.5031C22.3703 38.4536 21.3461 38.404 20.3355 38.2181C18.6262 37.9083 17.6717 36.9788 17.4358 35.281C17.1047 32.9883 17.0112 30.6833 17.1427 28.3534C17.2169 26.9282 17.2786 25.5031 17.5899 24.1027C17.9532 22.4668 19.048 21.525 20.7361 21.3763C24.6876 21.0045 28.6366 20.9425 32.5967 21.0417C34.2333 21.0788 35.8697 21.1284 37.4932 21.2399C38.1925 21.2895 38.8916 21.3639 39.5654 21.4878C41.0874 21.7728 41.9785 22.8138 42.2273 24.4745C42.3812 25.5155 42.4602 26.5441 42.4391 27.5975C42.4126 29.3077 42.4109 31.0303 42.3969 32.7405C42.3888 33.7319 42.2557 34.7233 42.0354 35.69C41.6981 37.2019 40.5536 38.1066 38.9403 38.2801C36.1513 38.5899 33.3526 38.5651 30.7278 38.6642ZM33.9116 29.8282C31.6978 28.5641 29.5339 27.3248 27.345 26.0731C27.3241 28.6137 27.304 31.0674 27.2833 33.5956C29.4928 32.3315 31.6645 31.1046 33.9116 29.8282Z" fill="#F4BDBD"/>
<path d="M20.4299 37.7263L20.4286 37.7261C19.6429 37.5837 19.08 37.3082 18.6887 36.9156C18.2996 36.5253 18.0378 35.9767 17.931 35.2082L17.9307 35.2056C17.6045 32.9469 17.5122 30.6752 17.6419 28.3775L17.6421 28.3753C17.6454 28.312 17.6486 28.2487 17.6519 28.1856C17.7226 26.8171 17.7908 25.4991 18.078 24.2074L18.078 24.2073C18.2404 23.4758 18.5574 22.9343 18.9916 22.5588C19.4265 22.1826 20.0157 21.9413 20.7759 21.8743L20.7759 21.8743L20.7789 21.874C24.7049 21.5047 28.6331 21.4427 32.5801 21.5415L32.5813 21.5415C34.216 21.5787 35.8429 21.628 37.4543 21.7387C38.1425 21.7875 38.8213 21.8601 39.4702 21.9794C40.1354 22.1041 40.6351 22.3867 40.9977 22.7978C41.364 23.213 41.6188 23.7919 41.7328 24.5522C41.8832 25.5701 41.9597 26.5704 41.9392 27.5915L41.9391 27.5938C41.9214 28.7367 41.9148 29.8872 41.9082 31.033C41.9049 31.6038 41.9016 32.1735 41.8969 32.7405C41.8891 33.6903 41.7615 34.6454 41.5479 35.5827L41.5474 35.5849C41.2642 36.8543 40.3235 37.6289 38.8909 37.7829L38.8891 37.7831C36.8952 38.0046 34.9065 38.0529 32.9562 38.1002C32.2049 38.1184 31.4593 38.1365 30.7213 38.1643C28.1745 38.1764 25.8003 38.1025 23.4209 38.0036C22.3918 37.9538 21.4017 37.9051 20.4299 37.7263Z" stroke="#E98080"/>
</g>
<defs>
<clipPath id="clip0_2434_1803">
<rect width="60" height="60" fill="white"/>
</clipPath>
</defs>
</svg>
