<svg width="60" height="60" viewBox="0 0 60 60" fill="none" xmlns="http://www.w3.org/2000/svg">
<g clip-path="url(#clip0_2480_2058)">
<path d="M32.0319 37.0813L26.9928 22.3325H21.561L16.0292 37.0813H20.9177L21.6685 34.6998H26.3481L27.0598 37.0813H32.0319ZM22.5307 31.4617C23.2164 29.3727 23.6676 27.8477 24.119 26.3017C24.5032 27.8477 24.9087 29.3518 25.5182 31.4617H22.5307Z" fill="#6B6B6B"/>
<path d="M39.3455 35.9323C39.3419 36.371 39.4224 36.7471 39.4823 37.0813H43.4726C43.2471 36.5591 43.193 35.5145 43.2029 34.3029L43.2353 30.3545C43.2493 28.6415 42.9642 27.7432 42.1964 27.1165C41.3666 26.4062 40.0322 26.0719 38.3818 26.0719C34.8512 26.0719 33.315 27.4298 33.0233 29.874L36.8233 30.1456C36.9129 29.4145 37.2509 28.9549 38.0657 28.9549C38.8805 28.9549 39.233 29.2682 39.2276 29.9367L39.2241 30.3545C37.9696 30.4799 35.8368 30.7097 34.5159 31.2946C33.2158 31.8796 32.5195 32.7152 32.5081 34.1149C32.4919 36.0786 33.7769 37.332 35.887 37.332C37.3285 37.332 38.4388 36.956 39.3455 35.9323ZM39.2043 32.7778C39.1953 33.8642 38.4797 34.5118 37.4143 34.5118C36.704 34.5118 36.4774 34.1149 36.4803 33.7597C36.4832 33.4046 36.6105 33.1748 36.9461 33.0076C37.4283 32.7987 38.2655 32.6107 39.2063 32.5272L39.2043 32.7778Z" fill="#6B6B6B"/>
</g>
<defs>
<clipPath id="clip0_2480_2058">
<rect width="60" height="60" fill="white"/>
</clipPath>
</defs>
</svg>
