<svg width="60" height="60" viewBox="0 0 60 60" fill="none" xmlns="http://www.w3.org/2000/svg">
<g clip-path="url(#clip0_2482_1214)">
<g clip-path="url(#clip1_2482_1214)">
<rect width="20" height="20" transform="matrix(1 0 -0.00820296 0.999966 19.8359 19.999)" fill="white"/>
<rect width="20" height="1" transform="matrix(-0.008203 0.999966 -1 -4.37099e-08 27.1693 19.999)" fill="#BFBFBF"/>
<rect width="20" height="1" transform="matrix(-0.008203 0.999966 -1 -4.37099e-08 20.8359 19.999)" fill="#BFBFBF"/>
<rect width="20" height="1" transform="matrix(-0.008203 0.999966 -1 -4.37099e-08 33.5026 19.999)" fill="#BFBFBF"/>
<rect width="20" height="0.999999" transform="matrix(-0.008203 0.999966 -1 -4.371e-08 39.8359 19.999)" fill="#BFBFBF"/>
<rect width="20" height="1" transform="matrix(1 0 -0.00820296 0.999966 19.717 34.499)" fill="#BFBFBF"/>
<rect width="20" height="1" transform="matrix(1 0 -0.00820296 0.999966 19.758 29.499)" fill="#BFBFBF"/>
<rect width="20" height="1" transform="matrix(1 0 -0.00820296 0.999966 19.6801 38.998)" fill="#BFBFBF"/>
</g>
<rect width="20" height="5" transform="matrix(1 0 -0.00820296 0.999966 19.8359 19.999)" fill="white"/>
<rect width="20" height="1" transform="matrix(1 0 -0.00820296 0.999966 19.8359 19.999)" fill="#BFBFBF"/>
<rect width="20" height="1" transform="matrix(1 0 -0.00820296 0.999966 19.799 24.499)" fill="#BFBFBF"/>
<rect width="5.33333" height="1" transform="matrix(-0.008203 0.999966 -1 -4.37099e-08 20.8359 19.999)" fill="#BFBFBF"/>
<rect width="5.33333" height="1" transform="matrix(-0.008203 0.999966 -1 -4.37099e-08 39.8359 19.999)" fill="#BFBFBF"/>
</g>
<defs>
<clipPath id="clip0_2482_1214">
<rect width="60" height="60" fill="white"/>
</clipPath>
<clipPath id="clip1_2482_1214">
<rect width="20" height="20" fill="white" transform="matrix(1 0 -0.00820296 0.999966 19.8359 19.999)"/>
</clipPath>
</defs>
</svg>
