<svg width="60" height="60" viewBox="0 0 60 60" fill="none" xmlns="http://www.w3.org/2000/svg">
<g clip-path="url(#clip0_2471_1348)">
<path d="M25.9271 34.9987C25.0628 34.9987 24.3692 34.6878 23.8461 34.0659C23.3232 33.4191 23.0662 32.561 23.075 31.4913C23.0862 30.1232 23.4808 28.8422 24.2589 27.6482C25.0369 26.4542 25.9924 25.5711 27.1255 24.999L27.4804 25.6333C26.997 26.0313 26.5608 26.5164 26.172 27.0885C25.8072 27.6606 25.5134 28.3571 25.2906 29.178L26.045 29.4019C26.8112 29.6506 27.4083 30.0237 27.8364 30.5212C28.2885 31.0187 28.5115 31.6282 28.5056 32.3495C28.4991 33.1455 28.2417 33.7923 27.7335 34.2898C27.2254 34.7624 26.6233 34.9987 25.9271 34.9987ZM33.4894 34.9987C32.6252 34.9987 31.9315 34.6878 31.4084 34.0659C30.8856 33.4191 30.6285 32.561 30.6373 31.4913C30.6485 30.1232 31.0432 28.8422 31.8212 27.6482C32.5992 26.4542 33.5547 25.5711 34.6878 24.999L35.0427 25.6333C34.5593 26.0313 34.1232 26.5164 33.7344 27.0885C33.3696 27.6606 33.0758 28.3571 32.853 29.178L33.6074 29.4019C34.3735 29.6506 34.9707 30.0237 35.3987 30.5212C35.8508 31.0187 36.0739 31.6282 36.0679 32.3495C36.0614 33.1455 35.804 33.7923 35.2958 34.2898C34.7878 34.7624 34.1856 34.9987 33.4894 34.9987Z" fill="#C6C6C6"/>
</g>
<defs>
<clipPath id="clip0_2471_1348">
<rect width="60" height="60" fill="white"/>
</clipPath>
</defs>
</svg>
