<svg width="60" height="60" viewBox="0 0 60 60" fill="none" xmlns="http://www.w3.org/2000/svg">
<g clip-path="url(#clip0_2471_2786)">
<g clip-path="url(#clip1_2471_2786)">
<rect width="20" height="20" rx="9.99998" transform="matrix(1 0 -0.00820296 0.999966 7.16925 19.9995)" fill="white"/>
<mask id="mask0_2471_2786" style="mask-type:alpha" maskUnits="userSpaceOnUse" x="7" y="19" width="21" height="21">
<rect x="0.495899" y="0.499983" width="19" height="19" rx="9.49998" transform="matrix(1 0 -0.00820296 0.999966 7.17335 19.9995)" fill="#CBF7E1" stroke="#1FC47A"/>
</mask>
<g mask="url(#mask0_2471_2786)">
<rect x="0.495899" y="0.499983" width="4.33333" height="4.33333" rx="2.16667" transform="matrix(1 0 -0.00820296 0.999966 14.493 21.666)" fill="#FCEDD4" stroke="#F2BC5E"/>
<rect x="0.495899" y="0.499983" width="6.85713" height="6.85713" rx="3.42856" transform="matrix(1 0 -0.00820296 0.999966 13.2184 23.2139)" fill="#E2F6F6" stroke="#61CCCC"/>
<mask id="path-5-inside-1_2471_2786" fill="white">
<path fill-rule="evenodd" clip-rule="evenodd" d="M20.5375 25.1918C19.5827 25.9081 18.3979 26.3328 17.1173 26.3328C15.8367 26.3328 14.6588 25.9081 13.7158 25.1917C14.4028 24.01 15.6831 23.2139 17.1428 23.2139C18.6026 23.2139 19.8699 24.01 20.5375 25.1918Z"/>
</mask>
<path fill-rule="evenodd" clip-rule="evenodd" d="M20.5375 25.1918C19.5827 25.9081 18.3979 26.3328 17.1173 26.3328C15.8367 26.3328 14.6588 25.9081 13.7158 25.1917C14.4028 24.01 15.6831 23.2139 17.1428 23.2139C18.6026 23.2139 19.8699 24.01 20.5375 25.1918Z" fill="#FCEDD4"/>
<path d="M20.5375 25.1918L21.1334 25.9899L21.8411 25.4591L21.4092 24.6946L20.5375 25.1918ZM13.7158 25.1917L12.8522 24.6945L12.4078 25.4589L13.1067 25.9898L13.7158 25.1917ZM19.9416 24.3937C19.1553 24.9835 18.1812 25.3329 17.1255 25.3329L17.1091 27.3328C18.6145 27.3328 20.0101 26.8327 21.1334 25.9899L19.9416 24.3937ZM17.1255 25.3329C16.0698 25.3329 15.1014 24.9835 14.3248 24.3936L13.1067 25.9898C14.2163 26.8326 15.6037 27.3328 17.1091 27.3328L17.1255 25.3329ZM14.5793 25.689C15.0929 24.8054 16.0477 24.2138 17.1346 24.2138L17.151 22.2139C15.3184 22.2139 13.7126 23.2146 12.8522 24.6945L14.5793 25.689ZM17.1346 24.2138C18.2216 24.2138 19.1667 24.8055 19.6658 25.689L21.4092 24.6946C20.5731 23.2146 18.9837 22.2139 17.151 22.2139L17.1346 24.2138Z" fill="#F2BC5E" mask="url(#path-5-inside-1_2471_2786)"/>
<rect x="0.495899" y="0.499983" width="11.1428" height="11.1428" rx="5.57142" transform="matrix(1 0 -0.00820296 0.999966 11.0023 32.1421)" fill="#F2EAF7" stroke="#B98BD3"/>
<rect x="0.495899" y="0.499983" width="19" height="19" rx="9.49998" transform="matrix(1 0 -0.00820296 0.999966 7.17335 19.9995)" stroke="#C6C6C6"/>
</g>
</g>
<g clip-path="url(#clip2_2471_2786)">
<circle r="9.5" transform="matrix(1 0 -0.00820296 0.999966 42.0872 29.9992)" fill="white" stroke="#C6C6C6"/>
<path d="M39.5661 34.999L39.5714 34.3514H40.5691C40.7752 34.3514 40.9534 34.3274 41.1036 34.2794C41.2634 34.2219 41.386 34.1211 41.4715 33.9772C41.5663 33.8333 41.6149 33.6222 41.6172 33.344L41.6783 25.8893C41.4417 26.1867 41.2194 26.4505 41.0114 26.6808C40.8035 26.9015 40.6054 27.0742 40.417 27.1989C40.2286 27.3236 40.0408 27.386 39.8534 27.386C39.6379 27.386 39.4606 27.3092 39.3213 27.1557C39.1822 26.9926 39.1136 26.7815 39.1158 26.5225C39.3035 26.4745 39.496 26.4122 39.6934 26.3354C39.9002 26.2491 40.126 26.1339 40.3707 25.99C40.6249 25.8365 40.9075 25.6446 41.2185 25.4144L42.2083 24.666H43.2902L43.219 33.344C43.2168 33.6126 43.2573 33.8237 43.3403 33.9772C43.4234 34.1211 43.5444 34.2219 43.7032 34.2794C43.862 34.3274 44.0398 34.3514 44.2365 34.3514H45.0515L45.0462 34.999H39.5661Z" fill="#C6C6C6"/>
</g>
<path d="M8.07922 51.921C8.25005 52.0835 8.25005 52.3501 8.07922 52.5126C7.91672 52.6751 7.65005 52.6751 7.48755 52.5126C6.67505 51.7001 6.67505 50.3793 7.48755 49.5668L8.96255 48.0918C9.77505 47.2793 11.0959 47.2793 11.9084 48.0918C12.7209 48.9043 12.7209 50.2251 11.9084 51.0376L11.2875 51.6585C11.2917 51.3168 11.2375 50.9751 11.1209 50.6501L11.3167 50.4501C11.8084 49.9626 11.8084 49.171 11.3167 48.6835C10.8292 48.1918 10.0375 48.1918 9.55005 48.6835L8.07922 50.1543C7.58755 50.6418 7.58755 51.4335 8.07922 51.921ZM9.25422 50.1543C9.41672 49.9918 9.68338 49.9918 9.84588 50.1543C10.6584 50.9668 10.6584 52.2876 9.84588 53.1001L8.37088 54.5751C7.55838 55.3876 6.23755 55.3876 5.42505 54.5751C4.61255 53.7626 4.61255 52.4418 5.42505 51.6293L6.04588 51.0085C6.04172 51.3501 6.09588 51.6918 6.21255 52.021L6.01672 52.2168C5.52505 52.7043 5.52505 53.496 6.01672 53.9835C6.50422 54.4751 7.29588 54.4751 7.78338 53.9835L9.25422 52.5126C9.74588 52.0251 9.74588 51.2335 9.25422 50.746C9.08338 50.5835 9.08338 50.3168 9.25422 50.1543Z" fill="#6B6B6B"/>
</g>
<defs>
<clipPath id="clip0_2471_2786">
<rect width="60" height="60" fill="white"/>
</clipPath>
<clipPath id="clip1_2471_2786">
<rect width="20" height="20" fill="white" transform="matrix(1 0 -0.00820296 0.999966 7.16925 19.9995)"/>
</clipPath>
<clipPath id="clip2_2471_2786">
<rect width="20" height="20" fill="white" transform="matrix(1 0 -0.00820296 0.999966 32.1693 19.9995)"/>
</clipPath>
</defs>
</svg>
