<svg width="60" height="60" viewBox="0 0 60 60" fill="none" xmlns="http://www.w3.org/2000/svg">
<g clip-path="url(#clip0_2471_1999)">
<path d="M21.0473 34.8606L21.0524 34.239H21.2882C21.4731 34.239 21.6213 34.2114 21.7327 34.1562C21.8534 34.1009 21.9605 33.9996 22.0542 33.8523C22.1572 33.6958 22.2607 33.4702 22.3649 33.1755L25.497 24.999H26.8007L29.7966 33.438C29.8781 33.6497 29.9599 33.8155 30.0422 33.9352C30.1337 34.0457 30.2394 34.1239 30.3592 34.17C30.4883 34.216 30.636 34.239 30.8025 34.239H30.9966L30.9915 34.8606H26.9695L26.9746 34.239H27.349C27.5894 34.239 27.7794 34.1884 27.9189 34.0871C28.0585 33.9858 28.1291 33.8247 28.1309 33.6037C28.1314 33.5485 28.1272 33.4932 28.1184 33.438C28.1096 33.3827 28.0962 33.3229 28.0783 33.2584C28.0603 33.194 28.0423 33.1341 28.0243 33.0789L27.4957 31.5734H23.9175L23.4207 32.9546C23.3924 33.0282 23.3686 33.1065 23.3495 33.1894C23.3304 33.263 23.3113 33.3367 23.2922 33.4103C23.2824 33.4748 23.2772 33.5393 23.2767 33.6037C23.275 33.8155 23.3476 33.9766 23.4947 34.0871C23.6418 34.1884 23.8448 34.239 24.1037 34.239H24.5059L24.5008 34.8606H21.0473ZM24.2009 30.8414H27.2382L26.4394 28.4658C26.3583 28.2079 26.2726 27.9547 26.1821 27.7061C26.101 27.4575 26.029 27.2181 25.9661 26.9879C25.9034 26.7485 25.8452 26.5183 25.7915 26.2973C25.7532 26.4631 25.7102 26.6288 25.6626 26.7945C25.6151 26.9511 25.5629 27.1122 25.5061 27.278C25.4585 27.4437 25.4016 27.6186 25.3353 27.8028C25.2784 27.9777 25.2076 28.1619 25.1228 28.3553L24.2009 30.8414Z" fill="#C6C6C6"/>
<path d="M33.8166 34.9987C33.4097 34.9987 33.0405 34.9204 32.709 34.7639C32.3867 34.5981 32.1344 34.3541 31.9522 34.0319C31.77 33.7004 31.6809 33.2814 31.6851 32.775C31.6911 32.0384 31.9545 31.4951 32.4751 31.1452C32.9959 30.7861 33.788 30.5882 34.8516 30.5513L35.9893 30.5099L35.9958 29.7088C35.9985 29.3773 35.9732 29.0873 35.9197 28.8387C35.8756 28.5901 35.7708 28.3967 35.6055 28.2586C35.4403 28.1113 35.1866 28.0376 34.8445 28.0376C34.5209 28.0376 34.2707 28.1021 34.094 28.231C33.9265 28.3599 33.8095 28.5394 33.7429 28.7696C33.6856 28.9906 33.6557 29.2484 33.6533 29.5431C33.2095 29.5431 32.8725 29.4786 32.6424 29.3497C32.4124 29.2116 32.2987 28.9814 32.3014 28.6591C32.3041 28.3276 32.4218 28.0652 32.6546 27.8719C32.8965 27.6785 33.2121 27.5358 33.6012 27.4437C33.9995 27.3516 34.4345 27.3056 34.906 27.3056C35.7844 27.3056 36.4394 27.4851 36.871 27.8442C37.3119 28.2033 37.5288 28.8157 37.5217 29.6812L37.4924 33.2446C37.4903 33.5024 37.5164 33.705 37.5707 33.8523C37.625 33.9904 37.7166 34.0917 37.8456 34.1562C37.9745 34.2114 38.1407 34.239 38.3442 34.239H38.3858L38.3807 34.8606H36.3142L36.0876 33.7418H35.9627C35.7665 33.9904 35.5752 34.2114 35.3887 34.4048C35.2022 34.5889 34.9884 34.7363 34.7471 34.8468C34.5058 34.948 34.1957 34.9987 33.8166 34.9987ZM34.2678 34.1009C34.6191 34.1009 34.9202 34.0273 35.1711 33.8799C35.422 33.7234 35.618 33.5024 35.759 33.217C35.9 32.9315 35.9721 32.6001 35.9752 32.2225L35.9842 31.1314L35.1655 31.1728C34.6846 31.1913 34.3049 31.2695 34.0263 31.4076C33.7479 31.5366 33.5476 31.7207 33.4254 31.9601C33.3125 32.1995 33.2546 32.4942 33.2517 32.8441C33.2495 33.1203 33.2845 33.3551 33.3569 33.5485C33.4294 33.7326 33.5392 33.8707 33.6864 33.9628C33.8428 34.0549 34.0366 34.1009 34.2678 34.1009Z" fill="#C6C6C6"/>
</g>
<defs>
<clipPath id="clip0_2471_1999">
<rect width="60" height="60" fill="white"/>
</clipPath>
</defs>
</svg>
