<svg width="60" height="60" viewBox="0 0 60 60" fill="none" xmlns="http://www.w3.org/2000/svg">
<g clip-path="url(#clip0_2480_3520)">
<rect x="0.495899" y="0.499983" width="6.5" height="3.21875" transform="matrix(1 0 -0.00820296 0.999966 44.1734 19.9995)" fill="white" stroke="#BFBFBF"/>
<rect x="0.495899" y="0.499983" width="6.5" height="3.21875" transform="matrix(1 0 -0.00820296 0.999966 44.1306 25.2178)" fill="white" stroke="#BFBFBF"/>
<rect x="0.495899" y="0.499983" width="6.5" height="3.21875" transform="matrix(1 0 -0.00820296 0.999966 44.0878 30.4365)" fill="white" stroke="#BFBFBF"/>
<rect x="0.495899" y="0.499983" width="6.5" height="3.21875" transform="matrix(1 0 -0.00820296 0.999966 44.0449 35.6553)" fill="white" stroke="#BFBFBF"/>
<rect width="35" height="20" transform="matrix(1 0 -0.00820296 0.999966 8.16925 19.9995)" fill="white"/>
<mask id="mask0_2480_3520" style="mask-type:alpha" maskUnits="userSpaceOnUse" x="8" y="19" width="36" height="21">
<rect width="35" height="20" transform="matrix(1 0 -0.00820296 0.999966 8.16925 19.9995)" fill="#F8F8F8"/>
</mask>
<g mask="url(#mask0_2480_3520)">
<path d="M38.62 25.9991C38.6102 27.1957 37.6322 28.1657 36.4356 28.1657C35.2389 28.1657 34.2768 27.1957 34.2867 25.9991C34.2965 24.8025 35.2745 23.8325 36.4711 23.8325C37.6677 23.8325 38.6298 24.8025 38.62 25.9991Z" fill="#FCEDD4" stroke="#F2BC5E"/>
<path fill-rule="evenodd" clip-rule="evenodd" d="M46.1584 31.9494C46.1928 32.0391 46.2101 32.1301 46.2094 32.2221C46.1967 33.7652 41.1167 35.0161 34.8629 35.0161C28.6091 35.0161 23.5496 33.7652 23.5623 32.2221C23.5684 31.4821 24.7395 30.8094 26.6465 30.3095C24.9459 29.3282 21.7126 28.666 17.9985 28.666C12.5046 28.666 8.03896 30.115 8.02429 31.9025C8.02416 31.9181 8.02438 31.9338 8.02493 31.9494H8.02391L7.90926 45.9248H47.7001L47.8147 31.9494H46.1584Z" fill="#E2F6F6"/>
<path d="M46.1584 31.9494L46.1625 31.4494H45.4291L45.6914 32.1321L46.1584 31.9494ZM26.6465 30.3095L26.7695 30.7931L27.9515 30.4833L26.899 29.876L26.6465 30.3095ZM8.02493 31.9494L8.02083 32.4494H8.54314L8.52463 31.9276L8.02493 31.9494ZM8.02391 31.9494L8.02801 31.4494H7.52801L7.52391 31.9494L8.02391 31.9494ZM7.90926 45.9248H7.40926L7.40516 46.4248H7.90516L7.90926 45.9248ZM47.7001 45.9248L47.696 46.4248H48.196L48.2001 45.9248H47.7001ZM47.8147 31.9494L48.3147 31.9494L48.3188 31.4494H47.8188L47.8147 31.9494ZM45.6914 32.1321C45.7051 32.1678 45.7096 32.1969 45.7094 32.2221H46.7094C46.7107 32.0632 46.6805 31.9104 46.6253 31.7667L45.6914 32.1321ZM45.7094 32.2221C45.7086 32.3187 45.6141 32.5573 45.0622 32.8778C44.5458 33.1776 43.7665 33.4646 42.7608 33.7123C40.757 34.2057 37.9657 34.5161 34.867 34.5161L34.8588 35.5161C38.0139 35.5161 40.8895 35.201 42.9924 34.6832C44.0399 34.4252 44.9239 34.1102 45.559 33.7415C46.1586 33.3934 46.7038 32.897 46.7094 32.2221H45.7094ZM34.867 34.5161C31.7683 34.5161 28.9821 34.2057 26.9864 33.7123C25.9848 33.4646 25.2102 33.1776 24.6987 32.8778C24.1521 32.5573 24.0615 32.3187 24.0623 32.2221H23.0623C23.0568 32.897 23.5939 33.3934 24.1877 33.7415C24.8168 34.1102 25.6956 34.4252 26.7389 34.6832C28.8333 35.201 31.7037 35.5161 34.8588 35.5161L34.867 34.5161ZM24.0623 32.2221C24.0631 32.1308 24.1467 31.9075 24.6486 31.6025C25.1208 31.3156 25.8373 31.0375 26.7695 30.7931L26.5234 29.826C25.5487 30.0815 24.7261 30.3896 24.1345 30.7491C23.5726 31.0904 23.0676 31.5734 23.0623 32.2221H24.0623ZM26.899 29.876C25.0872 28.8305 21.7501 28.166 18.0026 28.166L17.9944 29.166C21.6751 29.166 24.8046 29.826 26.3939 30.7431L26.899 29.876ZM18.0026 28.166C15.2179 28.166 12.6733 28.5326 10.8059 29.1385C9.87493 29.4406 9.0843 29.8111 8.51476 30.2464C7.95233 30.6763 7.5298 31.2315 7.52429 31.9025H8.52429C8.52612 31.6798 8.66729 31.3835 9.11797 31.039C9.56154 30.6999 10.2334 30.373 11.1075 30.0894C12.85 29.524 15.2852 29.166 17.9944 29.166L18.0026 28.166ZM7.52429 31.9025C7.5241 31.9254 7.52442 31.9483 7.52523 31.9712L8.52463 31.9276C8.52434 31.9192 8.52422 31.9109 8.52429 31.9025H7.52429ZM8.02903 31.4494H8.02801L8.01981 32.4494H8.02083L8.02903 31.4494ZM7.52391 31.9494L7.40926 45.9248H8.40926L8.52391 31.9494L7.52391 31.9494ZM7.90516 46.4248H47.696L47.7042 45.4248H7.91337L7.90516 46.4248ZM48.2001 45.9248L48.3147 31.9494L47.3147 31.9494L47.2001 45.9248H48.2001ZM47.8188 31.4494H46.1625L46.1543 32.4494H47.8106L47.8188 31.4494Z" fill="#61CCCC"/>
<path fill-rule="evenodd" clip-rule="evenodd" d="M24.7433 24.3843C24.3015 24.6997 23.7272 24.8905 23.1008 24.8905C22.4744 24.8905 21.9033 24.6997 21.4666 24.3843C21.5512 25.069 22.2459 25.6018 23.095 25.6018C23.944 25.6018 24.6474 25.069 24.7433 24.3843Z" fill="#6B6B6B"/>
<path fill-rule="evenodd" clip-rule="evenodd" d="M28.2588 22.6661C27.817 22.9815 27.2428 23.1723 26.6164 23.1723C25.99 23.1723 25.4188 22.9814 24.9822 22.666C25.0668 23.3507 25.7615 23.8835 26.6105 23.8835C27.4595 23.8835 28.1629 23.3508 28.2588 22.6661Z" fill="#6B6B6B"/>
<path fill-rule="evenodd" clip-rule="evenodd" d="M29.5299 25.4777C29.0881 25.793 28.5138 25.9838 27.8875 25.9838C27.2611 25.9838 26.6899 25.793 26.2532 25.4775C26.3378 26.1622 27.0326 26.695 27.8816 26.695C28.7306 26.695 29.434 26.1623 29.5299 25.4777Z" fill="#6B6B6B"/>
</g>
<rect x="0.495899" y="0.499983" width="34" height="19" transform="matrix(1 0 -0.00820296 0.999966 8.17335 19.9995)" stroke="#61CCCC"/>
<path d="M16.3878 33.9992L11.3641 36.8859L11.4114 31.1126L16.3878 33.9992Z" fill="#6B6B6B"/>
</g>
<defs>
<clipPath id="clip0_2480_3520">
<rect width="60" height="60" fill="white"/>
</clipPath>
</defs>
</svg>
