<svg width="60" height="60" viewBox="0 0 60 60" fill="none" xmlns="http://www.w3.org/2000/svg">
<g clip-path="url(#clip0_2434_1303)">
<path d="M27.2761 27.1677H27.7761L27.7802 26.6677L27.8034 23.8469C27.8131 22.6672 28.1284 21.8634 28.7008 21.3445C29.2825 20.8172 30.2217 20.4995 31.6584 20.4995H34.3318L34.3059 23.6668H32.4068C31.9764 23.6668 31.5362 23.7496 31.2501 24.1183C30.9967 24.445 30.9639 24.8857 30.9606 25.2786L30.9492 26.6677L30.9451 27.1677H31.4451H34.2303L34.0022 29.5005H31.4247H30.9247L30.9206 30.0005L30.8426 39.4989H27.675L27.7529 30.0005L27.757 29.5005H27.257H25.258L25.2771 27.1677H27.2761Z" fill="#E7ECF6" stroke="#7A97CE"/>
</g>
<defs>
<clipPath id="clip0_2434_1303">
<rect width="60" height="60" fill="white"/>
</clipPath>
</defs>
</svg>
