<svg width="60" height="60" viewBox="0 0 60 60" fill="none" xmlns="http://www.w3.org/2000/svg">
<g clip-path="url(#clip0_2434_5502)">
<path d="M19.756 29.841C19.6399 35.548 24.1451 39.9889 29.6761 39.9988C35.2074 39.9692 39.597 35.5875 39.7498 30.2267C39.9157 24.4702 35.3714 19.9798 29.8303 19.9996C24.1903 20.0095 19.8691 24.4999 19.756 29.841Z" fill="white"/>
<path d="M29.6761 39.9988C24.1451 39.9889 19.6399 35.548 19.756 29.841C19.8691 24.4999 24.1903 20.0095 29.8303 19.9996C35.3714 19.9798 39.9157 24.4702 39.7498 30.2267C39.597 35.5875 35.2074 39.9692 29.6761 39.9988ZM29.1609 28.021C29.1485 29.5343 29.136 31.0575 29.1236 32.5708C29.1231 32.6302 29.1225 32.6994 29.1319 32.7587C29.1505 32.9071 29.2388 32.9961 29.3871 33.006C29.6344 33.0159 29.8917 33.0159 30.1391 33.006C30.2777 33.006 30.3773 32.917 30.3884 32.7686C30.3989 32.6994 30.4094 32.6203 30.41 32.551C30.4348 29.5343 30.4595 26.5176 30.4843 23.5009C30.4849 23.4218 30.4757 23.3328 30.4665 23.2537C30.4478 23.1251 30.3693 23.046 30.2505 23.046C29.9834 23.0361 29.7064 23.0361 29.4392 23.046C29.3105 23.046 29.2306 23.135 29.2099 23.2537C29.1994 23.3229 29.1988 23.402 29.1982 23.4713C29.1757 25.0043 29.1733 26.5077 29.1609 28.021ZM32.9463 33.3621C32.9545 32.3532 32.9628 31.3444 32.9711 30.3355C32.9732 30.0783 32.8751 29.9794 32.6277 29.9794C32.4298 29.9794 32.2319 29.9794 32.034 29.9794C31.7867 29.9794 31.6869 30.0783 31.6849 30.3256C31.6683 32.3433 31.6518 34.3611 31.6352 36.3788C31.6333 36.6162 31.7412 36.725 31.9786 36.7349C32.1467 36.7448 32.315 36.7349 32.4832 36.7349C32.8394 36.7349 32.9193 36.6557 32.9222 36.2997C32.9302 35.3205 32.9382 34.3413 32.9463 33.3621ZM26.621 27.6551C26.6156 28.3079 26.6103 28.9607 26.6049 29.6135C26.6033 29.8113 26.6914 29.9201 26.8695 29.9201C27.1168 29.93 27.3643 29.9201 27.6116 29.9201C27.7403 29.9201 27.8397 29.8607 27.8606 29.7223C27.8811 29.6431 27.8916 29.564 27.8923 29.475C27.9023 28.2584 27.9124 27.032 27.9224 25.8154C27.9228 25.756 27.9234 25.6868 27.914 25.6275C27.8859 25.4395 27.8171 25.3802 27.6292 25.3703C27.4215 25.3604 27.2137 25.3604 27.0058 25.3703C26.709 25.3703 26.649 25.4395 26.6466 25.7363C26.6314 26.3792 26.6262 27.0221 26.621 27.6551ZM24.0502 29.8508C24.0459 30.3751 24.0415 30.9092 24.0372 31.4334C24.0351 31.6905 24.1234 31.7796 24.3905 31.7894C24.5587 31.7894 24.7269 31.7894 24.8951 31.7894C25.2315 31.7894 25.3213 31.7004 25.3241 31.3543C25.3322 30.3652 25.3403 29.3761 25.3485 28.387C25.349 28.3178 25.3497 28.2386 25.3404 28.1694C25.3117 28.0408 25.2532 27.9419 25.1048 27.932C24.8575 27.9221 24.6004 27.9122 24.3529 27.9221C24.1253 27.932 24.0652 28.021 24.0632 28.2584C24.0588 28.7925 24.0545 29.3167 24.0502 29.8508ZM34.2248 31.8982C34.2205 32.4225 34.2162 32.9467 34.2119 33.4709C34.2099 33.7182 34.3079 33.827 34.5652 33.827C34.7631 33.827 34.9511 33.827 35.149 33.827C35.3963 33.827 35.5061 33.7182 35.5081 33.4709C35.5167 32.4225 35.5254 31.3641 35.534 30.3157C35.5357 30.0981 35.4277 29.9992 35.2101 29.9893C35.0023 29.9893 34.7945 29.9893 34.5868 29.9893C34.3394 29.9893 34.2496 30.0783 34.2475 30.3355C34.2334 30.8498 34.2291 31.374 34.2248 31.8982ZM21.4888 30.8894C21.4873 31.0773 21.4858 31.2553 21.4843 31.4433C21.4824 31.6708 21.5805 31.7796 21.808 31.7894C22.0256 31.7993 22.2433 31.7993 22.461 31.7894C22.6689 31.7796 22.7686 31.6905 22.7703 31.4828C22.7834 31.0872 22.7866 30.6916 22.78 30.2959C22.7817 30.0882 22.6736 29.9992 22.456 29.9893C22.2482 29.9893 22.0404 29.9893 21.8326 29.9893C21.5952 29.9893 21.5053 30.0882 21.4935 30.3256C21.482 30.5135 21.4904 30.7015 21.4888 30.8894ZM36.7859 30.8795C36.7844 31.0674 36.7829 31.2553 36.7813 31.4433C36.7794 31.6807 36.8676 31.7796 37.115 31.7796C37.3128 31.7894 37.5009 31.7796 37.6988 31.7796C37.956 31.7796 38.0658 31.6708 38.0777 31.4235C38.0907 31.0476 38.0937 30.6718 38.087 30.286C38.0885 30.0981 37.9609 29.9794 37.7729 29.9794C37.5453 29.9794 37.3177 29.9794 37.0902 29.9794C36.8923 29.9794 36.8025 30.0684 36.8009 30.2663C36.7794 30.474 36.7876 30.6817 36.7859 30.8795Z" fill="#F4BDBD"/>
<path d="M29.827 20.4996L29.8279 20.4996C35.092 20.4808 39.4077 24.7445 39.25 30.2164L39.25 30.2165C39.1049 35.3063 34.9381 39.4696 29.6795 39.4989C24.4226 39.4886 20.1457 35.2706 20.2559 29.8472C20.3635 24.7724 24.4674 20.509 29.827 20.4996Z" stroke="#E98080"/>
</g>
<defs>
<clipPath id="clip0_2434_5502">
<rect width="60" height="60" fill="white"/>
</clipPath>
</defs>
</svg>
