<svg width="60" height="60" viewBox="0 0 60 60" fill="none" xmlns="http://www.w3.org/2000/svg">
<g clip-path="url(#clip0_2434_2349)">
<rect width="10" height="2" transform="matrix(1 0 -0.00820296 0.999966 6.75391 29.999)" fill="#D4D4D4"/>
<rect width="10" height="2" transform="matrix(1 0 -0.00820296 0.999966 6.72107 33.999)" fill="#D4D4D4"/>
<rect width="10" height="2" transform="matrix(1 0 -0.00820296 0.999966 6.68829 37.9985)" fill="#D4D4D4"/>
<path d="M6.77031 27.9992L6.77445 27.4951H7.01418C7.17399 27.4951 7.31494 27.4764 7.43701 27.439C7.56669 27.4017 7.67004 27.327 7.74707 27.215C7.82409 27.1029 7.86352 26.9349 7.86536 26.7108L7.91021 21.2432C7.91199 21.0266 7.87145 20.866 7.78859 20.7614C7.71335 20.6568 7.61116 20.5896 7.48203 20.5597C7.36057 20.5224 7.22373 20.5037 7.07153 20.5037H6.8318L6.83594 19.9995H10.3291L10.325 20.5037H10.0852C9.93302 20.5037 9.79207 20.5224 9.66239 20.5597C9.53271 20.5971 9.42936 20.6718 9.35233 20.7838C9.27537 20.8884 9.23594 21.0564 9.23404 21.288L9.21566 23.5288H12.7316L12.75 21.288C12.7519 21.0564 12.7153 20.8884 12.64 20.7838C12.5648 20.6718 12.4627 20.5971 12.3336 20.5597C12.2122 20.5224 12.0715 20.5037 11.9117 20.5037H11.672L11.6761 19.9995H15.1693L15.1651 20.5037H14.9254C14.7732 20.5037 14.6323 20.5224 14.5026 20.5597C14.3729 20.5971 14.2695 20.6718 14.1925 20.7838C14.1156 20.8884 14.0761 21.0564 14.0742 21.288L14.0293 26.7668C14.0276 26.9759 14.0643 27.1328 14.1396 27.2374C14.2224 27.3419 14.3246 27.4129 14.446 27.4502C14.5752 27.4801 14.7158 27.4951 14.8681 27.4951H15.1078L15.1036 27.9992H11.6105L11.6146 27.4951H11.8544C12.0142 27.4951 12.1551 27.4764 12.2772 27.439C12.4069 27.4017 12.5102 27.327 12.5872 27.215C12.6643 27.1029 12.7037 26.9349 12.7055 26.7108L12.7268 24.1226H9.21079L9.18956 26.7108C9.18772 26.9349 9.22439 27.1029 9.29958 27.215C9.37476 27.327 9.47689 27.4017 9.60596 27.439C9.73503 27.4764 9.87567 27.4951 10.0279 27.4951H10.2676L10.2635 27.9992H6.77031Z" fill="#D4D4D4"/>
<rect width="10" height="2" transform="matrix(1 0 -0.00820296 0.999966 18.7539 29.999)" fill="#D4D4D4"/>
<rect width="10" height="2" transform="matrix(1 0 -0.00820296 0.999966 18.7211 33.999)" fill="#D4D4D4"/>
<rect width="10" height="2" transform="matrix(1 0 -0.00820296 0.999966 18.6883 37.9985)" fill="#D4D4D4"/>
<path d="M18.7703 27.9992L18.7744 27.4951H19.0142C19.174 27.4951 19.3149 27.4764 19.437 27.439C19.5667 27.4017 19.67 27.327 19.7471 27.215C19.8241 27.1029 19.8635 26.9349 19.8654 26.7108L19.9102 21.2432C19.912 21.0266 19.8714 20.866 19.7886 20.7614C19.7133 20.6568 19.6112 20.5896 19.482 20.5597C19.3606 20.5224 19.2237 20.5037 19.0715 20.5037H18.8318L18.8359 19.9995H22.3291L22.325 20.5037H22.0852C21.933 20.5037 21.7921 20.5224 21.6624 20.5597C21.5327 20.5971 21.4294 20.6718 21.3523 20.7838C21.2754 20.8884 21.2359 21.0564 21.234 21.288L21.2157 23.5288H24.7316L24.75 21.288C24.7519 21.0564 24.7153 20.8884 24.64 20.7838C24.5648 20.6718 24.4627 20.5971 24.3336 20.5597C24.2122 20.5224 24.0715 20.5037 23.9117 20.5037H23.672L23.6761 19.9995H27.1693L27.1651 20.5037H26.9254C26.7732 20.5037 26.6323 20.5224 26.5026 20.5597C26.3729 20.5971 26.2695 20.6718 26.1925 20.7838C26.1156 20.8884 26.0761 21.0564 26.0742 21.288L26.0293 26.7668C26.0276 26.9759 26.0643 27.1328 26.1396 27.2374C26.2224 27.3419 26.3246 27.4129 26.446 27.4502C26.5752 27.4801 26.7158 27.4951 26.8681 27.4951H27.1078L27.1036 27.9992H23.6105L23.6146 27.4951H23.8544C24.0142 27.4951 24.1551 27.4764 24.2772 27.439C24.4069 27.4017 24.5102 27.327 24.5872 27.215C24.6643 27.1029 24.7037 26.9349 24.7055 26.7108L24.7268 24.1226H21.2108L21.1896 26.7108C21.1877 26.9349 21.2244 27.1029 21.2996 27.215C21.3748 27.327 21.4769 27.4017 21.606 27.439C21.735 27.4764 21.8757 27.4951 22.0279 27.4951H22.2676L22.2635 27.9992H18.7703Z" fill="#D4D4D4"/>
<rect width="10" height="2" transform="matrix(1 0 -0.00820296 0.999966 30.7539 29.999)" fill="#D4D4D4"/>
<rect width="10" height="2" transform="matrix(1 0 -0.00820296 0.999966 30.7211 33.999)" fill="#D4D4D4"/>
<rect width="10" height="2" transform="matrix(1 0 -0.00820296 0.999966 30.6883 37.9985)" fill="#D4D4D4"/>
<path d="M30.7703 27.9992L30.7744 27.4951H31.0142C31.174 27.4951 31.3149 27.4764 31.437 27.439C31.5667 27.4017 31.67 27.327 31.7471 27.215C31.8241 27.1029 31.8635 26.9349 31.8654 26.7108L31.9102 21.2432C31.912 21.0266 31.8714 20.866 31.7886 20.7614C31.7133 20.6568 31.6112 20.5896 31.482 20.5597C31.3606 20.5224 31.2237 20.5037 31.0715 20.5037H30.8318L30.8359 19.9995H34.3291L34.325 20.5037H34.0852C33.933 20.5037 33.7921 20.5224 33.6624 20.5597C33.5327 20.5971 33.4294 20.6718 33.3523 20.7838C33.2754 20.8884 33.2359 21.0564 33.234 21.288L33.2157 23.5288H36.7316L36.75 21.288C36.7519 21.0564 36.7153 20.8884 36.64 20.7838C36.5648 20.6718 36.4627 20.5971 36.3336 20.5597C36.2122 20.5224 36.0715 20.5037 35.9117 20.5037H35.672L35.6761 19.9995H39.1693L39.1651 20.5037H38.9254C38.7732 20.5037 38.6323 20.5224 38.5026 20.5597C38.3729 20.5971 38.2695 20.6718 38.1925 20.7838C38.1156 20.8884 38.0761 21.0564 38.0742 21.288L38.0293 26.7668C38.0276 26.9759 38.0643 27.1328 38.1396 27.2374C38.2224 27.3419 38.3246 27.4129 38.446 27.4502C38.5752 27.4801 38.7158 27.4951 38.8681 27.4951H39.1078L39.1036 27.9992H35.6105L35.6146 27.4951H35.8544C36.0142 27.4951 36.1551 27.4764 36.2772 27.439C36.4069 27.4017 36.5102 27.327 36.5872 27.215C36.6643 27.1029 36.7037 26.9349 36.7055 26.7108L36.7268 24.1226H33.2108L33.1896 26.7108C33.1877 26.9349 33.2244 27.1029 33.2996 27.215C33.3748 27.327 33.4769 27.4017 33.606 27.439C33.735 27.4764 33.8757 27.4951 34.0279 27.4951H34.2676L34.2635 27.9992H30.7703Z" fill="#D4D4D4"/>
<rect width="10" height="2" transform="matrix(1 0 -0.00820296 0.999966 42.7539 29.999)" fill="#D4D4D4"/>
<rect width="10" height="2" transform="matrix(1 0 -0.00820296 0.999966 42.7211 33.999)" fill="#D4D4D4"/>
<rect width="10" height="2" transform="matrix(1 0 -0.00820296 0.999966 42.6883 37.9985)" fill="#D4D4D4"/>
<path d="M42.7703 27.9992L42.7744 27.4951H43.0142C43.174 27.4951 43.3149 27.4764 43.437 27.439C43.5667 27.4017 43.67 27.327 43.7471 27.215C43.8241 27.1029 43.8635 26.9349 43.8654 26.7108L43.9102 21.2432C43.912 21.0266 43.8714 20.866 43.7886 20.7614C43.7133 20.6568 43.6112 20.5896 43.482 20.5597C43.3606 20.5224 43.2237 20.5037 43.0715 20.5037H42.8318L42.8359 19.9995H46.3291L46.325 20.5037H46.0852C45.933 20.5037 45.7921 20.5224 45.6624 20.5597C45.5327 20.5971 45.4294 20.6718 45.3523 20.7838C45.2754 20.8884 45.2359 21.0564 45.234 21.288L45.2157 23.5288H48.7316L48.75 21.288C48.7519 21.0564 48.7153 20.8884 48.64 20.7838C48.5648 20.6718 48.4627 20.5971 48.3336 20.5597C48.2122 20.5224 48.0715 20.5037 47.9117 20.5037H47.672L47.6761 19.9995H51.1693L51.1651 20.5037H50.9254C50.7732 20.5037 50.6323 20.5224 50.5026 20.5597C50.3729 20.5971 50.2695 20.6718 50.1925 20.7838C50.1156 20.8884 50.0761 21.0564 50.0742 21.288L50.0293 26.7668C50.0276 26.9759 50.0643 27.1328 50.1396 27.2374C50.2224 27.3419 50.3246 27.4129 50.446 27.4502C50.5752 27.4801 50.7158 27.4951 50.8681 27.4951H51.1078L51.1036 27.9992H47.6105L47.6146 27.4951H47.8544C48.0142 27.4951 48.1551 27.4764 48.2772 27.439C48.4069 27.4017 48.5102 27.327 48.5872 27.215C48.6643 27.1029 48.7037 26.9349 48.7055 26.7108L48.7268 24.1226H45.2108L45.1896 26.7108C45.1877 26.9349 45.2244 27.1029 45.2996 27.215C45.3748 27.327 45.4769 27.4017 45.606 27.439C45.735 27.4764 45.8757 27.4951 46.0279 27.4951H46.2676L46.2635 27.9992H42.7703Z" fill="#D4D4D4"/>
<ellipse cx="13.65" cy="46.0501" rx="9.45" ry="9.45" fill="white"/>
<rect width="10" height="10" transform="translate(8.66669 41)" fill="white"/>
<path d="M13.0792 46.5875C13.25 46.75 13.25 47.0166 13.0792 47.1791C12.9167 47.3416 12.65 47.3416 12.4875 47.1791C11.675 46.3666 11.675 45.0458 12.4875 44.2333L13.9625 42.7583C14.775 41.9458 16.0959 41.9458 16.9084 42.7583C17.7209 43.5708 17.7209 44.8916 16.9084 45.7041L16.2876 46.325C16.2917 45.9833 16.2375 45.6416 16.1209 45.3166L16.3167 45.1166C16.8084 44.6291 16.8084 43.8375 16.3167 43.35C15.8292 42.8583 15.0375 42.8583 14.55 43.35L13.0792 44.8208C12.5875 45.3083 12.5875 46.1 13.0792 46.5875ZM14.2542 44.8208C14.4167 44.6583 14.6834 44.6583 14.8459 44.8208C15.6584 45.6333 15.6584 46.9541 14.8459 47.7666L13.3709 49.2416C12.5584 50.0541 11.2375 50.0541 10.425 49.2416C9.61255 48.4291 9.61255 47.1083 10.425 46.2958L11.0459 45.675C11.0417 46.0166 11.0959 46.3583 11.2125 46.6875L11.0167 46.8833C10.525 47.3708 10.525 48.1625 11.0167 48.65C11.5042 49.1416 12.2959 49.1416 12.7834 48.65L14.2542 47.1791C14.7459 46.6916 14.7459 45.9 14.2542 45.4125C14.0834 45.25 14.0834 44.9833 14.2542 44.8208Z" fill="#6B6B6B"/>
</g>
<defs>
<clipPath id="clip0_2434_2349">
<rect width="60" height="60" fill="white"/>
</clipPath>
</defs>
</svg>
