<svg width="966" height="374" viewBox="0 0 966 374" fill="none" xmlns="http://www.w3.org/2000/svg">
<g filter="url(#filter0_f_4506_82328)">
<rect x="817" y="227" width="110" height="41" fill="white"/>
</g>
<rect width="103" height="34" transform="translate(821 230)" fill="white"/>
<path d="M830.5 240.5H824C823.47 240.5 822.961 240.289 822.586 239.914C822.211 239.539 822 239.03 822 238.5C822 237.97 822.211 237.461 822.586 237.086C822.961 236.711 823.47 236.5 824 236.5H824.355C824.685 235.345 825.75 234.5 827 234.5C827.729 234.5 828.429 234.79 828.945 235.305C829.46 235.821 829.75 236.521 829.75 237.25V237.5H830.5C830.898 237.5 831.279 237.658 831.561 237.939C831.842 238.221 832 238.602 832 239C832 239.398 831.842 239.779 831.561 240.061C831.279 240.342 830.898 240.5 830.5 240.5ZM830.675 236.515C830.335 234.795 828.82 233.5 827 233.5C825.555 233.5 824.3 234.32 823.675 235.515C822.17 235.68 821 236.95 821 238.5C821 239.296 821.316 240.059 821.879 240.621C822.441 241.184 823.204 241.5 824 241.5H830.5C830.828 241.5 831.153 241.435 831.457 241.31C831.76 241.184 832.036 241 832.268 240.768C832.5 240.536 832.684 240.26 832.81 239.957C832.935 239.653 833 239.328 833 239C833 237.68 831.975 236.61 830.675 236.515Z" fill="#1FC47A"/>
<path d="M837.87 242.934V235.21H838.805V236.134H838.891C839.245 235.489 839.89 235.108 840.695 235.108C842.162 235.108 843.123 236.295 843.123 238.1V238.11C843.123 239.926 842.167 241.102 840.695 241.102C839.9 241.102 839.208 240.705 838.891 240.087H838.805V242.934H837.87ZM840.48 240.275C841.539 240.275 842.167 239.458 842.167 238.11V238.1C842.167 236.751 841.539 235.935 840.48 235.935C839.428 235.935 838.783 236.762 838.783 238.1V238.11C838.783 239.448 839.428 240.275 840.48 240.275ZM846.523 241.102C845.207 241.102 844.53 240.329 844.53 238.959V235.21H845.465V238.733C845.465 239.775 845.841 240.275 846.765 240.275C847.785 240.275 848.328 239.652 848.328 238.637V235.21H849.262V241H848.328V240.135H848.242C847.957 240.753 847.372 241.102 846.523 241.102ZM853.887 241.102C853.081 241.102 852.437 240.721 852.082 240.076H851.996V241H851.062V232.911H851.996V236.123H852.082C852.399 235.505 853.092 235.108 853.887 235.108C855.358 235.108 856.314 236.284 856.314 238.1V238.11C856.314 239.915 855.353 241.102 853.887 241.102ZM853.672 240.275C854.73 240.275 855.358 239.458 855.358 238.11V238.1C855.358 236.751 854.73 235.935 853.672 235.935C852.619 235.935 851.975 236.762 851.975 238.1V238.11C851.975 239.448 852.619 240.275 853.672 240.275ZM857.818 241V232.911H858.753V241H857.818ZM861.041 234.093C860.687 234.093 860.396 233.803 860.396 233.448C860.396 233.094 860.687 232.804 861.041 232.804C861.396 232.804 861.686 233.094 861.686 233.448C861.686 233.803 861.396 234.093 861.041 234.093ZM860.568 241V235.21H861.503V241H860.568ZM865.252 241.102C863.963 241.102 863.077 240.479 862.969 239.523H863.925C864.081 240.006 864.543 240.323 865.284 240.323C866.063 240.323 866.616 239.953 866.616 239.426V239.416C866.616 239.023 866.321 238.75 865.606 238.578L864.709 238.363C863.625 238.105 863.136 237.632 863.136 236.8V236.794C863.136 235.833 864.06 235.108 865.29 235.108C866.503 235.108 867.347 235.715 867.476 236.66H866.557C866.434 236.204 865.982 235.887 865.284 235.887C864.597 235.887 864.092 236.241 864.092 236.751V236.762C864.092 237.154 864.382 237.401 865.064 237.568L865.956 237.783C867.046 238.046 867.572 238.519 867.572 239.346V239.356C867.572 240.388 866.568 241.102 865.252 241.102ZM869.076 241V232.911H870.011V236.08H870.097C870.387 235.468 870.929 235.108 871.783 235.108C873.083 235.108 873.808 235.876 873.808 237.251V241H872.874V237.477C872.874 236.435 872.444 235.935 871.52 235.935C870.596 235.935 870.011 236.558 870.011 237.573V241H869.076ZM877.863 241.102C876.209 241.102 875.21 239.942 875.21 238.126V238.121C875.21 236.333 876.23 235.108 877.804 235.108C879.378 235.108 880.334 236.279 880.334 238.008V238.374H876.166C876.193 239.571 876.854 240.27 877.885 240.27C878.669 240.27 879.152 239.899 879.308 239.55L879.33 239.501H880.264L880.253 239.544C880.055 240.329 879.228 241.102 877.863 241.102ZM877.799 235.94C876.939 235.94 876.284 236.526 876.182 237.627H879.383C879.287 236.483 878.653 235.94 877.799 235.94ZM883.922 241.102C882.456 241.102 881.494 239.915 881.494 238.11V238.1C881.494 236.284 882.45 235.108 883.922 235.108C884.717 235.108 885.41 235.505 885.727 236.123H885.812V232.911H886.747V241H885.812V240.076H885.727C885.372 240.721 884.728 241.102 883.922 241.102ZM884.137 240.275C885.189 240.275 885.834 239.448 885.834 238.11V238.1C885.834 236.762 885.189 235.935 884.137 235.935C883.079 235.935 882.45 236.751 882.45 238.1V238.11C882.45 239.458 883.079 240.275 884.137 240.275Z" fill="#1FC47A"/>
<path d="M821.865 260V259.334L824.486 256.498C825.474 255.429 825.764 255.026 825.764 254.35V254.339C825.764 253.522 825.211 252.91 824.298 252.91C823.369 252.91 822.751 253.517 822.751 254.43L822.746 254.441L821.822 254.436L821.811 254.43C821.816 253.055 822.88 252.067 824.362 252.067C825.716 252.067 826.752 252.985 826.752 254.237V254.248C826.752 255.134 826.371 255.778 824.969 257.223L823.208 259.044V259.13H826.881V260H821.865Z" fill="#141414" fill-opacity="0.45"/>
<path d="M831.975 260V254.21H832.909V255.091H832.995C833.253 254.468 833.801 254.108 834.558 254.108C835.342 254.108 835.89 254.521 836.159 255.123H836.245C836.556 254.511 837.217 254.108 838.017 254.108C839.199 254.108 839.859 254.785 839.859 255.999V260H838.925V256.213C838.925 255.359 838.533 254.935 837.716 254.935C836.911 254.935 836.379 255.542 836.379 256.278V260H835.444V256.068C835.444 255.381 834.972 254.935 834.241 254.935C833.484 254.935 832.909 255.596 832.909 256.412V260H831.975ZM842.04 253.093C841.686 253.093 841.396 252.803 841.396 252.448C841.396 252.094 841.686 251.804 842.04 251.804C842.395 251.804 842.685 252.094 842.685 252.448C842.685 252.803 842.395 253.093 842.04 253.093ZM841.567 260V254.21H842.502V260H841.567ZM844.264 260V254.21H845.198V255.08H845.284C845.574 254.468 846.117 254.108 846.971 254.108C848.271 254.108 848.996 254.876 848.996 256.251V260H848.061V256.477C848.061 255.435 847.631 254.935 846.708 254.935C845.784 254.935 845.198 255.558 845.198 256.573V260H844.264ZM852.626 260.102C851.311 260.102 850.634 259.329 850.634 257.959V254.21H851.568V257.733C851.568 258.775 851.944 259.275 852.868 259.275C853.889 259.275 854.431 258.652 854.431 257.637V254.21H855.366V260H854.431V259.135H854.345C854.061 259.753 853.475 260.102 852.626 260.102ZM859.168 260.043C857.976 260.043 857.477 259.603 857.477 258.496V254.983H856.563V254.21H857.477V252.711H858.443V254.21H859.711V254.983H858.443V258.26C858.443 258.942 858.68 259.216 859.281 259.216C859.448 259.216 859.539 259.21 859.711 259.194V259.989C859.528 260.021 859.351 260.043 859.168 260.043ZM863.385 260.102C861.73 260.102 860.731 258.942 860.731 257.126V257.121C860.731 255.333 861.752 254.108 863.326 254.108C864.899 254.108 865.855 255.279 865.855 257.008V257.374H861.688C861.714 258.571 862.375 259.27 863.406 259.27C864.19 259.27 864.674 258.899 864.83 258.55L864.851 258.501H865.786L865.775 258.544C865.576 259.329 864.749 260.102 863.385 260.102ZM863.32 254.94C862.461 254.94 861.806 255.526 861.704 256.627H864.905C864.808 255.483 864.174 254.94 863.32 254.94ZM869.293 260.102C868.004 260.102 867.118 259.479 867.01 258.523H867.966C868.122 259.006 868.584 259.323 869.325 259.323C870.104 259.323 870.657 258.953 870.657 258.426V258.416C870.657 258.023 870.362 257.75 869.647 257.578L868.75 257.363C867.666 257.105 867.177 256.632 867.177 255.8V255.794C867.177 254.833 868.101 254.108 869.331 254.108C870.544 254.108 871.388 254.715 871.517 255.66H870.598C870.475 255.204 870.023 254.887 869.325 254.887C868.638 254.887 868.133 255.241 868.133 255.751V255.762C868.133 256.154 868.423 256.401 869.105 256.568L869.997 256.783C871.087 257.046 871.613 257.519 871.613 258.346V258.356C871.613 259.388 870.609 260.102 869.293 260.102ZM877.747 260.102C876.646 260.102 875.813 259.436 875.813 258.383V258.373C875.813 257.341 876.576 256.745 877.924 256.665L879.584 256.562V256.036C879.584 255.322 879.149 254.935 878.284 254.935C877.591 254.935 877.135 255.193 876.984 255.644L876.979 255.66H876.044L876.05 255.628C876.2 254.72 877.081 254.108 878.316 254.108C879.729 254.108 880.519 254.833 880.519 256.036V260H879.584V259.146H879.498C879.133 259.764 878.526 260.102 877.747 260.102ZM876.77 258.362C876.77 258.947 877.269 259.291 877.94 259.291C878.891 259.291 879.584 258.668 879.584 257.841V257.314L878.037 257.411C877.156 257.465 876.77 257.776 876.77 258.351V258.362ZM884.611 262.041C883.215 262.041 882.323 261.413 882.178 260.462L882.189 260.457H883.156L883.161 260.462C883.263 260.902 883.779 261.214 884.611 261.214C885.648 261.214 886.266 260.725 886.266 259.871V258.7H886.18C885.814 259.339 885.159 259.699 884.364 259.699C882.866 259.699 881.937 258.539 881.937 256.917V256.906C881.937 255.284 882.871 254.108 884.386 254.108C885.202 254.108 885.836 254.511 886.19 255.166H886.255V254.21H887.189V259.919C887.189 261.214 886.19 262.041 884.611 262.041ZM884.568 258.872C885.643 258.872 886.287 258.066 886.287 256.917V256.906C886.287 255.757 885.637 254.935 884.568 254.935C883.494 254.935 882.893 255.757 882.893 256.906V256.917C882.893 258.066 883.494 258.872 884.568 258.872ZM891.309 260.102C889.66 260.102 888.64 258.963 888.64 257.11V257.1C888.64 255.241 889.66 254.108 891.309 254.108C892.958 254.108 893.979 255.241 893.979 257.1V257.11C893.979 258.963 892.958 260.102 891.309 260.102ZM891.309 259.275C892.405 259.275 893.022 258.475 893.022 257.11V257.1C893.022 255.73 892.405 254.935 891.309 254.935C890.213 254.935 889.596 255.73 889.596 257.1V257.11C889.596 258.475 890.213 259.275 891.309 259.275Z" fill="#141414" fill-opacity="0.45"/>
<defs>
<filter id="filter0_f_4506_82328" x="813" y="223" width="118" height="49" filterUnits="userSpaceOnUse" color-interpolation-filters="sRGB">
<feFlood flood-opacity="0" result="BackgroundImageFix"/>
<feBlend mode="normal" in="SourceGraphic" in2="BackgroundImageFix" result="shape"/>
<feGaussianBlur stdDeviation="2" result="effect1_foregroundBlur_4506_82328"/>
</filter>
</defs>
</svg>
