<svg width="314" height="260" viewBox="0 0 314 260" fill="none" xmlns="http://www.w3.org/2000/svg">
<g clip-path="url(#clip0_4465_49835)">
<g filter="url(#filter0_d_4465_49835)">
<path d="M13 171C13 169.895 13.8954 169 15 169H281C282.105 169 283 169.895 283 171V245C283 246.105 282.105 247 281 247H15C13.8954 247 13 246.105 13 245V171Z" fill="white"/>
<path d="M15 169.5H281C281.828 169.5 282.5 170.172 282.5 171V245C282.5 245.828 281.828 246.5 281 246.5H15C14.1716 246.5 13.5 245.828 13.5 245V171C13.5 170.172 14.1716 169.5 15 169.5Z" stroke="#D6D6D6"/>
<rect x="14" y="170" width="268" height="2" fill="#D89522"/>
<path d="M27.043 199V190.545H28.5547V197.729H32.4336V199H27.043ZM36.3594 199.129C34.4551 199.129 33.3008 197.852 33.3008 195.812V195.807C33.3008 193.791 34.4668 192.473 36.2891 192.473C38.1113 192.473 39.2363 193.75 39.2363 195.684V196.164H34.7598C34.7773 197.312 35.3984 197.98 36.3887 197.98C37.1797 197.98 37.6309 197.582 37.7715 197.289L37.7891 197.248H39.1777L39.1602 197.301C38.9551 198.127 38.0996 199.129 36.3594 199.129ZM36.3066 193.615C35.4922 193.615 34.8828 194.166 34.7715 195.186H37.8125C37.7129 194.137 37.1211 193.615 36.3066 193.615ZM43.4609 199.129C41.5391 199.129 40.3789 197.875 40.3789 195.801V195.789C40.3789 193.732 41.5566 192.473 43.4609 192.473C45.3711 192.473 46.543 193.727 46.543 195.789V195.801C46.543 197.875 45.377 199.129 43.4609 199.129ZM43.4609 197.945C44.4746 197.945 45.0488 197.154 45.0488 195.807V195.795C45.0488 194.447 44.4688 193.65 43.4609 193.65C42.4473 193.65 41.8672 194.447 41.8672 195.795V195.807C41.8672 197.154 42.4473 197.945 43.4609 197.945ZM51.3594 199V190.545H53.0938L55.6367 197.049H55.7363L58.2734 190.545H60.0078V199H58.6484V192.988H58.543L56.1992 199H55.168L52.8242 192.988H52.7246V199H51.3594ZM63.2949 191.482C62.8555 191.482 62.4922 191.125 62.4922 190.686C62.4922 190.252 62.8555 189.9 63.2949 189.9C63.7285 189.9 64.0918 190.252 64.0918 190.686C64.0918 191.125 63.7285 191.482 63.2949 191.482ZM66.0605 191.482C65.6211 191.482 65.2637 191.125 65.2637 190.686C65.2637 190.252 65.6211 189.9 66.0605 189.9C66.5 189.9 66.8633 190.252 66.8633 190.686C66.8633 191.125 66.5 191.482 66.0605 191.482ZM64.0625 199.129C62.6211 199.129 61.8828 198.262 61.8828 196.738V192.596H63.3418V196.404C63.3418 197.395 63.7109 197.898 64.5898 197.898C65.5332 197.898 66.0371 197.289 66.0371 196.328V192.596H67.4961V199H66.0371V198.027H65.9375C65.6387 198.713 64.9883 199.129 64.0625 199.129ZM69.3359 199V190.117H70.7949V199H69.3359ZM72.6992 199V190.117H74.1582V199H72.6992ZM78.7461 199.129C76.8418 199.129 75.6875 197.852 75.6875 195.812V195.807C75.6875 193.791 76.8535 192.473 78.6758 192.473C80.498 192.473 81.623 193.75 81.623 195.684V196.164H77.1465C77.1641 197.312 77.7852 197.98 78.7754 197.98C79.5664 197.98 80.0176 197.582 80.1582 197.289L80.1758 197.248H81.5645L81.5469 197.301C81.3418 198.127 80.4863 199.129 78.7461 199.129ZM78.6934 193.615C77.8789 193.615 77.2695 194.166 77.1582 195.186H80.1992C80.0996 194.137 79.5078 193.615 78.6934 193.615ZM83.082 199V192.596H84.541V193.58H84.6406C84.8574 192.895 85.4434 192.49 86.2871 192.49C86.5098 192.49 86.7383 192.52 86.8789 192.561V193.867C86.6445 193.82 86.4043 193.785 86.1523 193.785C85.1797 193.785 84.541 194.365 84.541 195.279V199H83.082Z" fill="#141414" fill-opacity="0.85"/>
<path d="M179.263 200V192.11H179.161L176.832 193.798V192.592L179.269 190.84H180.405V200H179.263ZM186.118 200.216C184.093 200.216 182.887 198.369 182.887 195.423V195.411C182.887 192.465 184.093 190.625 186.118 190.625C188.143 190.625 189.362 192.465 189.362 195.411V195.423C189.362 198.369 188.143 200.216 186.118 200.216ZM186.118 199.219C187.432 199.219 188.213 197.759 188.213 195.423V195.411C188.213 193.075 187.432 191.627 186.118 191.627C184.804 191.627 184.036 193.075 184.036 195.411V195.423C184.036 197.759 184.804 199.219 186.118 199.219Z" fill="#141414" fill-opacity="0.45"/>
<path d="M195.685 200V193.157H196.789V194.198H196.891C197.195 193.462 197.843 193.037 198.738 193.037C199.665 193.037 200.312 193.525 200.629 194.236H200.731C201.099 193.513 201.88 193.037 202.826 193.037C204.222 193.037 205.003 193.836 205.003 195.271V200H203.898V195.525C203.898 194.516 203.435 194.014 202.47 194.014C201.518 194.014 200.89 194.731 200.89 195.601V200H199.785V195.354C199.785 194.541 199.227 194.014 198.363 194.014C197.468 194.014 196.789 194.795 196.789 195.76V200H195.685ZM207.58 191.837C207.161 191.837 206.818 191.494 206.818 191.075C206.818 190.656 207.161 190.313 207.58 190.313C207.999 190.313 208.342 190.656 208.342 191.075C208.342 191.494 207.999 191.837 207.58 191.837ZM207.021 200V193.157H208.126V200H207.021ZM210.208 200V193.157H211.312V194.186H211.414C211.757 193.462 212.398 193.037 213.407 193.037C214.943 193.037 215.8 193.944 215.8 195.569V200H214.696V195.836C214.696 194.604 214.188 194.014 213.096 194.014C212.004 194.014 211.312 194.75 211.312 195.95V200H210.208ZM220.091 200.121C218.536 200.121 217.736 199.207 217.736 197.588V193.157H218.841V197.321C218.841 198.553 219.285 199.143 220.377 199.143C221.583 199.143 222.224 198.407 222.224 197.207V193.157H223.329V200H222.224V198.978H222.123C221.786 199.708 221.094 200.121 220.091 200.121ZM227.823 200.051C226.414 200.051 225.823 199.53 225.823 198.223V194.071H224.744V193.157H225.823V191.386H226.966V193.157H228.464V194.071H226.966V197.943C226.966 198.75 227.245 199.073 227.956 199.073C228.153 199.073 228.261 199.067 228.464 199.048V199.987C228.248 200.025 228.039 200.051 227.823 200.051ZM232.806 200.121C230.851 200.121 229.67 198.75 229.67 196.604V196.598C229.67 194.484 230.876 193.037 232.736 193.037C234.596 193.037 235.726 194.42 235.726 196.464V196.896H230.8C230.832 198.312 231.612 199.137 232.831 199.137C233.758 199.137 234.329 198.699 234.513 198.286L234.539 198.229H235.643L235.63 198.28C235.396 199.207 234.418 200.121 232.806 200.121ZM232.729 194.021C231.714 194.021 230.939 194.712 230.819 196.014H234.602C234.488 194.662 233.739 194.021 232.729 194.021ZM239.788 200.121C238.265 200.121 237.217 199.384 237.09 198.254H238.22C238.404 198.826 238.95 199.2 239.826 199.2C240.747 199.2 241.4 198.762 241.4 198.14V198.127C241.4 197.664 241.051 197.34 240.207 197.137L239.147 196.883C237.865 196.579 237.287 196.02 237.287 195.036V195.03C237.287 193.894 238.379 193.037 239.833 193.037C241.267 193.037 242.264 193.754 242.416 194.871H241.331C241.185 194.332 240.651 193.957 239.826 193.957C239.014 193.957 238.417 194.376 238.417 194.979V194.992C238.417 195.455 238.76 195.747 239.566 195.944L240.62 196.198C241.908 196.509 242.53 197.067 242.53 198.045V198.058C242.53 199.276 241.343 200.121 239.788 200.121ZM249.779 200.121C248.478 200.121 247.494 199.333 247.494 198.089V198.077C247.494 196.858 248.396 196.153 249.989 196.058L251.95 195.938V195.315C251.95 194.471 251.436 194.014 250.414 194.014C249.595 194.014 249.056 194.319 248.878 194.852L248.872 194.871H247.767L247.773 194.833C247.951 193.76 248.992 193.037 250.452 193.037C252.122 193.037 253.055 193.894 253.055 195.315V200H251.95V198.991H251.849C251.417 199.721 250.7 200.121 249.779 200.121ZM248.624 198.064C248.624 198.756 249.214 199.162 250.008 199.162C251.131 199.162 251.95 198.426 251.95 197.448V196.826L250.122 196.94C249.081 197.004 248.624 197.372 248.624 198.051V198.064ZM257.892 202.412C256.241 202.412 255.188 201.669 255.016 200.546L255.029 200.54H256.171L256.178 200.546C256.298 201.066 256.908 201.435 257.892 201.435C259.117 201.435 259.847 200.857 259.847 199.848V198.464H259.745C259.313 199.219 258.539 199.645 257.6 199.645C255.829 199.645 254.73 198.273 254.73 196.356V196.344C254.73 194.427 255.835 193.037 257.625 193.037C258.59 193.037 259.339 193.513 259.758 194.287H259.834V193.157H260.938V199.905C260.938 201.435 259.758 202.412 257.892 202.412ZM257.841 198.667C259.11 198.667 259.872 197.715 259.872 196.356V196.344C259.872 194.985 259.104 194.014 257.841 194.014C256.571 194.014 255.86 194.985 255.86 196.344V196.356C255.86 197.715 256.571 198.667 257.841 198.667ZM265.807 200.121C263.858 200.121 262.652 198.775 262.652 196.585V196.572C262.652 194.376 263.858 193.037 265.807 193.037C267.756 193.037 268.962 194.376 268.962 196.572V196.585C268.962 198.775 267.756 200.121 265.807 200.121ZM265.807 199.143C267.102 199.143 267.832 198.197 267.832 196.585V196.572C267.832 194.954 267.102 194.014 265.807 194.014C264.512 194.014 263.782 194.954 263.782 196.572V196.585C263.782 198.197 264.512 199.143 265.807 199.143Z" fill="#141414" fill-opacity="0.45"/>
</g>
</g>
<defs>
<filter id="filter0_d_4465_49835" x="0" y="158" width="296" height="104" filterUnits="userSpaceOnUse" color-interpolation-filters="sRGB">
<feFlood flood-opacity="0" result="BackgroundImageFix"/>
<feColorMatrix in="SourceAlpha" type="matrix" values="0 0 0 0 0 0 0 0 0 0 0 0 0 0 0 0 0 0 127 0" result="hardAlpha"/>
<feOffset dy="2"/>
<feGaussianBlur stdDeviation="6.5"/>
<feColorMatrix type="matrix" values="0 0 0 0 0.0784314 0 0 0 0 0.0784314 0 0 0 0 0.0784314 0 0 0 0.06 0"/>
<feBlend mode="normal" in2="BackgroundImageFix" result="effect1_dropShadow_4465_49835"/>
<feBlend mode="normal" in="SourceGraphic" in2="effect1_dropShadow_4465_49835" result="shape"/>
</filter>
<clipPath id="clip0_4465_49835">
<rect width="314" height="260" fill="white"/>
</clipPath>
</defs>
</svg>
