<svg width="314" height="260" viewBox="0 0 314 260" fill="none" xmlns="http://www.w3.org/2000/svg">
<g clip-path="url(#clip0_4467_50123)">
<g filter="url(#filter0_d_4467_50123)">
<path d="M27.2578 228V218.136H30.6416C33.5674 218.136 35.2969 219.961 35.2969 223.058V223.071C35.2969 226.175 33.5742 228 30.6416 228H27.2578ZM28.4883 226.893H30.5596C32.7607 226.893 34.0391 225.484 34.0391 223.085V223.071C34.0391 220.665 32.7471 219.243 30.5596 219.243H28.4883V226.893ZM40.3076 228.13C38.209 228.13 36.9102 226.681 36.9102 224.322V224.309C36.9102 221.943 38.209 220.501 40.3076 220.501C42.4062 220.501 43.7051 221.943 43.7051 224.309V224.322C43.7051 226.681 42.4062 228.13 40.3076 228.13ZM40.3076 227.077C41.7021 227.077 42.4883 226.059 42.4883 224.322V224.309C42.4883 222.565 41.7021 221.554 40.3076 221.554C38.9131 221.554 38.127 222.565 38.127 224.309V224.322C38.127 226.059 38.9131 227.077 40.3076 227.077ZM45.5508 228V220.631H46.7402V221.738H46.8496C47.2188 220.959 47.9092 220.501 48.9961 220.501C50.6504 220.501 51.5732 221.479 51.5732 223.229V228H50.3838V223.516C50.3838 222.189 49.8369 221.554 48.6611 221.554C47.4854 221.554 46.7402 222.347 46.7402 223.639V228H45.5508ZM56.7344 228.13C54.6289 228.13 53.3574 226.653 53.3574 224.343V224.336C53.3574 222.06 54.6562 220.501 56.6592 220.501C58.6621 220.501 59.8789 221.991 59.8789 224.192V224.657H54.5742C54.6084 226.182 55.4492 227.07 56.7617 227.07C57.7598 227.07 58.375 226.599 58.5732 226.154L58.6006 226.093H59.79L59.7764 226.147C59.5234 227.146 58.4707 228.13 56.7344 228.13ZM56.6523 221.561C55.5586 221.561 54.7246 222.306 54.5947 223.707H58.6689C58.5459 222.251 57.7393 221.561 56.6523 221.561ZM61.4238 230.509L62.0186 226.619H63.3789L62.3057 230.509H61.4238ZM72.4365 228.055C70.9189 228.055 70.2832 227.494 70.2832 226.086V221.615H69.1211V220.631H70.2832V218.724H71.5137V220.631H73.127V221.615H71.5137V225.785C71.5137 226.653 71.8145 227.002 72.5801 227.002C72.792 227.002 72.9082 226.995 73.127 226.975V227.986C72.8945 228.027 72.6689 228.055 72.4365 228.055ZM74.9727 228V217.705H76.1621V221.738H76.2715C76.6406 220.959 77.3311 220.501 78.418 220.501C80.0723 220.501 80.9951 221.479 80.9951 223.229V228H79.8057V223.516C79.8057 222.189 79.2588 221.554 78.083 221.554C76.9072 221.554 76.1621 222.347 76.1621 223.639V228H74.9727ZM85.1719 228.13C83.7705 228.13 82.7109 227.282 82.7109 225.942V225.929C82.7109 224.616 83.6816 223.857 85.3975 223.755L87.5098 223.625V222.955C87.5098 222.046 86.9561 221.554 85.8555 221.554C84.9736 221.554 84.3926 221.882 84.2012 222.456L84.1943 222.477H83.0049L83.0117 222.436C83.2031 221.28 84.3242 220.501 85.8965 220.501C87.6943 220.501 88.6992 221.424 88.6992 222.955V228H87.5098V226.913H87.4004C86.9355 227.699 86.1631 228.13 85.1719 228.13ZM83.9277 225.915C83.9277 226.66 84.5635 227.098 85.418 227.098C86.6279 227.098 87.5098 226.305 87.5098 225.252V224.582L85.541 224.705C84.4199 224.773 83.9277 225.17 83.9277 225.901V225.915ZM90.873 228V220.631H92.0625V221.738H92.1719C92.541 220.959 93.2314 220.501 94.3184 220.501C95.9727 220.501 96.8955 221.479 96.8955 223.229V228H95.7061V223.516C95.7061 222.189 95.1592 221.554 93.9834 221.554C92.8076 221.554 92.0625 222.347 92.0625 223.639V228H90.873ZM99.1172 228V217.705H100.307V223.851H100.416L103.602 220.631H105.044L101.831 223.728L105.256 228H103.759L100.997 224.534L100.307 225.204V228H99.1172ZM108.906 228.13C107.266 228.13 106.138 227.337 106.001 226.12H107.218C107.416 226.735 108.004 227.139 108.947 227.139C109.938 227.139 110.643 226.667 110.643 225.997V225.983C110.643 225.484 110.267 225.136 109.357 224.917L108.216 224.644C106.835 224.315 106.213 223.714 106.213 222.654V222.647C106.213 221.424 107.389 220.501 108.954 220.501C110.499 220.501 111.572 221.273 111.736 222.477H110.567C110.41 221.896 109.836 221.492 108.947 221.492C108.072 221.492 107.43 221.943 107.43 222.593V222.606C107.43 223.105 107.799 223.42 108.667 223.632L109.802 223.905C111.189 224.24 111.859 224.842 111.859 225.895V225.908C111.859 227.221 110.581 228.13 108.906 228.13ZM118.135 228V221.615H116.911V220.631H118.135V219.811C118.135 218.341 118.873 217.637 120.274 217.637C120.562 217.637 120.821 217.657 121.067 217.705V218.655C120.924 218.628 120.726 218.621 120.514 218.621C119.666 218.621 119.324 219.038 119.324 219.845V220.631H120.999V221.615H119.324V228H118.135ZM125.429 228.13C123.33 228.13 122.031 226.681 122.031 224.322V224.309C122.031 221.943 123.33 220.501 125.429 220.501C127.527 220.501 128.826 221.943 128.826 224.309V224.322C128.826 226.681 127.527 228.13 125.429 228.13ZM125.429 227.077C126.823 227.077 127.609 226.059 127.609 224.322V224.309C127.609 222.565 126.823 221.554 125.429 221.554C124.034 221.554 123.248 222.565 123.248 224.309V224.322C123.248 226.059 124.034 227.077 125.429 227.077ZM130.672 228V220.631H131.861V221.725H131.971C132.251 220.952 132.941 220.501 133.939 220.501C134.165 220.501 134.418 220.528 134.534 220.549V221.704C134.288 221.663 134.062 221.636 133.803 221.636C132.668 221.636 131.861 222.354 131.861 223.434V228H130.672ZM142.56 228.055C141.042 228.055 140.406 227.494 140.406 226.086V221.615H139.244V220.631H140.406V218.724H141.637V220.631H143.25V221.615H141.637V225.785C141.637 226.653 141.938 227.002 142.703 227.002C142.915 227.002 143.031 226.995 143.25 226.975V227.986C143.018 228.027 142.792 228.055 142.56 228.055ZM145.096 228V217.705H146.285V221.738H146.395C146.764 220.959 147.454 220.501 148.541 220.501C150.195 220.501 151.118 221.479 151.118 223.229V228H149.929V223.516C149.929 222.189 149.382 221.554 148.206 221.554C147.03 221.554 146.285 222.347 146.285 223.639V228H145.096ZM156.279 228.13C154.174 228.13 152.902 226.653 152.902 224.343V224.336C152.902 222.06 154.201 220.501 156.204 220.501C158.207 220.501 159.424 221.991 159.424 224.192V224.657H154.119C154.153 226.182 154.994 227.07 156.307 227.07C157.305 227.07 157.92 226.599 158.118 226.154L158.146 226.093H159.335L159.321 226.147C159.068 227.146 158.016 228.13 156.279 228.13ZM156.197 221.561C155.104 221.561 154.27 222.306 154.14 223.707H158.214C158.091 222.251 157.284 221.561 156.197 221.561ZM165.207 228V220.631H166.396V221.725H166.506C166.786 220.952 167.477 220.501 168.475 220.501C168.7 220.501 168.953 220.528 169.069 220.549V221.704C168.823 221.663 168.598 221.636 168.338 221.636C167.203 221.636 166.396 222.354 166.396 223.434V228H165.207ZM173.342 228.13C171.236 228.13 169.965 226.653 169.965 224.343V224.336C169.965 222.06 171.264 220.501 173.267 220.501C175.27 220.501 176.486 221.991 176.486 224.192V224.657H171.182C171.216 226.182 172.057 227.07 173.369 227.07C174.367 227.07 174.982 226.599 175.181 226.154L175.208 226.093H176.397L176.384 226.147C176.131 227.146 175.078 228.13 173.342 228.13ZM173.26 221.561C172.166 221.561 171.332 222.306 171.202 223.707H175.276C175.153 222.251 174.347 221.561 173.26 221.561ZM178.332 228V220.631H179.521V221.752H179.631C179.959 220.959 180.656 220.501 181.62 220.501C182.618 220.501 183.315 221.027 183.657 221.793H183.767C184.163 221.014 185.004 220.501 186.022 220.501C187.526 220.501 188.367 221.362 188.367 222.907V228H187.178V223.181C187.178 222.094 186.679 221.554 185.64 221.554C184.614 221.554 183.938 222.326 183.938 223.263V228H182.748V222.996C182.748 222.121 182.146 221.554 181.217 221.554C180.253 221.554 179.521 222.395 179.521 223.434V228H178.332ZM191.143 219.209C190.691 219.209 190.322 218.84 190.322 218.389C190.322 217.938 190.691 217.568 191.143 217.568C191.594 217.568 191.963 217.938 191.963 218.389C191.963 218.84 191.594 219.209 191.143 219.209ZM190.541 228V220.631H191.73V228H190.541ZM193.973 228V220.631H195.162V221.738H195.271C195.641 220.959 196.331 220.501 197.418 220.501C199.072 220.501 199.995 221.479 199.995 223.229V228H198.806V223.516C198.806 222.189 198.259 221.554 197.083 221.554C195.907 221.554 195.162 222.347 195.162 223.639V228H193.973ZM204.869 228.13C203.003 228.13 201.779 226.619 201.779 224.322V224.309C201.779 221.998 202.996 220.501 204.869 220.501C205.881 220.501 206.763 221.007 207.166 221.793H207.275V217.705H208.465V228H207.275V226.824H207.166C206.715 227.645 205.895 228.13 204.869 228.13ZM205.143 227.077C206.482 227.077 207.303 226.024 207.303 224.322V224.309C207.303 222.606 206.482 221.554 205.143 221.554C203.796 221.554 202.996 222.593 202.996 224.309V224.322C202.996 226.038 203.796 227.077 205.143 227.077ZM213.756 228.13C211.65 228.13 210.379 226.653 210.379 224.343V224.336C210.379 222.06 211.678 220.501 213.681 220.501C215.684 220.501 216.9 221.991 216.9 224.192V224.657H211.596C211.63 226.182 212.471 227.07 213.783 227.07C214.781 227.07 215.396 226.599 215.595 226.154L215.622 226.093H216.812L216.798 226.147C216.545 227.146 215.492 228.13 213.756 228.13ZM213.674 221.561C212.58 221.561 211.746 222.306 211.616 223.707H215.69C215.567 222.251 214.761 221.561 213.674 221.561ZM218.746 228V220.631H219.936V221.725H220.045C220.325 220.952 221.016 220.501 222.014 220.501C222.239 220.501 222.492 220.528 222.608 220.549V221.704C222.362 221.663 222.137 221.636 221.877 221.636C220.742 221.636 219.936 222.354 219.936 223.434V228H218.746ZM224.577 224.719L224.461 218.129H225.828L225.712 224.719H224.577ZM225.151 228.123C224.598 228.123 224.201 227.727 224.201 227.173C224.201 226.612 224.598 226.216 225.151 226.216C225.705 226.216 226.095 226.612 226.095 227.173C226.095 227.727 225.705 228.123 225.151 228.123Z" fill="#141414" fill-opacity="0.85"/>
</g>
</g>
<defs>
<filter id="filter0_d_4467_50123" x="0" y="158" width="296" height="104" filterUnits="userSpaceOnUse" color-interpolation-filters="sRGB">
<feFlood flood-opacity="0" result="BackgroundImageFix"/>
<feColorMatrix in="SourceAlpha" type="matrix" values="0 0 0 0 0 0 0 0 0 0 0 0 0 0 0 0 0 0 127 0" result="hardAlpha"/>
<feOffset dy="2"/>
<feGaussianBlur stdDeviation="6.5"/>
<feColorMatrix type="matrix" values="0 0 0 0 0.0784314 0 0 0 0 0.0784314 0 0 0 0 0.0784314 0 0 0 0.06 0"/>
<feBlend mode="normal" in2="BackgroundImageFix" result="effect1_dropShadow_4467_50123"/>
<feBlend mode="normal" in="SourceGraphic" in2="effect1_dropShadow_4467_50123" result="shape"/>
</filter>
<clipPath id="clip0_4467_50123">
<rect width="314" height="260" fill="white"/>
</clipPath>
</defs>
</svg>
