<svg width="314" height="260" viewBox="0 0 314 260" fill="none" xmlns="http://www.w3.org/2000/svg">
<g opacity="0.75" filter="url(#filter0_d_4467_50082)">
<path d="M45.1074 138V130.631H46.2969V131.752H46.4062C46.7344 130.959 47.4316 130.501 48.3955 130.501C49.3936 130.501 50.0908 131.027 50.4326 131.793H50.542C50.9385 131.014 51.7793 130.501 52.7979 130.501C54.3018 130.501 55.1426 131.362 55.1426 132.907V138H53.9531V133.181C53.9531 132.094 53.4541 131.554 52.415 131.554C51.3896 131.554 50.7129 132.326 50.7129 133.263V138H49.5234V132.996C49.5234 132.121 48.9219 131.554 47.9922 131.554C47.0283 131.554 46.2969 132.395 46.2969 133.434V138H45.1074ZM60.3174 138.13C58.2188 138.13 56.9199 136.681 56.9199 134.322V134.309C56.9199 131.943 58.2188 130.501 60.3174 130.501C62.416 130.501 63.7148 131.943 63.7148 134.309V134.322C63.7148 136.681 62.416 138.13 60.3174 138.13ZM60.3174 137.077C61.7119 137.077 62.498 136.059 62.498 134.322V134.309C62.498 132.565 61.7119 131.554 60.3174 131.554C58.9229 131.554 58.1367 132.565 58.1367 134.309V134.322C58.1367 136.059 58.9229 137.077 60.3174 137.077ZM65.5605 138V130.631H66.75V131.725H66.8594C67.1396 130.952 67.8301 130.501 68.8281 130.501C69.0537 130.501 69.3066 130.528 69.4229 130.549V131.704C69.1768 131.663 68.9512 131.636 68.6914 131.636C67.5566 131.636 66.75 132.354 66.75 133.434V138H65.5605ZM71.0293 138V130.631H72.2188V131.738H72.3281C72.6973 130.959 73.3877 130.501 74.4746 130.501C76.1289 130.501 77.0518 131.479 77.0518 133.229V138H75.8623V133.516C75.8623 132.189 75.3154 131.554 74.1396 131.554C72.9639 131.554 72.2188 132.347 72.2188 133.639V138H71.0293ZM79.834 129.209C79.3828 129.209 79.0137 128.84 79.0137 128.389C79.0137 127.938 79.3828 127.568 79.834 127.568C80.2852 127.568 80.6543 127.938 80.6543 128.389C80.6543 128.84 80.2852 129.209 79.834 129.209ZM79.2324 138V130.631H80.4219V138H79.2324ZM82.6641 138V130.631H83.8535V131.738H83.9629C84.332 130.959 85.0225 130.501 86.1094 130.501C87.7637 130.501 88.6865 131.479 88.6865 133.229V138H87.4971V133.516C87.4971 132.189 86.9502 131.554 85.7744 131.554C84.5986 131.554 83.8535 132.347 83.8535 133.639V138H82.6641ZM93.875 140.598C92.0977 140.598 90.9629 139.798 90.7783 138.588L90.792 138.581H92.0225L92.0293 138.588C92.1592 139.148 92.8154 139.545 93.875 139.545C95.1943 139.545 95.9805 138.923 95.9805 137.836V136.346H95.8711C95.4062 137.159 94.5723 137.617 93.5605 137.617C91.6533 137.617 90.4707 136.141 90.4707 134.076V134.062C90.4707 131.998 91.6602 130.501 93.5879 130.501C94.627 130.501 95.4336 131.014 95.8848 131.848H95.9668V130.631H97.1562V137.897C97.1562 139.545 95.8848 140.598 93.875 140.598ZM93.8203 136.564C95.1875 136.564 96.0078 135.539 96.0078 134.076V134.062C96.0078 132.6 95.1807 131.554 93.8203 131.554C92.4531 131.554 91.6875 132.6 91.6875 134.062V134.076C91.6875 135.539 92.4531 136.564 93.8203 136.564ZM100.342 138.068C99.8564 138.068 99.4531 137.665 99.4531 137.18C99.4531 136.688 99.8564 136.291 100.342 136.291C100.834 136.291 101.23 136.688 101.23 137.18C101.23 137.665 100.834 138.068 100.342 138.068Z" fill="#141414" fill-opacity="0.85"/>
</g>
<defs>
<filter id="filter0_d_4467_50082" x="26" y="53" width="280" height="110" filterUnits="userSpaceOnUse" color-interpolation-filters="sRGB">
<feFlood flood-opacity="0" result="BackgroundImageFix"/>
<feColorMatrix in="SourceAlpha" type="matrix" values="0 0 0 0 0 0 0 0 0 0 0 0 0 0 0 0 0 0 127 0" result="hardAlpha"/>
<feOffset dy="1"/>
<feGaussianBlur stdDeviation="2.5"/>
<feComposite in2="hardAlpha" operator="out"/>
<feColorMatrix type="matrix" values="0 0 0 0 0.0784314 0 0 0 0 0.0784314 0 0 0 0 0.0784314 0 0 0 0.04 0"/>
<feBlend mode="normal" in2="BackgroundImageFix" result="effect1_dropShadow_4467_50082"/>
<feBlend mode="normal" in="SourceGraphic" in2="effect1_dropShadow_4467_50082" result="shape"/>
</filter>
</defs>
</svg>
