<svg width="314" height="260" viewBox="0 0 314 260" fill="none" xmlns="http://www.w3.org/2000/svg">
<g opacity="0.75" filter="url(#filter0_d_4467_50041)">
<path d="M45.2578 116V106.136H48.9766C50.8291 106.136 52.1416 107.414 52.1416 109.287V109.301C52.1416 111.174 50.8291 112.479 48.9766 112.479H46.4883V116H45.2578ZM48.6621 107.229H46.4883V111.386H48.6621C50.0703 111.386 50.8838 110.613 50.8838 109.314V109.301C50.8838 108.002 50.0703 107.229 48.6621 107.229ZM54.0762 116V105.705H55.2656V116H54.0762ZM60.5566 116.13C58.4512 116.13 57.1797 114.653 57.1797 112.343V112.336C57.1797 110.06 58.4785 108.501 60.4814 108.501C62.4844 108.501 63.7012 109.991 63.7012 112.192V112.657H58.3965C58.4307 114.182 59.2715 115.07 60.584 115.07C61.582 115.07 62.1973 114.599 62.3955 114.154L62.4229 114.093H63.6123L63.5986 114.147C63.3457 115.146 62.293 116.13 60.5566 116.13ZM60.4746 109.561C59.3809 109.561 58.5469 110.306 58.417 111.707H62.4912C62.3682 110.251 61.5615 109.561 60.4746 109.561ZM67.5703 116.13C66.1689 116.13 65.1094 115.282 65.1094 113.942V113.929C65.1094 112.616 66.0801 111.857 67.7959 111.755L69.9082 111.625V110.955C69.9082 110.046 69.3545 109.554 68.2539 109.554C67.3721 109.554 66.791 109.882 66.5996 110.456L66.5928 110.477H65.4033L65.4102 110.436C65.6016 109.28 66.7227 108.501 68.2949 108.501C70.0928 108.501 71.0977 109.424 71.0977 110.955V116H69.9082V114.913H69.7988C69.334 115.699 68.5615 116.13 67.5703 116.13ZM66.3262 113.915C66.3262 114.66 66.9619 115.098 67.8164 115.098C69.0264 115.098 69.9082 114.305 69.9082 113.252V112.582L67.9395 112.705C66.8184 112.773 66.3262 113.17 66.3262 113.901V113.915ZM75.8008 116.13C74.1602 116.13 73.0322 115.337 72.8955 114.12H74.1123C74.3105 114.735 74.8984 115.139 75.8418 115.139C76.833 115.139 77.5371 114.667 77.5371 113.997V113.983C77.5371 113.484 77.1611 113.136 76.252 112.917L75.1104 112.644C73.7295 112.315 73.1074 111.714 73.1074 110.654V110.647C73.1074 109.424 74.2832 108.501 75.8486 108.501C77.3936 108.501 78.4668 109.273 78.6309 110.477H77.4619C77.3047 109.896 76.7305 109.492 75.8418 109.492C74.9668 109.492 74.3242 109.943 74.3242 110.593V110.606C74.3242 111.105 74.6934 111.42 75.5615 111.632L76.6963 111.905C78.084 112.24 78.7539 112.842 78.7539 113.895V113.908C78.7539 115.221 77.4756 116.13 75.8008 116.13ZM83.6074 116.13C81.502 116.13 80.2305 114.653 80.2305 112.343V112.336C80.2305 110.06 81.5293 108.501 83.5322 108.501C85.5352 108.501 86.752 109.991 86.752 112.192V112.657H81.4473C81.4814 114.182 82.3223 115.07 83.6348 115.07C84.6328 115.07 85.248 114.599 85.4463 114.154L85.4736 114.093H86.6631L86.6494 114.147C86.3965 115.146 85.3438 116.13 83.6074 116.13ZM83.5254 109.561C82.4316 109.561 81.5977 110.306 81.4678 111.707H85.542C85.4189 110.251 84.6123 109.561 83.5254 109.561ZM92.5352 118.461V108.631H93.7246V109.807H93.834C94.2852 108.986 95.1055 108.501 96.1309 108.501C97.9971 108.501 99.2207 110.012 99.2207 112.309V112.322C99.2207 114.633 98.0039 116.13 96.1309 116.13C95.1191 116.13 94.2373 115.624 93.834 114.838H93.7246V118.461H92.5352ZM95.8574 115.077C97.2041 115.077 98.0039 114.038 98.0039 112.322V112.309C98.0039 110.593 97.2041 109.554 95.8574 109.554C94.5176 109.554 93.6973 110.606 93.6973 112.309V112.322C93.6973 114.024 94.5176 115.077 95.8574 115.077ZM101.148 116V105.705H102.338V116H101.148ZM106.645 116.13C105.243 116.13 104.184 115.282 104.184 113.942V113.929C104.184 112.616 105.154 111.857 106.87 111.755L108.982 111.625V110.955C108.982 110.046 108.429 109.554 107.328 109.554C106.446 109.554 105.865 109.882 105.674 110.456L105.667 110.477H104.478L104.484 110.436C104.676 109.28 105.797 108.501 107.369 108.501C109.167 108.501 110.172 109.424 110.172 110.955V116H108.982V114.913H108.873C108.408 115.699 107.636 116.13 106.645 116.13ZM105.4 113.915C105.4 114.66 106.036 115.098 106.891 115.098C108.101 115.098 108.982 114.305 108.982 113.252V112.582L107.014 112.705C105.893 112.773 105.4 113.17 105.4 113.901V113.915ZM112.346 116V108.631H113.535V109.738H113.645C114.014 108.959 114.704 108.501 115.791 108.501C117.445 108.501 118.368 109.479 118.368 111.229V116H117.179V111.516C117.179 110.189 116.632 109.554 115.456 109.554C114.28 109.554 113.535 110.347 113.535 111.639V116H112.346ZM127.077 116.055C125.56 116.055 124.924 115.494 124.924 114.086V109.615H123.762V108.631H124.924V106.724H126.154V108.631H127.768V109.615H126.154V113.785C126.154 114.653 126.455 115.002 127.221 115.002C127.433 115.002 127.549 114.995 127.768 114.975V115.986C127.535 116.027 127.31 116.055 127.077 116.055ZM129.613 116V105.705H130.803V109.738H130.912C131.281 108.959 131.972 108.501 133.059 108.501C134.713 108.501 135.636 109.479 135.636 111.229V116H134.446V111.516C134.446 110.189 133.899 109.554 132.724 109.554C131.548 109.554 130.803 110.347 130.803 111.639V116H129.613ZM138.418 107.209C137.967 107.209 137.598 106.84 137.598 106.389C137.598 105.938 137.967 105.568 138.418 105.568C138.869 105.568 139.238 105.938 139.238 106.389C139.238 106.84 138.869 107.209 138.418 107.209ZM137.816 116V108.631H139.006V116H137.816ZM143.777 116.13C142.137 116.13 141.009 115.337 140.872 114.12H142.089C142.287 114.735 142.875 115.139 143.818 115.139C144.81 115.139 145.514 114.667 145.514 113.997V113.983C145.514 113.484 145.138 113.136 144.229 112.917L143.087 112.644C141.706 112.315 141.084 111.714 141.084 110.654V110.647C141.084 109.424 142.26 108.501 143.825 108.501C145.37 108.501 146.443 109.273 146.607 110.477H145.438C145.281 109.896 144.707 109.492 143.818 109.492C142.943 109.492 142.301 109.943 142.301 110.593V110.606C142.301 111.105 142.67 111.42 143.538 111.632L144.673 111.905C146.061 112.24 146.73 112.842 146.73 113.895V113.908C146.73 115.221 145.452 116.13 143.777 116.13ZM153.143 107.209C152.691 107.209 152.322 106.84 152.322 106.389C152.322 105.938 152.691 105.568 153.143 105.568C153.594 105.568 153.963 105.938 153.963 106.389C153.963 106.84 153.594 107.209 153.143 107.209ZM152.541 116V108.631H153.73V116H152.541ZM155.973 116V108.631H157.162V109.738H157.271C157.641 108.959 158.331 108.501 159.418 108.501C161.072 108.501 161.995 109.479 161.995 111.229V116H160.806V111.516C160.806 110.189 160.259 109.554 159.083 109.554C157.907 109.554 157.162 110.347 157.162 111.639V116H155.973ZM168.578 116V109.615H167.354V108.631H168.578V107.811C168.578 106.341 169.316 105.637 170.718 105.637C171.005 105.637 171.265 105.657 171.511 105.705V106.655C171.367 106.628 171.169 106.621 170.957 106.621C170.109 106.621 169.768 107.038 169.768 107.845V108.631H171.442V109.615H169.768V116H168.578ZM175.872 116.13C173.773 116.13 172.475 114.681 172.475 112.322V112.309C172.475 109.943 173.773 108.501 175.872 108.501C177.971 108.501 179.27 109.943 179.27 112.309V112.322C179.27 114.681 177.971 116.13 175.872 116.13ZM175.872 115.077C177.267 115.077 178.053 114.059 178.053 112.322V112.309C178.053 110.565 177.267 109.554 175.872 109.554C174.478 109.554 173.691 110.565 173.691 112.309V112.322C173.691 114.059 174.478 115.077 175.872 115.077ZM181.115 116V108.631H182.305V109.725H182.414C182.694 108.952 183.385 108.501 184.383 108.501C184.608 108.501 184.861 108.528 184.978 108.549V109.704C184.731 109.663 184.506 109.636 184.246 109.636C183.111 109.636 182.305 110.354 182.305 111.434V116H181.115ZM192.791 116V107.503H192.682L190.173 109.321V108.022L192.798 106.136H194.021V116H192.791ZM200.174 116.232C197.993 116.232 196.694 114.243 196.694 111.071V111.058C196.694 107.886 197.993 105.903 200.174 105.903C202.354 105.903 203.667 107.886 203.667 111.058V111.071C203.667 114.243 202.354 116.232 200.174 116.232ZM200.174 115.159C201.589 115.159 202.43 113.587 202.43 111.071V111.058C202.43 108.542 201.589 106.983 200.174 106.983C198.759 106.983 197.932 108.542 197.932 111.058V111.071C197.932 113.587 198.759 115.159 200.174 115.159ZM210.264 107.209C209.812 107.209 209.443 106.84 209.443 106.389C209.443 105.938 209.812 105.568 210.264 105.568C210.715 105.568 211.084 105.938 211.084 106.389C211.084 106.84 210.715 107.209 210.264 107.209ZM209.662 116V108.631H210.852V116H209.662ZM213.094 116V108.631H214.283V109.738H214.393C214.762 108.959 215.452 108.501 216.539 108.501C218.193 108.501 219.116 109.479 219.116 111.229V116H217.927V111.516C217.927 110.189 217.38 109.554 216.204 109.554C215.028 109.554 214.283 110.347 214.283 111.639V116H213.094ZM227.825 116.055C226.308 116.055 225.672 115.494 225.672 114.086V109.615H224.51V108.631H225.672V106.724H226.902V108.631H228.516V109.615H226.902V113.785C226.902 114.653 227.203 115.002 227.969 115.002C228.181 115.002 228.297 114.995 228.516 114.975V115.986C228.283 116.027 228.058 116.055 227.825 116.055ZM230.361 116V105.705H231.551V109.738H231.66C232.029 108.959 232.72 108.501 233.807 108.501C235.461 108.501 236.384 109.479 236.384 111.229V116H235.194V111.516C235.194 110.189 234.647 109.554 233.472 109.554C232.296 109.554 231.551 110.347 231.551 111.639V116H230.361ZM241.545 116.13C239.439 116.13 238.168 114.653 238.168 112.343V112.336C238.168 110.06 239.467 108.501 241.47 108.501C243.473 108.501 244.689 109.991 244.689 112.192V112.657H239.385C239.419 114.182 240.26 115.07 241.572 115.07C242.57 115.07 243.186 114.599 243.384 114.154L243.411 114.093H244.601L244.587 114.147C244.334 115.146 243.281 116.13 241.545 116.13ZM241.463 109.561C240.369 109.561 239.535 110.306 239.405 111.707H243.479C243.356 110.251 242.55 109.561 241.463 109.561Z" fill="#141414" fill-opacity="0.85"/>
</g>
<defs>
<filter id="filter0_d_4467_50041" x="26" y="53" width="280" height="110" filterUnits="userSpaceOnUse" color-interpolation-filters="sRGB">
<feFlood flood-opacity="0" result="BackgroundImageFix"/>
<feColorMatrix in="SourceAlpha" type="matrix" values="0 0 0 0 0 0 0 0 0 0 0 0 0 0 0 0 0 0 127 0" result="hardAlpha"/>
<feOffset dy="1"/>
<feGaussianBlur stdDeviation="2.5"/>
<feComposite in2="hardAlpha" operator="out"/>
<feColorMatrix type="matrix" values="0 0 0 0 0.0784314 0 0 0 0 0.0784314 0 0 0 0 0.0784314 0 0 0 0.04 0"/>
<feBlend mode="normal" in2="BackgroundImageFix" result="effect1_dropShadow_4467_50041"/>
<feBlend mode="normal" in="SourceGraphic" in2="effect1_dropShadow_4467_50041" result="shape"/>
</filter>
</defs>
</svg>
