<svg width="314" height="260" viewBox="0 0 314 260" fill="none" xmlns="http://www.w3.org/2000/svg">
<g opacity="0.75" filter="url(#filter0_d_4465_49794)">
<path d="M31 59C31 57.8954 31.8954 57 33 57H299C300.105 57 301 57.8954 301 59V155C301 156.105 300.105 157 299 157H33C31.8954 157 31 156.105 31 155V59Z" fill="white"/>
<path d="M33 57.5H299C299.828 57.5 300.5 58.1716 300.5 59V155C300.5 155.828 299.828 156.5 299 156.5H33C32.1716 156.5 31.5 155.828 31.5 155V59C31.5 58.1716 32.1716 57.5 33 57.5Z" stroke="#E3E3E3"/>
<rect x="32" y="58" width="268" height="2" fill="#D89522"/>
<path d="M45.043 87V78.5449H46.5547V82.4531H46.6543L49.9883 78.5449H51.7227L48.5352 82.2305L51.9746 87H50.1289L47.457 83.2324L46.5547 84.2812V87H45.043ZM53.2168 89.25C53.041 89.25 52.8359 89.2441 52.6602 89.2266V88.1074C52.7773 88.1191 52.9414 88.125 53.0938 88.125C53.6914 88.125 54.0488 87.8789 54.207 87.2988L54.2832 87.0059L51.9922 80.5957H53.5859L55.0801 85.5996H55.1914L56.6797 80.5957H58.2148L55.918 87.1348C55.3672 88.7402 54.6348 89.25 53.2168 89.25ZM61.9531 87.1289C60.0488 87.1289 58.8945 85.8516 58.8945 83.8125V83.8066C58.8945 81.791 60.0605 80.4727 61.8828 80.4727C63.7051 80.4727 64.8301 81.75 64.8301 83.6836V84.1641H60.3535C60.3711 85.3125 60.9922 85.9805 61.9824 85.9805C62.7734 85.9805 63.2246 85.582 63.3652 85.2891L63.3828 85.248H64.7715L64.7539 85.3008C64.5488 86.127 63.6934 87.1289 61.9531 87.1289ZM61.9004 81.6152C61.0859 81.6152 60.4766 82.166 60.3652 83.1855H63.4062C63.3066 82.1367 62.7148 81.6152 61.9004 81.6152ZM69.6406 87V78.5449H73.0156C74.7324 78.5449 75.8926 79.6758 75.8926 81.3691V81.3809C75.8926 83.0684 74.7324 84.2051 73.0156 84.2051H71.1523V87H69.6406ZM72.6465 79.7812H71.1523V82.9863H72.6465C73.7305 82.9863 74.3633 82.4004 74.3633 81.3867V81.375C74.3633 80.3613 73.7305 79.7812 72.6465 79.7812ZM79.9766 87.1289C78.0723 87.1289 76.918 85.8516 76.918 83.8125V83.8066C76.918 81.791 78.084 80.4727 79.9062 80.4727C81.7285 80.4727 82.8535 81.75 82.8535 83.6836V84.1641H78.377C78.3945 85.3125 79.0156 85.9805 80.0059 85.9805C80.7969 85.9805 81.248 85.582 81.3887 85.2891L81.4062 85.248H82.7949L82.7773 85.3008C82.5723 86.127 81.7168 87.1289 79.9766 87.1289ZM79.9238 81.6152C79.1094 81.6152 78.5 82.166 78.3887 83.1855H81.4297C81.3301 82.1367 80.7383 81.6152 79.9238 81.6152ZM86.832 87.0293C85.3613 87.0293 84.7578 86.5371 84.7578 85.3008V81.7266H83.7617V80.5957H84.7578V79.0254H86.2402V80.5957H87.5938V81.7266H86.2402V84.9551C86.2402 85.5938 86.4922 85.8633 87.1016 85.8633C87.3066 85.8633 87.418 85.8574 87.5938 85.8398V86.9648C87.3828 87.0059 87.1133 87.0293 86.832 87.0293ZM91.7305 87.1289C89.8262 87.1289 88.6719 85.8516 88.6719 83.8125V83.8066C88.6719 81.791 89.8379 80.4727 91.6602 80.4727C93.4824 80.4727 94.6074 81.75 94.6074 83.6836V84.1641H90.1309C90.1484 85.3125 90.7695 85.9805 91.7598 85.9805C92.5508 85.9805 93.002 85.582 93.1426 85.2891L93.1602 85.248H94.5488L94.5312 85.3008C94.3262 86.127 93.4707 87.1289 91.7305 87.1289ZM91.6777 81.6152C90.8633 81.6152 90.2539 82.166 90.1426 83.1855H93.1836C93.084 82.1367 92.4922 81.6152 91.6777 81.6152ZM96.0664 87V80.5957H97.5254V81.5801H97.625C97.8418 80.8945 98.4277 80.4902 99.2715 80.4902C99.4941 80.4902 99.7227 80.5195 99.8633 80.5605V81.8672C99.6289 81.8203 99.3887 81.7852 99.1367 81.7852C98.1641 81.7852 97.5254 82.3652 97.5254 83.2793V87H96.0664ZM103.338 87.1289C101.709 87.1289 100.725 86.3789 100.602 85.2949V85.2832H102.049L102.055 85.2949C102.207 85.7402 102.635 86.0508 103.361 86.0508C104.088 86.0508 104.592 85.7227 104.592 85.2422V85.2305C104.592 84.8555 104.311 84.6094 103.607 84.4512L102.57 84.2168C101.352 83.9473 100.771 83.373 100.771 82.4297V82.4238C100.771 81.2695 101.826 80.4727 103.338 80.4727C104.896 80.4727 105.828 81.2461 105.922 82.2832V82.2949H104.551L104.545 82.2773C104.439 81.873 104.018 81.5449 103.332 81.5449C102.682 81.5449 102.213 81.8613 102.213 82.3418V82.3477C102.213 82.7227 102.482 82.9512 103.174 83.1094L104.211 83.3379C105.465 83.6191 106.057 84.1523 106.057 85.084V85.0957C106.057 86.3145 104.914 87.1289 103.338 87.1289Z" fill="#141414" fill-opacity="0.85"/>
<path d="M218.139 88.1523C216.247 88.1523 215.022 87.0986 214.901 85.6514L214.895 85.5752H215.993L216 85.6387C216.088 86.54 216.92 87.1621 218.139 87.1621C219.338 87.1621 220.157 86.4893 220.157 85.5181V85.5054C220.157 84.3818 219.351 83.7534 218.069 83.7534H216.92V82.7886H218.018C219.11 82.7886 219.872 82.1157 219.872 81.2017V81.189C219.872 80.2305 219.243 79.6782 218.126 79.6782C217.047 79.6782 216.279 80.2495 216.184 81.1763L216.177 81.2397H215.079L215.085 81.1763C215.231 79.6846 216.412 78.688 218.126 78.688C219.872 78.688 221.021 79.6592 221.021 81.0493V81.062C221.021 82.1919 220.221 82.9663 219.078 83.2075V83.2329C220.411 83.3472 221.319 84.1787 221.319 85.48V85.4927C221.319 87.0225 219.973 88.1523 218.139 88.1523Z" fill="#141414" fill-opacity="0.45"/>
<path d="M227.748 88V78.4404H228.853V82.1855H228.954C229.297 81.4619 229.938 81.0366 230.947 81.0366C232.483 81.0366 233.34 81.9443 233.34 83.5693V88H232.236V83.8359C232.236 82.6045 231.728 82.0142 230.636 82.0142C229.544 82.0142 228.853 82.7505 228.853 83.9502V88H227.748ZM238.152 88.1206C236.203 88.1206 234.997 86.7749 234.997 84.585V84.5723C234.997 82.376 236.203 81.0366 238.152 81.0366C240.101 81.0366 241.307 82.376 241.307 84.5723V84.585C241.307 86.7749 240.101 88.1206 238.152 88.1206ZM238.152 87.1431C239.447 87.1431 240.177 86.1973 240.177 84.585V84.5723C240.177 82.9536 239.447 82.0142 238.152 82.0142C236.857 82.0142 236.127 82.9536 236.127 84.5723V84.585C236.127 86.1973 236.857 87.1431 238.152 87.1431ZM245.312 88.1206C243.757 88.1206 242.957 87.2065 242.957 85.5879V81.1572H244.062V85.3213C244.062 86.5527 244.506 87.1431 245.598 87.1431C246.804 87.1431 247.445 86.4067 247.445 85.207V81.1572H248.549V88H247.445V86.978H247.343C247.007 87.708 246.315 88.1206 245.312 88.1206ZM250.612 88V81.1572H251.717V82.1729H251.818C252.079 81.4556 252.72 81.0366 253.646 81.0366C253.856 81.0366 254.091 81.062 254.199 81.0811V82.1538C253.97 82.1157 253.761 82.0903 253.52 82.0903C252.466 82.0903 251.717 82.7568 251.717 83.7598V88H250.612ZM257.785 88.1206C256.262 88.1206 255.214 87.3843 255.087 86.2544H256.217C256.401 86.8257 256.947 87.2002 257.823 87.2002C258.744 87.2002 259.397 86.7622 259.397 86.1401V86.1274C259.397 85.6641 259.048 85.3403 258.204 85.1372L257.144 84.8833C255.862 84.5786 255.284 84.02 255.284 83.0361V83.0298C255.284 81.8936 256.376 81.0366 257.83 81.0366C259.264 81.0366 260.261 81.7539 260.413 82.8711H259.328C259.182 82.3315 258.648 81.957 257.823 81.957C257.011 81.957 256.414 82.376 256.414 82.979V82.9917C256.414 83.4551 256.757 83.7471 257.563 83.9438L258.617 84.1978C259.905 84.5088 260.527 85.0674 260.527 86.0449V86.0576C260.527 87.2764 259.34 88.1206 257.785 88.1206ZM267.776 88.1206C266.475 88.1206 265.491 87.3335 265.491 86.0894V86.0767C265.491 84.8579 266.393 84.1533 267.986 84.0581L269.947 83.9375V83.3154C269.947 82.4712 269.433 82.0142 268.411 82.0142C267.592 82.0142 267.053 82.3188 266.875 82.8521L266.869 82.8711H265.764L265.771 82.833C265.948 81.7603 266.989 81.0366 268.449 81.0366C270.119 81.0366 271.052 81.8936 271.052 83.3154V88H269.947V86.9907H269.846C269.414 87.7207 268.697 88.1206 267.776 88.1206ZM266.621 86.064C266.621 86.7559 267.211 87.1621 268.005 87.1621C269.128 87.1621 269.947 86.4258 269.947 85.4482V84.8262L268.119 84.9404C267.078 85.0039 266.621 85.3721 266.621 86.0513V86.064ZM275.889 90.4121C274.238 90.4121 273.185 89.6694 273.013 88.5459L273.026 88.5396H274.168L274.175 88.5459C274.295 89.0664 274.905 89.4346 275.889 89.4346C277.114 89.4346 277.844 88.8569 277.844 87.8477V86.4639H277.742C277.311 87.2192 276.536 87.6445 275.597 87.6445C273.826 87.6445 272.728 86.2734 272.728 84.3564V84.3438C272.728 82.4268 273.832 81.0366 275.622 81.0366C276.587 81.0366 277.336 81.5127 277.755 82.2871H277.831V81.1572H278.936V87.9048C278.936 89.4346 277.755 90.4121 275.889 90.4121ZM275.838 86.667C277.107 86.667 277.869 85.7148 277.869 84.3564V84.3438C277.869 82.9854 277.101 82.0142 275.838 82.0142C274.568 82.0142 273.857 82.9854 273.857 84.3438V84.3564C273.857 85.7148 274.568 86.667 275.838 86.667ZM283.804 88.1206C281.855 88.1206 280.649 86.7749 280.649 84.585V84.5723C280.649 82.376 281.855 81.0366 283.804 81.0366C285.753 81.0366 286.959 82.376 286.959 84.5723V84.585C286.959 86.7749 285.753 88.1206 283.804 88.1206ZM283.804 87.1431C285.099 87.1431 285.829 86.1973 285.829 84.585V84.5723C285.829 82.9536 285.099 82.0142 283.804 82.0142C282.509 82.0142 281.779 82.9536 281.779 84.5723V84.585C281.779 86.1973 282.509 87.1431 283.804 87.1431Z" fill="#141414" fill-opacity="0.45"/>
</g>
<defs>
<filter id="filter0_d_4465_49794" x="26" y="53" width="280" height="110" filterUnits="userSpaceOnUse" color-interpolation-filters="sRGB">
<feFlood flood-opacity="0" result="BackgroundImageFix"/>
<feColorMatrix in="SourceAlpha" type="matrix" values="0 0 0 0 0 0 0 0 0 0 0 0 0 0 0 0 0 0 127 0" result="hardAlpha"/>
<feOffset dy="1"/>
<feGaussianBlur stdDeviation="2.5"/>
<feComposite in2="hardAlpha" operator="out"/>
<feColorMatrix type="matrix" values="0 0 0 0 0.0784314 0 0 0 0 0.0784314 0 0 0 0 0.0784314 0 0 0 0.04 0"/>
<feBlend mode="normal" in2="BackgroundImageFix" result="effect1_dropShadow_4465_49794"/>
<feBlend mode="normal" in="SourceGraphic" in2="effect1_dropShadow_4465_49794" result="shape"/>
</filter>
</defs>
</svg>
