<svg xmlns="http://www.w3.org/2000/svg" xmlns:xlink="http://www.w3.org/1999/xlink" width="314" height="260" fill="none" viewBox="0 0 314 260"><path fill="#f8f8f8" d="M31 15a2 2 0 0 1 2-2h32a2 2 0 0 1 2 2v32a2 2 0 0 1-2 2H33a2 2 0 0 1-2-2z"/><g clip-path="url(#a)"><path fill="url(#b)" d="M31 13h36v36H31z"/></g><path fill="#141414" fill-opacity=".85" d="m73.416 35 3-8.455h1.705l3 8.455H79.54l-.709-2.185h-3.129L74.998 35zm3.803-6.885-1.137 3.533h2.373l-1.137-3.533zM82.422 35v-6.404h1.459v.984h.1c.216-.685.802-1.09 1.646-1.09.223 0 .451.03.592.07v1.307a3.7 3.7 0 0 0-.727-.082c-.973 0-1.611.58-1.611 1.494V35zm7.652.03c-1.47 0-2.074-.493-2.074-1.73v-3.573h-.996v-1.131H88v-1.57h1.482v1.57h1.354v1.13h-1.354v3.23c0 .638.252.907.862.907.205 0 .316-.006.492-.023v1.125c-.211.04-.48.064-.762.064m2.965-7.507a.865.865 0 0 1-.873-.86c0-.476.393-.862.873-.862.475 0 .867.387.867.861 0 .48-.392.861-.867.861M92.307 35v-6.404h1.459V35zm6 .129c-1.928 0-3.065-1.248-3.065-3.34v-.012c0-2.068 1.131-3.304 3.059-3.304 1.646 0 2.631.914 2.795 2.238v.023h-1.377l-.006-.017c-.135-.621-.61-1.067-1.406-1.067-.996 0-1.582.786-1.582 2.127v.012c0 1.36.591 2.156 1.582 2.156.755 0 1.218-.345 1.4-1.02l.012-.023 1.377-.005-.012.046c-.211 1.313-1.154 2.186-2.777 2.186m4.236-.129v-8.883h1.459V35zm6.047.129c-1.904 0-3.059-1.277-3.059-3.316v-.006c0-2.016 1.166-3.334 2.989-3.334s2.947 1.277 2.947 3.21v.481h-4.477c.018 1.148.639 1.816 1.629 1.816.791 0 1.242-.398 1.383-.69l.018-.042h1.388l-.017.053c-.205.826-1.061 1.828-2.801 1.828m-.053-5.514c-.814 0-1.424.551-1.535 1.57h3.041c-.1-1.048-.691-1.57-1.506-1.57M118.381 35v-7.184h-2.602v-1.271h6.721v1.271h-2.607V35zm7.154.129c-1.904 0-3.058-1.277-3.058-3.316v-.006c0-2.016 1.166-3.334 2.988-3.334s2.947 1.277 2.947 3.21v.481h-4.476c.017 1.148.638 1.816 1.628 1.816.791 0 1.243-.398 1.383-.69l.018-.042h1.389l-.018.053c-.205.826-1.061 1.828-2.801 1.828m-.053-5.514c-.814 0-1.423.551-1.535 1.57h3.041c-.099-1.048-.691-1.57-1.506-1.57m6.135 5.49c-1.219 0-2.103-.75-2.103-1.915v-.012c0-1.143.873-1.81 2.431-1.905l1.647-.1v-.55c0-.639-.416-.99-1.201-.99-.668 0-1.102.24-1.248.662l-.006.023h-1.377l.006-.052c.14-1.078 1.172-1.793 2.695-1.793 1.646 0 2.572.797 2.572 2.15V35h-1.441v-.879h-.1c-.351.621-1.031.984-1.875.984m-.662-1.986c0 .545.463.867 1.107.867.879 0 1.53-.574 1.53-1.336v-.515l-1.442.093c-.814.053-1.195.352-1.195.88zm8.25 2.01c-1.629 0-2.613-.75-2.736-1.834v-.012h1.447l.006.012c.152.445.58.756 1.307.756.726 0 1.23-.328 1.23-.809v-.011c0-.376-.281-.622-.984-.78l-1.037-.234c-1.219-.27-1.799-.844-1.799-1.787v-.006c0-1.154 1.054-1.951 2.566-1.951 1.559 0 2.49.773 2.584 1.81v.012h-1.371l-.006-.018c-.105-.404-.527-.732-1.213-.732-.65 0-1.119.316-1.119.797v.006c0 .375.27.603.961.761l1.037.229c1.254.281 1.846.814 1.846 1.746v.012c0 1.219-1.143 2.033-2.719 2.033m6.932 0c-1.905 0-3.059-1.277-3.059-3.316v-.006c0-2.016 1.166-3.334 2.988-3.334s2.948 1.277 2.948 3.21v.481h-4.477c.018 1.148.639 1.816 1.629 1.816.791 0 1.242-.398 1.383-.69l.017-.042h1.389l-.017.053c-.206.826-1.061 1.828-2.801 1.828m-.053-5.514c-.814 0-1.424.551-1.535 1.57h3.041c-.1-1.048-.692-1.57-1.506-1.57M150.473 35v-6.404h1.459v.984h.099c.217-.685.803-1.09 1.647-1.09.222 0 .451.03.592.07v1.307a3.7 3.7 0 0 0-.727-.082c-.973 0-1.611.58-1.611 1.494V35z"/><defs><clipPath id="a"><path fill="#fff" d="M31 13h36v36H31z"/></clipPath><pattern id="b" width="1" height="1" patternContentUnits="objectBoundingBox"><use xlink:href="#c" transform="scale(.00417)"/></pattern><image xlink:href="stage-1.embedded-image.png" id="c" width="240" height="240" preserveAspectRatio="none"/></defs></svg>