<svg width="966" height="374" viewBox="0 0 966 374" fill="none" xmlns="http://www.w3.org/2000/svg">
<g filter="url(#filter0_f_4594_45561)">
<rect x="817" y="227" width="110" height="41" fill="white"/>
</g>
<rect width="103" height="34" transform="translate(821 230)" fill="white"/>
<path d="M830.5 240.5H824C823.47 240.5 822.961 240.289 822.586 239.914C822.211 239.539 822 239.03 822 238.5C822 237.97 822.211 237.461 822.586 237.086C822.961 236.711 823.47 236.5 824 236.5H824.355C824.685 235.345 825.75 234.5 827 234.5C827.729 234.5 828.429 234.79 828.945 235.305C829.46 235.821 829.75 236.521 829.75 237.25V237.5H830.5C830.898 237.5 831.279 237.658 831.561 237.939C831.842 238.221 832 238.602 832 239C832 239.398 831.842 239.779 831.561 240.061C831.279 240.342 830.898 240.5 830.5 240.5ZM830.675 236.515C830.335 234.795 828.82 233.5 827 233.5C825.555 233.5 824.3 234.32 823.675 235.515C822.17 235.68 821 236.95 821 238.5C821 239.296 821.316 240.059 821.879 240.621C822.441 241.184 823.204 241.5 824 241.5H830.5C830.828 241.5 831.153 241.435 831.457 241.31C831.76 241.184 832.036 241 832.268 240.768C832.5 240.536 832.684 240.26 832.81 239.957C832.935 239.653 833 239.328 833 239C833 237.68 831.975 236.61 830.675 236.515Z" fill="#1FC47A"/>
<path d="M837.87 242.934V235.21H838.805V236.134H838.891C839.245 235.489 839.89 235.108 840.695 235.108C842.162 235.108 843.123 236.295 843.123 238.1V238.11C843.123 239.926 842.167 241.102 840.695 241.102C839.9 241.102 839.208 240.705 838.891 240.087H838.805V242.934H837.87ZM840.48 240.275C841.539 240.275 842.167 239.458 842.167 238.11V238.1C842.167 236.751 841.539 235.935 840.48 235.935C839.428 235.935 838.783 236.762 838.783 238.1V238.11C838.783 239.448 839.428 240.275 840.48 240.275ZM846.523 241.102C845.207 241.102 844.53 240.329 844.53 238.959V235.21H845.465V238.733C845.465 239.775 845.841 240.275 846.765 240.275C847.785 240.275 848.328 239.652 848.328 238.637V235.21H849.262V241H848.328V240.135H848.242C847.957 240.753 847.372 241.102 846.523 241.102ZM853.887 241.102C853.081 241.102 852.437 240.721 852.082 240.076H851.996V241H851.062V232.911H851.996V236.123H852.082C852.399 235.505 853.092 235.108 853.887 235.108C855.358 235.108 856.314 236.284 856.314 238.1V238.11C856.314 239.915 855.353 241.102 853.887 241.102ZM853.672 240.275C854.73 240.275 855.358 239.458 855.358 238.11V238.1C855.358 236.751 854.73 235.935 853.672 235.935C852.619 235.935 851.975 236.762 851.975 238.1V238.11C851.975 239.448 852.619 240.275 853.672 240.275ZM857.818 241V232.911H858.753V241H857.818ZM861.041 234.093C860.687 234.093 860.396 233.803 860.396 233.448C860.396 233.094 860.687 232.804 861.041 232.804C861.396 232.804 861.686 233.094 861.686 233.448C861.686 233.803 861.396 234.093 861.041 234.093ZM860.568 241V235.21H861.503V241H860.568ZM863.13 241V240.323L866.471 236.069V235.983H863.136V235.21H867.572V235.903L864.248 240.141V240.227H867.588V241H863.13ZM869.688 234.093C869.334 234.093 869.044 233.803 869.044 233.448C869.044 233.094 869.334 232.804 869.688 232.804C870.043 232.804 870.333 233.094 870.333 233.448C870.333 233.803 870.043 234.093 869.688 234.093ZM869.216 241V235.21H870.15V241H869.216ZM874.275 241.102C872.621 241.102 871.622 239.942 871.622 238.126V238.121C871.622 236.333 872.643 235.108 874.216 235.108C875.79 235.108 876.746 236.279 876.746 238.008V238.374H872.578C872.605 239.571 873.266 240.27 874.297 240.27C875.081 240.27 875.564 239.899 875.72 239.55L875.742 239.501H876.676L876.666 239.544C876.467 240.329 875.64 241.102 874.275 241.102ZM874.211 235.94C873.352 235.94 872.696 236.526 872.594 237.627H875.795C875.699 236.483 875.065 235.94 874.211 235.94ZM878.196 241V235.21H879.131V236.069H879.217C879.437 235.462 879.979 235.108 880.764 235.108C880.941 235.108 881.14 235.129 881.231 235.146V236.053C881.038 236.021 880.86 236 880.656 236C879.765 236 879.131 236.563 879.131 237.412V241H878.196ZM884.55 241.043C883.358 241.043 882.858 240.603 882.858 239.496V235.983H881.945V235.21H882.858V233.711H883.825V235.21H885.093V235.983H883.825V239.26C883.825 239.942 884.062 240.216 884.663 240.216C884.83 240.216 884.921 240.21 885.093 240.194V240.989C884.91 241.021 884.733 241.043 884.55 241.043Z" fill="#1FC47A"/>
<path d="M823.508 260L821.365 254.21H822.354L823.938 258.979H824.024L825.608 254.21H826.597L824.454 260H823.508ZM829.997 260.102C828.348 260.102 827.327 258.963 827.327 257.11V257.1C827.327 255.241 828.348 254.108 829.997 254.108C831.646 254.108 832.666 255.241 832.666 257.1V257.11C832.666 258.963 831.646 260.102 829.997 260.102ZM829.997 259.275C831.092 259.275 831.71 258.475 831.71 257.11V257.1C831.71 255.73 831.092 254.935 829.997 254.935C828.901 254.935 828.283 255.73 828.283 257.1V257.11C828.283 258.475 828.901 259.275 829.997 259.275ZM834.116 260V254.21H835.051V255.069H835.137C835.357 254.462 835.899 254.108 836.684 254.108C836.861 254.108 837.06 254.129 837.151 254.146V255.053C836.958 255.021 836.78 255 836.576 255C835.685 255 835.051 255.563 835.051 256.412V260H834.116Z" fill="#141414" fill-opacity="0.45"/>
<path d="M841.865 260V259.334L844.486 256.498C845.474 255.429 845.764 255.026 845.764 254.35V254.339C845.764 253.522 845.211 252.91 844.298 252.91C843.369 252.91 842.751 253.517 842.751 254.43L842.746 254.441L841.822 254.436L841.811 254.43C841.816 253.055 842.88 252.067 844.362 252.067C845.716 252.067 846.752 252.985 846.752 254.237V254.248C846.752 255.134 846.371 255.778 844.969 257.223L843.208 259.044V259.13H846.881V260H841.865Z" fill="#141414" fill-opacity="0.45"/>
<path d="M852.082 260V252.25H853.205L855.858 258.716H855.944L858.597 252.25H859.72V260H858.817V254.081H858.758L856.309 260H855.493L853.043 254.081H852.984V260H852.082ZM862.072 253.093C861.718 253.093 861.428 252.803 861.428 252.448C861.428 252.094 861.718 251.804 862.072 251.804C862.427 251.804 862.717 252.094 862.717 252.448C862.717 252.803 862.427 253.093 862.072 253.093ZM861.6 260V254.21H862.534V260H861.6ZM864.296 260V254.21H865.23V255.08H865.316C865.606 254.468 866.149 254.108 867.003 254.108C868.303 254.108 869.028 254.876 869.028 256.251V260H868.093V256.477C868.093 255.435 867.664 254.935 866.74 254.935C865.816 254.935 865.23 255.558 865.23 256.573V260H864.296ZM872.659 260.102C871.343 260.102 870.666 259.329 870.666 257.959V254.21H871.601V257.733C871.601 258.775 871.977 259.275 872.9 259.275C873.921 259.275 874.463 258.652 874.463 257.637V254.21H875.398V260H874.463V259.135H874.377C874.093 259.753 873.507 260.102 872.659 260.102ZM879.201 260.043C878.008 260.043 877.509 259.603 877.509 258.496V254.983H876.596V254.21H877.509V252.711H878.476V254.21H879.743V254.983H878.476V258.26C878.476 258.942 878.712 259.216 879.313 259.216C879.48 259.216 879.571 259.21 879.743 259.194V259.989C879.561 260.021 879.383 260.043 879.201 260.043ZM883.417 260.102C881.763 260.102 880.764 258.942 880.764 257.126V257.121C880.764 255.333 881.784 254.108 883.358 254.108C884.932 254.108 885.888 255.279 885.888 257.008V257.374H881.72C881.747 258.571 882.407 259.27 883.438 259.27C884.223 259.27 884.706 258.899 884.862 258.55L884.883 258.501H885.818L885.807 258.544C885.608 259.329 884.781 260.102 883.417 260.102ZM883.353 254.94C882.493 254.94 881.838 255.526 881.736 256.627H884.937C884.84 255.483 884.207 254.94 883.353 254.94ZM887.338 260V254.21H888.272V255.08H888.358C888.648 254.468 889.191 254.108 890.045 254.108C891.345 254.108 892.07 254.876 892.07 256.251V260H891.135V256.477C891.135 255.435 890.706 254.935 889.782 254.935C888.858 254.935 888.272 255.558 888.272 256.573V260H887.338Z" fill="#141414" fill-opacity="0.45"/>
<defs>
<filter id="filter0_f_4594_45561" x="813" y="223" width="118" height="49" filterUnits="userSpaceOnUse" color-interpolation-filters="sRGB">
<feFlood flood-opacity="0" result="BackgroundImageFix"/>
<feBlend mode="normal" in="SourceGraphic" in2="BackgroundImageFix" result="shape"/>
<feGaussianBlur stdDeviation="2" result="effect1_foregroundBlur_4594_45561"/>
</filter>
</defs>
</svg>
