<svg width="317" height="101" viewBox="0 0 317 101" fill="none" xmlns="http://www.w3.org/2000/svg">
<rect width="100" height="100" transform="translate(0 0.5)" fill="#1FC47A"/>
<path d="M44.4995 18.73H33.8795V82.27H44.4995V18.73Z" fill="white"/>
<path d="M66.1205 37.45H55.5005V82.27H66.1205V37.45ZM66.1205 28.63V18.73H55.4105V28.63H66.1205Z" fill="white"/>
<path d="M125.85 17.96V81.5H150.51C159.6 81.5 164.46 80.78 168.33 78.53C173.28 75.65 176.34 70.25 176.34 63.59C176.34 55.31 171.93 49.28 163.2 47.75C170.49 45.59 174.09 40.37 174.09 33.71C174.09 27.68 171.48 22.82 167.07 20.39C163.92 18.68 159.6 17.96 152.49 17.96H125.85ZM137.28 27.5H150.69C154.65 27.5 157.26 27.77 159.15 28.76C161.76 30.11 162.57 32.63 162.57 35.6C162.57 38.57 161.31 41.09 158.97 42.26C156.99 43.25 154.02 43.7 150.33 43.7H137.28V27.5ZM137.28 53.15H150.69C155.55 53.15 158.43 53.51 160.77 54.95C163.2 56.48 164.37 59.36 164.37 62.69C164.37 65.93 163.2 68.36 161.13 69.71C158.52 71.42 154.56 71.87 149.61 71.87H137.28V53.15Z" fill="black"/>
<path d="M193.7 17.96H183.08V81.5H193.7V17.96Z" fill="black"/>
<path d="M244.191 59.54C244.191 44.33 236.181 35.42 222.861 35.42C209.001 35.42 200.271 44.15 200.271 59C200.271 73.94 208.191 82.76 222.231 82.76C235.371 82.76 244.191 74.48 244.191 59.54ZM233.571 59.27C233.571 69.35 228.891 73.94 222.321 73.94C215.751 73.94 211.071 68.9 211.071 58.73C211.071 49.37 215.931 44.24 222.591 44.24C229.251 44.24 233.571 49.28 233.571 59.27Z" fill="black"/>
<path d="M280.511 79.52C280.511 83.3 280.151 86.36 278.891 88.25C277.361 90.77 274.661 92.03 270.341 92.03C265.481 92.03 262.151 89.51 261.341 84.56L250.271 86.54C252.251 95.81 259.181 100.58 270.071 100.58C275.831 100.58 280.961 99.5 284.471 96.98C289.241 93.65 291.401 87.8 291.401 78.53V36.77H280.961V42.26C278.441 38.21 274.121 35.96 267.911 35.96C256.841 35.96 249.281 44.51 249.281 58.55C249.281 72.68 256.301 81.05 267.281 81.05C273.041 81.05 277.361 79.16 280.511 75.29V79.52ZM280.781 59.45C280.691 68.54 276.731 72.86 270.611 72.86C264.221 72.86 260.171 67.64 260.171 58.46C260.171 49.73 264.311 44.69 270.971 44.69C277.451 44.69 280.781 50.27 280.781 59.45Z" fill="black"/>
</svg>
