<svg width="551" height="101" viewBox="0 0 551 101" fill="none" xmlns="http://www.w3.org/2000/svg">
<rect width="100" height="100" transform="translate(0 0.5)" fill="#1FC47A"/>
<path d="M44.4995 18.73H33.8795V82.27H44.4995V18.73Z" fill="white"/>
<path d="M66.1205 37.45H55.5005V82.27H66.1205V37.45ZM66.1205 28.63V18.73H55.4105V28.63H66.1205Z" fill="white"/>
<path d="M167.25 81.5V71.6H137.28V17.96H125.85V81.5H167.25Z" fill="#141414"/>
<path d="M185.592 36.68H174.972V81.5H185.592V36.68ZM185.592 27.86V17.96H174.882V27.86H185.592Z" fill="#141414"/>
<path d="M219.724 81.5L235.834 36.68H224.674C219.454 51.89 216.484 61.61 213.874 70.79C211.084 61.25 208.024 51.98 202.804 36.68H191.104L207.484 81.5H219.724Z" fill="#141414"/>
<path d="M251.95 36.68H241.33V81.5H251.95V36.68ZM251.95 27.86V17.96H241.24V27.86H251.95Z" fill="#141414"/>
<path d="M298.921 81.5V53.42C298.921 47.39 298.201 43.88 296.401 41.18C294.151 37.76 290.641 35.87 285.241 35.87C278.941 35.87 273.631 38.75 270.391 43.34V36.68H259.951V81.5H270.481V59.9C270.481 55.58 270.841 52.25 273.091 49.28C274.891 46.85 277.861 45.32 280.741 45.32C283.621 45.32 285.601 46.13 286.771 47.84C288.031 49.64 288.391 52.25 288.391 55.76V81.5H298.921Z" fill="#141414"/>
<path d="M337.145 79.52C337.145 83.3 336.785 86.36 335.525 88.25C333.995 90.77 331.295 92.03 326.975 92.03C322.115 92.03 318.785 89.51 317.975 84.56L306.905 86.54C308.885 95.81 315.815 100.58 326.705 100.58C332.465 100.58 337.595 99.5 341.105 96.98C345.875 93.65 348.035 87.8 348.035 78.53V36.77H337.595V42.26C335.075 38.21 330.755 35.96 324.545 35.96C313.475 35.96 305.915 44.51 305.915 58.55C305.915 72.68 312.935 81.05 323.915 81.05C329.675 81.05 333.995 79.16 337.145 75.29V79.52ZM337.415 59.45C337.325 68.54 333.365 72.86 327.245 72.86C320.855 72.86 316.805 67.64 316.805 58.46C316.805 49.73 320.945 44.69 327.605 44.69C334.085 44.69 337.415 50.27 337.415 59.45Z" fill="#141414"/>
<path d="M396.298 81.5V17.96H386.038V41.63C383.608 38.21 379.918 35.78 373.258 35.78C362.908 35.78 354.628 44.24 354.628 58.91C354.628 74.48 362.278 82.4 372.628 82.4C378.928 82.4 383.158 79.43 386.038 75.2V81.5H396.298ZM386.038 59.18C386.038 68.72 381.628 73.58 375.418 73.58C369.208 73.58 365.428 67.82 365.428 58.82C365.428 49.28 369.658 44.51 375.868 44.51C382.168 44.51 386.038 50.18 386.038 59.18Z" fill="#141414"/>
<path d="M446.734 59.54C446.734 44.33 438.724 35.42 425.404 35.42C411.544 35.42 402.814 44.15 402.814 59C402.814 73.94 410.734 82.76 424.774 82.76C437.914 82.76 446.734 74.48 446.734 59.54ZM436.114 59.27C436.114 69.35 431.434 73.94 424.864 73.94C418.294 73.94 413.614 68.9 413.614 58.73C413.614 49.37 418.474 44.24 425.134 44.24C431.794 44.24 436.114 49.28 436.114 59.27Z" fill="#141414"/>
<path d="M492.604 48.92C490.534 40.91 484.414 35.42 474.694 35.42C461.284 35.42 452.824 44.33 452.824 59C452.824 73.76 461.104 82.76 474.154 82.76C484.324 82.76 490.264 77.36 492.874 69.89L483.424 66.65C482.344 71.42 479.464 73.94 474.694 73.94C467.764 73.94 463.624 68.72 463.624 58.82C463.624 48.83 468.304 44.24 474.424 44.24C478.654 44.24 481.894 46.22 483.154 52.16L492.604 48.92Z" fill="#141414"/>
<path d="M495.323 72.68C499.103 78.35 505.313 82.76 514.493 82.76C525.653 82.76 532.583 76.73 532.583 68.45C532.583 61.25 528.083 57.56 520.163 55.04L515.393 53.6C509.633 51.8 508.193 50.54 508.193 47.84C508.193 45.23 510.353 43.43 514.853 43.43C519.173 43.43 522.593 45.77 524.843 49.73L532.673 44.42C528.713 38.12 522.143 35.42 515.033 35.42C503.963 35.42 497.663 41.9 497.663 48.92C497.663 55.76 502.073 59.81 509.003 61.97L513.773 63.5C520.523 65.66 522.053 66.92 522.053 69.89C522.053 72.59 519.533 74.57 514.943 74.57C509.993 74.57 505.853 71.87 503.513 67.28L495.323 72.68Z" fill="#141414"/>
</svg>
