<?xml version="1.0" encoding="utf-8"?>
<!-- Generator: Adobe Illustrator 24.2.1, SVG Export Plug-In . SVG Version: 6.00 Build 0)  -->
<svg version="1.1" id="labels_en" xmlns="http://www.w3.org/2000/svg" xmlns:xlink="http://www.w3.org/1999/xlink" x="0px" y="0px"
	 viewBox="0 0 551 899" style="enable-background:new 0 0 551 899;" xml:space="preserve">
<style type="text/css">
	.st0{enable-background:new    ;}
	.st1{fill:#3A2F3C;}
	.st2{fill:#647CC1;}
</style>
<g class="st0">
	<path class="st1" d="M159.8,209.5c1.3-0.1,2.1-0.7,2.2-1.5h1.6v10.4h-1.8v-7.8c-0.5,0.3-1.1,0.5-2,0.6V209.5z"/>
	<path class="st1" d="M171.8,218.4v-2.2h-4.6v-1.5l4.3-6.7h2v6.6h1.6v1.5h-1.6v2.2H171.8z M171.8,214.7c0-1.6,0-3,0-4.8
		c-0.4,0.8-0.8,1.5-2.9,4.8H171.8z"/>
	<path class="st1" d="M179.8,218.6c-2.5,0-3.9-2-3.9-5.4c0-3.4,1.4-5.4,3.9-5.4c2.4,0,3.8,2,3.8,5.4
		C183.6,216.7,182.3,218.6,179.8,218.6z M179.8,209.4c-1.3,0-2.1,1.3-2.1,3.8c0,2.6,0.7,3.8,2.1,3.8c1.3,0,2.1-1.1,2.1-3.6
		C181.9,210.7,181.1,209.4,179.8,209.4z"/>
	<path class="st1" d="M188.5,218.4v-10.6h7.4v1.6h-5.4v2.7h5v1.6h-5v3h5.7v1.7H188.5z"/>
	<path class="st1" d="M202,218.4v-1c-0.5,0.7-1.2,1.2-2.2,1.2c-1.7,0-3-1.3-3-3.9c0-2.4,1.4-3.9,3.1-3.9c1.1,0,1.7,0.4,2.1,1v-3.9
		h1.7v10.6H202z M200.3,212.2c-1,0-1.7,0.8-1.7,2.4c0,1.5,0.6,2.5,1.7,2.5c1,0,1.8-0.8,1.8-2.4C202,213.1,201.4,212.2,200.3,212.2z"
		/>
	<path class="st1" d="M205.6,209.4v-1.7h1.8v1.7H205.6z M207.3,218.4h-1.8v-7.5h1.8V218.4z"/>
	<path class="st1" d="M212.8,218.3c-0.4,0.1-0.9,0.2-1.3,0.2c-0.7,0-1.2-0.2-1.5-0.5c-0.3-0.4-0.4-0.9-0.4-1.6v-4.1h-1.2v-1.4h1.2
		v-2.4h1.7v2.4h1.5v1.4h-1.5v3.7c0,0.8,0.2,1,0.8,1c0.2,0,0.5,0,0.7-0.1V218.3z"/>
	<path class="st1" d="M217.1,218.6c-2.3,0-3.7-1.5-3.7-4c0-2.5,1.5-3.9,3.8-3.9c2.2,0,3.6,1.5,3.6,4
		C220.8,217.2,219.3,218.6,217.1,218.6z M217.2,212.1c-1.1,0-1.9,0.9-1.9,2.4c0,1.7,0.8,2.5,1.9,2.5c1.1,0,1.9-0.8,1.9-2.4
		C219,213,218.3,212.1,217.2,212.1z"/>
	<path class="st1" d="M222.2,218.4v-7.5h1.7v1.2c0.5-0.8,1-1.2,2.1-1.2c0.2,0,0.4,0,0.6,0.1v1.8c-0.3-0.1-0.5-0.2-0.8-0.2
		c-0.6,0-1.1,0.3-1.4,0.7c-0.3,0.4-0.4,0.9-0.4,1.7v3.5H222.2z"/>
	<path class="st1" d="M228.3,216c0.4,0.8,1.1,1.2,1.9,1.2c0.8,0,1.2-0.3,1.2-0.8c0-0.5-0.3-0.7-1.4-1.1l-0.8-0.3
		c-1.2-0.4-1.9-1-1.9-2.2c0-1.2,1.1-2.2,2.9-2.2c1.2,0,2.3,0.5,2.9,1.5l-1.3,0.9c-0.4-0.7-0.9-1-1.7-1c-0.8,0-1.1,0.3-1.1,0.7
		c0,0.4,0.2,0.7,1.2,1l0.8,0.2c1.3,0.4,2.1,1,2.1,2.2c0,1.4-1.2,2.4-3,2.4c-1.5,0-2.6-0.7-3.2-1.7L228.3,216z"/>
	<path class="st1" d="M242.1,213.3c0-0.4-0.1-0.7-0.3-0.9c-0.2-0.2-0.6-0.3-1-0.3c-0.9,0-1.3,0.5-1.4,1.3l-1.7-0.1
		c0.1-1.6,1.3-2.5,3.2-2.5c1,0,1.7,0.2,2.2,0.7c0.5,0.4,0.6,1,0.6,2.2v2.7c0,0.9,0.1,1.6,0.2,2h-1.7c-0.1-0.2-0.2-0.7-0.2-0.9
		c-0.6,0.7-1.4,1.1-2.4,1.1c-1.4,0-2.3-0.9-2.3-2.2c0-1,0.5-1.6,1.4-2c0.7-0.3,2.2-0.5,3.4-0.6V213.3z M242.1,214.9
		c-0.9,0-1.9,0.2-2.4,0.5c-0.5,0.2-0.6,0.5-0.6,0.9c0,0.5,0.4,0.9,1.1,0.9c0.7,0,1.2-0.3,1.6-0.8c0.2-0.3,0.3-0.8,0.3-1.2V214.9z"/>
	<path class="st1" d="M250.2,218.4v-4.3c0-0.6-0.1-1-0.3-1.3c-0.2-0.3-0.5-0.4-1-0.4s-1,0.3-1.3,0.7c-0.4,0.5-0.4,1-0.4,1.8v3.6
		h-1.8v-7.5h1.7v1.1c0.5-0.8,1.4-1.2,2.5-1.2c0.9,0,1.5,0.3,1.9,0.9c0.3,0.5,0.4,1,0.4,2v4.7H250.2z"/>
	<path class="st1" d="M258.6,218.4v-1c-0.5,0.7-1.2,1.2-2.2,1.2c-1.7,0-3-1.3-3-3.9c0-2.4,1.4-3.9,3.1-3.9c1.1,0,1.7,0.4,2.1,1v-3.9
		h1.7v10.6H258.6z M256.9,212.2c-1,0-1.7,0.8-1.7,2.4c0,1.5,0.6,2.5,1.7,2.5c1,0,1.8-0.8,1.8-2.4
		C258.6,213.1,257.9,212.2,256.9,212.2z"/>
</g>
<g class="st0">
	<path class="st1" d="M164.4,228.7c-0.3-0.9-0.8-1.3-1.5-1.3c-1.5,0-2.3,1.1-2.3,3.4c0.5-0.9,1.5-1.4,2.7-1.4c1.8,0,3,1.5,3,3.6
		c0,2.2-1.5,3.6-3.6,3.6c-2.4,0-3.9-1.8-3.9-5.2c0-3.6,1.5-5.6,4.2-5.6c1.6,0,2.6,0.8,3,2.1L164.4,228.7z M162.6,235
		c1.1,0,1.8-0.8,1.8-2c0-1.4-0.7-2.1-1.8-2.1c-1.1,0-1.9,0.8-1.9,1.9C160.7,234,161.4,235,162.6,235z"/>
	<path class="st1" d="M171.1,236.6c-2.5,0-3.9-2-3.9-5.4c0-3.4,1.4-5.4,3.9-5.4c2.4,0,3.8,2,3.8,5.4
		C175,234.7,173.6,236.6,171.1,236.6z M171.2,227.4c-1.3,0-2.1,1.3-2.1,3.8c0,2.6,0.7,3.8,2.1,3.8c1.3,0,2.1-1.1,2.1-3.6
		C173.2,228.7,172.4,227.4,171.2,227.4z"/>
	<path class="st1" d="M179.8,236.6c-2.5,0-3.9-2-3.9-5.4c0-3.4,1.4-5.4,3.9-5.4c2.4,0,3.8,2,3.8,5.4
		C183.6,234.7,182.3,236.6,179.8,236.6z M179.8,227.4c-1.3,0-2.1,1.3-2.1,3.8c0,2.6,0.7,3.8,2.1,3.8c1.3,0,2.1-1.1,2.1-3.6
		C181.9,228.7,181.1,227.4,179.8,227.4z"/>
	<path class="st1" d="M188.9,235.9v-3.3h-3.3v-1.7h3.3v-3.4h1.8v3.4h3.3v1.7h-3.3v3.3H188.9z"/>
	<path class="st1" d="M199.8,236.4v-10.6h7.3v1.6h-5.4v2.8h4.9v1.6h-4.9v4.5H199.8z"/>
	<path class="st1" d="M207.9,236.4v-7.5h1.7v1.2c0.5-0.8,1-1.2,2.1-1.2c0.2,0,0.4,0,0.6,0.1v1.8c-0.3-0.1-0.5-0.2-0.8-0.2
		c-0.6,0-1.1,0.3-1.4,0.7c-0.3,0.4-0.4,0.9-0.4,1.7v3.5H207.9z"/>
	<path class="st1" d="M219.8,234.5c-0.6,1.3-1.7,2.1-3.3,2.1c-2.4,0-3.7-1.6-3.7-4c0-2.4,1.4-3.9,3.6-3.9c2.4,0,3.4,1.7,3.4,4.4
		h-5.2c0.1,1.3,0.8,2,2,2c0.8,0,1.4-0.3,1.7-1.2L219.8,234.5z M218,231.8c-0.1-1.2-0.7-1.8-1.6-1.8s-1.7,0.6-1.8,1.8H218z"/>
	<path class="st1" d="M227.7,234.5c-0.6,1.3-1.7,2.1-3.3,2.1c-2.4,0-3.7-1.6-3.7-4c0-2.4,1.4-3.9,3.6-3.9c2.4,0,3.4,1.7,3.4,4.4
		h-5.2c0.1,1.3,0.8,2,2,2c0.8,0,1.4-0.3,1.7-1.2L227.7,234.5z M226,231.8c-0.1-1.2-0.7-1.8-1.6-1.8s-1.7,0.6-1.8,1.8H226z"/>
	<path class="st1" d="M230.9,236.4h-1.8v-10.6h1.8V236.4z"/>
	<path class="st1" d="M237,231.3c0-0.4-0.1-0.7-0.3-0.9c-0.2-0.2-0.6-0.3-1-0.3c-0.9,0-1.3,0.5-1.4,1.3l-1.7-0.1
		c0.1-1.6,1.3-2.5,3.2-2.5c1,0,1.7,0.2,2.2,0.7c0.5,0.4,0.6,1,0.6,2.2v2.7c0,0.9,0.1,1.6,0.2,2h-1.7c-0.1-0.2-0.2-0.7-0.2-0.9
		c-0.6,0.7-1.4,1.1-2.4,1.1c-1.4,0-2.3-0.9-2.3-2.2c0-1,0.5-1.6,1.4-2c0.7-0.3,2.2-0.5,3.4-0.6V231.3z M237,232.9
		c-0.9,0-1.9,0.2-2.4,0.5c-0.5,0.2-0.6,0.5-0.6,0.9c0,0.5,0.4,0.9,1.1,0.9c0.7,0,1.2-0.3,1.6-0.8c0.2-0.3,0.3-0.8,0.3-1.2V232.9z"/>
	<path class="st1" d="M245.2,236.4v-4.3c0-0.6-0.1-1-0.3-1.3c-0.2-0.3-0.5-0.4-1-0.4s-1,0.3-1.3,0.7c-0.4,0.5-0.4,1-0.4,1.8v3.6
		h-1.8v-7.5h1.7v1.1c0.5-0.8,1.4-1.2,2.5-1.2c0.9,0,1.5,0.3,1.9,0.9c0.3,0.5,0.4,1,0.4,2v4.7H245.2z"/>
	<path class="st1" d="M253.3,231.5c-0.2-1-0.8-1.3-1.5-1.3c-1,0-1.8,0.8-1.8,2.4c0,1.7,0.7,2.5,1.8,2.5c0.8,0,1.3-0.4,1.5-1.2
		l1.6,0.5c-0.4,1.2-1.4,2.1-3.1,2.1c-2.2,0-3.6-1.5-3.6-4c0-2.4,1.4-3.9,3.6-3.9c1.6,0,2.6,0.9,3,2.2L253.3,231.5z"/>
	<path class="st1" d="M262.6,234.5c-0.6,1.3-1.7,2.1-3.3,2.1c-2.4,0-3.7-1.6-3.7-4c0-2.4,1.4-3.9,3.6-3.9c2.4,0,3.4,1.7,3.4,4.4
		h-5.2c0.1,1.3,0.8,2,2,2c0.8,0,1.4-0.3,1.7-1.2L262.6,234.5z M260.8,231.8c-0.1-1.2-0.7-1.8-1.6-1.8s-1.7,0.6-1.8,1.8H260.8z"/>
	<path class="st1" d="M264,236.4v-7.5h1.7v1.2c0.5-0.8,1-1.2,2.1-1.2c0.2,0,0.4,0,0.6,0.1v1.8c-0.3-0.1-0.5-0.2-0.8-0.2
		c-0.6,0-1.1,0.3-1.4,0.7c-0.3,0.4-0.4,0.9-0.4,1.7v3.5H264z"/>
	<path class="st1" d="M270,234c0.4,0.8,1.1,1.2,1.9,1.2c0.8,0,1.2-0.3,1.2-0.8c0-0.5-0.3-0.7-1.4-1.1l-0.8-0.3
		c-1.2-0.4-1.9-1-1.9-2.2c0-1.2,1.1-2.2,2.9-2.2c1.2,0,2.3,0.5,2.9,1.5l-1.3,0.9c-0.4-0.7-0.9-1-1.7-1c-0.8,0-1.1,0.3-1.1,0.7
		c0,0.4,0.2,0.7,1.2,1l0.8,0.2c1.3,0.4,2.1,1,2.1,2.2c0,1.4-1.2,2.4-3,2.4c-1.5,0-2.6-0.7-3.2-1.7L270,234z"/>
</g>
<g class="st0">
	<path class="st1" d="M412.7,612.9v1.1c0.6-0.8,1.4-1.2,2.4-1.2c1.1,0,1.7,0.5,2,1.3c0.6-0.8,1.5-1.3,2.6-1.3c0.9,0,1.7,0.4,2,1.2
		c0.2,0.5,0.2,1,0.2,2v4.3h-1.8v-4c0-0.8-0.1-1.2-0.2-1.5c-0.2-0.3-0.5-0.5-0.9-0.5s-0.9,0.2-1.2,0.6c-0.4,0.5-0.5,1-0.5,1.9v3.6
		h-1.8v-4.1c0-0.8,0-1.1-0.2-1.4c-0.2-0.4-0.5-0.5-1-0.5c-0.5,0-1,0.3-1.3,0.7s-0.4,0.9-0.4,1.8v3.6H411v-7.5H412.7z"/>
	<path class="st1" d="M427.9,615.3c0-0.4-0.1-0.7-0.3-0.9c-0.2-0.2-0.6-0.3-1-0.3c-0.9,0-1.3,0.5-1.4,1.3l-1.7-0.1
		c0.1-1.6,1.3-2.5,3.2-2.5c1,0,1.7,0.2,2.2,0.7c0.5,0.4,0.6,1,0.6,2.2v2.7c0,0.9,0.1,1.6,0.2,2h-1.7c-0.1-0.2-0.2-0.7-0.2-0.9
		c-0.6,0.7-1.4,1.1-2.4,1.1c-1.4,0-2.3-0.9-2.3-2.2c0-1,0.5-1.6,1.4-2c0.7-0.3,2.2-0.5,3.4-0.6V615.3z M427.9,616.9
		c-0.9,0-1.9,0.2-2.4,0.5c-0.5,0.2-0.6,0.5-0.6,0.9c0,0.5,0.4,0.9,1.1,0.9c0.7,0,1.2-0.3,1.6-0.8c0.2-0.3,0.3-0.8,0.3-1.2V616.9z"/>
	<path class="st1" d="M431.4,611.4v-1.7h1.8v1.7H431.4z M433.1,620.4h-1.8v-7.5h1.8V620.4z"/>
	<path class="st1" d="M439.7,620.4v-4.3c0-0.6-0.1-1-0.3-1.3c-0.2-0.3-0.5-0.4-1-0.4c-0.5,0-1,0.3-1.3,0.7c-0.4,0.5-0.4,1-0.4,1.8
		v3.6H435v-7.5h1.7v1.1c0.5-0.8,1.4-1.2,2.5-1.2c0.9,0,1.5,0.3,1.9,0.9c0.3,0.5,0.4,1,0.4,2v4.7H439.7z"/>
	<path class="st1" d="M444.9,612.9v1.1c0.5-0.7,1.2-1.2,2.3-1.2c1.7,0,3,1.3,3,3.9c0,2.4-1.4,3.9-3.1,3.9c-1.1,0-1.7-0.4-2.1-1v3.8
		h-1.7v-10.4H444.9z M446.6,619c1,0,1.7-0.8,1.7-2.4c0-1.5-0.6-2.5-1.6-2.5s-1.8,0.8-1.8,2.4C444.9,618.1,445.6,619,446.6,619z"/>
	<path class="st1" d="M454.8,620.6c-2.3,0-3.7-1.5-3.7-4c0-2.5,1.5-3.9,3.8-3.9c2.2,0,3.6,1.5,3.6,4
		C458.5,619.2,457,620.6,454.8,620.6z M454.9,614.1c-1.1,0-1.9,0.9-1.9,2.4c0,1.7,0.8,2.5,1.9,2.5c1.1,0,1.9-0.8,1.9-2.4
		C456.7,615,456,614.1,454.9,614.1z"/>
	<path class="st1" d="M460.6,618c0.4,0.8,1.1,1.2,1.9,1.2c0.8,0,1.2-0.3,1.2-0.8c0-0.5-0.3-0.7-1.4-1.1l-0.8-0.3
		c-1.2-0.4-1.9-1-1.9-2.2c0-1.2,1.1-2.2,2.9-2.2c1.2,0,2.3,0.5,2.9,1.5l-1.3,0.9c-0.4-0.7-0.9-1-1.7-1c-0.8,0-1.1,0.3-1.1,0.7
		c0,0.4,0.2,0.7,1.2,1l0.8,0.2c1.3,0.4,2.1,1,2.1,2.2c0,1.4-1.2,2.4-3,2.4c-1.5,0-2.6-0.7-3.2-1.7L460.6,618z"/>
	<path class="st1" d="M470.4,620.3c-0.4,0.1-0.9,0.2-1.3,0.2c-0.7,0-1.2-0.2-1.5-0.5c-0.3-0.4-0.4-0.9-0.4-1.6v-4.1H466v-1.4h1.2
		v-2.4h1.7v2.4h1.5v1.4h-1.5v3.7c0,0.8,0.2,1,0.8,1c0.2,0,0.5,0,0.7-0.1V620.3z"/>
	<path class="st1" d="M473.1,620.4h-1.8v-2.2h1.8V620.4z"/>
	<path class="st1" d="M479.7,620.4v-1c-0.5,0.7-1.2,1.2-2.2,1.2c-1.7,0-3-1.3-3-3.9c0-2.4,1.4-3.9,3.1-3.9c1.1,0,1.7,0.4,2.1,1v-3.9
		h1.7v10.6H479.7z M478,614.2c-1,0-1.7,0.8-1.7,2.4c0,1.5,0.6,2.5,1.7,2.5s1.8-0.8,1.8-2.4C479.7,615.1,479,614.2,478,614.2z"/>
	<path class="st1" d="M489.7,618.5c-0.6,1.3-1.7,2.1-3.3,2.1c-2.4,0-3.7-1.6-3.7-4c0-2.4,1.4-3.9,3.6-3.9c2.4,0,3.4,1.7,3.4,4.4
		h-5.2c0.1,1.3,0.8,2,2,2c0.8,0,1.4-0.3,1.7-1.2L489.7,618.5z M488,615.8c-0.1-1.2-0.7-1.8-1.6-1.8s-1.7,0.6-1.8,1.8H488z"/>
</g>
<g class="st0">
	<path class="st2" d="M53.1,69.4V58.8h4.4c1.5,0,2.3,0.2,2.9,0.6c0.8,0.6,1.2,1.5,1.2,2.6c0,1.2-0.4,2.2-1.3,2.8
		c-0.8,0.4-1.9,0.6-3.1,0.6H55v4H53.1z M56.9,63.7c1,0,1.7-0.1,2.1-0.4c0.4-0.3,0.5-0.7,0.5-1.3c0-0.5-0.2-1-0.5-1.3
		c-0.4-0.3-0.9-0.4-2-0.4h-2v3.4H56.9z"/>
	<path class="st2" d="M64.2,69.4h-1.8V58.8h1.8V69.4z"/>
	<path class="st2" d="M70.3,64.3c0-0.4-0.1-0.7-0.3-0.9c-0.2-0.2-0.6-0.3-1-0.3c-0.9,0-1.3,0.5-1.4,1.3l-1.7-0.1
		c0.1-1.6,1.3-2.5,3.2-2.5c1,0,1.7,0.2,2.2,0.7c0.5,0.4,0.6,1,0.6,2.2v2.7c0,0.9,0.1,1.6,0.2,2h-1.7c-0.1-0.2-0.2-0.7-0.2-0.9
		c-0.6,0.7-1.4,1.1-2.4,1.1c-1.4,0-2.3-0.9-2.3-2.2c0-1,0.5-1.6,1.4-2c0.7-0.3,2.2-0.5,3.4-0.6V64.3z M70.3,65.9
		c-0.9,0-1.9,0.2-2.4,0.5c-0.5,0.2-0.6,0.5-0.6,0.9c0,0.5,0.4,0.9,1.1,0.9c0.7,0,1.2-0.3,1.6-0.8c0.2-0.3,0.3-0.8,0.3-1.2V65.9z"/>
	<path class="st2" d="M78.5,69.4v-4.3c0-0.6-0.1-1-0.3-1.3c-0.2-0.3-0.5-0.4-1-0.4s-1,0.3-1.3,0.7c-0.4,0.5-0.4,1-0.4,1.8v3.6h-1.8
		v-7.5h1.7V63c0.5-0.8,1.4-1.2,2.5-1.2c0.9,0,1.5,0.3,1.9,0.9c0.3,0.5,0.4,1,0.4,2v4.7H78.5z"/>
	<path class="st2" d="M86.7,69.4v-4.3c0-0.6-0.1-1-0.3-1.3c-0.2-0.3-0.5-0.4-1-0.4s-1,0.3-1.3,0.7c-0.4,0.5-0.4,1-0.4,1.8v3.6H82
		v-7.5h1.7V63c0.5-0.8,1.4-1.2,2.5-1.2c0.9,0,1.5,0.3,1.9,0.9c0.3,0.5,0.4,1,0.4,2v4.7H86.7z"/>
	<path class="st2" d="M90.2,60.4v-1.7H92v1.7H90.2z M92,69.4h-1.8v-7.5H92V69.4z"/>
	<path class="st2" d="M98.6,69.4v-4.3c0-0.6-0.1-1-0.3-1.3c-0.2-0.3-0.5-0.4-1-0.4s-1,0.3-1.3,0.7c-0.4,0.5-0.4,1-0.4,1.8v3.6h-1.8
		v-7.5h1.7V63c0.5-0.8,1.4-1.2,2.5-1.2c0.9,0,1.5,0.3,1.9,0.9c0.3,0.5,0.4,1,0.4,2v4.7H98.6z"/>
	<path class="st2" d="M106.9,68.3c-0.5,0.6-1.2,1-2.2,1c-1.8,0-3-1.4-3-3.8c0-2.3,1.3-3.8,3.1-3.8c1,0,1.8,0.4,2.2,1v-0.9h1.7v7
		c0,1.5-0.4,2.5-1.2,3.1c-0.6,0.4-1.4,0.6-2.4,0.6c-1.8,0-3-0.8-3.3-2.3l1.8-0.3c0.1,0.8,0.7,1.2,1.5,1.2c0.7,0,1.2-0.2,1.4-0.6
		c0.2-0.3,0.3-0.8,0.3-1.5V68.3z M105.3,63.2c-1.1,0-1.8,0.8-1.8,2.3c0,1.5,0.7,2.4,1.7,2.4c1,0,1.7-0.7,1.7-2.2
		C106.9,64.2,106.4,63.2,105.3,63.2z"/>
</g>
<g class="st0">
	<path class="st2" d="M59.9,263.1c-0.3-1.2-1-1.9-2.2-1.9c-1.9,0-3,1.4-3,3.7c0,2.4,1.1,4,3,4c1.2,0,2.1-0.7,2.4-2l1.8,0.7
		c-0.7,2-2.2,3-4.3,3c-3,0-4.9-2.1-4.9-5.6c0-3.5,2-5.5,5-5.5c2.1,0,3.5,1.1,4,2.9L59.9,263.1z"/>
	<path class="st2" d="M66.3,270.6c-2.3,0-3.7-1.5-3.7-4c0-2.5,1.5-3.9,3.8-3.9c2.2,0,3.6,1.5,3.6,4C70,269.2,68.5,270.6,66.3,270.6z
		 M66.4,264.1c-1.1,0-1.9,0.9-1.9,2.4c0,1.7,0.8,2.5,1.9,2.5c1.1,0,1.9-0.8,1.9-2.4C68.2,265,67.5,264.1,66.4,264.1z"/>
	<path class="st2" d="M76.2,270.4v-4.3c0-0.6-0.1-1-0.3-1.3c-0.2-0.3-0.5-0.4-1-0.4s-1,0.3-1.3,0.7c-0.4,0.5-0.4,1-0.4,1.8v3.6h-1.8
		v-7.5h1.7v1.1c0.5-0.8,1.4-1.2,2.5-1.2c0.9,0,1.5,0.3,1.9,0.9c0.3,0.5,0.4,1,0.4,2v4.7H76.2z"/>
	<path class="st2" d="M83.3,270.3c-0.4,0.1-0.9,0.2-1.3,0.2c-0.7,0-1.2-0.2-1.5-0.5c-0.3-0.4-0.4-0.9-0.4-1.6v-4.1h-1.2v-1.4h1.2
		v-2.4h1.7v2.4h1.5v1.4h-1.5v3.7c0,0.8,0.2,1,0.8,1c0.2,0,0.5,0,0.7-0.1V270.3z"/>
	<path class="st2" d="M90.9,268.5c-0.6,1.3-1.7,2.1-3.3,2.1c-2.4,0-3.7-1.6-3.7-4c0-2.4,1.4-3.9,3.6-3.9c2.4,0,3.4,1.7,3.4,4.4h-5.2
		c0.1,1.3,0.8,2,2,2c0.8,0,1.4-0.3,1.7-1.2L90.9,268.5z M89.2,265.8c-0.1-1.2-0.7-1.8-1.6-1.8s-1.7,0.6-1.8,1.8H89.2z"/>
	<path class="st2" d="M97.1,270.4v-4.3c0-0.6-0.1-1-0.3-1.3c-0.2-0.3-0.5-0.4-1-0.4s-1,0.3-1.3,0.7c-0.4,0.5-0.4,1-0.4,1.8v3.6h-1.8
		v-7.5h1.7v1.1c0.5-0.8,1.4-1.2,2.5-1.2c0.9,0,1.5,0.3,1.9,0.9c0.3,0.5,0.4,1,0.4,2v4.7H97.1z"/>
	<path class="st2" d="M104.2,270.3c-0.4,0.1-0.9,0.2-1.3,0.2c-0.7,0-1.2-0.2-1.5-0.5c-0.3-0.4-0.4-0.9-0.4-1.6v-4.1h-1.2v-1.4h1.2
		v-2.4h1.7v2.4h1.5v1.4h-1.5v3.7c0,0.8,0.2,1,0.8,1c0.2,0,0.5,0,0.7-0.1V270.3z"/>
</g>
<g class="st0">
	<path class="st2" d="M59.9,281.1c-0.3-1.2-1-1.9-2.2-1.9c-1.9,0-3,1.4-3,3.7c0,2.4,1.1,4,3,4c1.2,0,2.1-0.7,2.4-2l1.8,0.7
		c-0.7,2-2.2,3-4.3,3c-3,0-4.9-2.1-4.9-5.6c0-3.5,2-5.5,5-5.5c2.1,0,3.5,1.1,4,2.9L59.9,281.1z"/>
	<path class="st2" d="M63.1,288.4v-7.5h1.7v1.2c0.5-0.8,1-1.2,2.1-1.2c0.2,0,0.4,0,0.6,0.1v1.8c-0.3-0.1-0.5-0.2-0.8-0.2
		c-0.6,0-1.1,0.3-1.4,0.7c-0.3,0.4-0.4,0.9-0.4,1.7v3.5H63.1z"/>
	<path class="st2" d="M75,286.5c-0.6,1.3-1.7,2.1-3.3,2.1c-2.4,0-3.7-1.6-3.7-4c0-2.4,1.4-3.9,3.6-3.9c2.4,0,3.4,1.7,3.4,4.4h-5.2
		c0.1,1.3,0.8,2,2,2c0.8,0,1.4-0.3,1.7-1.2L75,286.5z M73.3,283.8c-0.1-1.2-0.7-1.8-1.6-1.8s-1.7,0.6-1.8,1.8H73.3z"/>
	<path class="st2" d="M80.7,283.3c0-0.4-0.1-0.7-0.3-0.9c-0.2-0.2-0.6-0.3-1-0.3c-0.9,0-1.3,0.5-1.4,1.3l-1.7-0.1
		c0.1-1.6,1.3-2.5,3.2-2.5c1,0,1.7,0.2,2.2,0.7c0.5,0.4,0.6,1,0.6,2.2v2.7c0,0.9,0.1,1.6,0.2,2h-1.7c-0.1-0.2-0.2-0.7-0.2-0.9
		c-0.6,0.7-1.4,1.1-2.4,1.1c-1.4,0-2.3-0.9-2.3-2.2c0-1,0.5-1.6,1.4-2c0.7-0.3,2.2-0.5,3.4-0.6V283.3z M80.7,284.9
		c-0.9,0-1.9,0.2-2.4,0.5c-0.5,0.2-0.6,0.5-0.6,0.9c0,0.5,0.4,0.9,1.1,0.9c0.7,0,1.2-0.3,1.6-0.8c0.2-0.3,0.3-0.8,0.3-1.2V284.9z"/>
	<path class="st2" d="M87.8,288.3c-0.4,0.1-0.9,0.2-1.3,0.2c-0.7,0-1.2-0.2-1.5-0.5c-0.3-0.4-0.4-0.9-0.4-1.6v-4.1h-1.2v-1.4h1.2
		v-2.4h1.7v2.4h1.5v1.4h-1.5v3.7c0,0.8,0.2,1,0.8,1c0.2,0,0.5,0,0.7-0.1V288.3z"/>
	<path class="st2" d="M88.8,279.4v-1.7h1.8v1.7H88.8z M90.6,288.4h-1.8v-7.5h1.8V288.4z"/>
	<path class="st2" d="M95.7,288.6c-2.3,0-3.7-1.5-3.7-4c0-2.5,1.5-3.9,3.8-3.9c2.2,0,3.6,1.5,3.6,4
		C99.3,287.2,97.9,288.6,95.7,288.6z M95.7,282.1c-1.1,0-1.9,0.9-1.9,2.4c0,1.7,0.8,2.5,1.9,2.5c1.1,0,1.9-0.8,1.9-2.4
		C97.6,283,96.8,282.1,95.7,282.1z"/>
	<path class="st2" d="M105.5,288.4v-4.3c0-0.6-0.1-1-0.3-1.3c-0.2-0.3-0.5-0.4-1-0.4s-1,0.3-1.3,0.7c-0.4,0.5-0.4,1-0.4,1.8v3.6
		h-1.8v-7.5h1.7v1.1c0.5-0.8,1.4-1.2,2.5-1.2c0.9,0,1.5,0.3,1.9,0.9c0.3,0.5,0.4,1,0.4,2v4.7H105.5z"/>
</g>
<g class="st0">
	<path class="st2" d="M53.1,472.4v-10.6h4.4c1.5,0,2.3,0.2,2.9,0.6c0.8,0.6,1.2,1.5,1.2,2.6c0,1.2-0.4,2.2-1.3,2.8
		c-0.8,0.4-1.9,0.6-3.1,0.6H55v4H53.1z M56.9,466.7c1,0,1.7-0.1,2.1-0.4c0.4-0.3,0.5-0.7,0.5-1.3c0-0.5-0.2-1-0.5-1.3
		c-0.4-0.3-0.9-0.4-2-0.4h-2v3.4H56.9z"/>
	<path class="st2" d="M64,464.9v4.3c0,0.5,0.1,0.9,0.2,1.2c0.2,0.4,0.6,0.6,1.1,0.6c0.5,0,0.9-0.3,1.2-0.6c0.3-0.4,0.5-0.9,0.5-1.6
		v-3.9h1.8v7.5H67v-1.1c-0.5,0.7-1.3,1.2-2.3,1.2c-1,0-1.5-0.3-2-0.9c-0.3-0.5-0.5-1.1-0.5-2v-4.7H64z"/>
	<path class="st2" d="M72.3,461.8v4.1c0.5-0.6,1.3-1.2,2.3-1.2c1.8,0,2.9,1.5,2.9,3.9c0,2.4-1.2,3.9-3.1,3.9c-1,0-1.7-0.4-2.2-1.1v1
		h-1.7v-10.6H72.3z M74,471c1,0,1.7-0.8,1.7-2.4c0-1.5-0.6-2.4-1.6-2.4c-1.1,0-1.8,0.9-1.8,2.3C72.2,470.1,72.9,471,74,471z"/>
	<path class="st2" d="M80.7,472.4h-1.8v-10.6h1.8V472.4z"/>
	<path class="st2" d="M82.5,463.4v-1.7h1.8v1.7H82.5z M84.3,472.4h-1.8v-7.5h1.8V472.4z"/>
	<path class="st2" d="M86.8,470c0.4,0.8,1.1,1.2,1.9,1.2c0.8,0,1.2-0.3,1.2-0.8c0-0.5-0.3-0.7-1.4-1.1l-0.8-0.3
		c-1.2-0.4-1.9-1-1.9-2.2c0-1.2,1.1-2.2,2.9-2.2c1.2,0,2.3,0.5,2.9,1.5l-1.3,0.9c-0.4-0.7-0.9-1-1.7-1c-0.8,0-1.1,0.3-1.1,0.7
		c0,0.4,0.2,0.7,1.2,1l0.8,0.2c1.3,0.4,2.1,1,2.1,2.2c0,1.4-1.2,2.4-3,2.4c-1.5,0-2.6-0.7-3.2-1.7L86.8,470z"/>
	<path class="st2" d="M97.7,472.4v-4.3c0-0.6-0.1-1.1-0.3-1.4c-0.2-0.3-0.5-0.4-1-0.4c-0.5,0-1,0.3-1.3,0.7c-0.4,0.5-0.4,1-0.4,1.8
		v3.6H93v-10.6h1.7v4.2c0.5-0.8,1.4-1.2,2.5-1.2c0.9,0,1.5,0.3,1.8,0.8c0.3,0.5,0.4,1,0.4,2.2v4.6H97.7z"/>
	<path class="st2" d="M101.2,463.4v-1.7h1.8v1.7H101.2z M103,472.4h-1.8v-7.5h1.8V472.4z"/>
	<path class="st2" d="M109.5,472.4v-4.3c0-0.6-0.1-1-0.3-1.3c-0.2-0.3-0.5-0.4-1-0.4s-1,0.3-1.3,0.7c-0.4,0.5-0.4,1-0.4,1.8v3.6
		h-1.8v-7.5h1.7v1.1c0.5-0.8,1.4-1.2,2.5-1.2c0.9,0,1.5,0.3,1.9,0.9c0.3,0.5,0.4,1,0.4,2v4.7H109.5z"/>
	<path class="st2" d="M117.8,471.3c-0.5,0.6-1.2,1-2.2,1c-1.8,0-3-1.4-3-3.8c0-2.3,1.3-3.8,3.1-3.8c1,0,1.8,0.4,2.2,1v-0.9h1.7v7
		c0,1.5-0.4,2.5-1.2,3.1c-0.6,0.4-1.4,0.6-2.4,0.6c-1.8,0-3-0.8-3.3-2.3l1.8-0.3c0.1,0.8,0.7,1.2,1.5,1.2c0.7,0,1.2-0.2,1.4-0.6
		c0.2-0.3,0.3-0.8,0.3-1.5V471.3z M116.2,466.2c-1.1,0-1.8,0.8-1.8,2.3c0,1.5,0.7,2.4,1.7,2.4c1,0,1.7-0.7,1.7-2.2
		C117.9,467.2,117.3,466.2,116.2,466.2z"/>
</g>
<g class="st0">
	<path class="st2" d="M56.3,490.6c-2.3,0-3.7-1.5-3.7-4c0-2.5,1.5-3.9,3.8-3.9c2.2,0,3.6,1.5,3.6,4C60,489.2,58.5,490.6,56.3,490.6z
		 M56.4,484.1c-1.1,0-1.9,0.9-1.9,2.4c0,1.7,0.8,2.5,1.9,2.5c1.1,0,1.9-0.8,1.9-2.4C58.2,485,57.5,484.1,56.4,484.1z"/>
	<path class="st2" d="M66.1,490.4v-4.3c0-0.6-0.1-1-0.3-1.3c-0.2-0.3-0.5-0.4-1-0.4s-1,0.3-1.3,0.7c-0.4,0.5-0.4,1-0.4,1.8v3.6h-1.8
		v-7.5h1.7v1.1c0.5-0.8,1.4-1.2,2.5-1.2c0.9,0,1.5,0.3,1.9,0.9c0.3,0.5,0.4,1,0.4,2v4.7H66.1z"/>
	<path class="st2" d="M71.4,490.4h-1.8v-10.6h1.8V490.4z"/>
	<path class="st2" d="M73.2,481.4v-1.7H75v1.7H73.2z M75,490.4h-1.8v-7.5H75V490.4z"/>
	<path class="st2" d="M81.6,490.4v-4.3c0-0.6-0.1-1-0.3-1.3c-0.2-0.3-0.5-0.4-1-0.4s-1,0.3-1.3,0.7c-0.4,0.5-0.4,1-0.4,1.8v3.6h-1.8
		v-7.5h1.7v1.1c0.5-0.8,1.4-1.2,2.5-1.2c0.9,0,1.5,0.3,1.9,0.9c0.3,0.5,0.4,1,0.4,2v4.7H81.6z"/>
	<path class="st2" d="M91.6,488.5c-0.6,1.3-1.7,2.1-3.3,2.1c-2.4,0-3.7-1.6-3.7-4c0-2.4,1.4-3.9,3.6-3.9c2.4,0,3.4,1.7,3.4,4.4h-5.2
		c0.1,1.3,0.8,2,2,2c0.8,0,1.4-0.3,1.7-1.2L91.6,488.5z M89.9,485.8c-0.1-1.2-0.7-1.8-1.6-1.8s-1.7,0.6-1.8,1.8H89.9z"/>
</g>
<g class="st0">
	<path class="st2" d="M53.1,671.4v-10.6h4.4c1.5,0,2.3,0.2,2.9,0.6c0.8,0.6,1.2,1.5,1.2,2.6c0,1.2-0.4,2.2-1.3,2.8
		c-0.8,0.4-1.9,0.6-3.1,0.6H55v4H53.1z M56.9,665.7c1,0,1.7-0.1,2.1-0.4c0.4-0.3,0.5-0.7,0.5-1.3c0-0.5-0.2-1-0.5-1.3
		c-0.4-0.3-0.9-0.4-2-0.4h-2v3.4H56.9z"/>
	<path class="st2" d="M64,663.9v4.3c0,0.5,0.1,0.9,0.2,1.2c0.2,0.4,0.6,0.6,1.1,0.6c0.5,0,0.9-0.3,1.2-0.6c0.3-0.4,0.5-0.9,0.5-1.6
		v-3.9h1.8v7.5H67v-1.1c-0.5,0.7-1.3,1.2-2.3,1.2c-1,0-1.5-0.3-2-0.9c-0.3-0.5-0.5-1.1-0.5-2v-4.7H64z"/>
	<path class="st2" d="M72.3,660.8v4.1c0.5-0.6,1.3-1.2,2.3-1.2c1.8,0,2.9,1.5,2.9,3.9c0,2.4-1.2,3.9-3.1,3.9c-1,0-1.7-0.4-2.2-1.1v1
		h-1.7v-10.6H72.3z M74,670c1,0,1.7-0.8,1.7-2.4c0-1.5-0.6-2.4-1.6-2.4c-1.1,0-1.8,0.9-1.8,2.3C72.2,669.1,72.9,670,74,670z"/>
	<path class="st2" d="M80.7,671.4h-1.8v-10.6h1.8V671.4z"/>
	<path class="st2" d="M82.5,662.4v-1.7h1.8v1.7H82.5z M84.3,671.4h-1.8v-7.5h1.8V671.4z"/>
	<path class="st2" d="M86.8,669c0.4,0.8,1.1,1.2,1.9,1.2c0.8,0,1.2-0.3,1.2-0.8c0-0.5-0.3-0.7-1.4-1.1l-0.8-0.3
		c-1.2-0.4-1.9-1-1.9-2.2c0-1.2,1.1-2.2,2.9-2.2c1.2,0,2.3,0.5,2.9,1.5l-1.3,0.9c-0.4-0.7-0.9-1-1.7-1c-0.8,0-1.1,0.3-1.1,0.7
		c0,0.4,0.2,0.7,1.2,1l0.8,0.2c1.3,0.4,2.1,1,2.1,2.2c0,1.4-1.2,2.4-3,2.4c-1.5,0-2.6-0.7-3.2-1.7L86.8,669z"/>
	<path class="st2" d="M97.7,671.4v-4.3c0-0.6-0.1-1.1-0.3-1.4c-0.2-0.3-0.5-0.4-1-0.4c-0.5,0-1,0.3-1.3,0.7c-0.4,0.5-0.4,1-0.4,1.8
		v3.6H93v-10.6h1.7v4.2c0.5-0.8,1.4-1.2,2.5-1.2c0.9,0,1.5,0.3,1.8,0.8c0.3,0.5,0.4,1,0.4,2.2v4.6H97.7z"/>
	<path class="st2" d="M101.2,662.4v-1.7h1.8v1.7H101.2z M103,671.4h-1.8v-7.5h1.8V671.4z"/>
	<path class="st2" d="M109.5,671.4v-4.3c0-0.6-0.1-1-0.3-1.3c-0.2-0.3-0.5-0.4-1-0.4s-1,0.3-1.3,0.7c-0.4,0.5-0.4,1-0.4,1.8v3.6
		h-1.8v-7.5h1.7v1.1c0.5-0.8,1.4-1.2,2.5-1.2c0.9,0,1.5,0.3,1.9,0.9c0.3,0.5,0.4,1,0.4,2v4.7H109.5z"/>
	<path class="st2" d="M117.8,670.3c-0.5,0.6-1.2,1-2.2,1c-1.8,0-3-1.4-3-3.8c0-2.3,1.3-3.8,3.1-3.8c1,0,1.8,0.4,2.2,1v-0.9h1.7v7
		c0,1.5-0.4,2.5-1.2,3.1c-0.6,0.4-1.4,0.6-2.4,0.6c-1.8,0-3-0.8-3.3-2.3l1.8-0.3c0.1,0.8,0.7,1.2,1.5,1.2c0.7,0,1.2-0.2,1.4-0.6
		c0.2-0.3,0.3-0.8,0.3-1.5V670.3z M116.2,665.2c-1.1,0-1.8,0.8-1.8,2.3c0,1.5,0.7,2.4,1.7,2.4c1,0,1.7-0.7,1.7-2.2
		C117.9,666.2,117.3,665.2,116.2,665.2z"/>
</g>
<g class="st0">
	<path class="st2" d="M53.1,689.4v-10.6h4.4c1.5,0,2.3,0.2,2.9,0.6c0.8,0.6,1.2,1.5,1.2,2.6c0,1.2-0.4,2.2-1.3,2.8
		c-0.8,0.4-1.9,0.6-3.1,0.6H55v4H53.1z M56.9,683.7c1,0,1.7-0.1,2.1-0.4c0.4-0.3,0.5-0.7,0.5-1.3c0-0.5-0.2-1-0.5-1.3
		c-0.4-0.3-0.9-0.4-2-0.4h-2v3.4H56.9z"/>
	<path class="st2" d="M62.3,689.4v-7.5H64v1.2c0.5-0.8,1-1.2,2.1-1.2c0.2,0,0.4,0,0.6,0.1v1.8c-0.3-0.1-0.5-0.2-0.8-0.2
		c-0.6,0-1.1,0.3-1.4,0.7c-0.3,0.4-0.4,0.9-0.4,1.7v3.5H62.3z"/>
	<path class="st2" d="M67.7,680.4v-1.7h1.8v1.7H67.7z M69.5,689.4h-1.8v-7.5h1.8V689.4z"/>
	<path class="st2" d="M76,689.4v-4.3c0-0.6-0.1-1-0.3-1.3c-0.2-0.3-0.5-0.4-1-0.4s-1,0.3-1.3,0.7c-0.4,0.5-0.4,1-0.4,1.8v3.6h-1.8
		v-7.5H73v1.1c0.5-0.8,1.4-1.2,2.5-1.2c0.9,0,1.5,0.3,1.9,0.9c0.3,0.5,0.4,1,0.4,2v4.7H76z"/>
	<path class="st2" d="M83.2,689.3c-0.4,0.1-0.9,0.2-1.3,0.2c-0.7,0-1.2-0.2-1.5-0.5c-0.3-0.4-0.4-0.9-0.4-1.6v-4.1h-1.2v-1.4h1.2
		v-2.4h1.7v2.4h1.5v1.4h-1.5v3.7c0,0.8,0.2,1,0.8,1c0.2,0,0.5,0,0.7-0.1V689.3z"/>
</g>
<g class="st0">
	<path class="st1" d="M184.1,345.4v-10.6h1.9v8.9h5v1.7H184.1z"/>
	<path class="st1" d="M192.3,336.4v-1.7h1.8v1.7H192.3z M194.1,345.4h-1.8v-7.5h1.8V345.4z"/>
	<path class="st1" d="M197.7,345.4l-2.7-7.5h1.9c0.9,2.5,1.4,4.1,1.8,5.7c0.4-1.5,0.9-3.1,1.8-5.7h1.9l-2.7,7.5H197.7z"/>
	<path class="st1" d="M203.4,336.4v-1.7h1.8v1.7H203.4z M205.1,345.4h-1.8v-7.5h1.8V345.4z"/>
	<path class="st1" d="M211.7,345.4v-4.3c0-0.6-0.1-1-0.3-1.3c-0.2-0.3-0.5-0.4-1-0.4s-1,0.3-1.3,0.7c-0.4,0.5-0.4,1-0.4,1.8v3.6H207
		v-7.5h1.7v1.1c0.5-0.8,1.4-1.2,2.5-1.2c0.9,0,1.5,0.3,1.9,0.9c0.3,0.5,0.4,1,0.4,2v4.7H211.7z"/>
	<path class="st1" d="M220,344.3c-0.5,0.6-1.2,1-2.2,1c-1.8,0-3-1.4-3-3.8c0-2.3,1.3-3.8,3.1-3.8c1,0,1.8,0.4,2.2,1v-0.9h1.7v7
		c0,1.5-0.4,2.5-1.2,3.1c-0.6,0.4-1.4,0.6-2.4,0.6c-1.8,0-3-0.8-3.3-2.3l1.8-0.3c0.1,0.8,0.7,1.2,1.5,1.2c0.7,0,1.2-0.2,1.4-0.6
		c0.2-0.3,0.3-0.8,0.3-1.5V344.3z M218.4,339.2c-1.1,0-1.8,0.8-1.8,2.3c0,1.5,0.7,2.4,1.7,2.4c1,0,1.7-0.7,1.7-2.2
		C220,340.2,219.5,339.2,218.4,339.2z"/>
	<path class="st1" d="M228.5,345.4v-1c-0.5,0.7-1.2,1.2-2.2,1.2c-1.7,0-3-1.3-3-3.9c0-2.4,1.4-3.9,3.1-3.9c1.1,0,1.7,0.4,2.1,1v-3.9
		h1.7v10.6H228.5z M226.8,339.2c-1,0-1.7,0.8-1.7,2.4c0,1.5,0.6,2.5,1.7,2.5c1,0,1.8-0.8,1.8-2.4
		C228.5,340.1,227.8,339.2,226.8,339.2z"/>
	<path class="st1" d="M235.3,345.6c-2.3,0-3.7-1.5-3.7-4c0-2.5,1.5-3.9,3.8-3.9c2.2,0,3.6,1.5,3.6,4
		C238.9,344.2,237.5,345.6,235.3,345.6z M235.3,339.1c-1.1,0-1.9,0.9-1.9,2.4c0,1.7,0.8,2.5,1.9,2.5c1.1,0,1.9-0.8,1.9-2.4
		C237.2,340,236.4,339.1,235.3,339.1z"/>
	<path class="st1" d="M245,340.5c-0.2-1-0.8-1.3-1.5-1.3c-1,0-1.8,0.8-1.8,2.4c0,1.7,0.7,2.5,1.8,2.5c0.8,0,1.3-0.4,1.5-1.2l1.6,0.5
		c-0.4,1.2-1.4,2.1-3.1,2.1c-2.2,0-3.6-1.5-3.6-4c0-2.4,1.4-3.9,3.6-3.9c1.6,0,2.6,0.9,3,2.2L245,340.5z"/>
	<path class="st1" d="M248.4,343c0.4,0.8,1.1,1.2,1.9,1.2c0.8,0,1.2-0.3,1.2-0.8c0-0.5-0.3-0.7-1.4-1.1l-0.8-0.3
		c-1.2-0.4-1.9-1-1.9-2.2c0-1.2,1.1-2.2,2.9-2.2c1.2,0,2.3,0.5,2.9,1.5l-1.3,0.9c-0.4-0.7-0.9-1-1.7-1c-0.8,0-1.1,0.3-1.1,0.7
		c0,0.4,0.2,0.7,1.2,1l0.8,0.2c1.3,0.4,2.1,1,2.1,2.2c0,1.4-1.2,2.4-3,2.4c-1.5,0-2.6-0.7-3.2-1.7L248.4,343z"/>
</g>
<g class="st0">
	<path class="st1" d="M184.1,363.4v-10.6h7.4v1.6H186v2.7h5v1.6h-5v3h5.7v1.7H184.1z"/>
	<path class="st1" d="M197.7,363.4v-1c-0.5,0.7-1.2,1.2-2.2,1.2c-1.7,0-3-1.3-3-3.9c0-2.4,1.4-3.9,3.1-3.9c1.1,0,1.7,0.4,2.1,1v-3.9
		h1.7v10.6H197.7z M196,357.2c-1,0-1.7,0.8-1.7,2.4c0,1.5,0.6,2.5,1.7,2.5c1,0,1.8-0.8,1.8-2.4C197.7,358.1,197.1,357.2,196,357.2z"
		/>
	<path class="st1" d="M201.2,354.4v-1.7h1.8v1.7H201.2z M203,363.4h-1.8v-7.5h1.8V363.4z"/>
	<path class="st1" d="M208.5,363.3c-0.4,0.1-0.9,0.2-1.3,0.2c-0.7,0-1.2-0.2-1.5-0.5c-0.3-0.4-0.4-0.9-0.4-1.6v-4.1h-1.2v-1.4h1.2
		v-2.4h1.7v2.4h1.5v1.4H207v3.7c0,0.8,0.2,1,0.8,1c0.2,0,0.5,0,0.7-0.1V363.3z"/>
	<path class="st1" d="M212.8,363.6c-2.3,0-3.7-1.5-3.7-4c0-2.5,1.5-3.9,3.8-3.9c2.2,0,3.6,1.5,3.6,4
		C216.5,362.2,215,363.6,212.8,363.6z M212.9,357.1c-1.1,0-1.9,0.9-1.9,2.4c0,1.7,0.8,2.5,1.9,2.5c1.1,0,1.9-0.8,1.9-2.4
		C214.7,358,214,357.1,212.9,357.1z"/>
	<path class="st1" d="M217.9,363.4v-7.5h1.7v1.2c0.5-0.8,1-1.2,2.1-1.2c0.2,0,0.4,0,0.6,0.1v1.8c-0.3-0.1-0.5-0.2-0.8-0.2
		c-0.6,0-1.1,0.3-1.4,0.7c-0.3,0.4-0.4,0.9-0.4,1.7v3.5H217.9z"/>
</g>
<g class="st0">
	<path class="st1" d="M284.9,589.3v6.1h-1.8v-6.1h-1.3v-1.4h1.3V587c0-0.9,0.2-1.5,0.6-1.8c0.4-0.4,0.9-0.5,1.5-0.5
		c0.4,0,0.8,0,1.1,0.2v1.4c-0.2-0.1-0.5-0.2-0.7-0.2c-0.3,0-0.6,0.1-0.7,0.3c-0.1,0.2-0.1,0.4-0.1,0.8v0.7h1.5v1.4H284.9z"/>
	<path class="st1" d="M294.3,588.1c-0.3-1.2-1-1.9-2.2-1.9c-1.9,0-3,1.4-3,3.7c0,2.4,1.1,4,3,4c1.2,0,2.1-0.7,2.4-2l1.8,0.7
		c-0.7,2-2.2,3-4.3,3c-3,0-4.9-2.1-4.9-5.6c0-3.5,2-5.5,5-5.5c2.1,0,3.5,1.1,4,2.9L294.3,588.1z"/>
	<path class="st1" d="M306.6,595.4c0-5.3,0-6.8,0.1-8.5c-0.6,2-0.9,2.9-2.8,8.5h-1.7c-1.3-4.2-2.1-6.2-2.8-8.5c0,1.9,0,3.3,0,8.5
		h-1.8v-10.6h2.7c1.4,3.9,2.1,6,2.7,8.1c0.6-2.1,1-3.3,2.7-8.1h2.7v10.6H306.6z"/>
	<path class="st1" d="M311.2,592.1c0.6,1.3,1.6,1.9,2.8,1.9c1.3,0,2-0.5,2-1.3c0-0.8-0.5-1-2-1.6l-1.1-0.4c-1.8-0.6-2.6-1.5-2.6-3
		c0-1.8,1.6-3.1,3.8-3.1c1.8,0,3.2,0.8,4,2.2l-1.5,1.1c-0.7-1.2-1.6-1.6-2.7-1.6c-1.1,0-1.7,0.5-1.7,1.2c0,0.7,0.4,1,1.8,1.5
		l1.2,0.4c2,0.6,2.9,1.5,2.9,3.1c0,1.9-1.6,3.2-4,3.2c-1.9,0-3.5-0.9-4.3-2.4L311.2,592.1z"/>
</g>
<g class="st0">
	<path class="st1" d="M130.9,795.4v-4.3c0-0.6-0.1-1.1-0.3-1.4c-0.2-0.3-0.5-0.4-1-0.4c-0.5,0-1,0.3-1.3,0.7c-0.4,0.5-0.4,1-0.4,1.8
		v3.6h-1.8v-10.6h1.7v4.2c0.5-0.8,1.4-1.2,2.5-1.2c0.9,0,1.5,0.3,1.8,0.8c0.3,0.5,0.4,1,0.4,2.2v4.6H130.9z"/>
	<path class="st1" d="M136.1,787.9v4.3c0,0.5,0.1,0.9,0.2,1.2c0.2,0.4,0.6,0.6,1.1,0.6c0.5,0,0.9-0.3,1.2-0.6
		c0.3-0.4,0.5-0.9,0.5-1.6v-3.9h1.8v7.5h-1.7v-1.1c-0.5,0.7-1.3,1.2-2.3,1.2c-1,0-1.5-0.3-2-0.9c-0.3-0.5-0.5-1.1-0.5-2v-4.7H136.1z
		"/>
	<path class="st1" d="M150,795.4v-1.2c-0.7,0.9-1.8,1.4-3.1,1.4c-2.7,0-4.6-2.1-4.6-5.4c0-3.2,1.9-5.7,5.2-5.7c2.1,0,3.5,1,4.2,2.8
		l-1.9,0.7c-0.3-1.1-1.1-1.8-2.4-1.8c-2,0-3.2,1.5-3.2,3.9c0,2.5,1.3,3.8,3.1,3.8c1.7,0,2.5-1,2.6-2.8h-3v-1.6h4.7v5.8H150z"/>
	<path class="st1" d="M153.3,790c0-3.3,2-5.5,5-5.5c2.9,0,4.8,2.2,4.8,5.6c0,3.5-1.9,5.5-4.8,5.5C155.2,795.6,153.3,793.4,153.3,790
		z M158.3,786.2c-1.8,0-3,1.4-3,3.7c0,2.5,1.2,3.9,3,3.9c1.7,0,2.8-1.3,2.8-3.8C161.2,787.6,160,786.2,158.3,786.2z"/>
	<path class="st1" d="M168.6,794.9v-3.3h-3.3v-1.7h3.3v-3.4h1.8v3.4h3.3v1.7h-3.3v3.3H168.6z"/>
</g>
<g class="st0">
	<path class="st1" d="M274.4,784.8c2.3,3.9,3.7,6,4.7,7.8c-0.1-1.6-0.1-3.8-0.1-7.8h1.9v10.6h-2.1c-2.2-3.6-3.6-5.9-4.7-7.8
		c0,0.9,0.1,3,0.1,7.8h-1.9v-10.6H274.4z"/>
	<path class="st1" d="M289.3,793.5c-0.6,1.3-1.7,2.1-3.3,2.1c-2.4,0-3.7-1.6-3.7-4c0-2.4,1.4-3.9,3.6-3.9c2.4,0,3.4,1.7,3.4,4.4
		h-5.2c0.1,1.3,0.8,2,2,2c0.8,0,1.4-0.3,1.7-1.2L289.3,793.5z M287.6,790.8c-0.1-1.2-0.7-1.8-1.6-1.8s-1.7,0.6-1.8,1.8H287.6z"/>
	<path class="st1" d="M296.8,795.4c-0.5-2-1-3.8-1.3-5.5c-0.3,1.4-0.7,2.8-1.4,5.5h-2l-2.2-7.5h1.9c0.5,2,1.1,4.2,1.5,5.6
		c0.3-1.4,0.6-2.9,1.4-5.6h1.8c0.6,2.4,1,4,1.4,5.6c0.4-1.6,0.9-3.7,1.5-5.6h1.8l-2.3,7.5H296.8z"/>
	<path class="st1" d="M302.6,793c0.4,0.8,1.1,1.2,1.9,1.2c0.8,0,1.2-0.3,1.2-0.8c0-0.5-0.3-0.7-1.4-1.1l-0.8-0.3
		c-1.2-0.4-1.9-1-1.9-2.2c0-1.2,1-2.2,2.9-2.2c1.2,0,2.3,0.5,2.9,1.5l-1.3,0.9c-0.4-0.7-0.9-1-1.7-1c-0.8,0-1.1,0.3-1.1,0.7
		c0,0.4,0.2,0.7,1.2,1l0.8,0.2c1.3,0.4,2.1,1,2.1,2.2c0,1.4-1.2,2.4-3,2.4c-1.5,0-2.6-0.7-3.2-1.7L302.6,793z"/>
	<path class="st1" d="M311,784.8c2.3,3.9,3.7,6,4.7,7.8c-0.1-1.6-0.1-3.8-0.1-7.8h1.9v10.6h-2.1c-2.2-3.6-3.6-5.9-4.7-7.8
		c0,0.9,0.1,3,0.1,7.8h-1.9v-10.6H311z"/>
	<path class="st1" d="M321.7,795.4v-9h-3v-1.6h7.9v1.6h-3v9H321.7z"/>
</g>
<g class="st0">
	<path class="st1" d="M426.3,745.4c0-5.3,0-6.8,0.1-8.5c-0.6,2-0.9,2.9-2.8,8.5h-1.6c-1.3-4.2-2.1-6.2-2.8-8.5c0,1.9,0,3.3,0,8.5
		h-1.8v-10.6h2.7c1.3,3.9,2.1,6,2.7,8.1c0.6-2.1,1-3.3,2.7-8.1h2.7v10.6H426.3z"/>
	<path class="st1" d="M434.3,740.3c0-0.4-0.1-0.7-0.3-0.9c-0.2-0.2-0.6-0.3-1-0.3c-0.9,0-1.3,0.5-1.4,1.3l-1.7-0.1
		c0.1-1.6,1.3-2.5,3.2-2.5c1,0,1.7,0.2,2.2,0.7c0.5,0.4,0.6,1,0.6,2.2v2.7c0,0.9,0.1,1.6,0.2,2h-1.7c-0.1-0.2-0.2-0.7-0.2-0.9
		c-0.6,0.7-1.4,1.1-2.4,1.1c-1.4,0-2.3-0.9-2.3-2.2c0-1,0.5-1.6,1.4-2c0.7-0.3,2.2-0.5,3.4-0.6V740.3z M434.3,741.9
		c-0.9,0-1.9,0.2-2.4,0.5c-0.5,0.2-0.6,0.5-0.6,0.9c0,0.5,0.4,0.9,1.1,0.9c0.7,0,1.2-0.3,1.6-0.8c0.2-0.3,0.3-0.8,0.3-1.2V741.9z"/>
	<path class="st1" d="M437.7,736.4v-1.7h1.8v1.7H437.7z M439.5,745.4h-1.8v-7.5h1.8V745.4z"/>
	<path class="st1" d="M446.1,745.4v-4.3c0-0.6-0.1-1-0.3-1.3c-0.2-0.3-0.5-0.4-1-0.4c-0.5,0-1,0.3-1.3,0.7c-0.4,0.5-0.4,1-0.4,1.8
		v3.6h-1.8v-7.5h1.7v1.1c0.5-0.8,1.4-1.2,2.5-1.2c0.9,0,1.5,0.3,1.9,0.9c0.3,0.5,0.4,1,0.4,2v4.7H446.1z"/>
	<path class="st1" d="M449.3,741.5v-1.4h4.3v1.4H449.3z"/>
	<path class="st1" d="M455.2,745.4v-10.6h4.4c1.5,0,2.3,0.2,2.9,0.6c0.8,0.6,1.2,1.5,1.2,2.6c0,1.2-0.4,2.2-1.3,2.8
		c-0.8,0.4-1.9,0.6-3.1,0.6h-2.1v4H455.2z M459,739.7c1,0,1.7-0.1,2.1-0.4c0.4-0.3,0.5-0.7,0.5-1.3c0-0.5-0.2-1-0.5-1.3
		c-0.4-0.3-0.9-0.4-2-0.4h-2v3.4H459z"/>
	<path class="st1" d="M467.5,745.6c-2.3,0-3.7-1.5-3.7-4c0-2.5,1.5-3.9,3.8-3.9c2.2,0,3.6,1.5,3.6,4
		C471.2,744.2,469.7,745.6,467.5,745.6z M467.6,739.1c-1.1,0-1.9,0.9-1.9,2.4c0,1.7,0.8,2.5,1.9,2.5s1.9-0.8,1.9-2.4
		C469.4,740,468.7,739.1,467.6,739.1z"/>
	<path class="st1" d="M473.3,743c0.4,0.8,1.1,1.2,1.9,1.2c0.8,0,1.2-0.3,1.2-0.8c0-0.5-0.3-0.7-1.4-1.1l-0.8-0.3
		c-1.2-0.4-1.9-1-1.9-2.2c0-1.2,1.1-2.2,2.9-2.2c1.2,0,2.3,0.5,2.9,1.5l-1.3,0.9c-0.4-0.7-0.9-1-1.7-1c-0.8,0-1.1,0.3-1.1,0.7
		c0,0.4,0.2,0.7,1.2,1l0.8,0.2c1.3,0.4,2.1,1,2.1,2.2c0,1.4-1.2,2.4-3,2.4c-1.5,0-2.6-0.7-3.2-1.7L473.3,743z"/>
	<path class="st1" d="M483.1,745.3c-0.4,0.1-0.9,0.2-1.3,0.2c-0.7,0-1.2-0.2-1.5-0.5c-0.3-0.4-0.4-0.9-0.4-1.6v-4.1h-1.2v-1.4h1.2
		v-2.4h1.7v2.4h1.5v1.4h-1.5v3.7c0,0.8,0.2,1,0.8,1c0.2,0,0.5,0,0.7-0.1V745.3z"/>
</g>
<g class="st0">
	<path class="st1" d="M410.1,755.9v1.1c0.5-0.7,1.2-1.2,2.3-1.2c1.7,0,3,1.3,3,3.9c0,2.4-1.4,3.9-3.1,3.9c-1.1,0-1.7-0.4-2.1-1v3.8
		h-1.7v-10.4H410.1z M411.8,762c1,0,1.7-0.8,1.7-2.4c0-1.5-0.6-2.5-1.6-2.5s-1.8,0.8-1.8,2.4C410.1,761.1,410.7,762,411.8,762z"/>
	<path class="st1" d="M416.7,763.4v-7.5h1.7v1.2c0.5-0.8,1-1.2,2.1-1.2c0.2,0,0.4,0,0.6,0.1v1.8c-0.3-0.1-0.5-0.2-0.8-0.2
		c-0.6,0-1.1,0.3-1.4,0.7c-0.3,0.4-0.4,0.9-0.4,1.7v3.5H416.7z"/>
	<path class="st1" d="M422.1,754.4v-1.7h1.8v1.7H422.1z M423.9,763.4h-1.8v-7.5h1.8V763.4z"/>
	<path class="st1" d="M430.5,763.4v-4.3c0-0.6-0.1-1-0.3-1.3c-0.2-0.3-0.5-0.4-1-0.4c-0.5,0-1,0.3-1.3,0.7c-0.4,0.5-0.4,1-0.4,1.8
		v3.6h-1.8v-7.5h1.7v1.1c0.5-0.8,1.4-1.2,2.5-1.2c0.9,0,1.5,0.3,1.9,0.9c0.3,0.5,0.4,1,0.4,2v4.7H430.5z"/>
	<path class="st1" d="M437.6,763.3c-0.4,0.1-0.9,0.2-1.3,0.2c-0.7,0-1.2-0.2-1.5-0.5c-0.3-0.4-0.4-0.9-0.4-1.6v-4.1h-1.2v-1.4h1.2
		v-2.4h1.7v2.4h1.5v1.4h-1.5v3.7c0,0.8,0.2,1,0.8,1c0.2,0,0.5,0,0.7-0.1V763.3z"/>
	<path class="st1" d="M448.6,761.5c-0.6,1.3-1.7,2.1-3.3,2.1c-2.4,0-3.7-1.6-3.7-4c0-2.4,1.4-3.9,3.6-3.9c2.4,0,3.4,1.7,3.4,4.4
		h-5.2c0.1,1.3,0.8,2,2,2c0.8,0,1.4-0.3,1.7-1.2L448.6,761.5z M446.9,758.8c-0.1-1.2-0.7-1.8-1.6-1.8s-1.7,0.6-1.8,1.8H446.9z"/>
	<path class="st1" d="M454.8,763.4v-1c-0.5,0.7-1.2,1.2-2.2,1.2c-1.7,0-3-1.3-3-3.9c0-2.4,1.4-3.9,3.1-3.9c1.1,0,1.7,0.4,2.1,1v-3.9
		h1.7v10.6H454.8z M453.1,757.2c-1,0-1.7,0.8-1.7,2.4c0,1.5,0.6,2.5,1.7,2.5s1.8-0.8,1.8-2.4C454.8,758.1,454.2,757.2,453.1,757.2z"
		/>
	<path class="st1" d="M458.4,754.4v-1.7h1.8v1.7H458.4z M460.1,763.4h-1.8v-7.5h1.8V763.4z"/>
	<path class="st1" d="M465.6,763.3c-0.4,0.1-0.9,0.2-1.3,0.2c-0.7,0-1.2-0.2-1.5-0.5c-0.3-0.4-0.4-0.9-0.4-1.6v-4.1h-1.2v-1.4h1.2
		v-2.4h1.7v2.4h1.5v1.4h-1.5v3.7c0,0.8,0.2,1,0.8,1c0.2,0,0.5,0,0.7-0.1V763.3z"/>
	<path class="st1" d="M466.7,754.4v-1.7h1.8v1.7H466.7z M468.5,763.4h-1.8v-7.5h1.8V763.4z"/>
	<path class="st1" d="M473.5,763.6c-2.3,0-3.7-1.5-3.7-4c0-2.5,1.5-3.9,3.8-3.9c2.2,0,3.6,1.5,3.6,4
		C477.2,762.2,475.7,763.6,473.5,763.6z M473.6,757.1c-1.1,0-1.9,0.9-1.9,2.4c0,1.7,0.8,2.5,1.9,2.5c1.1,0,1.9-0.8,1.9-2.4
		C475.4,758,474.7,757.1,473.6,757.1z"/>
	<path class="st1" d="M483.4,763.4v-4.3c0-0.6-0.1-1-0.3-1.3c-0.2-0.3-0.5-0.4-1-0.4c-0.5,0-1,0.3-1.3,0.7c-0.4,0.5-0.4,1-0.4,1.8
		v3.6h-1.8v-7.5h1.7v1.1c0.5-0.8,1.4-1.2,2.5-1.2c0.9,0,1.5,0.3,1.9,0.9c0.3,0.5,0.4,1,0.4,2v4.7H483.4z"/>
	<path class="st1" d="M487.5,761c0.4,0.8,1.1,1.2,1.9,1.2c0.8,0,1.2-0.3,1.2-0.8c0-0.5-0.3-0.7-1.4-1.1l-0.8-0.3
		c-1.2-0.4-1.9-1-1.9-2.2c0-1.2,1.1-2.2,2.9-2.2c1.2,0,2.3,0.5,2.9,1.5l-1.3,0.9c-0.4-0.7-0.9-1-1.7-1c-0.8,0-1.1,0.3-1.1,0.7
		c0,0.4,0.2,0.7,1.2,1l0.8,0.2c1.3,0.4,2.1,1,2.1,2.2c0,1.4-1.2,2.4-3,2.4c-1.5,0-2.6-0.7-3.2-1.7L487.5,761z"/>
</g>
<g class="st0">
	<path class="st1" d="M409.8,835.1c-0.3-1.2-1-1.9-2.2-1.9c-1.9,0-3,1.4-3,3.7c0,2.4,1.1,4,3,4c1.2,0,2.1-0.7,2.4-2l1.8,0.7
		c-0.7,2-2.2,3-4.3,3c-3,0-4.9-2.1-4.9-5.6c0-3.5,2-5.5,5-5.5c2.1,0,3.5,1.1,4,2.9L409.8,835.1z"/>
	<path class="st1" d="M412.9,842.4v-7.5h1.7v1.2c0.5-0.8,1-1.2,2.1-1.2c0.2,0,0.4,0,0.6,0.1v1.8c-0.3-0.1-0.5-0.2-0.8-0.2
		c-0.6,0-1.1,0.3-1.4,0.7c-0.3,0.4-0.4,0.9-0.4,1.7v3.5H412.9z"/>
	<path class="st1" d="M421.6,842.6c-2.3,0-3.7-1.5-3.7-4c0-2.5,1.5-3.9,3.8-3.9c2.2,0,3.6,1.5,3.6,4
		C425.2,841.2,423.8,842.6,421.6,842.6z M421.6,836.1c-1.1,0-1.9,0.9-1.9,2.4c0,1.7,0.8,2.5,1.9,2.5c1.1,0,1.9-0.8,1.9-2.4
		C423.5,837,422.8,836.1,421.6,836.1z"/>
	<path class="st1" d="M427.3,840c0.4,0.8,1.1,1.2,1.9,1.2c0.8,0,1.2-0.3,1.2-0.8c0-0.5-0.3-0.7-1.4-1.1l-0.8-0.3
		c-1.2-0.4-1.9-1-1.9-2.2c0-1.2,1.1-2.2,2.9-2.2c1.2,0,2.3,0.5,2.9,1.5l-1.3,0.9c-0.4-0.7-0.9-1-1.7-1c-0.8,0-1.1,0.3-1.1,0.7
		c0,0.4,0.2,0.7,1.2,1l0.8,0.2c1.3,0.4,2.1,1,2.1,2.2c0,1.4-1.2,2.4-3,2.4c-1.5,0-2.6-0.7-3.2-1.7L427.3,840z"/>
	<path class="st1" d="M434.2,840c0.4,0.8,1.1,1.2,1.9,1.2c0.8,0,1.2-0.3,1.2-0.8c0-0.5-0.3-0.7-1.4-1.1l-0.8-0.3
		c-1.2-0.4-1.9-1-1.9-2.2c0-1.2,1-2.2,2.9-2.2c1.2,0,2.3,0.5,2.9,1.5l-1.3,0.9c-0.4-0.7-0.9-1-1.7-1c-0.8,0-1.1,0.3-1.1,0.7
		c0,0.4,0.2,0.7,1.2,1l0.8,0.2c1.3,0.4,2.1,1,2.1,2.2c0,1.4-1.2,2.4-3,2.4c-1.5,0-2.6-0.7-3.2-1.7L434.2,840z"/>
	<path class="st1" d="M440.1,838.5v-1.4h4.3v1.4H440.1z"/>
	<path class="st1" d="M445.9,842.4v-7.5h1.7v1.2c0.5-0.8,1-1.2,2.1-1.2c0.2,0,0.4,0,0.6,0.1v1.8c-0.3-0.1-0.5-0.2-0.8-0.2
		c-0.6,0-1.1,0.3-1.4,0.7c-0.3,0.4-0.4,0.9-0.4,1.7v3.5H445.9z"/>
	<path class="st1" d="M457.9,840.5c-0.6,1.3-1.7,2.1-3.3,2.1c-2.4,0-3.7-1.6-3.7-4c0-2.4,1.4-3.9,3.6-3.9c2.4,0,3.4,1.7,3.4,4.4
		h-5.2c0.1,1.3,0.8,2,2,2c0.8,0,1.4-0.3,1.7-1.2L457.9,840.5z M456.1,837.8c-0.1-1.2-0.7-1.8-1.6-1.8s-1.7,0.6-1.8,1.8H456.1z"/>
	<path class="st1" d="M464.1,841.3c-0.5,0.6-1.2,1-2.2,1c-1.8,0-3-1.4-3-3.8c0-2.3,1.3-3.8,3.1-3.8c1,0,1.8,0.4,2.2,1v-0.9h1.7v7
		c0,1.5-0.4,2.5-1.2,3.1c-0.6,0.4-1.4,0.6-2.4,0.6c-1.8,0-3-0.8-3.3-2.3l1.8-0.3c0.1,0.8,0.7,1.2,1.5,1.2c0.7,0,1.2-0.2,1.4-0.6
		c0.2-0.3,0.3-0.8,0.3-1.5V841.3z M462.5,836.2c-1.1,0-1.8,0.8-1.8,2.3c0,1.5,0.7,2.4,1.7,2.4c1,0,1.7-0.7,1.7-2.2
		C464.1,837.2,463.6,836.2,462.5,836.2z"/>
	<path class="st1" d="M467.7,833.4v-1.7h1.8v1.7H467.7z M469.5,842.4h-1.8v-7.5h1.8V842.4z"/>
	<path class="st1" d="M474.6,842.6c-2.3,0-3.7-1.5-3.7-4c0-2.5,1.5-3.9,3.8-3.9c2.2,0,3.6,1.5,3.6,4
		C478.2,841.2,476.8,842.6,474.6,842.6z M474.6,836.1c-1.1,0-1.9,0.9-1.9,2.4c0,1.7,0.8,2.5,1.9,2.5c1.1,0,1.9-0.8,1.9-2.4
		C476.5,837,475.8,836.1,474.6,836.1z"/>
	<path class="st1" d="M484.4,842.4v-4.3c0-0.6-0.1-1-0.3-1.3c-0.2-0.3-0.5-0.4-1-0.4c-0.5,0-1,0.3-1.3,0.7c-0.4,0.5-0.4,1-0.4,1.8
		v3.6h-1.8v-7.5h1.7v1.1c0.5-0.8,1.4-1.2,2.5-1.2c0.9,0,1.5,0.3,1.9,0.9c0.3,0.5,0.4,1,0.4,2v4.7H484.4z"/>
	<path class="st1" d="M492.1,837.3c0-0.4-0.1-0.7-0.3-0.9c-0.2-0.2-0.6-0.3-1-0.3c-0.9,0-1.3,0.5-1.4,1.3l-1.7-0.1
		c0.1-1.6,1.3-2.5,3.2-2.5c1,0,1.7,0.2,2.2,0.7c0.5,0.4,0.6,1,0.6,2.2v2.7c0,0.9,0.1,1.6,0.2,2h-1.7c-0.1-0.2-0.2-0.7-0.2-0.9
		c-0.6,0.7-1.4,1.1-2.4,1.1c-1.4,0-2.3-0.9-2.3-2.2c0-1,0.5-1.6,1.4-2c0.7-0.3,2.2-0.5,3.4-0.6V837.3z M492.1,838.9
		c-0.9,0-1.9,0.2-2.4,0.5c-0.5,0.2-0.6,0.5-0.6,0.9c0,0.5,0.4,0.9,1.1,0.9c0.7,0,1.2-0.3,1.6-0.8c0.2-0.3,0.3-0.8,0.3-1.2V838.9z"/>
	<path class="st1" d="M497.4,842.4h-1.8v-10.6h1.8V842.4z"/>
</g>
<g class="st0">
	<path class="st1" d="M410.2,852.9v1.1c0.5-0.7,1.2-1.2,2.3-1.2c1.7,0,3,1.3,3,3.9c0,2.4-1.4,3.9-3.1,3.9c-1.1,0-1.7-0.4-2.1-1v3.8
		h-1.7v-10.4H410.2z M411.8,859c1,0,1.7-0.8,1.7-2.4c0-1.5-0.6-2.5-1.7-2.5c-1,0-1.8,0.8-1.8,2.4C410.1,858.1,410.8,859,411.8,859z"
		/>
	<path class="st1" d="M416.8,860.4v-7.5h1.7v1.2c0.5-0.8,1-1.2,2.1-1.2c0.2,0,0.4,0,0.6,0.1v1.8c-0.3-0.1-0.5-0.2-0.8-0.2
		c-0.6,0-1.1,0.3-1.4,0.7c-0.3,0.4-0.4,0.9-0.4,1.7v3.5H416.8z"/>
	<path class="st1" d="M422.2,851.4v-1.7h1.8v1.7H422.2z M424,860.4h-1.8v-7.5h1.8V860.4z"/>
	<path class="st1" d="M430.5,860.4v-4.3c0-0.6-0.1-1-0.3-1.3c-0.2-0.3-0.5-0.4-1-0.4c-0.5,0-1,0.3-1.3,0.7c-0.4,0.5-0.4,1-0.4,1.8
		v3.6h-1.8v-7.5h1.7v1.1c0.5-0.8,1.4-1.2,2.5-1.2c0.9,0,1.5,0.3,1.9,0.9c0.3,0.5,0.4,1,0.4,2v4.7H430.5z"/>
	<path class="st1" d="M437.7,860.3c-0.4,0.1-0.9,0.2-1.3,0.2c-0.7,0-1.2-0.2-1.5-0.5c-0.3-0.4-0.4-0.9-0.4-1.6v-4.1h-1.2v-1.4h1.2
		v-2.4h1.7v2.4h1.5v1.4h-1.5v3.7c0,0.8,0.2,1,0.8,1c0.2,0,0.5,0,0.7-0.1V860.3z"/>
	<path class="st1" d="M448.6,858.5c-0.6,1.3-1.7,2.1-3.3,2.1c-2.4,0-3.7-1.6-3.7-4c0-2.4,1.4-3.9,3.6-3.9c2.4,0,3.4,1.7,3.4,4.4
		h-5.2c0.1,1.3,0.8,2,2,2c0.8,0,1.4-0.3,1.7-1.2L448.6,858.5z M446.9,855.8c-0.1-1.2-0.7-1.8-1.6-1.8s-1.7,0.6-1.8,1.8H446.9z"/>
	<path class="st1" d="M454.9,860.4v-1c-0.5,0.7-1.2,1.2-2.2,1.2c-1.7,0-3-1.3-3-3.9c0-2.4,1.4-3.9,3.1-3.9c1.1,0,1.7,0.4,2.1,1v-3.9
		h1.7v10.6H454.9z M453.2,854.2c-1,0-1.7,0.8-1.7,2.4c0,1.5,0.6,2.5,1.7,2.5c1,0,1.8-0.8,1.8-2.4
		C454.9,855.1,454.2,854.2,453.2,854.2z"/>
	<path class="st1" d="M458.4,851.4v-1.7h1.8v1.7H458.4z M460.2,860.4h-1.8v-7.5h1.8V860.4z"/>
	<path class="st1" d="M465.7,860.3c-0.4,0.1-0.9,0.2-1.3,0.2c-0.7,0-1.2-0.2-1.5-0.5c-0.3-0.4-0.4-0.9-0.4-1.6v-4.1h-1.2v-1.4h1.2
		v-2.4h1.7v2.4h1.5v1.4h-1.5v3.7c0,0.8,0.2,1,0.8,1c0.2,0,0.5,0,0.7-0.1V860.3z"/>
	<path class="st1" d="M466.7,851.4v-1.7h1.8v1.7H466.7z M468.5,860.4h-1.8v-7.5h1.8V860.4z"/>
	<path class="st1" d="M473.6,860.6c-2.3,0-3.7-1.5-3.7-4c0-2.5,1.5-3.9,3.8-3.9c2.2,0,3.6,1.5,3.6,4
		C477.2,859.2,475.8,860.6,473.6,860.6z M473.6,854.1c-1.1,0-1.9,0.9-1.9,2.4c0,1.7,0.8,2.5,1.9,2.5s1.9-0.8,1.9-2.4
		C475.5,855,474.8,854.1,473.6,854.1z"/>
	<path class="st1" d="M483.4,860.4v-4.3c0-0.6-0.1-1-0.3-1.3c-0.2-0.3-0.5-0.4-1-0.4c-0.5,0-1,0.3-1.3,0.7c-0.4,0.5-0.4,1-0.4,1.8
		v3.6h-1.8v-7.5h1.7v1.1c0.5-0.8,1.4-1.2,2.5-1.2c0.9,0,1.5,0.3,1.9,0.9c0.3,0.5,0.4,1,0.4,2v4.7H483.4z"/>
	<path class="st1" d="M487.6,858c0.4,0.8,1.1,1.2,1.9,1.2c0.8,0,1.2-0.3,1.2-0.8c0-0.5-0.3-0.7-1.4-1.1l-0.8-0.3
		c-1.2-0.4-1.9-1-1.9-2.2c0-1.2,1-2.2,2.9-2.2c1.2,0,2.3,0.5,2.9,1.5l-1.3,0.9c-0.4-0.7-0.9-1-1.7-1c-0.8,0-1.1,0.3-1.1,0.7
		c0,0.4,0.2,0.7,1.2,1l0.8,0.2c1.3,0.4,2.1,1,2.1,2.2c0,1.4-1.2,2.4-3,2.4c-1.5,0-2.6-0.7-3.2-1.7L487.6,858z"/>
</g>
<g class="st0">
	<path class="st1" d="M428.1,114.4c-1.2-4.6-1.6-6.1-2-8c-0.5,1.9-0.8,3.4-2.2,8h-2l-2.8-10.6h2c0.7,3,1.3,5.4,1.9,8.2
		c0.5-2.2,0.9-4,2-8.2h1.9c0.8,3.2,1.6,6,2.1,8.2c0.2-1.2,0.7-3.6,1.8-8.2h2l-2.8,10.6H428.1z"/>
	<path class="st1" d="M439.7,112.5c-0.6,1.3-1.7,2.1-3.3,2.1c-2.4,0-3.7-1.6-3.7-4c0-2.4,1.4-3.9,3.6-3.9c2.4,0,3.4,1.7,3.4,4.4
		h-5.2c0.1,1.3,0.8,2,2,2c0.8,0,1.4-0.3,1.7-1.2L439.7,112.5z M438,109.8c-0.1-1.2-0.7-1.8-1.6-1.8s-1.7,0.6-1.8,1.8H438z"/>
	<path class="st1" d="M442.9,103.8v4.1c0.5-0.6,1.3-1.2,2.3-1.2c1.8,0,2.9,1.5,2.9,3.9c0,2.4-1.2,3.9-3.1,3.9c-1,0-1.7-0.4-2.2-1.1
		v1h-1.7v-10.6H442.9z M444.6,113c1,0,1.7-0.8,1.7-2.4c0-1.5-0.6-2.4-1.6-2.4c-1.1,0-1.8,0.9-1.8,2.3
		C442.8,112.1,443.5,113,444.6,113z"/>
	<path class="st1" d="M453.2,114.3c-0.4,0.1-0.9,0.2-1.3,0.2c-0.7,0-1.2-0.2-1.5-0.5c-0.3-0.4-0.4-0.9-0.4-1.6v-4.1h-1.2v-1.4h1.2
		v-2.4h1.7v2.4h1.5v1.4h-1.5v3.7c0,0.8,0.2,1,0.8,1c0.2,0,0.5,0,0.7-0.1V114.3z"/>
	<path class="st1" d="M454.2,114.4v-7.5h1.7v1.2c0.5-0.8,1-1.2,2.1-1.2c0.2,0,0.4,0,0.6,0.1v1.8c-0.3-0.1-0.5-0.2-0.8-0.2
		c-0.6,0-1.1,0.3-1.4,0.7c-0.3,0.4-0.4,0.9-0.4,1.7v3.5H454.2z"/>
	<path class="st1" d="M466.2,112.5c-0.6,1.3-1.7,2.1-3.3,2.1c-2.4,0-3.7-1.6-3.7-4c0-2.4,1.4-3.9,3.6-3.9c2.4,0,3.4,1.7,3.4,4.4H461
		c0.1,1.3,0.8,2,2,2c0.8,0,1.4-0.3,1.7-1.2L466.2,112.5z M464.4,109.8c-0.1-1.2-0.7-1.8-1.6-1.8s-1.7,0.6-1.8,1.8H464.4z"/>
	<path class="st1" d="M472.5,114.4l-2.1-3.4l-1.1,1.2v2.2h-1.8v-10.6h1.8v6.3l2.8-3.2h2.1l-2.6,2.8l2.9,4.6H472.5z"/>
	<path class="st1" d="M480.4,114.4l-2.1-3.4l-1.1,1.2v2.2h-1.8v-10.6h1.8v6.3l2.8-3.2h2.1l-2.6,2.8l2.9,4.6H480.4z"/>
</g>
<g class="st0">
	<path class="st1" d="M269.1,103.8h3.3c1.9,0,2.7,0.1,3.5,0.5c1.5,0.7,2.1,2.5,2.1,4.7c0,1.7-0.5,3.2-1.4,4.1c-1,1-2.2,1.3-4.4,1.3
		h-3.1V103.8z M272.4,112.7c1.4,0,2.3-0.3,2.9-0.9c0.6-0.6,0.8-1.6,0.8-2.9c0-1.1-0.2-2.1-0.8-2.7c-0.5-0.5-1.1-0.8-2.6-0.8H271v7.3
		H272.4z"/>
	<path class="st1" d="M286.1,112.5c-0.6,1.3-1.7,2.1-3.3,2.1c-2.4,0-3.7-1.6-3.7-4c0-2.4,1.4-3.9,3.6-3.9c2.4,0,3.4,1.7,3.4,4.4
		h-5.2c0.1,1.3,0.8,2,2,2c0.8,0,1.4-0.3,1.7-1.2L286.1,112.5z M284.3,109.8c-0.1-1.2-0.7-1.8-1.6-1.8s-1.7,0.6-1.8,1.8H284.3z"/>
	<path class="st1" d="M288.2,112c0.4,0.8,1.1,1.2,1.9,1.2c0.8,0,1.2-0.3,1.2-0.8c0-0.5-0.3-0.7-1.4-1.1l-0.8-0.3
		c-1.2-0.4-1.9-1-1.9-2.2c0-1.2,1-2.2,2.9-2.2c1.2,0,2.3,0.5,2.9,1.5l-1.3,0.9c-0.4-0.7-0.9-1-1.7-1c-0.8,0-1.1,0.3-1.1,0.7
		c0,0.4,0.2,0.7,1.2,1l0.8,0.2c1.3,0.4,2.1,1,2.1,2.2c0,1.4-1.2,2.4-3,2.4c-1.5,0-2.6-0.7-3.2-1.7L288.2,112z"/>
	<path class="st1" d="M299.3,114.4l-2.1-3.4l-1.1,1.2v2.2h-1.8v-10.6h1.8v6.3l2.8-3.2h2.1l-2.6,2.8l2.9,4.6H299.3z"/>
	<path class="st1" d="M301.3,110.5v-1.4h4.3v1.4H301.3z"/>
	<path class="st1" d="M309.3,103.8c2.3,3.9,3.7,6,4.7,7.8c-0.1-1.6-0.1-3.8-0.1-7.8h1.9v10.6h-2.1c-2.2-3.6-3.6-5.9-4.7-7.8
		c0,0.9,0.1,3,0.1,7.8h-1.9v-10.6H309.3z"/>
	<path class="st1" d="M324.3,112.5c-0.6,1.3-1.7,2.1-3.3,2.1c-2.4,0-3.7-1.6-3.7-4c0-2.4,1.4-3.9,3.6-3.9c2.4,0,3.4,1.7,3.4,4.4
		h-5.2c0.1,1.3,0.8,2,2,2c0.8,0,1.4-0.3,1.7-1.2L324.3,112.5z M322.5,109.8c-0.1-1.2-0.7-1.8-1.6-1.8s-1.7,0.6-1.8,1.8H322.5z"/>
	<path class="st1" d="M329.3,114.3c-0.4,0.1-0.9,0.2-1.3,0.2c-0.7,0-1.2-0.2-1.5-0.5c-0.3-0.4-0.4-0.9-0.4-1.6v-4.1h-1.2v-1.4h1.2
		v-2.4h1.7v2.4h1.5v1.4h-1.5v3.7c0,0.8,0.2,1,0.8,1c0.2,0,0.5,0,0.7-0.1V114.3z"/>
</g>
</svg>
