<?xml version="1.0" encoding="utf-8"?>
<!-- Generator: Adobe Illustrator 24.2.1, SVG Export Plug-In . SVG Version: 6.00 Build 0)  -->
<svg version="1.1" id="Ebene_1" xmlns="http://www.w3.org/2000/svg" xmlns:xlink="http://www.w3.org/1999/xlink" x="0px" y="0px"
	 viewBox="0 0 75 75" style="enable-background:new 0 0 75 75;" xml:space="preserve">
<style type="text/css">
	.st0{fill:#9F9E97;}
	.st1{fill:#FFFFFF;}
</style>
<circle class="st0" cx="37.5" cy="37.5" r="37.5"/>
<g id="_x30_GNqio_1_">
	<g>
		<path class="st1" d="M30.8,46.3c1.6-4.6,3.2-9.2,4.9-13.8c1.2,0,2.3,0,3.5,0c-0.2,4.7-0.5,9.3-0.7,13.9c2.3-6.3,4.4-12.6,6.6-18.9
			c1.1,0,2.3,0,3.5,0c-3,8-5.9,16-8.9,24c-1.3,0-2.7,0-4.1,0c0.2-4.5,0.5-9.1,0.7-13.6c0,0-0.1,0-0.1,0c-1.6,4.6-3.2,9.1-4.7,13.7
			c-1.4,0-2.7,0-4.1,0c0.1-5.2,0.1-10.3,0.2-15.4c1.2,0,2.3,0,3.5,0c-0.1,3.4-0.3,6.8-0.4,10.2C30.7,46.3,30.8,46.3,30.8,46.3z"/>
		<path class="st1" d="M49.2,25.6c-1.1,0-2.2,0-3.3,0c0.3-0.9,0.7-1.7,1-2.6c-0.9,0-1.6,0-2.4,0c0,0,0-0.1,0-0.1
			c1.8-1.3,3.6-2.6,5.5-3.9c0.8,1.3,1.6,2.6,2.5,4c-0.7,0-1.4,0-2.1,0C50,23.9,49.6,24.8,49.2,25.6z"/>
	</g>
</g>
</svg>
