<?xml version="1.0" encoding="utf-8"?>
<!-- Generator: Adobe Illustrator 24.2.1, SVG Export Plug-In . SVG Version: 6.00 Build 0)  -->
<svg version="1.1" id="Ebene_1" xmlns="http://www.w3.org/2000/svg" xmlns:xlink="http://www.w3.org/1999/xlink" x="0px" y="0px"
	 viewBox="0 0 75 75" style="enable-background:new 0 0 75 75;" xml:space="preserve">
<style type="text/css">
	.st0{fill:#9F9E97;}
	.st1{fill:#FFFFFF;}
</style>
<circle class="st0" cx="37.5" cy="37.5" r="37.5"/>
<g>
	<path class="st1" d="M19.4,46.9c-1.1,0-2,0-3.1,0c0-6.2,0-12.4,0-18.6c1.4,0,2.7,0,4.1,0c0.2,0.4,0.4,0.8,0.5,1.2
		c1.1,2.7,2.3,5.3,3.4,8c0.6,1.3,1.1,2.6,1.7,3.9c0.1,0.1,0.1,0.3,0.3,0.3c0-0.1,0-0.3,0-0.4c0-0.4-0.1-0.8-0.1-1.3
		c0-0.4-0.1-0.7-0.1-1.1c0-3.4,0-6.8,0-10.2c0-0.2,0-0.3,0-0.5c1,0,2,0,3,0c0.1,0.4,0.1,18.1,0,18.6c-1.3,0-2.7,0-4.1,0
		c-0.4-0.9-0.8-1.8-1.2-2.7c-0.4-0.9-0.8-1.8-1.2-2.7c-0.4-0.9-0.8-1.8-1.2-2.7c-0.4-0.9-0.8-1.8-1.2-2.7c-0.4-0.9-0.7-1.8-1.2-2.7
		c-0.2,0.2-0.2,0.4-0.1,0.6c0.2,1.1,0.3,2.1,0.3,3.2c0,3.1,0,6.2,0,9.3C19.4,46.5,19.4,46.6,19.4,46.9z"/>
	<path class="st1" d="M45.7,46.9c-1.4,0-2.7,0-4.1,0c-0.1-0.2-0.2-0.4-0.3-0.6c-1.1-2.5-2.1-4.9-3.1-7.4c-0.7-1.7-1.5-3.5-2.2-5.2
		c-0.1-0.1-0.1-0.4-0.4-0.4c0,0.2,0,0.3,0,0.5c0.3,1.7,0.3,3.4,0.3,5.2c0,2.4,0,4.9,0,7.3c0,0.2,0,0.3,0,0.5c-0.3,0.1-2.3,0.1-3,0
		c-0.1-0.3-0.1-17.9,0-18.6c1.3,0,2.7,0,4.1,0c0.2,0.4,0.4,0.9,0.6,1.3c1.3,3,2.5,5.9,3.8,8.9c0.4,0.9,0.8,1.9,1.2,2.8
		c0.1,0.2,0.1,0.4,0.4,0.4c0-0.1,0-0.3,0-0.4c-0.2-1.2-0.2-2.4-0.2-3.5c0-3,0-5.9,0-8.9c0-0.2,0-0.4,0-0.6c1,0,2,0,3,0c0,0,0,0,0,0
		c0,0,0,0,0,0c0,0.1,0,0.2,0,0.2c0,6,0,12.1,0,18.1C45.8,46.7,45.7,46.8,45.7,46.9z"/>
	<path class="st1" d="M54.8,46.9c-1.1,0-2.2,0-3.4,0c0-0.6,0-1.2,0-1.7c0-0.6,0-1.1,0-1.7c0-0.6,0-1.2,0-1.8c0-0.6,0-1.1,0-1.7
		c0-0.6,0-1.2,0-1.8c0-0.6,0-1.1,0-1.7c0-0.6,0-1.2,0-1.8c0-0.6,0-1.1,0-1.7c0-0.6,0-1.2,0-1.8c-1.2,0-2.3,0-3.5,0c0-1,0-2,0-2.9
		c3.5,0,7,0,10.5,0c0,1,0,1.9,0,3c-1.2,0-2.3,0-3.5,0c-0.1,0.9,0,1.8,0,2.7c0,0.9,0,1.7,0,2.6c0,0.9,0,1.7,0,2.6s0,1.7,0,2.6
		c0,0.9,0,1.7,0,2.6C54.8,45.1,54.8,45.9,54.8,46.9z"/>
</g>
</svg>
