<?xml version="1.0" encoding="utf-8"?>
<!-- Generator: Adobe Illustrator 24.2.1, SVG Export Plug-In . SVG Version: 6.00 Build 0)  -->
<svg version="1.1" id="Ebene_1" xmlns="http://www.w3.org/2000/svg" xmlns:xlink="http://www.w3.org/1999/xlink" x="0px" y="0px"
	 viewBox="0 0 100 100" style="enable-background:new 0 0 100 100;" xml:space="preserve">
<style type="text/css">
	.st0{fill:#3A2F3C;}
	.st1{fill:#FFFFFF;}
</style>
<path class="st0" d="M100.1,50c0,27.6-22.4,50-50,50S-0.1,78.1-0.1,50.5S22.5,0,50.1,0S100.1,22.4,100.1,50z"/>
<g>
	<path class="st1" d="M21.4,60.1c-0.3,0-0.3-0.2-0.4-0.3c-0.4-0.9-0.7-1.9-1.1-2.8c-1.5-3.7-3-7.5-4.5-11.2
		c-0.1-0.1-0.1-0.2-0.2-0.4c0,0.2-0.1,0.4-0.1,0.5c-0.1,1.1-0.2,2.2-0.3,3.3s-0.2,2.2-0.3,3.3c-0.1,0.8-0.1,1.6-0.2,2.5
		c-0.1,0.8-0.1,1.7-0.2,2.5c0,0.4-0.1,0.8-0.1,1.2c0,0.9-0.1,1.7-0.1,2.6c0,0.2,0,0.4,0.1,0.5c0.1,0.5,0.5,0.8,1,0.9
		c0.1,0,0.1,0,0.2,0c0,0.1,0,0.2,0,0.3c0,0,0,0-0.1,0c-1.4-0.1-2.8-0.2-4.2,0.1c0-0.1,0-0.2,0-0.3c0.1,0,0.2-0.1,0.3-0.1
		c0.7-0.2,1-0.7,1.1-1.3c0.2-1.1,0.3-2.2,0.4-3.4c0.1-1,0.3-2,0.4-3.1c0.1-1,0.2-2.1,0.4-3.1c0.1-1,0.3-2.1,0.4-3.1
		c0.1-0.8,0.2-1.6,0.3-2.4c0.1-0.8,0.2-1.6,0.3-2.4c0.1-0.8,0.2-1.7,0.3-2.5c0.1-1,0.2-2.1,0.4-3.2c0.1,0,0.2,0,0.3,0
		c2.3,5.7,4.6,11.4,6.9,17.1h0.1c0.1-0.1,0.1-0.2,0.1-0.4c0.9-2.7,1.9-5.4,2.8-8.1c1-2.8,1.9-5.6,2.9-8.4c0.1-0.2,0.1-0.4,0.3-0.4
		c0,0.1,0.1,0.2,0.1,0.3c0.1,0.7,0.2,1.4,0.3,2.1c0.2,1.2,0.3,2.3,0.5,3.5c0.1,0.9,0.2,1.9,0.4,2.8c0.1,1,0.2,1.9,0.4,2.9
		c0.1,1,0.3,1.9,0.4,2.9s0.3,2,0.4,3s0.2,1.9,0.4,2.9c0.1,1,0.3,2,0.4,3c0.1,0.8,0.4,1.1,1.2,1.4v0.1c0,0.1,0,0.1,0,0.2
		c-1.7-0.2-3.3-0.2-5,0c0-0.1,0-0.2,0-0.3c0.1,0,0.2-0.1,0.3-0.1c0.5-0.2,0.8-0.6,0.7-1.2c-0.1-0.9-0.2-1.8-0.4-2.7
		c-0.1-0.9-0.3-1.9-0.4-2.8c-0.1-1-0.2-1.9-0.4-2.9c-0.1-0.9-0.3-1.9-0.4-2.8c-0.1-1-0.3-2-0.4-2.9c0-0.3-0.1-0.6-0.1-0.9
		c0-0.1,0-0.2-0.1-0.3c-0.2,0.1-0.2,0.3-0.2,0.4c-0.6,1.7-1.3,3.4-1.9,5.1c-1,2.7-2,5.4-3,8.1C21.5,59.9,21.5,60,21.4,60.1z"/>
	<path class="st1" d="M71,38.8c0-0.1,0-0.2,0-0.2l0.1-0.1c0.3,0,0.6,0,0.9,0c1.1,0,2.1,0.1,3.2,0.1c0.7,0,1.5-0.1,2.2-0.2
		c1.3-0.1,2.5-0.1,3.7,0.5c1.3,0.5,2.1,1.5,2.7,2.6c0.4,0.9,0.7,1.8,0.9,2.7c0.1,0.8,0.2,1.6,0.2,2.5c0,2.4-0.5,4.7-2.1,6.6
		c-0.8,1-1.7,1.7-3,2.1c-1.2,0.4-2.3,0.3-3.5-0.2c-0.1,0-0.2-0.1-0.3-0.1c-0.1,0-0.2-0.1-0.3-0.1c0,0.1,0,0.2,0,0.3c0,2,0,4.1,0,6.1
		c0,0.6,0.3,1,0.8,1.2c0.2,0.1,0.5,0.1,0.8,0.2c0,0.1,0,0.2,0,0.3c-1.1,0-2.1-0.1-3.2-0.1c-1,0-2.1,0.1-3.2,0.1c0-0.1,0-0.2,0-0.3
		c0.2,0,0.4-0.1,0.5-0.1c0.7-0.2,1-0.5,1.1-1.2c0-0.2,0-0.3,0-0.5c0-6.8,0-13.5,0-20.3c0-0.2,0-0.4,0-0.6c0-0.5-0.3-0.8-0.7-1
		C71.7,38.9,71.4,38.9,71,38.8z M75.8,53.1c0.3,0.4,0.6,0.8,1,1.1c1,0.8,2.5,0.6,3.3-0.1c0.5-0.4,0.8-0.9,1-1.5
		c0.6-1.3,0.7-2.6,0.8-4c0.1-0.9,0.1-1.9,0-2.8c-0.1-0.8-0.1-1.6-0.3-2.4c-0.2-0.9-0.4-1.7-0.9-2.5c-0.7-1.2-1.7-1.8-3.2-1.7
		c-0.7,0-1.3,0.3-1.9,0.7C75.8,44.3,75.8,48.7,75.8,53.1z"/>
	<path class="st1" d="M34.6,43.1c0.1-0.1,0.2-0.1,0.4-0.2c-0.1-1.3-0.3-2.7-0.3-4c0.3,1.3,0.6,2.6,1,3.9c0.1,0,0.2,0,0.3,0
		c0,0,0,0,0-0.1l0,0c0-1.3,0-2.6,0-3.8c0.1,0.5,0.2,1.1,0.3,1.6c0.1,0.7,0.2,1.4,0.3,2.1c0,0.1,0,0.1,0,0.2c0.1,0.5-0.1,0.8-0.6,0.9
		c-0.1,0-0.2,0.1-0.3,0.1c0.1,0.7,0.1,1.4,0.3,2.2c0.2-0.2,0.3-0.3,0.4-0.4c0.1-0.1,0.2-0.3,0.3-0.5c0.4-0.7,1-1.1,1.7-1.6
		c0.2-0.1,0.5-0.2,0.7-0.2s0.4,0,0.5-0.2c0.1-0.1,0.3-0.1,0.5-0.2c-0.1-0.1-0.2-0.3-0.3-0.4c-0.3-0.3-0.4-0.7-0.3-1.1
		c0-0.3,0.1-0.5,0.1-0.9c0.1-0.1,0.3-0.2,0.5-0.4c0.4-0.1,0.8-0.1,1.4-0.2c0.4,0.1,0.6,0.5,0.9,0.7c0.1,0.9-0.1,1.7-0.2,2.5
		c0.2,0.1,0.4,0.1,0.6,0.1c0.1,0,0.3,0.1,0.4,0.1c0.7,0.6,1.6,1.2,2.2,2c0.2,0.3,0.3,0.7,0.2,1c-0.1,0.2-0.1,0.3,0.1,0.7
		c0.4-0.2,0.6-0.5,0.8-0.8s0.3-0.6,0.4-0.9c0.2-0.4,0.3-0.8,0.5-1.2c0.1-0.1,0.3-0.1,0.4-0.1c0.2-0.5,0.3-0.9,0.3-1.4
		c0-0.6,0-1.2,0-1.8s0.2-1.1,0.8-1.4c0.3,0.1,0.5,0.3,0.7,0.6c0.1,0.1,0.1,0.3,0.1,0.4c0,0.2,0,0.4,0,0.7c0,0.1,0,0.3,0,0.4
		c0.3,0.1,0.6,0.1,0.8,0c0-0.2,0-0.3,0-0.4c0-0.3,0.1-0.6,0.1-0.9c0.1-0.4,0.4-0.6,0.7-0.8c0.4,0.2,0.7,0.6,0.7,1.1c0,0.3,0,0.7,0,1
		c0.3,0,0.5,0,0.8,0c0-0.1,0-0.2,0.1-0.3c0-0.2,0-0.3,0-0.5c-0.1-0.6,0.2-1,0.7-1.3c0.6,0.2,0.8,0.6,0.8,1.2c0,0.6,0,1.3,0,1.9
		c0,0.5,0.1,1,0.3,1.4c0.1,0,0.2,0.1,0.4,0.1c0.1,0.3,0.3,0.7,0.4,1c0.6,0.3,1.2,0.5,1.9,0.5c0.1-0.1,0.2-0.2,0.3-0.4
		c0.4-0.6,0.8-1.1,1.3-1.6c0.3-0.3,0.6-0.6,1.1-0.5c0.2-0.4,0.2-0.7,0.1-1.1c-0.1-0.3-0.1-0.6-0.1-1c0-0.3-0.2-0.6-0.3-0.9
		c0.3,0.1,0.5-0.1,0.7-0.3c0.4,0.2,0.7,0.2,1.1,0.1c0.1-0.1,0.2-0.1,0.2-0.2c0.1,0.1,0.2,0.2,0.4,0.2c0.1,0,0.2-0.1,0.3-0.1
		c-0.2,1,0.1,1.9,0.4,2.9c0.5,0,0.9,0.4,1.2,0.7c0.3,0.3,0.6,0.6,1,0.8c0.1,0.1,0.3,0.2,0.4,0.3c0.2-0.6,0.6-1.1,0.6-1.7v-0.1
		c-0.1-0.8,0.2-1.6,0.2-2.5c0-0.4,0.1-0.9,0.1-1.3c0-0.1,0-0.2,0-0.4c0.1,0,0.2,0,0.3,0c-0.1,0-0.1,0.1-0.2,0.1
		c-0.1,0.8-0.3,2.4-0.2,2.7c0.2,0,0.2-0.2,0.2-0.3c0.1-0.7,0.1-1.4,0.2-2.2c0-0.1,0-0.2-0.1-0.3c0.8,0.1,1.6,0.1,2.4,0.2
		c0,0.8-0.1,1.5-0.2,2.3c-0.7,0-1.4-0.1-2.2-0.1c0,0.2-0.1,0.3-0.1,0.4c0.1,0.2,0.2,0.4,0.3,0.6c0.1,0.2,0.1,0.4,0.1,0.6
		c-0.1,0.4-0.2,0.8-0.3,1.2c-0.2,0.6-0.3,1.2-0.5,1.8c0-0.2,0-0.3,0-0.5c0.1-0.1,0.1-0.2,0.2-0.3c0.1-0.4,0.2-0.8,0.3-1.2
		c0.1-0.4,0.2-0.8,0.3-1.3c-0.1-0.2-0.3-0.3-0.4-0.6c-0.2,0.1-0.3,0.3-0.4,0.5c0.1,0.2,0.3,0.3,0.5,0.5c-0.1,0-0.1,0.1-0.2,0.1
		c0-0.1-0.1-0.2-0.1-0.3c-0.1,0.1-0.2,0.2-0.2,0.2c0,0.3-0.1,0.6-0.1,0.8c-0.1,0.7-0.1,1.5-0.2,2.2c-0.1,1-0.2,2-0.3,3
		c-0.1,0.7-0.1,1.4-0.2,2.1c-0.1,0.7-0.1,1.4-0.2,2c0,0,0,0.1-0.1,0.1l0,0c0.1-0.7,0.1-1.4,0.2-2c0.1-0.7,0.1-1.4,0.2-2.1
		c0.1-0.9,0.2-1.7,0.2-2.6c0-0.1,0-0.1,0-0.2c-0.2-0.1-0.3-0.1-0.5-0.2c-0.2,0.2-0.1,0.5-0.2,0.7c-0.1,1.2-0.2,2.4-0.4,3.5
		c-0.1,0.8,0,1.6,0.1,2.3c0,0.3,0,0.5,0,0.8c0,0.4,0,0.7,0.2,1.1c0-0.2,0.1-0.3,0.1-0.4c0.1,0.2-0.1,0.5,0.2,0.6
		c0-0.2,0.1-0.3,0.1-0.4c0.1-0.7,0.1-1.4,0.2-2.1c0.1-0.7,0.1-1.4,0.2-2.1c0.1-0.7,0.1-1.5,0.2-2.2c0-0.4,0.1-0.8,0.2-1.2l0,0
		c-0.1,1-0.2,2.1-0.2,3.1c0.3,1.2,0.2,1.9,0.2,2.6c-0.1,0.7-0.1,1.4-0.2,2c0,0.3,0,0.6-0.1,0.8c0.2,0.4,0.4,0.9,0.6,1.3
		c0.1,0.1,0.2,0.1,0.3,0.1c0,0,0,0.1,0.1,0.1c0.1,0.3,0.1,0.6,0.2,0.9c0,0.1,0,0.3,0,0.4c0,0.2,0,0.4,0.2,0.6
		c0.1,0.1,0.1,0.2,0.2,0.3c0.1,0.3-0.1,0.5-0.4,0.6c-0.2,0-0.4,0.1-0.5,0.1c-1.2,0.1-2.3,0.2-3.5-0.2c-0.3-0.1-0.6-0.1-1-0.1
		s-0.7-0.1-1.1-0.1c-0.3,0-0.6,0-0.9,0.1c-0.5,0.2-1,0.1-1.5,0.1c-0.1,0-0.2-0.1-0.4-0.1c-0.1-0.1-0.1-0.2-0.2-0.3
		c-0.2-0.1-0.4-0.1-0.7-0.2C57,58.2,57,58,57,57.7c0.1-0.9,0.2-1.8,0.3-2.7c0.1-1,0.2-1.9,0.3-2.9c0.1-0.6,0.4-1,0.9-1.4
		c0.1-0.1,0.2-0.1,0.3-0.2c0.2-0.1,0.3-0.3,0.4-0.5c0-0.1,0.1-0.2,0.1-0.2c0.1-0.3,0.2-0.6,0.6-0.8c0.4-0.2,0.5-0.5,0.5-1
		c-0.1-0.5-0.1-1.1-0.2-1.6c0-0.1,0-0.2-0.1-0.2c-0.3-0.3-0.3-0.7-0.2-1.1V45c-0.3,0.3-0.5,0.6-0.8,0.9c-0.3,0.3-0.5,0.6-0.7,0.8
		c-0.1,0.4-0.1,0.7-0.2,1c-0.2,0.8-0.4,1.5-0.5,2.3c-0.1,0.4-0.2,0.8-0.7,0.9c-0.2,0.8-0.3,1.6-0.5,2.5c0,0,0.1,0.1,0.2,0.1
		c0.4,0.4,0.4,0.7,0.1,1.1c-0.7,0.9-1.4,1.8-2.1,2.7c-0.2,0.3-0.5,0.2-0.7,0.2c-0.1-0.1-0.3-0.1-0.4-0.2c-0.7,0.6-1.4,1.2-2.2,1.7
		c-0.8-0.4-1.4-1-2.2-1.5c-0.3,0-0.6,0.2-0.9,0.2c-0.1-0.1-0.1-0.1-0.1-0.2c-0.7-0.9-1.4-1.8-2.2-2.6c-0.4-0.5-0.3-0.9,0.2-1.3
		c0,0,0,0,0.1-0.1c-0.2-0.8-0.3-1.6-0.5-2.4l0,0c-0.6-0.3-0.7-0.8-0.8-1.3c-0.1-0.6-0.2-1.2-0.4-1.8c0-0.1-0.1-0.2-0.1-0.2
		c-0.5,0.1-0.8,0.4-0.9,0.9c-0.1,0.3-0.1,0.6-0.2,0.9c-0.1,0.1-0.2,0.1-0.3,0.2c0,0.2-0.2,0.4-0.1,0.6c0.2,0.2,0.4,0.3,0.5,0.5
		c0.1,0.1,0.2,0.2,0.4,0.3c0.2,0.2,0.5,0.4,0.7,0.6c0.4,0.3,0.6,0.7,0.6,1.2c0,0.7,0.1,1.3,0.2,1.9c0.1,0.6,0.3,1.2,0.4,1.8
		c0.1,0.8,0.6,1.5,1.2,2c0.1,0.1,0.2,0.2,0.3,0.3c0.2,0.2,0.2,0.4,0.1,0.5c-0.1,0.2-0.3,0.3-0.5,0.2c-0.3-0.1-0.6-0.2-0.8-0.4
		s-0.4-0.4-0.7-0.5C45,58.7,44.8,58.4,45,58c0.1-0.4,0-0.6-0.2-0.9c-0.4-0.6-0.8-1.3-0.9-2c-0.1-0.4-0.1-0.7-0.1-1.1
		c0-0.1,0-0.3-0.2-0.3c0,0.3-0.1,0.7-0.1,1c0,0.9,0.1,1.7,0.2,2.6c0,0.5,0.1,1.1,0.1,1.6c-0.1,0.2-0.3,0.2-0.5,0.2
		c-0.6,0-1.2,0-1.8,0s-1.2,0.1-1.8,0.1c-0.5,0-0.9,0-1.4,0c0,0.2,0,0.3,0,0.5c-0.2,0.1-0.3,0.1-0.5,0.1c-0.1-0.2-0.1-0.3-0.2-0.5
		c-0.3-0.1-0.7,0.1-1-0.2c-0.4,0.1-0.8,0.3-1.3,0.2c-0.1-0.2-0.2-0.4-0.3-0.6c0-0.5,0.5-0.7,0.6-1.2c0-0.1-0.1-0.3-0.2-0.4
		c-0.3-0.6-0.3-1.2-0.1-1.9c0.1-0.3,0.3-0.6,0.4-0.9c0.2-0.4,0.4-0.9,0.6-1.3c0.1-0.2,0.2-0.4,0.4-0.6c-0.1-0.4-0.1-0.9-0.2-1.4
		c-0.3-0.2-0.5-0.5-0.8-0.7c0-0.9-0.1-1.8-0.1-2.7c0-0.2,0-0.4,0.1-0.5c0.1-0.5,0.1-0.9,0.1-1.4c-0.1-0.6-0.2-1.2-0.3-1.9
		c-0.2,0-0.4,0-0.6,0c-0.5,0-0.8-0.2-0.9-0.7c-0.2-1.2-0.3-2.4-0.5-3.6c0-0.1,0-0.1,0.1-0.2c0.2,0.7,0.5,1.5,0.7,2.2
		c0.1,0.4,0.2,0.9,0.4,1.3C34.4,42.8,34.4,43,34.6,43.1c-0.1-0.1-0.2,0-0.3,0c-0.2-0.7-0.4-1.4-0.6-2.1c0,0.7,0.1,1.4,0.2,2.1
		c0,0.2,0.1,0.3,0.2,0.5c0.1,0,0.3,0.1,0.3,0.1c0.6-0.1,1.2-0.2,1.8-0.3c0.2-0.2,0.3-0.5,0.3-0.7c-0.1-0.4-0.1-0.7-0.1-1.1
		c-0.1-0.3,0-0.7-0.2-1c0-0.1,0-0.1,0-0.2c0,0,0,0-0.1,0l0.1,0.1c0,0.8,0,1.5,0,2.3c-0.2,0-0.4,0.1-0.7,0.1
		c-0.2-0.8-0.3-1.6-0.5-2.4c-0.1,0.8,0.1,1.6,0.1,2.5C35,43,34.8,43,34.6,43.1z M68.2,40.4c0,0.2,0,0.4,0,0.7c0.3,0,0.6,0.2,1,0.1
		c0-0.3,0.1-0.5,0.1-0.9c-0.3-0.1-0.6-0.1-0.9-0.2C68.3,40.2,68.2,40.3,68.2,40.4c0-0.1,0-0.2-0.1-0.3c-0.3,0-0.6-0.1-0.9-0.1
		c-0.1,0.4-0.1,0.7-0.1,1c0.4,0.1,0.6,0.1,0.9,0C68.1,40.8,68.1,40.6,68.2,40.4z M41.7,51.8c0.5-0.3,1-0.5,1.6-0.9
		c-0.1-0.1-0.2-0.2-0.2-0.2c-1.2,0.4-2.7,1.1-3.2,1.6c0.1,0,0.2,0.1,0.3,0.1c0.5,0,1.1,0,1.6,0c0.2,0,0.5-0.1,0.7-0.3
		c0.3-0.2,0.6-0.4,0.9-0.6c0.1-0.1,0.2-0.2,0.3-0.2v-0.1c-0.1,0-0.2,0.1-0.3,0.1c-0.3,0.1-0.5,0.3-0.8,0.4
		C42.2,51.7,41.9,51.8,41.7,51.8z M58.1,51.5c-0.3,0.2-0.3,0.5-0.3,0.8c-0.1,0.8-0.2,1.6-0.3,2.4c-0.1,0.8-0.2,1.7-0.3,2.5
		c0,0.3-0.1,0.6-0.1,1c0.3,0.3,0.5,0.3,0.9,0.3c0.3-0.1,0.5-0.2,0.5-0.5c-0.2-0.3-0.5-0.4-0.8-0.6c0-0.5,0.1-1,0.1-1.5
		s0.1-1,0.1-1.5C58,53.3,58,52.4,58.1,51.5C58.2,51.5,58.2,51.5,58.1,51.5C58.2,51.5,58.1,51.5,58.1,51.5z M38.8,53.4
		c0.1,0,0.1,0,0.2,0c0.5,0.1,0.9,0.1,1.4-0.2c0.3-0.2,0.7-0.4,1.1-0.5c0.1,0,0.1-0.1,0.2-0.1c-0.4-0.1-0.7-0.1-0.9-0.1
		c-0.9,0.1-1.8-0.1-2.6-0.5c-0.1,0-0.1-0.1-0.2-0.1c-0.1,0-0.2-0.1-0.4-0.1c-0.1,0.2-0.3,0.3-0.4,0.5c0.1,0.6,0.1,1.1,0.2,1.6
		c0,0.2,0.1,0.4,0.3,0.6c0.4,0.4,0.9,0.8,1.5,1c0.4,0.2,0.8,0.1,1.1-0.2c1.2-1.1,2.4-2.2,3.6-3.4c0.1-0.1,0.2-0.2,0.3-0.3
		c-0.1,0-0.2-0.1-0.3-0.1c-0.3,0.2-0.7,0.3-1,0.5c-1,0.6-1.8,1.2-2.9,1.7C39.5,53.9,39.2,53.9,38.8,53.4z M61.9,43.1
		c0,0.2-0.2,0.3-0.4,0.4c-0.3,0-0.6-0.1-1-0.2c-0.3-0.1-0.5,0-0.7,0.2c-0.6,0.5-1.1,1.1-1.5,1.7c-0.1,0.2-0.3,0.4-0.4,0.6
		c-0.3,0-0.5,0-0.8-0.1c-0.5-0.1-0.9-0.2-1.4-0.3c-0.4-0.1-0.6,0-0.9,0.2c0.2,0.1,0.3,0.1,0.5,0.1c0.4,0,0.7,0.1,1.1,0.2
		c0.4,0.2,0.8,0.4,1.2,0.5c0.2,0.1,0.4,0.1,0.6,0.2c0.6-0.8,1.2-1.5,1.9-2.3c0.2,0.2,0.1,0.5,0.1,0.7c-0.1,0.3-0.1,0.6,0.1,0.8
		c0.4,0.3,0.7,0.1,1.1-0.1c-0.1,0.2-0.1,0.4-0.2,0.5c-0.2,0.1-0.4,0.1-0.6,0.2c0,0.3,0.1,0.6,0.1,0.9c0,0.3,0,0.6,0,0.9
		c0,0.3-0.1,0.6,0,0.9c0.5-0.2,0.9-0.4,1.1-0.9c0.3-0.7,0.4-1.5,0.6-2.2c-0.1-0.1-0.2-0.2-0.3-0.4c0.1,0.1,0.2,0.1,0.3,0.2
		c0.1-0.6,0.3-1.2,0.4-1.8c-0.1,0-0.2,0-0.3-0.1c-0.1-0.5-0.1-1.1-0.4-1.5c0-0.3,0-0.5,0-0.8c0-0.2-0.1-0.4-0.1-0.6
		c-0.1-0.2-0.2-0.3-0.4-0.3c-0.3,0-0.5,0-0.7,0.2c0,0.2,0,0.5,0,0.7c0.1,0,0.2-0.1,0.3-0.1c0.1,0.1,0.1,0.1,0.2,0.2
		c0,0.2,0,0.3,0,0.4c0.1,0.1,0.1,0.2,0.2,0.3c-0.1,0-0.2,0-0.2,0.1c0-0.2-0.1-0.4-0.1-0.7c-0.3,0.4-0.1,0.8,0.3,1.3
		C61.5,43.4,61.7,43.2,61.9,43.1z M42.3,55c-0.1,0.2-0.1,0.4-0.2,0.6c-0.3,1-0.6,1.9-0.9,2.9c0,0.1-0.1,0.3-0.1,0.5
		c0.4,0.1,0.8,0.1,1.2,0c0.4,0,0.8,0.1,1.2-0.1c0-0.2-0.1-0.3-0.1-0.4c-0.1-0.4-0.2-0.8-0.3-1.3C43,56.9,43,56.6,43,56.3
		c0.2-1.1,0.4-2.2,0.5-3.3c0-0.2,0.1-0.3,0.1-0.6c-0.2,0.2-0.4,0.3-0.5,0.4c-0.4,0.4-0.8,0.8-1.2,1.2c-0.3,0.3-0.6,0.7-0.9,1
		c-0.4,0.3-0.8,0.7-1.2,0.9c-0.3,0.2-0.6,0.2-0.9,0c-0.4-0.3-0.8-0.7-1.2-1.1c-0.1-0.1-0.1-0.1-0.2-0.2c0.1,0.4,0.1,0.6,0.1,0.9
		c0,0.3,0.1,0.5,0.2,0.8c0.3,0.5,0.5,0.9,0.8,1.4c0.2,0.3,0.3,0.7,0.1,1c0,0.1,0,0.2,0,0.3c0.5,0,0.9,0,1.3,0c0.3,0,0.6-0.1,0.7-0.4
		c-0.2-0.5-0.5-0.7-1.3-0.6c0.1-0.1,0.2-0.2,0.2-0.3c0.3-0.2,0.4-0.4,0.6-0.7c0.4-0.8,0.9-1.5,1.6-2.1l0,0c-0.1,0.2-0.1,0.3-0.2,0.4
		c-0.2,0.3-0.5,0.7-0.7,1s-0.4,0.6-0.5,0.9c-0.1,0.3-0.1,0.5,0.2,0.7c0.2,0.1,0.3,0.2,0.5,0.4c0.1-0.1,0.1-0.2,0.1-0.3
		c0.1-0.3,0.2-0.6,0.3-0.9C41.6,56.3,41.9,55.6,42.3,55z M59.6,53.1c0.1,0.1,0.1,0.2,0.2,0.3c0.2,0.5,0.4,1,0.7,1.4
		c0.4,0.7,0.9,1.2,1.7,1.5c0.5,0.2,1,0.2,1.5,0c0.6-0.3,0.9-0.8,1.3-1.3c-0.2,0-0.3,0-0.5,0c-0.3,0.1-0.6,0.2-0.9,0.3
		c-0.7,0.2-1.3,0.1-1.8-0.6c-0.5-0.7-1-1.4-1.4-2.2c-0.2-0.3-0.3-0.6-0.4-0.9h0.1c0.2,0.3,0.3,0.6,0.5,0.9c0.4,0.8,1,1.5,1.8,2
		c0.2,0.2,0.5,0.3,0.8,0.3c0.6,0,1.2,0,1.7-0.1c0.1,0,0.2-0.1,0.3-0.1c-0.2-0.3-0.2-0.7-0.4-1.1c-0.5,0-1-0.1-1.5-0.1
		c-0.3,0-0.6-0.1-0.8-0.3c-0.3-0.3-0.7-0.6-1-0.9c-0.3-0.4-0.7-0.7-1-1.1c-0.1-0.1-0.2-0.2-0.4-0.2c-0.3-0.1-0.7-0.2-1-0.3
		c-0.1,0.1-0.2,0.2-0.4,0.2c-0.4,0.2-0.6,0.5-0.6,1c-0.1,0.7-0.1,1.4-0.2,2.1c-0.1,0.8-0.1,1.6-0.2,2.4c0,0.3,0,0.5,0,0.8
		c0.2,0.1,0.4,0.3,0.7,0.4c0-0.2,0-0.3,0-0.4c0-0.4,0-0.9,0-1.3c0-1.1,0.1-2.1,0.1-3.2c0.1,0.6,0.1,1.2,0.1,1.8c0,0.8,0,1.6,0,2.4
		c0,0.4,0,0.9,0.1,1.2c0.3,0.1,0.6,0.2,0.9,0.4c0.3,0.2,0.6,0.3,1,0.2c0.2,0,0.4,0,0.6,0c0.4,0.1,0.9,0.2,1.3,0.3
		c0.8,0.2,1.6,0.3,2.4,0.2c0.5-0.4,1-0.9,1.6-1.3c0.2-0.5-0.2-0.9-0.1-1.3c-0.1,0.1-0.2,0.2-0.3,0.3c-0.3,0.3-0.6,0.7-1,1
		c-0.3,0.4-0.7,0.4-1.2,0.2c-0.6-0.3-1.3-0.6-2-0.9c-0.7-0.3-1.2-0.8-1.5-1.5c-0.2-0.5-0.5-0.9-0.6-1.4
		C59.8,53.8,59.7,53.4,59.6,53.1L59.6,53.1z M56.8,54.1c-0.1-0.1-0.1-0.2-0.1-0.2c-0.1-0.1-0.3-0.3-0.4-0.4c0.2-0.9,0.4-1.7,0.6-2.6
		c0.6-0.3,0.8-1,0-1.5c0-0.6,0.1-1.3,0.1-1.9c-0.3-0.3-0.6-0.5-0.9-0.7c0.1,0.5,0.1,0.9,0.1,1.3c0.1,0.6,0.1,1.3,0.1,1.9
		c0,0.6-0.1,1.2-0.1,1.9c-0.1,0.9-0.3,1.7-0.8,2.4c-0.3,0.5-0.6,0.9-0.9,1.3c-0.9,1.1-2,2-3.3,2.8c-1.2-0.8-2.3-1.7-3.2-2.8
		c-0.7-0.8-1.2-1.8-1.5-2.8c-0.4-1.7-0.3-3.4-0.1-5.2c0-0.3,0.1-0.7,0.1-1h-0.1c-0.3,0.3-0.6,0.5-0.9,0.8c0.1,0.7,0.1,1.4,0.1,2.1
		c-0.4,0.1-0.6,0.3-0.6,0.6c0,0.4,0.3,0.5,0.6,0.6c0.1,0.5,0.1,0.9,0.2,1.4c0.1,0.5,0.3,0.9,0.3,1.4c-0.1,0.1-0.2,0.1-0.3,0.2
		c-0.3,0.3-0.3,0.5-0.1,0.9l0.1,0.1c0.5,0.6,1,1.2,1.5,1.9c0.1,0.1,0.1,0.2,0.2,0.3c0.2-0.2,0.3-0.3,0.4-0.5
		c1.1,0.9,2.1,1.8,3.2,2.5c1.2-0.7,2.2-1.6,3.2-2.6c0.2,0.2,0.3,0.3,0.4,0.5c0.6-0.8,1.1-1.5,1.7-2.2C56.8,54.5,56.8,54.3,56.8,54.1
		z M42.1,44.3c-0.2,0-0.4-0.1-0.6-0.1c-0.5,0-0.7-0.5-1-0.8c0,0.1,0,0.2,0,0.3c0.1,0.9,0.2,1.8,0.2,2.7c0,0.6,0.3,1.1,0.7,1.6
		c0.2,0.2,0.5,0.4,0.8,0.5l0.1-0.1c0-0.5,0.1-1.1,0.1-1.6c-0.1-0.1-0.3-0.2-0.4-0.3c-0.1-0.1-0.3,0-0.4-0.3c0.1,0,0.2,0,0.3,0.1
		c0.1,0,0.2,0.1,0.3,0.1c0.3,0.1,0.5-0.1,0.6-0.3s0.2-0.5,0.2-0.8c0-0.1,0.1-0.3,0.1-0.4c0.2,0.3,0.4,0.5,0.7,0.7
		c0.2,0.2,0.5,0.4,0.8,0.5c-0.3,0.5-0.6,1-0.9,1.5c-0.1,0.2-0.3,0.4-0.5,0.7c-0.1,0-0.2,0.2-0.2,0.3c0,0.3,0,0.6,0,0.9
		c0,0.1,0.1,0.1,0.1,0.2c0.1-0.2,0.1-0.3,0.2-0.4c0.1-0.2,0.2-0.5,0.2-0.7c0-0.3,0.2-0.5,0.5-0.8c0.5-0.4,0.9-0.8,1.3-1.2
		c0.2-0.2,0.3-0.4,0.3-0.6c-0.2-0.6-0.6-1-1.1-1.4c-0.3-0.2-0.6-0.5-0.8-0.7c-0.4-0.4-0.8-0.5-1.4-0.4C42.3,43.7,42.2,44,42.1,44.3z
		 M51.4,58.2c0.2-0.1,0.3-0.2,0.5-0.3c0.8-0.5,1.5-1.2,2.1-1.8c1.4-1.4,2.1-3.1,2.3-5.1c0.1-1.5-0.1-3-0.3-4.5
		c0-0.2-0.1-0.3-0.1-0.4c-0.6-0.1-8.5-0.1-8.8,0c0,0.1-0.1,0.3-0.1,0.4c-0.1,0.8-0.2,1.5-0.3,2.3c-0.1,1.1-0.1,2.3,0.1,3.4
		c0.2,1.2,0.7,2.4,1.5,3.3C49.2,56.5,50.2,57.4,51.4,58.2C51.2,58.1,51.3,58.1,51.4,58.2z M36.7,46.9c-0.2,0.5-0.3,1.1-0.1,1.6
		c0,0.1,0,0.1,0,0.2c0.1,0.5,0.1,1,0.4,1.5c0.1,0.1,0.1,0.2,0.1,0.3c0,0.2-0.1,0.4-0.1,0.7c0.1,0.2,0,0.6,0.2,0.8
		c0.3-0.2,0.5-0.5,0.7-0.7c0.2-0.3,0.3-0.5,0.6-0.6c0.1-0.1,0.2-0.2,0.3-0.3c0-0.1,0-0.2-0.1-0.2c-0.1-0.3-0.1-0.6,0-1
		c0.2-0.7,0.3-1.5,0.4-2.2c-0.1-0.2-0.2-0.4-0.2-0.6c-0.1-0.2-0.1-0.4-0.3-0.6C37.9,46.1,37.3,46.5,36.7,46.9z M39.6,49.7
		c0.1-1.6,0.2-3.1,0.3-4.7c0.1,0.1,0.1,0.1,0.1,0.2c0,0.9,0.3,1.8,0.5,2.7c0.2,0.6,0.5,1.2,1.1,1.5c0.4,0.2,0.8,0.3,1.2,0.5
		c0,0,0.1,0,0.2,0c0-0.2-0.1-0.4-0.1-0.5c-0.3-0.2-0.6-0.4-0.9-0.6c-0.5-0.3-0.9-0.8-1.2-1.4c-0.2-0.4-0.2-0.9-0.3-1.3
		c0-0.6-0.1-1.2-0.1-1.8c0-0.3-0.1-0.6-0.1-0.9c0-0.1-0.1-0.1-0.1-0.2c-0.1,0-0.2,0.1-0.3,0.1c0,0.2-0.1,0.3-0.1,0.5
		c-0.3,1.8-0.6,3.5-0.9,5.3c0,0.2,0,0.4,0,0.5c0,0.3,0.1,0.6,0.1,1c0.3,0.1,1.1,0.2,1.4,0.1c0-0.8,0-1.5,0-2.3
		c0-0.5-0.2-0.9-0.3-1.3H40C39.9,47.9,39.9,48.8,39.6,49.7z M47.3,59.4c0.1-0.3-0.1-0.4-0.2-0.5c-0.4-0.4-0.7-0.7-1.1-1.1
		c-0.2-0.2-0.2-0.3-0.3-0.6c-0.1-0.5-0.2-1.1-0.3-1.6c-0.2-0.9-0.4-1.8-0.4-2.7c0-0.6-0.3-0.9-0.8-1.2c-0.6,0.4-0.4,1-0.6,1.4
		c0.1,0.3,0.2,0.5,0.2,0.8c0.1,0.6,0.1,1.2,0.4,1.7c0.3,0.5,0.5,1,0.7,1.5c0.1,0.2,0.2,0.4,0.1,0.7c0,0.2,0,0.4,0,0.6
		c0.1,0.1,0.3,0.2,0.4,0.2c0.3,0.1,0.5,0.3,0.7,0.5c0.1,0.1,0.1,0.1,0.2,0.2C46.8,59.5,47,59.5,47.3,59.4z M50.2,45.2
		c0.8,0,1.5,0,2.3,0c0.2-0.3,0.3-0.6,0.5-1c0.3,0,0.6,0,0.9,0c0.3,0,0.6,0.1,0.8-0.1c0-0.1,0-0.2-0.1-0.3c0-0.1-0.1-0.2-0.1-0.2
		c-0.4-0.1-5.8-0.1-6.2,0c-0.1,0.2-0.1,0.3-0.2,0.5c0.6,0.1,1.2,0,1.7,0.1C49.9,44.6,50.1,44.9,50.2,45.2z M40.4,42.1
		c0,0.2,0,0.5,0,0.7c0,0,0,0-0.1,0c0.3,0.4,0.6,0.9,0.8,1.3c0.3,0,0.6,0.1,0.9,0c0-0.1,0.1-0.3,0.1-0.4c-0.2,0-0.4-0.1-0.5-0.1
		c0,0,0,0,0-0.1c0.2,0,0.3-0.1,0.5-0.1c0.2-0.3,0.3-0.6,0.3-0.9c0-0.1,0-0.3-0.3-0.3c0,0.2,0,0.5,0,0.7c-0.1,0-0.2-0.1-0.3-0.1
		c0.1-0.1,0.2-0.1,0.2-0.2c0-0.3-0.2-0.5,0.1-0.7c0.1,0,0.2,0,0.3,0c0-0.2,0-0.3,0-0.4c0.1,0,0.1,0,0.1-0.1c0-0.2,0-0.4,0-0.7
		c-0.2-0.2-0.5-0.4-0.6-0.5c-0.5-0.1-0.8,0.1-1.2,0.1c-0.3,0-0.6,0.2-0.7,0.4c-0.1,0.4-0.2,0.7-0.2,1c0.1,0.5,0.2,0.5,0.5,0.5
		c0.1-0.2,0.2-0.4,0.2-0.6c0.1-0.3,0.3-0.4,0.6-0.4s0.5,0,0.8,0c-0.3,0.2-0.7,0.1-1,0.1C40.5,41.4,40.4,41.7,40.4,42.1z M59.4,50.4
		c0.6-0.1,1.2-0.1,1.7-0.3c0.1,0,0.2-0.1,0.2-0.1c0.5-0.5,1-1,1.2-1.8c0.4-1.4,0.7-2.9,0.8-4.4c0-0.2,0-0.4,0-0.7
		c-0.2,0-0.3,0.1-0.4,0.3c-0.1,0.2-0.1,0.4-0.1,0.6c-0.3,1.3-0.6,2.7-0.9,4c-0.1,0.2-0.1,0.5-0.3,0.7c-0.4,0.5-0.9,0.8-1.5,0.9
		c-0.2,0-0.3,0.1-0.5,0.1C59.5,49.9,59.3,50.1,59.4,50.4z M36,54.1c0,0.1,0,0.1,0,0.2c-0.2,1.1-0.3,2.1-0.5,3.2
		c0,0.3-0.1,0.5-0.3,0.7c-0.1,0.1-0.2,0.3-0.3,0.5c0.1,0.2,0.2,0.3,0.3,0.5c0.3-0.1,0.5-0.1,0.7-0.2c0-0.1,0-0.2,0.1-0.2
		c0.2-1,0.3-2.1,0.5-3.1c0.2-0.9,0.2-1.7,0-2.6c0-0.1,0-0.1-0.1-0.2c-0.2,0.2-0.2,0.2-0.3,0.4c-0.2,0.3-0.3,0.7-0.5,1
		c-0.5,0.8-0.5,1.6-0.3,2.4c0,0,0.1,0.1,0.1,0.2C35.6,55.8,35.8,55,36,54.1z M39.5,43.5c-0.4-0.1-0.8-0.1-1.1,0.2
		c-0.2,0.2-0.4,0.3-0.6,0.4c-0.3,0.2-0.5,0.4-0.7,0.7c-0.3,0.4-0.5,0.9-1,1.2c0,0.4,0,0.7,0.2,1.1c0.1-0.2,0.1-0.4,0.2-0.5
		c0.4-0.2,0.7-0.4,1.1-0.7c0.3-0.3,0.7-0.6,1-0.8c0.2,0.4,0.2,0.8,0.5,1.2c0.1-0.8,0.3-1.5,0.4-2.3C39.5,43.9,39.5,43.7,39.5,43.5z
		 M64.4,50.5c-0.6,0.7-1.3,0.7-2,0.7c-0.4,0-0.8-0.1-1.3-0.2c-0.1,0-0.3-0.1-0.5,0c0.4,0.4,0.8,0.7,1.2,1s0.8,0.5,1.3,0.7
		s1,0.3,1.5,0.5c0.1,0,0.1,0,0.3,0c-0.2-0.2-0.2-0.3-0.4-0.4c-0.4-0.3-0.8-0.7-1.2-1c-0.1-0.1-0.2-0.2-0.3-0.4
		c0.7,0.3,1.2,0.8,1.8,1.2C64.9,51.9,64.7,51.2,64.4,50.5z M66.1,56.3c-0.2-0.9-0.4-1.2-0.8-1.4c-0.2,0.2-0.3,0.4-0.5,0.6
		c-0.3,0.3-0.6,0.7-0.9,1c-0.3,0.3-0.7,0.5-1.2,0.5c-0.1,0-0.1,0-0.3,0c0.3,0.2,1.4,0.8,1.7,0.8c0.2,0,0.4,0.1,0.6,0.1
		C65.2,57.5,65.7,56.8,66.1,56.3z M53,42.2c-0.6-0.1-2.9-0.1-3.2,0c0,0.4,0,0.8,0,1.3c1.1,0,2.1,0,3.2,0C53,43,53,42.6,53,42.2z
		 M63.9,49.6c0.4-1.4,0.5-2.8,0.8-4.2c-0.3-0.2-0.5-0.5-0.8-0.6c0,0.1-0.1,0.2-0.1,0.2c-0.2,1.1-0.5,2.1-0.5,3.2
		C63.3,48.7,63.5,49.1,63.9,49.6z M61.3,50.8c0.1,0.1,0.1,0.1,0.2,0.1c0.2,0,0.3,0.1,0.5,0.1c1,0.3,1.8-0.3,2.5-0.9
		c0.1-0.1,0.1-0.2,0.2-0.4c0.3-0.8,0.5-1.6,0.6-2.4c0.1-0.8,0.2-1.5,0.4-2.3c0-0.1,0-0.1,0-0.2c-0.1-0.1-0.2-0.3-0.4-0.2
		c0,0.1-0.1,0.1-0.1,0.2c-0.3,0.7-0.4,1.5-0.5,2.3c-0.1,0.7-0.2,1.4-0.4,2.1c-0.1,0.3-0.2,0.5-0.4,0.7c-0.4,0.3-0.9,0.6-1.5,0.7
		C62,50.7,61.7,50.7,61.3,50.8z M49.6,44.3c-0.7,0.1-1.3,0.1-1.9,0.2c-0.2,0.4-0.4,0.8-0.5,1.3c0.1,0,0.2,0.1,0.2,0.1
		c0.9,0,1.7,0,2.6,0c0.1,0,0.1-0.1,0.2-0.1C50,45.2,49.8,44.8,49.6,44.3z M54.3,45.8c0.2-0.1,0.4-0.3,0.6-0.4
		c0.2-0.1,0.4-0.1,0.6-0.2c-0.1-0.3-0.2-0.7-0.4-0.9c-0.7,0-1.4,0-2,0c-0.2,0.5-0.4,0.9-0.6,1.4C52.9,45.8,53.7,45.8,54.3,45.8z
		 M43.2,45.4c-0.1,0.3-0.2,0.5-0.3,0.8c-0.2,0.4-0.3,0.7-0.3,1.1c-0.1,0.4-0.1,0.8-0.1,1.2c0,0.3,0.1,0.3,0.3,0.4v-0.1
		c0-0.3,0.1-0.6,0.3-0.8c0.4-0.6,0.8-1.1,1.2-1.8c-0.2-0.1-0.4-0.3-0.6-0.4C43.6,45.7,43.4,45.5,43.2,45.4z M53.2,43.5
		c0.4,0,0.7,0.1,1.1,0c0-0.8,0-1.5,0-2.3c-0.5-0.1-0.8-0.1-1.1,0C53.2,41.9,53.2,42.7,53.2,43.5z M49.4,41.1c-0.4-0.1-0.7-0.1-1.1,0
		c-0.1,0.6-0.1,2,0,2.3c0.3,0,0.7,0.1,1,0C49.4,42.7,49.4,41.9,49.4,41.1z M41.1,51.1C41,51,41,51,41.1,51.1
		c-0.9-0.4-1.7-0.3-2.5-0.3c-0.4,0-0.5,0.4-0.7,0.7c0.3,0.3,0.7,0.5,1.1,0.6C39.7,51.8,40.4,51.5,41.1,51.1z M63.2,46.5
		C63.1,46.5,63.1,46.5,63.2,46.5c-0.2,0.4-0.3,0.8-0.4,1.3c-0.1,0.6-0.3,1.3-0.7,1.8c-0.4,0.6-0.9,0.8-1.6,0.9c-0.1,0-0.2,0-0.3,0
		s-0.1,0-0.3,0.1c0.3,0.2,0.6,0.3,0.9,0.2c0.2-0.1,0.5-0.1,0.7-0.1c0.5-0.1,0.8-0.3,1.1-0.7c0.2-0.3,0.3-0.7,0.4-1
		c0.1-0.6,0.1-1.2,0.1-1.9C63.2,46.8,63.2,46.7,63.2,46.5z M37.8,59.6C37.8,59.6,37.9,59.6,37.8,59.6c0.1-0.1,0.2-0.1,0.2-0.2
		c0-0.2,0-0.3,0-0.5c-0.1-0.9-0.3-1.7-0.4-2.6c-0.2-1.5-0.4-2.9-0.6-4.4c0-0.3-0.1-0.5-0.1-0.8c0-0.1-0.1-0.3-0.3-0.2
		c0.4,2.8,0.8,5.6,1.2,8.3C37.7,59.4,37.8,59.5,37.8,59.6z M36.8,55.2c-0.1,0.4-0.1,0.7-0.1,1.1c-0.1,0.7-0.1,1.5-0.1,2.2
		c0,0.1,0.1,0.3,0.1,0.4c0.3,0.1,0.5,0.2,0.8,0C37.5,58.6,37.1,56.3,36.8,55.2z M57.5,49.7C57.6,49.6,57.6,49.6,57.5,49.7
		c0.3-0.9,0.4-1.6,0.6-2.4c0-0.1,0-0.2,0-0.3c-0.3-0.1-0.5-0.2-0.9-0.3c-0.1,0.9-0.1,1.8-0.2,2.6C57.2,49.4,57.4,49.5,57.5,49.7z
		 M63.6,43.2c-0.2,0.4-0.4,2.4-0.2,2.9c0.1-0.6,0.2-1.1,0.3-1.7c0.2,0.2,0.3,0.3,0.5,0.4c0.2,0.1,0.3,0.3,0.6,0.3
		c0.1-0.2,0.1-0.4,0.2-0.6C64.5,44,64.2,43.5,63.6,43.2z M45.6,49.3c0-1.2-0.1-2.1-0.3-2.3c-0.2,0.2-0.5,0.4-0.7,0.6
		c0.1,1.1,0.3,1.9,0.5,2.1C45.4,49.6,45.5,49.5,45.6,49.3z M36.6,49.8c-0.3-2.1-0.6-4.2-1-6.2c-0.1,0-0.2,0-0.3,0
		c0.2,2,0.6,3.9,0.8,5.9c0,0.1,0.1,0.2,0.1,0.4C36.4,49.8,36.5,49.8,36.6,49.8z M36.1,49.8C36,48.9,35.8,48,35.7,47
		c-0.1,0.1-0.1,0.2-0.2,0.2c-0.1,1,0,1.9,0.2,2.9c0.3,0.2,0.6,0.6,1,0.6c0.2-0.2,0.2-0.4,0.2-0.6C36.8,50,36.4,50,36.1,49.8z
		 M62.5,40.9c-0.3,0-0.5-0.1-0.6,0.2c0.2,0.5,0.2,0.9,0.2,1.3c0.2,0.6,0.3,1,0.5,1.4c0.2-0.3,0.3-0.6,0.5-0.8
		C62.8,42.2,62.8,41.5,62.5,40.9z M68.4,38.9c-0.1,0.4-0.1,0.7-0.1,1.1c0.3,0,0.6,0.2,1,0.1c0-0.3,0.1-0.6,0.1-1
		C69,39,68.7,39,68.4,38.9z M60.9,40.3c-0.1,0.1-0.3,0.2-0.5,0.3c0.1,0.1,0.1,0.2,0.2,0.2c0.7-0.1,1.3-0.1,2-0.2c0-0.1,0-0.3,0-0.4
		c-0.2-0.1-0.3-0.1-0.4-0.2C61.9,40.3,61.6,40.3,60.9,40.3z M68.2,40c0-0.4,0.1-0.7,0-1c-0.3,0-0.6,0-0.9,0
		c-0.2,0.3-0.1,0.6-0.1,0.9C67.5,39.9,67.8,40,68.2,40z M59.7,58.5c-0.7-0.4-0.9-0.4-1.7,0.2c0.1,0.1,0.1,0.1,0.2,0.2
		c0.2,0.1,0.5,0.2,0.7,0.1C59.2,59,59.6,59,59.7,58.5z M42,50.1c-0.3-0.1-0.6-0.2-0.8-0.4s-0.4-0.4-0.6-0.6c-0.1,0.4,0,0.9,0,1.3
		C41,50.4,41.5,50.3,42,50.1z M40.9,50.8c0.7,0.1,1.3,0.1,1.9-0.3c0-0.2,0-0.3-0.2-0.4C42,50.3,41.5,50.5,40.9,50.8z M65.6,59.1
		c0.5,0,1,0.1,1.3-0.3c0-0.3-0.1-0.4-0.4-0.7C66.3,58.4,65.9,58.7,65.6,59.1z M38.6,58.1c-0.3-0.4-0.5-0.9-0.7-1.2h-0.1
		c0.1,0.6,0.2,1.3,0.3,1.9h0.1C38.3,58.6,38.4,58.3,38.6,58.1z M51.9,41.1c-0.4-0.1-0.7-0.1-1,0c-0.1,0.2-0.1,0.4,0,0.6
		c0.3,0,0.7,0.1,1,0C51.9,41.5,51.9,41.3,51.9,41.1z M63.5,49.2c-0.4,0.4-0.6,0.8-0.7,1.1c0.4-0.1,0.7-0.3,0.9-0.7
		C63.7,49.5,63.6,49.4,63.5,49.2z M65.6,45.6c0.2,0.1,0.3,0.2,0.4,0.3c0.2-0.5,0.1-0.9,0.1-1.4c-0.2,0.2-0.3,0.4-0.4,0.7
		C65.7,45.3,65.7,45.5,65.6,45.6z M56.2,46.2C56.1,46.2,56.1,46.3,56.2,46.2c0.1,0.4,0.4,0.7,0.8,1c0-0.2,0-0.4,0.1-0.6
		C56.8,46.5,56.5,46.3,56.2,46.2z M33.6,40.8L33.6,40.8L33.6,40.8L33.6,40.8z M34.9,40.3L34.9,40.3L34.9,40.3L34.9,40.3z"/>
	<path class="st1" d="M64.9,61.2c-0.3,0.1-0.4,0-0.6-0.1s-0.4-0.1-0.6-0.2c-0.6-0.2-1.2-0.1-1.8,0.2c-0.5,0.2-1.1,0.2-1.6,0
		c-0.8-0.3-1.6-0.3-2.4,0c-0.6,0.2-1.1,0.2-1.7,0c-0.8-0.3-1.6-0.3-2.4,0c-0.5,0.2-1.1,0.2-1.6,0c-0.7-0.3-1.5-0.3-2.2,0
		c-0.6,0.3-1.2,0.3-1.8,0c-0.8-0.3-1.5-0.3-2.3,0c-0.5,0.2-1.1,0.2-1.6,0c-0.8-0.3-1.6-0.3-2.5,0c-0.5,0.2-1,0.2-1.5,0
		c-0.8-0.3-1.6-0.4-2.4,0c-0.2,0.1-0.3,0.1-0.5,0.1c0,0-0.1,0-0.2-0.1c0.1-0.1,0.2-0.1,0.2-0.1c0.4-0.1,0.8-0.3,1.2-0.4
		c0.6-0.2,1.2-0.1,1.7,0.2c0.5,0.2,1,0.2,1.6,0c0.8-0.3,1.6-0.3,2.4,0c0.5,0.2,1,0.2,1.5,0c0.8-0.4,1.7-0.4,2.5,0
		c0.5,0.2,1,0.2,1.4,0c0.9-0.4,1.7-0.4,2.6,0c0.5,0.2,0.9,0.2,1.4,0c0.9-0.4,1.8-0.4,2.6,0c0.5,0.2,0.9,0.2,1.4,0
		c0.8-0.4,1.7-0.4,2.5,0c0.5,0.2,1,0.2,1.5,0c0.8-0.3,1.6-0.3,2.4,0c0.1,0.1,0.3,0.1,0.4,0.2C64.8,61.1,64.8,61.2,64.9,61.2z"/>
	<path class="st1" d="M38.3,63.2C38.3,63.1,38.2,63.1,38.3,63.2L38.2,63c0.2-0.1,0.4-0.1,0.6-0.1c0.3,0,0.6,0,0.9,0
		c0.2,0,0.4,0,0.5,0.1c0.7,0.2,1.4,0.2,2,0c0.2-0.1,0.4-0.1,0.5-0.1c0.3,0,0.6,0,0.9,0c0.2,0,0.3,0,0.5,0.1c0.5,0.3,1.1,0.2,1.7,0.2
		c0.1,0,0.2,0,0.2-0.1c0.8-0.3,1.6-0.3,2.3,0c0.1,0,0.2,0.1,0.3,0.1c0.6,0,1.1,0.1,1.7-0.2c0.1-0.1,0.2-0.1,0.4-0.1
		c0.3,0,0.6,0,0.9,0c0.2,0,0.3,0,0.5,0.1c0.7,0.2,1.4,0.2,2,0c0.2-0.1,0.4-0.1,0.5-0.1c0.3,0,0.5,0,0.8,0s0.5,0,0.7,0.1
		c0.4,0.2,1.4,0.2,1.9,0c0.2-0.1,0.4-0.1,0.7-0.1s0.5,0,0.8,0c0.2,0,0.4,0.1,0.6,0.1c0.7,0.2,1.3,0.2,2,0c0.1-0.1,0.3-0.1,0.5-0.1
		c0.4,0,0.7,0,1.1,0c0.2,0,0.3,0.1,0.5,0.1c0,0.1,0,0.1,0,0.2h-0.1c-0.6-0.2-1.2-0.2-1.8,0c-0.7,0.2-1.4,0.2-2.2,0
		c-0.6-0.2-1.1-0.2-1.7,0c-0.8,0.2-1.6,0.2-2.3,0c-0.5-0.2-1.1-0.2-1.6,0c-0.8,0.2-1.6,0.2-2.4,0c-0.5-0.2-1-0.2-1.5,0
		c-0.9,0.3-1.7,0.3-2.5,0c-0.5-0.1-1-0.1-1.4,0c-0.9,0.3-1.7,0.3-2.5,0c-0.5-0.1-1-0.1-1.4,0c-0.9,0.3-1.7,0.2-2.6,0
		C39.4,63,38.8,63,38.3,63.2z"/>
	<path class="st1" d="M37.7,62.3c0.1-0.1,0.2-0.2,0.2-0.2c0.2-0.1,0.3-0.2,0.5-0.2c0.6-0.1,1.2-0.1,1.8,0.1c0.4,0.1,0.7,0.2,1.1,0.2
		c0.3,0,0.6-0.1,0.9-0.2c0.6-0.1,1.3-0.2,1.9,0c0.7,0.2,1.4,0.2,2.1,0c0.1-0.1,0.3-0.1,0.5-0.1c0.6,0,1.2,0,1.8,0.2s1.1,0.1,1.7-0.1
		c0.6-0.2,1.3-0.2,1.9,0c0.7,0.2,1.4,0.2,2.1,0c0.6-0.2,1.3-0.2,1.9,0c0.7,0.2,1.4,0.2,2.1,0c0.1-0.1,0.3-0.1,0.5-0.1
		c0.6,0,1.1,0,1.6,0.1c0.6,0.2,1.3,0.1,1.9-0.1c0.8-0.2,1.5-0.2,2.3,0.2v0.1c0,0,0,0-0.1,0.1c-0.2-0.1-0.3-0.1-0.5-0.2
		c-0.5-0.3-1-0.3-1.5,0c-0.6,0.3-1.2,0.3-1.8,0.2c-0.2,0-0.5-0.1-0.7-0.2c-0.5-0.2-0.9-0.2-1.4,0c-0.9,0.4-1.7,0.4-2.6,0
		c-0.5-0.2-1-0.2-1.4,0c-0.6,0.3-1.2,0.3-1.8,0.2c-0.3,0-0.5-0.1-0.8-0.2c-0.4-0.2-0.9-0.2-1.4,0c-0.9,0.4-1.7,0.4-2.6,0
		c-0.5-0.2-0.9-0.2-1.4,0c-0.6,0.3-1.2,0.3-1.9,0.2c-0.3,0-0.5-0.1-0.8-0.2c-0.4-0.2-0.9-0.2-1.3,0c-0.9,0.4-1.8,0.4-2.6,0
		c-0.5-0.2-1-0.2-1.5,0C38.2,62.3,38.1,62.2,37.7,62.3z"/>
	<path class="st1" d="M48.8,39.1c0.1,0,0.2,0,0.4,0c-0.1,0.1-0.2,0.2-0.2,0.3C48.8,39.3,48.8,39.2,48.8,39.1z"/>
	<path class="st1" d="M53.7,39.3c0-0.1,0-0.2,0-0.3c0.1,0,0.2,0,0.3,0C54,39.2,54,39.3,53.7,39.3z"/>
	<path class="st1" d="M51.3,39.1c0.1,0,0.2,0,0.3,0c0,0.1-0.1,0.2-0.1,0.3C51.3,39.4,51.2,39.3,51.3,39.1z"/>
	<path class="st1" d="M65.5,53.2c0,0.2,0,0.5,0,0.7h-0.1C65.4,53.7,65.4,53.4,65.5,53.2z"/>
	<path class="st1" d="M66.4,46.8c0-0.2,0-0.5,0-0.7h0.1C66.5,46.3,66.4,46.6,66.4,46.8L66.4,46.8z"/>
	<path class="st1" d="M66.7,43.7c0-0.1,0-0.1,0-0.2l0,0C66.7,43.6,66.7,43.6,66.7,43.7L66.7,43.7z"/>
	<path class="st1" d="M66.6,44.3L66.6,44.3L66.6,44.3C66.6,44.4,66.6,44.4,66.6,44.3L66.6,44.3z"/>
	<path class="st1" d="M59.6,53.1L59.6,53.1C59.6,53,59.6,53.1,59.6,53.1z"/>
	<path class="st1" d="M42.3,55C42.3,54.9,42.3,54.9,42.3,55C42.3,54.9,42.3,54.9,42.3,55z"/>
	<path class="st1" d="M41.7,54.8L41.7,54.8L41.7,54.8L41.7,54.8z"/>
	<path class="st1" d="M61.2,41.8c0.2-0.2,0.3-0.1,0.4,0C61.5,42,61.3,42,61.2,41.8z"/>
	<path class="st1" d="M61.2,42.8c0.1,0,0.2,0,0.3,0c0,0,0,0,0,0.1C61.4,42.8,61.3,42.9,61.2,42.8L61.2,42.8z"/>
	<path class="st1" d="M61.9,43.1L61.9,43.1L61.9,43.1L61.9,43.1z"/>
	<path class="st1" d="M38.8,53.4C38.8,53.4,38.8,53.3,38.8,53.4C38.8,53.3,38.8,53.4,38.8,53.4z"/>
	<path class="st1" d="M55.5,46.4c0.1,0.4,0.2,0.8,0.2,1.3c0.1,0.9,0.2,1.8,0.2,2.7c0,0.8-0.1,1.6-0.3,2.4c-0.3,1-0.8,1.8-1.5,2.6
		c-0.8,0.9-1.6,1.6-2.6,2.2c-0.1,0-0.1,0.1-0.2,0.1c-0.1,0-0.1,0-0.2-0.1c-1.3-0.8-2.4-1.8-3.2-3c-0.5-0.8-0.9-1.7-1-2.6
		c-0.2-1.2-0.1-2.4,0-3.6c0.1-0.5,0.1-1,0.2-1.6c0-0.1,0.1-0.3,0.1-0.4C50,46.4,52.7,46.4,55.5,46.4z M52.2,48.7
		c0.3-0.2,0.5-0.3,0.7-0.5c-0.1-0.2-0.1-0.4-0.3-0.6c-0.7,0.3-1.4,0.6-2,0.9c0.2,0.7,0.7,1.9,0.9,2.1c0.8-0.3,1.8-0.7,2.1-1
		c-0.1-0.1-0.1-0.3-0.2-0.4c-0.3,0.1-0.5,0.2-0.7,0.3C52.5,49.2,52.4,49,52.2,48.7z M50.6,53.1c-0.2,0.1-0.3,0.1-0.4,0.2
		c-0.1,0.1-0.2,0.1-0.4,0.2c0.1,0.2,0.2,0.3,0.2,0.5c0.4-0.1,1.8-0.7,2-0.9c-0.2-0.7-0.7-1.8-0.9-2.1c-0.4,0.1-1.7,0.7-2,0.9
		c0.1,0.2,0.1,0.3,0.2,0.5c0.3-0.1,0.5-0.2,0.8-0.2C50.3,52.5,50.5,52.8,50.6,53.1z M51.6,50.8c0.3,0.7,0.5,1.4,0.9,2.1
		c0.7-0.4,1.4-0.6,2-1c-0.1-0.1-0.2-0.2-0.2-0.4c-0.3,0.1-0.5,0.2-0.8,0.3c-0.1-0.4-0.3-0.7-0.4-1c0.2-0.1,0.4-0.3,0.7-0.4
		c-0.1-0.1-0.1-0.2-0.2-0.4C53,50.3,52.3,50.5,51.6,50.8z M50.3,48.7c-0.7,0.2-1.3,0.5-2,0.8c0.1,0.2,0.2,0.3,0.2,0.4
		c0.3-0.1,0.5-0.2,0.8-0.2c0.1,0.4,0.3,0.7,0.4,1.1c-0.2,0.1-0.4,0.2-0.6,0.3c0,0.2,0,0.3,0.2,0.4c0.6-0.3,1.2-0.5,1.9-0.8
		C50.9,50.1,50.6,49.4,50.3,48.7z M50.2,54.3c0.4,1,0.8,2,1.2,3c0.1-0.1,0.2-0.2,0.3-0.2c0-0.1,0-0.1-0.1-0.2
		c-0.3-0.8-0.7-1.6-1-2.4c0-0.1-0.1-0.2-0.1-0.2s-0.1,0-0.1-0.1C50.3,54.1,50.3,54.2,50.2,54.3z M48.4,49.3c0.1-0.6-0.2-0.9-0.6-1.3
		c-0.2,0.5,0.2,1.3,0.5,1.4C48.3,49.3,48.3,49.3,48.4,49.3z M48.9,50.2c-0.1,0.1-0.2,0.1-0.3,0.2c0.1,0.2,0.1,0.4,0.3,0.6
		c0.1-0.1,0.2-0.1,0.3-0.2C49.1,50.6,49,50.4,48.9,50.2z M49.7,53.2c0.1-0.1,0.2-0.1,0.3-0.2c-0.1-0.2-0.2-0.3-0.3-0.5
		c-0.1,0.1-0.2,0.1-0.3,0.2C49.6,52.8,49.6,53,49.7,53.2z"/>
	<path class="st1" d="M41.6,42.1c-0.2,0-0.4,0-0.6,0C41.3,41.9,41.3,41.8,41.6,42.1z"/>
	<path class="st1" d="M42,43c-0.1,0.2-0.2,0.2-0.4,0.1C41.7,43.1,41.8,43,42,43z"/>
	<path class="st1" d="M41.7,51.8c-0.1,0-0.3,0.1-0.4,0.1c0,0,0,0,0-0.1C41.4,51.9,41.6,51.9,41.7,51.8z"/>
</g>
</svg>
