<svg width="60" height="60" viewBox="0 0 60 60" fill="none" xmlns="http://www.w3.org/2000/svg">
<g clip-path="url(#clip0_256_2406)">
<g clip-path="url(#clip1_256_2406)">
<rect width="20" height="20" transform="matrix(1 0 -0.00820296 0.999966 30.877 14.9995)" fill="white"/>
<mask id="mask0_256_2406" style="mask-type:alpha" maskUnits="userSpaceOnUse" x="30" y="14" width="21" height="21">
<rect x="0.495899" y="0.499983" width="19" height="19" transform="matrix(1 0 -0.00820296 0.999966 30.8811 14.9995)" fill="#F8F8F8" stroke="#B8B8B8"/>
</mask>
<g mask="url(#mask0_256_2406)">
<path d="M33.1112 27.0547C41.6102 27.0547 48.4432 33.9442 48.3736 42.4428C48.3039 50.9416 41.3578 57.831 32.8587 57.831C24.3598 57.8309 17.5266 50.9415 17.5963 42.4428C17.6661 33.9442 24.6123 27.0548 33.1112 27.0547Z" fill="#FBECEE" stroke="#E78E9E"/>
<path d="M50.8853 27.4991C59.3843 27.4991 66.2173 34.3886 66.1477 42.8872C66.078 51.386 59.1319 58.2754 50.6328 58.2754C42.1339 58.2753 35.3007 51.3859 35.3704 42.8872C35.4402 34.3886 42.3864 27.4992 50.8853 27.4991Z" fill="#FBECEE" stroke="#E78E9E"/>
</g>
<rect x="0.495899" y="0.499983" width="19" height="19" transform="matrix(1 0 -0.00820296 0.999966 30.8811 14.9995)" stroke="#E78E9E"/>
<rect width="20" height="2" transform="matrix(1 0 -0.00820296 0.999966 30.6801 38.9987)" fill="#ABABAB"/>
<rect width="20" height="2" transform="matrix(1 0 -0.00820296 0.999966 30.6473 42.9986)" fill="#ABABAB"/>
</g>
<g clip-path="url(#clip2_256_2406)">
<rect width="20" height="20" transform="matrix(1 0 -0.00820296 0.999966 8.87695 14.9995)" fill="white"/>
<mask id="mask1_256_2406" style="mask-type:alpha" maskUnits="userSpaceOnUse" x="8" y="14" width="21" height="21">
<rect x="0.495899" y="0.499983" width="19" height="19" transform="matrix(1 0 -0.00820296 0.999966 8.88105 14.9995)" fill="#F8F8F8" stroke="#B8B8B8"/>
</mask>
<g mask="url(#mask1_256_2406)">
<circle cx="2.66667" cy="2.66667" r="2.16667" transform="matrix(1 0 -0.00820296 0.999966 19.7349 18.7772)" fill="#FBF4E9" stroke="#E8C27F"/>
<rect x="13.3034" y="37.62" width="10.5431" height="10.4488" rx="2.5" transform="rotate(-44.765 13.3034 37.62)" fill="#ECF1FB" stroke="#8FADEA"/>
<rect x="5.6916" y="33.9281" width="10.5431" height="15.0984" rx="2.5" transform="rotate(-44.765 5.6916 33.9281)" fill="#ECF1FB" stroke="#8FADEA"/>
</g>
<rect x="0.495899" y="0.499983" width="19" height="19" transform="matrix(1 0 -0.00820296 0.999966 8.88105 14.9995)" stroke="#8FADEA"/>
<rect width="20" height="2" transform="matrix(1 0 -0.00820296 0.999966 8.68005 38.9987)" fill="#ABABAB"/>
<rect width="20" height="2" transform="matrix(1 0 -0.00820296 0.999966 8.64728 42.9986)" fill="#ABABAB"/>
</g>
<ellipse cx="12.7833" cy="47.1167" rx="9.45" ry="9.45" fill="white"/>
<path d="M12.2125 47.6542C12.3833 47.8167 12.3833 48.0833 12.2125 48.2458C12.05 48.4083 11.7833 48.4083 11.6208 48.2458C10.8083 47.4333 10.8083 46.1125 11.6208 45.3L13.0958 43.825C13.9083 43.0125 15.2292 43.0125 16.0417 43.825C16.8542 44.6375 16.8542 45.9583 16.0417 46.7708L15.4208 47.3917C15.425 47.05 15.3708 46.7083 15.2542 46.3833L15.45 46.1833C15.9417 45.6958 15.9417 44.9042 15.45 44.4167C14.9625 43.925 14.1708 43.925 13.6833 44.4167L12.2125 45.8875C11.7208 46.375 11.7208 47.1667 12.2125 47.6542ZM13.3875 45.8875C13.55 45.725 13.8167 45.725 13.9792 45.8875C14.7917 46.7 14.7917 48.0208 13.9792 48.8333L12.5042 50.3083C11.6917 51.1208 10.3708 51.1208 9.55835 50.3083C8.74585 49.4958 8.74585 48.175 9.55835 47.3625L10.1792 46.7417C10.175 47.0833 10.2292 47.425 10.3458 47.7542L10.15 47.95C9.65835 48.4375 9.65835 49.2292 10.15 49.7167C10.6375 50.2083 11.4292 50.2083 11.9167 49.7167L13.3875 48.2458C13.8792 47.7583 13.8792 46.9667 13.3875 46.4792C13.2167 46.3167 13.2167 46.05 13.3875 45.8875Z" fill="#8C8C8C"/>
</g>
<defs>
<clipPath id="clip0_256_2406">
<rect width="60" height="60" fill="white"/>
</clipPath>
<clipPath id="clip1_256_2406">
<rect width="20" height="30" fill="white" transform="matrix(1 0 -0.00820296 0.999966 30.877 14.9995)"/>
</clipPath>
<clipPath id="clip2_256_2406">
<rect width="20" height="30" fill="white" transform="matrix(1 0 -0.00820296 0.999966 8.87695 14.9995)"/>
</clipPath>
</defs>
</svg>
