<svg width="60" height="60" viewBox="0 0 60 60" fill="none" xmlns="http://www.w3.org/2000/svg">
<g clip-path="url(#clip0_2786_4897)">
<g clip-path="url(#clip1_2786_4897)">
<rect width="20" height="2" transform="matrix(1 0 -0.00820296 0.999966 5.40417 31.9985)" fill="#BFBFBF"/>
<rect width="20" height="2" transform="matrix(1 0 -0.00820296 0.999966 5.37134 35.9985)" fill="#BFBFBF"/>
<path d="M11.8206 29.9988L11.8862 21.999H10.4775L10.4513 25.1944H6.86866L6.89487 21.999H5.48621L5.42058 29.9988H6.82925L6.85816 26.4748H10.4408L10.4119 29.9988H11.8206Z" fill="#BFBFBF"/>
</g>
<g clip-path="url(#clip2_2786_4897)">
<rect width="20" height="2" transform="matrix(1 0 -0.00820296 0.999966 22.4042 31.9985)" fill="#BFBFBF"/>
<rect width="20" height="2" transform="matrix(1 0 -0.00820296 0.999966 22.3713 35.9985)" fill="#BFBFBF"/>
<path d="M28.8206 29.9988L28.8862 21.999H27.4775L27.4513 25.1944H23.8687L23.8949 21.999H22.4862L22.4206 29.9988H23.8292L23.8582 26.4748H27.4408L27.4119 29.9988H28.8206Z" fill="#BFBFBF"/>
</g>
<g clip-path="url(#clip3_2786_4897)">
<rect width="20" height="2" transform="matrix(1 0 -0.00820296 0.999966 39.4042 31.9985)" fill="#BFBFBF"/>
<rect width="20" height="2" transform="matrix(1 0 -0.00820296 0.999966 39.3713 35.9985)" fill="#BFBFBF"/>
<path d="M45.8206 29.9988L45.8862 21.999H44.4775L44.4513 25.1944H40.8687L40.8949 21.999H39.4862L39.4206 29.9988H40.8292L40.8582 26.4748H44.4408L44.4119 29.9988H45.8206Z" fill="#BFBFBF"/>
</g>
<circle cx="12.65" cy="47.3831" r="9.45" fill="white"/>
<path d="M12.0792 47.9205C12.25 48.083 12.25 48.3496 12.0792 48.5121C11.9167 48.6746 11.65 48.6746 11.4875 48.5121C10.675 47.6996 10.675 46.3788 11.4875 45.5663L12.9625 44.0913C13.775 43.2788 15.0959 43.2788 15.9084 44.0913C16.7209 44.9038 16.7209 46.2246 15.9084 47.0371L15.2875 47.658C15.2917 47.3163 15.2375 46.9746 15.1209 46.6496L15.3167 46.4496C15.8084 45.9621 15.8084 45.1705 15.3167 44.683C14.8292 44.1913 14.0375 44.1913 13.55 44.683L12.0792 46.1538C11.5875 46.6413 11.5875 47.433 12.0792 47.9205ZM13.2542 46.1538C13.4167 45.9913 13.6834 45.9913 13.8459 46.1538C14.6584 46.9663 14.6584 48.2871 13.8459 49.0996L12.3709 50.5746C11.5584 51.3871 10.2375 51.3871 9.42505 50.5746C8.61255 49.7621 8.61255 48.4413 9.42505 47.6288L10.0459 47.008C10.0417 47.3496 10.0959 47.6913 10.2125 48.0205L10.0167 48.2163C9.52505 48.7038 9.52505 49.4955 10.0167 49.983C10.5042 50.4746 11.2959 50.4746 11.7834 49.983L13.2542 48.5121C13.7459 48.0246 13.7459 47.233 13.2542 46.7455C13.0834 46.583 13.0834 46.3163 13.2542 46.1538Z" fill="#BFBFBF"/>
</g>
<defs>
<clipPath id="clip0_2786_4897">
<rect width="60" height="60" fill="white"/>
</clipPath>
<clipPath id="clip1_2786_4897">
<rect width="15" height="16" fill="white" transform="matrix(1 0 -0.00820296 0.999966 5.48621 21.999)"/>
</clipPath>
<clipPath id="clip2_2786_4897">
<rect width="15" height="16" fill="white" transform="matrix(1 0 -0.00820296 0.999966 22.4862 21.999)"/>
</clipPath>
<clipPath id="clip3_2786_4897">
<rect width="15" height="16" fill="white" transform="matrix(1 0 -0.00820296 0.999966 39.4862 21.999)"/>
</clipPath>
</defs>
</svg>
