<svg width="60" height="60" viewBox="0 0 60 60" fill="none" xmlns="http://www.w3.org/2000/svg">
<g clip-path="url(#clip0_256_2222)">
<g clip-path="url(#clip1_256_2222)">
<rect width="15" height="15" transform="matrix(1 0 -0.00820296 0.999966 5.52448 17.3328)" fill="white"/>
<mask id="mask0_256_2222" style="mask-type:alpha" maskUnits="userSpaceOnUse" x="5" y="17" width="16" height="16">
<rect x="0.495899" y="0.499983" width="14" height="14" transform="matrix(1 0 -0.00820296 0.999966 5.52858 17.3328)" fill="#F8F8F8" stroke="#B8B8B8"/>
</mask>
<g mask="url(#mask0_256_2222)">
<path d="M15.6638 20.666C16.4922 20.666 17.1583 21.3375 17.1515 22.1659C17.1447 22.9943 16.4676 23.6659 15.6392 23.6659C14.8108 23.6659 14.1447 22.9943 14.1515 22.1659C14.1583 21.3375 14.8354 20.666 15.6638 20.666Z" fill="#FBF4E9" stroke="#E8C27F"/>
<rect x="9.02107" y="34.2989" width="7.65732" height="7.5866" rx="2.5" transform="rotate(-44.765 9.02107 34.2989)" fill="#ECF1FB" stroke="#8FADEA"/>
<rect x="3.3122" y="31.5299" width="7.65732" height="11.0738" rx="2.5" transform="rotate(-44.765 3.3122 31.5299)" fill="#ECF1FB" stroke="#8FADEA"/>
</g>
<rect x="0.495899" y="0.499983" width="14" height="14" transform="matrix(1 0 -0.00820296 0.999966 5.52858 17.3328)" stroke="#8FADEA"/>
<rect width="15" height="2" transform="matrix(1 0 -0.00820296 0.999966 5.36859 36.3321)" fill="#ABABAB"/>
<rect width="15" height="2" transform="matrix(1 0 -0.00820296 0.999966 5.33582 40.332)" fill="#ABABAB"/>
</g>
<g clip-path="url(#clip2_256_2222)">
<rect width="15" height="15" transform="matrix(1 0 -0.00820296 0.999966 22.3578 17.3328)" fill="white"/>
<mask id="mask1_256_2222" style="mask-type:alpha" maskUnits="userSpaceOnUse" x="22" y="17" width="16" height="16">
<rect x="0.495899" y="0.499983" width="14" height="14" transform="matrix(1 0 -0.00820296 0.999966 22.3619 17.3328)" fill="#F8F8F8" stroke="#B8B8B8"/>
</mask>
<g mask="url(#mask1_256_2222)">
<path d="M24.0329 26.4991C30.338 26.4993 35.407 31.6108 35.3553 37.9157C35.3034 44.2205 30.1506 49.3312 23.8456 49.3314C17.5405 49.3314 12.4708 44.2206 12.5223 37.9157C12.574 31.6107 17.7277 26.4991 24.0329 26.4991Z" fill="#FBECEE" stroke="#E78E9E"/>
<path d="M37.3635 26.8324C43.6686 26.8326 48.7376 31.9441 48.6859 38.2491C48.634 44.5538 43.4812 49.6645 37.1762 49.6647C30.8711 49.6647 25.8013 44.5539 25.8529 38.2491C25.9046 31.944 31.0583 26.8324 37.3635 26.8324Z" fill="#FBECEE" stroke="#E78E9E"/>
</g>
<rect x="0.495899" y="0.499983" width="14" height="14" transform="matrix(1 0 -0.00820296 0.999966 22.3619 17.3328)" stroke="#E78E9E"/>
<rect width="15" height="2" transform="matrix(1 0 -0.00820296 0.999966 22.2019 36.3321)" fill="#ABABAB"/>
<rect width="15" height="2" transform="matrix(1 0 -0.00820296 0.999966 22.1691 40.332)" fill="#ABABAB"/>
</g>
<g clip-path="url(#clip3_256_2222)">
<rect width="15" height="15" transform="matrix(1 0 -0.00820296 0.999966 39.1912 17.3328)" fill="white"/>
<mask id="mask2_256_2222" style="mask-type:alpha" maskUnits="userSpaceOnUse" x="39" y="17" width="16" height="16">
<rect x="0.495899" y="0.499983" width="14" height="14" transform="matrix(1 0 -0.00820296 0.999966 39.1953 17.3328)" fill="#F8F8F8" stroke="#B8B8B8"/>
</mask>
<g mask="url(#mask2_256_2222)">
<circle cx="2" cy="2" r="1.5" transform="matrix(1 0 -0.00820296 0.999966 44.6461 22.8326)" fill="#E7F6EF" stroke="#76CAA5"/>
<rect x="0.435571" y="0.553427" width="16.4893" height="7.83288" transform="matrix(0.992627 0.113331 -0.121485 0.993523 38.5444 23.5773)" fill="#E7F6EF" stroke="#76CAA5"/>
</g>
<rect x="0.495899" y="0.499983" width="14" height="14" transform="matrix(1 0 -0.00820296 0.999966 39.1953 17.3328)" stroke="#76CAA5"/>
<rect width="15" height="2" transform="matrix(1 0 -0.00820296 0.999966 39.0353 36.3321)" fill="#ABABAB"/>
<rect width="15" height="2" transform="matrix(1 0 -0.00820296 0.999966 39.0025 40.332)" fill="#ABABAB"/>
</g>
<ellipse cx="12.7833" cy="47.1167" rx="9.45" ry="9.45" fill="white"/>
<path d="M12.2125 47.6541C12.3833 47.8166 12.3833 48.0833 12.2125 48.2458C12.05 48.4083 11.7833 48.4083 11.6208 48.2458C10.8083 47.4333 10.8083 46.1125 11.6208 45.3L13.0958 43.825C13.9083 43.0125 15.2292 43.0125 16.0417 43.825C16.8542 44.6375 16.8542 45.9583 16.0417 46.7708L15.4208 47.3916C15.425 47.05 15.3708 46.7083 15.2542 46.3833L15.45 46.1833C15.9417 45.6958 15.9417 44.9041 15.45 44.4166C14.9625 43.925 14.1708 43.925 13.6833 44.4166L12.2125 45.8875C11.7208 46.375 11.7208 47.1666 12.2125 47.6541ZM13.3875 45.8875C13.55 45.725 13.8167 45.725 13.9792 45.8875C14.7917 46.7 14.7917 48.0208 13.9792 48.8333L12.5042 50.3083C11.6917 51.1208 10.3708 51.1208 9.55835 50.3083C8.74585 49.4958 8.74585 48.175 9.55835 47.3625L10.1792 46.7416C10.175 47.0833 10.2292 47.425 10.3458 47.7541L10.15 47.95C9.65835 48.4375 9.65835 49.2291 10.15 49.7166C10.6375 50.2083 11.4292 50.2083 11.9167 49.7166L13.3875 48.2458C13.8792 47.7583 13.8792 46.9666 13.3875 46.4791C13.2167 46.3166 13.2167 46.05 13.3875 45.8875Z" fill="#8C8C8C"/>
</g>
<defs>
<clipPath id="clip0_256_2222">
<rect width="60" height="60" fill="white"/>
</clipPath>
<clipPath id="clip1_256_2222">
<rect width="15" height="25" fill="white" transform="matrix(1 0 -0.00820296 0.999966 5.52448 17.3328)"/>
</clipPath>
<clipPath id="clip2_256_2222">
<rect width="15" height="25" fill="white" transform="matrix(1 0 -0.00820296 0.999966 22.3578 17.3328)"/>
</clipPath>
<clipPath id="clip3_256_2222">
<rect width="15" height="25" fill="white" transform="matrix(1 0 -0.00820296 0.999966 39.1912 17.3328)"/>
</clipPath>
</defs>
</svg>
