<svg width="60" height="60" viewBox="0 0 60 60" fill="none" xmlns="http://www.w3.org/2000/svg">
<g clip-path="url(#clip0_2786_3982)">
<rect width="10" height="10" transform="matrix(1 0 -0.00820296 0.999966 6.79492 24.999)" fill="white"/>
<mask id="mask0_2786_3982" style="mask-type:alpha" maskUnits="userSpaceOnUse" x="6" y="24" width="11" height="11">
<rect x="0.495899" y="0.499983" width="9" height="9" transform="matrix(1 0 -0.00820296 0.999966 6.79902 24.999)" fill="#F8F8F8" stroke="#B8B8B8"/>
</mask>
<g mask="url(#mask0_2786_3982)">
<circle cx="1.33333" cy="1.33333" r="0.833333" transform="matrix(1 0 -0.00820296 0.999966 12.2239 26.8877)" fill="#FCEDD4" stroke="#F2BC5E"/>
<rect x="9.3617" y="36.3105" width="4.77155" height="4.7244" rx="2.37401" transform="rotate(-44.765 9.3617 36.3105)" fill="#E7ECF6" stroke="#7A97CE"/>
<rect x="5.55579" y="34.4648" width="4.77155" height="7.04918" rx="2.37401" transform="rotate(-44.765 5.55579 34.4648)" fill="#E7ECF6" stroke="#7A97CE"/>
</g>
<rect x="0.495899" y="0.499983" width="9" height="9" transform="matrix(1 0 -0.00820296 0.999966 6.79902 24.999)" stroke="#7A97CE"/>
<rect width="10" height="10" transform="matrix(1 0 -0.00820296 0.999966 18.7949 24.999)" fill="white"/>
<mask id="mask1_2786_3982" style="mask-type:alpha" maskUnits="userSpaceOnUse" x="18" y="24" width="11" height="11">
<rect x="0.495899" y="0.499983" width="9" height="9" transform="matrix(1 0 -0.00820296 0.999966 18.799 24.999)" fill="#F8F8F8" stroke="#B8B8B8"/>
</mask>
<g mask="url(#mask1_2786_3982)">
<path d="M27.2934 38.7205C27.2597 42.8319 23.8994 46.1647 19.7879 46.1647C15.6765 46.1647 12.3708 42.8319 12.4046 38.7205C12.4383 34.6092 15.7986 31.2764 19.9101 31.2764C24.0215 31.2764 27.3272 34.6092 27.2934 38.7205Z" fill="#fbeaed" stroke="#eb8a9a"/>
<path d="M36.1805 38.9432C36.1468 43.0545 32.7865 46.3874 28.675 46.3874C24.5636 46.3874 21.2579 43.0545 21.2916 38.9432C21.3254 34.8319 24.6857 31.499 28.7972 31.499C32.9086 31.499 36.2143 34.8319 36.1805 38.9432Z" fill="#fbeaed" stroke="#eb8a9a"/>
</g>
<rect x="0.495899" y="0.499983" width="9" height="9" transform="matrix(1 0 -0.00820296 0.999966 18.799 24.999)" stroke="#eb8a9a"/>
<rect width="10" height="10" transform="matrix(1 0 -0.00820296 0.999966 30.7949 24.999)" fill="white"/>
<mask id="mask2_2786_3982" style="mask-type:alpha" maskUnits="userSpaceOnUse" x="30" y="24" width="11" height="11">
<rect x="0.495899" y="0.499983" width="9" height="9" transform="matrix(1 0 -0.00820296 0.999966 30.799 24.999)" fill="#F8F8F8" stroke="#B8B8B8"/>
</mask>
<g mask="url(#mask2_2786_3982)">
<path d="M36.5872 29.9988C36.5835 30.459 36.2073 30.8321 35.7471 30.8321C35.2868 30.8321 34.9168 30.459 34.9206 29.9988C34.9244 29.5386 35.3005 29.1655 35.7608 29.1655C36.221 29.1655 36.591 29.5386 36.5872 29.9988Z" fill="#e4f8ef" stroke="#6bd8a7"/>
<rect x="0.435571" y="0.553427" width="10.6595" height="4.88859" transform="matrix(0.992627 0.113331 -0.121485 0.993523 30.3873 29.1466)" fill="#e4f8ef" stroke="#6bd8a7"/>
</g>
<rect x="0.495899" y="0.499983" width="9" height="9" transform="matrix(1 0 -0.00820296 0.999966 30.799 24.999)" stroke="#6bd8a7"/>
<rect width="10" height="10" transform="matrix(1 0 -0.00820296 0.999966 42.7949 24.999)" fill="white"/>
<mask id="mask3_2786_3982" style="mask-type:alpha" maskUnits="userSpaceOnUse" x="42" y="24" width="11" height="11">
<rect x="0.495899" y="0.499983" width="9" height="9" transform="matrix(1 0 -0.00820296 0.999966 42.799 24.999)" fill="#F8F8F8" stroke="#B8B8B8"/>
</mask>
<g mask="url(#mask3_2786_3982)">
<rect x="0.495899" y="0.499983" width="10.6595" height="4.88859" rx="2.44429" transform="matrix(1 0 -0.00820296 0.999966 41.9284 31.7769)" fill="#F2EAF7" stroke="#B98BD3"/>
<rect x="0.330599" y="0.333322" width="0.666667" height="2.22222" rx="0.333333" transform="matrix(1 0 -0.00820296 0.999966 45.8796 28.5547)" fill="#F2EAF7" stroke="#B98BD3" stroke-width="0.666667"/>
</g>
<rect x="0.495899" y="0.499983" width="9" height="9" transform="matrix(1 0 -0.00820296 0.999966 42.799 24.999)" stroke="#B98BD3"/>
<circle cx="12.65" cy="47.3831" r="9.45" fill="white"/>
<path d="M12.0792 47.9205C12.25 48.083 12.25 48.3496 12.0792 48.5121C11.9167 48.6746 11.65 48.6746 11.4875 48.5121C10.675 47.6996 10.675 46.3788 11.4875 45.5663L12.9625 44.0913C13.775 43.2788 15.0959 43.2788 15.9084 44.0913C16.7209 44.9038 16.7209 46.2246 15.9084 47.0371L15.2875 47.658C15.2917 47.3163 15.2375 46.9746 15.1209 46.6496L15.3167 46.4496C15.8084 45.9621 15.8084 45.1705 15.3167 44.683C14.8292 44.1913 14.0375 44.1913 13.55 44.683L12.0792 46.1538C11.5875 46.6413 11.5875 47.433 12.0792 47.9205ZM13.2542 46.1538C13.4167 45.9913 13.6834 45.9913 13.8459 46.1538C14.6584 46.9663 14.6584 48.2871 13.8459 49.0996L12.3709 50.5746C11.5584 51.3871 10.2375 51.3871 9.42505 50.5746C8.61255 49.7621 8.61255 48.4413 9.42505 47.6288L10.0459 47.008C10.0417 47.3496 10.0959 47.6913 10.2125 48.0205L10.0167 48.2163C9.52505 48.7038 9.52505 49.4955 10.0167 49.983C10.5042 50.4746 11.2959 50.4746 11.7834 49.983L13.2542 48.5121C13.7459 48.0246 13.7459 47.233 13.2542 46.7455C13.0834 46.583 13.0834 46.3163 13.2542 46.1538Z" fill="#BFBFBF"/>
</g>
<defs>
<clipPath id="clip0_2786_3982">
<rect width="60" height="60" fill="white"/>
</clipPath>
</defs>
</svg>
