<svg width="60" height="60" viewBox="0 0 60 60" fill="none" xmlns="http://www.w3.org/2000/svg">
<g clip-path="url(#clip0_2786_4806)">
<g clip-path="url(#clip1_2786_4806)">
<rect width="20" height="2" transform="matrix(1 0 -0.00820296 0.999966 6.73749 31.9985)" fill="#BFBFBF"/>
<rect width="20" height="2" transform="matrix(1 0 -0.00820296 0.999966 6.70465 35.9985)" fill="#BFBFBF"/>
<path d="M13.1539 29.9988L13.2195 21.999H11.8109L11.7846 25.1944H8.20197L8.22818 21.999H6.81952L6.7539 29.9988H8.16256L8.19147 26.4748H11.7741L11.7452 29.9988H13.1539Z" fill="#BFBFBF"/>
</g>
<g clip-path="url(#clip2_2786_4806)">
<rect width="20" height="2" transform="matrix(1 0 -0.00820296 0.999966 18.7375 31.9985)" fill="#BFBFBF"/>
<rect width="20" height="2" transform="matrix(1 0 -0.00820296 0.999966 18.7047 35.9985)" fill="#BFBFBF"/>
<path d="M25.1539 29.9988L25.2195 21.999H23.8109L23.7846 25.1944H20.202L20.2282 21.999H18.8195L18.7539 29.9988H20.1626L20.1915 26.4748H23.7741L23.7452 29.9988H25.1539Z" fill="#BFBFBF"/>
</g>
<g clip-path="url(#clip3_2786_4806)">
<rect width="20" height="2" transform="matrix(1 0 -0.00820296 0.999966 30.7375 31.9985)" fill="#BFBFBF"/>
<rect width="20" height="2" transform="matrix(1 0 -0.00820296 0.999966 30.7047 35.9985)" fill="#BFBFBF"/>
<path d="M37.1539 29.9988L37.2195 21.999H35.8109L35.7846 25.1944H32.202L32.2282 21.999H30.8195L30.7539 29.9988H32.1626L32.1915 26.4748H35.7741L35.7452 29.9988H37.1539Z" fill="#BFBFBF"/>
</g>
<g clip-path="url(#clip4_2786_4806)">
<rect width="20" height="2" transform="matrix(1 0 -0.00820296 0.999966 42.7375 31.9985)" fill="#BFBFBF"/>
<rect width="20" height="2" transform="matrix(1 0 -0.00820296 0.999966 42.7047 35.9985)" fill="#BFBFBF"/>
<path d="M49.1539 29.9988L49.2195 21.999H47.8109L47.7846 25.1944H44.202L44.2282 21.999H42.8195L42.7539 29.9988H44.1626L44.1915 26.4748H47.7741L47.7452 29.9988H49.1539Z" fill="#BFBFBF"/>
</g>
<circle cx="12.65" cy="47.3831" r="9.45" fill="white"/>
<path d="M12.0792 47.9205C12.25 48.083 12.25 48.3496 12.0792 48.5121C11.9167 48.6746 11.65 48.6746 11.4875 48.5121C10.675 47.6996 10.675 46.3788 11.4875 45.5663L12.9625 44.0913C13.775 43.2788 15.0959 43.2788 15.9084 44.0913C16.7209 44.9038 16.7209 46.2246 15.9084 47.0371L15.2875 47.658C15.2917 47.3163 15.2375 46.9746 15.1209 46.6496L15.3167 46.4496C15.8084 45.9621 15.8084 45.1705 15.3167 44.683C14.8292 44.1913 14.0375 44.1913 13.55 44.683L12.0792 46.1538C11.5875 46.6413 11.5875 47.433 12.0792 47.9205ZM13.2542 46.1538C13.4167 45.9913 13.6834 45.9913 13.8459 46.1538C14.6584 46.9663 14.6584 48.2871 13.8459 49.0996L12.3709 50.5746C11.5584 51.3871 10.2375 51.3871 9.42505 50.5746C8.61255 49.7621 8.61255 48.4413 9.42505 47.6288L10.0459 47.008C10.0417 47.3496 10.0959 47.6913 10.2125 48.0205L10.0167 48.2163C9.52505 48.7038 9.52505 49.4955 10.0167 49.983C10.5042 50.4746 11.2959 50.4746 11.7834 49.983L13.2542 48.5121C13.7459 48.0246 13.7459 47.233 13.2542 46.7455C13.0834 46.583 13.0834 46.3163 13.2542 46.1538Z" fill="#BFBFBF"/>
</g>
<defs>
<clipPath id="clip0_2786_4806">
<rect width="60" height="60" fill="white"/>
</clipPath>
<clipPath id="clip1_2786_4806">
<rect width="10" height="16" fill="white" transform="matrix(1 0 -0.00820296 0.999966 6.81952 21.999)"/>
</clipPath>
<clipPath id="clip2_2786_4806">
<rect width="10" height="16" fill="white" transform="matrix(1 0 -0.00820296 0.999966 18.8195 21.999)"/>
</clipPath>
<clipPath id="clip3_2786_4806">
<rect width="10" height="16" fill="white" transform="matrix(1 0 -0.00820296 0.999966 30.8195 21.999)"/>
</clipPath>
<clipPath id="clip4_2786_4806">
<rect width="10" height="16" fill="white" transform="matrix(1 0 -0.00820296 0.999966 42.8195 21.999)"/>
</clipPath>
</defs>
</svg>
