<svg width="60" height="60" viewBox="0 0 60 60" fill="none" xmlns="http://www.w3.org/2000/svg">
<g clip-path="url(#clip0_256_3664)">
<g clip-path="url(#clip1_256_3664)">
<rect width="20" height="2" transform="matrix(1 0 -0.00820296 0.999966 6.73749 31.9989)" fill="#ABABAB"/>
<rect width="20" height="2" transform="matrix(1 0 -0.00820296 0.999966 6.70465 35.9988)" fill="#ABABAB"/>
<path d="M13.1539 29.999L13.2195 21.9993H11.8109L11.7846 25.1946H8.20197L8.22818 21.9993H6.81952L6.7539 29.999H8.16256L8.19147 26.475H11.7741L11.7452 29.999H13.1539Z" fill="#ABABAB"/>
</g>
<g clip-path="url(#clip2_256_3664)">
<rect width="20" height="2" transform="matrix(1 0 -0.00820296 0.999966 18.7375 31.9989)" fill="#ABABAB"/>
<rect width="20" height="2" transform="matrix(1 0 -0.00820296 0.999966 18.7047 35.9988)" fill="#ABABAB"/>
<path d="M25.1539 29.999L25.2195 21.9993H23.8109L23.7846 25.1946H20.202L20.2282 21.9993H18.8195L18.7539 29.999H20.1626L20.1915 26.475H23.7741L23.7452 29.999H25.1539Z" fill="#ABABAB"/>
</g>
<g clip-path="url(#clip3_256_3664)">
<rect width="20" height="2" transform="matrix(1 0 -0.00820296 0.999966 30.7375 31.9989)" fill="#ABABAB"/>
<rect width="20" height="2" transform="matrix(1 0 -0.00820296 0.999966 30.7047 35.9988)" fill="#ABABAB"/>
<path d="M37.1539 29.999L37.2195 21.9993H35.8109L35.7846 25.1946H32.202L32.2282 21.9993H30.8195L30.7539 29.999H32.1626L32.1915 26.475H35.7741L35.7452 29.999H37.1539Z" fill="#ABABAB"/>
</g>
<g clip-path="url(#clip4_256_3664)">
<rect width="20" height="2" transform="matrix(1 0 -0.00820296 0.999966 42.7375 31.9989)" fill="#ABABAB"/>
<rect width="20" height="2" transform="matrix(1 0 -0.00820296 0.999966 42.7047 35.9988)" fill="#ABABAB"/>
<path d="M49.1539 29.999L49.2195 21.9993H47.8109L47.7846 25.1946H44.202L44.2282 21.9993H42.8195L42.7539 29.999H44.1626L44.1915 26.475H47.7741L47.7452 29.999H49.1539Z" fill="#ABABAB"/>
</g>
<ellipse cx="12.7833" cy="47.1167" rx="9.45" ry="9.45" fill="white"/>
<path d="M12.2125 47.6542C12.3833 47.8167 12.3833 48.0833 12.2125 48.2458C12.05 48.4083 11.7833 48.4083 11.6208 48.2458C10.8083 47.4333 10.8083 46.1125 11.6208 45.3L13.0958 43.825C13.9083 43.0125 15.2292 43.0125 16.0417 43.825C16.8542 44.6375 16.8542 45.9583 16.0417 46.7708L15.4208 47.3917C15.425 47.05 15.3708 46.7083 15.2542 46.3833L15.45 46.1833C15.9417 45.6958 15.9417 44.9042 15.45 44.4167C14.9625 43.925 14.1708 43.925 13.6833 44.4167L12.2125 45.8875C11.7208 46.375 11.7208 47.1667 12.2125 47.6542ZM13.3875 45.8875C13.55 45.725 13.8167 45.725 13.9792 45.8875C14.7917 46.7 14.7917 48.0208 13.9792 48.8333L12.5042 50.3083C11.6917 51.1208 10.3708 51.1208 9.55835 50.3083C8.74585 49.4958 8.74585 48.175 9.55835 47.3625L10.1792 46.7417C10.175 47.0833 10.2292 47.425 10.3458 47.7542L10.15 47.95C9.65835 48.4375 9.65835 49.2292 10.15 49.7167C10.6375 50.2083 11.4292 50.2083 11.9167 49.7167L13.3875 48.2458C13.8792 47.7583 13.8792 46.9667 13.3875 46.4792C13.2167 46.3167 13.2167 46.05 13.3875 45.8875Z" fill="#8C8C8C"/>
</g>
<defs>
<clipPath id="clip0_256_3664">
<rect width="60" height="60" fill="white"/>
</clipPath>
<clipPath id="clip1_256_3664">
<rect width="10" height="16" fill="white" transform="matrix(1 0 -0.00820296 0.999966 6.81952 21.9993)"/>
</clipPath>
<clipPath id="clip2_256_3664">
<rect width="10" height="16" fill="white" transform="matrix(1 0 -0.00820296 0.999966 18.8195 21.9993)"/>
</clipPath>
<clipPath id="clip3_256_3664">
<rect width="10" height="16" fill="white" transform="matrix(1 0 -0.00820296 0.999966 30.8195 21.9993)"/>
</clipPath>
<clipPath id="clip4_256_3664">
<rect width="10" height="16" fill="white" transform="matrix(1 0 -0.00820296 0.999966 42.8195 21.9993)"/>
</clipPath>
</defs>
</svg>
