<svg width="60" height="60" viewBox="0 0 60 60" fill="none" xmlns="http://www.w3.org/2000/svg">
<g clip-path="url(#clip0_256_2506)">
<rect width="10" height="10" transform="matrix(1 0 -0.00820296 0.999966 6.79492 24.9991)" fill="white"/>
<mask id="mask0_256_2506" style="mask-type:alpha" maskUnits="userSpaceOnUse" x="6" y="24" width="11" height="11">
<rect x="0.495899" y="0.499983" width="9" height="9" transform="matrix(1 0 -0.00820296 0.999966 6.79902 24.9992)" fill="#F8F8F8" stroke="#B8B8B8"/>
</mask>
<g mask="url(#mask0_256_2506)">
<circle cx="1.33333" cy="1.33333" r="0.833333" transform="matrix(1 0 -0.00820296 0.999966 12.2239 26.888)" fill="#FBF4E9" stroke="#E8C27F"/>
<rect x="9.3617" y="36.3109" width="4.77155" height="4.7244" rx="2.37401" transform="rotate(-44.765 9.3617 36.3109)" fill="#ECF1FB" stroke="#8FADEA"/>
<rect x="5.55579" y="34.4649" width="4.77155" height="7.04918" rx="2.37401" transform="rotate(-44.765 5.55579 34.4649)" fill="#ECF1FB" stroke="#8FADEA"/>
</g>
<rect x="0.495899" y="0.499983" width="9" height="9" transform="matrix(1 0 -0.00820296 0.999966 6.79902 24.9992)" stroke="#8FADEA"/>
<rect width="10" height="10" transform="matrix(1 0 -0.00820296 0.999966 18.7949 24.9991)" fill="white"/>
<mask id="mask1_256_2506" style="mask-type:alpha" maskUnits="userSpaceOnUse" x="18" y="24" width="11" height="11">
<rect x="0.495899" y="0.499983" width="9" height="9" transform="matrix(1 0 -0.00820296 0.999966 18.799 24.9992)" fill="#F8F8F8" stroke="#B8B8B8"/>
</mask>
<g mask="url(#mask1_256_2506)">
<path d="M19.91 31.2767C24.0214 31.2767 27.3269 34.6095 27.2932 38.7208C27.2595 42.8321 23.8993 46.1649 19.7878 46.1649C15.6764 46.1648 12.3708 42.8321 12.4046 38.7208C12.4383 34.6096 15.7986 31.2768 19.91 31.2767Z" fill="#FBECEE" stroke="#E78E9E"/>
<path d="M28.797 31.4989C32.9085 31.4989 36.214 34.8317 36.1803 38.943C36.1466 43.0543 32.7864 46.3871 28.6749 46.3871C24.5635 46.387 21.2579 43.0543 21.2916 38.943C21.3254 34.8318 24.6857 31.499 28.797 31.4989Z" fill="#FBECEE" stroke="#E78E9E"/>
</g>
<rect x="0.495899" y="0.499983" width="9" height="9" transform="matrix(1 0 -0.00820296 0.999966 18.799 24.9992)" stroke="#E78E9E"/>
<rect width="10" height="10" transform="matrix(1 0 -0.00820296 0.999966 30.7949 24.9991)" fill="white"/>
<mask id="mask2_256_2506" style="mask-type:alpha" maskUnits="userSpaceOnUse" x="30" y="24" width="11" height="11">
<rect x="0.495899" y="0.499983" width="9" height="9" transform="matrix(1 0 -0.00820296 0.999966 30.799 24.9992)" fill="#F8F8F8" stroke="#B8B8B8"/>
</mask>
<g mask="url(#mask2_256_2506)">
<path d="M35.7604 29.1657C36.2206 29.1657 36.5912 29.5386 36.5876 29.9986C36.5838 30.4589 36.207 30.8326 35.7468 30.8326C35.2867 30.8324 34.9168 30.4588 34.9206 29.9986C34.9245 29.5387 35.3004 29.1658 35.7604 29.1657Z" fill="#E7F6EF" stroke="#76CAA5"/>
<rect x="0.435571" y="0.553427" width="10.6595" height="4.88859" transform="matrix(0.992627 0.113331 -0.121485 0.993523 30.3873 29.1469)" fill="#E7F6EF" stroke="#76CAA5"/>
</g>
<rect x="0.495899" y="0.499983" width="9" height="9" transform="matrix(1 0 -0.00820296 0.999966 30.799 24.9992)" stroke="#76CAA5"/>
<rect width="10" height="10" transform="matrix(1 0 -0.00820296 0.999966 42.7949 24.9991)" fill="white"/>
<mask id="mask3_256_2506" style="mask-type:alpha" maskUnits="userSpaceOnUse" x="42" y="24" width="11" height="11">
<rect x="0.495899" y="0.499983" width="9" height="9" transform="matrix(1 0 -0.00820296 0.999966 42.799 24.9992)" fill="#F8F8F8" stroke="#B8B8B8"/>
</mask>
<g mask="url(#mask3_256_2506)">
<rect x="0.495899" y="0.499983" width="10.6595" height="4.88859" rx="2.44429" transform="matrix(1 0 -0.00820296 0.999966 41.9284 31.7767)" fill="#F4EDF9" stroke="#C296DA"/>
<rect x="0.330599" y="0.333322" width="0.666667" height="2.22222" rx="0.333333" transform="matrix(1 0 -0.00820296 0.999966 45.8796 28.5546)" fill="#F4EDF9" stroke="#C296DA" stroke-width="0.666667"/>
</g>
<rect x="0.495899" y="0.499983" width="9" height="9" transform="matrix(1 0 -0.00820296 0.999966 42.799 24.9992)" stroke="#C296DA"/>
<ellipse cx="12.7833" cy="47.1167" rx="9.45" ry="9.45" fill="white"/>
<path d="M12.2125 47.6541C12.3833 47.8166 12.3833 48.0833 12.2125 48.2458C12.05 48.4083 11.7833 48.4083 11.6208 48.2458C10.8083 47.4333 10.8083 46.1125 11.6208 45.3L13.0958 43.825C13.9083 43.0125 15.2292 43.0125 16.0417 43.825C16.8542 44.6375 16.8542 45.9583 16.0417 46.7708L15.4208 47.3916C15.425 47.05 15.3708 46.7083 15.2542 46.3833L15.45 46.1833C15.9417 45.6958 15.9417 44.9041 15.45 44.4166C14.9625 43.925 14.1708 43.925 13.6833 44.4166L12.2125 45.8875C11.7208 46.375 11.7208 47.1666 12.2125 47.6541ZM13.3875 45.8875C13.55 45.725 13.8167 45.725 13.9792 45.8875C14.7917 46.7 14.7917 48.0208 13.9792 48.8333L12.5042 50.3083C11.6917 51.1208 10.3708 51.1208 9.55835 50.3083C8.74585 49.4958 8.74585 48.175 9.55835 47.3625L10.1792 46.7416C10.175 47.0833 10.2292 47.425 10.3458 47.7541L10.15 47.95C9.65835 48.4375 9.65835 49.2291 10.15 49.7166C10.6375 50.2083 11.4292 50.2083 11.9167 49.7166L13.3875 48.2458C13.8792 47.7583 13.8792 46.9666 13.3875 46.4791C13.2167 46.3166 13.2167 46.05 13.3875 45.8875Z" fill="#8C8C8C"/>
</g>
<defs>
<clipPath id="clip0_256_2506">
<rect width="60" height="60" fill="white"/>
</clipPath>
</defs>
</svg>
