<svg width="60" height="60" viewBox="0 0 60 60" fill="none" xmlns="http://www.w3.org/2000/svg">
<g clip-path="url(#clip0_256_3463)">
<path d="M30.4276 22.3325H29.4052L29.3916 23.9917C27.3288 24.1593 25.9108 25.3995 25.8964 27.1592C25.883 28.7848 26.7804 29.7233 28.552 30.3267L29.3375 30.5948L29.3102 33.9131C28.0549 33.712 27.3393 33.0919 26.962 32.1031L25.3938 33.2595C26.1198 34.6505 27.4532 35.5555 29.2958 35.6729L29.2822 37.332H30.3045L30.3183 35.6561C32.6325 35.4885 34.0178 34.1478 34.0332 32.2707C34.0477 30.511 33.0818 29.7568 30.9257 29.0362L30.3741 28.8519L30.4 25.7011C31.3042 25.8017 31.9711 26.2207 32.4493 27.1759L33.9838 26.0363C33.123 24.7291 31.9217 24.0755 30.4141 23.9749L30.4276 22.3325ZM30.3572 30.9132C31.6275 31.3322 32.0607 31.6506 32.0541 32.4551C32.0476 33.2428 31.5067 33.7958 30.3325 33.9299L30.3572 30.9132ZM29.3779 25.6676L29.3542 28.5502C28.1842 28.1647 27.8196 27.6619 27.8254 26.9581C27.8312 26.2542 28.3885 25.7346 29.3779 25.6676Z" fill="#8C8C8C"/>
</g>
<defs>
<clipPath id="clip0_256_3463">
<rect width="60" height="60" fill="white"/>
</clipPath>
</defs>
</svg>
