<svg width="60" height="60" viewBox="0 0 60 60" fill="none" xmlns="http://www.w3.org/2000/svg">
<g clip-path="url(#clip0_2786_2731)">
<path d="M30.4276 22.333H29.4052L29.3916 23.9922C27.3288 24.1598 25.9108 25.3999 25.8964 27.1597C25.883 28.7853 26.7804 29.7238 28.552 30.3272L29.3375 30.5953L29.3102 33.9136C28.0549 33.7125 27.3393 33.0924 26.962 32.1036L25.3938 33.26C26.1198 34.651 27.4532 35.556 29.2958 35.6733L29.2822 37.3325H30.3045L30.3183 35.6566C32.6325 35.489 34.0178 34.1483 34.0332 32.2712C34.0477 30.5115 33.0818 29.7573 30.9257 29.0367L30.3741 28.8523L30.4 25.7016C31.3042 25.8022 31.9711 26.2211 32.4493 27.1764L33.9838 26.0368C33.123 24.7296 31.9217 24.076 30.4141 23.9754L30.4276 22.333ZM30.3572 30.9137C31.6275 31.3327 32.0607 31.6511 32.0541 32.4556C32.0476 33.2433 31.5067 33.7963 30.3325 33.9304L30.3572 30.9137ZM29.3779 25.6681L29.3542 28.5507C28.1842 28.1652 27.8196 27.6624 27.8254 26.9585C27.8312 26.2547 28.3885 25.7351 29.3779 25.6681Z" fill="#6B6B6B"/>
</g>
<defs>
<clipPath id="clip0_2786_2731">
<rect width="60" height="60" fill="white"/>
</clipPath>
</defs>
</svg>
