<svg width="60" height="60" viewBox="0 0 60 60" fill="none" xmlns="http://www.w3.org/2000/svg">
<g clip-path="url(#clip0_256_2726)">
<mask id="path-1-outside-1_256_2726" maskUnits="userSpaceOnUse" x="13.5844" y="16.6664" width="32.2789" height="33.9989" fill="black">
<rect fill="white" x="13.5844" y="16.6664" width="32.2789" height="33.9989"/>
<path d="M19.609 47.6654L19.65 42.6655H16.65C15.5456 42.6655 14.6576 41.77 14.6664 40.6656L14.8387 19.6663C14.8478 18.5618 15.7505 17.6664 16.8551 17.6664H42.8551C43.9597 17.6664 44.8478 18.5618 44.8387 19.6663L44.6664 40.6656C44.6572 41.77 43.7545 42.6655 42.65 42.6655H24.65L19.609 47.6654Z"/>
</mask>
<path d="M19.609 47.6654L19.65 42.6655H16.65C15.5456 42.6655 14.6576 41.77 14.6664 40.6656L14.8387 19.6663C14.8478 18.5618 15.7505 17.6664 16.8551 17.6664H42.8551C43.9597 17.6664 44.8478 18.5618 44.8387 19.6663L44.6664 40.6656C44.6572 41.77 43.7545 42.6655 42.65 42.6655H24.65L19.609 47.6654Z" fill="#E7F6EF"/>
<path d="M19.609 47.6654H18.609L18.5892 50.0795L20.3103 48.3725L19.609 47.6654ZM19.65 42.6655H20.65L20.6582 41.6656H19.6582L19.65 42.6655ZM14.6664 40.6656L13.6664 40.6656L13.6664 40.6658L14.6664 40.6656ZM16.8551 17.6664L16.8633 16.6664H16.8633L16.8551 17.6664ZM44.6664 40.6656L45.6664 40.6658L45.6664 40.6656H44.6664ZM42.65 42.6655L42.6418 43.6655H42.6418L42.65 42.6655ZM24.65 42.6655L24.6582 41.6656H24.244L23.9487 41.9585L24.65 42.6655ZM19.609 47.6654H20.609L20.65 42.6655H19.65H18.65L18.609 47.6654H19.609ZM19.65 42.6655L19.6582 41.6656H16.6582L16.65 42.6655L16.6418 43.6655H19.6418L19.65 42.6655ZM16.65 42.6655L16.6582 41.6656C16.1062 41.6656 15.662 41.2178 15.6664 40.6654L14.6664 40.6656L13.6664 40.6658C13.6531 42.3221 14.9849 43.6655 16.6418 43.6655L16.65 42.6655ZM14.6664 40.6656H15.6664L15.8387 19.6663H14.8387H13.8387L13.6664 40.6656H14.6664ZM14.8387 19.6663H15.8387C15.8432 19.114 16.2946 18.6663 16.8469 18.6663L16.8551 17.6664L16.8633 16.6664C15.2065 16.6664 13.8523 18.0095 13.8387 19.6663H14.8387ZM16.8551 17.6664L16.8469 18.6663H42.8469L42.8551 17.6664L42.8633 16.6664H16.8633L16.8551 17.6664ZM42.8551 17.6664L42.8469 18.6663C43.3992 18.6663 43.8432 19.114 43.8387 19.6663H44.8387H45.8387C45.8523 18.0095 44.5202 16.6664 42.8633 16.6664L42.8551 17.6664ZM44.8387 19.6663H43.8387L43.6664 40.6656H44.6664H45.6664L45.8387 19.6663H44.8387ZM44.6664 40.6656L43.6664 40.6654C43.6618 41.2178 43.2102 41.6656 42.6582 41.6656L42.65 42.6655L42.6418 43.6655C44.2987 43.6655 45.6526 42.3221 45.6664 40.6658L44.6664 40.6656ZM42.65 42.6655L42.6582 41.6656H24.6582L24.65 42.6655L24.6418 43.6655H42.6418L42.65 42.6655ZM24.65 42.6655L23.9487 41.9585L18.9077 46.9583L19.609 47.6654L20.3103 48.3725L25.3513 43.3726L24.65 42.6655Z" fill="#76CAA5" mask="url(#path-1-outside-1_256_2726)"/>
<path d="M30.7765 32.8851H29.0343C28.8972 31.4616 28.7605 29.9957 28.6921 27.9773L28.4807 22.6659H31.4765L31.1781 27.9561C31.0766 29.9744 30.9156 31.4616 30.7765 32.8851ZM31.1237 34.5848L31.0985 37.6654H28.5914L28.6167 34.5848H31.1237Z" fill="white"/>
<path fill-rule="evenodd" clip-rule="evenodd" d="M31.7121 33.5848H32.1319L32.0903 38.6654H27.5832L27.6248 33.5848H28.0962L28.0388 32.989C27.9014 31.5612 27.7623 30.0711 27.6927 28.0224L27.4398 21.666H32.534L32.1767 28.0012C32.0862 29.7989 31.9488 31.185 31.823 32.4551C31.8056 32.6301 31.7885 32.8029 31.7718 32.9743L31.7121 33.5848ZM29.0343 32.8851C28.8972 31.4617 28.7605 29.9957 28.6921 27.9774L28.4807 22.6659H31.4765L31.1781 27.9561C31.0889 29.7297 30.9538 31.0932 30.8279 32.3637C30.8105 32.539 30.7934 32.7125 30.7765 32.8851H29.0343ZM31.1237 34.5848H28.6166L28.5914 37.6654H31.0985L31.1237 34.5848Z" fill="#76CAA5"/>
</g>
<defs>
<clipPath id="clip0_256_2726">
<rect width="60" height="60" fill="white"/>
</clipPath>
</defs>
</svg>
