<svg width="60" height="60" viewBox="0 0 60 60" fill="none" xmlns="http://www.w3.org/2000/svg">
<g clip-path="url(#clip0_195_3128)">
<mask id="path-1-outside-1_195_3128" maskUnits="userSpaceOnUse" x="13.5844" y="16.6661" width="32.2789" height="33.9989" fill="black">
<rect fill="white" x="13.5844" y="16.6661" width="32.2789" height="33.9989"/>
<path fill-rule="evenodd" clip-rule="evenodd" d="M16.8551 17.6661C15.7505 17.6661 14.8478 18.5615 14.8387 19.666L14.6664 40.6653C14.6574 41.7698 15.5455 42.6652 16.65 42.6652H42.65C43.7546 42.6652 44.6574 41.7698 44.6664 40.6653L44.8387 19.666C44.8478 18.5615 43.9597 17.6661 42.8551 17.6661H16.8551ZM19.65 42.6652L19.609 47.6651L24.65 42.6652H19.65Z"/>
</mask>
<path fill-rule="evenodd" clip-rule="evenodd" d="M16.8551 17.6661C15.7505 17.6661 14.8478 18.5615 14.8387 19.666L14.6664 40.6653C14.6574 41.7698 15.5455 42.6652 16.65 42.6652H42.65C43.7546 42.6652 44.6574 41.7698 44.6664 40.6653L44.8387 19.666C44.8478 18.5615 43.9597 17.6661 42.8551 17.6661H16.8551ZM19.65 42.6652L19.609 47.6651L24.65 42.6652H19.65Z" fill="#E4F8EF"/>
<path d="M19.609 47.6651H18.609L18.5892 50.0792L20.3103 48.3722L19.609 47.6651ZM19.65 42.6652L19.6582 41.6653H18.6582L18.65 42.6652H19.65ZM24.65 42.6652L25.3513 43.3723L27.0724 41.6653H24.6582L24.65 42.6652ZM15.8387 19.666C15.8432 19.1137 16.2946 18.666 16.8469 18.666L16.8633 16.6661C15.2065 16.6661 13.8523 18.0092 13.8387 19.666H15.8387ZM15.6664 40.6653L15.8387 19.666H13.8387L13.6664 40.6653H15.6664ZM16.6582 41.6653C16.1059 41.6653 15.6619 41.2176 15.6664 40.6653H13.6664C13.6528 42.3221 14.985 43.6652 16.6418 43.6652L16.6582 41.6653ZM42.6582 41.6653H16.6582L16.6418 43.6652H42.6418L42.6582 41.6653ZM43.6664 40.6653C43.6619 41.2176 43.2105 41.6653 42.6582 41.6653L42.6418 43.6652C44.2987 43.6652 45.6528 42.3221 45.6664 40.6653H43.6664ZM43.8387 19.666L43.6664 40.6653H45.6664L45.8387 19.666H43.8387ZM42.8469 18.666C43.3992 18.666 43.8432 19.1137 43.8387 19.666H45.8387C45.8523 18.0092 44.5202 16.6661 42.8633 16.6661L42.8469 18.666ZM16.8469 18.666H42.8469L42.8633 16.6661H16.8633L16.8469 18.666ZM20.609 47.6651L20.65 42.6652H18.65L18.609 47.6651H20.609ZM23.9487 41.9582L18.9077 46.958L20.3103 48.3722L25.3513 43.3723L23.9487 41.9582ZM19.6418 43.6652H24.6418L24.6582 41.6653H19.6582L19.6418 43.6652Z" fill="#6BD8A7" mask="url(#path-1-outside-1_195_3128)"/>
<path d="M30.7765 32.8851H29.0343C28.8972 31.4616 28.7605 29.9957 28.6921 27.9773L28.4807 22.6659H31.4765L31.1781 27.9561C31.0766 29.9744 30.9156 31.4616 30.7765 32.8851ZM31.1237 34.5848L31.0985 37.6654H28.5914L28.6167 34.5848H31.1237Z" fill="white"/>
<path fill-rule="evenodd" clip-rule="evenodd" d="M31.7121 33.5848H32.1319L32.0903 38.6654H27.5832L27.6248 33.5848H28.0962L28.0388 32.989C27.9014 31.5612 27.7623 30.0711 27.6927 28.0224L27.4398 21.666H32.534L32.1767 28.0012C32.0862 29.7989 31.9488 31.185 31.823 32.4551C31.8056 32.6301 31.7885 32.8029 31.7718 32.9743L31.7121 33.5848ZM29.0343 32.8851C28.8972 31.4617 28.7605 29.9957 28.6921 27.9774L28.4807 22.6659H31.4765L31.1781 27.9561C31.0889 29.7297 30.9538 31.0932 30.8279 32.3637C30.8105 32.539 30.7934 32.7125 30.7765 32.8851H29.0343ZM31.1237 34.5848H28.6166L28.5914 37.6654H31.0985L31.1237 34.5848Z" fill="#6BD8A7"/>
</g>
<defs>
<clipPath id="clip0_195_3128">
<rect width="60" height="60" fill="white"/>
</clipPath>
</defs>
</svg>
