<svg width="60" height="60" viewBox="0 0 60 60" fill="none" xmlns="http://www.w3.org/2000/svg">
<g clip-path="url(#clip0_256_2382)">
<g clip-path="url(#clip1_256_2382)">
<rect width="20" height="20" rx="9.99998" transform="matrix(1 0 -0.00820296 0.999966 7.16925 19.9993)" fill="white"/>
<mask id="mask0_256_2382" style="mask-type:alpha" maskUnits="userSpaceOnUse" x="7" y="19" width="21" height="21">
<rect x="0.495899" y="0.499983" width="19" height="19" rx="9.49998" transform="matrix(1 0 -0.00820296 0.999966 7.17335 19.9993)" fill="#CBF7E1" stroke="#1FC47A"/>
</mask>
<g mask="url(#mask0_256_2382)">
<rect x="0.495899" y="0.499983" width="4.33333" height="4.33333" rx="2.16667" transform="matrix(1 0 -0.00820296 0.999966 14.493 21.666)" fill="#FBF4E9" stroke="#E8C27F"/>
<rect x="0.495899" y="0.499983" width="6.85713" height="6.85713" rx="3.42856" transform="matrix(1 0 -0.00820296 0.999966 13.2184 23.2135)" fill="#E7F5F6" stroke="#75C3CB"/>
<mask id="path-5-inside-1_256_2382" fill="white">
<path d="M17.1426 23.2133C18.6018 23.2133 19.8677 24.0097 20.5355 25.1908C19.5809 25.9066 18.3971 26.3324 17.117 26.3324C15.8368 26.3323 14.6601 25.9068 13.7172 25.1908C14.4043 24.0097 15.6834 23.2134 17.1426 23.2133Z"/>
</mask>
<path d="M17.1426 23.2133C18.6018 23.2133 19.8677 24.0097 20.5355 25.1908C19.5809 25.9066 18.3971 26.3324 17.117 26.3324C15.8368 26.3323 14.6601 25.9068 13.7172 25.1908C14.4043 24.0097 15.6834 23.2134 17.1426 23.2133Z" fill="#FBF4E9"/>
<path d="M17.1426 23.2133L17.1508 22.2134L17.1507 22.2134L17.1426 23.2133ZM20.5355 25.1908L21.1313 25.989L21.8395 25.458L21.407 24.6932L20.5355 25.1908ZM17.117 26.3324L17.1087 27.3323H17.1088L17.117 26.3324ZM13.7172 25.1908L12.8538 24.6933L12.409 25.458L13.1082 25.989L13.7172 25.1908ZM17.1426 23.2133L17.1344 24.2133C18.2202 24.2133 19.1644 24.8047 19.664 25.6883L20.5355 25.1908L21.407 24.6932C20.5711 23.2148 18.9834 22.2134 17.1508 22.2134L17.1426 23.2133ZM20.5355 25.1908L19.9398 24.3926C19.153 24.9825 18.1798 25.3324 17.1252 25.3324L17.117 26.3324L17.1088 27.3323C18.6145 27.3323 20.0088 26.8308 21.1313 25.989L20.5355 25.1908ZM17.117 26.3324L17.1253 25.3324C16.0705 25.3323 15.1031 24.9826 14.3261 24.3926L13.7172 25.1908L13.1082 25.989C14.2171 26.8309 15.6031 27.3322 17.1087 27.3323L17.117 26.3324ZM13.7172 25.1908L14.5806 25.6883C15.0946 24.8047 16.0485 24.2133 17.1344 24.2133L17.1426 23.2133L17.1507 22.2134C15.3182 22.2135 13.714 23.2147 12.8538 24.6933L13.7172 25.1908Z" fill="#E8C27F" mask="url(#path-5-inside-1_256_2382)"/>
<rect x="0.495899" y="0.499983" width="11.1428" height="11.1428" rx="5.57142" transform="matrix(1 0 -0.00820296 0.999966 11.0023 32.1418)" fill="#F4EDF9" stroke="#C296DA"/>
<rect x="0.495899" y="0.499983" width="19" height="19" rx="9.49998" transform="matrix(1 0 -0.00820296 0.999966 7.17335 19.9993)" stroke="#ABABAB"/>
</g>
</g>
<g clip-path="url(#clip2_256_2382)">
<circle cx="10" cy="10" r="9.5" transform="matrix(1 0 -0.00820296 0.999966 32.1693 19.9993)" fill="white" stroke="#ABABAB"/>
<path d="M39.77 28.035C40.5905 27.9919 41.2106 27.8192 41.6593 27.5027L41.5978 34.9988H43.3532L43.4352 24.9992H41.9388C41.7593 25.8337 41.0064 26.4092 39.7828 26.4811L39.77 28.035Z" fill="#ABABAB"/>
</g>
<ellipse cx="12.7833" cy="47.1167" rx="9.45" ry="9.45" fill="white"/>
<path d="M12.2125 47.6542C12.3833 47.8167 12.3833 48.0833 12.2125 48.2458C12.05 48.4083 11.7833 48.4083 11.6208 48.2458C10.8083 47.4333 10.8083 46.1125 11.6208 45.3L13.0958 43.825C13.9083 43.0125 15.2292 43.0125 16.0417 43.825C16.8542 44.6375 16.8542 45.9583 16.0417 46.7708L15.4208 47.3917C15.425 47.05 15.3708 46.7083 15.2542 46.3833L15.45 46.1833C15.9417 45.6958 15.9417 44.9042 15.45 44.4167C14.9625 43.925 14.1708 43.925 13.6833 44.4167L12.2125 45.8875C11.7208 46.375 11.7208 47.1667 12.2125 47.6542ZM13.3875 45.8875C13.55 45.725 13.8167 45.725 13.9792 45.8875C14.7917 46.7 14.7917 48.0208 13.9792 48.8333L12.5042 50.3083C11.6917 51.1208 10.3708 51.1208 9.55835 50.3083C8.74585 49.4958 8.74585 48.175 9.55835 47.3625L10.1792 46.7417C10.175 47.0833 10.2292 47.425 10.3458 47.7542L10.15 47.95C9.65835 48.4375 9.65835 49.2292 10.15 49.7167C10.6375 50.2083 11.4292 50.2083 11.9167 49.7167L13.3875 48.2458C13.8792 47.7583 13.8792 46.9667 13.3875 46.4792C13.2167 46.3167 13.2167 46.05 13.3875 45.8875Z" fill="#8C8C8C"/>
</g>
<defs>
<clipPath id="clip0_256_2382">
<rect width="60" height="60" fill="white"/>
</clipPath>
<clipPath id="clip1_256_2382">
<rect width="20" height="20" fill="white" transform="matrix(1 0 -0.00820296 0.999966 7.16925 19.9993)"/>
</clipPath>
<clipPath id="clip2_256_2382">
<rect width="20" height="20" fill="white" transform="matrix(1 0 -0.00820296 0.999966 32.1693 19.9993)"/>
</clipPath>
</defs>
</svg>
