<svg width="60" height="60" viewBox="0 0 60 60" fill="none" xmlns="http://www.w3.org/2000/svg">
<g clip-path="url(#clip0_256_2800)">
<mask id="path-1-outside-1_256_2800" maskUnits="userSpaceOnUse" x="13.6227" y="14.9995" width="31.2543" height="30.999" fill="black">
<rect fill="white" x="13.6227" y="14.9995" width="31.2543" height="30.999"/>
<path d="M14.877 14.9995H44.877L44.6309 44.9985H14.6309L14.877 14.9995Z"/>
</mask>
<path d="M14.877 14.9995H44.877L44.6309 44.9985H14.6309L14.877 14.9995Z" fill="white"/>
<path d="M14.6309 44.9985H13.6309L13.6227 45.9985H14.6227L14.6309 44.9985ZM44.6309 44.9985L44.6391 43.9985H14.6391L14.6309 44.9985L14.6227 45.9985H44.6227L44.6309 44.9985ZM14.6309 44.9985H15.6309L15.877 14.9995H14.877H13.877L13.6309 44.9985H14.6309Z" fill="#ABABAB" mask="url(#path-1-outside-1_256_2800)"/>
<rect x="0.495899" y="0.499983" width="29" height="29" transform="matrix(1 0 -0.00820296 0.999966 14.8811 14.9995)" fill="white" stroke="#ABABAB"/>
<circle cx="7.5" cy="7.5" r="7" transform="matrix(1 0 -0.00820296 0.999966 37.6065 7.33301)" fill="white" stroke="#ABABAB"/>
<mask id="path-5-inside-2_256_2800" fill="white">
<path d="M45.1065 7.33301C46.4264 7.33301 47.7201 7.68132 48.8568 8.34276C49.9936 9.0042 50.9332 9.95534 51.5807 11.1001C52.2282 12.2449 52.5608 13.5427 52.5447 14.8626C52.5286 16.1824 52.1645 17.4775 51.4892 18.617C50.8138 19.7565 49.8512 20.7001 48.6984 21.3524C47.5456 22.0048 46.2436 22.3428 44.9238 22.3323C43.6041 22.3218 42.3133 21.9632 41.1819 21.2927C40.0505 20.6222 39.1186 19.6635 38.4802 18.5136L45.045 14.8328L45.1065 7.33301Z"/>
</mask>
<path d="M45.1065 7.33301C46.4264 7.33301 47.7201 7.68132 48.8568 8.34276C49.9936 9.0042 50.9332 9.95534 51.5807 11.1001C52.2282 12.2449 52.5608 13.5427 52.5447 14.8626C52.5286 16.1824 52.1645 17.4775 51.4892 18.617C50.8138 19.7565 49.8512 20.7001 48.6984 21.3524C47.5456 22.0048 46.2436 22.3428 44.9238 22.3323C43.6041 22.3218 42.3133 21.9632 41.1819 21.2927C40.0505 20.6222 39.1186 19.6635 38.4802 18.5136L45.045 14.8328L45.1065 7.33301Z" fill="#E7F6EF" stroke="#76CAA5" stroke-width="2" mask="url(#path-5-inside-2_256_2800)"/>
</g>
<defs>
<clipPath id="clip0_256_2800">
<rect width="60" height="60" fill="white"/>
</clipPath>
</defs>
</svg>
