<?xml version="1.0" encoding="utf-8"?>
<!-- Generator: Adobe Illustrator 27.0.0, SVG Export Plug-In . SVG Version: 6.00 Build 0)  -->
<svg version="1.1" id="Spotify" xmlns="http://www.w3.org/2000/svg" xmlns:xlink="http://www.w3.org/1999/xlink" x="0px" y="0px"
	 viewBox="0 0 500 500" style="enable-background:new 0 0 500 500;" xml:space="preserve">
<style type="text/css">
	.st0{fill-rule:evenodd;clip-rule:evenodd;fill:#626262;}
</style>
<path class="st0" d="M310.7,238.2c-33.2-19.7-87.8-21.5-119.5-11.9c-5.1,1.5-10.5-1.3-12-6.4c-1.5-5.1,1.3-10.5,6.4-12
	c36.3-11,96.7-8.9,134.9,13.8c4.6,2.7,6.1,8.6,3.4,13.2C321.2,239.4,315.3,240.9,310.7,238.2z M309.6,267.3c-2.3,3.8-7.3,5-11,2.6
	c-27.6-17-69.8-21.9-102.5-12c-4.2,1.3-8.7-1.1-10-5.3c-1.3-4.2,1.1-8.7,5.3-10c37.4-11.3,83.8-5.8,115.5,13.7
	C310.8,258.6,312,263.6,309.6,267.3z M297.1,295.3c-1.8,3-5.8,4-8.8,2.1c-24.2-14.8-54.6-18.1-90.4-9.9c-3.4,0.8-6.9-1.4-7.7-4.8
	c-0.8-3.5,1.4-6.9,4.8-7.7c39.2-9,72.8-5.1,99.9,11.5C298,288.4,298.9,292.3,297.1,295.3z M249.9,147C193.1,147,147,193,147,249.8
	c0,56.8,46,102.8,102.8,102.8c56.8,0,102.8-46,102.8-102.8C352.7,193,306.7,147,249.9,147z"/>
</svg>
