<svg width="60" height="60" viewBox="0 0 60 60" fill="none" xmlns="http://www.w3.org/2000/svg">
<g clip-path="url(#clip0_256_3336)">
<mask id="path-1-inside-1_256_3336" fill="white">
<path d="M28.4053 19.9993C29.7261 19.9993 30.9314 20.2234 32.0208 20.6721C33.1102 21.1116 34.0477 21.748 34.8333 22.5812C35.6281 23.4145 36.2349 24.4133 36.6535 25.5762C37.072 26.739 37.2758 28.0391 37.2641 29.4765L37.2554 30.535C37.2435 31.9724 37.0184 33.2725 36.5808 34.4353C36.1431 35.5983 35.5199 36.597 34.7115 37.4303C33.9032 38.2544 32.9416 38.8908 31.8267 39.3394C30.7209 39.779 29.4845 39.9986 28.1182 39.9986H22.3389L22.5029 19.9993H28.4053ZM25.791 37.2653H28.1406C29.3703 37.2653 30.4018 36.995 31.2351 36.4548C32.0776 35.9145 32.7126 35.1408 33.1399 34.1336C33.5763 33.1264 33.8006 31.9268 33.812 30.535L33.8209 29.4491C33.8298 28.3689 33.7143 27.4122 33.4753 26.5791C33.2453 25.7458 32.8962 25.0444 32.4271 24.4767C31.9673 23.909 31.3967 23.4787 30.716 23.1857C30.0444 22.8927 29.2663 22.7462 28.3827 22.7462H25.9101L25.791 37.2653Z"/>
</mask>
<path d="M28.4053 19.9993C29.7261 19.9993 30.9314 20.2234 32.0208 20.6721C33.1102 21.1116 34.0477 21.748 34.8333 22.5812C35.6281 23.4145 36.2349 24.4133 36.6535 25.5762C37.072 26.739 37.2758 28.0391 37.2641 29.4765L37.2554 30.535C37.2435 31.9724 37.0184 33.2725 36.5808 34.4353C36.1431 35.5983 35.5199 36.597 34.7115 37.4303C33.9032 38.2544 32.9416 38.8908 31.8267 39.3394C30.7209 39.779 29.4845 39.9986 28.1182 39.9986H22.3389L22.5029 19.9993H28.4053ZM25.791 37.2653H28.1406C29.3703 37.2653 30.4018 36.995 31.2351 36.4548C32.0776 35.9145 32.7126 35.1408 33.1399 34.1336C33.5763 33.1264 33.8006 31.9268 33.812 30.535L33.8209 29.4491C33.8298 28.3689 33.7143 27.4122 33.4753 26.5791C33.2453 25.7458 32.8962 25.0444 32.4271 24.4767C31.9673 23.909 31.3967 23.4787 30.716 23.1857C30.0444 22.8927 29.2663 22.7462 28.3827 22.7462H25.9101L25.791 37.2653Z" fill="#F0F0F0"/>
<path d="M32.0208 20.6721L31.6335 21.5972L31.6401 21.5999L32.0208 20.6721ZM34.8333 22.5812L34.103 23.2704L34.1069 23.2744L34.8333 22.5812ZM36.6535 25.5762L37.5947 25.2308L37.5947 25.2308L36.6535 25.5762ZM37.2641 29.4765L38.2641 29.4765L38.2641 29.4765L37.2641 29.4765ZM37.2554 30.535L38.2554 30.5351L38.2554 30.535H37.2554ZM36.5808 34.4353L37.5164 34.7808L37.5164 34.7807L36.5808 34.4353ZM34.7115 37.4303L35.4226 38.1276L35.4265 38.1236L34.7115 37.4303ZM31.8267 39.3394L32.1895 40.2683L32.1935 40.2667L31.8267 39.3394ZM22.3389 39.9986H21.3389L21.3307 40.9986H22.3307L22.3389 39.9986ZM22.5029 19.9993L22.5111 18.9993H21.5111L21.5029 19.9993H22.5029ZM25.791 37.2653H24.791L24.7828 38.2653H25.7828L25.791 37.2653ZM31.2351 36.4548L30.7002 35.6143L30.696 35.617L31.2351 36.4548ZM33.1399 34.1336L32.2228 33.7424L32.2198 33.7495L33.1399 34.1336ZM33.812 30.535L34.812 30.5351L34.812 30.535H33.812ZM33.8209 29.4491L34.8209 29.4491L34.8209 29.4491L33.8209 29.4491ZM33.4753 26.5791L32.5111 26.8525L32.5139 26.8621L33.4753 26.5791ZM32.4271 24.4767L31.648 25.1099L31.654 25.1172L32.4271 24.4767ZM30.716 23.1857L30.3098 24.1028L30.3143 24.1047L30.716 23.1857ZM25.9101 22.7462L25.9183 21.7463H24.9183L24.9101 22.7462H25.9101ZM28.4053 19.9993L28.3971 20.9992C29.6031 20.9992 30.6777 21.2035 31.6335 21.5972L32.0208 20.6721L32.4082 19.747C31.1852 19.2433 29.8491 18.9993 28.4135 18.9993L28.4053 19.9993ZM32.0208 20.6721L31.6401 21.5999C32.6003 21.9872 33.4177 22.5435 34.103 23.2703L34.8333 22.5812L35.5636 21.8921C34.6777 20.9525 33.6201 20.236 32.4016 19.7443L32.0208 20.6721ZM34.8333 22.5812L34.1069 23.2744C34.7999 24.001 35.3369 24.8789 35.7122 25.9217L36.6535 25.5762L37.5947 25.2308C37.1329 23.9476 36.4562 22.828 35.5597 21.888L34.8333 22.5812ZM36.6535 25.5762L35.7122 25.9217C36.0851 26.9579 36.275 28.1387 36.2641 29.4765L37.2641 29.4765L38.2641 29.4765C38.2766 27.9395 38.0588 26.5201 37.5947 25.2308L36.6535 25.5762ZM37.2641 29.4765H36.2641L36.2554 30.535H37.2554H38.2554L38.2641 29.4765H37.2641ZM37.2554 30.535L36.2554 30.535C36.2444 31.8728 36.0351 33.0537 35.6452 34.0899L36.5808 34.4353L37.5164 34.7807C38.0016 33.4914 38.2427 32.0721 38.2554 30.5351L37.2554 30.535ZM36.5808 34.4353L35.6452 34.0899C35.2528 35.1327 34.7014 36.0105 33.9965 36.7371L34.7115 37.4303L35.4265 38.1236C36.3385 37.1835 37.0335 36.0639 37.5164 34.7808L36.5808 34.4353ZM34.7115 37.4303L34.0004 36.7331C33.294 37.4533 32.451 38.0133 31.4599 38.4122L31.8267 39.3394L32.1935 40.2667C33.4321 39.7682 34.5124 39.0554 35.4226 38.1275L34.7115 37.4303ZM31.8267 39.3394L31.4639 38.4106C30.4929 38.7966 29.385 38.9986 28.1264 38.9986L28.1182 39.9986L28.11 40.9986C29.5841 40.9986 30.9489 40.7614 32.1895 40.2683L31.8267 39.3394ZM28.1182 39.9986L28.1264 38.9986H22.3471L22.3389 39.9986L22.3307 40.9986H28.11L28.1182 39.9986ZM22.3389 39.9986H23.3389L23.5029 19.9993H22.5029H21.5029L21.3389 39.9986H22.3389ZM22.5029 19.9993L22.4947 20.9992H28.3971L28.4053 19.9993L28.4135 18.9993H22.5111L22.5029 19.9993ZM25.791 37.2653L25.7828 38.2653H28.1324L28.1406 37.2653L28.1488 36.2653H25.7992L25.791 37.2653ZM28.1406 37.2653L28.1324 38.2653C29.5089 38.2653 30.7421 37.9616 31.7743 37.2925L31.2351 36.4548L30.696 35.617C30.0615 36.0283 29.2316 36.2653 28.1488 36.2653L28.1406 37.2653ZM31.2351 36.4548L31.7701 37.2952C32.8 36.6347 33.5611 35.6938 34.0601 34.5176L33.1399 34.1336L32.2198 33.7495C31.8642 34.5878 31.3551 35.1943 30.7002 35.6143L31.2351 36.4548ZM33.1399 34.1336L34.057 34.5247C34.5593 33.3653 34.7997 32.0263 34.812 30.5351L33.812 30.535L32.812 30.535C32.8014 31.8272 32.5932 32.8874 32.2228 33.7424L33.1399 34.1336ZM33.812 30.535H34.812L34.8209 29.4491H33.8209H32.8209L32.812 30.535H33.812ZM33.8209 29.4491L34.8209 29.4491C34.8304 28.2951 34.7076 27.2401 34.4368 26.2961L33.4753 26.5791L32.5139 26.8621C32.7211 27.5844 32.8291 28.4427 32.8209 29.4492L33.8209 29.4491ZM33.4753 26.5791L34.4395 26.3058C34.1788 25.3613 33.7723 24.5286 33.2003 23.8361L32.4271 24.4767L31.654 25.1172C32.02 25.5602 32.3118 26.1303 32.5112 26.8525L33.4753 26.5791ZM32.4271 24.4767L33.2063 23.8434C32.6441 23.1495 31.9434 22.6221 31.1178 22.2667L30.716 23.1857L30.3143 24.1047C30.85 24.3353 31.2904 24.6685 31.648 25.1099L32.4271 24.4767ZM30.716 23.1857L31.1223 22.2686C30.3024 21.911 29.3843 21.7463 28.3909 21.7463L28.3827 22.7462L28.3745 23.7462C29.1483 23.7462 29.7863 23.8743 30.3098 24.1027L30.716 23.1857ZM28.3827 22.7462L28.3909 21.7463H25.9183L25.9101 22.7462L25.9019 23.7462H28.3745L28.3827 22.7462ZM25.9101 22.7462H24.9101L24.791 37.2653H25.791H26.791L26.9101 22.7462H25.9101Z" fill="#ABABAB" mask="url(#path-1-inside-1_256_3336)"/>
</g>
<defs>
<clipPath id="clip0_256_3336">
<rect width="60" height="60" fill="white"/>
</clipPath>
</defs>
</svg>
