<svg width="60" height="60" viewBox="0 0 60 60" fill="none" xmlns="http://www.w3.org/2000/svg">
<g clip-path="url(#clip0_256_3402)">
<path d="M31.4167 19.8416L32.2766 20.0095L32.7242 20.0974L32.6736 20.5515L32.2888 24.0016L34.5111 21.3112L34.806 20.9548L35.1828 21.2165L35.8732 21.696L36.2353 21.9479L36.0261 22.3405L34.3787 25.4273L37.4363 23.7565L37.8415 23.5348L38.0922 23.9176L38.5648 24.6373L38.8108 25.0123L38.4618 25.2994L35.7255 27.5493L39.2227 27.1753L39.6851 27.1255L39.7643 27.5825L39.9248 28.4936L40.0022 28.937L39.5686 29.0639L36.2618 30.0268L39.5546 31.0072L39.9842 31.1351L39.8995 31.5765L39.7241 32.4876L39.6363 32.9466L39.1739 32.8948L35.7181 32.5072L38.3827 34.6965L38.731 34.9836L38.4769 35.3606L37.9925 36.0803L37.7354 36.4631L37.3339 36.2424L34.3047 34.5706L35.9004 37.6584L36.1033 38.0499L35.7369 38.3019L35.0387 38.7814L34.6576 39.044L34.3685 38.6866L32.1914 35.9963L32.5186 39.4464L32.5617 39.9005L32.1127 39.9884L31.25 40.1563L30.807 40.2423L30.6787 39.8116L29.6837 36.4631L28.6699 39.8067L28.5384 40.2393L28.0967 40.1573L27.1889 39.9893L26.7355 39.9053L26.7861 39.4464L27.1668 36.0178L24.9994 38.6837L24.7143 39.0343L24.3374 38.7902L23.6001 38.3107L23.2155 38.0607L23.4356 37.6544L25.1093 34.5754L22.0468 36.2424L21.6427 36.4621L21.3919 36.0803L20.9193 35.3606L20.6704 34.9827L21.0253 34.6956L23.7504 32.4984L20.2844 32.8704L19.8231 32.9202L19.7428 32.4642L19.5823 31.5531L19.5059 31.1127L19.9347 30.9838L23.2093 29.9985L19.9508 29.0151L19.5241 28.8852L19.6078 28.4458L19.871 27.0777L20.3315 27.1275L23.7914 27.4985L21.1024 25.3023L20.7522 25.0162L21.0072 24.6373L21.4916 23.9176L21.7487 23.5358L22.1492 23.7555L25.1844 25.4215L23.5612 22.3434L23.3477 21.9382L23.7365 21.6882L24.4817 21.2077L24.8626 20.9636L25.1419 21.3142L27.2656 23.9791L26.9411 20.5515L26.898 20.0925L27.3528 20.0086L28.2634 19.8416L28.7064 19.7595L28.8308 20.1912L29.7897 23.5338L30.8396 20.1873L30.975 19.7556L31.4167 19.8416Z" fill="#FBECEE" stroke="#E78E9E"/>
</g>
<defs>
<clipPath id="clip0_256_3402">
<rect width="60" height="60" fill="white"/>
</clipPath>
</defs>
</svg>
