<svg width="60" height="60" viewBox="0 0 60 60" fill="none" xmlns="http://www.w3.org/2000/svg">
<g clip-path="url(#clip0_3078_6315)">
<path d="M39.223 27.1751L35.7264 27.5497L38.4621 25.2989L38.8111 25.0117L38.5649 24.637L38.0923 23.9174L37.841 23.5349L37.4366 23.756L34.3796 25.4274L36.026 22.3399L36.235 21.948L35.8729 21.6962L35.1829 21.2165L34.8056 20.9541L34.5107 21.3114L32.2899 24.0016L32.6737 20.5517L32.7242 20.0971L32.2764 20.0097L31.4164 19.8418L30.9747 19.7555L30.8397 20.1866L29.7908 23.5348L28.8304 20.1909L28.7064 19.7591L28.263 19.8408L27.3523 20.0088L26.8978 20.0926L26.9413 20.5517L27.2664 23.9795L25.142 21.3142L24.8623 20.9632L24.4819 21.2079L23.7362 21.6877L23.3476 21.9377L23.5616 22.3435L25.1847 25.4215L22.1488 23.7555L21.7484 23.5357L21.4914 23.9174L21.007 24.637L20.7521 25.0156L21.1028 25.3021L23.7914 27.4985L20.3316 27.1271L19.8708 27.0777L19.7832 27.5339L19.6082 28.4454L19.5238 28.8854L19.9511 29.0145L23.211 29.9989L19.935 30.9833L19.5055 31.1123L19.5828 31.5524L19.7428 32.4638L19.8229 32.9201L20.2845 32.8706L23.7503 32.4993L21.0257 34.6957L20.6703 34.9822L20.919 35.3607L21.3917 36.0803L21.6424 36.462L22.0464 36.2422L25.1096 34.5763L23.436 37.6542L23.2153 38.06L23.5999 38.3101L24.3377 38.7898L24.714 39.0345L24.9995 38.6835L27.1676 36.0183L26.7863 39.4461L26.7353 39.9052L27.1884 39.989L28.0963 40.1569L28.5384 40.2386L28.6695 39.8068L29.6847 36.4629L30.6787 39.8111L30.8067 40.2422L31.2498 40.1559L32.1125 39.988L32.5618 39.9006L32.5187 39.4461L32.1915 35.9961L34.3681 38.6863L34.6572 39.0436L35.0388 38.7812L35.7367 38.3015L36.1029 38.0498L35.9003 37.6578L34.3046 34.5703L37.3341 36.2417L37.735 36.4628L37.9925 36.0803L38.477 35.3607L38.7311 34.9833L38.3823 34.6966L35.7185 32.5073L39.1738 32.8943L39.6365 32.9462L39.7245 32.4878L39.8994 31.5764L39.9842 31.1345L39.5546 31.0067L36.2617 30.0268L39.5684 29.0636L40.0026 28.9372L39.9247 28.4933L39.7647 27.5819L39.6846 27.1256L39.223 27.1751Z" fill="#F4BDBD" stroke="#E98080"/>
</g>
<defs>
<clipPath id="clip0_3078_6315">
<rect width="60" height="60" fill="white"/>
</clipPath>
</defs>
</svg>
