<svg width="60" height="60" viewBox="0 0 60 60" fill="none" xmlns="http://www.w3.org/2000/svg">
<g clip-path="url(#clip0_256_3578)">
<g clip-path="url(#clip1_256_3578)">
<path d="M18.4766 23.1712C18.4886 21.7051 19.8338 20.6023 21.2711 20.8802L34.0465 23.3507C35.1426 23.5627 35.9279 24.5236 35.9187 25.6417L35.8472 34.3566C35.838 35.4747 35.037 36.4356 33.9374 36.6476L21.1215 39.1181C19.6797 39.396 18.3525 38.2932 18.3646 36.8271L18.4766 23.1712Z" fill="#E7F5F6"/>
<g style="mix-blend-mode:multiply">
<path d="M41.8099 23.1712C41.8219 21.7051 40.4948 20.6023 39.053 20.8802L26.237 23.3507C25.1375 23.5627 24.3364 24.5236 24.3273 25.6417L24.2558 34.3566C24.2466 35.4747 25.0319 36.4356 26.128 36.6476L38.9034 39.1181C40.3406 39.396 41.6858 38.2932 41.6979 36.8271L41.8099 23.1712Z" fill="#F4EDF9"/>
</g>
<path d="M18.9766 23.1711C18.9861 22.0193 20.0429 21.1531 21.172 21.3713L33.9476 23.8419C34.8088 24.0085 35.4254 24.7632 35.4182 25.6417L35.3467 34.3562C35.3395 35.2347 34.7106 35.9904 33.8466 36.157L21.0305 38.6276C19.8977 38.8457 18.8551 37.9787 18.8646 36.8269L18.9766 23.1711Z" stroke="#75C3CB"/>
<path d="M41.3099 23.1711C41.3193 22.0193 40.2767 21.1531 39.144 21.3713L26.3278 23.8419C25.4639 24.0085 24.8349 24.7632 24.8277 25.6417L24.7562 34.3562C24.749 35.2347 25.3656 35.9904 26.2268 36.157L39.0024 38.6276C40.1316 38.8457 41.1884 37.9787 41.1979 36.8269L41.3099 23.1711Z" stroke="#C296DA"/>
<line y1="-0.5" x2="14.5594" y2="-0.5" transform="matrix(-0.00820324 0.999966 -1 -6.69884e-09 30.0723 22.6431)" stroke="#8FADEA"/>
</g>
</g>
<defs>
<clipPath id="clip0_256_3578">
<rect width="60" height="60" fill="white"/>
</clipPath>
<clipPath id="clip1_256_3578">
<rect width="23.3333" height="18.6667" fill="white" transform="matrix(1 0 -0.00820296 0.999966 18.4971 20.666)"/>
</clipPath>
</defs>
</svg>
