<svg width="60" height="60" viewBox="0 0 60 60" fill="none" xmlns="http://www.w3.org/2000/svg">
<g clip-path="url(#clip0_3078_6323)">
<g clip-path="url(#clip1_3078_6323)">
<path d="M18.4766 23.1709C18.4886 21.7049 19.8338 20.602 21.2711 20.88L34.0465 23.3505C35.1426 23.5625 35.9279 24.5234 35.9187 25.6414L35.8472 34.3564C35.838 35.4744 35.037 36.4354 33.9374 36.6473L21.1215 39.1178C19.6797 39.3958 18.3525 38.293 18.3646 36.8269L18.4766 23.1709Z" fill="#AEE5E5"/>
<g style="mix-blend-mode:multiply">
<path d="M41.8099 23.1709C41.8219 21.7049 40.4948 20.602 39.053 20.88L26.237 23.3505C25.1375 23.5625 24.3364 24.5234 24.3273 25.6414L24.2558 34.3564C24.2466 35.4744 25.0319 36.4354 26.128 36.6473L38.9034 39.1178C40.3406 39.3958 41.6858 38.293 41.6979 36.8269L41.8099 23.1709Z" fill="#DBC3E9"/>
</g>
<path d="M21.1722 21.3709L33.9477 23.8414C34.8089 24.008 35.4259 24.763 35.4187 25.6414L35.3472 34.3564C35.34 35.2349 34.7106 35.9899 33.8467 36.1564L21.0307 38.6269C19.8978 38.8453 18.8551 37.9788 18.8646 36.8269L18.9766 23.1709C18.986 22.019 20.043 21.1525 21.1722 21.3709Z" stroke="#61CCCC"/>
<path d="M39.1438 21.3709L26.3278 23.8414C25.4639 24.008 24.8345 24.763 24.8273 25.6414L24.7558 34.3564C24.7486 35.2349 25.3656 35.9899 26.2268 36.1564L39.0022 38.6269C40.1315 38.8453 41.1884 37.9788 41.1979 36.8269L41.3099 23.1709C41.3193 22.019 40.2766 21.1525 39.1438 21.3709Z" stroke="#B98BD3"/>
<line y1="-0.5" x2="14.5594" y2="-0.5" transform="matrix(-0.00820324 0.999966 -1 -6.69884e-09 30.0723 22.6431)" stroke="#638CDF"/>
</g>
</g>
<defs>
<clipPath id="clip0_3078_6323">
<rect width="60" height="60" fill="white"/>
</clipPath>
<clipPath id="clip1_3078_6323">
<rect width="23.3333" height="18.6667" fill="white" transform="matrix(1 0 -0.00820296 0.999966 18.4971 20.666)"/>
</clipPath>
</defs>
</svg>
