<svg width="60" height="60" viewBox="0 0 60 60" fill="none" xmlns="http://www.w3.org/2000/svg">
<g clip-path="url(#clip0_256_3884)">
<rect x="0.495899" y="0.499983" width="4" height="4" transform="matrix(1 0 -0.00820296 0.999966 19.84 19.9995)" fill="#ECF1FB" stroke="#8FADEA"/>
<rect x="0.495899" y="0.499983" width="4" height="4" transform="matrix(1 0 -0.00820296 0.999966 19.7799 27.3325)" fill="white" stroke="#D6D6D6"/>
<rect x="0.495899" y="0.499983" width="4" height="4" transform="matrix(1 0 -0.00820296 0.999966 19.717 34.999)" fill="white" stroke="#D6D6D6"/>
<rect x="0.495899" y="0.499983" width="4" height="4" transform="matrix(1 0 -0.00820296 0.999966 27.5067 19.9995)" fill="white" stroke="#D6D6D6"/>
<rect x="0.495899" y="0.499983" width="4" height="4" transform="matrix(1 0 -0.00820296 0.999966 27.4465 27.3325)" fill="white" stroke="#D6D6D6"/>
<rect x="0.495899" y="0.499983" width="4" height="4" transform="matrix(1 0 -0.00820296 0.999966 27.3837 34.999)" fill="white" stroke="#D6D6D6"/>
<rect x="0.495899" y="0.499983" width="4" height="4" transform="matrix(1 0 -0.00820296 0.999966 34.5067 19.9995)" fill="white" stroke="#D6D6D6"/>
<rect x="0.495899" y="0.499983" width="4" height="4" transform="matrix(1 0 -0.00820296 0.999966 34.7799 27.3325)" fill="white" stroke="#D6D6D6"/>
<rect x="0.495899" y="0.499983" width="4" height="4" transform="matrix(1 0 -0.00820296 0.999966 34.717 34.999)" fill="white" stroke="#D6D6D6"/>
</g>
<defs>
<clipPath id="clip0_256_3884">
<rect width="60" height="60" fill="white"/>
</clipPath>
</defs>
</svg>
