<svg width="60" height="60" viewBox="0 0 60 60" fill="none" xmlns="http://www.w3.org/2000/svg">
<g clip-path="url(#clip0_256_2778)">
<rect width="20" height="20" transform="matrix(1 0 -0.00820296 0.999966 7.50262 19.9993)" fill="white"/>
<mask id="mask0_256_2778" style="mask-type:alpha" maskUnits="userSpaceOnUse" x="7" y="19" width="21" height="21">
<rect x="0.495899" y="0.499983" width="19" height="19" transform="matrix(1 0 -0.00820296 0.999966 7.50673 19.9993)" fill="#F8F8F8" stroke="#B8B8B8"/>
</mask>
<g mask="url(#mask0_256_2778)">
<circle cx="2.66667" cy="2.66667" r="2.16667" transform="matrix(1 0 -0.00820296 0.999966 18.3605 23.777)" fill="#FBF4E9" stroke="#E8C27F"/>
<rect x="11.9291" y="42.6199" width="10.5431" height="10.4488" rx="2.5" transform="rotate(-44.765 11.9291 42.6199)" fill="#ECF1FB" stroke="#8FADEA"/>
<rect x="4.31727" y="38.9279" width="10.5431" height="15.0984" rx="2.5" transform="rotate(-44.765 4.31727 38.9279)" fill="#ECF1FB" stroke="#8FADEA"/>
</g>
<rect x="0.495899" y="0.499983" width="19" height="19" transform="matrix(1 0 -0.00820296 0.999966 7.50673 19.9993)" stroke="#8FADEA"/>
<rect width="20" height="2" transform="matrix(1 0 -0.00820296 0.999966 32.4206 29.999)" fill="#ABABAB"/>
<rect width="20" height="2" transform="matrix(1 0 -0.00820296 0.999966 32.3878 33.9989)" fill="#ABABAB"/>
<rect width="20" height="2" transform="matrix(1 0 -0.00820296 0.999966 32.355 37.9987)" fill="#ABABAB"/>
<path d="M38.837 27.9991L38.9026 19.9993H37.494L37.4677 23.1947H33.8851L33.9113 19.9993H32.5026L32.437 27.9991H33.8457L33.8746 24.4751H37.4572L37.4283 27.9991H38.837Z" fill="#ABABAB"/>
</g>
<defs>
<clipPath id="clip0_256_2778">
<rect width="60" height="60" fill="white"/>
</clipPath>
</defs>
</svg>
