<svg xmlns="http://www.w3.org/2000/svg" viewBox="0 0 500 500"><defs><style>.a{fill:#626262;}.b{opacity:0;}</style></defs><path class="a" d="M205.56,218.79a31.28,31.28,0,1,1-31.28,31.28A31.28,31.28,0,0,1,205.56,218.79Zm69.57,75.47a25,25,0,1,0,24.26-19.17A24.87,24.87,0,0,0,281,283.23L246.7,264.92a43.33,43.33,0,0,1-5.9,11ZM324.41,200a25,25,0,1,0-49.28,5.85L240.8,224.18a43.39,43.39,0,0,1,5.9,11L281,216.91A24.95,24.95,0,0,0,324.41,200Z"/><g class="b"><path d="M499,1V499H1V1H499m1-1H0V500H500V0Z"/></g></svg>