<svg xmlns="http://www.w3.org/2000/svg" viewBox="0 0 500 500"><defs><style>.a{fill:#d4d4d4;}.b{fill:#525252;}.c{opacity:0;}</style></defs><rect class="a" x="102.42" y="237" width="50" height="25"/><rect class="a" x="102.5" y="190" width="50" height="25"/><rect class="b" x="102.42" y="139" width="50" height="25"/><rect class="a" x="102" y="338" width="25" height="25"/><rect class="a" x="102.46" y="288" width="50" height="25"/><rect class="a" x="185.64" y="237" width="50" height="25"/><rect class="a" x="185.64" y="190" width="50" height="25"/><rect class="b" x="185.65" y="139" width="50" height="25"/><rect class="a" x="186" y="338" width="25" height="25"/><rect class="a" x="185.72" y="288" width="50" height="25"/><rect class="a" x="348.62" y="237" width="50" height="25"/><rect class="a" x="348.59" y="190" width="50" height="25"/><rect class="b" x="348.62" y="139" width="50" height="25"/><rect class="a" x="349" y="338" width="25" height="25"/><rect class="a" x="348.71" y="288" width="50" height="25"/><rect class="a" x="268.3" y="237" width="50" height="25"/><rect class="a" x="268.17" y="190" width="50" height="25"/><rect class="b" x="268.3" y="139" width="50" height="25"/><rect class="a" x="268" y="338" width="25" height="25"/><rect class="a" x="268.38" y="288" width="50" height="25"/><g class="c"><path d="M499,1V499H1V1H499m1-1H0V500H500V0Z"/></g></svg>