<svg xmlns="http://www.w3.org/2000/svg" viewBox="0 0 500 500"><defs><style>.a,.c{fill:none;stroke-miterlimit:10;stroke-width:10px;}.a{stroke:#d4d4d4;}.b{fill:#d4d4d4;}.c{stroke:#525252;}.d{fill:#f8f8f8;}.e{fill:#525252;}.f{opacity:0;}</style></defs><polyline class="a" points="344 363 137 363 137 156"/><path class="b" d="M349,151V348H152V151H349m10-10H142V358H359V141Z"/><rect class="c" x="173" y="173" width="154" height="38"/><rect class="a" x="173" y="289" width="154" height="38"/><rect class="a" x="173" y="231" width="154" height="38"/><circle class="d" cx="349.68" cy="146.64" r="50"/><path class="b" d="M349.68,105a41.69,41.69,0,1,1-29.47,12.21A41.4,41.4,0,0,1,349.68,105m0-8.32a50,50,0,1,0,50,50,50,50,0,0,0-50-50Z"/><rect class="b" x="339.62" y="129.46" width="39.51" height="3.99" transform="translate(57.61 366.77) rotate(-58.04)"/><rect class="b" x="323.57" y="143.88" width="27.62" height="3.99" transform="translate(665.21 312.09) rotate(-176.5)"/><circle class="b" cx="349.77" cy="146.72" r="4.16"/><circle class="d" cx="349.68" cy="146.64" r="50"/><path class="e" d="M349.68,105a41.69,41.69,0,1,1-29.47,12.21A41.4,41.4,0,0,1,349.68,105m0-8.32a50,50,0,1,0,50,50,50,50,0,0,0-50-50Z"/><rect class="e" x="339.62" y="129.46" width="39.51" height="3.99" transform="translate(57.61 366.77) rotate(-58.04)"/><rect class="e" x="323.57" y="143.88" width="27.62" height="3.99" transform="translate(665.21 312.09) rotate(-176.5)"/><circle class="e" cx="349.77" cy="146.72" r="4.16"/><g class="f"><path d="M499,1V499H1V1H499m1-1H0V500H500V0Z"/></g></svg>