<svg xmlns="http://www.w3.org/2000/svg" viewBox="0 0 500 500"><defs><style>.a{fill:#626262;}.b{opacity:0;}</style></defs><path class="a" d="M242.57,217.72h-8.21V201.29h8.21v8.21H259v8.22h-8.22v8.21h-8.21ZM259,316.29v-8.22h-8.22v8.22Zm-8.22-123.22v-8.21H234.36v8.21h8.21v8.22h8.21Zm65.72-8.21v49.28h-8.21v-8.21H275.43V184.86Zm-8.21,32.86V193.07H283.64v24.65Zm-115,16.42h-8.21v8.22H201.5v-8.22Zm0,24.65h8.22V267h8.21V242.36H201.5v8.21H185.07V267h8.21ZM234.36,267v16.43h8.21V267Zm32.85-82.14H259V209.5h8.21Zm0,41.07v-8.21H259v8.21Zm24.65-16.43h8.21v-8.21h-8.21Zm-82.15-8.21H201.5v8.21h8.21Zm16.43-16.43v41.07H185.07V184.86Zm-8.21,8.21H193.28v24.65h24.65Zm73.93,41.07v8.22h-8.22v-8.22H267.21v8.22H259v-8.22H234.36v-8.21h-8.22v8.21h-8.21v8.22h8.21v16.43h8.22v-8.22h8.21V267h8.21V250.57h24.65v8.22H259V267h16.43v8.22h8.21V250.57h8.22v8.22h8.21v16.43h8.22V267h8.21v-8.21h-8.21v-8.22h-8.22v-8.21h8.22v-8.22ZM201.5,299.86h8.21v-8.21H201.5Zm-16.43-24.64h41.07v41.07H185.07Zm8.21,32.85h24.65V283.43H193.28Zm98.58-24.64v-8.21h-8.22v8.21Zm0,8.22h-8.22v8.21h-8.21v-8.21h-8.22v-8.22h8.22v-8.21H259V267h-8.22v16.43h-8.21v8.22h-8.21v24.64h8.21v-8.22h8.21v-8.21h16.43v16.43h8.22v-8.22h8.21v8.22h16.43v-8.22h8.22v-8.21H291.86ZM217.93,267h8.21v-8.21h-8.21Zm82.14,16.43v8.22h8.22v8.21h8.21V275.22h-8.21v8.21Zm16.43,32.86v-8.22h-8.21v8.22Zm0-65.72v-8.21h-8.21v8.21Zm-16.43-82.14h32.86v32.86h16.43V152H300.07ZM168.64,201.29V168.43H201.5V152H152.21v49.29ZM201.5,332.72H168.64V299.86H152.21v49.29H201.5Zm131.43-32.86v32.86H300.07v16.43h49.29V299.86Z"/><g class="b"><path d="M499,1V499H1V1H499m1-1H0V500H500V0Z"/></g></svg>