<?xml version="1.0" encoding="utf-8"?>
<!-- Generator: Adobe Illustrator 23.0.1, SVG Export Plug-In . SVG Version: 6.00 Build 0)  -->
<svg version="1.1" xmlns="http://www.w3.org/2000/svg" xmlns:xlink="http://www.w3.org/1999/xlink" x="0px" y="0px"
	 viewBox="0 0 500 500" style="enable-background:new 0 0 500 500;" xml:space="preserve">
<style type="text/css">
	.st0{display:none;}
	.st1{display:inline;fill:#d4d4d4;}
	.st2{display:inline;fill:#525252;}
	.st3{fill:#626262;}
</style>
<g id="Experimental" class="st0">
	<rect x="200" y="100" class="st1" width="100" height="151"/>
	<circle class="st2" cx="250" cy="350" r="50"/>
	<rect x="200" y="250" class="st2" width="100" height="101"/>
	<circle class="st2" cx="262.5" cy="262.5" r="25.5"/>
	<circle class="st1" cx="240.5" cy="290.5" r="25.5"/>
	<circle class="st1" cx="261.5" cy="353.5" r="12.5"/>
</g>
<g id="Layout_footer" class="st0">
	<rect x="101" y="184" class="st1" width="174" height="151"/>
	<rect x="101" y="102.5" class="st1" width="298" height="57"/>
	<rect x="300" y="184" class="st1" width="99" height="151"/>
	<rect x="101" y="360" class="st2" width="298" height="40"/>
</g>
<g id="Layout_main_right" class="st0">
	<rect x="101" y="184" class="st1" width="174" height="151"/>
	<rect x="101" y="102.5" class="st1" width="298" height="57"/>
	<rect x="300" y="184" class="st2" width="99" height="151"/>
	<rect x="101" y="360" class="st1" width="298" height="40"/>
</g>
<g id="Layout_main_left" class="st0">
	<rect x="101" y="184" class="st2" width="174" height="151"/>
	<rect x="101" y="102.5" class="st1" width="298" height="57"/>
	<rect x="300" y="184" class="st1" width="99" height="151"/>
	<rect x="101" y="360" class="st1" width="298" height="40"/>
</g>
<g id="Layout_header" class="st0">
	<rect x="101" y="184" class="st1" width="174" height="151"/>
	<rect x="101" y="102.5" class="st2" width="298" height="57"/>
	<rect x="300" y="184" class="st1" width="99" height="151"/>
	<rect x="101" y="360" class="st1" width="298" height="40"/>
</g>
<g id="Map">
	<path class="st3" d="M250.17,349.02c-4.68-9.18-9.25-18.15-13.82-27.13c-3.82-7.48-7.64-14.96-11.46-22.43
		c-6.06-11.87-12.12-23.75-18.18-35.63c-3.82-7.48-7.73-14.91-11.45-22.44c-4.41-8.94-6.77-18.37-6.64-28.41
		c0.11-8.14,1.6-15.99,4.75-23.47c3.63-8.63,8.97-16.13,16.06-22.29c13.51-11.73,29.26-16.77,47.03-15.18
		c7.42,0.66,14.51,2.75,21.22,6.11c7.52,3.76,14.01,8.81,19.47,15.17c6.47,7.54,10.89,16.16,13.12,25.86
		c2.44,10.6,2.42,21.21-0.86,31.6c-1.54,4.87-3.71,9.58-5.96,14.19c-4.22,8.63-8.7,17.13-13.08,25.69
		c-3.73,7.29-7.46,14.58-11.18,21.87c-5.05,9.91-10.07,19.84-15.13,29.75c-4.46,8.74-8.97,17.46-13.46,26.19
		C250.54,348.59,250.43,348.69,250.17,349.02z M250.15,176.36c-20.3,0.02-36.94,16.79-36.86,37.13c0.08,20.46,16.66,37,37.03,36.95
		c20.42-0.05,36.96-16.64,36.94-37.04C287.24,192.94,270.61,176.34,250.15,176.36z"/>
</g>
</svg>
