<?xml version="1.0" encoding="utf-8"?>
<!-- Generator: Adobe Illustrator 23.0.1, SVG Export Plug-In . SVG Version: 6.00 Build 0)  -->
<svg version="1.1" id="Infographics" xmlns="http://www.w3.org/2000/svg" xmlns:xlink="http://www.w3.org/1999/xlink" x="0px"
	 y="0px" viewBox="0 0 500 500" style="enable-background:new 0 0 500 500;" xml:space="preserve">
<style type="text/css">
	.st0{fill:#525252;}
	.st1{fill:none;stroke:#d4d4d4;stroke-width:6;stroke-miterlimit:10;}
	.st2{fill:none;stroke:#525252;stroke-width:6;stroke-miterlimit:10;}
	.st3{fill:#d4d4d4;}
</style>
<rect x="61.5" y="237.5" transform="matrix(4.489571e-11 -1 1 4.489571e-11 -38.5 461.5)" class="st0" width="300" height="25"/>
<rect x="28.5" y="303.5" transform="matrix(4.490103e-11 -1 1 4.490103e-11 -203.5 428.5)" class="st0" width="168" height="25"/>
<rect x="62.5" y="287.5" transform="matrix(4.490192e-11 -1 1 4.490192e-11 -137.5 462.5)" class="st0" width="200" height="25"/>
<g>
	<line class="st1" x1="250" y1="157" x2="399" y2="157"/>
</g>
<g>
	<line class="st1" x1="250" y1="182" x2="399" y2="182"/>
</g>
<g>
	<line class="st1" x1="324.67" y1="212.63" x2="324.67" y2="121.43"/>
</g>
<g>
	<line class="st2" x1="324.17" y1="132" x2="324.17" y2="101"/>
</g>
<g>
	<line class="st2" x1="250" y1="132" x2="399" y2="132"/>
</g>
<g>
	<path class="st0" d="M387,113v87.63H262V113H387 M399,101H250v111.63h149V101L399,101z"/>
</g>
<path class="st3" d="M324,325l48.95-55.48C359.9,258,342.77,251,324,251c-40.87,0-74,33.13-74,74s33.13,74,74,74s74-33.13,74-74
	c0-5.85-0.7-11.53-1.98-16.99L324,325z"/>
</svg>
