<svg xmlns="http://www.w3.org/2000/svg" viewBox="0 0 500 500"><defs><style>.a{fill:#626262;}.b{opacity:0;}</style></defs><path class="a" d="M196.42,145.91l10.44,1.81c-3.16,20,7.06,22.47,24.08,25.64,13.1,2.43,27.92,5.55,27.92,29.29v5.71H248.31v-5.71c0-13.88-4.28-16.13-19.3-18.93C206,179.44,192.46,171.31,196.42,145.91ZM357,270.81c0,29.54-23.26,53.52-52,53.52a51,51,0,0,1-35-14c-11.69-11-29.24-10.1-40.59.34a50.92,50.92,0,0,1-34.61,13.62c-28.7,0-52-24-52-53.52s23.26-53.53,52-53.53l112.08.06C334.75,218.37,357,241.92,357,270.81Zm-133.82-8.93H205.34V244H187.49v17.84H169.65v17.85h17.84v17.84h17.85V279.73h17.84Zm35.68,8.93H241v8.92h17.84ZM294.55,253a8.92,8.92,0,1,0,8.92-8.92A8.92,8.92,0,0,0,294.55,253Zm0,17.85a8.92,8.92,0,1,0-8.92,8.92A8.92,8.92,0,0,0,294.55,270.81Zm17.84,17.84a8.92,8.92,0,1,0-8.92,8.92A8.91,8.91,0,0,0,312.39,288.65Zm17.85-17.84a8.93,8.93,0,1,0-8.93,8.92A8.93,8.93,0,0,0,330.24,270.81Z"/><g class="b"><path d="M499,1V499H1V1H499m1-1H0V500H500V0Z"/></g></svg>