<svg xmlns="http://www.w3.org/2000/svg" viewBox="0 0 500 500"><defs><style>.a{fill:#525252;}.b{fill:#d4d4d4;}.c{opacity:0;}</style></defs><rect class="a" x="36.5" y="282" width="426" height="10" transform="translate(-37.5 536.5) rotate(-90)"/><rect class="a" x="220" y="70" width="60" height="60" rx="30"/><rect class="a" x="112" y="198.32" width="265" height="103.67" rx="50"/><path class="b" d="M156.38,232.26c6.37-.37,10.27-3.37,11.17-7.72h7.8v52.12H166.2V237.59c-2.32,1.65-5.55,2.55-9.82,2.77Z"/><path class="b" d="M199.65,232.26c6.38-.37,10.28-3.37,11.18-7.72h7.8v52.12h-9.15V237.59c-2.33,1.65-5.55,2.55-9.83,2.77Z"/><path class="b" d="M250.58,250.26H241.8V239.31h8.78Zm0,26.4H241.8V265.79h8.78Z"/><path class="b" d="M279.68,276.66v-10.8H256.73v-7.35L278.33,225h10.2v33.22h7.8v7.65h-7.8v10.8Zm0-18.45c0-7.95.07-14.77.22-23.77-2.25,4.2-4.12,7.35-14.47,23.77Z"/><path class="b" d="M322.73,241.19c9.07,0,14.92,7,14.92,17.55,0,11.7-7.12,19-18.82,19-8.7,0-15.45-4.65-17.63-13.2l8.48-3.6c1.05,6.15,4.57,8.7,9.3,8.7,5.62,0,9.52-3.67,9.52-10.35s-3.75-10.42-8.92-10.42a8.33,8.33,0,0,0-8.25,5.47l-7.88-1.05L305.4,225h29v7.8h-21.9l-1.13,13C314.18,242.69,318.08,241.19,322.73,241.19Z"/><rect class="a" x="220" y="370" width="60" height="60" rx="30"/><g class="c"><path d="M499,1V499H1V1H499m1-1H0V500H500V0Z"/></g></svg>