<?xml version="1.0" encoding="utf-8"?>
<!-- Generator: Adobe Illustrator 23.0.1, SVG Export Plug-In . SVG Version: 6.00 Build 0)  -->
<svg version="1.1" id="Interactive" xmlns="http://www.w3.org/2000/svg" xmlns:xlink="http://www.w3.org/1999/xlink" x="0px"
	 y="0px" viewBox="0 0 500 500" style="enable-background:new 0 0 500 500;" xml:space="preserve">
<style type="text/css">
	.st0{fill:#d4d4d4;}
	.st1{fill:#626262;}
	.st2{fill:#FFFFFF;}
	.st3{fill:#525252;}
</style>
<path class="st0" d="M158.1,167H46.9c-5.47,0-9.9-4.43-9.9-9.9V45.9c0-5.47,4.43-9.9,9.9-9.9h111.2c5.47,0,9.9,4.43,9.9,9.9v111.2
	C168,162.57,163.57,167,158.1,167z"/>
<path class="st0" d="M158.09,315H46.91c-5.47,0-9.91-4.44-9.91-9.91V193.91c0-5.47,4.44-9.91,9.91-9.91h111.18
	c5.47,0,9.91,4.44,9.91,9.91v111.18C168,310.56,163.56,315,158.09,315z"/>
<path class="st0" d="M157.65,463H47.35C41.63,463,37,458.37,37,452.65v-110.3c0-5.71,4.63-10.35,10.35-10.35h110.3
	c5.71,0,10.35,4.63,10.35,10.35v110.3C168,458.37,163.37,463,157.65,463z"/>
<path class="st0" d="M305.45,167H194.3c-5.48,0-9.92-4.44-9.92-9.92V45.92c0-5.48,4.44-9.92,9.92-9.92h111.16
	c5.48,0,9.92,4.44,9.92,9.92v111.16C315.38,162.56,310.93,167,305.45,167z"/>
<path class="st0" d="M452.78,167H341.72c-5.51,0-9.97-4.47-9.97-9.97V45.97c0-5.51,4.47-9.97,9.97-9.97h111.05
	c5.51,0,9.97,4.47,9.97,9.97v111.05C462.75,162.53,458.28,167,452.78,167z"/>
<g id="play">
	<circle class="st1" cx="250" cy="250" r="100"/>
	<polygon class="st2" points="300,249.5 230,209.5 230,289.5 	"/>
</g>
<g id="cursor">
	<polygon class="st2" points="316.92,412.88 316.92,270.36 420.25,373.69 359.68,373.69 356.11,374.58 	"/>
	<polygon class="st2" points="397.98,419.12 365.91,432.48 324.04,333.6 357,320.24 	"/>
	
		<rect x="355.23" y="347.8" transform="matrix(0.922 -0.3871 0.3871 0.922 -120.0323 170.8386)" class="st3" width="17.82" height="71.27"/>
	<polygon class="st3" points="325.83,291.74 325.83,391.5 352.55,365.67 356.11,364.78 398.87,364.78 	"/>
</g>
<rect x="128" y="93" class="st0" width="250" height="17"/>
<rect x="-22.5" y="241.5" transform="matrix(6.123234e-17 -1 1 6.123234e-17 -147.5 352.5)" class="st0" width="250" height="17"/>
</svg>
