<svg xmlns="http://www.w3.org/2000/svg" viewBox="0 0 500 500"><defs><style>.a{fill:#626262;}.b{opacity:0;}</style></defs><path class="a" d="M238.24,200.38H225.69V175.29h12.55v12.54h25.09v12.55H250.78v12.55H238.24ZM263.33,351V338.41H250.78V351ZM250.78,162.74V150.19H225.69v12.55h12.55v12.55h12.54Zm100.39-12.55v75.29H338.62V212.93H288.43V150.19Zm-12.55,50.19V162.74H301v37.64ZM163,225.48H150.4V238h25.1V225.48Zm0,37.64H175.5v12.55h12.55V238H175.5v12.54H150.4v25.1H163Zm62.74,12.55v25.09h12.55V275.67Zm50.19-125.48H263.33v37.64h12.55Zm0,62.74V200.38H263.33v12.55Zm37.64-25.1h12.55V175.29H313.52ZM188.05,175.29H175.5v12.54h12.55Zm25.09-25.1v62.74H150.4V150.19Zm-12.55,12.55H163v37.64h37.64Zm112.93,62.74V238H301V225.48h-25.1V238H263.33V225.48H225.69V212.93H213.14v12.55H200.59V238h12.55v25.09h12.55V250.57h12.55v25.1h12.54v-25.1h37.65v12.55h-25.1v12.55h25.1v12.55H301V250.57h12.54v12.55h12.55v25.1h12.55V275.67h12.55V263.12H338.62V250.57H326.07V238h12.55V225.48Zm-138,100.38h12.55V313.31H175.5Zm-25.1-37.64h62.74V351H150.4ZM163,338.41h37.64V300.76H163Zm150.57-37.65V288.22H301v12.54Zm0,12.55H301v12.55H288.43V313.31H275.88V300.76h12.55V288.22h-25.1V275.67H250.78v25.09H238.24v12.55H225.69V351h12.55V338.41h12.54V325.86h25.1V351h12.55V338.41H301V351h25.09V338.41h12.55V325.86h-25.1ZM200.59,275.67h12.55V263.12H200.59Zm125.48,25.09v12.55h12.55v12.55h12.55V288.22H338.62v12.54Zm25.1,50.2V338.41H338.62V351Zm0-100.39V238H338.62v12.54ZM326.07,125.1h50.19v50.19h25.1V100H326.07ZM125.31,175.29V125.1H175.5V100H100.21v75.29ZM175.5,376.05H125.31V325.86h-25.1v75.29H175.5Zm200.76-50.19v50.19H326.07v25.1h75.29V325.86Z"/><g class="b"><path d="M499,1V499H1V1H499m1-1H0V500H500V0Z"/></g></svg>