<?xml version="1.0" encoding="utf-8"?>
<!-- Generator: Adobe Illustrator 26.1.0, SVG Export Plug-In . SVG Version: 6.00 Build 0)  -->
<svg version="1.1" id="Vimeo" xmlns="http://www.w3.org/2000/svg" xmlns:xlink="http://www.w3.org/1999/xlink" x="0px" y="0px"
	 viewBox="0 0 500 500" style="enable-background:new 0 0 500 500;" xml:space="preserve">
<style type="text/css">
	.st0{fill:#626262;}
</style>
<path class="st0" d="M322,236.2c-17.3,36.9-58.9,87.1-85.2,87.1c-25.9,0-29.7-55.3-43.9-92.2c-7-18.1-11.5-14-24.5-4.8l-8-10.3
	c19.1-16.8,38.1-36.2,49.9-37.3c13.2-1.3,21.3,7.8,24.4,27.1c4,25.4,9.6,64.8,19.4,64.8c7.6,0,26.4-31.3,27.4-42.4
	c1.7-16.4-12-16.9-24-11.8C276.4,154.5,355,165.9,322,236.2z"/>
</svg>
