<svg xmlns="http://www.w3.org/2000/svg" viewBox="0 0 500 500"><defs><style>.a{fill:#d4d4ce;}.b{fill:#514853;}.c{opacity:0;}</style></defs><rect class="a" x="99.89" y="236" width="70" height="25"/><rect class="a" x="100" y="189" width="70" height="25"/><rect class="b" x="99.89" y="138" width="70" height="25"/><rect class="a" x="100" y="337" width="45" height="25"/><rect class="a" x="99.95" y="287" width="70" height="25"/><rect class="a" x="214.89" y="236" width="70" height="25"/><rect class="a" x="215" y="189" width="70" height="25"/><rect class="b" x="214.89" y="138" width="70" height="25"/><rect class="a" x="215" y="337" width="45" height="25"/><rect class="a" x="214.95" y="287" width="70" height="25"/><rect class="a" x="328.89" y="236" width="70" height="25"/><rect class="a" x="329" y="189" width="70" height="25"/><rect class="b" x="328.89" y="138" width="70" height="25"/><rect class="a" x="329" y="337" width="45" height="25"/><rect class="a" x="328.95" y="287" width="70" height="25"/><g class="c"><path d="M499,1V499H1V1H499m1-1H0V500H500V0Z"/></g></svg>