<?xml version="1.0" encoding="utf-8"?>
<!-- Generator: Adobe Illustrator 25.3.1, SVG Export Plug-In . SVG Version: 6.00 Build 0)  -->
<svg version="1.1" id="Youtube" xmlns="http://www.w3.org/2000/svg" xmlns:xlink="http://www.w3.org/1999/xlink" x="0px" y="0px"
	 viewBox="0 0 500 500" style="enable-background:new 0 0 500 500;" xml:space="preserve">
<style type="text/css">
	.st0{fill:#626262;}
</style>
<g id="youtube">
	<g>
		<path class="st0" d="M257.9,321c-20.5,0.1-39.6-0.5-58.7-1.3c-8.2-0.4-16.4-0.8-24.5-2.3c-13.7-2.5-21.4-10-23.4-23.7
			c-2.8-18.5-3.7-37.1-2.8-55.9c0.5-11.5,0.9-23,3.3-34.3c2.8-13.2,11.5-20.8,25-22c31.6-3,63.2-3.5,94.9-2.7
			c13.1,0.3,26.2,0.7,39.2,1.6c5.6,0.4,11.2,1,16.6,2c12.2,2.3,19.4,10.7,21.5,24.1c1.3,8.4,2,16.7,1.9,25.2
			c-0.1,13.8,0,27.7,0,41.5c0,8-1,16-2.7,23.8c-2.6,12.2-11.7,19.5-24.6,20.9C301.3,320.4,278.9,320.2,257.9,321z M282.8,249.7
			c-17.8-10.2-35.2-20.2-52.8-30.3c0,20.5,0,40.3,0,60.7C247.6,269.9,264.9,260,282.8,249.7z"/>
	</g>
</g>
</svg>
