<?xml version="1.0" encoding="utf-8"?>
<!-- Generator: Adobe Illustrator 22.1.0, SVG Export Plug-In . SVG Version: 6.00 Build 0)  -->
<svg version="1.1" id="_x34__Columns" xmlns="http://www.w3.org/2000/svg" xmlns:xlink="http://www.w3.org/1999/xlink" x="0px"
	 y="0px" viewBox="0 0 500 500" style="enable-background:new 0 0 500 500;" xml:space="preserve">
<style type="text/css">
	.st0{fill:#D4D4CE;}
	.st1{fill:#514853;}
</style>
<rect x="99" y="237" class="st0" width="56.8" height="25"/>
<rect x="99" y="190" class="st0" width="47.4" height="25"/>
<rect x="99" y="139" class="st1" width="56.8" height="25"/>
<rect x="99.2" y="338" class="st0" width="56.7" height="25"/>
<rect x="99.2" y="288" class="st0" width="56.5" height="25"/>
<rect x="185.3" y="237" class="st0" width="50.8" height="25"/>
<rect x="185.3" y="190" class="st0" width="50.7" height="25"/>
<rect x="185.3" y="139" class="st1" width="50.8" height="25"/>
<rect x="185.4" y="338" class="st0" width="50.6" height="25"/>
<rect x="185.4" y="288" class="st0" width="48.6" height="25"/>
<rect x="348.2" y="237" class="st0" width="50.8" height="25"/>
<rect x="348.2" y="190" class="st0" width="50.7" height="25"/>
<rect x="348.2" y="139" class="st1" width="50.8" height="25"/>
<rect x="348.4" y="338" class="st0" width="50.6" height="25"/>
<rect x="348.4" y="288" class="st0" width="43.6" height="25"/>
<rect x="268.3" y="237" class="st0" width="49.9" height="25"/>
<rect x="268.3" y="190" class="st0" width="41.6" height="25"/>
<rect x="268.3" y="139" class="st1" width="49.9" height="25"/>
<rect x="268.5" y="338" class="st0" width="41.3" height="25"/>
<rect x="268.5" y="288" class="st0" width="49.7" height="25"/>
</svg>
