<svg xmlns="http://www.w3.org/2000/svg" viewBox="0 0 500 500"><defs><style>.a,.b,.c,.d{fill:none;stroke:#525252;stroke-miterlimit:10;stroke-width:10px;}.a{opacity:0.25;}.b{opacity:0.5;}.c{opacity:0.75;}.e{opacity:0;}</style></defs><polyline class="a" points="176 278.11 138 278.11 138 364.9 224.79 364.9 224.79 327"/><path class="b" d="M217,235.11H198.5a17.51,17.51,0,0,0-17.5,17.5V304.4a17.5,17.5,0,0,0,17.5,17.5h51.79a17.5,17.5,0,0,0,17.5-17.5V287"/><path class="c" d="M264.17,189H256a35,35,0,0,0-35,35v23a35,35,0,0,0,35,35h23a35,35,0,0,0,35-35V235h0"/><rect class="d" x="264" y="135" width="100" height="100" rx="50"/><g class="e"><path d="M499,1V499H1V1H499m1-1H0V500H500V0Z"/></g></svg>