<svg xmlns="http://www.w3.org/2000/svg" viewBox="0 0 500 500"><defs><style>.a{fill:#d4d4ce;}.b{fill:none;stroke:#514853;stroke-miterlimit:10;stroke-width:10px;}.c{opacity:0;}</style></defs><path class="a" d="M267.74,302.81h-43.2v-5.2a44.79,44.79,0,0,0,9.48-1.46c2.51-.73,3.77-1.64,3.77-2.71a11.81,11.81,0,0,0-.14-1.61,8.14,8.14,0,0,0-.44-1.69l-8.61-23.29H192.12q-2.06,5.13-3.34,8.94t-2.31,7a48.32,48.32,0,0,0-1.32,5.12,18.07,18.07,0,0,0-.37,3.23q0,2.93,4.62,4.54a37.09,37.09,0,0,0,10.4,1.9v5.2H160.66v-5.2a30.45,30.45,0,0,0,4.76-.84,15.42,15.42,0,0,0,4.68-1.87,18.37,18.37,0,0,0,4.55-4.14,27.07,27.07,0,0,0,3.14-6q7.85-19.55,17.29-43.94t16.85-43.43h5.86l34.64,89.65a17.49,17.49,0,0,0,2.49,4.61,17.18,17.18,0,0,0,3.88,3.44,16,16,0,0,0,4.4,1.72,22.11,22.11,0,0,0,4.54.77Zm-41.82-42.48L210.18,220l-15.52,40.33Z"/><path class="a" d="M338,301.49c-2.3.84-4.31,1.51-6.05,2a20.86,20.86,0,0,1-5.89.77q-5.71,0-9.12-2.68a12.31,12.31,0,0,1-4.36-7.8h-.44a35.49,35.49,0,0,1-10.22,8.06,28.68,28.68,0,0,1-13.14,2.78,18.62,18.62,0,0,1-13.37-5q-5.24-5-5.24-13a21.93,21.93,0,0,1,1.18-7.47,17.89,17.89,0,0,1,3.51-5.94,17.71,17.71,0,0,1,4.83-3.92,43.6,43.6,0,0,1,5.64-2.74q3.3-1.24,13.37-4.62a100.09,100.09,0,0,0,13.59-5.27v-7.25a32.4,32.4,0,0,0-.4-3.66,15.34,15.34,0,0,0-1.73-5.13,14.43,14.43,0,0,0-4.13-4.72c-1.79-1.35-4.31-2-7.59-2a17,17,0,0,0-6.26,1.14,11.21,11.21,0,0,0-4.06,2.38,20.3,20.3,0,0,0,.69,4.32,22.05,22.05,0,0,1,.7,5.27,6.3,6.3,0,0,1-2.31,4.69,9.08,9.08,0,0,1-6.41,2.12,6,6,0,0,1-5.38-2.6,10.26,10.26,0,0,1,.66-12.26,23.61,23.61,0,0,1,6.19-5.5,34.42,34.42,0,0,1,8-3.48,31.45,31.45,0,0,1,9.16-1.43,60.14,60.14,0,0,1,10.73.85,19.74,19.74,0,0,1,8.31,3.62,17,17,0,0,1,5.68,7.36,31.56,31.56,0,0,1,1.94,12q0,10.47-.22,18.57t-.22,17.68a8.91,8.91,0,0,0,1,4.54,8,8,0,0,0,3,2.86,7.34,7.34,0,0,0,3.48.73c1.58,0,3.2.08,4.87.08Zm-25.57-38.67c-4.15,1.22-7.79,2.43-10.91,3.6a43.91,43.91,0,0,0-8.71,4.4,19.83,19.83,0,0,0-5.79,5.91,15,15,0,0,0-2.12,8.11q0,6.09,3.18,9a11.65,11.65,0,0,0,8.09,2.86,16.61,16.61,0,0,0,9.16-2.53,26.49,26.49,0,0,0,6.66-6Z"/><rect class="b" x="147" y="146" width="207" height="207"/><g class="c"><path d="M499,1V499H1V1H499m1-1H0V500H500V0Z"/></g></svg>