<svg xmlns="http://www.w3.org/2000/svg" viewBox="0 0 500 500"><defs><style>.a{fill:#d4d4ce;}.b{opacity:0;}</style></defs><path class="a" d="M260.3,276.81H231.5v-3.46a30.36,30.36,0,0,0,6.33-1c1.67-.49,2.51-1.09,2.51-1.81a6.63,6.63,0,0,0-.1-1.07,4.81,4.81,0,0,0-.29-1.12l-5.74-15.53H209.89q-1.37,3.42-2.22,6c-.58,1.7-1.09,3.26-1.55,4.69s-.71,2.54-.88,3.42a12.59,12.59,0,0,0-.24,2.15q0,1.95,3.08,3a25,25,0,0,0,6.93,1.27v3.46H188.92v-3.46a21.37,21.37,0,0,0,3.17-.57,10.47,10.47,0,0,0,3.13-1.24,12.23,12.23,0,0,0,3-2.76,17.83,17.83,0,0,0,2.1-4q5.24-13,11.53-29.3t11.23-28.95H227l23.1,59.76a11.75,11.75,0,0,0,1.66,3.08,11.5,11.5,0,0,0,2.59,2.3,11.05,11.05,0,0,0,2.93,1.14,15.52,15.52,0,0,0,3,.52Zm-27.87-28.32-10.5-26.89-10.34,26.89Z"/><path class="a" d="M307.13,275.93c-1.53.56-2.87,1-4,1.35a13.87,13.87,0,0,1-3.93.51,9.58,9.58,0,0,1-6.08-1.78,8.23,8.23,0,0,1-2.9-5.2h-.3a23.78,23.78,0,0,1-6.81,5.37,19.15,19.15,0,0,1-8.76,1.85,12.35,12.35,0,0,1-8.91-3.32,11.43,11.43,0,0,1-3.49-8.69,14.87,14.87,0,0,1,.78-5,11.92,11.92,0,0,1,2.34-4,11.76,11.76,0,0,1,3.22-2.62,29.8,29.8,0,0,1,3.76-1.83c1.47-.55,4.44-1.58,8.91-3.07a66.2,66.2,0,0,0,9.06-3.52v-4.83a20.11,20.11,0,0,0-.27-2.44,10.3,10.3,0,0,0-1.14-3.42,9.82,9.82,0,0,0-2.76-3.15,8.26,8.26,0,0,0-5.06-1.34,11.4,11.4,0,0,0-4.17.75,7.66,7.66,0,0,0-2.71,1.59,13.26,13.26,0,0,0,.46,2.88,14.92,14.92,0,0,1,.47,3.52,4.2,4.2,0,0,1-1.54,3.12,6.1,6.1,0,0,1-4.27,1.42,4,4,0,0,1-3.59-1.74,6.83,6.83,0,0,1-1.15-3.88,6.93,6.93,0,0,1,1.59-4.3,16.05,16.05,0,0,1,4.12-3.66,22.87,22.87,0,0,1,5.32-2.32,21.09,21.09,0,0,1,6.11-.95,40.36,40.36,0,0,1,7.15.56,13.19,13.19,0,0,1,5.54,2.42,11.29,11.29,0,0,1,3.79,4.91,21,21,0,0,1,1.29,8q0,7-.15,12.38c-.09,3.59-.14,7.53-.14,11.79a6,6,0,0,0,.66,3,5.32,5.32,0,0,0,2,1.9,5,5,0,0,0,2.32.49c1.06,0,2.14.05,3.25.05Zm-17-25.78c-2.77.82-5.19,1.62-7.28,2.4a29.06,29.06,0,0,0-5.81,2.94,13.22,13.22,0,0,0-3.85,3.94,10,10,0,0,0-1.42,5.4q0,4.07,2.12,6a7.75,7.75,0,0,0,5.4,1.91,11,11,0,0,0,6.1-1.69,17.79,17.79,0,0,0,4.45-4Z"/><g class="b"><path d="M499,1V499H1V1H499m1-1H0V500H500V0Z"/></g></svg>