<?xml version="1.0" encoding="utf-8"?>
<!-- Generator: Adobe Illustrator 23.0.1, SVG Export Plug-In . SVG Version: 6.00 Build 0)  -->
<svg version="1.1" id="Button" xmlns="http://www.w3.org/2000/svg" xmlns:xlink="http://www.w3.org/1999/xlink" x="0px" y="0px"
	 viewBox="0 0 500 500" style="enable-background:new 0 0 500 500;" xml:space="preserve">
<style type="text/css">
	.st0{fill:#d4d4d4;}
	.st1{fill:#FFFFFF;}
	.st2{fill:#525252;}
</style>
<path class="st0" d="M388.82,326H110.18c-5.62,0-10.18-4.56-10.18-10.18V185.18c0-5.62,4.56-10.18,10.18-10.18h278.65
	c5.62,0,10.18,4.56,10.18,10.18v130.65C399,321.44,394.44,326,388.82,326z"/>
<g id="cursor_1_">
	<polygon class="st1" points="316.92,412.88 316.92,270.36 420.25,373.69 359.68,373.69 356.11,374.58 	"/>
	<polygon class="st1" points="397.98,419.12 365.91,432.48 324.04,333.6 357,320.24 	"/>
	
		<rect x="355.23" y="347.8" transform="matrix(0.922 -0.3871 0.3871 0.922 -120.0323 170.8386)" class="st2" width="17.82" height="71.27"/>
	<polygon class="st2" points="325.83,291.74 325.83,391.5 352.55,365.67 356.11,364.78 398.87,364.78 	"/>
</g>
</svg>
