<svg xmlns="http://www.w3.org/2000/svg" viewBox="0 0 500 500"><defs><style>.a{fill:#514853;}.b{opacity:0;}</style></defs><path class="a" d="M268.2,302.81H225v-5.2a44.68,44.68,0,0,0,9.48-1.46c2.51-.73,3.77-1.64,3.77-2.71a11.81,11.81,0,0,0-.14-1.61,8.14,8.14,0,0,0-.44-1.69l-8.61-23.29H192.58q-2.06,5.13-3.34,8.94t-2.31,7a48.32,48.32,0,0,0-1.32,5.12,18.07,18.07,0,0,0-.37,3.23q0,2.93,4.62,4.54a37.09,37.09,0,0,0,10.4,1.9v5.2H161.12v-5.2a30.45,30.45,0,0,0,4.76-.84,15.42,15.42,0,0,0,4.68-1.87,18.37,18.37,0,0,0,4.55-4.14,27.47,27.47,0,0,0,3.15-6q7.83-19.55,17.28-43.94t16.85-43.43h5.86l34.64,89.65a17.49,17.49,0,0,0,2.49,4.61,17.18,17.18,0,0,0,3.88,3.44,16,16,0,0,0,4.4,1.72,22.11,22.11,0,0,0,4.54.77Zm-41.82-42.48L210.64,220l-15.52,40.33Z"/><path class="a" d="M337.61,302.81H307.37v-3.64a31.64,31.64,0,0,0,6.64-1c1.76-.52,2.64-1.15,2.64-1.9a7.6,7.6,0,0,0-.11-1.13,5.5,5.5,0,0,0-.3-1.18l-6-16.3H284.67c-.95,2.39-1.73,4.48-2.33,6.25s-1.14,3.42-1.62,4.93a36,36,0,0,0-.92,3.58,12.27,12.27,0,0,0-.26,2.26q0,2.05,3.23,3.18a25.84,25.84,0,0,0,7.28,1.33v3.64h-27.4v-3.64a21.06,21.06,0,0,0,3.33-.59,11,11,0,0,0,3.29-1.3,13.35,13.35,0,0,0,3.18-2.9,19.17,19.17,0,0,0,2.2-4.18q5.49-13.69,12.1-30.76T298.54,229h4.1l24.25,62.75a12.58,12.58,0,0,0,1.75,3.23,12.13,12.13,0,0,0,2.71,2.41,11.24,11.24,0,0,0,3.08,1.2,15,15,0,0,0,3.18.54Zm-29.27-29.73-11-28.24-10.86,28.24Z"/><g class="b"><path d="M499,1V499H1V1H499m1-1H0V500H500V0Z"/></g></svg>