<?xml version="1.0" encoding="utf-8"?>
<!-- Generator: Adobe Illustrator 26.1.0, SVG Export Plug-In . SVG Version: 6.00 Build 0)  -->
<svg version="1.1" id="Datawrapper" xmlns="http://www.w3.org/2000/svg" xmlns:xlink="http://www.w3.org/1999/xlink" x="0px"
	 y="0px" viewBox="0 0 500 500" style="enable-background:new 0 0 500 500;" xml:space="preserve">
<style type="text/css">
	.st0{fill:#626262;}
</style>
<g id="rODMMX.tif">
	<g>
		<path class="st0" d="M133.6,250.1c0-36.3,0-72.5,0-108.8c0-1,0-2,0-3c0.1-3.5,0.2-3.7,3.6-3.8c3-0.1,6-0.1,9,0
			c3.3,0.1,3.6,0.4,3.7,3.8c0,1.3,0,2.6,0,3.9c0,66.8,0,133.6,0,200.4c0,7.8,0,7,7,7c67.2,0,134.5,0,201.7,0c6.4,0,6.4,0,6.4,6.3
			c0,2.3,0,4.6,0,6.9c0,2.1-1,3.2-3.1,3.2c-1,0-2,0-3,0c-73.1,0-146.3,0-219.4,0c-0.4,0-0.9,0-1.3,0c-4.6-0.1-4.7-0.2-4.7-4.9
			C133.6,324.1,133.6,287.1,133.6,250.1z"/>
		<path class="st0" d="M216.3,232.1c0-19.3,0-38.7,0-58c0-1.1,0-2.3,0-3.4c-0.1-2.1,0.7-3.2,3-3.2c13.5,0.1,27-0.6,40.4,0.3
			c21.4,1.5,37.6,11.7,47,31.6c3.8,8,5.6,16.5,6,25.3c0.2,5,0.3,10,0,15c-0.7,14.1-4.6,27-13.8,38c-7.4,8.8-16.9,14.3-28,17.2
			c-6.5,1.7-13,2.1-19.6,2.1c-9.7,0-19.5,0-29.2,0c-5.7,0-5.8,0-5.8-5.6C216.2,271.7,216.3,251.9,216.3,232.1z M238.7,232.3
			c0,1,0,2,0,3c0,13.3,0,26.7,0,40c0,3.8,0.1,3.9,3.9,3.9c5.2,0,10.3,0.2,15.5-0.2c3.6-0.3,7.4-1.1,10.8-2.5
			c11.2-4.5,16.8-13.6,19.7-24.8c2.2-8.3,1.5-16.8,1.6-25.2c0.1-6.7-1-13.1-3.4-19.3c-4.7-12.3-13.2-19.9-26.7-20.9
			c-5.6-0.4-11.2-0.5-16.7-0.5c-4.6-0.1-4.7,0-4.7,4.9C238.7,204.5,238.7,218.4,238.7,232.3z"/>
	</g>
</g>
</svg>
