<svg xmlns="http://www.w3.org/2000/svg" viewBox="0 0 500 500"><defs><style>.a{fill:#626262;}.b{fill:#d4d4d4;}.c{fill:#fff;}.d{fill:#525252;}.e{opacity:0;}</style></defs><rect class="a" x="300.02" y="338" width="99.01" height="50" rx="10.18"/><path class="b" d="M390,272v30H110V272H390m10-10H100v50H400V262Z"/><path class="b" d="M390,196v30H110V196H390m10-10H100v50H400V186Z"/><path class="b" d="M390,120v30H110V120H390m10-10H100v50H400V110Z"/><rect class="b" x="176.02" y="338" width="99.01" height="50" rx="10.18"/><polygon class="c" points="351.75 435.15 351.75 363.89 403.42 415.55 373.13 415.55 371.35 416 351.75 435.15"/><polygon class="c" points="392.28 438.27 376.25 444.95 355.31 395.51 371.79 388.83 392.28 438.27"/><rect class="d" x="370.91" y="402.61" width="8.91" height="35.63" transform="translate(-133.48 178.07) rotate(-22.77)"/><polygon class="d" points="356.2 374.58 356.2 424.46 369.57 411.54 371.35 411.1 392.73 411.1 356.2 374.58"/><g class="e"><path d="M499,1V499H1V1H499m1-1H0V500H500V0Z"/></g></svg>