<?xml version="1.0" encoding="utf-8"?>
<!-- Generator: Adobe Illustrator 26.1.0, SVG Export Plug-In . SVG Version: 6.00 Build 0)  -->
<svg version="1.1" id="Podigee" xmlns="http://www.w3.org/2000/svg" xmlns:xlink="http://www.w3.org/1999/xlink" x="0px" y="0px"
	 viewBox="0 0 500 500" style="enable-background:new 0 0 500 500;" xml:space="preserve">
<style type="text/css">
	.st0{fill:#626262;}
</style>
<g id="s7nQRv.tif">
	<g>
		<path class="st0" d="M249.8,351.2c-55.9-0.1-101.8-45-101.1-102.7c0.7-54,44-99.4,101-99.5c56-0.2,102.3,45.2,101.1,103.4
			C349.7,306.6,305.7,350.9,249.8,351.2z M243.6,230.1c0,15.3,0,30.7,0,46c0,0.6,0,1.3,0.1,1.9c0.2,1.5,1.1,2.4,2.6,2.5
			c2.5,0.1,5.1,0.1,7.6,0c1.4,0,2.4-0.9,2.5-2.4c0.1-0.7,0.2-1.5,0.2-2.2c0-30.5,0-61,0-91.5c0-0.8-0.1-1.7-0.2-2.5
			c-0.2-1.3-1-2.1-2.2-2.1c-2.7-0.1-5.5-0.1-8.2,0c-1.3,0-2.1,0.9-2.3,2.1c-0.1,0.7-0.1,1.5-0.1,2.2
			C243.5,199.6,243.6,214.8,243.6,230.1z M282.3,284.1c0-10.2,0-20.4,0-30.6c0-2.6-1-3.6-3.5-3.6c-2,0-4,0-6,0c-2.5,0-3.5,1-3.5,3.5
			c0,20.4,0,40.8,0,61.2c0,2.4,1.1,3.5,3.5,3.6c1.7,0.1,3.4,0,5.1,0c3.6,0,4.4-0.8,4.4-4.4C282.3,303.9,282.3,294,282.3,284.1z
			 M217.9,226.4c0,6.6,0,13.2,0,19.8c0,2,0.9,3.1,2.7,3.1c2.5,0.1,5,0,7.5,0c1.3,0,2.3-0.6,2.5-2c0.2-0.8,0.3-1.6,0.3-2.5
			c0-12.3,0-24.7,0-37c0-0.6,0-1.3-0.1-1.9c-0.3-1.9-1-2.5-2.9-2.6c-2.1-0.1-4.2-0.1-6.3,0c-3,0-3.6,0.7-3.6,3.7
			C217.9,213.5,217.9,220,217.9,226.4z M192.1,248.6c0,5.3,0,10.7,0,16c0,2.6,0.9,3.5,3.6,3.6c1.7,0,3.4,0,5.1,0
			c3.4,0,4.3-0.9,4.3-4.4c0-10,0-20,0-30c0-0.7,0-1.5-0.1-2.2c-0.3-1.3-0.9-2.3-2.4-2.4c-2.5-0.1-5.1-0.2-7.6-0.1
			c-2.3,0.1-2.9,1-2.9,3.4C192.1,237.9,192.1,243.2,192.1,248.6z M295.1,269.3c0,5.3,0,10.6,0,15.9c0,2.5,1,3.6,3.6,3.6
			c2,0,3.9,0,5.9,0c2.5,0,3.6-1.1,3.6-3.6c0-10.6,0-21.3,0-31.9c0-2.2-1.1-3.2-3.3-3.3c-2.1,0-4.2,0-6.3,0c-2.5,0-3.4,0.9-3.4,3.5
			C295.1,258.7,295.1,264,295.1,269.3z M166.3,259.1c0,1.9,0,3.7,0,5.6c0,2.3,1,3.4,3.3,3.5c2.2,0.1,4.4,0.1,6.6,0
			c2.1-0.1,3.1-1,3.1-3.1c0.1-4,0.1-8,0-12c0-2.1-1.1-3-3.3-3.1c-2.1,0-4.2,0-6.3,0c-2.4,0-3.3,1-3.4,3.4
			C166.2,255.3,166.3,257.2,166.3,259.1z M320.9,259C320.9,259,320.9,259,320.9,259c0,1.9,0,3.8,0,5.7c0,2.4,0.9,3.4,3.4,3.4
			c2,0.1,3.9,0,5.9,0c2.6,0,3.7-1.1,3.8-3.6c0.1-3.8,0.1-7.6,0-11.5c0-1.9-1.3-3.1-3.2-3.1c-2.3,0-4.6,0-6.9,0c-2,0-2.9,0.9-2.9,2.9
			C320.8,254.9,320.9,257,320.9,259z"/>
	</g>
</g>
</svg>
