<?xml version="1.0" encoding="utf-8"?>
<!-- Generator: Adobe Illustrator 26.1.0, SVG Export Plug-In . SVG Version: 6.00 Build 0)  -->
<svg version="1.1" id="TikTok" xmlns="http://www.w3.org/2000/svg" xmlns:xlink="http://www.w3.org/1999/xlink" x="0px" y="0px"
	 viewBox="0 0 500 500" style="enable-background:new 0 0 500 500;" xml:space="preserve">
<style type="text/css">
	.st0{fill:#626262;}
</style>
<path class="st0" d="M312.3,194.7c-1.3-0.7-2.6-1.4-3.8-2.2c-3.5-2.3-6.8-5.1-9.7-8.2c-7.2-8.3-9.9-16.7-10.9-22.5h0
	c-0.8-4.9-0.5-8-0.4-8h-32.9V281c0,1.7,0,3.4-0.1,5.1c0,0.2,0,0.4,0,0.6c0,0.1,0,0.2,0,0.3c0,0,0,0,0,0.1c-0.7,9.3-6,17.6-14.1,22.2
	c-4.2,2.4-8.8,3.6-13.6,3.6c-15.3,0-27.8-12.5-27.8-28c0-15.4,12.4-28,27.8-28c2.9,0,5.8,0.5,8.6,1.4l0-33.5
	c-16.9-2.2-34,2.8-47.1,13.8c-5.7,4.9-10.4,10.8-14.1,17.4c-1.4,2.4-6.6,12-7.3,27.7c-0.4,8.9,2.3,18.1,3.5,21.9v0.1
	c0.8,2.2,3.9,9.9,8.9,16.3c4.1,5.2,8.9,9.7,14.3,13.5v-0.1l0.1,0.1c15.9,10.8,33.6,10.1,33.6,10.1c3.1-0.1,13.3,0,24.9-5.5
	c12.9-6.1,20.3-15.2,20.3-15.2c4.7-5.4,8.4-11.6,11-18.3c3-7.8,4-17.2,4-21v-67.5c0.4,0.2,5.7,3.8,5.7,3.8s7.7,4.9,19.6,8.1
	c8.6,2.3,20.1,2.8,20.1,2.8v-32.7C329,200.2,320.7,198.9,312.3,194.7z"/>
</svg>
