<svg xmlns="http://www.w3.org/2000/svg" viewBox="0 0 500 500"><defs><style>.a{fill:#626262;}.b{opacity:0;}</style></defs><path class="a" d="M223.56,323H211.31a12.4,12.4,0,0,0-1.35-.27,103.85,103.85,0,0,1-39-10.6c-3.21-1.59-6.28-3.44-9.42-5.17,9.69.5,19.1-.11,28.34-2.77a73.68,73.68,0,0,0,25.37-12.91c-18.91-.66-31.15-14.35-33.84-24.94,2.54,0,5.16.12,7.75,0s5.2-.58,7.8-.89V265a37.24,37.24,0,0,1-20.81-13c-5.79-7-8.73-17.89-7.66-23,8.41,3.45,12.71,4.53,15.56,3.9-19.13-14.12-18-37.28-10.54-48.44,19.89,23.19,44.91,36.13,75.68,38.21a35.87,35.87,0,0,1-.2-15.79c3.23-14,11.6-23.59,25.34-27.73s26-.85,36.48,9a2.34,2.34,0,0,0,2.46.65,73.48,73.48,0,0,0,20-7.57c.48-.27,1-.49,1.81-.91a39,39,0,0,1-15.16,19.85A67.88,67.88,0,0,0,340,194.75a73.36,73.36,0,0,1-16.84,17.79,2.91,2.91,0,0,0-1.36,2.73,105.83,105.83,0,0,1-19.48,64.1c-17,24.4-40.47,38.52-69.93,42.65C229.46,322.43,226.51,322.68,223.56,323Z"/><g class="b"><path d="M499,1V499H1V1H499m1-1H0V500H500V0Z"/></g></svg>