<svg xmlns="http://www.w3.org/2000/svg" viewBox="0 0 500 500"><defs><style>.a{fill:#626262;}.b{opacity:0;}</style></defs><path class="a" d="M249.73,186.82c20.48,0,22.91.08,31,.45,20.78.94,30.48,10.8,31.43,31.43.37,8.08.44,10.51.44,31s-.08,22.9-.44,31c-1,20.61-10.63,30.49-31.43,31.43-8.09.37-10.51.45-31,.45s-22.9-.08-31-.45c-20.83-1-30.49-10.85-31.43-31.44-.37-8.08-.45-10.5-.45-31s.08-22.9.45-31c1-20.62,10.63-30.48,31.43-31.43C226.84,186.9,229.26,186.82,249.73,186.82Zm0-13.82c-20.82,0-23.43.09-31.61.46-27.84,1.28-43.32,16.73-44.6,44.6-.38,8.19-.46,10.79-.46,31.62s.08,23.44.46,31.62c1.27,27.84,16.72,43.32,44.6,44.6,8.18.37,10.79.46,31.61.46s23.44-.09,31.62-.46c27.82-1.28,43.34-16.73,44.6-44.6.37-8.18.46-10.8.46-31.62s-.09-23.43-.46-31.61c-1.25-27.82-16.72-43.33-44.59-44.6C273.17,173.09,270.56,173,249.73,173Zm0,37.3a39.38,39.38,0,1,0,39.38,39.38A39.38,39.38,0,0,0,249.73,210.3Zm0,64.94a25.56,25.56,0,1,1,25.56-25.56A25.56,25.56,0,0,1,249.73,275.24Zm40.94-75.69a9.2,9.2,0,1,0,9.19,9.2A9.2,9.2,0,0,0,290.67,199.55Z"/><g class="b"><path d="M499,1V499H1V1H499m1-1H0V500H500V0Z"/></g></svg>