<svg xmlns="http://www.w3.org/2000/svg" viewBox="0 0 500 500"><defs><style>.a{fill:#525252;}.b{opacity:0;}</style></defs><path class="a" d="M266,302.81H209.34V297.1a69.32,69.32,0,0,0,9.28-1.43q5.34-1.12,5.34-2.82a9.49,9.49,0,0,0-.11-1.32,9.14,9.14,0,0,0-.62-2L214.36,268H178.48q-1.24,3-2.73,7t-2.59,7.18a38.15,38.15,0,0,0-1.64,5.93,21.53,21.53,0,0,0-.25,2.57q0,2.34,3.55,4t11.81,2.38v5.71H144V297.1a38.82,38.82,0,0,0,5.45-.77,14.61,14.61,0,0,0,4.8-1.72,18.57,18.57,0,0,0,5.09-4.32,23.08,23.08,0,0,0,3.48-6.08q8.49-20.58,17-41.24t18.86-45.55h14.65q14.35,35.29,22.48,55.81t13.85,34a16.38,16.38,0,0,0,2.41,4,15.53,15.53,0,0,0,4.18,3.41,16.52,16.52,0,0,0,4.76,1.76,34.4,34.4,0,0,0,4.91.73Zm-54.62-42-15-37.57-14.82,37.57Z"/><path class="a" d="M349.82,301.27a54.75,54.75,0,0,1-7.61,2.57,35.81,35.81,0,0,1-9.28,1.17q-9,0-13.23-2.67a13.44,13.44,0,0,1-5.77-7.66h-.44a47.67,47.67,0,0,1-4.81,4.25,27.66,27.66,0,0,1-4.95,3,37.1,37.1,0,0,1-6.64,2.42,38,38,0,0,1-8.91.81,21.91,21.91,0,0,1-14.52-5,16.46,16.46,0,0,1-6-13.31,22.12,22.12,0,0,1,1.32-8.11,18.45,18.45,0,0,1,3.74-5.9,19.49,19.49,0,0,1,5.1-3.89,56,56,0,0,1,6.35-2.86q6.6-2.42,15.84-5a90.12,90.12,0,0,0,13.5-4.66v-7c0-1.22-.1-2.84-.29-4.84a15.62,15.62,0,0,0-1.25-5,9.73,9.73,0,0,0-3.22-4,9.61,9.61,0,0,0-5.79-1.61,13.87,13.87,0,0,0-5.39.92,18.33,18.33,0,0,0-3.48,1.86,29.5,29.5,0,0,0,1.25,4.47,17.75,17.75,0,0,1,1,5.79,9.69,9.69,0,0,1-.66,3.11,6.92,6.92,0,0,1-1.91,3,12.78,12.78,0,0,1-3.78,2.27,19.07,19.07,0,0,1-6.43.8q-6.17,0-9.33-3a10.47,10.47,0,0,1,.1-15.09,26.51,26.51,0,0,1,8-5.38,45.51,45.51,0,0,1,10.62-3.41A57.05,57.05,0,0,1,304,228a93.41,93.41,0,0,1,13,.84,31.13,31.13,0,0,1,10.69,3.48,18.62,18.62,0,0,1,7.22,7.44q2.67,4.88,2.67,12.71,0,8.26-.33,19.62T337,287.07a11.4,11.4,0,0,0,1,5.2,6.25,6.25,0,0,0,3,2.85,10.93,10.93,0,0,0,3.92.7c1.78.07,3.4.11,4.87.11Zm-36.33-38.15c-2.74.92-5.46,2-8.16,3.19a32.74,32.74,0,0,0-6.62,3.78,14.25,14.25,0,0,0-4.26,5.25,17.11,17.11,0,0,0-1.54,7.52q0,5.73,2.61,8.3a8.78,8.78,0,0,0,6.43,2.57,12.25,12.25,0,0,0,6.65-1.65,19.19,19.19,0,0,0,4.6-4.08Z"/><g class="b"><path d="M499,1V499H1V1H499m1-1H0V500H500V0Z"/></g></svg>