<svg width="60" height="60" viewBox="0 0 60 60" fill="none" xmlns="http://www.w3.org/2000/svg">
<g clip-path="url(#clip0_256_3255)">
<rect width="45" height="20" transform="matrix(1 0 -0.00820296 0.999966 7.40143 32.3323)" fill="white"/>
<mask id="mask0_256_3255" style="mask-type:alpha" maskUnits="userSpaceOnUse" x="7" y="32" width="46" height="21">
<rect x="0.495899" y="0.499983" width="44" height="19" transform="matrix(1 0 -0.00820296 0.999966 7.40553 32.3323)" fill="#F8F8F8" stroke="#B8B8B8"/>
</mask>
<g mask="url(#mask0_256_3255)">
<path d="M34.464 38.3877C36.7412 38.3877 38.5614 40.2093 38.5431 42.4432C38.5247 44.6771 36.6746 46.4987 34.3975 46.4987C32.1205 46.4986 30.3002 44.677 30.3185 42.4432C30.3368 40.2094 32.187 38.3878 34.464 38.3877Z" fill="#E7F6EF" stroke="#76CAA5"/>
<path d="M29.8374 40.1655C31.0582 40.1656 32.0296 41.1418 32.0198 42.3324C32.0099 43.523 31.0225 44.4983 29.8018 44.4984C28.5811 44.4984 27.6098 43.523 27.6194 42.3324C27.6292 41.1417 28.6165 40.1655 29.8374 40.1655Z" fill="#E7F6EF" stroke="#76CAA5"/>
<path d="M17.0287 38.1655C18.2495 38.1656 19.2209 39.1418 19.2112 40.3324C19.2012 41.523 18.2139 42.4983 16.9932 42.4984C15.7724 42.4984 14.8012 41.523 14.8108 40.3324C14.8205 39.1417 15.8078 38.1655 17.0287 38.1655Z" fill="#E7F6EF" stroke="#76CAA5"/>
<rect x="0.434957" y="0.552656" width="48.7182" height="12.6288" transform="matrix(0.992795 0.11195 -0.122882 0.993363 4.06226 39.0036)" fill="#E7F6EF" stroke="#76CAA5"/>
</g>
<rect x="0.495899" y="0.499983" width="44" height="19" transform="matrix(1 0 -0.00820296 0.999966 7.40553 32.3323)" stroke="#76CAA5"/>
<rect width="20" height="20" transform="matrix(1 0 -0.00820296 0.999966 32.6065 7.33301)" fill="white"/>
<mask id="mask1_256_3255" style="mask-type:alpha" maskUnits="userSpaceOnUse" x="32" y="7" width="21" height="21">
<rect x="0.495899" y="0.499983" width="19" height="19" transform="matrix(1 0 -0.00820296 0.999966 32.6106 7.33302)" fill="#F8F8F8" stroke="#B8B8B8"/>
</mask>
<g mask="url(#mask1_256_3255)">
<path d="M34.8407 19.3882C43.3397 19.3882 50.1728 26.2777 50.1032 34.7763C50.0335 43.2751 43.0873 50.1645 34.5883 50.1645C26.0893 50.1644 19.2561 43.275 19.3258 34.7763C19.3957 26.2777 26.3419 19.3883 34.8407 19.3882Z" fill="#FBECEE" stroke="#E78E9E"/>
<path d="M52.6149 19.8325C61.1138 19.8325 67.9469 26.722 67.8773 35.2207C67.8076 43.7194 60.8614 50.6088 52.3624 50.6088C43.8634 50.6087 37.0302 43.7193 37.1 35.2207C37.1698 26.7221 44.116 19.8326 52.6149 19.8325Z" fill="#FBECEE" stroke="#E78E9E"/>
</g>
<rect x="0.495899" y="0.499983" width="19" height="19" transform="matrix(1 0 -0.00820296 0.999966 32.6106 7.33302)" stroke="#E78E9E"/>
<rect width="20" height="20" transform="matrix(1 0 -0.00820296 0.999966 7.60651 7.33301)" fill="white"/>
<mask id="mask2_256_3255" style="mask-type:alpha" maskUnits="userSpaceOnUse" x="7" y="7" width="21" height="21">
<rect x="0.495899" y="0.499983" width="19" height="19" transform="matrix(1 0 -0.00820296 0.999966 7.61061 7.33302)" fill="#F8F8F8" stroke="#B8B8B8"/>
</mask>
<g mask="url(#mask2_256_3255)">
<circle cx="2.66667" cy="2.66667" r="2.16667" transform="matrix(1 0 -0.00820296 0.999966 18.4644 11.1106)" fill="#FBF4E9" stroke="#E8C27F"/>
<rect x="12.033" y="29.9533" width="10.5431" height="10.4488" rx="2.5" transform="rotate(-44.765 12.033 29.9533)" fill="#ECF1FB" stroke="#8FADEA"/>
<rect x="4.42115" y="26.2614" width="10.5431" height="15.0984" rx="2.5" transform="rotate(-44.765 4.42115 26.2614)" fill="#ECF1FB" stroke="#8FADEA"/>
</g>
<rect x="0.495899" y="0.499983" width="19" height="19" transform="matrix(1 0 -0.00820296 0.999966 7.61061 7.33302)" stroke="#8FADEA"/>
</g>
<defs>
<clipPath id="clip0_256_3255">
<rect width="60" height="60" fill="white"/>
</clipPath>
</defs>
</svg>
