<svg width="60" height="60" viewBox="0 0 60 60" fill="none" xmlns="http://www.w3.org/2000/svg">
<g clip-path="url(#clip0_256_2762)">
<rect width="30" height="30" transform="matrix(1 0 -0.00820296 0.999966 14.877 14.9995)" fill="white"/>
<mask id="mask0_256_2762" style="mask-type:alpha" maskUnits="userSpaceOnUse" x="14" y="14" width="31" height="31">
<rect x="0.495899" y="0.499983" width="29" height="29" transform="matrix(1 0 -0.00820296 0.999966 14.8811 14.9995)" fill="#F8F8F8" stroke="#B8B8B8"/>
</mask>
<g mask="url(#mask0_256_2762)">
<circle cx="4" cy="4" r="3.5" transform="matrix(1 0 -0.00820296 0.999966 31.1638 20.666)" fill="#FBF4E9" stroke="#E8C27F"/>
<rect x="21.1631" y="48.9289" width="16.3146" height="16.1732" rx="2.5" transform="rotate(-44.765 21.1631 48.9289)" fill="#ECF1FB" stroke="#8FADEA"/>
<rect x="9.74537" y="43.3908" width="16.3146" height="23.1475" rx="2.5" transform="rotate(-44.765 9.74537 43.3908)" fill="#ECF1FB" stroke="#8FADEA"/>
</g>
<rect x="0.495899" y="0.499983" width="29" height="29" transform="matrix(1 0 -0.00820296 0.999966 14.8811 14.9995)" stroke="#8FADEA"/>
</g>
<defs>
<clipPath id="clip0_256_2762">
<rect width="60" height="60" fill="white"/>
</clipPath>
</defs>
</svg>
