<svg width="60" height="60" viewBox="0 0 60 60" fill="none" xmlns="http://www.w3.org/2000/svg">
<g clip-path="url(#clip0_256_3296)">
<mask id="path-1-inside-1_256_3296" fill="white">
<path d="M29.8934 12.9996C35.4162 12.9996 39.8566 17.4766 39.8113 22.9992C39.7854 26.1587 38.2956 28.9741 35.9924 30.8066L31.9463 43.3316H27.3428L23.5012 30.8066C21.2285 28.9741 19.7854 26.1584 19.8113 22.9992C19.8566 17.4766 24.3705 12.9996 29.8934 12.9996Z"/>
</mask>
<path d="M29.8934 12.9996C35.4162 12.9996 39.8566 17.4766 39.8113 22.9992C39.7854 26.1587 38.2956 28.9741 35.9924 30.8066L31.9463 43.3316H27.3428L23.5012 30.8066C21.2285 28.9741 19.7854 26.1584 19.8113 22.9992C19.8566 17.4766 24.3705 12.9996 29.8934 12.9996Z" fill="#FBF4E9"/>
<path d="M35.9924 30.8066L35.3737 30.0261L35.1347 30.2162L35.041 30.5063L35.9924 30.8066ZM31.9463 43.3316L31.9381 44.3315H32.6717L32.8977 43.6318L31.9463 43.3316ZM27.3428 43.3316L26.3865 43.6319L26.6011 44.3315H27.3346L27.3428 43.3316ZM23.5012 30.8066L24.4575 30.5062L24.3685 30.2162L24.1328 30.0261L23.5012 30.8066ZM29.8934 12.9996L29.8852 13.9995C34.8557 13.9995 38.8521 18.0288 38.8113 22.9992H39.8113H40.8113C40.8612 16.9243 35.9767 11.9996 29.9016 11.9996L29.8934 12.9996ZM39.8113 22.9992H38.8113C38.788 25.8418 37.449 28.3749 35.3737 30.0261L35.9924 30.8066L36.6111 31.5871C39.1421 29.5733 40.7828 26.4756 40.8113 22.9992H39.8113ZM35.9924 30.8066L35.041 30.5063L30.9949 43.0313L31.9463 43.3316L32.8977 43.6318L36.9438 31.1069L35.9924 30.8066ZM31.9463 43.3316L31.9545 42.3316H27.351L27.3428 43.3316L27.3346 44.3315H31.9381L31.9463 43.3316ZM27.3428 43.3316L28.2991 43.0312L24.4575 30.5062L23.5012 30.8066L22.5449 31.1069L26.3865 43.6319L27.3428 43.3316ZM23.5012 30.8066L24.1328 30.0261C22.085 28.375 20.788 25.8417 20.8113 22.9992H19.8113H18.8113C18.7828 26.4752 20.3719 29.5731 22.8696 31.587L23.5012 30.8066ZM19.8113 22.9992H20.8113C20.8521 18.0288 24.9146 13.9995 29.8852 13.9995L29.8934 12.9996L29.9016 11.9996C23.8264 11.9996 18.8612 16.9243 18.8113 22.9992H19.8113Z" fill="#E8C27F" mask="url(#path-1-inside-1_256_3296)"/>
<mask id="path-3-inside-2_256_3296" fill="white">
<path d="M24.6309 44.9985L24.7129 34.9988H34.7129L34.6309 44.9985L29.6063 47.9984L24.6309 44.9985Z"/>
</mask>
<path d="M24.6309 44.9985L24.7129 34.9988H34.7129L34.6309 44.9985L29.6063 47.9984L24.6309 44.9985Z" fill="#E7F5F6"/>
<path d="M24.6309 44.9985H23.6309L23.6262 45.5647L24.1093 45.856L24.6309 44.9985ZM24.7129 34.9988L24.7211 33.9989H23.7211L23.7129 34.9988H24.7129ZM34.7129 34.9988H35.7129L35.7211 33.9989H34.7211L34.7129 34.9988ZM34.6309 44.9985L35.1383 45.856L35.6262 45.5647L35.6309 44.9985H34.6309ZM29.6063 47.9984L29.0847 48.8559L29.5967 49.1646L30.1137 48.8559L29.6063 47.9984ZM24.6309 44.9985H25.6309L25.7129 34.9988H24.7129H23.7129L23.6309 44.9985H24.6309ZM24.7129 34.9988L24.7047 35.9988H34.7047L34.7129 34.9988L34.7211 33.9989H24.7211L24.7129 34.9988ZM34.7129 34.9988H33.7129L33.6309 44.9985H34.6309H35.6309L35.7129 34.9988H34.7129ZM34.6309 44.9985L34.1234 44.141L29.0988 47.1409L29.6063 47.9984L30.1137 48.8559L35.1383 45.856L34.6309 44.9985ZM29.6063 47.9984L30.1278 47.1409L25.1524 44.141L24.6309 44.9985L24.1093 45.856L29.0847 48.8559L29.6063 47.9984Z" fill="#75C3CB" mask="url(#path-3-inside-2_256_3296)"/>
<circle cx="3.33333" cy="3.33333" r="3.33333" transform="matrix(1 0 -0.00820296 0.999966 26.4753 23.3325)" fill="white"/>
<line y1="-0.5" x2="9.33333" y2="-0.5" transform="matrix(1 0 -0.00820296 0.999966 24.9642 44.9985)" stroke="#75C3CB"/>
</g>
<defs>
<clipPath id="clip0_256_3296">
<rect width="60" height="60" fill="white"/>
</clipPath>
</defs>
</svg>
