<svg width="60" height="60" viewBox="0 0 60 60" fill="none" xmlns="http://www.w3.org/2000/svg">
<g clip-path="url(#clip0_256_2637)">
<g clip-path="url(#clip1_256_2637)">
<rect width="25" height="25" transform="matrix(1 0 -0.00820296 0.999966 17.1912 17.3325)" fill="white"/>
<path d="M23.7792 26.9153L17.2696 33.165L17.1999 41.6648L29.3358 40.3315L36.1582 41.6648L41.8269 36.3316L41.9708 18.7905L35.8523 28.1652L23.7792 26.9153Z" fill="#FBF4E9"/>
<path d="M16.7789 33.7204L23.7792 26.9151L35.8505 28.3734L42.6032 17.8876" stroke="#E8C27F"/>
<path d="M29.5492 34.6374L17.2036 41.2145L17.195 42.2609H41.7783L41.8617 32.0962L35.9965 35.9827L29.5492 34.6374Z" fill="#ECF1FB"/>
<path d="M16.715 41.5134L29.5492 34.6372L35.9965 35.9825L42.4904 31.6476" stroke="#8FADEA"/>
<rect x="0.495899" y="0.499983" width="24" height="24" transform="matrix(1 0 -0.00820296 0.999966 17.1953 17.3325)" stroke="#ABABAB"/>
</g>
</g>
<defs>
<clipPath id="clip0_256_2637">
<rect width="60" height="60" fill="white"/>
</clipPath>
<clipPath id="clip1_256_2637">
<rect width="25" height="25" fill="white" transform="matrix(1 0 -0.00820296 0.999966 17.1912 17.3325)"/>
</clipPath>
</defs>
</svg>
