<svg width="60" height="60" viewBox="0 0 60 60" fill="none" xmlns="http://www.w3.org/2000/svg">
<g clip-path="url(#clip0_268_2253)">
<mask id="path-1-inside-1_268_2253" fill="white">
<path d="M29.8934 12.9995C35.4162 12.9995 39.8566 17.4765 39.8113 22.9992C39.7854 26.1586 38.2956 28.974 35.9924 30.8065L31.9463 43.3315H27.3428L23.5012 30.8065C21.2285 28.974 19.7854 26.1583 19.8113 22.9992C19.8566 17.4765 24.3705 12.9995 29.8934 12.9995Z"/>
</mask>
<path d="M29.8934 12.9995C35.4162 12.9995 39.8566 17.4765 39.8113 22.9992C39.7854 26.1586 38.2956 28.974 35.9924 30.8065L31.9463 43.3315H27.3428L23.5012 30.8065C21.2285 28.974 19.7854 26.1583 19.8113 22.9992C19.8566 17.4765 24.3705 12.9995 29.8934 12.9995Z" fill="#FBF4E9"/>
<path d="M35.9924 30.8065L35.3737 30.026L35.1347 30.2162L35.041 30.5062L35.9924 30.8065ZM31.9463 43.3315L31.9381 44.3315H32.6717L32.8977 43.6318L31.9463 43.3315ZM27.3428 43.3315L26.3865 43.6319L26.6011 44.3315H27.3346L27.3428 43.3315ZM23.5012 30.8065L24.4575 30.5062L24.3685 30.2162L24.1328 30.0261L23.5012 30.8065ZM29.8934 12.9995L29.8852 13.9995C34.8557 13.9995 38.8521 18.0288 38.8113 22.9992H39.8113H40.8113C40.8612 16.9242 35.9767 11.9995 29.9016 11.9995L29.8934 12.9995ZM39.8113 22.9992H38.8113C38.788 25.8417 37.449 28.3748 35.3737 30.026L35.9924 30.8065L36.6111 31.587C39.1421 29.5732 40.7828 26.4755 40.8113 22.9992H39.8113ZM35.9924 30.8065L35.041 30.5062L30.9949 43.0312L31.9463 43.3315L32.8977 43.6318L36.9438 31.1068L35.9924 30.8065ZM31.9463 43.3315L31.9545 42.3315H27.351L27.3428 43.3315L27.3346 44.3315H31.9381L31.9463 43.3315ZM27.3428 43.3315L28.2991 43.0311L24.4575 30.5062L23.5012 30.8065L22.5449 31.1069L26.3865 43.6319L27.3428 43.3315ZM23.5012 30.8065L24.1328 30.0261C22.085 28.3749 20.788 25.8416 20.8113 22.9992H19.8113H18.8113C18.7828 26.4751 20.3719 29.5731 22.8696 31.587L23.5012 30.8065ZM19.8113 22.9992H20.8113C20.8521 18.0288 24.9146 13.9995 29.8852 13.9995L29.8934 12.9995L29.9016 11.9995C23.8264 11.9995 18.8612 16.9242 18.8113 22.9992H19.8113Z" fill="#E8C27F" mask="url(#path-1-inside-1_268_2253)"/>
<mask id="path-3-inside-2_268_2253" fill="white">
<path d="M24.6309 44.9984L24.7129 34.9988H34.7129L34.6309 44.9984L29.6063 47.9983L24.6309 44.9984Z"/>
</mask>
<path d="M24.6309 44.9984L24.7129 34.9988H34.7129L34.6309 44.9984L29.6063 47.9983L24.6309 44.9984Z" fill="#E7F5F6"/>
<path d="M24.6309 44.9984H23.6309L23.6262 45.5646L24.1093 45.8559L24.6309 44.9984ZM24.7129 34.9988L24.7211 33.9988H23.7211L23.7129 34.9988H24.7129ZM34.7129 34.9988H35.7129L35.7211 33.9988H34.7211L34.7129 34.9988ZM34.6309 44.9984L35.1383 45.8559L35.6262 45.5646L35.6309 44.9984H34.6309ZM29.6063 47.9983L29.0847 48.8558L29.5967 49.1645L30.1137 48.8558L29.6063 47.9983ZM24.6309 44.9984H25.6309L25.7129 34.9988H24.7129H23.7129L23.6309 44.9984H24.6309ZM24.7129 34.9988L24.7047 35.9987H34.7047L34.7129 34.9988L34.7211 33.9988H24.7211L24.7129 34.9988ZM34.7129 34.9988H33.7129L33.6309 44.9984H34.6309H35.6309L35.7129 34.9988H34.7129ZM34.6309 44.9984L34.1234 44.141L29.0988 47.1409L29.6063 47.9983L30.1137 48.8558L35.1383 45.8559L34.6309 44.9984ZM29.6063 47.9983L30.1278 47.1409L25.1524 44.141L24.6309 44.9984L24.1093 45.8559L29.0847 48.8558L29.6063 47.9983Z" fill="#75C3CB" mask="url(#path-3-inside-2_268_2253)"/>
<circle cx="3.33333" cy="3.33333" r="3.33333" transform="matrix(1 0 -0.00820296 0.999966 26.4753 23.3325)" fill="white"/>
<line y1="-0.5" x2="9.33333" y2="-0.5" transform="matrix(1 0 -0.00820296 0.999966 24.9642 44.9985)" stroke="#75C3CB"/>
<circle cx="12.7833" cy="47.1167" r="9.45" fill="white"/>
<g clip-path="url(#clip1_268_2253)">
<path d="M17.3667 47.1167L15.7 48.7834V47.5334H10.6292C10.4583 48.0209 9.99585 48.3667 9.45001 48.3667C9.11849 48.3667 8.80055 48.235 8.56613 48.0006C8.33171 47.7662 8.20001 47.4483 8.20001 47.1167C8.20001 46.7852 8.33171 46.4673 8.56613 46.2329C8.80055 45.9984 9.11849 45.8667 9.45001 45.8667C9.99585 45.8667 10.4583 46.2126 10.6292 46.7001H15.7V45.4501L17.3667 47.1167Z" fill="#8C8C8C"/>
</g>
</g>
<defs>
<clipPath id="clip0_268_2253">
<rect width="60" height="60" fill="white"/>
</clipPath>
<clipPath id="clip1_268_2253">
<rect width="10" height="10" fill="white" transform="translate(7.78333 42.1167)"/>
</clipPath>
</defs>
</svg>
