<svg width="60" height="60" viewBox="0 0 60 60" fill="none" xmlns="http://www.w3.org/2000/svg">
<g clip-path="url(#clip0_256_3381)">
<path d="M19.7895 25.6657C19.8151 22.5362 22.373 19.9993 25.5026 19.9993H34.1693C37.2989 19.9993 39.8151 22.5362 39.7895 25.6657L39.7184 34.3321C39.6927 37.4616 37.1348 39.9986 34.0052 39.9986H25.3385C22.2089 39.9986 19.6927 37.4616 19.7184 34.3321L19.7895 25.6657Z" fill="#F4EDF9"/>
<path d="M29.7954 24.8636C28.7796 24.8636 27.7841 25.1647 26.9349 25.729C26.0856 26.2933 25.4208 27.0954 25.0243 28.0338C24.6279 28.9721 24.5177 30.0047 24.7077 31.0009C24.8977 31.9971 25.3794 32.9121 26.0918 33.6303C26.8042 34.3485 27.7153 34.8376 28.7099 35.0358C29.7046 35.2339 30.7381 35.1322 31.6798 34.7436C32.6214 34.3549 33.429 33.6966 34.0002 32.8521C34.5715 32.0076 34.8809 31.0147 34.8892 29.999C34.8947 29.3246 34.7674 28.6568 34.5144 28.0338C34.2614 27.4107 33.8877 26.8446 33.4147 26.3677C32.9417 25.8908 32.3786 25.5125 31.7576 25.2545C31.1366 24.9964 30.4698 24.8636 29.7954 24.8636ZM29.7259 33.3322C29.0666 33.3322 28.4237 33.1367 27.8785 32.7705C27.3333 32.4042 26.9103 31.8836 26.663 31.2746C26.4157 30.6655 26.3551 29.9953 26.4891 29.3487C26.623 28.7021 26.9454 28.1082 27.4154 27.6421C27.8854 27.1759 28.482 26.8584 29.1297 26.7298C29.7774 26.6012 30.4471 26.6672 31.0542 26.9195C31.6613 27.1718 32.1784 27.599 32.5402 28.1472C32.902 28.6953 33.0922 29.3398 33.0868 29.999C33.0795 30.883 32.7214 31.7309 32.0911 32.356C31.4608 32.9811 30.61 33.3322 29.7259 33.3322ZM35.1463 23.4617C34.9089 23.4614 34.6762 23.5316 34.4777 23.6632C34.2791 23.7949 34.1236 23.9822 34.0308 24.2014C33.9379 24.4206 33.912 24.6619 33.9563 24.8947C34.0005 25.1275 34.1129 25.3414 34.2793 25.5093C34.4457 25.6772 34.6585 25.7916 34.8909 25.838C35.1233 25.8844 35.3648 25.8607 35.5849 25.77C35.805 25.6792 35.9937 25.5254 36.1272 25.3281C36.2608 25.1308 36.3331 24.8988 36.335 24.6614C36.3376 24.3435 36.2139 24.0385 35.991 23.8135C35.7681 23.5886 35.4643 23.462 35.1463 23.4617Z" fill="white" stroke="#C296DA"/>
<path d="M25.4988 20.4993H34.1648C37.0183 20.4993 39.3129 22.8127 39.2895 25.6661L39.2184 34.3318C39.195 37.1852 36.8625 39.4986 34.009 39.4986H25.343C22.4895 39.4986 20.195 37.1852 20.2184 34.3318L20.2895 25.6661C20.3129 22.8127 22.6454 20.4993 25.4988 20.4993Z" stroke="#C296DA"/>
</g>
<defs>
<clipPath id="clip0_256_3381">
<rect width="60" height="60" fill="white"/>
</clipPath>
</defs>
</svg>
