<svg width="60" height="60" viewBox="0 0 60 60" fill="none" xmlns="http://www.w3.org/2000/svg">
<g clip-path="url(#clip0_180_2124)">
<mask id="path-1-outside-1_180_2124" maskUnits="userSpaceOnUse" x="27.9578" y="19.0083" width="4.06562" height="7.99973" fill="black">
<rect fill="white" x="27.9578" y="19.0083" width="4.06562" height="7.99973"/>
<path d="M29.7916 25.7149C29.3363 25.7149 28.9722 25.2609 28.9759 24.8081L29.0078 20.9163C29.0115 20.4623 29.3831 20.0083 29.8384 20.0083C30.2924 20.0083 30.6553 20.4623 30.6515 20.9163L30.6196 24.8081C30.6159 25.2609 30.2443 25.7149 29.7916 25.7149Z"/>
</mask>
<path d="M29.7916 25.7149C29.3363 25.7149 28.9722 25.2609 28.9759 24.8081L29.0078 20.9163C29.0115 20.4623 29.3831 20.0083 29.8384 20.0083C30.2924 20.0083 30.6553 20.4623 30.6515 20.9163L30.6196 24.8081C30.6159 25.2609 30.2443 25.7149 29.7916 25.7149Z" fill="#F4C2CB"/>
<path d="M29.7916 25.7149C29.3363 25.7149 28.9722 25.2609 28.9759 24.8081L29.0078 20.9163C29.0115 20.4623 29.3831 20.0083 29.8384 20.0083C30.2924 20.0083 30.6553 20.4623 30.6515 20.9163L30.6196 24.8081C30.6159 25.2609 30.2443 25.7149 29.7916 25.7149Z" stroke="#EB8A9A" stroke-width="2" mask="url(#path-1-outside-1_180_2124)"/>
<mask id="path-2-outside-2_180_2124" maskUnits="userSpaceOnUse" x="21.4881" y="21.7193" width="7.05742" height="6.99976" fill="black">
<rect fill="white" x="21.4881" y="21.7193" width="7.05742" height="6.99976"/>
<path d="M26.7537 26.9676C26.4308 27.2891 25.8487 27.2274 25.5311 26.9059L22.7986 24.1548C22.481 23.8333 22.424 23.2533 22.7482 22.9317C23.0724 22.6102 23.6533 22.6719 23.9709 22.9935L26.7033 25.7445C27.0209 26.066 27.0779 26.6461 26.7537 26.9676Z"/>
</mask>
<path d="M26.7537 26.9676C26.4308 27.2891 25.8487 27.2274 25.5311 26.9059L22.7986 24.1548C22.481 23.8333 22.424 23.2533 22.7482 22.9317C23.0724 22.6102 23.6533 22.6719 23.9709 22.9935L26.7033 25.7445C27.0209 26.066 27.0779 26.6461 26.7537 26.9676Z" fill="#F9DEB0"/>
<path d="M26.7537 26.9676C26.4308 27.2891 25.8487 27.2274 25.5311 26.9059L22.7986 24.1548C22.481 23.8333 22.424 23.2533 22.7482 22.9317C23.0724 22.6102 23.6533 22.6719 23.9709 22.9935L26.7033 25.7445C27.0209 26.066 27.0779 26.6461 26.7537 26.9676Z" stroke="#F3C067" stroke-width="2" mask="url(#path-2-outside-2_180_2124)"/>
<mask id="path-3-outside-3_180_2124" maskUnits="userSpaceOnUse" x="18.7464" y="28.1707" width="8.03281" height="3.99987" fill="black">
<rect fill="white" x="18.7464" y="28.1707" width="8.03281" height="3.99987"/>
<path d="M25.4749 29.9912C25.4712 30.4452 25.0141 30.813 24.5601 30.813H20.6656C20.2115 30.813 19.7605 30.4452 19.7643 29.9912C19.768 29.5372 20.225 29.1707 20.679 29.1707H24.5736C25.0289 29.1707 25.4786 29.5372 25.4749 29.9912Z"/>
</mask>
<path d="M25.4749 29.9912C25.4712 30.4452 25.0141 30.813 24.5601 30.813H20.6656C20.2115 30.813 19.7605 30.4452 19.7643 29.9912C19.768 29.5372 20.225 29.1707 20.679 29.1707H24.5736C25.0289 29.1707 25.4786 29.5372 25.4749 29.9912Z" fill="#B3EBD2"/>
<path d="M25.4749 29.9912C25.4712 30.4452 25.0141 30.813 24.5601 30.813H20.6656C20.2115 30.813 19.7605 30.4452 19.7643 29.9912C19.768 29.5372 20.225 29.1707 20.679 29.1707H24.5736C25.0289 29.1707 25.4786 29.5372 25.4749 29.9912Z" stroke="#6BD8A7" stroke-width="2" mask="url(#path-3-outside-3_180_2124)"/>
<mask id="path-4-outside-4_180_2124" maskUnits="userSpaceOnUse" x="21.4059" y="31.803" width="7.05742" height="6.99976" fill="black">
<rect fill="white" x="21.4059" y="31.803" width="7.05742" height="6.99976"/>
<path d="M26.7041 33.0149C27.023 33.3365 26.9565 33.9165 26.6336 34.2381L23.856 36.9891C23.5332 37.3106 22.95 37.3724 22.6324 37.0508C22.3148 36.7293 22.38 36.1492 22.7029 35.8277L25.4856 33.0767C25.8033 32.7551 26.3864 32.6947 26.7041 33.0149Z"/>
</mask>
<path d="M26.7041 33.0149C27.023 33.3365 26.9565 33.9165 26.6336 34.2381L23.856 36.9891C23.5332 37.3106 22.95 37.3724 22.6324 37.0508C22.3148 36.7293 22.38 36.1492 22.7029 35.8277L25.4856 33.0767C25.8033 32.7551 26.3864 32.6947 26.7041 33.0149Z" fill="#AEC4EE"/>
<path d="M26.7041 33.0149C27.023 33.3365 26.9565 33.9165 26.6336 34.2381L23.856 36.9891C23.5332 37.3106 22.95 37.3724 22.6324 37.0508C22.3148 36.7293 22.38 36.1492 22.7029 35.8277L25.4856 33.0767C25.8033 32.7551 26.3864 32.6947 26.7041 33.0149Z" stroke="#638CDF" stroke-width="2" mask="url(#path-4-outside-4_180_2124)"/>
<mask id="path-5-outside-5_180_2124" maskUnits="userSpaceOnUse" x="27.8408" y="33.2703" width="4.06562" height="7.99973" fill="black">
<rect fill="white" x="27.8408" y="33.2703" width="4.06562" height="7.99973"/>
<path d="M29.7214 34.2703C30.1742 34.2703 30.5383 34.7243 30.5346 35.1783L30.5027 39.0688C30.4989 39.5228 30.1274 39.9768 29.6746 39.9768C29.2206 39.9768 28.8552 39.5228 28.8589 39.0688L28.8909 35.1757C28.8907 34.7217 29.2661 34.2703 29.7214 34.2703Z"/>
</mask>
<path d="M29.7214 34.2703C30.1742 34.2703 30.5383 34.7243 30.5346 35.1783L30.5027 39.0688C30.4989 39.5228 30.1274 39.9768 29.6746 39.9768C29.2206 39.9768 28.8552 39.5228 28.8589 39.0688L28.8909 35.1757C28.8907 34.7217 29.2661 34.2703 29.7214 34.2703Z" fill="#AEC4EE"/>
<path d="M29.7214 34.2703C30.1742 34.2703 30.5383 34.7243 30.5346 35.1783L30.5027 39.0688C30.4989 39.5228 30.1274 39.9768 29.6746 39.9768C29.2206 39.9768 28.8552 39.5228 28.8589 39.0688L28.8909 35.1757C28.8907 34.7217 29.2661 34.2703 29.7214 34.2703Z" stroke="#638CDF" stroke-width="2" mask="url(#path-5-outside-5_180_2124)"/>
<mask id="path-6-outside-6_180_2124" maskUnits="userSpaceOnUse" x="31.4974" y="31.803" width="7.05742" height="6.99976" fill="black">
<rect fill="white" x="31.4974" y="31.803" width="7.05742" height="6.99976"/>
<path d="M32.7568 33.0149C33.081 32.6947 33.6618 32.7551 33.9795 33.0767L36.7118 35.8316C37.0295 36.1531 37.0864 36.7331 36.7623 37.0547C36.4381 37.3762 35.8572 37.3145 35.5396 36.9929L32.8085 34.2419C32.4896 33.9165 32.4339 33.3365 32.7568 33.0149Z"/>
</mask>
<path d="M32.7568 33.0149C33.081 32.6947 33.6618 32.7551 33.9795 33.0767L36.7118 35.8316C37.0295 36.1531 37.0864 36.7331 36.7623 37.0547C36.4381 37.3762 35.8572 37.3145 35.5396 36.9929L32.8085 34.2419C32.4896 33.9165 32.4339 33.3365 32.7568 33.0149Z" fill="#F9DEB0"/>
<path d="M32.7568 33.0149C33.081 32.6947 33.6618 32.7551 33.9795 33.0767L36.7118 35.8316C37.0295 36.1531 37.0864 36.7331 36.7623 37.0547C36.4381 37.3762 35.8572 37.3145 35.5396 36.9929L32.8085 34.2419C32.4896 33.9165 32.4339 33.3365 32.7568 33.0149Z" stroke="#F3C067" stroke-width="2" mask="url(#path-6-outside-6_180_2124)"/>
<mask id="path-7-outside-7_180_2124" maskUnits="userSpaceOnUse" x="33.0177" y="28.1707" width="8.03281" height="3.99987" fill="black">
<rect fill="white" x="33.0177" y="28.1707" width="8.03281" height="3.99987"/>
<path d="M34.0356 29.9912C34.0394 29.5372 34.4964 29.1707 34.9504 29.1707H38.8449C39.3002 29.1707 39.7513 29.5372 39.7475 29.9912C39.7438 30.4452 39.2868 30.813 38.8315 30.813H34.9369C34.4829 30.813 34.0319 30.4452 34.0356 29.9912Z"/>
</mask>
<path d="M34.0356 29.9912C34.0394 29.5372 34.4964 29.1707 34.9504 29.1707H38.8449C39.3002 29.1707 39.7513 29.5372 39.7475 29.9912C39.7438 30.4452 39.2868 30.813 38.8315 30.813H34.9369C34.4829 30.813 34.0319 30.4452 34.0356 29.9912Z" fill="#B3EBD2"/>
<path d="M34.0356 29.9912C34.0394 29.5372 34.4964 29.1707 34.9504 29.1707H38.8449C39.3002 29.1707 39.7513 29.5372 39.7475 29.9912C39.7438 30.4452 39.2868 30.813 38.8315 30.813H34.9369C34.4829 30.813 34.0319 30.4452 34.0356 29.9912Z" stroke="#6BD8A7" stroke-width="2" mask="url(#path-7-outside-7_180_2124)"/>
<mask id="path-8-outside-8_180_2124" maskUnits="userSpaceOnUse" x="31.5801" y="21.7198" width="7.05742" height="6.99976" fill="black">
<rect fill="white" x="31.5801" y="21.7198" width="7.05742" height="6.99976"/>
<path d="M32.8064 26.9676C32.4888 26.646 32.554 26.066 32.8782 25.7445L35.6544 22.9934C35.9773 22.6719 36.5605 22.6114 36.8781 22.9317C37.1957 23.2519 37.1305 23.8333 36.8076 24.1548L34.0339 26.9058C33.7072 27.2274 33.1253 27.2891 32.8064 26.9676Z"/>
</mask>
<path d="M32.8064 26.9676C32.4888 26.646 32.554 26.066 32.8782 25.7445L35.6544 22.9934C35.9773 22.6719 36.5605 22.6114 36.8781 22.9317C37.1957 23.2519 37.1305 23.8333 36.8076 24.1548L34.0339 26.9058C33.7072 27.2274 33.1253 27.2891 32.8064 26.9676Z" fill="#B1E6E6"/>
<path d="M32.8064 26.9676C32.4888 26.646 32.554 26.066 32.8782 25.7445L35.6544 22.9934C35.9773 22.6719 36.5605 22.6114 36.8781 22.9317C37.1957 23.2519 37.1305 23.8333 36.8076 24.1548L34.0339 26.9058C33.7072 27.2274 33.1253 27.2891 32.8064 26.9676Z" stroke="#68CFCF" stroke-width="2" mask="url(#path-8-outside-8_180_2124)"/>
<mask id="path-9-outside-9_180_2124" maskUnits="userSpaceOnUse" x="27.4124" y="27.6704" width="5.04101" height="4.99983" fill="black">
<rect fill="white" x="27.4124" y="27.6704" width="5.04101" height="4.99983"/>
<path d="M29.7457 31.3121C29.0139 31.3121 28.4284 30.7218 28.4344 29.9913C28.4403 29.2607 29.0355 28.6704 29.7674 28.6704C30.4979 28.6704 31.0834 29.2607 31.0774 29.9913C31.0714 30.7218 30.4763 31.3121 29.7457 31.3121Z"/>
</mask>
<path d="M29.7457 31.3121C29.0139 31.3121 28.4284 30.7218 28.4344 29.9913C28.4403 29.2607 29.0355 28.6704 29.7674 28.6704C30.4979 28.6704 31.0834 29.2607 31.0774 29.9913C31.0714 30.7218 30.4763 31.3121 29.7457 31.3121Z" fill="#E3E3E3"/>
<path d="M29.7457 31.3121C29.0139 31.3121 28.4284 30.7218 28.4344 29.9913C28.4403 29.2607 29.0355 28.6704 29.7674 28.6704C30.4979 28.6704 31.0834 29.2607 31.0774 29.9913C31.0714 30.7218 30.4763 31.3121 29.7457 31.3121Z" stroke="#B8B8B8" stroke-width="2" mask="url(#path-9-outside-9_180_2124)"/>
</g>
<defs>
<clipPath id="clip0_180_2124">
<rect width="60" height="60" fill="white"/>
</clipPath>
</defs>
</svg>
