<svg width="60" height="60" viewBox="0 0 60 60" fill="none" xmlns="http://www.w3.org/2000/svg">
<g clip-path="url(#clip0_256_3722)">
<path d="M29.8426 19.5083C30.2427 19.5083 30.5754 19.7081 30.7959 19.9634C31.0153 20.2175 31.1543 20.5596 31.1514 20.9165L31.1194 24.8079C31.1165 25.1649 30.9717 25.5065 30.7483 25.7601C30.5238 26.0148 30.1874 26.2151 29.7876 26.2151C29.3873 26.2151 29.0535 26.0161 28.8323 25.761C28.6123 25.5073 28.473 25.1651 28.4759 24.8079L28.5078 20.9165C28.5107 20.5592 28.6558 20.2174 28.8799 19.9634C29.1053 19.708 29.4422 19.5083 29.8426 19.5083Z" fill="#FBECEE" stroke="#E78E9E"/>
<path d="M23.3998 22.2222C23.7359 22.2452 24.0769 22.3873 24.3271 22.6401L27.0594 25.391L27.0604 25.392C27.3098 25.6446 27.4487 25.9863 27.4687 26.3226C27.4888 26.6604 27.389 27.0367 27.1041 27.3197C26.8188 27.6037 26.4401 27.7002 26.1022 27.6771C25.7663 27.6541 25.4252 27.5128 25.1749 27.2601L22.4426 24.5082L22.4416 24.5073C22.1922 24.2547 22.0533 23.913 22.0332 23.5766C22.0132 23.2386 22.1126 22.8616 22.3979 22.5786C22.6833 22.2955 23.0618 22.1991 23.3998 22.2222Z" fill="#FBF4E9" stroke="#E8C27F"/>
<path d="M24.5778 28.6707C24.9351 28.6707 25.2756 28.8122 25.528 29.0339C25.7816 29.2568 25.9784 29.5912 25.9752 29.9909C25.9719 30.391 25.7693 30.726 25.5123 30.9489C25.2565 31.1707 24.9135 31.3131 24.5562 31.3132H20.6616C20.3043 31.3132 19.9636 31.1707 19.7115 30.9489C19.4581 30.726 19.261 30.3911 19.2643 29.9909C19.2676 29.5908 19.4701 29.2565 19.7272 29.0339C19.9832 28.8124 20.3264 28.6707 20.6833 28.6707H24.5778Z" fill="#E7F6EF" stroke="#76CAA5"/>
<path d="M26.0647 32.3059C26.4023 32.283 26.7804 32.3787 27.0608 32.6614C27.3415 32.9445 27.4338 33.3223 27.4081 33.6604C27.3825 33.9967 27.2389 34.3385 26.9854 34.591L26.9844 34.592L24.206 37.3429C23.9515 37.5956 23.6081 37.7369 23.2719 37.7598C22.9337 37.7829 22.5554 37.6875 22.2748 37.4034C21.9956 37.1205 21.9031 36.7431 21.9285 36.4054C21.9539 36.0694 22.0974 35.7275 22.3512 35.4748L22.3532 35.4738L25.1355 32.7229C25.3883 32.4692 25.7305 32.3287 26.0647 32.3059Z" fill="#ECF1FB" stroke="#8FADEA"/>
<path d="M29.7256 33.7703C30.1255 33.7703 30.4585 33.9703 30.6789 34.2253C30.8983 34.4792 31.0373 34.8211 31.0344 35.1784L31.0024 39.0689C30.9995 39.4263 30.8549 39.7682 30.6313 40.022C30.4068 40.277 30.0705 40.4771 29.6706 40.4771C29.2706 40.4771 28.9374 40.277 28.7163 40.022C28.4963 39.7683 28.356 39.4267 28.3589 39.0689L28.3908 35.1755C28.3919 34.8164 28.5384 34.4751 28.7629 34.2224C28.9894 33.9675 29.3268 33.7703 29.7256 33.7703Z" fill="#ECF1FB" stroke="#8FADEA"/>
<path d="M33.4081 32.3059C33.744 32.3287 34.0848 32.4706 34.3353 32.7239L34.3363 32.7229L37.0686 35.4777L37.0686 35.4787C37.3181 35.7313 37.4569 36.0729 37.4769 36.4093C37.4971 36.7474 37.3986 37.1252 37.1133 37.4083C36.8277 37.6915 36.4485 37.7869 36.1104 37.7637C35.7743 37.7407 35.4333 37.5996 35.1831 37.3468L32.4518 34.5959L32.4499 34.593C32.2011 34.339 32.0625 33.9971 32.0425 33.6604C32.0225 33.3223 32.1212 32.9453 32.4051 32.6624L32.4071 32.6604C32.6924 32.3788 33.0705 32.2832 33.4081 32.3059Z" fill="#FBF4E9" stroke="#E8C27F"/>
<path d="M38.8492 28.6707C39.2064 28.6707 39.5467 28.8124 39.7993 29.0339C40.0532 29.2566 40.2507 29.5907 40.2475 29.9909C40.2443 30.391 40.0419 30.726 39.7846 30.9489C39.5285 31.1708 39.1852 31.3131 38.8275 31.3132H34.933C34.5756 31.3132 34.235 31.1707 33.9828 30.9489C33.7295 30.726 33.5323 30.3911 33.5356 29.9909C33.539 29.5908 33.7414 29.2565 33.9986 29.0339C34.2545 28.8124 34.5977 28.6707 34.9547 28.6707H38.8492Z" fill="#E7F6EF" stroke="#76CAA5"/>
<path d="M36.2388 22.2227C36.5767 22.1999 36.9545 22.2953 37.2349 22.5781C37.5152 22.8608 37.6066 23.2386 37.5812 23.5761C37.556 23.9122 37.4127 24.2547 37.1586 24.5078L37.1585 24.5087L34.385 27.2596L34.383 27.2606C34.1275 27.5121 33.7842 27.6536 33.447 27.6766C33.1083 27.6997 32.7309 27.6044 32.4499 27.3211L32.449 27.3202C32.1697 27.0372 32.077 26.6601 32.1027 26.3221C32.1282 25.9857 32.2724 25.6433 32.5273 25.3905L35.3038 22.6397C35.5585 22.3864 35.9026 22.2454 36.2388 22.2227Z" fill="#E7F5F6" stroke="#75C3CB"/>
<path d="M29.7716 28.1704C30.7782 28.1705 31.5862 28.985 31.5779 29.9917C31.5694 30.9981 30.7482 31.8119 29.7417 31.8119C28.7342 31.8119 27.9263 30.9984 27.9344 29.9917C27.9426 28.9847 28.7639 28.1704 29.7716 28.1704Z" fill="#F0F0F0" stroke="#ABABAB"/>
</g>
<defs>
<clipPath id="clip0_256_3722">
<rect width="60" height="60" fill="white"/>
</clipPath>
</defs>
</svg>
