<svg width="60" height="60" viewBox="0 0 60 60" fill="none" xmlns="http://www.w3.org/2000/svg">
<g clip-path="url(#clip0_256_2977)">
<rect width="40" height="30" transform="matrix(1 0 -0.00820296 0.999966 9.87695 14.9995)" fill="white"/>
<rect width="10" height="20" transform="matrix(1 0 -0.00820296 0.999966 39.8359 19.9995)" fill="#E7F5F6"/>
<path fill-rule="evenodd" clip-rule="evenodd" d="M48.8688 15.9995H10.8688L10.8359 19.9993H48.8359L48.8688 15.9995ZM9.87695 14.9995L9.82774 20.9993H49.8277L49.877 14.9995H9.87695Z" fill="#D6D6D6"/>
<path fill-rule="evenodd" clip-rule="evenodd" d="M48.6719 39.9985H10.6719L10.6391 43.9984H48.6391L48.6719 39.9985ZM9.68011 38.9985L9.6309 44.9983H49.6309L49.6801 38.9985H9.68011Z" fill="#D6D6D6"/>
<path fill-rule="evenodd" clip-rule="evenodd" d="M48.8277 20.9995H10.8277L10.6801 38.9989H48.6801L48.8277 20.9995ZM9.83594 19.9995L9.67188 39.9988H49.6719L49.8359 19.9995H9.83594Z" fill="#D6D6D6"/>
<path fill-rule="evenodd" clip-rule="evenodd" d="M48.8277 20.9995H40.8277L40.6801 38.9989H48.6801L48.8277 20.9995ZM39.8359 19.9995L39.6719 39.9988H49.6719L49.8359 19.9995H39.8359Z" fill="#75C3CB"/>
</g>
<defs>
<clipPath id="clip0_256_2977">
<rect width="60" height="60" fill="white"/>
</clipPath>
</defs>
</svg>
