<svg width="60" height="60" viewBox="0 0 60 60" fill="none" xmlns="http://www.w3.org/2000/svg">
<g clip-path="url(#clip0_256_2885)">
<path d="M15.524 20.6294L14.8053 23.7315L15.94 26.2592L18.3493 28.3273L24.2455 27.8678L24.2389 28.672H25.6254L26.0828 29.2465L25.6046 31.1997L26.7477 32.6934L27.6504 35.3359L26.7195 36.1402L26.5917 37.6339L28.0729 40.1615L28.0597 41.7701L29.5448 43.8382L29.1916 44.6425L29.9947 45.3318L32.6549 44.9871L34.867 42.919L35.3424 41.3105H36.1512L36.6199 40.5062L36.6331 38.8977L38.8406 37.4041L39.3169 35.6806L38.4124 33.2678L41.0942 30.2806L42.0214 29.9359L43.7799 26.8337L43.7902 25.5699L41.1272 26.2592L38.4962 23.0422L36.3321 19.2506L36.3472 17.4123L33.5724 17.6421L31.1537 16.7229L30.5656 17.9868L26.8835 16.1485L27.4668 15.4591L26.8929 14.9995L22.1521 15.4591L21.0005 14.9995L19.3735 16.1485L18.668 17.6421L17.3924 18.2166L15.524 20.6294Z" fill="#FBF4E9"/>
<path d="M41.9582 37.6339L40.6845 37.9785L40.3303 38.8977L40.6713 39.5871L39.8578 40.1615L39.8484 41.3105L40.3068 41.7701L41.3504 41.3105L43.1136 37.6339L43.1192 36.9445L42.7792 36.1402L41.9582 37.6339Z" fill="#FBF4E9"/>
<path d="M15.524 20.6294L14.8053 23.7315L15.94 26.2592L18.3493 28.3273L24.2455 27.8678L24.2389 28.672H25.6254L26.0828 29.2465L25.6046 31.1997L26.7477 32.6934L27.6504 35.3359L26.7195 36.1402L26.5917 37.6339L28.0729 40.1615L28.0597 41.7701L29.5448 43.8382L29.1916 44.6425L29.9947 45.3318L32.6549 44.9871L34.867 42.919L35.3424 41.3105H36.1512L36.6199 40.5062L36.6331 38.8977L38.8406 37.4041L39.3169 35.6806L38.4124 33.2678L41.0942 30.2806L42.0214 29.9359L43.7799 26.8337L43.7902 25.5699L41.1272 26.2592L38.4962 23.0422L36.3321 19.2506L36.3472 17.4123L33.5724 17.6421L31.1537 16.7229L30.5656 17.9868L26.8835 16.1485L27.4668 15.4591L26.8929 14.9995L22.1521 15.4591L21.0005 14.9995L19.3735 16.1485L18.668 17.6421L17.3924 18.2166L15.524 20.6294Z" stroke="#E8C27F"/>
<path d="M41.9582 37.6339L40.6845 37.9785L40.3303 38.8977L40.6713 39.5871L39.8578 40.1615L39.8484 41.3105L40.3068 41.7701L41.3504 41.3105L43.1136 37.6339L43.1192 36.9445L42.7792 36.1402L41.9582 37.6339Z" stroke="#E8C27F"/>
</g>
<defs>
<clipPath id="clip0_256_2885">
<rect width="60" height="60" fill="white"/>
</clipPath>
</defs>
</svg>
