<svg width="60" height="60" viewBox="0 0 60 60" fill="none" xmlns="http://www.w3.org/2000/svg">
<g clip-path="url(#clip0_180_890)">
<mask id="path-1-outside-1_180_890" maskUnits="userSpaceOnUse" x="19.6719" y="19.9993" width="20.1641" height="19.9993" fill="black">
<rect fill="white" x="19.6719" y="19.9993" width="20.1641" height="19.9993"/>
<path d="M37.8282 20.9993H21.8354H20.8278L20.8195 22.0068L20.6884 37.9911L20.6801 38.9987H21.6877H38.6801L38.6884 37.9911H21.696L21.8271 22.0068H37.8199L37.778 27.1253H38.7775L38.8195 22.0068L38.8278 20.9993H37.8282Z"/>
</mask>
<path d="M37.8282 20.9993H21.8354H20.8278L20.8195 22.0068L20.6884 37.9911L20.6801 38.9987H21.6877H38.6801L38.6884 37.9911H21.696L21.8271 22.0068H37.8199L37.778 27.1253H38.7775L38.8195 22.0068L38.8278 20.9993H37.8282Z" fill="#E3E3E3"/>
<path d="M37.8282 20.9993H21.8354H20.8278L20.8195 22.0068L20.6884 37.9911L20.6801 38.9987H21.6877H38.6801L38.6884 37.9911H21.696L21.8271 22.0068H37.8199L37.778 27.1253H38.7775L38.8195 22.0068L38.8278 20.9993H37.8282Z" stroke="#B8B8B8" stroke-width="2" mask="url(#path-1-outside-1_180_890)"/>
</g>
<defs>
<clipPath id="clip0_180_890">
<rect width="60" height="60" fill="white"/>
</clipPath>
</defs>
</svg>
