<svg width="60" height="60" viewBox="0 0 60 60" fill="none" xmlns="http://www.w3.org/2000/svg">
<g clip-path="url(#clip0_256_2739)">
<g clip-path="url(#clip1_256_2739)">
<path d="M28.9727 39.9642C28.4454 39.9051 27.918 39.8455 27.3591 39.7831C27.8231 38.4202 28.2712 37.1043 28.6969 35.8549C30.8861 35.8097 33.6615 35.8389 33.5523 32.9475C33.5935 30.9995 33.6026 29.051 33.6048 27.1029C33.6058 26.1407 33.4258 25.2398 32.4938 24.6919C32.9431 23.3714 33.3877 22.0641 33.8857 20.6016C34.621 21.1592 35.3658 21.6114 35.9708 22.2063C38.7826 25.1355 37.5285 29.6224 37.6776 33.308C37.5841 38.0735 33.34 40.3075 28.9733 39.9647L28.9727 39.9642Z" fill="#FBF4E9"/>
<path fill-rule="evenodd" clip-rule="evenodd" d="M29.09 38.9702C31.0838 39.1207 32.9831 38.679 34.3664 37.7291C35.7178 36.8012 36.629 35.3591 36.6771 33.3251C36.64 32.3585 36.6931 31.3511 36.7448 30.3852L36.7467 30.3502C36.7992 29.369 36.8496 28.4253 36.8231 27.5107C36.7696 25.6691 36.4057 24.1159 35.2564 22.9121C34.988 22.6496 34.7085 22.4341 34.3931 22.2065C34.1875 22.8105 33.9888 23.3948 33.792 23.9731C33.7505 24.0952 33.7091 24.217 33.6677 24.3386C34.4741 25.1531 34.6058 26.229 34.6049 27.0958L34.6049 27.0959C34.6026 29.0363 34.5936 30.9835 34.5527 32.9325C34.5807 33.8047 34.3944 34.5621 33.9693 35.1784C33.5416 35.7985 32.9425 36.1738 32.3327 36.4038C31.4255 36.746 30.3365 36.8157 29.4151 36.8402C29.1839 37.5188 28.9466 38.2154 28.7044 38.9269C28.8336 38.9414 28.9621 38.9558 29.09 38.9702ZM27.6894 38.8129C27.5803 39.1334 27.4702 39.4569 27.3591 39.7831C27.6616 39.8169 27.9548 39.8498 28.2437 39.8823C28.2873 39.8872 28.3307 39.8921 28.3741 39.897C28.5748 39.9195 28.7737 39.9419 28.9727 39.9642L28.9733 39.9647C33.34 40.3075 37.5841 38.0735 37.6776 33.308C37.6396 32.3696 37.6926 31.3792 37.7463 30.3758C37.9035 27.4385 38.0667 24.3896 35.9708 22.2063C35.5989 21.8406 35.1741 21.5288 34.7312 21.2133C34.6818 21.1781 34.6322 21.1429 34.5824 21.1075C34.3524 20.9442 34.1186 20.7782 33.8857 20.6016C33.7697 20.9422 33.6566 21.2744 33.5457 21.6002C33.3049 22.3078 33.0743 22.9857 32.8463 23.6557C32.7285 24.0022 32.6113 24.3466 32.4938 24.6919C33.4258 25.2398 33.6058 26.1407 33.6048 27.1029C33.6026 29.051 33.5935 30.9995 33.5523 32.9475C33.6585 35.7577 31.0397 35.809 28.8826 35.8512C28.8203 35.8525 28.7584 35.8537 28.6969 35.8549C28.3731 36.8053 28.0363 37.7942 27.6894 38.8129Z" fill="#E8C27F"/>
<path d="M30.4832 20.0199C31.0157 20.0766 31.5483 20.1339 32.1146 20.1941C31.6512 21.5581 31.2025 22.8774 30.7409 24.2363C28.4398 24.0947 25.8779 24.2305 25.9827 27.1815C25.9671 29.0773 25.9435 30.9732 25.9394 32.8696C25.9374 33.8101 26.0947 34.6967 26.9887 35.2618C26.5394 36.5834 26.0919 37.8987 25.6027 39.3383C20.4039 36.5301 22.0289 31.6156 21.8314 26.6966C21.9116 21.953 26.2069 19.7585 30.4832 20.0199Z" fill="#FBECEE"/>
<path fill-rule="evenodd" clip-rule="evenodd" d="M24.9394 32.8757L24.9394 32.8757C24.9423 31.5285 24.955 30.1797 24.9677 28.8352C24.9729 28.2901 24.978 27.7456 24.9825 27.2023C24.9548 26.3304 25.1205 25.5679 25.5074 24.9381C25.901 24.2975 26.4678 23.8849 27.078 23.628C27.9857 23.2459 29.0651 23.1803 30.0382 23.2036C30.188 22.7628 30.3373 22.3235 30.4868 21.8839C30.5804 21.6085 30.6741 21.3329 30.7679 21.0568C30.6421 21.0433 30.5169 21.03 30.3921 21.0167C28.4353 20.9013 26.5353 21.3517 25.1444 22.3048C23.788 23.2342 22.8738 24.663 22.8318 26.6781C22.8736 27.7579 22.8317 28.8386 22.7923 29.854C22.7854 30.0315 22.7786 30.207 22.7723 30.3802C22.729 31.5765 22.7107 32.6689 22.8342 33.6797C22.9565 34.68 23.214 35.5607 23.6976 36.3358C24.0205 36.8532 24.46 37.3491 25.0685 37.8102C25.2192 37.3672 25.3668 36.933 25.5129 36.5035C25.6165 36.1987 25.7194 35.8963 25.8219 35.5947C25.0487 34.7721 24.9376 33.7148 24.9394 32.8757ZM26.9887 35.2618C26.0947 34.6967 25.9374 33.8101 25.9394 32.8696C25.9423 31.5263 25.955 30.1832 25.9677 28.8403C25.9729 28.2873 25.9781 27.7344 25.9827 27.1815C25.8779 24.2305 28.4398 24.0947 30.7409 24.2363C30.9736 23.5513 31.203 22.8764 31.4326 22.2008C31.5497 21.8563 31.6669 21.5117 31.7845 21.1655C31.894 20.8435 32.0039 20.52 32.1146 20.1941C31.7936 20.16 31.4835 20.1268 31.1781 20.0941C31.1514 20.0913 31.1246 20.0884 31.098 20.0855C30.8918 20.0635 30.6875 20.0416 30.4832 20.0199C26.2069 19.7585 21.9116 21.953 21.8314 26.6966C21.8735 27.7434 21.8329 28.79 21.7932 29.8162C21.6576 33.3196 21.5313 36.5845 24.7304 38.8048C24.9974 38.9901 25.2875 39.1681 25.6027 39.3383C25.714 39.0107 25.8232 38.6895 25.9307 38.3732C26.1108 37.8436 26.2862 37.3277 26.4594 36.8183C26.6373 36.2952 26.8129 35.779 26.9887 35.2618Z" fill="#E78E9E"/>
</g>
</g>
<defs>
<clipPath id="clip0_256_2739">
<rect width="60" height="60" fill="white"/>
</clipPath>
<clipPath id="clip1_256_2739">
<rect width="16.0609" height="20" fill="white" transform="matrix(1 0 -0.00820296 0.999966 21.8359 19.9993)"/>
</clipPath>
</defs>
</svg>
