<svg width="60" height="60" viewBox="0 0 60 60" fill="none" xmlns="http://www.w3.org/2000/svg">
<g clip-path="url(#clip0_256_3547)">
<g clip-path="url(#clip1_256_3547)">
<rect width="20" height="20" rx="9.99998" transform="matrix(1 0 -0.00820296 0.999966 34.8359 19.9995)" fill="white"/>
<mask id="mask0_256_3547" style="mask-type:alpha" maskUnits="userSpaceOnUse" x="34" y="19" width="21" height="21">
<rect x="0.495899" y="0.499983" width="19" height="19" rx="9.49998" transform="matrix(1 0 -0.00820296 0.999966 34.84 19.9995)" fill="#CBF7E1" stroke="#1FC47A"/>
</mask>
<g mask="url(#mask0_256_3547)">
<rect x="0.495899" y="0.499983" width="6.85713" height="6.85713" rx="3.42856" transform="matrix(1 0 -0.00820296 0.999966 40.8851 23.2139)" fill="#FBF4E9" stroke="#E8C27F"/>
<rect x="0.495899" y="0.499983" width="11.1428" height="11.1428" rx="5.57142" transform="matrix(1 0 -0.00820296 0.999966 38.669 32.1421)" fill="#ECF1FB" stroke="#8FADEA"/>
<rect x="0.495899" y="0.499983" width="19" height="19" rx="9.49998" transform="matrix(1 0 -0.00820296 0.999966 34.84 19.9995)" stroke="#ABABAB"/>
</g>
</g>
<g clip-path="url(#clip2_256_3547)">
<rect width="20" height="20" rx="9.99998" transform="matrix(1 0 -0.00820296 0.999966 19.8359 19.9995)" fill="white"/>
<mask id="mask1_256_3547" style="mask-type:alpha" maskUnits="userSpaceOnUse" x="19" y="19" width="21" height="21">
<rect x="0.495899" y="0.499983" width="19" height="19" rx="9.49998" transform="matrix(1 0 -0.00820296 0.999966 19.84 19.9995)" fill="#CBF7E1" stroke="#1FC47A"/>
</mask>
<g mask="url(#mask1_256_3547)">
<rect x="0.495899" y="0.499983" width="4.33333" height="4.33333" rx="2.16667" transform="matrix(1 0 -0.00820296 0.999966 27.1597 21.666)" fill="#FBF4E9" stroke="#E8C27F"/>
<rect x="0.495899" y="0.499983" width="6.85713" height="6.85713" rx="3.42856" transform="matrix(1 0 -0.00820296 0.999966 25.8851 23.2139)" fill="#E7F5F6" stroke="#75C3CB"/>
<mask id="path-10-inside-1_256_3547" fill="white">
<path d="M29.8093 23.2134C31.2685 23.2134 32.5344 24.0098 33.2022 25.1909C32.2476 25.9067 31.0638 26.3324 29.7837 26.3324C28.5035 26.3323 27.3267 25.9068 26.3839 25.1909C27.071 24.0098 28.35 23.2135 29.8093 23.2134Z"/>
</mask>
<path d="M29.8093 23.2134C31.2685 23.2134 32.5344 24.0098 33.2022 25.1909C32.2476 25.9067 31.0638 26.3324 29.7837 26.3324C28.5035 26.3323 27.3267 25.9068 26.3839 25.1909C27.071 24.0098 28.35 23.2135 29.8093 23.2134Z" fill="#FBF4E9"/>
<path d="M29.8093 23.2134L29.8175 22.2134L29.8174 22.2134L29.8093 23.2134ZM33.2022 25.1909L33.798 25.9891L34.5061 25.4581L34.0737 24.6933L33.2022 25.1909ZM29.7837 26.3324L29.7754 27.3324H29.7755L29.7837 26.3324ZM26.3839 25.1909L25.5205 24.6934L25.0756 25.458L25.7749 25.989L26.3839 25.1909ZM29.8093 23.2134L29.8011 24.2133C30.8869 24.2133 31.8311 24.8048 32.3307 25.6884L33.2022 25.1909L34.0737 24.6933C33.2378 23.2148 31.6501 22.2134 29.8175 22.2134L29.8093 23.2134ZM33.2022 25.1909L32.6065 24.3926C31.8197 24.9826 30.8464 25.3324 29.7919 25.3324L29.7837 26.3324L29.7755 27.3324C31.2812 27.3324 32.6755 26.8308 33.798 25.9891L33.2022 25.1909ZM29.7837 26.3324L29.7919 25.3324C28.7372 25.3324 27.7698 24.9827 26.9928 24.3927L26.3839 25.1909L25.7749 25.989C26.8837 26.831 28.2698 27.3323 29.7754 27.3324L29.7837 26.3324ZM26.3839 25.1909L27.2472 25.6883C27.7612 24.8048 28.7152 24.2134 29.8011 24.2133L29.8093 23.2134L29.8174 22.2134C27.9849 22.2135 26.3807 23.2147 25.5205 24.6934L26.3839 25.1909Z" fill="#E8C27F" mask="url(#path-10-inside-1_256_3547)"/>
<rect x="0.495899" y="0.499983" width="11.1428" height="11.1428" rx="5.57142" transform="matrix(1 0 -0.00820296 0.999966 23.669 32.1421)" fill="#F4EDF9" stroke="#C296DA"/>
<rect x="0.495899" y="0.499983" width="19" height="19" rx="9.49998" transform="matrix(1 0 -0.00820296 0.999966 19.84 19.9995)" stroke="#ABABAB"/>
</g>
</g>
<g clip-path="url(#clip3_256_3547)">
<rect width="20" height="20" rx="9.99998" transform="matrix(1 0 -0.00820296 0.999966 4.83594 19.9995)" fill="white"/>
<mask id="mask2_256_3547" style="mask-type:alpha" maskUnits="userSpaceOnUse" x="4" y="19" width="21" height="21">
<rect x="0.495899" y="0.499983" width="19" height="19" rx="9.49998" transform="matrix(1 0 -0.00820296 0.999966 4.84004 19.9995)" fill="#CBF7E1" stroke="#1FC47A"/>
</mask>
<g mask="url(#mask2_256_3547)">
<rect x="0.495899" y="0.499983" width="6.85713" height="6.85713" rx="3.42856" transform="matrix(1 0 -0.00820296 0.999966 10.8851 23.2139)" fill="#F4EDF9" stroke="#C296DA"/>
<mask id="path-17-inside-2_256_3547" fill="white">
<path d="M14.8095 23.2134C16.9792 23.2134 18.7238 24.9724 18.706 27.142C18.706 27.1449 18.705 27.1478 18.7049 27.1507C18.197 27.3882 17.6318 27.5228 17.0359 27.5228C14.8663 27.5227 13.1216 25.7638 13.1394 23.5942C13.1394 23.591 13.1394 23.5877 13.1395 23.5845C13.6475 23.3469 14.2134 23.2134 14.8095 23.2134Z"/>
</mask>
<path d="M14.8095 23.2134C16.9792 23.2134 18.7238 24.9724 18.706 27.142C18.706 27.1449 18.705 27.1478 18.7049 27.1507C18.197 27.3882 17.6318 27.5228 17.0359 27.5228C14.8663 27.5227 13.1216 25.7638 13.1394 23.5942C13.1394 23.591 13.1394 23.5877 13.1395 23.5845C13.6475 23.3469 14.2134 23.2134 14.8095 23.2134Z" fill="#FBECEE"/>
<path d="M14.8095 23.2134L14.8177 22.2134H14.8177L14.8095 23.2134ZM18.706 27.142L19.706 27.142L19.706 27.142L18.706 27.142ZM18.7049 27.1507L19.1223 28.056L19.6983 27.7868L19.7049 27.1529L18.7049 27.1507ZM17.0359 27.5228L17.0276 28.5228H17.0277L17.0359 27.5228ZM13.1394 23.5942L12.1394 23.5942L12.1394 23.5942H13.1394ZM13.1395 23.5845L12.722 22.6792L12.1463 22.9484L12.1395 23.582L13.1395 23.5845ZM14.8095 23.2134L14.8013 24.2133C16.4187 24.2134 17.7193 25.5246 17.706 27.142L18.706 27.142L19.706 27.142C19.7283 24.4201 17.5397 22.2134 14.8177 22.2134L14.8095 23.2134ZM18.706 27.142H17.706C17.7062 27.1148 17.7075 27.0908 17.7092 27.0707C17.7108 27.0508 17.7128 27.0338 17.7145 27.0208C17.7162 27.008 17.7178 26.9977 17.7188 26.9917C17.7193 26.9886 17.7197 26.9861 17.72 26.9847C17.7202 26.9834 17.7204 26.9823 17.7203 26.9826C17.7203 26.9826 17.7202 26.983 17.7202 26.9834C17.7201 26.9839 17.72 26.9846 17.7198 26.9855C17.7195 26.9872 17.719 26.99 17.7185 26.9933C17.7174 26.9999 17.7157 27.0108 17.7139 27.0241C17.7121 27.0376 17.71 27.0552 17.7083 27.0757C17.7066 27.0963 17.7053 27.1208 17.705 27.1486L18.7049 27.1507L19.7049 27.1529C19.7046 27.1799 19.7033 27.2037 19.7017 27.2236C19.7 27.2434 19.698 27.2602 19.6963 27.273C19.6946 27.2856 19.693 27.2957 19.6921 27.3016C19.6916 27.3046 19.6912 27.307 19.6909 27.3083C19.6907 27.3095 19.6906 27.3105 19.6906 27.3101C19.6906 27.3101 19.6909 27.3086 19.6912 27.3069C19.6915 27.3051 19.692 27.3023 19.6925 27.2988C19.6936 27.292 19.6954 27.281 19.6972 27.2675C19.699 27.2538 19.7011 27.2361 19.7027 27.2154C19.7044 27.1946 19.7058 27.1698 19.706 27.142H18.706ZM18.7049 27.1507L18.2876 26.2455C17.908 26.4229 17.4876 26.5228 17.0441 26.5228L17.0359 27.5228L17.0277 28.5228C17.7759 28.5228 18.486 28.3534 19.1223 28.056L18.7049 27.1507ZM17.0359 27.5228L17.0441 26.5228C15.4267 26.5228 14.1261 25.2115 14.1394 23.5942H13.1394H12.1394C12.1171 26.3161 14.3058 28.5226 17.0276 28.5228L17.0359 27.5228ZM13.1394 23.5942L14.1394 23.5943C14.1394 23.5922 14.1394 23.5895 14.1394 23.5887C14.1394 23.5881 14.1394 23.5877 14.1394 23.5873C14.1394 23.587 14.1394 23.5869 14.1394 23.587L13.1395 23.5845L12.1395 23.582C12.1395 23.5852 12.1394 23.588 12.1394 23.59C12.1394 23.5925 12.1394 23.593 12.1394 23.5942L13.1394 23.5942ZM13.1395 23.5845L13.5569 24.4897C13.9352 24.3128 14.3561 24.2133 14.8013 24.2133L14.8095 23.2134L14.8177 22.2134C14.0708 22.2134 13.3598 22.381 12.722 22.6792L13.1395 23.5845Z" fill="#E78E9E" mask="url(#path-17-inside-2_256_3547)"/>
<rect x="0.495899" y="0.499983" width="11.1428" height="11.1428" rx="5.57142" transform="matrix(1 0 -0.00820296 0.999966 8.66896 32.1421)" fill="#E7F6EF" stroke="#76CAA5"/>
<rect x="0.495899" y="0.499983" width="19" height="19" rx="9.49998" transform="matrix(1 0 -0.00820296 0.999966 4.84004 19.9995)" stroke="#ABABAB"/>
</g>
</g>
</g>
<defs>
<clipPath id="clip0_256_3547">
<rect width="60" height="60" fill="white"/>
</clipPath>
<clipPath id="clip1_256_3547">
<rect width="20" height="20" fill="white" transform="matrix(1 0 -0.00820296 0.999966 34.8359 19.9995)"/>
</clipPath>
<clipPath id="clip2_256_3547">
<rect width="20" height="20" fill="white" transform="matrix(1 0 -0.00820296 0.999966 19.8359 19.9995)"/>
</clipPath>
<clipPath id="clip3_256_3547">
<rect width="20" height="20" fill="white" transform="matrix(1 0 -0.00820296 0.999966 4.83594 19.9995)"/>
</clipPath>
</defs>
</svg>
