<svg width="60" height="60" viewBox="0 0 60 60" fill="none" xmlns="http://www.w3.org/2000/svg">
<g clip-path="url(#clip0_2786_3375)">
<g clip-path="url(#clip1_2786_3375)">
<rect width="20" height="20" rx="9.99998" transform="matrix(1 0 -0.00820296 0.999966 34.8359 19.999)" fill="white"/>
<mask id="mask0_2786_3375" style="mask-type:alpha" maskUnits="userSpaceOnUse" x="34" y="19" width="21" height="21">
<rect x="0.495899" y="0.499983" width="19" height="19" rx="9.49998" transform="matrix(1 0 -0.00820296 0.999966 34.84 19.999)" fill="#CBF7E1" stroke="#1FC47A"/>
</mask>
<g mask="url(#mask0_2786_3375)">
<rect x="0.495899" y="0.499983" width="6.85713" height="6.85713" rx="3.42856" transform="matrix(1 0 -0.00820296 0.999966 40.8851 23.2129)" fill="#FCEDD4" stroke="#F2BC5E"/>
<rect x="0.495899" y="0.499983" width="11.1428" height="11.1428" rx="5.57142" transform="matrix(1 0 -0.00820296 0.999966 38.669 32.1416)" fill="#E7ECF6" stroke="#7A97CE"/>
<rect x="0.495899" y="0.499983" width="19" height="19" rx="9.49998" transform="matrix(1 0 -0.00820296 0.999966 34.84 19.999)" stroke="#BFBFBF"/>
</g>
</g>
<g clip-path="url(#clip2_2786_3375)">
<rect width="20" height="20" rx="9.99998" transform="matrix(1 0 -0.00820296 0.999966 19.8359 19.999)" fill="white"/>
<mask id="mask1_2786_3375" style="mask-type:alpha" maskUnits="userSpaceOnUse" x="19" y="19" width="21" height="21">
<rect x="0.495899" y="0.499983" width="19" height="19" rx="9.49998" transform="matrix(1 0 -0.00820296 0.999966 19.84 19.999)" fill="#CBF7E1" stroke="#1FC47A"/>
</mask>
<g mask="url(#mask1_2786_3375)">
<rect x="0.495899" y="0.499983" width="4.33333" height="4.33333" rx="2.16667" transform="matrix(1 0 -0.00820296 0.999966 27.1597 21.666)" fill="#FCEDD4" stroke="#F2BC5E"/>
<rect x="0.495899" y="0.499983" width="6.85713" height="6.85713" rx="3.42856" transform="matrix(1 0 -0.00820296 0.999966 25.8851 23.2129)" fill="#E2F6F6" stroke="#10B2B2"/>
<mask id="path-10-inside-1_2786_3375" fill="white">
<path fill-rule="evenodd" clip-rule="evenodd" d="M33.2042 25.1908C32.2494 25.9071 31.0646 26.3319 29.784 26.3319C28.5034 26.3319 27.3255 25.9071 26.3825 25.1907C27.0695 24.009 28.3498 23.2129 29.8095 23.2129C31.2693 23.2129 32.5366 24.0091 33.2042 25.1908Z"/>
</mask>
<path fill-rule="evenodd" clip-rule="evenodd" d="M33.2042 25.1908C32.2494 25.9071 31.0646 26.3319 29.784 26.3319C28.5034 26.3319 27.3255 25.9071 26.3825 25.1907C27.0695 24.009 28.3498 23.2129 29.8095 23.2129C31.2693 23.2129 32.5366 24.0091 33.2042 25.1908Z" fill="#FCEDD4"/>
<path d="M33.2042 25.1908L33.8001 25.9889L34.5077 25.4581L34.0759 24.6936L33.2042 25.1908ZM26.3825 25.1907L25.5189 24.6935L25.0745 25.458L25.7734 25.9888L26.3825 25.1907ZM32.6083 24.3927C31.822 24.9825 30.8479 25.3319 29.7922 25.3319L29.7758 27.3318C31.2812 27.3318 32.6768 26.8317 33.8001 25.9889L32.6083 24.3927ZM29.7922 25.3319C28.7365 25.3319 27.7681 24.9825 26.9915 24.3927L25.7734 25.9888C26.883 26.8316 28.2704 27.3318 29.7758 27.3318L29.7922 25.3319ZM27.246 25.688C27.7596 24.8044 28.7144 24.2129 29.8013 24.2129L29.8177 22.2129C27.9851 22.2129 26.3793 23.2136 25.5189 24.6935L27.246 25.688ZM29.8013 24.2129C30.8882 24.2129 31.8334 24.8045 32.3325 25.688L34.0759 24.6936C33.2398 23.2136 31.6504 22.2129 29.8177 22.2129L29.8013 24.2129Z" fill="#F2BC5E" mask="url(#path-10-inside-1_2786_3375)"/>
<rect x="0.495899" y="0.499983" width="11.1428" height="11.1428" rx="5.57142" transform="matrix(1 0 -0.00820296 0.999966 23.669 32.1416)" fill="#F2EAF7" stroke="#B98BD3"/>
<rect x="0.495899" y="0.499983" width="19" height="19" rx="9.49998" transform="matrix(1 0 -0.00820296 0.999966 19.84 19.999)" stroke="#BFBFBF"/>
</g>
</g>
<g clip-path="url(#clip3_2786_3375)">
<rect width="20" height="20" rx="9.99998" transform="matrix(1 0 -0.00820296 0.999966 4.83594 19.999)" fill="white"/>
<mask id="mask2_2786_3375" style="mask-type:alpha" maskUnits="userSpaceOnUse" x="4" y="19" width="21" height="21">
<rect x="0.495899" y="0.499983" width="19" height="19" rx="9.49998" transform="matrix(1 0 -0.00820296 0.999966 4.84004 19.999)" fill="#CBF7E1" stroke="#1FC47A"/>
</mask>
<g mask="url(#mask2_2786_3375)">
<rect x="0.495899" y="0.499983" width="6.85713" height="6.85713" rx="3.42856" transform="matrix(1 0 -0.00820296 0.999966 10.8851 23.2129)" fill="#F2EAF7" stroke="#B98BD3"/>
<mask id="path-17-inside-2_2786_3375" fill="white">
<path fill-rule="evenodd" clip-rule="evenodd" d="M13.1399 23.5829C13.1398 23.5865 13.1398 23.5902 13.1398 23.5938C13.122 25.7634 14.8664 27.5223 17.0361 27.5223C17.6319 27.5223 18.1978 27.3896 18.7057 27.1523C18.7058 27.1486 18.7058 27.145 18.7058 27.1413C18.7236 24.9717 16.9792 23.2129 14.8095 23.2129C14.2137 23.2129 13.6478 23.3455 13.1399 23.5829Z"/>
</mask>
<path fill-rule="evenodd" clip-rule="evenodd" d="M13.1399 23.5829C13.1398 23.5865 13.1398 23.5902 13.1398 23.5938C13.122 25.7634 14.8664 27.5223 17.0361 27.5223C17.6319 27.5223 18.1978 27.3896 18.7057 27.1523C18.7058 27.1486 18.7058 27.145 18.7058 27.1413C18.7236 24.9717 16.9792 23.2129 14.8095 23.2129C14.2137 23.2129 13.6478 23.3455 13.1399 23.5829Z" fill="#fbeaed"/>
<path d="M13.1399 23.5829L12.7226 22.6776L12.1467 22.9467L12.1399 23.5803L13.1399 23.5829ZM18.7057 27.1523L19.123 28.0576L19.6989 27.7885L19.7057 27.1549L18.7057 27.1523ZM14.1398 23.5938C14.1398 23.5912 14.1398 23.5885 14.1398 23.5855L12.1399 23.5803C12.1398 23.5846 12.1398 23.5891 12.1398 23.5938H14.1398ZM17.0443 26.5223C15.4269 26.5223 14.1265 25.2112 14.1398 23.5938H12.1398C12.1174 26.3157 14.3059 28.5222 17.0279 28.5222L17.0443 26.5223ZM18.2884 26.247C17.9112 26.4233 17.4903 26.5223 17.0443 26.5223L17.0279 28.5222C17.7735 28.5222 18.4845 28.356 19.123 28.0576L18.2884 26.247ZM17.7058 27.1413C17.7058 27.1437 17.7058 27.1463 17.7058 27.1497L19.7057 27.1549C19.7057 27.151 19.7058 27.1463 19.7058 27.1413H17.7058ZM14.8013 24.2129C16.4187 24.2129 17.7191 25.524 17.7058 27.1413H19.7058C19.7282 24.4194 17.5397 22.2129 14.8177 22.2129L14.8013 24.2129ZM13.5572 24.4882C13.9344 24.3119 14.3553 24.2129 14.8013 24.2129L14.8177 22.2129C14.072 22.2129 13.3611 22.3792 12.7226 22.6776L13.5572 24.4882Z" fill="#eb8a9a" mask="url(#path-17-inside-2_2786_3375)"/>
<rect x="0.495899" y="0.499983" width="11.1428" height="11.1428" rx="5.57142" transform="matrix(1 0 -0.00820296 0.999966 8.66896 32.1416)" fill="#e4f8ef" stroke="#6bd8a7"/>
<rect x="0.495899" y="0.499983" width="19" height="19" rx="9.49998" transform="matrix(1 0 -0.00820296 0.999966 4.84004 19.999)" stroke="#BFBFBF"/>
</g>
</g>
</g>
<defs>
<clipPath id="clip0_2786_3375">
<rect width="60" height="60" fill="white"/>
</clipPath>
<clipPath id="clip1_2786_3375">
<rect width="20" height="20" fill="white" transform="matrix(1 0 -0.00820296 0.999966 34.8359 19.999)"/>
</clipPath>
<clipPath id="clip2_2786_3375">
<rect width="20" height="20" fill="white" transform="matrix(1 0 -0.00820296 0.999966 19.8359 19.999)"/>
</clipPath>
<clipPath id="clip3_2786_3375">
<rect width="20" height="20" fill="white" transform="matrix(1 0 -0.00820296 0.999966 4.83594 19.999)"/>
</clipPath>
</defs>
</svg>
