<svg width="60" height="60" viewBox="0 0 60 60" fill="none" xmlns="http://www.w3.org/2000/svg">
<g clip-path="url(#clip0_268_2766)">
<g clip-path="url(#clip1_268_2766)">
<rect width="20" height="20" rx="9.99998" transform="matrix(1 0 -0.00820296 0.999966 34.8359 19.9995)" fill="white"/>
<mask id="mask0_268_2766" style="mask-type:alpha" maskUnits="userSpaceOnUse" x="34" y="19" width="21" height="21">
<rect x="0.495899" y="0.499983" width="19" height="19" rx="9.49998" transform="matrix(1 0 -0.00820296 0.999966 34.84 19.9995)" fill="#CBF7E1" stroke="#1FC47A"/>
</mask>
<g mask="url(#mask0_268_2766)">
<rect x="0.495899" y="0.499983" width="6.85713" height="6.85713" rx="3.42856" transform="matrix(1 0 -0.00820296 0.999966 40.8851 23.2139)" fill="#FBF4E9" stroke="#E8C27F"/>
<rect x="0.495899" y="0.499983" width="11.1428" height="11.1428" rx="5.57142" transform="matrix(1 0 -0.00820296 0.999966 38.669 32.1421)" fill="#ECF1FB" stroke="#8FADEA"/>
<rect x="0.495899" y="0.499983" width="19" height="19" rx="9.49998" transform="matrix(1 0 -0.00820296 0.999966 34.84 19.9995)" stroke="#ABABAB"/>
</g>
</g>
<g clip-path="url(#clip2_268_2766)">
<rect width="20" height="20" rx="9.99998" transform="matrix(1 0 -0.00820296 0.999966 19.8359 19.9995)" fill="white"/>
<mask id="mask1_268_2766" style="mask-type:alpha" maskUnits="userSpaceOnUse" x="19" y="19" width="21" height="21">
<rect x="0.495899" y="0.499983" width="19" height="19" rx="9.49998" transform="matrix(1 0 -0.00820296 0.999966 19.84 19.9995)" fill="#CBF7E1" stroke="#1FC47A"/>
</mask>
<g mask="url(#mask1_268_2766)">
<rect x="0.495899" y="0.499983" width="4.33333" height="4.33333" rx="2.16667" transform="matrix(1 0 -0.00820296 0.999966 27.1597 21.666)" fill="#FBF4E9" stroke="#E8C27F"/>
<rect x="0.495899" y="0.499983" width="6.85713" height="6.85713" rx="3.42856" transform="matrix(1 0 -0.00820296 0.999966 25.8851 23.2139)" fill="#E7F5F6" stroke="#75C3CB"/>
<mask id="path-10-inside-1_268_2766" fill="white">
<path d="M29.8093 23.2134C31.2685 23.2134 32.5344 24.0098 33.2022 25.1909C32.2476 25.9067 31.0638 26.3324 29.7837 26.3324C28.5035 26.3323 27.3267 25.9068 26.3839 25.1909C27.071 24.0098 28.35 23.2135 29.8093 23.2134Z"/>
</mask>
<path d="M29.8093 23.2134C31.2685 23.2134 32.5344 24.0098 33.2022 25.1909C32.2476 25.9067 31.0638 26.3324 29.7837 26.3324C28.5035 26.3323 27.3267 25.9068 26.3839 25.1909C27.071 24.0098 28.35 23.2135 29.8093 23.2134Z" fill="#FBF4E9"/>
<path d="M29.8093 23.2134L29.8175 22.2134H29.8174L29.8093 23.2134ZM33.2022 25.1909L33.798 25.9891L34.5061 25.4581L34.0737 24.6933L33.2022 25.1909ZM29.7837 26.3324L29.7754 27.3324H29.7755L29.7837 26.3324ZM26.3839 25.1909L25.5205 24.6934L25.0756 25.458L25.7749 25.989L26.3839 25.1909ZM29.8093 23.2134L29.8011 24.2133C30.8869 24.2133 31.8311 24.8048 32.3307 25.6884L33.2022 25.1909L34.0737 24.6933C33.2378 23.2148 31.6501 22.2134 29.8175 22.2134L29.8093 23.2134ZM33.2022 25.1909L32.6065 24.3926C31.8197 24.9826 30.8464 25.3324 29.7919 25.3324L29.7837 26.3324L29.7755 27.3324C31.2812 27.3324 32.6755 26.8308 33.798 25.9891L33.2022 25.1909ZM29.7837 26.3324L29.7919 25.3324C28.7372 25.3324 27.7698 24.9827 26.9928 24.3927L26.3839 25.1909L25.7749 25.989C26.8837 26.831 28.2698 27.3323 29.7754 27.3324L29.7837 26.3324ZM26.3839 25.1909L27.2472 25.6883C27.7612 24.8048 28.7152 24.2134 29.8011 24.2133L29.8093 23.2134L29.8174 22.2134C27.9849 22.2135 26.3807 23.2147 25.5205 24.6934L26.3839 25.1909Z" fill="#E8C27F" mask="url(#path-10-inside-1_268_2766)"/>
<rect x="0.495899" y="0.499983" width="11.1428" height="11.1428" rx="5.57142" transform="matrix(1 0 -0.00820296 0.999966 23.669 32.1421)" fill="#F4EDF9" stroke="#C296DA"/>
<rect x="0.495899" y="0.499983" width="19" height="19" rx="9.49998" transform="matrix(1 0 -0.00820296 0.999966 19.84 19.9995)" stroke="#ABABAB"/>
</g>
</g>
<g clip-path="url(#clip3_268_2766)">
<rect width="20" height="20" rx="9.99998" transform="matrix(1 0 -0.00820296 0.999966 4.83594 19.9995)" fill="white"/>
<mask id="mask2_268_2766" style="mask-type:alpha" maskUnits="userSpaceOnUse" x="4" y="19" width="21" height="21">
<rect x="0.495899" y="0.499983" width="19" height="19" rx="9.49998" transform="matrix(1 0 -0.00820296 0.999966 4.84004 19.9995)" fill="#CBF7E1" stroke="#1FC47A"/>
</mask>
<g mask="url(#mask2_268_2766)">
<rect x="0.495899" y="0.499983" width="6.85713" height="6.85713" rx="3.42856" transform="matrix(1 0 -0.00820296 0.999966 10.8851 23.2139)" fill="#F4EDF9" stroke="#C296DA"/>
<mask id="path-17-inside-2_268_2766" fill="white">
<path fill-rule="evenodd" clip-rule="evenodd" d="M13.1399 23.5839C13.1398 23.5875 13.1398 23.5912 13.1398 23.5948C13.122 25.7644 14.8664 27.5232 17.0361 27.5232C17.6319 27.5232 18.1978 27.3906 18.7057 27.1533C18.7058 27.1496 18.7058 27.146 18.7058 27.1423C18.7236 24.9727 16.9792 23.2139 14.8095 23.2139C14.2137 23.2139 13.6478 23.3465 13.1399 23.5839Z"/>
</mask>
<path fill-rule="evenodd" clip-rule="evenodd" d="M13.1399 23.5839C13.1398 23.5875 13.1398 23.5912 13.1398 23.5948C13.122 25.7644 14.8664 27.5232 17.0361 27.5232C17.6319 27.5232 18.1978 27.3906 18.7057 27.1533C18.7058 27.1496 18.7058 27.146 18.7058 27.1423C18.7236 24.9727 16.9792 23.2139 14.8095 23.2139C14.2137 23.2139 13.6478 23.3465 13.1399 23.5839Z" fill="#FBECEE"/>
<path d="M13.1399 23.5839L12.7226 22.6786L12.1468 22.9476L12.1399 23.5811L13.1399 23.5839ZM18.7057 27.1533L19.123 28.0585L19.6988 27.7895L19.7057 27.156L18.7057 27.1533ZM13.1398 23.5948H14.1398C14.1398 23.5921 14.1398 23.5893 14.1398 23.5866L13.1399 23.5839L12.1399 23.5811C12.1398 23.5857 12.1398 23.5902 12.1398 23.5948H13.1398ZM17.0361 27.5232L17.0443 26.5233C15.4269 26.5233 14.1265 25.2122 14.1398 23.5948H13.1398H12.1398C12.1174 26.3167 14.3059 28.5232 17.0279 28.5232L17.0361 27.5232ZM18.7057 27.1533L18.2884 26.248C17.9112 26.4243 17.4903 26.5233 17.0443 26.5233L17.0361 27.5232L17.0279 28.5232C17.7735 28.5232 18.4845 28.357 19.123 28.0585L18.7057 27.1533ZM18.7058 27.1423H17.7058C17.7058 27.1451 17.7058 27.1478 17.7058 27.1505L18.7057 27.1533L19.7057 27.156C19.7058 27.1514 19.7058 27.1468 19.7058 27.1423H18.7058ZM14.8095 23.2139L14.8013 24.2138C16.4187 24.2138 17.7191 25.525 17.7058 27.1423H18.7058H19.7058C19.7282 24.4204 17.5397 22.2139 14.8177 22.2139L14.8095 23.2139ZM13.1399 23.5839L13.5572 24.4891C13.9344 24.3128 14.3553 24.2138 14.8013 24.2138L14.8095 23.2139L14.8177 22.2139C14.0721 22.2139 13.3611 22.3802 12.7226 22.6786L13.1399 23.5839Z" fill="#E78E9E" mask="url(#path-17-inside-2_268_2766)"/>
<rect x="0.495899" y="0.499983" width="11.1428" height="11.1428" rx="5.57142" transform="matrix(1 0 -0.00820296 0.999966 8.66896 32.1421)" fill="#E7F6EF" stroke="#76CAA5"/>
<rect x="0.495899" y="0.499983" width="19" height="19" rx="9.49998" transform="matrix(1 0 -0.00820296 0.999966 4.84004 19.9995)" stroke="#ABABAB"/>
</g>
</g>
<circle cx="12.7833" cy="47.1165" r="9.45" fill="white"/>
<g clip-path="url(#clip4_268_2766)">
<path d="M17.3667 47.1169L15.7 48.7835V47.5335H10.6292C10.4583 48.021 9.99585 48.3669 9.45001 48.3669C9.11849 48.3669 8.80055 48.2352 8.56613 48.0007C8.33171 47.7663 8.20001 47.4484 8.20001 47.1169C8.20001 46.7853 8.33171 46.4674 8.56613 46.233C8.80055 45.9986 9.11849 45.8669 9.45001 45.8669C9.99585 45.8669 10.4583 46.2127 10.6292 46.7002H15.7V45.4502L17.3667 47.1169Z" fill="#8C8C8C"/>
</g>
</g>
<defs>
<clipPath id="clip0_268_2766">
<rect width="60" height="60" fill="white"/>
</clipPath>
<clipPath id="clip1_268_2766">
<rect width="20" height="20" fill="white" transform="matrix(1 0 -0.00820296 0.999966 34.8359 19.9995)"/>
</clipPath>
<clipPath id="clip2_268_2766">
<rect width="20" height="20" fill="white" transform="matrix(1 0 -0.00820296 0.999966 19.8359 19.9995)"/>
</clipPath>
<clipPath id="clip3_268_2766">
<rect width="20" height="20" fill="white" transform="matrix(1 0 -0.00820296 0.999966 4.83594 19.9995)"/>
</clipPath>
<clipPath id="clip4_268_2766">
<rect width="10" height="10" fill="white" transform="translate(7.78333 42.1167)"/>
</clipPath>
</defs>
</svg>
