<svg width="60" height="60" viewBox="0 0 60 60" fill="none" xmlns="http://www.w3.org/2000/svg">
<g clip-path="url(#clip0_268_2750)">
<g clip-path="url(#clip1_268_2750)">
<rect width="20" height="20" rx="9.99998" transform="matrix(1 0 -0.00820296 0.999966 19.8359 19.9995)" fill="white"/>
<mask id="mask0_268_2750" style="mask-type:alpha" maskUnits="userSpaceOnUse" x="19" y="19" width="21" height="21">
<rect x="0.495899" y="0.499983" width="19" height="19" rx="9.49998" transform="matrix(1 0 -0.00820296 0.999966 19.84 19.9995)" fill="#CBF7E1" stroke="#1FC47A"/>
</mask>
<g mask="url(#mask0_268_2750)">
<rect x="0.495899" y="0.499983" width="6.85713" height="6.85713" rx="3.42856" transform="matrix(1 0 -0.00820296 0.999966 25.8851 23.2139)" fill="#F4EDF9" stroke="#C296DA"/>
<mask id="path-4-inside-1_268_2750" fill="white">
<path fill-rule="evenodd" clip-rule="evenodd" d="M28.1399 23.5839C28.1398 23.5875 28.1398 23.5912 28.1398 23.5948C28.122 25.7644 29.8664 27.5232 32.0361 27.5232C32.6319 27.5232 33.1978 27.3906 33.7057 27.1533C33.7058 27.1496 33.7058 27.146 33.7058 27.1423C33.7236 24.9727 31.9792 23.2139 29.8095 23.2139C29.2137 23.2139 28.6478 23.3465 28.1399 23.5839Z"/>
</mask>
<path fill-rule="evenodd" clip-rule="evenodd" d="M28.1399 23.5839C28.1398 23.5875 28.1398 23.5912 28.1398 23.5948C28.122 25.7644 29.8664 27.5232 32.0361 27.5232C32.6319 27.5232 33.1978 27.3906 33.7057 27.1533C33.7058 27.1496 33.7058 27.146 33.7058 27.1423C33.7236 24.9727 31.9792 23.2139 29.8095 23.2139C29.2137 23.2139 28.6478 23.3465 28.1399 23.5839Z" fill="#FBECEE"/>
<path d="M28.1399 23.5839L27.7226 22.6786L27.1468 22.9476L27.1399 23.5811L28.1399 23.5839ZM33.7057 27.1533L34.123 28.0585L34.6988 27.7895L34.7057 27.156L33.7057 27.1533ZM28.1398 23.5948H29.1398C29.1398 23.5921 29.1398 23.5893 29.1398 23.5866L28.1399 23.5839L27.1399 23.5811C27.1398 23.5857 27.1398 23.5902 27.1398 23.5948H28.1398ZM32.0361 27.5232L32.0443 26.5233C30.4269 26.5233 29.1265 25.2122 29.1398 23.5948H28.1398H27.1398C27.1174 26.3167 29.3059 28.5232 32.0279 28.5232L32.0361 27.5232ZM33.7057 27.1533L33.2884 26.248C32.9112 26.4243 32.4903 26.5233 32.0443 26.5233L32.0361 27.5232L32.0279 28.5232C32.7735 28.5232 33.4845 28.357 34.123 28.0585L33.7057 27.1533ZM33.7058 27.1423H32.7058C32.7058 27.1451 32.7058 27.1478 32.7058 27.1505L33.7057 27.1533L34.7057 27.156C34.7058 27.1514 34.7058 27.1468 34.7058 27.1423H33.7058ZM29.8095 23.2139L29.8013 24.2138C31.4187 24.2138 32.7191 25.525 32.7058 27.1423H33.7058H34.7058C34.7282 24.4204 32.5397 22.2139 29.8177 22.2139L29.8095 23.2139ZM28.1399 23.5839L28.5572 24.4891C28.9344 24.3128 29.3553 24.2138 29.8013 24.2138L29.8095 23.2139L29.8177 22.2139C29.0721 22.2139 28.3611 22.3802 27.7226 22.6786L28.1399 23.5839Z" fill="#E78E9E" mask="url(#path-4-inside-1_268_2750)"/>
<rect x="0.495899" y="0.499983" width="11.1428" height="11.1428" rx="5.57142" transform="matrix(1 0 -0.00820296 0.999966 23.669 32.1421)" fill="#E7F6EF" stroke="#76CAA5"/>
<rect x="0.495899" y="0.499983" width="19" height="19" rx="9.49998" transform="matrix(1 0 -0.00820296 0.999966 19.84 19.9995)" stroke="#ABABAB"/>
</g>
</g>
<circle cx="12.7833" cy="47.1165" r="9.45" fill="white"/>
<g clip-path="url(#clip2_268_2750)">
<path d="M17.3667 47.1169L15.7 48.7835V47.5335H10.6292C10.4583 48.021 9.99585 48.3669 9.45001 48.3669C9.11849 48.3669 8.80055 48.2352 8.56613 48.0007C8.33171 47.7663 8.20001 47.4484 8.20001 47.1169C8.20001 46.7853 8.33171 46.4674 8.56613 46.233C8.80055 45.9986 9.11849 45.8669 9.45001 45.8669C9.99585 45.8669 10.4583 46.2127 10.6292 46.7002H15.7V45.4502L17.3667 47.1169Z" fill="#8C8C8C"/>
</g>
</g>
<defs>
<clipPath id="clip0_268_2750">
<rect width="60" height="60" fill="white"/>
</clipPath>
<clipPath id="clip1_268_2750">
<rect width="20" height="20" fill="white" transform="matrix(1 0 -0.00820296 0.999966 19.8359 19.9995)"/>
</clipPath>
<clipPath id="clip2_268_2750">
<rect width="10" height="10" fill="white" transform="translate(7.78333 42.1167)"/>
</clipPath>
</defs>
</svg>
