<svg width="60" height="60" viewBox="0 0 60 60" fill="none" xmlns="http://www.w3.org/2000/svg">
<g clip-path="url(#clip0_2786_3545)">
<g clip-path="url(#clip1_2786_3545)">
<rect width="20" height="20" rx="9.99998" transform="matrix(1 0 -0.00820296 0.999966 19.8359 19.999)" fill="white"/>
<mask id="mask0_2786_3545" style="mask-type:alpha" maskUnits="userSpaceOnUse" x="19" y="19" width="21" height="21">
<rect x="0.495899" y="0.499983" width="19" height="19" rx="9.49998" transform="matrix(1 0 -0.00820296 0.999966 19.84 19.999)" fill="#CBF7E1" stroke="#1FC47A"/>
</mask>
<g mask="url(#mask0_2786_3545)">
<rect x="0.495899" y="0.499983" width="6.85713" height="6.85713" rx="3.42856" transform="matrix(1 0 -0.00820296 0.999966 25.8851 23.2129)" fill="#F2EAF7" stroke="#B98BD3"/>
<mask id="path-4-inside-1_2786_3545" fill="white">
<path fill-rule="evenodd" clip-rule="evenodd" d="M28.1399 23.5829C28.1398 23.5865 28.1398 23.5902 28.1398 23.5938C28.122 25.7634 29.8664 27.5223 32.0361 27.5223C32.6319 27.5223 33.1978 27.3896 33.7057 27.1523C33.7058 27.1486 33.7058 27.145 33.7058 27.1413C33.7236 24.9717 31.9792 23.2129 29.8095 23.2129C29.2137 23.2129 28.6478 23.3455 28.1399 23.5829Z"/>
</mask>
<path fill-rule="evenodd" clip-rule="evenodd" d="M28.1399 23.5829C28.1398 23.5865 28.1398 23.5902 28.1398 23.5938C28.122 25.7634 29.8664 27.5223 32.0361 27.5223C32.6319 27.5223 33.1978 27.3896 33.7057 27.1523C33.7058 27.1486 33.7058 27.145 33.7058 27.1413C33.7236 24.9717 31.9792 23.2129 29.8095 23.2129C29.2137 23.2129 28.6478 23.3455 28.1399 23.5829Z" fill="#fbeaed"/>
<path d="M28.1399 23.5829L27.7226 22.6776L27.1467 22.9467L27.1399 23.5803L28.1399 23.5829ZM33.7057 27.1523L34.123 28.0576L34.6989 27.7885L34.7057 27.1549L33.7057 27.1523ZM29.1398 23.5938C29.1398 23.5912 29.1398 23.5885 29.1398 23.5855L27.1399 23.5803C27.1398 23.5846 27.1398 23.5891 27.1398 23.5938H29.1398ZM32.0443 26.5223C30.4269 26.5223 29.1265 25.2112 29.1398 23.5938H27.1398C27.1174 26.3157 29.3059 28.5222 32.0279 28.5222L32.0443 26.5223ZM33.2884 26.247C32.9112 26.4233 32.4903 26.5223 32.0443 26.5223L32.0279 28.5222C32.7735 28.5222 33.4845 28.356 34.123 28.0576L33.2884 26.247ZM32.7058 27.1413C32.7058 27.1437 32.7058 27.1463 32.7058 27.1497L34.7057 27.1549C34.7057 27.151 34.7058 27.1463 34.7058 27.1413H32.7058ZM29.8013 24.2129C31.4187 24.2129 32.7191 25.524 32.7058 27.1413H34.7058C34.7282 24.4194 32.5397 22.2129 29.8177 22.2129L29.8013 24.2129ZM28.5572 24.4882C28.9344 24.3119 29.3553 24.2129 29.8013 24.2129L29.8177 22.2129C29.072 22.2129 28.3611 22.3792 27.7226 22.6776L28.5572 24.4882Z" fill="#eb8a9a" mask="url(#path-4-inside-1_2786_3545)"/>
<rect x="0.495899" y="0.499983" width="11.1428" height="11.1428" rx="5.57142" transform="matrix(1 0 -0.00820296 0.999966 23.669 32.1416)" fill="#e4f8ef" stroke="#6bd8a7"/>
<rect x="0.495899" y="0.499983" width="19" height="19" rx="9.49998" transform="matrix(1 0 -0.00820296 0.999966 19.84 19.999)" stroke="#BFBFBF"/>
</g>
</g>
</g>
<defs>
<clipPath id="clip0_2786_3545">
<rect width="60" height="60" fill="white"/>
</clipPath>
<clipPath id="clip1_2786_3545">
<rect width="20" height="20" fill="white" transform="matrix(1 0 -0.00820296 0.999966 19.8359 19.999)"/>
</clipPath>
</defs>
</svg>
