<svg width="60" height="60" viewBox="0 0 60 60" fill="none" xmlns="http://www.w3.org/2000/svg">
<g clip-path="url(#clip0_256_3417)">
<g clip-path="url(#clip1_256_3417)">
<rect width="20" height="20" rx="9.99998" transform="matrix(1 0 -0.00820296 0.999966 19.8359 19.9995)" fill="white"/>
<mask id="mask0_256_3417" style="mask-type:alpha" maskUnits="userSpaceOnUse" x="19" y="19" width="21" height="21">
<rect x="0.495899" y="0.499983" width="19" height="19" rx="9.49998" transform="matrix(1 0 -0.00820296 0.999966 19.84 19.9995)" fill="#CBF7E1" stroke="#1FC47A"/>
</mask>
<g mask="url(#mask0_256_3417)">
<rect x="0.495899" y="0.499983" width="6.85713" height="6.85713" rx="3.42856" transform="matrix(1 0 -0.00820296 0.999966 25.8851 23.2139)" fill="#F4EDF9" stroke="#C296DA"/>
<mask id="path-4-inside-1_256_3417" fill="white">
<path d="M29.8095 23.2134C31.9792 23.2134 33.7238 24.9724 33.706 27.142C33.706 27.1449 33.705 27.1478 33.7049 27.1507C33.197 27.3882 32.6318 27.5228 32.0359 27.5228C29.8663 27.5227 28.1216 25.7638 28.1394 23.5942C28.1394 23.591 28.1394 23.5877 28.1395 23.5845C28.6475 23.3469 29.2134 23.2134 29.8095 23.2134Z"/>
</mask>
<path d="M29.8095 23.2134C31.9792 23.2134 33.7238 24.9724 33.706 27.142C33.706 27.1449 33.705 27.1478 33.7049 27.1507C33.197 27.3882 32.6318 27.5228 32.0359 27.5228C29.8663 27.5227 28.1216 25.7638 28.1394 23.5942C28.1394 23.591 28.1394 23.5877 28.1395 23.5845C28.6475 23.3469 29.2134 23.2134 29.8095 23.2134Z" fill="#FBECEE"/>
<path d="M29.8095 23.2134L29.8177 22.2134H29.8177L29.8095 23.2134ZM33.706 27.142L34.706 27.142L34.706 27.142L33.706 27.142ZM33.7049 27.1507L34.1223 28.056L34.6983 27.7868L34.7049 27.1529L33.7049 27.1507ZM32.0359 27.5228L32.0276 28.5228H32.0277L32.0359 27.5228ZM28.1394 23.5942L27.1394 23.5942L27.1394 23.5942H28.1394ZM28.1395 23.5845L27.722 22.6792L27.1463 22.9484L27.1395 23.582L28.1395 23.5845ZM29.8095 23.2134L29.8013 24.2133C31.4187 24.2134 32.7193 25.5246 32.706 27.142L33.706 27.142L34.706 27.142C34.7283 24.4201 32.5397 22.2134 29.8177 22.2134L29.8095 23.2134ZM33.706 27.142H32.706C32.7062 27.1148 32.7075 27.0908 32.7092 27.0707C32.7108 27.0508 32.7128 27.0338 32.7145 27.0208C32.7162 27.008 32.7178 26.9977 32.7188 26.9917C32.7193 26.9886 32.7197 26.9861 32.72 26.9847C32.7202 26.9834 32.7204 26.9823 32.7203 26.9826C32.7203 26.9826 32.7202 26.983 32.7202 26.9834C32.7201 26.9839 32.72 26.9846 32.7198 26.9855C32.7195 26.9872 32.719 26.99 32.7185 26.9933C32.7174 26.9999 32.7157 27.0108 32.7139 27.0241C32.7121 27.0376 32.71 27.0552 32.7083 27.0757C32.7066 27.0963 32.7053 27.1208 32.705 27.1486L33.7049 27.1507L34.7049 27.1529C34.7046 27.1799 34.7033 27.2037 34.7017 27.2236C34.7 27.2434 34.698 27.2602 34.6963 27.273C34.6946 27.2856 34.693 27.2957 34.6921 27.3016C34.6916 27.3046 34.6912 27.307 34.6909 27.3083C34.6907 27.3095 34.6906 27.3105 34.6906 27.3101C34.6906 27.3101 34.6909 27.3086 34.6912 27.3069C34.6915 27.3051 34.692 27.3023 34.6925 27.2988C34.6936 27.292 34.6954 27.281 34.6972 27.2675C34.699 27.2538 34.7011 27.2361 34.7027 27.2154C34.7044 27.1946 34.7058 27.1698 34.706 27.142H33.706ZM33.7049 27.1507L33.2876 26.2455C32.908 26.4229 32.4876 26.5228 32.0441 26.5228L32.0359 27.5228L32.0277 28.5228C32.7759 28.5228 33.486 28.3534 34.1223 28.056L33.7049 27.1507ZM32.0359 27.5228L32.0441 26.5228C30.4267 26.5228 29.1261 25.2115 29.1394 23.5942H28.1394H27.1394C27.1171 26.3161 29.3058 28.5226 32.0276 28.5228L32.0359 27.5228ZM28.1394 23.5942L29.1394 23.5943C29.1394 23.5922 29.1394 23.5895 29.1394 23.5887C29.1394 23.5881 29.1394 23.5877 29.1394 23.5873C29.1394 23.587 29.1394 23.5869 29.1394 23.587L28.1395 23.5845L27.1395 23.582C27.1395 23.5852 27.1394 23.588 27.1394 23.59C27.1394 23.5925 27.1394 23.593 27.1394 23.5942L28.1394 23.5942ZM28.1395 23.5845L28.5569 24.4897C28.9352 24.3128 29.3561 24.2133 29.8013 24.2133L29.8095 23.2134L29.8177 22.2134C29.0708 22.2134 28.3598 22.381 27.722 22.6792L28.1395 23.5845Z" fill="#E78E9E" mask="url(#path-4-inside-1_256_3417)"/>
<rect x="0.495899" y="0.499983" width="11.1428" height="11.1428" rx="5.57142" transform="matrix(1 0 -0.00820296 0.999966 23.669 32.1421)" fill="#E7F6EF" stroke="#76CAA5"/>
<rect x="0.495899" y="0.499983" width="19" height="19" rx="9.49998" transform="matrix(1 0 -0.00820296 0.999966 19.84 19.9995)" stroke="#ABABAB"/>
</g>
</g>
</g>
<defs>
<clipPath id="clip0_256_3417">
<rect width="60" height="60" fill="white"/>
</clipPath>
<clipPath id="clip1_256_3417">
<rect width="20" height="20" fill="white" transform="matrix(1 0 -0.00820296 0.999966 19.8359 19.9995)"/>
</clipPath>
</defs>
</svg>
