<svg width="60" height="60" viewBox="0 0 60 60" fill="none" xmlns="http://www.w3.org/2000/svg">
<g clip-path="url(#clip0_256_2203)">
<circle cx="10" cy="10" r="9.5" transform="matrix(1 0 -0.00820296 0.999966 19.8359 19.9993)" fill="#FBECEE" stroke="#E78E9E"/>
<path d="M28.3067 39.3994L28.2304 39.8945L28.155 40.3896C28.0904 40.3802 28.0246 40.3701 27.959 40.3593L28.0441 39.8662L28.1292 39.372C28.1873 39.3816 28.2468 39.3907 28.3067 39.3994ZM30.376 23.2144C33.9218 23.374 36.6726 25.9832 36.6439 29.4827C36.614 33.107 34.281 36.2022 30.8993 36.2022C30.3089 36.2022 29.7404 36.0497 29.2698 35.8057C29.1289 35.7328 28.9944 35.6481 28.8675 35.5558L28.4616 37.0586L28.4607 37.0577C28.2052 38.0101 27.6767 38.8566 27.2687 39.5107L27.0708 39.8281L26.7122 39.7314C26.4556 39.6628 26.3364 39.6244 26.2145 39.5703C26.1053 39.5218 26.0527 39.49 25.8262 39.4004L25.5605 39.2949L25.5189 39.0117C25.5033 38.9052 25.4709 38.4717 25.4669 37.9668C25.4629 37.4632 25.4866 36.8242 25.6063 36.3292L26.2834 33.55C26.4233 32.9774 26.5572 32.4286 26.6563 32.0236C26.7058 31.8213 26.7471 31.6543 26.7755 31.5383C26.7774 31.5303 26.7787 31.5224 26.7806 31.5149C26.75 31.4342 26.7135 31.3278 26.6777 31.1995C26.5952 30.9038 26.5146 30.4859 26.5187 29.9876C26.5312 28.4615 27.4502 27.0591 28.8513 27.059L29.0582 27.0687C29.5286 27.1158 29.9151 27.3253 30.1852 27.6586C30.483 28.0261 30.6041 28.5002 30.6003 28.9671C30.5961 29.4786 30.4319 30.0804 30.2574 30.6506C30.0741 31.2495 29.8719 31.8345 29.7302 32.4104L29.7312 32.4113C29.5726 33.0583 30.0208 33.6037 30.7156 33.6037C31.4101 33.6035 32.0575 33.2422 32.5524 32.5422C33.051 31.8367 33.3812 30.7979 33.3916 29.5247L33.3893 29.3255C33.3529 28.3419 32.9856 27.5283 32.3971 26.9506C31.7684 26.3335 30.8566 25.9565 29.7441 25.9565C27.197 25.9567 25.7142 27.845 25.698 29.7952C25.6925 30.4591 25.9163 31.1593 26.1911 31.591L26.3118 31.759L26.3117 31.76C26.3911 31.8573 26.4573 31.9742 26.4866 32.1145C26.5157 32.2542 26.5008 32.3805 26.4757 32.4816L26.4748 32.4836L26.1881 33.6173L26.1871 33.6164C26.1508 33.761 26.0538 34.0184 25.7708 34.131C25.5136 34.2333 25.2744 34.1427 25.153 34.0861L25.153 34.0851C24.3916 33.7292 23.8205 33.0197 23.4464 32.2482C23.0695 31.4709 22.8625 30.5723 22.8692 29.7581L22.8786 29.4407C22.9639 27.8567 23.5908 26.3406 24.7377 25.1967C25.9647 23.973 27.7557 23.2066 30.0303 23.2066L30.376 23.2144Z" fill="white" stroke="#E78E9E"/>
</g>
<defs>
<clipPath id="clip0_256_2203">
<rect width="60" height="60" fill="white"/>
</clipPath>
</defs>
</svg>
