<svg width="60" height="60" viewBox="0 0 60 60" fill="none" xmlns="http://www.w3.org/2000/svg">
<g clip-path="url(#clip0_180_2100)">
<mask id="path-1-inside-1_180_2100" fill="white">
<path fill-rule="evenodd" clip-rule="evenodd" d="M29.8359 19.9993C24.3134 19.9993 19.7992 24.4758 19.7539 29.9989C19.7192 34.2355 22.3253 37.8537 26.0334 39.3103C25.9523 38.5195 25.8831 37.3062 26.0919 36.4429C26.28 35.6621 27.3052 31.4722 27.3052 31.4722C27.3052 31.4722 27.0109 30.8731 27.0182 29.9873C27.0296 28.5973 27.8439 27.559 28.8473 27.559C29.6998 27.559 30.107 28.1998 30.1007 28.9673C30.0937 29.8248 29.5373 31.1072 29.2451 32.2964C29.0011 33.2913 29.7294 34.1038 30.7111 34.1038C32.4886 34.1038 33.8698 32.2297 33.892 29.5248C33.9116 27.1307 32.2053 25.4566 29.7487 25.4566C26.9037 25.4566 25.2162 27.5907 25.1981 29.7956C25.191 30.6547 25.5143 31.5772 25.9235 32.0772C26.0044 32.1764 26.0153 32.2639 25.9903 32.3647L25.7035 33.498C25.6579 33.6813 25.5567 33.7205 25.3674 33.6321C24.123 33.0505 23.3572 31.2247 23.3692 29.7581C23.3951 26.604 25.7105 23.7066 30.0264 23.7066C33.4955 23.7066 36.1711 26.1791 36.144 29.4823C36.1157 32.9288 33.9205 35.7021 30.9038 35.7021C29.8905 35.7021 28.9423 35.1763 28.6215 34.5538L27.9787 36.9312C27.7457 37.8003 27.1276 38.8895 26.7139 39.5528C27.6482 39.8419 28.641 39.9986 29.6719 39.9986C35.1944 39.9986 39.7086 35.5212 39.7539 29.9989C39.7992 24.4758 35.3584 19.9993 29.8359 19.9993Z"/>
</mask>
<path fill-rule="evenodd" clip-rule="evenodd" d="M29.8359 19.9993C24.3134 19.9993 19.7992 24.4758 19.7539 29.9989C19.7192 34.2355 22.3253 37.8537 26.0334 39.3103C25.9523 38.5195 25.8831 37.3062 26.0919 36.4429C26.28 35.6621 27.3052 31.4722 27.3052 31.4722C27.3052 31.4722 27.0109 30.8731 27.0182 29.9873C27.0296 28.5973 27.8439 27.559 28.8473 27.559C29.6998 27.559 30.107 28.1998 30.1007 28.9673C30.0937 29.8248 29.5373 31.1072 29.2451 32.2964C29.0011 33.2913 29.7294 34.1038 30.7111 34.1038C32.4886 34.1038 33.8698 32.2297 33.892 29.5248C33.9116 27.1307 32.2053 25.4566 29.7487 25.4566C26.9037 25.4566 25.2162 27.5907 25.1981 29.7956C25.191 30.6547 25.5143 31.5772 25.9235 32.0772C26.0044 32.1764 26.0153 32.2639 25.9903 32.3647L25.7035 33.498C25.6579 33.6813 25.5567 33.7205 25.3674 33.6321C24.123 33.0505 23.3572 31.2247 23.3692 29.7581C23.3951 26.604 25.7105 23.7066 30.0264 23.7066C33.4955 23.7066 36.1711 26.1791 36.144 29.4823C36.1157 32.9288 33.9205 35.7021 30.9038 35.7021C29.8905 35.7021 28.9423 35.1763 28.6215 34.5538L27.9787 36.9312C27.7457 37.8003 27.1276 38.8895 26.7139 39.5528C27.6482 39.8419 28.641 39.9986 29.6719 39.9986C35.1944 39.9986 39.7086 35.5212 39.7539 29.9989C39.7992 24.4758 35.3584 19.9993 29.8359 19.9993Z" fill="#F4C2CB" stroke="#EB8A9A" stroke-width="2" mask="url(#path-1-inside-1_180_2100)"/>
</g>
<defs>
<clipPath id="clip0_180_2100">
<rect width="60" height="60" fill="white"/>
</clipPath>
</defs>
</svg>
