<svg width="60" height="60" viewBox="0 0 60 60" fill="none" xmlns="http://www.w3.org/2000/svg">
<g clip-path="url(#clip0_256_2850)">
<path d="M19.756 29.8407C19.6399 35.5477 24.1451 39.9887 29.6761 39.9986C35.2074 39.9689 39.597 35.5873 39.7498 30.2265C39.9157 24.47 35.3714 19.9796 29.8303 19.9993C24.1903 20.0092 19.8691 24.4997 19.756 29.8407Z" fill="white"/>
<path d="M29.827 20.4993H29.8279C35.0918 20.4805 39.4077 24.7441 39.2502 30.2157L39.2502 30.2167C39.1049 35.3065 34.9376 39.4687 29.6789 39.4976C24.4225 39.4871 20.1462 35.2705 20.2561 29.8476C20.3636 24.7727 24.4673 20.5087 29.827 20.4993ZM32.0384 29.4794C31.8655 29.4794 31.6134 29.5107 31.4165 29.706C31.2198 29.9011 31.1863 30.1522 31.1848 30.3251L31.1352 36.3786C31.1336 36.5654 31.1739 36.8035 31.3567 36.9919C31.5349 37.1754 31.7651 37.2244 31.9455 37.2331L31.9455 37.234C32.1305 37.2449 32.3522 37.235 32.4787 37.235C32.6415 37.235 32.957 37.2311 33.1857 37.0046C33.4144 36.7778 33.4206 36.4624 33.4219 36.2995L33.4709 30.3349C33.4723 30.1614 33.4449 29.9083 33.2533 29.7109C33.059 29.5106 32.8049 29.4795 32.6322 29.4794H32.0384ZM34.5911 29.4892C34.4311 29.4892 34.1706 29.5124 33.9701 29.7157C33.7766 29.9121 33.7495 30.1645 33.7473 30.3261C33.7331 30.8459 33.7289 31.3751 33.7247 31.8983L33.7118 33.4705C33.7103 33.6442 33.7404 33.895 33.9313 34.0916C34.1243 34.2901 34.3771 34.3269 34.5612 34.3269H35.1452C35.3297 34.3269 35.577 34.2877 35.7711 34.0955C35.9653 33.9029 36.0061 33.6552 36.0077 33.4705L36.0335 30.3153C36.0351 30.1275 35.9896 29.8967 35.807 29.7167C35.6306 29.543 35.407 29.4969 35.2366 29.4892H34.5911ZM29.4244 22.5461L29.4244 22.547C29.2433 22.5515 29.0716 22.6185 28.9394 22.7453C28.8088 22.8706 28.7422 23.0277 28.7171 23.171L28.7151 23.1828C28.6986 23.2918 28.6986 23.4061 28.6981 23.4679L28.6234 32.5701C28.623 32.6196 28.6207 32.7328 28.6378 32.8406L28.6388 32.8397C28.6607 32.9938 28.7238 33.1598 28.8597 33.2928C28.9664 33.3972 29.0932 33.4576 29.2214 33.4861L29.3501 33.5047L29.3628 33.5056C29.6234 33.5161 29.8941 33.5161 30.1548 33.5056L30.1539 33.5037C30.3268 33.4997 30.5072 33.4415 30.6516 33.3064C30.7913 33.1757 30.861 33.0062 30.881 32.8377L30.883 32.8387C30.8935 32.7688 30.9088 32.6586 30.9097 32.5506L30.984 23.5011C30.9849 23.3876 30.9723 23.2706 30.9631 23.1915L30.9622 23.1847L30.9612 23.1769C30.9399 23.031 30.8777 22.8696 30.7461 22.7414C30.6134 22.6123 30.4434 22.551 30.2721 22.547L30.2731 22.5461C29.9937 22.5357 29.704 22.5357 29.4244 22.5461ZM21.8372 29.4892C21.6628 29.4892 21.4165 29.5235 21.224 29.7187C21.0852 29.8594 21.0297 30.0287 21.0074 30.1718L20.9936 30.3046C20.9817 30.5066 20.99 30.7402 20.9888 30.8895L20.9842 31.4432C20.9828 31.6192 21.0183 31.8512 21.1923 32.0389C21.3682 32.2287 21.5994 32.2798 21.781 32.2879L21.781 32.2889C22.0136 32.2995 22.2465 32.2995 22.4793 32.2889H22.4802C22.639 32.2813 22.8606 32.2403 23.0387 32.0682C23.2202 31.8926 23.2657 31.6691 23.269 31.494L23.27 31.495C23.2834 31.091 23.2867 30.687 23.2799 30.2831H23.2789C23.2782 30.096 23.2275 29.8702 23.0396 29.6982C22.8615 29.5352 22.6419 29.4964 22.4827 29.4892H21.8372ZM24.3366 27.4219L24.3356 27.4228C24.1798 27.4296 23.9224 27.4661 23.7387 27.6894C23.5748 27.8887 23.5642 28.1299 23.5631 28.2578L23.5371 31.4335C23.5358 31.5963 23.5568 31.8562 23.7566 32.0575C23.9512 32.2536 24.2072 32.2829 24.3679 32.2889H24.8914C25.0615 32.2889 25.3649 32.2777 25.5886 32.0516C25.8091 31.8288 25.8224 31.5273 25.8238 31.3544L25.8482 28.3867C25.8487 28.3256 25.8508 28.2095 25.8359 28.0986L25.8331 28.0771L25.8284 28.0566C25.8064 27.9578 25.7608 27.8071 25.645 27.6748C25.5141 27.5251 25.3354 27.4455 25.1421 27.4326H25.1285C24.8842 27.4228 24.607 27.4111 24.3366 27.4219ZM37.0941 29.4794C36.9314 29.4794 36.7027 29.5151 36.521 29.6952C36.3566 29.8585 36.3121 30.061 36.3039 30.2187C36.2791 30.4577 36.2871 30.7126 36.2858 30.8788L36.2811 31.4432C36.2798 31.6045 36.3042 31.8537 36.4939 32.0496C36.6771 32.2386 36.915 32.2741 37.0858 32.2772L37.0858 32.2791C37.2978 32.2897 37.5322 32.2791 37.6942 32.2791C37.8811 32.2791 38.1269 32.2411 38.323 32.0545C38.5195 31.8676 38.5682 31.6252 38.577 31.4432L38.5771 31.4364C38.5902 31.0559 38.5931 30.6756 38.5865 30.286H38.5875C38.5892 30.0736 38.5146 29.8594 38.3491 29.7001C38.1863 29.5435 37.9761 29.4794 37.7767 29.4794H37.0941ZM26.9864 24.8702C26.8426 24.8709 26.5617 24.8838 26.3566 25.0968C26.2452 25.2126 26.197 25.3457 26.174 25.4503C26.1527 25.5472 26.1473 25.6456 26.1464 25.7286C26.1311 26.3759 26.126 27.023 26.1208 27.6553L26.1047 29.6132C26.1034 29.7774 26.1378 29.9894 26.2877 30.1659C26.4436 30.3495 26.6557 30.4135 26.8452 30.4179L26.8452 30.4198C27.1041 30.4302 27.3888 30.4198 27.6079 30.4198C27.744 30.4198 27.9161 30.3885 28.071 30.2743C28.2211 30.1635 28.3063 30.0071 28.3421 29.8427L28.345 29.8437C28.3493 29.827 28.3515 29.8096 28.3552 29.7929L28.3542 29.7919C28.3771 29.6887 28.3911 29.585 28.392 29.4745L28.422 25.8155C28.4224 25.7666 28.4241 25.6556 28.4076 25.5489H28.4086C28.3893 25.4203 28.3416 25.2144 28.1665 25.0577C27.9928 24.9024 27.7845 24.8778 27.6593 24.8712L27.6573 24.8702L27.3214 24.8624L26.9864 24.8702Z" fill="#FBECEE" stroke="#E78E9E"/>
<path d="M29.827 20.4993H29.8279C35.0918 20.4805 39.4077 24.7441 39.2502 30.2157L39.2502 30.2167C39.1049 35.3065 34.9376 39.4687 29.6789 39.4976C24.4225 39.4871 20.1462 35.2705 20.2561 29.8476C20.3636 24.7727 24.4673 20.5087 29.827 20.4993Z" stroke="#E78E9E"/>
</g>
<defs>
<clipPath id="clip0_256_2850">
<rect width="60" height="60" fill="white"/>
</clipPath>
</defs>
</svg>
