<svg width="60" height="60" viewBox="0 0 60 60" fill="none" xmlns="http://www.w3.org/2000/svg">
<g clip-path="url(#clip0_256_3631)">
<rect width="20" height="20" transform="matrix(1 0 -0.00820296 0.999966 19.8359 19.9995)" fill="white"/>
<path fill-rule="evenodd" clip-rule="evenodd" d="M27.7949 24.999H24.7949L24.7703 27.9989H27.7703L27.7949 24.999ZM23.8031 23.999L23.7621 28.9989H28.7621L28.8031 23.999H23.8031Z" fill="#ABABAB"/>
<path fill-rule="evenodd" clip-rule="evenodd" d="M38.9194 20.9086H34.8285L34.8359 19.9995H39.8359L39.7949 24.9993H38.8858L38.9194 20.9086Z" fill="#ABABAB"/>
<path fill-rule="evenodd" clip-rule="evenodd" d="M20.7376 20.9086H24.8285L24.8359 19.9995H19.8359L19.7949 24.9993H20.704L20.7376 20.9086Z" fill="#ABABAB"/>
<path fill-rule="evenodd" clip-rule="evenodd" d="M38.7702 39.0898L38.8038 34.999L39.7129 34.999L39.6719 39.9989L34.6719 39.9989L34.6793 39.0898L38.7702 39.0898Z" fill="#ABABAB"/>
<path fill-rule="evenodd" clip-rule="evenodd" d="M20.5884 39.0898L20.622 34.999L19.7129 34.999L19.6719 39.9989L24.6719 39.9989L24.6793 39.0898L20.5884 39.0898Z" fill="#ABABAB"/>
<path fill-rule="evenodd" clip-rule="evenodd" d="M27.7375 31.999H24.7375L24.7129 34.9989H27.7129L27.7375 31.999ZM23.7457 30.999L23.7047 35.9989H28.7047L28.7457 30.999H23.7457Z" fill="#ABABAB"/>
<path fill-rule="evenodd" clip-rule="evenodd" d="M34.7949 24.999H31.7949L31.7703 27.9989H34.7703L34.7949 24.999ZM30.8031 23.999L30.7621 28.9989H35.7621L35.8031 23.999H30.8031Z" fill="#ABABAB"/>
<path d="M30.7457 30.999H31.7457L31.7375 31.999H30.7375L30.7457 30.999Z" fill="#ABABAB"/>
<path d="M31.7375 31.999H32.7375L32.7293 32.999H31.7293L31.7375 31.999Z" fill="#ABABAB"/>
<path d="M31.7293 32.999H32.7293L32.7211 33.999H31.7211L31.7293 32.999Z" fill="#ABABAB"/>
<path d="M31.7211 33.999H32.7211L32.7129 34.999H31.7129L31.7211 33.999Z" fill="#ABABAB"/>
<path d="M30.7129 34.999H31.7129L31.7047 35.999H30.7047L30.7129 34.999Z" fill="#ABABAB"/>
<path d="M32.7375 31.999H33.7375L33.7293 32.999H32.7293L32.7375 31.999Z" fill="#ABABAB"/>
<path d="M33.7375 31.999H34.7375L34.7293 32.999H33.7293L33.7375 31.999Z" fill="#ABABAB"/>
<path d="M33.7293 32.999H34.7293L34.7211 33.999H33.7211L33.7293 32.999Z" fill="#ABABAB"/>
<path d="M34.7457 30.999H35.7457L35.7375 31.999H34.7375L34.7457 30.999Z" fill="#ABABAB"/>
<path d="M34.3796 34.999H35.3796L35.3714 35.999H34.3714L34.3796 34.999Z" fill="#ABABAB"/>
</g>
<defs>
<clipPath id="clip0_256_3631">
<rect width="60" height="60" fill="white"/>
</clipPath>
</defs>
</svg>
