<svg width="60" height="60" viewBox="0 0 60 60" fill="none" xmlns="http://www.w3.org/2000/svg">
<g clip-path="url(#clip0_256_2455)">
<mask id="path-1-outside-1_256_2455" maskUnits="userSpaceOnUse" x="13.5844" y="16.6664" width="32.2789" height="33.9989" fill="black">
<rect fill="white" x="13.5844" y="16.6664" width="32.2789" height="33.9989"/>
<path d="M19.609 47.6654L19.65 42.6655H16.65C15.5456 42.6655 14.6576 41.77 14.6664 40.6656L14.8387 19.6663C14.8478 18.5618 15.7505 17.6664 16.8551 17.6664H42.8551C43.9597 17.6664 44.8478 18.5618 44.8387 19.6663L44.6664 40.6656C44.6572 41.77 43.7545 42.6655 42.65 42.6655H24.65L19.609 47.6654Z"/>
</mask>
<path d="M19.609 47.6654L19.65 42.6655H16.65C15.5456 42.6655 14.6576 41.77 14.6664 40.6656L14.8387 19.6663C14.8478 18.5618 15.7505 17.6664 16.8551 17.6664H42.8551C43.9597 17.6664 44.8478 18.5618 44.8387 19.6663L44.6664 40.6656C44.6572 41.77 43.7545 42.6655 42.65 42.6655H24.65L19.609 47.6654Z" fill="#F4EDF9"/>
<path d="M19.609 47.6654H18.609L18.5892 50.0795L20.3103 48.3725L19.609 47.6654ZM19.65 42.6655H20.65L20.6582 41.6656H19.6582L19.65 42.6655ZM14.6664 40.6656L13.6664 40.6656L13.6664 40.6658L14.6664 40.6656ZM16.8551 17.6664L16.8633 16.6664H16.8633L16.8551 17.6664ZM44.6664 40.6656L45.6664 40.6658L45.6664 40.6656H44.6664ZM42.65 42.6655L42.6418 43.6655H42.6418L42.65 42.6655ZM24.65 42.6655L24.6582 41.6656H24.244L23.9487 41.9585L24.65 42.6655ZM19.609 47.6654H20.609L20.65 42.6655H19.65H18.65L18.609 47.6654H19.609ZM19.65 42.6655L19.6582 41.6656H16.6582L16.65 42.6655L16.6418 43.6655H19.6418L19.65 42.6655ZM16.65 42.6655L16.6582 41.6656C16.1062 41.6656 15.662 41.2178 15.6664 40.6654L14.6664 40.6656L13.6664 40.6658C13.6531 42.3221 14.9849 43.6655 16.6418 43.6655L16.65 42.6655ZM14.6664 40.6656H15.6664L15.8387 19.6663H14.8387H13.8387L13.6664 40.6656H14.6664ZM14.8387 19.6663H15.8387C15.8432 19.114 16.2946 18.6663 16.8469 18.6663L16.8551 17.6664L16.8633 16.6664C15.2065 16.6664 13.8523 18.0095 13.8387 19.6663H14.8387ZM16.8551 17.6664L16.8469 18.6663H42.8469L42.8551 17.6664L42.8633 16.6664H16.8633L16.8551 17.6664ZM42.8551 17.6664L42.8469 18.6663C43.3992 18.6663 43.8432 19.114 43.8387 19.6663H44.8387H45.8387C45.8523 18.0095 44.5202 16.6664 42.8633 16.6664L42.8551 17.6664ZM44.8387 19.6663H43.8387L43.6664 40.6656H44.6664H45.6664L45.8387 19.6663H44.8387ZM44.6664 40.6656L43.6664 40.6654C43.6618 41.2178 43.2102 41.6656 42.6582 41.6656L42.65 42.6655L42.6418 43.6655C44.2987 43.6655 45.6526 42.3221 45.6664 40.6658L44.6664 40.6656ZM42.65 42.6655L42.6582 41.6656H24.6582L24.65 42.6655L24.6418 43.6655H42.6418L42.65 42.6655ZM24.65 42.6655L23.9487 41.9585L18.9077 46.9583L19.609 47.6654L20.3103 48.3725L25.3513 43.3726L24.65 42.6655Z" fill="#C296DA" mask="url(#path-1-outside-1_256_2455)"/>
<path d="M30.5001 32.9989H28.271L28.2754 32.4572C28.2857 31.2073 28.5398 30.7073 29.987 29.5198C31.5183 28.249 31.9199 27.5407 31.9269 26.6866C31.9375 25.395 31.1301 24.77 29.7968 24.77C28.401 24.77 27.5393 25.6866 27.527 27.1866C27.5253 27.3949 27.5434 27.7282 27.5833 27.9366L25.1072 27.5616L25.1096 27.2699C25.1334 24.3742 26.9599 22.6659 30.0641 22.6659C32.7932 22.6659 34.5108 24.0825 34.4918 26.3949C34.4807 27.7491 33.9947 28.5824 31.7701 30.5615C30.5529 31.6448 30.5097 31.8323 30.5001 32.9989ZM30.5908 34.6447L30.566 37.6654H28.1285L28.1533 34.6447H30.5908Z" fill="white"/>
<path fill-rule="evenodd" clip-rule="evenodd" d="M31.4948 33.6447H31.599L31.5578 38.6654H27.1203L27.1615 33.6447H27.2656L27.2754 32.4573C27.281 31.7671 27.3529 31.1252 27.7252 30.4741C28.0707 29.87 28.6262 29.3482 29.3542 28.7507C30.0947 28.136 30.486 27.7174 30.6957 27.4003C30.8791 27.123 30.925 26.9229 30.9269 26.6866C30.9304 26.2603 30.8065 26.0878 30.7079 26.0024C30.5839 25.8951 30.3159 25.77 29.7886 25.77C29.3174 25.77 29.0375 25.9182 28.8693 26.0973C28.6929 26.2851 28.5316 26.6225 28.527 27.1866C28.5255 27.3617 28.5428 27.6223 28.5655 27.7405L28.8336 29.1385L24.1002 28.4217L24.1096 27.2699C24.1232 25.6084 24.6609 24.1698 25.7535 23.1527C26.8374 22.1437 28.3424 21.666 30.0722 21.666C31.5999 21.666 32.9603 22.0623 33.9542 22.8945C34.9692 23.7444 35.5035 24.9688 35.4918 26.395C35.4849 27.2282 35.3217 27.9679 34.8014 28.7789C34.3194 29.5302 33.5492 30.3117 32.4315 31.306M31.4948 33.6447L31.5001 32.9989C31.5052 32.374 31.5333 32.2755 31.5759 32.1904C31.6383 32.0657 31.7952 31.8724 32.4315 31.306M27.5387 26.9172C27.647 25.5776 28.4866 24.77 29.7968 24.77C31.1301 24.77 31.9375 25.395 31.9269 26.6866C31.9199 27.5408 31.5182 28.2491 29.987 29.5199C28.7304 30.5509 28.3733 31.0636 28.2943 31.9989C28.2823 32.1409 28.2767 32.2926 28.2754 32.4573L28.2709 32.9989H30.5001C30.5097 31.8323 30.5529 31.6448 31.7701 30.5615C33.9947 28.5824 34.4807 27.7491 34.4918 26.395C34.5108 24.0825 32.7932 22.6659 30.064 22.6659C26.9599 22.6659 25.1334 24.3742 25.1096 27.2699L25.1072 27.5616L27.5833 27.9366C27.5433 27.7283 27.5252 27.3949 27.527 27.1866C27.5277 27.0946 27.5317 27.0048 27.5387 26.9172ZM30.5908 34.6447H28.1533L28.1285 37.6654H30.566L30.5908 34.6447Z" fill="#C296DA"/>
</g>
<defs>
<clipPath id="clip0_256_2455">
<rect width="60" height="60" fill="white"/>
</clipPath>
</defs>
</svg>
