<svg width="60" height="60" viewBox="0 0 60 60" fill="none" xmlns="http://www.w3.org/2000/svg">
<g clip-path="url(#clip0_195_3062)">
<mask id="path-1-outside-1_195_3062" maskUnits="userSpaceOnUse" x="13.5844" y="16.6661" width="32.2789" height="33.9989" fill="black">
<rect fill="white" x="13.5844" y="16.6661" width="32.2789" height="33.9989"/>
<path fill-rule="evenodd" clip-rule="evenodd" d="M16.8551 17.6661C15.7505 17.6661 14.8478 18.5615 14.8387 19.666L14.6664 40.6653C14.6574 41.7698 15.5455 42.6652 16.65 42.6652H42.65C43.7546 42.6652 44.6574 41.7698 44.6664 40.6653L44.8387 19.666C44.8478 18.5615 43.9597 17.6661 42.8551 17.6661H16.8551ZM19.65 42.6652L19.609 47.6651L24.65 42.6652H19.65Z"/>
</mask>
<path fill-rule="evenodd" clip-rule="evenodd" d="M16.8551 17.6661C15.7505 17.6661 14.8478 18.5615 14.8387 19.666L14.6664 40.6653C14.6574 41.7698 15.5455 42.6652 16.65 42.6652H42.65C43.7546 42.6652 44.6574 41.7698 44.6664 40.6653L44.8387 19.666C44.8478 18.5615 43.9597 17.6661 42.8551 17.6661H16.8551ZM19.65 42.6652L19.609 47.6651L24.65 42.6652H19.65Z" fill="#F2EAF7"/>
<path d="M19.609 47.6651H18.609L18.5892 50.0792L20.3103 48.3722L19.609 47.6651ZM19.65 42.6652L19.6582 41.6653H18.6582L18.65 42.6652H19.65ZM24.65 42.6652L25.3513 43.3723L27.0724 41.6653H24.6582L24.65 42.6652ZM15.8387 19.666C15.8432 19.1137 16.2946 18.666 16.8469 18.666L16.8633 16.6661C15.2065 16.6661 13.8523 18.0092 13.8387 19.666H15.8387ZM15.6664 40.6653L15.8387 19.666H13.8387L13.6664 40.6653H15.6664ZM16.6582 41.6653C16.1059 41.6653 15.6619 41.2176 15.6664 40.6653H13.6664C13.6528 42.3221 14.985 43.6652 16.6418 43.6652L16.6582 41.6653ZM42.6582 41.6653H16.6582L16.6418 43.6652H42.6418L42.6582 41.6653ZM43.6664 40.6653C43.6619 41.2176 43.2105 41.6653 42.6582 41.6653L42.6418 43.6652C44.2987 43.6652 45.6528 42.3221 45.6664 40.6653H43.6664ZM43.8387 19.666L43.6664 40.6653H45.6664L45.8387 19.666H43.8387ZM42.8469 18.666C43.3992 18.666 43.8432 19.1137 43.8387 19.666H45.8387C45.8523 18.0092 44.5202 16.6661 42.8633 16.6661L42.8469 18.666ZM16.8469 18.666H42.8469L42.8633 16.6661H16.8633L16.8469 18.666ZM20.609 47.6651L20.65 42.6652H18.65L18.609 47.6651H20.609ZM23.9487 41.9582L18.9077 46.958L20.3103 48.3722L25.3513 43.3723L23.9487 41.9582ZM19.6418 43.6652H24.6418L24.6582 41.6653H19.6582L19.6418 43.6652Z" fill="#B98BD3" mask="url(#path-1-outside-1_195_3062)"/>
<path d="M30.5001 32.9989H28.271L28.2754 32.4572C28.2857 31.2073 28.5398 30.7073 29.987 29.5198C31.5183 28.249 31.9199 27.5407 31.9269 26.6866C31.9375 25.395 31.1301 24.77 29.7968 24.77C28.401 24.77 27.5393 25.6866 27.527 27.1866C27.5253 27.3949 27.5434 27.7282 27.5833 27.9366L25.1072 27.5616L25.1096 27.2699C25.1334 24.3742 26.9599 22.6659 30.0641 22.6659C32.7932 22.6659 34.5108 24.0825 34.4918 26.3949C34.4807 27.7491 33.9947 28.5824 31.7701 30.5615C30.5529 31.6448 30.5097 31.8323 30.5001 32.9989ZM30.5908 34.6447L30.566 37.6654H28.1285L28.1533 34.6447H30.5908Z" fill="white"/>
<path fill-rule="evenodd" clip-rule="evenodd" d="M31.4948 33.6447H31.599L31.5578 38.6654H27.1203L27.1615 33.6447H27.2656L27.2754 32.4573C27.281 31.7671 27.3529 31.1252 27.7252 30.4741C28.0707 29.87 28.6262 29.3482 29.3542 28.7507C30.0947 28.136 30.486 27.7174 30.6957 27.4003C30.8791 27.123 30.925 26.9229 30.9269 26.6866C30.9304 26.2603 30.8065 26.0878 30.7079 26.0024C30.5839 25.8951 30.3159 25.77 29.7886 25.77C29.3174 25.77 29.0375 25.9182 28.8693 26.0973C28.6929 26.2851 28.5316 26.6225 28.527 27.1866C28.5255 27.3617 28.5428 27.6223 28.5655 27.7405L28.8336 29.1385L24.1002 28.4217L24.1096 27.2699C24.1232 25.6084 24.6609 24.1698 25.7535 23.1527C26.8374 22.1437 28.3424 21.666 30.0722 21.666C31.5999 21.666 32.9603 22.0623 33.9542 22.8945C34.9692 23.7444 35.5035 24.9688 35.4918 26.395C35.4849 27.2282 35.3217 27.9679 34.8014 28.7789C34.3194 29.5302 33.5492 30.3117 32.4315 31.306M31.4948 33.6447L31.5001 32.9989C31.5052 32.374 31.5333 32.2755 31.5759 32.1904C31.6383 32.0657 31.7952 31.8724 32.4315 31.306M27.5387 26.9172C27.647 25.5776 28.4866 24.77 29.7968 24.77C31.1301 24.77 31.9375 25.395 31.9269 26.6866C31.9199 27.5408 31.5182 28.2491 29.987 29.5199C28.7304 30.5509 28.3733 31.0636 28.2943 31.9989C28.2823 32.1409 28.2767 32.2926 28.2754 32.4573L28.2709 32.9989H30.5001C30.5097 31.8323 30.5529 31.6448 31.7701 30.5615C33.9947 28.5824 34.4807 27.7491 34.4918 26.395C34.5108 24.0825 32.7932 22.6659 30.064 22.6659C26.9599 22.6659 25.1334 24.3742 25.1096 27.2699L25.1072 27.5616L27.5833 27.9366C27.5433 27.7283 27.5252 27.3949 27.527 27.1866C27.5277 27.0946 27.5317 27.0048 27.5387 26.9172ZM30.5908 34.6447H28.1533L28.1285 37.6654H30.566L30.5908 34.6447Z" fill="#B98BD3"/>
</g>
<defs>
<clipPath id="clip0_195_3062">
<rect width="60" height="60" fill="white"/>
</clipPath>
</defs>
</svg>
