<svg width="60" height="60" viewBox="0 0 60 60" fill="none" xmlns="http://www.w3.org/2000/svg">
<g clip-path="url(#clip0_256_3288)">
<path d="M29.84 19.4993C35.6388 19.4993 40.3015 24.2003 40.2539 29.9989C40.2063 35.7975 35.4666 40.4986 29.6678 40.4986H21.116C20.1366 40.4984 19.6551 39.314 20.3541 38.6207L21.9255 37.0612C20.2454 35.197 19.2316 32.7183 19.2539 29.9989C19.3015 24.2003 24.0412 19.4993 29.84 19.4993Z" fill="#FBF4E9" stroke="#E8C27F"/>
<path d="M33.4746 22.1648C34.6709 22.1649 35.6325 23.1346 35.6229 24.3308C35.6131 25.5271 34.6354 26.4976 33.4391 26.4977C32.5973 26.4977 31.8731 26.0173 31.5201 25.317C31.1349 25.4836 30.834 25.8101 30.6992 26.2106C31.9229 26.3293 33.0527 26.6854 34.0054 27.2203C34.4295 26.9707 34.9227 26.8258 35.4481 26.8258C37.014 26.8259 38.2727 28.0948 38.2598 29.6607C38.2514 30.6825 37.7012 31.5752 36.8875 32.0737C36.7409 33.4984 35.8972 34.7447 34.6756 35.638C33.3715 36.5915 31.6134 37.1662 29.7002 37.1663C27.7868 37.1663 26.0379 36.5927 24.7498 35.6399C23.5435 34.7477 22.7196 33.5026 22.5945 32.0795C21.7831 31.5824 21.2436 30.6867 21.252 29.6597C21.265 28.0939 22.5444 26.8249 24.1102 26.8248C24.6375 26.8248 25.1302 26.9709 25.5513 27.2223C26.5312 26.6762 27.6924 26.3179 28.9454 26.2057C29.1475 24.8887 30.152 23.8325 31.4408 23.5525C31.7603 22.7408 32.5521 22.1648 33.4746 22.1648ZM29.7304 33.4886C29.1111 33.4886 28.5124 33.5121 27.9466 33.556C28.3334 34.1221 28.9828 34.4925 29.7221 34.4925C30.4614 34.4924 31.1164 34.1217 31.512 33.556C30.9469 33.5121 30.3495 33.4887 29.7304 33.4886ZM26.6719 30.145C26.3772 30.1453 25.9448 30.4825 25.9076 31.1645C25.8914 31.4624 25.9811 31.603 26.0665 31.6782C26.1677 31.767 26.3434 31.8334 26.5916 31.8334C26.8472 31.8334 26.9982 31.773 27.0849 31.6977C27.1638 31.6291 27.2618 31.4854 27.2798 31.1557C27.3177 30.4572 26.9203 30.145 26.6719 30.145ZM32.8437 30.145C32.5947 30.145 32.1927 30.4569 32.2192 31.1557C32.2318 31.4857 32.3274 31.6291 32.4052 31.6977C32.4907 31.773 32.6408 31.8334 32.8963 31.8334C33.1438 31.8334 33.3201 31.7671 33.4229 31.6782C33.4991 31.6123 33.5792 31.4968 33.5904 31.269L33.5912 31.1645C33.566 30.4828 33.1394 30.1453 32.8437 30.145Z" fill="white" stroke="#E8C27F"/>
</g>
<defs>
<clipPath id="clip0_256_3288">
<rect width="60" height="60" fill="white"/>
</clipPath>
</defs>
</svg>
