<svg width="60" height="60" viewBox="0 0 60 60" fill="none" xmlns="http://www.w3.org/2000/svg">
<g clip-path="url(#clip0_180_1677)">
<mask id="path-1-outside-1_180_1677" maskUnits="userSpaceOnUse" x="18.6637" y="18.9993" width="22.1805" height="21.9993" fill="black">
<rect fill="white" x="18.6637" y="18.9993" width="22.1805" height="21.9993"/>
<path d="M29.8359 19.9993C24.3133 19.9993 19.7992 24.4765 19.7539 29.9989C19.7313 32.7606 20.8303 35.2605 22.6248 37.0698L20.7045 38.9744C20.3233 39.3525 20.5859 39.9986 21.1203 39.9986H29.6719C35.1945 39.9986 39.7086 35.5214 39.7539 29.9989C39.7992 24.4765 35.3586 19.9993 29.8359 19.9993Z"/>
</mask>
<path d="M29.8359 19.9993C24.3133 19.9993 19.7992 24.4765 19.7539 29.9989C19.7313 32.7606 20.8303 35.2605 22.6248 37.0698L20.7045 38.9744C20.3233 39.3525 20.5859 39.9986 21.1203 39.9986H29.6719C35.1945 39.9986 39.7086 35.5214 39.7539 29.9989C39.7992 24.4765 35.3586 19.9993 29.8359 19.9993Z" fill="#F9DEB0"/>
<path d="M29.8359 19.9993C24.3133 19.9993 19.7992 24.4765 19.7539 29.9989C19.7313 32.7606 20.8303 35.2605 22.6248 37.0698L20.7045 38.9744C20.3233 39.3525 20.5859 39.9986 21.1203 39.9986H29.6719C35.1945 39.9986 39.7086 35.5214 39.7539 29.9989C39.7992 24.4765 35.3586 19.9993 29.8359 19.9993Z" stroke="#F3C067" stroke-width="2" mask="url(#path-1-outside-1_180_1677)"/>
<path d="M31.8316 24.7147C31.999 25.4499 32.6547 25.9975 33.443 25.9975C34.3633 25.9975 35.1155 25.2514 35.1231 24.3311C35.1306 23.4109 34.3906 22.6648 33.4703 22.6648C32.6656 22.6648 31.9899 23.2351 31.8274 23.9937C30.4785 24.1382 29.4168 25.2811 29.4055 26.6662C29.4054 26.6693 29.4054 26.6717 29.4054 26.6748C27.9393 26.7365 26.5976 27.1537 25.5297 27.8123C25.1376 27.5068 24.6438 27.3248 24.1063 27.3248C22.8165 27.3248 21.7626 28.3701 21.752 29.6599C21.7443 30.5958 22.2877 31.402 23.0792 31.7746C23.1343 34.4855 26.0703 36.6659 29.7039 36.6659C33.3375 36.6659 36.3132 34.4831 36.4089 31.77C37.2003 31.395 37.7522 30.5911 37.7598 29.6607C37.7704 28.3709 36.7337 27.3256 35.4438 27.3256C34.9087 27.3256 34.4142 27.506 34.018 27.8092C32.9515 27.1459 31.6018 26.7287 30.1218 26.6733C30.1218 26.6709 30.1218 26.6693 30.1219 26.667C30.13 25.6748 30.8743 24.8514 31.8316 24.7163L31.8316 24.7147ZM25.4086 31.1419C25.4546 30.295 26.0224 29.645 26.6763 29.645C27.3303 29.645 27.8246 30.3317 27.7786 31.1786C27.7326 32.0254 27.2418 32.3332 26.5871 32.3332C25.9324 32.3332 25.3626 31.9887 25.4086 31.1419ZM32.8474 29.645C33.5021 29.645 34.0593 30.295 34.0906 31.1419C34.1227 31.9887 33.5465 32.3332 32.8926 32.3332C32.2387 32.3332 31.7521 32.0262 31.72 31.1786C31.6879 30.3317 32.1927 29.645 32.8474 29.645ZM32.041 33.1012C32.1635 33.1137 32.2406 33.241 32.192 33.3551C31.7818 34.3167 30.8262 34.9925 29.7176 34.9925C28.609 34.9925 27.6654 34.3167 27.2701 33.3551C27.2234 33.241 27.3026 33.1137 27.4253 33.1012C28.1447 33.0285 28.9224 32.9887 29.7341 32.9887C30.5458 32.9887 31.322 33.0285 32.041 33.1012Z" fill="white"/>
</g>
<defs>
<clipPath id="clip0_180_1677">
<rect width="60" height="60" fill="white"/>
</clipPath>
</defs>
</svg>
