<svg width="60" height="60" viewBox="0 0 60 60" fill="none" xmlns="http://www.w3.org/2000/svg">
<g clip-path="url(#clip0_2786_4617)">
<rect width="20" height="20" transform="matrix(1 0 -0.00820296 0.999966 15.5026 19.9995)" fill="white"/>
<mask id="mask0_2786_4617" style="mask-type:alpha" maskUnits="userSpaceOnUse" x="15" y="19" width="21" height="21">
<rect x="0.495899" y="0.499983" width="19" height="19" transform="matrix(1 0 -0.00820296 0.999966 15.5067 19.9995)" fill="#F8F8F8" stroke="#B8B8B8"/>
</mask>
<g mask="url(#mask0_2786_4617)">
<circle cx="2.66667" cy="2.66667" r="2.16667" transform="matrix(1 0 -0.00820296 0.999966 26.3605 23.7773)" fill="#FCEDD4" stroke="#F2BC5E"/>
<rect x="19.9291" y="42.6206" width="10.5431" height="10.4488" rx="2.5" transform="rotate(-44.765 19.9291 42.6206)" fill="#E7ECF6" stroke="#7A97CE"/>
<rect x="12.3173" y="38.9282" width="10.5431" height="15.0984" rx="2.5" transform="rotate(-44.765 12.3173 38.9282)" fill="#E7ECF6" stroke="#7A97CE"/>
</g>
<rect x="0.495899" y="0.499983" width="19" height="19" transform="matrix(1 0 -0.00820296 0.999966 15.5067 19.9995)" stroke="#7A97CE"/>
<rect x="0.495899" y="0.499983" width="6.5" height="3.21875" transform="matrix(1 0 -0.00820296 0.999966 36.5067 19.9995)" fill="white" stroke="#BFBFBF"/>
<rect x="0.495899" y="0.499983" width="6.5" height="3.21875" transform="matrix(1 0 -0.00820296 0.999966 36.4639 25.2178)" fill="white" stroke="#BFBFBF"/>
<rect x="0.495899" y="0.499983" width="6.5" height="3.21875" transform="matrix(1 0 -0.00820296 0.999966 36.4211 30.4365)" fill="white" stroke="#BFBFBF"/>
<rect x="0.495899" y="0.499983" width="6.5" height="3.21875" transform="matrix(1 0 -0.00820296 0.999966 36.3783 35.6553)" fill="white" stroke="#BFBFBF"/>
<path d="M49.4143 32.1869L51.7679 29.8333L49.4143 27.4746L50.1389 26.75L53.2222 29.8333L50.1389 32.9167L49.4143 32.1869Z" fill="#6B6B6B"/>
<path d="M10.5857 27.4796L8.23208 29.8332L10.5857 32.1919L9.86111 32.9165L6.77778 29.8332L9.86111 26.7498L10.5857 27.4796Z" fill="#6B6B6B"/>
</g>
<defs>
<clipPath id="clip0_2786_4617">
<rect width="60" height="60" fill="white"/>
</clipPath>
</defs>
</svg>
