<svg width="60" height="60" viewBox="0 0 60 60" fill="none" xmlns="http://www.w3.org/2000/svg">
<g clip-path="url(#clip0_256_3509)">
<rect width="20" height="20" transform="matrix(1 0 -0.00820296 0.999966 15.5026 19.9993)" fill="white"/>
<mask id="mask0_256_3509" style="mask-type:alpha" maskUnits="userSpaceOnUse" x="15" y="19" width="21" height="21">
<rect x="0.495899" y="0.499983" width="19" height="19" transform="matrix(1 0 -0.00820296 0.999966 15.5067 19.9993)" fill="#F8F8F8" stroke="#B8B8B8"/>
</mask>
<g mask="url(#mask0_256_3509)">
<circle cx="2.66667" cy="2.66667" r="2.16667" transform="matrix(1 0 -0.00820296 0.999966 26.3605 23.7769)" fill="#FBF4E9" stroke="#E8C27F"/>
<rect x="19.9291" y="42.6196" width="10.5431" height="10.4488" rx="2.5" transform="rotate(-44.765 19.9291 42.6196)" fill="#ECF1FB" stroke="#8FADEA"/>
<rect x="12.3173" y="38.9277" width="10.5431" height="15.0984" rx="2.5" transform="rotate(-44.765 12.3173 38.9277)" fill="#ECF1FB" stroke="#8FADEA"/>
</g>
<rect x="0.495899" y="0.499983" width="19" height="19" transform="matrix(1 0 -0.00820296 0.999966 15.5067 19.9993)" stroke="#8FADEA"/>
<rect x="0.495899" y="0.499983" width="6.5" height="3.21875" transform="matrix(1 0 -0.00820296 0.999966 36.5067 19.9993)" fill="white" stroke="#ABABAB"/>
<rect x="0.495899" y="0.499983" width="6.5" height="3.21875" transform="matrix(1 0 -0.00820296 0.999966 36.4639 25.218)" fill="white" stroke="#ABABAB"/>
<rect x="0.495899" y="0.499983" width="6.5" height="3.21875" transform="matrix(1 0 -0.00820296 0.999966 36.4211 30.4365)" fill="white" stroke="#ABABAB"/>
<rect x="0.495899" y="0.499983" width="6.5" height="3.21875" transform="matrix(1 0 -0.00820296 0.999966 36.3783 35.655)" fill="white" stroke="#ABABAB"/>
<path d="M49.4143 32.1869L51.7679 29.8333L49.4143 27.4746L50.1389 26.75L53.2222 29.8333L50.1389 32.9167L49.4143 32.1869Z" fill="#8C8C8C"/>
<path d="M10.5857 27.4798L8.23208 29.8334L10.5857 32.1922L9.86111 32.9167L6.77778 29.8334L9.86111 26.7501L10.5857 27.4798Z" fill="#8C8C8C"/>
</g>
<defs>
<clipPath id="clip0_256_3509">
<rect width="60" height="60" fill="white"/>
</clipPath>
</defs>
</svg>
