<svg width="60" height="60" viewBox="0 0 60 60" fill="none" xmlns="http://www.w3.org/2000/svg">
<g clip-path="url(#clip0_268_2673)">
<rect width="20" height="2" transform="matrix(1 0 -0.00820296 0.999966 19.6801 38.9987)" fill="#ABABAB"/>
<rect width="20" height="2" transform="matrix(1 0 -0.00820296 0.999966 19.6473 42.9985)" fill="#ABABAB"/>
<g clip-path="url(#clip1_268_2673)">
<rect width="20" height="20" rx="9.99998" transform="matrix(1 0 -0.00820296 0.999966 19.8756 15.1662)" fill="white"/>
<mask id="mask0_268_2673" style="mask-type:alpha" maskUnits="userSpaceOnUse" x="19" y="15" width="21" height="21">
<rect x="0.495899" y="0.499983" width="19" height="19" rx="9.49998" transform="matrix(1 0 -0.00820296 0.999966 19.8797 15.1662)" fill="#CBF7E1" stroke="#1FC47A"/>
</mask>
<g mask="url(#mask0_268_2673)">
<rect x="0.495899" y="0.499983" width="6.85713" height="6.85713" rx="3.42856" transform="matrix(1 0 -0.00820296 0.999966 25.9248 18.3804)" fill="#F4EDF9" stroke="#C296DA"/>
<mask id="path-6-inside-1_268_2673" fill="white">
<path fill-rule="evenodd" clip-rule="evenodd" d="M28.1795 18.7503C28.1795 18.754 28.1794 18.7576 28.1794 18.7613C28.1616 20.9309 29.9061 22.6897 32.0758 22.6897C32.6716 22.6897 33.2375 22.5571 33.7454 22.3197C33.7454 22.3161 33.7455 22.3124 33.7455 22.3088C33.7633 20.1391 32.0188 18.3803 29.8492 18.3803C29.2533 18.3803 28.6874 18.513 28.1795 18.7503Z"/>
</mask>
<path fill-rule="evenodd" clip-rule="evenodd" d="M28.1795 18.7503C28.1795 18.754 28.1794 18.7576 28.1794 18.7613C28.1616 20.9309 29.9061 22.6897 32.0758 22.6897C32.6716 22.6897 33.2375 22.5571 33.7454 22.3197C33.7454 22.3161 33.7455 22.3124 33.7455 22.3088C33.7633 20.1391 32.0188 18.3803 29.8492 18.3803C29.2533 18.3803 28.6874 18.513 28.1795 18.7503Z" fill="#FBECEE"/>
<path d="M28.1795 18.7503L27.7622 17.845L27.1865 18.1141L27.1795 18.7476L28.1795 18.7503ZM33.7454 22.3197L34.1627 23.225L34.7384 22.9559L34.7454 22.3225L33.7454 22.3197ZM28.1794 18.7613H29.1794C29.1794 18.7585 29.1795 18.7558 29.1795 18.753L28.1795 18.7503L27.1795 18.7476C27.1795 18.7521 27.1795 18.7567 27.1794 18.7613H28.1794ZM32.0758 22.6897L32.084 21.6897C30.4666 21.6897 29.1661 20.3786 29.1794 18.7613H28.1794H27.1794C27.1571 21.4831 29.3456 23.6897 32.0676 23.6897L32.0758 22.6897ZM33.7454 22.3197L33.3281 21.4144C32.9508 21.5907 32.5299 21.6897 32.084 21.6897L32.0758 22.6897L32.0676 23.6897C32.8132 23.6897 33.5242 23.5234 34.1627 23.225L33.7454 22.3197ZM33.7455 22.3088H32.7455C32.7455 22.3115 32.7454 22.3143 32.7454 22.317L33.7454 22.3197L34.7454 22.3225C34.7454 22.3178 34.7455 22.3133 34.7455 22.3088H33.7455ZM29.8492 18.3803L29.841 19.3803C31.4584 19.3803 32.7588 20.6914 32.7455 22.3088H33.7455H34.7455C34.7678 19.5869 32.5793 17.3804 29.8574 17.3804L29.8492 18.3803ZM28.1795 18.7503L28.5968 19.6556C28.9741 19.4793 29.395 19.3803 29.841 19.3803L29.8492 18.3803L29.8574 17.3804C29.1117 17.3804 28.4008 17.5466 27.7622 17.845L28.1795 18.7503Z" fill="#E78E9E" mask="url(#path-6-inside-1_268_2673)"/>
<rect x="0.495899" y="0.499983" width="11.1428" height="11.1428" rx="5.57142" transform="matrix(1 0 -0.00820296 0.999966 23.7086 27.3086)" fill="#E7F6EF" stroke="#76CAA5"/>
<rect x="0.495899" y="0.499983" width="19" height="19" rx="9.49998" transform="matrix(1 0 -0.00820296 0.999966 19.8797 15.1662)" stroke="#ABABAB"/>
</g>
</g>
<path d="M49.4143 32.1869L51.7679 29.8333L49.4143 27.4746L50.1389 26.75L53.2222 29.8333L50.1389 32.9167L49.4143 32.1869Z" fill="#8C8C8C"/>
<path d="M10.5857 27.4797L8.23208 29.8333L10.5857 32.1921L9.86111 32.9167L6.77778 29.8333L9.86111 26.75L10.5857 27.4797Z" fill="#8C8C8C"/>
<circle cx="12.7833" cy="47.1167" r="9.45" fill="white"/>
<path d="M12.3459 47.721C12.5167 47.8835 12.5167 48.1501 12.3459 48.3126C12.1834 48.4751 11.9167 48.4751 11.7542 48.3126C10.9417 47.5001 10.9417 46.1793 11.7542 45.3668L13.2292 43.8918C14.0417 43.0793 15.3625 43.0793 16.175 43.8918C16.9875 44.7043 16.9875 46.0251 16.175 46.8376L15.5542 47.4585C15.5584 47.1168 15.5042 46.7751 15.3875 46.4501L15.5834 46.2501C16.075 45.7626 16.075 44.971 15.5834 44.4835C15.0959 43.9918 14.3042 43.9918 13.8167 44.4835L12.3459 45.9543C11.8542 46.4418 11.8542 47.2335 12.3459 47.721ZM13.5209 45.9543C13.6834 45.7918 13.95 45.7918 14.1125 45.9543C14.925 46.7668 14.925 48.0876 14.1125 48.9001L12.6375 50.3751C11.825 51.1876 10.5042 51.1876 9.69171 50.3751C8.87921 49.5626 8.87921 48.2418 9.69171 47.4293L10.3125 46.8085C10.3084 47.1501 10.3625 47.4918 10.4792 47.821L10.2834 48.0168C9.79171 48.5043 9.79171 49.296 10.2834 49.7835C10.7709 50.2751 11.5625 50.2751 12.05 49.7835L13.5209 48.3126C14.0125 47.8251 14.0125 47.0335 13.5209 46.546C13.35 46.3835 13.35 46.1168 13.5209 45.9543Z" fill="#8C8C8C"/>
</g>
<defs>
<clipPath id="clip0_268_2673">
<rect width="60" height="60" fill="white"/>
</clipPath>
<clipPath id="clip1_268_2673">
<rect width="20" height="20" fill="white" transform="matrix(1 0 -0.00820296 0.999966 19.8756 15.1662)"/>
</clipPath>
</defs>
</svg>
