<svg width="60" height="60" viewBox="0 0 60 60" fill="none" xmlns="http://www.w3.org/2000/svg">
<g clip-path="url(#clip0_268_2293)">
<rect width="30" height="30" transform="matrix(1 0 -0.00820296 0.999966 14.877 14.9995)" fill="white"/>
<mask id="mask0_268_2293" style="mask-type:alpha" maskUnits="userSpaceOnUse" x="14" y="14" width="31" height="31">
<rect x="0.495899" y="0.499983" width="29" height="29" transform="matrix(1 0 -0.00820296 0.999966 14.8811 14.9995)" fill="#F8F8F8" stroke="#B8B8B8"/>
</mask>
<g mask="url(#mask0_268_2293)">
<circle cx="4" cy="4" r="3.5" transform="matrix(1 0 -0.00820296 0.999966 31.1638 20.666)" fill="#FBF4E9" stroke="#E8C27F"/>
<rect x="21.1631" y="48.9289" width="16.3146" height="16.1732" rx="2.5" transform="rotate(-44.765 21.1631 48.9289)" fill="#ECF1FB" stroke="#8FADEA"/>
<rect x="9.74537" y="43.3908" width="16.3146" height="23.1475" rx="2.5" transform="rotate(-44.765 9.74537 43.3908)" fill="#ECF1FB" stroke="#8FADEA"/>
</g>
<rect x="0.495899" y="0.499983" width="29" height="29" transform="matrix(1 0 -0.00820296 0.999966 14.8811 14.9995)" stroke="#8FADEA"/>
<circle cx="12.7833" cy="47.1167" r="9.45" fill="white"/>
<g clip-path="url(#clip1_268_2293)">
<path d="M17.5 47.1833L15.8333 48.8499V47.5999H10.7625C10.5916 48.0874 10.1291 48.4333 9.58331 48.4333C9.25179 48.4333 8.93385 48.3016 8.69943 48.0672C8.46501 47.8327 8.33331 47.5148 8.33331 47.1833C8.33331 46.8517 8.46501 46.5338 8.69943 46.2994C8.93385 46.065 9.25179 45.9333 9.58331 45.9333C10.1291 45.9333 10.5916 46.2791 10.7625 46.7666H15.8333V45.5166L17.5 47.1833Z" fill="#8C8C8C"/>
</g>
<path d="M49.4143 32.1869L51.7679 29.8333L49.4143 27.4746L50.1389 26.75L53.2222 29.8333L50.1389 32.9167L49.4143 32.1869Z" fill="#8C8C8C"/>
<path d="M10.5857 27.4798L8.23208 29.8334L10.5857 32.1922L9.86111 32.9167L6.77778 29.8334L9.86111 26.7501L10.5857 27.4798Z" fill="#8C8C8C"/>
</g>
<defs>
<clipPath id="clip0_268_2293">
<rect width="60" height="60" fill="white"/>
</clipPath>
<clipPath id="clip1_268_2293">
<rect width="10" height="10" fill="white" transform="translate(7.91663 42.1833)"/>
</clipPath>
</defs>
</svg>
