<svg width="60" height="60" viewBox="0 0 60 60" fill="none" xmlns="http://www.w3.org/2000/svg">
<g clip-path="url(#clip0_268_2515)">
<rect width="20" height="20" transform="matrix(1 0 -0.00820296 0.999966 19.877 14.9995)" fill="white"/>
<mask id="mask0_268_2515" style="mask-type:alpha" maskUnits="userSpaceOnUse" x="19" y="14" width="21" height="21">
<rect x="0.495899" y="0.499983" width="19" height="19" transform="matrix(1 0 -0.00820296 0.999966 19.8811 14.9995)" fill="#F8F8F8" stroke="#B8B8B8"/>
</mask>
<g mask="url(#mask0_268_2515)">
<circle cx="2.66667" cy="2.66667" r="2.16667" transform="matrix(1 0 -0.00820296 0.999966 30.7349 18.7771)" fill="#FBF4E9" stroke="#E8C27F"/>
<rect x="24.3034" y="37.62" width="10.5431" height="10.4488" rx="2.5" transform="rotate(-44.765 24.3034 37.62)" fill="#ECF1FB" stroke="#8FADEA"/>
<rect x="16.6916" y="33.9281" width="10.5431" height="15.0984" rx="2.5" transform="rotate(-44.765 16.6916 33.9281)" fill="#ECF1FB" stroke="#8FADEA"/>
</g>
<rect x="0.495899" y="0.499983" width="19" height="19" transform="matrix(1 0 -0.00820296 0.999966 19.8811 14.9995)" stroke="#8FADEA"/>
<rect width="20" height="2" transform="matrix(1 0 -0.00820296 0.999966 19.6801 38.9987)" fill="#ABABAB"/>
<rect width="20" height="2" transform="matrix(1 0 -0.00820296 0.999966 19.6473 42.9985)" fill="#ABABAB"/>
<path d="M49.4143 32.1869L51.7679 29.8333L49.4143 27.4746L50.1389 26.75L53.2222 29.8333L50.1389 32.9167L49.4143 32.1869Z" fill="#8C8C8C"/>
<path d="M10.5857 27.4797L8.23208 29.8333L10.5857 32.1921L9.86111 32.9167L6.77778 29.8333L9.86111 26.75L10.5857 27.4797Z" fill="#8C8C8C"/>
<circle cx="12.7833" cy="47.1167" r="9.45" fill="white"/>
<path d="M12.3459 47.721C12.5167 47.8835 12.5167 48.1501 12.3459 48.3126C12.1834 48.4751 11.9167 48.4751 11.7542 48.3126C10.9417 47.5001 10.9417 46.1793 11.7542 45.3668L13.2292 43.8918C14.0417 43.0793 15.3625 43.0793 16.175 43.8918C16.9875 44.7043 16.9875 46.0251 16.175 46.8376L15.5542 47.4585C15.5584 47.1168 15.5042 46.7751 15.3875 46.4501L15.5834 46.2501C16.075 45.7626 16.075 44.971 15.5834 44.4835C15.0959 43.9918 14.3042 43.9918 13.8167 44.4835L12.3459 45.9543C11.8542 46.4418 11.8542 47.2335 12.3459 47.721ZM13.5209 45.9543C13.6834 45.7918 13.95 45.7918 14.1125 45.9543C14.925 46.7668 14.925 48.0876 14.1125 48.9001L12.6375 50.3751C11.825 51.1876 10.5042 51.1876 9.69171 50.3751C8.87921 49.5626 8.87921 48.2418 9.69171 47.4293L10.3125 46.8085C10.3084 47.1501 10.3625 47.4918 10.4792 47.821L10.2834 48.0168C9.79171 48.5043 9.79171 49.296 10.2834 49.7835C10.7709 50.2751 11.5625 50.2751 12.05 49.7835L13.5209 48.3126C14.0125 47.8251 14.0125 47.0335 13.5209 46.546C13.35 46.3835 13.35 46.1168 13.5209 45.9543Z" fill="#8C8C8C"/>
</g>
<defs>
<clipPath id="clip0_268_2515">
<rect width="60" height="60" fill="white"/>
</clipPath>
</defs>
</svg>
