<svg width="60" height="60" viewBox="0 0 60 60" fill="none" xmlns="http://www.w3.org/2000/svg">
<g clip-path="url(#clip0_2786_4678)">
<rect width="35" height="20" transform="matrix(1 0 -0.00820296 0.999966 12.5026 19.9995)" fill="white"/>
<mask id="mask0_2786_4678" style="mask-type:alpha" maskUnits="userSpaceOnUse" x="12" y="19" width="36" height="21">
<rect width="35" height="20" transform="matrix(1 0 -0.00820296 0.999966 12.5026 19.9995)" fill="#F8F8F8"/>
</mask>
<g mask="url(#mask0_2786_4678)">
<path d="M42.9424 27.3326C42.9326 28.5292 41.9546 29.4992 40.758 29.4992C39.5614 29.4992 38.5993 28.5292 38.6091 27.3326C38.6189 26.136 39.5969 25.166 40.7935 25.166C41.9902 25.166 42.9523 26.136 42.9424 27.3326Z" fill="#FCEDD4" stroke="#F2BC5E"/>
<path fill-rule="evenodd" clip-rule="evenodd" d="M50.4808 33.2829C50.5153 33.3726 50.5326 33.4636 50.5318 33.5556C50.5191 35.0987 45.4392 36.3496 39.1854 36.3496C32.9315 36.3496 27.8721 35.0987 27.8848 33.5556C27.8908 32.8156 29.062 32.1429 30.9689 31.643C29.2683 30.6617 26.0351 29.9995 22.321 29.9995C16.827 29.9995 12.3614 31.4485 12.3467 33.236C12.3466 33.2516 12.3468 33.2673 12.3474 33.2829H12.3464L12.2317 47.2583H52.0225L52.1372 33.2829H50.4808Z" fill="#E2F6F6"/>
<path d="M50.4808 33.2829L50.4849 32.7829H49.7515L50.0139 33.4655L50.4808 33.2829ZM30.9689 31.643L31.092 32.1266L32.274 31.8168L31.2215 31.2095L30.9689 31.643ZM12.3474 33.2829L12.3433 33.7829H12.8656L12.8471 33.2611L12.3474 33.2829ZM12.3464 33.2829L12.3505 32.7829H11.8505L11.8464 33.2829L12.3464 33.2829ZM12.2317 47.2583H11.7317L11.7276 47.7583H12.2276L12.2317 47.2583ZM52.0225 47.2583L52.0184 47.7583H52.5184L52.5225 47.2583H52.0225ZM52.1372 33.2829L52.6372 33.2829L52.6413 32.7829H52.1413L52.1372 33.2829ZM50.0139 33.4655C50.0276 33.5013 50.032 33.5304 50.0318 33.5556H51.0318C51.0331 33.3967 51.003 33.2439 50.9477 33.1002L50.0139 33.4655ZM50.0318 33.5556C50.031 33.6522 49.9365 33.8908 49.3846 34.2113C48.8682 34.5111 48.089 34.7981 47.0832 35.0458C45.0795 35.5392 42.2882 35.8496 39.1895 35.8496L39.1813 36.8496C42.3363 36.8496 45.2119 36.5345 47.3148 36.0167C48.3624 35.7587 49.2463 35.4437 49.8814 35.075C50.481 34.7269 51.0263 34.2305 51.0318 33.5556H50.0318ZM39.1895 35.8496C36.0907 35.8496 33.3045 35.5392 31.3089 35.0458C30.3072 34.7981 29.5326 34.5111 29.0212 34.2113C28.4745 33.8908 28.384 33.6522 28.3848 33.5556H27.3848C27.3792 34.2305 27.9163 34.7269 28.5102 35.075C29.1393 35.4437 30.018 35.7587 31.0614 36.0167C33.1558 36.5345 36.0262 36.8496 39.1813 36.8496L39.1895 35.8496ZM28.3848 33.5556C28.3855 33.4643 28.4691 33.241 28.9711 32.936C29.4433 32.6491 30.1597 32.371 31.092 32.1266L30.8458 31.1595C29.8711 31.415 29.0486 31.7231 28.4569 32.0826C27.8951 32.4239 27.3901 32.9069 27.3848 33.5556H28.3848ZM31.2215 31.2095C29.4096 30.164 26.0726 29.4995 22.3251 29.4995L22.3169 30.4995C25.9975 30.4995 29.127 31.1595 30.7163 32.0766L31.2215 31.2095ZM22.3251 29.4995C19.5403 29.4995 16.9958 29.8661 15.1283 30.472C14.1974 30.7741 13.4068 31.1445 12.8372 31.5799C12.2748 32.0098 11.8522 32.565 11.8467 33.236H12.8467C12.8486 33.0133 12.9897 32.717 13.4404 32.3725C13.884 32.0334 14.5559 31.7065 15.4299 31.4229C17.1725 30.8575 19.6077 30.4995 22.3169 30.4995L22.3251 29.4995ZM11.8467 33.236C11.8466 33.2589 11.8469 33.2818 11.8477 33.3047L12.8471 33.2611C12.8468 33.2527 12.8467 33.2444 12.8467 33.236H11.8467ZM12.3515 32.7829H12.3505L12.3423 33.7829H12.3433L12.3515 32.7829ZM11.8464 33.2829L11.7317 47.2583H12.7317L12.8464 33.2829L11.8464 33.2829ZM12.2276 47.7583H52.0184L52.0266 46.7583H12.2358L12.2276 47.7583ZM52.5225 47.2583L52.6372 33.2829L51.6372 33.2829L51.5225 47.2583H52.5225ZM52.1413 32.7829H50.4849L50.4767 33.7829H52.1331L52.1413 32.7829Z" fill="#61CCCC"/>
<path fill-rule="evenodd" clip-rule="evenodd" d="M29.0657 25.7178C28.6238 26.0332 28.0496 26.224 27.4232 26.224C26.7968 26.224 26.2257 26.0332 25.789 25.7178C25.8736 26.4025 26.5683 26.9353 27.4173 26.9353C28.2664 26.9353 28.9698 26.4025 29.0657 25.7178Z" fill="#6B6B6B"/>
<path fill-rule="evenodd" clip-rule="evenodd" d="M32.5812 23.9996C32.1394 24.315 31.5652 24.5057 30.9388 24.5057C30.3124 24.5057 29.7412 24.3149 29.3046 23.9995C29.3892 24.6842 30.0839 25.217 30.9329 25.217C31.7819 25.217 32.4853 24.6843 32.5812 23.9996Z" fill="#6B6B6B"/>
<path fill-rule="evenodd" clip-rule="evenodd" d="M33.8523 26.8112C33.4105 27.1265 32.8362 27.3173 32.2099 27.3173C31.5834 27.3173 31.0123 27.1265 30.5756 26.811C30.6602 27.4957 31.3549 28.0285 32.204 28.0285C33.0529 28.0285 33.7564 27.4958 33.8523 26.8112Z" fill="#6B6B6B"/>
</g>
<rect x="0.495899" y="0.499983" width="34" height="19" transform="matrix(1 0 -0.00820296 0.999966 12.5067 19.9995)" stroke="#61CCCC"/>
<path d="M52.081 32.1869L54.4346 29.8333L52.081 27.4746L52.8056 26.75L55.8889 29.8333L52.8056 32.9167L52.081 32.1869Z" fill="#6B6B6B"/>
<path d="M6.25238 27.4796L3.89877 29.8332L6.25238 32.1919L5.5278 32.9165L2.44446 29.8332L5.5278 26.7498L6.25238 27.4796Z" fill="#6B6B6B"/>
</g>
<defs>
<clipPath id="clip0_2786_4678">
<rect width="60" height="60" fill="white"/>
</clipPath>
</defs>
</svg>
