<svg width="60" height="60" viewBox="0 0 60 60" fill="none" xmlns="http://www.w3.org/2000/svg">
<g clip-path="url(#clip0_256_3745)">
<rect width="35" height="20" transform="matrix(1 0 -0.00820296 0.999966 12.5026 19.9993)" fill="white"/>
<mask id="mask0_256_3745" style="mask-type:alpha" maskUnits="userSpaceOnUse" x="12" y="19" width="36" height="21">
<rect width="35" height="20" transform="matrix(1 0 -0.00820296 0.999966 12.5026 19.9993)" fill="#F8F8F8"/>
</mask>
<g mask="url(#mask0_256_3745)">
<path d="M40.7939 25.166C41.9903 25.1662 42.9519 26.1364 42.9421 27.3329C42.9321 28.5292 41.9547 29.4987 40.7583 29.4989C39.5618 29.4989 38.5995 28.5293 38.6091 27.3329C38.6189 26.1363 39.5973 25.166 40.7939 25.166Z" fill="#FBF4E9" stroke="#E8C27F"/>
<path d="M22.3205 29.999C26.034 29.999 29.2662 30.6624 30.9672 31.6435C29.0613 32.1433 27.8911 32.8159 27.8851 33.5555C27.8735 35.0984 32.9322 36.3494 39.1854 36.3494C45.4385 36.3494 50.5179 35.0984 50.5316 33.5555C50.5323 33.4633 50.5138 33.3721 50.4791 33.2821H52.1373L52.0227 47.2582H12.2316L12.3463 33.2821H12.3502C12.3497 33.2666 12.3466 33.2509 12.3467 33.2352C12.3617 31.448 16.827 29.9991 22.3205 29.999Z" fill="#E7F5F6"/>
<path d="M22.3205 29.999L22.3246 29.499L22.3246 29.499L22.3205 29.999ZM30.9672 31.6435L31.0903 32.1271L32.2724 31.8171L31.2196 31.2099L30.9672 31.6435ZM27.8851 33.5555L27.3851 33.5555L27.3851 33.5559L27.8851 33.5555ZM39.1854 36.3494L39.1813 36.8494L39.1813 36.8494L39.1854 36.3494ZM50.5316 33.5555L51.0316 33.5559L51.0316 33.5555H50.5316ZM50.4791 33.2821L50.4832 32.7821H49.749L50.0124 33.4653L50.4791 33.2821ZM52.1373 33.2821H52.6373L52.6414 32.7821H52.1414L52.1373 33.2821ZM52.0227 47.2582L52.0186 47.7582H52.5186L52.5227 47.2582H52.0227ZM12.2316 47.2582H11.7316L11.7275 47.7582H12.2275L12.2316 47.2582ZM12.3463 33.2821L12.3504 32.7821H11.8504L11.8463 33.2821H12.3463ZM12.3502 33.2821L12.3461 33.7821H12.8683L12.8499 33.2604L12.3502 33.2821ZM12.3467 33.2352L11.8467 33.2351L11.8467 33.2352H12.3467ZM22.3205 29.999L22.3164 30.499C25.9962 30.499 29.1248 31.1602 30.7147 32.0771L30.9672 31.6435L31.2196 31.2099C29.4075 30.1647 26.0717 29.499 22.3246 29.499L22.3205 29.999ZM30.9672 31.6435L30.844 31.1599C29.8699 31.4154 29.0478 31.7235 28.4565 32.0829C27.895 32.4242 27.3904 32.9071 27.3851 33.5555H27.8851H28.3851C28.3858 33.4643 28.4693 33.2411 28.9708 32.9362C29.4426 32.6495 30.1586 32.3714 31.0903 32.1271L30.9672 31.6435ZM27.8851 33.5555L27.3851 33.5559C27.38 34.2306 27.9171 34.7268 28.511 35.0749C29.1401 35.4436 30.0189 35.7585 31.0622 36.0165C33.1564 36.5343 36.0265 36.8494 39.1813 36.8494L39.1854 36.3494L39.1895 35.8494C36.0911 35.8494 33.3052 35.539 31.3097 35.0456C30.3081 34.798 29.5335 34.5109 29.022 34.2111C28.4752 33.8907 28.3843 33.652 28.3851 33.5552L27.8851 33.5555ZM39.1854 36.3494L39.1813 36.8494C42.336 36.8494 45.2113 36.5343 47.3141 36.0165C48.3616 35.7585 49.2455 35.4436 49.8807 35.0749C50.4803 34.7268 51.0256 34.2306 51.0316 33.5559L50.5316 33.5555L50.0316 33.5552C50.0307 33.652 49.9359 33.8907 49.3839 34.2111C48.8674 34.5109 48.0881 34.798 47.0825 35.0456C45.0788 35.539 42.2879 35.8494 39.1895 35.8494L39.1854 36.3494ZM50.5316 33.5555H51.0316C51.0329 33.3923 50.9999 33.2391 50.9459 33.099L50.4791 33.2821L50.0124 33.4653C50.0277 33.5051 50.0317 33.5342 50.0316 33.5555H50.5316ZM50.4791 33.2821L50.475 33.7821H52.1332L52.1373 33.2821L52.1414 32.7821H50.4832L50.4791 33.2821ZM52.1373 33.2821H51.6373L51.5227 47.2582H52.0227H52.5227L52.6373 33.2821H52.1373ZM52.0227 47.2582L52.0268 46.7582H12.2358L12.2316 47.2582L12.2275 47.7582H52.0186L52.0227 47.2582ZM12.2316 47.2582H12.7316L12.8463 33.2821H12.3463H11.8463L11.7316 47.2582H12.2316ZM12.3463 33.2821L12.3422 33.7821H12.3461L12.3502 33.2821L12.3543 32.7821H12.3504L12.3463 33.2821ZM12.3502 33.2821L12.8499 33.2604C12.8493 33.2433 12.8481 33.229 12.8472 33.2197C12.8468 33.215 12.8464 33.2109 12.8461 33.2081C12.8459 33.2066 12.8458 33.2053 12.8457 33.2044C12.8456 33.2033 12.8455 33.2027 12.8454 33.2021C12.8451 33.1993 12.8455 33.2022 12.8458 33.207C12.8462 33.2122 12.8468 33.2222 12.8467 33.2352H12.3467H11.8467C11.8465 33.2561 11.8474 33.2739 11.8484 33.2869C11.8493 33.2995 11.8504 33.3103 11.8509 33.3153C11.8517 33.3228 11.8516 33.3212 11.8516 33.3211C11.8514 33.3197 11.8508 33.3131 11.8505 33.3039L12.3502 33.2821ZM12.3467 33.2352L12.8467 33.2354C12.8486 33.0126 12.9898 32.7164 13.4405 32.3719C13.8841 32.0329 14.556 31.706 15.43 31.4224C17.1724 30.857 19.6074 30.499 22.3164 30.499L22.3205 29.999L22.3246 29.499C19.54 29.4991 16.9957 29.8656 15.1284 30.4715C14.1975 30.7735 13.4069 31.144 12.8373 31.5793C12.2749 32.0091 11.8523 32.5642 11.8467 33.2351L12.3467 33.2352Z" fill="#75C3CB"/>
<path d="M29.0654 25.7153C28.9706 26.4009 28.2673 26.9349 27.4177 26.935C26.5678 26.935 25.8725 26.401 25.789 25.7153C26.2258 26.0311 26.7967 26.2231 27.4235 26.2231C28.0501 26.2231 28.6235 26.031 29.0654 25.7153Z" fill="#ABABAB"/>
<path d="M32.5809 23.9973C32.4862 24.6828 31.7829 25.2169 30.9332 25.217C30.0834 25.217 29.3881 24.683 29.3046 23.9973C29.7413 24.3131 30.3122 24.5051 30.9391 24.5051C31.5657 24.5051 32.1391 24.313 32.5809 23.9973Z" fill="#ABABAB"/>
<path d="M33.852 26.8088C33.7572 27.4944 33.0539 28.0284 32.2043 28.0285C31.3545 28.0285 30.6592 27.4945 30.5756 26.8088C31.0124 27.1246 31.5833 27.3166 32.2101 27.3166C32.8368 27.3166 33.4101 27.1245 33.852 26.8088Z" fill="#ABABAB"/>
</g>
<rect x="0.495899" y="0.499983" width="34" height="19" transform="matrix(1 0 -0.00820296 0.999966 12.5067 19.9993)" stroke="#75C3CB"/>
<ellipse cx="13.65" cy="46.0501" rx="9.45" ry="9.45" fill="white"/>
<path d="M11.9999 43.1416V48.9749L16.5833 46.0583L11.9999 43.1416Z" fill="#8C8C8C"/>
<path d="M52.081 32.1869L54.4346 29.8333L52.081 27.4746L52.8056 26.75L55.8889 29.8333L52.8056 32.9167L52.081 32.1869Z" fill="#8C8C8C"/>
<path d="M6.25238 27.4798L3.89877 29.8334L6.25238 32.1922L5.5278 32.9167L2.44446 29.8334L5.5278 26.7501L6.25238 27.4798Z" fill="#8C8C8C"/>
</g>
<defs>
<clipPath id="clip0_256_3745">
<rect width="60" height="60" fill="white"/>
</clipPath>
</defs>
</svg>
