<svg width="60" height="60" viewBox="0 0 60 60" fill="none" xmlns="http://www.w3.org/2000/svg">
<g clip-path="url(#clip0_256_2991)">
<path d="M19.756 29.8407C19.6399 35.5477 24.1451 39.9887 29.6761 39.9986C35.2074 39.9689 39.597 35.5873 39.7498 30.2265C39.9157 24.47 35.3714 19.9796 29.8303 19.9993C24.1903 20.0092 19.8691 24.4997 19.756 29.8407Z" fill="white"/>
<path d="M29.8416 20.4993C35.0909 20.4993 39.3062 24.7499 39.2539 29.998L39.2539 29.9989C39.2108 35.2479 34.9251 39.4986 29.676 39.4986C24.4268 39.4986 20.2108 35.2479 20.2539 29.9989C20.297 24.7506 24.5918 20.4993 29.8416 20.4993ZM34.3766 33.1424C31.6155 31.4426 28.2085 31.0661 24.2954 31.9627L24.2925 31.9637C23.6979 32.1034 23.3067 32.6973 23.4416 33.3103L23.4425 33.3133C23.5778 33.9087 24.1808 34.2948 24.7853 34.1531L24.7843 34.1521C28.181 33.3759 30.9903 33.7016 33.19 35.0505L33.19 35.0515C33.7201 35.389 34.4241 35.2111 34.7458 34.6824C35.0659 34.156 34.91 33.4709 34.3766 33.1424ZM35.5686 30.205C32.3727 28.2292 27.7148 27.6822 23.9384 28.8203L23.9345 28.8212C23.2634 29.0287 22.8734 29.744 23.0766 30.4188C23.278 31.0873 23.9879 31.4708 24.6634 31.2645L24.6644 31.2655C27.7248 30.3413 31.6765 30.8062 34.2188 32.3797C34.8129 32.7597 35.6005 32.5638 35.9731 31.9725L35.974 31.9735C35.9761 31.9704 35.978 31.9668 35.98 31.9637C35.9808 31.9624 35.9822 31.9611 35.9829 31.9598L35.982 31.9588C36.366 31.3579 36.1724 30.5686 35.5676 30.205H35.5686ZM30.0831 24.8663C27.6611 24.669 25.2426 24.8876 23.4006 25.4444C22.6289 25.6734 22.2152 26.4837 22.429 27.2314C22.6499 28.0041 23.4582 28.4126 24.2092 28.1924L24.2131 28.1914C25.6857 27.7465 27.7214 27.5588 29.7902 27.7217C31.8609 27.8847 33.9096 28.395 35.4286 29.3007L35.4305 29.3017C36.1083 29.7014 36.9894 29.4824 37.4004 28.8066L37.4034 28.8027C37.8096 28.1199 37.5949 27.2381 36.9098 26.834C34.9756 25.6799 32.5027 25.0634 30.0831 24.8663Z" fill="#E7F6EF" stroke="#76CAA5"/>
<path d="M29.827 20.4993H29.8279C35.0918 20.4805 39.4077 24.7441 39.2502 30.2157L39.2502 30.2167C39.1049 35.3065 34.9376 39.4687 29.6789 39.4976C24.4225 39.4871 20.1462 35.2705 20.2561 29.8476C20.3636 24.7727 24.4673 20.5087 29.827 20.4993Z" stroke="#76CAA5"/>
</g>
<defs>
<clipPath id="clip0_256_2991">
<rect width="60" height="60" fill="white"/>
</clipPath>
</defs>
</svg>
