<svg width="60" height="60" viewBox="0 0 60 60" fill="none" xmlns="http://www.w3.org/2000/svg">
<g clip-path="url(#clip0_2786_3428)">
<path d="M19.756 29.841C19.6399 35.548 24.1451 39.9889 29.6761 39.9988C35.2074 39.9692 39.597 35.5875 39.7498 30.2267C39.9157 24.4702 35.3714 19.9798 29.8303 19.9996C24.1903 20.0095 19.8691 24.4999 19.756 29.841Z" fill="white"/>
<path fill-rule="evenodd" clip-rule="evenodd" d="M35.6873 28.8708C32.4734 26.9545 27.1636 26.7794 24.0723 27.7133C23.575 27.8592 23.0519 27.5868 22.9101 27.0907C22.7682 26.5946 23.0449 26.0693 23.5422 25.9234C27.0821 24.8534 32.9559 25.0577 36.6537 27.2658C37.0991 27.5284 37.2403 28.1024 36.974 28.5498C36.7077 28.9875 36.1326 29.1334 35.6873 28.8708ZM35.5571 31.7015C35.3303 32.0711 34.8429 32.1878 34.4849 31.9544C31.8137 30.3007 27.7125 29.8241 24.5237 30.7871C24.1141 30.9135 23.6783 30.6801 23.5552 30.2715C23.4321 29.863 23.6691 29.4253 24.0787 29.2988C27.7259 28.1996 32.2351 28.7346 35.3032 30.6314C35.6807 30.8552 35.7935 31.3415 35.5571 31.7015ZM34.3188 34.4251C34.1413 34.7169 33.7514 34.8142 33.461 34.6294C31.1188 33.1897 28.1642 32.8687 24.6752 33.6664C24.3438 33.7442 24.0051 33.5302 23.93 33.1995C23.855 32.859 24.0717 32.5283 24.4031 32.4505C28.2235 31.575 31.4888 31.9544 34.1118 33.5691C34.4118 33.7539 34.4962 34.1333 34.3188 34.4251ZM29.8457 19.9995C24.3204 19.9995 19.7992 24.4741 19.7539 29.9992C19.7086 35.5243 24.1466 39.9988 29.6719 39.9988C35.1972 39.9988 39.7086 35.5243 39.7539 29.9992C39.8089 24.4741 35.3709 19.9995 29.8457 19.9995Z" fill="#B6E7CE"/>
<path d="M29.827 20.4996L29.8279 20.4996C35.092 20.4808 39.4077 24.7445 39.25 30.2164L39.25 30.2165C39.1049 35.3063 34.9381 39.4696 29.6795 39.4989C24.4226 39.4886 20.1457 35.2706 20.2559 29.8472C20.3635 24.7724 24.4674 20.509 29.827 20.4996Z" stroke="#72D1A0"/>
</g>
<defs>
<clipPath id="clip0_2786_3428">
<rect width="60" height="60" fill="white"/>
</clipPath>
</defs>
</svg>
