<svg width="60" height="60" viewBox="0 0 60 60" fill="none" xmlns="http://www.w3.org/2000/svg">
<g clip-path="url(#clip0_256_3004)">
<rect width="15" height="15" transform="matrix(1 0 -0.00820296 0.999966 13.9562 5.33316)" fill="white"/>
<mask id="mask0_256_3004" style="mask-type:alpha" maskUnits="userSpaceOnUse" x="13" y="5" width="16" height="16">
<rect x="0.495899" y="0.499983" width="14" height="14" transform="matrix(1 0 -0.00820296 0.999966 13.9603 5.33318)" fill="#F8F8F8" stroke="#B8B8B8"/>
</mask>
<g mask="url(#mask0_256_3004)">
<circle cx="2" cy="2" r="1.5" transform="matrix(1 0 -0.00820296 0.999966 22.0997 8.16641)" fill="#FBF4E9" stroke="#E8C27F"/>
<rect x="17.4528" y="22.2993" width="7.65732" height="7.5866" rx="2.5" transform="rotate(-44.765 17.4528 22.2993)" fill="#ECF1FB" stroke="#8FADEA"/>
<rect x="11.744" y="19.5303" width="7.65732" height="11.0738" rx="2.5" transform="rotate(-44.765 11.744 19.5303)" fill="#ECF1FB" stroke="#8FADEA"/>
</g>
<rect x="0.495899" y="0.499983" width="14" height="14" transform="matrix(1 0 -0.00820296 0.999966 13.9603 5.33318)" stroke="#8FADEA"/>
<rect width="15" height="15" transform="matrix(1 0 -0.00820296 0.999966 30.9562 5.33316)" fill="white"/>
<mask id="mask1_256_3004" style="mask-type:alpha" maskUnits="userSpaceOnUse" x="30" y="5" width="16" height="16">
<rect x="0.495899" y="0.499983" width="14" height="14" transform="matrix(1 0 -0.00820296 0.999966 30.9603 5.33318)" fill="#F8F8F8" stroke="#B8B8B8"/>
</mask>
<g mask="url(#mask1_256_3004)">
<rect x="0.495899" y="0.499983" width="16.4893" height="7.83288" rx="2.5" transform="matrix(1 0 -0.00820296 0.999966 29.6544 15.4995)" fill="#F4EDF9" stroke="#C296DA"/>
<rect x="0.495899" y="0.499983" width="1" height="3.33333" rx="0.5" transform="matrix(1 0 -0.00820296 0.999966 35.5833 10.6663)" fill="#F4EDF9" stroke="#C296DA"/>
</g>
<rect x="0.495899" y="0.499983" width="14" height="14" transform="matrix(1 0 -0.00820296 0.999966 30.9603 5.33318)" stroke="#C296DA"/>
<rect width="15" height="15" transform="matrix(1 0 -0.00820296 0.999966 13.8168 22.3326)" fill="white"/>
<mask id="mask2_256_3004" style="mask-type:alpha" maskUnits="userSpaceOnUse" x="13" y="22" width="16" height="16">
<rect x="0.495899" y="0.499983" width="14" height="14" transform="matrix(1 0 -0.00820296 0.999966 13.8209 22.3326)" fill="#F8F8F8" stroke="#B8B8B8"/>
</mask>
<g mask="url(#mask2_256_3004)">
<path d="M15.4919 31.4989C21.797 31.4991 26.866 36.6106 26.8143 42.9156C26.7624 49.2203 21.6096 54.331 15.3046 54.3312C8.99949 54.3312 3.92974 49.2204 3.98129 42.9156C4.03301 36.6105 9.18668 31.4989 15.4919 31.4989Z" fill="#FBECEE" stroke="#E78E9E"/>
<path d="M28.8225 31.8323C35.1276 31.8324 40.1966 36.9439 40.1449 43.2489C40.093 49.5536 34.9402 54.6643 28.6352 54.6645C22.3301 54.6645 17.2603 49.5538 17.3119 43.2489C17.3636 36.9438 22.5172 31.8323 28.8225 31.8323Z" fill="#FBECEE" stroke="#E78E9E"/>
</g>
<rect x="0.495899" y="0.499983" width="14" height="14" transform="matrix(1 0 -0.00820296 0.999966 13.8209 22.3326)" stroke="#E78E9E"/>
<rect width="15" height="15" transform="matrix(1 0 -0.00820296 0.999966 30.8168 22.3326)" fill="white"/>
<mask id="mask3_256_3004" style="mask-type:alpha" maskUnits="userSpaceOnUse" x="30" y="22" width="16" height="16">
<rect x="0.495899" y="0.499983" width="14" height="14" transform="matrix(1 0 -0.00820296 0.999966 30.8209 22.3326)" fill="#F8F8F8" stroke="#B8B8B8"/>
</mask>
<g mask="url(#mask3_256_3004)">
<path d="M40.9561 25.6658C41.7845 25.6658 42.4506 26.3373 42.4438 27.1657C42.437 27.9941 41.7599 28.6657 40.9315 28.6657C40.1031 28.6657 39.437 27.9941 39.4438 27.1657C39.4506 26.3373 40.1277 25.6658 40.9561 25.6658Z" fill="#FBF4E9" stroke="#E8C27F"/>
<rect x="34.3134" y="39.2987" width="7.65732" height="7.5866" rx="2.5" transform="rotate(-44.765 34.3134 39.2987)" fill="#ECF1FB" stroke="#8FADEA"/>
<rect x="28.6045" y="36.5297" width="7.65732" height="11.0738" rx="2.5" transform="rotate(-44.765 28.6045 36.5297)" fill="#ECF1FB" stroke="#8FADEA"/>
</g>
<rect x="0.495899" y="0.499983" width="14" height="14" transform="matrix(1 0 -0.00820296 0.999966 30.8209 22.3326)" stroke="#8FADEA"/>
<rect width="15" height="15" transform="matrix(1 0 -0.00820296 0.999966 13.6774 39.332)" fill="white"/>
<mask id="mask4_256_3004" style="mask-type:alpha" maskUnits="userSpaceOnUse" x="13" y="39" width="16" height="16">
<rect x="0.495899" y="0.499983" width="14" height="14" transform="matrix(1 0 -0.00820296 0.999966 13.6815 39.332)" fill="#F8F8F8" stroke="#B8B8B8"/>
</mask>
<g mask="url(#mask4_256_3004)">
<path d="M21.1282 45.3318C21.9566 45.3318 22.6227 46.0034 22.6159 46.8318C22.6091 47.6601 21.932 48.3317 21.1036 48.3317C20.2751 48.3317 19.6091 47.6601 19.6159 46.8318C19.6227 46.0034 20.2997 45.3318 21.1282 45.3318Z" fill="#E7F6EF" stroke="#76CAA5"/>
<rect x="0.435571" y="0.553427" width="16.4893" height="7.83288" transform="matrix(0.992627 0.113331 -0.121485 0.993523 13.0306 45.5765)" fill="#E7F6EF" stroke="#76CAA5"/>
</g>
<rect x="0.495899" y="0.499983" width="14" height="14" transform="matrix(1 0 -0.00820296 0.999966 13.6815 39.332)" stroke="#76CAA5"/>
<rect width="15" height="15" transform="matrix(1 0 -0.00820296 0.999966 30.6774 39.332)" fill="white"/>
<mask id="mask5_256_3004" style="mask-type:alpha" maskUnits="userSpaceOnUse" x="30" y="39" width="16" height="16">
<rect x="0.495899" y="0.499983" width="14" height="14" transform="matrix(1 0 -0.00820296 0.999966 30.6815 39.332)" fill="#F8F8F8" stroke="#B8B8B8"/>
</mask>
<g mask="url(#mask5_256_3004)">
<path d="M32.3525 48.4984C38.6576 48.4985 43.7266 53.61 43.6749 59.915C43.623 66.2198 38.4702 71.3304 32.1652 71.3306C25.8601 71.3306 20.7903 66.2199 20.8419 59.915C20.8936 53.6099 26.0473 48.4984 32.3525 48.4984Z" fill="#FBECEE" stroke="#E78E9E"/>
<path d="M45.6831 48.8317C51.9882 48.8319 57.0572 53.9434 57.0055 60.2483C56.9536 66.5531 51.8008 71.6637 45.4958 71.6639C39.1907 71.6639 34.1209 66.5532 34.1724 60.2483C34.2242 53.9432 39.3778 48.8317 45.6831 48.8317Z" fill="#FBECEE" stroke="#E78E9E"/>
</g>
<rect x="0.495899" y="0.499983" width="14" height="14" transform="matrix(1 0 -0.00820296 0.999966 30.6815 39.332)" stroke="#E78E9E"/>
<ellipse cx="12.7833" cy="47.1167" rx="9.45" ry="9.45" fill="white"/>
<path d="M12.2125 47.6541C12.3833 47.8166 12.3833 48.0833 12.2125 48.2458C12.05 48.4083 11.7833 48.4083 11.6208 48.2458C10.8083 47.4333 10.8083 46.1125 11.6208 45.3L13.0958 43.825C13.9083 43.0125 15.2292 43.0125 16.0417 43.825C16.8542 44.6375 16.8542 45.9583 16.0417 46.7708L15.4208 47.3916C15.425 47.05 15.3708 46.7083 15.2542 46.3833L15.45 46.1833C15.9417 45.6958 15.9417 44.9041 15.45 44.4166C14.9625 43.925 14.1708 43.925 13.6833 44.4166L12.2125 45.8875C11.7208 46.375 11.7208 47.1666 12.2125 47.6541ZM13.3875 45.8875C13.55 45.725 13.8167 45.725 13.9792 45.8875C14.7917 46.7 14.7917 48.0208 13.9792 48.8333L12.5042 50.3083C11.6917 51.1208 10.3708 51.1208 9.55835 50.3083C8.74585 49.4958 8.74585 48.175 9.55835 47.3625L10.1792 46.7416C10.175 47.0833 10.2292 47.425 10.3458 47.7541L10.15 47.95C9.65835 48.4375 9.65835 49.2291 10.15 49.7166C10.6375 50.2083 11.4292 50.2083 11.9167 49.7166L13.3875 48.2458C13.8792 47.7583 13.8792 46.9666 13.3875 46.4791C13.2167 46.3166 13.2167 46.05 13.3875 45.8875Z" fill="#8C8C8C"/>
</g>
<defs>
<clipPath id="clip0_256_3004">
<rect width="60" height="60" fill="white"/>
</clipPath>
</defs>
</svg>
