<svg width="60" height="60" viewBox="0 0 60 60" fill="none" xmlns="http://www.w3.org/2000/svg">
<g clip-path="url(#clip0_256_2187)">
<rect width="20" height="2" transform="matrix(1 0 -0.00820296 0.999966 19.7347 32.3322)" fill="#ABABAB"/>
<rect width="20" height="2" transform="matrix(1 0 -0.00820296 0.999966 19.7019 36.3321)" fill="#ABABAB"/>
<path d="M26.1511 30.3323L26.2168 22.3326H24.8081L24.7819 25.5279H21.1992L21.2254 22.3326H19.8168L19.7511 30.3323H21.1598L21.1887 26.8084H24.7714L24.7425 30.3323H26.1511Z" fill="#ABABAB"/>
<ellipse cx="12.7833" cy="47.1167" rx="9.45" ry="9.45" fill="white"/>
<path d="M12.2125 47.6542C12.3833 47.8167 12.3833 48.0833 12.2125 48.2458C12.05 48.4083 11.7833 48.4083 11.6208 48.2458C10.8083 47.4333 10.8083 46.1125 11.6208 45.3L13.0958 43.825C13.9083 43.0125 15.2292 43.0125 16.0417 43.825C16.8542 44.6375 16.8542 45.9583 16.0417 46.7708L15.4208 47.3917C15.425 47.05 15.3708 46.7083 15.2542 46.3833L15.45 46.1833C15.9417 45.6958 15.9417 44.9042 15.45 44.4167C14.9625 43.925 14.1708 43.925 13.6833 44.4167L12.2125 45.8875C11.7208 46.375 11.7208 47.1667 12.2125 47.6542ZM13.3875 45.8875C13.55 45.725 13.8167 45.725 13.9792 45.8875C14.7917 46.7 14.7917 48.0208 13.9792 48.8333L12.5042 50.3083C11.6917 51.1208 10.3708 51.1208 9.55835 50.3083C8.74585 49.4958 8.74585 48.175 9.55835 47.3625L10.1792 46.7417C10.175 47.0833 10.2292 47.425 10.3458 47.7542L10.15 47.95C9.65835 48.4375 9.65835 49.2292 10.15 49.7167C10.6375 50.2083 11.4292 50.2083 11.9167 49.7167L13.3875 48.2458C13.8792 47.7583 13.8792 46.9667 13.3875 46.4792C13.2167 46.3167 13.2167 46.05 13.3875 45.8875Z" fill="#8C8C8C"/>
</g>
<defs>
<clipPath id="clip0_256_2187">
<rect width="60" height="60" fill="white"/>
</clipPath>
</defs>
</svg>
