<svg width="60" height="60" viewBox="0 0 60 60" fill="none" xmlns="http://www.w3.org/2000/svg">
<g clip-path="url(#clip0_256_3220)">
<rect width="15" height="15" transform="matrix(1 0 -0.00820296 0.999966 22.6229 5.33316)" fill="white"/>
<mask id="mask0_256_3220" style="mask-type:alpha" maskUnits="userSpaceOnUse" x="22" y="5" width="16" height="16">
<rect x="0.495899" y="0.499983" width="14" height="14" transform="matrix(1 0 -0.00820296 0.999966 22.627 5.33318)" fill="#F8F8F8" stroke="#B8B8B8"/>
</mask>
<g mask="url(#mask0_256_3220)">
<path d="M32.7623 8.6664C33.5907 8.6664 34.2567 9.33795 34.25 10.1663C34.2432 10.9947 33.5661 11.6663 32.7376 11.6663C31.9092 11.6663 31.2432 10.9947 31.25 10.1663C31.2567 9.33795 31.9338 8.6664 32.7623 8.6664Z" fill="#FBF4E9" stroke="#E8C27F"/>
<rect x="26.1195" y="22.2993" width="7.65732" height="7.5866" rx="2.5" transform="rotate(-44.765 26.1195 22.2993)" fill="#ECF1FB" stroke="#8FADEA"/>
<rect x="20.4107" y="19.5303" width="7.65733" height="11.0738" rx="2.5" transform="rotate(-44.765 20.4107 19.5303)" fill="#ECF1FB" stroke="#8FADEA"/>
</g>
<rect x="0.495899" y="0.499983" width="14" height="14" transform="matrix(1 0 -0.00820296 0.999966 22.627 5.33318)" stroke="#8FADEA"/>
<rect width="15" height="15" transform="matrix(1 0 -0.00820296 0.999966 22.4835 22.3326)" fill="white"/>
<mask id="mask1_256_3220" style="mask-type:alpha" maskUnits="userSpaceOnUse" x="22" y="22" width="16" height="16">
<rect x="0.495899" y="0.499983" width="14" height="14" transform="matrix(1 0 -0.00820296 0.999966 22.4876 22.3326)" fill="#F8F8F8" stroke="#B8B8B8"/>
</mask>
<g mask="url(#mask1_256_3220)">
<path d="M24.1586 31.4989C30.4637 31.4991 35.5327 36.6106 35.481 42.9156C35.4291 49.2203 30.2763 54.331 23.9713 54.3312C17.6662 54.3312 12.5964 49.2204 12.648 42.9156C12.6997 36.6105 17.8534 31.4989 24.1586 31.4989Z" fill="#FBECEE" stroke="#E78E9E"/>
<path d="M37.4892 31.8323C43.7943 31.8324 48.8633 36.9439 48.8115 43.2489C48.7597 49.5536 43.6069 54.6643 37.3019 54.6645C30.9967 54.6645 25.927 49.5538 25.9785 43.2489C26.0303 36.9438 31.1839 31.8323 37.4892 31.8323Z" fill="#FBECEE" stroke="#E78E9E"/>
</g>
<rect x="0.495899" y="0.499983" width="14" height="14" transform="matrix(1 0 -0.00820296 0.999966 22.4876 22.3326)" stroke="#E78E9E"/>
<rect width="15" height="15" transform="matrix(1 0 -0.00820296 0.999966 22.344 39.332)" fill="white"/>
<mask id="mask2_256_3220" style="mask-type:alpha" maskUnits="userSpaceOnUse" x="22" y="39" width="16" height="16">
<rect x="0.495899" y="0.499983" width="14" height="14" transform="matrix(1 0 -0.00820296 0.999966 22.3481 39.332)" fill="#F8F8F8" stroke="#B8B8B8"/>
</mask>
<g mask="url(#mask2_256_3220)">
<path d="M29.7948 45.3318C30.6232 45.3318 31.2893 46.0034 31.2825 46.8318C31.2757 47.6601 30.5986 48.3317 29.7702 48.3317C28.9418 48.3317 28.2757 47.6601 28.2825 46.8318C28.2893 46.0034 28.9664 45.3318 29.7948 45.3318Z" fill="#E7F6EF" stroke="#76CAA5"/>
<rect x="0.435571" y="0.553427" width="16.4893" height="7.83288" transform="matrix(0.992627 0.113331 -0.121485 0.993523 21.6972 45.5765)" fill="#E7F6EF" stroke="#76CAA5"/>
</g>
<rect x="0.495899" y="0.499983" width="14" height="14" transform="matrix(1 0 -0.00820296 0.999966 22.3481 39.332)" stroke="#76CAA5"/>
<ellipse cx="12.7833" cy="47.1167" rx="9.45" ry="9.45" fill="white"/>
<path d="M12.2125 47.6541C12.3833 47.8166 12.3833 48.0833 12.2125 48.2458C12.05 48.4083 11.7833 48.4083 11.6208 48.2458C10.8083 47.4333 10.8083 46.1125 11.6208 45.3L13.0958 43.825C13.9083 43.0125 15.2292 43.0125 16.0417 43.825C16.8542 44.6375 16.8542 45.9583 16.0417 46.7708L15.4208 47.3916C15.425 47.05 15.3708 46.7083 15.2542 46.3833L15.45 46.1833C15.9417 45.6958 15.9417 44.9041 15.45 44.4166C14.9625 43.925 14.1708 43.925 13.6833 44.4166L12.2125 45.8875C11.7208 46.375 11.7208 47.1666 12.2125 47.6541ZM13.3875 45.8875C13.55 45.725 13.8167 45.725 13.9792 45.8875C14.7917 46.7 14.7917 48.0208 13.9792 48.8333L12.5042 50.3083C11.6917 51.1208 10.3708 51.1208 9.55835 50.3083C8.74585 49.4958 8.74585 48.175 9.55835 47.3625L10.1792 46.7416C10.175 47.0833 10.2292 47.425 10.3458 47.7541L10.15 47.95C9.65835 48.4375 9.65835 49.2291 10.15 49.7166C10.6375 50.2083 11.4292 50.2083 11.9167 49.7166L13.3875 48.2458C13.8792 47.7583 13.8792 46.9666 13.3875 46.4791C13.2167 46.3166 13.2167 46.05 13.3875 45.8875Z" fill="#8C8C8C"/>
</g>
<defs>
<clipPath id="clip0_256_3220">
<rect width="60" height="60" fill="white"/>
</clipPath>
</defs>
</svg>
