<svg width="60" height="60" viewBox="0 0 60 60" fill="none" xmlns="http://www.w3.org/2000/svg">
<g clip-path="url(#clip0_256_2862)">
<rect width="20" height="2" transform="matrix(1 0 -0.00820296 0.999966 19.6801 38.9987)" fill="#ABABAB"/>
<rect width="20" height="2" transform="matrix(1 0 -0.00820296 0.999966 19.6473 42.9986)" fill="#ABABAB"/>
<g clip-path="url(#clip1_256_2862)">
<rect width="20" height="20" rx="9.99998" transform="matrix(1 0 -0.00820296 0.999966 19.8756 15.1662)" fill="white"/>
<mask id="mask0_256_2862" style="mask-type:alpha" maskUnits="userSpaceOnUse" x="19" y="15" width="21" height="21">
<rect x="0.495899" y="0.499983" width="19" height="19" rx="9.49998" transform="matrix(1 0 -0.00820296 0.999966 19.8797 15.1662)" fill="#CBF7E1" stroke="#1FC47A"/>
</mask>
<g mask="url(#mask0_256_2862)">
<rect x="0.495899" y="0.499983" width="6.85713" height="6.85713" rx="3.42856" transform="matrix(1 0 -0.00820296 0.999966 25.9248 18.3803)" fill="#F4EDF9" stroke="#C296DA"/>
<mask id="path-6-inside-1_256_2862" fill="white">
<path d="M29.8492 18.3802C32.0189 18.3802 33.7635 20.1391 33.7457 22.3087C33.7456 22.3117 33.7446 22.3146 33.7446 22.3175C33.2367 22.5549 32.6714 22.6896 32.0755 22.6896C29.906 22.6895 28.1613 20.9305 28.1791 18.761C28.1791 18.7577 28.1791 18.7545 28.1791 18.7512C28.6872 18.5137 29.2531 18.3802 29.8492 18.3802Z"/>
</mask>
<path d="M29.8492 18.3802C32.0189 18.3802 33.7635 20.1391 33.7457 22.3087C33.7456 22.3117 33.7446 22.3146 33.7446 22.3175C33.2367 22.5549 32.6714 22.6896 32.0755 22.6896C29.906 22.6895 28.1613 20.9305 28.1791 18.761C28.1791 18.7577 28.1791 18.7545 28.1791 18.7512C28.6872 18.5137 29.2531 18.3802 29.8492 18.3802Z" fill="#FBECEE"/>
<path d="M29.8492 18.3802L29.8574 17.3802H29.8574L29.8492 18.3802ZM33.7457 22.3087L34.7457 22.3087L34.7457 22.3087L33.7457 22.3087ZM33.7446 22.3175L34.162 23.2228L34.738 22.9536L34.7446 22.3197L33.7446 22.3175ZM32.0755 22.6896L32.0673 23.6895H32.0673L32.0755 22.6896ZM28.1791 18.761L27.1791 18.7609L27.1791 18.761H28.1791ZM28.1791 18.7512L27.7617 17.846L27.1859 18.1152L27.1792 18.7487L28.1791 18.7512ZM29.8492 18.3802L29.841 19.3801C31.4584 19.3801 32.7589 20.6914 32.7457 22.3087L33.7457 22.3087L34.7457 22.3087C34.768 19.5869 32.5793 17.3802 29.8574 17.3802L29.8492 18.3802ZM33.7457 22.3087H32.7457C32.7459 22.2816 32.7472 22.2576 32.7488 22.2375C32.7504 22.2175 32.7524 22.2006 32.7541 22.1876C32.7558 22.1748 32.7575 22.1645 32.7585 22.1585C32.759 22.1554 32.7594 22.1529 32.7596 22.1515C32.7599 22.1501 32.76 22.1491 32.76 22.1494C32.76 22.1494 32.7599 22.1498 32.7598 22.1502C32.7598 22.1507 32.7596 22.1514 32.7595 22.1523C32.7592 22.154 32.7587 22.1567 32.7582 22.1601C32.7571 22.1667 32.7554 22.1775 32.7536 22.1909C32.7518 22.2044 32.7497 22.2219 32.748 22.2425C32.7463 22.2631 32.7449 22.2876 32.7446 22.3153L33.7446 22.3175L34.7446 22.3197C34.7443 22.3467 34.743 22.3705 34.7413 22.3904C34.7397 22.4102 34.7377 22.427 34.736 22.4397C34.7343 22.4524 34.7327 22.4625 34.7317 22.4683C34.7313 22.4713 34.7308 22.4737 34.7306 22.4751C34.7304 22.4763 34.7302 22.4773 34.7303 22.4769C34.7303 22.4768 34.7306 22.4754 34.7308 22.4737C34.7312 22.4719 34.7316 22.4691 34.7322 22.4656C34.7333 22.4588 34.7351 22.4478 34.7369 22.4343C34.7387 22.4206 34.7407 22.4029 34.7424 22.3821C34.7441 22.3614 34.7454 22.3366 34.7457 22.3087H33.7457ZM33.7446 22.3175L33.3273 21.4123C32.9477 21.5897 32.5273 21.6896 32.0838 21.6896L32.0755 22.6896L32.0673 23.6895C32.8156 23.6895 33.5257 23.5202 34.162 23.2228L33.7446 22.3175ZM32.0755 22.6896L32.0838 21.6896C30.4664 21.6895 29.1658 20.3782 29.1791 18.761H28.1791H27.1791C27.1567 21.4829 29.3455 23.6894 32.0673 23.6895L32.0755 22.6896ZM28.1791 18.761L29.1791 18.7611C29.1791 18.759 29.1791 18.7563 29.1791 18.7555C29.1791 18.7549 29.1791 18.7544 29.1791 18.7541C29.1791 18.7538 29.1791 18.7537 29.1791 18.7537L28.1791 18.7512L27.1792 18.7487C27.1791 18.752 27.1791 18.7548 27.1791 18.7568C27.1791 18.7592 27.1791 18.7598 27.1791 18.7609L28.1791 18.761ZM28.1791 18.7512L28.5966 19.6565C28.9749 19.4796 29.3958 19.3801 29.841 19.3801L29.8492 18.3802L29.8574 17.3802C29.1104 17.3802 28.3995 17.5478 27.7617 17.846L28.1791 18.7512Z" fill="#E78E9E" mask="url(#path-6-inside-1_256_2862)"/>
<rect x="0.495899" y="0.499983" width="11.1428" height="11.1428" rx="5.57142" transform="matrix(1 0 -0.00820296 0.999966 23.7086 27.3086)" fill="#E7F6EF" stroke="#76CAA5"/>
<rect x="0.495899" y="0.499983" width="19" height="19" rx="9.49998" transform="matrix(1 0 -0.00820296 0.999966 19.8797 15.1662)" stroke="#ABABAB"/>
</g>
</g>
<ellipse cx="12.7833" cy="47.1167" rx="9.45" ry="9.45" fill="white"/>
<path d="M12.2125 47.6542C12.3833 47.8167 12.3833 48.0833 12.2125 48.2458C12.05 48.4083 11.7833 48.4083 11.6208 48.2458C10.8083 47.4333 10.8083 46.1125 11.6208 45.3L13.0958 43.825C13.9083 43.0125 15.2292 43.0125 16.0417 43.825C16.8542 44.6375 16.8542 45.9583 16.0417 46.7708L15.4208 47.3917C15.425 47.05 15.3708 46.7083 15.2542 46.3833L15.45 46.1833C15.9417 45.6958 15.9417 44.9042 15.45 44.4167C14.9625 43.925 14.1708 43.925 13.6833 44.4167L12.2125 45.8875C11.7208 46.375 11.7208 47.1667 12.2125 47.6542ZM13.3875 45.8875C13.55 45.725 13.8167 45.725 13.9792 45.8875C14.7917 46.7 14.7917 48.0208 13.9792 48.8333L12.5042 50.3083C11.6917 51.1208 10.3708 51.1208 9.55835 50.3083C8.74585 49.4958 8.74585 48.175 9.55835 47.3625L10.1792 46.7417C10.175 47.0833 10.2292 47.425 10.3458 47.7542L10.15 47.95C9.65835 48.4375 9.65835 49.2292 10.15 49.7167C10.6375 50.2083 11.4292 50.2083 11.9167 49.7167L13.3875 48.2458C13.8792 47.7583 13.8792 46.9667 13.3875 46.4792C13.2167 46.3167 13.2167 46.05 13.3875 45.8875Z" fill="#8C8C8C"/>
</g>
<defs>
<clipPath id="clip0_256_2862">
<rect width="60" height="60" fill="white"/>
</clipPath>
<clipPath id="clip1_256_2862">
<rect width="20" height="20" fill="white" transform="matrix(1 0 -0.00820296 0.999966 19.8756 15.1662)"/>
</clipPath>
</defs>
</svg>
