<svg width="60" height="60" viewBox="0 0 60 60" fill="none" xmlns="http://www.w3.org/2000/svg">
<g clip-path="url(#clip0_2786_4232)">
<rect width="20" height="2" transform="matrix(1 0 -0.00820296 0.999966 19.6801 38.999)" fill="#BFBFBF"/>
<rect width="20" height="2" transform="matrix(1 0 -0.00820296 0.999966 19.6473 42.9985)" fill="#BFBFBF"/>
<g clip-path="url(#clip1_2786_4232)">
<rect width="20" height="20" rx="9.99998" transform="matrix(1 0 -0.00820296 0.999966 19.8756 15.166)" fill="white"/>
<mask id="mask0_2786_4232" style="mask-type:alpha" maskUnits="userSpaceOnUse" x="19" y="15" width="21" height="21">
<rect x="0.495899" y="0.499983" width="19" height="19" rx="9.49998" transform="matrix(1 0 -0.00820296 0.999966 19.8797 15.166)" fill="#CBF7E1" stroke="#1FC47A"/>
</mask>
<g mask="url(#mask0_2786_4232)">
<rect x="0.495899" y="0.499983" width="6.85713" height="6.85713" rx="3.42856" transform="matrix(1 0 -0.00820296 0.999966 25.9248 18.3804)" fill="#F2EAF7" stroke="#B98BD3"/>
<mask id="path-6-inside-1_2786_4232" fill="white">
<path fill-rule="evenodd" clip-rule="evenodd" d="M28.1795 18.7504C28.1795 18.754 28.1795 18.7577 28.1794 18.7613C28.1616 20.9309 29.9061 22.6897 32.0758 22.6897C32.6716 22.6897 33.2375 22.5571 33.7454 22.3198C33.7454 22.3161 33.7455 22.3125 33.7455 22.3088C33.7633 20.1392 32.0189 18.3804 29.8492 18.3804C29.2534 18.3804 28.6874 18.513 28.1795 18.7504Z"/>
</mask>
<path fill-rule="evenodd" clip-rule="evenodd" d="M28.1795 18.7504C28.1795 18.754 28.1795 18.7577 28.1794 18.7613C28.1616 20.9309 29.9061 22.6897 32.0758 22.6897C32.6716 22.6897 33.2375 22.5571 33.7454 22.3198C33.7454 22.3161 33.7455 22.3125 33.7455 22.3088C33.7633 20.1392 32.0189 18.3804 29.8492 18.3804C29.2534 18.3804 28.6874 18.513 28.1795 18.7504Z" fill="#fbeaed"/>
<path d="M28.1795 18.7504L27.7622 17.8451L27.1864 18.1142L27.1796 18.7477L28.1795 18.7504ZM33.7454 22.3198L34.1627 23.2251L34.7385 22.956L34.7454 22.3224L33.7454 22.3198ZM29.1794 18.7613C29.1795 18.7587 29.1795 18.7559 29.1795 18.753L27.1796 18.7477C27.1795 18.7521 27.1795 18.7566 27.1794 18.7613H29.1794ZM32.084 21.6898C30.4666 21.6898 29.1662 20.3787 29.1794 18.7613H27.1794C27.1571 21.4832 29.3456 23.6897 32.0676 23.6897L32.084 21.6898ZM33.3281 21.4145C32.9509 21.5908 32.53 21.6898 32.084 21.6898L32.0676 23.6897C32.8132 23.6897 33.5242 23.5235 34.1627 23.2251L33.3281 21.4145ZM32.7455 22.3088C32.7455 22.3111 32.7455 22.3138 32.7454 22.3172L34.7454 22.3224C34.7454 22.3185 34.7455 22.3138 34.7455 22.3088H32.7455ZM29.841 19.3803C31.4584 19.3803 32.7588 20.6915 32.7455 22.3088H34.7455C34.7678 19.5869 32.5793 17.3804 29.8574 17.3804L29.841 19.3803ZM28.5968 19.6557C28.9741 19.4794 29.395 19.3803 29.841 19.3803L29.8574 17.3804C29.1117 17.3804 28.4008 17.5467 27.7622 17.8451L28.5968 19.6557Z" fill="#eb8a9a" mask="url(#path-6-inside-1_2786_4232)"/>
<rect x="0.495899" y="0.499983" width="11.1428" height="11.1428" rx="5.57142" transform="matrix(1 0 -0.00820296 0.999966 23.7086 27.3086)" fill="#e4f8ef" stroke="#6bd8a7"/>
<rect x="0.495899" y="0.499983" width="19" height="19" rx="9.49998" transform="matrix(1 0 -0.00820296 0.999966 19.8797 15.166)" stroke="#BFBFBF"/>
</g>
</g>
<circle cx="12.65" cy="47.3831" r="9.45" fill="white"/>
<path d="M12.0792 47.9205C12.25 48.083 12.25 48.3496 12.0792 48.5121C11.9167 48.6746 11.65 48.6746 11.4875 48.5121C10.675 47.6996 10.675 46.3788 11.4875 45.5663L12.9625 44.0913C13.775 43.2788 15.0959 43.2788 15.9084 44.0913C16.7209 44.9038 16.7209 46.2246 15.9084 47.0371L15.2875 47.658C15.2917 47.3163 15.2375 46.9746 15.1209 46.6496L15.3167 46.4496C15.8084 45.9621 15.8084 45.1705 15.3167 44.683C14.8292 44.1913 14.0375 44.1913 13.55 44.683L12.0792 46.1538C11.5875 46.6413 11.5875 47.433 12.0792 47.9205ZM13.2542 46.1538C13.4167 45.9913 13.6834 45.9913 13.8459 46.1538C14.6584 46.9663 14.6584 48.2871 13.8459 49.0996L12.3709 50.5746C11.5584 51.3871 10.2375 51.3871 9.42505 50.5746C8.61255 49.7621 8.61255 48.4413 9.42505 47.6288L10.0459 47.008C10.0417 47.3496 10.0959 47.6913 10.2125 48.0205L10.0167 48.2163C9.52505 48.7038 9.52505 49.4955 10.0167 49.983C10.5042 50.4746 11.2959 50.4746 11.7834 49.983L13.2542 48.5121C13.7459 48.0246 13.7459 47.233 13.2542 46.7455C13.0834 46.583 13.0834 46.3163 13.2542 46.1538Z" fill="#BFBFBF"/>
</g>
<defs>
<clipPath id="clip0_2786_4232">
<rect width="60" height="60" fill="white"/>
</clipPath>
<clipPath id="clip1_2786_4232">
<rect width="20" height="20" fill="white" transform="matrix(1 0 -0.00820296 0.999966 19.8756 15.166)"/>
</clipPath>
</defs>
</svg>
