<svg width="60" height="60" viewBox="0 0 60 60" fill="none" xmlns="http://www.w3.org/2000/svg">
<g clip-path="url(#clip0_2786_4163)">
<rect width="20" height="20" transform="matrix(1 0 -0.00820296 0.999966 19.877 14.9995)" fill="white"/>
<mask id="mask0_2786_4163" style="mask-type:alpha" maskUnits="userSpaceOnUse" x="19" y="14" width="21" height="21">
<rect x="0.495899" y="0.499983" width="19" height="19" transform="matrix(1 0 -0.00820296 0.999966 19.8811 14.9995)" fill="#F8F8F8" stroke="#B8B8B8"/>
</mask>
<g mask="url(#mask0_2786_4163)">
<circle cx="2.66667" cy="2.66667" r="2.16667" transform="matrix(1 0 -0.00820296 0.999966 30.7349 18.7773)" fill="#FCEDD4" stroke="#F2BC5E"/>
<rect x="24.3034" y="37.6206" width="10.5431" height="10.4488" rx="2.5" transform="rotate(-44.765 24.3034 37.6206)" fill="#E7ECF6" stroke="#7A97CE"/>
<rect x="16.6916" y="33.9282" width="10.5431" height="15.0984" rx="2.5" transform="rotate(-44.765 16.6916 33.9282)" fill="#E7ECF6" stroke="#7A97CE"/>
</g>
<rect x="0.495899" y="0.499983" width="19" height="19" transform="matrix(1 0 -0.00820296 0.999966 19.8811 14.9995)" stroke="#7A97CE"/>
<rect width="20" height="2" transform="matrix(1 0 -0.00820296 0.999966 19.6801 38.999)" fill="#BFBFBF"/>
<rect width="20" height="2" transform="matrix(1 0 -0.00820296 0.999966 19.6473 42.9985)" fill="#BFBFBF"/>
<circle cx="12.65" cy="47.3831" r="9.45" fill="white"/>
<path d="M12.0792 47.9205C12.25 48.083 12.25 48.3496 12.0792 48.5121C11.9167 48.6746 11.65 48.6746 11.4875 48.5121C10.675 47.6996 10.675 46.3788 11.4875 45.5663L12.9625 44.0913C13.775 43.2788 15.0959 43.2788 15.9084 44.0913C16.7209 44.9038 16.7209 46.2246 15.9084 47.0371L15.2875 47.658C15.2917 47.3163 15.2375 46.9746 15.1209 46.6496L15.3167 46.4496C15.8084 45.9621 15.8084 45.1705 15.3167 44.683C14.8292 44.1913 14.0375 44.1913 13.55 44.683L12.0792 46.1538C11.5875 46.6413 11.5875 47.433 12.0792 47.9205ZM13.2542 46.1538C13.4167 45.9913 13.6834 45.9913 13.8459 46.1538C14.6584 46.9663 14.6584 48.2871 13.8459 49.0996L12.3709 50.5746C11.5584 51.3871 10.2375 51.3871 9.42505 50.5746C8.61255 49.7621 8.61255 48.4413 9.42505 47.6288L10.0459 47.008C10.0417 47.3496 10.0959 47.6913 10.2125 48.0205L10.0167 48.2163C9.52505 48.7038 9.52505 49.4955 10.0167 49.983C10.5042 50.4746 11.2959 50.4746 11.7834 49.983L13.2542 48.5121C13.7459 48.0246 13.7459 47.233 13.2542 46.7455C13.0834 46.583 13.0834 46.3163 13.2542 46.1538Z" fill="#BFBFBF"/>
</g>
<defs>
<clipPath id="clip0_2786_4163">
<rect width="60" height="60" fill="white"/>
</clipPath>
</defs>
</svg>
