<svg width="60" height="60" viewBox="0 0 60 60" fill="none" xmlns="http://www.w3.org/2000/svg">
<g clip-path="url(#clip0_256_3737)">
<path d="M29.8318 20.4993C35.0785 20.4993 39.2969 24.7524 39.2539 29.9989C39.2109 35.2455 34.9227 39.4986 29.676 39.4986C24.4293 39.4986 20.2109 35.2455 20.2539 29.9989C20.2969 24.7524 24.5851 20.4993 29.8318 20.4993Z" fill="#ECF1FB" stroke="#8FADEA"/>
<path d="M33.8704 25.5191C33.9512 25.5176 34.0601 25.5268 34.1748 25.5542C34.2864 25.5809 34.4411 25.6345 34.5795 25.7476C34.8249 25.948 34.8773 26.2127 34.8951 26.3218C34.9124 26.4281 34.9325 26.6518 34.9123 26.8471C34.7462 28.4538 34.0597 32.3121 33.7143 34.0813C33.5586 34.878 33.1994 35.4541 32.5736 35.5119C32.1354 35.5522 31.7727 35.4021 31.4773 35.2277C31.3312 35.1414 31.1907 35.0426 31.0616 34.9504C30.9275 34.8546 30.8059 34.7654 30.6761 34.6799C30.2346 34.3889 29.8891 34.1527 29.5496 33.9201C29.2101 33.6877 28.8772 33.459 28.456 33.1799C28.1846 33.0001 27.9567 32.7989 27.8303 32.553C27.6855 32.2711 27.7016 31.9867 27.8116 31.7405C27.9063 31.5288 28.067 31.3538 28.1957 31.2239C28.264 31.155 28.3379 31.0844 28.4054 31.0199C28.4751 30.9531 28.5414 30.8893 28.6052 30.8236C28.6318 30.7962 28.7205 30.7154 28.8483 30.597C28.4481 30.8644 28.0066 31.1605 27.5236 31.4847L27.5227 31.4837C27.0763 31.7878 26.6121 31.9801 26.1447 31.97C25.9056 31.9648 25.5981 31.9023 25.3157 31.8313C25.0216 31.7575 24.7111 31.6636 24.4496 31.5784C24.1762 31.4893 23.835 31.393 23.5976 31.2777C23.4728 31.217 23.3201 31.1255 23.2036 30.9808C23.0713 30.8166 23.0073 30.6094 23.0376 30.3832C23.0771 30.089 23.2811 29.8904 23.443 29.7709C23.6146 29.6442 23.8361 29.5346 24.0854 29.4349L27.7448 27.8539C28.7216 27.4347 29.4556 27.1226 29.9459 26.9194C31.3368 26.3429 32.1885 25.9993 32.7412 25.7993C33.2852 25.6025 33.5925 25.524 33.8704 25.5191Z" fill="white" stroke="#8FADEA"/>
</g>
<defs>
<clipPath id="clip0_256_3737">
<rect width="60" height="60" fill="white"/>
</clipPath>
</defs>
</svg>
