<svg width="60" height="60" viewBox="0 0 60 60" fill="none" xmlns="http://www.w3.org/2000/svg">
<g clip-path="url(#clip0_180_1106)">
<mask id="path-1-inside-1_180_1106" fill="white">
<path d="M29.6719 39.9986C35.1947 39.9986 39.7086 35.5216 39.7539 29.9989C39.7992 24.4763 35.3588 19.9993 29.8359 19.9993C24.3131 19.9993 19.7992 24.4763 19.7539 29.9989C19.7086 35.5216 24.149 39.9986 29.6719 39.9986Z"/>
</mask>
<path d="M29.6719 39.9986C35.1947 39.9986 39.7086 35.5216 39.7539 29.9989C39.7992 24.4763 35.3588 19.9993 29.8359 19.9993C24.3131 19.9993 19.7992 24.4763 19.7539 29.9989C19.7086 35.5216 24.149 39.9986 29.6719 39.9986Z" fill="#AEC4EE" stroke="#638CDF" stroke-width="2" mask="url(#path-1-inside-1_180_1106)"/>
<path fill-rule="evenodd" clip-rule="evenodd" d="M24.2813 29.8934C27.2069 28.6233 29.1577 27.786 30.1337 27.3814C32.9203 26.2264 33.499 26.0257 33.8752 26.0191C33.9579 26.0177 34.1427 26.0382 34.2617 26.1354C34.3622 26.2175 34.3891 26.3283 34.4018 26.4062C34.4145 26.484 34.4296 26.6613 34.4153 26.7998C34.2518 28.381 33.5692 32.2181 33.2234 33.9891C33.077 34.7384 32.799 34.9897 32.5315 35.0143C31.9504 35.0677 31.513 34.6305 30.9536 34.2618C30.0782 33.6849 29.5839 33.3258 28.7342 32.7628C27.7522 32.1122 28.3952 31.7546 28.9627 31.1702C29.1112 31.0173 31.6889 28.6901 31.7402 28.479C31.7466 28.4526 31.7531 28.3541 31.6951 28.3022C31.637 28.2502 31.5506 28.268 31.4882 28.2821C31.3998 28.3021 29.9861 29.2314 27.2473 31.07C26.8459 31.344 26.4834 31.4776 26.1595 31.4706C25.8026 31.4628 25.1173 31.2687 24.6081 31.1027C23.9835 30.8992 23.4867 30.7915 23.5328 30.4458C23.5569 30.2658 23.8064 30.0816 24.2813 29.8934Z" fill="white"/>
</g>
<defs>
<clipPath id="clip0_180_1106">
<rect width="60" height="60" fill="white"/>
</clipPath>
</defs>
</svg>
