<svg width="60" height="60" viewBox="0 0 60 60" fill="none" xmlns="http://www.w3.org/2000/svg">
<g clip-path="url(#clip0_2786_4362)">
<rect width="20" height="20" transform="matrix(1 0 -0.00820296 0.999966 19.877 14.9995)" fill="white"/>
<mask id="mask0_2786_4362" style="mask-type:alpha" maskUnits="userSpaceOnUse" x="19" y="14" width="21" height="21">
<rect x="0.495899" y="0.499983" width="19" height="19" transform="matrix(1 0 -0.00820296 0.999966 19.8811 14.9995)" fill="#F8F8F8" stroke="#B8B8B8"/>
</mask>
<g mask="url(#mask0_2786_4362)">
<circle cx="2.66667" cy="2.66667" r="2.16667" transform="matrix(1 0 -0.00820296 0.999966 30.7349 18.7773)" fill="#FCEDD4" stroke="#F2BC5E"/>
<rect x="24.3034" y="37.6206" width="10.5431" height="10.4488" rx="2.5" transform="rotate(-44.765 24.3034 37.6206)" fill="#E7ECF6" stroke="#7A97CE"/>
<rect x="16.6916" y="33.9282" width="10.5431" height="15.0984" rx="2.5" transform="rotate(-44.765 16.6916 33.9282)" fill="#E7ECF6" stroke="#7A97CE"/>
</g>
<rect x="0.495899" y="0.499983" width="19" height="19" transform="matrix(1 0 -0.00820296 0.999966 19.8811 14.9995)" stroke="#7A97CE"/>
<rect width="20" height="2" transform="matrix(1 0 -0.00820296 0.999966 19.6801 38.999)" fill="#BFBFBF"/>
<rect width="20" height="2" transform="matrix(1 0 -0.00820296 0.999966 19.6473 42.9985)" fill="#BFBFBF"/>
</g>
<defs>
<clipPath id="clip0_2786_4362">
<rect width="60" height="60" fill="white"/>
</clipPath>
</defs>
</svg>
