<svg width="60" height="60" viewBox="0 0 60 60" fill="none" xmlns="http://www.w3.org/2000/svg">
<g clip-path="url(#clip0_2786_3104)">
<path d="M31.6883 37.1432L26.3972 22.3325H23.4392L17.6953 37.1432H20.5694L21.7936 33.6818H27.6468L28.7932 37.1432H31.6883ZM22.4612 31.584C23.7916 27.9547 24.3282 26.4862 24.8229 24.9968C25.4975 27.1575 26.1942 29.1715 27.0136 31.584H22.4612Z" fill="#6B6B6B"/>
<path d="M38.9584 30.619C37.3002 30.7238 35.2838 31.0175 34.2521 31.4791C33.0097 32.0455 32.3311 32.9266 32.3201 34.2692C32.3048 36.1362 33.6376 37.332 35.5467 37.332C37.0362 37.332 38.1734 36.8076 38.9785 35.8426C38.9759 36.1572 39.0965 36.8076 39.1776 37.1432H41.5483C41.3426 36.6397 41.2671 35.6118 41.2773 34.3741L41.3088 30.535C41.3222 28.8987 41.0985 28.0386 40.4531 27.4302C39.7663 26.7589 38.7621 26.4233 37.3355 26.4233C34.6712 26.4233 32.9825 27.682 32.7961 29.9476L35.144 30.1574C35.2794 29.0036 35.8511 28.3533 37.1309 28.3533C37.7812 28.3533 38.2835 28.5001 38.5748 28.7938C38.8453 29.0666 38.9679 29.4651 38.9631 30.0525L38.9584 30.619ZM38.941 32.7378C38.9152 33.3252 38.8055 33.9125 38.4659 34.395C37.9987 35.0873 37.2192 35.4859 36.2751 35.4859C35.1842 35.4859 34.6854 34.9195 34.6916 34.1643C34.6964 33.5769 34.9514 33.1783 35.6042 32.8846C36.3414 32.528 37.7487 32.3182 38.945 32.2553L38.941 32.7378Z" fill="#6B6B6B"/>
</g>
<defs>
<clipPath id="clip0_2786_3104">
<rect width="60" height="60" fill="white"/>
</clipPath>
</defs>
</svg>
