<svg width="60" height="60" viewBox="0 0 60 60" fill="none" xmlns="http://www.w3.org/2000/svg">
<g clip-path="url(#clip0_256_2839)">
<path d="M31.6883 37.1433L26.3972 22.3326H23.4392L17.6953 37.1433H20.5694L21.7936 33.6819H27.6468L28.7932 37.1433H31.6883ZM22.4612 31.5841C23.7916 27.9548 24.3282 26.4863 24.8229 24.9969C25.4975 27.1577 26.1942 29.1716 27.0136 31.5841H22.4612Z" fill="#8C8C8C"/>
<path d="M38.9584 30.6191C37.3002 30.724 35.2838 31.0177 34.2521 31.4792C33.0097 32.0456 32.3311 32.9267 32.3201 34.2693C32.3048 36.1364 33.6376 37.3321 35.5467 37.3321C37.0362 37.3321 38.1734 36.8077 38.9785 35.8427C38.9759 36.1573 39.0965 36.8077 39.1776 37.1433H41.5483C41.3426 36.6399 41.2671 35.6119 41.2773 34.3742L41.3088 30.5352C41.3222 28.8989 41.0985 28.0387 40.4531 27.4304C39.7663 26.7591 38.7621 26.4234 37.3355 26.4234C34.6712 26.4234 32.9825 27.6821 32.7961 29.9478L35.144 30.1576C35.2794 29.0037 35.8511 28.3534 37.1309 28.3534C37.7812 28.3534 38.2835 28.5003 38.5748 28.794C38.8453 29.0667 38.9679 29.4653 38.9631 30.0527L38.9584 30.6191ZM38.941 32.7379C38.9152 33.3253 38.8055 33.9127 38.4659 34.3952C37.9987 35.0875 37.2192 35.486 36.2751 35.486C35.1842 35.486 34.6854 34.9196 34.6916 34.1644C34.6964 33.577 34.9514 33.1784 35.6042 32.8847C36.3414 32.5281 37.7487 32.3183 38.945 32.2554L38.941 32.7379Z" fill="#8C8C8C"/>
</g>
<defs>
<clipPath id="clip0_256_2839">
<rect width="60" height="60" fill="white"/>
</clipPath>
</defs>
</svg>
