<svg width="60" height="60" viewBox="0 0 60 60" fill="none" xmlns="http://www.w3.org/2000/svg">
<g clip-path="url(#clip0_256_2498)">
<path d="M31.0426 34.8729L27.5152 24.9991H25.5432L21.7139 34.8729H23.63L24.4461 32.5653H28.3482L29.1125 34.8729H31.0426ZM24.8912 31.1668C25.7782 28.7473 26.1358 27.7683 26.4657 26.7753C26.9154 28.2158 27.3799 29.5584 27.9261 31.1668H24.8912Z" fill="#8C8C8C"/>
<path d="M35.8894 30.5234C34.7839 30.5934 33.4396 30.7892 32.7518 31.0968C31.9235 31.4745 31.4711 32.0618 31.4638 32.9569C31.4536 34.2016 32.3422 34.9988 33.6149 34.9988C34.6079 34.9988 35.366 34.6492 35.9027 34.0058C35.901 34.2156 35.9814 34.6492 36.0355 34.8729H37.6159C37.4788 34.5373 37.4285 33.852 37.4353 33.0268L37.4562 30.4675C37.4652 29.3766 37.3161 28.8032 36.8858 28.3976C36.4279 27.9501 35.7585 27.7263 34.8074 27.7263C33.0312 27.7263 31.9054 28.5655 31.7811 30.0759L33.3464 30.2158C33.4367 29.4465 33.8178 29.013 34.671 29.013C35.1045 29.013 35.4394 29.1109 35.6336 29.3067C35.8139 29.4885 35.8957 29.7542 35.8925 30.1458L35.8894 30.5234ZM35.8778 31.936C35.8606 32.3276 35.7874 32.7192 35.561 33.0408C35.2495 33.5024 34.7299 33.7681 34.1005 33.7681C33.3732 33.7681 33.0407 33.3905 33.0448 32.887C33.048 32.4954 33.218 32.2297 33.6532 32.0339C34.1447 31.7961 35.0829 31.6563 35.8804 31.6143L35.8778 31.936Z" fill="#8C8C8C"/>
</g>
<defs>
<clipPath id="clip0_256_2498">
<rect width="60" height="60" fill="white"/>
</clipPath>
</defs>
</svg>
