<svg width="60" height="60" viewBox="0 0 60 60" fill="none" xmlns="http://www.w3.org/2000/svg">
<g clip-path="url(#clip0_2786_2783)">
<path d="M31.5318 37.332L26.1733 22.3325H23.1775L17.3604 37.332H20.2712L21.511 33.8265H27.4387L28.5998 37.332H31.5318ZM22.1871 31.7019C23.5345 28.0264 24.0778 26.5392 24.5789 25.0307C25.2621 27.219 25.9677 29.2586 26.7975 31.7019H22.1871Z" fill="#6B6B6B"/>
<path d="M41.924 37.332L37.9944 26.3324H35.7975L31.5316 37.332H33.6662L34.5754 34.7613H38.9224L39.7738 37.332H41.924ZM35.0712 33.2033C36.0593 30.5079 36.4578 29.4173 36.8252 28.3111C37.3262 29.9158 37.8437 31.4115 38.4522 33.2033H35.0712Z" fill="#6B6B6B"/>
</g>
<defs>
<clipPath id="clip0_2786_2783">
<rect width="60" height="60" fill="white"/>
</clipPath>
</defs>
</svg>
