<svg width="60" height="60" viewBox="0 0 60 60" fill="none" xmlns="http://www.w3.org/2000/svg">
<g clip-path="url(#clip0_2786_2799)">
<path d="M31.0426 34.8728L27.5152 24.999H25.5432L21.7139 34.8728H23.63L24.4461 32.5652H28.3482L29.1125 34.8728H31.0426ZM24.8912 31.1666C25.7782 28.7471 26.1358 27.7682 26.4657 26.7752C26.9154 28.2157 27.3799 29.5583 27.9261 31.1666H24.8912Z" fill="#6B6B6B"/>
<path d="M35.8894 30.5233C34.7839 30.5932 33.4396 30.789 32.7518 31.0967C31.9235 31.4743 31.4711 32.0617 31.4638 32.9568C31.4536 34.2015 32.3422 34.9987 33.6149 34.9987C34.6079 34.9987 35.366 34.649 35.9027 34.0057C35.901 34.2155 35.9814 34.649 36.0355 34.8728H37.6159C37.4788 34.5372 37.4285 33.8519 37.4353 33.0267L37.4562 30.4674C37.4652 29.3765 37.3161 28.8031 36.8858 28.3975C36.4279 27.95 35.7585 27.7262 34.8074 27.7262C33.0312 27.7262 31.9054 28.5653 31.7811 30.0758L33.3464 30.2156C33.4367 29.4464 33.8178 29.0129 34.671 29.0129C35.1045 29.0129 35.4394 29.1108 35.6336 29.3066C35.8139 29.4884 35.8957 29.7541 35.8925 30.1457L35.8894 30.5233ZM35.8778 31.9359C35.8606 32.3274 35.7874 32.719 35.561 33.0407C35.2495 33.5022 34.7299 33.768 34.1005 33.768C33.3732 33.768 33.0407 33.3904 33.0448 32.8869C33.048 32.4953 33.218 32.2295 33.6532 32.0338C34.1447 31.796 35.0829 31.6561 35.8804 31.6142L35.8778 31.9359Z" fill="#6B6B6B"/>
</g>
<defs>
<clipPath id="clip0_2786_2799">
<rect width="60" height="60" fill="white"/>
</clipPath>
</defs>
</svg>
