<svg width="60" height="60" viewBox="0 0 60 60" fill="none" xmlns="http://www.w3.org/2000/svg">
<g clip-path="url(#clip0_256_2490)">
<path d="M32.0319 37.0814L26.9928 22.3326H21.561L16.0292 37.0814H20.9177L21.6685 34.6999H26.3481L27.0598 37.0814H32.0319ZM22.5307 31.4619C23.2164 29.3728 23.6676 27.8478 24.119 26.3019C24.5032 27.8478 24.9087 29.3519 25.5182 31.4619H22.5307Z" fill="#8C8C8C"/>
<path d="M39.3455 35.9325C39.3419 36.3712 39.4224 36.7472 39.4823 37.0814H43.4726C43.2471 36.5592 43.193 35.5146 43.2029 34.303L43.2353 30.3547C43.2493 28.6416 42.9642 27.7433 42.1964 27.1166C41.3666 26.4063 40.0322 26.0721 38.3818 26.0721C34.8512 26.0721 33.315 27.43 33.0233 29.8742L36.8233 30.1457C36.9129 29.4146 37.2509 28.955 38.0657 28.955C38.8805 28.955 39.233 29.2683 39.2276 29.9368L39.2241 30.3547C37.9696 30.48 35.8368 30.7098 34.5159 31.2947C33.2158 31.8797 32.5195 32.7153 32.5081 34.115C32.4919 36.0787 33.7769 37.3321 35.887 37.3321C37.3285 37.3321 38.4388 36.9561 39.3455 35.9325ZM39.2043 32.778C39.1953 33.8643 38.4797 34.5119 37.4143 34.5119C36.704 34.5119 36.4774 34.115 36.4803 33.7598C36.4832 33.4047 36.6105 33.1749 36.9461 33.0078C37.4283 32.7989 38.2655 32.6108 39.2063 32.5273L39.2043 32.778Z" fill="#8C8C8C"/>
</g>
<defs>
<clipPath id="clip0_256_2490">
<rect width="60" height="60" fill="white"/>
</clipPath>
</defs>
</svg>
