<svg width="60" height="60" viewBox="0 0 60 60" fill="none" xmlns="http://www.w3.org/2000/svg">
<g clip-path="url(#clip0_2786_2791)">
<path d="M30.3996 32.2694L28.6359 27.3325H27.6499L25.7353 32.2694H26.6933L27.1014 31.1156H29.0524L29.4346 32.2694H30.3996ZM27.3239 30.4163C27.7674 29.2066 27.9462 28.7171 28.1111 28.2206C28.336 28.9409 28.5682 29.6122 28.8414 30.4163H27.3239Z" fill="#6B6B6B"/>
<path d="M32.823 30.0947C32.2702 30.1296 31.5981 30.2275 31.2542 30.3814C30.8401 30.5702 30.6139 30.8639 30.6102 31.3114C30.6051 31.9338 31.0494 32.3323 31.6857 32.3323C32.1822 32.3323 32.5613 32.1575 32.8297 31.8359C32.8288 31.9408 32.869 32.1575 32.896 32.2694H33.6863C33.6177 32.1016 33.5925 31.7589 33.5959 31.3464L33.6064 30.0667C33.6109 29.5213 33.5363 29.2346 33.3212 29.0318C33.0923 28.808 32.7575 28.6961 32.282 28.6961C31.3939 28.6961 30.831 29.1157 30.7689 29.8709L31.5515 29.9408C31.5966 29.5562 31.7872 29.3394 32.2138 29.3394C32.4306 29.3394 32.598 29.3884 32.6951 29.4863C32.7853 29.5772 32.8261 29.7101 32.8245 29.9059L32.823 30.0947ZM32.8172 30.8009C32.8086 30.9967 32.772 31.1925 32.6588 31.3534C32.5031 31.5841 32.2432 31.717 31.9285 31.717C31.5649 31.717 31.3986 31.5282 31.4007 31.2764C31.4023 31.0806 31.4873 30.9478 31.7049 30.8499C31.9506 30.731 32.4197 30.6611 32.8185 30.6401L32.8172 30.8009Z" fill="#6B6B6B"/>
</g>
<defs>
<clipPath id="clip0_2786_2791">
<rect width="60" height="60" fill="white"/>
</clipPath>
</defs>
</svg>
