<svg width="60" height="60" viewBox="0 0 60 60" fill="none" xmlns="http://www.w3.org/2000/svg">
<g clip-path="url(#clip0_256_2897)">
<path d="M30.3996 32.2693L28.6359 27.3324H27.6499L25.7353 32.2693H26.6933L27.1014 31.1155H29.0524L29.4346 32.2693H30.3996ZM27.3239 30.4162C27.7674 29.2065 27.9462 28.717 28.1111 28.2205C28.336 28.9407 28.5682 29.612 28.8414 30.4162H27.3239Z" fill="#8C8C8C"/>
<path d="M32.823 30.0945C32.2702 30.1295 31.5981 30.2274 31.2542 30.3812C30.8401 30.57 30.6139 30.8637 30.6102 31.3113C30.6051 31.9336 31.0494 32.3322 31.6857 32.3322C32.1822 32.3322 32.5613 32.1574 32.8297 31.8357C32.8288 31.9406 32.869 32.1574 32.896 32.2693H33.6863C33.6177 32.1015 33.5925 31.7588 33.5959 31.3462L33.6064 30.0666C33.6109 29.5211 33.5363 29.2344 33.3212 29.0316C33.0923 28.8079 32.7575 28.696 32.282 28.696C31.3939 28.696 30.831 29.1156 30.7689 29.8708L31.5515 29.9407C31.5966 29.5561 31.7872 29.3393 32.2138 29.3393C32.4306 29.3393 32.598 29.3883 32.6951 29.4862C32.7853 29.5771 32.8261 29.7099 32.8245 29.9057L32.823 30.0945ZM32.8172 30.8008C32.8086 30.9966 32.772 31.1924 32.6588 31.3532C32.5031 31.584 32.2432 31.7169 31.9285 31.7169C31.5649 31.7169 31.3986 31.5281 31.4007 31.2763C31.4023 31.0805 31.4873 30.9477 31.7049 30.8498C31.9506 30.7309 32.4197 30.661 32.8185 30.64L32.8172 30.8008Z" fill="#8C8C8C"/>
</g>
<defs>
<clipPath id="clip0_256_2897">
<rect width="60" height="60" fill="white"/>
</clipPath>
</defs>
</svg>
