<svg width="60" height="60" viewBox="0 0 60 60" fill="none" xmlns="http://www.w3.org/2000/svg">
<g clip-path="url(#clip0_256_3372)">
<path d="M31.5318 37.3321L26.1733 22.3326H23.1775L17.3604 37.3321H20.2712L21.511 33.8266H27.4387L28.5998 37.3321H31.5318ZM22.1871 31.702C23.5345 28.0265 24.0778 26.5393 24.5789 25.0309C25.2621 27.2192 25.9677 29.2588 26.7975 31.702H22.1871Z" fill="#8C8C8C"/>
<path d="M41.924 37.3321L37.9944 26.3325H35.7975L31.5316 37.3321H33.6662L34.5754 34.7614H38.9224L39.7738 37.3321H41.924ZM35.0712 33.2034C36.0593 30.508 36.4578 29.4174 36.8252 28.3112C37.3262 29.916 37.8437 31.4117 38.4522 33.2034H35.0712Z" fill="#8C8C8C"/>
</g>
<defs>
<clipPath id="clip0_256_3372">
<rect width="60" height="60" fill="white"/>
</clipPath>
</defs>
</svg>
