<svg width="60" height="60" viewBox="0 0 60 60" fill="none" xmlns="http://www.w3.org/2000/svg">
<g clip-path="url(#clip0_256_3410)">
<path d="M33.2569 20.4993C33.2655 20.6216 33.2805 20.761 33.3043 20.9143L33.3043 20.9182C33.4152 21.5928 33.7212 22.5588 34.537 23.507L34.5428 23.5148L34.5486 23.5216C34.8735 23.8716 35.2453 24.1874 35.6415 24.4493L35.6415 24.4503C35.7889 24.549 35.9457 24.6333 36.0769 24.7042L36.0837 24.7081L36.0896 24.711C36.7664 25.0504 37.4465 25.2246 37.9588 25.2921L37.9391 27.6963C37.8883 27.6916 37.8346 27.6884 37.7791 27.6826C37.3763 27.6406 36.8817 27.5708 36.4713 27.4609C35.8871 27.3035 35.4064 27.1044 35.0732 26.9453C34.9068 26.8659 34.7776 26.7972 34.692 26.749C34.6493 26.725 34.6171 26.7056 34.5968 26.6934C34.5918 26.6904 34.5877 26.6877 34.5841 26.6856L34.5822 26.6846C34.5811 26.6839 34.5792 26.6829 34.5773 26.6817C34.5733 26.6789 34.5672 26.675 34.5598 26.6699C34.5446 26.6596 34.5229 26.6448 34.4967 26.627C34.4442 26.5913 34.3734 26.5428 34.3015 26.4942C34.2302 26.446 34.1565 26.3966 34.0976 26.3575C34.0682 26.338 34.0407 26.3197 34.0189 26.3057C34.0098 26.2999 33.9701 26.2734 33.9353 26.2559L33.2146 25.8946L33.1503 33.742C33.1473 34.0915 33.0419 35.0066 32.75 35.7497C32.4936 36.396 32.1325 36.9924 31.677 37.5104L31.6711 37.5172L31.6661 37.5231L31.6622 37.528C31.658 37.5329 31.6504 37.5411 31.6405 37.5524C31.6206 37.575 31.5891 37.6097 31.5469 37.6539C31.4621 37.7429 31.3336 37.8705 31.165 38.0172C30.8688 38.2749 30.4534 38.5882 29.9364 38.859L29.7089 38.9723C28.5971 39.4967 27.6268 39.4872 27.3023 39.4976H27.2984C27.2965 39.4977 27.2932 39.4985 27.2886 39.4986C27.2782 39.4988 27.2608 39.4987 27.2378 39.4986C27.1918 39.4984 27.1213 39.4967 27.0308 39.4918C26.8495 39.482 26.5885 39.4587 26.2786 39.4019C25.6639 39.2893 24.8741 39.049 24.1313 38.5504L23.3148 37.7282L23.3135 37.8864C23.1581 37.7359 23.0091 37.5787 22.8692 37.4127L22.7193 37.2272C22.2733 36.6503 21.9854 35.9476 21.894 35.6999L21.8873 35.6765C21.7669 35.2854 21.5176 34.399 21.5619 33.5662C21.6428 32.0337 22.1573 31.111 22.278 30.9071L22.282 30.9003C22.6462 30.2607 23.1041 29.6936 23.6531 29.2245C24.8091 28.2617 26.2801 27.7785 27.76 27.8594L27.7402 30.2763C27.6088 30.26 27.4758 30.2489 27.342 30.2489C25.4543 30.2492 23.928 31.7912 23.9126 33.6687C23.8971 35.559 25.411 37.0883 27.2859 37.0885C27.8721 37.0885 28.4386 36.9405 28.9555 36.6471L28.9565 36.6481C29.9503 36.0871 30.6074 35.0727 30.7024 33.9353L30.7045 33.9168L30.7055 33.7937C30.7168 33.6094 30.7183 33.4275 30.7196 33.2615L30.8243 20.4993H33.2569Z" fill="#FBECEE" stroke="#E78E9E"/>
</g>
<defs>
<clipPath id="clip0_256_3410">
<rect width="60" height="60" fill="white"/>
</clipPath>
</defs>
</svg>
