<svg width="60" height="60" viewBox="0 0 60 60" fill="none" xmlns="http://www.w3.org/2000/svg">
<g clip-path="url(#clip0_2786_2825)">
<path d="M19.702 36.3267C21.8299 36.5034 23.742 36.0696 25.4083 34.8322C24.7796 34.559 24.1348 34.334 23.5697 33.9966C22.8477 33.5627 22.3326 32.9038 22.0239 32.0843C21.9158 31.795 21.9798 31.6825 22.2952 31.6986C22.6263 31.7147 22.9734 31.6986 23.3209 31.6343C23.0853 31.5218 22.8337 31.4254 22.5983 31.2808C21.2955 30.5094 20.5795 29.3364 20.5294 27.7615C20.5158 27.4883 20.6733 27.5205 20.8463 27.5848C21.2238 27.7133 21.6011 27.8579 22.0104 27.9544C20.4466 26.3152 20.1776 24.4994 21.1574 22.346C23.3754 24.9975 26.0601 26.5081 29.4492 26.7652C29.453 26.2992 29.4249 25.8814 29.4598 25.4796C29.7478 23.0531 31.7167 21.4622 34.1123 21.6872C34.9161 21.7675 35.6712 22.0086 36.2341 22.6031C36.5782 22.9567 36.9251 22.9727 37.3209 22.796C37.8273 22.5871 38.3339 22.3621 38.8561 22.1532C38.9669 22.105 39.0618 22.0728 39.2675 21.9925C39.0706 22.9245 38.5451 23.5352 37.9413 24.0815C37.9568 24.1137 37.9721 24.1619 37.9876 24.194C38.5727 24.0173 39.1576 23.8566 39.7427 23.6798C39.7582 23.7119 39.7894 23.7441 39.8051 23.7602C39.7093 23.9048 39.6133 24.0655 39.5018 24.194C39.0403 24.6922 38.5788 25.1904 38.0861 25.6564C37.8635 25.8653 37.7515 26.0581 37.749 26.3635C37.7913 28.9025 36.9997 31.1844 35.5947 33.2574C33.8065 35.8928 31.3797 37.548 28.2836 38.1104C25.377 38.6407 22.6043 38.239 20.046 36.6963C19.9517 36.6481 19.8734 36.5838 19.7793 36.5195C19.7636 36.5034 19.764 36.4552 19.702 36.3267Z" fill="#E2F6F6"/>
<path fill-rule="evenodd" clip-rule="evenodd" d="M24.3679 35.4856C23.4621 35.9582 22.4931 36.2292 21.465 36.3248C21.0691 36.3617 20.6645 36.3725 20.2513 36.3588C20.2413 36.3585 20.2312 36.3581 20.2212 36.3577C20.134 36.3546 20.0464 36.3504 19.9584 36.3451C19.9395 36.3439 19.9206 36.3427 19.9017 36.3415C19.8353 36.3372 19.7688 36.3322 19.702 36.3267C19.7386 36.4026 19.7535 36.4505 19.7627 36.4803C19.7692 36.501 19.7729 36.5129 19.7793 36.5195C19.8067 36.5383 19.8329 36.557 19.8584 36.5754C19.9205 36.6199 19.9792 36.6621 20.046 36.6963C20.4497 36.9397 20.8588 37.1548 21.2728 37.3422C23.4827 38.3426 25.8357 38.557 28.2836 38.1104C31.3797 37.548 33.8065 35.8928 35.5947 33.2574C36.9997 31.1844 37.7913 28.9025 37.749 26.3635C37.7515 26.0581 37.8635 25.8653 38.0861 25.6564C38.3066 25.4478 38.5209 25.2328 38.7317 25.0143C38.9919 24.7445 39.2469 24.4693 39.5018 24.194C39.5887 24.0938 39.6662 23.9741 39.7415 23.8576C39.7539 23.8386 39.7661 23.8196 39.7783 23.8009C39.7873 23.7872 39.7962 23.7736 39.8051 23.7602C39.7894 23.7441 39.7582 23.7119 39.7427 23.6798C39.729 23.6839 39.7154 23.688 39.7017 23.6922C39.6652 23.7031 39.6288 23.714 39.5923 23.7249C39.441 23.77 39.2898 23.8141 39.1385 23.8579C39.1322 23.8598 39.1259 23.8616 39.1196 23.8634C39.0348 23.888 38.95 23.9125 38.8652 23.9369C38.6429 24.001 38.4206 24.0652 38.1982 24.131C38.1425 24.1476 38.0868 24.1642 38.0311 24.181C38.0166 24.1853 38.0021 24.1897 37.9876 24.194C37.9799 24.178 37.9722 24.1579 37.9644 24.1378C37.9567 24.1177 37.949 24.0976 37.9413 24.0815C37.9447 24.0784 37.9482 24.0752 37.9517 24.0721C38.2105 23.8372 38.4546 23.5903 38.6642 23.3109C38.7667 23.1742 38.861 23.0298 38.9447 22.8753C38.9833 22.8041 39.0196 22.7307 39.0534 22.655C39.0564 22.6482 39.0594 22.6414 39.0624 22.6347C39.1487 22.438 39.2184 22.2253 39.2675 21.9925C39.189 22.0232 39.1266 22.0468 39.0733 22.067C38.987 22.0997 38.9246 22.1234 38.8561 22.1532C38.5695 22.2679 38.2875 22.3874 38.0077 22.5064C37.9885 22.5146 37.9693 22.5228 37.9501 22.5309C37.7396 22.6205 37.5302 22.7096 37.3209 22.796C36.9251 22.9727 36.5782 22.9567 36.2341 22.6031C35.6712 22.0086 34.9161 21.7675 34.1123 21.6872C31.7167 21.4622 29.7478 23.0531 29.4598 25.4796C29.4517 25.5724 29.447 25.6661 29.4445 25.7611C29.4399 25.9362 29.4427 26.1155 29.4457 26.3017C29.4481 26.4514 29.4505 26.6054 29.4492 26.7652C29.1089 26.7394 28.7756 26.7009 28.4493 26.6499C25.8776 26.2482 23.732 25.0687 21.8948 23.1672C21.6433 22.907 21.3976 22.6332 21.1574 22.346C20.9893 22.7154 20.858 23.0748 20.7636 23.4251C20.4558 24.568 20.5416 25.6138 21.0289 26.5908C21.0601 26.6531 21.0928 26.7152 21.1272 26.7771C21.1321 26.7859 21.1371 26.7948 21.1421 26.8036C21.3646 27.1977 21.6538 27.5806 22.0104 27.9544C21.8469 27.9158 21.6885 27.8696 21.5331 27.8198C21.5289 27.8185 21.5247 27.8171 21.5205 27.8157C21.4362 27.7886 21.3528 27.7604 21.2699 27.7319C21.2591 27.7281 21.2483 27.7244 21.2375 27.7207C21.1876 27.7034 21.1379 27.686 21.0883 27.6687C21.0074 27.6404 20.9269 27.6122 20.8463 27.5847C20.6833 27.5242 20.534 27.4921 20.5287 27.7173C20.5284 27.731 20.5286 27.7458 20.5294 27.7615C20.5353 27.9472 20.5504 28.1273 20.5747 28.3017C20.5768 28.3168 20.579 28.3318 20.5812 28.3467C20.5909 28.4117 20.6019 28.4759 20.6141 28.5393C20.6159 28.5485 20.6177 28.5578 20.6195 28.567C20.7943 29.4433 21.2134 30.169 21.8587 30.7442C22.0039 30.8736 22.1606 30.9955 22.3286 31.1097C22.329 31.11 22.3295 31.1103 22.33 31.1106C22.4164 31.1693 22.5059 31.2261 22.5983 31.2808C22.7643 31.3828 22.9383 31.4608 23.1091 31.5373C23.1805 31.5694 23.2514 31.6011 23.3209 31.6343C22.9916 31.6952 22.6626 31.7129 22.3473 31.7009C22.3443 31.7007 22.3413 31.7006 22.3383 31.7005C22.3239 31.6999 22.3095 31.6993 22.2952 31.6986C21.9798 31.6825 21.9158 31.795 22.0239 32.0843C22.0275 32.0939 22.0312 32.1036 22.0349 32.1132C22.0964 32.2733 22.1659 32.4272 22.2434 32.5744C22.244 32.5756 22.2446 32.5768 22.2453 32.578C22.265 32.6153 22.2852 32.6522 22.3059 32.6886C22.3081 32.6926 22.3104 32.6966 22.3127 32.7005C22.62 33.2371 23.039 33.6776 23.5697 33.9966C23.8057 34.1375 24.0556 34.2588 24.3124 34.3722C24.502 34.4559 24.6953 34.5353 24.8896 34.6151C25.0624 34.6861 25.2359 34.7573 25.4083 34.8322C25.0714 35.0823 24.7246 35.2996 24.3679 35.4856ZM24.0891 33.1378C24.4319 33.3423 24.7836 33.4867 25.2093 33.6614C25.3947 33.7376 25.5942 33.8194 25.8132 33.9146L27.3913 34.6003L26.0002 35.6333C25.1433 36.2696 24.2314 36.7153 23.2747 36.9949C24.8177 37.403 26.4319 37.4333 28.1119 37.1267L28.1127 37.1266C30.926 36.6155 33.1232 35.1256 34.7686 32.7006C36.0739 30.7746 36.7875 28.6927 36.7491 26.3883L36.7489 26.3759L36.749 26.3635C36.7513 26.0816 36.8066 25.8025 36.9409 25.5332C37.0385 25.3378 37.1623 25.1788 37.2859 25.0481L37.0863 24.6346C37.0693 24.5993 37.0564 24.5683 37.0487 24.5494C37.0414 24.5313 37.0347 24.5138 37.0312 24.5048L37.0306 24.5032C37.0304 24.5026 37.0301 24.5019 37.0299 24.5013L36.7408 23.9023C36.6964 23.8993 36.6515 23.8946 36.606 23.888C36.163 23.8234 35.8014 23.5981 35.5147 23.3036L35.51 23.2987L35.5053 23.2937C35.1701 22.9398 34.6854 22.7506 34.0078 22.6825C32.1661 22.5109 30.6852 23.6954 30.4547 25.5736C30.4374 25.7843 30.4407 25.9696 30.445 26.2084C30.4478 26.364 30.451 26.5423 30.4492 26.7652L30.4404 27.8438L29.3654 27.7623C26.2884 27.5289 23.7436 26.3341 21.6082 24.2976C21.5714 24.6127 21.5768 24.9076 21.6189 25.1857C21.7225 25.8714 22.064 26.556 22.7367 27.261L25.0672 29.7036L21.7736 28.9278C21.7713 28.9272 21.769 28.9267 21.7668 28.9262C22.0185 29.5483 22.4678 30.0373 23.113 30.4193L23.12 30.4234L23.1269 30.4276C23.2383 30.4961 23.328 30.536 23.4609 30.5951C23.54 30.6303 23.6344 30.6724 23.7577 30.7312L26.5326 32.0557L23.495 32.6176C23.4893 32.6186 23.4836 32.6197 23.4779 32.6207C23.6546 32.8269 23.8588 32.9993 24.0891 33.1378Z" fill="#61CCCC"/>
</g>
<defs>
<clipPath id="clip0_2786_2825">
<rect width="60" height="60" fill="white"/>
</clipPath>
</defs>
</svg>
