<svg width="60" height="60" viewBox="0 0 60 60" fill="none" xmlns="http://www.w3.org/2000/svg">
<g clip-path="url(#clip0_2786_3095)">
<path d="M20.1429 23.2129L21.5542 19.666H39.8387L39.7349 32.312L34.3129 37.71H30.3174L27.6839 40.332H24.9182L24.9397 37.71H20.024L20.1429 23.2129Z" fill="white"/>
<path fill-rule="evenodd" clip-rule="evenodd" d="M21.5542 19.666L20.1429 23.2129L20.024 37.71H24.9397L24.9182 40.332H27.6839L30.3174 37.71H34.3129L39.7349 32.312L39.8387 19.666H21.5542ZM37.8983 31.3871L34.8002 34.4715H29.8833L27.2497 37.0934L27.2712 34.4715H23.1233L23.2296 21.5159H37.9793L37.8983 31.3871ZM34.8774 25.0641L34.8332 30.4559H32.989L33.0332 25.0641H34.8774ZM29.9604 25.0641L29.9162 30.4559H28.0745L28.1187 25.0641H29.9604Z" fill="#DBC3E9"/>
<path d="M25.4397 37.71L25.4438 37.2101H24.9438H20.5281L20.6421 23.3069L21.8919 20.166H39.3346L39.2366 32.1055L34.1094 37.2101H30.3215H30.1139L29.9661 37.3572L27.4803 39.832H25.4223L25.4397 37.71Z" stroke="#B98BD3"/>
</g>
<defs>
<clipPath id="clip0_2786_3095">
<rect width="60" height="60" fill="white"/>
</clipPath>
</defs>
</svg>
