<svg width="60" height="60" viewBox="0 0 60 60" fill="none" xmlns="http://www.w3.org/2000/svg">
<g clip-path="url(#clip0_256_3316)">
<path d="M20.1429 23.2129L21.5542 19.666H39.8387L39.7349 32.312L34.3129 37.71H30.3174L27.6839 40.332H24.9182L24.9397 37.71H20.024L20.1429 23.2129Z" fill="white"/>
<path d="M22.7411 20.166L22.6197 34.9712H26.7671L26.7398 38.3041L27.6013 37.4467L30.0875 34.9712H36.358L34.1082 37.2103H30.114L29.9663 37.3568L27.4792 39.8323H25.4226L25.4441 37.2103H20.5281L20.6421 23.3065L21.8915 20.166H22.7411ZM34.3736 25.5643L34.3376 29.9557H33.4929L33.5289 25.5643H34.3736ZM29.4566 25.5643L29.4206 29.9557H28.5788L28.6148 25.5643H29.4566Z" fill="#F4EDF9" stroke="#C296DA"/>
<path d="M39.3349 20.166L39.2369 32.1051L34.1082 37.2103H30.114L29.9663 37.3568L27.4792 39.8323H25.4226L25.4441 37.2103H20.5281L20.6421 23.3065L21.8915 20.166H39.3349Z" stroke="#C296DA"/>
</g>
<defs>
<clipPath id="clip0_256_3316">
<rect width="60" height="60" fill="white"/>
</clipPath>
</defs>
</svg>
