<svg width="60" height="60" viewBox="0 0 60 60" fill="none" xmlns="http://www.w3.org/2000/svg">
<g clip-path="url(#clip0_2786_4463)">
<rect width="20" height="20" transform="matrix(1 0 -0.00820296 0.999966 32.5026 19.9995)" fill="white"/>
<mask id="mask0_2786_4463" style="mask-type:alpha" maskUnits="userSpaceOnUse" x="32" y="19" width="21" height="21">
<rect x="0.495899" y="0.499983" width="19" height="19" transform="matrix(1 0 -0.00820296 0.999966 32.5067 19.9995)" fill="#F8F8F8" stroke="#B8B8B8"/>
</mask>
<g mask="url(#mask0_2786_4463)">
<path d="M49.9997 47.443C49.93 55.9418 42.9837 62.8314 34.4846 62.8314C25.9856 62.8314 19.1522 55.9418 19.222 47.443C19.2917 38.9443 26.238 32.0547 34.7371 32.0547C43.2361 32.0547 50.0695 38.9443 49.9997 47.443Z" fill="#FBE8E8" stroke="#E98080"/>
<path d="M67.7738 47.8874C67.7041 56.3861 60.7578 63.2757 52.2587 63.2757C43.7597 63.2757 36.9264 56.3861 36.9961 47.8874C37.0658 39.3886 44.0121 32.499 52.5112 32.499C61.0102 32.499 67.8436 39.3886 67.7738 47.8874Z" fill="#FBE8E8" stroke="#E98080"/>
</g>
<rect x="0.495899" y="0.499983" width="19" height="19" transform="matrix(1 0 -0.00820296 0.999966 32.5067 19.9995)" stroke="#E98080"/>
<rect width="20" height="20" transform="matrix(1 0 -0.00820296 0.999966 7.50262 19.9995)" fill="white"/>
<mask id="mask1_2786_4463" style="mask-type:alpha" maskUnits="userSpaceOnUse" x="7" y="19" width="21" height="21">
<rect x="0.495899" y="0.499983" width="19" height="19" transform="matrix(1 0 -0.00820296 0.999966 7.50673 19.9995)" fill="#F8F8F8" stroke="#B8B8B8"/>
</mask>
<g mask="url(#mask1_2786_4463)">
<circle cx="2.66667" cy="2.66667" r="2.16667" transform="matrix(1 0 -0.00820296 0.999966 18.3605 23.7773)" fill="#FCEDD4" stroke="#F2BC5E"/>
<rect x="11.9291" y="42.6206" width="10.5431" height="10.4488" rx="2.5" transform="rotate(-44.765 11.9291 42.6206)" fill="#E7ECF6" stroke="#7A97CE"/>
<rect x="4.31727" y="38.9282" width="10.5431" height="15.0984" rx="2.5" transform="rotate(-44.765 4.31727 38.9282)" fill="#E7ECF6" stroke="#7A97CE"/>
</g>
<rect x="0.495899" y="0.499983" width="19" height="19" transform="matrix(1 0 -0.00820296 0.999966 7.50673 19.9995)" stroke="#7A97CE"/>
</g>
<defs>
<clipPath id="clip0_2786_4463">
<rect width="60" height="60" fill="white"/>
</clipPath>
</defs>
</svg>
