<svg width="60" height="60" viewBox="0 0 60 60" fill="none" xmlns="http://www.w3.org/2000/svg">
<g clip-path="url(#clip0_256_3486)">
<rect width="20" height="20" transform="matrix(1 0 -0.00820296 0.999966 32.5026 19.9993)" fill="white"/>
<mask id="mask0_256_3486" style="mask-type:alpha" maskUnits="userSpaceOnUse" x="32" y="19" width="21" height="21">
<rect x="0.495899" y="0.499983" width="19" height="19" transform="matrix(1 0 -0.00820296 0.999966 32.5067 19.9993)" fill="#F8F8F8" stroke="#B8B8B8"/>
</mask>
<g mask="url(#mask0_256_3486)">
<path d="M34.7369 32.0544C43.2358 32.0544 50.0689 38.9439 49.9993 47.4426C49.9296 55.9413 42.9834 62.8307 34.4844 62.8307C25.9855 62.8306 19.1522 55.9413 19.222 47.4426C19.2918 38.944 26.238 32.0545 34.7369 32.0544Z" fill="#FBECEE" stroke="#E78E9E"/>
<path d="M52.511 32.4988C61.01 32.4988 67.843 39.3883 67.7734 47.8869C67.7037 56.3857 60.7576 63.2751 52.2585 63.2751C43.7596 63.275 36.9264 56.3856 36.9961 47.8869C37.0659 39.3883 44.0121 32.4989 52.511 32.4988Z" fill="#FBECEE" stroke="#E78E9E"/>
</g>
<rect x="0.495899" y="0.499983" width="19" height="19" transform="matrix(1 0 -0.00820296 0.999966 32.5067 19.9993)" stroke="#E78E9E"/>
<rect width="20" height="20" transform="matrix(1 0 -0.00820296 0.999966 7.50262 19.9993)" fill="white"/>
<mask id="mask1_256_3486" style="mask-type:alpha" maskUnits="userSpaceOnUse" x="7" y="19" width="21" height="21">
<rect x="0.495899" y="0.499983" width="19" height="19" transform="matrix(1 0 -0.00820296 0.999966 7.50673 19.9993)" fill="#F8F8F8" stroke="#B8B8B8"/>
</mask>
<g mask="url(#mask1_256_3486)">
<circle cx="2.66667" cy="2.66667" r="2.16667" transform="matrix(1 0 -0.00820296 0.999966 18.3605 23.7769)" fill="#FBF4E9" stroke="#E8C27F"/>
<rect x="11.9291" y="42.6196" width="10.5431" height="10.4488" rx="2.5" transform="rotate(-44.765 11.9291 42.6196)" fill="#ECF1FB" stroke="#8FADEA"/>
<rect x="4.31727" y="38.9277" width="10.5431" height="15.0984" rx="2.5" transform="rotate(-44.765 4.31727 38.9277)" fill="#ECF1FB" stroke="#8FADEA"/>
</g>
<rect x="0.495899" y="0.499983" width="19" height="19" transform="matrix(1 0 -0.00820296 0.999966 7.50673 19.9993)" stroke="#8FADEA"/>
</g>
<defs>
<clipPath id="clip0_256_3486">
<rect width="60" height="60" fill="white"/>
</clipPath>
</defs>
</svg>
