<svg width="60" height="60" viewBox="0 0 60 60" fill="none" xmlns="http://www.w3.org/2000/svg">
<g clip-path="url(#clip0_256_2330)">
<rect width="45" height="25.6667" transform="matrix(1 0 -0.00820296 0.999966 7.52722 16.9995)" fill="white"/>
<mask id="mask0_256_2330" style="mask-type:alpha" maskUnits="userSpaceOnUse" x="7" y="16" width="46" height="27">
<rect width="45" height="25.6667" transform="matrix(1 0 -0.00820296 0.999966 7.52722 16.9995)" fill="#F8F8F8"/>
</mask>
<g mask="url(#mask0_256_2330)">
<path d="M43.9027 23.4883C45.5208 23.4883 46.8205 24.7973 46.8074 26.41C46.7942 28.023 45.473 29.3327 43.8548 29.3328C42.2365 29.3328 40.9368 28.023 40.95 26.41C40.9634 24.7972 42.2845 23.4883 43.9027 23.4883Z" fill="#FBF4E9" stroke="#E8C27F"/>
<path d="M20.1512 29.8325C24.9254 29.8325 29.0807 30.6839 31.2677 31.9428C28.8174 32.5842 27.3122 33.4467 27.3042 34.3958C27.2879 36.3762 33.7937 37.9817 41.8343 37.9817C49.8748 37.9816 56.4061 36.3761 56.4223 34.3958C56.4233 34.2778 56.4002 34.1614 56.3559 34.0462H58.4858L58.3386 51.9812H7.17945L7.32658 34.0462H7.32853C7.32782 34.0262 7.32691 34.0058 7.32708 33.9857C7.34635 31.6919 13.0878 29.8325 20.1512 29.8325Z" fill="#E7F5F6"/>
<path d="M20.1512 29.8325L20.1553 29.3325H20.1553L20.1512 29.8325ZM31.2677 31.9428L31.3906 32.4264L32.575 32.1164L31.5198 31.509L31.2677 31.9428ZM27.3042 34.3958L26.8042 34.3957L26.8042 34.3958H27.3042ZM41.8343 37.9817L41.8302 38.4816L41.8302 38.4816L41.8343 37.9817ZM56.4223 34.3958L56.9223 34.3958L56.9223 34.3957L56.4223 34.3958ZM56.3559 34.0462L56.36 33.5463H55.6259L55.8891 34.2293L56.3559 34.0462ZM58.4858 34.0462H58.9858L58.9899 33.5463H58.4899L58.4858 34.0462ZM58.3386 51.9812L58.3345 52.4812H58.8345L58.8386 51.9812H58.3386ZM7.17945 51.9812H6.67945L6.67535 52.4812H7.17535L7.17945 51.9812ZM7.32658 34.0462L7.33068 33.5463H6.83068L6.82658 34.0462H7.32658ZM7.32853 34.0462L7.32443 34.5462H7.84682L7.82823 34.0244L7.32853 34.0462ZM7.32708 33.9857L6.82708 33.9856L6.82708 33.9857H7.32708ZM20.1512 29.8325L20.1471 30.3325C24.8877 30.3325 28.9396 31.1816 31.0155 32.3766L31.2677 31.9428L31.5198 31.509C29.2218 30.1861 24.9631 29.3326 20.1553 29.3325L20.1512 29.8325ZM31.2677 31.9428L31.1448 31.4592C29.8985 31.7854 28.8567 32.1763 28.1134 32.6269C27.4002 33.0594 26.8106 33.642 26.8042 34.3957L27.3042 34.3958L27.8042 34.396C27.8058 34.2005 27.9728 33.8773 28.6268 33.4809C29.2507 33.1026 30.1866 32.7416 31.3906 32.4264L31.2677 31.9428ZM27.3042 34.3958H26.8042C26.7977 35.1805 27.4253 35.781 28.1818 36.2236C28.9738 36.687 30.0889 37.0873 31.4244 37.4168C34.1032 38.0779 37.7818 38.4816 41.8302 38.4816L41.8343 37.9817L41.8384 37.4817C37.8463 37.4817 34.2517 37.0826 31.6715 36.4459C30.3775 36.1266 29.3666 35.7541 28.6921 35.3595C27.9821 34.9441 27.8025 34.6013 27.8042 34.3958H27.3042ZM41.8343 37.9817L41.8302 38.4816C45.8786 38.4816 49.5636 38.0779 52.253 37.4168C53.5938 37.0872 54.7153 36.687 55.5149 36.2236C56.2786 35.781 56.9159 35.1805 56.9223 34.3958H56.4223H55.9223C55.9207 34.6013 55.7354 34.9441 55.0187 35.3595C54.3378 35.7541 53.3209 36.1265 52.0218 36.4459C49.4314 37.0826 45.8305 37.4816 41.8384 37.4817L41.8343 37.9817ZM56.4223 34.3958L56.9223 34.3957C56.9238 34.2084 56.8869 34.03 56.8227 33.8632L56.3559 34.0462L55.8891 34.2293C55.9135 34.2927 55.9227 34.3472 55.9223 34.396L56.4223 34.3958ZM56.3559 34.0462L56.3518 34.5462H58.4817L58.4858 34.0462L58.4899 33.5463H56.36L56.3559 34.0462ZM58.4858 34.0462H57.9858L57.8386 51.9812H58.3386H58.8386L58.9858 34.0462H58.4858ZM58.3386 51.9812L58.3427 51.4812H7.18356L7.17945 51.9812L7.17535 52.4812H58.3345L58.3386 51.9812ZM7.17945 51.9812H7.67945L7.82658 34.0462H7.32658H6.82658L6.67945 51.9812H7.17945ZM7.32658 34.0462L7.32248 34.5462H7.32443L7.32853 34.0462L7.33263 33.5463H7.33068L7.32658 34.0462ZM7.32853 34.0462L7.82823 34.0244C7.82728 33.9976 7.82703 33.9919 7.82708 33.9857H7.32708H6.82708C6.8268 34.0198 6.82836 34.0548 6.82883 34.0681L7.32853 34.0462ZM7.32708 33.9857L7.82707 33.9858C7.83001 33.6369 8.0513 33.22 8.6469 32.7657C9.23527 32.3168 10.1162 31.8911 11.2481 31.5245C13.5065 30.7931 16.6531 30.3325 20.1471 30.3325L20.1512 29.8325L20.1553 29.3325C16.5859 29.3325 13.3301 29.8016 10.9471 30.5734C9.75831 30.9584 8.75877 31.4276 8.04446 31.9725C7.33739 32.5119 6.83378 33.1876 6.82708 33.9856L7.32708 33.9857Z" fill="#75C3CB"/>
<path d="M28.8228 24.3347C28.7012 25.2148 27.7963 25.9001 26.7035 25.9001C25.6107 25.9001 24.7171 25.2148 24.6099 24.3347C25.1715 24.7401 25.905 24.987 26.711 24.987C27.5171 24.987 28.2546 24.7401 28.8228 24.3347Z" fill="#ABABAB"/>
<path d="M33.3428 22.1299C33.2212 23.01 32.3163 23.6953 31.2235 23.6953C30.1307 23.6953 29.237 23.01 29.1299 22.1299C29.6915 22.5353 30.4249 22.7822 31.231 22.7822C32.037 22.7822 32.7745 22.5352 33.3428 22.1299Z" fill="#ABABAB"/>
<path d="M34.977 25.7378C34.8554 26.6179 33.9505 27.3031 32.8577 27.3032C31.7649 27.3032 30.8713 26.6179 30.7641 25.7378C31.3257 26.1432 32.0591 26.3901 32.8652 26.3901C33.6712 26.3901 34.4087 26.1431 34.977 25.7378Z" fill="#ABABAB"/>
</g>
<rect x="0.495899" y="0.499983" width="44" height="24.6667" transform="matrix(1 0 -0.00820296 0.999966 7.53132 16.9995)" stroke="#75C3CB"/>
<ellipse cx="13.65" cy="46.0501" rx="9.45" ry="9.45" fill="white"/>
<path d="M11.9999 43.1416V48.9749L16.5833 46.0583L11.9999 43.1416Z" fill="#8C8C8C"/>
</g>
<defs>
<clipPath id="clip0_256_2330">
<rect width="60" height="60" fill="white"/>
</clipPath>
</defs>
</svg>
