<svg width="60" height="60" viewBox="0 0 60 60" fill="none" xmlns="http://www.w3.org/2000/svg">
<g clip-path="url(#clip0_256_3082)">
<rect x="0.495899" y="0.499983" width="6.5" height="3.21875" transform="matrix(1 0 -0.00820296 0.999966 44.1734 19.9993)" fill="white" stroke="#ABABAB"/>
<rect x="0.495899" y="0.499983" width="6.5" height="3.21875" transform="matrix(1 0 -0.00820296 0.999966 44.1306 25.218)" fill="white" stroke="#ABABAB"/>
<rect x="0.495899" y="0.499983" width="6.5" height="3.21875" transform="matrix(1 0 -0.00820296 0.999966 44.0878 30.4365)" fill="white" stroke="#ABABAB"/>
<rect x="0.495899" y="0.499983" width="6.5" height="3.21875" transform="matrix(1 0 -0.00820296 0.999966 44.0449 35.655)" fill="white" stroke="#ABABAB"/>
<rect width="35" height="20" transform="matrix(1 0 -0.00820296 0.999966 8.16925 19.9993)" fill="white"/>
<mask id="mask0_256_3082" style="mask-type:alpha" maskUnits="userSpaceOnUse" x="8" y="19" width="36" height="21">
<rect width="35" height="20" transform="matrix(1 0 -0.00820296 0.999966 8.16925 19.9993)" fill="#F8F8F8"/>
</mask>
<g mask="url(#mask0_256_3082)">
<path d="M36.4605 25.166C37.657 25.1662 38.6186 26.1364 38.6087 27.3329C38.5987 28.5292 37.6213 29.4987 36.425 29.4989C35.2284 29.4989 34.2661 28.5293 34.2757 27.3329C34.2855 26.1363 35.2639 25.166 36.4605 25.166Z" fill="#FBF4E9" stroke="#E8C27F"/>
<path d="M17.9871 29.999C21.7006 29.999 24.9328 30.6624 26.6338 31.6435C24.7279 32.1433 23.5578 32.8159 23.5517 33.5555C23.5401 35.0984 28.5989 36.3494 34.852 36.3494C41.1051 36.3494 46.1845 35.0984 46.1982 33.5555C46.1989 33.4633 46.1804 33.3721 46.1457 33.2821H47.8039L47.6893 47.2582H7.89827L8.01292 33.2821H8.01683C8.01628 33.2666 8.01318 33.2509 8.01331 33.2352C8.02837 31.448 12.4936 29.9991 17.9871 29.999Z" fill="#E7F5F6"/>
<path d="M17.9871 29.999L17.9912 29.499L17.9912 29.499L17.9871 29.999ZM26.6338 31.6435L26.7569 32.1271L27.939 31.8171L26.8863 31.2099L26.6338 31.6435ZM23.5517 33.5555L23.0517 33.5555L23.0517 33.5559L23.5517 33.5555ZM34.852 36.3494L34.8479 36.8494L34.8479 36.8494L34.852 36.3494ZM46.1982 33.5555L46.6982 33.5559L46.6982 33.5555H46.1982ZM46.1457 33.2821L46.1498 32.7821H45.4156L45.679 33.4653L46.1457 33.2821ZM47.8039 33.2821H48.3039L48.308 32.7821H47.808L47.8039 33.2821ZM47.6893 47.2582L47.6852 47.7582H48.1852L48.1893 47.2582H47.6893ZM7.89827 47.2582H7.39827L7.39417 47.7582H7.89417L7.89827 47.2582ZM8.01292 33.2821L8.01703 32.7821H7.51703L7.51292 33.2821H8.01292ZM8.01683 33.2821L8.01273 33.7821H8.53497L8.51654 33.2604L8.01683 33.2821ZM8.01331 33.2352L7.51331 33.2351L7.51331 33.2352H8.01331ZM17.9871 29.999L17.983 30.499C21.6628 30.499 24.7914 31.1602 26.3813 32.0771L26.6338 31.6435L26.8863 31.2099C25.0742 30.1647 21.7383 29.499 17.9912 29.499L17.9871 29.999ZM26.6338 31.6435L26.5107 31.1599C25.5365 31.4154 24.7144 31.7235 24.1232 32.0829C23.5616 32.4242 23.057 32.9071 23.0517 33.5555H23.5517H24.0517C24.0524 33.4643 24.136 33.2411 24.6375 32.9362C25.1093 32.6495 25.8252 32.3714 26.7569 32.1271L26.6338 31.6435ZM23.5517 33.5555L23.0517 33.5559C23.0466 34.2306 23.5837 34.7268 24.1777 35.0749C24.8068 35.4436 25.6855 35.7585 26.7288 36.0165C28.8231 36.5343 31.6932 36.8494 34.8479 36.8494L34.852 36.3494L34.8561 35.8494C31.7577 35.8494 28.9718 35.539 26.9763 35.0456C25.9747 34.798 25.2001 34.5109 24.6886 34.2111C24.1418 33.8907 24.051 33.652 24.0517 33.5552L23.5517 33.5555ZM34.852 36.3494L34.8479 36.8494C38.0027 36.8494 40.8779 36.5343 42.9807 36.0165C44.0282 35.7585 44.9121 35.4436 45.5473 35.0749C46.1469 34.7268 46.6922 34.2306 46.6982 33.5559L46.1982 33.5555L45.6982 33.5552C45.6973 33.652 45.6025 33.8907 45.0505 34.2111C44.5341 34.5109 43.7548 34.798 42.7491 35.0456C40.7455 35.539 37.9545 35.8494 34.8561 35.8494L34.852 36.3494ZM46.1982 33.5555H46.6982C46.6995 33.3923 46.6665 33.2391 46.6125 33.099L46.1457 33.2821L45.679 33.4653C45.6944 33.5051 45.6984 33.5342 45.6982 33.5555H46.1982ZM46.1457 33.2821L46.1416 33.7821H47.7998L47.8039 33.2821L47.808 32.7821H46.1498L46.1457 33.2821ZM47.8039 33.2821H47.3039L47.1893 47.2582H47.6893H48.1893L48.3039 33.2821H47.8039ZM47.6893 47.2582L47.6934 46.7582H7.90238L7.89827 47.2582L7.89417 47.7582H47.6852L47.6893 47.2582ZM7.89827 47.2582H8.39827L8.51292 33.2821H8.01292H7.51292L7.39827 47.2582H7.89827ZM8.01292 33.2821L8.00882 33.7821H8.01273L8.01683 33.2821L8.02093 32.7821H8.01703L8.01292 33.2821ZM8.01683 33.2821L8.51654 33.2604C8.51593 33.2433 8.51474 33.229 8.51387 33.2197C8.51343 33.215 8.513 33.2109 8.5127 33.2081C8.51255 33.2066 8.51241 33.2053 8.51231 33.2044C8.51219 33.2033 8.51212 33.2027 8.51206 33.2021C8.51177 33.1993 8.51211 33.2022 8.51246 33.207C8.51283 33.2122 8.51342 33.2222 8.51331 33.2352H8.01331H7.51331C7.51314 33.2561 7.51406 33.2739 7.515 33.2869C7.51591 33.2995 7.51704 33.3103 7.51757 33.3153C7.51836 33.3228 7.5182 33.3212 7.51819 33.3211C7.51806 33.3197 7.51745 33.3131 7.51712 33.3039L8.01683 33.2821ZM8.01331 33.2352L8.51331 33.2354C8.51518 33.0126 8.65641 32.7164 9.10713 32.3719C9.55072 32.0329 10.2226 31.706 11.0966 31.4224C12.839 30.857 15.2741 30.499 17.983 30.499L17.9871 29.999L17.9912 29.499C15.2067 29.4991 12.6623 29.8656 10.795 30.4715C9.8641 30.7735 9.07351 31.144 8.50396 31.5793C7.94153 32.0091 7.51896 32.5642 7.51331 33.2351L8.01331 33.2352Z" fill="#75C3CB"/>
<path d="M24.732 25.7153C24.6372 26.4009 23.9339 26.9349 23.0843 26.935C22.2345 26.935 21.5391 26.401 21.4556 25.7153C21.8924 26.0311 22.4633 26.2231 23.0901 26.2231C23.7168 26.2231 24.2901 26.031 24.732 25.7153Z" fill="#ABABAB"/>
<path d="M28.2476 23.9973C28.1528 24.6828 27.4495 25.2169 26.5999 25.217C25.75 25.217 25.0547 24.683 24.9712 23.9973C25.408 24.3131 25.9788 24.5051 26.6057 24.5051C27.2323 24.5051 27.8057 24.313 28.2476 23.9973Z" fill="#ABABAB"/>
<path d="M29.5186 26.8088C29.4238 27.4944 28.7206 28.0284 27.8709 28.0285C27.0211 28.0285 26.3258 27.4945 26.2422 26.8088C26.679 27.1246 27.2499 27.3166 27.8768 27.3166C28.5034 27.3166 29.0768 27.1245 29.5186 26.8088Z" fill="#ABABAB"/>
</g>
<rect x="0.495899" y="0.499983" width="34" height="19" transform="matrix(1 0 -0.00820296 0.999966 8.17335 19.9993)" stroke="#75C3CB"/>
<ellipse cx="13.65" cy="46.0501" rx="9.45" ry="9.45" fill="white"/>
<path d="M11.9999 43.1416V48.9749L16.5833 46.0583L11.9999 43.1416Z" fill="#8C8C8C"/>
</g>
<defs>
<clipPath id="clip0_256_3082">
<rect width="60" height="60" fill="white"/>
</clipPath>
</defs>
</svg>
