<svg width="60" height="60" viewBox="0 0 60 60" fill="none" xmlns="http://www.w3.org/2000/svg">
<g clip-path="url(#clip0_2786_4562)">
<rect x="0.495899" y="0.499983" width="6.5" height="3.21875" transform="matrix(1 0 -0.00820296 0.999966 44.1734 19.9995)" fill="white" stroke="#BFBFBF"/>
<rect x="0.495899" y="0.499983" width="6.5" height="3.21875" transform="matrix(1 0 -0.00820296 0.999966 44.1306 25.2178)" fill="white" stroke="#BFBFBF"/>
<rect x="0.495899" y="0.499983" width="6.5" height="3.21875" transform="matrix(1 0 -0.00820296 0.999966 44.0878 30.4365)" fill="white" stroke="#BFBFBF"/>
<rect x="0.495899" y="0.499983" width="6.5" height="3.21875" transform="matrix(1 0 -0.00820296 0.999966 44.0449 35.6553)" fill="white" stroke="#BFBFBF"/>
<rect width="35" height="20" transform="matrix(1 0 -0.00820296 0.999966 8.16925 19.9995)" fill="white"/>
<mask id="mask0_2786_4562" style="mask-type:alpha" maskUnits="userSpaceOnUse" x="8" y="19" width="36" height="21">
<rect width="35" height="20" transform="matrix(1 0 -0.00820296 0.999966 8.16925 19.9995)" fill="#F8F8F8"/>
</mask>
<g mask="url(#mask0_2786_4562)">
<path d="M38.6091 27.3326C38.5993 28.5292 37.6212 29.4992 36.4246 29.4992C35.228 29.4992 34.2659 28.5292 34.2757 27.3326C34.2855 26.136 35.2636 25.166 36.4602 25.166C37.6568 25.166 38.6189 26.136 38.6091 27.3326Z" fill="#FCEDD4" stroke="#F2BC5E"/>
<path fill-rule="evenodd" clip-rule="evenodd" d="M46.1474 33.2829C46.1819 33.3726 46.1992 33.4636 46.1984 33.5556C46.1858 35.0987 41.1058 36.3496 34.852 36.3496C28.5982 36.3496 23.5387 35.0987 23.5514 33.5556C23.5574 32.8156 24.7286 32.1429 26.6355 31.643C24.9349 30.6617 21.7017 29.9995 17.9876 29.9995C12.4937 29.9995 8.02803 31.4485 8.01337 33.236C8.01324 33.2516 8.01345 33.2673 8.01401 33.2829H8.01298L7.89834 47.2583H47.6891L47.8038 33.2829H46.1474Z" fill="#E2F6F6"/>
<path d="M46.1474 33.2829L46.1515 32.7829H45.4181L45.6805 33.4655L46.1474 33.2829ZM26.6355 31.643L26.7586 32.1266L27.9406 31.8168L26.8881 31.2095L26.6355 31.643ZM8.01401 33.2829L8.0099 33.7829H8.53221L8.51371 33.2611L8.01401 33.2829ZM8.01298 33.2829L8.01708 32.7829H7.51708L7.51298 33.2829H8.01298ZM7.89834 47.2583H7.39834L7.39424 47.7583H7.89424L7.89834 47.2583ZM47.6891 47.2583L47.685 47.7583H48.185L48.1891 47.2583H47.6891ZM47.8038 33.2829H48.3038L48.3079 32.7829H47.8079L47.8038 33.2829ZM45.6805 33.4655C45.6942 33.5013 45.6986 33.5304 45.6984 33.5556H46.6984C46.6997 33.3967 46.6696 33.2439 46.6144 33.1002L45.6805 33.4655ZM45.6984 33.5556C45.6976 33.6522 45.6031 33.8908 45.0512 34.2113C44.5349 34.5111 43.7556 34.7981 42.7498 35.0458C40.7461 35.5392 37.9548 35.8496 34.8561 35.8496L34.8479 36.8496C38.003 36.8496 40.8786 36.5345 42.9814 36.0167C44.029 35.7587 44.913 35.4437 45.5481 35.075C46.1476 34.7269 46.6929 34.2305 46.6984 33.5556H45.6984ZM34.8561 35.8496C31.7574 35.8496 28.9711 35.5392 26.9755 35.0458C25.9738 34.7981 25.1993 34.5111 24.6878 34.2113C24.1412 33.8908 24.0506 33.6522 24.0514 33.5556H23.0514C23.0458 34.2305 23.5829 34.7269 24.1768 35.075C24.8059 35.4437 25.6847 35.7587 26.728 36.0167C28.8224 36.5345 31.6928 36.8496 34.8479 36.8496L34.8561 35.8496ZM24.0514 33.5556C24.0521 33.4643 24.1357 33.241 24.6377 32.936C25.1099 32.6491 25.8264 32.371 26.7586 32.1266L26.5125 31.1595C25.5378 31.415 24.7152 31.7231 24.1236 32.0826C23.5617 32.4239 23.0567 32.9069 23.0514 33.5556H24.0514ZM26.8881 31.2095C25.0762 30.164 21.7392 29.4995 17.9917 29.4995L17.9835 30.4995C21.6642 30.4995 24.7936 31.1595 26.383 32.0766L26.8881 31.2095ZM17.9917 29.4995C15.207 29.4995 12.6624 29.8661 10.795 30.472C9.86401 30.7741 9.07338 31.1445 8.50384 31.5799C7.94141 32.0098 7.51887 32.565 7.51337 33.236H8.51337C8.51519 33.0133 8.65636 32.717 9.10705 32.3725C9.55062 32.0334 10.2225 31.7065 11.0966 31.4229C12.8391 30.8575 15.2743 30.4995 17.9835 30.4995L17.9917 29.4995ZM7.51337 33.236C7.51318 33.2589 7.51349 33.2818 7.5143 33.3047L8.51371 33.2611C8.51341 33.2527 8.5133 33.2444 8.51337 33.236H7.51337ZM8.01811 32.7829H8.01708L8.00888 33.7829H8.0099L8.01811 32.7829ZM7.51298 33.2829L7.39834 47.2583H8.39834L8.51298 33.2829H7.51298ZM7.89424 47.7583H47.685L47.6933 46.7583H7.90244L7.89424 47.7583ZM48.1891 47.2583L48.3038 33.2829H47.3038L47.1891 47.2583H48.1891ZM47.8079 32.7829H46.1515L46.1433 33.7829H47.7997L47.8079 32.7829Z" fill="#61CCCC"/>
<path fill-rule="evenodd" clip-rule="evenodd" d="M24.7323 25.7178C24.2905 26.0332 23.7162 26.224 23.0898 26.224C22.4634 26.224 21.8923 26.0332 21.4556 25.7178C21.5402 26.4025 22.2349 26.9353 23.084 26.9353C23.933 26.9353 24.6364 26.4025 24.7323 25.7178Z" fill="#6B6B6B"/>
<path fill-rule="evenodd" clip-rule="evenodd" d="M28.2478 23.9996C27.806 24.315 27.2318 24.5057 26.6054 24.5057C25.979 24.5057 25.4079 24.3149 24.9712 23.9995C25.0558 24.6842 25.7505 25.217 26.5995 25.217C27.4485 25.217 28.152 24.6843 28.2478 23.9996Z" fill="#6B6B6B"/>
<path fill-rule="evenodd" clip-rule="evenodd" d="M29.5189 26.8112C29.0771 27.1265 28.5029 27.3173 27.8765 27.3173C27.2501 27.3173 26.6789 27.1265 26.2422 26.811C26.3268 27.4957 27.0216 28.0285 27.8706 28.0285C28.7196 28.0285 29.423 27.4958 29.5189 26.8112Z" fill="#6B6B6B"/>
</g>
<rect x="0.495899" y="0.499983" width="34" height="19" transform="matrix(1 0 -0.00820296 0.999966 8.17335 19.9995)" stroke="#61CCCC"/>
</g>
<defs>
<clipPath id="clip0_2786_4562">
<rect width="60" height="60" fill="white"/>
</clipPath>
</defs>
</svg>
