<svg width="60" height="60" viewBox="0 0 60 60" fill="none" xmlns="http://www.w3.org/2000/svg">
<g clip-path="url(#clip0_256_3456)">
<path d="M32.0589 25.3226C33.2936 22.5504 35.6405 21.5474 37.2627 21.9018C38.1461 22.0949 38.8567 22.6871 39.1504 23.685C39.4501 24.7035 39.3319 26.2101 38.373 28.219C37.359 30.3459 35.631 32.8738 33.7775 34.8643C32.8514 35.8587 31.9064 36.7061 31.0163 37.3007C30.1153 37.9026 29.3251 38.2089 28.6963 38.2089C28.1449 38.2089 27.6794 37.9267 27.2446 37.3261C26.801 36.7133 26.4338 35.8242 26.0948 34.7481C25.7574 33.6768 25.4629 32.4724 25.1451 31.2384C24.8299 30.0144 24.493 28.7667 24.073 27.6507L24.072 27.6497L23.917 27.262C23.7609 26.8976 23.6004 26.6008 23.4233 26.3763C23.1748 26.0614 22.858 25.848 22.4531 25.8382C22.0916 25.8296 21.7515 25.9896 21.4563 26.1634C21.2629 26.2773 21.0516 26.421 20.8269 26.5784L20.4655 26.1077C21.4941 25.1966 22.4777 24.2846 23.3899 23.5385C23.8929 23.1271 24.3544 22.7848 24.7663 22.5395C25.186 22.2896 25.5115 22.1662 25.749 22.144H25.7519C26.3878 22.0814 26.8522 22.2635 27.2115 22.6674C27.5468 23.0446 27.8201 23.6496 27.9951 24.5297L28.0641 24.9232C28.2861 26.4112 28.5563 28.3476 28.9177 29.9084C29.0978 30.6858 29.3074 31.4021 29.5584 31.9337C29.6833 32.1984 29.832 32.446 30.0136 32.6339C30.1968 32.8235 30.4529 32.9903 30.7792 32.9903C31.0477 32.9903 31.2864 32.86 31.4609 32.7374C31.6488 32.6055 31.8383 32.4281 32.0208 32.2306C32.3873 31.8338 32.7742 31.3037 33.1287 30.7453C33.4844 30.1848 33.8171 29.5803 34.0705 29.0266C34.3171 28.4879 34.5117 27.9468 34.5525 27.5315C34.6123 26.9869 34.5512 26.5135 34.3472 26.1312C34.1366 25.7366 33.8016 25.4899 33.4189 25.3646C33.0022 25.2282 32.5287 25.2338 32.0589 25.3226Z" fill="#ECF1FB" stroke="#8FADEA"/>
</g>
<defs>
<clipPath id="clip0_256_3456">
<rect width="60" height="60" fill="white"/>
</clipPath>
</defs>
</svg>
