<svg width="60" height="60" viewBox="0 0 60 60" fill="none" xmlns="http://www.w3.org/2000/svg">
<g clip-path="url(#clip0_256_3655)">
<path d="M30.7278 38.664C28.1662 38.6764 25.7803 38.602 23.3945 38.5029C22.3703 38.4533 21.3461 38.4037 20.3355 38.2178C18.6262 37.908 17.6717 36.9786 17.4358 35.2808C17.1047 32.9881 17.0112 30.683 17.1427 28.3532C17.2169 26.928 17.2786 25.5028 17.5899 24.1024C17.9532 22.4666 19.048 21.5247 20.7361 21.376C24.6876 21.0042 28.6366 20.9423 32.5967 21.0414C34.2333 21.0786 35.8697 21.1282 37.4932 21.2397C38.1925 21.2893 38.8916 21.3636 39.5654 21.4876C41.0874 21.7726 41.9785 22.8136 42.2273 24.4742C42.3812 25.5152 42.4602 26.5438 42.4391 27.5972C42.4126 29.3074 42.4109 31.03 42.3969 32.7402C42.3888 33.7317 42.2557 34.7231 42.0354 35.6897C41.6981 37.2016 40.5536 38.1063 38.9403 38.2798C36.1513 38.5896 33.3526 38.5648 30.7278 38.664Z" fill="white"/>
<path d="M20.7789 21.8742C24.7049 21.5049 28.6334 21.4424 32.5805 21.5412H32.5814C34.2159 21.5784 35.8427 21.6269 37.4538 21.7375L37.4538 21.7385C38.1424 21.7873 38.8221 21.8603 39.4714 21.9797L39.4714 21.9787C40.136 22.1035 40.6355 22.3863 40.9979 22.7971C41.3642 23.2123 41.6186 23.7916 41.7325 24.5519C41.8642 25.4425 41.9392 26.3196 41.9422 27.209L41.939 27.5938C41.9125 29.306 41.9108 31.0352 41.8968 32.7401C41.889 33.6899 41.7619 34.6455 41.5483 35.5828L41.5473 35.5847C41.2641 36.8541 40.3232 37.6288 38.8906 37.7829H38.8896C36.1302 38.0894 33.3804 38.0641 30.7293 38.1637C28.1798 38.1761 25.8035 38.1025 23.422 38.0036H23.4229C22.3933 37.9537 21.4024 37.9051 20.4301 37.7262H20.4282C19.6428 37.5838 19.0799 37.3081 18.6887 36.9157C18.2996 36.5254 18.0381 35.9763 17.9312 35.2078L17.9303 35.2048C17.6042 32.9463 17.5118 30.6744 17.6416 28.3769L17.6416 28.375C17.7163 26.9384 17.7777 25.5584 18.0781 24.2072C18.2405 23.4758 18.5579 22.9343 18.992 22.5588C19.4269 22.1827 20.0158 21.9412 20.776 21.8742H20.7789ZM26.7762 34.4598L27.5288 34.0291C29.7373 32.7656 31.9071 31.5398 34.1554 30.2626L34.9217 29.8271L34.1625 29.3935C31.9489 28.1295 29.7849 26.8907 27.5957 25.6388L26.8521 25.213L26.7762 34.4598Z" fill="#FBECEE" stroke="#E78E9E"/>
<path d="M20.7789 21.8742C24.7049 21.5049 28.6334 21.4424 32.5805 21.5412H32.5814C34.2159 21.5784 35.8427 21.6269 37.4538 21.7375L37.4538 21.7385C38.1424 21.7873 38.8221 21.8603 39.4714 21.9797L39.4714 21.9787C40.136 22.1035 40.6355 22.3863 40.9979 22.7971C41.3642 23.2123 41.6186 23.7916 41.7325 24.5519C41.8642 25.4425 41.9392 26.3196 41.9422 27.209L41.939 27.5938C41.9125 29.306 41.9108 31.0352 41.8968 32.7401C41.889 33.6899 41.7619 34.6455 41.5483 35.5828L41.5473 35.5847C41.2641 36.8541 40.3232 37.6288 38.8906 37.7829H38.8896C36.1302 38.0894 33.3804 38.0641 30.7293 38.1637C28.1798 38.1761 25.8035 38.1025 23.422 38.0036H23.4229C22.3933 37.9537 21.4024 37.9051 20.4301 37.7262H20.4282C19.6428 37.5838 19.0799 37.3081 18.6887 36.9157C18.2996 36.5254 18.0381 35.9763 17.9312 35.2078L17.9303 35.2048C17.6042 32.9463 17.5118 30.6744 17.6416 28.3769L17.6416 28.375C17.7163 26.9384 17.7777 25.5584 18.0781 24.2072C18.2405 23.4758 18.5579 22.9343 18.992 22.5588C19.4269 22.1827 20.0158 21.9412 20.776 21.8742H20.7789Z" stroke="#E78E9E"/>
</g>
<defs>
<clipPath id="clip0_256_3655">
<rect width="60" height="60" fill="white"/>
</clipPath>
</defs>
</svg>
