<svg width="60" height="60" viewBox="0 0 60 60" fill="none" xmlns="http://www.w3.org/2000/svg">
<g clip-path="url(#clip0_256_3325)">
<path d="M23.8018 26.5613C25.5688 25.9193 29.9857 25.067 33.4229 25.365H33.4297C34.5724 25.4798 35.5009 26.3045 35.6925 27.4987C35.7621 27.917 35.8551 28.4443 35.86 28.984L34.8651 29.0729C34.8376 28.8938 34.7756 28.827 34.72 28.7877C34.6426 28.7333 34.5102 28.6874 34.2836 28.6608C32.7307 28.5285 30.9498 28.6586 29.3529 28.8991C27.7532 29.1399 26.376 29.486 25.6309 29.7672C25.5028 29.8243 25.4168 29.8815 25.357 29.9459C25.3004 30.0069 25.246 30.0972 25.2168 30.2564C25.1118 30.8393 25.057 31.7663 25.064 32.689C25.071 33.6125 25.1392 34.4642 25.2537 34.9243C25.3601 35.2456 25.5544 35.4639 25.7412 35.6088C25.8367 35.6829 25.9293 35.7361 26.0016 35.7719C26.0709 35.8062 26.1143 35.8203 26.1184 35.8217L25.8955 36.7972C24.9737 36.6434 24.2707 36.3438 23.792 36.2035L23.7832 36.2016L23.7832 36.2006C22.8701 35.9146 22.1932 35.1932 22.0342 34.1753L22.0352 34.1743C21.7458 32.3988 21.7628 30.4662 22.0385 28.653L22.0426 28.6315C22.2249 27.7034 22.772 26.9737 23.6264 26.6257L23.8018 26.5613Z" fill="#FBF4E9" stroke="#E8C27F"/>
<mask id="path-2-outside-1_256_3325" maskUnits="userSpaceOnUse" x="18.6516" y="16.4702" width="22.2133" height="25.9991" fill="black">
<rect fill="white" x="18.6516" y="16.4702" width="22.2133" height="25.9991"/>
<path d="M31.0427 22.4095C35.9817 22.9681 39.7797 26.8556 39.741 31.5723C39.6991 36.6716 35.1873 40.8053 29.6653 40.8054C24.1422 40.8054 19.6992 36.6717 19.741 31.5723C19.7769 27.1923 23.109 23.527 27.5472 22.5784L24.9148 19.3207L25.5164 18.8344L28.4195 22.429C28.8764 22.3701 29.3428 22.3382 29.8168 22.3382C29.9778 22.3382 30.138 22.342 30.2971 22.349L34.884 17.4702L31.0427 22.4095ZM33.1883 26.2141C30.0065 25.9405 25.891 26.739 24.2875 27.3293C23.5664 27.5707 23.113 28.1642 22.964 28.9064C22.7108 30.5895 22.7761 32.7012 23.024 33.9843C23.2441 34.9847 23.7968 35.3973 24.4941 35.6044C25.016 35.7593 25.3938 35.8584 26.0514 35.9911C27.7578 36.345 30.7088 36.649 32.7896 36.4872C34.0446 36.3856 34.5501 35.9546 34.8144 34.7694C35.1425 33.1574 35.21 31.0281 35.0673 29.1759C35.03 28.6953 34.9775 28.2414 34.9103 27.8351C34.7669 26.9162 34.0005 26.2844 33.1883 26.2141Z"/>
</mask>
<path d="M31.0427 22.4095C35.9817 22.9681 39.7797 26.8556 39.741 31.5723C39.6991 36.6716 35.1873 40.8053 29.6653 40.8054C24.1422 40.8054 19.6992 36.6717 19.741 31.5723C19.7769 27.1923 23.109 23.527 27.5472 22.5784L24.9148 19.3207L25.5164 18.8344L28.4195 22.429C28.8764 22.3701 29.3428 22.3382 29.8168 22.3382C29.9778 22.3382 30.138 22.342 30.2971 22.349L34.884 17.4702L31.0427 22.4095ZM33.1883 26.2141C30.0065 25.9405 25.891 26.739 24.2875 27.3293C23.5664 27.5707 23.113 28.1642 22.964 28.9064C22.7108 30.5895 22.7761 32.7012 23.024 33.9843C23.2441 34.9847 23.7968 35.3973 24.4941 35.6044C25.016 35.7593 25.3938 35.8584 26.0514 35.9911C27.7578 36.345 30.7088 36.649 32.7896 36.4872C34.0446 36.3856 34.5501 35.9546 34.8144 34.7694C35.1425 33.1574 35.21 31.0281 35.0673 29.1759C35.03 28.6953 34.9775 28.2414 34.9103 27.8351C34.7669 26.9162 34.0005 26.2844 33.1883 26.2141Z" fill="#FBF4E9"/>
<path d="M31.0427 22.4095L30.2552 21.7997L29.1629 23.2042L30.9223 23.4031L31.0427 22.4095ZM39.741 31.5723L40.741 31.5723L40.741 31.5723H39.741ZM29.6653 40.8054L29.6571 41.8053L29.6571 41.8053L29.6653 40.8054ZM19.741 31.5723L18.741 31.5723L18.741 31.5723L19.741 31.5723ZM27.5472 22.5784L27.7485 23.5562L29.3514 23.2137L28.3271 21.9461L27.5472 22.5784ZM24.9148 19.3207L24.2899 18.5451L23.5079 19.1772L24.1349 19.9531L24.9148 19.3207ZM25.5164 18.8344L26.2964 18.2023L25.6714 17.4285L24.8916 18.0588L25.5164 18.8344ZM28.4195 22.429L27.6395 23.0611L27.9874 23.4919L28.5394 23.4208L28.4195 22.429ZM29.8168 22.3382L29.825 21.3382H29.825L29.8168 22.3382ZM30.2971 22.349L30.2453 23.348L30.7059 23.3681L31.0231 23.0307L30.2971 22.349ZM34.884 17.4702L35.6716 18.08L34.1581 16.7885L34.884 17.4702ZM33.1883 26.2141L33.2826 25.2178L33.2821 25.2178L33.1883 26.2141ZM24.2875 27.3293L24.598 28.2772L24.6122 28.2725L24.6262 28.2673L24.2875 27.3293ZM22.964 28.9064L21.9836 28.7174L21.9788 28.7413L21.9752 28.7655L22.964 28.9064ZM23.024 33.9843L22.042 34.1817L22.0444 34.1943L22.0472 34.2068L23.024 33.9843ZM24.4941 35.6044L24.2021 36.5631L24.2022 36.5632L24.4941 35.6044ZM26.0514 35.9911L26.2623 35.0119L26.2569 35.0108L26.0514 35.9911ZM32.7896 36.4872L32.859 37.4841L32.8621 37.4839L32.7896 36.4872ZM34.8144 34.7694L35.7904 34.9794L35.7924 34.9703L35.7943 34.9611L34.8144 34.7694ZM35.0673 29.1759L36.0644 29.0909L36.0643 29.0903L35.0673 29.1759ZM34.9103 27.8351L33.9222 27.9973L33.9236 28.006L34.9103 27.8351ZM31.0427 22.4095L30.9223 23.4031C35.4265 23.9125 38.775 27.4323 38.741 31.5723H39.741H40.741C40.7844 26.2789 36.5369 22.0236 31.1632 21.4159L31.0427 22.4095ZM39.741 31.5723L38.741 31.5723C38.7043 36.0457 34.7199 39.8054 29.6735 39.8054L29.6653 40.8054L29.6571 41.8053C35.6548 41.8053 40.694 37.2976 40.741 31.5723L39.741 31.5723ZM29.6653 40.8054L29.6735 39.8054C24.6261 39.8054 20.7044 36.0458 20.741 31.5723L19.741 31.5723L18.741 31.5723C18.6941 37.2975 23.6582 41.8053 29.6571 41.8053L29.6653 40.8054ZM19.741 31.5723H20.741C20.7726 27.7258 23.7087 24.4196 27.7485 23.5562L27.5472 22.5784L27.3459 21.6006C22.5092 22.6343 18.7813 26.6588 18.741 31.5723H19.741ZM27.5472 22.5784L28.3271 21.9461L25.6946 18.6884L24.9148 19.3207L24.1349 19.9531L26.7673 23.2108L27.5472 22.5784ZM24.9148 19.3207L25.5396 20.0964L26.1412 19.61L25.5164 18.8344L24.8916 18.0588L24.2899 18.5451L24.9148 19.3207ZM25.5164 18.8344L24.7364 19.4665L27.6395 23.0611L28.4195 22.429L29.1996 21.7969L26.2964 18.2023L25.5164 18.8344ZM28.4195 22.429L28.5394 23.4208C28.956 23.3671 29.3795 23.3382 29.8086 23.3382L29.8168 22.3382L29.825 21.3382C29.306 21.3382 28.7968 21.3732 28.2997 21.4373L28.4195 22.429ZM29.8168 22.3382L29.8085 23.3382C29.954 23.3382 30.0995 23.3416 30.2453 23.348L30.2971 22.349L30.349 21.3499C30.1764 21.3424 30.0017 21.3382 29.825 21.3382L29.8168 22.3382ZM30.2971 22.349L31.0231 23.0307L35.61 18.152L34.884 17.4702L34.1581 16.7885L29.5712 21.6672L30.2971 22.349ZM34.884 17.4702L34.0965 16.8604L30.2552 21.7997L31.0427 22.4095L31.8303 23.0193L35.6716 18.08L34.884 17.4702ZM33.1883 26.2141L33.2821 25.2178C31.5865 25.072 29.6788 25.2128 28.0085 25.4584C26.3439 25.7031 24.8398 26.0632 23.9488 26.3912L24.2875 27.3293L24.6262 28.2673C25.3388 28.005 26.6941 27.6707 28.2835 27.437C29.8674 27.2042 31.6082 27.0826 33.0945 27.2104L33.1883 26.2141ZM24.2875 27.3293L23.9771 26.3813C22.8598 26.7553 22.1919 27.6797 21.9836 28.7174L22.964 28.9064L23.9445 29.0953C24.0341 28.6487 24.273 28.386 24.598 28.2772L24.2875 27.3293ZM22.964 28.9064L21.9752 28.7655C21.7056 30.557 21.7718 32.7831 22.042 34.1817L23.024 33.9843L24.0059 33.7869C23.7803 32.6192 23.716 30.6221 23.9529 29.0472L22.964 28.9064ZM23.024 33.9843L22.0472 34.2068C22.1899 34.8554 22.4593 35.389 22.8684 35.8001C23.2729 36.2066 23.7504 36.429 24.2021 36.5631L24.4941 35.6044L24.786 34.6456C24.5405 34.5727 24.393 34.4852 24.2918 34.3836C24.1952 34.2864 24.0781 34.1136 24.0007 33.7618L23.024 33.9843ZM24.4941 35.6044L24.2022 36.5632C24.7498 36.7257 25.1565 36.8323 25.8459 36.9714L26.0514 35.9911L26.2569 35.0108C25.6311 34.8845 25.2821 34.7929 24.7859 34.6456L24.4941 35.6044ZM26.0514 35.9911L25.8406 36.9703C27.6122 37.3377 30.6604 37.6551 32.859 37.4841L32.7896 36.4872L32.7201 35.4902C30.7571 35.6429 27.9034 35.3523 26.2623 35.0119L26.0514 35.9911ZM32.7896 36.4872L32.8621 37.4839C33.5694 37.4266 34.2624 37.2657 34.8172 36.7946C35.3779 36.3185 35.6382 35.6616 35.7904 34.9794L34.8144 34.7694L33.8384 34.5595C33.7262 35.0625 33.6016 35.2137 33.5298 35.2747C33.452 35.3408 33.2647 35.4461 32.717 35.4904L32.7896 36.4872ZM34.8144 34.7694L35.7943 34.9611C36.146 33.2328 36.212 31.0059 36.0644 29.0909L35.0673 29.1759L34.0702 29.2608C34.2081 31.0503 34.1389 33.0821 33.8345 34.5778L34.8144 34.7694ZM35.0673 29.1759L36.0643 29.0903C36.0253 28.5873 35.9697 28.1043 35.897 27.6642L34.9103 27.8351L33.9236 28.006C33.9852 28.3785 34.0347 28.8032 34.0703 29.2614L35.0673 29.1759ZM34.9103 27.8351L35.8984 27.6729C35.6806 26.2781 34.5247 25.3253 33.2826 25.2178L33.1883 26.2141L33.0939 27.2103C33.4763 27.2434 33.8531 27.5544 33.9222 27.9973L34.9103 27.8351Z" fill="#E8C27F" mask="url(#path-2-outside-1_256_3325)"/>
</g>
<defs>
<clipPath id="clip0_256_3325">
<rect width="60" height="60" fill="white"/>
</clipPath>
</defs>
</svg>
