<svg width="60" height="60" viewBox="0 0 60 60" fill="none" xmlns="http://www.w3.org/2000/svg">
<g clip-path="url(#clip0_168_3067)">
<mask id="path-1-outside-1_168_3067" maskUnits="userSpaceOnUse" x="21.272" y="24.8033" width="16.1066" height="12.9996" fill="black">
<rect fill="white" x="21.272" y="24.8033" width="16.1066" height="12.9996"/>
<path d="M25.9819 36.3038C25.0957 36.1559 24.4882 35.8854 23.9361 35.7236C23.1939 35.4911 22.6568 34.9161 22.5284 34.0937C22.2476 32.3739 22.2641 30.4925 22.5331 28.724C22.6963 27.8922 23.1921 27.2886 23.9552 27.036C25.6517 26.4155 30.01 25.5709 33.3754 25.8627C34.3019 25.9556 35.0458 26.6174 35.1996 27.5845C35.2707 28.0116 35.3551 28.4989 35.3596 28.9925C35.2686 28.4006 34.8591 28.2241 34.3454 28.1638C31.1268 27.8858 27.0273 28.704 25.4491 29.3023C25.1062 29.4513 24.8149 29.6775 24.7246 30.17C24.4982 31.4247 24.5078 34.0229 24.7718 35.062C25.056 35.9561 25.8481 36.2669 25.9819 36.3038Z"/>
</mask>
<path d="M25.9819 36.3038C25.0957 36.1559 24.4882 35.8854 23.9361 35.7236C23.1939 35.4911 22.6568 34.9161 22.5284 34.0937C22.2476 32.3739 22.2641 30.4925 22.5331 28.724C22.6963 27.8922 23.1921 27.2886 23.9552 27.036C25.6517 26.4155 30.01 25.5709 33.3754 25.8627C34.3019 25.9556 35.0458 26.6174 35.1996 27.5845C35.2707 28.0116 35.3551 28.4989 35.3596 28.9925C35.2686 28.4006 34.8591 28.2241 34.3454 28.1638C31.1268 27.8858 27.0273 28.704 25.4491 29.3023C25.1062 29.4513 24.8149 29.6775 24.7246 30.17C24.4982 31.4247 24.5078 34.0229 24.7718 35.062C25.056 35.9561 25.8481 36.2669 25.9819 36.3038Z" fill="#FDF3E3"/>
<path d="M25.9819 36.3038C25.0957 36.1559 24.4882 35.8854 23.9361 35.7236C23.1939 35.4911 22.6568 34.9161 22.5284 34.0937C22.2476 32.3739 22.2641 30.4925 22.5331 28.724C22.6963 27.8922 23.1921 27.2886 23.9552 27.036C25.6517 26.4155 30.01 25.5709 33.3754 25.8627C34.3019 25.9556 35.0458 26.6174 35.1996 27.5845C35.2707 28.0116 35.3551 28.4989 35.3596 28.9925C35.2686 28.4006 34.8591 28.2241 34.3454 28.1638C31.1268 27.8858 27.0273 28.704 25.4491 29.3023C25.1062 29.4513 24.8149 29.6775 24.7246 30.17C24.4982 31.4247 24.5078 34.0229 24.7718 35.062C25.056 35.9561 25.8481 36.2669 25.9819 36.3038Z" stroke="#F3C067" stroke-width="2" mask="url(#path-1-outside-1_168_3067)"/>
<mask id="path-2-outside-2_168_3067" maskUnits="userSpaceOnUse" x="18.6555" y="14.9996" width="22.2215" height="26.9991" fill="black">
<rect fill="white" x="18.6555" y="14.9996" width="22.2215" height="26.9991"/>
<path fill-rule="evenodd" clip-rule="evenodd" d="M34.8838 17.4702L34.278 16.9995L30.1229 22.3421C30.0212 22.3393 29.9191 22.3379 29.8167 22.3379C29.3424 22.3379 28.8756 22.3684 28.4185 22.4273L25.516 18.8348L24.9144 19.3204L27.5453 22.5767C23.1078 23.5258 19.7769 27.1927 19.741 31.5722C19.6992 36.6716 24.142 40.8055 29.6652 40.8055C35.1873 40.8055 39.6992 36.6716 39.741 31.5722C39.7797 26.8563 35.9832 22.9666 31.0455 22.407L34.8838 17.4702ZM26.0517 35.9907C27.7581 36.3447 30.7084 36.6495 32.7892 36.4876C34.0446 36.3861 34.5501 35.9546 34.8144 34.769C35.1425 33.157 35.2103 31.0282 35.0675 29.1759C35.0302 28.6953 34.9775 28.2417 34.9104 27.8354C34.7671 26.9164 34.0006 26.2848 33.1883 26.2145C30.0065 25.9409 25.8913 26.7394 24.2878 27.3297C23.5666 27.571 23.113 28.1642 22.964 28.9065C22.7108 30.5898 22.776 32.7015 23.0239 33.9846C23.2441 34.9852 23.7971 35.3976 24.4945 35.6046C25.0165 35.7596 25.3939 35.858 26.0517 35.9907Z"/>
</mask>
<path fill-rule="evenodd" clip-rule="evenodd" d="M34.8838 17.4702L34.278 16.9995L30.1229 22.3421C30.0212 22.3393 29.9191 22.3379 29.8167 22.3379C29.3424 22.3379 28.8756 22.3684 28.4185 22.4273L25.516 18.8348L24.9144 19.3204L27.5453 22.5767C23.1078 23.5258 19.7769 27.1927 19.741 31.5722C19.6992 36.6716 24.142 40.8055 29.6652 40.8055C35.1873 40.8055 39.6992 36.6716 39.741 31.5722C39.7797 26.8563 35.9832 22.9666 31.0455 22.407L34.8838 17.4702ZM26.0517 35.9907C27.7581 36.3447 30.7084 36.6495 32.7892 36.4876C34.0446 36.3861 34.5501 35.9546 34.8144 34.769C35.1425 33.157 35.2103 31.0282 35.0675 29.1759C35.0302 28.6953 34.9775 28.2417 34.9104 27.8354C34.7671 26.9164 34.0006 26.2848 33.1883 26.2145C30.0065 25.9409 25.8913 26.7394 24.2878 27.3297C23.5666 27.571 23.113 28.1642 22.964 28.9065C22.7108 30.5898 22.776 32.7015 23.0239 33.9846C23.2441 34.9852 23.7971 35.3976 24.4945 35.6046C25.0165 35.7596 25.3939 35.858 26.0517 35.9907Z" fill="#FDF3E3"/>
<path d="M34.278 16.9995L34.8956 16.208L34.1078 15.5959L33.4905 16.3897L34.278 16.9995ZM34.8838 17.4702L35.6714 18.0799L36.2866 17.2887L35.5014 16.6787L34.8838 17.4702ZM30.1229 22.3421L30.0869 23.3417L30.5962 23.3559L30.9104 22.952L30.1229 22.3421ZM28.4185 22.4273L27.6386 23.0596L27.9865 23.4902L28.5384 23.4191L28.4185 22.4273ZM25.516 18.8348L26.2959 18.2025L25.6713 17.4294L24.8917 18.0588L25.516 18.8348ZM24.9144 19.3204L24.2901 18.5444L23.5072 19.1764L24.1345 19.9527L24.9144 19.3204ZM27.5453 22.5767L27.7467 23.5545L29.3491 23.2118L28.3252 21.9444L27.5453 22.5767ZM31.0455 22.407L30.2579 21.7973L29.1663 23.2013L30.9248 23.4006L31.0455 22.407ZM32.7892 36.4876L32.8586 37.4845L32.8616 37.4843L32.7892 36.4876ZM26.0517 35.9907L26.2626 35.0115L26.2572 35.0105L26.0517 35.9907ZM34.8144 34.769L35.7904 34.9789L35.7924 34.9698L35.7943 34.9607L34.8144 34.769ZM35.0675 29.1759L36.0646 29.0909L36.0646 29.0903L35.0675 29.1759ZM34.9104 27.8354L33.9222 27.9974L33.9237 28.0063L34.9104 27.8354ZM33.1883 26.2145L33.2826 25.2182L33.2821 25.2182L33.1883 26.2145ZM24.2878 27.3297L24.5982 28.2777L24.6124 28.2729L24.6265 28.2677L24.2878 27.3297ZM22.964 28.9065L21.9836 28.7175L21.9788 28.7415L21.9752 28.7656L22.964 28.9065ZM23.0239 33.9846L22.042 34.1821L22.0444 34.1947L22.0472 34.2072L23.0239 33.9846ZM24.4945 35.6046L24.7864 34.6458L24.7863 34.6458L24.4945 35.6046ZM33.6604 17.791L34.2662 18.2617L35.5014 16.6787L34.8956 16.208L33.6604 17.791ZM30.9104 22.952L35.0655 17.6093L33.4905 16.3897L29.3353 21.7323L30.9104 22.952ZM29.8085 23.3379C29.9017 23.3379 29.9945 23.3392 30.0869 23.3417L30.1588 21.3426C30.0479 21.3395 29.9366 21.3379 29.8249 21.3379L29.8085 23.3379ZM28.5384 23.4191C28.9531 23.3656 29.3771 23.3379 29.8085 23.3379L29.8249 21.3379C29.3077 21.3379 28.7982 21.3712 28.2986 21.4356L28.5384 23.4191ZM24.736 19.467L27.6386 23.0596L29.1984 21.7951L26.2959 18.2025L24.736 19.467ZM25.5387 20.0965L26.1403 19.6108L24.8917 18.0588L24.2901 18.5444L25.5387 20.0965ZM28.3252 21.9444L25.6943 18.6882L24.1345 19.9527L26.7653 23.209L28.3252 21.9444ZM20.741 31.5722C20.7725 27.7258 23.708 24.4183 27.7467 23.5545L27.3438 21.5989C22.5075 22.6333 18.7813 26.6596 18.741 31.5722H20.741ZM29.6734 39.8056C24.626 39.8056 20.7043 36.0458 20.741 31.5722H18.741C18.694 37.2974 23.6581 41.8055 29.657 41.8055L29.6734 39.8056ZM38.741 31.5722C38.7043 36.0457 34.7199 39.8056 29.6734 39.8056L29.657 41.8055C35.6548 41.8055 40.694 37.2975 40.741 31.5722H38.741ZM30.9248 23.4006C35.4275 23.9109 38.775 27.4325 38.741 31.5722H40.741C40.7844 26.2801 36.539 22.0223 31.1662 21.4134L30.9248 23.4006ZM34.0962 16.8605L30.2579 21.7973L31.8331 23.0167L35.6714 18.0799L34.0962 16.8605ZM32.7197 35.4906C30.7569 35.6433 27.904 35.352 26.2626 35.0115L25.8409 36.9699C27.6122 37.3374 30.6598 37.6556 32.8586 37.4845L32.7197 35.4906ZM33.8384 34.5591C33.7262 35.0624 33.6015 35.2139 33.5296 35.275C33.4518 35.3411 33.2644 35.4466 32.7167 35.4909L32.8616 37.4843C33.5693 37.4271 34.2625 37.2661 34.8173 36.7947C35.3781 36.3183 35.6383 35.6612 35.7904 34.9789L33.8384 34.5591ZM34.0705 29.2608C34.2083 31.0503 34.1389 33.0816 33.8345 34.5773L35.7943 34.9607C36.146 33.2324 36.2122 31.006 36.0646 29.0909L34.0705 29.2608ZM33.9237 28.0063C33.9853 28.3791 34.0349 28.8035 34.0705 29.2615L36.0646 29.0903C36.0255 28.587 35.9698 28.1044 35.8971 27.6645L33.9237 28.0063ZM33.0939 27.2107C33.4767 27.2439 33.8532 27.5547 33.9223 27.9974L35.8985 27.6735C35.6809 26.278 34.5245 25.3257 33.2826 25.2182L33.0939 27.2107ZM24.6265 28.2677C25.3391 28.0054 26.6943 27.6711 28.2837 27.4374C29.8674 27.2046 31.6082 27.083 33.0945 27.2108L33.2821 25.2182C31.5865 25.0724 29.6788 25.2133 28.0087 25.4588C26.3441 25.7036 24.84 26.0636 23.9491 26.3916L24.6265 28.2677ZM23.9445 29.0954C24.034 28.6492 24.2728 28.3866 24.5982 28.2777L23.9775 26.3817C22.8603 26.7555 22.1919 27.6793 21.9836 28.7175L23.9445 29.0954ZM24.0059 33.7872C23.7802 32.6196 23.7159 30.6224 23.9529 29.0473L21.9752 28.7656C21.7056 30.5572 21.7717 32.7835 22.042 34.1821L24.0059 33.7872ZM24.7863 34.6458C24.5405 34.5728 24.3929 34.4853 24.2918 34.3838C24.1952 34.2867 24.0781 34.114 24.0007 33.7621L22.0472 34.2072C22.1899 34.8559 22.4594 35.3896 22.8687 35.8007C23.2734 36.2071 23.7511 36.4293 24.2027 36.5634L24.7863 34.6458ZM26.2572 35.0105C25.6306 34.884 25.282 34.7929 24.7864 34.6458L24.2027 36.5634C24.751 36.7262 25.1573 36.832 25.8463 36.971L26.2572 35.0105Z" fill="#F3C067" mask="url(#path-2-outside-2_168_3067)"/>
</g>
<defs>
<clipPath id="clip0_168_3067">
<rect width="60" height="60" fill="white"/>
</clipPath>
</defs>
</svg>
