<?xml version="1.0" encoding="utf-8"?>
<!-- Generator: Adobe Illustrator 22.1.0, SVG Export Plug-In . SVG Version: 6.00 Build 0)  -->
<svg version="1.1" id="Ebene_1" xmlns="http://www.w3.org/2000/svg" xmlns:xlink="http://www.w3.org/1999/xlink" x="0px" y="0px"
	 viewBox="0 0 75 75" style="enable-background:new 0 0 75 75;" xml:space="preserve">
<style type="text/css">
	.st0{fill:#3A2F3C;}
	.st1{fill:#FFFFFF;}
</style>
<circle class="st0" cx="37.5" cy="37.5" r="37.5"/>
<g>
	<path class="st1" d="M37.3,33.6c3.2,0,5.7-3.2,5.7-7.1c0-3.9-2.6-7.1-5.7-7.1c-3.2,0-5.7,3.2-5.7,7.1
		C31.6,30.5,34.1,33.6,37.3,33.6z"/>
	<path class="st1" d="M45.3,35.5c-0.1-0.1-0.2-0.1-0.4-0.2c-5.1-0.6-10.1-0.6-15.2,0c-0.1,0-0.2,0.1-0.3,0.1c0,0,0,0,0,0
		c-1.7-0.1-3.2,1.3-3.4,3.2l-1.1,14.5H50l-1.2-14.5c-0.2-1.9-1.7-3.2-3.4-3.2C45.4,35.5,45.3,35.5,45.3,35.5z"/>
</g>
</svg>
