<?xml version="1.0" encoding="utf-8"?>
<!-- Generator: Adobe Illustrator 24.1.0, SVG Export Plug-In . SVG Version: 6.00 Build 0)  -->
<svg version="1.1" id="labels_de" xmlns="http://www.w3.org/2000/svg" xmlns:xlink="http://www.w3.org/1999/xlink" x="0px" y="0px"
	 viewBox="0 0 1201 727" style="enable-background:new 0 0 1201 727;" xml:space="preserve">
<style type="text/css">
	.st0{fill:#3A2F3C;}
	.st1{fill:#647CC1;}
</style>
<g>
	<path class="st0" d="M199.11,198.26c1.81,0,2.98,1.4,2.98,3.51c0,2.34-1.42,3.79-3.76,3.79c-1.74,0-3.09-0.93-3.52-2.64l1.69-0.72
		c0.21,1.23,0.92,1.74,1.86,1.74c1.12,0,1.9-0.73,1.9-2.07c0-1.36-0.75-2.08-1.78-2.08c-0.79,0-1.37,0.39-1.65,1.1l-1.58-0.21
		l0.39-5.65h5.8v1.56h-4.38l-0.23,2.59C197.4,198.56,198.18,198.26,199.11,198.26z"/>
	<path class="st0" d="M207.12,205.57c-2.46,0-3.85-1.95-3.85-5.4c0-3.43,1.41-5.35,3.88-5.35c2.42,0,3.83,2.01,3.83,5.43
		S209.6,205.57,207.12,205.57z M207.15,196.43c-1.29,0-2.08,1.26-2.08,3.75c0,2.58,0.75,3.75,2.07,3.75c1.3,0,2.07-1.11,2.07-3.6
		C209.21,197.74,208.41,196.43,207.15,196.43z"/>
	<path class="st0" d="M215.78,205.57c-2.46,0-3.85-1.95-3.85-5.4c0-3.43,1.41-5.35,3.88-5.35c2.42,0,3.83,2.01,3.83,5.43
		S218.25,205.57,215.78,205.57z M215.81,196.43c-1.29,0-2.08,1.26-2.08,3.75c0,2.58,0.75,3.75,2.07,3.75c1.3,0,2.07-1.11,2.07-3.6
		C217.86,197.74,217.07,196.43,215.81,196.43z"/>
	<path class="st0" d="M224.88,204.92v-3.33h-3.3v-1.68h3.3v-3.36h1.75v3.36h3.3v1.68h-3.3v3.33H224.88z"/>
	<path class="st0" d="M240.06,200.8c0,1.89-0.04,3.12-0.77,3.91c-0.48,0.54-1.24,0.84-2.44,0.84c-0.72,0-1.46-0.15-2.07-0.44
		l0.44-1.71c0.42,0.31,0.9,0.48,1.4,0.48c0.66,0,1.09-0.18,1.33-0.75c0.17-0.41,0.21-1.02,0.21-1.92v-6.45h1.9V200.8z"/>
	<path class="st0" d="M245.22,205.57c-2.34,0-3.66-1.47-3.66-3.96c0-2.47,1.46-3.93,3.77-3.93c2.22,0,3.55,1.48,3.55,4.02
		C248.88,204.19,247.41,205.57,245.22,205.57z M245.28,199.15c-1.11,0-1.92,0.85-1.92,2.42c0,1.69,0.78,2.54,1.88,2.54
		c1.09,0,1.87-0.77,1.87-2.45C247.11,199.99,246.39,199.15,245.28,199.15z"/>
	<path class="st0" d="M252,197.89v4.26c0,0.45,0.06,0.89,0.19,1.17c0.2,0.41,0.56,0.63,1.12,0.63c0.5,0,0.93-0.25,1.2-0.58
		c0.31-0.4,0.46-0.9,0.46-1.6v-3.87h1.75v7.47h-1.72v-1.06c-0.51,0.72-1.28,1.2-2.33,1.2c-0.96,0-1.54-0.3-1.96-0.9
		c-0.33-0.46-0.46-1.12-0.46-1.99v-4.71H252z"/>
	<path class="st0" d="M258.54,205.36v-7.47h1.68v1.15c0.45-0.81,1.04-1.24,2.07-1.24c0.24,0,0.42,0.03,0.64,0.09v1.77
		c-0.28-0.15-0.51-0.21-0.84-0.21c-0.58,0-1.08,0.25-1.41,0.73c-0.26,0.38-0.39,0.9-0.39,1.69v3.48H258.54z"/>
	<path class="st0" d="M268.67,205.36v-4.29c0-0.58-0.06-1.02-0.27-1.32c-0.19-0.28-0.52-0.42-1-0.42s-0.98,0.25-1.27,0.66
		c-0.38,0.49-0.44,1.05-0.44,1.77v3.6h-1.75v-7.47h1.74V199c0.54-0.76,1.43-1.24,2.48-1.24c0.9,0,1.48,0.31,1.86,0.88
		c0.3,0.45,0.42,1.04,0.42,2.04v4.68H268.67z"/>
	<path class="st0" d="M276.41,200.29c0-0.42-0.09-0.71-0.28-0.9c-0.21-0.21-0.57-0.31-1.04-0.31c-0.92,0-1.32,0.46-1.41,1.29
		l-1.68-0.15c0.12-1.62,1.32-2.52,3.22-2.52c1.02,0,1.74,0.24,2.24,0.72c0.46,0.44,0.63,1.05,0.63,2.22v2.74
		c0,0.89,0.06,1.62,0.21,1.98h-1.69c-0.06-0.24-0.15-0.71-0.15-0.93c-0.57,0.69-1.38,1.06-2.44,1.06c-1.36,0-2.32-0.85-2.32-2.19
		c0-0.96,0.48-1.59,1.36-2c0.73-0.33,2.17-0.54,3.36-0.62V200.29z M276.41,201.86c-0.85,0.04-1.86,0.19-2.38,0.45
		c-0.46,0.21-0.65,0.5-0.65,0.92c0,0.54,0.36,0.94,1.14,0.94c0.67,0,1.23-0.28,1.56-0.78c0.24-0.35,0.32-0.77,0.33-1.19V201.86z"/>
	<path class="st0" d="M281.63,205.36h-1.77v-10.59h1.77V205.36z"/>
	<path class="st0" d="M283.44,196.42v-1.65h1.79v1.65H283.44z M285.23,205.36h-1.77v-7.47h1.77V205.36z"/>
	<path class="st0" d="M287.73,202.99c0.39,0.77,1.08,1.22,1.9,1.22c0.77,0,1.19-0.33,1.19-0.78c0-0.49-0.25-0.7-1.38-1.06
		l-0.79-0.25c-1.15-0.36-1.89-1.04-1.89-2.17c0-1.17,1.05-2.25,2.9-2.25c1.19,0,2.28,0.45,2.94,1.5l-1.3,0.88
		c-0.38-0.66-0.95-1.05-1.67-1.05c-0.75,0-1.11,0.3-1.11,0.73c0,0.45,0.24,0.66,1.2,0.96l0.79,0.24c1.32,0.42,2.07,1.03,2.07,2.23
		c0,1.38-1.15,2.38-3.01,2.38c-1.53,0-2.56-0.73-3.19-1.68L287.73,202.99z"/>
	<path class="st0" d="M297.53,205.33c-0.39,0.1-0.87,0.16-1.3,0.16c-0.73,0-1.23-0.18-1.53-0.54c-0.31-0.36-0.42-0.89-0.42-1.58
		v-4.08h-1.17v-1.41h1.2v-2.43h1.74v2.43h1.46v1.41h-1.46v3.73c0,0.76,0.23,1.03,0.77,1.03c0.21,0,0.48-0.04,0.72-0.13V205.33z"/>
	<path class="st0" d="M305.13,203.48c-0.55,1.35-1.69,2.1-3.25,2.1c-2.4,0-3.69-1.56-3.69-4.04c0-2.38,1.44-3.87,3.62-3.87
		c2.37,0,3.36,1.73,3.37,4.4h-5.22c0.06,1.29,0.77,2.02,1.95,2.02c0.76,0,1.41-0.3,1.68-1.16L305.13,203.48z M303.39,200.81
		c-0.06-1.17-0.67-1.77-1.63-1.77s-1.67,0.6-1.79,1.77H303.39z"/>
	<path class="st0" d="M311.28,205.36v-4.29c0-0.58-0.06-1.02-0.27-1.32c-0.19-0.28-0.52-0.42-1-0.42s-0.98,0.25-1.27,0.66
		c-0.38,0.49-0.44,1.05-0.44,1.77v3.6h-1.75v-7.47h1.74V199c0.54-0.76,1.43-1.24,2.48-1.24c0.9,0,1.48,0.31,1.86,0.88
		c0.3,0.45,0.42,1.04,0.42,2.04v4.68H311.28z"/>
	<path class="st0" d="M316.4,205.28c0,1.17-0.22,1.74-0.97,2.43l-0.84-0.66c0.45-0.44,0.63-0.81,0.64-1.69h-0.58v-2.17h1.75V205.28z
		"/>
	<path class="st0" d="M195.83,214.48c1.28-0.07,2.06-0.67,2.24-1.54h1.56v10.42h-1.83v-7.81c-0.47,0.33-1.11,0.51-1.97,0.55V214.48z
		"/>
	<path class="st0" d="M207.15,223.36v-10.59h4.36c1.46,0,2.34,0.22,2.92,0.64c0.79,0.56,1.15,1.53,1.15,2.6
		c0,1.19-0.42,2.25-1.35,2.77c-0.78,0.44-1.88,0.58-3.15,0.58h-2.06v3.99H207.15z M210.95,217.75c1.03,0,1.71-0.1,2.13-0.39
		c0.39-0.28,0.54-0.73,0.54-1.33c0-0.54-0.18-0.99-0.54-1.28c-0.41-0.3-0.92-0.36-2.01-0.36h-2.02v3.36H210.95z"/>
	<path class="st0" d="M216.33,223.36v-7.47h1.68v1.15c0.45-0.81,1.04-1.24,2.07-1.24c0.24,0,0.42,0.03,0.64,0.09v1.77
		c-0.28-0.15-0.51-0.21-0.84-0.21c-0.58,0-1.08,0.25-1.41,0.73c-0.26,0.38-0.39,0.9-0.39,1.69v3.48H216.33z"/>
	<path class="st0" d="M224.97,223.57c-2.34,0-3.66-1.47-3.66-3.96c0-2.47,1.46-3.93,3.77-3.93c2.22,0,3.55,1.48,3.55,4.02
		C228.63,222.19,227.16,223.57,224.97,223.57z M225.03,217.15c-1.11,0-1.92,0.85-1.92,2.42c0,1.69,0.78,2.54,1.88,2.54
		c1.09,0,1.87-0.77,1.87-2.45C226.86,217.99,226.14,217.15,225.03,217.15z"/>
	<path class="st0" d="M234.89,223.36v-1.05c-0.48,0.7-1.18,1.2-2.23,1.2c-1.72,0-3-1.32-3-3.91c0-2.45,1.38-3.85,3.1-3.85
		c1.11,0,1.73,0.4,2.13,0.98v-3.94h1.71v10.59H234.89z M233.19,217.19c-1.04,0-1.74,0.79-1.74,2.38c0,1.5,0.63,2.46,1.66,2.46
		c1.04,0,1.77-0.81,1.77-2.4C234.89,218.14,234.24,217.19,233.19,217.19z"/>
	<path class="st0" d="M240.12,215.89v4.26c0,0.45,0.06,0.89,0.19,1.17c0.2,0.41,0.56,0.63,1.12,0.63c0.5,0,0.93-0.25,1.2-0.58
		c0.31-0.4,0.46-0.9,0.46-1.6v-3.87h1.75v7.47h-1.72v-1.06c-0.51,0.72-1.28,1.2-2.33,1.2c-0.96,0-1.54-0.3-1.96-0.9
		c-0.33-0.46-0.46-1.12-0.46-1.99v-4.71H240.12z"/>
	<path class="st0" d="M251.6,223.36l-2.08-3.4l-1.09,1.15v2.25h-1.75v-10.59h1.75v6.3l2.83-3.18h2.13l-2.62,2.83l2.88,4.63H251.6z"
		/>
	<path class="st0" d="M258.2,223.33c-0.39,0.1-0.87,0.16-1.3,0.16c-0.73,0-1.23-0.18-1.53-0.54c-0.31-0.36-0.42-0.89-0.42-1.58
		v-4.08h-1.17v-1.41h1.2v-2.43h1.74v2.43h1.46v1.41h-1.46v3.73c0,0.76,0.23,1.03,0.77,1.03c0.21,0,0.48-0.04,0.72-0.13V223.33z"/>
	<path class="st0" d="M259.25,214.42v-1.65h1.79v1.65H259.25z M261.03,223.36h-1.77v-7.47h1.77V223.36z"/>
	<path class="st0" d="M266.12,223.57c-2.34,0-3.66-1.47-3.66-3.96c0-2.47,1.46-3.93,3.77-3.93c2.22,0,3.55,1.48,3.55,4.02
		C269.78,222.19,268.31,223.57,266.12,223.57z M266.18,217.15c-1.11,0-1.92,0.85-1.92,2.42c0,1.69,0.78,2.54,1.88,2.54
		c1.09,0,1.87-0.77,1.87-2.45C268.01,217.99,267.29,217.15,266.18,217.15z"/>
	<path class="st0" d="M275.94,223.36v-4.29c0-0.58-0.06-1.02-0.27-1.32c-0.19-0.28-0.52-0.42-1-0.42s-0.98,0.25-1.27,0.66
		c-0.38,0.49-0.44,1.05-0.44,1.77v3.6h-1.75v-7.47h1.74V217c0.54-0.76,1.42-1.24,2.48-1.24c0.9,0,1.48,0.31,1.86,0.88
		c0.3,0.45,0.42,1.04,0.42,2.04v4.68H275.94z"/>
	<path class="st0" d="M280.11,220.99c0.39,0.77,1.08,1.22,1.9,1.22c0.77,0,1.19-0.33,1.19-0.78c0-0.49-0.25-0.7-1.38-1.06
		l-0.79-0.25c-1.15-0.36-1.89-1.04-1.89-2.17c0-1.17,1.05-2.25,2.9-2.25c1.19,0,2.28,0.45,2.94,1.5l-1.3,0.88
		c-0.38-0.66-0.95-1.05-1.67-1.05c-0.75,0-1.11,0.3-1.11,0.73c0,0.45,0.24,0.66,1.2,0.96l0.79,0.24c1.32,0.42,2.07,1.03,2.07,2.23
		c0,1.38-1.15,2.38-3.01,2.38c-1.53,0-2.56-0.73-3.19-1.68L280.11,220.99z"/>
	<path class="st0" d="M285.99,219.53v-1.41h4.33v1.41H285.99z"/>
	<path class="st0" d="M293.45,223.36v-8.95h-2.98v-1.63h7.95v1.63h-3v8.95H293.45z"/>
	<path class="st0" d="M301.07,223.57c-2.34,0-3.66-1.47-3.66-3.96c0-2.47,1.46-3.93,3.77-3.93c2.22,0,3.55,1.48,3.55,4.02
		C304.73,222.19,303.26,223.57,301.07,223.57z M301.13,217.15c-1.11,0-1.92,0.85-1.92,2.42c0,1.69,0.78,2.54,1.88,2.54
		c1.09,0,1.87-0.77,1.87-2.45C302.96,217.99,302.24,217.15,301.13,217.15z"/>
	<path class="st0" d="M309.41,223.57c-2.34,0-3.66-1.47-3.66-3.96c0-2.47,1.46-3.93,3.77-3.93c2.22,0,3.55,1.48,3.55,4.02
		C313.07,222.19,311.6,223.57,309.41,223.57z M309.47,217.15c-1.11,0-1.92,0.85-1.92,2.42c0,1.69,0.78,2.54,1.88,2.54
		c1.09,0,1.87-0.77,1.87-2.45C311.3,217.99,310.58,217.15,309.47,217.15z"/>
	<path class="st0" d="M316.26,223.36h-1.77v-10.59h1.77V223.36z"/>
</g>
<g>
	<path class="st1" d="M50.99,70.36v-9.18h3.78c1.26,0,2.03,0.19,2.54,0.56c0.69,0.48,1,1.33,1,2.25c0,1.03-0.36,1.95-1.17,2.4
		c-0.68,0.38-1.62,0.51-2.73,0.51h-1.78v3.46H50.99z M54.28,65.49c0.9,0,1.48-0.09,1.85-0.34c0.34-0.25,0.47-0.64,0.47-1.16
		c0-0.47-0.16-0.86-0.47-1.1c-0.35-0.26-0.79-0.31-1.74-0.31h-1.76v2.91H54.28z"/>
	<path class="st1" d="M59.57,70.36v-9.18h1.65v7.75h4.33v1.43H59.57z"/>
	<path class="st1" d="M72.75,70.36l-0.73-2.15H68.4l-0.74,2.15h-1.78l3.48-9.18h1.83l3.35,9.18H72.75z M71.62,66.91
		c-0.52-1.5-0.96-2.74-1.39-4.08c-0.3,0.92-0.62,1.83-1.43,4.08H71.62z"/>
	<path class="st1" d="M77.23,61.18c2,3.35,3.19,5.23,4.07,6.79c-0.05-1.4-0.06-3.26-0.06-6.79h1.64v9.18h-1.81
		c-1.91-3.15-3.12-5.12-4.08-6.73c0.04,0.79,0.05,2.56,0.05,6.73h-1.64v-9.18H77.23z"/>
	<path class="st1" d="M91.89,66.43c0,1.44-0.19,2.37-0.77,3.03c-0.64,0.74-1.61,1.09-2.95,1.09c-1.31,0-2.34-0.35-2.91-1.1
		c-0.57-0.77-0.7-1.62-0.7-3.02v-5.25h1.65v5.37c0,0.69,0.04,1.27,0.29,1.72c0.34,0.61,0.94,0.85,1.7,0.85
		c0.81,0,1.44-0.21,1.78-0.86c0.2-0.38,0.26-0.98,0.26-1.65v-5.42h1.65V66.43z"/>
	<path class="st1" d="M95.43,61.18c2,3.35,3.19,5.23,4.07,6.79c-0.05-1.4-0.06-3.26-0.06-6.79h1.64v9.18h-1.81
		c-1.91-3.15-3.12-5.12-4.08-6.73c0.04,0.79,0.05,2.56,0.05,6.73h-1.64v-9.18H95.43z"/>
	<path class="st1" d="M109.11,70.36v-1c-0.64,0.82-1.52,1.18-2.69,1.18c-2.31,0-3.98-1.83-3.98-4.65c0-2.79,1.64-4.91,4.54-4.91
		c1.85,0,3.06,0.83,3.64,2.42l-1.64,0.62c-0.29-0.98-0.95-1.57-2.04-1.57c-1.73,0-2.77,1.29-2.77,3.34c0,2.16,1.1,3.31,2.68,3.31
		c1.47,0,2.17-0.9,2.22-2.39h-2.56v-1.4h4.1v5.06H109.11z"/>
</g>
<g>
	<path class="st1" d="M50.99,271.36v-9.18h3.78c1.26,0,2.03,0.19,2.54,0.56c0.69,0.48,1,1.33,1,2.25c0,1.03-0.36,1.95-1.17,2.4
		c-0.68,0.38-1.62,0.51-2.73,0.51h-1.78v3.46H50.99z M54.28,266.49c0.9,0,1.48-0.09,1.85-0.34c0.34-0.25,0.47-0.64,0.47-1.16
		c0-0.47-0.16-0.86-0.47-1.1c-0.35-0.26-0.79-0.31-1.74-0.31h-1.76v2.91H54.28z"/>
	<path class="st1" d="M65.1,271.36l-2.31-3.67h-1.57v3.67h-1.64v-9.18h2.98c1.18,0,2.09,0.05,2.77,0.32
		c0.94,0.38,1.38,1.13,1.38,2.37c0,1.51-0.85,2.34-2.29,2.57l2.61,3.91H65.1z M62.93,266.36c0.83,0,1.3-0.1,1.6-0.34
		c0.3-0.23,0.46-0.61,0.46-1.08c0-0.48-0.12-0.87-0.51-1.12c-0.3-0.19-0.77-0.27-1.5-0.27h-1.77v2.81H62.93z"/>
	<path class="st1" d="M67.74,266.7c0-2.9,1.7-4.73,4.37-4.73c2.51,0,4.15,1.92,4.15,4.84c0,3-1.65,4.76-4.15,4.76
		C69.36,271.56,67.74,269.68,67.74,266.7z M72.03,263.44c-1.57,0-2.57,1.2-2.57,3.24c0,2.13,1.03,3.42,2.61,3.42
		c1.44,0,2.46-1.12,2.46-3.31C74.52,264.66,73.52,263.44,72.03,263.44z"/>
	<path class="st1" d="M77.63,262.18h2.83c1.61,0,2.31,0.12,3.02,0.47c1.26,0.62,1.86,2.13,1.86,4.04c0,1.48-0.4,2.78-1.18,3.56
		c-0.83,0.83-1.94,1.1-3.81,1.1h-2.72V262.18z M80.45,269.95c1.24,0,2.02-0.26,2.5-0.79c0.48-0.55,0.65-1.36,0.65-2.48
		c0-0.99-0.2-1.82-0.69-2.37c-0.43-0.47-0.99-0.73-2.24-0.73h-1.39v6.37H80.45z"/>
	<path class="st1" d="M94.05,267.43c0,1.44-0.19,2.37-0.77,3.03c-0.64,0.74-1.61,1.09-2.95,1.09c-1.31,0-2.34-0.35-2.91-1.1
		c-0.57-0.77-0.7-1.62-0.7-3.02v-5.25h1.65v5.37c0,0.69,0.04,1.27,0.29,1.72c0.34,0.61,0.94,0.85,1.7,0.85
		c0.81,0,1.44-0.21,1.78-0.86c0.2-0.38,0.26-0.98,0.26-1.65v-5.42h1.65V267.43z"/>
	<path class="st1" d="M101.68,271.36l-2.69-4.37l-1.59,1.75v2.61h-1.65v-9.18h1.65v4.41l3.91-4.41h2.02l-3.22,3.58l3.55,5.6H101.68z
		"/>
	<path class="st1" d="M106.23,271.36v-7.76h-2.59v-1.42h6.89v1.42h-2.6v7.76H106.23z"/>
	<path class="st1" d="M113.34,271.36h-1.69v-9.18h1.69V271.36z"/>
	<path class="st1" d="M114.73,266.7c0-2.9,1.7-4.73,4.37-4.73c2.51,0,4.15,1.92,4.15,4.84c0,3-1.65,4.76-4.15,4.76
		C116.36,271.56,114.73,269.68,114.73,266.7z M119.02,263.44c-1.57,0-2.57,1.2-2.57,3.24c0,2.13,1.03,3.42,2.61,3.42
		c1.44,0,2.46-1.12,2.46-3.31C121.52,264.66,120.52,263.44,119.02,263.44z"/>
	<path class="st1" d="M126.46,262.18c2,3.35,3.19,5.23,4.07,6.79c-0.05-1.4-0.06-3.26-0.06-6.79h1.64v9.18h-1.81
		c-1.91-3.15-3.12-5.12-4.08-6.73c0.04,0.79,0.05,2.56,0.05,6.73h-1.64v-9.18H126.46z"/>
</g>
<g>
	<path class="st1" d="M57.02,474.36l-0.73-2.15h-3.63l-0.74,2.15h-1.78l3.48-9.18h1.83l3.35,9.18H57.02z M55.89,470.91
		c-0.52-1.5-0.96-2.74-1.39-4.08c-0.3,0.92-0.62,1.83-1.43,4.08H55.89z"/>
	<path class="st1" d="M66.57,470.43c0,1.44-0.19,2.37-0.77,3.03c-0.64,0.74-1.61,1.09-2.95,1.09c-1.31,0-2.34-0.35-2.91-1.1
		c-0.57-0.77-0.7-1.62-0.7-3.02v-5.25h1.65v5.37c0,0.69,0.04,1.27,0.29,1.72c0.34,0.61,0.94,0.84,1.7,0.84
		c0.81,0,1.44-0.21,1.78-0.86c0.2-0.38,0.26-0.97,0.26-1.65v-5.42h1.65V470.43z"/>
	<path class="st1" d="M68.27,474.36v-9.18h6.31v1.42h-4.64v2.42h4.23v1.42h-4.23v3.93H68.27z"/>
	<path class="st1" d="M79.62,465.18c1.03,0,1.65,0.1,2.11,0.35c0.64,0.35,1.01,1.05,1.01,1.92c0,0.96-0.52,1.72-1.57,2.03
		c1.26,0.22,1.9,1.09,1.9,2.29c0,0.96-0.44,1.74-1.16,2.16c-0.56,0.32-1.26,0.43-2.57,0.43h-3.56v-9.18H79.62z M77.42,468.9h1.89
		c0.53,0,0.96-0.07,1.25-0.21c0.34-0.17,0.52-0.53,0.52-0.96c0-0.43-0.12-0.79-0.49-0.99c-0.27-0.14-0.65-0.18-1.22-0.18h-1.94
		V468.9z M77.42,472.96h1.78c0.71,0,1.29-0.06,1.66-0.31c0.3-0.19,0.47-0.55,0.47-1.01c0-0.48-0.17-0.9-0.52-1.12
		c-0.34-0.21-0.75-0.26-1.46-0.26h-1.94V472.96z"/>
	<path class="st1" d="M84.38,474.36v-9.18h6.38v1.42h-4.72v2.34h4.35v1.42h-4.35v2.57h4.98v1.43H84.38z"/>
	<path class="st1" d="M97.82,474.36l-2.31-3.67h-1.57v3.67h-1.64v-9.18h2.98c1.18,0,2.09,0.05,2.77,0.33
		c0.94,0.38,1.38,1.13,1.38,2.37c0,1.51-0.85,2.34-2.29,2.57l2.61,3.91H97.82z M95.65,469.36c0.83,0,1.3-0.1,1.6-0.34
		c0.3-0.23,0.46-0.61,0.46-1.08c0-0.48-0.12-0.87-0.51-1.12c-0.3-0.19-0.77-0.27-1.5-0.27h-1.77v2.81H95.65z"/>
	<path class="st1" d="M100.77,474.36v-9.18h6.38v1.42h-4.72v2.34h4.35v1.42h-4.35v2.57h4.98v1.43H100.77z"/>
	<path class="st1" d="M110.38,474.36h-1.69v-9.18h1.69V474.36z"/>
	<path class="st1" d="M114.09,474.36v-7.76h-2.59v-1.42h6.89v1.42h-2.6v7.76H114.09z"/>
	<path class="st1" d="M126.85,470.43c0,1.44-0.19,2.37-0.77,3.03c-0.64,0.74-1.61,1.09-2.95,1.09c-1.31,0-2.34-0.35-2.91-1.1
		c-0.57-0.77-0.7-1.62-0.7-3.02v-5.25h1.65v5.37c0,0.69,0.04,1.27,0.29,1.72c0.34,0.61,0.94,0.84,1.7,0.84
		c0.81,0,1.44-0.21,1.78-0.86c0.2-0.38,0.26-0.97,0.26-1.65v-5.42h1.65V470.43z"/>
	<path class="st1" d="M130.38,465.18c2,3.35,3.19,5.23,4.07,6.79c-0.05-1.4-0.06-3.26-0.06-6.79h1.64v9.18h-1.81
		c-1.91-3.15-3.12-5.12-4.08-6.73c0.04,0.79,0.05,2.56,0.05,6.73h-1.64v-9.18H130.38z"/>
	<path class="st1" d="M144.07,474.36v-1c-0.64,0.82-1.52,1.18-2.69,1.18c-2.31,0-3.98-1.83-3.98-4.65c0-2.79,1.64-4.91,4.54-4.91
		c1.85,0,3.06,0.83,3.64,2.42l-1.64,0.62c-0.29-0.97-0.95-1.57-2.04-1.57c-1.73,0-2.77,1.29-2.77,3.34c0,2.16,1.1,3.32,2.68,3.32
		c1.47,0,2.17-0.9,2.22-2.39h-2.56v-1.4h4.1v5.06H144.07z"/>
</g>
<g>
	<path class="st0" d="M817.24,540.77c2.31,3.87,3.67,6.03,4.69,7.83c-0.06-1.62-0.07-3.76-0.07-7.83h1.89v10.59h-2.08
		c-2.21-3.63-3.6-5.91-4.71-7.77c0.05,0.92,0.06,2.95,0.06,7.77h-1.89v-10.59H817.24z"/>
	<path class="st0" d="M825.16,551.36v-1.41l5.76-7.54h-5.46v-1.63h7.89v1.47l-5.7,7.49h5.71v1.63H825.16z"/>
	<path class="st0" d="M834.29,551.36v-1.41l5.76-7.54h-5.46v-1.63h7.89v1.47l-5.7,7.49h5.71v1.63H834.29z"/>
	<path class="st0" d="M847.34,551.36v-10.59h4.37c1.46,0,2.34,0.22,2.92,0.64c0.79,0.55,1.16,1.53,1.16,2.59
		c0,1.18-0.42,2.25-1.35,2.77c-0.78,0.44-1.88,0.59-3.15,0.59h-2.06v3.99H847.34z M851.14,545.75c1.04,0,1.71-0.1,2.13-0.39
		c0.39-0.28,0.54-0.74,0.54-1.33c0-0.54-0.18-0.99-0.54-1.28c-0.41-0.3-0.92-0.36-2.01-0.36h-2.02v3.36H851.14z"/>
	<path class="st0" d="M856.52,551.36v-7.47h1.68v1.15c0.45-0.81,1.04-1.24,2.07-1.24c0.24,0,0.42,0.03,0.64,0.09v1.77
		c-0.28-0.15-0.51-0.21-0.84-0.21c-0.58,0-1.08,0.25-1.41,0.73c-0.25,0.38-0.39,0.9-0.39,1.7v3.48H856.52z"/>
	<path class="st0" d="M861.89,542.42v-1.65h1.79v1.65H861.89z M863.68,551.36h-1.77v-7.47h1.77V551.36z"/>
	<path class="st0" d="M870.25,551.36v-4.29c0-0.58-0.06-1.02-0.27-1.32c-0.2-0.28-0.53-0.42-1-0.42s-0.98,0.26-1.27,0.66
		c-0.38,0.5-0.44,1.05-0.44,1.77v3.6h-1.75v-7.47h1.74V545c0.54-0.76,1.43-1.24,2.48-1.24c0.9,0,1.49,0.31,1.86,0.88
		c0.3,0.45,0.42,1.04,0.42,2.04v4.68H870.25z"/>
	<path class="st0" d="M877.39,551.33c-0.39,0.11-0.87,0.17-1.3,0.17c-0.74,0-1.23-0.18-1.53-0.54c-0.32-0.36-0.42-0.88-0.42-1.57
		v-4.08h-1.17v-1.41h1.2v-2.43h1.74v2.43h1.46v1.41h-1.46v3.73c0,0.77,0.23,1.04,0.76,1.04c0.21,0,0.48-0.04,0.72-0.13V551.33z"/>
	<path class="st0" d="M878.18,547.53v-1.41h4.33v1.41H878.18z"/>
	<path class="st0" d="M815.12,569.36v-10.59h4.36c1.46,0,2.34,0.22,2.92,0.64c0.79,0.55,1.15,1.53,1.15,2.59
		c0,1.18-0.42,2.25-1.35,2.77c-0.78,0.44-1.88,0.59-3.15,0.59h-2.06v3.99H815.12z M818.92,563.75c1.03,0,1.71-0.1,2.13-0.39
		c0.39-0.28,0.54-0.74,0.54-1.33c0-0.54-0.18-0.99-0.54-1.28c-0.4-0.3-0.91-0.36-2.01-0.36h-2.03v3.36H818.92z"/>
	<path class="st0" d="M824.3,569.36v-7.47h1.68v1.15c0.45-0.81,1.04-1.24,2.07-1.24c0.24,0,0.42,0.03,0.64,0.09v1.77
		c-0.29-0.15-0.51-0.21-0.84-0.21c-0.59,0-1.08,0.25-1.41,0.73c-0.26,0.38-0.39,0.9-0.39,1.7v3.48H824.3z"/>
	<path class="st0" d="M832.94,569.57c-2.34,0-3.66-1.47-3.66-3.96c0-2.47,1.46-3.93,3.76-3.93c2.22,0,3.55,1.49,3.55,4.02
		C836.6,568.19,835.13,569.57,832.94,569.57z M833,563.15c-1.11,0-1.92,0.86-1.92,2.42c0,1.69,0.78,2.54,1.88,2.54
		c1.1,0,1.88-0.76,1.88-2.45C834.83,563.99,834.11,563.15,833,563.15z"/>
	<path class="st0" d="M842.86,569.36v-1.05c-0.48,0.71-1.19,1.2-2.24,1.2c-1.72,0-3-1.32-3-3.91c0-2.45,1.38-3.86,3.1-3.86
		c1.11,0,1.73,0.41,2.13,0.98v-3.94h1.71v10.59H842.86z M841.16,563.19c-1.04,0-1.74,0.79-1.74,2.38c0,1.5,0.63,2.46,1.67,2.46
		c1.04,0,1.77-0.81,1.77-2.4C842.86,564.14,842.21,563.19,841.16,563.19z"/>
	<path class="st0" d="M848.09,561.89v4.26c0,0.45,0.06,0.88,0.2,1.17c0.2,0.41,0.55,0.63,1.12,0.63c0.5,0,0.93-0.25,1.2-0.58
		c0.32-0.4,0.46-0.9,0.46-1.6v-3.87h1.75v7.47h-1.72v-1.07c-0.51,0.72-1.28,1.2-2.33,1.2c-0.96,0-1.54-0.3-1.96-0.9
		c-0.33-0.46-0.46-1.12-0.46-2v-4.71H848.09z"/>
	<path class="st0" d="M859.57,569.36l-2.08-3.41l-1.1,1.16v2.25h-1.75v-10.59h1.75v6.3l2.84-3.18h2.13l-2.62,2.83l2.88,4.63H859.57z
		"/>
	<path class="st0" d="M866.17,569.33c-0.39,0.11-0.87,0.17-1.31,0.17c-0.73,0-1.23-0.18-1.53-0.54c-0.31-0.36-0.42-0.88-0.42-1.57
		v-4.08h-1.17v-1.41h1.2v-2.43h1.74v2.43h1.46v1.41h-1.46v3.73c0,0.77,0.22,1.04,0.77,1.04c0.21,0,0.48-0.04,0.72-0.13V569.33z"/>
	<path class="st0" d="M873.77,567.48c-0.55,1.35-1.7,2.1-3.25,2.1c-2.4,0-3.69-1.56-3.69-4.04c0-2.38,1.44-3.87,3.62-3.87
		c2.37,0,3.36,1.73,3.38,4.4h-5.22c0.06,1.29,0.76,2.02,1.95,2.02c0.76,0,1.41-0.3,1.68-1.16L873.77,567.48z M872.03,564.81
		c-0.06-1.17-0.67-1.77-1.63-1.77s-1.66,0.6-1.79,1.77H872.03z"/>
</g>
<g>
	<path class="st0" d="M916.24,541.77c2.31,3.87,3.67,6.03,4.69,7.83c-0.06-1.62-0.07-3.76-0.07-7.83h1.89v10.59h-2.08
		c-2.21-3.63-3.6-5.91-4.71-7.77c0.05,0.92,0.06,2.95,0.06,7.77h-1.89v-10.59H916.24z"/>
	<path class="st0" d="M924.16,552.36v-1.41l5.76-7.54h-5.46v-1.63h7.89v1.47l-5.7,7.49h5.71v1.63H924.16z"/>
	<path class="st0" d="M933.29,552.36v-1.41l5.76-7.54h-5.46v-1.63h7.89v1.47l-5.7,7.49h5.71v1.63H933.29z"/>
	<path class="st0" d="M945.98,546.99c0-3.34,1.97-5.46,5.04-5.46c2.89,0,4.79,2.22,4.79,5.58c0,3.46-1.91,5.49-4.79,5.49
		C947.86,552.6,945.98,550.42,945.98,546.99z M950.93,543.22c-1.81,0-2.97,1.38-2.97,3.74c0,2.46,1.19,3.94,3.02,3.94
		c1.67,0,2.83-1.29,2.83-3.83C953.81,544.63,952.66,543.22,950.93,543.22z"/>
	<path class="st0" d="M962.08,552.36v-4.29c0-0.58-0.06-1.02-0.27-1.32c-0.2-0.28-0.53-0.42-1-0.42s-0.98,0.26-1.27,0.66
		c-0.38,0.5-0.44,1.05-0.44,1.77v3.6h-1.75v-7.47h1.74V546c0.54-0.76,1.43-1.24,2.48-1.24c0.9,0,1.49,0.31,1.86,0.88
		c0.3,0.45,0.42,1.04,0.42,2.04v4.68H962.08z"/>
	<path class="st0" d="M967.34,552.36h-1.77v-10.59h1.77V552.36z"/>
	<path class="st0" d="M969.16,543.42v-1.65h1.79v1.65H969.16z M970.94,552.36h-1.77v-7.47h1.77V552.36z"/>
	<path class="st0" d="M977.51,552.36v-4.29c0-0.58-0.06-1.02-0.27-1.32c-0.19-0.28-0.52-0.42-1-0.42s-0.97,0.26-1.28,0.66
		c-0.38,0.5-0.43,1.05-0.43,1.77v3.6h-1.75v-7.47h1.74V546c0.54-0.76,1.42-1.24,2.47-1.24c0.9,0,1.48,0.31,1.86,0.88
		c0.3,0.45,0.42,1.04,0.42,2.04v4.68H977.51z"/>
	<path class="st0" d="M987.55,550.48c-0.55,1.35-1.69,2.1-3.25,2.1c-2.4,0-3.69-1.56-3.69-4.04c0-2.38,1.44-3.87,3.62-3.87
		c2.37,0,3.36,1.73,3.37,4.4h-5.22c0.06,1.29,0.77,2.02,1.95,2.02c0.76,0,1.41-0.3,1.68-1.16L987.55,550.48z M985.81,547.81
		c-0.06-1.17-0.68-1.77-1.64-1.77s-1.67,0.6-1.78,1.77H985.81z"/>
	<path class="st0" d="M988.69,548.53v-1.41h4.33v1.41H988.69z"/>
	<path class="st0" d="M914.12,570.36v-10.59h4.36c1.46,0,2.34,0.22,2.92,0.64c0.79,0.55,1.15,1.53,1.15,2.59
		c0,1.18-0.42,2.25-1.35,2.77c-0.78,0.44-1.88,0.59-3.15,0.59h-2.06v3.99H914.12z M917.92,564.75c1.03,0,1.71-0.1,2.13-0.39
		c0.39-0.28,0.54-0.74,0.54-1.33c0-0.54-0.18-0.99-0.54-1.28c-0.4-0.3-0.91-0.36-2.01-0.36h-2.03v3.36H917.92z"/>
	<path class="st0" d="M923.3,570.36v-7.47h1.68v1.15c0.45-0.81,1.04-1.24,2.07-1.24c0.24,0,0.42,0.03,0.64,0.09v1.77
		c-0.29-0.15-0.51-0.21-0.84-0.21c-0.59,0-1.08,0.25-1.41,0.73c-0.26,0.38-0.39,0.9-0.39,1.7v3.48H923.3z"/>
	<path class="st0" d="M931.94,570.57c-2.34,0-3.66-1.47-3.66-3.96c0-2.47,1.46-3.93,3.76-3.93c2.22,0,3.55,1.49,3.55,4.02
		C935.6,569.19,934.13,570.57,931.94,570.57z M932,564.15c-1.11,0-1.92,0.86-1.92,2.42c0,1.69,0.78,2.54,1.88,2.54
		c1.1,0,1.88-0.76,1.88-2.45C933.83,564.99,933.11,564.15,932,564.15z"/>
	<path class="st0" d="M941.86,570.36v-1.05c-0.48,0.71-1.19,1.2-2.24,1.2c-1.72,0-3-1.32-3-3.91c0-2.45,1.38-3.86,3.1-3.86
		c1.11,0,1.73,0.41,2.13,0.98v-3.94h1.71v10.59H941.86z M940.16,564.19c-1.04,0-1.74,0.79-1.74,2.38c0,1.5,0.63,2.46,1.67,2.46
		c1.04,0,1.77-0.81,1.77-2.4C941.86,565.14,941.21,564.19,940.16,564.19z"/>
	<path class="st0" d="M947.09,562.89v4.26c0,0.45,0.06,0.88,0.2,1.17c0.2,0.41,0.55,0.63,1.12,0.63c0.5,0,0.93-0.25,1.2-0.58
		c0.32-0.4,0.46-0.9,0.46-1.6v-3.87h1.75v7.47h-1.72v-1.07c-0.51,0.72-1.28,1.2-2.33,1.2c-0.96,0-1.54-0.3-1.96-0.9
		c-0.33-0.46-0.46-1.12-0.46-2v-4.71H947.09z"/>
	<path class="st0" d="M958.57,570.36l-2.08-3.41l-1.1,1.16v2.25h-1.75v-10.59h1.75v6.3l2.84-3.18h2.13l-2.62,2.83l2.88,4.63H958.57z
		"/>
	<path class="st0" d="M965.17,570.33c-0.39,0.11-0.87,0.17-1.31,0.17c-0.73,0-1.23-0.18-1.53-0.54c-0.31-0.36-0.42-0.88-0.42-1.57
		v-4.08h-1.17v-1.41h1.2v-2.43h1.74v2.43h1.46v1.41h-1.46v3.73c0,0.77,0.22,1.04,0.77,1.04c0.21,0,0.48-0.04,0.72-0.13V570.33z"/>
	<path class="st0" d="M972.77,568.48c-0.55,1.35-1.7,2.1-3.25,2.1c-2.4,0-3.69-1.56-3.69-4.04c0-2.38,1.44-3.87,3.62-3.87
		c2.37,0,3.36,1.73,3.38,4.4h-5.22c0.06,1.29,0.76,2.02,1.95,2.02c0.76,0,1.41-0.3,1.68-1.16L972.77,568.48z M971.03,565.81
		c-0.06-1.17-0.67-1.77-1.63-1.77s-1.66,0.6-1.79,1.77H971.03z"/>
</g>
<g>
	<path class="st0" d="M192.12,310.36v-10.59h1.9v8.94h4.99v1.65H192.12z"/>
	<path class="st0" d="M200.3,301.42v-1.65h1.79v1.65H200.3z M202.08,310.36h-1.77v-7.47h1.77V310.36z"/>
	<path class="st0" d="M205.73,310.36l-2.73-7.47h1.95c0.87,2.55,1.38,4.09,1.85,5.68c0.44-1.53,0.93-3.15,1.8-5.68h1.86l-2.68,7.47
		H205.73z"/>
	<path class="st0" d="M211.35,301.42v-1.65h1.79v1.65H211.35z M213.14,310.36h-1.77v-7.47h1.77V310.36z"/>
	<path class="st0" d="M219.71,310.36v-4.29c0-0.58-0.06-1.02-0.27-1.32c-0.19-0.28-0.52-0.42-1-0.42s-0.98,0.25-1.27,0.66
		c-0.38,0.49-0.44,1.05-0.44,1.77v3.6h-1.75v-7.47h1.74V304c0.54-0.76,1.43-1.24,2.48-1.24c0.9,0,1.48,0.31,1.86,0.88
		c0.3,0.45,0.42,1.04,0.42,2.04v4.68H219.71z"/>
	<path class="st0" d="M228,309.32c-0.52,0.65-1.25,0.96-2.21,0.96c-1.83,0-3-1.39-3-3.75c0-2.34,1.26-3.77,3.1-3.77
		c1.04,0,1.75,0.38,2.17,1.05v-0.92h1.74v6.96c0,1.54-0.36,2.52-1.16,3.08c-0.58,0.42-1.44,0.6-2.4,0.6c-1.81,0-2.97-0.79-3.3-2.34
		l1.85-0.33c0.13,0.83,0.69,1.25,1.5,1.25c0.72,0,1.17-0.21,1.42-0.63c0.21-0.31,0.27-0.83,0.27-1.46V309.32z M226.41,304.22
		c-1.11,0-1.8,0.84-1.8,2.29c0,1.53,0.68,2.4,1.74,2.4c1.02,0,1.68-0.72,1.69-2.23C228.05,305.15,227.49,304.22,226.41,304.22z"/>
	<path class="st0" d="M236.48,310.36v-1.05c-0.48,0.7-1.19,1.2-2.23,1.2c-1.72,0-3-1.32-3-3.91c0-2.45,1.38-3.85,3.1-3.85
		c1.11,0,1.73,0.4,2.13,0.98v-3.94h1.71v10.59H236.48z M234.78,304.19c-1.04,0-1.74,0.79-1.74,2.38c0,1.5,0.63,2.46,1.66,2.46
		c1.04,0,1.77-0.81,1.77-2.4C236.48,305.14,235.83,304.19,234.78,304.19z"/>
	<path class="st0" d="M243.27,310.57c-2.34,0-3.66-1.47-3.66-3.96c0-2.47,1.46-3.93,3.77-3.93c2.22,0,3.55,1.48,3.55,4.02
		C246.93,309.19,245.46,310.57,243.27,310.57z M243.33,304.15c-1.11,0-1.92,0.85-1.92,2.42c0,1.69,0.78,2.54,1.88,2.54
		c1.09,0,1.87-0.77,1.87-2.45C245.16,304.99,244.44,304.15,243.33,304.15z"/>
	<path class="st0" d="M253.01,305.47c-0.21-0.99-0.75-1.32-1.46-1.32c-1.02,0-1.8,0.77-1.8,2.43c0,1.65,0.69,2.52,1.84,2.52
		c0.79,0,1.27-0.42,1.46-1.22l1.57,0.54c-0.44,1.25-1.42,2.15-3.12,2.15c-2.17,0-3.56-1.5-3.56-3.96c0-2.44,1.41-3.93,3.65-3.93
		c1.62,0,2.64,0.92,2.98,2.25L253.01,305.47z"/>
	<path class="st0" d="M256.4,307.99c0.39,0.77,1.08,1.22,1.9,1.22c0.77,0,1.19-0.33,1.19-0.78c0-0.49-0.25-0.7-1.38-1.06l-0.79-0.25
		c-1.15-0.36-1.89-1.04-1.89-2.17c0-1.17,1.05-2.25,2.9-2.25c1.19,0,2.28,0.45,2.94,1.5l-1.3,0.88c-0.38-0.66-0.95-1.05-1.67-1.05
		c-0.75,0-1.11,0.3-1.11,0.73c0,0.45,0.24,0.66,1.2,0.96l0.79,0.24c1.32,0.42,2.07,1.03,2.07,2.23c0,1.38-1.15,2.38-3.01,2.38
		c-1.53,0-2.56-0.73-3.19-1.68L256.4,307.99z"/>
	<path class="st0" d="M192.12,328.36v-10.59h7.36v1.63h-5.44v2.7h5.02v1.64h-5.02v2.97h5.74v1.65H192.12z"/>
	<path class="st0" d="M205.7,328.36v-1.05c-0.48,0.7-1.18,1.2-2.23,1.2c-1.72,0-3-1.32-3-3.91c0-2.45,1.38-3.85,3.1-3.85
		c1.11,0,1.73,0.4,2.13,0.98v-3.94h1.71v10.59H205.7z M204,322.19c-1.04,0-1.74,0.79-1.74,2.38c0,1.5,0.63,2.46,1.66,2.46
		c1.04,0,1.77-0.81,1.77-2.4C205.7,323.14,205.05,322.19,204,322.19z"/>
	<path class="st0" d="M209.22,319.42v-1.65h1.79v1.65H209.22z M211.01,328.36h-1.77v-7.47h1.77V328.36z"/>
	<path class="st0" d="M216.48,328.33c-0.39,0.1-0.87,0.16-1.31,0.16c-0.73,0-1.23-0.18-1.53-0.54c-0.31-0.36-0.42-0.89-0.42-1.58
		v-4.08h-1.17v-1.41h1.2v-2.43H215v2.43h1.46v1.41H215v3.73c0,0.76,0.23,1.03,0.77,1.03c0.21,0,0.48-0.04,0.72-0.13V328.33z"/>
	<path class="st0" d="M220.8,328.57c-2.34,0-3.66-1.47-3.66-3.96c0-2.47,1.46-3.93,3.77-3.93c2.22,0,3.55,1.48,3.55,4.02
		C224.46,327.19,222.99,328.57,220.8,328.57z M220.86,322.15c-1.11,0-1.92,0.85-1.92,2.42c0,1.69,0.78,2.54,1.88,2.54
		c1.09,0,1.87-0.77,1.87-2.45C222.69,322.99,221.97,322.15,220.86,322.15z"/>
	<path class="st0" d="M225.89,328.36v-7.47h1.68v1.15c0.45-0.81,1.04-1.24,2.07-1.24c0.24,0,0.42,0.03,0.64,0.09v1.77
		c-0.28-0.15-0.51-0.21-0.84-0.21c-0.58,0-1.08,0.25-1.41,0.73c-0.26,0.38-0.39,0.9-0.39,1.69v3.48H225.89z"/>
</g>
<g>
	<path class="st0" d="M492.12,115.77h3.27c1.86,0,2.67,0.13,3.48,0.54c1.46,0.72,2.15,2.46,2.15,4.67c0,1.71-0.46,3.21-1.36,4.11
		c-0.96,0.96-2.24,1.27-4.4,1.27h-3.13V115.77z M495.38,124.74c1.42,0,2.32-0.3,2.88-0.91c0.55-0.63,0.75-1.58,0.75-2.87
		c0-1.14-0.23-2.1-0.79-2.73c-0.5-0.54-1.14-0.84-2.58-0.84h-1.6v7.35H495.38z"/>
	<path class="st0" d="M509.09,124.48c-0.55,1.35-1.69,2.1-3.25,2.1c-2.4,0-3.69-1.56-3.69-4.04c0-2.38,1.44-3.87,3.62-3.87
		c2.37,0,3.36,1.73,3.37,4.4h-5.22c0.06,1.29,0.77,2.02,1.95,2.02c0.76,0,1.41-0.3,1.68-1.16L509.09,124.48z M507.35,121.81
		c-0.06-1.17-0.68-1.77-1.64-1.77s-1.66,0.6-1.78,1.77H507.35z"/>
	<path class="st0" d="M511.17,123.99c0.39,0.77,1.08,1.22,1.9,1.22c0.77,0,1.19-0.33,1.19-0.78c0-0.49-0.25-0.7-1.38-1.06
		l-0.79-0.25c-1.15-0.36-1.89-1.04-1.89-2.17c0-1.17,1.05-2.25,2.9-2.25c1.19,0,2.28,0.45,2.94,1.5l-1.3,0.88
		c-0.38-0.66-0.95-1.05-1.67-1.05c-0.75,0-1.11,0.3-1.11,0.73c0,0.45,0.24,0.66,1.2,0.96l0.79,0.24c1.32,0.42,2.07,1.03,2.07,2.23
		c0,1.38-1.15,2.38-3.01,2.38c-1.53,0-2.56-0.73-3.19-1.68L511.17,123.99z"/>
	<path class="st0" d="M522.26,126.36l-2.08-3.4l-1.09,1.15v2.25h-1.75v-10.59h1.75v6.3l2.83-3.18h2.13l-2.62,2.83l2.88,4.63H522.26z
		"/>
	<path class="st0" d="M524.28,122.53v-1.41h4.33v1.41H524.28z"/>
	<path class="st0" d="M532.35,115.77c2.31,3.87,3.67,6.03,4.69,7.83c-0.06-1.62-0.08-3.77-0.08-7.83h1.89v10.59h-2.08
		c-2.21-3.63-3.6-5.91-4.71-7.77c0.05,0.92,0.06,2.95,0.06,7.77h-1.89v-10.59H532.35z"/>
	<path class="st0" d="M547.29,124.48c-0.55,1.35-1.69,2.1-3.25,2.1c-2.4,0-3.69-1.56-3.69-4.04c0-2.38,1.44-3.87,3.62-3.87
		c2.37,0,3.36,1.73,3.37,4.4h-5.22c0.06,1.29,0.77,2.02,1.95,2.02c0.76,0,1.41-0.3,1.68-1.16L547.29,124.48z M545.55,121.81
		c-0.06-1.17-0.67-1.77-1.63-1.77s-1.67,0.6-1.79,1.77H545.55z"/>
	<path class="st0" d="M552.35,126.33c-0.39,0.1-0.87,0.16-1.31,0.16c-0.73,0-1.23-0.18-1.53-0.54c-0.31-0.36-0.42-0.89-0.42-1.58
		v-4.08h-1.17v-1.41h1.2v-2.43h1.74v2.43h1.46v1.41h-1.46v3.73c0,0.76,0.23,1.03,0.77,1.03c0.21,0,0.48-0.04,0.72-0.13V126.33z"/>
</g>
<g>
	<path class="st0" d="M798.9,119.08c-0.29-1.15-1.02-1.86-2.18-1.86c-1.93,0-2.97,1.41-2.97,3.69c0,2.42,1.09,3.98,2.97,3.98
		c1.17,0,2.07-0.66,2.36-1.95l1.83,0.66c-0.66,1.95-2.22,3-4.26,3c-3.04,0-4.89-2.13-4.89-5.61c0-3.48,2-5.46,5-5.46
		c2.1,0,3.48,1.11,4.02,2.86L798.9,119.08z"/>
	<path class="st0" d="M806.82,126.36v-4.29c0-0.64-0.06-1.06-0.31-1.36c-0.2-0.25-0.5-0.38-0.96-0.38c-0.48,0-0.97,0.25-1.27,0.66
		c-0.38,0.49-0.43,1.05-0.43,1.77v3.6h-1.76v-10.59h1.74V120c0.54-0.76,1.42-1.24,2.47-1.24c0.87,0,1.46,0.28,1.83,0.81
		c0.33,0.47,0.45,1.04,0.45,2.16v4.63H806.82z"/>
	<path class="st0" d="M814.56,121.29c0-0.42-0.09-0.71-0.29-0.9c-0.21-0.21-0.57-0.31-1.04-0.31c-0.92,0-1.32,0.46-1.41,1.29
		l-1.68-0.15c0.12-1.62,1.32-2.52,3.22-2.52c1.02,0,1.74,0.24,2.24,0.72c0.46,0.44,0.63,1.05,0.63,2.22v2.74
		c0,0.89,0.06,1.62,0.21,1.98h-1.69c-0.06-0.24-0.15-0.71-0.15-0.93c-0.57,0.69-1.38,1.06-2.45,1.06c-1.37,0-2.32-0.85-2.32-2.19
		c0-0.96,0.48-1.59,1.36-2c0.74-0.33,2.17-0.54,3.36-0.62V121.29z M814.56,122.86c-0.86,0.04-1.86,0.19-2.38,0.45
		c-0.46,0.21-0.65,0.5-0.65,0.92c0,0.54,0.36,0.94,1.14,0.94c0.68,0,1.23-0.28,1.56-0.78c0.24-0.35,0.31-0.77,0.33-1.19V122.86z"/>
	<path class="st0" d="M818.01,126.36v-7.47h1.68v1.15c0.45-0.81,1.04-1.24,2.07-1.24c0.24,0,0.42,0.03,0.64,0.09v1.77
		c-0.28-0.15-0.51-0.21-0.84-0.21c-0.58,0-1.08,0.25-1.41,0.73c-0.25,0.38-0.39,0.9-0.39,1.69v3.48H818.01z"/>
	<path class="st0" d="M827.21,126.33c-0.39,0.1-0.87,0.16-1.3,0.16c-0.74,0-1.23-0.18-1.53-0.54c-0.32-0.36-0.42-0.89-0.42-1.58
		v-4.08h-1.17v-1.41h1.2v-2.43h1.74v2.43h1.46v1.41h-1.46v3.73c0,0.76,0.23,1.03,0.76,1.03c0.21,0,0.48-0.04,0.72-0.13V126.33z"/>
	<path class="st0" d="M830.03,115.77v4.12c0.49-0.65,1.27-1.15,2.34-1.15c1.75,0,2.88,1.46,2.88,3.88c0,2.44-1.23,3.88-3.07,3.88
		c-1.02,0-1.71-0.39-2.22-1.12v0.98h-1.68v-10.59H830.03z M831.74,125.04c1.04,0,1.68-0.83,1.68-2.42c0-1.5-0.61-2.42-1.62-2.42
		c-1.06,0-1.81,0.9-1.81,2.33C829.98,124.12,830.63,125.04,831.74,125.04z"/>
	<path class="st0" d="M843.21,124.48c-0.55,1.35-1.69,2.1-3.25,2.1c-2.4,0-3.69-1.56-3.69-4.04c0-2.38,1.44-3.87,3.62-3.87
		c2.37,0,3.36,1.73,3.37,4.4h-5.22c0.06,1.29,0.76,2.02,1.95,2.02c0.77,0,1.41-0.3,1.68-1.16L843.21,124.48z M841.47,121.81
		c-0.06-1.17-0.67-1.77-1.63-1.77s-1.67,0.6-1.79,1.77H841.47z"/>
	<path class="st0" d="M848.87,121.29c0-0.42-0.09-0.71-0.28-0.9c-0.21-0.21-0.57-0.31-1.04-0.31c-0.92,0-1.32,0.46-1.41,1.29
		l-1.68-0.15c0.12-1.62,1.32-2.52,3.22-2.52c1.02,0,1.74,0.24,2.23,0.72c0.46,0.44,0.63,1.05,0.63,2.22v2.74
		c0,0.89,0.06,1.62,0.21,1.98h-1.69c-0.06-0.24-0.15-0.71-0.15-0.93c-0.57,0.69-1.38,1.06-2.44,1.06c-1.37,0-2.33-0.85-2.33-2.19
		c0-0.96,0.48-1.59,1.36-2c0.74-0.33,2.18-0.54,3.36-0.62V121.29z M848.87,122.86c-0.85,0.04-1.86,0.19-2.38,0.45
		c-0.46,0.21-0.65,0.5-0.65,0.92c0,0.54,0.36,0.94,1.14,0.94c0.67,0,1.23-0.28,1.56-0.78c0.24-0.35,0.32-0.77,0.33-1.19V122.86z"/>
	<path class="st0" d="M855.96,126.33c-0.39,0.1-0.87,0.16-1.3,0.16c-0.73,0-1.23-0.18-1.53-0.54c-0.32-0.36-0.42-0.89-0.42-1.58
		v-4.08h-1.17v-1.41h1.2v-2.43h1.74v2.43h1.46v1.41h-1.46v3.73c0,0.76,0.22,1.03,0.76,1.03c0.21,0,0.48-0.04,0.72-0.13V126.33z"/>
</g>
<g>
	<path class="st0" d="M493.12,310.36v-10.59h1.9v8.94h4.99v1.65H493.12z"/>
	<path class="st0" d="M501.3,301.42v-1.65h1.79v1.65H501.3z M503.08,310.36h-1.77v-7.47h1.77V310.36z"/>
	<path class="st0" d="M506.73,310.36l-2.73-7.47h1.95c0.87,2.55,1.38,4.09,1.85,5.68c0.44-1.53,0.93-3.15,1.8-5.68h1.86l-2.68,7.47
		H506.73z"/>
	<path class="st0" d="M512.35,301.42v-1.65h1.79v1.65H512.35z M514.14,310.36h-1.77v-7.47h1.77V310.36z"/>
	<path class="st0" d="M520.71,310.36v-4.29c0-0.58-0.06-1.02-0.27-1.32c-0.19-0.28-0.52-0.42-1-0.42s-0.98,0.25-1.27,0.66
		c-0.38,0.49-0.44,1.05-0.44,1.77v3.6h-1.75v-7.47h1.74V304c0.54-0.76,1.43-1.24,2.48-1.24c0.9,0,1.48,0.31,1.86,0.88
		c0.3,0.45,0.42,1.04,0.42,2.04v4.68H520.71z"/>
	<path class="st0" d="M529,309.32c-0.52,0.65-1.25,0.96-2.21,0.96c-1.83,0-3-1.39-3-3.75c0-2.34,1.26-3.77,3.1-3.77
		c1.04,0,1.75,0.38,2.17,1.05v-0.92h1.74v6.96c0,1.54-0.36,2.52-1.16,3.08c-0.58,0.42-1.44,0.6-2.4,0.6c-1.81,0-2.97-0.79-3.3-2.34
		l1.85-0.33c0.13,0.83,0.69,1.25,1.5,1.25c0.72,0,1.17-0.21,1.42-0.63c0.21-0.31,0.27-0.83,0.27-1.46V309.32z M527.41,304.22
		c-1.11,0-1.8,0.84-1.8,2.29c0,1.53,0.68,2.4,1.74,2.4c1.02,0,1.68-0.72,1.69-2.23C529.05,305.15,528.49,304.22,527.41,304.22z"/>
	<path class="st0" d="M537.48,310.36v-1.05c-0.48,0.7-1.19,1.2-2.23,1.2c-1.72,0-3-1.32-3-3.91c0-2.45,1.38-3.85,3.1-3.85
		c1.11,0,1.73,0.4,2.13,0.98v-3.94h1.71v10.59H537.48z M535.78,304.19c-1.04,0-1.74,0.79-1.74,2.38c0,1.5,0.63,2.46,1.66,2.46
		c1.04,0,1.77-0.81,1.77-2.4C537.48,305.14,536.83,304.19,535.78,304.19z"/>
	<path class="st0" d="M544.27,310.57c-2.34,0-3.66-1.47-3.66-3.96c0-2.47,1.46-3.93,3.77-3.93c2.22,0,3.55,1.48,3.55,4.02
		C547.93,309.19,546.46,310.57,544.27,310.57z M544.33,304.15c-1.11,0-1.92,0.85-1.92,2.42c0,1.69,0.78,2.54,1.88,2.54
		c1.09,0,1.87-0.77,1.87-2.45C546.16,304.99,545.44,304.15,544.33,304.15z"/>
	<path class="st0" d="M554.01,305.47c-0.21-0.99-0.75-1.32-1.46-1.32c-1.02,0-1.8,0.77-1.8,2.43c0,1.65,0.69,2.52,1.84,2.52
		c0.79,0,1.27-0.42,1.46-1.22l1.57,0.54c-0.44,1.25-1.42,2.15-3.12,2.15c-2.17,0-3.56-1.5-3.56-3.96c0-2.44,1.41-3.93,3.65-3.93
		c1.62,0,2.64,0.92,2.98,2.25L554.01,305.47z"/>
	<path class="st0" d="M557.4,307.99c0.39,0.77,1.08,1.22,1.9,1.22c0.77,0,1.19-0.33,1.19-0.78c0-0.49-0.25-0.7-1.38-1.06l-0.79-0.25
		c-1.15-0.36-1.89-1.04-1.89-2.17c0-1.17,1.05-2.25,2.9-2.25c1.19,0,2.28,0.45,2.94,1.5l-1.3,0.88c-0.38-0.66-0.95-1.05-1.67-1.05
		c-0.75,0-1.11,0.3-1.11,0.73c0,0.45,0.24,0.66,1.2,0.96l0.79,0.24c1.32,0.42,2.07,1.03,2.07,2.23c0,1.38-1.15,2.38-3.01,2.38
		c-1.53,0-2.56-0.73-3.19-1.68L557.4,307.99z"/>
	<path class="st0" d="M493.95,325.06c0.63,1.26,1.62,1.88,2.79,1.88c1.29,0,2-0.51,2-1.33c0-0.75-0.47-1.05-2.04-1.6l-1.14-0.41
		c-1.8-0.64-2.62-1.47-2.62-3c0-1.81,1.64-3.06,3.79-3.06c1.81,0,3.21,0.77,4.05,2.16l-1.53,1.09c-0.71-1.2-1.62-1.63-2.7-1.63
		c-1.05,0-1.65,0.52-1.65,1.24c0,0.69,0.39,1.04,1.77,1.49l1.22,0.4c1.96,0.63,2.86,1.52,2.86,3.1c0,1.9-1.58,3.22-4.04,3.22
		c-1.92,0-3.46-0.9-4.33-2.43L493.95,325.06z"/>
	<path class="st0" d="M508.74,326.48c-0.55,1.35-1.69,2.1-3.25,2.1c-2.4,0-3.69-1.56-3.69-4.04c0-2.38,1.44-3.87,3.62-3.87
		c2.37,0,3.36,1.73,3.37,4.4h-5.22c0.06,1.29,0.77,2.02,1.95,2.02c0.76,0,1.41-0.3,1.68-1.16L508.74,326.48z M507,323.81
		c-0.06-1.17-0.67-1.77-1.63-1.77s-1.67,0.6-1.79,1.77H507z"/>
	<path class="st0" d="M510.15,328.36v-7.47h1.68v1.15c0.45-0.81,1.04-1.24,2.07-1.24c0.24,0,0.42,0.03,0.64,0.09v1.77
		c-0.28-0.15-0.51-0.21-0.84-0.21c-0.58,0-1.08,0.25-1.41,0.73c-0.26,0.38-0.39,0.9-0.39,1.69v3.48H510.15z"/>
	<path class="st0" d="M517.51,328.36l-2.73-7.47h1.95c0.87,2.55,1.38,4.09,1.85,5.68c0.44-1.53,0.93-3.15,1.8-5.68h1.86l-2.68,7.47
		H517.51z"/>
	<path class="st0" d="M529.53,326.48c-0.55,1.35-1.69,2.1-3.25,2.1c-2.4,0-3.69-1.56-3.69-4.04c0-2.38,1.44-3.87,3.62-3.87
		c2.37,0,3.36,1.73,3.37,4.4h-5.22c0.06,1.29,0.77,2.02,1.95,2.02c0.76,0,1.41-0.3,1.68-1.16L529.53,326.48z M527.79,323.81
		c-0.06-1.17-0.67-1.77-1.63-1.77s-1.67,0.6-1.79,1.77H527.79z"/>
	<path class="st0" d="M530.94,328.36v-7.47h1.68v1.15c0.45-0.81,1.04-1.24,2.07-1.24c0.24,0,0.42,0.03,0.64,0.09v1.77
		c-0.28-0.15-0.51-0.21-0.84-0.21c-0.58,0-1.08,0.25-1.41,0.73c-0.26,0.38-0.39,0.9-0.39,1.69v3.48H530.94z"/>
</g>
<g>
	<path class="st0" d="M344.09,581.36c-1.24-4.62-1.62-6.08-2.04-8.02c-0.45,1.93-0.83,3.36-2.16,8.02h-1.98l-2.76-10.59h2.04
		c0.72,3.04,1.3,5.44,1.92,8.17c0.48-2.16,0.94-4.02,1.99-8.17h1.88c0.81,3.15,1.56,6.04,2.07,8.17c0.21-1.18,0.74-3.6,1.85-8.17
		h1.98l-2.81,10.59H344.09z"/>
	<path class="st0" d="M352.38,581.57c-2.34,0-3.66-1.47-3.66-3.96c0-2.47,1.46-3.93,3.77-3.93c2.22,0,3.55,1.49,3.55,4.02
		C356.04,580.19,354.57,581.57,352.38,581.57z M352.44,575.15c-1.11,0-1.92,0.86-1.92,2.42c0,1.69,0.78,2.54,1.88,2.54
		c1.09,0,1.87-0.76,1.87-2.45C354.27,575.99,353.55,575.15,352.44,575.15z"/>
	<path class="st0" d="M360.72,581.57c-2.34,0-3.66-1.47-3.66-3.96c0-2.47,1.46-3.93,3.77-3.93c2.22,0,3.55,1.49,3.55,4.02
		C364.38,580.19,362.91,581.57,360.72,581.57z M360.78,575.15c-1.11,0-1.92,0.86-1.92,2.42c0,1.69,0.78,2.54,1.88,2.54
		c1.09,0,1.87-0.76,1.87-2.45C362.61,575.99,361.89,575.15,360.78,575.15z"/>
	<path class="st0" d="M370.64,581.36v-1.05c-0.48,0.71-1.19,1.2-2.23,1.2c-1.72,0-3-1.32-3-3.91c0-2.45,1.38-3.86,3.1-3.86
		c1.11,0,1.73,0.41,2.13,0.98v-3.94h1.71v10.59H370.64z M368.94,575.19c-1.04,0-1.74,0.79-1.74,2.38c0,1.5,0.63,2.46,1.66,2.46
		c1.04,0,1.77-0.81,1.77-2.4C370.64,576.14,369.99,575.19,368.94,575.19z"/>
	<path class="st0" d="M380.27,581.36c-0.5-2.04-0.96-3.75-1.33-5.55c-0.31,1.44-0.66,2.76-1.44,5.55h-1.98l-2.25-7.47h1.92
		c0.51,1.98,1.11,4.2,1.46,5.62c0.3-1.41,0.63-2.89,1.38-5.62h1.84c0.63,2.4,1.02,3.97,1.38,5.62c0.36-1.61,0.93-3.71,1.46-5.62h1.8
		l-2.26,7.47H380.27z"/>
	<path class="st0" d="M385.4,572.42v-1.65h1.79v1.65H385.4z M387.18,581.36h-1.77v-7.47h1.77V581.36z"/>
	<path class="st0" d="M393.75,581.36v-4.29c0-0.58-0.06-1.02-0.27-1.32c-0.19-0.28-0.52-0.42-1-0.42s-0.98,0.26-1.27,0.66
		c-0.38,0.5-0.44,1.05-0.44,1.77v3.6h-1.75v-7.47h1.74V575c0.54-0.76,1.42-1.24,2.48-1.24c0.9,0,1.48,0.31,1.86,0.88
		c0.3,0.45,0.42,1.04,0.42,2.04v4.68H393.75z"/>
	<path class="st0" d="M402.05,580.32c-0.52,0.65-1.25,0.96-2.21,0.96c-1.83,0-3-1.39-3-3.75c0-2.34,1.26-3.76,3.1-3.76
		c1.04,0,1.75,0.38,2.17,1.05v-0.91h1.74v6.96c0,1.54-0.36,2.52-1.16,3.08c-0.58,0.42-1.44,0.6-2.4,0.6c-1.81,0-2.97-0.79-3.3-2.34
		l1.85-0.33c0.13,0.83,0.69,1.25,1.5,1.25c0.72,0,1.17-0.21,1.42-0.63c0.21-0.32,0.27-0.83,0.27-1.46V580.32z M400.46,575.22
		c-1.11,0-1.8,0.84-1.8,2.29c0,1.53,0.68,2.4,1.74,2.4c1.02,0,1.68-0.72,1.69-2.23C402.09,576.15,401.54,575.22,400.46,575.22z"/>
</g>
<g>
	<path class="st0" d="M198.8,581.36v-4.29c0-0.64-0.06-1.06-0.31-1.37c-0.19-0.25-0.5-0.38-0.96-0.38c-0.48,0-0.98,0.26-1.27,0.66
		c-0.38,0.5-0.44,1.05-0.44,1.77v3.6h-1.75v-10.59h1.74V575c0.54-0.76,1.43-1.24,2.48-1.24c0.87,0,1.46,0.29,1.83,0.81
		c0.33,0.47,0.45,1.04,0.45,2.16v4.63H198.8z"/>
	<path class="st0" d="M203.99,573.89v4.26c0,0.45,0.06,0.88,0.19,1.17c0.2,0.41,0.56,0.63,1.12,0.63c0.5,0,0.93-0.25,1.2-0.58
		c0.31-0.4,0.46-0.9,0.46-1.6v-3.87h1.75v7.47h-1.72v-1.07c-0.51,0.72-1.28,1.2-2.33,1.2c-0.96,0-1.54-0.3-1.96-0.9
		c-0.33-0.46-0.46-1.12-0.46-2v-4.71H203.99z"/>
	<path class="st0" d="M217.93,581.36v-1.16c-0.73,0.95-1.75,1.37-3.1,1.37c-2.67,0-4.59-2.12-4.59-5.37c0-3.23,1.89-5.67,5.23-5.67
		c2.13,0,3.52,0.96,4.2,2.79l-1.89,0.72c-0.33-1.12-1.09-1.82-2.35-1.82c-1.99,0-3.19,1.49-3.19,3.85c0,2.49,1.27,3.83,3.09,3.83
		c1.69,0,2.5-1.03,2.56-2.76h-2.96v-1.62h4.73v5.83H217.93z"/>
	<path class="st0" d="M221.27,575.99c0-3.34,1.97-5.46,5.04-5.46c2.9,0,4.78,2.22,4.78,5.58c0,3.46-1.9,5.49-4.78,5.49
		C223.15,581.6,221.27,579.42,221.27,575.99z M226.22,572.22c-1.81,0-2.97,1.38-2.97,3.74c0,2.46,1.19,3.94,3.02,3.94
		c1.67,0,2.83-1.29,2.83-3.83C229.1,573.63,227.95,572.22,226.22,572.22z"/>
	<path class="st0" d="M236.48,580.92v-3.33h-3.3v-1.68h3.3v-3.36h1.75v3.36h3.3v1.68h-3.3v3.33H236.48z"/>
</g>
<g>
	<path class="st0" d="M793.12,310.36v-10.59h1.9v8.94h4.99v1.65H793.12z"/>
	<path class="st0" d="M801.3,301.42v-1.65h1.79v1.65H801.3z M803.08,310.36h-1.77v-7.47h1.77V310.36z"/>
	<path class="st0" d="M806.73,310.36l-2.73-7.47h1.95c0.87,2.55,1.38,4.09,1.84,5.68c0.43-1.53,0.93-3.15,1.8-5.68h1.86l-2.68,7.47
		H806.73z"/>
	<path class="st0" d="M812.35,301.42v-1.65h1.79v1.65H812.35z M814.14,310.36h-1.77v-7.47h1.77V310.36z"/>
	<path class="st0" d="M820.71,310.36v-4.29c0-0.58-0.06-1.02-0.27-1.32c-0.19-0.28-0.52-0.42-1-0.42s-0.97,0.25-1.28,0.66
		c-0.38,0.49-0.43,1.05-0.43,1.77v3.6h-1.75v-7.47h1.74V304c0.54-0.76,1.42-1.24,2.47-1.24c0.9,0,1.48,0.31,1.86,0.88
		c0.3,0.45,0.42,1.04,0.42,2.04v4.68H820.71z"/>
	<path class="st0" d="M829,309.32c-0.53,0.65-1.25,0.96-2.21,0.96c-1.83,0-3-1.39-3-3.75c0-2.34,1.26-3.77,3.1-3.77
		c1.04,0,1.75,0.38,2.17,1.05v-0.92h1.74v6.96c0,1.54-0.36,2.52-1.16,3.08c-0.58,0.42-1.44,0.6-2.4,0.6c-1.82,0-2.97-0.79-3.3-2.34
		l1.85-0.33c0.13,0.83,0.69,1.25,1.5,1.25c0.72,0,1.17-0.21,1.42-0.63c0.21-0.31,0.27-0.83,0.27-1.46V309.32z M827.41,304.22
		c-1.11,0-1.8,0.84-1.8,2.29c0,1.53,0.68,2.4,1.74,2.4c1.02,0,1.68-0.72,1.7-2.23C829.05,305.15,828.49,304.22,827.41,304.22z"/>
	<path class="st0" d="M837.48,310.36v-1.05c-0.48,0.7-1.19,1.2-2.24,1.2c-1.72,0-3-1.32-3-3.91c0-2.45,1.38-3.85,3.1-3.85
		c1.11,0,1.73,0.4,2.13,0.98v-3.94h1.71v10.59H837.48z M835.78,304.19c-1.04,0-1.74,0.79-1.74,2.38c0,1.5,0.63,2.46,1.67,2.46
		c1.04,0,1.77-0.81,1.77-2.4C837.48,305.14,836.83,304.19,835.78,304.19z"/>
	<path class="st0" d="M844.27,310.57c-2.34,0-3.66-1.47-3.66-3.96c0-2.47,1.46-3.93,3.77-3.93c2.22,0,3.55,1.48,3.55,4.02
		C847.93,309.19,846.46,310.57,844.27,310.57z M844.33,304.15c-1.11,0-1.92,0.85-1.92,2.42c0,1.69,0.78,2.54,1.88,2.54
		c1.09,0,1.87-0.77,1.87-2.45C846.16,304.99,845.44,304.15,844.33,304.15z"/>
	<path class="st0" d="M854.01,305.47c-0.21-0.99-0.75-1.32-1.46-1.32c-1.02,0-1.8,0.77-1.8,2.43c0,1.65,0.69,2.52,1.84,2.52
		c0.79,0,1.28-0.42,1.46-1.22l1.58,0.54c-0.43,1.25-1.42,2.15-3.12,2.15c-2.17,0-3.55-1.5-3.55-3.96c0-2.44,1.41-3.93,3.64-3.93
		c1.62,0,2.64,0.92,2.99,2.25L854.01,305.47z"/>
	<path class="st0" d="M857.4,307.99c0.39,0.77,1.08,1.22,1.9,1.22c0.77,0,1.19-0.33,1.19-0.78c0-0.49-0.25-0.7-1.38-1.06l-0.79-0.25
		c-1.16-0.36-1.89-1.04-1.89-2.17c0-1.17,1.05-2.25,2.89-2.25c1.19,0,2.28,0.45,2.94,1.5l-1.3,0.88c-0.38-0.66-0.95-1.05-1.66-1.05
		c-0.75,0-1.11,0.3-1.11,0.73c0,0.45,0.24,0.66,1.2,0.96l0.79,0.24c1.32,0.42,2.07,1.03,2.07,2.23c0,1.38-1.16,2.38-3.01,2.38
		c-1.53,0-2.56-0.73-3.2-1.68L857.4,307.99z"/>
	<path class="st0" d="M793.12,328.36v-10.59h4.36c1.46,0,2.34,0.22,2.92,0.64c0.79,0.56,1.15,1.53,1.15,2.6
		c0,1.19-0.42,2.25-1.35,2.77c-0.78,0.44-1.88,0.58-3.15,0.58h-2.06v3.99H793.12z M796.92,322.75c1.03,0,1.71-0.1,2.13-0.39
		c0.39-0.28,0.54-0.73,0.54-1.33c0-0.54-0.18-0.99-0.54-1.28c-0.4-0.3-0.91-0.36-2.01-0.36h-2.03v3.36H796.92z"/>
	<path class="st0" d="M804,320.89v4.26c0,0.45,0.06,0.89,0.19,1.17c0.2,0.41,0.56,0.63,1.12,0.63c0.5,0,0.93-0.25,1.2-0.58
		c0.31-0.4,0.46-0.9,0.46-1.6v-3.87h1.75v7.47h-1.72v-1.06c-0.51,0.72-1.28,1.2-2.32,1.2c-0.96,0-1.54-0.3-1.96-0.9
		c-0.33-0.46-0.46-1.12-0.46-1.99v-4.71H804z"/>
	<path class="st0" d="M812.29,317.77v4.12c0.49-0.65,1.27-1.15,2.34-1.15c1.75,0,2.88,1.46,2.88,3.88c0,2.44-1.23,3.88-3.07,3.88
		c-1.02,0-1.71-0.39-2.22-1.12v0.98h-1.68v-10.59H812.29z M814,327.04c1.04,0,1.68-0.83,1.68-2.42c0-1.5-0.61-2.42-1.62-2.42
		c-1.06,0-1.81,0.9-1.81,2.33C812.25,326.12,812.89,327.04,814,327.04z"/>
	<path class="st0" d="M820.71,328.36h-1.77v-10.59h1.77V328.36z"/>
	<path class="st0" d="M822.52,319.42v-1.65h1.79v1.65H822.52z M824.31,328.36h-1.77v-7.47h1.77V328.36z"/>
	<path class="st0" d="M826.81,325.99c0.39,0.77,1.08,1.22,1.9,1.22c0.77,0,1.19-0.33,1.19-0.78c0-0.49-0.26-0.7-1.38-1.06
		l-0.79-0.25c-1.15-0.36-1.89-1.04-1.89-2.17c0-1.17,1.05-2.25,2.9-2.25c1.18,0,2.28,0.45,2.94,1.5l-1.3,0.88
		c-0.38-0.66-0.95-1.05-1.67-1.05c-0.75,0-1.11,0.3-1.11,0.73c0,0.45,0.24,0.66,1.2,0.96l0.79,0.24c1.32,0.42,2.07,1.03,2.07,2.23
		c0,1.38-1.15,2.38-3.01,2.38c-1.53,0-2.57-0.73-3.2-1.68L826.81,325.99z"/>
	<path class="st0" d="M837.7,328.36v-4.29c0-0.64-0.06-1.06-0.31-1.36c-0.2-0.25-0.5-0.38-0.96-0.38c-0.48,0-0.98,0.25-1.27,0.66
		c-0.38,0.49-0.44,1.05-0.44,1.77v3.6h-1.75v-10.59h1.74V322c0.54-0.76,1.43-1.24,2.48-1.24c0.87,0,1.46,0.28,1.83,0.81
		c0.33,0.47,0.45,1.04,0.45,2.16v4.63H837.7z"/>
	<path class="st0" d="M847.74,326.48c-0.55,1.35-1.7,2.1-3.25,2.1c-2.4,0-3.69-1.56-3.69-4.04c0-2.38,1.44-3.87,3.62-3.87
		c2.37,0,3.36,1.73,3.38,4.4h-5.22c0.06,1.29,0.76,2.02,1.95,2.02c0.76,0,1.41-0.3,1.68-1.16L847.74,326.48z M846,323.81
		c-0.06-1.17-0.67-1.77-1.63-1.77s-1.66,0.6-1.79,1.77H846z"/>
	<path class="st0" d="M849.15,328.36v-7.47h1.68v1.15c0.45-0.81,1.04-1.24,2.07-1.24c0.24,0,0.42,0.03,0.64,0.09v1.77
		c-0.28-0.15-0.51-0.21-0.84-0.21c-0.58,0-1.08,0.25-1.41,0.73c-0.25,0.38-0.39,0.9-0.39,1.69v3.48H849.15z"/>
</g>
<g>
	<path class="st0" d="M500.12,656.36v-10.59h4.36c1.46,0,2.34,0.22,2.92,0.64c0.79,0.55,1.15,1.53,1.15,2.59
		c0,1.18-0.42,2.25-1.35,2.77c-0.78,0.44-1.88,0.59-3.15,0.59h-2.06v3.99H500.12z M503.92,650.75c1.03,0,1.71-0.1,2.13-0.39
		c0.39-0.28,0.54-0.74,0.54-1.33c0-0.54-0.18-0.99-0.54-1.28c-0.41-0.3-0.92-0.36-2.01-0.36h-2.02v3.36H503.92z"/>
	<path class="st0" d="M512.39,656.57c-2.34,0-3.66-1.47-3.66-3.96c0-2.47,1.46-3.93,3.77-3.93c2.22,0,3.55,1.49,3.55,4.02
		C516.05,655.19,514.58,656.57,512.39,656.57z M512.45,650.15c-1.11,0-1.92,0.86-1.92,2.42c0,1.69,0.78,2.54,1.88,2.54
		c1.09,0,1.87-0.76,1.87-2.45C514.28,650.99,513.56,650.15,512.45,650.15z"/>
	<path class="st0" d="M518.15,653.99c0.39,0.77,1.08,1.21,1.9,1.21c0.77,0,1.19-0.33,1.19-0.78c0-0.5-0.25-0.71-1.38-1.07
		l-0.79-0.25c-1.15-0.36-1.89-1.04-1.89-2.17c0-1.17,1.05-2.25,2.9-2.25c1.19,0,2.28,0.45,2.94,1.5l-1.3,0.88
		c-0.38-0.66-0.95-1.05-1.67-1.05c-0.75,0-1.11,0.3-1.11,0.73c0,0.45,0.24,0.66,1.2,0.96l0.79,0.24c1.32,0.42,2.07,1.03,2.07,2.23
		c0,1.38-1.15,2.38-3.01,2.38c-1.53,0-2.56-0.73-3.19-1.68L518.15,653.99z"/>
	<path class="st0" d="M527.95,656.33c-0.39,0.11-0.87,0.17-1.31,0.17c-0.73,0-1.23-0.18-1.53-0.54c-0.31-0.36-0.42-0.88-0.42-1.57
		v-4.08h-1.17v-1.41h1.2v-2.43h1.74v2.43h1.46v1.41h-1.46v3.73c0,0.77,0.23,1.04,0.77,1.04c0.21,0,0.48-0.04,0.72-0.13V656.33z"/>
	<path class="st0" d="M528.74,652.53v-1.41h4.33v1.41H528.74z"/>
	<path class="st0" d="M534.7,656.36v-10.59h4.36c1.46,0,2.34,0.22,2.92,0.64c0.79,0.55,1.15,1.53,1.15,2.59
		c0,1.18-0.42,2.25-1.35,2.77c-0.78,0.44-1.88,0.59-3.15,0.59h-2.06v3.99H534.7z M538.49,650.75c1.03,0,1.71-0.1,2.13-0.39
		c0.39-0.28,0.54-0.74,0.54-1.33c0-0.54-0.18-0.99-0.54-1.28c-0.41-0.3-0.92-0.36-2.01-0.36h-2.02v3.36H538.49z"/>
	<path class="st0" d="M543.88,656.36v-7.47h1.68v1.15c0.45-0.81,1.04-1.24,2.07-1.24c0.24,0,0.42,0.03,0.64,0.09v1.77
		c-0.28-0.15-0.51-0.21-0.84-0.21c-0.58,0-1.08,0.25-1.41,0.73c-0.26,0.38-0.39,0.9-0.39,1.7v3.48H543.88z"/>
	<path class="st0" d="M552.52,656.57c-2.34,0-3.66-1.47-3.66-3.96c0-2.47,1.46-3.93,3.77-3.93c2.22,0,3.55,1.49,3.55,4.02
		C556.18,655.19,554.71,656.57,552.52,656.57z M552.58,650.15c-1.11,0-1.92,0.86-1.92,2.42c0,1.69,0.78,2.54,1.88,2.54
		c1.09,0,1.87-0.76,1.87-2.45C554.41,650.99,553.69,650.15,552.58,650.15z"/>
	<path class="st0" d="M562.43,656.36v-1.05c-0.48,0.71-1.18,1.2-2.23,1.2c-1.72,0-3-1.32-3-3.91c0-2.45,1.38-3.86,3.1-3.86
		c1.11,0,1.73,0.41,2.13,0.98v-3.94h1.71v10.59H562.43z M560.74,650.19c-1.04,0-1.74,0.79-1.74,2.38c0,1.5,0.63,2.46,1.66,2.46
		c1.04,0,1.77-0.81,1.77-2.4C562.43,651.14,561.79,650.19,560.74,650.19z"/>
	<path class="st0" d="M567.67,648.89v4.26c0,0.45,0.06,0.88,0.19,1.17c0.2,0.41,0.56,0.63,1.12,0.63c0.5,0,0.93-0.25,1.2-0.58
		c0.31-0.4,0.46-0.9,0.46-1.6v-3.87h1.75v7.47h-1.72v-1.07c-0.51,0.72-1.28,1.2-2.33,1.2c-0.96,0-1.54-0.3-1.96-0.9
		c-0.33-0.46-0.46-1.12-0.46-2v-4.71H567.67z"/>
	<path class="st0" d="M573.65,656.36v-1.12l3.67-4.93h-3.49v-1.41h5.7v1.14l-3.63,4.89h3.75v1.44H573.65z"/>
	<path class="st0" d="M587.29,654.48c-0.55,1.35-1.69,2.1-3.25,2.1c-2.4,0-3.69-1.56-3.69-4.04c0-2.38,1.44-3.87,3.62-3.87
		c2.37,0,3.36,1.73,3.37,4.4h-5.22c0.06,1.29,0.77,2.02,1.95,2.02c0.76,0,1.41-0.3,1.68-1.16L587.29,654.48z M585.55,651.81
		c-0.06-1.17-0.67-1.77-1.63-1.77s-1.67,0.6-1.79,1.77H585.55z"/>
	<path class="st0" d="M593.44,656.36v-4.29c0-0.58-0.06-1.02-0.27-1.32c-0.19-0.28-0.52-0.42-1-0.42s-0.98,0.26-1.27,0.66
		c-0.38,0.5-0.44,1.05-0.44,1.77v3.6h-1.75v-7.47h1.74V650c0.54-0.76,1.42-1.24,2.48-1.24c0.9,0,1.48,0.31,1.86,0.88
		c0.3,0.45,0.42,1.04,0.42,2.04v4.68H593.44z"/>
	<path class="st0" d="M600.58,656.33c-0.39,0.11-0.87,0.17-1.31,0.17c-0.73,0-1.23-0.18-1.53-0.54c-0.31-0.36-0.42-0.88-0.42-1.57
		v-4.08h-1.17v-1.41h1.2v-2.43h1.74v2.43h1.46v1.41h-1.46v3.73c0,0.77,0.23,1.04,0.77,1.04c0.21,0,0.48-0.04,0.72-0.13V656.33z"/>
</g>
</svg>
