<?xml version="1.0" encoding="utf-8"?>
<!-- Generator: Adobe Illustrator 22.1.0, SVG Export Plug-In . SVG Version: 6.00 Build 0)  -->
<svg version="1.1" id="labels" xmlns="http://www.w3.org/2000/svg" xmlns:xlink="http://www.w3.org/1999/xlink" x="0px" y="0px"
	 viewBox="0 0 1201 727" style="enable-background:new 0 0 1201 727;" xml:space="preserve">
<style type="text/css">
	.st0{enable-background:new    ;}
	.st1{fill:#3A2F3C;}
	.st2{fill:#3661b5;}
</style>
<g class="st0">
	<path class="st1" d="M199.1,198.3c1.8,0,3,1.4,3,3.5c0,2.3-1.4,3.8-3.8,3.8c-1.7,0-3.1-0.9-3.5-2.6l1.7-0.7
		c0.2,1.2,0.9,1.7,1.9,1.7c1.1,0,1.9-0.7,1.9-2.1c0-1.4-0.8-2.1-1.8-2.1c-0.8,0-1.4,0.4-1.6,1.1l-1.6-0.2l0.4-5.7h5.8v1.6h-4.4
		l-0.2,2.6C197.4,198.6,198.2,198.3,199.1,198.3z"/>
	<path class="st1" d="M207.1,205.6c-2.5,0-3.9-2-3.9-5.4c0-3.4,1.4-5.4,3.9-5.4c2.4,0,3.8,2,3.8,5.4
		C211,203.7,209.6,205.6,207.1,205.6z M207.2,196.4c-1.3,0-2.1,1.3-2.1,3.8c0,2.6,0.7,3.8,2.1,3.8c1.3,0,2.1-1.1,2.1-3.6
		C209.2,197.7,208.4,196.4,207.2,196.4z"/>
	<path class="st1" d="M215.8,205.6c-2.5,0-3.9-2-3.9-5.4c0-3.4,1.4-5.4,3.9-5.4c2.4,0,3.8,2,3.8,5.4
		C219.6,203.7,218.3,205.6,215.8,205.6z M215.8,196.4c-1.3,0-2.1,1.3-2.1,3.8c0,2.6,0.7,3.8,2.1,3.8c1.3,0,2.1-1.1,2.1-3.6
		C217.9,197.7,217.1,196.4,215.8,196.4z"/>
	<path class="st1" d="M224.9,204.9v-3.3h-3.3v-1.7h3.3v-3.4h1.8v3.4h3.3v1.7h-3.3v3.3H224.9z"/>
	<path class="st1" d="M237.7,197.9v7.8c0,0.9-0.1,1.5-0.4,2c-0.5,0.7-1.3,0.9-2.1,0.9c-0.3,0-0.6,0-0.9-0.1V207
		c0.2,0,0.3,0.1,0.5,0.1c1,0,1.1-0.5,1.1-1.7v-7.5H237.7z M237.7,194.8v1.7h-1.8v-1.7H237.7z"/>
	<path class="st1" d="M242.8,205.6c-2.3,0-3.7-1.5-3.7-4c0-2.5,1.5-3.9,3.8-3.9c2.2,0,3.6,1.5,3.6,4
		C246.4,204.2,245,205.6,242.8,205.6z M242.8,199.1c-1.1,0-1.9,0.9-1.9,2.4c0,1.7,0.8,2.5,1.9,2.5c1.1,0,1.9-0.8,1.9-2.4
		C244.7,200,243.9,199.1,242.8,199.1z"/>
	<path class="st1" d="M249.5,197.9v4.3c0,0.5,0.1,0.9,0.2,1.2c0.2,0.4,0.6,0.6,1.1,0.6c0.5,0,0.9-0.3,1.2-0.6
		c0.3-0.4,0.5-0.9,0.5-1.6v-3.9h1.8v7.5h-1.7v-1.1c-0.5,0.7-1.3,1.2-2.3,1.2c-1,0-1.5-0.3-2-0.9c-0.3-0.5-0.5-1.1-0.5-2v-4.7H249.5z
		"/>
	<path class="st1" d="M256.1,205.4v-7.5h1.7v1.2c0.5-0.8,1-1.2,2.1-1.2c0.2,0,0.4,0,0.6,0.1v1.8c-0.3-0.1-0.5-0.2-0.8-0.2
		c-0.6,0-1.1,0.3-1.4,0.7c-0.3,0.4-0.4,0.9-0.4,1.7v3.5H256.1z"/>
	<path class="st1" d="M266.2,205.4v-4.3c0-0.6-0.1-1-0.3-1.3c-0.2-0.3-0.5-0.4-1-0.4s-1,0.3-1.3,0.7c-0.4,0.5-0.4,1-0.4,1.8v3.6
		h-1.8v-7.5h1.7v1.1c0.5-0.8,1.4-1.2,2.5-1.2c0.9,0,1.5,0.3,1.9,0.9c0.3,0.5,0.4,1,0.4,2v4.7H266.2z"/>
	<path class="st1" d="M273.9,200.3c0-0.4-0.1-0.7-0.3-0.9c-0.2-0.2-0.6-0.3-1-0.3c-0.9,0-1.3,0.5-1.4,1.3l-1.7-0.1
		c0.1-1.6,1.3-2.5,3.2-2.5c1,0,1.7,0.2,2.2,0.7c0.5,0.4,0.6,1,0.6,2.2v2.7c0,0.9,0.1,1.6,0.2,2h-1.7c-0.1-0.2-0.2-0.7-0.2-0.9
		c-0.6,0.7-1.4,1.1-2.4,1.1c-1.4,0-2.3-0.9-2.3-2.2c0-1,0.5-1.6,1.4-2c0.7-0.3,2.2-0.5,3.4-0.6V200.3z M273.9,201.9
		c-0.9,0-1.9,0.2-2.4,0.5c-0.5,0.2-0.6,0.5-0.6,0.9c0,0.5,0.4,0.9,1.1,0.9c0.7,0,1.2-0.3,1.6-0.8c0.2-0.3,0.3-0.8,0.3-1.2V201.9z"/>
	<path class="st1" d="M279.2,205.4h-1.8v-10.6h1.8V205.4z"/>
	<path class="st1" d="M281,196.4v-1.7h1.8v1.7H281z M282.8,205.4H281v-7.5h1.8V205.4z"/>
	<path class="st1" d="M285.3,203c0.4,0.8,1.1,1.2,1.9,1.2c0.8,0,1.2-0.3,1.2-0.8c0-0.5-0.3-0.7-1.4-1.1l-0.8-0.3
		c-1.2-0.4-1.9-1-1.9-2.2c0-1.2,1.1-2.2,2.9-2.2c1.2,0,2.3,0.5,2.9,1.5l-1.3,0.9c-0.4-0.7-0.9-1-1.7-1c-0.8,0-1.1,0.3-1.1,0.7
		c0,0.4,0.2,0.7,1.2,1l0.8,0.2c1.3,0.4,2.1,1,2.1,2.2c0,1.4-1.2,2.4-3,2.4c-1.5,0-2.6-0.7-3.2-1.7L285.3,203z"/>
	<path class="st1" d="M295.1,205.3c-0.4,0.1-0.9,0.2-1.3,0.2c-0.7,0-1.2-0.2-1.5-0.5c-0.3-0.4-0.4-0.9-0.4-1.6v-4.1h-1.2v-1.4h1.2
		v-2.4h1.7v2.4h1.5v1.4h-1.5v3.7c0,0.8,0.2,1,0.8,1c0.2,0,0.5,0,0.7-0.1V205.3z"/>
	<path class="st1" d="M296.8,203c0.4,0.8,1.1,1.2,1.9,1.2c0.8,0,1.2-0.3,1.2-0.8c0-0.5-0.3-0.7-1.4-1.1l-0.8-0.3
		c-1.2-0.4-1.9-1-1.9-2.2c0-1.2,1.1-2.2,2.9-2.2c1.2,0,2.3,0.5,2.9,1.5l-1.3,0.9c-0.4-0.7-0.9-1-1.7-1c-0.8,0-1.1,0.3-1.1,0.7
		c0,0.4,0.2,0.7,1.2,1l0.8,0.2c1.3,0.4,2.1,1,2.1,2.2c0,1.4-1.2,2.4-3,2.4c-1.5,0-2.6-0.7-3.2-1.7L296.8,203z"/>
	<path class="st1" d="M304.6,205.3c0,1.2-0.2,1.7-1,2.4l-0.8-0.7c0.4-0.4,0.6-0.8,0.6-1.7h-0.6v-2.2h1.8V205.3z"/>
</g>
<g class="st0">
	<path class="st1" d="M195.8,214.5c1.3-0.1,2.1-0.7,2.2-1.5h1.6v10.4h-1.8v-7.8c-0.5,0.3-1.1,0.5-2,0.6V214.5z"/>
	<path class="st1" d="M208.8,215.9v1.1c0.5-0.7,1.2-1.2,2.3-1.2c1.7,0,3,1.3,3,3.9c0,2.4-1.4,3.9-3.1,3.9c-1.1,0-1.7-0.4-2.1-1v3.8
		h-1.7v-10.4H208.8z M210.5,222c1,0,1.7-0.8,1.7-2.4c0-1.5-0.6-2.5-1.6-2.5c-1,0-1.8,0.8-1.8,2.4C208.8,221.1,209.5,222,210.5,222z"
		/>
	<path class="st1" d="M215.5,223.4v-7.5h1.7v1.2c0.5-0.8,1-1.2,2.1-1.2c0.2,0,0.4,0,0.6,0.1v1.8c-0.3-0.1-0.5-0.2-0.8-0.2
		c-0.6,0-1.1,0.3-1.4,0.7c-0.3,0.4-0.4,0.9-0.4,1.7v3.5H215.5z"/>
	<path class="st1" d="M224.1,223.6c-2.3,0-3.7-1.5-3.7-4c0-2.5,1.5-3.9,3.8-3.9c2.2,0,3.6,1.5,3.6,4
		C227.8,222.2,226.3,223.6,224.1,223.6z M224.2,217.1c-1.1,0-1.9,0.9-1.9,2.4c0,1.7,0.8,2.5,1.9,2.5c1.1,0,1.9-0.8,1.9-2.4
		C226,218,225.3,217.1,224.2,217.1z"/>
	<path class="st1" d="M234,223.4v-1c-0.5,0.7-1.2,1.2-2.2,1.2c-1.7,0-3-1.3-3-3.9c0-2.4,1.4-3.9,3.1-3.9c1.1,0,1.7,0.4,2.1,1v-3.9
		h1.7v10.6H234z M232.3,217.2c-1,0-1.7,0.8-1.7,2.4c0,1.5,0.6,2.5,1.7,2.5c1,0,1.8-0.8,1.8-2.4C234,218.1,233.4,217.2,232.3,217.2z"
		/>
	<path class="st1" d="M239.3,215.9v4.3c0,0.5,0.1,0.9,0.2,1.2c0.2,0.4,0.6,0.6,1.1,0.6c0.5,0,0.9-0.3,1.2-0.6
		c0.3-0.4,0.5-0.9,0.5-1.6v-3.9h1.8v7.5h-1.7v-1.1c-0.5,0.7-1.3,1.2-2.3,1.2c-1,0-1.5-0.3-2-0.9c-0.3-0.5-0.5-1.1-0.5-2v-4.7H239.3z
		"/>
	<path class="st1" d="M250.4,218.5c-0.2-1-0.8-1.3-1.5-1.3c-1,0-1.8,0.8-1.8,2.4c0,1.7,0.7,2.5,1.8,2.5c0.8,0,1.3-0.4,1.5-1.2
		l1.6,0.5c-0.4,1.2-1.4,2.1-3.1,2.1c-2.2,0-3.6-1.5-3.6-4c0-2.4,1.4-3.9,3.6-3.9c1.6,0,2.6,0.9,3,2.2L250.4,218.5z"/>
	<path class="st1" d="M256.8,223.3c-0.4,0.1-0.9,0.2-1.3,0.2c-0.7,0-1.2-0.2-1.5-0.5c-0.3-0.4-0.4-0.9-0.4-1.6v-4.1h-1.2v-1.4h1.2
		v-2.4h1.7v2.4h1.5v1.4h-1.5v3.7c0,0.8,0.2,1,0.8,1c0.2,0,0.5,0,0.7-0.1V223.3z"/>
	<path class="st1" d="M257.9,214.4v-1.7h1.8v1.7H257.9z M259.6,223.4h-1.8v-7.5h1.8V223.4z"/>
	<path class="st1" d="M264.7,223.6c-2.3,0-3.7-1.5-3.7-4c0-2.5,1.5-3.9,3.8-3.9c2.2,0,3.6,1.5,3.6,4
		C268.4,222.2,266.9,223.6,264.7,223.6z M264.8,217.1c-1.1,0-1.9,0.9-1.9,2.4c0,1.7,0.8,2.5,1.9,2.5c1.1,0,1.9-0.8,1.9-2.4
		C266.6,218,265.9,217.1,264.8,217.1z"/>
	<path class="st1" d="M274.5,223.4v-4.3c0-0.6-0.1-1-0.3-1.3c-0.2-0.3-0.5-0.4-1-0.4s-1,0.3-1.3,0.7c-0.4,0.5-0.4,1-0.4,1.8v3.6
		h-1.8v-7.5h1.7v1.1c0.5-0.8,1.4-1.2,2.5-1.2c0.9,0,1.5,0.3,1.9,0.9c0.3,0.5,0.4,1,0.4,2v4.7H274.5z"/>
	<path class="st1" d="M285.1,223.3c-0.4,0.1-0.9,0.2-1.3,0.2c-0.7,0-1.2-0.2-1.5-0.5c-0.3-0.4-0.4-0.9-0.4-1.6v-4.1h-1.2v-1.4h1.2
		v-2.4h1.7v2.4h1.5v1.4h-1.5v3.7c0,0.8,0.2,1,0.8,1c0.2,0,0.5,0,0.7-0.1V223.3z"/>
	<path class="st1" d="M289.4,223.6c-2.3,0-3.7-1.5-3.7-4c0-2.5,1.5-3.9,3.8-3.9c2.2,0,3.6,1.5,3.6,4
		C293,222.2,291.6,223.6,289.4,223.6z M289.4,217.1c-1.1,0-1.9,0.9-1.9,2.4c0,1.7,0.8,2.5,1.9,2.5c1.1,0,1.9-0.8,1.9-2.4
		C291.3,218,290.6,217.1,289.4,217.1z"/>
	<path class="st1" d="M297.7,223.6c-2.3,0-3.7-1.5-3.7-4c0-2.5,1.5-3.9,3.8-3.9c2.2,0,3.6,1.5,3.6,4
		C301.4,222.2,299.9,223.6,297.7,223.6z M297.8,217.1c-1.1,0-1.9,0.9-1.9,2.4c0,1.7,0.8,2.5,1.9,2.5c1.1,0,1.9-0.8,1.9-2.4
		C299.6,218,298.9,217.1,297.8,217.1z"/>
	<path class="st1" d="M304.6,223.4h-1.8v-10.6h1.8V223.4z"/>
</g>
<g class="st0">
	<path class="st2" d="M51.1,70.4V59.8h4.4c1.5,0,2.3,0.2,2.9,0.6c0.8,0.6,1.2,1.5,1.2,2.6c0,1.2-0.4,2.2-1.3,2.8
		c-0.8,0.4-1.9,0.6-3.1,0.6H53v4H51.1z M54.9,64.7c1,0,1.7-0.1,2.1-0.4c0.4-0.3,0.5-0.7,0.5-1.3c0-0.5-0.2-1-0.5-1.3
		c-0.4-0.3-0.9-0.4-2-0.4h-2v3.4H54.9z"/>
	<path class="st2" d="M61,70.4V59.8h1.9v8.9h5v1.7H61z"/>
	<path class="st2" d="M76.2,70.4l-0.8-2.5h-4.2l-0.9,2.5h-2.1l4-10.6h2.1l3.9,10.6H76.2z M74.9,66.4c-0.6-1.7-1.1-3.2-1.6-4.7
		c-0.3,1.1-0.7,2.1-1.6,4.7H74.9z"/>
	<path class="st2" d="M81.4,59.8c2.3,3.9,3.7,6,4.7,7.8C86,66,86,63.8,86,59.8h1.9v10.6h-2.1c-2.2-3.6-3.6-5.9-4.7-7.8
		c0,0.9,0.1,3,0.1,7.8h-1.9V59.8H81.4z"/>
</g>
<g class="st0">
	<path class="st2" d="M51.1,271.4v-10.6h4.4c1.5,0,2.3,0.2,2.9,0.6c0.8,0.6,1.2,1.5,1.2,2.6c0,1.2-0.4,2.2-1.3,2.8
		c-0.8,0.4-1.9,0.6-3.1,0.6H53v4H51.1z M54.9,265.7c1,0,1.7-0.1,2.1-0.4c0.4-0.3,0.5-0.7,0.5-1.3c0-0.5-0.2-1-0.5-1.3
		c-0.4-0.3-0.9-0.4-2-0.4h-2v3.4H54.9z"/>
	<path class="st2" d="M67.4,271.4l-2.7-4.2h-1.8v4.2H61v-10.6h3.4c1.4,0,2.4,0.1,3.2,0.4c1.1,0.4,1.6,1.3,1.6,2.7c0,1.7-1,2.7-2.6,3
		l3,4.5H67.4z M64.9,265.6c1,0,1.5-0.1,1.8-0.4c0.3-0.3,0.5-0.7,0.5-1.2c0-0.6-0.1-1-0.6-1.3c-0.3-0.2-0.9-0.3-1.7-0.3h-2v3.2H64.9z
		"/>
	<path class="st2" d="M70.4,266c0-3.3,2-5.5,5-5.5c2.9,0,4.8,2.2,4.8,5.6c0,3.5-1.9,5.5-4.8,5.5C72.3,271.6,70.4,269.4,70.4,266z
		 M75.4,262.2c-1.8,0-3,1.4-3,3.7c0,2.5,1.2,3.9,3,3.9c1.7,0,2.8-1.3,2.8-3.8C78.3,263.6,77.1,262.2,75.4,262.2z"/>
	<path class="st2" d="M81.9,260.8h3.3c1.9,0,2.7,0.1,3.5,0.5c1.5,0.7,2.1,2.5,2.1,4.7c0,1.7-0.5,3.2-1.4,4.1c-1,1-2.2,1.3-4.4,1.3
		h-3.1V260.8z M85.1,269.7c1.4,0,2.3-0.3,2.9-0.9c0.6-0.6,0.8-1.6,0.8-2.9c0-1.1-0.2-2.1-0.8-2.7c-0.5-0.5-1.1-0.8-2.6-0.8h-1.6v7.3
		H85.1z"/>
	<path class="st2" d="M100.8,266.8c0,1.7-0.2,2.7-0.9,3.5c-0.7,0.9-1.9,1.3-3.4,1.3c-1.5,0-2.7-0.4-3.4-1.3
		c-0.7-0.9-0.8-1.9-0.8-3.5v-6.1h1.9v6.2c0,0.8,0,1.5,0.3,2c0.4,0.7,1.1,1,2,1c0.9,0,1.7-0.2,2.1-1c0.2-0.4,0.3-1.1,0.3-1.9v-6.3
		h1.9V266.8z"/>
	<path class="st2" d="M109.5,264.1c-0.3-1.2-1-1.9-2.2-1.9c-1.9,0-3,1.4-3,3.7c0,2.4,1.1,4,3,4c1.2,0,2.1-0.7,2.4-2l1.8,0.7
		c-0.7,2-2.2,3-4.3,3c-3,0-4.9-2.1-4.9-5.6c0-3.5,2-5.5,5-5.5c2.1,0,3.5,1.1,4,2.9L109.5,264.1z"/>
	<path class="st2" d="M112.8,271.4v-10.6h7.4v1.6h-5.4v2.7h5v1.6h-5v3h5.7v1.7H112.8z"/>
</g>
<g class="st0">
	<path class="st2" d="M57.5,474.4l-2.7-4.2H53v4.2h-1.9v-10.6h3.4c1.4,0,2.4,0.1,3.2,0.4c1.1,0.4,1.6,1.3,1.6,2.7c0,1.7-1,2.7-2.6,3
		l3,4.5H57.5z M55,468.6c1,0,1.5-0.1,1.8-0.4c0.3-0.3,0.5-0.7,0.5-1.2c0-0.6-0.1-1-0.6-1.3c-0.3-0.2-0.9-0.3-1.7-0.3h-2v3.2H55z"/>
	<path class="st2" d="M60.9,474.4v-10.6h7.4v1.6h-5.4v2.7h5v1.6h-5v3h5.7v1.7H60.9z"/>
	<path class="st2" d="M70,474.4v-10.6h7.3v1.6H72v2.8h4.9v1.6H72v4.5H70z"/>
	<path class="st2" d="M80.6,474.4h-1.9v-10.6h1.9V474.4z"/>
	<path class="st2" d="M84.7,463.8c2.3,3.9,3.7,6,4.7,7.8c-0.1-1.6-0.1-3.8-0.1-7.8h1.9v10.6h-2.1c-2.2-3.6-3.6-5.9-4.7-7.8
		c0,0.9,0.1,3,0.1,7.8h-1.9v-10.6H84.7z"/>
	<path class="st2" d="M93.2,474.4v-10.6h7.4v1.6h-5.4v2.7h5v1.6h-5v3h5.7v1.7H93.2z"/>
</g>
<g class="st0">
	<path class="st1" d="M817.2,540.8c2.3,3.9,3.7,6,4.7,7.8c-0.1-1.6-0.1-3.8-0.1-7.8h1.9v10.6h-2.1c-2.2-3.6-3.6-5.9-4.7-7.8
		c0,0.9,0.1,3,0.1,7.8h-1.9v-10.6H817.2z"/>
	<path class="st1" d="M825.2,551.4v-1.4l5.8-7.5h-5.5v-1.6h7.9v1.5l-5.7,7.5h5.7v1.6H825.2z"/>
	<path class="st1" d="M834.3,551.4v-1.4l5.8-7.5h-5.5v-1.6h7.9v1.5l-5.7,7.5h5.7v1.6H834.3z"/>
	<path class="st1" d="M849,543.9v1.1c0.5-0.7,1.2-1.2,2.3-1.2c1.7,0,3,1.3,3,3.9c0,2.4-1.4,3.9-3.1,3.9c-1.1,0-1.7-0.4-2.1-1v3.8
		h-1.7v-10.4H849z M850.7,550c1,0,1.7-0.8,1.7-2.4c0-1.5-0.6-2.5-1.7-2.5c-1,0-1.8,0.8-1.8,2.4C849,549.1,849.7,550,850.7,550z"/>
	<path class="st1" d="M855.7,551.4v-7.5h1.7v1.2c0.5-0.8,1-1.2,2.1-1.2c0.2,0,0.4,0,0.6,0.1v1.8c-0.3-0.1-0.5-0.2-0.8-0.2
		c-0.6,0-1.1,0.3-1.4,0.7c-0.3,0.4-0.4,0.9-0.4,1.7v3.5H855.7z"/>
	<path class="st1" d="M861,542.4v-1.7h1.8v1.7H861z M862.8,551.4H861v-7.5h1.8V551.4z"/>
	<path class="st1" d="M869.4,551.4v-4.3c0-0.6-0.1-1-0.3-1.3c-0.2-0.3-0.5-0.4-1-0.4c-0.5,0-1,0.3-1.3,0.7c-0.4,0.5-0.4,1-0.4,1.8
		v3.6h-1.8v-7.5h1.7v1.1c0.5-0.8,1.4-1.2,2.5-1.2c0.9,0,1.5,0.3,1.9,0.9c0.3,0.5,0.4,1,0.4,2v4.7H869.4z"/>
	<path class="st1" d="M876.5,551.3c-0.4,0.1-0.9,0.2-1.3,0.2c-0.7,0-1.2-0.2-1.5-0.5c-0.3-0.4-0.4-0.9-0.4-1.6v-4.1h-1.2v-1.4h1.2
		v-2.4h1.7v2.4h1.5v1.4H875v3.7c0,0.8,0.2,1,0.8,1c0.2,0,0.5,0,0.7-0.1V551.3z"/>
</g>
<g class="st0">
	<path class="st1" d="M816.8,561.9v1.1c0.5-0.7,1.2-1.2,2.3-1.2c1.7,0,3,1.3,3,3.9c0,2.4-1.4,3.9-3.1,3.9c-1.1,0-1.7-0.4-2.1-1v3.8
		h-1.7v-10.4H816.8z M818.5,568c1,0,1.7-0.8,1.7-2.4c0-1.5-0.6-2.5-1.6-2.5s-1.8,0.8-1.8,2.4C816.8,567.1,817.4,568,818.5,568z"/>
	<path class="st1" d="M823.4,569.4v-7.5h1.7v1.2c0.5-0.8,1-1.2,2.1-1.2c0.2,0,0.4,0,0.6,0.1v1.8c-0.3-0.1-0.5-0.2-0.8-0.2
		c-0.6,0-1.1,0.3-1.4,0.7c-0.3,0.4-0.4,0.9-0.4,1.7v3.5H823.4z"/>
	<path class="st1" d="M832.1,569.6c-2.3,0-3.7-1.5-3.7-4c0-2.5,1.5-3.9,3.8-3.9c2.2,0,3.6,1.5,3.6,4
		C835.7,568.2,834.3,569.6,832.1,569.6z M832.1,563.1c-1.1,0-1.9,0.9-1.9,2.4c0,1.7,0.8,2.5,1.9,2.5c1.1,0,1.9-0.8,1.9-2.4
		C834,564,833.2,563.1,832.1,563.1z"/>
	<path class="st1" d="M842,569.4v-1c-0.5,0.7-1.2,1.2-2.2,1.2c-1.7,0-3-1.3-3-3.9c0-2.4,1.4-3.9,3.1-3.9c1.1,0,1.7,0.4,2.1,1v-3.9
		h1.7v10.6H842z M840.3,563.2c-1,0-1.7,0.8-1.7,2.4c0,1.5,0.6,2.5,1.7,2.5c1,0,1.8-0.8,1.8-2.4C842,564.1,841.3,563.2,840.3,563.2z"
		/>
	<path class="st1" d="M847.2,561.9v4.3c0,0.5,0.1,0.9,0.2,1.2c0.2,0.4,0.6,0.6,1.1,0.6c0.5,0,0.9-0.3,1.2-0.6
		c0.3-0.4,0.5-0.9,0.5-1.6v-3.9h1.8v7.5h-1.7v-1.1c-0.5,0.7-1.3,1.2-2.3,1.2c-1,0-1.5-0.3-2-0.9c-0.3-0.5-0.5-1.1-0.5-2v-4.7H847.2z
		"/>
	<path class="st1" d="M858.4,564.5c-0.2-1-0.8-1.3-1.5-1.3c-1,0-1.8,0.8-1.8,2.4c0,1.7,0.7,2.5,1.8,2.5c0.8,0,1.3-0.4,1.5-1.2
		l1.6,0.5c-0.4,1.2-1.4,2.1-3.1,2.1c-2.2,0-3.6-1.5-3.6-4c0-2.4,1.4-3.9,3.6-3.9c1.6,0,2.6,0.9,3,2.2L858.4,564.5z"/>
	<path class="st1" d="M864.8,569.3c-0.4,0.1-0.9,0.2-1.3,0.2c-0.7,0-1.2-0.2-1.5-0.5c-0.3-0.4-0.4-0.9-0.4-1.6v-4.1h-1.2v-1.4h1.2
		v-2.4h1.7v2.4h1.5v1.4h-1.5v3.7c0,0.8,0.2,1,0.8,1c0.2,0,0.5,0,0.7-0.1V569.3z"/>
	<path class="st1" d="M866.5,567c0.4,0.8,1.1,1.2,1.9,1.2c0.8,0,1.2-0.3,1.2-0.8c0-0.5-0.3-0.7-1.4-1.1l-0.8-0.3
		c-1.2-0.4-1.9-1-1.9-2.2c0-1.2,1.1-2.2,2.9-2.2c1.2,0,2.3,0.5,2.9,1.5l-1.3,0.9c-0.4-0.7-0.9-1-1.7-1c-0.8,0-1.1,0.3-1.1,0.7
		c0,0.4,0.2,0.7,1.2,1l0.8,0.2c1.3,0.4,2.1,1,2.1,2.2c0,1.4-1.2,2.4-3,2.4c-1.5,0-2.6-0.7-3.2-1.7L866.5,567z"/>
</g>
<g class="st0">
	<path class="st1" d="M916.2,541.8c2.3,3.9,3.7,6,4.7,7.8c-0.1-1.6-0.1-3.8-0.1-7.8h1.9v10.6h-2.1c-2.2-3.6-3.6-5.9-4.7-7.8
		c0,0.9,0.1,3,0.1,7.8h-1.9v-10.6H916.2z"/>
	<path class="st1" d="M924.2,552.4v-1.4l5.8-7.5h-5.5v-1.6h7.9v1.5l-5.7,7.5h5.7v1.6H924.2z"/>
	<path class="st1" d="M933.3,552.4v-1.4l5.8-7.5h-5.5v-1.6h7.9v1.5l-5.7,7.5h5.7v1.6H933.3z"/>
	<path class="st1" d="M949.5,552.6c-2.3,0-3.7-1.5-3.7-4c0-2.5,1.5-3.9,3.8-3.9c2.2,0,3.6,1.5,3.6,4
		C953.2,551.2,951.7,552.6,949.5,552.6z M949.6,546.1c-1.1,0-1.9,0.9-1.9,2.4c0,1.7,0.8,2.5,1.9,2.5s1.9-0.8,1.9-2.4
		C951.4,547,950.7,546.1,949.6,546.1z"/>
	<path class="st1" d="M959.4,552.4v-4.3c0-0.6-0.1-1-0.3-1.3c-0.2-0.3-0.5-0.4-1-0.4c-0.5,0-1,0.3-1.3,0.7c-0.4,0.5-0.4,1-0.4,1.8
		v3.6h-1.8v-7.5h1.7v1.1c0.5-0.8,1.4-1.2,2.5-1.2c0.9,0,1.5,0.3,1.9,0.9c0.3,0.5,0.4,1,0.4,2v4.7H959.4z"/>
	<path class="st1" d="M964.6,552.4h-1.8v-10.6h1.8V552.4z"/>
	<path class="st1" d="M966.4,543.4v-1.7h1.8v1.7H966.4z M968.2,552.4h-1.8v-7.5h1.8V552.4z"/>
	<path class="st1" d="M974.8,552.4v-4.3c0-0.6-0.1-1-0.3-1.3c-0.2-0.3-0.5-0.4-1-0.4c-0.5,0-1,0.3-1.3,0.7c-0.4,0.5-0.4,1-0.4,1.8
		v3.6h-1.8v-7.5h1.7v1.1c0.5-0.8,1.4-1.2,2.5-1.2c0.9,0,1.5,0.3,1.9,0.9c0.3,0.5,0.4,1,0.4,2v4.7H974.8z"/>
	<path class="st1" d="M984.8,550.5c-0.6,1.3-1.7,2.1-3.3,2.1c-2.4,0-3.7-1.6-3.7-4c0-2.4,1.4-3.9,3.6-3.9c2.4,0,3.4,1.7,3.4,4.4
		h-5.2c0.1,1.3,0.8,2,2,2c0.8,0,1.4-0.3,1.7-1.2L984.8,550.5z M983.1,547.8c-0.1-1.2-0.7-1.8-1.6-1.8s-1.7,0.6-1.8,1.8H983.1z"/>
</g>
<g class="st0">
	<path class="st1" d="M915.8,562.9v1.1c0.5-0.7,1.2-1.2,2.3-1.2c1.7,0,3,1.3,3,3.9c0,2.4-1.4,3.9-3.1,3.9c-1.1,0-1.7-0.4-2.1-1v3.8
		h-1.7v-10.4H915.8z M917.5,569c1,0,1.7-0.8,1.7-2.4c0-1.5-0.6-2.5-1.6-2.5s-1.8,0.8-1.8,2.4C915.8,568.1,916.4,569,917.5,569z"/>
	<path class="st1" d="M922.4,570.4v-7.5h1.7v1.2c0.5-0.8,1-1.2,2.1-1.2c0.2,0,0.4,0,0.6,0.1v1.8c-0.3-0.1-0.5-0.2-0.8-0.2
		c-0.6,0-1.1,0.3-1.4,0.7c-0.3,0.4-0.4,0.9-0.4,1.7v3.5H922.4z"/>
	<path class="st1" d="M931.1,570.6c-2.3,0-3.7-1.5-3.7-4c0-2.5,1.5-3.9,3.8-3.9c2.2,0,3.6,1.5,3.6,4
		C934.7,569.2,933.3,570.6,931.1,570.6z M931.1,564.1c-1.1,0-1.9,0.9-1.9,2.4c0,1.7,0.8,2.5,1.9,2.5c1.1,0,1.9-0.8,1.9-2.4
		C933,565,932.2,564.1,931.1,564.1z"/>
	<path class="st1" d="M941,570.4v-1c-0.5,0.7-1.2,1.2-2.2,1.2c-1.7,0-3-1.3-3-3.9c0-2.4,1.4-3.9,3.1-3.9c1.1,0,1.7,0.4,2.1,1v-3.9
		h1.7v10.6H941z M939.3,564.2c-1,0-1.7,0.8-1.7,2.4c0,1.5,0.6,2.5,1.7,2.5c1,0,1.8-0.8,1.8-2.4C941,565.1,940.3,564.2,939.3,564.2z"
		/>
	<path class="st1" d="M946.2,562.9v4.3c0,0.5,0.1,0.9,0.2,1.2c0.2,0.4,0.6,0.6,1.1,0.6c0.5,0,0.9-0.3,1.2-0.6
		c0.3-0.4,0.5-0.9,0.5-1.6v-3.9h1.8v7.5h-1.7v-1.1c-0.5,0.7-1.3,1.2-2.3,1.2c-1,0-1.5-0.3-2-0.9c-0.3-0.5-0.5-1.1-0.5-2v-4.7H946.2z
		"/>
	<path class="st1" d="M957.4,565.5c-0.2-1-0.8-1.3-1.5-1.3c-1,0-1.8,0.8-1.8,2.4c0,1.7,0.7,2.5,1.8,2.5c0.8,0,1.3-0.4,1.5-1.2
		l1.6,0.5c-0.4,1.2-1.4,2.1-3.1,2.1c-2.2,0-3.6-1.5-3.6-4c0-2.4,1.4-3.9,3.6-3.9c1.6,0,2.6,0.9,3,2.2L957.4,565.5z"/>
	<path class="st1" d="M963.8,570.3c-0.4,0.1-0.9,0.2-1.3,0.2c-0.7,0-1.2-0.2-1.5-0.5c-0.3-0.4-0.4-0.9-0.4-1.6v-4.1h-1.2v-1.4h1.2
		v-2.4h1.7v2.4h1.5v1.4h-1.5v3.7c0,0.8,0.2,1,0.8,1c0.2,0,0.5,0,0.7-0.1V570.3z"/>
	<path class="st1" d="M965.5,568c0.4,0.8,1.1,1.2,1.9,1.2c0.8,0,1.2-0.3,1.2-0.8c0-0.5-0.3-0.7-1.4-1.1l-0.8-0.3
		c-1.2-0.4-1.9-1-1.9-2.2c0-1.2,1.1-2.2,2.9-2.2c1.2,0,2.3,0.5,2.9,1.5l-1.3,0.9c-0.4-0.7-0.9-1-1.7-1c-0.8,0-1.1,0.3-1.1,0.7
		c0,0.4,0.2,0.7,1.2,1l0.8,0.2c1.3,0.4,2.1,1,2.1,2.2c0,1.4-1.2,2.4-3,2.4c-1.5,0-2.6-0.7-3.2-1.7L965.5,568z"/>
</g>
<g class="st0">
	<path class="st1" d="M192.1,310.4v-10.6h1.9v8.9h5v1.7H192.1z"/>
	<path class="st1" d="M200.3,301.4v-1.7h1.8v1.7H200.3z M202.1,310.4h-1.8v-7.5h1.8V310.4z"/>
	<path class="st1" d="M205.7,310.4l-2.7-7.5h1.9c0.9,2.5,1.4,4.1,1.8,5.7c0.4-1.5,0.9-3.1,1.8-5.7h1.9l-2.7,7.5H205.7z"/>
	<path class="st1" d="M211.4,301.4v-1.7h1.8v1.7H211.4z M213.1,310.4h-1.8v-7.5h1.8V310.4z"/>
	<path class="st1" d="M219.7,310.4v-4.3c0-0.6-0.1-1-0.3-1.3c-0.2-0.3-0.5-0.4-1-0.4s-1,0.3-1.3,0.7c-0.4,0.5-0.4,1-0.4,1.8v3.6H215
		v-7.5h1.7v1.1c0.5-0.8,1.4-1.2,2.5-1.2c0.9,0,1.5,0.3,1.9,0.9c0.3,0.5,0.4,1,0.4,2v4.7H219.7z"/>
	<path class="st1" d="M228,309.3c-0.5,0.6-1.2,1-2.2,1c-1.8,0-3-1.4-3-3.8c0-2.3,1.3-3.8,3.1-3.8c1,0,1.8,0.4,2.2,1v-0.9h1.7v7
		c0,1.5-0.4,2.5-1.2,3.1c-0.6,0.4-1.4,0.6-2.4,0.6c-1.8,0-3-0.8-3.3-2.3l1.8-0.3c0.1,0.8,0.7,1.2,1.5,1.2c0.7,0,1.2-0.2,1.4-0.6
		c0.2-0.3,0.3-0.8,0.3-1.5V309.3z M226.4,304.2c-1.1,0-1.8,0.8-1.8,2.3c0,1.5,0.7,2.4,1.7,2.4c1,0,1.7-0.7,1.7-2.2
		C228,305.2,227.5,304.2,226.4,304.2z"/>
	<path class="st1" d="M236.5,310.4v-1c-0.5,0.7-1.2,1.2-2.2,1.2c-1.7,0-3-1.3-3-3.9c0-2.4,1.4-3.9,3.1-3.9c1.1,0,1.7,0.4,2.1,1v-3.9
		h1.7v10.6H236.5z M234.8,304.2c-1,0-1.7,0.8-1.7,2.4c0,1.5,0.6,2.5,1.7,2.5c1,0,1.8-0.8,1.8-2.4
		C236.5,305.1,235.8,304.2,234.8,304.2z"/>
	<path class="st1" d="M243.3,310.6c-2.3,0-3.7-1.5-3.7-4c0-2.5,1.5-3.9,3.8-3.9c2.2,0,3.6,1.5,3.6,4
		C246.9,309.2,245.5,310.6,243.3,310.6z M243.3,304.1c-1.1,0-1.9,0.9-1.9,2.4c0,1.7,0.8,2.5,1.9,2.5c1.1,0,1.9-0.8,1.9-2.4
		C245.2,305,244.4,304.1,243.3,304.1z"/>
	<path class="st1" d="M253,305.5c-0.2-1-0.8-1.3-1.5-1.3c-1,0-1.8,0.8-1.8,2.4c0,1.7,0.7,2.5,1.8,2.5c0.8,0,1.3-0.4,1.5-1.2l1.6,0.5
		c-0.4,1.2-1.4,2.1-3.1,2.1c-2.2,0-3.6-1.5-3.6-4c0-2.4,1.4-3.9,3.6-3.9c1.6,0,2.6,0.9,3,2.2L253,305.5z"/>
	<path class="st1" d="M256.4,308c0.4,0.8,1.1,1.2,1.9,1.2c0.8,0,1.2-0.3,1.2-0.8c0-0.5-0.3-0.7-1.4-1.1l-0.8-0.3
		c-1.2-0.4-1.9-1-1.9-2.2c0-1.2,1.1-2.2,2.9-2.2c1.2,0,2.3,0.5,2.9,1.5l-1.3,0.9c-0.4-0.7-0.9-1-1.7-1c-0.8,0-1.1,0.3-1.1,0.7
		c0,0.4,0.2,0.7,1.2,1l0.8,0.2c1.3,0.4,2.1,1,2.1,2.2c0,1.4-1.2,2.4-3,2.4c-1.5,0-2.6-0.7-3.2-1.7L256.4,308z"/>
</g>
<g class="st0">
	<path class="st1" d="M192.1,328.4v-10.6h7.4v1.6H194v2.7h5v1.6h-5v3h5.7v1.7H192.1z"/>
	<path class="st1" d="M205.7,328.4v-1c-0.5,0.7-1.2,1.2-2.2,1.2c-1.7,0-3-1.3-3-3.9c0-2.4,1.4-3.9,3.1-3.9c1.1,0,1.7,0.4,2.1,1v-3.9
		h1.7v10.6H205.7z M204,322.2c-1,0-1.7,0.8-1.7,2.4c0,1.5,0.6,2.5,1.7,2.5c1,0,1.8-0.8,1.8-2.4C205.7,323.1,205.1,322.2,204,322.2z"
		/>
	<path class="st1" d="M209.2,319.4v-1.7h1.8v1.7H209.2z M211,328.4h-1.8v-7.5h1.8V328.4z"/>
	<path class="st1" d="M216.5,328.3c-0.4,0.1-0.9,0.2-1.3,0.2c-0.7,0-1.2-0.2-1.5-0.5c-0.3-0.4-0.4-0.9-0.4-1.6v-4.1h-1.2v-1.4h1.2
		v-2.4h1.7v2.4h1.5v1.4H215v3.7c0,0.8,0.2,1,0.8,1c0.2,0,0.5,0,0.7-0.1V328.3z"/>
	<path class="st1" d="M220.8,328.6c-2.3,0-3.7-1.5-3.7-4c0-2.5,1.5-3.9,3.8-3.9c2.2,0,3.6,1.5,3.6,4
		C224.5,327.2,223,328.6,220.8,328.6z M220.9,322.1c-1.1,0-1.9,0.9-1.9,2.4c0,1.7,0.8,2.5,1.9,2.5c1.1,0,1.9-0.8,1.9-2.4
		C222.7,323,222,322.1,220.9,322.1z"/>
	<path class="st1" d="M225.9,328.4v-7.5h1.7v1.2c0.5-0.8,1-1.2,2.1-1.2c0.2,0,0.4,0,0.6,0.1v1.8c-0.3-0.1-0.5-0.2-0.8-0.2
		c-0.6,0-1.1,0.3-1.4,0.7c-0.3,0.4-0.4,0.9-0.4,1.7v3.5H225.9z"/>
</g>
<g class="st0">
	<path class="st1" d="M492.1,115.8h3.3c1.9,0,2.7,0.1,3.5,0.5c1.5,0.7,2.1,2.5,2.1,4.7c0,1.7-0.5,3.2-1.4,4.1c-1,1-2.2,1.3-4.4,1.3
		h-3.1V115.8z M495.4,124.7c1.4,0,2.3-0.3,2.9-0.9c0.6-0.6,0.8-1.6,0.8-2.9c0-1.1-0.2-2.1-0.8-2.7c-0.5-0.5-1.1-0.8-2.6-0.8H494v7.3
		H495.4z"/>
	<path class="st1" d="M509.1,124.5c-0.6,1.3-1.7,2.1-3.3,2.1c-2.4,0-3.7-1.6-3.7-4c0-2.4,1.4-3.9,3.6-3.9c2.4,0,3.4,1.7,3.4,4.4
		h-5.2c0.1,1.3,0.8,2,2,2c0.8,0,1.4-0.3,1.7-1.2L509.1,124.5z M507.3,121.8c-0.1-1.2-0.7-1.8-1.6-1.8s-1.7,0.6-1.8,1.8H507.3z"/>
	<path class="st1" d="M511.2,124c0.4,0.8,1.1,1.2,1.9,1.2c0.8,0,1.2-0.3,1.2-0.8c0-0.5-0.3-0.7-1.4-1.1l-0.8-0.3
		c-1.2-0.4-1.9-1-1.9-2.2c0-1.2,1.1-2.2,2.9-2.2c1.2,0,2.3,0.5,2.9,1.5l-1.3,0.9c-0.4-0.7-0.9-1-1.7-1c-0.8,0-1.1,0.3-1.1,0.7
		c0,0.4,0.2,0.7,1.2,1l0.8,0.2c1.3,0.4,2.1,1,2.1,2.2c0,1.4-1.2,2.4-3,2.4c-1.5,0-2.6-0.7-3.2-1.7L511.2,124z"/>
	<path class="st1" d="M522.3,126.4l-2.1-3.4l-1.1,1.2v2.2h-1.8v-10.6h1.8v6.3l2.8-3.2h2.1l-2.6,2.8l2.9,4.6H522.3z"/>
	<path class="st1" d="M524.3,122.5v-1.4h4.3v1.4H524.3z"/>
	<path class="st1" d="M532.4,115.8c2.3,3.9,3.7,6,4.7,7.8c-0.1-1.6-0.1-3.8-0.1-7.8h1.9v10.6h-2.1c-2.2-3.6-3.6-5.9-4.7-7.8
		c0,0.9,0.1,3,0.1,7.8h-1.9v-10.6H532.4z"/>
	<path class="st1" d="M547.3,124.5c-0.6,1.3-1.7,2.1-3.3,2.1c-2.4,0-3.7-1.6-3.7-4c0-2.4,1.4-3.9,3.6-3.9c2.4,0,3.4,1.7,3.4,4.4
		h-5.2c0.1,1.3,0.8,2,2,2c0.8,0,1.4-0.3,1.7-1.2L547.3,124.5z M545.6,121.8c-0.1-1.2-0.7-1.8-1.6-1.8s-1.7,0.6-1.8,1.8H545.6z"/>
	<path class="st1" d="M552.3,126.3c-0.4,0.1-0.9,0.2-1.3,0.2c-0.7,0-1.2-0.2-1.5-0.5c-0.3-0.4-0.4-0.9-0.4-1.6v-4.1h-1.2v-1.4h1.2
		v-2.4h1.7v2.4h1.5v1.4h-1.5v3.7c0,0.8,0.2,1,0.8,1c0.2,0,0.5,0,0.7-0.1V126.3z"/>
</g>
<g class="st0">
	<path class="st1" d="M798.9,119.1c-0.3-1.2-1-1.9-2.2-1.9c-1.9,0-3,1.4-3,3.7c0,2.4,1.1,4,3,4c1.2,0,2.1-0.7,2.4-2l1.8,0.7
		c-0.7,2-2.2,3-4.3,3c-3,0-4.9-2.1-4.9-5.6c0-3.5,2-5.5,5-5.5c2.1,0,3.5,1.1,4,2.9L798.9,119.1z"/>
	<path class="st1" d="M806.8,126.4v-4.3c0-0.6-0.1-1.1-0.3-1.4c-0.2-0.3-0.5-0.4-1-0.4c-0.5,0-1,0.3-1.3,0.7c-0.4,0.5-0.4,1-0.4,1.8
		v3.6h-1.8v-10.6h1.7v4.2c0.5-0.8,1.4-1.2,2.5-1.2c0.9,0,1.5,0.3,1.8,0.8c0.3,0.5,0.5,1,0.5,2.2v4.6H806.8z"/>
	<path class="st1" d="M814.6,121.3c0-0.4-0.1-0.7-0.3-0.9c-0.2-0.2-0.6-0.3-1-0.3c-0.9,0-1.3,0.5-1.4,1.3l-1.7-0.1
		c0.1-1.6,1.3-2.5,3.2-2.5c1,0,1.7,0.2,2.2,0.7c0.5,0.4,0.6,1,0.6,2.2v2.7c0,0.9,0.1,1.6,0.2,2h-1.7c-0.1-0.2-0.2-0.7-0.2-0.9
		c-0.6,0.7-1.4,1.1-2.4,1.1c-1.4,0-2.3-0.9-2.3-2.2c0-1,0.5-1.6,1.4-2c0.7-0.3,2.2-0.5,3.4-0.6V121.3z M814.6,122.9
		c-0.9,0-1.9,0.2-2.4,0.5c-0.5,0.2-0.6,0.5-0.6,0.9c0,0.5,0.4,0.9,1.1,0.9c0.7,0,1.2-0.3,1.6-0.8c0.2-0.3,0.3-0.8,0.3-1.2V122.9z"/>
	<path class="st1" d="M818,126.4v-7.5h1.7v1.2c0.5-0.8,1-1.2,2.1-1.2c0.2,0,0.4,0,0.6,0.1v1.8c-0.3-0.1-0.5-0.2-0.8-0.2
		c-0.6,0-1.1,0.3-1.4,0.7c-0.3,0.4-0.4,0.9-0.4,1.7v3.5H818z"/>
	<path class="st1" d="M827.2,126.3c-0.4,0.1-0.9,0.2-1.3,0.2c-0.7,0-1.2-0.2-1.5-0.5c-0.3-0.4-0.4-0.9-0.4-1.6v-4.1h-1.2v-1.4h1.2
		v-2.4h1.7v2.4h1.5v1.4h-1.5v3.7c0,0.8,0.2,1,0.8,1c0.2,0,0.5,0,0.7-0.1V126.3z"/>
	<path class="st1" d="M830,115.8v4.1c0.5-0.6,1.3-1.2,2.3-1.2c1.8,0,2.9,1.5,2.9,3.9c0,2.4-1.2,3.9-3.1,3.9c-1,0-1.7-0.4-2.2-1.1v1
		h-1.7v-10.6H830z M831.7,125c1,0,1.7-0.8,1.7-2.4c0-1.5-0.6-2.4-1.6-2.4c-1.1,0-1.8,0.9-1.8,2.3C830,124.1,830.6,125,831.7,125z"/>
	<path class="st1" d="M843.2,124.5c-0.6,1.3-1.7,2.1-3.3,2.1c-2.4,0-3.7-1.6-3.7-4c0-2.4,1.4-3.9,3.6-3.9c2.4,0,3.4,1.7,3.4,4.4H838
		c0.1,1.3,0.8,2,2,2c0.8,0,1.4-0.3,1.7-1.2L843.2,124.5z M841.5,121.8c-0.1-1.2-0.7-1.8-1.6-1.8s-1.7,0.6-1.8,1.8H841.5z"/>
	<path class="st1" d="M848.9,121.3c0-0.4-0.1-0.7-0.3-0.9c-0.2-0.2-0.6-0.3-1-0.3c-0.9,0-1.3,0.5-1.4,1.3l-1.7-0.1
		c0.1-1.6,1.3-2.5,3.2-2.5c1,0,1.7,0.2,2.2,0.7c0.5,0.4,0.6,1,0.6,2.2v2.7c0,0.9,0.1,1.6,0.2,2h-1.7c-0.1-0.2-0.2-0.7-0.2-0.9
		c-0.6,0.7-1.4,1.1-2.4,1.1c-1.4,0-2.3-0.9-2.3-2.2c0-1,0.5-1.6,1.4-2c0.7-0.3,2.2-0.5,3.4-0.6V121.3z M848.9,122.9
		c-0.9,0-1.9,0.2-2.4,0.5c-0.5,0.2-0.6,0.5-0.6,0.9c0,0.5,0.4,0.9,1.1,0.9c0.7,0,1.2-0.3,1.6-0.8c0.2-0.3,0.3-0.8,0.3-1.2V122.9z"/>
	<path class="st1" d="M856,126.3c-0.4,0.1-0.9,0.2-1.3,0.2c-0.7,0-1.2-0.2-1.5-0.5c-0.3-0.4-0.4-0.9-0.4-1.6v-4.1h-1.2v-1.4h1.2
		v-2.4h1.7v2.4h1.5v1.4h-1.5v3.7c0,0.8,0.2,1,0.8,1c0.2,0,0.5,0,0.7-0.1V126.3z"/>
</g>
<g class="st0">
	<path class="st1" d="M493.1,310.4v-10.6h1.9v8.9h5v1.7H493.1z"/>
	<path class="st1" d="M501.3,301.4v-1.7h1.8v1.7H501.3z M503.1,310.4h-1.8v-7.5h1.8V310.4z"/>
	<path class="st1" d="M506.7,310.4l-2.7-7.5h1.9c0.9,2.5,1.4,4.1,1.8,5.7c0.4-1.5,0.9-3.1,1.8-5.7h1.9l-2.7,7.5H506.7z"/>
	<path class="st1" d="M512.4,301.4v-1.7h1.8v1.7H512.4z M514.1,310.4h-1.8v-7.5h1.8V310.4z"/>
	<path class="st1" d="M520.7,310.4v-4.3c0-0.6-0.1-1-0.3-1.3c-0.2-0.3-0.5-0.4-1-0.4s-1,0.3-1.3,0.7c-0.4,0.5-0.4,1-0.4,1.8v3.6H516
		v-7.5h1.7v1.1c0.5-0.8,1.4-1.2,2.5-1.2c0.9,0,1.5,0.3,1.9,0.9c0.3,0.5,0.4,1,0.4,2v4.7H520.7z"/>
	<path class="st1" d="M529,309.3c-0.5,0.6-1.2,1-2.2,1c-1.8,0-3-1.4-3-3.8c0-2.3,1.3-3.8,3.1-3.8c1,0,1.8,0.4,2.2,1v-0.9h1.7v7
		c0,1.5-0.4,2.5-1.2,3.1c-0.6,0.4-1.4,0.6-2.4,0.6c-1.8,0-3-0.8-3.3-2.3l1.8-0.3c0.1,0.8,0.7,1.2,1.5,1.2c0.7,0,1.2-0.2,1.4-0.6
		c0.2-0.3,0.3-0.8,0.3-1.5V309.3z M527.4,304.2c-1.1,0-1.8,0.8-1.8,2.3c0,1.5,0.7,2.4,1.7,2.4c1,0,1.7-0.7,1.7-2.2
		C529,305.2,528.5,304.2,527.4,304.2z"/>
	<path class="st1" d="M537.5,310.4v-1c-0.5,0.7-1.2,1.2-2.2,1.2c-1.7,0-3-1.3-3-3.9c0-2.4,1.4-3.9,3.1-3.9c1.1,0,1.7,0.4,2.1,1v-3.9
		h1.7v10.6H537.5z M535.8,304.2c-1,0-1.7,0.8-1.7,2.4c0,1.5,0.6,2.5,1.7,2.5c1,0,1.8-0.8,1.8-2.4
		C537.5,305.1,536.8,304.2,535.8,304.2z"/>
	<path class="st1" d="M544.3,310.6c-2.3,0-3.7-1.5-3.7-4c0-2.5,1.5-3.9,3.8-3.9c2.2,0,3.6,1.5,3.6,4
		C547.9,309.2,546.5,310.6,544.3,310.6z M544.3,304.1c-1.1,0-1.9,0.9-1.9,2.4c0,1.7,0.8,2.5,1.9,2.5c1.1,0,1.9-0.8,1.9-2.4
		C546.2,305,545.4,304.1,544.3,304.1z"/>
	<path class="st1" d="M554,305.5c-0.2-1-0.8-1.3-1.5-1.3c-1,0-1.8,0.8-1.8,2.4c0,1.7,0.7,2.5,1.8,2.5c0.8,0,1.3-0.4,1.5-1.2l1.6,0.5
		c-0.4,1.2-1.4,2.1-3.1,2.1c-2.2,0-3.6-1.5-3.6-4c0-2.4,1.4-3.9,3.6-3.9c1.6,0,2.6,0.9,3,2.2L554,305.5z"/>
	<path class="st1" d="M557.4,308c0.4,0.8,1.1,1.2,1.9,1.2c0.8,0,1.2-0.3,1.2-0.8c0-0.5-0.3-0.7-1.4-1.1l-0.8-0.3
		c-1.2-0.4-1.9-1-1.9-2.2c0-1.2,1.1-2.2,2.9-2.2c1.2,0,2.3,0.5,2.9,1.5l-1.3,0.9c-0.4-0.7-0.9-1-1.7-1c-0.8,0-1.1,0.3-1.1,0.7
		c0,0.4,0.2,0.7,1.2,1l0.8,0.2c1.3,0.4,2.1,1,2.1,2.2c0,1.4-1.2,2.4-3,2.4c-1.5,0-2.6-0.7-3.2-1.7L557.4,308z"/>
</g>
<g class="st0">
	<path class="st1" d="M493.9,325.1c0.6,1.3,1.6,1.9,2.8,1.9c1.3,0,2-0.5,2-1.3c0-0.8-0.5-1-2-1.6l-1.1-0.4c-1.8-0.6-2.6-1.5-2.6-3
		c0-1.8,1.6-3.1,3.8-3.1c1.8,0,3.2,0.8,4,2.2l-1.5,1.1c-0.7-1.2-1.6-1.6-2.7-1.6c-1.1,0-1.6,0.5-1.6,1.2c0,0.7,0.4,1,1.8,1.5
		l1.2,0.4c2,0.6,2.9,1.5,2.9,3.1c0,1.9-1.6,3.2-4,3.2c-1.9,0-3.5-0.9-4.3-2.4L493.9,325.1z"/>
	<path class="st1" d="M508.7,326.5c-0.6,1.3-1.7,2.1-3.3,2.1c-2.4,0-3.7-1.6-3.7-4c0-2.4,1.4-3.9,3.6-3.9c2.4,0,3.4,1.7,3.4,4.4
		h-5.2c0.1,1.3,0.8,2,2,2c0.8,0,1.4-0.3,1.7-1.2L508.7,326.5z M507,323.8c-0.1-1.2-0.7-1.8-1.6-1.8s-1.7,0.6-1.8,1.8H507z"/>
	<path class="st1" d="M510.1,328.4v-7.5h1.7v1.2c0.5-0.8,1-1.2,2.1-1.2c0.2,0,0.4,0,0.6,0.1v1.8c-0.3-0.1-0.5-0.2-0.8-0.2
		c-0.6,0-1.1,0.3-1.4,0.7c-0.3,0.4-0.4,0.9-0.4,1.7v3.5H510.1z"/>
	<path class="st1" d="M517.5,328.4l-2.7-7.5h1.9c0.9,2.5,1.4,4.1,1.8,5.7c0.4-1.5,0.9-3.1,1.8-5.7h1.9l-2.7,7.5H517.5z"/>
	<path class="st1" d="M529.5,326.5c-0.6,1.3-1.7,2.1-3.3,2.1c-2.4,0-3.7-1.6-3.7-4c0-2.4,1.4-3.9,3.6-3.9c2.4,0,3.4,1.7,3.4,4.4
		h-5.2c0.1,1.3,0.8,2,2,2c0.8,0,1.4-0.3,1.7-1.2L529.5,326.5z M527.8,323.8c-0.1-1.2-0.7-1.8-1.6-1.8s-1.7,0.6-1.8,1.8H527.8z"/>
	<path class="st1" d="M530.9,328.4v-7.5h1.7v1.2c0.5-0.8,1-1.2,2.1-1.2c0.2,0,0.4,0,0.6,0.1v1.8c-0.3-0.1-0.5-0.2-0.8-0.2
		c-0.6,0-1.1,0.3-1.4,0.7c-0.3,0.4-0.4,0.9-0.4,1.7v3.5H530.9z"/>
</g>
<g class="st0">
	<path class="st1" d="M344.1,581.4c-1.2-4.6-1.6-6.1-2-8c-0.5,1.9-0.8,3.4-2.2,8h-2l-2.8-10.6h2c0.7,3,1.3,5.4,1.9,8.2
		c0.5-2.2,0.9-4,2-8.2h1.9c0.8,3.2,1.6,6,2.1,8.2c0.2-1.2,0.7-3.6,1.8-8.2h2l-2.8,10.6H344.1z"/>
	<path class="st1" d="M352.4,581.6c-2.3,0-3.7-1.5-3.7-4c0-2.5,1.5-3.9,3.8-3.9c2.2,0,3.6,1.5,3.6,4
		C356,580.2,354.6,581.6,352.4,581.6z M352.4,575.1c-1.1,0-1.9,0.9-1.9,2.4c0,1.7,0.8,2.5,1.9,2.5c1.1,0,1.9-0.8,1.9-2.4
		C354.3,576,353.6,575.1,352.4,575.1z"/>
	<path class="st1" d="M360.7,581.6c-2.3,0-3.7-1.5-3.7-4c0-2.5,1.5-3.9,3.8-3.9c2.2,0,3.6,1.5,3.6,4
		C364.4,580.2,362.9,581.6,360.7,581.6z M360.8,575.1c-1.1,0-1.9,0.9-1.9,2.4c0,1.7,0.8,2.5,1.9,2.5c1.1,0,1.9-0.8,1.9-2.4
		C362.6,576,361.9,575.1,360.8,575.1z"/>
	<path class="st1" d="M370.6,581.4v-1c-0.5,0.7-1.2,1.2-2.2,1.2c-1.7,0-3-1.3-3-3.9c0-2.4,1.4-3.9,3.1-3.9c1.1,0,1.7,0.4,2.1,1v-3.9
		h1.7v10.6H370.6z M368.9,575.2c-1,0-1.7,0.8-1.7,2.4c0,1.5,0.6,2.5,1.7,2.5c1,0,1.8-0.8,1.8-2.4C370.6,576.1,370,575.2,368.9,575.2
		z"/>
	<path class="st1" d="M380.3,581.4c-0.5-2-1-3.8-1.3-5.5c-0.3,1.4-0.7,2.8-1.4,5.5h-2l-2.2-7.5h1.9c0.5,2,1.1,4.2,1.5,5.6
		c0.3-1.4,0.6-2.9,1.4-5.6h1.8c0.6,2.4,1,4,1.4,5.6c0.4-1.6,0.9-3.7,1.5-5.6h1.8l-2.3,7.5H380.3z"/>
	<path class="st1" d="M385.4,572.4v-1.7h1.8v1.7H385.4z M387.2,581.4h-1.8v-7.5h1.8V581.4z"/>
	<path class="st1" d="M393.8,581.4v-4.3c0-0.6-0.1-1-0.3-1.3c-0.2-0.3-0.5-0.4-1-0.4s-1,0.3-1.3,0.7c-0.4,0.5-0.4,1-0.4,1.8v3.6H389
		v-7.5h1.7v1.1c0.5-0.8,1.4-1.2,2.5-1.2c0.9,0,1.5,0.3,1.9,0.9c0.3,0.5,0.4,1,0.4,2v4.7H393.8z"/>
	<path class="st1" d="M402,580.3c-0.5,0.6-1.2,1-2.2,1c-1.8,0-3-1.4-3-3.8c0-2.3,1.3-3.8,3.1-3.8c1,0,1.8,0.4,2.2,1v-0.9h1.7v7
		c0,1.5-0.4,2.5-1.2,3.1c-0.6,0.4-1.4,0.6-2.4,0.6c-1.8,0-3-0.8-3.3-2.3l1.8-0.3c0.1,0.8,0.7,1.2,1.5,1.2c0.7,0,1.2-0.2,1.4-0.6
		c0.2-0.3,0.3-0.8,0.3-1.5V580.3z M400.5,575.2c-1.1,0-1.8,0.8-1.8,2.3c0,1.5,0.7,2.4,1.7,2.4c1,0,1.7-0.7,1.7-2.2
		C402.1,576.2,401.5,575.2,400.5,575.2z"/>
</g>
<g class="st0">
	<path class="st1" d="M198.8,581.4v-4.3c0-0.6-0.1-1.1-0.3-1.4c-0.2-0.3-0.5-0.4-1-0.4c-0.5,0-1,0.3-1.3,0.7c-0.4,0.5-0.4,1-0.4,1.8
		v3.6h-1.8v-10.6h1.7v4.2c0.5-0.8,1.4-1.2,2.5-1.2c0.9,0,1.5,0.3,1.8,0.8c0.3,0.5,0.4,1,0.4,2.2v4.6H198.8z"/>
	<path class="st1" d="M204,573.9v4.3c0,0.5,0.1,0.9,0.2,1.2c0.2,0.4,0.6,0.6,1.1,0.6c0.5,0,0.9-0.3,1.2-0.6c0.3-0.4,0.5-0.9,0.5-1.6
		v-3.9h1.8v7.5H207v-1.1c-0.5,0.7-1.3,1.2-2.3,1.2c-1,0-1.5-0.3-2-0.9c-0.3-0.5-0.5-1.1-0.5-2v-4.7H204z"/>
	<path class="st1" d="M217.9,581.4v-1.2c-0.7,0.9-1.8,1.4-3.1,1.4c-2.7,0-4.6-2.1-4.6-5.4c0-3.2,1.9-5.7,5.2-5.7
		c2.1,0,3.5,1,4.2,2.8l-1.9,0.7c-0.3-1.1-1.1-1.8-2.4-1.8c-2,0-3.2,1.5-3.2,3.9c0,2.5,1.3,3.8,3.1,3.8c1.7,0,2.5-1,2.6-2.8h-3v-1.6
		h4.7v5.8H217.9z"/>
	<path class="st1" d="M221.3,576c0-3.3,2-5.5,5-5.5c2.9,0,4.8,2.2,4.8,5.6c0,3.5-1.9,5.5-4.8,5.5C223.1,581.6,221.3,579.4,221.3,576
		z M226.2,572.2c-1.8,0-3,1.4-3,3.7c0,2.5,1.2,3.9,3,3.9c1.7,0,2.8-1.3,2.8-3.8C229.1,573.6,227.9,572.2,226.2,572.2z"/>
	<path class="st1" d="M236.5,580.9v-3.3h-3.3v-1.7h3.3v-3.4h1.8v3.4h3.3v1.7h-3.3v3.3H236.5z"/>
</g>
<g class="st0">
	<path class="st1" d="M793.1,310.4v-10.6h1.9v8.9h5v1.7H793.1z"/>
	<path class="st1" d="M801.3,301.4v-1.7h1.8v1.7H801.3z M803.1,310.4h-1.8v-7.5h1.8V310.4z"/>
	<path class="st1" d="M806.7,310.4l-2.7-7.5h2c0.9,2.5,1.4,4.1,1.8,5.7c0.4-1.5,0.9-3.1,1.8-5.7h1.9l-2.7,7.5H806.7z"/>
	<path class="st1" d="M812.4,301.4v-1.7h1.8v1.7H812.4z M814.1,310.4h-1.8v-7.5h1.8V310.4z"/>
	<path class="st1" d="M820.7,310.4v-4.3c0-0.6-0.1-1-0.3-1.3c-0.2-0.3-0.5-0.4-1-0.4c-0.5,0-1,0.3-1.3,0.7c-0.4,0.5-0.4,1-0.4,1.8
		v3.6H816v-7.5h1.7v1.1c0.5-0.8,1.4-1.2,2.5-1.2c0.9,0,1.5,0.3,1.9,0.9c0.3,0.5,0.4,1,0.4,2v4.7H820.7z"/>
	<path class="st1" d="M829,309.3c-0.5,0.6-1.2,1-2.2,1c-1.8,0-3-1.4-3-3.8c0-2.3,1.3-3.8,3.1-3.8c1,0,1.8,0.4,2.2,1v-0.9h1.7v7
		c0,1.5-0.4,2.5-1.2,3.1c-0.6,0.4-1.4,0.6-2.4,0.6c-1.8,0-3-0.8-3.3-2.3l1.8-0.3c0.1,0.8,0.7,1.2,1.5,1.2c0.7,0,1.2-0.2,1.4-0.6
		c0.2-0.3,0.3-0.8,0.3-1.5V309.3z M827.4,304.2c-1.1,0-1.8,0.8-1.8,2.3c0,1.5,0.7,2.4,1.7,2.4c1,0,1.7-0.7,1.7-2.2
		C829,305.2,828.5,304.2,827.4,304.2z"/>
	<path class="st1" d="M837.5,310.4v-1c-0.5,0.7-1.2,1.2-2.2,1.2c-1.7,0-3-1.3-3-3.9c0-2.4,1.4-3.9,3.1-3.9c1.1,0,1.7,0.4,2.1,1v-3.9
		h1.7v10.6H837.5z M835.8,304.2c-1,0-1.7,0.8-1.7,2.4c0,1.5,0.6,2.5,1.7,2.5c1,0,1.8-0.8,1.8-2.4
		C837.5,305.1,836.8,304.2,835.8,304.2z"/>
	<path class="st1" d="M844.3,310.6c-2.3,0-3.7-1.5-3.7-4c0-2.5,1.5-3.9,3.8-3.9c2.2,0,3.6,1.5,3.6,4
		C847.9,309.2,846.5,310.6,844.3,310.6z M844.3,304.1c-1.1,0-1.9,0.9-1.9,2.4c0,1.7,0.8,2.5,1.9,2.5c1.1,0,1.9-0.8,1.9-2.4
		C846.2,305,845.4,304.1,844.3,304.1z"/>
	<path class="st1" d="M854,305.5c-0.2-1-0.8-1.3-1.5-1.3c-1,0-1.8,0.8-1.8,2.4c0,1.7,0.7,2.5,1.8,2.5c0.8,0,1.3-0.4,1.5-1.2l1.6,0.5
		c-0.4,1.2-1.4,2.1-3.1,2.1c-2.2,0-3.6-1.5-3.6-4c0-2.4,1.4-3.9,3.6-3.9c1.6,0,2.6,0.9,3,2.2L854,305.5z"/>
	<path class="st1" d="M857.4,308c0.4,0.8,1.1,1.2,1.9,1.2c0.8,0,1.2-0.3,1.2-0.8c0-0.5-0.3-0.7-1.4-1.1l-0.8-0.3
		c-1.2-0.4-1.9-1-1.9-2.2c0-1.2,1-2.2,2.9-2.2c1.2,0,2.3,0.5,2.9,1.5l-1.3,0.9c-0.4-0.7-0.9-1-1.7-1c-0.8,0-1.1,0.3-1.1,0.7
		c0,0.4,0.2,0.7,1.2,1l0.8,0.2c1.3,0.4,2.1,1,2.1,2.2c0,1.4-1.2,2.4-3,2.4c-1.5,0-2.6-0.7-3.2-1.7L857.4,308z"/>
</g>
<g class="st0">
	<path class="st1" d="M793.1,328.4v-10.6h4.4c1.5,0,2.3,0.2,2.9,0.6c0.8,0.6,1.2,1.5,1.2,2.6c0,1.2-0.4,2.2-1.3,2.8
		c-0.8,0.4-1.9,0.6-3.2,0.6H795v4H793.1z M796.9,322.7c1,0,1.7-0.1,2.1-0.4c0.4-0.3,0.5-0.7,0.5-1.3c0-0.5-0.2-1-0.5-1.3
		c-0.4-0.3-0.9-0.4-2-0.4h-2v3.4H796.9z"/>
	<path class="st1" d="M804,320.9v4.3c0,0.5,0.1,0.9,0.2,1.2c0.2,0.4,0.6,0.6,1.1,0.6c0.5,0,0.9-0.3,1.2-0.6c0.3-0.4,0.5-0.9,0.5-1.6
		v-3.9h1.8v7.5H807v-1.1c-0.5,0.7-1.3,1.2-2.3,1.2c-1,0-1.5-0.3-2-0.9c-0.3-0.5-0.5-1.1-0.5-2v-4.7H804z"/>
	<path class="st1" d="M812.3,317.8v4.1c0.5-0.6,1.3-1.2,2.3-1.2c1.8,0,2.9,1.5,2.9,3.9c0,2.4-1.2,3.9-3.1,3.9c-1,0-1.7-0.4-2.2-1.1
		v1h-1.7v-10.6H812.3z M814,327c1,0,1.7-0.8,1.7-2.4c0-1.5-0.6-2.4-1.6-2.4c-1.1,0-1.8,0.9-1.8,2.3C812.2,326.1,812.9,327,814,327z"
		/>
	<path class="st1" d="M820.7,328.4h-1.8v-10.6h1.8V328.4z"/>
	<path class="st1" d="M822.5,319.4v-1.7h1.8v1.7H822.5z M824.3,328.4h-1.8v-7.5h1.8V328.4z"/>
	<path class="st1" d="M826.8,326c0.4,0.8,1.1,1.2,1.9,1.2c0.8,0,1.2-0.3,1.2-0.8c0-0.5-0.3-0.7-1.4-1.1l-0.8-0.3
		c-1.2-0.4-1.9-1-1.9-2.2c0-1.2,1.1-2.2,2.9-2.2c1.2,0,2.3,0.5,2.9,1.5l-1.3,0.9c-0.4-0.7-0.9-1-1.7-1c-0.8,0-1.1,0.3-1.1,0.7
		c0,0.4,0.2,0.7,1.2,1l0.8,0.2c1.3,0.4,2.1,1,2.1,2.2c0,1.4-1.2,2.4-3,2.4c-1.5,0-2.6-0.7-3.2-1.7L826.8,326z"/>
	<path class="st1" d="M837.7,328.4v-4.3c0-0.6-0.1-1.1-0.3-1.4c-0.2-0.3-0.5-0.4-1-0.4c-0.5,0-1,0.3-1.3,0.7c-0.4,0.5-0.4,1-0.4,1.8
		v3.6H833v-10.6h1.7v4.2c0.5-0.8,1.4-1.2,2.5-1.2c0.9,0,1.5,0.3,1.8,0.8c0.3,0.5,0.5,1,0.5,2.2v4.6H837.7z"/>
	<path class="st1" d="M847.7,326.5c-0.6,1.3-1.7,2.1-3.3,2.1c-2.4,0-3.7-1.6-3.7-4c0-2.4,1.4-3.9,3.6-3.9c2.4,0,3.4,1.7,3.4,4.4
		h-5.2c0.1,1.3,0.8,2,2,2c0.8,0,1.4-0.3,1.7-1.2L847.7,326.5z M846,323.8c-0.1-1.2-0.7-1.8-1.6-1.8s-1.7,0.6-1.8,1.8H846z"/>
	<path class="st1" d="M849.1,328.4v-7.5h1.7v1.2c0.5-0.8,1-1.2,2.1-1.2c0.2,0,0.4,0,0.6,0.1v1.8c-0.3-0.1-0.5-0.2-0.8-0.2
		c-0.6,0-1.1,0.3-1.4,0.7c-0.3,0.4-0.4,0.9-0.4,1.7v3.5H849.1z"/>
</g>
<g class="st0">
	<path class="st1" d="M500.1,656.4v-10.6h4.4c1.5,0,2.3,0.2,2.9,0.6c0.8,0.6,1.2,1.5,1.2,2.6c0,1.2-0.4,2.2-1.3,2.8
		c-0.8,0.4-1.9,0.6-3.1,0.6H502v4H500.1z M503.9,650.7c1,0,1.7-0.1,2.1-0.4c0.4-0.3,0.5-0.7,0.5-1.3c0-0.5-0.2-1-0.5-1.3
		c-0.4-0.3-0.9-0.4-2-0.4h-2v3.4H503.9z"/>
	<path class="st1" d="M512.4,656.6c-2.3,0-3.7-1.5-3.7-4c0-2.5,1.5-3.9,3.8-3.9c2.2,0,3.6,1.5,3.6,4
		C516.1,655.2,514.6,656.6,512.4,656.6z M512.5,650.1c-1.1,0-1.9,0.9-1.9,2.4c0,1.7,0.8,2.5,1.9,2.5c1.1,0,1.9-0.8,1.9-2.4
		C514.3,651,513.6,650.1,512.5,650.1z"/>
	<path class="st1" d="M518.2,654c0.4,0.8,1.1,1.2,1.9,1.2c0.8,0,1.2-0.3,1.2-0.8c0-0.5-0.3-0.7-1.4-1.1l-0.8-0.3
		c-1.2-0.4-1.9-1-1.9-2.2c0-1.2,1.1-2.2,2.9-2.2c1.2,0,2.3,0.5,2.9,1.5l-1.3,0.9c-0.4-0.7-0.9-1-1.7-1c-0.8,0-1.1,0.3-1.1,0.7
		c0,0.4,0.2,0.7,1.2,1l0.8,0.2c1.3,0.4,2.1,1,2.1,2.2c0,1.4-1.2,2.4-3,2.4c-1.5,0-2.6-0.7-3.2-1.7L518.2,654z"/>
	<path class="st1" d="M527.9,656.3c-0.4,0.1-0.9,0.2-1.3,0.2c-0.7,0-1.2-0.2-1.5-0.5c-0.3-0.4-0.4-0.9-0.4-1.6v-4.1h-1.2v-1.4h1.2
		v-2.4h1.7v2.4h1.5v1.4h-1.5v3.7c0,0.8,0.2,1,0.8,1c0.2,0,0.5,0,0.7-0.1V656.3z"/>
	<path class="st1" d="M528.7,652.5v-1.4h4.3v1.4H528.7z"/>
	<path class="st1" d="M536.4,648.9v1.1c0.5-0.7,1.2-1.2,2.3-1.2c1.7,0,3,1.3,3,3.9c0,2.4-1.4,3.9-3.1,3.9c-1.1,0-1.7-0.4-2.1-1v3.8
		h-1.7v-10.4H536.4z M538.1,655c1,0,1.7-0.8,1.7-2.4c0-1.5-0.6-2.5-1.6-2.5c-1,0-1.8,0.8-1.8,2.4C536.3,654.1,537,655,538.1,655z"/>
	<path class="st1" d="M543,656.4v-7.5h1.7v1.2c0.5-0.8,1-1.2,2.1-1.2c0.2,0,0.4,0,0.6,0.1v1.8c-0.3-0.1-0.5-0.2-0.8-0.2
		c-0.6,0-1.1,0.3-1.4,0.7c-0.3,0.4-0.4,0.9-0.4,1.7v3.5H543z"/>
	<path class="st1" d="M551.6,656.6c-2.3,0-3.7-1.5-3.7-4c0-2.5,1.5-3.9,3.8-3.9c2.2,0,3.6,1.5,3.6,4
		C555.3,655.2,553.8,656.6,551.6,656.6z M551.7,650.1c-1.1,0-1.9,0.9-1.9,2.4c0,1.7,0.8,2.5,1.9,2.5c1.1,0,1.9-0.8,1.9-2.4
		C553.5,651,552.8,650.1,551.7,650.1z"/>
	<path class="st1" d="M561.6,656.4v-1c-0.5,0.7-1.2,1.2-2.2,1.2c-1.7,0-3-1.3-3-3.9c0-2.4,1.4-3.9,3.1-3.9c1.1,0,1.7,0.4,2.1,1v-3.9
		h1.7v10.6H561.6z M559.9,650.2c-1,0-1.7,0.8-1.7,2.4c0,1.5,0.6,2.5,1.7,2.5c1,0,1.8-0.8,1.8-2.4
		C561.6,651.1,560.9,650.2,559.9,650.2z"/>
	<path class="st1" d="M566.8,648.9v4.3c0,0.5,0.1,0.9,0.2,1.2c0.2,0.4,0.6,0.6,1.1,0.6c0.5,0,0.9-0.3,1.2-0.6
		c0.3-0.4,0.5-0.9,0.5-1.6v-3.9h1.8v7.5h-1.7v-1.1c-0.5,0.7-1.3,1.2-2.3,1.2c-1,0-1.5-0.3-2-0.9c-0.3-0.5-0.5-1.1-0.5-2v-4.7H566.8z
		"/>
	<path class="st1" d="M578,651.5c-0.2-1-0.8-1.3-1.5-1.3c-1,0-1.8,0.8-1.8,2.4c0,1.7,0.7,2.5,1.8,2.5c0.8,0,1.3-0.4,1.5-1.2l1.6,0.5
		c-0.4,1.2-1.4,2.1-3.1,2.1c-2.2,0-3.6-1.5-3.6-4c0-2.4,1.4-3.9,3.6-3.9c1.6,0,2.6,0.9,3,2.2L578,651.5z"/>
	<path class="st1" d="M587.2,654.5c-0.6,1.3-1.7,2.1-3.3,2.1c-2.4,0-3.7-1.6-3.7-4c0-2.4,1.4-3.9,3.6-3.9c2.4,0,3.4,1.7,3.4,4.4
		h-5.2c0.1,1.3,0.8,2,2,2c0.8,0,1.4-0.3,1.7-1.2L587.2,654.5z M585.5,651.8c-0.1-1.2-0.7-1.8-1.6-1.8s-1.7,0.6-1.8,1.8H585.5z"/>
	<path class="st1" d="M588.7,656.4v-7.5h1.7v1.2c0.5-0.8,1-1.2,2.1-1.2c0.2,0,0.4,0,0.6,0.1v1.8c-0.3-0.1-0.5-0.2-0.8-0.2
		c-0.6,0-1.1,0.3-1.4,0.7c-0.3,0.4-0.4,0.9-0.4,1.7v3.5H588.7z"/>
</g>
</svg>
