<?xml version="1.0" encoding="utf-8"?>
<!-- Generator: Adobe Illustrator 22.1.0, SVG Export Plug-In . SVG Version: 6.00 Build 0)  -->
<svg version="1.1" id="arrows" xmlns="http://www.w3.org/2000/svg" xmlns:xlink="http://www.w3.org/1999/xlink" x="0px" y="0px"
	 viewBox="0 0 551 850" style="enable-background:new 0 0 551 850;" xml:space="preserve">
<style type="text/css">
	.st0{opacity:0.33;}
	.st1{fill:none;stroke:#000000;stroke-miterlimit:10;}
</style>
<g class="st0">
	<g>
		<line class="st1" x1="176.6" y1="650.5" x2="225" y2="650.5"/>
		<g>
			<polygon points="181.6,656.6 182.6,655.5 177.2,650.5 182.6,645.5 181.6,644.4 175,650.5 			"/>
		</g>
	</g>
</g>
<g class="st0">
	<g>
		<line class="st1" x1="148.5" y1="324.4" x2="148.5" y2="200"/>
		<g>
			<polygon points="154.6,319.4 153.5,318.4 148.5,323.8 143.5,318.4 142.4,319.4 148.5,326 			"/>
		</g>
	</g>
</g>
<g class="st0">
	<g>
		<line class="st1" x1="223.4" y1="350.5" x2="175.5" y2="350.5"/>
		<g>
			<polygon points="218.4,344.4 217.4,345.5 222.8,350.5 217.4,355.5 218.4,356.6 225,350.5 			"/>
		</g>
	</g>
</g>
<g class="st0">
	<g>
		<line class="st1" x1="322.4" y1="350.5" x2="274.5" y2="350.5"/>
		<g>
			<polygon points="317.4,344.4 316.4,345.5 321.8,350.5 316.4,355.5 317.4,356.6 324,350.5 			"/>
		</g>
	</g>
</g>
<g class="st0">
	<g>
		<line class="st1" x1="350.5" y1="499.4" x2="350.5" y2="375"/>
		<g>
			<polygon points="356.6,494.4 355.5,493.4 350.5,498.8 345.5,493.4 344.4,494.4 350.5,501 			"/>
		</g>
	</g>
</g>
<g class="st0">
	<g>
		<line class="st1" x1="202.6" y1="150.5" x2="224.5" y2="150.5"/>
		<g>
			<polygon points="207.6,156.6 208.6,155.5 203.2,150.5 208.6,145.5 207.6,144.4 201,150.5 			"/>
		</g>
	</g>
</g>
<g class="st0">
	<g>
		<line class="st1" x1="148.5" y1="377.1" x2="149.5" y2="526"/>
		<g>
			<polygon points="142.4,382.1 143.5,383.2 148.5,377.7 153.6,383.1 154.7,382.1 148.5,375.5 			"/>
		</g>
	</g>
</g>
<g class="st0">
	<g>
		<line class="st1" x1="149.5" y1="624.4" x2="149.5" y2="575"/>
		<g>
			<polygon points="155.6,619.4 154.5,618.4 149.5,623.8 144.5,618.4 143.4,619.4 149.5,626 			"/>
		</g>
	</g>
</g>
<g class="st0">
	<g>
		<line class="st1" x1="276.1" y1="150.5" x2="326" y2="150.5"/>
		<g>
			<polygon points="281.1,156.6 282.1,155.5 276.7,150.5 282.1,145.5 281.1,144.4 274.5,150.5 			"/>
		</g>
	</g>
</g>
<g class="st0">
	<g>
		<line class="st1" x1="149.5" y1="698.4" x2="149.5" y2="675"/>
		<g>
			<polygon points="155.6,693.4 154.5,692.4 149.5,697.8 144.5,692.4 143.4,693.4 149.5,700 			"/>
		</g>
	</g>
</g>
<g class="st0">
	<g>
		<polyline class="st1" points="377.6,150.5 451.5,150.5 451.5,550.5 401.5,550.5 		"/>
		<g>
			<polygon points="382.6,156.6 383.6,155.5 378.2,150.5 383.6,145.5 382.6,144.4 376,150.5 			"/>
		</g>
	</g>
</g>
<g class="st0">
	<g>
		<line class="st1" x1="168.7" y1="531.4" x2="333.5" y2="368.5"/>
		<g>
			<polygon points="176.5,532.2 176.5,530.7 169.1,531 169.4,523.6 167.9,523.5 167.5,532.5 			"/>
		</g>
	</g>
</g>
</svg>
