<svg width="314" height="74" viewBox="0 0 314 74" fill="none" xmlns="http://www.w3.org/2000/svg">
<g clip-path="url(#clip0_4600_47574)">
<g filter="url(#filter0_d_4600_47574)">
<g clip-path="url(#clip1_4600_47574)">
<g filter="url(#filter1_d_4600_47574)">
<rect x="6" y="6" width="302" height="62" rx="2" fill="white"/>
<rect x="6.5" y="6.5" width="301" height="61" rx="1.5" stroke="#D6D6D6"/>
<g clip-path="url(#clip2_4600_47574)">
<rect width="60" height="60" transform="translate(7 7)" fill="#F8F8F8"/>
<g clip-path="url(#clip3_4600_47574)">
<rect width="30" height="30" transform="matrix(1 0 -0.00820296 0.999966 21.877 21.9995)" fill="white"/>
<mask id="mask0_4600_47574" style="mask-type:alpha" maskUnits="userSpaceOnUse" x="21" y="21" width="31" height="31">
<rect x="0.495899" y="0.499983" width="29" height="29" transform="matrix(1 0 -0.00820296 0.999966 21.8811 21.9995)" fill="#F8F8F8" stroke="#B8B8B8"/>
</mask>
<g mask="url(#mask0_4600_47574)">
<circle cx="4" cy="4" r="3.5" transform="matrix(1 0 -0.00820296 0.999966 38.1631 27.666)" fill="#FFEBAD" stroke="#FFCF30"/>
<rect x="28.1632" y="55.9289" width="16.3146" height="16.1732" rx="2.5" transform="rotate(-44.765 28.1632 55.9289)" fill="#C7CCFF" stroke="#636FF7"/>
<rect x="16.7452" y="50.391" width="16.3146" height="23.1475" rx="2.5" transform="rotate(-44.765 16.7452 50.391)" fill="#C7CCFF" stroke="#636FF7"/>
</g>
<rect x="0.495899" y="0.499983" width="29" height="29" transform="matrix(1 0 -0.00820296 0.999966 21.8811 21.9995)" stroke="#636FF7"/>
</g>
</g>
<path d="M80.2578 31V21.1357H84.0312C85.8428 21.1357 86.9502 22.0859 86.9502 23.5898V23.6035C86.9502 24.6221 86.1982 25.5518 85.248 25.7227V25.832C86.5947 26.0029 87.4492 26.9258 87.4492 28.2246V28.2383C87.4492 29.9678 86.2051 31 84.1064 31H80.2578ZM83.7715 22.2227H81.4883V25.3877H83.457C84.9473 25.3877 85.7061 24.8545 85.7061 23.8154V23.8018C85.7061 22.8037 84.9951 22.2227 83.7715 22.2227ZM83.8057 26.4473H81.4883V29.9131H83.9219C85.4053 29.9131 86.1846 29.3115 86.1846 28.1768V28.1631C86.1846 27.0283 85.3779 26.4473 83.8057 26.4473ZM89.9375 22.209C89.4863 22.209 89.1172 21.8398 89.1172 21.3887C89.1172 20.9375 89.4863 20.5684 89.9375 20.5684C90.3887 20.5684 90.7578 20.9375 90.7578 21.3887C90.7578 21.8398 90.3887 22.209 89.9375 22.209ZM89.3359 31V23.6309H90.5254V31H89.3359ZM92.8359 31V20.7051H94.0254V31H92.8359ZM99.0293 31.1299C97.1631 31.1299 95.9395 29.6191 95.9395 27.3223V27.3086C95.9395 24.998 97.1562 23.501 99.0293 23.501C100.041 23.501 100.923 24.0068 101.326 24.793H101.436V20.7051H102.625V31H101.436V29.8242H101.326C100.875 30.6445 100.055 31.1299 99.0293 31.1299ZM99.3027 30.0771C100.643 30.0771 101.463 29.0244 101.463 27.3223V27.3086C101.463 25.6064 100.643 24.5537 99.3027 24.5537C97.9561 24.5537 97.1562 25.5928 97.1562 27.3086V27.3223C97.1562 29.0381 97.9561 30.0771 99.3027 30.0771Z" fill="#141414" fill-opacity="0.85"/>
<path d="M80.168 53V43.8403H81.4946L84.6304 51.4829H84.7319L87.8677 43.8403H89.1943V53H88.1279V46.0049H88.0581L85.1636 53H84.1987L81.3042 46.0049H81.2344V53H80.168ZM91.9746 44.8369C91.5557 44.8369 91.2129 44.4941 91.2129 44.0752C91.2129 43.6562 91.5557 43.3135 91.9746 43.3135C92.3936 43.3135 92.7363 43.6562 92.7363 44.0752C92.7363 44.4941 92.3936 44.8369 91.9746 44.8369ZM91.416 53V46.1572H92.5205V53H91.416ZM97.0337 53.0508C95.6245 53.0508 95.0342 52.5303 95.0342 51.2227V47.0713H93.9551V46.1572H95.0342V44.3862H96.1768V46.1572H97.6748V47.0713H96.1768V50.9434C96.1768 51.7495 96.4561 52.0732 97.167 52.0732C97.3638 52.0732 97.4717 52.0669 97.6748 52.0479V52.9873C97.459 53.0254 97.2495 53.0508 97.0337 53.0508ZM105.793 53.1206C103.845 53.1206 102.639 51.7749 102.639 49.585V49.5723C102.639 47.376 103.845 46.0366 105.793 46.0366C107.742 46.0366 108.948 47.376 108.948 49.5723V49.585C108.948 51.7749 107.742 53.1206 105.793 53.1206ZM105.793 52.1431C107.088 52.1431 107.818 51.1973 107.818 49.585V49.5723C107.818 47.9536 107.088 47.0142 105.793 47.0142C104.499 47.0142 103.769 47.9536 103.769 49.5723V49.585C103.769 51.1973 104.499 52.1431 105.793 52.1431ZM110.662 55.2852V46.1572H111.767V47.249H111.868C112.287 46.4873 113.049 46.0366 114.001 46.0366C115.734 46.0366 116.87 47.4395 116.87 49.5723V49.585C116.87 51.7305 115.74 53.1206 114.001 53.1206C113.062 53.1206 112.243 52.6509 111.868 51.9209H111.767V55.2852H110.662ZM113.747 52.1431C114.998 52.1431 115.74 51.1782 115.74 49.585V49.5723C115.74 47.979 114.998 47.0142 113.747 47.0142C112.503 47.0142 111.741 47.9917 111.741 49.5723V49.585C111.741 51.1655 112.503 52.1431 113.747 52.1431ZM121.028 53.0508C119.619 53.0508 119.028 52.5303 119.028 51.2227V47.0713H117.949V46.1572H119.028V44.3862H120.171V46.1572H121.669V47.0713H120.171V50.9434C120.171 51.7495 120.45 52.0732 121.161 52.0732C121.358 52.0732 121.466 52.0669 121.669 52.0479V52.9873C121.453 53.0254 121.244 53.0508 121.028 53.0508ZM123.903 44.8369C123.484 44.8369 123.142 44.4941 123.142 44.0752C123.142 43.6562 123.484 43.3135 123.903 43.3135C124.322 43.3135 124.665 43.6562 124.665 44.0752C124.665 44.4941 124.322 44.8369 123.903 44.8369ZM123.345 53V46.1572H124.449V53H123.345ZM129.343 53.1206C127.395 53.1206 126.188 51.7749 126.188 49.585V49.5723C126.188 47.376 127.395 46.0366 129.343 46.0366C131.292 46.0366 132.498 47.376 132.498 49.5723V49.585C132.498 51.7749 131.292 53.1206 129.343 53.1206ZM129.343 52.1431C130.638 52.1431 131.368 51.1973 131.368 49.585V49.5723C131.368 47.9536 130.638 47.0142 129.343 47.0142C128.048 47.0142 127.318 47.9536 127.318 49.5723V49.585C127.318 51.1973 128.048 52.1431 129.343 52.1431ZM134.212 53V46.1572H135.316V47.1855H135.418C135.761 46.4619 136.402 46.0366 137.411 46.0366C138.947 46.0366 139.804 46.9443 139.804 48.5693V53H138.7V48.8359C138.7 47.6045 138.192 47.0142 137.1 47.0142C136.008 47.0142 135.316 47.7505 135.316 48.9502V53H134.212ZM143.683 53.1206C142.381 53.1206 141.397 52.3335 141.397 51.0894V51.0767C141.397 49.8579 142.299 49.1533 143.892 49.0581L145.854 48.9375V48.3154C145.854 47.4712 145.339 47.0142 144.317 47.0142C143.499 47.0142 142.959 47.3188 142.781 47.8521L142.775 47.8711H141.67L141.677 47.833C141.854 46.7603 142.896 46.0366 144.355 46.0366C146.025 46.0366 146.958 46.8936 146.958 48.3154V53H145.854V51.9907H145.752C145.32 52.7207 144.603 53.1206 143.683 53.1206ZM142.527 51.064C142.527 51.7559 143.118 52.1621 143.911 52.1621C145.035 52.1621 145.854 51.4258 145.854 50.4482V49.8262L144.025 49.9404C142.984 50.0039 142.527 50.3721 142.527 51.0513V51.064ZM149.04 53V43.4404H150.145V53H149.04ZM155.058 53.1206C153.103 53.1206 151.922 51.7495 151.922 49.604V49.5977C151.922 47.4839 153.128 46.0366 154.988 46.0366C156.848 46.0366 157.978 47.4204 157.978 49.4644V49.896H153.052C153.083 51.3115 153.864 52.1367 155.083 52.1367C156.01 52.1367 156.581 51.6987 156.765 51.2861L156.791 51.229H157.895L157.882 51.2798C157.647 52.2065 156.67 53.1206 155.058 53.1206ZM154.981 47.0205C153.966 47.0205 153.191 47.7124 153.071 49.0137H156.854C156.74 47.6616 155.991 47.0205 154.981 47.0205ZM159.691 53V46.1572H160.796V47.1729H160.897C161.158 46.4556 161.799 46.0366 162.726 46.0366C162.935 46.0366 163.17 46.062 163.278 46.0811V47.1538C163.049 47.1157 162.84 47.0903 162.599 47.0903C161.545 47.0903 160.796 47.7568 160.796 48.7598V53H159.691ZM168.438 53V43.8403H169.581V51.9717H173.999V53H168.438ZM178.163 53.1206C176.208 53.1206 175.027 51.7495 175.027 49.604V49.5977C175.027 47.4839 176.233 46.0366 178.093 46.0366C179.953 46.0366 181.083 47.4204 181.083 49.4644V49.896H176.157C176.189 51.3115 176.97 52.1367 178.188 52.1367C179.115 52.1367 179.687 51.6987 179.871 51.2861L179.896 51.229H181L180.988 51.2798C180.753 52.2065 179.775 53.1206 178.163 53.1206ZM178.087 47.0205C177.071 47.0205 176.297 47.7124 176.176 49.0137H179.959C179.845 47.6616 179.096 47.0205 178.087 47.0205ZM185.615 55.4121C183.965 55.4121 182.911 54.6694 182.74 53.5459L182.752 53.5396H183.895L183.901 53.5459C184.022 54.0664 184.631 54.4346 185.615 54.4346C186.84 54.4346 187.57 53.8569 187.57 52.8477V51.4639H187.469C187.037 52.2192 186.263 52.6445 185.323 52.6445C183.552 52.6445 182.454 51.2734 182.454 49.3564V49.3438C182.454 47.4268 183.559 46.0366 185.349 46.0366C186.313 46.0366 187.062 46.5127 187.481 47.2871H187.558V46.1572H188.662V52.9048C188.662 54.4346 187.481 55.4121 185.615 55.4121ZM185.564 51.667C186.834 51.667 187.596 50.7148 187.596 49.3564V49.3438C187.596 47.9854 186.828 47.0142 185.564 47.0142C184.295 47.0142 183.584 47.9854 183.584 49.3438V49.3564C183.584 50.7148 184.295 51.667 185.564 51.667ZM193.512 53.1206C191.557 53.1206 190.376 51.7495 190.376 49.604V49.5977C190.376 47.4839 191.582 46.0366 193.442 46.0366C195.302 46.0366 196.432 47.4204 196.432 49.4644V49.896H191.506C191.538 51.3115 192.318 52.1367 193.537 52.1367C194.464 52.1367 195.035 51.6987 195.219 51.2861L195.245 51.229H196.349L196.336 51.2798C196.102 52.2065 195.124 53.1206 193.512 53.1206ZM193.436 47.0205C192.42 47.0205 191.646 47.7124 191.525 49.0137H195.308C195.194 47.6616 194.445 47.0205 193.436 47.0205ZM198.146 53V46.1572H199.25V47.1855H199.352C199.694 46.4619 200.335 46.0366 201.345 46.0366C202.881 46.0366 203.738 46.9443 203.738 48.5693V53H202.633V48.8359C202.633 47.6045 202.125 47.0142 201.034 47.0142C199.942 47.0142 199.25 47.7505 199.25 48.9502V53H198.146ZM208.264 53.1206C206.531 53.1206 205.395 51.7178 205.395 49.585V49.5723C205.395 47.4268 206.524 46.0366 208.264 46.0366C209.203 46.0366 210.022 46.5063 210.396 47.2363H210.498V43.4404H211.603V53H210.498V51.9082H210.396C209.978 52.6699 209.216 53.1206 208.264 53.1206ZM208.518 52.1431C209.762 52.1431 210.523 51.1655 210.523 49.585V49.5723C210.523 47.9917 209.762 47.0142 208.518 47.0142C207.267 47.0142 206.524 47.979 206.524 49.5723V49.585C206.524 51.1782 207.267 52.1431 208.518 52.1431ZM216.516 53.1206C214.561 53.1206 213.38 51.7495 213.38 49.604V49.5977C213.38 47.4839 214.586 46.0366 216.446 46.0366C218.306 46.0366 219.436 47.4204 219.436 49.4644V49.896H214.51C214.542 51.3115 215.322 52.1367 216.541 52.1367C217.468 52.1367 218.039 51.6987 218.223 51.2861L218.249 51.229H219.353L219.34 51.2798C219.105 52.2065 218.128 53.1206 216.516 53.1206ZM216.439 47.0205C215.424 47.0205 214.649 47.7124 214.529 49.0137H218.312C218.198 47.6616 217.449 47.0205 216.439 47.0205Z" fill="#141414" fill-opacity="0.45"/>
</g>
</g>
<rect x="7" y="7" width="300" height="60" rx="9" stroke="#DE3E73" stroke-width="2" shape-rendering="crispEdges"/>
</g>
</g>
<defs>
<filter id="filter0_d_4600_47574" x="0" y="1" width="314" height="74" filterUnits="userSpaceOnUse" color-interpolation-filters="sRGB">
<feFlood flood-opacity="0" result="BackgroundImageFix"/>
<feColorMatrix in="SourceAlpha" type="matrix" values="0 0 0 0 0 0 0 0 0 0 0 0 0 0 0 0 0 0 127 0" result="hardAlpha"/>
<feOffset dy="1"/>
<feGaussianBlur stdDeviation="3"/>
<feComposite in2="hardAlpha" operator="out"/>
<feColorMatrix type="matrix" values="0 0 0 0 0 0 0 0 0 0 0 0 0 0 0 0 0 0 0.12 0"/>
<feBlend mode="normal" in2="BackgroundImageFix" result="effect1_dropShadow_4600_47574"/>
<feBlend mode="normal" in="SourceGraphic" in2="effect1_dropShadow_4600_47574" result="shape"/>
</filter>
<filter id="filter1_d_4600_47574" x="1" y="2" width="312" height="72" filterUnits="userSpaceOnUse" color-interpolation-filters="sRGB">
<feFlood flood-opacity="0" result="BackgroundImageFix"/>
<feColorMatrix in="SourceAlpha" type="matrix" values="0 0 0 0 0 0 0 0 0 0 0 0 0 0 0 0 0 0 127 0" result="hardAlpha"/>
<feOffset dy="1"/>
<feGaussianBlur stdDeviation="2.5"/>
<feComposite in2="hardAlpha" operator="out"/>
<feColorMatrix type="matrix" values="0 0 0 0 0.0784314 0 0 0 0 0.0784314 0 0 0 0 0.0784314 0 0 0 0.12 0"/>
<feBlend mode="normal" in2="BackgroundImageFix" result="effect1_dropShadow_4600_47574"/>
<feBlend mode="normal" in="SourceGraphic" in2="effect1_dropShadow_4600_47574" result="shape"/>
</filter>
<clipPath id="clip0_4600_47574">
<rect width="314" height="74" fill="white"/>
</clipPath>
<clipPath id="clip1_4600_47574">
<rect x="6" y="6" width="302" height="62" rx="10" fill="white"/>
</clipPath>
<clipPath id="clip2_4600_47574">
<rect width="60" height="60" fill="white" transform="translate(7 7)"/>
</clipPath>
<clipPath id="clip3_4600_47574">
<rect width="60" height="60" fill="white" transform="translate(7 7)"/>
</clipPath>
</defs>
</svg>
