<svg width="758" height="866" viewBox="0 0 758 866" fill="none" xmlns="http://www.w3.org/2000/svg">
<g clip-path="url(#clip0_4600_47492)">
<mask id="path-1-inside-1_4600_47492" fill="white">
<path d="M0 0H758V866H0V0Z"/>
</mask>
<g clip-path="url(#clip1_4600_47492)">
<path d="M0 24C0 10.7452 10.7452 0 24 0H1266C1279.25 0 1290 10.7452 1290 24V896C1290 909.255 1279.25 920 1266 920H24C10.7451 920 0 909.255 0 896V24Z" fill="white"/>
<mask id="path-5-inside-2_4600_47492" fill="white">
<path d="M0 0H1290V114H0V0Z"/>
</mask>
<path d="M0 0H1290V114H0V0Z" fill="white"/>
<path d="M1290 114V113H0V114V115H1290V114Z" fill="#E3E3E3" mask="url(#path-5-inside-2_4600_47492)"/>
<rect width="1290" height="113" fill="white"/>
<path d="M18 12C15.25 12 13 14.25 13 17C13 19.75 15.25 22 18 22C20.75 22 23 19.75 23 17C23 14.25 20.75 12 18 12ZM17 19.5L14.5 17L15.205 16.295L17 18.085L20.795 14.29L21.5 15L17 19.5Z" fill="#13A463"/>
<text fill="#141414" fill-opacity="0.45" style="white-space: pre" xml:space="preserve" font-family="SF Pro Text" font-size="11" letter-spacing="0px"><tspan x="27" y="21.4102">gespeichert</tspan></text>
<text fill="#141414" fill-opacity="0.85" style="white-space: pre" xml:space="preserve" font-family="SF Pro Text" font-size="14" font-weight="600" letter-spacing="0px"><tspan x="440.975" y="50.9766">Durch das Spektrum: Ein Kreis aus Licht und Wahrnehmung</tspan></text>
<rect x="12.5" y="69.5" width="35" height="35" rx="17.5" fill="white"/>
<rect x="12.5" y="69.5" width="35" height="35" rx="17.5" stroke="#E3E3E3"/>
<path d="M32.8415 90.8167L29.0248 87L32.8415 83.175L31.6665 82L26.6665 87L31.6665 92L32.8415 90.8167Z" fill="#6E6E6E"/>
<g style="mix-blend-mode:darken">
<mask id="path-13-inside-3_4600_47492" fill="white">
<path d="M60 73C60 70.7909 61.7909 69 64 69H132V105H64C61.7909 105 60 103.209 60 101V73Z"/>
</mask>
<path d="M60 73C60 70.7909 61.7909 69 64 69H132V105H64C61.7909 105 60 103.209 60 101V73Z" fill="white"/>
<path d="M59 73C59 70.2386 61.2386 68 64 68H132V70H64C62.3431 70 61 71.3431 61 73H59ZM132 106H64C61.2386 106 59 103.761 59 101H61C61 102.657 62.3431 104 64 104H132V106ZM64 106C61.2386 106 59 103.761 59 101V73C59 70.2386 61.2386 68 64 68V70C62.3431 70 61 71.3431 61 73V101C61 102.657 62.3431 104 64 104V106ZM64 104M132 69V105V69" fill="#F0F0F0" mask="url(#path-13-inside-3_4600_47492)"/>
<path d="M90.6667 76V82.6666H94V80C94 79.6463 94.1405 79.3072 94.3905 79.0572C94.6406 78.8071 94.9797 78.6666 95.3333 78.6666H98.6667C99.0203 78.6666 99.3594 78.8071 99.6095 79.0572C99.8595 79.3072 100 79.6463 100 80V82.6666H101.333V76H90.6667ZM88 85.3333V84H90.6667C90.313 84 89.9739 83.8595 89.7239 83.6094C89.4738 83.3594 89.3333 83.0202 89.3333 82.6666V76C89.3333 75.6463 89.4738 75.3072 89.7239 75.0572C89.9739 74.8071 90.313 74.6666 90.6667 74.6666H101.333C101.687 74.6666 102.026 74.8071 102.276 75.0572C102.526 75.3072 102.667 75.6463 102.667 76V82.6666C102.667 83.0202 102.526 83.3594 102.276 83.6094C102.026 83.8595 101.687 84 101.333 84H104V85.3333H100C100 86.0733 99.4 86.6666 98.6667 86.6666H95.3333C94.9797 86.6666 94.6406 86.5262 94.3905 86.2761C94.1405 86.0261 94 85.6869 94 85.3333H88ZM95.6667 85.3333C95.5783 85.3333 95.4935 85.3684 95.431 85.4309C95.3685 85.4934 95.3333 85.5782 95.3333 85.6666C95.3333 85.755 95.3685 85.8398 95.431 85.9023C95.4935 85.9648 95.5783 86 95.6667 86C95.7551 86 95.8399 85.9648 95.9024 85.9023C95.9649 85.8398 96 85.755 96 85.6666C96 85.5782 95.9649 85.4934 95.9024 85.4309C95.8399 85.3684 95.7551 85.3333 95.6667 85.3333ZM98.3333 85.3333C98.2449 85.3333 98.1601 85.3684 98.0976 85.4309C98.0351 85.4934 98 85.5782 98 85.6666C98 85.755 98.0351 85.8398 98.0976 85.9023C98.1601 85.9648 98.2449 86 98.3333 86C98.4217 86 98.5065 85.9648 98.569 85.9023C98.6315 85.8398 98.6667 85.755 98.6667 85.6666C98.6667 85.5782 98.6315 85.4934 98.569 85.4309C98.5065 85.3684 98.4217 85.3333 98.3333 85.3333ZM96.6667 85.3333V86H97.3333V85.3333H96.6667ZM95.3333 80V84.6666H98.6667V80H95.3333Z" fill="#6E6E6E"/>
<text fill="#6E6E6E" style="white-space: pre" xml:space="preserve" font-family="SF Pro Text" font-size="10" font-weight="600" letter-spacing="0px"><tspan x="67.25" y="99.0547">VORSCHAU</tspan></text>
</g>
<g style="mix-blend-mode:darken">
<mask id="path-17-inside-4_4600_47492" fill="white">
<path d="M131 69H203V105H131V69Z"/>
</mask>
<path d="M131 69H203V105H131V69Z" fill="white"/>
<path d="M131 69V70H203V69V68H131V69ZM203 105V104H131V105V106H203V105Z" fill="#F0F0F0" mask="url(#path-17-inside-4_4600_47492)"/>
<path d="M168 77.3333H167V80.6667L169.853 82.36L170.333 81.5533L168 80.1667V77.3333ZM167.667 74C166.075 74 164.549 74.6321 163.424 75.7574C162.299 76.8826 161.667 78.4087 161.667 80H159.667L162.307 82.6867L165 80H163C163 78.7623 163.492 77.5753 164.367 76.7002C165.242 75.825 166.429 75.3333 167.667 75.3333C168.904 75.3333 170.091 75.825 170.966 76.7002C171.842 77.5753 172.333 78.7623 172.333 80C172.333 81.2377 171.842 82.4247 170.966 83.2998C170.091 84.175 168.904 84.6667 167.667 84.6667C166.38 84.6667 165.213 84.14 164.373 83.2933L163.427 84.24C164.513 85.3333 166 86 167.667 86C169.258 86 170.784 85.3679 171.909 84.2426C173.034 83.1174 173.667 81.5913 173.667 80C173.667 78.4087 173.034 76.8826 171.909 75.7574C170.784 74.6321 169.258 74 167.667 74Z" fill="#6E6E6E"/>
<text fill="#6E6E6E" style="white-space: pre" xml:space="preserve" font-family="SF Pro Text" font-size="10" font-weight="600" letter-spacing="0px"><tspan x="143.919" y="99.0547">VERLAUF</tspan></text>
</g>
<g style="mix-blend-mode:darken">
<mask id="path-21-inside-5_4600_47492" fill="white">
<path d="M202 69H282C284.209 69 286 70.7909 286 73V101C286 103.209 284.209 105 282 105H202V69Z"/>
</mask>
<path d="M202 69H282C284.209 69 286 70.7909 286 73V101C286 103.209 284.209 105 282 105H202V69Z" fill="white"/>
<path d="M202 68H282C284.761 68 287 70.2386 287 73H285C285 71.3431 283.657 70 282 70H202V68ZM287 101C287 103.761 284.761 106 282 106H202V104H282C283.657 104 285 102.657 285 101H287ZM285 101M202 105V69V105M282 68C284.761 68 287 70.2386 287 73V101C287 103.761 284.761 106 282 106V104C283.657 104 285 102.657 285 101V73C285 71.3431 283.657 70 282 70V68Z" fill="#F0F0F0" mask="url(#path-21-inside-5_4600_47492)"/>
<g clip-path="url(#clip2_4600_47492)">
<path d="M244 87.3333C243.823 87.3333 243.653 87.2631 243.528 87.138C243.403 87.013 243.333 86.8434 243.333 86.6666V84.6666H240.667C240.313 84.6666 239.974 84.5262 239.724 84.2761C239.474 84.0261 239.333 83.6869 239.333 83.3333V76.6666C239.333 75.9266 239.933 75.3333 240.667 75.3333H250C250.353 75.3333 250.693 75.4738 250.943 75.7238C251.193 75.9739 251.333 76.313 251.333 76.6666V83.3333C251.333 83.6869 251.193 84.0261 250.943 84.2761C250.693 84.5262 250.353 84.6666 250 84.6666H247.267L244.8 87.14C244.667 87.2666 244.5 87.3333 244.333 87.3333H244ZM244.667 83.3333V85.3866L246.72 83.3333H250V76.6666H240.667V83.3333H244.667ZM238 82H236.667V74C236.667 73.6463 236.807 73.3072 237.057 73.0572C237.307 72.8071 237.646 72.6666 238 72.6666H248.667V74H238V82Z" fill="#6E6E6E"/>
</g>
<text fill="#6E6E6E" style="white-space: pre" xml:space="preserve" font-family="SF Pro Text" font-size="10" font-weight="600" letter-spacing="0px"><tspan x="208.18" y="99.0547">KOMMENTARE</tspan></text>
<g clip-path="url(#clip3_4600_47492)">
<path d="M247 67.5C247 63.3579 250.358 60 254.5 60C258.642 60 262 63.3579 262 67.5C262 71.6421 258.642 75 254.5 75C250.358 75 247 71.6421 247 67.5Z" fill="#6E6E6E"/>
<text fill="white" style="white-space: pre" xml:space="preserve" font-family="SF Pro Text" font-size="10" font-weight="600" letter-spacing="0.4px"><tspan x="251.229" y="71.0547">3</tspan></text>
</g>
</g>
<g style="mix-blend-mode:darken">
<mask id="path-27-inside-6_4600_47492" fill="white">
<path d="M325 73C325 70.7909 326.791 69 329 69H397V105H329C326.791 105 325 103.209 325 101V73Z"/>
</mask>
<path d="M325 73C325 70.7909 326.791 69 329 69H397V105H329C326.791 105 325 103.209 325 101V73Z" fill="white"/>
<path d="M324 73C324 70.2386 326.239 68 329 68H397V70H329C327.343 70 326 71.3431 326 73H324ZM397 106H329C326.239 106 324 103.761 324 101H326C326 102.657 327.343 104 329 104H397V106ZM329 106C326.239 106 324 103.761 324 101V73C324 70.2386 326.239 68 329 68V70C327.343 70 326 71.3431 326 73V101C326 102.657 327.343 104 329 104V106ZM329 104M397 69V105V69" fill="#F0F0F0" mask="url(#path-27-inside-6_4600_47492)"/>
<path d="M364.333 78H357.667V76.6666H364.333V78ZM364.333 80.6666H357.667V79.3333H364.333V80.6666ZM362.333 83.3333H357.667V82H362.333V83.3333ZM361 74C361.177 74 361.346 74.0702 361.471 74.1952C361.596 74.3202 361.667 74.4898 361.667 74.6666C361.667 74.8434 361.596 75.013 361.471 75.138C361.346 75.2631 361.177 75.3333 361 75.3333C360.823 75.3333 360.654 75.2631 360.529 75.138C360.404 75.013 360.333 74.8434 360.333 74.6666C360.333 74.4898 360.404 74.3202 360.529 74.1952C360.654 74.0702 360.823 74 361 74ZM365.667 74H362.88C362.6 73.2266 361.867 72.6666 361 72.6666C360.133 72.6666 359.4 73.2266 359.12 74H356.333C355.98 74 355.641 74.1404 355.391 74.3905C355.14 74.6405 355 74.9797 355 75.3333V84.6666C355 85.0202 355.14 85.3594 355.391 85.6094C355.641 85.8595 355.98 86 356.333 86H365.667C366.02 86 366.359 85.8595 366.609 85.6094C366.86 85.3594 367 85.0202 367 84.6666V75.3333C367 74.9797 366.86 74.6405 366.609 74.3905C366.359 74.1404 366.02 74 365.667 74Z" fill="#6E6E6E"/>
<text fill="#6E6E6E" style="white-space: pre" xml:space="preserve" font-family="SF Pro Text" font-size="10" font-weight="600" letter-spacing="0px"><tspan x="333.314" y="99.0547">AUFGABEN</tspan></text>
</g>
<g style="mix-blend-mode:darken">
<mask id="path-31-inside-7_4600_47492" fill="white">
<path d="M396 69H468V105H396V69Z"/>
</mask>
<path d="M396 69H468V105H396V69Z" fill="white"/>
<path d="M396 69V70H468V69V68H396V69ZM468 105V104H396V105V106H468V105Z" fill="#F0F0F0" mask="url(#path-31-inside-7_4600_47492)"/>
<path d="M431.333 83.3333H426.667C426.313 83.3333 425.974 83.1928 425.724 82.9428C425.474 82.6927 425.333 82.3536 425.333 82V74C425.333 73.6463 425.474 73.3072 425.724 73.0572C425.974 72.8071 426.313 72.6666 426.667 72.6666H434.667V74H426.667V82H431.333V80.6666L434 82.6666L431.333 84.6666V83.3333ZM436.667 86V76.6666H429.333V80.6666H428V76.6666C428 76.313 428.141 75.9739 428.391 75.7238C428.641 75.4738 428.98 75.3333 429.333 75.3333H436.667C437.02 75.3333 437.36 75.4738 437.61 75.7238C437.86 75.9739 438 76.313 438 76.6666V86C438 86.3536 437.86 86.6927 437.61 86.9428C437.36 87.1928 437.02 87.3333 436.667 87.3333H429.333C428.98 87.3333 428.641 87.1928 428.391 86.9428C428.141 86.6927 428 86.3536 428 86V84.6666H429.333V86H436.667Z" fill="#6E6E6E"/>
<text fill="#6E6E6E" style="white-space: pre" xml:space="preserve" font-family="SF Pro Text" font-size="10" font-weight="600" letter-spacing="0px"><tspan x="406.741" y="99.0547">KOPIEREN</tspan></text>
</g>
<g style="mix-blend-mode:darken">
<mask id="path-35-inside-8_4600_47492" fill="white">
<path d="M467 69H546C548.209 69 550 70.7909 550 73V101C550 103.209 548.209 105 546 105H467V69Z"/>
</mask>
<path d="M467 69H546C548.209 69 550 70.7909 550 73V101C550 103.209 548.209 105 546 105H467V69Z" fill="white"/>
<path d="M467 68H546C548.761 68 551 70.2386 551 73H549C549 71.3431 547.657 70 546 70H467V68ZM551 101C551 103.761 548.761 106 546 106H467V104H546C547.657 104 549 102.657 549 101H551ZM549 101M467 105V69V105M546 68C548.761 68 551 70.2386 551 73V101C551 103.761 548.761 106 546 106V104C547.657 104 549 102.657 549 101V73C549 71.3431 547.657 70 546 70V68Z" fill="#F0F0F0" mask="url(#path-35-inside-8_4600_47492)"/>
<path d="M515.167 81.3334H514.5C514.5 78.7534 512.413 76.6667 509.833 76.6667H509.167V75.82C509.567 75.5934 509.833 75.16 509.833 74.6667C509.833 73.9334 509.24 73.3334 508.5 73.3334C507.76 73.3334 507.167 73.9334 507.167 74.6667C507.167 75.16 507.433 75.5934 507.833 75.82V76.6667H507.167C504.587 76.6667 502.5 78.7534 502.5 81.3334H501.833C501.467 81.3334 501.167 81.6334 501.167 82V84C501.167 84.3667 501.467 84.6667 501.833 84.6667H502.5V85.3334C502.5 86.0734 503.1 86.6667 503.833 86.6667H513.167C513.907 86.6667 514.5 86.0734 514.5 85.3334V84.6667H515.167C515.533 84.6667 515.833 84.3667 515.833 84V82C515.833 81.6334 515.533 81.3334 515.167 81.3334ZM514.5 83.3334H513.167V85.3334H503.833V83.3334H502.5V82.6667H503.833V81.3334C503.833 79.4934 505.327 78 507.167 78H509.833C511.673 78 513.167 79.4934 513.167 81.3334V82.6667H514.5V83.3334ZM506.167 81L507.74 82.5734L506.953 83.36L506.167 82.5734L505.38 83.36L504.593 82.5734L506.167 81ZM510.833 81L512.407 82.5734L511.62 83.36L510.833 82.5734L510.047 83.36L509.26 82.5734L510.833 81Z" fill="#6E6E6E"/>
<text fill="#6E6E6E" style="white-space: pre" xml:space="preserve" font-family="SF Pro Text" font-size="10" font-weight="600" letter-spacing="0px"><tspan x="473.314" y="99.0547">ASSISTENTEN</tspan></text>
</g>
<g style="mix-blend-mode:darken">
<mask id="path-39-inside-9_4600_47492" fill="white">
<path d="M589 73C589 70.7909 590.791 69 593 69H661V105H593C590.791 105 589 103.209 589 101V73Z"/>
</mask>
<path d="M589 73C589 70.7909 590.791 69 593 69H661V105H593C590.791 105 589 103.209 589 101V73Z" fill="white"/>
<path d="M588 73C588 70.2386 590.239 68 593 68H661V70H593C591.343 70 590 71.3431 590 73H588ZM661 106H593C590.239 106 588 103.761 588 101H590C590 102.657 591.343 104 593 104H661V106ZM593 106C590.239 106 588 103.761 588 101V73C588 70.2386 590.239 68 593 68V70C591.343 70 590 71.3431 590 73V101C590 102.657 591.343 104 593 104V106ZM593 104M661 69V105V69" fill="#F0F0F0" mask="url(#path-39-inside-9_4600_47492)"/>
<path d="M631.667 82.6667V74.6667C631.667 74.3131 631.526 73.9739 631.276 73.7239C631.026 73.4738 630.687 73.3334 630.333 73.3334H622.333C621.98 73.3334 621.641 73.4738 621.391 73.7239C621.141 73.9739 621 74.3131 621 74.6667V82.6667C621 83.0203 621.141 83.3595 621.391 83.6095C621.641 83.8596 621.98 84 622.333 84H630.333C630.687 84 631.026 83.8596 631.276 83.6095C631.526 83.3595 631.667 83.0203 631.667 82.6667ZM624.333 80L625.687 81.8067L627.667 79.3334L630.333 82.6667H622.333L624.333 80ZM618.333 76V85.3334C618.333 85.687 618.474 86.0261 618.724 86.2762C618.974 86.5262 619.313 86.6667 619.667 86.6667H629V85.3334H619.667V76" fill="#6E6E6E"/>
<text fill="#6E6E6E" style="white-space: pre" xml:space="preserve" font-family="SF Pro Text" font-size="10" font-weight="600" letter-spacing="0px"><tspan x="613.472" y="99.0547">BILD</tspan></text>
</g>
<g style="mix-blend-mode:darken">
<path d="M728 69.5C729.933 69.5 731.5 71.067 731.5 73V101C731.5 102.933 729.933 104.5 728 104.5H660.5V69.5H728Z" fill="#E7F5F6"/>
<path d="M728 69.5C729.933 69.5 731.5 71.067 731.5 73V101C731.5 102.933 729.933 104.5 728 104.5H660.5V69.5H728Z" stroke="#BCE2E6"/>
<path d="M700.667 80.6667H696.667V84.6667H695.333V80.6667H691.333V79.3334H695.333V75.3334H696.667V79.3334H700.667V80.6667Z" fill="#1197A6"/>
<text fill="#1197A6" style="white-space: pre" xml:space="preserve" font-family="SF Pro Text" font-size="10" font-weight="600" letter-spacing="0px"><tspan x="670.307" y="99.0547">EINF&#xdc;GEN</tspan></text>
</g>
<text opacity="0.8" fill="#141414" style="white-space: pre" xml:space="preserve" font-family="Arial" font-size="14" letter-spacing="0em"><tspan x="157.5" y="153.354">Hoch &#xfc;ber den D&#xe4;chern von Aarhus schwebt ein leuchtender Kreis wie ein stiller Horizont. </tspan><tspan x="157.5" y="174.354">Hier, auf dem Dach des ARoS Kunstmuseums, hat Olafur Eliasson mit Your rainbow </tspan><tspan x="157.5" y="195.354">panorama ein Werk in die Silhouette der Stadt eingeschrieben &#x2013; zugleich Architektur, </tspan><tspan x="157.5" y="216.354">Aussichtspunkt und sinnliche Versuchsanordnung.</tspan></text>
<rect opacity="0.5" x="154.5" y="243" width="578" height="354" rx="3" stroke="#75C3CB" stroke-width="2"/>
<g clip-path="url(#clip4_4600_47492)">
<rect x="157.5" y="246" width="572" height="321.75" fill="#F0F0F0"/>
<g clip-path="url(#clip5_4600_47492)">
<line y1="-1" x2="660.872" y2="-1" transform="matrix(0.871576 0.490261 -0.38319 0.92367 155.5 246)" stroke="white" stroke-width="2"/>
<line y1="-1" x2="660.872" y2="-1" transform="matrix(0.871576 -0.490261 0.38319 0.92367 155.5 570)" stroke="white" stroke-width="2"/>
</g>
</g>
<g filter="url(#filter0_d_4600_47492)">
<g clip-path="url(#clip6_4600_47492)">
<path d="M163.5 270C163.5 260.059 171.559 252 181.5 252H217.5C227.441 252 235.5 260.059 235.5 270C235.5 279.941 227.441 288 217.5 288H181.5C171.559 288 163.5 279.941 163.5 270Z" fill="white"/>
<path d="M163.5 256C163.5 253.791 165.291 252 167.5 252H195.5C197.709 252 199.5 253.791 199.5 256V284C199.5 286.209 197.709 288 195.5 288H167.5C165.291 288 163.5 286.209 163.5 284V256Z" fill="white"/>
<path d="M188.167 272.667V264.667C188.167 264.313 188.026 263.974 187.776 263.724C187.526 263.474 187.187 263.333 186.833 263.333H178.833C178.48 263.333 178.141 263.474 177.891 263.724C177.641 263.974 177.5 264.313 177.5 264.667V272.667C177.5 273.02 177.641 273.359 177.891 273.61C178.141 273.86 178.48 274 178.833 274H186.833C187.187 274 187.526 273.86 187.776 273.61C188.026 273.359 188.167 273.02 188.167 272.667ZM180.833 270L182.187 271.807L184.167 269.333L186.833 272.667H178.833L180.833 270ZM174.833 266V275.333C174.833 275.687 174.974 276.026 175.224 276.276C175.474 276.526 175.813 276.667 176.167 276.667H185.5V275.333H176.167V266" fill="#6E6E6E"/>
<path d="M199.5 256C199.5 253.791 201.291 252 203.5 252H231.5C233.709 252 235.5 253.791 235.5 256V284C235.5 286.209 233.709 288 231.5 288H203.5C201.291 288 199.5 286.209 199.5 284V256Z" fill="white"/>
<path d="M215.5 272.667V268.667H212.833L217.5 264L222.167 268.667H219.5V272.667H215.5ZM212.833 275.333V274H222.167V275.333H212.833Z" fill="#6E6E6E"/>
</g>
<path d="M181.5 252.5H217.5C227.165 252.5 235 260.335 235 270C235 279.665 227.165 287.5 217.5 287.5H181.5C171.835 287.5 164 279.665 164 270C164 260.335 171.835 252.5 181.5 252.5Z" stroke="#E3E3E3"/>
</g>
<text fill="#B8B8B8" style="white-space: pre" xml:space="preserve" font-family="Arial" font-size="11" letter-spacing="-0.01em"><tspan x="157.5" y="590.563">Legende</tspan></text>
<text opacity="0.8" fill="#141414" style="white-space: pre" xml:space="preserve" font-family="Arial" font-size="14" letter-spacing="0em"><tspan x="157.5" y="633.104">Der d&#xe4;nisch-isl&#xe4;ndische K&#xfc;nstler, bekannt f&#xfc;r seine Arbeiten zu Licht, Wahrnehmung und </tspan><tspan x="157.5" y="654.104">dem Verh&#xe4;ltnis zwischen Mensch und Umwelt, entwarf die Installation als begehbares </tspan><tspan x="157.5" y="675.104">Farbspektrum. Ein kreisf&#xf6;rmiger Korridor aus Glas entfaltet sich in allen Farben des </tspan><tspan x="157.5" y="696.104">Regenbogens und l&#xe4;dt dazu ein, ihn Schritt f&#xfc;r Schritt zu durchschreiten. Mit jeder </tspan><tspan x="157.5" y="717.104">Bewegung ver&#xe4;ndert sich der Blick auf die Stadt: Stra&#xdf;en l&#xf6;sen sich in farbige Fl&#xe4;chen auf, </tspan><tspan x="157.5" y="738.104">vertraute Geb&#xe4;ude erscheinen wie durch einen emotionalen Filter neu interpretiert.</tspan></text>
<text opacity="0.8" fill="#141414" style="white-space: pre" xml:space="preserve" font-family="Arial" font-size="14" letter-spacing="0em"><tspan x="157.5" y="783.104">Was zun&#xe4;chst wie ein spektakul&#xe4;res Wahrzeichen wirkt, entpuppt sich bei n&#xe4;herer </tspan><tspan x="157.5" y="804.104">Erfahrung als feinsinnige Untersuchung des Sehens selbst. Das Panorama rahmt Aarhus </tspan><tspan x="157.5" y="825.104">nicht nur &#x2013; es verwandelt die Stadt. Die Besucherinnen und Besucher werden Teil eines </tspan><tspan x="157.5" y="846.104">Zusammenspiels von K&#xf6;rper, Raum und Wahrnehmung. Gehen wird zum Sehen, und </tspan><tspan x="157.5" y="867.104">Sehen zu einem Prozess, der von Farbe, Bewegung und Bewusstsein gepr&#xe4;gt ist.</tspan></text>
</g>
<path d="M24 1H1266C1278.7 1 1289 11.2974 1289 24V896C1289 908.703 1278.7 919 1266 919H24C11.2975 919 1 908.703 1 896V24C1.00001 11.2975 11.2975 1 24 1Z" stroke="#141414" stroke-width="2"/>
</g>
<path d="M758 0H757V866H758H759V0H758Z" fill="#D4D4D4" mask="url(#path-1-inside-1_4600_47492)"/>
<defs>
<filter id="filter0_d_4600_47492" x="150.5" y="241" width="98" height="62" filterUnits="userSpaceOnUse" color-interpolation-filters="sRGB">
<feFlood flood-opacity="0" result="BackgroundImageFix"/>
<feColorMatrix in="SourceAlpha" type="matrix" values="0 0 0 0 0 0 0 0 0 0 0 0 0 0 0 0 0 0 127 0" result="hardAlpha"/>
<feOffset dy="2"/>
<feGaussianBlur stdDeviation="6.5"/>
<feColorMatrix type="matrix" values="0 0 0 0 0.0784314 0 0 0 0 0.0784314 0 0 0 0 0.0784314 0 0 0 0.06 0"/>
<feBlend mode="normal" in2="BackgroundImageFix" result="effect1_dropShadow_4600_47492"/>
<feBlend mode="normal" in="SourceGraphic" in2="effect1_dropShadow_4600_47492" result="shape"/>
</filter>
<clipPath id="clip0_4600_47492">
<path d="M0 0H758V866H0V0Z" fill="white"/>
</clipPath>
<clipPath id="clip1_4600_47492">
<path d="M0 24C0 10.7452 10.7452 0 24 0H1266C1279.25 0 1290 10.7452 1290 24V896C1290 909.255 1279.25 920 1266 920H24C10.7451 920 0 909.255 0 896V24Z" fill="white"/>
</clipPath>
<clipPath id="clip2_4600_47492">
<rect width="16" height="16" fill="white" transform="translate(236 72)"/>
</clipPath>
<clipPath id="clip3_4600_47492">
<rect width="15" height="15" fill="white" transform="translate(247 60)"/>
</clipPath>
<clipPath id="clip4_4600_47492">
<rect width="572" height="321.75" fill="white" transform="translate(157.5 246)"/>
</clipPath>
<clipPath id="clip5_4600_47492">
<rect width="576" height="324" fill="white" transform="translate(155.5 246)"/>
</clipPath>
<clipPath id="clip6_4600_47492">
<path d="M163.5 270C163.5 260.059 171.559 252 181.5 252H217.5C227.441 252 235.5 260.059 235.5 270C235.5 279.941 227.441 288 217.5 288H181.5C171.559 288 163.5 279.941 163.5 270Z" fill="white"/>
</clipPath>
</defs>
</svg>
