<svg xmlns="http://www.w3.org/2000/svg" xmlns:xlink="http://www.w3.org/1999/xlink" width="758" height="866" fill="none" viewBox="0 0 758 866"><g clip-path="url(#a)"><mask id="r" fill="#fff"><path d="M0 0h758v866H0z"/></mask><g clip-path="url(#b)"><path fill="#fff" d="M0 24C0 10.745 10.745 0 24 0h1242c13.25 0 24 10.745 24 24v872c0 13.255-10.75 24-24 24H24c-13.255 0-24-10.745-24-24z"/><mask id="c" fill="#fff"><path d="M0 0h1290v114H0z"/></mask><path fill="#fff" d="M0 0h1290v114H0z"/><path fill="#e3e3e3" d="M1290 114v-1H0v2h1290z" mask="url(#c)"/><path fill="#fff" d="M0 0h1290v113H0z"/><path fill="#13a463" d="M18 12c-2.75 0-5 2.25-5 5s2.25 5 5 5 5-2.25 5-5-2.25-5-5-5m-1 7.5L14.5 17l.705-.705L17 18.085l3.795-3.795.705.71z"/><text xml:space="preserve" fill="#141414" fill-opacity=".45" font-family="SF Pro Text" font-size="11" letter-spacing="0" style="white-space:pre"><tspan x="27" y="21.41">gespeichert</tspan></text><text xml:space="preserve" fill="#141414" fill-opacity=".85" font-family="SF Pro Text" font-size="14" font-weight="600" letter-spacing="0" style="white-space:pre"><tspan x="440.975" y="50.977">Durch das Spektrum: Ein Kreis aus Licht und Wahrnehmung</tspan></text><rect width="35" height="35" x="12.5" y="69.5" fill="#fff" rx="17.5"/><rect width="35" height="35" x="12.5" y="69.5" stroke="#e3e3e3" rx="17.5"/><path fill="#6e6e6e" d="M32.842 90.817 29.025 87l3.817-3.825L31.667 82l-5 5 5 5z"/><g style="mix-blend-mode:darken"><mask id="d" fill="#fff"><path d="M60 73a4 4 0 0 1 4-4h68v36H64a4 4 0 0 1-4-4z"/></mask><path fill="#fff" d="M60 73a4 4 0 0 1 4-4h68v36H64a4 4 0 0 1-4-4z"/><path fill="#f0f0f0" d="M59 73a5 5 0 0 1 5-5h68v2H64a3 3 0 0 0-3 3zm73 33H64a5 5 0 0 1-5-5h2a3 3 0 0 0 3 3h68zm-68 0a5 5 0 0 1-5-5V73a5 5 0 0 1 5-5v2a3 3 0 0 0-3 3v28a3 3 0 0 0 3 3zm68-37v36z" mask="url(#d)"/><path fill="#6e6e6e" d="M90.667 76v6.667H94V80a1.333 1.333 0 0 1 1.333-1.333h3.334A1.333 1.333 0 0 1 100 80v2.667h1.333V76zM88 85.333V84h2.667a1.333 1.333 0 0 1-1.334-1.333V76a1.333 1.333 0 0 1 1.334-1.333h10.666A1.333 1.333 0 0 1 102.667 76v6.667A1.334 1.334 0 0 1 101.333 84H104v1.333h-4c0 .74-.6 1.334-1.333 1.334h-3.334A1.333 1.333 0 0 1 94 85.333zm7.667 0a.333.333 0 1 0 0 .667.333.333 0 0 0 0-.667m2.666 0a.333.333 0 1 0 0 .667.333.333 0 0 0 0-.667m-1.666 0V86h.666v-.667zM95.333 80v4.667h3.334V80z"/><text xml:space="preserve" fill="#6e6e6e" font-family="SF Pro Text" font-size="10" font-weight="600" letter-spacing="0" style="white-space:pre"><tspan x="67.25" y="99.055">VORSCHAU</tspan></text></g><g style="mix-blend-mode:darken"><mask id="e" fill="#fff"><path d="M131 69h72v36h-72z"/></mask><path fill="#fff" d="M131 69h72v36h-72z"/><path fill="#f0f0f0" d="M131 69v1h72v-2h-72zm72 36v-1h-72v2h72z" mask="url(#e)"/><path fill="#6e6e6e" d="M168 77.333h-1v3.334l2.854 1.693.48-.807L168 80.167zM167.667 74a6 6 0 0 0-6 6h-2l2.64 2.687L165 80h-2a4.667 4.667 0 1 1 4.667 4.667 4.63 4.63 0 0 1-3.293-1.374l-.947.947a5.93 5.93 0 0 0 4.24 1.76 6 6 0 0 0 6-6 6 6 0 0 0-6-6"/><text xml:space="preserve" fill="#6e6e6e" font-family="SF Pro Text" font-size="10" font-weight="600" letter-spacing="0" style="white-space:pre"><tspan x="143.919" y="99.055">VERLAUF</tspan></text></g><g style="mix-blend-mode:darken"><mask id="f" fill="#fff"><path d="M202 69h80a4 4 0 0 1 4 4v28a4 4 0 0 1-4 4h-80z"/></mask><path fill="#fff" d="M202 69h80a4 4 0 0 1 4 4v28a4 4 0 0 1-4 4h-80z"/><path fill="#f0f0f0" d="M202 68h80a5 5 0 0 1 5 5h-2a3 3 0 0 0-3-3h-80zm85 33a5 5 0 0 1-5 5h-80v-2h80a3 3 0 0 0 3-3zm-85 4V69zm80-37a5 5 0 0 1 5 5v28a5 5 0 0 1-5 5v-2a3 3 0 0 0 3-3V73a3 3 0 0 0-3-3z" mask="url(#f)"/><g clip-path="url(#g)"><path fill="#6e6e6e" d="M244 87.333a.667.667 0 0 1-.666-.666v-2h-2.667a1.333 1.333 0 0 1-1.333-1.334v-6.666c0-.74.6-1.334 1.333-1.334H250a1.333 1.333 0 0 1 1.334 1.334v6.666A1.334 1.334 0 0 1 250 84.667h-2.733L244.8 87.14a.68.68 0 0 1-.466.193zm.667-4v2.054l2.053-2.054H250v-6.666h-9.333v6.666zM238 82h-1.333v-8A1.33 1.33 0 0 1 238 72.667h10.667V74H238z"/></g><text xml:space="preserve" fill="#6e6e6e" font-family="SF Pro Text" font-size="10" font-weight="600" letter-spacing="0" style="white-space:pre"><tspan x="208.18" y="99.055">KOMMENTARE</tspan></text><g clip-path="url(#h)"><path fill="#6e6e6e" d="M247 67.5a7.5 7.5 0 0 1 15 0 7.5 7.5 0 0 1-15 0"/><text xml:space="preserve" fill="#fff" font-family="SF Pro Text" font-size="10" font-weight="600" letter-spacing=".4" style="white-space:pre"><tspan x="251.229" y="71.055">3</tspan></text></g></g><g style="mix-blend-mode:darken"><mask id="i" fill="#fff"><path d="M338.333 73a4 4 0 0 1 4-4h68v36h-68a4 4 0 0 1-4-4z"/></mask><path fill="#fff" d="M338.333 73a4 4 0 0 1 4-4h68v36h-68a4 4 0 0 1-4-4z"/><path fill="#f0f0f0" d="M337.333 73a5 5 0 0 1 5-5h68v2h-68a3 3 0 0 0-3 3zm73 33h-68a5 5 0 0 1-5-5h2a3 3 0 0 0 3 3h68zm-68 0a5 5 0 0 1-5-5V73a5 5 0 0 1 5-5v2a3 3 0 0 0-3 3v28a3 3 0 0 0 3 3zm68-37v36z" mask="url(#i)"/><path fill="#6e6e6e" d="M377.666 78H371v-1.333h6.666zm0 2.667H371v-1.334h6.666zm-2 2.666H371V82h4.666zM374.333 74a.665.665 0 0 1 .471 1.138.665.665 0 0 1-1.138-.471.667.667 0 0 1 .667-.667M379 74h-2.787a2.01 2.01 0 0 0-1.88-1.333c-.867 0-1.6.56-1.88 1.333h-2.787a1.33 1.33 0 0 0-1.333 1.333v9.334A1.33 1.33 0 0 0 369.666 86H379a1.33 1.33 0 0 0 1.333-1.333v-9.334A1.33 1.33 0 0 0 379 74"/><text xml:space="preserve" fill="#6e6e6e" font-family="SF Pro Text" font-size="10" font-weight="600" letter-spacing="0" style="white-space:pre"><tspan x="346.647" y="99.055">AUFGABEN</tspan></text></g><g style="mix-blend-mode:darken"><mask id="j" fill="#fff"><path d="M409.333 69h72v36h-72z"/></mask><path fill="#fff" d="M409.333 69h72v36h-72z"/><path fill="#f0f0f0" d="M409.333 69v1h72v-2h-72zm72 36v-1h-72v2h72z" mask="url(#j)"/><path fill="#6e6e6e" d="M444.666 83.333h-4.667A1.333 1.333 0 0 1 438.666 82v-8a1.33 1.33 0 0 1 1.333-1.333h8V74h-8v8h4.667v-1.333l2.667 2-2.667 2zM449.999 86v-9.333h-7.333v4h-1.333v-4a1.333 1.333 0 0 1 1.333-1.334h7.333a1.333 1.333 0 0 1 1.334 1.334V86a1.334 1.334 0 0 1-1.334 1.333h-7.333A1.333 1.333 0 0 1 441.333 86v-1.333h1.333V86z"/><text xml:space="preserve" fill="#6e6e6e" font-family="SF Pro Text" font-size="10" font-weight="600" letter-spacing="0" style="white-space:pre"><tspan x="420.074" y="99.055">KOPIEREN</tspan></text></g><g style="mix-blend-mode:darken"><mask id="k" fill="#fff"><path d="M480.333 69h79a4 4 0 0 1 4 4v28a4 4 0 0 1-4 4h-79z"/></mask><path fill="#fff" d="M480.333 69h79a4 4 0 0 1 4 4v28a4 4 0 0 1-4 4h-79z"/><path fill="#f0f0f0" d="M480.333 68h79a5 5 0 0 1 5 5h-2a3 3 0 0 0-3-3h-79zm84 33a5 5 0 0 1-5 5h-79v-2h79a3 3 0 0 0 3-3zm-84 4V69zm79-37a5 5 0 0 1 5 5v28a5 5 0 0 1-5 5v-2a3 3 0 0 0 3-3V73a3 3 0 0 0-3-3z" mask="url(#k)"/><g clip-path="url(#l)"><path fill="#6e6e6e" d="M528.5 81.333h-.667a4.663 4.663 0 0 0-4.666-4.666h-.667v-.847a1.334 1.334 0 1 0-1.333 0v.847h-.667a4.664 4.664 0 0 0-4.667 4.666h-.666c-.367 0-.667.3-.667.667v2c0 .367.3.667.667.667h.666v.666c0 .74.6 1.334 1.334 1.334h9.333c.74 0 1.333-.594 1.333-1.334v-.666h.667c.367 0 .667-.3.667-.667v-2c0-.367-.3-.667-.667-.667m-.667 2H526.5v2h-9.333v-2h-1.334v-.666h1.334v-1.334A3.334 3.334 0 0 1 520.5 78h2.667a3.334 3.334 0 0 1 3.333 3.333v1.334h1.333zM519.5 81l1.573 1.573-.786.787-.787-.787-.787.787-.786-.787zm4.667 0 1.573 1.573-.787.787-.786-.787-.787.787-.787-.787z"/></g><text xml:space="preserve" fill="#6e6e6e" font-family="SF Pro Text" font-size="10" font-weight="600" letter-spacing="0" style="white-space:pre"><tspan x="486.647" y="99.055">ASSISTENTEN</tspan></text></g><g style="mix-blend-mode:darken"><mask id="m" fill="#fff"><path d="M615.667 73a4 4 0 0 1 4-4h68v36h-68a4 4 0 0 1-4-4z"/></mask><path fill="#fff" d="M615.667 73a4 4 0 0 1 4-4h68v36h-68a4 4 0 0 1-4-4z"/><path fill="#f0f0f0" d="M614.667 73a5 5 0 0 1 5-5h68v2h-68a3 3 0 0 0-3 3zm73 33h-68a5 5 0 0 1-5-5h2a3 3 0 0 0 3 3h68zm-68 0a5 5 0 0 1-5-5V73a5 5 0 0 1 5-5v2a3 3 0 0 0-3 3v28a3 3 0 0 0 3 3zm68-37v36z" mask="url(#m)"/><path fill="#6e6e6e" d="M658.333 82.667v-8A1.333 1.333 0 0 0 657 73.333h-8a1.333 1.333 0 0 0-1.333 1.334v8A1.333 1.333 0 0 0 649 84h8a1.333 1.333 0 0 0 1.333-1.333M651 80l1.353 1.807 1.98-2.474L657 82.667h-8zm-6-4v9.333a1.33 1.33 0 0 0 1.333 1.334h9.334v-1.334h-9.334V76"/><text xml:space="preserve" fill="#6e6e6e" font-family="SF Pro Text" font-size="10" font-weight="600" letter-spacing="0" style="white-space:pre"><tspan x="640.139" y="99.055">BILD</tspan></text></g><g style="mix-blend-mode:darken"><mask id="n" fill="#fff"><path d="M686.667 69h72v36h-72z"/></mask><path fill="#fff" d="M686.667 69h72v36h-72z"/><path fill="#f0f0f0" d="M686.667 69v1h72v-2h-72zm72 36v-1h-72v2h72z" mask="url(#n)"/><path fill="#6e6e6e" d="M717.333 76H716v9.333a1.33 1.33 0 0 0 1.333 1.334h9.334v-1.334h-9.334zM728 73.333h-8a1.333 1.333 0 0 0-1.333 1.334v8A1.333 1.333 0 0 0 720 84h8a1.333 1.333 0 0 0 1.333-1.333v-8A1.333 1.333 0 0 0 728 73.333m-5.333 8.334v-6l4 3z"/><text xml:space="preserve" fill="#6e6e6e" font-family="SF Pro Text" font-size="10" font-weight="600" letter-spacing="0" style="white-space:pre"><tspan x="706.979" y="99.055">VIDEO</tspan></text></g><g style="mix-blend-mode:darken"><path fill="#e7f5f6" d="M825.667 69.5a3.5 3.5 0 0 1 3.5 3.5v28a3.5 3.5 0 0 1-3.5 3.5h-67.5v-35z"/><path stroke="#bce2e6" d="M825.667 69.5a3.5 3.5 0 0 1 3.5 3.5v28a3.5 3.5 0 0 1-3.5 3.5h-67.5v-35z"/></g><text xml:space="preserve" fill="#141414" font-family="Arial" font-size="14" letter-spacing="0em" opacity=".8" style="white-space:pre"><tspan x="157.5" y="153.354">Hoch über den Dächern von Aarhus schwebt ein leuchtender Kreis wie ein stiller Horizont. </tspan><tspan x="157.5" y="174.354">Hier, auf dem Dach des ARoS Kunstmuseums, hat Olafur Eliasson mit Your rainbow </tspan><tspan x="157.5" y="195.354">panorama ein Werk in die Silhouette der Stadt eingeschrieben – zugleich Architektur, </tspan><tspan x="157.5" y="216.354">Aussichtspunkt und sinnliche Versuchsanordnung.</tspan></text><rect width="578" height="354" x="154.5" y="243" stroke="#75c3cb" stroke-width="2" opacity=".5" rx="3"/><path fill="url(#o)" d="M157.5 246h572v321.75h-572z"/><g filter="url(#p)"><g clip-path="url(#q)"><path fill="#fff" d="M163.5 270c0-9.941 8.059-18 18-18h36c9.941 0 18 8.059 18 18s-8.059 18-18 18h-36c-9.941 0-18-8.059-18-18"/><path fill="#fff" d="M163.5 256a4 4 0 0 1 4-4h28a4 4 0 0 1 4 4v28a4 4 0 0 1-4 4h-28a4 4 0 0 1-4-4z"/><path fill="#6e6e6e" d="M188.166 272.667v-8a1.333 1.333 0 0 0-1.333-1.334h-8a1.334 1.334 0 0 0-1.333 1.334v8a1.333 1.333 0 0 0 1.333 1.333h8a1.333 1.333 0 0 0 1.333-1.333M180.833 270l1.353 1.807 1.98-2.474 2.667 3.334h-8zm-6-4v9.333a1.333 1.333 0 0 0 1.333 1.334h9.334v-1.334h-9.334V266"/><path fill="#fff" d="M199.5 256a4 4 0 0 1 4-4h28a4 4 0 0 1 4 4v28a4 4 0 0 1-4 4h-28a4 4 0 0 1-4-4z"/><path fill="#6e6e6e" d="M215.5 272.667v-4h-2.667L217.5 264l4.666 4.667H219.5v4zm-2.667 2.666V274h9.333v1.333z"/></g><path stroke="#e3e3e3" d="M181.5 252.5h36c9.665 0 17.5 7.835 17.5 17.5s-7.835 17.5-17.5 17.5h-36c-9.665 0-17.5-7.835-17.5-17.5s7.835-17.5 17.5-17.5Z"/></g><text xml:space="preserve" fill="#141414" font-family="Arial" font-size="11" letter-spacing="-.01em" style="white-space:pre"><tspan x="157.5" y="590.563">Olafur Eliassons Your Rainbow Panorama auf dem Dach des ARoS</tspan></text><text xml:space="preserve" fill="#141414" font-family="Arial" font-size="14" letter-spacing="0em" opacity=".8" style="white-space:pre"><tspan x="157.5" y="633.104">Der dänisch-isländische Künstler, bekannt für seine Arbeiten zu Licht, Wahrnehmung und </tspan><tspan x="157.5" y="654.104">dem Verhältnis zwischen Mensch und Umwelt, entwarf die Installation als begehbares </tspan><tspan x="157.5" y="675.104">Farbspektrum. Ein kreisförmiger Korridor aus Glas entfaltet sich in allen Farben des </tspan><tspan x="157.5" y="696.104">Regenbogens und lädt dazu ein, ihn Schritt für Schritt zu durchschreiten. Mit jeder </tspan><tspan x="157.5" y="717.104">Bewegung verändert sich der Blick auf die Stadt: Straßen lösen sich in farbige Flächen auf, </tspan><tspan x="157.5" y="738.104">vertraute Gebäude erscheinen wie durch einen emotionalen Filter neu interpretiert.</tspan></text><text xml:space="preserve" fill="#141414" font-family="Arial" font-size="14" letter-spacing="0em" opacity=".8" style="white-space:pre"><tspan x="157.5" y="783.104">Was zunächst wie ein spektakuläres Wahrzeichen wirkt, entpuppt sich bei näherer </tspan><tspan x="157.5" y="804.104">Erfahrung als feinsinnige Untersuchung des Sehens selbst. Das Panorama rahmt Aarhus </tspan><tspan x="157.5" y="825.104">nicht nur – es verwandelt die Stadt. Die Besucherinnen und Besucher werden Teil eines </tspan><tspan x="157.5" y="846.104">Zusammenspiels von Körper, Raum und Wahrnehmung. Gehen wird zum Sehen, und </tspan><tspan x="157.5" y="867.104">Sehen zu einem Prozess, der von Farbe, Bewegung und Bewusstsein geprägt ist.</tspan></text></g><path stroke="#141414" stroke-width="2" d="M24 1h1242c12.7 0 23 10.298 23 23v872c0 12.703-10.3 23-23 23H24c-12.702 0-23-10.297-23-23V24C1 11.298 11.298 1 24 1Z"/></g><path fill="#d4d4d4" d="M758 0h-1v866h2V0z" mask="url(#r)"/><defs><clipPath id="a"><path fill="#fff" d="M0 0h758v866H0z"/></clipPath><clipPath id="b"><path fill="#fff" d="M0 24C0 10.745 10.745 0 24 0h1242c13.25 0 24 10.745 24 24v872c0 13.255-10.75 24-24 24H24c-13.255 0-24-10.745-24-24z"/></clipPath><clipPath id="g"><path fill="#fff" d="M236 72h16v16h-16z"/></clipPath><clipPath id="h"><path fill="#fff" d="M247 60h15v15h-15z"/></clipPath><clipPath id="l"><path fill="#fff" d="M513.833 72h16v16h-16z"/></clipPath><clipPath id="q"><path fill="#fff" d="M163.5 270c0-9.941 8.059-18 18-18h36c9.941 0 18 8.059 18 18s-8.059 18-18 18h-36c-9.941 0-18-8.059-18-18"/></clipPath><pattern id="o" width="1" height="1" patternContentUnits="objectBoundingBox"><use xlink:href="#s" transform="matrix(.00076 0 0 .00136 -.004 0)"/></pattern><filter id="p" width="98" height="62" x="150.5" y="241" color-interpolation-filters="sRGB" filterUnits="userSpaceOnUse"><feFlood flood-opacity="0" result="BackgroundImageFix"/><feColorMatrix in="SourceAlpha" result="hardAlpha" values="0 0 0 0 0 0 0 0 0 0 0 0 0 0 0 0 0 0 127 0"/><feOffset dy="2"/><feGaussianBlur stdDeviation="6.5"/><feColorMatrix values="0 0 0 0 0.0784314 0 0 0 0 0.0784314 0 0 0 0 0.0784314 0 0 0 0.06 0"/><feBlend in2="BackgroundImageFix" result="effect1_dropShadow_4600_47456"/><feBlend in="SourceGraphic" in2="effect1_dropShadow_4600_47456" result="shape"/></filter><image xlink:href="stage-5.embedded-image.jpg" id="s" width="1320" height="736" preserveAspectRatio="none"/></defs></svg>