<?xml version="1.0" encoding="utf-8"?>
<!-- Generator: Adobe Illustrator 22.1.0, SVG Export Plug-In . SVG Version: 6.00 Build 0)  -->
<svg version="1.1" id="Ebene_1" xmlns="http://www.w3.org/2000/svg" xmlns:xlink="http://www.w3.org/1999/xlink" x="0px" y="0px"
	 viewBox="0 0 100 100" style="enable-background:new 0 0 100 100;" xml:space="preserve">
<style type="text/css">
	.st0{clip-path:url(#SVGID_2_);}
	.st1{fill:#FFFFFF;}
</style>
<g>
	<defs>
		<circle id="SVGID_1_" cx="50" cy="50" r="50"/>
	</defs>
	<use xlink:href="#SVGID_1_"  style="overflow:visible;fill:#3A2F3C;"/>
	<clipPath id="SVGID_2_">
		<use xlink:href="#SVGID_1_"  style="overflow:visible;"/>
	</clipPath>
	<g class="st0">
		<g>
			<g>
				<g>
					<path class="st1" d="M-8.2,24c-0.4,0-0.8,0-1.2,0c-0.3,0-0.7,0-1,0c-0.2,0-0.3-0.1-0.3-0.3c0-1.1-0.2-2.2-0.5-3.3
						c-1.3-4.6-4.2-7.8-8.7-9.6c-1.4-0.5-2.8-0.8-4.3-0.8c-0.2,0-0.3,0-0.5,0c0,0-0.1,0-0.1,0c0-0.8,0-1.6,0-2.4
						C-15.4,7.5-8.2,14.8-8.2,24z"/>
					<path class="st1" d="M-13.2,23.9c-0.8,0-1.6,0-2.4,0c-0.1-2.4-0.9-4.6-2.6-6.3c-1.7-1.7-3.9-2.6-6.3-2.6c0-0.8,0-1.6,0-2.4
						C-18.4,12.5-13.2,17.5-13.2,23.9z"/>
					<path class="st1" d="M-24.6,21.7c0-1.3,1-2.3,2.3-2.3c1.3,0,2.3,1,2.3,2.3c0,1.3-1,2.3-2.3,2.3C-23.6,24-24.6,22.9-24.6,21.7z"
						/>
				</g>
				<g>
					<path class="st1" d="M30.1,24.1c-0.4,0-0.8,0-1.2,0c-0.3,0-0.7,0-1,0c-0.2,0-0.3-0.1-0.3-0.3c0-1.1-0.2-2.2-0.5-3.3
						c-1.3-4.6-4.2-7.8-8.7-9.6c-1.4-0.5-2.8-0.8-4.3-0.8c-0.2,0-0.3,0-0.5,0c0,0-0.1,0-0.1,0c0-0.8,0-1.6,0-2.4
						C22.8,7.7,30.1,15,30.1,24.1z"/>
					<path class="st1" d="M25.1,24.1c-0.8,0-1.6,0-2.4,0c-0.1-2.4-0.9-4.6-2.6-6.3c-1.7-1.7-3.9-2.6-6.3-2.6c0-0.8,0-1.6,0-2.4
						C19.8,12.7,25.1,17.7,25.1,24.1z"/>
					<path class="st1" d="M13.6,21.8c0-1.3,1-2.3,2.3-2.3c1.3,0,2.3,1,2.3,2.3c0,1.3-1,2.3-2.3,2.3C14.7,24.1,13.6,23.1,13.6,21.8z"
						/>
				</g>
				<g>
					<path class="st1" d="M-8.2,5.4c-0.4,0-0.8,0-1.2,0c-0.3,0-0.7,0-1,0c-0.2,0-0.3-0.1-0.3-0.3c0-1.1-0.2-2.2-0.5-3.3
						c-1.3-4.6-4.2-7.8-8.7-9.6c-1.4-0.5-2.8-0.8-4.3-0.8c-0.2,0-0.3,0-0.5,0c0,0-0.1,0-0.1,0c0-0.8,0-1.6,0-2.4
						C-15.4-11-8.2-3.7-8.2,5.4z"/>
					<path class="st1" d="M-13.2,5.4c-0.8,0-1.6,0-2.4,0c-0.1-2.4-0.9-4.6-2.6-6.3c-1.7-1.7-3.9-2.6-6.3-2.6c0-0.8,0-1.6,0-2.4
						C-18.4-6-13.2-1-13.2,5.4z"/>
					<path class="st1" d="M-24.6,3.2c0-1.3,1-2.3,2.3-2.3c1.3,0,2.3,1,2.3,2.3c0,1.3-1,2.3-2.3,2.3C-23.6,5.4-24.6,4.4-24.6,3.2z"/>
				</g>
				<g>
					<path class="st1" d="M30.1,5.6c-0.4,0-0.8,0-1.2,0c-0.3,0-0.7,0-1,0c-0.2,0-0.3-0.1-0.3-0.3c0-1.1-0.2-2.2-0.5-3.3
						c-1.3-4.6-4.2-7.8-8.7-9.6c-1.4-0.5-2.8-0.8-4.3-0.8c-0.2,0-0.3,0-0.5,0c0,0-0.1,0-0.1,0c0-0.8,0-1.6,0-2.4
						C22.8-10.8,30.1-3.5,30.1,5.6z"/>
					<path class="st1" d="M25.1,5.6c-0.8,0-1.6,0-2.4,0C22.6,3.2,21.7,1,20-0.7c-1.7-1.7-3.9-2.6-6.3-2.6c0-0.8,0-1.6,0-2.4
						C19.8-5.8,25.1-0.8,25.1,5.6z"/>
					<path class="st1" d="M13.6,3.3c0-1.3,1-2.3,2.3-2.3c1.3,0,2.3,1,2.3,2.3c0,1.3-1,2.3-2.3,2.3C14.7,5.6,13.6,4.6,13.6,3.3z"/>
				</g>
				<g>
					<path class="st1" d="M11,14.5c-0.4,0-0.8,0-1.2,0c-0.3,0-0.7,0-1,0c-0.2,0-0.3-0.1-0.3-0.3c0-1.1-0.2-2.2-0.5-3.3
						C6.8,6.3,3.9,3.1-0.5,1.4c-1.4-0.5-2.8-0.8-4.3-0.8c-0.2,0-0.3,0-0.5,0c0,0-0.1,0-0.1,0c0-0.8,0-1.6,0-2.4
						C3.8-1.9,11.1,5.4,11,14.5z"/>
					<path class="st1" d="M6,14.5c-0.8,0-1.6,0-2.4,0C3.5,12.1,2.7,9.9,1,8.2c-1.7-1.7-3.9-2.6-6.3-2.6c0-0.8,0-1.6,0-2.4
						C0.8,3.1,6,8.1,6,14.5z"/>
					<path class="st1" d="M-5.4,12.2c0-1.3,1-2.3,2.3-2.3c1.3,0,2.3,1,2.3,2.3c0,1.3-1,2.3-2.3,2.3C-4.4,14.5-5.4,13.5-5.4,12.2z"/>
				</g>
				<g>
					<path class="st1" d="M49.3,14.7c-0.4,0-0.8,0-1.2,0c-0.3,0-0.7,0-1,0c-0.2,0-0.3-0.1-0.3-0.3c0-1.1-0.2-2.2-0.5-3.3
						c-1.3-4.6-4.2-7.8-8.7-9.6c-1.4-0.5-2.8-0.8-4.3-0.8c-0.2,0-0.3,0-0.5,0c0,0-0.1,0-0.1,0c0-0.8,0-1.6,0-2.4
						C42-1.8,49.3,5.6,49.3,14.7z"/>
					<path class="st1" d="M44.3,14.7c-0.8,0-1.6,0-2.4,0c-0.1-2.4-0.9-4.6-2.6-6.3c-1.7-1.7-3.9-2.6-6.3-2.6c0-0.8,0-1.6,0-2.4
						C39,3.2,44.3,8.2,44.3,14.7z"/>
					<path class="st1" d="M32.8,12.4c0-1.3,1-2.3,2.3-2.3c1.3,0,2.3,1,2.3,2.3c0,1.3-1,2.3-2.3,2.3C33.9,14.7,32.8,13.7,32.8,12.4z"
						/>
				</g>
				<g>
					<path class="st1" d="M11,32.7c-0.4,0-0.8,0-1.2,0c-0.3,0-0.7,0-1,0c-0.2,0-0.3-0.1-0.3-0.3c0-1.1-0.2-2.2-0.5-3.3
						c-1.3-4.6-4.2-7.8-8.7-9.6c-1.4-0.5-2.8-0.8-4.3-0.8c-0.2,0-0.3,0-0.5,0c0,0-0.1,0-0.1,0c0-0.8,0-1.6,0-2.4
						C3.8,16.2,11.1,23.6,11,32.7z"/>
					<path class="st1" d="M6,32.7c-0.8,0-1.6,0-2.4,0c-0.1-2.4-0.9-4.6-2.6-6.3c-1.7-1.7-3.9-2.6-6.3-2.6c0-0.8,0-1.6,0-2.4
						C0.8,21.2,6,26.2,6,32.7z"/>
					<path class="st1" d="M-5.4,30.4c0-1.3,1-2.3,2.3-2.3c1.3,0,2.3,1,2.3,2.3c0,1.3-1,2.3-2.3,2.3C-4.4,32.7-5.4,31.6-5.4,30.4z"/>
				</g>
				<g>
					<path class="st1" d="M49.3,32.9c-0.4,0-0.8,0-1.2,0c-0.3,0-0.7,0-1,0c-0.2,0-0.3-0.1-0.3-0.3c0-1.1-0.2-2.2-0.5-3.3
						c-1.3-4.6-4.2-7.8-8.7-9.6c-1.4-0.5-2.8-0.8-4.3-0.8c-0.2,0-0.3,0-0.5,0c0,0-0.1,0-0.1,0c0-0.8,0-1.6,0-2.4
						C42,16.4,49.3,23.7,49.3,32.9z"/>
					<path class="st1" d="M44.3,32.8c-0.8,0-1.6,0-2.4,0c-0.1-2.4-0.9-4.6-2.6-6.3c-1.7-1.7-3.9-2.6-6.3-2.6c0-0.8,0-1.6,0-2.4
						C39,21.4,44.3,26.4,44.3,32.8z"/>
					<path class="st1" d="M32.8,30.6c0-1.3,1-2.3,2.3-2.3c1.3,0,2.3,1,2.3,2.3c0,1.3-1,2.3-2.3,2.3C33.9,32.9,32.8,31.8,32.8,30.6z"
						/>
				</g>
			</g>
			<g>
				<g>
					<path class="st1" d="M-8.2,61c-0.4,0-0.8,0-1.2,0c-0.3,0-0.7,0-1,0c-0.2,0-0.3-0.1-0.3-0.3c0-1.1-0.2-2.2-0.5-3.3
						c-1.3-4.6-4.2-7.8-8.7-9.6c-1.4-0.5-2.8-0.8-4.3-0.8c-0.2,0-0.3,0-0.5,0c0,0-0.1,0-0.1,0c0-0.8,0-1.6,0-2.4
						C-15.4,44.5-8.2,51.8-8.2,61z"/>
					<path class="st1" d="M-13.2,61c-0.8,0-1.6,0-2.4,0c-0.1-2.4-0.9-4.6-2.6-6.3c-1.7-1.7-3.9-2.6-6.3-2.6c0-0.8,0-1.6,0-2.4
						C-18.4,49.5-13.2,54.5-13.2,61z"/>
					<path class="st1" d="M-24.6,58.7c0-1.3,1-2.3,2.3-2.3c1.3,0,2.3,1,2.3,2.3c0,1.3-1,2.3-2.3,2.3C-23.6,61-24.6,59.9-24.6,58.7z"
						/>
				</g>
				<g>
					<path class="st1" d="M30.1,61.1c-0.4,0-0.8,0-1.2,0c-0.3,0-0.7,0-1,0c-0.2,0-0.3-0.1-0.3-0.3c0-1.1-0.2-2.2-0.5-3.3
						c-1.3-4.6-4.2-7.8-8.7-9.6c-1.4-0.5-2.8-0.8-4.3-0.8c-0.2,0-0.3,0-0.5,0c0,0-0.1,0-0.1,0c0-0.8,0-1.6,0-2.4
						C22.8,44.7,30.1,52,30.1,61.1z"/>
					<path class="st1" d="M25.1,61.1c-0.8,0-1.6,0-2.4,0c-0.1-2.4-0.9-4.6-2.6-6.3c-1.7-1.7-3.9-2.6-6.3-2.6c0-0.8,0-1.6,0-2.4
						C19.8,49.7,25.1,54.7,25.1,61.1z"/>
					<path class="st1" d="M13.6,58.8c0-1.3,1-2.3,2.3-2.3c1.3,0,2.3,1,2.3,2.3c0,1.3-1,2.3-2.3,2.3C14.7,61.1,13.6,60.1,13.6,58.8z"
						/>
				</g>
				<g>
					<path class="st1" d="M-8.2,42.5c-0.4,0-0.8,0-1.2,0c-0.3,0-0.7,0-1,0c-0.2,0-0.3-0.1-0.3-0.3c0-1.1-0.2-2.2-0.5-3.3
						c-1.3-4.6-4.2-7.8-8.7-9.6c-1.4-0.5-2.8-0.8-4.3-0.8c-0.2,0-0.3,0-0.5,0c0,0-0.1,0-0.1,0c0-0.8,0-1.6,0-2.4
						C-15.4,26-8.2,33.3-8.2,42.5z"/>
					<path class="st1" d="M-13.2,42.4c-0.8,0-1.6,0-2.4,0c-0.1-2.4-0.9-4.6-2.6-6.3c-1.7-1.7-3.9-2.6-6.3-2.6c0-0.8,0-1.6,0-2.4
						C-18.4,31-13.2,36-13.2,42.4z"/>
					<path class="st1" d="M-24.6,40.2c0-1.3,1-2.3,2.3-2.3c1.3,0,2.3,1,2.3,2.3c0,1.3-1,2.3-2.3,2.3C-23.6,42.5-24.6,41.4-24.6,40.2
						z"/>
				</g>
				<g>
					<path class="st1" d="M30.1,42.6c-0.4,0-0.8,0-1.2,0c-0.3,0-0.7,0-1,0c-0.2,0-0.3-0.1-0.3-0.3c0-1.1-0.2-2.2-0.5-3.3
						c-1.3-4.6-4.2-7.8-8.7-9.6c-1.4-0.5-2.8-0.8-4.3-0.8c-0.2,0-0.3,0-0.5,0c0,0-0.1,0-0.1,0c0-0.8,0-1.6,0-2.4
						C22.8,26.2,30.1,33.5,30.1,42.6z"/>
					<path class="st1" d="M25.1,42.6c-0.8,0-1.6,0-2.4,0c-0.1-2.4-0.9-4.6-2.6-6.3c-1.7-1.7-3.9-2.6-6.3-2.6c0-0.8,0-1.6,0-2.4
						C19.8,31.2,25.1,36.2,25.1,42.6z"/>
					<path class="st1" d="M13.6,40.3c0-1.3,1-2.3,2.3-2.3c1.3,0,2.3,1,2.3,2.3c0,1.3-1,2.3-2.3,2.3C14.7,42.6,13.6,41.6,13.6,40.3z"
						/>
				</g>
				<g>
					<path class="st1" d="M11,51.5c-0.4,0-0.8,0-1.2,0c-0.3,0-0.7,0-1,0c-0.2,0-0.3-0.1-0.3-0.3c0-1.1-0.2-2.2-0.5-3.3
						c-1.3-4.6-4.2-7.8-8.7-9.6c-1.4-0.5-2.8-0.8-4.3-0.8c-0.2,0-0.3,0-0.5,0c0,0-0.1,0-0.1,0c0-0.8,0-1.6,0-2.4
						C3.8,35.1,11.1,42.4,11,51.5z"/>
					<path class="st1" d="M6,51.5c-0.8,0-1.6,0-2.4,0c-0.1-2.4-0.9-4.6-2.6-6.3c-1.7-1.7-3.9-2.6-6.3-2.6c0-0.8,0-1.6,0-2.4
						C0.8,40.1,6,45.1,6,51.5z"/>
					<path class="st1" d="M-5.4,49.2c0-1.3,1-2.3,2.3-2.3c1.3,0,2.3,1,2.3,2.3c0,1.3-1,2.3-2.3,2.3C-4.4,51.5-5.4,50.5-5.4,49.2z"/>
				</g>
				<g>
					<path class="st1" d="M49.3,51.7c-0.4,0-0.8,0-1.2,0c-0.3,0-0.7,0-1,0c-0.2,0-0.3-0.1-0.3-0.3c0-1.1-0.2-2.2-0.5-3.3
						c-1.3-4.6-4.2-7.8-8.7-9.6c-1.4-0.5-2.8-0.8-4.3-0.8c-0.2,0-0.3,0-0.5,0c0,0-0.1,0-0.1,0c0-0.8,0-1.6,0-2.4
						C42,35.2,49.3,42.6,49.3,51.7z"/>
					<path class="st1" d="M44.3,51.7c-0.8,0-1.6,0-2.4,0c-0.1-2.4-0.9-4.6-2.6-6.3c-1.7-1.7-3.9-2.6-6.3-2.6c0-0.8,0-1.6,0-2.4
						C39,40.2,44.3,45.3,44.3,51.7z"/>
					<path class="st1" d="M32.8,49.4c0-1.3,1-2.3,2.3-2.3c1.3,0,2.3,1,2.3,2.3c0,1.3-1,2.3-2.3,2.3C33.9,51.7,32.8,50.7,32.8,49.4z"
						/>
				</g>
				<g>
					<path class="st1" d="M11,69.7c-0.4,0-0.8,0-1.2,0c-0.3,0-0.7,0-1,0c-0.2,0-0.3-0.1-0.3-0.3c0-1.1-0.2-2.2-0.5-3.3
						c-1.3-4.6-4.2-7.8-8.7-9.6c-1.4-0.5-2.8-0.8-4.3-0.8c-0.2,0-0.3,0-0.5,0c0,0-0.1,0-0.1,0c0-0.8,0-1.6,0-2.4
						C3.8,53.2,11.1,60.6,11,69.7z"/>
					<path class="st1" d="M6,69.7c-0.8,0-1.6,0-2.4,0c-0.1-2.4-0.9-4.6-2.6-6.3c-1.7-1.7-3.9-2.6-6.3-2.6c0-0.8,0-1.6,0-2.4
						C0.8,58.2,6,63.2,6,69.7z"/>
					<path class="st1" d="M-5.4,67.4c0-1.3,1-2.3,2.3-2.3c1.3,0,2.3,1,2.3,2.3c0,1.3-1,2.3-2.3,2.3C-4.4,69.7-5.4,68.6-5.4,67.4z"/>
				</g>
				<g>
					<path class="st1" d="M49.3,69.9c-0.4,0-0.8,0-1.2,0c-0.3,0-0.7,0-1,0c-0.2,0-0.3-0.1-0.3-0.3c0-1.1-0.2-2.2-0.5-3.3
						c-1.3-4.6-4.2-7.8-8.7-9.6c-1.4-0.5-2.8-0.8-4.3-0.8c-0.2,0-0.3,0-0.5,0c0,0-0.1,0-0.1,0c0-0.8,0-1.6,0-2.4
						C42,53.4,49.3,60.7,49.3,69.9z"/>
					<path class="st1" d="M44.3,69.9c-0.8,0-1.6,0-2.4,0c-0.1-2.4-0.9-4.6-2.6-6.3c-1.7-1.7-3.9-2.6-6.3-2.6c0-0.8,0-1.6,0-2.4
						C39,58.4,44.3,63.4,44.3,69.9z"/>
					<path class="st1" d="M32.8,67.6c0-1.3,1-2.3,2.3-2.3c1.3,0,2.3,1,2.3,2.3c0,1.3-1,2.3-2.3,2.3C33.9,69.9,32.8,68.8,32.8,67.6z"
						/>
				</g>
			</g>
			<g>
				<g>
					<path class="st1" d="M-8.2,98c-0.4,0-0.8,0-1.2,0c-0.3,0-0.7,0-1,0c-0.2,0-0.3-0.1-0.3-0.3c0-1.1-0.2-2.2-0.5-3.3
						c-1.3-4.6-4.2-7.8-8.7-9.6c-1.4-0.5-2.8-0.8-4.3-0.8c-0.2,0-0.3,0-0.5,0c0,0-0.1,0-0.1,0c0-0.8,0-1.6,0-2.4
						C-15.4,81.5-8.2,88.8-8.2,98z"/>
					<path class="st1" d="M-13.2,98c-0.8,0-1.6,0-2.4,0c-0.1-2.4-0.9-4.6-2.6-6.3c-1.7-1.7-3.9-2.6-6.3-2.6c0-0.8,0-1.6,0-2.4
						C-18.4,86.5-13.2,91.5-13.2,98z"/>
					<path class="st1" d="M-24.6,95.7c0-1.3,1-2.3,2.3-2.3c1.3,0,2.3,1,2.3,2.3c0,1.3-1,2.3-2.3,2.3C-23.6,98-24.6,96.9-24.6,95.7z"
						/>
				</g>
				<g>
					<path class="st1" d="M30.1,98.1c-0.4,0-0.8,0-1.2,0c-0.3,0-0.7,0-1,0c-0.2,0-0.3-0.1-0.3-0.3c0-1.1-0.2-2.2-0.5-3.3
						c-1.3-4.6-4.2-7.8-8.7-9.6c-1.4-0.5-2.8-0.8-4.3-0.8c-0.2,0-0.3,0-0.5,0c0,0-0.1,0-0.1,0c0-0.8,0-1.6,0-2.4
						C22.8,81.7,30.1,89,30.1,98.1z"/>
					<path class="st1" d="M25.1,98.1c-0.8,0-1.6,0-2.4,0c-0.1-2.4-0.9-4.6-2.6-6.3c-1.7-1.7-3.9-2.6-6.3-2.6c0-0.8,0-1.6,0-2.4
						C19.8,86.7,25.1,91.7,25.1,98.1z"/>
					<path class="st1" d="M13.6,95.9c0-1.3,1-2.3,2.3-2.3c1.3,0,2.3,1,2.3,2.3c0,1.3-1,2.3-2.3,2.3C14.7,98.1,13.6,97.1,13.6,95.9z"
						/>
				</g>
				<g>
					<path class="st1" d="M-8.2,79.5c-0.4,0-0.8,0-1.2,0c-0.3,0-0.7,0-1,0c-0.2,0-0.3-0.1-0.3-0.3c0-1.1-0.2-2.2-0.5-3.3
						c-1.3-4.6-4.2-7.8-8.7-9.6c-1.4-0.5-2.8-0.8-4.3-0.8c-0.2,0-0.3,0-0.5,0c0,0-0.1,0-0.1,0c0-0.8,0-1.6,0-2.4
						C-15.4,63-8.2,70.3-8.2,79.5z"/>
					<path class="st1" d="M-13.2,79.5c-0.8,0-1.6,0-2.4,0c-0.1-2.4-0.9-4.6-2.6-6.3c-1.7-1.7-3.9-2.6-6.3-2.6c0-0.8,0-1.6,0-2.4
						C-18.4,68-13.2,73-13.2,79.5z"/>
					<path class="st1" d="M-24.6,77.2c0-1.3,1-2.3,2.3-2.3c1.3,0,2.3,1,2.3,2.3c0,1.3-1,2.3-2.3,2.3C-23.6,79.5-24.6,78.4-24.6,77.2
						z"/>
				</g>
				<g>
					<path class="st1" d="M30.1,79.6c-0.4,0-0.8,0-1.2,0c-0.3,0-0.7,0-1,0c-0.2,0-0.3-0.1-0.3-0.3c0-1.1-0.2-2.2-0.5-3.3
						c-1.3-4.6-4.2-7.8-8.7-9.6c-1.4-0.5-2.8-0.8-4.3-0.8c-0.2,0-0.3,0-0.5,0c0,0-0.1,0-0.1,0c0-0.8,0-1.6,0-2.4
						C22.8,63.2,30.1,70.5,30.1,79.6z"/>
					<path class="st1" d="M25.1,79.6c-0.8,0-1.6,0-2.4,0c-0.1-2.4-0.9-4.6-2.6-6.3c-1.7-1.7-3.9-2.6-6.3-2.6c0-0.8,0-1.6,0-2.4
						C19.8,68.2,25.1,73.2,25.1,79.6z"/>
					<path class="st1" d="M13.6,77.3c0-1.3,1-2.3,2.3-2.3c1.3,0,2.3,1,2.3,2.3c0,1.3-1,2.3-2.3,2.3C14.7,79.6,13.6,78.6,13.6,77.3z"
						/>
				</g>
				<g>
					<path class="st1" d="M11,88.5c-0.4,0-0.8,0-1.2,0c-0.3,0-0.7,0-1,0c-0.2,0-0.3-0.1-0.3-0.3c0-1.1-0.2-2.2-0.5-3.3
						c-1.3-4.6-4.2-7.8-8.7-9.6c-1.4-0.5-2.8-0.8-4.3-0.8c-0.2,0-0.3,0-0.5,0c0,0-0.1,0-0.1,0c0-0.8,0-1.6,0-2.4
						C3.8,72.1,11.1,79.4,11,88.5z"/>
					<path class="st1" d="M6,88.5c-0.8,0-1.6,0-2.4,0C3.5,86.1,2.7,84,1,82.2c-1.7-1.7-3.9-2.6-6.3-2.6c0-0.8,0-1.6,0-2.4
						C0.8,77.1,6,82.1,6,88.5z"/>
					<path class="st1" d="M-5.4,86.2c0-1.3,1-2.3,2.3-2.3c1.3,0,2.3,1,2.3,2.3c0,1.3-1,2.3-2.3,2.3C-4.4,88.5-5.4,87.5-5.4,86.2z"/>
				</g>
				<g>
					<path class="st1" d="M49.3,88.7c-0.4,0-0.8,0-1.2,0c-0.3,0-0.7,0-1,0c-0.2,0-0.3-0.1-0.3-0.3c0-1.1-0.2-2.2-0.5-3.3
						c-1.3-4.6-4.2-7.8-8.7-9.6c-1.4-0.5-2.8-0.8-4.3-0.8c-0.2,0-0.3,0-0.5,0c0,0-0.1,0-0.1,0c0-0.8,0-1.6,0-2.4
						C42,72.3,49.3,79.6,49.3,88.7z"/>
					<path class="st1" d="M44.3,88.7c-0.8,0-1.6,0-2.4,0c-0.1-2.4-0.9-4.6-2.6-6.3c-1.7-1.7-3.9-2.6-6.3-2.6c0-0.8,0-1.6,0-2.4
						C39,77.3,44.3,82.3,44.3,88.7z"/>
					<path class="st1" d="M32.8,86.4c0-1.3,1-2.3,2.3-2.3c1.3,0,2.3,1,2.3,2.3c0,1.3-1,2.3-2.3,2.3C33.9,88.7,32.8,87.7,32.8,86.4z"
						/>
				</g>
				<g>
					<path class="st1" d="M11,106.7c-0.4,0-0.8,0-1.2,0c-0.3,0-0.7,0-1,0c-0.2,0-0.3-0.1-0.3-0.3c0-1.1-0.2-2.2-0.5-3.3
						c-1.3-4.6-4.2-7.8-8.7-9.6c-1.4-0.5-2.8-0.8-4.3-0.8c-0.2,0-0.3,0-0.5,0c0,0-0.1,0-0.1,0c0-0.8,0-1.6,0-2.4
						C3.8,90.2,11.1,97.6,11,106.7z"/>
					<path class="st1" d="M6,106.7c-0.8,0-1.6,0-2.4,0c-0.1-2.4-0.9-4.6-2.6-6.3c-1.7-1.7-3.9-2.6-6.3-2.6c0-0.8,0-1.6,0-2.4
						C0.8,95.2,6,100.2,6,106.7z"/>
					<path class="st1" d="M-5.4,104.4c0-1.3,1-2.3,2.3-2.3c1.3,0,2.3,1,2.3,2.3c0,1.3-1,2.3-2.3,2.3C-4.4,106.7-5.4,105.7-5.4,104.4
						z"/>
				</g>
				<g>
					<path class="st1" d="M49.3,106.9c-0.4,0-0.8,0-1.2,0c-0.3,0-0.7,0-1,0c-0.2,0-0.3-0.1-0.3-0.3c0-1.1-0.2-2.2-0.5-3.3
						c-1.3-4.6-4.2-7.8-8.7-9.6c-1.4-0.5-2.8-0.8-4.3-0.8c-0.2,0-0.3,0-0.5,0c0,0-0.1,0-0.1,0c0-0.8,0-1.6,0-2.4
						C42,90.4,49.3,97.8,49.3,106.9z"/>
					<path class="st1" d="M44.3,106.9c-0.8,0-1.6,0-2.4,0c-0.1-2.4-0.9-4.6-2.6-6.3c-1.7-1.7-3.9-2.6-6.3-2.6c0-0.8,0-1.6,0-2.4
						C39,95.4,44.3,100.4,44.3,106.9z"/>
					<path class="st1" d="M32.8,104.6c0-1.3,1-2.3,2.3-2.3c1.3,0,2.3,1,2.3,2.3c0,1.3-1,2.3-2.3,2.3
						C33.9,106.9,32.8,105.8,32.8,104.6z"/>
				</g>
			</g>
			<g>
				<g>
					<path class="st1" d="M68,24c-0.4,0-0.8,0-1.2,0c-0.3,0-0.7,0-1,0c-0.2,0-0.3-0.1-0.3-0.3c0-1.1-0.2-2.2-0.5-3.3
						c-1.3-4.6-4.2-7.8-8.7-9.6c-1.4-0.5-2.8-0.8-4.3-0.8c-0.2,0-0.3,0-0.5,0c0,0-0.1,0-0.1,0c0-0.8,0-1.6,0-2.4
						C60.7,7.5,68,14.8,68,24z"/>
					<path class="st1" d="M62.9,23.9c-0.8,0-1.6,0-2.4,0c-0.1-2.4-0.9-4.6-2.6-6.3C56.1,15.9,54,15,51.5,15c0-0.8,0-1.6,0-2.4
						C57.7,12.5,62.9,17.5,62.9,23.9z"/>
					<path class="st1" d="M51.5,21.7c0-1.3,1-2.3,2.3-2.3c1.3,0,2.3,1,2.3,2.3c0,1.3-1,2.3-2.3,2.3C52.6,24,51.5,22.9,51.5,21.7z"/>
				</g>
				<g>
					<path class="st1" d="M106.2,24.1c-0.4,0-0.8,0-1.2,0c-0.3,0-0.7,0-1,0c-0.2,0-0.3-0.1-0.3-0.3c0-1.1-0.2-2.2-0.5-3.3
						c-1.3-4.6-4.2-7.8-8.7-9.6c-1.4-0.5-2.8-0.8-4.3-0.8c-0.2,0-0.3,0-0.5,0c0,0-0.1,0-0.1,0c0-0.8,0-1.6,0-2.4
						C98.9,7.7,106.2,15,106.2,24.1z"/>
					<path class="st1" d="M101.2,24.1c-0.8,0-1.6,0-2.4,0c-0.1-2.4-0.9-4.6-2.6-6.3c-1.7-1.7-3.9-2.6-6.3-2.6c0-0.8,0-1.6,0-2.4
						C96,12.7,101.2,17.7,101.2,24.1z"/>
					<path class="st1" d="M89.8,21.8c0-1.3,1-2.3,2.3-2.3c1.3,0,2.3,1,2.3,2.3c0,1.3-1,2.3-2.3,2.3C90.8,24.1,89.8,23.1,89.8,21.8z"
						/>
				</g>
				<g>
					<path class="st1" d="M68,5.4c-0.4,0-0.8,0-1.2,0c-0.3,0-0.7,0-1,0c-0.2,0-0.3-0.1-0.3-0.3c0-1.1-0.2-2.2-0.5-3.3
						c-1.3-4.6-4.2-7.8-8.7-9.6c-1.4-0.5-2.8-0.8-4.3-0.8c-0.2,0-0.3,0-0.5,0c0,0-0.1,0-0.1,0c0-0.8,0-1.6,0-2.4
						C60.7-11,68-3.7,68,5.4z"/>
					<path class="st1" d="M62.9,5.4c-0.8,0-1.6,0-2.4,0c-0.1-2.4-0.9-4.6-2.6-6.3c-1.7-1.7-3.9-2.6-6.3-2.6c0-0.8,0-1.6,0-2.4
						C57.7-6,62.9-1,62.9,5.4z"/>
					<path class="st1" d="M51.5,3.2c0-1.3,1-2.3,2.3-2.3c1.3,0,2.3,1,2.3,2.3c0,1.3-1,2.3-2.3,2.3C52.6,5.4,51.5,4.4,51.5,3.2z"/>
				</g>
				<g>
					<path class="st1" d="M106.2,5.6c-0.4,0-0.8,0-1.2,0c-0.3,0-0.7,0-1,0c-0.2,0-0.3-0.1-0.3-0.3c0-1.1-0.2-2.2-0.5-3.3
						c-1.3-4.6-4.2-7.8-8.7-9.6c-1.4-0.5-2.8-0.8-4.3-0.8c-0.2,0-0.3,0-0.5,0c0,0-0.1,0-0.1,0c0-0.8,0-1.6,0-2.4
						C98.9-10.8,106.2-3.5,106.2,5.6z"/>
					<path class="st1" d="M101.2,5.6c-0.8,0-1.6,0-2.4,0c-0.1-2.4-0.9-4.6-2.6-6.3c-1.7-1.7-3.9-2.6-6.3-2.6c0-0.8,0-1.6,0-2.4
						C96-5.8,101.2-0.8,101.2,5.6z"/>
					<path class="st1" d="M89.8,3.3c0-1.3,1-2.3,2.3-2.3c1.3,0,2.3,1,2.3,2.3c0,1.3-1,2.3-2.3,2.3C90.8,5.6,89.8,4.6,89.8,3.3z"/>
				</g>
				<g>
					<path class="st1" d="M87.2,14.5c-0.4,0-0.8,0-1.2,0c-0.3,0-0.7,0-1,0c-0.2,0-0.3-0.1-0.3-0.3c0-1.1-0.2-2.2-0.5-3.3
						C83,6.3,80,3.1,75.6,1.4c-1.4-0.5-2.8-0.8-4.3-0.8c-0.2,0-0.3,0-0.5,0c0,0-0.1,0-0.1,0c0-0.8,0-1.6,0-2.4
						C79.9-1.9,87.2,5.4,87.2,14.5z"/>
					<path class="st1" d="M82.1,14.5c-0.8,0-1.6,0-2.4,0c-0.1-2.4-0.9-4.6-2.6-6.3c-1.7-1.7-3.9-2.6-6.3-2.6c0-0.8,0-1.6,0-2.4
						C76.9,3.1,82.1,8.1,82.1,14.5z"/>
					<path class="st1" d="M70.7,12.2c0-1.3,1-2.3,2.3-2.3c1.3,0,2.3,1,2.3,2.3c0,1.3-1,2.3-2.3,2.3C71.8,14.5,70.7,13.5,70.7,12.2z"
						/>
				</g>
				<g>
					<path class="st1" d="M125.4,14.7c-0.4,0-0.8,0-1.2,0c-0.3,0-0.7,0-1,0c-0.2,0-0.3-0.1-0.3-0.3c0-1.1-0.2-2.2-0.5-3.3
						c-1.3-4.6-4.2-7.8-8.7-9.6c-1.4-0.5-2.8-0.8-4.3-0.8c-0.2,0-0.3,0-0.5,0c0,0-0.1,0-0.1,0c0-0.8,0-1.6,0-2.4
						C118.1-1.8,125.4,5.6,125.4,14.7z"/>
					<path class="st1" d="M120.4,14.7c-0.8,0-1.6,0-2.4,0c-0.1-2.4-0.9-4.6-2.6-6.3c-1.7-1.7-3.9-2.6-6.3-2.6c0-0.8,0-1.6,0-2.4
						C115.2,3.2,120.4,8.2,120.4,14.7z"/>
					<path class="st1" d="M109,12.4c0-1.3,1-2.3,2.3-2.3c1.3,0,2.3,1,2.3,2.3c0,1.3-1,2.3-2.3,2.3C110,14.7,109,13.7,109,12.4z"/>
				</g>
				<g>
					<path class="st1" d="M87.2,32.7c-0.4,0-0.8,0-1.2,0c-0.3,0-0.7,0-1,0c-0.2,0-0.3-0.1-0.3-0.3c0-1.1-0.2-2.2-0.5-3.3
						c-1.3-4.6-4.2-7.8-8.7-9.6c-1.4-0.5-2.8-0.8-4.3-0.8c-0.2,0-0.3,0-0.5,0c0,0-0.1,0-0.1,0c0-0.8,0-1.6,0-2.4
						C79.9,16.2,87.2,23.6,87.2,32.7z"/>
					<path class="st1" d="M82.1,32.7c-0.8,0-1.6,0-2.4,0c-0.1-2.4-0.9-4.6-2.6-6.3c-1.7-1.7-3.9-2.6-6.3-2.6c0-0.8,0-1.6,0-2.4
						C76.9,21.2,82.1,26.2,82.1,32.7z"/>
					<path class="st1" d="M70.7,30.4c0-1.3,1-2.3,2.3-2.3c1.3,0,2.3,1,2.3,2.3c0,1.3-1,2.3-2.3,2.3C71.8,32.7,70.7,31.6,70.7,30.4z"
						/>
				</g>
				<g>
					<path class="st1" d="M125.4,32.9c-0.4,0-0.8,0-1.2,0c-0.3,0-0.7,0-1,0c-0.2,0-0.3-0.1-0.3-0.3c0-1.1-0.2-2.2-0.5-3.3
						c-1.3-4.6-4.2-7.8-8.7-9.6c-1.4-0.5-2.8-0.8-4.3-0.8c-0.2,0-0.3,0-0.5,0c0,0-0.1,0-0.1,0c0-0.8,0-1.6,0-2.4
						C118.1,16.4,125.4,23.7,125.4,32.9z"/>
					<path class="st1" d="M120.4,32.8c-0.8,0-1.6,0-2.4,0c-0.1-2.4-0.9-4.6-2.6-6.3c-1.7-1.7-3.9-2.6-6.3-2.6c0-0.8,0-1.6,0-2.4
						C115.2,21.4,120.4,26.4,120.4,32.8z"/>
					<path class="st1" d="M109,30.6c0-1.3,1-2.3,2.3-2.3c1.3,0,2.3,1,2.3,2.3c0,1.3-1,2.3-2.3,2.3C110,32.9,109,31.8,109,30.6z"/>
				</g>
			</g>
			<g>
				<g>
					<path class="st1" d="M68,61c-0.4,0-0.8,0-1.2,0c-0.3,0-0.7,0-1,0c-0.2,0-0.3-0.1-0.3-0.3c0-1.1-0.2-2.2-0.5-3.3
						c-1.3-4.6-4.2-7.8-8.7-9.6c-1.4-0.5-2.8-0.8-4.3-0.8c-0.2,0-0.3,0-0.5,0c0,0-0.1,0-0.1,0c0-0.8,0-1.6,0-2.4
						C60.7,44.5,68,51.8,68,61z"/>
					<path class="st1" d="M62.9,61c-0.8,0-1.6,0-2.4,0c-0.1-2.4-0.9-4.6-2.6-6.3c-1.7-1.7-3.9-2.6-6.3-2.6c0-0.8,0-1.6,0-2.4
						C57.7,49.5,62.9,54.5,62.9,61z"/>
					<path class="st1" d="M51.5,58.7c0-1.3,1-2.3,2.3-2.3c1.3,0,2.3,1,2.3,2.3c0,1.3-1,2.3-2.3,2.3C52.6,61,51.5,59.9,51.5,58.7z"/>
				</g>
				<g>
					<path class="st1" d="M106.2,61.1c-0.4,0-0.8,0-1.2,0c-0.3,0-0.7,0-1,0c-0.2,0-0.3-0.1-0.3-0.3c0-1.1-0.2-2.2-0.5-3.3
						c-1.3-4.6-4.2-7.8-8.7-9.6c-1.4-0.5-2.8-0.8-4.3-0.8c-0.2,0-0.3,0-0.5,0c0,0-0.1,0-0.1,0c0-0.8,0-1.6,0-2.4
						C98.9,44.7,106.2,52,106.2,61.1z"/>
					<path class="st1" d="M101.2,61.1c-0.8,0-1.6,0-2.4,0c-0.1-2.4-0.9-4.6-2.6-6.3c-1.7-1.7-3.9-2.6-6.3-2.6c0-0.8,0-1.6,0-2.4
						C96,49.7,101.2,54.7,101.2,61.1z"/>
					<path class="st1" d="M89.8,58.8c0-1.3,1-2.3,2.3-2.3c1.3,0,2.3,1,2.3,2.3c0,1.3-1,2.3-2.3,2.3C90.8,61.1,89.8,60.1,89.8,58.8z"
						/>
				</g>
				<g>
					<path class="st1" d="M68,42.5c-0.4,0-0.8,0-1.2,0c-0.3,0-0.7,0-1,0c-0.2,0-0.3-0.1-0.3-0.3c0-1.1-0.2-2.2-0.5-3.3
						c-1.3-4.6-4.2-7.8-8.7-9.6c-1.4-0.5-2.8-0.8-4.3-0.8c-0.2,0-0.3,0-0.5,0c0,0-0.1,0-0.1,0c0-0.8,0-1.6,0-2.4
						C60.7,26,68,33.3,68,42.5z"/>
					<path class="st1" d="M62.9,42.4c-0.8,0-1.6,0-2.4,0c-0.1-2.4-0.9-4.6-2.6-6.3c-1.7-1.7-3.9-2.6-6.3-2.6c0-0.8,0-1.6,0-2.4
						C57.7,31,62.9,36,62.9,42.4z"/>
					<path class="st1" d="M51.5,40.2c0-1.3,1-2.3,2.3-2.3c1.3,0,2.3,1,2.3,2.3c0,1.3-1,2.3-2.3,2.3C52.6,42.5,51.5,41.4,51.5,40.2z"
						/>
				</g>
				<g>
					<path class="st1" d="M106.2,42.6c-0.4,0-0.8,0-1.2,0c-0.3,0-0.7,0-1,0c-0.2,0-0.3-0.1-0.3-0.3c0-1.1-0.2-2.2-0.5-3.3
						c-1.3-4.6-4.2-7.8-8.7-9.6c-1.4-0.5-2.8-0.8-4.3-0.8c-0.2,0-0.3,0-0.5,0c0,0-0.1,0-0.1,0c0-0.8,0-1.6,0-2.4
						C98.9,26.2,106.2,33.5,106.2,42.6z"/>
					<path class="st1" d="M101.2,42.6c-0.8,0-1.6,0-2.4,0c-0.1-2.4-0.9-4.6-2.6-6.3c-1.7-1.7-3.9-2.6-6.3-2.6c0-0.8,0-1.6,0-2.4
						C96,31.2,101.2,36.2,101.2,42.6z"/>
					<path class="st1" d="M89.8,40.3c0-1.3,1-2.3,2.3-2.3c1.3,0,2.3,1,2.3,2.3c0,1.3-1,2.3-2.3,2.3C90.8,42.6,89.8,41.6,89.8,40.3z"
						/>
				</g>
				<g>
					<path class="st1" d="M87.2,51.5c-0.4,0-0.8,0-1.2,0c-0.3,0-0.7,0-1,0c-0.2,0-0.3-0.1-0.3-0.3c0-1.1-0.2-2.2-0.5-3.3
						c-1.3-4.6-4.2-7.8-8.7-9.6c-1.4-0.5-2.8-0.8-4.3-0.8c-0.2,0-0.3,0-0.5,0c0,0-0.1,0-0.1,0c0-0.8,0-1.6,0-2.4
						C79.9,35.1,87.2,42.4,87.2,51.5z"/>
					<path class="st1" d="M82.1,51.5c-0.8,0-1.6,0-2.4,0c-0.1-2.4-0.9-4.6-2.6-6.3c-1.7-1.7-3.9-2.6-6.3-2.6c0-0.8,0-1.6,0-2.4
						C76.9,40.1,82.1,45.1,82.1,51.5z"/>
					<path class="st1" d="M70.7,49.2c0-1.3,1-2.3,2.3-2.3c1.3,0,2.3,1,2.3,2.3c0,1.3-1,2.3-2.3,2.3C71.8,51.5,70.7,50.5,70.7,49.2z"
						/>
				</g>
				<g>
					<path class="st1" d="M125.4,51.7c-0.4,0-0.8,0-1.2,0c-0.3,0-0.7,0-1,0c-0.2,0-0.3-0.1-0.3-0.3c0-1.1-0.2-2.2-0.5-3.3
						c-1.3-4.6-4.2-7.8-8.7-9.6c-1.4-0.5-2.8-0.8-4.3-0.8c-0.2,0-0.3,0-0.5,0c0,0-0.1,0-0.1,0c0-0.8,0-1.6,0-2.4
						C118.1,35.2,125.4,42.6,125.4,51.7z"/>
					<path class="st1" d="M120.4,51.7c-0.8,0-1.6,0-2.4,0c-0.1-2.4-0.9-4.6-2.6-6.3c-1.7-1.7-3.9-2.6-6.3-2.6c0-0.8,0-1.6,0-2.4
						C115.2,40.2,120.4,45.3,120.4,51.7z"/>
					<path class="st1" d="M109,49.4c0-1.3,1-2.3,2.3-2.3c1.3,0,2.3,1,2.3,2.3c0,1.3-1,2.3-2.3,2.3C110,51.7,109,50.7,109,49.4z"/>
				</g>
				<g>
					<path class="st1" d="M87.2,69.7c-0.4,0-0.8,0-1.2,0c-0.3,0-0.7,0-1,0c-0.2,0-0.3-0.1-0.3-0.3c0-1.1-0.2-2.2-0.5-3.3
						c-1.3-4.6-4.2-7.8-8.7-9.6c-1.4-0.5-2.8-0.8-4.3-0.8c-0.2,0-0.3,0-0.5,0c0,0-0.1,0-0.1,0c0-0.8,0-1.6,0-2.4
						C79.9,53.2,87.2,60.6,87.2,69.7z"/>
					<path class="st1" d="M82.1,69.7c-0.8,0-1.6,0-2.4,0c-0.1-2.4-0.9-4.6-2.6-6.3c-1.7-1.7-3.9-2.6-6.3-2.6c0-0.8,0-1.6,0-2.4
						C76.9,58.2,82.1,63.2,82.1,69.7z"/>
					<path class="st1" d="M70.7,67.4c0-1.3,1-2.3,2.3-2.3c1.3,0,2.3,1,2.3,2.3c0,1.3-1,2.3-2.3,2.3C71.8,69.7,70.7,68.6,70.7,67.4z"
						/>
				</g>
				<g>
					<path class="st1" d="M125.4,69.9c-0.4,0-0.8,0-1.2,0c-0.3,0-0.7,0-1,0c-0.2,0-0.3-0.1-0.3-0.3c0-1.1-0.2-2.2-0.5-3.3
						c-1.3-4.6-4.2-7.8-8.7-9.6c-1.4-0.5-2.8-0.8-4.3-0.8c-0.2,0-0.3,0-0.5,0c0,0-0.1,0-0.1,0c0-0.8,0-1.6,0-2.4
						C118.1,53.4,125.4,60.7,125.4,69.9z"/>
					<path class="st1" d="M120.4,69.9c-0.8,0-1.6,0-2.4,0c-0.1-2.4-0.9-4.6-2.6-6.3c-1.7-1.7-3.9-2.6-6.3-2.6c0-0.8,0-1.6,0-2.4
						C115.2,58.4,120.4,63.4,120.4,69.9z"/>
					<path class="st1" d="M109,67.6c0-1.3,1-2.3,2.3-2.3c1.3,0,2.3,1,2.3,2.3c0,1.3-1,2.3-2.3,2.3C110,69.9,109,68.8,109,67.6z"/>
				</g>
			</g>
			<g>
				<g>
					<path class="st1" d="M68,98c-0.4,0-0.8,0-1.2,0c-0.3,0-0.7,0-1,0c-0.2,0-0.3-0.1-0.3-0.3c0-1.1-0.2-2.2-0.5-3.3
						c-1.3-4.6-4.2-7.8-8.7-9.6c-1.4-0.5-2.8-0.8-4.3-0.8c-0.2,0-0.3,0-0.5,0c0,0-0.1,0-0.1,0c0-0.8,0-1.6,0-2.4
						C60.7,81.5,68,88.8,68,98z"/>
					<path class="st1" d="M62.9,98c-0.8,0-1.6,0-2.4,0c-0.1-2.4-0.9-4.6-2.6-6.3c-1.7-1.7-3.9-2.6-6.3-2.6c0-0.8,0-1.6,0-2.4
						C57.7,86.5,62.9,91.5,62.9,98z"/>
					<path class="st1" d="M51.5,95.7c0-1.3,1-2.3,2.3-2.3c1.3,0,2.3,1,2.3,2.3c0,1.3-1,2.3-2.3,2.3C52.6,98,51.5,96.9,51.5,95.7z"/>
				</g>
				<g>
					<path class="st1" d="M106.2,98.1c-0.4,0-0.8,0-1.2,0c-0.3,0-0.7,0-1,0c-0.2,0-0.3-0.1-0.3-0.3c0-1.1-0.2-2.2-0.5-3.3
						c-1.3-4.6-4.2-7.8-8.7-9.6c-1.4-0.5-2.8-0.8-4.3-0.8c-0.2,0-0.3,0-0.5,0c0,0-0.1,0-0.1,0c0-0.8,0-1.6,0-2.4
						C98.9,81.7,106.2,89,106.2,98.1z"/>
					<path class="st1" d="M101.2,98.1c-0.8,0-1.6,0-2.4,0c-0.1-2.4-0.9-4.6-2.6-6.3c-1.7-1.7-3.9-2.6-6.3-2.6c0-0.8,0-1.6,0-2.4
						C96,86.7,101.2,91.7,101.2,98.1z"/>
					<path class="st1" d="M89.8,95.9c0-1.3,1-2.3,2.3-2.3c1.3,0,2.3,1,2.3,2.3c0,1.3-1,2.3-2.3,2.3C90.8,98.1,89.8,97.1,89.8,95.9z"
						/>
				</g>
				<g>
					<path class="st1" d="M68,79.5c-0.4,0-0.8,0-1.2,0c-0.3,0-0.7,0-1,0c-0.2,0-0.3-0.1-0.3-0.3c0-1.1-0.2-2.2-0.5-3.3
						c-1.3-4.6-4.2-7.8-8.7-9.6c-1.4-0.5-2.8-0.8-4.3-0.8c-0.2,0-0.3,0-0.5,0c0,0-0.1,0-0.1,0c0-0.8,0-1.6,0-2.4
						C60.7,63,68,70.3,68,79.5z"/>
					<path class="st1" d="M62.9,79.5c-0.8,0-1.6,0-2.4,0c-0.1-2.4-0.9-4.6-2.6-6.3c-1.7-1.7-3.9-2.6-6.3-2.6c0-0.8,0-1.6,0-2.4
						C57.7,68,62.9,73,62.9,79.5z"/>
					<path class="st1" d="M51.5,77.2c0-1.3,1-2.3,2.3-2.3c1.3,0,2.3,1,2.3,2.3c0,1.3-1,2.3-2.3,2.3C52.6,79.5,51.5,78.4,51.5,77.2z"
						/>
				</g>
				<g>
					<path class="st1" d="M106.2,79.6c-0.4,0-0.8,0-1.2,0c-0.3,0-0.7,0-1,0c-0.2,0-0.3-0.1-0.3-0.3c0-1.1-0.2-2.2-0.5-3.3
						c-1.3-4.6-4.2-7.8-8.7-9.6c-1.4-0.5-2.8-0.8-4.3-0.8c-0.2,0-0.3,0-0.5,0c0,0-0.1,0-0.1,0c0-0.8,0-1.6,0-2.4
						C98.9,63.2,106.2,70.5,106.2,79.6z"/>
					<path class="st1" d="M101.2,79.6c-0.8,0-1.6,0-2.4,0c-0.1-2.4-0.9-4.6-2.6-6.3c-1.7-1.7-3.9-2.6-6.3-2.6c0-0.8,0-1.6,0-2.4
						C96,68.2,101.2,73.2,101.2,79.6z"/>
					<path class="st1" d="M89.8,77.3c0-1.3,1-2.3,2.3-2.3c1.3,0,2.3,1,2.3,2.3c0,1.3-1,2.3-2.3,2.3C90.8,79.6,89.8,78.6,89.8,77.3z"
						/>
				</g>
				<g>
					<path class="st1" d="M87.2,88.5c-0.4,0-0.8,0-1.2,0c-0.3,0-0.7,0-1,0c-0.2,0-0.3-0.1-0.3-0.3c0-1.1-0.2-2.2-0.5-3.3
						c-1.3-4.6-4.2-7.8-8.7-9.6c-1.4-0.5-2.8-0.8-4.3-0.8c-0.2,0-0.3,0-0.5,0c0,0-0.1,0-0.1,0c0-0.8,0-1.6,0-2.4
						C79.9,72.1,87.2,79.4,87.2,88.5z"/>
					<path class="st1" d="M82.1,88.5c-0.8,0-1.6,0-2.4,0c-0.1-2.4-0.9-4.6-2.6-6.3c-1.7-1.7-3.9-2.6-6.3-2.6c0-0.8,0-1.6,0-2.4
						C76.9,77.1,82.1,82.1,82.1,88.5z"/>
					<path class="st1" d="M70.7,86.2c0-1.3,1-2.3,2.3-2.3c1.3,0,2.3,1,2.3,2.3c0,1.3-1,2.3-2.3,2.3C71.8,88.5,70.7,87.5,70.7,86.2z"
						/>
				</g>
				<g>
					<path class="st1" d="M125.4,88.7c-0.4,0-0.8,0-1.2,0c-0.3,0-0.7,0-1,0c-0.2,0-0.3-0.1-0.3-0.3c0-1.1-0.2-2.2-0.5-3.3
						c-1.3-4.6-4.2-7.8-8.7-9.6c-1.4-0.5-2.8-0.8-4.3-0.8c-0.2,0-0.3,0-0.5,0c0,0-0.1,0-0.1,0c0-0.8,0-1.6,0-2.4
						C118.1,72.3,125.4,79.6,125.4,88.7z"/>
					<path class="st1" d="M120.4,88.7c-0.8,0-1.6,0-2.4,0c-0.1-2.4-0.9-4.6-2.6-6.3c-1.7-1.7-3.9-2.6-6.3-2.6c0-0.8,0-1.6,0-2.4
						C115.2,77.3,120.4,82.3,120.4,88.7z"/>
					<path class="st1" d="M109,86.4c0-1.3,1-2.3,2.3-2.3c1.3,0,2.3,1,2.3,2.3c0,1.3-1,2.3-2.3,2.3C110,88.7,109,87.7,109,86.4z"/>
				</g>
				<g>
					<path class="st1" d="M87.2,106.7c-0.4,0-0.8,0-1.2,0c-0.3,0-0.7,0-1,0c-0.2,0-0.3-0.1-0.3-0.3c0-1.1-0.2-2.2-0.5-3.3
						c-1.3-4.6-4.2-7.8-8.7-9.6c-1.4-0.5-2.8-0.8-4.3-0.8c-0.2,0-0.3,0-0.5,0c0,0-0.1,0-0.1,0c0-0.8,0-1.6,0-2.4
						C79.9,90.2,87.2,97.6,87.2,106.7z"/>
					<path class="st1" d="M82.1,106.7c-0.8,0-1.6,0-2.4,0c-0.1-2.4-0.9-4.6-2.6-6.3c-1.7-1.7-3.9-2.6-6.3-2.6c0-0.8,0-1.6,0-2.4
						C76.9,95.2,82.1,100.2,82.1,106.7z"/>
					<path class="st1" d="M70.7,104.4c0-1.3,1-2.3,2.3-2.3c1.3,0,2.3,1,2.3,2.3c0,1.3-1,2.3-2.3,2.3
						C71.8,106.7,70.7,105.7,70.7,104.4z"/>
				</g>
				<g>
					<path class="st1" d="M125.4,106.9c-0.4,0-0.8,0-1.2,0c-0.3,0-0.7,0-1,0c-0.2,0-0.3-0.1-0.3-0.3c0-1.1-0.2-2.2-0.5-3.3
						c-1.3-4.6-4.2-7.8-8.7-9.6c-1.4-0.5-2.8-0.8-4.3-0.8c-0.2,0-0.3,0-0.5,0c0,0-0.1,0-0.1,0c0-0.8,0-1.6,0-2.4
						C118.1,90.4,125.4,97.8,125.4,106.9z"/>
					<path class="st1" d="M120.4,106.9c-0.8,0-1.6,0-2.4,0c-0.1-2.4-0.9-4.6-2.6-6.3c-1.7-1.7-3.9-2.6-6.3-2.6c0-0.8,0-1.6,0-2.4
						C115.2,95.4,120.4,100.4,120.4,106.9z"/>
					<path class="st1" d="M109,104.6c0-1.3,1-2.3,2.3-2.3c1.3,0,2.3,1,2.3,2.3c0,1.3-1,2.3-2.3,2.3C110,106.9,109,105.8,109,104.6z"
						/>
				</g>
			</g>
		</g>
	</g>
</g>
</svg>
