<?xml version="1.0" encoding="utf-8"?>
<!-- Generator: Adobe Illustrator 24.1.0, SVG Export Plug-In . SVG Version: 6.00 Build 0)  -->
<svg version="1.1" id="labels" xmlns="http://www.w3.org/2000/svg" xmlns:xlink="http://www.w3.org/1999/xlink" x="0px" y="0px"
	 viewBox="0 0 551 700" style="enable-background:new 0 0 551 700;" xml:space="preserve">
<style type="text/css">
	.st0{fill:#3A2F3C;}
	.st1{fill:#3661b5;}
</style>
<g>
	<path class="st0" d="M63.24,182.77c2.31,3.87,3.67,6.03,4.69,7.83c-0.06-1.62-0.08-3.77-0.08-7.83h1.89v10.59h-2.08
		c-2.21-3.63-3.6-5.91-4.71-7.77c0.05,0.92,0.06,2.95,0.06,7.77h-1.89v-10.59H63.24z"/>
	<path class="st0" d="M78.18,191.48c-0.55,1.35-1.69,2.1-3.25,2.1c-2.4,0-3.69-1.56-3.69-4.04c0-2.38,1.44-3.87,3.62-3.87
		c2.37,0,3.36,1.73,3.37,4.4H73c0.06,1.29,0.77,2.02,1.95,2.02c0.76,0,1.41-0.3,1.68-1.16L78.18,191.48z M76.44,188.81
		c-0.06-1.17-0.68-1.77-1.64-1.77s-1.66,0.6-1.78,1.77H76.44z"/>
	<path class="st0" d="M85.68,193.36c-0.5-2.04-0.96-3.75-1.33-5.55c-0.31,1.44-0.66,2.76-1.44,5.55h-1.98l-2.25-7.47h1.92
		c0.51,1.98,1.11,4.2,1.46,5.62c0.3-1.41,0.63-2.9,1.38-5.62h1.84c0.63,2.4,1.02,3.98,1.38,5.62c0.36-1.6,0.93-3.71,1.46-5.62h1.8
		l-2.26,7.47H85.68z"/>
	<path class="st0" d="M91.5,190.99c0.39,0.77,1.08,1.22,1.9,1.22c0.77,0,1.19-0.33,1.19-0.78c0-0.49-0.25-0.7-1.38-1.06l-0.79-0.25
		c-1.15-0.36-1.89-1.04-1.89-2.17c0-1.17,1.05-2.25,2.9-2.25c1.19,0,2.28,0.45,2.94,1.5l-1.3,0.88c-0.38-0.66-0.95-1.05-1.67-1.05
		c-0.75,0-1.11,0.3-1.11,0.73c0,0.45,0.24,0.66,1.2,0.96l0.79,0.24c1.32,0.42,2.07,1.03,2.07,2.23c0,1.38-1.15,2.38-3.01,2.38
		c-1.53,0-2.56-0.73-3.19-1.68L91.5,190.99z"/>
	<path class="st0" d="M63.27,205.28v6.07h-1.76v-6.07h-1.26v-1.4h1.26v-0.9c0-0.9,0.21-1.47,0.62-1.83c0.38-0.36,0.9-0.51,1.54-0.51
		c0.45,0,0.78,0.04,1.12,0.15v1.44c-0.23-0.1-0.48-0.17-0.71-0.17c-0.35,0-0.57,0.1-0.71,0.35c-0.1,0.17-0.12,0.42-0.12,0.75v0.72
		h1.5v1.4H63.27z"/>
	<path class="st0" d="M71.88,209.48c-0.55,1.35-1.69,2.1-3.25,2.1c-2.4,0-3.69-1.56-3.69-4.04c0-2.38,1.44-3.87,3.62-3.87
		c2.37,0,3.36,1.73,3.37,4.4H66.7c0.06,1.29,0.77,2.02,1.95,2.02c0.76,0,1.41-0.3,1.68-1.16L71.88,209.48z M70.14,206.81
		c-0.06-1.17-0.67-1.77-1.63-1.77s-1.67,0.6-1.79,1.77H70.14z"/>
	<path class="st0" d="M79.83,209.48c-0.55,1.35-1.69,2.1-3.25,2.1c-2.4,0-3.69-1.56-3.69-4.04c0-2.38,1.44-3.87,3.62-3.87
		c2.37,0,3.36,1.73,3.37,4.4h-5.22c0.06,1.29,0.77,2.02,1.95,2.02c0.76,0,1.41-0.3,1.68-1.16L79.83,209.48z M78.09,206.81
		c-0.06-1.17-0.67-1.77-1.63-1.77s-1.67,0.6-1.79,1.77H78.09z"/>
	<path class="st0" d="M86.07,211.36v-1.05c-0.48,0.7-1.19,1.2-2.23,1.2c-1.72,0-3-1.32-3-3.91c0-2.45,1.38-3.85,3.1-3.85
		c1.11,0,1.73,0.4,2.13,0.98v-3.94h1.71v10.59H86.07z M84.37,205.19c-1.04,0-1.74,0.79-1.74,2.38c0,1.5,0.63,2.46,1.66,2.46
		c1.04,0,1.77-0.81,1.77-2.4C86.07,206.14,85.42,205.19,84.37,205.19z"/>
	<path class="st0" d="M90.28,208.99c0.39,0.77,1.08,1.22,1.9,1.22c0.77,0,1.19-0.33,1.19-0.78c0-0.49-0.25-0.7-1.38-1.06l-0.79-0.25
		c-1.15-0.36-1.89-1.04-1.89-2.17c0-1.17,1.05-2.25,2.9-2.25c1.19,0,2.28,0.45,2.94,1.5l-1.3,0.88c-0.38-0.66-0.95-1.05-1.67-1.05
		c-0.75,0-1.11,0.3-1.11,0.73c0,0.45,0.24,0.66,1.2,0.96l0.79,0.24c1.32,0.42,2.07,1.03,2.07,2.23c0,1.38-1.15,2.38-3.01,2.38
		c-1.53,0-2.56-0.73-3.19-1.68L90.28,208.99z"/>
</g>
<g>
	<path class="st1" d="M60.08,69.36l-0.84-2.48h-4.19l-0.85,2.48h-2.05l4.02-10.59h2.11l3.87,10.59H60.08z M58.78,65.38
		c-0.6-1.73-1.11-3.17-1.6-4.71c-0.35,1.06-0.72,2.11-1.65,4.71H58.78z"/>
	<path class="st1" d="M70.13,69.36V68.2c-0.73,0.94-1.75,1.36-3.1,1.36c-2.67,0-4.59-2.11-4.59-5.37c0-3.23,1.89-5.67,5.23-5.67
		c2.13,0,3.52,0.96,4.2,2.79l-1.89,0.72c-0.33-1.12-1.09-1.81-2.35-1.81c-1.99,0-3.19,1.48-3.19,3.85c0,2.49,1.27,3.82,3.09,3.82
		c1.69,0,2.5-1.03,2.56-2.76h-2.96v-1.62h4.73v5.83H70.13z"/>
	<path class="st1" d="M81.17,69.36V68.2c-0.73,0.94-1.75,1.36-3.1,1.36c-2.67,0-4.59-2.11-4.59-5.37c0-3.23,1.89-5.67,5.23-5.67
		c2.13,0,3.52,0.96,4.2,2.79l-1.89,0.72c-0.33-1.12-1.09-1.81-2.35-1.81c-1.99,0-3.19,1.48-3.19,3.85c0,2.49,1.27,3.82,3.09,3.82
		c1.69,0,2.5-1.03,2.56-2.76h-2.96v-1.62h4.73v5.83H81.17z"/>
	<path class="st1" d="M91.25,69.36l-2.67-4.23h-1.81v4.23h-1.89V58.77h3.43c1.37,0,2.42,0.06,3.19,0.38
		c1.08,0.43,1.59,1.3,1.59,2.73c0,1.74-0.98,2.7-2.64,2.97l3.02,4.51H91.25z M88.75,63.6c0.96,0,1.5-0.12,1.85-0.39
		c0.34-0.27,0.52-0.7,0.52-1.24c0-0.56-0.14-1-0.58-1.29c-0.35-0.23-0.89-0.31-1.73-0.31h-2.04v3.24H88.75z"/>
	<path class="st1" d="M94.66,69.36V58.77h7.36v1.63h-5.44v2.7h5.02v1.64h-5.02v2.97h5.74v1.65H94.66z"/>
	<path class="st1" d="M110.8,69.36V68.2c-0.73,0.94-1.75,1.36-3.1,1.36c-2.67,0-4.59-2.11-4.59-5.37c0-3.23,1.89-5.67,5.23-5.67
		c2.13,0,3.52,0.96,4.2,2.79l-1.89,0.72c-0.33-1.12-1.09-1.81-2.35-1.81c-1.99,0-3.19,1.48-3.19,3.85c0,2.49,1.27,3.82,3.09,3.82
		c1.69,0,2.5-1.03,2.56-2.76h-2.96v-1.62h4.73v5.83H110.8z"/>
	<path class="st1" d="M121.46,69.36l-0.84-2.48h-4.19l-0.85,2.48h-2.05l4.02-10.59h2.11l3.87,10.59H121.46z M120.16,65.38
		c-0.6-1.73-1.11-3.17-1.6-4.71c-0.35,1.06-0.72,2.11-1.65,4.71H120.16z"/>
	<path class="st1" d="M125.17,69.36V60.4h-2.98v-1.63h7.95v1.63h-3v8.95H125.17z"/>
	<path class="st1" d="M131.42,69.36V58.77h7.36v1.63h-5.44v2.7h5.02v1.64h-5.02v2.97h5.74v1.65H131.42z"/>
</g>
<g>
	<path class="st1" d="M53.12,270.36v-10.59h4.36c1.46,0,2.34,0.22,2.92,0.64c0.79,0.56,1.15,1.53,1.15,2.6
		c0,1.19-0.42,2.25-1.35,2.77c-0.78,0.44-1.88,0.58-3.15,0.58h-2.06v3.99H53.12z M56.92,264.75c1.03,0,1.71-0.1,2.13-0.39
		c0.39-0.28,0.54-0.73,0.54-1.33c0-0.54-0.18-0.99-0.54-1.28c-0.41-0.3-0.92-0.36-2.01-0.36h-2.02v3.36H56.92z"/>
	<path class="st1" d="M69.4,270.36l-2.67-4.23h-1.81v4.23h-1.89v-10.59h3.43c1.37,0,2.42,0.06,3.19,0.38
		c1.08,0.43,1.59,1.3,1.59,2.73c0,1.74-0.98,2.7-2.64,2.97l3.02,4.51H69.4z M66.89,264.6c0.96,0,1.5-0.12,1.85-0.39
		c0.34-0.27,0.52-0.7,0.52-1.24c0-0.56-0.14-1-0.58-1.29c-0.35-0.23-0.89-0.31-1.73-0.31h-2.04v3.24H66.89z"/>
	<path class="st1" d="M72.44,264.99c0-3.35,1.97-5.46,5.04-5.46c2.9,0,4.78,2.22,4.78,5.58c0,3.46-1.9,5.49-4.78,5.49
		C74.32,270.6,72.44,268.42,72.44,264.99z M77.39,261.22c-1.81,0-2.97,1.38-2.97,3.73c0,2.46,1.19,3.94,3.02,3.94
		c1.67,0,2.83-1.29,2.83-3.82C80.27,262.63,79.12,261.22,77.39,261.22z"/>
	<path class="st1" d="M83.86,259.77h3.27c1.86,0,2.67,0.13,3.48,0.54c1.46,0.72,2.15,2.46,2.15,4.67c0,1.71-0.46,3.21-1.36,4.11
		c-0.96,0.96-2.24,1.27-4.4,1.27h-3.13V259.77z M87.11,268.74c1.42,0,2.32-0.3,2.88-0.91c0.55-0.63,0.75-1.58,0.75-2.87
		c0-1.14-0.23-2.1-0.79-2.73c-0.5-0.54-1.14-0.84-2.58-0.84h-1.6v7.35H87.11z"/>
	<path class="st1" d="M102.8,265.83c0,1.67-0.23,2.73-0.88,3.49c-0.74,0.85-1.86,1.26-3.4,1.26c-1.52,0-2.7-0.41-3.36-1.27
		c-0.66-0.89-0.81-1.88-0.81-3.48v-6.06h1.9v6.19c0,0.8,0.04,1.47,0.33,1.98c0.39,0.71,1.08,0.98,1.96,0.98
		c0.93,0,1.67-0.24,2.05-0.99c0.23-0.44,0.3-1.12,0.3-1.91v-6.25h1.9V265.83z"/>
	<path class="st1" d="M111.55,263.08c-0.29-1.15-1.02-1.86-2.18-1.86c-1.93,0-2.97,1.41-2.97,3.69c0,2.42,1.1,3.98,2.97,3.98
		c1.17,0,2.07-0.66,2.35-1.95l1.83,0.66c-0.66,1.95-2.22,3-4.26,3c-3.04,0-4.89-2.13-4.89-5.61c0-3.48,2-5.46,5-5.46
		c2.1,0,3.48,1.11,4.02,2.86L111.55,263.08z"/>
	<path class="st1" d="M114.79,270.36v-10.59h7.36v1.63h-5.44v2.7h5.02v1.64h-5.02v2.97h5.74v1.65H114.79z"/>
	<path class="st1" d="M135.89,266.02c-0.36,0.95-0.8,1.67-1.32,2.27l0.18,0.18c0.31,0.32,0.54,0.45,1.02,0.45
		c0.09,0,0.24-0.02,0.33-0.03v1.47c-0.18,0.03-0.41,0.04-0.56,0.04c-0.78,0-1.32-0.03-2.17-0.92c-0.85,0.75-1.88,1.02-3.02,1.02
		c-2.1,0-3.51-1.24-3.51-3.03c0-1.27,0.52-2.22,2.46-3.24c-0.54-0.77-0.78-1.41-0.78-2.12c0-1.41,1-2.4,2.74-2.4
		c1.47,0,2.48,0.89,2.48,2.1c0,1.11-0.48,1.9-2.06,2.86l1.86,2.43c0.38-0.5,0.69-1.12,0.89-1.86L135.89,266.02z M130.18,265.45
		c-1.21,0.69-1.53,1.25-1.53,2c0,1,0.83,1.59,1.94,1.59c0.71,0,1.27-0.23,1.8-0.71L130.18,265.45z M132.2,261.97
		c0-0.5-0.38-0.87-0.96-0.87c-0.65,0-1.04,0.39-1.04,0.93c0,0.45,0.15,0.83,0.68,1.54C131.84,263.02,132.2,262.53,132.2,261.97z"/>
	<path class="st1" d="M60.08,288.36l-0.84-2.48h-4.19l-0.85,2.48h-2.05l4.02-10.59h2.11l3.87,10.59H60.08z M58.78,284.38
		c-0.6-1.73-1.11-3.17-1.6-4.71c-0.35,1.06-0.72,2.11-1.65,4.71H58.78z"/>
	<path class="st1" d="M69.5,288.36l-2.67-4.23h-1.81v4.23h-1.89v-10.59h3.43c1.37,0,2.42,0.06,3.19,0.38
		c1.08,0.43,1.59,1.3,1.59,2.73c0,1.74-0.98,2.7-2.64,2.97l3.02,4.51H69.5z M67,282.6c0.96,0,1.5-0.12,1.85-0.39
		c0.34-0.27,0.52-0.7,0.52-1.24c0-0.56-0.14-1-0.58-1.29c-0.35-0.23-0.89-0.31-1.73-0.31h-2.04v3.24H67z"/>
	<path class="st1" d="M79.28,288.36l-2.67-4.23H74.8v4.23h-1.89v-10.59h3.43c1.37,0,2.42,0.06,3.19,0.38
		c1.08,0.43,1.59,1.3,1.59,2.73c0,1.74-0.98,2.7-2.64,2.97l3.02,4.51H79.28z M76.78,282.6c0.96,0,1.5-0.12,1.85-0.39
		c0.34-0.27,0.52-0.7,0.52-1.24c0-0.56-0.14-1-0.58-1.29c-0.35-0.23-0.89-0.31-1.73-0.31H74.8v3.24H76.78z"/>
	<path class="st1" d="M89.65,288.36l-0.84-2.48h-4.19l-0.85,2.48h-2.05l4.02-10.59h2.11l3.87,10.59H89.65z M88.34,284.38
		c-0.6-1.73-1.11-3.17-1.6-4.71c-0.35,1.06-0.72,2.11-1.65,4.71H88.34z"/>
	<path class="st1" d="M94.81,277.77c2.31,3.87,3.67,6.03,4.69,7.83c-0.06-1.62-0.08-3.77-0.08-7.83h1.89v10.59h-2.08
		c-2.21-3.63-3.6-5.91-4.71-7.77c0.05,0.92,0.06,2.95,0.06,7.77h-1.89v-10.59H94.81z"/>
	<path class="st1" d="M110.6,288.36v-1.15c-0.73,0.94-1.75,1.36-3.1,1.36c-2.67,0-4.59-2.11-4.59-5.37c0-3.23,1.89-5.67,5.23-5.67
		c2.13,0,3.52,0.96,4.2,2.79l-1.89,0.72c-0.33-1.12-1.09-1.81-2.35-1.81c-1.99,0-3.19,1.48-3.19,3.85c0,2.49,1.27,3.82,3.09,3.82
		c1.69,0,2.5-1.03,2.56-2.76h-2.96v-1.62h4.73v5.83H110.6z"/>
	<path class="st1" d="M114.31,288.36v-10.59h7.36v1.63h-5.44v2.7h5.02v1.64h-5.02v2.97h5.74v1.65H114.31z"/>
</g>
<g>
	<path class="st1" d="M53.12,461.77h3.27c1.86,0,2.67,0.13,3.48,0.54c1.46,0.72,2.15,2.46,2.15,4.67c0,1.71-0.46,3.21-1.36,4.11
		c-0.96,0.96-2.24,1.27-4.4,1.27h-3.13V461.77z M56.38,470.74c1.42,0,2.32-0.3,2.88-0.91c0.55-0.63,0.75-1.58,0.75-2.87
		c0-1.14-0.23-2.1-0.79-2.73c-0.5-0.54-1.14-0.84-2.58-0.84h-1.6v7.35H56.38z"/>
	<path class="st1" d="M63.61,472.36v-10.59h7.36v1.63h-5.44v2.7h5.02v1.63h-5.02v2.97h5.74v1.65H63.61z"/>
	<path class="st1" d="M72.74,472.36v-10.59h1.9v8.94h4.99v1.65H72.74z"/>
	<path class="st1" d="M82.94,472.36h-1.95v-10.59h1.95V472.36z"/>
	<path class="st1" d="M87.61,472.36l-3.67-10.59H86c1.21,3.7,2,6.01,2.65,8.38c0.65-2.35,1.37-4.68,2.6-8.38h2.02l-3.66,10.59H87.61
		z"/>
	<path class="st1" d="M94.25,472.36v-10.59h7.36v1.63h-5.44v2.7h5.02v1.63h-5.02v2.97h5.74v1.65H94.25z"/>
	<path class="st1" d="M109.76,472.36l-2.67-4.23h-1.81v4.23h-1.89v-10.59h3.43c1.37,0,2.42,0.06,3.19,0.38
		c1.08,0.43,1.59,1.3,1.59,2.73c0,1.74-0.98,2.7-2.64,2.97l3.02,4.51H109.76z M107.26,466.6c0.96,0,1.5-0.12,1.85-0.39
		c0.34-0.27,0.52-0.71,0.52-1.25c0-0.56-0.14-1-0.58-1.29c-0.35-0.23-0.89-0.31-1.73-0.31h-2.04v3.24H107.26z"/>
	<path class="st1" d="M125.14,468.02c-0.36,0.95-0.8,1.67-1.32,2.27l0.18,0.18c0.31,0.31,0.54,0.45,1.02,0.45
		c0.09,0,0.24-0.01,0.33-0.03v1.47c-0.18,0.03-0.41,0.04-0.56,0.04c-0.78,0-1.32-0.03-2.17-0.92c-0.85,0.75-1.88,1.02-3.02,1.02
		c-2.1,0-3.51-1.24-3.51-3.03c0-1.28,0.52-2.22,2.46-3.24c-0.54-0.76-0.78-1.41-0.78-2.12c0-1.41,1-2.4,2.74-2.4
		c1.47,0,2.48,0.89,2.48,2.1c0,1.11-0.48,1.9-2.06,2.86l1.86,2.43c0.38-0.5,0.69-1.12,0.89-1.86L125.14,468.02z M119.42,467.45
		c-1.21,0.69-1.53,1.25-1.53,2c0,1,0.83,1.59,1.94,1.59c0.71,0,1.27-0.23,1.8-0.71L119.42,467.45z M121.45,463.97
		c0-0.5-0.38-0.87-0.96-0.87c-0.65,0-1.04,0.39-1.04,0.93c0,0.45,0.15,0.83,0.68,1.54C121.09,465.02,121.45,464.53,121.45,463.97z"
		/>
	<path class="st1" d="M52.76,484.99c0-3.34,1.97-5.46,5.04-5.46c2.9,0,4.78,2.22,4.78,5.58c0,3.46-1.9,5.49-4.78,5.49
		C54.64,490.6,52.76,488.42,52.76,484.99z M57.71,481.22c-1.81,0-2.97,1.38-2.97,3.74c0,2.46,1.19,3.94,3.02,3.94
		c1.67,0,2.83-1.29,2.83-3.83C60.59,482.63,59.44,481.22,57.71,481.22z"/>
	<path class="st1" d="M64.18,490.36v-10.59h4.36c1.46,0,2.34,0.22,2.92,0.64c0.79,0.55,1.15,1.53,1.15,2.59
		c0,1.18-0.42,2.25-1.35,2.77c-0.78,0.44-1.88,0.59-3.15,0.59h-2.06v3.99H64.18z M67.97,484.75c1.03,0,1.71-0.1,2.13-0.39
		c0.39-0.28,0.54-0.74,0.54-1.33c0-0.54-0.18-0.99-0.54-1.28c-0.41-0.3-0.92-0.36-2.01-0.36h-2.02v3.36H67.97z"/>
	<path class="st1" d="M75.91,490.36v-8.95h-2.98v-1.63h7.95v1.63h-3v8.95H75.91z"/>
	<path class="st1" d="M84.11,490.36h-1.95v-10.59h1.95V490.36z"/>
	<path class="st1" d="M95.12,490.36c0-5.29,0-6.79,0.06-8.55c-0.65,2.03-0.93,2.88-2.83,8.55H90.7c-1.33-4.16-2.11-6.22-2.82-8.53
		c0.04,1.89,0.04,3.25,0.04,8.53h-1.84v-10.59h2.74c1.35,3.93,2.08,5.97,2.73,8.08c0.6-2.05,1.05-3.34,2.65-8.08h2.75v10.59H95.12z"
		/>
	<path class="st1" d="M100.87,490.36h-1.95v-10.59h1.95V490.36z"/>
	<path class="st1" d="M102.29,490.36v-1.41l5.76-7.54h-5.46v-1.63h7.89v1.47l-5.7,7.49h5.71v1.63H102.29z"/>
	<path class="st1" d="M111.97,490.36v-10.59h7.36v1.63h-5.44v2.7h5.02v1.63h-5.02v2.97h5.74v1.65H111.97z"/>
</g>
<g>
	<path class="st0" d="M61.12,389.36v-10.59h1.9v8.94h4.99v1.65H61.12z"/>
	<path class="st0" d="M69.3,380.42v-1.65h1.79v1.65H69.3z M71.08,389.36h-1.77v-7.47h1.77V389.36z"/>
	<path class="st0" d="M74.73,389.36L72,381.89h1.95c0.87,2.55,1.38,4.09,1.85,5.68c0.44-1.53,0.93-3.15,1.8-5.68h1.86l-2.68,7.47
		H74.73z"/>
	<path class="st0" d="M80.35,380.42v-1.65h1.79v1.65H80.35z M82.14,389.36h-1.77v-7.47h1.77V389.36z"/>
	<path class="st0" d="M88.71,389.36v-4.29c0-0.58-0.06-1.02-0.27-1.32c-0.19-0.28-0.52-0.42-1-0.42s-0.98,0.25-1.27,0.66
		c-0.38,0.49-0.44,1.05-0.44,1.77v3.6h-1.75v-7.47h1.74V383c0.54-0.76,1.43-1.24,2.48-1.24c0.9,0,1.48,0.31,1.86,0.88
		c0.3,0.45,0.42,1.04,0.42,2.04v4.68H88.71z"/>
	<path class="st0" d="M97,388.32c-0.52,0.65-1.25,0.96-2.21,0.96c-1.83,0-3-1.39-3-3.75c0-2.34,1.26-3.77,3.1-3.77
		c1.04,0,1.75,0.38,2.17,1.05v-0.92h1.74v6.96c0,1.54-0.36,2.52-1.16,3.08c-0.58,0.42-1.44,0.6-2.4,0.6c-1.81,0-2.97-0.79-3.3-2.34
		l1.85-0.33c0.13,0.83,0.69,1.25,1.5,1.25c0.72,0,1.17-0.21,1.42-0.63c0.21-0.31,0.27-0.83,0.27-1.46V388.32z M95.41,383.22
		c-1.11,0-1.8,0.84-1.8,2.29c0,1.53,0.68,2.4,1.74,2.4c1.02,0,1.68-0.72,1.69-2.23C97.05,384.15,96.49,383.22,95.41,383.22z"/>
	<path class="st0" d="M105.48,389.36v-1.05c-0.48,0.7-1.19,1.2-2.23,1.2c-1.72,0-3-1.32-3-3.91c0-2.45,1.38-3.85,3.1-3.85
		c1.11,0,1.73,0.4,2.13,0.98v-3.94h1.71v10.59H105.48z M103.78,383.19c-1.04,0-1.74,0.79-1.74,2.38c0,1.5,0.63,2.46,1.66,2.46
		c1.04,0,1.77-0.81,1.77-2.4C105.48,384.14,104.83,383.19,103.78,383.19z"/>
	<path class="st0" d="M112.27,389.57c-2.34,0-3.66-1.47-3.66-3.96c0-2.47,1.46-3.93,3.77-3.93c2.22,0,3.55,1.48,3.55,4.02
		C115.93,388.19,114.46,389.57,112.27,389.57z M112.33,383.15c-1.11,0-1.92,0.85-1.92,2.42c0,1.69,0.78,2.54,1.88,2.54
		c1.09,0,1.87-0.77,1.87-2.45C114.16,383.99,113.44,383.15,112.33,383.15z"/>
	<path class="st0" d="M122.01,384.47c-0.21-0.99-0.75-1.32-1.46-1.32c-1.02,0-1.8,0.77-1.8,2.43c0,1.65,0.69,2.52,1.84,2.52
		c0.79,0,1.27-0.42,1.46-1.22l1.57,0.54c-0.44,1.25-1.42,2.15-3.12,2.15c-2.17,0-3.56-1.5-3.56-3.96c0-2.44,1.41-3.93,3.65-3.93
		c1.62,0,2.64,0.92,2.98,2.25L122.01,384.47z"/>
	<path class="st0" d="M125.4,386.99c0.39,0.77,1.08,1.22,1.9,1.22c0.77,0,1.19-0.33,1.19-0.78c0-0.49-0.25-0.7-1.38-1.06l-0.79-0.25
		c-1.15-0.36-1.89-1.04-1.89-2.17c0-1.17,1.05-2.25,2.9-2.25c1.19,0,2.28,0.45,2.94,1.5l-1.3,0.88c-0.38-0.66-0.95-1.05-1.67-1.05
		c-0.75,0-1.11,0.3-1.11,0.73c0,0.45,0.24,0.66,1.2,0.96l0.79,0.24c1.32,0.42,2.07,1.03,2.07,2.23c0,1.38-1.15,2.38-3.01,2.38
		c-1.53,0-2.56-0.73-3.19-1.68L125.4,386.99z"/>
	<path class="st0" d="M61.12,407.36v-10.59h4.36c1.46,0,2.34,0.22,2.92,0.64c0.79,0.56,1.15,1.53,1.15,2.6
		c0,1.19-0.42,2.25-1.35,2.77c-0.78,0.44-1.88,0.58-3.15,0.58h-2.06v3.99H61.12z M64.92,401.75c1.03,0,1.71-0.1,2.13-0.39
		c0.39-0.28,0.54-0.73,0.54-1.33c0-0.54-0.18-0.99-0.54-1.28c-0.41-0.3-0.92-0.36-2.01-0.36h-2.02v3.36H64.92z"/>
	<path class="st0" d="M72,399.89v4.26c0,0.45,0.06,0.89,0.19,1.17c0.2,0.41,0.56,0.63,1.12,0.63c0.5,0,0.93-0.25,1.2-0.58
		c0.31-0.4,0.46-0.9,0.46-1.6v-3.87h1.75v7.47h-1.72v-1.06c-0.51,0.72-1.28,1.2-2.33,1.2c-0.96,0-1.54-0.3-1.96-0.9
		c-0.33-0.46-0.46-1.12-0.46-1.99v-4.71H72z"/>
	<path class="st0" d="M80.29,396.77v4.12c0.5-0.65,1.27-1.15,2.34-1.15c1.75,0,2.88,1.46,2.88,3.88c0,2.44-1.23,3.88-3.07,3.88
		c-1.02,0-1.71-0.39-2.22-1.12v0.98h-1.68v-10.59H80.29z M82,406.04c1.03,0,1.68-0.83,1.68-2.42c0-1.5-0.61-2.42-1.62-2.42
		c-1.06,0-1.81,0.9-1.81,2.33C80.25,405.12,80.89,406.04,82,406.04z"/>
	<path class="st0" d="M88.71,407.36h-1.77v-10.59h1.77V407.36z"/>
	<path class="st0" d="M90.52,398.42v-1.65h1.79v1.65H90.52z M92.31,407.36h-1.77v-7.47h1.77V407.36z"/>
	<path class="st0" d="M94.81,404.99c0.39,0.77,1.08,1.22,1.9,1.22c0.77,0,1.19-0.33,1.19-0.78c0-0.49-0.25-0.7-1.38-1.06l-0.79-0.25
		c-1.15-0.36-1.89-1.04-1.89-2.17c0-1.17,1.05-2.25,2.9-2.25c1.19,0,2.28,0.45,2.94,1.5l-1.3,0.88c-0.38-0.66-0.95-1.05-1.67-1.05
		c-0.75,0-1.11,0.3-1.11,0.73c0,0.45,0.24,0.66,1.2,0.96l0.79,0.24c1.32,0.42,2.07,1.03,2.07,2.23c0,1.38-1.15,2.38-3.01,2.38
		c-1.53,0-2.56-0.73-3.19-1.68L94.81,404.99z"/>
	<path class="st0" d="M105.7,407.36v-4.29c0-0.64-0.06-1.06-0.31-1.36c-0.19-0.25-0.5-0.38-0.96-0.38c-0.48,0-0.98,0.25-1.27,0.66
		c-0.38,0.49-0.44,1.05-0.44,1.77v3.6h-1.75v-10.59h1.74V401c0.54-0.76,1.43-1.24,2.48-1.24c0.87,0,1.46,0.28,1.83,0.81
		c0.33,0.47,0.45,1.04,0.45,2.16v4.63H105.7z"/>
	<path class="st0" d="M115.74,405.48c-0.55,1.35-1.69,2.1-3.25,2.1c-2.4,0-3.69-1.56-3.69-4.04c0-2.38,1.44-3.87,3.62-3.87
		c2.37,0,3.36,1.73,3.37,4.4h-5.22c0.06,1.29,0.77,2.02,1.95,2.02c0.76,0,1.41-0.3,1.68-1.16L115.74,405.48z M114,402.81
		c-0.06-1.17-0.68-1.77-1.64-1.77s-1.66,0.6-1.78,1.77H114z"/>
	<path class="st0" d="M117.15,407.36v-7.47h1.68v1.15c0.45-0.81,1.04-1.24,2.07-1.24c0.24,0,0.42,0.03,0.64,0.09v1.77
		c-0.28-0.15-0.51-0.21-0.84-0.21c-0.58,0-1.08,0.25-1.41,0.73c-0.26,0.38-0.39,0.9-0.39,1.69v3.48H117.15z"/>
</g>
<g>
	<path class="st0" d="M243.8,114.36v-4.29c0-0.64-0.06-1.06-0.32-1.36c-0.19-0.25-0.5-0.38-0.96-0.38c-0.48,0-0.97,0.25-1.28,0.66
		c-0.38,0.49-0.43,1.05-0.43,1.77v3.6h-1.75v-10.59h1.74V108c0.54-0.76,1.42-1.24,2.47-1.24c0.87,0,1.46,0.28,1.83,0.81
		c0.33,0.47,0.45,1.04,0.45,2.16v4.63H243.8z"/>
	<path class="st0" d="M248.99,106.89v4.26c0,0.45,0.06,0.89,0.2,1.17c0.2,0.41,0.55,0.63,1.12,0.63c0.49,0,0.93-0.25,1.2-0.58
		c0.32-0.4,0.46-0.9,0.46-1.6v-3.87h1.76v7.47h-1.72v-1.06c-0.51,0.72-1.28,1.2-2.33,1.2c-0.96,0-1.54-0.3-1.96-0.9
		c-0.33-0.46-0.46-1.12-0.46-1.99v-4.71H248.99z"/>
	<path class="st0" d="M262.93,114.36v-1.15c-0.74,0.94-1.75,1.36-3.1,1.36c-2.67,0-4.59-2.11-4.59-5.37c0-3.23,1.89-5.67,5.23-5.67
		c2.13,0,3.53,0.96,4.2,2.79l-1.89,0.72c-0.33-1.12-1.1-1.81-2.36-1.81c-1.99,0-3.2,1.48-3.2,3.85c0,2.49,1.28,3.82,3.09,3.82
		c1.7,0,2.51-1.03,2.57-2.76h-2.96v-1.62h4.73v5.83H262.93z"/>
	<path class="st0" d="M266.27,108.99c0-3.35,1.97-5.46,5.04-5.46c2.89,0,4.78,2.22,4.78,5.58c0,3.46-1.91,5.49-4.78,5.49
		C268.15,114.6,266.27,112.42,266.27,108.99z M271.22,105.22c-1.82,0-2.97,1.38-2.97,3.73c0,2.46,1.19,3.94,3.02,3.94
		c1.66,0,2.83-1.29,2.83-3.82C274.1,106.63,272.95,105.22,271.22,105.22z"/>
	<path class="st0" d="M281.48,113.92v-3.33h-3.3v-1.68h3.3v-3.36h1.75v3.36h3.3v1.68h-3.3v3.33H281.48z"/>
</g>
<g>
	<path class="st0" d="M228.12,297.36v-10.59h1.9v8.94h4.99v1.65H228.12z"/>
	<path class="st0" d="M236.3,288.42v-1.65h1.79v1.65H236.3z M238.08,297.36h-1.77v-7.47h1.77V297.36z"/>
	<path class="st0" d="M241.73,297.36l-2.73-7.47h1.95c0.87,2.55,1.38,4.09,1.84,5.68c0.43-1.53,0.93-3.15,1.8-5.68h1.86l-2.68,7.47
		H241.73z"/>
	<path class="st0" d="M247.35,288.42v-1.65h1.79v1.65H247.35z M249.14,297.36h-1.77v-7.47h1.77V297.36z"/>
	<path class="st0" d="M255.71,297.36v-4.29c0-0.58-0.06-1.02-0.27-1.32c-0.19-0.28-0.52-0.42-1-0.42s-0.97,0.25-1.28,0.66
		c-0.38,0.49-0.43,1.05-0.43,1.77v3.6h-1.75v-7.47h1.74V291c0.54-0.76,1.42-1.24,2.47-1.24c0.9,0,1.48,0.31,1.86,0.88
		c0.3,0.45,0.42,1.04,0.42,2.04v4.68H255.71z"/>
	<path class="st0" d="M264,296.32c-0.53,0.65-1.25,0.96-2.21,0.96c-1.83,0-3-1.39-3-3.75c0-2.34,1.26-3.77,3.1-3.77
		c1.04,0,1.75,0.38,2.17,1.05v-0.92h1.74v6.96c0,1.54-0.36,2.52-1.16,3.08c-0.58,0.42-1.44,0.6-2.4,0.6c-1.82,0-2.97-0.79-3.3-2.34
		l1.85-0.33c0.13,0.83,0.69,1.25,1.5,1.25c0.72,0,1.17-0.21,1.42-0.63c0.21-0.31,0.27-0.83,0.27-1.46V296.32z M262.41,291.22
		c-1.11,0-1.8,0.84-1.8,2.29c0,1.53,0.68,2.4,1.74,2.4c1.02,0,1.68-0.72,1.7-2.23C264.05,292.15,263.49,291.22,262.41,291.22z"/>
	<path class="st0" d="M272.48,297.36v-1.05c-0.48,0.7-1.19,1.2-2.24,1.2c-1.72,0-3-1.32-3-3.91c0-2.45,1.38-3.85,3.1-3.85
		c1.11,0,1.73,0.4,2.13,0.98v-3.94h1.71v10.59H272.48z M270.78,291.19c-1.04,0-1.74,0.79-1.74,2.38c0,1.5,0.63,2.46,1.67,2.46
		c1.04,0,1.77-0.81,1.77-2.4C272.48,292.14,271.83,291.19,270.78,291.19z"/>
	<path class="st0" d="M279.27,297.57c-2.34,0-3.66-1.47-3.66-3.96c0-2.47,1.46-3.93,3.77-3.93c2.22,0,3.55,1.48,3.55,4.02
		C282.93,296.19,281.46,297.57,279.27,297.57z M279.33,291.15c-1.11,0-1.92,0.85-1.92,2.42c0,1.69,0.78,2.54,1.88,2.54
		c1.09,0,1.87-0.77,1.87-2.45C281.16,291.99,280.44,291.15,279.33,291.15z"/>
	<path class="st0" d="M289.01,292.47c-0.21-0.99-0.75-1.32-1.46-1.32c-1.02,0-1.8,0.77-1.8,2.43c0,1.65,0.69,2.52,1.84,2.52
		c0.79,0,1.28-0.42,1.46-1.22l1.58,0.54c-0.43,1.25-1.42,2.15-3.12,2.15c-2.17,0-3.55-1.5-3.55-3.96c0-2.44,1.41-3.93,3.64-3.93
		c1.62,0,2.64,0.92,2.99,2.25L289.01,292.47z"/>
	<path class="st0" d="M292.4,294.99c0.39,0.77,1.08,1.22,1.9,1.22c0.77,0,1.19-0.33,1.19-0.78c0-0.49-0.26-0.7-1.38-1.06l-0.79-0.25
		c-1.15-0.36-1.89-1.04-1.89-2.17c0-1.17,1.05-2.25,2.9-2.25c1.18,0,2.28,0.45,2.94,1.5l-1.3,0.88c-0.38-0.66-0.95-1.05-1.67-1.05
		c-0.75,0-1.11,0.3-1.11,0.73c0,0.45,0.24,0.66,1.2,0.96l0.79,0.24c1.32,0.42,2.07,1.03,2.07,2.23c0,1.38-1.15,2.38-3.01,2.38
		c-1.53,0-2.57-0.73-3.2-1.68L292.4,294.99z"/>
	<path class="st0" d="M228.95,312.06c0.63,1.26,1.62,1.88,2.79,1.88c1.29,0,2-0.51,2-1.33c0-0.75-0.46-1.05-2.04-1.6l-1.14-0.41
		c-1.8-0.64-2.62-1.47-2.62-3c0-1.81,1.63-3.06,3.79-3.06c1.81,0,3.21,0.77,4.05,2.16l-1.53,1.09c-0.71-1.2-1.62-1.63-2.7-1.63
		c-1.05,0-1.65,0.52-1.65,1.24c0,0.69,0.39,1.04,1.77,1.49l1.21,0.4c1.96,0.63,2.87,1.52,2.87,3.1c0,1.9-1.58,3.22-4.04,3.22
		c-1.92,0-3.46-0.9-4.33-2.43L228.95,312.06z"/>
	<path class="st0" d="M243.74,313.48c-0.55,1.35-1.69,2.1-3.25,2.1c-2.4,0-3.69-1.56-3.69-4.04c0-2.38,1.44-3.87,3.62-3.87
		c2.37,0,3.36,1.73,3.37,4.4h-5.22c0.06,1.29,0.76,2.02,1.95,2.02c0.77,0,1.41-0.3,1.68-1.16L243.74,313.48z M242,310.81
		c-0.06-1.17-0.67-1.77-1.63-1.77s-1.67,0.6-1.79,1.77H242z"/>
	<path class="st0" d="M245.15,315.36v-7.47h1.68v1.15c0.45-0.81,1.04-1.24,2.07-1.24c0.24,0,0.42,0.03,0.64,0.09v1.77
		c-0.28-0.15-0.51-0.21-0.84-0.21c-0.58,0-1.08,0.25-1.41,0.73c-0.26,0.38-0.39,0.9-0.39,1.69v3.48H245.15z"/>
	<path class="st0" d="M252.51,315.36l-2.73-7.47h1.95c0.87,2.55,1.38,4.09,1.84,5.68c0.43-1.53,0.93-3.15,1.8-5.68h1.86l-2.68,7.47
		H252.51z"/>
	<path class="st0" d="M264.53,313.48c-0.55,1.35-1.7,2.1-3.26,2.1c-2.4,0-3.69-1.56-3.69-4.04c0-2.38,1.44-3.87,3.62-3.87
		c2.37,0,3.36,1.73,3.38,4.4h-5.22c0.06,1.29,0.77,2.02,1.95,2.02c0.76,0,1.41-0.3,1.68-1.16L264.53,313.48z M262.79,310.81
		c-0.06-1.17-0.67-1.77-1.63-1.77s-1.67,0.6-1.79,1.77H262.79z"/>
	<path class="st0" d="M265.94,315.36v-7.47h1.68v1.15c0.45-0.81,1.04-1.24,2.07-1.24c0.24,0,0.42,0.03,0.64,0.09v1.77
		c-0.29-0.15-0.51-0.21-0.84-0.21c-0.58,0-1.08,0.25-1.41,0.73c-0.25,0.38-0.39,0.9-0.39,1.69v3.48H265.94z"/>
</g>
<g>
	<path class="st0" d="M444.08,644.36l-0.84-2.48h-4.19l-0.85,2.48h-2.05l4.02-10.59h2.11l3.87,10.59H444.08z M442.78,640.38
		c-0.6-1.73-1.11-3.17-1.61-4.71c-0.34,1.06-0.72,2.12-1.65,4.71H442.78z"/>
	<path class="st0" d="M451.9,644.36v-1.05c-0.48,0.71-1.18,1.2-2.23,1.2c-1.72,0-3-1.32-3-3.91c0-2.45,1.38-3.86,3.11-3.86
		c1.11,0,1.72,0.41,2.13,0.98v-3.94h1.71v10.59H451.9z M450.2,638.19c-1.04,0-1.74,0.79-1.74,2.38c0,1.5,0.63,2.46,1.66,2.46
		s1.77-0.81,1.77-2.4C451.9,639.14,451.25,638.19,450.2,638.19z"/>
	<path class="st0" d="M458.69,644.57c-2.34,0-3.66-1.47-3.66-3.96c0-2.47,1.46-3.93,3.76-3.93c2.22,0,3.55,1.49,3.55,4.02
		C462.35,643.19,460.88,644.57,458.69,644.57z M458.75,638.15c-1.11,0-1.92,0.86-1.92,2.42c0,1.69,0.78,2.54,1.88,2.54
		c1.1,0,1.88-0.76,1.88-2.45C460.58,638.99,459.86,638.15,458.75,638.15z"/>
	<path class="st0" d="M465.53,633.77v4.12c0.5-0.65,1.27-1.16,2.34-1.16c1.75,0,2.88,1.46,2.88,3.88c0,2.45-1.23,3.88-3.07,3.88
		c-1.02,0-1.71-0.39-2.22-1.12v0.98h-1.68v-10.59H465.53z M467.24,643.04c1.04,0,1.68-0.83,1.68-2.42c0-1.5-0.62-2.41-1.62-2.41
		c-1.07,0-1.82,0.9-1.82,2.32C465.49,642.12,466.13,643.04,467.24,643.04z"/>
	<path class="st0" d="M478.72,642.48c-0.55,1.35-1.7,2.1-3.25,2.1c-2.4,0-3.69-1.56-3.69-4.04c0-2.38,1.44-3.87,3.62-3.87
		c2.37,0,3.36,1.73,3.38,4.4h-5.22c0.06,1.29,0.76,2.02,1.95,2.02c0.76,0,1.41-0.3,1.68-1.16L478.72,642.48z M476.98,639.81
		c-0.06-1.17-0.67-1.77-1.63-1.77s-1.66,0.6-1.79,1.77H476.98z"/>
	<path class="st0" d="M439.45,662.36v-8.95h-2.98v-1.63h7.95v1.63h-3v8.95H439.45z"/>
	<path class="st0" d="M448.22,657.29c0-0.42-0.09-0.71-0.29-0.9c-0.21-0.21-0.57-0.31-1.04-0.31c-0.92,0-1.32,0.46-1.41,1.29
		l-1.68-0.15c0.12-1.62,1.32-2.52,3.22-2.52c1.02,0,1.74,0.24,2.24,0.72c0.46,0.43,0.63,1.05,0.63,2.22v2.75
		c0,0.88,0.06,1.62,0.21,1.98h-1.69c-0.06-0.24-0.15-0.71-0.15-0.93c-0.57,0.69-1.38,1.07-2.45,1.07c-1.37,0-2.32-0.85-2.32-2.19
		c0-0.96,0.48-1.59,1.36-2c0.74-0.33,2.17-0.54,3.36-0.62V657.29z M448.22,658.86c-0.86,0.04-1.86,0.2-2.38,0.45
		c-0.46,0.21-0.65,0.5-0.65,0.92c0,0.54,0.36,0.95,1.14,0.95c0.68,0,1.23-0.29,1.56-0.78c0.24-0.34,0.31-0.76,0.33-1.18V658.86z"/>
	<path class="st0" d="M451.67,662.36v-7.47h1.68v1.15c0.45-0.81,1.04-1.24,2.07-1.24c0.24,0,0.42,0.03,0.64,0.09v1.77
		c-0.28-0.15-0.51-0.21-0.84-0.21c-0.58,0-1.08,0.25-1.41,0.73c-0.25,0.38-0.39,0.9-0.39,1.7v3.48H451.67z"/>
	<path class="st0" d="M461.86,661.32c-0.53,0.65-1.25,0.96-2.21,0.96c-1.83,0-3-1.39-3-3.75c0-2.34,1.26-3.76,3.1-3.76
		c1.04,0,1.75,0.38,2.17,1.05v-0.91h1.74v6.96c0,1.54-0.36,2.52-1.16,3.08c-0.58,0.42-1.44,0.6-2.4,0.6c-1.82,0-2.97-0.79-3.3-2.34
		l1.85-0.33c0.13,0.83,0.69,1.25,1.5,1.25c0.72,0,1.17-0.21,1.42-0.63c0.21-0.32,0.27-0.83,0.27-1.46V661.32z M460.27,656.22
		c-1.11,0-1.8,0.84-1.8,2.29c0,1.53,0.68,2.4,1.74,2.4c1.02,0,1.68-0.72,1.7-2.23C461.9,657.15,461.35,656.22,460.27,656.22z"/>
	<path class="st0" d="M472.04,660.48c-0.55,1.35-1.69,2.1-3.25,2.1c-2.4,0-3.69-1.56-3.69-4.04c0-2.38,1.44-3.87,3.62-3.87
		c2.37,0,3.36,1.73,3.37,4.4h-5.22c0.06,1.29,0.76,2.02,1.95,2.02c0.77,0,1.41-0.3,1.68-1.16L472.04,660.48z M470.3,657.81
		c-0.06-1.17-0.67-1.77-1.63-1.77s-1.67,0.6-1.79,1.77H470.3z"/>
	<path class="st0" d="M477.1,662.33c-0.39,0.11-0.87,0.17-1.3,0.17c-0.74,0-1.23-0.18-1.53-0.54c-0.31-0.36-0.42-0.88-0.42-1.57
		v-4.08h-1.17v-1.41h1.2v-2.43h1.74v2.43h1.46v1.41h-1.46v3.73c0,0.77,0.23,1.04,0.77,1.04c0.21,0,0.48-0.04,0.72-0.13V662.33z"/>
</g>
<g>
	<path class="st0" d="M328.12,297.36v-10.59h1.9v8.94h4.99v1.65H328.12z"/>
	<path class="st0" d="M336.3,288.42v-1.65h1.79v1.65H336.3z M338.08,297.36h-1.77v-7.47h1.77V297.36z"/>
	<path class="st0" d="M341.73,297.36l-2.73-7.47h1.95c0.87,2.55,1.38,4.09,1.84,5.68c0.43-1.53,0.93-3.15,1.8-5.68h1.86l-2.68,7.47
		H341.73z"/>
	<path class="st0" d="M347.35,288.42v-1.65h1.79v1.65H347.35z M349.14,297.36h-1.77v-7.47h1.77V297.36z"/>
	<path class="st0" d="M355.71,297.36v-4.29c0-0.58-0.06-1.02-0.27-1.32c-0.19-0.28-0.52-0.42-1-0.42s-0.97,0.25-1.28,0.66
		c-0.38,0.49-0.43,1.05-0.43,1.77v3.6h-1.75v-7.47h1.74V291c0.54-0.76,1.42-1.24,2.47-1.24c0.9,0,1.48,0.31,1.86,0.88
		c0.3,0.45,0.42,1.04,0.42,2.04v4.68H355.71z"/>
	<path class="st0" d="M364,296.32c-0.53,0.65-1.25,0.96-2.21,0.96c-1.83,0-3-1.39-3-3.75c0-2.34,1.26-3.77,3.1-3.77
		c1.04,0,1.75,0.38,2.17,1.05v-0.92h1.74v6.96c0,1.54-0.36,2.52-1.16,3.08c-0.58,0.42-1.44,0.6-2.4,0.6c-1.82,0-2.97-0.79-3.3-2.34
		l1.85-0.33c0.13,0.83,0.69,1.25,1.5,1.25c0.72,0,1.17-0.21,1.42-0.63c0.21-0.31,0.27-0.83,0.27-1.46V296.32z M362.41,291.22
		c-1.11,0-1.8,0.84-1.8,2.29c0,1.53,0.68,2.4,1.74,2.4c1.02,0,1.68-0.72,1.7-2.23C364.05,292.15,363.49,291.22,362.41,291.22z"/>
	<path class="st0" d="M372.48,297.36v-1.05c-0.48,0.7-1.19,1.2-2.24,1.2c-1.72,0-3-1.32-3-3.91c0-2.45,1.38-3.85,3.1-3.85
		c1.11,0,1.73,0.4,2.13,0.98v-3.94h1.71v10.59H372.48z M370.78,291.19c-1.04,0-1.74,0.79-1.74,2.38c0,1.5,0.63,2.46,1.67,2.46
		c1.04,0,1.77-0.81,1.77-2.4C372.48,292.14,371.83,291.19,370.78,291.19z"/>
	<path class="st0" d="M379.27,297.57c-2.34,0-3.66-1.47-3.66-3.96c0-2.47,1.46-3.93,3.77-3.93c2.22,0,3.55,1.48,3.55,4.02
		C382.93,296.19,381.46,297.57,379.27,297.57z M379.33,291.15c-1.11,0-1.92,0.85-1.92,2.42c0,1.69,0.78,2.54,1.88,2.54
		c1.09,0,1.87-0.77,1.87-2.45C381.16,291.99,380.44,291.15,379.33,291.15z"/>
	<path class="st0" d="M389.01,292.47c-0.21-0.99-0.75-1.32-1.46-1.32c-1.02,0-1.8,0.77-1.8,2.43c0,1.65,0.69,2.52,1.84,2.52
		c0.79,0,1.28-0.42,1.46-1.22l1.58,0.54c-0.43,1.25-1.42,2.15-3.12,2.15c-2.17,0-3.55-1.5-3.55-3.96c0-2.44,1.41-3.93,3.64-3.93
		c1.62,0,2.64,0.92,2.99,2.25L389.01,292.47z"/>
	<path class="st0" d="M392.4,294.99c0.39,0.77,1.08,1.22,1.9,1.22c0.77,0,1.19-0.33,1.19-0.78c0-0.49-0.26-0.7-1.38-1.06l-0.79-0.25
		c-1.15-0.36-1.89-1.04-1.89-2.17c0-1.17,1.05-2.25,2.9-2.25c1.18,0,2.28,0.45,2.94,1.5l-1.3,0.88c-0.38-0.66-0.95-1.05-1.67-1.05
		c-0.75,0-1.11,0.3-1.11,0.73c0,0.45,0.24,0.66,1.2,0.96l0.79,0.24c1.32,0.42,2.07,1.03,2.07,2.23c0,1.38-1.15,2.38-3.01,2.38
		c-1.53,0-2.57-0.73-3.2-1.68L392.4,294.99z"/>
	<path class="st0" d="M328.12,315.36v-10.59h7.36v1.63h-5.44v2.7h5.02v1.64h-5.02v2.97h5.74v1.65H328.12z"/>
	<path class="st0" d="M341.7,315.36v-1.05c-0.48,0.7-1.18,1.2-2.23,1.2c-1.72,0-3-1.32-3-3.91c0-2.45,1.38-3.85,3.1-3.85
		c1.11,0,1.73,0.4,2.13,0.98v-3.94h1.71v10.59H341.7z M340,309.19c-1.04,0-1.74,0.79-1.74,2.38c0,1.5,0.63,2.46,1.67,2.46
		s1.77-0.81,1.77-2.4C341.7,310.14,341.05,309.19,340,309.19z"/>
	<path class="st0" d="M345.22,306.42v-1.65h1.79v1.65H345.22z M347.01,315.36h-1.77v-7.47h1.77V315.36z"/>
	<path class="st0" d="M352.48,315.33c-0.39,0.1-0.87,0.16-1.3,0.16c-0.74,0-1.23-0.18-1.53-0.54c-0.32-0.36-0.42-0.89-0.42-1.58
		v-4.08h-1.17v-1.41h1.2v-2.43H351v2.43h1.46v1.41H351v3.73c0,0.76,0.23,1.03,0.76,1.03c0.21,0,0.48-0.04,0.72-0.13V315.33z"/>
	<path class="st0" d="M356.8,315.57c-2.34,0-3.66-1.47-3.66-3.96c0-2.47,1.46-3.93,3.76-3.93c2.22,0,3.55,1.48,3.55,4.02
		C360.46,314.19,358.99,315.57,356.8,315.57z M356.86,309.15c-1.11,0-1.92,0.85-1.92,2.42c0,1.69,0.78,2.54,1.88,2.54
		s1.87-0.77,1.87-2.45C358.69,309.99,357.97,309.15,356.86,309.15z"/>
	<path class="st0" d="M361.89,315.36v-7.47h1.68v1.15c0.45-0.81,1.04-1.24,2.07-1.24c0.24,0,0.42,0.03,0.64,0.09v1.77
		c-0.28-0.15-0.51-0.21-0.84-0.21c-0.58,0-1.08,0.25-1.41,0.73c-0.25,0.38-0.39,0.9-0.39,1.69v3.48H361.89z"/>
</g>
<g>
	<path class="st0" d="M438.82,489.77v4.12c0.5-0.65,1.27-1.16,2.34-1.16c1.75,0,2.88,1.46,2.88,3.88c0,2.45-1.23,3.88-3.07,3.88
		c-1.02,0-1.71-0.39-2.22-1.12v0.98h-1.68v-10.59H438.82z M440.53,499.04c1.04,0,1.68-0.83,1.68-2.42c0-1.5-0.62-2.41-1.62-2.41
		c-1.07,0-1.82,0.9-1.82,2.32C438.77,498.12,439.42,499.04,440.53,499.04z"/>
	<path class="st0" d="M447.23,500.36h-1.77v-10.59h1.77V500.36z"/>
	<path class="st0" d="M450.76,492.89v4.26c0,0.45,0.06,0.88,0.19,1.17c0.2,0.41,0.56,0.63,1.12,0.63c0.5,0,0.93-0.25,1.2-0.58
		c0.31-0.4,0.46-0.9,0.46-1.6v-3.87h1.75v7.47h-1.72v-1.07c-0.51,0.72-1.28,1.2-2.33,1.2c-0.96,0-1.54-0.3-1.96-0.9
		c-0.33-0.46-0.46-1.12-0.46-2v-4.71H450.76z"/>
	<path class="st0" d="M463.84,498.48c-0.55,1.35-1.69,2.1-3.25,2.1c-2.4,0-3.69-1.56-3.69-4.04c0-2.38,1.44-3.87,3.62-3.87
		c2.37,0,3.36,1.73,3.37,4.4h-5.22c0.06,1.29,0.77,2.02,1.95,2.02c0.76,0,1.41-0.3,1.68-1.16L463.84,498.48z M462.1,495.81
		c-0.06-1.17-0.68-1.77-1.64-1.77s-1.67,0.6-1.78,1.77H462.1z"/>
	<path class="st0" d="M471.34,500.36c-0.5-2.04-0.96-3.75-1.34-5.55c-0.31,1.44-0.66,2.76-1.44,5.55h-1.98l-2.25-7.47h1.92
		c0.51,1.98,1.11,4.2,1.46,5.62c0.3-1.41,0.63-2.89,1.38-5.62h1.84c0.63,2.4,1.02,3.97,1.38,5.62c0.36-1.61,0.93-3.71,1.46-5.62h1.8
		l-2.26,7.47H471.34z"/>
	<path class="st0" d="M476.47,491.42v-1.65h1.79v1.65H476.47z M478.25,500.36h-1.77v-7.47h1.77V500.36z"/>
	<path class="st0" d="M484.82,500.36v-4.29c0-0.58-0.06-1.02-0.27-1.32c-0.19-0.28-0.52-0.42-1-0.42s-0.97,0.26-1.28,0.66
		c-0.38,0.5-0.43,1.05-0.43,1.77v3.6h-1.75v-7.47h1.74V494c0.54-0.76,1.42-1.24,2.47-1.24c0.9,0,1.48,0.31,1.86,0.88
		c0.3,0.45,0.42,1.04,0.42,2.04v4.68H484.82z"/>
	<path class="st0" d="M489.97,500.36h-1.75v-2.17h1.75V500.36z"/>
	<path class="st0" d="M496.34,495.47c-0.21-0.99-0.75-1.32-1.46-1.32c-1.02,0-1.8,0.77-1.8,2.43c0,1.65,0.69,2.52,1.84,2.52
		c0.79,0,1.28-0.42,1.46-1.22l1.57,0.54c-0.43,1.24-1.42,2.14-3.12,2.14c-2.17,0-3.55-1.5-3.55-3.96c0-2.44,1.41-3.93,3.64-3.93
		c1.62,0,2.64,0.92,2.98,2.25L496.34,495.47z"/>
	<path class="st0" d="M503.8,500.36v-4.29c0-0.64-0.06-1.06-0.32-1.37c-0.19-0.25-0.5-0.38-0.96-0.38c-0.48,0-0.97,0.26-1.28,0.66
		c-0.38,0.5-0.43,1.05-0.43,1.77v3.6h-1.75v-10.59h1.74V494c0.54-0.76,1.42-1.24,2.47-1.24c0.87,0,1.46,0.29,1.83,0.81
		c0.33,0.47,0.45,1.04,0.45,2.16v4.63H503.8z"/>
</g>
<g>
	<path class="st0" d="M110.17,619.36c0-5.29,0-6.79,0.06-8.55c-0.65,2.03-0.93,2.88-2.83,8.55h-1.65c-1.33-4.16-2.11-6.22-2.82-8.53
		c0.04,1.89,0.04,3.25,0.04,8.53h-1.84v-10.59h2.74c1.35,3.93,2.08,5.97,2.73,8.08c0.6-2.05,1.05-3.34,2.65-8.08H112v10.59H110.17z"
		/>
	<path class="st0" d="M117.16,619.57c-2.34,0-3.66-1.47-3.66-3.96c0-2.47,1.46-3.93,3.77-3.93c2.22,0,3.55,1.49,3.55,4.02
		C120.82,618.19,119.35,619.57,117.16,619.57z M117.22,613.15c-1.11,0-1.92,0.86-1.92,2.42c0,1.69,0.78,2.54,1.88,2.54
		c1.09,0,1.87-0.76,1.87-2.45C119.05,613.99,118.33,613.15,117.22,613.15z"/>
	<path class="st0" d="M124,608.77v4.12c0.5-0.65,1.27-1.16,2.34-1.16c1.75,0,2.88,1.46,2.88,3.88c0,2.45-1.23,3.88-3.07,3.88
		c-1.02,0-1.71-0.39-2.22-1.12v0.98h-1.68v-10.59H124z M125.71,618.04c1.03,0,1.68-0.83,1.68-2.42c0-1.5-0.61-2.41-1.62-2.41
		c-1.06,0-1.81,0.9-1.81,2.32C123.95,617.12,124.6,618.04,125.71,618.04z"/>
	<path class="st0" d="M130.63,610.42v-1.65h1.79v1.65H130.63z M132.41,619.36h-1.77v-7.47h1.77V619.36z"/>
	<path class="st0" d="M136.01,619.36h-1.77v-10.59h1.77V619.36z"/>
	<path class="st0" d="M144.38,617.48c-0.55,1.35-1.69,2.1-3.25,2.1c-2.4,0-3.69-1.56-3.69-4.04c0-2.38,1.44-3.87,3.62-3.87
		c2.37,0,3.36,1.73,3.37,4.4h-5.22c0.06,1.29,0.77,2.02,1.95,2.02c0.76,0,1.41-0.3,1.68-1.16L144.38,617.48z M142.64,614.81
		c-0.06-1.17-0.67-1.77-1.63-1.77s-1.67,0.6-1.79,1.77H142.64z"/>
	<path class="st0" d="M108.08,637.36l-0.84-2.48h-4.19l-0.85,2.48h-2.05l4.02-10.59h2.11l3.87,10.59H108.08z M106.78,633.38
		c-0.6-1.73-1.11-3.17-1.6-4.71c-0.35,1.06-0.72,2.12-1.65,4.71H106.78z"/>
	<path class="st0" d="M112.79,629.89v1.06c0.48-0.71,1.22-1.21,2.27-1.21c1.71,0,2.96,1.3,2.96,3.9c0,2.45-1.38,3.85-3.09,3.85
		c-1.11,0-1.74-0.39-2.13-0.97v3.81h-1.72v-10.44H112.79z M114.49,636.04c1.03,0,1.72-0.79,1.72-2.39c0-1.5-0.61-2.46-1.65-2.46
		c-1.03,0-1.78,0.83-1.78,2.42C112.78,635.11,113.44,636.04,114.49,636.04z"/>
	<path class="st0" d="M121.16,629.89v1.06c0.48-0.71,1.22-1.21,2.27-1.21c1.71,0,2.96,1.3,2.96,3.9c0,2.45-1.38,3.85-3.09,3.85
		c-1.11,0-1.74-0.39-2.13-0.97v3.81h-1.72v-10.44H121.16z M122.86,636.04c1.03,0,1.72-0.79,1.72-2.39c0-1.5-0.61-2.46-1.65-2.46
		c-1.03,0-1.78,0.83-1.78,2.42C121.15,635.11,121.81,636.04,122.86,636.04z"/>
</g>
<g>
	<path class="st0" d="M230.45,619.36v-8.95h-2.98v-1.63h7.95v1.63h-3v8.95H230.45z"/>
	<path class="st0" d="M239.4,619.36l-3.67-10.59h2.07c1.21,3.7,2,6.01,2.66,8.38c0.65-2.35,1.37-4.68,2.59-8.38h2.03l-3.66,10.59
		H239.4z"/>
	<path class="st0" d="M249.06,613.99c0-3.34,1.96-5.46,5.04-5.46c2.9,0,4.79,2.22,4.79,5.58c0,3.46-1.9,5.49-4.79,5.49
		C250.94,619.6,249.06,617.42,249.06,613.99z M254.01,610.22c-1.81,0-2.97,1.38-2.97,3.74c0,2.46,1.18,3.94,3.01,3.94
		c1.67,0,2.84-1.29,2.84-3.83C256.89,611.63,255.74,610.22,254.01,610.22z"/>
	<path class="st0" d="M261.3,616.06c0.63,1.26,1.62,1.88,2.79,1.88c1.29,0,2-0.51,2-1.33c0-0.75-0.47-1.05-2.04-1.6l-1.14-0.41
		c-1.8-0.64-2.62-1.47-2.62-3c0-1.82,1.64-3.06,3.79-3.06c1.82,0,3.21,0.76,4.05,2.16l-1.53,1.09c-0.71-1.2-1.62-1.63-2.7-1.63
		c-1.05,0-1.65,0.53-1.65,1.25c0,0.69,0.39,1.04,1.77,1.49l1.21,0.4c1.96,0.63,2.87,1.52,2.87,3.11c0,1.9-1.58,3.22-4.04,3.22
		c-1.92,0-3.46-0.9-4.33-2.43L261.3,616.06z"/>
</g>
<g>
	<path class="st0" d="M328.12,96.36V85.77h1.9v8.94h4.99v1.65H328.12z"/>
	<path class="st0" d="M336.3,87.42v-1.65h1.79v1.65H336.3z M338.08,96.36h-1.77v-7.47h1.77V96.36z"/>
	<path class="st0" d="M341.73,96.36L339,88.89h1.95c0.87,2.55,1.38,4.09,1.84,5.68c0.43-1.53,0.93-3.15,1.8-5.68h1.86l-2.68,7.47
		H341.73z"/>
	<path class="st0" d="M347.35,87.42v-1.65h1.79v1.65H347.35z M349.14,96.36h-1.77v-7.47h1.77V96.36z"/>
	<path class="st0" d="M355.71,96.36v-4.29c0-0.58-0.06-1.02-0.27-1.32c-0.19-0.28-0.52-0.42-1-0.42s-0.97,0.25-1.28,0.66
		c-0.38,0.49-0.43,1.05-0.43,1.77v3.6h-1.75v-7.47h1.74V90c0.54-0.76,1.42-1.24,2.47-1.24c0.9,0,1.48,0.31,1.86,0.88
		c0.3,0.45,0.42,1.04,0.42,2.04v4.68H355.71z"/>
	<path class="st0" d="M364,95.32c-0.53,0.65-1.25,0.96-2.21,0.96c-1.83,0-3-1.39-3-3.75c0-2.34,1.26-3.77,3.1-3.77
		c1.04,0,1.75,0.38,2.17,1.05V88.9h1.74v6.96c0,1.54-0.36,2.52-1.16,3.08c-0.58,0.42-1.44,0.6-2.4,0.6c-1.82,0-2.97-0.79-3.3-2.34
		l1.85-0.33c0.13,0.83,0.69,1.25,1.5,1.25c0.72,0,1.17-0.21,1.42-0.63c0.21-0.31,0.27-0.83,0.27-1.46V95.32z M362.41,90.22
		c-1.11,0-1.8,0.84-1.8,2.29c0,1.53,0.68,2.4,1.74,2.4c1.02,0,1.68-0.72,1.7-2.23C364.05,91.15,363.49,90.22,362.41,90.22z"/>
	<path class="st0" d="M372.48,96.36v-1.05c-0.48,0.7-1.19,1.2-2.24,1.2c-1.72,0-3-1.32-3-3.91c0-2.45,1.38-3.85,3.1-3.85
		c1.11,0,1.73,0.4,2.13,0.98v-3.94h1.71v10.59H372.48z M370.78,90.19c-1.04,0-1.74,0.79-1.74,2.38c0,1.5,0.63,2.46,1.67,2.46
		c1.04,0,1.77-0.81,1.77-2.4C372.48,91.14,371.83,90.19,370.78,90.19z"/>
	<path class="st0" d="M379.27,96.57c-2.34,0-3.66-1.47-3.66-3.96c0-2.47,1.46-3.93,3.77-3.93c2.22,0,3.55,1.48,3.55,4.02
		C382.93,95.19,381.46,96.57,379.27,96.57z M379.33,90.15c-1.11,0-1.92,0.85-1.92,2.42c0,1.69,0.78,2.54,1.88,2.54
		c1.09,0,1.87-0.77,1.87-2.45C381.16,90.99,380.44,90.15,379.33,90.15z"/>
	<path class="st0" d="M389.01,91.47c-0.21-0.99-0.75-1.32-1.46-1.32c-1.02,0-1.8,0.77-1.8,2.43c0,1.65,0.69,2.52,1.84,2.52
		c0.79,0,1.28-0.42,1.46-1.22l1.58,0.54c-0.43,1.25-1.42,2.15-3.12,2.15c-2.17,0-3.55-1.5-3.55-3.96c0-2.44,1.41-3.93,3.64-3.93
		c1.62,0,2.64,0.92,2.99,2.25L389.01,91.47z"/>
	<path class="st0" d="M392.4,93.99c0.39,0.77,1.08,1.22,1.9,1.22c0.77,0,1.19-0.33,1.19-0.78c0-0.49-0.26-0.7-1.38-1.06l-0.79-0.25
		c-1.15-0.36-1.89-1.04-1.89-2.17c0-1.17,1.05-2.25,2.9-2.25c1.18,0,2.28,0.45,2.94,1.5l-1.3,0.88c-0.38-0.66-0.95-1.05-1.67-1.05
		c-0.75,0-1.11,0.3-1.11,0.73c0,0.45,0.24,0.66,1.2,0.96l0.79,0.24c1.32,0.42,2.07,1.03,2.07,2.23c0,1.38-1.15,2.38-3.01,2.38
		c-1.53,0-2.57-0.73-3.2-1.68L392.4,93.99z"/>
	<path class="st0" d="M330.07,114.36h-1.95v-10.59h1.95V114.36z"/>
	<path class="st0" d="M333.72,106.89V108c0.56-0.78,1.43-1.24,2.4-1.24c1.06,0,1.72,0.45,2.03,1.32c0.63-0.84,1.53-1.31,2.58-1.31
		c0.93,0,1.65,0.39,1.95,1.23c0.17,0.47,0.24,0.96,0.24,2.04v4.32h-1.75v-4.05c0-0.84-0.06-1.23-0.2-1.5
		c-0.17-0.31-0.48-0.48-0.94-0.48s-0.92,0.24-1.17,0.56c-0.39,0.46-0.53,1-0.53,1.9v3.57h-1.75v-4.09c0-0.79-0.03-1.11-0.17-1.41
		c-0.17-0.36-0.51-0.52-0.99-0.52c-0.49,0-0.96,0.25-1.26,0.67c-0.3,0.42-0.42,0.85-0.42,1.77v3.58h-1.75v-7.47H333.72z"/>
	<path class="st0" d="M346.39,106.89v1.06c0.48-0.71,1.21-1.21,2.26-1.21c1.71,0,2.96,1.3,2.96,3.9c0,2.44-1.38,3.85-3.09,3.85
		c-1.11,0-1.74-0.39-2.13-0.97v3.81h-1.72v-10.44H346.39z M348.09,113.04c1.03,0,1.72-0.79,1.72-2.39c0-1.5-0.62-2.46-1.65-2.46
		s-1.79,0.82-1.79,2.41C346.38,112.11,347.04,113.04,348.09,113.04z"/>
	<path class="st0" d="M356.29,114.57c-2.34,0-3.66-1.47-3.66-3.96c0-2.47,1.46-3.93,3.76-3.93c2.22,0,3.55,1.48,3.55,4.02
		C359.95,113.19,358.48,114.57,356.29,114.57z M356.35,108.15c-1.11,0-1.92,0.85-1.92,2.42c0,1.69,0.78,2.54,1.88,2.54
		s1.87-0.77,1.87-2.45C358.18,108.99,357.46,108.15,356.35,108.15z"/>
	<path class="st0" d="M361.38,114.36v-7.47h1.68v1.15c0.45-0.81,1.04-1.24,2.07-1.24c0.24,0,0.42,0.03,0.64,0.09v1.77
		c-0.28-0.15-0.51-0.21-0.84-0.21c-0.58,0-1.08,0.25-1.41,0.73c-0.25,0.38-0.39,0.9-0.39,1.69v3.48H361.38z"/>
	<path class="st0" d="M370.57,114.33c-0.39,0.1-0.87,0.16-1.3,0.16c-0.74,0-1.23-0.18-1.53-0.54c-0.31-0.36-0.42-0.89-0.42-1.58
		v-4.08h-1.17v-1.41h1.2v-2.43h1.74v2.43h1.46v1.41h-1.46v3.73c0,0.76,0.23,1.03,0.77,1.03c0.21,0,0.48-0.04,0.72-0.13V114.33z"/>
	<path class="st0" d="M378.18,112.48c-0.55,1.35-1.69,2.1-3.25,2.1c-2.4,0-3.69-1.56-3.69-4.04c0-2.38,1.44-3.87,3.62-3.87
		c2.37,0,3.36,1.73,3.37,4.4H373c0.06,1.29,0.76,2.02,1.95,2.02c0.77,0,1.41-0.3,1.68-1.16L378.18,112.48z M376.44,109.81
		c-0.06-1.17-0.67-1.77-1.63-1.77s-1.67,0.6-1.79,1.77H376.44z"/>
	<path class="st0" d="M379.59,114.36v-7.47h1.68v1.15c0.45-0.81,1.04-1.24,2.07-1.24c0.24,0,0.42,0.03,0.64,0.09v1.77
		c-0.28-0.15-0.51-0.21-0.84-0.21c-0.58,0-1.08,0.25-1.41,0.73c-0.26,0.38-0.39,0.9-0.39,1.69v3.48H379.59z"/>
</g>
</svg>
