<?xml version="1.0" encoding="utf-8"?>
<!-- Generator: Adobe Illustrator 22.1.0, SVG Export Plug-In . SVG Version: 6.00 Build 0)  -->
<svg version="1.1" id="arrows" xmlns="http://www.w3.org/2000/svg" xmlns:xlink="http://www.w3.org/1999/xlink" x="0px" y="0px"
	 viewBox="0 0 1201 653" style="enable-background:new 0 0 1201 653;" xml:space="preserve">
<style type="text/css">
	.st0{opacity:0.33;}
	.st1{fill:none;stroke:#000000;stroke-miterlimit:10;}
	.st2{fill:none;}
</style>
<g class="st0">
	<g>
		<line class="st1" x1="1050.5" y1="313.4" x2="1051.5" y2="188"/>
		<g>
			<polygon points="1056.7,308.5 1055.6,307.4 1050.5,312.8 1045.5,307.3 1044.4,308.4 1050.5,315 			"/>
		</g>
	</g>
</g>
<g class="st0">
	<g>
		<line class="st1" x1="449.5" y1="499.4" x2="450.5" y2="389"/>
		<g>
			<polygon points="455.7,494.5 454.6,493.4 449.5,498.8 444.5,493.3 443.4,494.3 449.5,501 			"/>
		</g>
	</g>
</g>
<g class="st0">
	<g>
		<line class="st1" x1="705.2" y1="522.6" x2="480.5" y2="371.5"/>
		<g>
			<polygon points="704.4,514.7 703,515.1 704.7,522.3 697.4,523.4 697.6,524.9 706.5,523.5 			"/>
		</g>
	</g>
</g>
<g class="st0">
	<g>
		<line class="st1" x1="192.9" y1="522.6" x2="419.5" y2="372.5"/>
		<g>
			<polygon points="200.4,525 200.6,523.5 193.3,522.3 195.1,515.1 193.6,514.7 191.5,523.5 			"/>
		</g>
	</g>
</g>
<g class="st0">
	<g>
		<line class="st1" x1="790.6" y1="351.5" x2="1014" y2="351.5"/>
		<g>
			<polygon points="795.6,357.6 796.6,356.5 791.2,351.5 796.6,346.5 795.6,345.4 789,351.5 			"/>
		</g>
	</g>
</g>
<g class="st0">
	<g>
		<line class="st1" x1="489.6" y1="351.5" x2="713" y2="351.5"/>
		<g>
			<polygon points="494.6,357.6 495.6,356.5 490.2,351.5 495.6,346.5 494.6,345.4 488,351.5 			"/>
		</g>
	</g>
</g>
<g class="st0">
	<g>
		<line class="st1" x1="803.6" y1="551.5" x2="1013" y2="551.5"/>
		<g>
			<polygon points="808.6,557.6 809.6,556.5 804.2,551.5 809.6,546.5 808.6,545.4 802,551.5 			"/>
		</g>
	</g>
</g>
<g class="st0">
	<g>
		<line class="st1" x1="1012.4" y1="150.5" x2="789" y2="151.5"/>
		<g>
			<polygon points="1007.4,144.4 1006.4,145.5 1011.8,150.5 1006.4,155.6 1007.4,156.7 1014,150.5 			"/>
		</g>
	</g>
</g>
<g class="st0">
	<g>
		<line class="st1" x1="712.4" y1="150.5" x2="501" y2="150.5"/>
		<g>
			<polygon points="707.4,144.4 706.4,145.5 711.8,150.5 706.4,155.5 707.4,156.6 714,150.5 			"/>
		</g>
	</g>
</g>
<g class="st0">
	<path class="st2" d="M1026.5,552"/>
</g>
</svg>
