<?xml version="1.0" encoding="utf-8"?>
<!-- Generator: Adobe Illustrator 22.1.0, SVG Export Plug-In . SVG Version: 6.00 Build 0)  -->
<svg version="1.1" id="Ebene_1" xmlns="http://www.w3.org/2000/svg" xmlns:xlink="http://www.w3.org/1999/xlink" x="0px" y="0px"
	 viewBox="0 0 75 75" style="enable-background:new 0 0 75 75;" xml:space="preserve">
<style type="text/css">
	.st0{fill:#9F9E97;}
	.st1{fill:#FFFFFF;}
</style>
<circle class="st0" cx="37.5" cy="37.5" r="37.5"/>
<g id="GkIljt_1_">
	<g>
		<path class="st1" d="M32.1,25.8c4.2,0,8.3,0,12.6,0c3.1,4.9,6.2,9.9,9.5,15.2c-10.7,0-20.9,0-31.6,0C25.9,35.7,29,30.8,32.1,25.8z
			"/>
		<path class="st1" d="M55.9,43.6c1.4,2.3,2.9,4.7,4.6,7.4c-14.9,0-29.3,0-44.1,0c1.6-2.6,3-5,4.5-7.4
			C32.6,43.6,44.2,43.6,55.9,43.6z"/>
		<path class="st1" d="M33.7,23.1c1.6-2.6,3-4.8,4.7-7.4c1.7,2.7,3.1,4.9,4.7,7.4C39.9,23.1,37.1,23.1,33.7,23.1z"/>
	</g>
</g>
</svg>
