<?xml version="1.0" encoding="utf-8"?>
<!-- Generator: Adobe Illustrator 22.1.0, SVG Export Plug-In . SVG Version: 6.00 Build 0)  -->
<svg version="1.1" id="arrows" xmlns="http://www.w3.org/2000/svg" xmlns:xlink="http://www.w3.org/1999/xlink" x="0px" y="0px"
	 viewBox="0 0 551 700" style="enable-background:new 0 0 551 700;" xml:space="preserve">
<style type="text/css">
	.st0{opacity:0.33;}
	.st1{fill:none;stroke:#000000;stroke-miterlimit:10;}
</style>
<g class="st0">
	<g>
		<line class="st1" x1="177.1" y1="350.5" x2="225" y2="350.5"/>
		<g>
			<polygon points="182.1,356.6 183.1,355.5 177.7,350.5 183.1,345.5 182.1,344.4 175.5,350.5 			"/>
		</g>
	</g>
</g>
<g class="st0">
	<g>
		<line class="st1" x1="276.1" y1="350.5" x2="324" y2="350.5"/>
		<g>
			<polygon points="281.1,356.6 282.1,355.5 276.7,350.5 282.1,345.5 281.1,344.4 274.5,350.5 			"/>
		</g>
	</g>
</g>
<g class="st0">
	<g>
		<line class="st1" x1="402.2" y1="602.1" x2="402.2" y2="625.2"/>
		<g>
			<polygon points="396.1,607.1 397.2,608.1 402.2,602.7 407.3,608.1 408.4,607.1 402.2,600.5 			"/>
		</g>
	</g>
</g>
<g class="st0">
	<g>
		<line class="st1" x1="249.6" y1="506.1" x2="165.5" y2="369.5"/>
		<g>
			<polygon points="252.3,498.7 250.8,498.4 249.3,505.6 242.2,503.7 241.8,505.1 250.5,507.5 			"/>
		</g>
	</g>
</g>
<g class="st0">
	<g>
		<line class="st1" x1="362.2" y1="516.5" x2="169.5" y2="363.5"/>
		<g>
			<polygon points="362.1,508.6 360.7,508.8 361.8,516.1 354.4,516.7 354.5,518.2 363.5,517.5 			"/>
		</g>
	</g>
</g>
<g class="st0">
	<g>
		<line class="st1" x1="238.9" y1="150.5" x2="201.5" y2="150.5"/>
		<g>
			<polygon points="233.9,144.4 232.9,145.5 238.3,150.5 232.9,155.5 233.9,156.6 240.5,150.5 			"/>
		</g>
	</g>
</g>
<g class="st0">
	<g>
		<line class="st1" x1="150.5" y1="498.4" x2="149.5" y2="375.5"/>
		<g>
			<polygon points="156.6,493.4 155.5,492.3 150.5,497.8 145.4,492.4 144.3,493.5 150.5,500 			"/>
		</g>
	</g>
</g>
<g class="st0">
	<g>
		<line class="st1" x1="324.4" y1="150.5" x2="290.5" y2="150.5"/>
		<g>
			<polygon points="319.4,144.4 318.4,145.5 323.8,150.5 318.4,155.5 319.4,156.6 326,150.5 			"/>
		</g>
	</g>
</g>
<g class="st0">
	<g>
		<polyline class="st1" points="377.6,349.5 451.5,349.5 451.5,150.5 377,150.5 		"/>
		<g>
			<polygon points="382.6,355.6 383.6,354.5 378.2,349.5 383.6,344.5 382.6,343.4 376,349.5 			"/>
		</g>
	</g>
</g>
</svg>
