<svg width="100" height="100" viewBox="0 0 100 100" fill="none" xmlns="http://www.w3.org/2000/svg">
<rect width="100" height="100" rx="50" fill="#FFEBAD"/>
<g clip-path="url(#clip0_5418_7666)">
<path d="M78.1975 33.7525L22.5268 39.4927L35.3889 48.2882L60.5644 42.1276L39.7621 52.4624L50.1644 72.6067L78.1975 33.7525Z" fill="#BF69F0"/>
<path d="M36.25 55.3164L30.8306 69.5421L40.6133 63.6745L36.25 55.3164Z" fill="#BF69F0"/>
<path d="M27.9614 59.8484C15.6556 69.6286 1.03187 81.6301 -9.28522 94.1298C-24.0963 112.074 -38.8238 133.12 -46.9331 155.101C-50.5229 164.831 -52.1611 177.512 -48.5904 187.466C-45.2054 196.903 -30.9451 192.385 -25.5695 188.148C-13.4383 178.588 -6.04168 166.586 -5.98768 150.914C-5.94162 137.55 -17.1413 126.82 -30.0606 124.33C-43.6824 121.705 -58.225 128.391 -69.6719 135.17C-85.7566 144.694 -133.792 212.507 -72.0951 259.953" stroke="#BF69F0" stroke-width="2" stroke-linecap="round" stroke-dasharray="6 6"/>
</g>
<defs>
<clipPath id="clip0_5418_7666">
<rect width="100" height="100" rx="50" fill="white"/>
</clipPath>
</defs>
</svg>
