<svg width="20" height="20" viewBox="0 0 20 20" fill="none" xmlns="http://www.w3.org/2000/svg">
<path d="M9.98543 20C7.15243 20 4.31944 20 1.49228 20C0.617896 20 0 19.3879 0 18.5194C0 12.8417 0 7.16409 0 1.48645C0 0.728651 0.460507 0.169047 1.18916 0.0174876C1.27077 0.0058292 1.35238 0 1.43398 0C7.14078 0 12.8476 0 18.5544 0C19.3588 0 19.9942 0.635383 19.9942 1.44564C19.9942 7.1466 19.9942 12.8476 19.9942 18.5544C19.9942 19.3704 19.3588 20 18.5369 20C15.6864 20 12.8359 20 9.98543 20ZM10.7957 8.86622C10.784 8.86039 10.7724 8.86039 10.7607 8.85456C10.7607 8.8021 10.7549 8.74964 10.7549 8.69717C10.7549 8.39405 10.7549 8.09676 10.7549 7.79365C10.7549 7.61294 10.7491 7.60128 10.5683 7.60128C9.74643 7.60128 8.92451 7.60128 8.10842 7.60128C7.91606 7.60128 7.91023 7.60711 7.91023 7.79365C7.91023 10.8423 7.91023 13.891 7.9044 16.9455C7.9044 17.0971 7.95103 17.1379 8.09676 17.132C8.94783 17.1262 9.79889 17.132 10.6441 17.132C10.8715 17.132 10.8715 17.132 10.8715 16.9105C10.8715 15.3308 10.8656 13.7511 10.8773 12.1772C10.8773 11.8857 10.9123 11.5826 10.9706 11.297C11.1046 10.6441 11.4486 10.1603 12.1422 10.0204C12.3521 9.9796 12.5736 9.96794 12.7951 9.97377C13.3839 9.9796 13.8618 10.3643 14.0309 10.9298C14.1533 11.332 14.1941 11.7517 14.1941 12.1655C14.1999 13.7511 14.1941 15.3425 14.1941 16.928C14.1941 17.1379 14.1941 17.1379 14.404 17.1379C15.2434 17.1379 16.0828 17.1379 16.9222 17.1379C17.132 17.1379 17.132 17.1379 17.132 16.928C17.132 15.6747 17.1379 14.4215 17.132 13.1682C17.1262 12.4104 17.132 11.6526 17.0971 10.8948C17.0679 10.2536 16.9455 9.62402 16.6774 9.02944C16.3859 8.39405 15.9312 7.92189 15.2783 7.65375C14.5264 7.3448 13.7453 7.29233 12.9583 7.42058C12.0723 7.56631 11.3495 7.99767 10.8598 8.77295C10.8481 8.81376 10.819 8.83707 10.7957 8.86622ZM6.03906 12.3929C6.03906 10.8656 6.03906 9.33256 6.03906 7.8053C6.03906 7.61877 6.0274 7.61294 5.85252 7.61294C4.99563 7.61294 4.13291 7.61294 3.27601 7.61294C3.13611 7.61294 3.08948 7.65957 3.08948 7.79948C3.08948 10.8423 3.08948 13.8968 3.08948 16.9513C3.08948 17.1029 3.14194 17.1379 3.28184 17.1379C4.12708 17.132 4.97231 17.1379 5.81755 17.1379C6.03323 17.1379 6.03906 17.1379 6.03906 16.9222C6.03906 15.4124 6.03906 13.9027 6.03906 12.3929ZM6.27222 4.57593C6.27222 3.62577 5.5086 2.85631 4.56427 2.85631C3.62577 2.85631 2.86797 3.62577 2.85631 4.56427C2.84465 5.4095 3.50335 6.27805 4.55844 6.28388C5.55523 6.28971 6.27805 5.49694 6.27222 4.57593Z" fill="#141414"/>
</svg>
