<?xml version="1.0" encoding="utf-8"?>
<!-- Generator: Adobe Illustrator 22.1.0, SVG Export Plug-In . SVG Version: 6.00 Build 0)  -->
<svg version="1.1" id="labels" xmlns="http://www.w3.org/2000/svg" xmlns:xlink="http://www.w3.org/1999/xlink" x="0px" y="0px"
	 viewBox="0 0 551 650" style="enable-background:new 0 0 551 650;" xml:space="preserve">
<style type="text/css">
	.st0{fill:#3A2F3C;}
	.st1{fill:#3661b5;}
</style>
<g>
	<path class="st0" d="M290.8,215c0-3.3,2-5.5,5-5.5c2.9,0,4.8,2.2,4.8,5.6c0,3.5-1.9,5.5-4.8,5.5C292.6,220.6,290.8,218.4,290.8,215
		z M295.7,211.2c-1.8,0-3,1.4-3,3.7c0,2.5,1.2,3.9,3,3.9c1.7,0,2.8-1.3,2.8-3.8C298.6,212.6,297.4,211.2,295.7,211.2z"/>
	<path class="st0" d="M306.9,220.4v-4.3c0-0.6-0.1-1-0.3-1.3c-0.2-0.3-0.5-0.4-1-0.4c-0.5,0-1,0.3-1.3,0.7c-0.4,0.5-0.4,1-0.4,1.8
		v3.6h-1.8v-7.5h1.7v1.1c0.5-0.8,1.4-1.2,2.5-1.2c0.9,0,1.5,0.3,1.9,0.9c0.3,0.5,0.4,1,0.4,2v4.7H306.9z"/>
	<path class="st0" d="M312.1,220.4h-1.8v-10.6h1.8V220.4z"/>
	<path class="st0" d="M313.9,211.4v-1.6h1.8v1.6H313.9z M315.7,220.4H314v-7.5h1.8V220.4z"/>
	<path class="st0" d="M322.3,220.4v-4.3c0-0.6-0.1-1-0.3-1.3c-0.2-0.3-0.5-0.4-1-0.4s-1,0.3-1.3,0.7c-0.4,0.5-0.4,1-0.4,1.8v3.6
		h-1.8v-7.5h1.7v1.1c0.5-0.8,1.4-1.2,2.5-1.2c0.9,0,1.5,0.3,1.9,0.9c0.3,0.5,0.4,1,0.4,2v4.7H322.3z"/>
	<path class="st0" d="M332.3,218.5c-0.6,1.4-1.7,2.1-3.3,2.1c-2.4,0-3.7-1.6-3.7-4c0-2.4,1.4-3.9,3.6-3.9c2.4,0,3.4,1.7,3.4,4.4
		h-5.2c0.1,1.3,0.8,2,2,2c0.8,0,1.4-0.3,1.7-1.2L332.3,218.5z M330.6,215.8c-0.1-1.2-0.7-1.8-1.6-1.8s-1.7,0.6-1.8,1.8H330.6z"/>
	<path class="st0" d="M295.8,238.4v-4.3c0-0.6-0.1-1-0.3-1.3c-0.2-0.3-0.5-0.4-1-0.4s-1,0.3-1.3,0.7c-0.4,0.5-0.4,1-0.4,1.8v3.6
		h-1.8v-7.5h1.7v1.1c0.5-0.8,1.4-1.2,2.5-1.2c0.9,0,1.5,0.3,1.9,0.9c0.3,0.5,0.4,1,0.4,2v4.7H295.8z"/>
	<path class="st0" d="M305.8,236.5c-0.6,1.4-1.7,2.1-3.3,2.1c-2.4,0-3.7-1.6-3.7-4c0-2.4,1.4-3.9,3.6-3.9c2.4,0,3.4,1.7,3.4,4.4
		h-5.2c0.1,1.3,0.8,2,2,2c0.8,0,1.4-0.3,1.7-1.2L305.8,236.5z M304.1,233.8c-0.1-1.2-0.7-1.8-1.6-1.8s-1.7,0.6-1.8,1.8H304.1z"/>
	<path class="st0" d="M313.3,238.4c-0.5-2-1-3.8-1.3-5.5c-0.3,1.4-0.7,2.8-1.4,5.5h-2l-2.2-7.5h1.9c0.5,2,1.1,4.2,1.5,5.6
		c0.3-1.4,0.6-2.9,1.4-5.6h1.8c0.6,2.4,1,4,1.4,5.6c0.4-1.6,0.9-3.7,1.5-5.6h1.8l-2.3,7.5H313.3z"/>
	<path class="st0" d="M319.2,236c0.4,0.8,1.1,1.2,1.9,1.2c0.8,0,1.2-0.3,1.2-0.8c0-0.5-0.3-0.7-1.4-1.1l-0.8-0.3
		c-1.2-0.4-1.9-1-1.9-2.2c0-1.2,1.1-2.2,2.9-2.2c1.2,0,2.3,0.5,2.9,1.5l-1.3,0.9c-0.4-0.7-0.9-1-1.7-1c-0.8,0-1.1,0.3-1.1,0.7
		c0,0.5,0.2,0.7,1.2,1l0.8,0.2c1.3,0.4,2.1,1,2.1,2.2c0,1.4-1.2,2.4-3,2.4c-1.5,0-2.6-0.7-3.2-1.7L319.2,236z"/>
	<path class="st0" d="M325.3,238.4v-7.5h1.7v1.2c0.5-0.8,1-1.2,2.1-1.2c0.2,0,0.4,0,0.6,0.1v1.8c-0.3-0.1-0.5-0.2-0.8-0.2
		c-0.6,0-1.1,0.3-1.4,0.7c-0.3,0.4-0.4,0.9-0.4,1.7v3.5H325.3z"/>
	<path class="st0" d="M333.9,238.6c-2.3,0-3.7-1.5-3.7-4c0-2.5,1.5-3.9,3.8-3.9c2.2,0,3.6,1.5,3.6,4
		C337.6,237.2,336.1,238.6,333.9,238.6z M334,232.1c-1.1,0-1.9,0.9-1.9,2.4c0,1.7,0.8,2.5,1.9,2.5s1.9-0.8,1.9-2.4
		C335.8,233,335.1,232.1,334,232.1z"/>
	<path class="st0" d="M342.3,238.6c-2.3,0-3.7-1.5-3.7-4c0-2.5,1.5-3.9,3.8-3.9c2.2,0,3.6,1.5,3.6,4
		C345.9,237.2,344.5,238.6,342.3,238.6z M342.3,232.1c-1.1,0-1.9,0.9-1.9,2.4c0,1.7,0.8,2.5,1.9,2.5s1.9-0.8,1.9-2.4
		C344.2,233,343.5,232.1,342.3,232.1z"/>
	<path class="st0" d="M349.1,230.9v1.1c0.6-0.8,1.4-1.2,2.4-1.2c1.1,0,1.7,0.4,2,1.3c0.6-0.8,1.5-1.3,2.6-1.3c0.9,0,1.6,0.4,2,1.2
		c0.2,0.5,0.2,1,0.2,2v4.3h-1.8v-4c0-0.8-0.1-1.2-0.2-1.5c-0.2-0.3-0.5-0.5-0.9-0.5s-0.9,0.2-1.2,0.6c-0.4,0.5-0.5,1-0.5,1.9v3.6
		H352v-4.1c0-0.8,0-1.1-0.2-1.4c-0.2-0.4-0.5-0.5-1-0.5c-0.5,0-1,0.3-1.3,0.7c-0.3,0.4-0.4,0.9-0.4,1.8v3.6h-1.8v-7.5H349.1z"/>
</g>
<g>
	<path class="st0" d="M166.1,220.4v-10.6h4.4c1.5,0,2.3,0.2,2.9,0.6c0.8,0.6,1.2,1.5,1.2,2.6c0,1.2-0.4,2.2-1.3,2.8
		c-0.8,0.4-1.9,0.6-3.1,0.6H168v4H166.1z M169.9,214.7c1,0,1.7-0.1,2.1-0.4c0.4-0.3,0.5-0.7,0.5-1.3c0-0.5-0.2-1-0.5-1.3
		c-0.4-0.3-0.9-0.4-2-0.4h-2v3.4H169.9z"/>
	<path class="st0" d="M175.3,220.4v-7.5h1.7v1.2c0.5-0.8,1-1.2,2.1-1.2c0.2,0,0.4,0,0.6,0.1v1.8c-0.3-0.1-0.5-0.2-0.8-0.2
		c-0.6,0-1.1,0.3-1.4,0.7c-0.3,0.4-0.4,0.9-0.4,1.7v3.5H175.3z"/>
	<path class="st0" d="M180.7,211.4v-1.6h1.8v1.6H180.7z M182.5,220.4h-1.8v-7.5h1.8V220.4z"/>
	<path class="st0" d="M189,220.4v-4.3c0-0.6-0.1-1-0.3-1.3c-0.2-0.3-0.5-0.4-1-0.4c-0.5,0-1,0.3-1.3,0.7c-0.4,0.5-0.4,1-0.4,1.8v3.6
		h-1.8v-7.5h1.7v1.1c0.5-0.8,1.4-1.2,2.5-1.2c0.9,0,1.5,0.3,1.9,0.9c0.3,0.5,0.4,1,0.4,2v4.7H189z"/>
	<path class="st0" d="M196.2,220.3c-0.4,0.1-0.9,0.2-1.3,0.2c-0.7,0-1.2-0.2-1.5-0.5c-0.3-0.4-0.4-0.9-0.4-1.6v-4.1h-1.2v-1.4h1.2
		v-2.4h1.7v2.4h1.5v1.4h-1.5v3.7c0,0.8,0.2,1,0.8,1c0.2,0,0.5,0,0.7-0.1V220.3z"/>
	<path class="st0" d="M170.8,238.4v-4.3c0-0.6-0.1-1-0.3-1.3c-0.2-0.3-0.5-0.4-1-0.4s-1,0.3-1.3,0.7c-0.4,0.5-0.4,1-0.4,1.8v3.6
		h-1.8v-7.5h1.7v1.1c0.5-0.8,1.4-1.2,2.5-1.2c0.9,0,1.5,0.3,1.9,0.9c0.3,0.5,0.4,1,0.4,2v4.7H170.8z"/>
	<path class="st0" d="M180.8,236.5c-0.6,1.4-1.7,2.1-3.3,2.1c-2.4,0-3.7-1.6-3.7-4c0-2.4,1.4-3.9,3.6-3.9c2.4,0,3.4,1.7,3.4,4.4
		h-5.2c0.1,1.3,0.8,2,2,2c0.8,0,1.4-0.3,1.7-1.2L180.8,236.5z M179.1,233.8c-0.1-1.2-0.7-1.8-1.6-1.8s-1.7,0.6-1.8,1.8H179.1z"/>
	<path class="st0" d="M188.3,238.4c-0.5-2-1-3.8-1.3-5.5c-0.3,1.4-0.7,2.8-1.4,5.5h-2l-2.2-7.5h1.9c0.5,2,1.1,4.2,1.5,5.6
		c0.3-1.4,0.6-2.9,1.4-5.6h1.8c0.6,2.4,1,4,1.4,5.6c0.4-1.6,0.9-3.7,1.5-5.6h1.8l-2.3,7.5H188.3z"/>
	<path class="st0" d="M194.2,236c0.4,0.8,1.1,1.2,1.9,1.2c0.8,0,1.2-0.3,1.2-0.8c0-0.5-0.3-0.7-1.4-1.1l-0.8-0.3
		c-1.2-0.4-1.9-1-1.9-2.2c0-1.2,1.1-2.2,2.9-2.2c1.2,0,2.3,0.5,2.9,1.5l-1.3,0.9c-0.4-0.7-0.9-1-1.7-1c-0.8,0-1.1,0.3-1.1,0.7
		c0,0.5,0.2,0.7,1.2,1l0.8,0.2c1.3,0.4,2.1,1,2.1,2.2c0,1.4-1.2,2.4-3,2.4c-1.5,0-2.6-0.7-3.2-1.7L194.2,236z"/>
	<path class="st0" d="M200.3,238.4v-7.5h1.7v1.2c0.5-0.8,1-1.2,2.1-1.2c0.2,0,0.4,0,0.6,0.1v1.8c-0.3-0.1-0.5-0.2-0.8-0.2
		c-0.6,0-1.1,0.3-1.4,0.7c-0.3,0.4-0.4,0.9-0.4,1.7v3.5H200.3z"/>
	<path class="st0" d="M208.9,238.6c-2.3,0-3.7-1.5-3.7-4c0-2.5,1.5-3.9,3.8-3.9c2.2,0,3.6,1.5,3.6,4
		C212.6,237.2,211.1,238.6,208.9,238.6z M209,232.1c-1.1,0-1.9,0.9-1.9,2.4c0,1.7,0.8,2.5,1.9,2.5s1.9-0.8,1.9-2.4
		C210.8,233,210.1,232.1,209,232.1z"/>
	<path class="st0" d="M217.3,238.6c-2.3,0-3.7-1.5-3.7-4c0-2.5,1.5-3.9,3.8-3.9c2.2,0,3.6,1.5,3.6,4
		C220.9,237.2,219.5,238.6,217.3,238.6z M217.3,232.1c-1.1,0-1.9,0.9-1.9,2.4c0,1.7,0.8,2.5,1.9,2.5s1.9-0.8,1.9-2.4
		C219.2,233,218.5,232.1,217.3,232.1z"/>
	<path class="st0" d="M224.1,230.9v1.1c0.6-0.8,1.4-1.2,2.4-1.2c1.1,0,1.7,0.4,2,1.3c0.6-0.8,1.5-1.3,2.6-1.3c0.9,0,1.6,0.4,2,1.2
		c0.2,0.5,0.2,1,0.2,2v4.3h-1.8v-4c0-0.8-0.1-1.2-0.2-1.5c-0.2-0.3-0.5-0.5-0.9-0.5s-0.9,0.2-1.2,0.6c-0.4,0.5-0.5,1-0.5,1.9v3.6
		H227v-4.1c0-0.8,0-1.1-0.2-1.4c-0.2-0.4-0.5-0.5-1-0.5c-0.5,0-1,0.3-1.3,0.7c-0.3,0.4-0.4,0.9-0.4,1.8v3.6h-1.8v-7.5H224.1z"/>
</g>
<g>
	<path class="st1" d="M53.1,69.4V58.8h4.4c1.5,0,2.3,0.2,2.9,0.6c0.8,0.6,1.2,1.5,1.2,2.6c0,1.2-0.4,2.2-1.3,2.8
		c-0.8,0.4-1.9,0.6-3.1,0.6H55v4H53.1z M56.9,63.7c1,0,1.7-0.1,2.1-0.4c0.4-0.3,0.5-0.7,0.5-1.3c0-0.5-0.2-1-0.5-1.3
		c-0.4-0.3-0.9-0.4-2-0.4h-2v3.4H56.9z"/>
	<path class="st1" d="M63,69.4V58.8h1.9v8.9h5v1.6H63z"/>
	<path class="st1" d="M78.2,69.4l-0.8-2.5h-4.2l-0.9,2.5h-2.1l4-10.6h2.1l3.9,10.6H78.2z M76.9,65.4c-0.6-1.7-1.1-3.2-1.6-4.7
		c-0.3,1.1-0.7,2.1-1.6,4.7H76.9z"/>
	<path class="st1" d="M83.4,58.8c2.3,3.9,3.7,6,4.7,7.8C88,65,88,62.8,88,58.8h1.9v10.6h-2.1c-2.2-3.6-3.6-5.9-4.7-7.8
		c0,0.9,0.1,3,0.1,7.8h-1.9V58.8H83.4z"/>
</g>
<g>
	<path class="st1" d="M53.1,270.4v-10.6h4.4c1.5,0,2.3,0.2,2.9,0.6c0.8,0.6,1.2,1.5,1.2,2.6c0,1.2-0.4,2.2-1.3,2.8
		c-0.8,0.4-1.9,0.6-3.1,0.6H55v4H53.1z M56.9,264.7c1,0,1.7-0.1,2.1-0.4c0.4-0.3,0.5-0.7,0.5-1.3c0-0.5-0.2-1-0.5-1.3
		c-0.4-0.3-0.9-0.4-2-0.4h-2v3.4H56.9z"/>
	<path class="st1" d="M69.4,270.4l-2.7-4.2h-1.8v4.2H63v-10.6h3.4c1.4,0,2.4,0.1,3.2,0.4c1.1,0.4,1.6,1.3,1.6,2.7c0,1.7-1,2.7-2.6,3
		l3,4.5H69.4z M66.9,264.6c1,0,1.5-0.1,1.8-0.4c0.3-0.3,0.5-0.7,0.5-1.2c0-0.6-0.1-1-0.6-1.3c-0.3-0.2-0.9-0.3-1.7-0.3h-2v3.2H66.9z
		"/>
	<path class="st1" d="M72.4,265c0-3.3,2-5.5,5-5.5c2.9,0,4.8,2.2,4.8,5.6c0,3.5-1.9,5.5-4.8,5.5C74.3,270.6,72.4,268.4,72.4,265z
		 M77.4,261.2c-1.8,0-3,1.4-3,3.7c0,2.5,1.2,3.9,3,3.9c1.7,0,2.8-1.3,2.8-3.8C80.3,262.6,79.1,261.2,77.4,261.2z"/>
	<path class="st1" d="M83.9,259.8h3.3c1.9,0,2.7,0.1,3.5,0.5c1.5,0.7,2.1,2.5,2.1,4.7c0,1.7-0.5,3.2-1.4,4.1c-1,1-2.2,1.3-4.4,1.3
		h-3.1V259.8z M87.1,268.7c1.4,0,2.3-0.3,2.9-0.9c0.6-0.6,0.8-1.6,0.8-2.9c0-1.1-0.2-2.1-0.8-2.7c-0.5-0.5-1.1-0.8-2.6-0.8h-1.6v7.3
		H87.1z"/>
	<path class="st1" d="M102.8,265.8c0,1.7-0.2,2.7-0.9,3.5c-0.7,0.9-1.9,1.3-3.4,1.3c-1.5,0-2.7-0.4-3.4-1.3
		c-0.7-0.9-0.8-1.9-0.8-3.5v-6.1h1.9v6.2c0,0.8,0,1.5,0.3,2c0.4,0.7,1.1,1,2,1c0.9,0,1.7-0.2,2.1-1c0.2-0.4,0.3-1.1,0.3-1.9v-6.3
		h1.9V265.8z"/>
	<path class="st1" d="M111.5,263.1c-0.3-1.2-1-1.9-2.2-1.9c-1.9,0-3,1.4-3,3.7c0,2.4,1.1,4,3,4c1.2,0,2.1-0.7,2.4-2l1.8,0.7
		c-0.7,1.9-2.2,3-4.3,3c-3,0-4.9-2.1-4.9-5.6c0-3.5,2-5.5,5-5.5c2.1,0,3.5,1.1,4,2.9L111.5,263.1z"/>
	<path class="st1" d="M114.8,270.4v-10.6h7.4v1.6h-5.4v2.7h5v1.6h-5v3h5.7v1.6H114.8z"/>
</g>
<g>
	<path class="st1" d="M53.1,472.4v-10.6h4.4c1.5,0,2.3,0.2,2.9,0.6c0.8,0.6,1.2,1.5,1.2,2.6c0,1.2-0.4,2.2-1.3,2.8
		c-0.8,0.4-1.9,0.6-3.1,0.6H55v4H53.1z M56.9,466.7c1,0,1.7-0.1,2.1-0.4c0.4-0.3,0.5-0.7,0.5-1.3c0-0.5-0.2-1-0.5-1.3
		c-0.4-0.3-0.9-0.4-2-0.4h-2v3.4H56.9z"/>
	<path class="st1" d="M69.4,472.4l-2.7-4.2h-1.8v4.2H63v-10.6h3.4c1.4,0,2.4,0.1,3.2,0.4c1.1,0.4,1.6,1.3,1.6,2.7c0,1.7-1,2.7-2.6,3
		l3,4.5H69.4z M66.9,466.6c1,0,1.5-0.1,1.8-0.4c0.3-0.3,0.5-0.7,0.5-1.2c0-0.6-0.1-1-0.6-1.3c-0.3-0.2-0.9-0.3-1.7-0.3h-2v3.2H66.9z
		"/>
	<path class="st1" d="M72.8,472.4v-10.6h7.4v1.6h-5.4v2.7h5v1.6h-5v3h5.7v1.6H72.8z"/>
	<path class="st1" d="M82.8,469.1c0.6,1.3,1.6,1.9,2.8,1.9c1.3,0,2-0.5,2-1.3c0-0.8-0.5-1-2-1.6l-1.1-0.4c-1.8-0.6-2.6-1.5-2.6-3
		c0-1.8,1.6-3.1,3.8-3.1c1.8,0,3.2,0.8,4,2.2l-1.5,1.1c-0.7-1.2-1.6-1.6-2.7-1.6c-1.1,0-1.6,0.5-1.6,1.2c0,0.7,0.4,1,1.8,1.5
		l1.2,0.4c2,0.6,2.9,1.5,2.9,3.1c0,1.9-1.6,3.2-4,3.2c-1.9,0-3.5-0.9-4.3-2.4L82.8,469.1z"/>
	<path class="st1" d="M91.1,472.4v-10.6h7.4v1.6H93v2.7h5v1.6h-5v3h5.7v1.6H91.1z"/>
	<path class="st1" d="M102.3,461.8c2.3,3.9,3.7,6,4.7,7.8c-0.1-1.6-0.1-3.8-0.1-7.8h1.9v10.6h-2.1c-2.2-3.6-3.6-5.9-4.7-7.8
		c0,0.9,0.1,3,0.1,7.8h-1.9v-10.6H102.3z"/>
	<path class="st1" d="M113.1,472.4v-9h-3v-1.6h7.9v1.6h-3v9H113.1z"/>
</g>
<g>
	<path class="st0" d="M166.9,469.1c0.6,1.3,1.6,1.9,2.8,1.9c1.3,0,2-0.5,2-1.3c0-0.8-0.5-1-2-1.6l-1.1-0.4c-1.8-0.6-2.6-1.5-2.6-3
		c0-1.8,1.6-3.1,3.8-3.1c1.8,0,3.2,0.8,4,2.2l-1.5,1.1c-0.7-1.2-1.6-1.6-2.7-1.6c-1.1,0-1.7,0.5-1.7,1.2c0,0.7,0.4,1,1.8,1.5
		l1.2,0.4c2,0.6,2.9,1.5,2.9,3.1c0,1.9-1.6,3.2-4,3.2c-1.9,0-3.5-0.9-4.3-2.4L166.9,469.1z"/>
	<path class="st0" d="M174.6,472.4v-1.4l5.8-7.5h-5.5v-1.6h7.9v1.5l-5.7,7.5h5.7v1.6H174.6z"/>
	<path class="st0" d="M189.3,464.9v1.1c0.5-0.7,1.2-1.2,2.3-1.2c1.7,0,3,1.3,3,3.9c0,2.4-1.4,3.9-3.1,3.9c-1.1,0-1.7-0.4-2.1-1v3.8
		h-1.7v-10.4H189.3z M191,471c1,0,1.7-0.8,1.7-2.4c0-1.5-0.6-2.5-1.6-2.5s-1.8,0.8-1.8,2.4C189.3,470.1,189.9,471,191,471z"/>
	<path class="st0" d="M195.9,472.4v-7.5h1.7v1.2c0.5-0.8,1-1.2,2.1-1.2c0.2,0,0.4,0,0.6,0.1v1.8c-0.3-0.1-0.5-0.2-0.8-0.2
		c-0.6,0-1.1,0.3-1.4,0.7c-0.3,0.4-0.4,0.9-0.4,1.7v3.5H195.9z"/>
	<path class="st0" d="M201.3,463.4v-1.6h1.8v1.6H201.3z M203.1,472.4h-1.8v-7.5h1.8V472.4z"/>
	<path class="st0" d="M209.6,472.4v-4.3c0-0.6-0.1-1-0.3-1.3c-0.2-0.3-0.5-0.4-1-0.4s-1,0.3-1.3,0.7c-0.4,0.5-0.4,1.1-0.4,1.8v3.6
		h-1.8v-7.5h1.7v1.1c0.5-0.8,1.4-1.2,2.5-1.2c0.9,0,1.5,0.3,1.9,0.9c0.3,0.5,0.4,1,0.4,2v4.7H209.6z"/>
	<path class="st0" d="M216.8,472.3c-0.4,0.1-0.9,0.2-1.3,0.2c-0.7,0-1.2-0.2-1.5-0.5c-0.3-0.4-0.4-0.9-0.4-1.6v-4.1h-1.2v-1.4h1.2
		v-2.4h1.7v2.4h1.5v1.4h-1.5v3.7c0,0.8,0.2,1,0.8,1c0.2,0,0.5,0,0.7-0.1V472.3z"/>
	<path class="st0" d="M167.8,482.9v1.1c0.6-0.8,1.4-1.2,2.4-1.2c1.1,0,1.7,0.4,2,1.3c0.6-0.8,1.5-1.3,2.6-1.3c0.9,0,1.7,0.4,2,1.2
		c0.2,0.5,0.2,1,0.2,2v4.3h-1.8v-4c0-0.8-0.1-1.2-0.2-1.5c-0.2-0.3-0.5-0.5-0.9-0.5s-0.9,0.2-1.2,0.6c-0.4,0.5-0.5,1-0.5,1.9v3.6
		h-1.8v-4.1c0-0.8,0-1.1-0.2-1.4c-0.2-0.4-0.5-0.5-1-0.5c-0.5,0-1,0.3-1.3,0.7s-0.4,0.9-0.4,1.8v3.6h-1.8v-7.5H167.8z"/>
	<path class="st0" d="M183,485.3c0-0.4-0.1-0.7-0.3-0.9c-0.2-0.2-0.6-0.3-1-0.3c-0.9,0-1.3,0.5-1.4,1.3l-1.7-0.2
		c0.1-1.6,1.3-2.5,3.2-2.5c1,0,1.7,0.2,2.2,0.7c0.5,0.4,0.6,1,0.6,2.2v2.7c0,0.9,0.1,1.6,0.2,2h-1.7c-0.1-0.2-0.2-0.7-0.2-0.9
		c-0.6,0.7-1.4,1.1-2.4,1.1c-1.4,0-2.3-0.9-2.3-2.2c0-1,0.5-1.6,1.4-2c0.7-0.3,2.2-0.5,3.4-0.6V485.3z M183,486.9
		c-0.9,0-1.9,0.2-2.4,0.5c-0.5,0.2-0.6,0.5-0.6,0.9c0,0.5,0.4,0.9,1.1,0.9c0.7,0,1.2-0.3,1.6-0.8c0.2-0.3,0.3-0.8,0.3-1.2V486.9z"/>
	<path class="st0" d="M191.2,489.3c-0.5,0.6-1.2,1-2.2,1c-1.8,0-3-1.4-3-3.8c0-2.3,1.3-3.8,3.1-3.8c1,0,1.8,0.4,2.2,1v-0.9h1.7v7
		c0,1.5-0.4,2.5-1.2,3.1c-0.6,0.4-1.4,0.6-2.4,0.6c-1.8,0-3-0.8-3.3-2.3l1.8-0.3c0.1,0.8,0.7,1.2,1.5,1.2c0.7,0,1.2-0.2,1.4-0.6
		c0.2-0.3,0.3-0.8,0.3-1.5V489.3z M189.7,484.2c-1.1,0-1.8,0.8-1.8,2.3c0,1.5,0.7,2.4,1.7,2.4c1,0,1.7-0.7,1.7-2.2
		C191.3,485.2,190.7,484.2,189.7,484.2z"/>
	<path class="st0" d="M199.1,485.3c0-0.4-0.1-0.7-0.3-0.9c-0.2-0.2-0.6-0.3-1-0.3c-0.9,0-1.3,0.5-1.4,1.3l-1.7-0.2
		c0.1-1.6,1.3-2.5,3.2-2.5c1,0,1.7,0.2,2.2,0.7c0.5,0.4,0.6,1,0.6,2.2v2.7c0,0.9,0.1,1.6,0.2,2h-1.7c-0.1-0.2-0.2-0.7-0.2-0.9
		c-0.6,0.7-1.4,1.1-2.4,1.1c-1.4,0-2.3-0.9-2.3-2.2c0-1,0.5-1.6,1.4-2c0.7-0.3,2.2-0.5,3.4-0.6V485.3z M199.1,486.9
		c-0.9,0-1.9,0.2-2.4,0.5c-0.5,0.2-0.6,0.5-0.6,0.9c0,0.5,0.4,0.9,1.1,0.9c0.7,0,1.2-0.3,1.6-0.8c0.2-0.3,0.3-0.8,0.3-1.2V486.9z"/>
	<path class="st0" d="M202,490.4v-1.1l3.7-4.9h-3.5v-1.4h5.7v1.1l-3.6,4.9h3.8v1.4H202z"/>
	<path class="st0" d="M209.3,481.4v-1.6h1.8v1.6H209.3z M211.1,490.4h-1.8v-7.5h1.8V490.4z"/>
	<path class="st0" d="M217.6,490.4v-4.3c0-0.6-0.1-1-0.3-1.3c-0.2-0.3-0.5-0.4-1-0.4s-1,0.3-1.3,0.7c-0.4,0.5-0.4,1.1-0.4,1.8v3.6
		h-1.8v-7.5h1.7v1.1c0.5-0.8,1.4-1.2,2.5-1.2c0.9,0,1.5,0.3,1.9,0.9c0.3,0.5,0.4,1,0.4,2v4.7H217.6z"/>
	<path class="st0" d="M227.7,488.5c-0.6,1.4-1.7,2.1-3.3,2.1c-2.4,0-3.7-1.6-3.7-4c0-2.4,1.4-3.9,3.6-3.9c2.4,0,3.4,1.7,3.4,4.4
		h-5.2c0.1,1.3,0.8,2,2,2c0.8,0,1.4-0.3,1.7-1.2L227.7,488.5z M225.9,485.8c-0.1-1.2-0.7-1.8-1.6-1.8s-1.7,0.6-1.8,1.8H225.9z"/>
</g>
<g>
	<path class="st0" d="M325.9,469.1c0.6,1.3,1.6,1.9,2.8,1.9c1.3,0,2-0.5,2-1.3c0-0.8-0.5-1-2-1.6l-1.1-0.4c-1.8-0.6-2.6-1.5-2.6-3
		c0-1.8,1.6-3.1,3.8-3.1c1.8,0,3.2,0.8,4,2.2l-1.5,1.1c-0.7-1.2-1.6-1.6-2.7-1.6c-1.1,0-1.7,0.5-1.7,1.2c0,0.7,0.4,1,1.8,1.5
		l1.2,0.4c2,0.6,2.9,1.5,2.9,3.1c0,1.9-1.6,3.2-4,3.2c-1.9,0-3.5-0.9-4.3-2.4L325.9,469.1z"/>
	<path class="st0" d="M333.6,472.4v-1.4l5.8-7.5h-5.5v-1.6h7.9v1.5l-5.7,7.5h5.7v1.6H333.6z"/>
	<path class="st0" d="M349.8,472.6c-2.3,0-3.7-1.5-3.7-4c0-2.5,1.5-3.9,3.8-3.9c2.2,0,3.6,1.5,3.6,4
		C353.5,471.2,352,472.6,349.8,472.6z M349.9,466.1c-1.1,0-1.9,0.9-1.9,2.4c0,1.7,0.8,2.5,1.9,2.5c1.1,0,1.9-0.8,1.9-2.4
		C351.7,467,351,466.1,349.9,466.1z"/>
	<path class="st0" d="M359.6,472.4v-4.3c0-0.6-0.1-1-0.3-1.3c-0.2-0.3-0.5-0.4-1-0.4s-1,0.3-1.3,0.7c-0.4,0.5-0.4,1.1-0.4,1.8v3.6
		h-1.8v-7.5h1.7v1.1c0.5-0.8,1.4-1.2,2.5-1.2c0.9,0,1.5,0.3,1.9,0.9c0.3,0.5,0.4,1,0.4,2v4.7H359.6z"/>
	<path class="st0" d="M364.9,472.4h-1.8v-10.6h1.8V472.4z"/>
	<path class="st0" d="M366.7,463.4v-1.6h1.8v1.6H366.7z M368.5,472.4h-1.8v-7.5h1.8V472.4z"/>
	<path class="st0" d="M375.1,472.4v-4.3c0-0.6-0.1-1-0.3-1.3c-0.2-0.3-0.5-0.4-1-0.4s-1,0.3-1.3,0.7c-0.4,0.5-0.4,1.1-0.4,1.8v3.6
		h-1.8v-7.5h1.7v1.1c0.5-0.8,1.4-1.2,2.5-1.2c0.9,0,1.5,0.3,1.9,0.9c0.3,0.5,0.4,1,0.4,2v4.7H375.1z"/>
	<path class="st0" d="M385.1,470.5c-0.6,1.4-1.7,2.1-3.3,2.1c-2.4,0-3.7-1.6-3.7-4c0-2.4,1.4-3.9,3.6-3.9c2.4,0,3.4,1.7,3.4,4.4
		h-5.2c0.1,1.3,0.8,2,2,2c0.8,0,1.4-0.3,1.7-1.2L385.1,470.5z M383.4,467.8c-0.1-1.2-0.7-1.8-1.6-1.8s-1.7,0.6-1.8,1.8H383.4z"/>
	<path class="st0" d="M326.8,482.9v1.1c0.5-0.7,1.2-1.2,2.3-1.2c1.7,0,3,1.3,3,3.9c0,2.4-1.4,3.9-3.1,3.9c-1.1,0-1.7-0.4-2.1-1v3.8
		h-1.7v-10.4H326.8z M328.5,489c1,0,1.7-0.8,1.7-2.4c0-1.5-0.6-2.5-1.7-2.5c-1,0-1.8,0.8-1.8,2.4C326.8,488.1,327.4,489,328.5,489z"
		/>
	<path class="st0" d="M333.4,490.4v-7.5h1.7v1.2c0.5-0.8,1-1.2,2.1-1.2c0.2,0,0.4,0,0.6,0.1v1.8c-0.3-0.1-0.5-0.2-0.8-0.2
		c-0.6,0-1.1,0.3-1.4,0.7c-0.3,0.4-0.4,0.9-0.4,1.7v3.5H333.4z"/>
	<path class="st0" d="M342.1,490.6c-2.3,0-3.7-1.5-3.7-4c0-2.5,1.5-3.9,3.8-3.9c2.2,0,3.6,1.5,3.6,4
		C345.7,489.2,344.3,490.6,342.1,490.6z M342.1,484.1c-1.1,0-1.9,0.9-1.9,2.4c0,1.7,0.8,2.5,1.9,2.5c1.1,0,1.9-0.8,1.9-2.4
		C344,485,343.2,484.1,342.1,484.1z"/>
	<path class="st0" d="M352,490.4v-1c-0.5,0.7-1.2,1.2-2.2,1.2c-1.7,0-3-1.3-3-3.9c0-2.4,1.4-3.9,3.1-3.9c1.1,0,1.7,0.4,2.1,1v-3.9
		h1.7v10.6H352z M350.3,484.2c-1,0-1.7,0.8-1.7,2.4c0,1.5,0.6,2.5,1.7,2.5s1.8-0.8,1.8-2.4C352,485.1,351.3,484.2,350.3,484.2z"/>
	<path class="st0" d="M357.2,482.9v4.3c0,0.5,0.1,0.9,0.2,1.2c0.2,0.4,0.6,0.6,1.1,0.6c0.5,0,0.9-0.3,1.2-0.6
		c0.3-0.4,0.5-0.9,0.5-1.6v-3.9h1.8v7.5h-1.7v-1.1c-0.5,0.7-1.3,1.2-2.3,1.2c-1,0-1.5-0.3-2-0.9c-0.3-0.5-0.5-1.1-0.5-2v-4.7H357.2z
		"/>
	<path class="st0" d="M368.4,485.5c-0.2-1-0.8-1.3-1.5-1.3c-1,0-1.8,0.8-1.8,2.4c0,1.7,0.7,2.5,1.8,2.5c0.8,0,1.3-0.4,1.5-1.2
		l1.6,0.5c-0.4,1.2-1.4,2.1-3.1,2.1c-2.2,0-3.6-1.5-3.6-4c0-2.4,1.4-3.9,3.6-3.9c1.6,0,2.6,0.9,3,2.2L368.4,485.5z"/>
	<path class="st0" d="M374.8,490.3c-0.4,0.1-0.9,0.2-1.3,0.2c-0.7,0-1.2-0.2-1.5-0.5c-0.3-0.4-0.4-0.9-0.4-1.6v-4.1h-1.2v-1.4h1.2
		v-2.4h1.7v2.4h1.5v1.4h-1.5v3.7c0,0.8,0.2,1,0.8,1c0.2,0,0.5,0,0.7-0.1V490.3z"/>
	<path class="st0" d="M376.5,488c0.4,0.8,1.1,1.2,1.9,1.2c0.8,0,1.2-0.3,1.2-0.8c0-0.5-0.3-0.7-1.4-1.1l-0.8-0.3
		c-1.2-0.4-1.9-1-1.9-2.2c0-1.2,1-2.2,2.9-2.2c1.2,0,2.3,0.5,2.9,1.5l-1.3,0.9c-0.4-0.7-0.9-1-1.7-1c-0.8,0-1.1,0.3-1.1,0.7
		c0,0.5,0.2,0.7,1.2,1l0.8,0.2c1.3,0.4,2.1,1,2.1,2.2c0,1.4-1.2,2.4-3,2.4c-1.5,0-2.6-0.7-3.2-1.7L376.5,488z"/>
</g>
<g>
	<path class="st0" d="M73.9,302.1c0.6,1.3,1.6,1.9,2.8,1.9c1.3,0,2-0.5,2-1.3c0-0.8-0.5-1.1-2-1.6l-1.1-0.4c-1.8-0.6-2.6-1.5-2.6-3
		c0-1.8,1.6-3.1,3.8-3.1c1.8,0,3.2,0.8,4,2.2l-1.5,1.1c-0.7-1.2-1.6-1.6-2.7-1.6c-1.1,0-1.6,0.5-1.6,1.2c0,0.7,0.4,1,1.8,1.5
		l1.2,0.4c2,0.6,2.9,1.5,2.9,3.1c0,1.9-1.6,3.2-4,3.2c-1.9,0-3.5-0.9-4.3-2.4L73.9,302.1z"/>
	<path class="st0" d="M81.6,305.4v-1.4l5.8-7.5h-5.5v-1.6h7.9v1.5l-5.7,7.5h5.7v1.6H81.6z"/>
	<path class="st0" d="M96.3,297.9v1.1c0.5-0.7,1.2-1.2,2.3-1.2c1.7,0,3,1.3,3,3.9c0,2.4-1.4,3.9-3.1,3.9c-1.1,0-1.7-0.4-2.1-1v3.8
		h-1.7v-10.4H96.3z M98,304c1,0,1.7-0.8,1.7-2.4c0-1.5-0.6-2.5-1.6-2.5c-1,0-1.8,0.8-1.8,2.4C96.3,303.1,96.9,304,98,304z"/>
	<path class="st0" d="M102.9,305.4v-7.5h1.7v1.2c0.5-0.8,1-1.2,2.1-1.2c0.2,0,0.4,0,0.6,0.1v1.8c-0.3-0.1-0.5-0.2-0.8-0.2
		c-0.6,0-1.1,0.3-1.4,0.7c-0.3,0.4-0.4,0.9-0.4,1.7v3.5H102.9z"/>
	<path class="st0" d="M108.3,296.4v-1.6h1.8v1.6H108.3z M110.1,305.4h-1.8v-7.5h1.8V305.4z"/>
	<path class="st0" d="M116.6,305.4v-4.3c0-0.6-0.1-1-0.3-1.3c-0.2-0.3-0.5-0.4-1-0.4s-1,0.3-1.3,0.7c-0.4,0.5-0.4,1-0.4,1.8v3.6
		h-1.8v-7.5h1.7v1.1c0.5-0.8,1.4-1.2,2.5-1.2c0.9,0,1.5,0.3,1.9,0.9c0.3,0.5,0.4,1,0.4,2v4.7H116.6z"/>
	<path class="st0" d="M123.8,305.3c-0.4,0.1-0.9,0.2-1.3,0.2c-0.7,0-1.2-0.2-1.5-0.5c-0.3-0.4-0.4-0.9-0.4-1.6v-4.1h-1.2v-1.4h1.2
		v-2.4h1.7v2.4h1.5v1.4h-1.5v3.7c0,0.8,0.2,1,0.8,1c0.2,0,0.5,0,0.7-0.1V305.3z"/>
	<path class="st0" d="M73.7,321c0.4,0.8,1.1,1.2,1.9,1.2c0.8,0,1.2-0.3,1.2-0.8c0-0.5-0.3-0.7-1.4-1.1l-0.8-0.3
		c-1.2-0.4-1.9-1-1.9-2.2c0-1.2,1.1-2.2,2.9-2.2c1.2,0,2.3,0.5,2.9,1.5l-1.3,0.9c-0.4-0.7-0.9-1-1.7-1c-0.8,0-1.1,0.3-1.1,0.7
		c0,0.5,0.2,0.7,1.2,1l0.8,0.2c1.3,0.4,2.1,1,2.1,2.2c0,1.4-1.2,2.4-3,2.4c-1.5,0-2.6-0.7-3.2-1.7L73.7,321z"/>
	<path class="st0" d="M81.7,323.5l-2.9-7.6h1.9c0.8,2.1,1.4,4,1.9,5.6c0.5-1.5,1.1-3.6,1.8-5.6h1.8l-2.6,7.5
		c-0.9,2.5-1.4,3.1-3.2,3.1c-0.3,0-0.6,0-0.9-0.1v-1.5c0.2,0.1,0.5,0.1,0.7,0.1c0.8,0,1.1-0.2,1.4-1.2L81.7,323.5z"/>
	<path class="st0" d="M87.7,321c0.4,0.8,1.1,1.2,1.9,1.2c0.8,0,1.2-0.3,1.2-0.8c0-0.5-0.3-0.7-1.4-1.1l-0.8-0.3
		c-1.2-0.4-1.9-1-1.9-2.2c0-1.2,1.1-2.2,2.9-2.2c1.2,0,2.3,0.5,2.9,1.5l-1.3,0.9c-0.4-0.7-0.9-1-1.7-1c-0.8,0-1.1,0.3-1.1,0.7
		c0,0.5,0.2,0.7,1.2,1l0.8,0.2c1.3,0.4,2.1,1,2.1,2.2c0,1.4-1.2,2.4-3,2.4c-1.5,0-2.6-0.7-3.2-1.7L87.7,321z"/>
	<path class="st0" d="M97.5,323.3c-0.4,0.1-0.9,0.2-1.3,0.2c-0.7,0-1.2-0.2-1.5-0.5c-0.3-0.4-0.4-0.9-0.4-1.6v-4.1h-1.2v-1.4h1.2
		v-2.4H96v2.4h1.5v1.4H96v3.7c0,0.8,0.2,1,0.8,1c0.2,0,0.5,0,0.7-0.1V323.3z"/>
	<path class="st0" d="M105.1,321.5c-0.6,1.4-1.7,2.1-3.3,2.1c-2.4,0-3.7-1.6-3.7-4c0-2.4,1.4-3.9,3.6-3.9c2.4,0,3.4,1.7,3.4,4.4
		h-5.2c0.1,1.3,0.8,2,2,2c0.8,0,1.4-0.3,1.7-1.2L105.1,321.5z M103.3,318.8c-0.1-1.2-0.7-1.8-1.6-1.8s-1.7,0.6-1.8,1.8H103.3z"/>
	<path class="st0" d="M108.2,315.9v1.1c0.6-0.8,1.4-1.2,2.4-1.2c1.1,0,1.7,0.4,2,1.3c0.6-0.8,1.5-1.3,2.6-1.3c0.9,0,1.6,0.4,1.9,1.2
		c0.2,0.5,0.2,1,0.2,2v4.3h-1.8v-4c0-0.8-0.1-1.2-0.2-1.5c-0.2-0.3-0.5-0.5-0.9-0.5s-0.9,0.2-1.2,0.6c-0.4,0.5-0.5,1-0.5,1.9v3.6
		h-1.8v-4.1c0-0.8,0-1.1-0.2-1.4c-0.2-0.4-0.5-0.5-1-0.5c-0.5,0-1,0.3-1.3,0.7c-0.3,0.4-0.4,0.9-0.4,1.8v3.6h-1.8v-7.5H108.2z"/>
</g>
<g>
	<path class="st0" d="M415.9,97.1c0.6,1.3,1.6,1.9,2.8,1.9c1.3,0,2-0.5,2-1.3c0-0.8-0.5-1.1-2-1.6l-1.1-0.4c-1.8-0.6-2.6-1.5-2.6-3
		c0-1.8,1.6-3.1,3.8-3.1c1.8,0,3.2,0.8,4,2.2l-1.5,1.1c-0.7-1.2-1.6-1.6-2.7-1.6c-1.1,0-1.7,0.5-1.7,1.2c0,0.7,0.4,1,1.8,1.5
		l1.2,0.4c2,0.6,2.9,1.5,2.9,3.1c0,1.9-1.6,3.2-4,3.2c-1.9,0-3.5-0.9-4.3-2.4L415.9,97.1z"/>
	<path class="st0" d="M427.8,100.3c-0.4,0.1-0.9,0.2-1.3,0.2c-0.7,0-1.2-0.2-1.5-0.5c-0.3-0.4-0.4-0.9-0.4-1.6v-4.1h-1.2v-1.4h1.2
		v-2.4h1.7v2.4h1.5v1.4h-1.5V98c0,0.8,0.2,1,0.8,1c0.2,0,0.5,0,0.7-0.1V100.3z"/>
	<path class="st0" d="M433.5,95.3c0-0.4-0.1-0.7-0.3-0.9c-0.2-0.2-0.6-0.3-1-0.3c-0.9,0-1.3,0.5-1.4,1.3l-1.7-0.2
		c0.1-1.6,1.3-2.5,3.2-2.5c1,0,1.7,0.2,2.2,0.7c0.5,0.4,0.6,1.1,0.6,2.2v2.7c0,0.9,0.1,1.6,0.2,2h-1.7c-0.1-0.2-0.2-0.7-0.2-0.9
		c-0.6,0.7-1.4,1.1-2.4,1.1c-1.4,0-2.3-0.9-2.3-2.2c0-1,0.5-1.6,1.4-2c0.7-0.3,2.2-0.5,3.4-0.6V95.3z M433.5,96.9
		c-0.9,0-1.9,0.2-2.4,0.4c-0.5,0.2-0.6,0.5-0.6,0.9c0,0.5,0.4,0.9,1.1,0.9c0.7,0,1.2-0.3,1.6-0.8c0.2-0.3,0.3-0.8,0.3-1.2V96.9z"/>
	<path class="st0" d="M440.6,100.3c-0.4,0.1-0.9,0.2-1.3,0.2c-0.7,0-1.2-0.2-1.5-0.5c-0.3-0.4-0.4-0.9-0.4-1.6v-4.1h-1.2v-1.4h1.2
		v-2.4h1.7v2.4h1.5v1.4h-1.5V98c0,0.8,0.2,1,0.8,1c0.2,0,0.5,0,0.7-0.1V100.3z"/>
	<path class="st0" d="M441.6,91.4v-1.6h1.8v1.6H441.6z M443.4,100.4h-1.8v-7.5h1.8V100.4z"/>
	<path class="st0" d="M445.9,98c0.4,0.8,1.1,1.2,1.9,1.2c0.8,0,1.2-0.3,1.2-0.8c0-0.5-0.3-0.7-1.4-1.1l-0.8-0.3
		c-1.2-0.4-1.9-1-1.9-2.2c0-1.2,1.1-2.2,2.9-2.2c1.2,0,2.3,0.5,2.9,1.5l-1.3,0.9c-0.4-0.7-0.9-1-1.7-1c-0.8,0-1.1,0.3-1.1,0.7
		c0,0.5,0.2,0.7,1.2,1l0.8,0.2c1.3,0.4,2.1,1,2.1,2.2c0,1.4-1.2,2.4-3,2.4c-1.5,0-2.6-0.7-3.2-1.7L445.9,98z"/>
	<path class="st0" d="M455.7,100.3c-0.4,0.1-0.9,0.2-1.3,0.2c-0.7,0-1.2-0.2-1.5-0.5c-0.3-0.4-0.4-0.9-0.4-1.6v-4.1h-1.2v-1.4h1.2
		v-2.4h1.7v2.4h1.5v1.4h-1.5V98c0,0.8,0.2,1,0.8,1c0.2,0,0.5,0,0.7-0.1V100.3z"/>
	<path class="st0" d="M456.8,91.4v-1.6h1.8v1.6H456.8z M458.5,100.4h-1.8v-7.5h1.8V100.4z"/>
	<path class="st0" d="M465,95.5c-0.2-1-0.8-1.3-1.5-1.3c-1,0-1.8,0.8-1.8,2.4c0,1.6,0.7,2.5,1.8,2.5c0.8,0,1.3-0.4,1.5-1.2l1.6,0.5
		c-0.4,1.2-1.4,2.1-3.1,2.1c-2.2,0-3.6-1.5-3.6-4c0-2.4,1.4-3.9,3.6-3.9c1.6,0,2.6,0.9,3,2.2L465,95.5z"/>
	<path class="st0" d="M468.4,98c0.4,0.8,1.1,1.2,1.9,1.2c0.8,0,1.2-0.3,1.2-0.8c0-0.5-0.3-0.7-1.4-1.1l-0.8-0.3
		c-1.2-0.4-1.9-1-1.9-2.2c0-1.2,1-2.2,2.9-2.2c1.2,0,2.3,0.5,2.9,1.5l-1.3,0.9c-0.4-0.7-0.9-1-1.7-1c-0.8,0-1.1,0.3-1.1,0.7
		c0,0.5,0.2,0.7,1.2,1l0.8,0.2c1.3,0.4,2.1,1,2.1,2.2c0,1.4-1.2,2.4-3,2.4c-1.5,0-2.6-0.7-3.2-1.7L468.4,98z"/>
	<path class="st0" d="M476.2,100.3c0,1.2-0.2,1.7-1,2.4l-0.8-0.7c0.4-0.4,0.6-0.8,0.6-1.7h-0.6v-2.2h1.8V100.3z"/>
	<path class="st0" d="M424.2,118.4c0-5.3,0-6.8,0.1-8.5c-0.6,2-0.9,2.9-2.8,8.5h-1.7c-1.3-4.2-2.1-6.2-2.8-8.5c0,1.9,0,3.3,0,8.5
		h-1.8v-10.6h2.7c1.3,3.9,2.1,6,2.7,8.1c0.6-2.1,1-3.3,2.7-8.1h2.7v10.6H424.2z"/>
	<path class="st0" d="M431.2,118.6c-2.3,0-3.7-1.5-3.7-4c0-2.5,1.5-3.9,3.8-3.9c2.2,0,3.6,1.5,3.6,4
		C434.8,117.2,433.3,118.6,431.2,118.6z M431.2,112.1c-1.1,0-1.9,0.9-1.9,2.4c0,1.7,0.8,2.5,1.9,2.5c1.1,0,1.9-0.8,1.9-2.4
		C433,113,432.3,112.1,431.2,112.1z"/>
	<path class="st0" d="M441,118.4v-4.3c0-0.6-0.1-1-0.3-1.3c-0.2-0.3-0.5-0.4-1-0.4s-1,0.3-1.3,0.7c-0.4,0.5-0.4,1-0.4,1.8v3.6h-1.8
		v-7.5h1.7v1.1c0.5-0.8,1.4-1.2,2.5-1.2c0.9,0,1.5,0.3,1.9,0.9c0.3,0.5,0.4,1,0.4,2v4.7H441z"/>
	<path class="st0" d="M444.5,109.4v-1.6h1.8v1.6H444.5z M446.2,118.4h-1.8v-7.5h1.8V118.4z"/>
	<path class="st0" d="M451.7,118.3c-0.4,0.1-0.9,0.2-1.3,0.2c-0.7,0-1.2-0.2-1.5-0.5c-0.3-0.4-0.4-0.9-0.4-1.6v-4.1h-1.2v-1.4h1.2
		v-2.4h1.7v2.4h1.5v1.4h-1.5v3.7c0,0.8,0.2,1,0.8,1c0.2,0,0.5,0,0.7-0.1V118.3z"/>
	<path class="st0" d="M456,118.6c-2.3,0-3.7-1.5-3.7-4c0-2.5,1.5-3.9,3.8-3.9c2.2,0,3.6,1.5,3.6,4
		C459.7,117.2,458.2,118.6,456,118.6z M456.1,112.1c-1.1,0-1.9,0.9-1.9,2.4c0,1.7,0.8,2.5,1.9,2.5c1.1,0,1.9-0.8,1.9-2.4
		C457.9,113,457.2,112.1,456.1,112.1z"/>
	<path class="st0" d="M461.1,118.4v-7.5h1.7v1.2c0.5-0.8,1-1.2,2.1-1.2c0.2,0,0.4,0,0.6,0.1v1.8c-0.3-0.1-0.5-0.2-0.8-0.2
		c-0.6,0-1.1,0.3-1.4,0.7c-0.3,0.4-0.4,0.9-0.4,1.7v3.5H461.1z"/>
	<path class="st0" d="M466.5,109.4v-1.6h1.8v1.6H466.5z M468.3,118.4h-1.8v-7.5h1.8V118.4z"/>
	<path class="st0" d="M474.9,118.4v-4.3c0-0.6-0.1-1-0.3-1.3c-0.2-0.3-0.5-0.4-1-0.4s-1,0.3-1.3,0.7c-0.4,0.5-0.4,1-0.4,1.8v3.6
		h-1.8v-7.5h1.7v1.1c0.5-0.8,1.4-1.2,2.5-1.2c0.9,0,1.5,0.3,1.9,0.9c0.3,0.5,0.4,1,0.4,2v4.7H474.9z"/>
	<path class="st0" d="M483.1,117.3c-0.5,0.6-1.2,1-2.2,1c-1.8,0-3-1.4-3-3.7c0-2.3,1.3-3.8,3.1-3.8c1,0,1.8,0.4,2.2,1.1v-0.9h1.7v7
		c0,1.5-0.4,2.5-1.2,3.1c-0.6,0.4-1.4,0.6-2.4,0.6c-1.8,0-3-0.8-3.3-2.3l1.8-0.3c0.1,0.8,0.7,1.2,1.5,1.2c0.7,0,1.2-0.2,1.4-0.6
		c0.2-0.3,0.3-0.8,0.3-1.5V117.3z M481.6,112.2c-1.1,0-1.8,0.8-1.8,2.3c0,1.5,0.7,2.4,1.7,2.4c1,0,1.7-0.7,1.7-2.2
		C483.2,113.2,482.6,112.2,481.6,112.2z"/>
</g>
<g>
	<path class="st0" d="M193.1,305.4v-10.6h1.9v8.9h5v1.6H193.1z"/>
	<path class="st0" d="M201.3,296.4v-1.6h1.8v1.6H201.3z M203.1,305.4h-1.8v-7.5h1.8V305.4z"/>
	<path class="st0" d="M206.7,305.4l-2.7-7.5h2c0.9,2.5,1.4,4.1,1.8,5.7c0.4-1.5,0.9-3.1,1.8-5.7h1.9l-2.7,7.5H206.7z"/>
	<path class="st0" d="M212.4,296.4v-1.6h1.8v1.6H212.4z M214.1,305.4h-1.8v-7.5h1.8V305.4z"/>
	<path class="st0" d="M220.7,305.4v-4.3c0-0.6-0.1-1-0.3-1.3c-0.2-0.3-0.5-0.4-1-0.4s-1,0.3-1.3,0.7c-0.4,0.5-0.4,1-0.4,1.8v3.6H216
		v-7.5h1.7v1.1c0.5-0.8,1.4-1.2,2.5-1.2c0.9,0,1.5,0.3,1.9,0.9c0.3,0.5,0.4,1,0.4,2v4.7H220.7z"/>
	<path class="st0" d="M229,304.3c-0.5,0.6-1.2,1-2.2,1c-1.8,0-3-1.4-3-3.7c0-2.3,1.3-3.8,3.1-3.8c1,0,1.8,0.4,2.2,1.1v-0.9h1.7v7
		c0,1.5-0.4,2.5-1.2,3.1c-0.6,0.4-1.4,0.6-2.4,0.6c-1.8,0-3-0.8-3.3-2.3l1.8-0.3c0.1,0.8,0.7,1.2,1.5,1.2c0.7,0,1.2-0.2,1.4-0.6
		c0.2-0.3,0.3-0.8,0.3-1.5V304.3z M227.4,299.2c-1.1,0-1.8,0.8-1.8,2.3c0,1.5,0.7,2.4,1.7,2.4c1,0,1.7-0.7,1.7-2.2
		C229,300.2,228.5,299.2,227.4,299.2z"/>
	<path class="st0" d="M237.5,305.4v-1c-0.5,0.7-1.2,1.2-2.2,1.2c-1.7,0-3-1.3-3-3.9c0-2.4,1.4-3.9,3.1-3.9c1.1,0,1.7,0.4,2.1,1v-3.9
		h1.7v10.6H237.5z M235.8,299.2c-1,0-1.7,0.8-1.7,2.4c0,1.5,0.6,2.5,1.7,2.5c1,0,1.8-0.8,1.8-2.4
		C237.5,300.1,236.8,299.2,235.8,299.2z"/>
	<path class="st0" d="M244.3,305.6c-2.3,0-3.7-1.5-3.7-4c0-2.5,1.5-3.9,3.8-3.9c2.2,0,3.6,1.5,3.6,4
		C247.9,304.2,246.5,305.6,244.3,305.6z M244.3,299.1c-1.1,0-1.9,0.9-1.9,2.4c0,1.7,0.8,2.5,1.9,2.5c1.1,0,1.9-0.8,1.9-2.4
		C246.2,300,245.4,299.1,244.3,299.1z"/>
	<path class="st0" d="M254,300.5c-0.2-1-0.8-1.3-1.5-1.3c-1,0-1.8,0.8-1.8,2.4c0,1.6,0.7,2.5,1.8,2.5c0.8,0,1.3-0.4,1.5-1.2l1.6,0.5
		c-0.4,1.2-1.4,2.1-3.1,2.1c-2.2,0-3.6-1.5-3.6-4c0-2.4,1.4-3.9,3.6-3.9c1.6,0,2.6,0.9,3,2.2L254,300.5z"/>
	<path class="st0" d="M257.4,303c0.4,0.8,1.1,1.2,1.9,1.2c0.8,0,1.2-0.3,1.2-0.8c0-0.5-0.3-0.7-1.4-1.1l-0.8-0.3
		c-1.2-0.4-1.9-1-1.9-2.2c0-1.2,1-2.2,2.9-2.2c1.2,0,2.3,0.5,2.9,1.5l-1.3,0.9c-0.4-0.7-0.9-1-1.7-1c-0.8,0-1.1,0.3-1.1,0.7
		c0,0.5,0.2,0.7,1.2,1l0.8,0.2c1.3,0.4,2.1,1,2.1,2.2c0,1.4-1.2,2.4-3,2.4c-1.5,0-2.6-0.7-3.2-1.7L257.4,303z"/>
	<path class="st0" d="M193.1,323.4v-10.6h7.4v1.6H195v2.7h5v1.6h-5v3h5.7v1.6H193.1z"/>
	<path class="st0" d="M206.7,323.4v-1c-0.5,0.7-1.2,1.2-2.2,1.2c-1.7,0-3-1.3-3-3.9c0-2.4,1.4-3.9,3.1-3.9c1.1,0,1.7,0.4,2.1,1v-3.9
		h1.7v10.6H206.7z M205,317.2c-1,0-1.7,0.8-1.7,2.4c0,1.5,0.6,2.5,1.7,2.5s1.8-0.8,1.8-2.4C206.7,318.1,206.1,317.2,205,317.2z"/>
	<path class="st0" d="M210.2,314.4v-1.6h1.8v1.6H210.2z M212,323.4h-1.8v-7.5h1.8V323.4z"/>
	<path class="st0" d="M217.5,323.3c-0.4,0.1-0.9,0.2-1.3,0.2c-0.7,0-1.2-0.2-1.5-0.5c-0.3-0.4-0.4-0.9-0.4-1.6v-4.1h-1.2v-1.4h1.2
		v-2.4h1.7v2.4h1.5v1.4H216v3.7c0,0.8,0.2,1,0.8,1c0.2,0,0.5,0,0.7-0.1V323.3z"/>
	<path class="st0" d="M221.8,323.6c-2.3,0-3.7-1.5-3.7-4c0-2.5,1.5-3.9,3.8-3.9c2.2,0,3.6,1.5,3.6,4
		C225.5,322.2,224,323.6,221.8,323.6z M221.9,317.1c-1.1,0-1.9,0.9-1.9,2.4c0,1.7,0.8,2.5,1.9,2.5s1.9-0.8,1.9-2.4
		C223.7,318,223,317.1,221.9,317.1z"/>
	<path class="st0" d="M226.9,323.4v-7.5h1.7v1.2c0.5-0.8,1-1.2,2.1-1.2c0.2,0,0.4,0,0.6,0.1v1.8c-0.3-0.1-0.5-0.2-0.8-0.2
		c-0.6,0-1.1,0.3-1.4,0.7c-0.3,0.4-0.4,0.9-0.4,1.7v3.5H226.9z"/>
</g>
<g>
	<path class="st0" d="M325.1,305.4v-10.6h1.9v8.9h5v1.6H325.1z"/>
	<path class="st0" d="M333.3,296.4v-1.6h1.8v1.6H333.3z M335.1,305.4h-1.8v-7.5h1.8V305.4z"/>
	<path class="st0" d="M338.7,305.4l-2.7-7.5h2c0.9,2.5,1.4,4.1,1.8,5.7c0.4-1.5,0.9-3.1,1.8-5.7h1.9l-2.7,7.5H338.7z"/>
	<path class="st0" d="M344.4,296.4v-1.6h1.8v1.6H344.4z M346.1,305.4h-1.8v-7.5h1.8V305.4z"/>
	<path class="st0" d="M352.7,305.4v-4.3c0-0.6-0.1-1-0.3-1.3c-0.2-0.3-0.5-0.4-1-0.4s-1,0.3-1.3,0.7c-0.4,0.5-0.4,1-0.4,1.8v3.6H348
		v-7.5h1.7v1.1c0.5-0.8,1.4-1.2,2.5-1.2c0.9,0,1.5,0.3,1.9,0.9c0.3,0.5,0.4,1,0.4,2v4.7H352.7z"/>
	<path class="st0" d="M361,304.3c-0.5,0.6-1.2,1-2.2,1c-1.8,0-3-1.4-3-3.7c0-2.3,1.3-3.8,3.1-3.8c1,0,1.8,0.4,2.2,1.1v-0.9h1.7v7
		c0,1.5-0.4,2.5-1.2,3.1c-0.6,0.4-1.4,0.6-2.4,0.6c-1.8,0-3-0.8-3.3-2.3l1.8-0.3c0.1,0.8,0.7,1.2,1.5,1.2c0.7,0,1.2-0.2,1.4-0.6
		c0.2-0.3,0.3-0.8,0.3-1.5V304.3z M359.4,299.2c-1.1,0-1.8,0.8-1.8,2.3c0,1.5,0.7,2.4,1.7,2.4c1,0,1.7-0.7,1.7-2.2
		C361,300.2,360.5,299.2,359.4,299.2z"/>
	<path class="st0" d="M369.5,305.4v-1c-0.5,0.7-1.2,1.2-2.2,1.2c-1.7,0-3-1.3-3-3.9c0-2.4,1.4-3.9,3.1-3.9c1.1,0,1.7,0.4,2.1,1v-3.9
		h1.7v10.6H369.5z M367.8,299.2c-1,0-1.7,0.8-1.7,2.4c0,1.5,0.6,2.5,1.7,2.5c1,0,1.8-0.8,1.8-2.4
		C369.5,300.1,368.8,299.2,367.8,299.2z"/>
	<path class="st0" d="M376.3,305.6c-2.3,0-3.7-1.5-3.7-4c0-2.5,1.5-3.9,3.8-3.9c2.2,0,3.6,1.5,3.6,4
		C379.9,304.2,378.5,305.6,376.3,305.6z M376.3,299.1c-1.1,0-1.9,0.9-1.9,2.4c0,1.7,0.8,2.5,1.9,2.5c1.1,0,1.9-0.8,1.9-2.4
		C378.2,300,377.4,299.1,376.3,299.1z"/>
	<path class="st0" d="M386,300.5c-0.2-1-0.8-1.3-1.5-1.3c-1,0-1.8,0.8-1.8,2.4c0,1.6,0.7,2.5,1.8,2.5c0.8,0,1.3-0.4,1.5-1.2l1.6,0.5
		c-0.4,1.2-1.4,2.1-3.1,2.1c-2.2,0-3.6-1.5-3.6-4c0-2.4,1.4-3.9,3.6-3.9c1.6,0,2.6,0.9,3,2.2L386,300.5z"/>
	<path class="st0" d="M389.4,303c0.4,0.8,1.1,1.2,1.9,1.2c0.8,0,1.2-0.3,1.2-0.8c0-0.5-0.3-0.7-1.4-1.1l-0.8-0.3
		c-1.2-0.4-1.9-1-1.9-2.2c0-1.2,1-2.2,2.9-2.2c1.2,0,2.3,0.5,2.9,1.5l-1.3,0.9c-0.4-0.7-0.9-1-1.7-1c-0.8,0-1.1,0.3-1.1,0.7
		c0,0.5,0.2,0.7,1.2,1l0.8,0.2c1.3,0.4,2.1,1,2.1,2.2c0,1.4-1.2,2.4-3,2.4c-1.5,0-2.6-0.7-3.2-1.7L389.4,303z"/>
	<path class="st0" d="M325.9,320.1c0.6,1.3,1.6,1.9,2.8,1.9c1.3,0,2-0.5,2-1.3c0-0.8-0.5-1.1-2-1.6l-1.1-0.4c-1.8-0.6-2.6-1.5-2.6-3
		c0-1.8,1.6-3.1,3.8-3.1c1.8,0,3.2,0.8,4,2.2l-1.5,1.1c-0.7-1.2-1.6-1.6-2.7-1.6c-1.1,0-1.7,0.5-1.7,1.2c0,0.7,0.4,1,1.8,1.5
		l1.2,0.4c2,0.6,2.9,1.5,2.9,3.1c0,1.9-1.6,3.2-4,3.2c-1.9,0-3.5-0.9-4.3-2.4L325.9,320.1z"/>
	<path class="st0" d="M340.7,321.5c-0.6,1.4-1.7,2.1-3.3,2.1c-2.4,0-3.7-1.6-3.7-4c0-2.4,1.4-3.9,3.6-3.9c2.4,0,3.4,1.7,3.4,4.4
		h-5.2c0.1,1.3,0.8,2,1.9,2c0.8,0,1.4-0.3,1.7-1.2L340.7,321.5z M339,318.8c-0.1-1.2-0.7-1.8-1.6-1.8s-1.7,0.6-1.8,1.8H339z"/>
	<path class="st0" d="M342.1,323.4v-7.5h1.7v1.2c0.5-0.8,1-1.2,2.1-1.2c0.2,0,0.4,0,0.6,0.1v1.8c-0.3-0.1-0.5-0.2-0.8-0.2
		c-0.6,0-1.1,0.3-1.4,0.7c-0.3,0.4-0.4,0.9-0.4,1.7v3.5H342.1z"/>
	<path class="st0" d="M349.5,323.4l-2.7-7.5h2c0.9,2.5,1.4,4.1,1.8,5.7c0.4-1.5,0.9-3.1,1.8-5.7h1.9l-2.7,7.5H349.5z"/>
	<path class="st0" d="M361.5,321.5c-0.6,1.4-1.7,2.1-3.3,2.1c-2.4,0-3.7-1.6-3.7-4c0-2.4,1.4-3.9,3.6-3.9c2.4,0,3.4,1.7,3.4,4.4
		h-5.2c0.1,1.3,0.8,2,2,2c0.8,0,1.4-0.3,1.7-1.2L361.5,321.5z M359.8,318.8c-0.1-1.2-0.7-1.8-1.6-1.8s-1.7,0.6-1.8,1.8H359.8z"/>
	<path class="st0" d="M362.9,323.4v-7.5h1.7v1.2c0.5-0.8,1-1.2,2.1-1.2c0.2,0,0.4,0,0.6,0.1v1.8c-0.3-0.1-0.5-0.2-0.8-0.2
		c-0.6,0-1.1,0.3-1.4,0.7c-0.3,0.4-0.4,0.9-0.4,1.7v3.5H362.9z"/>
</g>
<g>
</g>
<g>
</g>
<g>
</g>
<g>
</g>
<g>
</g>
<g>
</g>
<g>
</g>
<g>
</g>
<g>
</g>
<g>
</g>
<g>
</g>
<g>
</g>
<g>
</g>
<g>
</g>
<g>
</g>
</svg>
