<?xml version="1.0" encoding="utf-8"?>
<!-- Generator: Adobe Illustrator 22.1.0, SVG Export Plug-In . SVG Version: 6.00 Build 0)  -->
<svg version="1.1" id="arrows" xmlns="http://www.w3.org/2000/svg" xmlns:xlink="http://www.w3.org/1999/xlink" x="0px" y="0px"
	 viewBox="0 0 1201 653" style="enable-background:new 0 0 1201 653;" xml:space="preserve">
<style type="text/css">
	.st0{opacity:0.33;}
	.st1{fill:none;stroke:#000000;stroke-miterlimit:10;}
	.st2{fill:none;}
</style>
<g class="st0">
	<g>
		<line class="st1" x1="150.5" y1="313.4" x2="149.5" y2="199.5"/>
		<g>
			<polygon points="156.6,308.4 155.5,307.3 150.5,312.8 145.4,307.4 144.3,308.5 150.5,315 			"/>
		</g>
	</g>
</g>
<g class="st0">
	<g>
		<line class="st1" x1="411.4" y1="351.5" x2="188" y2="351.5"/>
		<g>
			<polygon points="406.4,345.4 405.4,346.5 410.8,351.5 405.4,356.5 406.4,357.6 413,351.5 			"/>
		</g>
	</g>
</g>
<g class="st0">
	<g>
		<line class="st1" x1="711.4" y1="351.5" x2="489.6" y2="351.5"/>
		<g>
			<polygon points="706.4,345.4 705.4,346.5 710.8,351.5 705.4,356.5 706.4,357.6 713,351.5 			"/>
		</g>
		<g>
			<polygon points="494.6,345.4 495.6,346.5 490.2,351.5 495.6,356.5 494.6,357.6 488,351.5 			"/>
		</g>
	</g>
</g>
<g class="st0">
	<path class="st2" d="M488,150.5"/>
</g>
<g class="st0">
	<g>
		<line class="st1" x1="448.5" y1="313.4" x2="448.5" y2="201"/>
		<g>
			<polygon points="454.6,308.4 453.5,307.4 448.5,312.8 443.5,307.4 442.4,308.4 448.5,315 			"/>
		</g>
	</g>
</g>
<g class="st0">
	<path class="st2" d="M775.5,370.5"/>
</g>
<g class="st0">
	<path class="st2" d="M1011.5,519.5"/>
</g>
<g class="st0">
	<path class="st2" d="M714.5,364.5"/>
</g>
<g class="st0">
	<path class="st2" d="M189.5,539.5"/>
</g>
<g class="st0">
	<g>
		<line class="st1" x1="150.5" y1="500.4" x2="150.5" y2="390"/>
		<g>
			<polygon points="156.6,495.4 155.5,494.4 150.5,499.8 145.5,494.4 144.4,495.4 150.5,502 			"/>
		</g>
	</g>
</g>
<g class="st0">
	<g>
		<line class="st1" x1="749.5" y1="500.4" x2="749.5" y2="390"/>
		<g>
			<polygon points="755.6,495.4 754.5,494.4 749.5,499.8 744.5,494.4 743.4,495.4 749.5,502 			"/>
		</g>
	</g>
</g>
<g class="st0">
	<path class="st2" d="M176,551.5"/>
</g>
<g class="st0">
	<path class="st2" d="M426,551.5"/>
</g>
<g class="st0">
	<g>
		<line class="st1" x1="504.6" y1="151.5" x2="1050.5" y2="150.5"/>
		<g>
			<polygon points="509.6,157.6 510.6,156.5 505.2,151.5 510.6,146.5 509.6,145.4 503,151.5 			"/>
		</g>
	</g>
</g>
<g class="st0">
	<g>
		<polyline class="st1" points="1050.5,190.6 1050.5,551.5 800.5,551.5 		"/>
		<g>
			<polygon points="1044.4,195.6 1045.5,196.6 1050.5,191.2 1055.5,196.6 1056.6,195.6 1050.5,189 			"/>
		</g>
	</g>
</g>
</svg>
