<?xml version="1.0" encoding="utf-8"?>
<!-- Generator: Adobe Illustrator 24.1.0, SVG Export Plug-In . SVG Version: 6.00 Build 0)  -->
<svg version="1.1" id="labels_de" xmlns="http://www.w3.org/2000/svg" xmlns:xlink="http://www.w3.org/1999/xlink" x="0px" y="0px"
	 viewBox="0 0 551 650" style="enable-background:new 0 0 551 650;" xml:space="preserve">
<style type="text/css">
	.st0{fill:#3A2F3C;}
	.st1{fill:#647CC1;}
</style>
<g>
	<path class="st0" d="M290.76,214.99c0-3.35,1.97-5.46,5.04-5.46c2.89,0,4.78,2.22,4.78,5.58c0,3.46-1.91,5.49-4.78,5.49
		C292.64,220.6,290.76,218.42,290.76,214.99z M295.71,211.22c-1.82,0-2.97,1.38-2.97,3.73c0,2.46,1.19,3.94,3.02,3.94
		c1.66,0,2.83-1.29,2.83-3.82C298.59,212.63,297.44,211.22,295.71,211.22z"/>
	<path class="st0" d="M306.86,220.36v-4.29c0-0.58-0.06-1.02-0.27-1.32c-0.2-0.28-0.53-0.42-1.01-0.42c-0.48,0-0.97,0.25-1.27,0.66
		c-0.38,0.49-0.43,1.05-0.43,1.77v3.6h-1.76v-7.47h1.74V214c0.54-0.76,1.42-1.24,2.47-1.24c0.9,0,1.49,0.31,1.86,0.88
		c0.3,0.45,0.42,1.04,0.42,2.04v4.68H306.86z"/>
	<path class="st0" d="M312.12,220.36h-1.77v-10.59h1.77V220.36z"/>
	<path class="st0" d="M313.94,211.42v-1.65h1.79v1.65H313.94z M315.72,220.36h-1.77v-7.47h1.77V220.36z"/>
	<path class="st0" d="M322.29,220.36v-4.29c0-0.58-0.06-1.02-0.27-1.32c-0.19-0.28-0.52-0.42-1-0.42c-0.48,0-0.98,0.25-1.28,0.66
		c-0.38,0.49-0.44,1.05-0.44,1.77v3.6h-1.75v-7.47h1.74V214c0.54-0.76,1.42-1.24,2.48-1.24c0.9,0,1.48,0.31,1.86,0.88
		c0.3,0.45,0.42,1.04,0.42,2.04v4.68H322.29z"/>
	<path class="st0" d="M332.33,218.48c-0.55,1.35-1.69,2.1-3.25,2.1c-2.4,0-3.69-1.56-3.69-4.04c0-2.38,1.44-3.87,3.62-3.87
		c2.37,0,3.36,1.73,3.37,4.4h-5.22c0.06,1.29,0.76,2.02,1.95,2.02c0.77,0,1.41-0.3,1.68-1.16L332.33,218.48z M330.59,215.81
		c-0.06-1.17-0.67-1.77-1.63-1.77s-1.67,0.6-1.79,1.77H330.59z"/>
	<path class="st0" d="M293.24,227.77c2.31,3.87,3.67,6.03,4.69,7.83c-0.06-1.62-0.07-3.77-0.07-7.83h1.89v10.59h-2.08
		c-2.21-3.63-3.6-5.91-4.71-7.77c0.05,0.92,0.06,2.95,0.06,7.77h-1.89v-10.59H293.24z"/>
	<path class="st0" d="M308.18,236.48c-0.55,1.35-1.69,2.1-3.25,2.1c-2.4,0-3.69-1.56-3.69-4.04c0-2.38,1.44-3.87,3.62-3.87
		c2.37,0,3.36,1.73,3.37,4.4H303c0.06,1.29,0.77,2.02,1.95,2.02c0.76,0,1.41-0.3,1.68-1.16L308.18,236.48z M306.44,233.81
		c-0.06-1.17-0.68-1.77-1.64-1.77s-1.67,0.6-1.78,1.77H306.44z"/>
	<path class="st0" d="M315.68,238.36c-0.5-2.04-0.96-3.75-1.34-5.55c-0.31,1.44-0.66,2.76-1.44,5.55h-1.98l-2.25-7.47h1.92
		c0.51,1.98,1.11,4.2,1.46,5.62c0.3-1.41,0.63-2.9,1.38-5.62h1.84c0.63,2.4,1.02,3.98,1.38,5.62c0.36-1.6,0.93-3.71,1.46-5.62h1.8
		l-2.26,7.47H315.68z"/>
	<path class="st0" d="M321.5,235.99c0.39,0.77,1.08,1.22,1.91,1.22c0.76,0,1.18-0.33,1.18-0.78c0-0.49-0.25-0.7-1.38-1.06
		l-0.79-0.25c-1.15-0.36-1.89-1.04-1.89-2.17c0-1.17,1.05-2.25,2.9-2.25c1.18,0,2.28,0.45,2.94,1.5l-1.3,0.88
		c-0.38-0.66-0.95-1.05-1.67-1.05c-0.75,0-1.11,0.3-1.11,0.73c0,0.45,0.24,0.66,1.2,0.96l0.79,0.24c1.32,0.42,2.07,1.03,2.07,2.23
		c0,1.38-1.15,2.38-3.01,2.38c-1.53,0-2.57-0.73-3.19-1.68L321.5,235.99z"/>
	<path class="st0" d="M327.65,238.36v-7.47h1.68v1.15c0.45-0.81,1.04-1.24,2.07-1.24c0.24,0,0.42,0.03,0.64,0.09v1.77
		c-0.28-0.15-0.51-0.21-0.84-0.21c-0.58,0-1.08,0.25-1.41,0.73c-0.25,0.38-0.39,0.9-0.39,1.69v3.48H327.65z"/>
	<path class="st0" d="M336.29,238.57c-2.34,0-3.66-1.47-3.66-3.96c0-2.47,1.46-3.93,3.76-3.93c2.22,0,3.55,1.48,3.55,4.02
		C339.95,237.19,338.48,238.57,336.29,238.57z M336.35,232.15c-1.11,0-1.92,0.85-1.92,2.42c0,1.69,0.78,2.54,1.88,2.54
		s1.87-0.77,1.87-2.45C338.18,232.99,337.46,232.15,336.35,232.15z"/>
	<path class="st0" d="M344.63,238.57c-2.34,0-3.66-1.47-3.66-3.96c0-2.47,1.46-3.93,3.77-3.93c2.22,0,3.55,1.48,3.55,4.02
		C348.29,237.19,346.82,238.57,344.63,238.57z M344.69,232.15c-1.11,0-1.92,0.85-1.92,2.42c0,1.69,0.78,2.54,1.88,2.54
		c1.09,0,1.87-0.77,1.87-2.45C346.52,232.99,345.8,232.15,344.69,232.15z"/>
	<path class="st0" d="M351.45,230.89V232c0.56-0.78,1.43-1.24,2.4-1.24c1.06,0,1.72,0.45,2.03,1.32c0.63-0.84,1.53-1.31,2.58-1.31
		c0.93,0,1.65,0.39,1.95,1.23c0.17,0.47,0.24,0.96,0.24,2.04v4.32h-1.75v-4.05c0-0.84-0.06-1.23-0.2-1.5
		c-0.17-0.31-0.48-0.48-0.94-0.48s-0.92,0.24-1.17,0.56c-0.39,0.46-0.53,1-0.53,1.9v3.57h-1.75v-4.09c0-0.79-0.03-1.11-0.17-1.41
		c-0.17-0.36-0.51-0.52-0.99-0.52c-0.49,0-0.96,0.25-1.26,0.67c-0.3,0.42-0.42,0.85-0.42,1.77v3.58h-1.75v-7.47H351.45z"/>
</g>
<g>
	<path class="st0" d="M166.12,220.36v-10.59h4.36c1.46,0,2.34,0.22,2.92,0.64c0.79,0.56,1.15,1.53,1.15,2.6
		c0,1.19-0.42,2.25-1.35,2.77c-0.78,0.44-1.88,0.58-3.15,0.58h-2.06v3.99H166.12z M169.92,214.75c1.03,0,1.71-0.1,2.13-0.39
		c0.39-0.28,0.54-0.73,0.54-1.33c0-0.54-0.18-0.99-0.54-1.28c-0.4-0.3-0.91-0.36-2.01-0.36h-2.03v3.36H169.92z"/>
	<path class="st0" d="M175.3,220.36v-7.47h1.68v1.15c0.45-0.81,1.04-1.24,2.07-1.24c0.24,0,0.42,0.03,0.64,0.09v1.77
		c-0.29-0.15-0.51-0.21-0.84-0.21c-0.59,0-1.08,0.25-1.41,0.73c-0.26,0.38-0.39,0.9-0.39,1.69v3.48H175.3z"/>
	<path class="st0" d="M180.67,211.42v-1.65h1.79v1.65H180.67z M182.46,220.36h-1.77v-7.47h1.77V220.36z"/>
	<path class="st0" d="M189.03,220.36v-4.29c0-0.58-0.06-1.02-0.27-1.32c-0.19-0.28-0.52-0.42-1-0.42s-0.97,0.25-1.28,0.66
		c-0.38,0.49-0.43,1.05-0.43,1.77v3.6h-1.75v-7.47h1.74V214c0.54-0.76,1.42-1.24,2.47-1.24c0.9,0,1.48,0.31,1.86,0.88
		c0.3,0.45,0.42,1.04,0.42,2.04v4.68H189.03z"/>
	<path class="st0" d="M196.17,220.33c-0.39,0.1-0.87,0.16-1.31,0.16c-0.73,0-1.23-0.18-1.53-0.54c-0.31-0.36-0.42-0.89-0.42-1.58
		v-4.08h-1.17v-1.41h1.2v-2.43h1.74v2.43h1.46v1.41h-1.46v3.73c0,0.76,0.22,1.03,0.77,1.03c0.21,0,0.48-0.04,0.72-0.13V220.33z"/>
	<path class="st0" d="M168.24,227.77c2.31,3.87,3.67,6.03,4.69,7.83c-0.06-1.62-0.07-3.77-0.07-7.83h1.89v10.59h-2.08
		c-2.21-3.63-3.6-5.91-4.71-7.77c0.05,0.92,0.06,2.95,0.06,7.77h-1.89v-10.59H168.24z"/>
	<path class="st0" d="M183.18,236.48c-0.55,1.35-1.69,2.1-3.25,2.1c-2.4,0-3.69-1.56-3.69-4.04c0-2.38,1.44-3.87,3.62-3.87
		c2.37,0,3.36,1.73,3.37,4.4H178c0.06,1.29,0.77,2.02,1.95,2.02c0.76,0,1.41-0.3,1.68-1.16L183.18,236.48z M181.44,233.81
		c-0.06-1.17-0.68-1.77-1.64-1.77s-1.67,0.6-1.78,1.77H181.44z"/>
	<path class="st0" d="M190.68,238.36c-0.5-2.04-0.96-3.75-1.34-5.55c-0.31,1.44-0.66,2.76-1.44,5.55h-1.98l-2.25-7.47h1.92
		c0.51,1.98,1.11,4.2,1.46,5.62c0.3-1.41,0.63-2.9,1.38-5.62h1.84c0.63,2.4,1.02,3.98,1.38,5.62c0.36-1.6,0.93-3.71,1.46-5.62h1.8
		l-2.26,7.47H190.68z"/>
	<path class="st0" d="M196.5,235.99c0.39,0.77,1.08,1.22,1.91,1.22c0.76,0,1.18-0.33,1.18-0.78c0-0.49-0.25-0.7-1.38-1.06
		l-0.79-0.25c-1.15-0.36-1.89-1.04-1.89-2.17c0-1.17,1.05-2.25,2.9-2.25c1.18,0,2.28,0.45,2.94,1.5l-1.3,0.88
		c-0.38-0.66-0.95-1.05-1.67-1.05c-0.75,0-1.11,0.3-1.11,0.73c0,0.45,0.24,0.66,1.2,0.96l0.79,0.24c1.32,0.42,2.07,1.03,2.07,2.23
		c0,1.38-1.15,2.38-3.01,2.38c-1.53,0-2.57-0.73-3.19-1.68L196.5,235.99z"/>
	<path class="st0" d="M202.65,238.36v-7.47h1.68v1.15c0.45-0.81,1.04-1.24,2.07-1.24c0.24,0,0.42,0.03,0.64,0.09v1.77
		c-0.28-0.15-0.51-0.21-0.84-0.21c-0.58,0-1.08,0.25-1.41,0.73c-0.25,0.38-0.39,0.9-0.39,1.69v3.48H202.65z"/>
	<path class="st0" d="M211.29,238.57c-2.34,0-3.66-1.47-3.66-3.96c0-2.47,1.46-3.93,3.76-3.93c2.22,0,3.55,1.48,3.55,4.02
		C214.95,237.19,213.48,238.57,211.29,238.57z M211.35,232.15c-1.11,0-1.92,0.85-1.92,2.42c0,1.69,0.78,2.54,1.88,2.54
		s1.87-0.77,1.87-2.45C213.18,232.99,212.46,232.15,211.35,232.15z"/>
	<path class="st0" d="M219.63,238.57c-2.34,0-3.66-1.47-3.66-3.96c0-2.47,1.46-3.93,3.77-3.93c2.22,0,3.55,1.48,3.55,4.02
		C223.29,237.19,221.82,238.57,219.63,238.57z M219.69,232.15c-1.11,0-1.92,0.85-1.92,2.42c0,1.69,0.78,2.54,1.88,2.54
		c1.09,0,1.87-0.77,1.87-2.45C221.52,232.99,220.8,232.15,219.69,232.15z"/>
	<path class="st0" d="M226.45,230.89V232c0.56-0.78,1.43-1.24,2.4-1.24c1.06,0,1.72,0.45,2.03,1.32c0.63-0.84,1.53-1.31,2.58-1.31
		c0.93,0,1.65,0.39,1.95,1.23c0.17,0.47,0.24,0.96,0.24,2.04v4.32h-1.75v-4.05c0-0.84-0.06-1.23-0.2-1.5
		c-0.17-0.31-0.48-0.48-0.94-0.48s-0.92,0.24-1.17,0.56c-0.39,0.46-0.53,1-0.53,1.9v3.57h-1.75v-4.09c0-0.79-0.03-1.11-0.17-1.41
		c-0.17-0.36-0.51-0.52-0.99-0.52c-0.49,0-0.96,0.25-1.26,0.67c-0.3,0.42-0.42,0.85-0.42,1.77v3.58h-1.75v-7.47H226.45z"/>
</g>
<g>
	<path class="st1" d="M52.99,69.36v-9.18h3.78c1.26,0,2.03,0.19,2.54,0.56c0.69,0.48,1,1.33,1,2.25c0,1.03-0.36,1.95-1.17,2.4
		c-0.68,0.38-1.62,0.51-2.73,0.51h-1.78v3.46H52.99z M56.28,64.49c0.9,0,1.48-0.09,1.85-0.34c0.34-0.25,0.47-0.64,0.47-1.16
		c0-0.47-0.16-0.86-0.47-1.1c-0.35-0.26-0.79-0.31-1.74-0.31h-1.76v2.91H56.28z"/>
	<path class="st1" d="M61.57,69.36v-9.18h1.65v7.75h4.33v1.43H61.57z"/>
	<path class="st1" d="M74.75,69.36l-0.73-2.15H70.4l-0.74,2.15h-1.78l3.48-9.18h1.83l3.35,9.18H74.75z M73.62,65.91
		c-0.52-1.5-0.96-2.74-1.39-4.08c-0.3,0.92-0.62,1.83-1.43,4.08H73.62z"/>
	<path class="st1" d="M79.23,60.18c2,3.35,3.19,5.23,4.07,6.79c-0.05-1.4-0.06-3.26-0.06-6.79h1.64v9.18h-1.81
		c-1.91-3.15-3.12-5.12-4.08-6.73c0.04,0.79,0.05,2.56,0.05,6.73h-1.64v-9.18H79.23z"/>
	<path class="st1" d="M93.89,65.43c0,1.44-0.19,2.37-0.77,3.03c-0.64,0.74-1.61,1.09-2.95,1.09c-1.31,0-2.34-0.35-2.91-1.1
		c-0.57-0.77-0.7-1.62-0.7-3.02v-5.25h1.65v5.37c0,0.69,0.04,1.27,0.29,1.72c0.34,0.61,0.94,0.85,1.7,0.85
		c0.81,0,1.44-0.21,1.78-0.86c0.2-0.38,0.26-0.98,0.26-1.65v-5.42h1.65V65.43z"/>
	<path class="st1" d="M97.43,60.18c2,3.35,3.19,5.23,4.07,6.79c-0.05-1.4-0.06-3.26-0.06-6.79h1.64v9.18h-1.81
		c-1.91-3.15-3.12-5.12-4.08-6.73c0.04,0.79,0.05,2.56,0.05,6.73h-1.64v-9.18H97.43z"/>
	<path class="st1" d="M111.11,69.36v-1c-0.64,0.82-1.52,1.18-2.69,1.18c-2.31,0-3.98-1.83-3.98-4.65c0-2.79,1.64-4.91,4.54-4.91
		c1.85,0,3.06,0.83,3.64,2.42l-1.64,0.62c-0.29-0.98-0.95-1.57-2.04-1.57c-1.73,0-2.77,1.29-2.77,3.34c0,2.16,1.1,3.31,2.68,3.31
		c1.47,0,2.17-0.9,2.22-2.39h-2.56v-1.4h4.1v5.06H111.11z"/>
</g>
<g>
	<path class="st1" d="M52.99,270.36v-9.18h3.78c1.26,0,2.03,0.19,2.54,0.56c0.69,0.48,1,1.33,1,2.25c0,1.03-0.36,1.95-1.17,2.4
		c-0.68,0.38-1.62,0.51-2.73,0.51h-1.78v3.46H52.99z M56.28,265.49c0.9,0,1.48-0.09,1.85-0.34c0.34-0.25,0.47-0.64,0.47-1.16
		c0-0.47-0.16-0.86-0.47-1.1c-0.35-0.26-0.79-0.31-1.74-0.31h-1.76v2.91H56.28z"/>
	<path class="st1" d="M67.1,270.36l-2.31-3.67h-1.57v3.67h-1.64v-9.18h2.98c1.18,0,2.09,0.05,2.77,0.32
		c0.94,0.38,1.38,1.13,1.38,2.37c0,1.51-0.85,2.34-2.29,2.57l2.61,3.91H67.1z M64.93,265.36c0.83,0,1.3-0.1,1.6-0.34
		c0.3-0.23,0.46-0.61,0.46-1.08c0-0.48-0.12-0.87-0.51-1.12c-0.3-0.19-0.77-0.27-1.5-0.27h-1.77v2.81H64.93z"/>
	<path class="st1" d="M69.74,265.7c0-2.9,1.7-4.73,4.37-4.73c2.51,0,4.15,1.92,4.15,4.84c0,3-1.65,4.76-4.15,4.76
		C71.36,270.56,69.74,268.68,69.74,265.7z M74.03,262.44c-1.57,0-2.57,1.2-2.57,3.24c0,2.13,1.03,3.42,2.61,3.42
		c1.44,0,2.46-1.12,2.46-3.31C76.52,263.66,75.52,262.44,74.03,262.44z"/>
	<path class="st1" d="M79.63,261.18h2.83c1.61,0,2.31,0.12,3.02,0.47c1.26,0.62,1.86,2.13,1.86,4.04c0,1.48-0.4,2.78-1.18,3.56
		c-0.83,0.83-1.94,1.1-3.81,1.1h-2.72V261.18z M82.45,268.95c1.24,0,2.02-0.26,2.5-0.79c0.48-0.55,0.65-1.36,0.65-2.48
		c0-0.99-0.2-1.82-0.69-2.37c-0.43-0.47-0.99-0.73-2.24-0.73h-1.39v6.37H82.45z"/>
	<path class="st1" d="M96.05,266.43c0,1.44-0.19,2.37-0.77,3.03c-0.64,0.74-1.61,1.09-2.95,1.09c-1.31,0-2.34-0.35-2.91-1.1
		c-0.57-0.77-0.7-1.62-0.7-3.02v-5.25h1.65v5.37c0,0.69,0.04,1.27,0.29,1.72c0.34,0.61,0.94,0.85,1.7,0.85
		c0.81,0,1.44-0.21,1.78-0.86c0.2-0.38,0.26-0.98,0.26-1.65v-5.42h1.65V266.43z"/>
	<path class="st1" d="M103.68,270.36l-2.69-4.37l-1.59,1.75v2.61h-1.65v-9.18h1.65v4.41l3.91-4.41h2.02l-3.22,3.58l3.55,5.6H103.68z
		"/>
	<path class="st1" d="M108.23,270.36v-7.76h-2.59v-1.42h6.89v1.42h-2.6v7.76H108.23z"/>
	<path class="st1" d="M115.34,270.36h-1.69v-9.18h1.69V270.36z"/>
	<path class="st1" d="M116.73,265.7c0-2.9,1.7-4.73,4.37-4.73c2.51,0,4.15,1.92,4.15,4.84c0,3-1.65,4.76-4.15,4.76
		C118.36,270.56,116.73,268.68,116.73,265.7z M121.02,262.44c-1.57,0-2.57,1.2-2.57,3.24c0,2.13,1.03,3.42,2.61,3.42
		c1.44,0,2.46-1.12,2.46-3.31C123.52,263.66,122.52,262.44,121.02,262.44z"/>
	<path class="st1" d="M128.46,261.18c2,3.35,3.19,5.23,4.07,6.79c-0.05-1.4-0.06-3.26-0.06-6.79h1.64v9.18h-1.81
		c-1.91-3.15-3.12-5.12-4.08-6.73c0.04,0.79,0.05,2.56,0.05,6.73h-1.64v-9.18H128.46z"/>
</g>
<g>
	<path class="st1" d="M52.99,472.36v-9.18h3.78c1.26,0,2.03,0.19,2.54,0.56c0.69,0.48,1,1.33,1,2.25c0,1.03-0.36,1.95-1.17,2.4
		c-0.68,0.38-1.62,0.51-2.73,0.51h-1.78v3.46H52.99z M56.28,467.49c0.9,0,1.48-0.09,1.85-0.34c0.34-0.25,0.47-0.64,0.47-1.16
		c0-0.47-0.16-0.86-0.47-1.1c-0.35-0.26-0.79-0.31-1.74-0.31h-1.76v2.91H56.28z"/>
	<path class="st1" d="M67.1,472.36l-2.31-3.67h-1.57v3.67h-1.64v-9.18h2.98c1.18,0,2.09,0.05,2.77,0.32
		c0.94,0.38,1.38,1.13,1.38,2.37c0,1.51-0.85,2.34-2.29,2.57l2.61,3.91H67.1z M64.93,467.36c0.83,0,1.3-0.1,1.6-0.34
		c0.3-0.23,0.46-0.61,0.46-1.08c0-0.48-0.12-0.87-0.51-1.12c-0.3-0.19-0.77-0.27-1.5-0.27h-1.77v2.81H64.93z"/>
	<path class="st1" d="M76.08,472.36l-0.73-2.15h-3.63l-0.74,2.15H69.2l3.48-9.18h1.83l3.35,9.18H76.08z M71.36,462.4v-1.4h1.36v1.4
		H71.36z M74.95,468.91c-0.52-1.5-0.96-2.74-1.39-4.08c-0.3,0.92-0.62,1.83-1.43,4.08H74.95z M74.44,462.4v-1.4h1.37v1.4H74.44z"/>
	<path class="st1" d="M79.15,469.5c0.55,1.09,1.4,1.62,2.42,1.62c1.12,0,1.73-0.44,1.73-1.16c0-0.65-0.4-0.91-1.77-1.39l-0.99-0.35
		c-1.56-0.56-2.27-1.27-2.27-2.6c0-1.57,1.42-2.65,3.29-2.65c1.57,0,2.78,0.66,3.51,1.87l-1.33,0.95c-0.61-1.04-1.4-1.42-2.34-1.42
		c-0.91,0-1.43,0.46-1.43,1.08c0,0.6,0.34,0.9,1.53,1.29l1.05,0.35c1.7,0.54,2.48,1.31,2.48,2.69c0,1.65-1.36,2.8-3.5,2.8
		c-1.66,0-3-0.78-3.76-2.11L79.15,469.5z"/>
	<path class="st1" d="M86.35,472.36v-9.18h6.38v1.42h-4.72v2.34h4.35v1.42h-4.35v2.57h4.98v1.43H86.35z"/>
	<path class="st1" d="M96.1,463.18c2,3.35,3.19,5.23,4.07,6.79c-0.05-1.4-0.06-3.26-0.06-6.79h1.64v9.18h-1.81
		c-1.91-3.15-3.12-5.12-4.08-6.73c0.04,0.79,0.05,2.56,0.05,6.73h-1.64v-9.18H96.1z"/>
	<path class="st1" d="M105.45,472.36v-7.76h-2.59v-1.42h6.89v1.42h-2.6v7.76H105.45z"/>
	<path class="st1" d="M115.46,472.36l-0.73-2.15h-3.63l-0.74,2.15h-1.78l3.48-9.18h1.83l3.35,9.18H115.46z M114.33,468.91
		c-0.52-1.5-0.96-2.74-1.39-4.08c-0.3,0.92-0.62,1.83-1.43,4.08H114.33z"/>
	<path class="st1" d="M118.67,472.36v-7.76h-2.59v-1.42h6.89v1.42h-2.6v7.76H118.67z"/>
	<path class="st1" d="M125.78,472.36h-1.69v-9.18h1.69V472.36z"/>
	<path class="st1" d="M127.17,467.7c0-2.9,1.7-4.73,4.37-4.73c2.51,0,4.15,1.92,4.15,4.84c0,3-1.65,4.76-4.15,4.76
		C128.79,472.56,127.17,470.68,127.17,467.7z M131.46,464.44c-1.57,0-2.57,1.2-2.57,3.24c0,2.13,1.03,3.42,2.61,3.42
		c1.44,0,2.46-1.12,2.46-3.32C133.96,465.66,132.96,464.44,131.46,464.44z"/>
	<path class="st1" d="M138.9,463.18c2,3.35,3.19,5.23,4.07,6.79c-0.05-1.4-0.06-3.26-0.06-6.79h1.64v9.18h-1.81
		c-1.91-3.15-3.12-5.12-4.08-6.73c0.04,0.79,0.05,2.56,0.05,6.73h-1.64v-9.18H138.9z"/>
</g>
<g>
	<path class="st0" d="M166.95,469.06c0.63,1.26,1.62,1.88,2.79,1.88c1.29,0,2-0.51,2-1.33c0-0.75-0.46-1.05-2.04-1.6l-1.14-0.41
		c-1.8-0.64-2.62-1.47-2.62-3c0-1.81,1.63-3.06,3.79-3.06c1.81,0,3.21,0.77,4.05,2.16l-1.53,1.09c-0.71-1.2-1.62-1.63-2.7-1.63
		c-1.05,0-1.65,0.52-1.65,1.24c0,0.69,0.39,1.04,1.77,1.49l1.21,0.4c1.96,0.63,2.87,1.52,2.87,3.11c0,1.9-1.58,3.22-4.04,3.22
		c-1.92,0-3.46-0.9-4.33-2.43L166.95,469.06z"/>
	<path class="st0" d="M174.55,472.36v-1.41l5.76-7.54h-5.46v-1.63h7.89v1.47l-5.7,7.48h5.71v1.63H174.55z"/>
	<path class="st0" d="M187.6,472.36v-10.59h4.36c1.46,0,2.34,0.22,2.93,0.64c0.79,0.56,1.15,1.53,1.15,2.6
		c0,1.18-0.42,2.25-1.35,2.77c-0.78,0.44-1.88,0.59-3.15,0.59h-2.05v3.99H187.6z M191.4,466.75c1.03,0,1.71-0.1,2.13-0.39
		c0.39-0.28,0.54-0.74,0.54-1.33c0-0.54-0.18-0.99-0.54-1.27c-0.41-0.3-0.92-0.36-2.01-0.36h-2.03v3.36H191.4z"/>
	<path class="st0" d="M196.78,472.36v-7.47h1.68v1.15c0.45-0.81,1.04-1.24,2.07-1.24c0.24,0,0.42,0.03,0.64,0.09v1.77
		c-0.28-0.15-0.51-0.21-0.84-0.21c-0.58,0-1.08,0.25-1.41,0.73c-0.26,0.38-0.39,0.9-0.39,1.7v3.48H196.78z"/>
	<path class="st0" d="M202.15,463.42v-1.65h1.79v1.65H202.15z M203.94,472.36h-1.77v-7.47h1.77V472.36z"/>
	<path class="st0" d="M210.51,472.36v-4.29c0-0.58-0.06-1.02-0.27-1.32c-0.19-0.28-0.52-0.42-1-0.42c-0.48,0-0.98,0.26-1.28,0.66
		c-0.38,0.5-0.44,1.05-0.44,1.77v3.6h-1.75v-7.47h1.74V466c0.54-0.76,1.42-1.24,2.48-1.24c0.9,0,1.48,0.31,1.86,0.88
		c0.3,0.45,0.42,1.04,0.42,2.04v4.68H210.51z"/>
	<path class="st0" d="M217.65,472.33c-0.39,0.11-0.87,0.17-1.3,0.17c-0.73,0-1.23-0.18-1.53-0.54c-0.32-0.36-0.42-0.88-0.42-1.57
		v-4.08h-1.17v-1.41h1.2v-2.43h1.74v2.43h1.46v1.41h-1.46v3.73c0,0.77,0.22,1.04,0.76,1.04c0.21,0,0.48-0.04,0.72-0.13V472.33z"/>
	<path class="st0" d="M218.44,468.53v-1.41h4.34v1.41H218.44z"/>
	<path class="st0" d="M175.17,490.36c0-5.29,0-6.79,0.06-8.55c-0.64,2.03-0.93,2.88-2.83,8.55h-1.65c-1.33-4.16-2.12-6.22-2.82-8.53
		c0.04,1.89,0.04,3.25,0.04,8.53h-1.84v-10.59h2.74c1.35,3.93,2.08,5.97,2.73,8.08c0.6-2.05,1.05-3.34,2.65-8.08H177v10.59H175.17z"
		/>
	<path class="st0" d="M183.15,485.29c0-0.42-0.09-0.71-0.28-0.9c-0.21-0.21-0.57-0.31-1.04-0.31c-0.92,0-1.32,0.46-1.41,1.29
		l-1.68-0.15c0.12-1.62,1.32-2.52,3.22-2.52c1.02,0,1.74,0.24,2.24,0.72c0.46,0.43,0.63,1.05,0.63,2.22v2.75
		c0,0.88,0.06,1.62,0.21,1.98h-1.7c-0.06-0.24-0.15-0.71-0.15-0.93c-0.57,0.69-1.38,1.07-2.44,1.07c-1.36,0-2.33-0.85-2.33-2.19
		c0-0.96,0.48-1.59,1.37-2c0.73-0.33,2.17-0.54,3.36-0.62V485.29z M183.15,486.86c-0.85,0.04-1.86,0.2-2.38,0.45
		c-0.46,0.21-0.64,0.5-0.64,0.92c0,0.54,0.36,0.95,1.14,0.95c0.67,0,1.23-0.29,1.56-0.78c0.24-0.34,0.32-0.76,0.33-1.18V486.86z"/>
	<path class="st0" d="M191.4,489.32c-0.52,0.65-1.24,0.96-2.21,0.96c-1.83,0-3-1.39-3-3.75c0-2.34,1.26-3.76,3.11-3.76
		c1.04,0,1.75,0.38,2.17,1.05v-0.91h1.74v6.96c0,1.54-0.36,2.52-1.16,3.08c-0.58,0.42-1.44,0.6-2.4,0.6c-1.81,0-2.97-0.79-3.3-2.34
		l1.84-0.33c0.13,0.83,0.69,1.25,1.5,1.25c0.72,0,1.17-0.21,1.42-0.63c0.21-0.32,0.27-0.83,0.27-1.46V489.32z M189.81,484.22
		c-1.11,0-1.8,0.84-1.8,2.29c0,1.53,0.67,2.4,1.74,2.4c1.02,0,1.68-0.72,1.69-2.23C191.44,485.15,190.89,484.22,189.81,484.22z"/>
	<path class="st0" d="M199.29,485.29c0-0.42-0.09-0.71-0.29-0.9c-0.21-0.21-0.57-0.31-1.04-0.31c-0.92,0-1.32,0.46-1.41,1.29
		l-1.68-0.15c0.12-1.62,1.32-2.52,3.22-2.52c1.02,0,1.74,0.24,2.24,0.72c0.46,0.43,0.63,1.05,0.63,2.22v2.75
		c0,0.88,0.06,1.62,0.21,1.98h-1.69c-0.06-0.24-0.15-0.71-0.15-0.93c-0.57,0.69-1.38,1.07-2.45,1.07c-1.37,0-2.32-0.85-2.32-2.19
		c0-0.96,0.48-1.59,1.36-2c0.74-0.33,2.17-0.54,3.36-0.62V485.29z M199.29,486.86c-0.86,0.04-1.86,0.2-2.38,0.45
		c-0.46,0.21-0.65,0.5-0.65,0.92c0,0.54,0.36,0.95,1.14,0.95c0.68,0,1.23-0.29,1.56-0.78c0.24-0.34,0.31-0.76,0.33-1.18V486.86z"/>
	<path class="st0" d="M202.18,490.36v-1.12l3.67-4.93h-3.5v-1.41h5.7v1.14l-3.63,4.89h3.75v1.44H202.18z"/>
	<path class="st0" d="M209.43,481.42v-1.65h1.79v1.65H209.43z M211.21,490.36h-1.77v-7.47h1.77V490.36z"/>
	<path class="st0" d="M217.78,490.36v-4.29c0-0.58-0.06-1.02-0.27-1.32c-0.2-0.28-0.53-0.42-1.01-0.42c-0.48,0-0.97,0.26-1.27,0.66
		c-0.38,0.5-0.43,1.05-0.43,1.77v3.6h-1.76v-7.47h1.74V484c0.54-0.76,1.42-1.24,2.47-1.24c0.9,0,1.49,0.31,1.86,0.88
		c0.3,0.45,0.42,1.04,0.42,2.04v4.68H217.78z"/>
</g>
<g>
	<path class="st0" d="M325.95,469.06c0.63,1.26,1.62,1.88,2.79,1.88c1.29,0,2-0.51,2-1.33c0-0.75-0.46-1.05-2.04-1.6l-1.14-0.41
		c-1.8-0.64-2.62-1.47-2.62-3c0-1.81,1.63-3.06,3.79-3.06c1.81,0,3.21,0.77,4.05,2.16l-1.53,1.09c-0.71-1.2-1.62-1.63-2.7-1.63
		c-1.05,0-1.65,0.52-1.65,1.24c0,0.69,0.39,1.04,1.77,1.49l1.21,0.4c1.96,0.63,2.87,1.52,2.87,3.11c0,1.9-1.58,3.22-4.04,3.22
		c-1.92,0-3.46-0.9-4.33-2.43L325.95,469.06z"/>
	<path class="st0" d="M333.55,472.36v-1.41l5.76-7.54h-5.46v-1.63h7.89v1.47l-5.7,7.48h5.71v1.63H333.55z"/>
	<path class="st0" d="M346.24,466.99c0-3.34,1.96-5.46,5.04-5.46c2.9,0,4.78,2.22,4.78,5.58c0,3.46-1.9,5.49-4.78,5.49
		C348.12,472.6,346.24,470.42,346.24,466.99z M351.19,463.22c-1.82,0-2.97,1.38-2.97,3.74c0,2.46,1.18,3.94,3.01,3.94
		c1.67,0,2.83-1.29,2.83-3.83C354.07,464.63,352.92,463.22,351.19,463.22z"/>
	<path class="st0" d="M362.34,472.36v-4.29c0-0.58-0.06-1.02-0.27-1.32c-0.19-0.28-0.52-0.42-1-0.42c-0.48,0-0.98,0.26-1.28,0.66
		c-0.38,0.5-0.44,1.05-0.44,1.77v3.6h-1.75v-7.47h1.74V466c0.54-0.76,1.42-1.24,2.48-1.24c0.9,0,1.48,0.31,1.86,0.88
		c0.3,0.45,0.42,1.04,0.42,2.04v4.68H362.34z"/>
	<path class="st0" d="M367.6,472.36h-1.77v-10.59h1.77V472.36z"/>
	<path class="st0" d="M369.42,463.42v-1.65h1.79v1.65H369.42z M371.2,472.36h-1.77v-7.47h1.77V472.36z"/>
	<path class="st0" d="M377.77,472.36v-4.29c0-0.58-0.06-1.02-0.27-1.32c-0.2-0.28-0.53-0.42-1-0.42s-0.98,0.26-1.27,0.66
		c-0.38,0.5-0.44,1.05-0.44,1.77v3.6h-1.75v-7.47h1.74V466c0.54-0.76,1.43-1.24,2.48-1.24c0.9,0,1.49,0.31,1.86,0.88
		c0.3,0.45,0.42,1.04,0.42,2.04v4.68H377.77z"/>
	<path class="st0" d="M387.81,470.48c-0.55,1.35-1.7,2.1-3.25,2.1c-2.4,0-3.69-1.56-3.69-4.04c0-2.38,1.44-3.87,3.62-3.87
		c2.37,0,3.36,1.73,3.38,4.4h-5.22c0.06,1.29,0.76,2.02,1.95,2.02c0.76,0,1.41-0.3,1.68-1.16L387.81,470.48z M386.07,467.81
		c-0.06-1.17-0.67-1.77-1.63-1.77s-1.66,0.6-1.79,1.77H386.07z"/>
	<path class="st0" d="M388.95,468.53v-1.41h4.33v1.41H388.95z"/>
	<path class="st0" d="M325.12,490.36v-10.59h4.36c1.46,0,2.34,0.22,2.92,0.64c0.79,0.55,1.15,1.53,1.15,2.59
		c0,1.18-0.42,2.25-1.35,2.77c-0.78,0.44-1.88,0.59-3.15,0.59h-2.06v3.99H325.12z M328.92,484.75c1.03,0,1.71-0.1,2.13-0.39
		c0.39-0.28,0.54-0.74,0.54-1.33c0-0.54-0.18-0.99-0.54-1.28c-0.4-0.3-0.91-0.36-2.01-0.36h-2.03v3.36H328.92z"/>
	<path class="st0" d="M334.3,490.36v-7.47h1.68v1.15c0.45-0.81,1.04-1.24,2.07-1.24c0.24,0,0.42,0.03,0.64,0.09v1.77
		c-0.29-0.15-0.51-0.21-0.84-0.21c-0.59,0-1.08,0.25-1.41,0.73c-0.26,0.38-0.39,0.9-0.39,1.7v3.48H334.3z"/>
	<path class="st0" d="M342.94,490.57c-2.34,0-3.66-1.47-3.66-3.96c0-2.47,1.46-3.93,3.76-3.93c2.22,0,3.55,1.49,3.55,4.02
		C346.6,489.19,345.13,490.57,342.94,490.57z M343,484.15c-1.11,0-1.92,0.86-1.92,2.42c0,1.69,0.78,2.54,1.88,2.54
		c1.1,0,1.88-0.76,1.88-2.45C344.83,484.99,344.11,484.15,343,484.15z"/>
	<path class="st0" d="M352.86,490.36v-1.05c-0.48,0.71-1.19,1.2-2.24,1.2c-1.72,0-3-1.32-3-3.91c0-2.45,1.38-3.86,3.1-3.86
		c1.11,0,1.73,0.41,2.13,0.98v-3.94h1.71v10.59H352.86z M351.16,484.19c-1.04,0-1.74,0.79-1.74,2.38c0,1.5,0.63,2.46,1.67,2.46
		c1.04,0,1.77-0.81,1.77-2.4C352.86,485.14,352.21,484.19,351.16,484.19z"/>
	<path class="st0" d="M358.09,482.89v4.26c0,0.45,0.06,0.88,0.2,1.17c0.2,0.41,0.55,0.63,1.12,0.63c0.5,0,0.93-0.25,1.2-0.58
		c0.32-0.4,0.46-0.9,0.46-1.6v-3.87h1.75v7.47h-1.72v-1.07c-0.51,0.72-1.28,1.2-2.33,1.2c-0.96,0-1.54-0.3-1.96-0.9
		c-0.33-0.46-0.46-1.12-0.46-2v-4.71H358.09z"/>
	<path class="st0" d="M369.57,490.36l-2.08-3.41l-1.1,1.16v2.25h-1.75v-10.59h1.75v6.3l2.84-3.18h2.13l-2.62,2.83l2.88,4.63H369.57z
		"/>
	<path class="st0" d="M376.17,490.33c-0.39,0.11-0.87,0.17-1.31,0.17c-0.73,0-1.23-0.18-1.53-0.54c-0.31-0.36-0.42-0.88-0.42-1.57
		v-4.08h-1.17v-1.41h1.2v-2.43h1.74v2.43h1.46v1.41h-1.46v3.73c0,0.77,0.22,1.04,0.77,1.04c0.21,0,0.48-0.04,0.72-0.13V490.33z"/>
	<path class="st0" d="M383.77,488.48c-0.55,1.35-1.7,2.1-3.25,2.1c-2.4,0-3.69-1.56-3.69-4.04c0-2.38,1.44-3.87,3.62-3.87
		c2.37,0,3.36,1.73,3.38,4.4h-5.22c0.06,1.29,0.76,2.02,1.95,2.02c0.76,0,1.41-0.3,1.68-1.16L383.77,488.48z M382.03,485.81
		c-0.06-1.17-0.67-1.77-1.63-1.77s-1.66,0.6-1.79,1.77H382.03z"/>
</g>
<g>
	<path class="st0" d="M73.95,302.06c0.63,1.26,1.62,1.88,2.79,1.88c1.29,0,2-0.51,2-1.33c0-0.75-0.47-1.05-2.04-1.6l-1.14-0.41
		c-1.8-0.64-2.62-1.47-2.62-3c0-1.81,1.64-3.06,3.79-3.06c1.81,0,3.21,0.77,4.05,2.16l-1.53,1.09c-0.71-1.2-1.62-1.63-2.7-1.63
		c-1.05,0-1.65,0.52-1.65,1.24c0,0.69,0.39,1.04,1.77,1.49l1.22,0.4c1.96,0.63,2.86,1.52,2.86,3.1c0,1.9-1.58,3.22-4.04,3.22
		c-1.92,0-3.46-0.9-4.33-2.43L73.95,302.06z"/>
	<path class="st0" d="M81.55,305.36v-1.41l5.76-7.54h-5.46v-1.63h7.89v1.47l-5.7,7.48h5.71v1.63H81.55z"/>
	<path class="st0" d="M94.6,305.36v-10.59h4.36c1.46,0,2.34,0.22,2.92,0.64c0.79,0.56,1.15,1.53,1.15,2.6
		c0,1.19-0.42,2.25-1.35,2.77c-0.78,0.44-1.88,0.58-3.15,0.58h-2.06v3.99H94.6z M98.4,299.75c1.03,0,1.71-0.1,2.13-0.39
		c0.39-0.28,0.54-0.73,0.54-1.33c0-0.54-0.18-0.99-0.54-1.28c-0.41-0.3-0.92-0.36-2.01-0.36h-2.02v3.36H98.4z"/>
	<path class="st0" d="M103.78,305.36v-7.47h1.68v1.15c0.45-0.81,1.04-1.24,2.07-1.24c0.24,0,0.42,0.03,0.64,0.09v1.77
		c-0.28-0.15-0.51-0.21-0.84-0.21c-0.58,0-1.08,0.25-1.41,0.73c-0.26,0.38-0.39,0.9-0.39,1.69v3.48H103.78z"/>
	<path class="st0" d="M109.15,296.42v-1.65h1.79v1.65H109.15z M110.94,305.36h-1.77v-7.47h1.77V305.36z"/>
	<path class="st0" d="M117.51,305.36v-4.29c0-0.58-0.06-1.02-0.27-1.32c-0.19-0.28-0.52-0.42-1-0.42s-0.98,0.25-1.27,0.66
		c-0.38,0.49-0.44,1.05-0.44,1.77v3.6h-1.75v-7.47h1.74V299c0.54-0.76,1.42-1.24,2.48-1.24c0.9,0,1.48,0.31,1.86,0.88
		c0.3,0.45,0.42,1.04,0.42,2.04v4.68H117.51z"/>
	<path class="st0" d="M124.65,305.33c-0.39,0.1-0.87,0.16-1.3,0.16c-0.73,0-1.23-0.18-1.53-0.54c-0.31-0.36-0.42-0.89-0.42-1.58
		v-4.08h-1.17v-1.41h1.2v-2.43h1.74v2.43h1.46v1.41h-1.46v3.73c0,0.76,0.23,1.03,0.77,1.03c0.21,0,0.48-0.04,0.72-0.13V305.33z"/>
	<path class="st0" d="M125.44,301.53v-1.41h4.33v1.41H125.44z"/>
	<path class="st0" d="M73.95,320.06c0.63,1.26,1.62,1.88,2.79,1.88c1.29,0,2-0.51,2-1.33c0-0.75-0.47-1.05-2.04-1.6l-1.14-0.41
		c-1.8-0.64-2.62-1.47-2.62-3c0-1.81,1.64-3.06,3.79-3.06c1.81,0,3.21,0.77,4.05,2.16l-1.53,1.09c-0.71-1.2-1.62-1.63-2.7-1.63
		c-1.05,0-1.65,0.52-1.65,1.24c0,0.69,0.39,1.04,1.77,1.49l1.22,0.4c1.96,0.63,2.86,1.52,2.86,3.1c0,1.9-1.58,3.22-4.04,3.22
		c-1.92,0-3.46-0.9-4.33-2.43L73.95,320.06z"/>
	<path class="st0" d="M84.18,323.48l-2.9-7.59h1.95c0.75,2.13,1.4,4.03,1.89,5.59c0.46-1.54,1.08-3.55,1.75-5.59h1.84l-2.64,7.5
		c-0.88,2.5-1.4,3.15-3.23,3.15c-0.3,0-0.61-0.04-0.88-0.1v-1.5c0.21,0.08,0.5,0.12,0.67,0.12c0.75,0,1.05-0.19,1.4-1.2
		L84.18,323.48z"/>
	<path class="st0" d="M90.16,320.99c0.39,0.77,1.08,1.22,1.9,1.22c0.77,0,1.19-0.33,1.19-0.78c0-0.49-0.25-0.7-1.38-1.06l-0.79-0.25
		c-1.15-0.36-1.89-1.04-1.89-2.17c0-1.17,1.05-2.25,2.9-2.25c1.19,0,2.28,0.45,2.94,1.5l-1.3,0.88c-0.38-0.66-0.95-1.05-1.67-1.05
		c-0.75,0-1.11,0.3-1.11,0.73c0,0.45,0.24,0.66,1.2,0.96l0.79,0.24c1.32,0.42,2.07,1.03,2.07,2.23c0,1.38-1.15,2.38-3.01,2.38
		c-1.53,0-2.56-0.73-3.19-1.68L90.16,320.99z"/>
	<path class="st0" d="M99.96,323.33c-0.39,0.1-0.87,0.16-1.3,0.16c-0.73,0-1.23-0.18-1.53-0.54c-0.31-0.36-0.42-0.89-0.42-1.58
		v-4.08h-1.17v-1.41h1.2v-2.43h1.74v2.43h1.46v1.41h-1.46v3.73c0,0.76,0.23,1.03,0.77,1.03c0.21,0,0.48-0.04,0.72-0.13V323.33z"/>
	<path class="st0" d="M107.56,321.48c-0.55,1.35-1.69,2.1-3.25,2.1c-2.4,0-3.69-1.56-3.69-4.04c0-2.38,1.44-3.87,3.62-3.87
		c2.37,0,3.36,1.73,3.37,4.4h-5.22c0.06,1.29,0.77,2.02,1.95,2.02c0.76,0,1.41-0.3,1.68-1.16L107.56,321.48z M105.82,318.81
		c-0.06-1.17-0.67-1.77-1.63-1.77s-1.67,0.6-1.79,1.77H105.82z"/>
	<path class="st0" d="M110.71,315.89V317c0.56-0.78,1.42-1.24,2.4-1.24c1.06,0,1.73,0.45,2.02,1.32c0.63-0.84,1.53-1.31,2.58-1.31
		c0.93,0,1.65,0.39,1.95,1.23c0.17,0.47,0.24,0.96,0.24,2.04v4.32h-1.75v-4.05c0-0.84-0.06-1.23-0.2-1.5
		c-0.17-0.31-0.48-0.48-0.94-0.48s-0.92,0.24-1.17,0.56c-0.39,0.46-0.52,1-0.52,1.9v3.57h-1.75v-4.09c0-0.79-0.03-1.11-0.17-1.41
		c-0.17-0.36-0.51-0.52-0.99-0.52c-0.49,0-0.96,0.25-1.26,0.67c-0.3,0.42-0.42,0.85-0.42,1.77v3.58h-1.75v-7.47H110.71z"/>
</g>
<g>
	<path class="st0" d="M415.95,97.06c0.63,1.26,1.62,1.88,2.79,1.88c1.29,0,2-0.51,2-1.33c0-0.75-0.46-1.05-2.04-1.6l-1.14-0.41
		c-1.8-0.64-2.62-1.47-2.62-3c0-1.81,1.63-3.06,3.79-3.06c1.81,0,3.21,0.77,4.05,2.16l-1.53,1.09c-0.71-1.2-1.62-1.63-2.7-1.63
		c-1.05,0-1.65,0.52-1.65,1.24c0,0.69,0.39,1.04,1.77,1.49l1.21,0.4c1.96,0.63,2.87,1.52,2.87,3.1c0,1.9-1.58,3.22-4.04,3.22
		c-1.92,0-3.46-0.9-4.33-2.43L415.95,97.06z"/>
	<path class="st0" d="M427.84,100.33c-0.39,0.1-0.87,0.16-1.3,0.16c-0.73,0-1.23-0.18-1.53-0.54c-0.32-0.36-0.42-0.89-0.42-1.58
		V94.3h-1.17v-1.41h1.2v-2.43h1.74v2.43h1.46v1.41h-1.46v3.73c0,0.76,0.22,1.03,0.76,1.03c0.21,0,0.48-0.04,0.72-0.13V100.33z"/>
	<path class="st0" d="M433.48,95.29c0-0.42-0.09-0.71-0.29-0.9c-0.21-0.21-0.57-0.31-1.04-0.31c-0.92,0-1.32,0.46-1.41,1.29
		l-1.68-0.15c0.12-1.62,1.32-2.52,3.22-2.52c1.02,0,1.74,0.24,2.24,0.72c0.46,0.44,0.63,1.05,0.63,2.22v2.74
		c0,0.89,0.06,1.62,0.21,1.98h-1.69c-0.06-0.24-0.15-0.71-0.15-0.93c-0.57,0.69-1.38,1.06-2.45,1.06c-1.37,0-2.32-0.85-2.32-2.19
		c0-0.96,0.48-1.59,1.36-2c0.74-0.33,2.17-0.54,3.36-0.62V95.29z M433.48,96.86c-0.86,0.04-1.86,0.19-2.38,0.45
		c-0.46,0.21-0.65,0.5-0.65,0.92c0,0.54,0.36,0.94,1.14,0.94c0.68,0,1.23-0.28,1.56-0.78c0.24-0.35,0.31-0.77,0.33-1.19V96.86z"/>
	<path class="st0" d="M440.58,100.33c-0.39,0.1-0.87,0.16-1.31,0.16c-0.73,0-1.23-0.18-1.53-0.54c-0.31-0.36-0.42-0.89-0.42-1.58
		V94.3h-1.17v-1.41h1.2v-2.43h1.74v2.43h1.46v1.41h-1.46v3.73c0,0.76,0.22,1.03,0.77,1.03c0.21,0,0.48-0.04,0.72-0.13V100.33z"/>
	<path class="st0" d="M441.63,91.42v-1.65h1.79v1.65H441.63z M443.41,100.36h-1.77v-7.47h1.77V100.36z"/>
	<path class="st0" d="M445.92,97.99c0.39,0.77,1.08,1.22,1.91,1.22c0.76,0,1.18-0.33,1.18-0.78c0-0.49-0.25-0.7-1.38-1.06
		l-0.79-0.25c-1.16-0.36-1.89-1.04-1.89-2.17c0-1.17,1.05-2.25,2.89-2.25c1.19,0,2.28,0.45,2.94,1.5l-1.3,0.88
		c-0.38-0.66-0.95-1.05-1.67-1.05c-0.75,0-1.11,0.3-1.11,0.73c0,0.45,0.24,0.66,1.2,0.96l0.79,0.24c1.32,0.42,2.07,1.03,2.07,2.23
		c0,1.38-1.16,2.38-3.02,2.38c-1.53,0-2.56-0.73-3.19-1.68L445.92,97.99z"/>
	<path class="st0" d="M455.71,100.33c-0.39,0.1-0.87,0.16-1.3,0.16c-0.73,0-1.23-0.18-1.53-0.54c-0.32-0.36-0.42-0.89-0.42-1.58
		V94.3h-1.17v-1.41h1.2v-2.43h1.74v2.43h1.46v1.41h-1.46v3.73c0,0.76,0.22,1.03,0.76,1.03c0.21,0,0.48-0.04,0.72-0.13V100.33z"/>
	<path class="st0" d="M456.76,91.42v-1.65h1.79v1.65H456.76z M458.55,100.36h-1.77v-7.47h1.77V100.36z"/>
	<path class="st0" d="M465.31,100.36l-2.08-3.4l-1.1,1.15v2.25h-1.75V89.77h1.75v6.3l2.84-3.18h2.13l-2.62,2.83l2.88,4.63H465.31z"
		/>
	<path class="st0" d="M474.48,98.48c-0.55,1.35-1.69,2.1-3.25,2.1c-2.4,0-3.69-1.56-3.69-4.04c0-2.38,1.44-3.87,3.62-3.87
		c2.37,0,3.36,1.73,3.37,4.4h-5.22c0.06,1.29,0.77,2.02,1.95,2.02c0.76,0,1.41-0.3,1.68-1.16L474.48,98.48z M472.74,95.81
		c-0.06-1.17-0.68-1.77-1.64-1.77s-1.67,0.6-1.78,1.77H472.74z"/>
	<path class="st0" d="M480.63,100.36v-4.29c0-0.58-0.06-1.02-0.27-1.32c-0.19-0.28-0.52-0.42-1-0.42c-0.48,0-0.98,0.25-1.28,0.66
		c-0.38,0.49-0.44,1.05-0.44,1.77v3.6h-1.75v-7.47h1.74V94c0.54-0.76,1.42-1.24,2.48-1.24c0.9,0,1.48,0.31,1.86,0.88
		c0.3,0.45,0.42,1.04,0.42,2.04v4.68H480.63z"/>
	<path class="st0" d="M485.74,100.28c0,1.17-0.22,1.74-0.97,2.43l-0.84-0.66c0.45-0.44,0.63-0.81,0.64-1.69h-0.58v-2.17h1.75V100.28
		z"/>
	<path class="st0" d="M424.17,118.36c0-5.29,0-6.79,0.06-8.55c-0.64,2.02-0.93,2.88-2.83,8.55h-1.65c-1.33-4.15-2.12-6.22-2.82-8.53
		c0.04,1.89,0.04,3.25,0.04,8.53h-1.84v-10.59h2.74c1.35,3.93,2.08,5.97,2.73,8.08c0.6-2.05,1.05-3.34,2.65-8.08H426v10.59H424.17z"
		/>
	<path class="st0" d="M431.16,118.57c-2.34,0-3.66-1.47-3.66-3.96c0-2.47,1.46-3.93,3.76-3.93c2.22,0,3.55,1.48,3.55,4.02
		C434.82,117.19,433.35,118.57,431.16,118.57z M431.22,112.15c-1.11,0-1.92,0.85-1.92,2.42c0,1.69,0.78,2.54,1.88,2.54
		c1.1,0,1.88-0.77,1.88-2.45C433.05,112.99,432.33,112.15,431.22,112.15z"/>
	<path class="st0" d="M440.98,118.36v-4.29c0-0.58-0.06-1.02-0.27-1.32c-0.19-0.28-0.52-0.42-1-0.42s-0.97,0.25-1.28,0.66
		c-0.38,0.49-0.43,1.05-0.43,1.77v3.6h-1.75v-7.47h1.74V112c0.54-0.76,1.42-1.24,2.47-1.24c0.9,0,1.48,0.31,1.86,0.88
		c0.3,0.45,0.42,1.04,0.42,2.04v4.68H440.98z"/>
	<path class="st0" d="M444.46,109.42v-1.65h1.79v1.65H444.46z M446.25,118.36h-1.77v-7.47h1.77V118.36z"/>
	<path class="st0" d="M451.72,118.33c-0.39,0.1-0.87,0.16-1.3,0.16c-0.74,0-1.23-0.18-1.53-0.54c-0.31-0.36-0.42-0.89-0.42-1.58
		v-4.08h-1.17v-1.41h1.2v-2.43h1.74v2.43h1.46v1.41h-1.46v3.73c0,0.76,0.23,1.03,0.77,1.03c0.21,0,0.48-0.04,0.72-0.13V118.33z"/>
	<path class="st0" d="M456.04,118.57c-2.34,0-3.66-1.47-3.66-3.96c0-2.47,1.46-3.93,3.76-3.93c2.22,0,3.55,1.48,3.55,4.02
		C459.7,117.19,458.23,118.57,456.04,118.57z M456.1,112.15c-1.11,0-1.92,0.85-1.92,2.42c0,1.69,0.78,2.54,1.88,2.54
		c1.1,0,1.88-0.77,1.88-2.45C457.93,112.99,457.21,112.15,456.1,112.15z"/>
	<path class="st0" d="M461.13,118.36v-7.47h1.68v1.15c0.45-0.81,1.04-1.24,2.07-1.24c0.24,0,0.42,0.03,0.64,0.09v1.77
		c-0.29-0.15-0.51-0.21-0.84-0.21c-0.58,0-1.08,0.25-1.41,0.73c-0.25,0.38-0.39,0.9-0.39,1.69v3.48H461.13z"/>
	<path class="st0" d="M466.5,109.42v-1.65h1.79v1.65H466.5z M468.28,118.36h-1.77v-7.47h1.77V118.36z"/>
	<path class="st0" d="M474.85,118.36v-4.29c0-0.58-0.06-1.02-0.27-1.32c-0.2-0.28-0.53-0.42-1.01-0.42c-0.48,0-0.97,0.25-1.27,0.66
		c-0.38,0.49-0.43,1.05-0.43,1.77v3.6h-1.76v-7.47h1.74V112c0.54-0.76,1.42-1.24,2.47-1.24c0.9,0,1.49,0.31,1.86,0.88
		c0.3,0.45,0.42,1.04,0.42,2.04v4.68H474.85z"/>
	<path class="st0" d="M483.15,117.32c-0.53,0.65-1.25,0.96-2.21,0.96c-1.83,0-3-1.39-3-3.75c0-2.34,1.26-3.77,3.11-3.77
		c1.04,0,1.75,0.38,2.17,1.05v-0.92h1.74v6.96c0,1.54-0.36,2.52-1.15,3.08c-0.59,0.42-1.44,0.6-2.4,0.6c-1.81,0-2.97-0.79-3.3-2.34
		l1.84-0.33c0.13,0.83,0.69,1.25,1.5,1.25c0.72,0,1.17-0.21,1.43-0.63c0.21-0.31,0.27-0.83,0.27-1.46V117.32z M481.56,112.22
		c-1.11,0-1.8,0.84-1.8,2.29c0,1.53,0.68,2.4,1.74,2.4c1.02,0,1.68-0.72,1.7-2.23C483.19,113.15,482.64,112.22,481.56,112.22z"/>
</g>
<g>
	<path class="st0" d="M193.12,305.36v-10.59h1.9v8.94h4.99v1.65H193.12z"/>
	<path class="st0" d="M201.3,296.42v-1.65h1.79v1.65H201.3z M203.08,305.36h-1.77v-7.47h1.77V305.36z"/>
	<path class="st0" d="M206.73,305.36l-2.73-7.47h1.95c0.87,2.55,1.38,4.09,1.84,5.68c0.43-1.53,0.93-3.15,1.8-5.68h1.86l-2.68,7.47
		H206.73z"/>
	<path class="st0" d="M212.35,296.42v-1.65h1.79v1.65H212.35z M214.14,305.36h-1.77v-7.47h1.77V305.36z"/>
	<path class="st0" d="M220.71,305.36v-4.29c0-0.58-0.06-1.02-0.27-1.32c-0.19-0.28-0.52-0.42-1-0.42s-0.97,0.25-1.28,0.66
		c-0.38,0.49-0.43,1.05-0.43,1.77v3.6h-1.75v-7.47h1.74V299c0.54-0.76,1.42-1.24,2.47-1.24c0.9,0,1.48,0.31,1.86,0.88
		c0.3,0.45,0.42,1.04,0.42,2.04v4.68H220.71z"/>
	<path class="st0" d="M229,304.32c-0.53,0.65-1.25,0.96-2.21,0.96c-1.83,0-3-1.39-3-3.75c0-2.34,1.26-3.77,3.1-3.77
		c1.04,0,1.75,0.38,2.17,1.05v-0.92h1.74v6.96c0,1.54-0.36,2.52-1.16,3.08c-0.58,0.42-1.44,0.6-2.4,0.6c-1.82,0-2.97-0.79-3.3-2.34
		l1.85-0.33c0.13,0.83,0.69,1.25,1.5,1.25c0.72,0,1.17-0.21,1.42-0.63c0.21-0.31,0.27-0.83,0.27-1.46V304.32z M227.41,299.22
		c-1.11,0-1.8,0.84-1.8,2.29c0,1.53,0.68,2.4,1.74,2.4c1.02,0,1.68-0.72,1.7-2.23C229.05,300.15,228.49,299.22,227.41,299.22z"/>
	<path class="st0" d="M237.48,305.36v-1.05c-0.48,0.7-1.19,1.2-2.24,1.2c-1.72,0-3-1.32-3-3.91c0-2.45,1.38-3.85,3.1-3.85
		c1.11,0,1.73,0.4,2.13,0.98v-3.94h1.71v10.59H237.48z M235.78,299.19c-1.04,0-1.74,0.79-1.74,2.38c0,1.5,0.63,2.46,1.67,2.46
		c1.04,0,1.77-0.81,1.77-2.4C237.48,300.14,236.83,299.19,235.78,299.19z"/>
	<path class="st0" d="M244.27,305.57c-2.34,0-3.66-1.47-3.66-3.96c0-2.47,1.46-3.93,3.77-3.93c2.22,0,3.55,1.48,3.55,4.02
		C247.93,304.19,246.46,305.57,244.27,305.57z M244.33,299.15c-1.11,0-1.92,0.85-1.92,2.42c0,1.69,0.78,2.54,1.88,2.54
		c1.09,0,1.87-0.77,1.87-2.45C246.16,299.99,245.44,299.15,244.33,299.15z"/>
	<path class="st0" d="M254.01,300.47c-0.21-0.99-0.75-1.32-1.46-1.32c-1.02,0-1.8,0.77-1.8,2.43c0,1.65,0.69,2.52,1.84,2.52
		c0.79,0,1.28-0.42,1.46-1.22l1.58,0.54c-0.43,1.25-1.42,2.15-3.12,2.15c-2.17,0-3.55-1.5-3.55-3.96c0-2.44,1.41-3.93,3.64-3.93
		c1.62,0,2.64,0.92,2.99,2.25L254.01,300.47z"/>
	<path class="st0" d="M257.4,302.99c0.39,0.77,1.08,1.22,1.9,1.22c0.77,0,1.19-0.33,1.19-0.78c0-0.49-0.25-0.7-1.38-1.06l-0.79-0.25
		c-1.16-0.36-1.89-1.04-1.89-2.17c0-1.17,1.05-2.25,2.89-2.25c1.19,0,2.28,0.45,2.94,1.5l-1.3,0.88c-0.38-0.66-0.95-1.05-1.66-1.05
		c-0.75,0-1.11,0.3-1.11,0.73c0,0.45,0.24,0.66,1.2,0.96l0.79,0.24c1.32,0.42,2.07,1.03,2.07,2.23c0,1.38-1.16,2.38-3.01,2.38
		c-1.53,0-2.56-0.73-3.2-1.68L257.4,302.99z"/>
	<path class="st0" d="M193.12,323.36v-10.59h7.36v1.63h-5.44v2.7h5.02v1.64h-5.02v2.97h5.74v1.65H193.12z"/>
	<path class="st0" d="M206.7,323.36v-1.05c-0.48,0.7-1.18,1.2-2.23,1.2c-1.72,0-3-1.32-3-3.91c0-2.45,1.38-3.85,3.1-3.85
		c1.11,0,1.73,0.4,2.13,0.98v-3.94h1.71v10.59H206.7z M205,317.19c-1.04,0-1.74,0.79-1.74,2.38c0,1.5,0.63,2.46,1.67,2.46
		s1.77-0.81,1.77-2.4C206.7,318.14,206.05,317.19,205,317.19z"/>
	<path class="st0" d="M210.22,314.42v-1.65h1.79v1.65H210.22z M212.01,323.36h-1.77v-7.47h1.77V323.36z"/>
	<path class="st0" d="M217.48,323.33c-0.39,0.1-0.87,0.16-1.3,0.16c-0.74,0-1.23-0.18-1.53-0.54c-0.32-0.36-0.42-0.89-0.42-1.58
		v-4.08h-1.17v-1.41h1.2v-2.43H216v2.43h1.46v1.41H216v3.73c0,0.76,0.23,1.03,0.76,1.03c0.21,0,0.48-0.04,0.72-0.13V323.33z"/>
	<path class="st0" d="M221.8,323.57c-2.34,0-3.66-1.47-3.66-3.96c0-2.47,1.46-3.93,3.76-3.93c2.22,0,3.55,1.48,3.55,4.02
		C225.46,322.19,223.99,323.57,221.8,323.57z M221.86,317.15c-1.11,0-1.92,0.85-1.92,2.42c0,1.69,0.78,2.54,1.88,2.54
		s1.87-0.77,1.87-2.45C223.69,317.99,222.97,317.15,221.86,317.15z"/>
	<path class="st0" d="M226.89,323.36v-7.47h1.68v1.15c0.45-0.81,1.04-1.24,2.07-1.24c0.24,0,0.42,0.03,0.64,0.09v1.77
		c-0.28-0.15-0.51-0.21-0.84-0.21c-0.58,0-1.08,0.25-1.41,0.73c-0.25,0.38-0.39,0.9-0.39,1.69v3.48H226.89z"/>
</g>
<g>
	<path class="st0" d="M325.12,305.36v-10.59h1.9v8.94h4.99v1.65H325.12z"/>
	<path class="st0" d="M333.3,296.42v-1.65h1.79v1.65H333.3z M335.08,305.36h-1.77v-7.47h1.77V305.36z"/>
	<path class="st0" d="M338.73,305.36l-2.73-7.47h1.95c0.87,2.55,1.38,4.09,1.84,5.68c0.43-1.53,0.93-3.15,1.8-5.68h1.86l-2.68,7.47
		H338.73z"/>
	<path class="st0" d="M344.35,296.42v-1.65h1.79v1.65H344.35z M346.14,305.36h-1.77v-7.47h1.77V305.36z"/>
	<path class="st0" d="M352.71,305.36v-4.29c0-0.58-0.06-1.02-0.27-1.32c-0.19-0.28-0.52-0.42-1-0.42s-0.97,0.25-1.28,0.66
		c-0.38,0.49-0.43,1.05-0.43,1.77v3.6h-1.75v-7.47h1.74V299c0.54-0.76,1.42-1.24,2.47-1.24c0.9,0,1.48,0.31,1.86,0.88
		c0.3,0.45,0.42,1.04,0.42,2.04v4.68H352.71z"/>
	<path class="st0" d="M361,304.32c-0.53,0.65-1.25,0.96-2.21,0.96c-1.83,0-3-1.39-3-3.75c0-2.34,1.26-3.77,3.1-3.77
		c1.04,0,1.75,0.38,2.17,1.05v-0.92h1.74v6.96c0,1.54-0.36,2.52-1.16,3.08c-0.58,0.42-1.44,0.6-2.4,0.6c-1.82,0-2.97-0.79-3.3-2.34
		l1.85-0.33c0.13,0.83,0.69,1.25,1.5,1.25c0.72,0,1.17-0.21,1.42-0.63c0.21-0.31,0.27-0.83,0.27-1.46V304.32z M359.41,299.22
		c-1.11,0-1.8,0.84-1.8,2.29c0,1.53,0.68,2.4,1.74,2.4c1.02,0,1.68-0.72,1.7-2.23C361.05,300.15,360.49,299.22,359.41,299.22z"/>
	<path class="st0" d="M369.48,305.36v-1.05c-0.48,0.7-1.19,1.2-2.24,1.2c-1.72,0-3-1.32-3-3.91c0-2.45,1.38-3.85,3.1-3.85
		c1.11,0,1.73,0.4,2.13,0.98v-3.94h1.71v10.59H369.48z M367.78,299.19c-1.04,0-1.74,0.79-1.74,2.38c0,1.5,0.63,2.46,1.67,2.46
		c1.04,0,1.77-0.81,1.77-2.4C369.48,300.14,368.83,299.19,367.78,299.19z"/>
	<path class="st0" d="M376.27,305.57c-2.34,0-3.66-1.47-3.66-3.96c0-2.47,1.46-3.93,3.77-3.93c2.22,0,3.55,1.48,3.55,4.02
		C379.93,304.19,378.46,305.57,376.27,305.57z M376.33,299.15c-1.11,0-1.92,0.85-1.92,2.42c0,1.69,0.78,2.54,1.88,2.54
		c1.09,0,1.87-0.77,1.87-2.45C378.16,299.99,377.44,299.15,376.33,299.15z"/>
	<path class="st0" d="M386.01,300.47c-0.21-0.99-0.75-1.32-1.46-1.32c-1.02,0-1.8,0.77-1.8,2.43c0,1.65,0.69,2.52,1.84,2.52
		c0.79,0,1.28-0.42,1.46-1.22l1.58,0.54c-0.43,1.25-1.42,2.15-3.12,2.15c-2.17,0-3.55-1.5-3.55-3.96c0-2.44,1.41-3.93,3.64-3.93
		c1.62,0,2.64,0.92,2.99,2.25L386.01,300.47z"/>
	<path class="st0" d="M389.4,302.99c0.39,0.77,1.08,1.22,1.9,1.22c0.77,0,1.19-0.33,1.19-0.78c0-0.49-0.25-0.7-1.38-1.06l-0.79-0.25
		c-1.16-0.36-1.89-1.04-1.89-2.17c0-1.17,1.05-2.25,2.89-2.25c1.19,0,2.28,0.45,2.94,1.5l-1.3,0.88c-0.38-0.66-0.95-1.05-1.66-1.05
		c-0.75,0-1.11,0.3-1.11,0.73c0,0.45,0.24,0.66,1.2,0.96l0.79,0.24c1.32,0.42,2.07,1.03,2.07,2.23c0,1.38-1.16,2.38-3.01,2.38
		c-1.53,0-2.56-0.73-3.2-1.68L389.4,302.99z"/>
	<path class="st0" d="M325.95,320.06c0.63,1.26,1.62,1.88,2.79,1.88c1.29,0,2-0.51,2-1.33c0-0.75-0.46-1.05-2.04-1.6l-1.14-0.41
		c-1.8-0.64-2.62-1.47-2.62-3c0-1.81,1.63-3.06,3.79-3.06c1.81,0,3.21,0.77,4.05,2.16l-1.53,1.09c-0.71-1.2-1.62-1.63-2.7-1.63
		c-1.05,0-1.65,0.52-1.65,1.24c0,0.69,0.39,1.04,1.77,1.49l1.21,0.4c1.96,0.63,2.87,1.52,2.87,3.1c0,1.9-1.58,3.22-4.04,3.22
		c-1.92,0-3.46-0.9-4.33-2.43L325.95,320.06z"/>
	<path class="st0" d="M340.74,321.48c-0.55,1.35-1.69,2.1-3.25,2.1c-2.4,0-3.69-1.56-3.69-4.04c0-2.38,1.44-3.87,3.62-3.87
		c2.37,0,3.36,1.73,3.37,4.4h-5.22c0.06,1.29,0.76,2.02,1.95,2.02c0.77,0,1.41-0.3,1.68-1.16L340.74,321.48z M339,318.81
		c-0.06-1.17-0.67-1.77-1.63-1.77s-1.67,0.6-1.79,1.77H339z"/>
	<path class="st0" d="M342.15,323.36v-7.47h1.68v1.15c0.45-0.81,1.04-1.24,2.07-1.24c0.24,0,0.42,0.03,0.64,0.09v1.77
		c-0.28-0.15-0.51-0.21-0.84-0.21c-0.58,0-1.08,0.25-1.41,0.73c-0.26,0.38-0.39,0.9-0.39,1.69v3.48H342.15z"/>
	<path class="st0" d="M349.51,323.36l-2.73-7.47h1.95c0.87,2.55,1.38,4.09,1.84,5.68c0.43-1.53,0.93-3.15,1.8-5.68h1.86l-2.68,7.47
		H349.51z"/>
	<path class="st0" d="M361.53,321.48c-0.55,1.35-1.7,2.1-3.26,2.1c-2.4,0-3.69-1.56-3.69-4.04c0-2.38,1.44-3.87,3.62-3.87
		c2.37,0,3.36,1.73,3.38,4.4h-5.22c0.06,1.29,0.77,2.02,1.95,2.02c0.76,0,1.41-0.3,1.68-1.16L361.53,321.48z M359.79,318.81
		c-0.06-1.17-0.67-1.77-1.63-1.77s-1.67,0.6-1.79,1.77H359.79z"/>
	<path class="st0" d="M362.94,323.36v-7.47h1.68v1.15c0.45-0.81,1.04-1.24,2.07-1.24c0.24,0,0.42,0.03,0.64,0.09v1.77
		c-0.29-0.15-0.51-0.21-0.84-0.21c-0.59,0-1.08,0.25-1.41,0.73c-0.26,0.38-0.39,0.9-0.39,1.69v3.48H362.94z"/>
</g>
</svg>
