<svg width="262" height="395" viewBox="0 0 262 395" fill="none" xmlns="http://www.w3.org/2000/svg">
<g filter="url(#filter0_d_4463_42922)">
<path d="M217 33C217 26.3726 222.373 21 229 21V21C235.627 21 241 26.3726 241 33V33C241 39.6274 235.627 45 229 45V45C222.373 45 217 39.6274 217 33V33Z" fill="white"/>
<path d="M229 21.5C235.351 21.5 240.5 26.6487 240.5 33C240.5 39.3513 235.351 44.5 229 44.5C222.649 44.5 217.5 39.3513 217.5 33C217.5 26.6487 222.649 21.5 229 21.5Z" stroke="#141414" stroke-opacity="0.85"/>
<path d="M223 27H235V29.6667H223V27ZM223.667 30.3333H234.333V39H223.667V30.3333ZM227.333 32.3333C227.245 32.3333 227.16 32.3685 227.098 32.431C227.035 32.4935 227 32.5783 227 32.6667V33.6667H231V32.6667C231 32.5783 230.965 32.4935 230.902 32.431C230.84 32.3685 230.755 32.3333 230.667 32.3333H227.333Z" fill="#141414" fill-opacity="0.85"/>
</g>
<defs>
<filter id="filter0_d_4463_42922" x="204" y="10" width="50" height="50" filterUnits="userSpaceOnUse" color-interpolation-filters="sRGB">
<feFlood flood-opacity="0" result="BackgroundImageFix"/>
<feColorMatrix in="SourceAlpha" type="matrix" values="0 0 0 0 0 0 0 0 0 0 0 0 0 0 0 0 0 0 127 0" result="hardAlpha"/>
<feOffset dy="2"/>
<feGaussianBlur stdDeviation="6.5"/>
<feColorMatrix type="matrix" values="0 0 0 0 0.0784314 0 0 0 0 0.0784314 0 0 0 0 0.0784314 0 0 0 0.06 0"/>
<feBlend mode="normal" in2="BackgroundImageFix" result="effect1_dropShadow_4463_42922"/>
<feBlend mode="normal" in="SourceGraphic" in2="effect1_dropShadow_4463_42922" result="shape"/>
</filter>
</defs>
</svg>
