<svg xmlns="http://www.w3.org/2000/svg" xmlns:xlink="http://www.w3.org/1999/xlink" width="262" height="395" fill="none" viewBox="0 0 262 395"><g clip-path="url(#a)"><rect width="262" height="395" fill="#fff" rx="8"/><path fill="#fff" d="M9 9h244v377.129H9z"/><path stroke="#75c3cb" stroke-width="4" d="m254 2 .309.008A6 6 0 0 1 260 8v378.5a6 6 0 0 1-6 6H8a6 6 0 0 1-6-6V8a6 6 0 0 1 6-6z" opacity=".75"/><path fill="#141414" fill-opacity=".45" d="M12.012 166.129v-7.283h-.094l-2.15 1.558v-1.113l2.25-1.617h1.048v8.455zm5.566 0v-7.283h-.094l-2.15 1.558v-1.113l2.25-1.617h1.049v8.455zm4.043.059a.77.77 0 0 1-.762-.762c0-.422.346-.762.762-.762a.76.76 0 0 1 .762.762c0 .416-.34.762-.762.762m4.442-.059v-7.283h-.094l-2.15 1.558v-1.113l2.25-1.617h1.048v8.455zm6.328.199c-1.87 0-2.983-1.705-2.983-4.424v-.011c0-2.719 1.113-4.418 2.983-4.418 1.869 0 2.994 1.699 2.994 4.418v.011c0 2.719-1.125 4.424-2.994 4.424m0-.92c1.212 0 1.933-1.347 1.933-3.504v-.011c0-2.157-.72-3.493-1.933-3.493s-1.922 1.336-1.922 3.493v.011c0 2.157.709 3.504 1.922 3.504m5.097.78a.77.77 0 0 1-.761-.762.76.76 0 1 1 1.523 0c0 .416-.34.762-.762.762m2.49-.059v-.727l2.86-3.093c1.078-1.166 1.394-1.606 1.394-2.344v-.012c0-.891-.603-1.558-1.6-1.558-1.013 0-1.687.662-1.687 1.658l-.005.011-1.008-.005-.012-.006c.006-1.5 1.166-2.578 2.783-2.578 1.477 0 2.607 1.002 2.607 2.367v.012c0 .966-.416 1.669-1.945 3.246l-1.922 1.986v.094h4.008v.949zm10.073.199c-1.87 0-2.983-1.705-2.983-4.424v-.011c0-2.719 1.114-4.418 2.983-4.418s2.994 1.699 2.994 4.418v.011c0 2.719-1.125 4.424-2.994 4.424m0-.92c1.213 0 1.933-1.347 1.933-3.504v-.011c0-2.157-.72-3.493-1.933-3.493s-1.922 1.336-1.922 3.493v.011c0 2.157.709 3.504 1.922 3.504m4.728.721v-.727l2.86-3.093c1.078-1.166 1.394-1.606 1.394-2.344v-.012c0-.891-.603-1.558-1.6-1.558-1.013 0-1.687.662-1.687 1.658l-.006.011-1.008-.005-.011-.006c.006-1.5 1.166-2.578 2.783-2.578 1.477 0 2.607 1.002 2.607 2.367v.012c0 .966-.416 1.669-1.945 3.246l-1.922 1.986v.094h4.008v.949zm10.23.199c-1.546 0-3.18-1.09-3.18-4.271v-.012c0-2.883 1.2-4.57 3.251-4.57 1.418 0 2.473.832 2.76 2.08l.017.076h-1.06l-.024-.065c-.257-.709-.85-1.148-1.705-1.148-1.535 0-2.162 1.5-2.226 3.264-.006.064-.006.134-.006.199h.111c.31-.692 1.108-1.307 2.25-1.307 1.588 0 2.772 1.207 2.772 2.83v.012c0 1.688-1.254 2.912-2.96 2.912m-1.921-2.924c0 1.114.838 1.992 1.91 1.992 1.06 0 1.91-.861 1.91-1.957v-.011c0-1.125-.797-1.934-1.892-1.934-1.096 0-1.928.803-1.928 1.904z"/><path fill="#f0f0f0" d="M208 162.129a7.5 7.5 0 0 1 7.5-7.5h30a7.5 7.5 0 0 1 0 15h-30a7.5 7.5 0 0 1-7.5-7.5"/><path fill="#141414" fill-opacity=".85" d="M216.477 165.629v-5.806h-.083l-1.753 1.24v-1.186l1.841-1.294h1.255v7.046zm6.309.176c-1.504 0-2.813-1.07-2.813-3.609v-.009c0-2.374 1.069-3.78 2.842-3.78 1.294 0 2.261.767 2.485 1.846l.01.054h-1.235l-.02-.049c-.185-.493-.62-.816-1.24-.816-1.118 0-1.592 1.094-1.646 2.442 0 .054-.005.107-.005.161h.098c.259-.557.874-1.05 1.841-1.05 1.352 0 2.3.986 2.3 2.324v.01c0 1.431-1.089 2.476-2.617 2.476m-1.402-2.461c0 .805.611 1.435 1.392 1.435s1.396-.62 1.396-1.406v-.01c0-.815-.581-1.401-1.382-1.401-.795 0-1.406.576-1.406 1.372zm8.325 2.461c-1.44 0-2.412-.879-2.505-2.036l-.005-.064h1.162l.005.034c.093.576.625 1.035 1.348 1.035.825 0 1.391-.581 1.391-1.411v-.009c0-.821-.576-1.397-1.381-1.397-.396 0-.738.117-.996.352a1.4 1.4 0 0 0-.328.4h-1.079l.342-4.126h4.229v1.035h-3.247l-.196 2.144h.083c.293-.474.84-.757 1.504-.757 1.314 0 2.266.976 2.266 2.324v.01c0 1.465-1.07 2.466-2.593 2.466m6.879-.034c-1.542 0-2.553-.84-2.646-2.046l-.005-.059h1.201l.005.054c.069.595.62 1.02 1.445 1.02.816 0 1.358-.454 1.358-1.108v-.01c0-.742-.547-1.152-1.45-1.152h-.83v-.938h.805c.777 0 1.294-.439 1.294-1.054v-.01c0-.645-.434-1.026-1.186-1.026-.742 0-1.255.396-1.319 1.026l-.005.049h-1.171l.004-.054c.108-1.221 1.07-2.022 2.491-2.022 1.45 0 2.392.757 2.392 1.861v.01c0 .874-.63 1.455-1.474 1.63v.025c1.035.097 1.723.713 1.723 1.689v.01c0 1.24-1.069 2.105-2.632 2.105m7.026 0c-1.621 0-2.749-.84-2.749-2.046v-.01c0-.903.66-1.602 1.597-1.792v-.029c-.806-.215-1.343-.806-1.343-1.563v-.01c0-1.084 1.035-1.88 2.495-1.88s2.496.796 2.496 1.88v.01c0 .757-.538 1.348-1.343 1.563v.029c.942.19 1.596.889 1.596 1.792v.01c0 1.206-1.127 2.046-2.749 2.046m0-4.278c.738 0 1.25-.43 1.25-1.045v-.01c0-.615-.512-1.044-1.25-1.044-.737 0-1.25.429-1.25 1.044v.01c0 .615.513 1.045 1.25 1.045m0 3.316c.845 0 1.446-.489 1.446-1.167v-.01c0-.684-.596-1.177-1.446-1.177-.854 0-1.445.493-1.445 1.177v.01c0 .678.601 1.167 1.445 1.167M14.469 190.375c-2.892 0-4.67-2.003-4.67-5.175v-.013c0-3.179 1.806-5.168 4.67-5.168 2.87 0 4.662 1.989 4.662 5.168v.013c0 3.172-1.784 5.175-4.662 5.175m0-1.524c1.757 0 2.864-1.436 2.864-3.651v-.013c0-2.229-1.114-3.644-2.864-3.644s-2.871 1.415-2.871 3.644v.013c0 2.215 1.093 3.651 2.87 3.651m6.576 1.278v-10.363h1.702v10.363zm5.892.123c-1.421 0-2.454-.875-2.454-2.235v-.014c0-1.333 1.019-2.112 2.837-2.222l1.921-.116v-.643c0-.745-.485-1.155-1.401-1.155-.78 0-1.285.28-1.456.773l-.007.027H24.77l.007-.062c.164-1.257 1.367-2.091 3.145-2.091 1.92 0 3 .929 3 2.508v5.107h-1.68v-1.025h-.117c-.41.724-1.203 1.148-2.187 1.148m-.772-2.317c0 .635.54 1.011 1.292 1.011 1.025 0 1.784-.67 1.784-1.558v-.602l-1.681.11c-.95.061-1.395.41-1.395 1.025zm7.349 2.194v-6.152H32.29v-1.32h1.224v-.738c0-1.49.752-2.222 2.42-2.222.362 0 .67.021.943.069v1.189a4 4 0 0 0-.581-.034c-.8 0-1.108.383-1.108 1.094v.642h1.62v1.32h-1.592v6.152zm7.41.15c-1.682 0-2.543-1.011-2.543-2.789v-4.833h1.702v4.444c0 1.155.43 1.743 1.456 1.743 1.1 0 1.688-.711 1.688-1.832v-4.355h1.703v7.472h-1.703v-1.135h-.116c-.348.8-1.107 1.285-2.187 1.285m6.084-.15v-7.472h1.702v1.149h.116c.253-.8.937-1.272 1.921-1.272.26 0 .526.034.69.082v1.525a4.3 4.3 0 0 0-.847-.096c-1.135 0-1.88.677-1.88 1.743v4.341zm9.734 0v-9.864h6.385v1.483h-4.621v2.673h4.368v1.401h-4.368v2.824h4.621v1.483zm8.463 0v-10.363h1.702v10.363zm4.73-8.723a1.01 1.01 0 0 1-1.018-1.005c0-.553.458-1.005 1.019-1.005.553 0 1.011.452 1.011 1.005 0 .561-.458 1.005-1.011 1.005m-.854 8.723v-7.472h1.702v7.472zm5.831.123c-1.422 0-2.454-.875-2.454-2.235v-.014c0-1.333 1.019-2.112 2.837-2.222l1.92-.116v-.643c0-.745-.484-1.155-1.4-1.155-.78 0-1.286.28-1.457.773l-.006.027h-1.607l.007-.062c.164-1.257 1.367-2.091 3.145-2.091 1.92 0 3 .929 3 2.508v5.107h-1.681v-1.025H77.1c-.41.724-1.203 1.148-2.188 1.148m-.772-2.317c0 .635.54 1.011 1.292 1.011 1.025 0 1.784-.67 1.784-1.558v-.602l-1.682.11c-.95.061-1.394.41-1.394 1.025zm9.625 2.344c-1.9 0-3.05-.875-3.193-2.139v-.014h1.689l.007.014c.177.519.676.881 1.524.881s1.436-.382 1.436-.943v-.014c0-.437-.329-.724-1.149-.909l-1.21-.273c-1.422-.315-2.099-.985-2.099-2.085v-.007c0-1.347 1.231-2.276 2.995-2.276 1.818 0 2.905.902 3.014 2.112v.014h-1.6l-.006-.021c-.123-.472-.615-.854-1.415-.854-.759 0-1.306.369-1.306.929v.007c0 .438.315.704 1.121.889l1.21.266c1.463.329 2.153.951 2.153 2.038v.013c0 1.422-1.333 2.372-3.171 2.372m7.574 0c-1.9 0-3.049-.875-3.192-2.139v-.014h1.688l.007.014c.177.519.677.881 1.524.881.848 0 1.436-.382 1.436-.943v-.014c0-.437-.328-.724-1.149-.909l-1.21-.273c-1.421-.315-2.098-.985-2.098-2.085v-.007c0-1.347 1.23-2.276 2.994-2.276 1.818 0 2.905.902 3.014 2.112v.014h-1.6l-.006-.021c-.123-.472-.615-.854-1.415-.854-.759 0-1.306.369-1.306.929v.007c0 .438.315.704 1.121.889l1.21.266c1.463.329 2.154.951 2.154 2.038v.013c0 1.422-1.333 2.372-3.172 2.372m8.114 0c-2.242 0-3.596-1.463-3.596-3.883v-.013c0-2.4 1.374-3.869 3.596-3.869 2.229 0 3.596 1.463 3.596 3.869v.013c0 2.42-1.361 3.883-3.596 3.883m0-1.381c1.183 0 1.853-.922 1.853-2.495v-.013c0-1.573-.677-2.502-1.853-2.502-1.183 0-1.86.929-1.86 2.502v.013c0 1.573.677 2.495 1.86 2.495m5.305 1.231v-7.472h1.702v1.142h.116c.356-.8 1.073-1.285 2.153-1.285 1.668 0 2.578 1.005 2.578 2.782v4.833h-1.703v-4.437c0-1.162-.471-1.75-1.503-1.75-1.012 0-1.641.711-1.641 1.832v4.355zm13.166-8.723a1.01 1.01 0 0 1-1.019-1.005c0-.553.458-1.005 1.019-1.005.554 0 1.012.452 1.012 1.005 0 .561-.458 1.005-1.012 1.005m-.855 8.723v-7.472h1.702v7.472zm3.794 0v-7.472h1.702v1.142h.117c.355-.8 1.073-1.285 2.153-1.285 1.668 0 2.577 1.005 2.577 2.782v4.833h-1.702v-4.437c0-1.162-.472-1.75-1.504-1.75-1.012 0-1.641.711-1.641 1.832v4.355zm14.985.123c-1.873 0-3.063-1.483-3.063-3.849v-.013c0-2.379 1.169-3.856 3.063-3.856 1.025 0 1.88.506 2.269 1.313h.116v-4.081h1.709v10.363h-1.709v-1.169h-.116c-.41.813-1.217 1.292-2.269 1.292m.533-1.436c1.162 0 1.88-.916 1.88-2.413v-.013c0-1.497-.725-2.42-1.88-2.42s-1.866.916-1.866 2.42v.013c0 1.504.704 2.413 1.866 2.413m8.9 1.463c-2.221 0-3.568-1.49-3.568-3.869v-.007c0-2.351 1.36-3.889 3.486-3.889s3.439 1.49 3.439 3.746v.56h-5.223c.021 1.34.745 2.119 1.9 2.119.923 0 1.45-.464 1.614-.806l.02-.048h1.62l-.02.061c-.239.964-1.237 2.133-3.268 2.133m-.061-6.432c-.95 0-1.661.642-1.791 1.832h3.548c-.117-1.224-.807-1.832-1.757-1.832m5.12 6.282v-7.472h1.702v1.149h.116c.253-.8.937-1.272 1.921-1.272.26 0 .526.034.691.082v1.525a4.3 4.3 0 0 0-.848-.096c-1.135 0-1.88.677-1.88 1.743v4.341zm12.188 0v-8.381h-3.035v-1.483h7.841v1.483h-3.042v8.381zm7.158.123c-1.422 0-2.455-.875-2.455-2.235v-.014c0-1.333 1.019-2.112 2.837-2.222l1.921-.116v-.643c0-.745-.485-1.155-1.401-1.155-.779 0-1.285.28-1.456.773l-.007.027h-1.606l.006-.062c.164-1.257 1.368-2.091 3.145-2.091 1.921 0 3.001.929 3.001 2.508v5.107h-1.682v-1.025h-.116c-.41.724-1.203 1.148-2.187 1.148m-.773-2.317c0 .635.54 1.011 1.292 1.011 1.025 0 1.784-.67 1.784-1.558v-.602l-1.681.11c-.951.061-1.395.41-1.395 1.025zm9.741 2.228c-1.716 0-2.42-.574-2.42-2.017v-4.169h-1.162v-1.32h1.162v-1.832h1.73v1.832h1.579v1.32h-1.579v3.766c0 .745.294 1.06 1.005 1.06.239 0 .369-.007.574-.028v1.313a5 5 0 0 1-.889.075m5.715.116c-2.222 0-3.568-1.49-3.568-3.869v-.007c0-2.351 1.36-3.889 3.486-3.889s3.439 1.49 3.439 3.746v.56h-5.223c.02 1.34.745 2.119 1.9 2.119.923 0 1.45-.464 1.614-.806l.02-.048h1.62l-.02.061c-.24.964-1.238 2.133-3.268 2.133m-.061-6.432c-.951 0-1.662.642-1.791 1.832h3.547c-.116-1.224-.806-1.832-1.756-1.832m9.03 6.282v-9.864h2.023l2.967 7.588h.116l2.96-7.588h2.024v9.864h-1.586v-7.014h-.123l-2.735 7.014h-1.203l-2.734-7.014h-.116v7.014zm15.572.15c-2.242 0-3.596-1.463-3.596-3.883v-.013c0-2.4 1.374-3.869 3.596-3.869 2.229 0 3.596 1.463 3.596 3.869v.013c0 2.42-1.36 3.883-3.596 3.883m0-1.381c1.183 0 1.853-.922 1.853-2.495v-.013c0-1.573-.677-2.502-1.853-2.502-1.182 0-1.859.929-1.859 2.502v.013c0 1.573.677 2.495 1.859 2.495m7.998 1.354c-1.873 0-3.062-1.483-3.062-3.849v-.013c0-2.379 1.169-3.856 3.062-3.856 1.026 0 1.88.506 2.27 1.313h.116v-4.081h1.709v10.363h-1.709v-1.169h-.116c-.41.813-1.217 1.292-2.27 1.292m.533-1.436c1.163 0 1.88-.916 1.88-2.413v-.013c0-1.497-.724-2.42-1.88-2.42s-1.866.916-1.866 2.42v.013c0 1.504.704 2.413 1.866 2.413m8.901 1.463c-2.222 0-3.569-1.49-3.569-3.869v-.007c0-2.351 1.361-3.889 3.487-3.889s3.438 1.49 3.438 3.746v.56h-5.222c.02 1.34.745 2.119 1.9 2.119.923 0 1.449-.464 1.613-.806l.021-.048h1.62l-.021.061c-.239.964-1.237 2.133-3.267 2.133m-.062-6.432c-.95 0-1.661.642-1.791 1.832h3.548c-.116-1.224-.807-1.832-1.757-1.832m5.12 6.282v-7.472h1.703v1.149h.116c.253-.8.936-1.272 1.921-1.272.259 0 .526.034.69.082v1.525a4.3 4.3 0 0 0-.848-.096c-1.134 0-1.879.677-1.879 1.743v4.341zm5.92 0v-7.472h1.702v1.142h.117c.355-.8 1.073-1.285 2.153-1.285 1.668 0 2.577 1.005 2.577 2.782v4.833h-1.702v-4.437c0-1.162-.472-1.75-1.504-1.75-1.012 0-1.641.711-1.641 1.832v4.355z"/><path fill="#f8f8f8" d="M9 213.129a8 8 0 0 1 8-8h228a8 8 0 0 1 8 8v134a8 8 0 0 1-8 8H17a8 8 0 0 1-8-8z"/><path fill="#6e6e6e" d="M20 221.796a1.333 1.333 0 1 0 0 2.666 1.333 1.333 0 0 0 0-2.666"/><path fill="#141414" fill-opacity=".85" d="M29.168 227.129v-9.16h5.56v1.029h-4.417v3.148h4.056v1.016H30.31v3.967zm8.626-8.214a.707.707 0 0 1-.704-.705c0-.38.317-.698.704-.698.381 0 .699.318.699.698a.706.706 0 0 1-.699.705m2.8 0a.706.706 0 0 1-.699-.705c0-.38.318-.698.699-.698.387 0 .704.318.704.698a.707.707 0 0 1-.704.705m-1.835 8.335c-1.555 0-2.355-.915-2.355-2.533v-4.431h1.105v4.164c0 1.232.444 1.822 1.536 1.822 1.206 0 1.847-.736 1.847-1.936v-4.05h1.105v6.843h-1.105v-1.022h-.102c-.336.73-1.028 1.143-2.03 1.143m5.3-.121v-6.843h1.105v1.016h.102c.26-.718.901-1.136 1.828-1.136.21 0 .444.025.552.044v1.073a4 4 0 0 0-.68-.064c-1.053 0-1.802.667-1.802 1.67v4.24zm11.134.121c-1.733 0-2.869-1.403-2.869-3.536v-.013c0-2.145 1.13-3.535 2.87-3.535.939 0 1.758.469 2.132 1.199h.102v-3.796h1.104v9.56h-1.104v-1.092h-.102c-.419.762-1.18 1.213-2.133 1.213m.254-.978c1.244 0 2.006-.978 2.006-2.558v-.013c0-1.58-.762-2.558-2.006-2.558-1.25 0-1.993.965-1.993 2.558v.013c0 1.593.743 2.558 1.993 2.558m5.79-7.306a.764.764 0 0 1-.762-.762c0-.419.342-.762.761-.762.42 0 .762.343.762.762a.764.764 0 0 1-.762.762m-.56 8.163v-6.843h1.105v6.843zm5.98.121c-1.955 0-3.135-1.372-3.135-3.517v-.006c0-2.114 1.206-3.561 3.065-3.561 1.86 0 2.99 1.383 2.99 3.427v.432h-4.926c.032 1.415.813 2.241 2.032 2.241.926 0 1.498-.438 1.682-.851l.025-.057h1.105l-.013.051c-.235.926-1.213 1.841-2.825 1.841m-.076-6.101c-1.016 0-1.79.692-1.91 1.994h3.783c-.115-1.352-.864-1.994-1.873-1.994m8.366 5.98v-6.843h1.105v1.028h.101c.343-.723.984-1.148 1.993-1.148 1.537 0 2.394.907 2.394 2.532v4.431h-1.105v-4.164c0-1.232-.508-1.822-1.6-1.822-1.091 0-1.783.736-1.783 1.936v4.05zm8.741-8.214a.707.707 0 0 1-.705-.705c0-.38.318-.698.705-.698.38 0 .698.318.698.698a.706.706 0 0 1-.698.705m2.8 0a.706.706 0 0 1-.699-.705c0-.38.317-.698.698-.698.388 0 .705.318.705.698a.707.707 0 0 1-.705.705m-2.07 8.335c-1.301 0-2.285-.788-2.285-2.032v-.012c0-1.219.901-1.924 2.494-2.019l1.962-.121v-.622c0-.844-.514-1.301-1.536-1.301-.82 0-1.359.305-1.536.838l-.007.019h-1.104l.006-.038c.178-1.073 1.219-1.796 2.679-1.796 1.67 0 2.602.856 2.602 2.278v4.685H86.59v-1.009h-.102c-.431.73-1.149 1.13-2.069 1.13m-1.155-2.057c0 .692.59 1.098 1.383 1.098 1.124 0 1.943-.736 1.943-1.714v-.622l-1.828.114c-1.041.064-1.498.432-1.498 1.111zm9.248 2.057c-1.917 0-3.142-1.391-3.142-3.562v-.012c0-2.127 1.219-3.51 3.136-3.51 1.663 0 2.66.958 2.863 2.177l.006.038h-1.098l-.007-.019c-.17-.673-.78-1.219-1.764-1.219-1.232 0-2.006.99-2.006 2.533v.012c0 1.575.787 2.584 2.006 2.584.92 0 1.504-.406 1.758-1.168l.013-.038 1.092-.006-.013.069c-.28 1.238-1.2 2.121-2.844 2.121m4.539-.121v-9.56h1.104v3.745h.102c.343-.723.984-1.148 1.993-1.148 1.536 0 2.393.907 2.393 2.532v4.431h-1.104v-4.164c0-1.232-.508-1.822-1.6-1.822s-1.784.736-1.784 1.936v4.05zm9.94.121c-1.523 0-2.571-.737-2.698-1.867h1.13c.184.572.73.946 1.606.946.921 0 1.575-.438 1.575-1.06v-.013c0-.463-.35-.787-1.194-.99l-1.06-.254c-1.282-.304-1.86-.863-1.86-1.847v-.006c0-1.137 1.092-1.993 2.546-1.993 1.434 0 2.431.717 2.583 1.834h-1.085c-.146-.54-.679-.914-1.505-.914-.812 0-1.409.419-1.409 1.022v.013c0 .463.343.755 1.149.952l1.054.254c1.288.311 1.91.869 1.91 1.847v.013c0 1.218-1.187 2.063-2.742 2.063m6.824-.07c-1.409 0-2-.521-2-1.828V221.2h-1.079v-.914h1.079v-1.771h1.143v1.771h1.498v.914h-1.498v3.872c0 .806.279 1.13.99 1.13.197 0 .305-.006.508-.025v.939a3.7 3.7 0 0 1-.641.064m4.983.07c-1.955 0-3.136-1.372-3.136-3.517v-.006c0-2.114 1.206-3.561 3.066-3.561s2.99 1.383 2.99 3.427v.432h-4.926c.032 1.415.813 2.241 2.031 2.241.927 0 1.498-.438 1.682-.851l.026-.057h1.104l-.012.051c-.235.926-1.213 1.841-2.825 1.841m-.076-6.101c-1.016 0-1.79.692-1.911 1.994h3.783c-.114-1.352-.863-1.994-1.872-1.994m7.776 5.98 3.377-9.16h1.129l3.377 9.16h-1.199l-.921-2.622h-3.643l-.921 2.622zm3.891-7.681-1.435 4.088h2.971l-1.435-4.088zm7.433 7.802c-1.555 0-2.355-.915-2.355-2.533v-4.431h1.104v4.164c0 1.232.445 1.822 1.536 1.822 1.206 0 1.848-.736 1.848-1.936v-4.05h1.104v6.843h-1.104v-1.022h-.102c-.336.73-1.028 1.143-2.031 1.143m7.649 0c-1.524 0-2.571-.737-2.698-1.867h1.13c.184.572.73.946 1.606.946.92 0 1.574-.438 1.574-1.06v-.013c0-.463-.349-.787-1.193-.99l-1.06-.254c-1.283-.304-1.86-.863-1.86-1.847v-.006c0-1.137 1.092-1.993 2.545-1.993 1.435 0 2.431.717 2.584 1.834h-1.086c-.146-.54-.679-.914-1.504-.914-.813 0-1.409.419-1.409 1.022v.013c0 .463.342.755 1.149.952l1.053.254c1.289.311 1.911.869 1.911 1.847v.013c0 1.218-1.187 2.063-2.742 2.063m7.274 2.291c-1.65 0-2.704-.743-2.875-1.866l.012-.007h1.143l.006.007c.121.52.73.888 1.714.888 1.225 0 1.955-.577 1.955-1.586v-1.384h-.101c-.432.755-1.206 1.18-2.146 1.18-1.771 0-2.869-1.371-2.869-3.288v-.012c0-1.917 1.105-3.307 2.895-3.307.964 0 1.713.476 2.132 1.25h.077v-1.13h1.104v6.748c0 1.529-1.181 2.507-3.047 2.507m-.051-3.745c1.27 0 2.032-.952 2.032-2.311v-.012c0-1.359-.768-2.33-2.032-2.33-1.269 0-1.98.971-1.98 2.33v.012c0 1.359.711 2.311 1.98 2.311m7.034 1.454c-1.302 0-2.286-.788-2.286-2.032v-.012c0-1.219.902-1.924 2.495-2.019l1.961-.121v-.622c0-.844-.514-1.301-1.536-1.301-.819 0-1.358.305-1.536.838l-.006.019h-1.105l.007-.038c.177-1.073 1.218-1.796 2.678-1.796 1.67 0 2.603.856 2.603 2.278v4.685h-1.105v-1.009h-.101c-.432.73-1.149 1.13-2.069 1.13m-1.156-2.057c0 .692.591 1.098 1.384 1.098 1.124 0 1.942-.736 1.942-1.714v-.622l-1.828.114c-1.041.064-1.498.432-1.498 1.111zm9.852 2.057c-.952 0-1.714-.451-2.133-1.213h-.102v1.092h-1.104v-9.56h1.104v3.796h.102c.375-.73 1.193-1.199 2.133-1.199 1.739 0 2.869 1.39 2.869 3.535v.013c0 2.133-1.136 3.536-2.869 3.536m-.254-.978c1.25 0 1.993-.965 1.993-2.558v-.013c0-1.593-.743-2.558-1.993-2.558-1.244 0-2.006.978-2.006 2.558v.013c0 1.58.762 2.558 2.006 2.558m7.63.978c-1.955 0-3.136-1.372-3.136-3.517v-.006c0-2.114 1.206-3.561 3.066-3.561s2.99 1.383 2.99 3.427v.432h-4.926c.032 1.415.812 2.241 2.031 2.241.927 0 1.498-.438 1.682-.851l.026-.057h1.104l-.012.051c-.235.926-1.213 1.841-2.825 1.841m-.076-6.101c-1.016 0-1.79.692-1.911 1.994h3.783c-.114-1.352-.863-1.994-1.872-1.994m8.366 5.98v-6.843h1.104v1.041h.102c.305-.736.952-1.161 1.847-1.161.927 0 1.574.488 1.892 1.199h.101c.368-.723 1.149-1.199 2.095-1.199 1.396 0 2.177.799 2.177 2.234v4.729h-1.104v-4.475c0-1.009-.464-1.511-1.428-1.511-.953 0-1.581.717-1.581 1.587v4.399h-1.105v-4.647c0-.812-.558-1.339-1.421-1.339-.895 0-1.575.781-1.575 1.746v4.24zm13.19.121c-1.301 0-2.285-.788-2.285-2.032v-.012c0-1.219.902-1.924 2.495-2.019l1.961-.121v-.622c0-.844-.514-1.301-1.536-1.301-.819 0-1.358.305-1.536.838l-.006.019h-1.105l.006-.038c.178-1.073 1.219-1.796 2.679-1.796 1.67 0 2.603.856 2.603 2.278v4.685h-1.105v-1.009h-.101c-.432.73-1.149 1.13-2.07 1.13m-1.155-2.057c0 .692.59 1.098 1.384 1.098 1.123 0 1.942-.736 1.942-1.714v-.622l-1.828.114c-1.041.064-1.498.432-1.498 1.111zm6.449 1.936v-6.843h1.105v1.016h.101c.261-.718.902-1.136 1.828-1.136.21 0 .445.025.553.044v1.073a4 4 0 0 0-.68-.064c-1.053 0-1.802.667-1.802 1.67v4.24zm5.015 0v-9.56h1.104v5.707h.102l2.958-2.99h1.339l-2.983 2.876 3.18 3.967h-1.39l-2.565-3.218-.641.622v2.596zm7.579-8.163a.764.764 0 0 1-.762-.762c0-.419.343-.762.762-.762s.762.343.762.762a.764.764 0 0 1-.762.762m-.559 8.163v-6.843h1.105v6.843zm5.98.121c-1.955 0-3.136-1.372-3.136-3.517v-.006c0-2.114 1.206-3.561 3.066-3.561s2.99 1.383 2.99 3.427v.432h-4.926c.032 1.415.813 2.241 2.031 2.241.927 0 1.498-.438 1.682-.851l.026-.057h1.104l-.012.051c-.235.926-1.213 1.841-2.825 1.841m-.076-6.101c-1.016 0-1.79.692-1.911 1.994h3.783c-.114-1.352-.863-1.994-1.872-1.994m4.71 5.98v-6.843h1.104v1.016h.102c.26-.718.901-1.136 1.828-1.136.209 0 .444.025.552.044v1.073a4 4 0 0 0-.679-.064c-1.054 0-1.803.667-1.803 1.67v4.24zm7.509.051c-1.409 0-2-.521-2-1.828V221.2h-1.079v-.914h1.079v-1.771h1.143v1.771h1.498v.914h-1.498v3.872c0 .806.279 1.13.99 1.13.197 0 .305-.006.508-.025v.939a3.7 3.7 0 0 1-.641.064"/><path fill="#6e6e6e" d="M20 246.796a1.333 1.333 0 1 0 0 2.666 1.333 1.333 0 0 0 0-2.666"/><path fill="#141414" fill-opacity=".85" d="M29.11 252.129v-9.16h4.006c1.778 0 2.838.87 2.838 2.279v.013c0 .965-.718 1.809-1.657 1.948v.115c1.212.095 2.095 1.003 2.095 2.177v.013c0 1.606-1.213 2.615-3.168 2.615zm3.517-7.738h-1.6v2.387h1.442c1.034 0 1.6-.432 1.6-1.187v-.013c0-.743-.528-1.187-1.442-1.187m.064 3.65h-1.663v2.66h1.707c1.105 0 1.702-.47 1.702-1.34v-.012c0-.851-.616-1.308-1.746-1.308m8.322 4.234c-2.127 0-3.415-1.39-3.415-3.631v-.006c0-2.222 1.3-3.65 3.339-3.65 2.037 0 3.307 1.396 3.307 3.51v.578h-4.812c.02 1.149.635 1.815 1.619 1.815.812 0 1.263-.432 1.39-.698l.019-.038h1.727l-.013.063c-.216.876-1.117 2.057-3.161 2.057m-.045-5.897c-.806 0-1.403.546-1.517 1.536h3.015c-.114-1.016-.692-1.536-1.498-1.536m7.573 5.897c-1.898 0-2.977-.851-3.11-2.05l-.007-.026h1.822l.013.026c.146.431.571.742 1.301.742.711 0 1.193-.304 1.193-.768v-.012c0-.375-.279-.61-.99-.769l-1.168-.247c-1.333-.286-1.993-.94-1.993-1.987v-.006c0-1.314 1.168-2.19 2.914-2.19 1.834 0 2.85.914 2.926 2.037v.026h-1.72l-.007-.032c-.101-.374-.514-.724-1.206-.724-.64 0-1.098.299-1.098.768v.007c0 .374.26.59.984.749l1.162.247c1.396.299 2.05.883 2.05 1.917v.007c0 1.384-1.276 2.285-3.066 2.285m7.662 0c-2.184 0-3.422-1.327-3.422-3.65v-.013c0-2.298 1.232-3.624 3.422-3.624 1.853 0 2.951 1.009 3.116 2.571v.019h-1.726l-.007-.013c-.12-.679-.584-1.124-1.377-1.124-.997 0-1.543.775-1.543 2.171v.013c0 1.416.553 2.196 1.543 2.196.762 0 1.212-.362 1.377-1.06l.013-.025h1.714l-.006.038c-.19 1.523-1.283 2.501-3.104 2.501m4.627-.146v-9.661h1.854v3.751h.114c.317-.755 1.01-1.231 2.006-1.231 1.555 0 2.393.952 2.393 2.621v4.52h-1.854v-4.101c0-.984-.406-1.504-1.282-1.504-.857 0-1.377.616-1.377 1.561v4.044zm8.163 0v-6.989h1.854v1.086h.114c.222-.756.857-1.2 1.765-1.2.247 0 .507.038.692.089v1.618a4 4 0 0 0-.851-.108c-1.054 0-1.72.604-1.72 1.594v3.91zm8.57.146c-2.127 0-3.416-1.39-3.416-3.631v-.006c0-2.222 1.302-3.65 3.34-3.65s3.307 1.396 3.307 3.51v.578h-4.812c.019 1.149.635 1.815 1.619 1.815.812 0 1.263-.432 1.39-.698l.019-.038h1.726l-.012.063c-.216.876-1.118 2.057-3.162 2.057m-.045-5.897c-.806 0-1.403.546-1.517 1.536h3.015c-.114-1.016-.692-1.536-1.498-1.536m5.738-2.311a1.04 1.04 0 0 1-1.047-1.028c0-.578.476-1.035 1.047-1.035.572 0 1.041.457 1.041 1.035 0 .571-.47 1.028-1.04 1.028m-.933 8.062v-6.989h1.854v6.989zm7.846.108c-.99 0-1.733-.438-2.095-1.194h-.114v1.086h-1.854v-9.661h1.854v3.789h.114c.356-.761 1.136-1.231 2.095-1.231 1.77 0 2.837 1.352 2.837 3.599v.013c0 2.234-1.091 3.599-2.837 3.599m-.635-1.536c.984 0 1.587-.775 1.587-2.063v-.013c0-1.276-.61-2.063-1.587-2.063-.971 0-1.593.787-1.593 2.069v.013c0 1.282.616 2.057 1.593 2.057m7.287 1.574c-1.568 0-2.374-.952-2.374-2.615v-4.52h1.854v4.094c0 .991.374 1.505 1.25 1.505.914 0 1.41-.616 1.41-1.562v-4.037h1.853v6.989H98.96v-1.079h-.114c-.317.762-1.028 1.225-2.025 1.225m5.853-.146v-6.989h1.853v1.079h.115c.317-.755 1.009-1.231 2.005-1.231 1.556 0 2.394.952 2.394 2.621v4.52h-1.854v-4.101c0-.984-.406-1.504-1.282-1.504-.857 0-1.378.616-1.378 1.561v4.044zm11.248 2.456c-1.936 0-3.06-.812-3.212-1.999v-.032h1.834l.007.026c.101.406.584.685 1.409.685.99 0 1.568-.463 1.568-1.276v-1.301h-.114c-.388.736-1.124 1.136-2.095 1.136-1.758 0-2.844-1.358-2.844-3.345v-.013c0-2.056 1.086-3.44 2.876-3.44.958 0 1.707.47 2.082 1.257h.088v-1.143h1.854v6.773c0 1.638-1.339 2.672-3.453 2.672m.025-4.183c1.003 0 1.6-.78 1.6-1.929v-.013c0-1.149-.603-1.93-1.6-1.93-.996 0-1.574.781-1.574 1.93v.013c0 1.149.571 1.929 1.574 1.929m6.615-2.71c-.648 0-1.118-.476-1.118-1.105 0-.628.47-1.098 1.118-1.098.653 0 1.117.47 1.117 1.098s-.464 1.105-1.117 1.105m0 4.596c-.648 0-1.118-.476-1.118-1.105 0-.628.47-1.098 1.118-1.098.653 0 1.117.47 1.117 1.098s-.464 1.105-1.117 1.105m7.084-.159v-9.16h3.142c2.716 0 4.322 1.695 4.322 4.571v.012c0 2.882-1.599 4.577-4.322 4.577zm1.142-1.028h1.923c2.044 0 3.231-1.308 3.231-3.536v-.013c0-2.234-1.199-3.554-3.231-3.554h-1.923zm8.747-7.135a.764.764 0 0 1-.762-.762c0-.419.343-.762.762-.762s.762.343.762.762a.764.764 0 0 1-.762.762m-.558 8.163v-6.843h1.104v6.843zm5.979.121c-1.955 0-3.136-1.372-3.136-3.517v-.006c0-2.114 1.206-3.561 3.066-3.561s2.99 1.383 2.99 3.427v.432h-4.926c.032 1.415.813 2.241 2.031 2.241.927 0 1.498-.438 1.683-.851l.025-.057h1.104l-.012.051c-.235.926-1.213 1.841-2.825 1.841m-.076-6.101c-1.016 0-1.79.692-1.911 1.994h3.783c-.114-1.352-.863-1.994-1.872-1.994m10.886 5.98v-8.131h-2.952v-1.029h7.046v1.029h-2.951v8.131zm6.265.121c-1.301 0-2.285-.788-2.285-2.032v-.012c0-1.219.901-1.924 2.495-2.019l1.961-.121v-.622c0-.844-.514-1.301-1.536-1.301-.819 0-1.358.305-1.536.838l-.006.019h-1.105l.006-.038c.178-1.073 1.219-1.796 2.679-1.796 1.67 0 2.603.856 2.603 2.278v4.685h-1.105v-1.009h-.101c-.432.73-1.149 1.13-2.07 1.13m-1.155-2.057c0 .692.59 1.098 1.384 1.098 1.123 0 1.942-.736 1.942-1.714v-.622l-1.828.114c-1.041.064-1.498.432-1.498 1.111zm8.88 1.987c-1.409 0-1.999-.521-1.999-1.828V246.2h-1.079v-.914h1.079v-1.771h1.142v1.771h1.498v.914h-1.498v3.872c0 .806.28 1.13.991 1.13.196 0 .304-.006.507-.025v.939a3.7 3.7 0 0 1-.641.064m4.983.07c-1.955 0-3.135-1.372-3.135-3.517v-.006c0-2.114 1.206-3.561 3.065-3.561 1.86 0 2.99 1.383 2.99 3.427v.432h-4.926c.032 1.415.813 2.241 2.032 2.241.926 0 1.498-.438 1.682-.851l.025-.057h1.105l-.013.051c-.235.926-1.212 1.841-2.825 1.841m-.076-6.101c-1.016 0-1.79.692-1.911 1.994h3.784c-.115-1.352-.864-1.994-1.873-1.994m8.506 5.98v-9.16h1.327l3.135 7.643h.102l3.136-7.643h1.326v9.16h-1.066v-6.995h-.07l-2.894 6.995h-.965l-2.895-6.995h-.07v6.995zm14.035.121c-1.949 0-3.155-1.346-3.155-3.536v-.013c0-2.196 1.206-3.535 3.155-3.535s3.154 1.339 3.154 3.535v.013c0 2.19-1.206 3.536-3.154 3.536m0-.978c1.295 0 2.025-.946 2.025-2.558v-.013c0-1.618-.73-2.558-2.025-2.558s-2.025.94-2.025 2.558v.013c0 1.612.73 2.558 2.025 2.558m7.395.978c-1.733 0-2.87-1.403-2.87-3.536v-.013c0-2.145 1.13-3.535 2.87-3.535.939 0 1.758.469 2.132 1.199h.102v-3.796h1.105v9.56h-1.105v-1.092h-.102c-.419.762-1.18 1.213-2.132 1.213m.254-.978c1.244 0 2.005-.978 2.005-2.558v-.013c0-1.58-.761-2.558-2.005-2.558-1.251 0-1.994.965-1.994 2.558v.013c0 1.593.743 2.558 1.994 2.558m7.998.978c-1.955 0-3.136-1.372-3.136-3.517v-.006c0-2.114 1.206-3.561 3.066-3.561s2.99 1.383 2.99 3.427v.432h-4.926c.031 1.415.812 2.241 2.031 2.241.927 0 1.498-.438 1.682-.851l.025-.057h1.105l-.013.051c-.235.926-1.212 1.841-2.824 1.841m-.077-6.101c-1.015 0-1.79.692-1.91 1.994h3.783c-.114-1.352-.863-1.994-1.873-1.994m4.71 5.98v-6.843h1.105v1.016h.101c.261-.718.902-1.136 1.829-1.136.209 0 .444.025.552.044v1.073a4 4 0 0 0-.679-.064c-1.054 0-1.803.667-1.803 1.67v4.24zm5.078 0v-6.843h1.105v1.028h.102c.342-.723.983-1.148 1.993-1.148 1.536 0 2.393.907 2.393 2.532v4.431h-1.105v-4.164c0-1.232-.508-1.822-1.599-1.822-1.092 0-1.784.736-1.784 1.936v4.05zm11.833-8.163a.764.764 0 0 1-.762-.762c0-.419.343-.762.762-.762.418 0 .761.343.761.762a.764.764 0 0 1-.761.762m-.559 8.163v-6.843h1.104v6.843zm3.186 0v-6.843h1.105v1.028h.102c.342-.723.983-1.148 1.993-1.148 1.536 0 2.393.907 2.393 2.532v4.431h-1.105v-4.164c0-1.232-.508-1.822-1.599-1.822-1.092 0-1.784.736-1.784 1.936v4.05zm-205.854 22v-9.16h1.143v8.132h4.417v1.028zm9.744.121c-1.95 0-3.155-1.346-3.155-3.536v-.013c0-2.196 1.206-3.535 3.155-3.535s3.154 1.339 3.154 3.535v.013c0 2.19-1.206 3.536-3.154 3.536m0-.978c1.294 0 2.025-.946 2.025-2.558v-.013c0-1.618-.73-2.558-2.025-2.558s-2.025.94-2.025 2.558v.013c0 1.612.73 2.558 2.025 2.558m4.868.857v-6.843h1.105v1.028h.101c.343-.723.984-1.148 1.994-1.148 1.536 0 2.393.907 2.393 2.532v4.431h-1.105v-4.164c0-1.232-.508-1.822-1.6-1.822-1.091 0-1.783.736-1.783 1.936v4.05zm10.118.121c-1.733 0-2.869-1.403-2.869-3.536v-.013c0-2.145 1.13-3.535 2.87-3.535.939 0 1.758.469 2.132 1.199h.102v-3.796h1.104v9.56h-1.104v-1.092h-.102c-.419.762-1.18 1.213-2.133 1.213m.254-.978c1.245 0 2.006-.978 2.006-2.558v-.013c0-1.58-.761-2.558-2.006-2.558-1.25 0-1.993.965-1.993 2.558v.013c0 1.593.743 2.558 1.993 2.558m8.017.978c-1.948 0-3.154-1.346-3.154-3.536v-.013c0-2.196 1.206-3.535 3.154-3.535 1.95 0 3.155 1.339 3.155 3.535v.013c0 2.19-1.206 3.536-3.155 3.536m0-.978c1.295 0 2.025-.946 2.025-2.558v-.013c0-1.618-.73-2.558-2.025-2.558s-2.024.94-2.024 2.558v.013c0 1.612.73 2.558 2.024 2.558m4.87.857v-6.843h1.104v1.028h.101c.343-.723.984-1.148 1.993-1.148 1.536 0 2.393.907 2.393 2.532v4.431h-1.104v-4.164c0-1.232-.508-1.822-1.6-1.822-1.091 0-1.783.736-1.783 1.936v4.05zm11.247 2.285v-9.128h1.105v1.092h.101c.42-.762 1.18-1.212 2.133-1.212 1.733 0 2.87 1.402 2.87 3.535v.013c0 2.145-1.13 3.536-2.87 3.536-.94 0-1.758-.47-2.133-1.2h-.101v3.364zm3.085-3.142c1.25 0 1.993-.965 1.993-2.558v-.013c0-1.593-.742-2.558-1.993-2.558-1.244 0-2.006.978-2.006 2.558v.013c0 1.58.762 2.558 2.006 2.558m4.85.857v-6.843h1.104v1.016h.102c.26-.718.901-1.136 1.828-1.136.21 0 .444.025.552.044v1.073a4 4 0 0 0-.68-.064c-1.053 0-1.802.667-1.802 1.67v4.24zm6.1-8.214a.707.707 0 0 1-.705-.705c0-.38.318-.698.705-.698.38 0 .698.318.698.698a.706.706 0 0 1-.698.705m2.8 0a.706.706 0 0 1-.7-.705c0-.38.318-.698.7-.698.386 0 .704.318.704.698a.707.707 0 0 1-.705.705m-2.07 8.335c-1.302 0-2.285-.788-2.285-2.032v-.012c0-1.219.901-1.924 2.494-2.019l1.962-.121v-.622c0-.844-.514-1.301-1.536-1.301-.82 0-1.359.305-1.537.838l-.006.019H91.04l.006-.038c.178-1.073 1.219-1.796 2.679-1.796 1.67 0 2.602.856 2.602 2.278v4.685h-1.104v-1.009h-.102c-.431.73-1.149 1.13-2.07 1.13m-1.156-2.057c0 .692.59 1.098 1.384 1.098 1.124 0 1.943-.736 1.943-1.714v-.622l-1.828.114c-1.041.064-1.499.432-1.499 1.111zm8.798 2.057c-1.523 0-2.57-.737-2.697-1.867h1.13c.184.572.73.946 1.605.946.921 0 1.575-.438 1.575-1.06v-.013c0-.463-.349-.787-1.194-.99l-1.06-.254c-1.282-.304-1.86-.863-1.86-1.847v-.006c0-1.137 1.092-1.993 2.546-1.993 1.434 0 2.431.717 2.583 1.834h-1.085c-.146-.54-.679-.914-1.505-.914-.812 0-1.409.419-1.409 1.022v.013c0 .463.343.755 1.149.952l1.054.254c1.288.311 1.911.869 1.911 1.847v.013c0 1.218-1.187 2.063-2.743 2.063m7.249 0c-1.955 0-3.135-1.372-3.135-3.517v-.006c0-2.114 1.206-3.561 3.066-3.561s2.989 1.383 2.989 3.427v.432h-4.925c.031 1.415.812 2.241 2.031 2.241.927 0 1.498-.438 1.682-.851l.025-.057h1.105l-.013.051c-.235.926-1.212 1.841-2.825 1.841m-.076-6.101c-1.015 0-1.79.692-1.91 1.994h3.783c-.114-1.352-.864-1.994-1.873-1.994m4.71 5.98v-6.843h1.105v1.028h.101c.343-.723.984-1.148 1.993-1.148 1.537 0 2.393.907 2.393 2.532v4.431h-1.104v-4.164c0-1.232-.508-1.822-1.6-1.822-1.091 0-1.783.736-1.783 1.936v4.05zm10.023.051c-1.409 0-1.999-.521-1.999-1.828V268.2h-1.079v-.914h1.079v-1.771h1.142v1.771h1.498v.914h-1.498v3.872c0 .806.279 1.13.99 1.13.197 0 .305-.006.508-.025v.939a3.7 3.7 0 0 1-.641.064m2.876-8.214a.764.764 0 0 1-.762-.762c0-.419.343-.762.762-.762s.761.343.761.762a.764.764 0 0 1-.761.762m-.559 8.163v-6.843h1.105v6.843zm5.98.121c-1.956 0-3.136-1.372-3.136-3.517v-.006c0-2.114 1.206-3.561 3.066-3.561s2.989 1.383 2.989 3.427v.432h-4.925c.031 1.415.812 2.241 2.031 2.241.927 0 1.498-.438 1.682-.851l.025-.057h1.105l-.013.051c-.235.926-1.212 1.841-2.824 1.841m-.077-6.101c-1.015 0-1.79.692-1.91 1.994h3.783c-.114-1.352-.863-1.994-1.873-1.994m4.71 5.98v-6.843h1.105v1.016h.101c.261-.718.902-1.136 1.828-1.136.21 0 .445.025.553.044v1.073a4 4 0 0 0-.679-.064c-1.054 0-1.803.667-1.803 1.67v4.24zm7.51.051c-1.41 0-2-.521-2-1.828V268.2h-1.079v-.914h1.079v-1.771h1.143v1.771h1.498v.914h-1.498v3.872c0 .806.279 1.13.99 1.13.197 0 .305-.006.508-.025v.939a3.7 3.7 0 0 1-.641.064m8.474.07c-1.733 0-2.869-1.403-2.869-3.536v-.013c0-2.145 1.129-3.535 2.869-3.535.939 0 1.758.469 2.133 1.199h.101v-3.796h1.105v9.56h-1.105v-1.092h-.101c-.419.762-1.181 1.213-2.133 1.213m.254-.978c1.244 0 2.005-.978 2.005-2.558v-.013c0-1.58-.761-2.558-2.005-2.558-1.251 0-1.994.965-1.994 2.558v.013c0 1.593.743 2.558 1.994 2.558m7.998.978c-1.955 0-3.136-1.372-3.136-3.517v-.006c0-2.114 1.206-3.561 3.066-3.561s2.99 1.383 2.99 3.427v.432h-4.926c.032 1.415.812 2.241 2.031 2.241.927 0 1.498-.438 1.682-.851l.026-.057h1.104l-.013.051c-.235.926-1.212 1.841-2.824 1.841m-.077-6.101c-1.015 0-1.79.692-1.91 1.994h3.783c-.114-1.352-.863-1.994-1.873-1.994m4.71 5.98v-6.843h1.105v1.028h.101c.343-.723.984-1.148 1.994-1.148 1.536 0 2.393.907 2.393 2.532v4.431h-1.105v-4.164c0-1.232-.508-1.822-1.599-1.822-1.092 0-1.784.736-1.784 1.936v4.05zm11.388 0v-9.16h1.143v4.45h.101l4.012-4.45h1.435l-3.663 3.955 3.999 5.205h-1.479l-3.307-4.412-1.098 1.213v3.199zm9.312-8.214a.707.707 0 0 1-.704-.705c0-.38.317-.698.704-.698.381 0 .698.318.698.698a.705.705 0 0 1-.698.705m2.799 0a.706.706 0 0 1-.698-.705c0-.38.318-.698.698-.698.388 0 .705.318.705.698a.707.707 0 0 1-.705.705m-1.834 8.335c-1.555 0-2.355-.915-2.355-2.533v-4.431h1.104v4.164c0 1.232.445 1.822 1.537 1.822 1.206 0 1.847-.736 1.847-1.936v-4.05h1.104v6.843h-1.104v-1.022h-.102c-.336.73-1.028 1.143-2.031 1.143m5.3-.121v-6.843h1.105v1.028h.101c.343-.723.984-1.148 1.993-1.148 1.537 0 2.394.907 2.394 2.532v4.431h-1.105v-4.164c0-1.232-.508-1.822-1.6-1.822-1.091 0-1.783.736-1.783 1.936v4.05zm9.941.121c-1.524 0-2.571-.737-2.698-1.867h1.13c.184.572.73.946 1.606.946.92 0 1.574-.438 1.574-1.06v-.013c0-.463-.349-.787-1.193-.99l-1.06-.254c-1.283-.304-1.86-.863-1.86-1.847v-.006c0-1.137 1.092-1.993 2.545-1.993 1.435 0 2.431.717 2.584 1.834h-1.086c-.146-.54-.679-.914-1.504-.914-.813 0-1.409.419-1.409 1.022v.013c0 .463.342.755 1.149.952l1.053.254c1.289.311 1.911.869 1.911 1.847v.013c0 1.218-1.187 2.063-2.742 2.063m6.823-.07c-1.409 0-1.999-.521-1.999-1.828V268.2h-1.079v-.914h1.079v-1.771h1.143v1.771h1.498v.914h-1.498v3.872c0 .806.279 1.13.99 1.13.197 0 .304-.006.508-.025v.939a3.7 3.7 0 0 1-.642.064m2.355-.051v-9.56h1.105v9.56zm6.018.121c-1.955 0-3.136-1.372-3.136-3.517v-.006c0-2.114 1.206-3.561 3.066-3.561s2.99 1.383 2.99 3.427v.432h-4.926c.032 1.415.813 2.241 2.031 2.241.927 0 1.498-.438 1.683-.851l.025-.057h1.104l-.012.051c-.235.926-1.213 1.841-2.825 1.841m-.076-6.101c-1.016 0-1.79.692-1.911 1.994h3.783c-.114-1.352-.863-1.994-1.872-1.994m4.71 5.98v-6.843h1.104v1.016h.102c.26-.718.901-1.136 1.828-1.136.209 0 .444.025.552.044v1.073a4 4 0 0 0-.679-.064c-1.054 0-1.803.667-1.803 1.67v4.24zm-188.12 22.216c-2.627 0-4.202-1.866-4.202-4.793v-.012c0-2.939 1.613-4.787 4.203-4.787 2.602 0 4.202 1.854 4.202 4.787v.012c0 2.92-1.587 4.793-4.202 4.793m0-1.054c1.88 0 3.035-1.473 3.035-3.739v-.012c0-2.286-1.162-3.733-3.034-3.733-1.867 0-3.035 1.447-3.035 3.733v.012c0 2.266 1.13 3.739 3.035 3.739m6.107.838v-9.56h1.105v9.56zm5.104.121c-1.302 0-2.285-.788-2.285-2.032v-.012c0-1.219.9-1.924 2.494-2.019l1.962-.121v-.622c0-.844-.515-1.301-1.537-1.301-.819 0-1.358.305-1.536.838l-.006.019h-1.105l.007-.038c.178-1.073 1.218-1.796 2.678-1.796 1.67 0 2.603.856 2.603 2.278v4.685h-1.105v-1.009h-.101c-.432.73-1.149 1.13-2.07 1.13m-1.156-2.057c0 .692.59 1.098 1.384 1.098 1.124 0 1.942-.736 1.942-1.714v-.622l-1.828.114c-1.04.064-1.498.432-1.498 1.111zm6.907 1.936V290.2H48.84v-.914h1.137v-.762c0-1.364.685-2.018 1.986-2.018.267 0 .508.019.737.063v.883a3 3 0 0 0-.514-.032c-.788 0-1.105.387-1.105 1.136v.73h1.555v.914H51.08v5.929zm6.544.121c-1.555 0-2.355-.915-2.355-2.533v-4.431h1.105v4.164c0 1.232.444 1.822 1.536 1.822 1.206 0 1.847-.736 1.847-1.936v-4.05h1.104v6.843h-1.104v-1.022h-.102c-.336.73-1.028 1.143-2.031 1.143m5.3-.121v-6.843h1.105v1.016h.101c.26-.718.902-1.136 1.828-1.136.21 0 .445.025.553.044v1.073a4 4 0 0 0-.68-.064c-1.053 0-1.802.667-1.802 1.67v4.24zm8.747 0v-9.16h5.675v1.029H71.71v2.939h4.297v1.015H71.71v3.149h4.532v1.028zm7.668 0v-9.56h1.105v9.56zm3.809-8.163a.764.764 0 0 1-.762-.762c0-.419.343-.762.762-.762s.762.343.762.762a.764.764 0 0 1-.762.762m-.559 8.163v-6.843h1.105v6.843zm5.066.121c-1.302 0-2.285-.788-2.285-2.032v-.012c0-1.219.901-1.924 2.494-2.019l1.962-.121v-.622c0-.844-.514-1.301-1.536-1.301-.82 0-1.359.305-1.537.838l-.006.019H84.54l.006-.038c.178-1.073 1.219-1.796 2.679-1.796 1.67 0 2.602.856 2.602 2.278v4.685h-1.104v-1.009h-.102c-.431.73-1.149 1.13-2.07 1.13m-1.156-2.057c0 .692.59 1.098 1.384 1.098 1.124 0 1.943-.736 1.943-1.714v-.622l-1.828.114c-1.041.064-1.499.432-1.499 1.111zm8.798 2.057c-1.523 0-2.57-.737-2.697-1.867h1.13c.184.572.73.946 1.605.946.92 0 1.575-.438 1.575-1.06v-.013c0-.463-.35-.787-1.194-.99l-1.06-.254c-1.282-.304-1.86-.863-1.86-1.847v-.006c0-1.137 1.092-1.993 2.546-1.993 1.434 0 2.43.717 2.583 1.834h-1.085c-.146-.54-.68-.914-1.505-.914-.812 0-1.409.419-1.409 1.022v.013c0 .463.343.755 1.15.952l1.053.254c1.288.311 1.91.869 1.91 1.847v.013c0 1.218-1.186 2.063-2.742 2.063m6.678 0c-1.523 0-2.57-.737-2.698-1.867h1.13c.184.572.73.946 1.606.946.921 0 1.574-.438 1.574-1.06v-.013c0-.463-.349-.787-1.193-.99l-1.06-.254c-1.282-.304-1.86-.863-1.86-1.847v-.006c0-1.137 1.092-1.993 2.546-1.993 1.434 0 2.431.717 2.583 1.834h-1.085c-.146-.54-.68-.914-1.505-.914-.812 0-1.409.419-1.409 1.022v.013c0 .463.343.755 1.149.952l1.054.254c1.288.311 1.91.869 1.91 1.847v.013c0 1.218-1.187 2.063-2.742 2.063m7.268 0c-1.949 0-3.155-1.346-3.155-3.536v-.013c0-2.196 1.206-3.535 3.155-3.535s3.155 1.339 3.155 3.535v.013c0 2.19-1.206 3.536-3.155 3.536m0-.978c1.295 0 2.025-.946 2.025-2.558v-.013c0-1.618-.73-2.558-2.025-2.558s-2.025.94-2.025 2.558v.013c0 1.612.73 2.558 2.025 2.558m4.869.857v-6.843h1.104v1.028h.102c.343-.723.984-1.148 1.993-1.148 1.536 0 2.393.907 2.393 2.532v4.431h-1.104v-4.164c0-1.232-.508-1.822-1.6-1.822s-1.784.736-1.784 1.936v4.05zm11.832-8.163a.764.764 0 0 1-.762-.762c0-.419.343-.762.762-.762s.762.343.762.762a.764.764 0 0 1-.762.762m-.559 8.163v-6.843h1.105v6.843zm3.187 0v-6.843h1.104v1.041h.102c.305-.736.952-1.161 1.847-1.161.927 0 1.574.488 1.892 1.199h.101c.368-.723 1.149-1.199 2.095-1.199 1.396 0 2.177.799 2.177 2.234v4.729h-1.104v-4.475c0-1.009-.464-1.511-1.429-1.511-.952 0-1.58.717-1.58 1.587v4.399h-1.105v-4.647c0-.812-.558-1.339-1.422-1.339-.895 0-1.574.781-1.574 1.746v4.24zm18.903.216c-2.533 0-4.151-1.866-4.151-4.793v-.012c0-2.889 1.644-4.787 4.151-4.787 2.031 0 3.46 1.143 3.821 2.882l.013.064h-1.155l-.019-.064c-.375-1.18-1.295-1.828-2.66-1.828-1.815 0-2.983 1.46-2.983 3.733v.012c0 2.304 1.149 3.739 2.989 3.739 1.638 0 2.743-1.047 2.743-2.596v-.222h-2.571v-1.003h3.713v1.117c0 2.26-1.549 3.758-3.891 3.758m8.068-.095c-1.555 0-2.355-.915-2.355-2.533v-4.431h1.104v4.164c0 1.232.445 1.822 1.537 1.822 1.206 0 1.847-.736 1.847-1.936v-4.05h1.104v6.843h-1.104v-1.022h-.102c-.336.73-1.028 1.143-2.031 1.143m8.119 2.291c-1.651 0-2.704-.743-2.876-1.866l.013-.007h1.142l.007.007c.12.52.73.888 1.714.888 1.225 0 1.955-.577 1.955-1.586v-1.384h-.102c-.432.755-1.206 1.18-2.145 1.18-1.771 0-2.87-1.371-2.87-3.288v-.012c0-1.917 1.105-3.307 2.895-3.307.965 0 1.714.476 2.133 1.25h.076v-1.13h1.104v6.748c0 1.529-1.18 2.507-3.046 2.507m-.051-3.745c1.269 0 2.031-.952 2.031-2.311v-.012c0-1.359-.768-2.33-2.031-2.33-1.27 0-1.981.971-1.981 2.33v.012c0 1.359.711 2.311 1.981 2.311m7.972 3.745c-1.65 0-2.704-.743-2.875-1.866l.013-.007h1.142l.007.007c.12.52.73.888 1.713.888 1.226 0 1.956-.577 1.956-1.586v-1.384h-.102c-.432.755-1.206 1.18-2.145 1.18-1.771 0-2.87-1.371-2.87-3.288v-.012c0-1.917 1.105-3.307 2.895-3.307.965 0 1.714.476 2.133 1.25h.076v-1.13h1.104v6.748c0 1.529-1.18 2.507-3.047 2.507m-.05-3.745c1.269 0 2.031-.952 2.031-2.311v-.012c0-1.359-.768-2.33-2.031-2.33-1.27 0-1.981.971-1.981 2.33v.012c0 1.359.711 2.311 1.981 2.311m7.947 1.454c-1.955 0-3.136-1.372-3.136-3.517v-.006c0-2.114 1.206-3.561 3.066-3.561s2.99 1.383 2.99 3.427v.432h-4.926c.032 1.415.813 2.241 2.031 2.241.927 0 1.498-.438 1.682-.851l.026-.057h1.104l-.012.051c-.235.926-1.213 1.841-2.825 1.841m-.076-6.101c-1.016 0-1.79.692-1.911 1.994h3.783c-.114-1.352-.863-1.994-1.872-1.994m4.71 5.98v-6.843h1.104v1.028h.102c.343-.723.984-1.148 1.993-1.148 1.536 0 2.393.907 2.393 2.532v4.431h-1.104v-4.164c0-1.232-.508-1.822-1.6-1.822s-1.784.736-1.784 1.936v4.05zm7.655 0v-9.56h1.105v3.745h.101c.343-.723.984-1.148 1.993-1.148 1.536 0 2.393.907 2.393 2.532v4.431h-1.104v-4.164c0-1.232-.508-1.822-1.6-1.822s-1.783.736-1.783 1.936v4.05zm10.385.121c-1.955 0-3.136-1.372-3.136-3.517v-.006c0-2.114 1.206-3.561 3.066-3.561s2.99 1.383 2.99 3.427v.432h-4.926c.032 1.415.812 2.241 2.031 2.241.927 0 1.498-.438 1.682-.851l.026-.057h1.104l-.012.051c-.235.926-1.213 1.841-2.825 1.841m-.076-6.101c-1.016 0-1.79.692-1.911 1.994h3.783c-.114-1.352-.863-1.994-1.872-1.994m5.294-2.183a.764.764 0 0 1-.762-.762c0-.419.343-.762.762-.762s.761.343.761.762a.764.764 0 0 1-.761.762m-.559 8.163v-6.843h1.104v6.843zm3.187 0v-6.843H210v1.041h.102c.304-.736.952-1.161 1.847-1.161.926 0 1.574.488 1.891 1.199h.102c.368-.723 1.149-1.199 2.095-1.199 1.396 0 2.177.799 2.177 2.234v4.729h-1.105v-4.475c0-1.009-.463-1.511-1.428-1.511-.952 0-1.58.717-1.58 1.587v4.399h-1.105v-4.647c0-.812-.558-1.339-1.422-1.339-.895 0-1.574.781-1.574 1.746v4.24zm-179.728 22v-9.16h1.327l3.135 7.643h.102l3.136-7.643h1.326v9.16h-1.066v-6.995h-.07l-2.894 6.995h-.965l-2.895-6.995h-.07v6.995zm13.514.121c-1.555 0-2.355-.915-2.355-2.533v-4.431h1.105v4.164c0 1.232.444 1.822 1.536 1.822 1.206 0 1.847-.736 1.847-1.936v-4.05h1.104v6.843h-1.104v-1.022h-.102c-.336.73-1.028 1.143-2.03 1.143m7.65 0c-1.524 0-2.572-.737-2.699-1.867h1.13c.184.572.73.946 1.606.946.92 0 1.574-.438 1.574-1.06v-.013c0-.463-.349-.787-1.193-.99l-1.06-.254c-1.282-.304-1.86-.863-1.86-1.847v-.006c0-1.137 1.092-1.993 2.546-1.993 1.434 0 2.43.717 2.583 1.834h-1.086c-.145-.54-.679-.914-1.504-.914-.812 0-1.409.419-1.409 1.022v.013c0 .463.343.755 1.149.952l1.054.254c1.288.311 1.91.869 1.91 1.847v.013c0 1.218-1.187 2.063-2.742 2.063m7.248 0c-1.955 0-3.136-1.372-3.136-3.517v-.006c0-2.114 1.206-3.561 3.066-3.561s2.99 1.383 2.99 3.427v.432h-4.926c.032 1.415.813 2.241 2.032 2.241.926 0 1.497-.438 1.682-.851l.025-.057h1.104l-.012.051c-.235.926-1.213 1.841-2.825 1.841m-.076-6.101c-1.016 0-1.79.692-1.91 1.994h3.782c-.114-1.352-.863-1.994-1.872-1.994m7.001 6.101c-1.555 0-2.355-.915-2.355-2.533v-4.431h1.105v4.164c0 1.232.444 1.822 1.536 1.822 1.206 0 1.847-.736 1.847-1.936v-4.05h1.105v6.843h-1.105v-1.022h-.101c-.337.73-1.029 1.143-2.032 1.143m5.3-.121v-6.843h1.105v1.041h.102c.304-.736.952-1.161 1.847-1.161.927 0 1.574.488 1.892 1.199h.101c.368-.723 1.149-1.199 2.095-1.199 1.396 0 2.177.799 2.177 2.234v4.729h-1.105v-4.475c0-1.009-.463-1.511-1.428-1.511-.952 0-1.58.717-1.58 1.587v4.399h-1.105v-4.647c0-.812-.558-1.339-1.422-1.339-.895 0-1.574.781-1.574 1.746v4.24zm15.108 0v-9.16h3.504c1.682 0 2.71.883 2.71 2.279v.013c0 .946-.698 1.809-1.58 1.968v.101c1.25.159 2.044 1.016 2.044 2.222v.012c0 1.606-1.155 2.565-3.104 2.565zm3.263-8.15h-2.12v2.938h1.828c1.384 0 2.088-.495 2.088-1.459v-.013c0-.927-.66-1.466-1.796-1.466m.031 3.922h-2.151v3.219h2.26c1.377 0 2.1-.559 2.1-1.613v-.012c0-1.054-.748-1.594-2.209-1.594m5.694-3.935a.764.764 0 0 1-.761-.762c0-.419.342-.762.761-.762.42 0 .762.343.762.762a.764.764 0 0 1-.762.762m-.558 8.163v-6.843h1.104v6.843zm3.25 0v-9.56h1.104v9.56zm6.627.121c-.952 0-1.714-.451-2.133-1.213h-.102v1.092h-1.104v-9.56h1.104v3.796h.102c.374-.73 1.193-1.199 2.133-1.199 1.739 0 2.869 1.39 2.869 3.535v.013c0 2.133-1.136 3.536-2.869 3.536m-.254-.978c1.25 0 1.993-.965 1.993-2.558v-.013c0-1.593-.743-2.558-1.993-2.558-1.244 0-2.006.978-2.006 2.558v.013c0 1.58.762 2.558 2.006 2.558m6.716.978c-1.302 0-2.286-.788-2.286-2.032v-.012c0-1.219.902-1.924 2.495-2.019l1.962-.121v-.622c0-.844-.515-1.301-1.537-1.301-.818 0-1.358.305-1.536.838l-.006.019h-1.105l.007-.038c.178-1.073 1.219-1.796 2.678-1.796 1.67 0 2.603.856 2.603 2.278v4.685h-1.104v-1.009h-.102c-.432.73-1.149 1.13-2.069 1.13m-1.156-2.057c0 .692.591 1.098 1.384 1.098 1.124 0 1.943-.736 1.943-1.714v-.622l-1.829.114c-1.041.064-1.498.432-1.498 1.111zm9.262 2.057c-1.949 0-3.155-1.346-3.155-3.536v-.013c0-2.196 1.206-3.535 3.155-3.535s3.154 1.339 3.154 3.535v.013c0 2.19-1.206 3.536-3.154 3.536m0-.978c1.295 0 2.024-.946 2.024-2.558v-.013c0-1.618-.729-2.558-2.024-2.558s-2.025.94-2.025 2.558v.013c0 1.612.73 2.558 2.025 2.558m5.643.92a.83.83 0 0 1-.826-.825c0-.457.375-.825.826-.825.457 0 .825.368.825.825a.827.827 0 0 1-.825.825"/><path fill="#6e6e6e" d="M20 337.796a1.333 1.333 0 1 0 0 2.666 1.333 1.333 0 0 0 0-2.666"/><path fill="#141414" fill-opacity=".85" d="M29.11 343.129v-9.16h1.918v9.16zm3.955 0v-6.989h1.854v1.079h.114c.318-.755 1.01-1.231 2.006-1.231 1.555 0 2.393.952 2.393 2.621v4.52H37.58v-4.101c0-.984-.407-1.504-1.283-1.504-.856 0-1.377.616-1.377 1.561v4.044zm8.278-2.863v-1.669h4.221v1.669zm6.366 2.863v-9.16h1.917v3.72h4.126v-3.72h1.917v9.16h-1.917v-3.859h-4.126v3.859zm13.102.146c-2.152 0-3.447-1.365-3.447-3.637v-.013c0-2.253 1.314-3.637 3.447-3.637s3.447 1.377 3.447 3.637v.013c0 2.279-1.295 3.637-3.447 3.637m0-1.454c.984 0 1.549-.806 1.549-2.183v-.013c0-1.365-.571-2.184-1.549-2.184-.984 0-1.549.819-1.549 2.184v.013c0 1.377.559 2.183 1.549 2.183m7.268 1.454c-1.568 0-2.374-.952-2.374-2.615v-4.52h1.854v4.094c0 .991.374 1.505 1.25 1.505.914 0 1.41-.616 1.41-1.562v-4.037h1.853v6.989h-1.854v-1.079h-.114c-.317.762-1.028 1.225-2.025 1.225m8.633 0c-1.898 0-2.977-.851-3.11-2.05l-.007-.026h1.822l.013.026c.146.431.571.742 1.301.742.71 0 1.193-.304 1.193-.768v-.012c0-.375-.279-.61-.99-.769l-1.168-.247c-1.333-.286-1.993-.94-1.993-1.987v-.006c0-1.314 1.168-2.19 2.913-2.19 1.835 0 2.85.914 2.927 2.037v.026h-1.72l-.007-.032c-.101-.374-.514-.724-1.206-.724-.64 0-1.098.299-1.098.768v.007c0 .374.26.59.984.749l1.162.247c1.396.299 2.05.883 2.05 1.917v.007c0 1.384-1.276 2.285-3.066 2.285m7.655 0c-2.126 0-3.415-1.39-3.415-3.631v-.006c0-2.222 1.301-3.65 3.339-3.65s3.307 1.396 3.307 3.51v.578h-4.811c.019 1.149.634 1.815 1.618 1.815.813 0 1.263-.432 1.39-.698l.02-.038h1.726l-.013.063c-.216.876-1.117 2.057-3.16 2.057m-.044-5.897c-.806 0-1.403.546-1.517 1.536h3.015c-.114-1.016-.692-1.536-1.498-1.536m4.907 2.888v-1.669h4.22v1.669zm6.366 2.863v-9.16h3.777c1.93 0 3.218 1.244 3.218 3.13v.012c0 1.886-1.288 3.13-3.218 3.13h-1.86v2.888zm3.307-7.643h-1.39v3.257h1.39c1.098 0 1.746-.584 1.746-1.625v-.013c0-1.041-.648-1.619-1.746-1.619m5.269 7.643v-6.989h1.853v1.086h.115c.222-.756.857-1.2 1.764-1.2.248 0 .508.038.692.089v1.618a4 4 0 0 0-.85-.108c-1.054 0-1.721.604-1.721 1.594v3.91zm8.601.146c-2.152 0-3.447-1.365-3.447-3.637v-.013c0-2.253 1.314-3.637 3.447-3.637s3.447 1.377 3.447 3.637v.013c0 2.279-1.295 3.637-3.447 3.637m0-1.454c.984 0 1.549-.806 1.549-2.183v-.013c0-1.365-.572-2.184-1.549-2.184-.984 0-1.549.819-1.549 2.184v.013c0 1.377.559 2.183 1.549 2.183m7.452 1.416c-1.746 0-2.837-1.365-2.837-3.599v-.013c0-2.247 1.066-3.599 2.837-3.599.959 0 1.739.47 2.088 1.231h.115v-3.789h1.853v9.661h-1.853v-1.086h-.115c-.361.756-1.104 1.194-2.088 1.194m.629-1.536c.983 0 1.593-.775 1.593-2.057v-.013c0-1.282-.616-2.069-1.593-2.069-.978 0-1.581.787-1.581 2.063v.013c0 1.288.603 2.063 1.581 2.063m7.655 1.574c-1.568 0-2.374-.952-2.374-2.615v-4.52h1.853v4.094c0 .991.375 1.505 1.251 1.505.914 0 1.409-.616 1.409-1.562v-4.037h1.853v6.989h-1.853v-1.079h-.114c-.318.762-1.029 1.225-2.025 1.225m5.916-.146v-9.661h1.853v5.433h.115l2.336-2.761h2.101l-2.685 2.964 2.869 4.025h-2.19l-2.038-2.882-.508.54v2.342zm10.531.025c-1.702 0-2.387-.552-2.387-1.91v-3.707h-1.079v-1.397h1.079v-1.669h1.872v1.669h1.441v1.397h-1.441v3.281c0 .629.267.908.895.908.242 0 .369-.013.546-.032v1.378a5 5 0 0 1-.926.082m3.415-8.087a1.04 1.04 0 0 1-1.048-1.028c0-.578.476-1.035 1.048-1.035.571 0 1.041.457 1.041 1.035 0 .571-.47 1.028-1.041 1.028m-.933 8.062v-6.989h1.853v6.989zm6.823.146c-2.152 0-3.447-1.365-3.447-3.637v-.013c0-2.253 1.314-3.637 3.447-3.637s3.447 1.377 3.447 3.637v.013c0 2.279-1.295 3.637-3.447 3.637m0-1.454c.984 0 1.549-.806 1.549-2.183v-.013c0-1.365-.571-2.184-1.549-2.184-.984 0-1.549.819-1.549 2.184v.013c0 1.377.559 2.183 1.549 2.183m4.958 1.308v-6.989h1.853v1.079h.115c.317-.755 1.009-1.231 2.005-1.231 1.556 0 2.393.952 2.393 2.621v4.52h-1.853v-4.101c0-.984-.406-1.504-1.282-1.504-.857 0-1.378.616-1.378 1.561v4.044zm9.496-4.437c-.648 0-1.117-.476-1.117-1.105 0-.628.469-1.098 1.117-1.098.654 0 1.117.47 1.117 1.098s-.463 1.105-1.117 1.105m0 4.596c-.648 0-1.117-.476-1.117-1.105 0-.628.469-1.098 1.117-1.098.654 0 1.117.47 1.117 1.098s-.463 1.105-1.117 1.105m6.779-.159v-9.16h1.111l4.97 7.129h.102v-7.129h1.13v9.16h-1.111l-4.97-7.103h-.102v7.103zm12.302.121c-1.955 0-3.136-1.372-3.136-3.517v-.006c0-2.114 1.206-3.561 3.066-3.561s2.99 1.383 2.99 3.427v.432h-4.926c.032 1.415.813 2.241 2.031 2.241.927 0 1.498-.438 1.682-.851l.026-.057h1.104l-.012.051c-.235.926-1.213 1.841-2.825 1.841m-.076-6.101c-1.016 0-1.79.692-1.911 1.994h3.783c-.114-1.352-.863-1.994-1.872-1.994m5.294-2.183a.764.764 0 0 1-.762-.762c0-.419.343-.762.762-.762s.761.343.761.762a.764.764 0 0 1-.761.762m-.559 8.163v-6.843h1.105v6.843zm3.187 0v-6.843h1.104v1.028h.102c.342-.723.984-1.148 1.993-1.148 1.536 0 2.393.907 2.393 2.532v4.431h-1.105v-4.164c0-1.232-.507-1.822-1.599-1.822s-1.784.736-1.784 1.936v4.05z"/><path fill="#141414" fill-opacity=".45" d="M13.856 380.345c-2.488 0-4.043-1.841-4.043-4.786v-.013c0-2.952 1.548-4.793 4.037-4.793 1.93 0 3.434 1.213 3.707 2.971l-.007.013h-1.149l-.006-.013c-.305-1.174-1.282-1.917-2.545-1.917-1.759 0-2.863 1.447-2.863 3.739v.013c0 2.291 1.104 3.732 2.869 3.732 1.276 0 2.247-.654 2.533-1.708l.012-.012h1.156v.012c-.305 1.676-1.752 2.762-3.701 2.762m5.478-.216v-6.843h1.105v1.016h.101c.26-.718.901-1.136 1.828-1.136.21 0 .445.025.552.044v1.073a4 4 0 0 0-.679-.064c-1.053 0-1.802.667-1.802 1.67v4.24zm7.554.121c-1.955 0-3.136-1.372-3.136-3.517v-.006c0-2.114 1.206-3.561 3.066-3.561s2.99 1.383 2.99 3.427v.432h-4.926c.032 1.415.812 2.241 2.031 2.241.927 0 1.498-.438 1.682-.851l.026-.057h1.104l-.013.051c-.235.926-1.212 1.841-2.824 1.841m-.077-6.101c-1.015 0-1.79.692-1.91 1.994h3.783c-.114-1.352-.863-1.994-1.873-1.994m7.237 6.101c-1.733 0-2.87-1.403-2.87-3.536v-.013c0-2.145 1.13-3.535 2.87-3.535.94 0 1.758.469 2.133 1.199h.101v-3.796h1.105v9.56h-1.105v-1.092h-.101c-.42.762-1.181 1.213-2.133 1.213m.254-.978c1.244 0 2.006-.978 2.006-2.558v-.013c0-1.58-.762-2.558-2.006-2.558-1.25 0-1.993.965-1.993 2.558v.013c0 1.593.742 2.558 1.993 2.558m5.789-7.306a.764.764 0 0 1-.762-.762c0-.419.343-.762.762-.762s.761.343.761.762a.764.764 0 0 1-.761.762m-.559 8.163v-6.843h1.105v6.843zm5.618.051c-1.41 0-2-.521-2-1.828V374.2h-1.079v-.914h1.08v-1.771h1.142v1.771h1.498v.914h-1.498v3.872c0 .806.28 1.13.99 1.13.197 0 .305-.006.508-.025v.939a3.7 3.7 0 0 1-.641.064m3.193-4.901a.83.83 0 0 1-.825-.825c0-.457.374-.825.825-.825.457 0 .825.368.825.825a.827.827 0 0 1-.825.825m0 4.913a.83.83 0 0 1-.825-.825c0-.457.374-.825.825-.825.457 0 .825.368.825.825a.827.827 0 0 1-.825.825m9.756.153c-2.006 0-3.3-1.054-3.434-2.546l-.006-.07H55.8l.007.07c.082.914 1.034 1.492 2.355 1.492 1.244 0 2.152-.641 2.152-1.574v-.007c0-.761-.527-1.282-1.784-1.561l-1.016-.222c-1.834-.406-2.628-1.251-2.628-2.577v-.007c.007-1.517 1.333-2.59 3.225-2.59 1.828 0 3.104 1.08 3.199 2.444l.006.089h-1.142l-.013-.082c-.127-.807-.889-1.403-2.082-1.397-1.142.006-2.025.546-2.025 1.505v.006c0 .73.502 1.225 1.746 1.498l1.015.228c1.911.426 2.666 1.194 2.666 2.514v.006c0 1.714-1.339 2.781-3.383 2.781m7.96-.095c-1.949 0-3.155-1.346-3.155-3.536v-.013c0-2.196 1.206-3.535 3.155-3.535s3.155 1.339 3.155 3.535v.013c0 2.19-1.206 3.536-3.155 3.536m0-.978c1.295 0 2.025-.946 2.025-2.558v-.013c0-1.618-.73-2.558-2.025-2.558s-2.025.94-2.025 2.558v.013c0 1.612.73 2.558 2.025 2.558m4.869.857v-6.843h1.104v1.016h.102c.26-.718.901-1.136 1.828-1.136.21 0 .444.025.552.044v1.073a4 4 0 0 0-.679-.064c-1.054 0-1.803.667-1.803 1.67v4.24zm7.553.121c-1.955 0-3.135-1.372-3.135-3.517v-.006c0-2.114 1.206-3.561 3.066-3.561s2.99 1.383 2.99 3.427v.432h-4.926c.031 1.415.812 2.241 2.03 2.241.928 0 1.499-.438 1.683-.851l.025-.057h1.105l-.013.051c-.235.926-1.212 1.841-2.825 1.841m-.076-6.101c-1.015 0-1.79.692-1.91 1.994h3.783c-.114-1.352-.863-1.994-1.873-1.994m4.71 5.98v-6.843h1.105v1.028h.101c.343-.723.984-1.148 1.993-1.148 1.537 0 2.394.907 2.394 2.532v4.431h-1.105v-4.164c0-1.232-.508-1.822-1.6-1.822-1.091 0-1.783.736-1.783 1.936v4.05zm11.388 0v-9.16h3.453c1.72 0 2.939 1.187 2.939 2.927v.012c0 1.739-1.219 2.952-2.939 2.952h-2.31v3.269zm3.161-8.144h-2.019v3.859h2.02c1.307 0 2.062-.717 2.062-1.923v-.013c0-1.206-.755-1.923-2.063-1.923m7.566 8.265c-1.955 0-3.135-1.372-3.135-3.517v-.006c0-2.114 1.206-3.561 3.066-3.561s2.989 1.383 2.989 3.427v.432h-4.925c.031 1.415.812 2.241 2.031 2.241.927 0 1.498-.438 1.682-.851l.025-.057h1.105l-.013.051c-.235.926-1.212 1.841-2.825 1.841m-.076-6.101c-1.015 0-1.79.692-1.91 1.994h3.783c-.114-1.352-.863-1.994-1.873-1.994m7.141 6.031c-1.409 0-1.999-.521-1.999-1.828V374.2h-1.079v-.914h1.079v-1.771h1.142v1.771h1.499v.914h-1.499v3.872c0 .806.28 1.13.991 1.13.196 0 .304-.006.508-.025v.939a3.7 3.7 0 0 1-.642.064m4.983.07c-1.955 0-3.135-1.372-3.135-3.517v-.006c0-2.114 1.206-3.561 3.065-3.561 1.86 0 2.99 1.383 2.99 3.427v.432h-4.926c.032 1.415.813 2.241 2.032 2.241.926 0 1.498-.438 1.682-.851l.025-.057h1.105l-.013.051c-.235.926-1.212 1.841-2.825 1.841m-.076-6.101c-1.015 0-1.79.692-1.91 1.994h3.783c-.115-1.352-.864-1.994-1.873-1.994m4.71 5.98v-6.843h1.105v1.016h.101c.26-.718.902-1.136 1.828-1.136.21 0 .445.025.553.044v1.073a4 4 0 0 0-.68-.064c-1.053 0-1.802.667-1.802 1.67v4.24zm7.173.121c-1.523 0-2.571-.737-2.698-1.867h1.13c.184.572.73.946 1.606.946.92 0 1.574-.438 1.574-1.06v-.013c0-.463-.349-.787-1.193-.99l-1.06-.254c-1.282-.304-1.86-.863-1.86-1.847v-.006c0-1.137 1.092-1.993 2.545-1.993 1.435 0 2.432.717 2.584 1.834h-1.086c-.146-.54-.679-.914-1.504-.914-.812 0-1.409.419-1.409 1.022v.013c0 .463.343.755 1.149.952l1.054.254c1.288.311 1.91.869 1.91 1.847v.013c0 1.218-1.187 2.063-2.742 2.063m7.249 0c-1.955 0-3.136-1.372-3.136-3.517v-.006c0-2.114 1.206-3.561 3.066-3.561s2.99 1.383 2.99 3.427v.432h-4.926c.032 1.415.813 2.241 2.031 2.241.927 0 1.498-.438 1.683-.851l.025-.057h1.104l-.012.051c-.235.926-1.213 1.841-2.825 1.841m-.076-6.101c-1.016 0-1.79.692-1.911 1.994h3.783c-.114-1.352-.863-1.994-1.872-1.994m4.71 5.98v-6.843h1.104v1.028h.102c.343-.723.984-1.148 1.993-1.148 1.536 0 2.393.907 2.393 2.532v4.431h-1.104v-4.164c0-1.232-.508-1.822-1.6-1.822s-1.784.736-1.784 1.936v4.05zm7.312 2.329.553-3.611h1.263l-.997 3.611zm7.205-2.329 3.377-9.16h1.13l3.377 9.16h-1.2l-.92-2.622h-3.644l-.92 2.622zm3.891-7.681-1.435 4.088h2.971l-1.434-4.088zm5.599 7.681v-9.16h3.453c1.72 0 2.939 1.187 2.939 2.927v.012c0 1.739-1.219 2.952-2.939 2.952h-2.311v3.269zm3.161-8.144h-2.019v3.859h2.019c1.307 0 2.063-.717 2.063-1.923v-.013c0-1.206-.756-1.923-2.063-1.923"/><path fill="#f0f0f0" d="M252.5 9.5v137.129H9.5V9.5z"/><path stroke="#e3e3e3" d="M252.5 9.5v137.129H9.5V9.5z"/><path fill="url(#b)" d="M0 0h242v136.129H0z" transform="translate(10 10)"/><rect width="29" height="29" x="146.5" y="108.5" fill="#fff" rx="14.5"/><rect width="29" height="29" x="146.5" y="108.5" stroke="#e3e3e3" rx="14.5"/><path fill="#6e6e6e" d="M166.807 119.693a.664.664 0 0 0 0-.94l-1.56-1.56a.664.664 0 0 0-.94 0l-1.227 1.22 2.5 2.5zM155 126.5v2.5h2.5l7.373-7.38-2.5-2.5z"/><rect width="29" height="29" x="180.5" y="108.5" fill="#fff" rx="14.5"/><rect width="29" height="29" x="180.5" y="108.5" stroke="#e3e3e3" rx="14.5"/><path fill="#6e6e6e" d="M198.333 129.667v-1.334h2v-2h1.333v2.334c0 .26-.106.493-.306.693s-.434.307-.694.307zm-6.667 0h-2.333a.96.96 0 0 1-.693-.307.96.96 0 0 1-.307-.693v-2.334h1.333v2h2zm6.667-13.334h2.333c.26 0 .494.107.694.307s.306.433.306.693v2.334h-1.333v-2h-2zm-6.667 0v1.334h-2v2h-1.333v-2.334c0-.26.107-.493.307-.693s.433-.307.693-.307zM194 119c1.666 0 3 1.333 3 3 0 .587-.167 1.133-.46 1.6l2.173 2.173-.94.94-2.173-2.173a3 3 0 0 1-1.6.46c-1.667 0-3-1.333-3-3s1.333-3 3-3m0 1.333a1.668 1.668 0 0 0 0 3.334 1.667 1.667 0 0 0 0-3.334"/><rect width="29" height="29" x="214.5" y="108.5" fill="#fff" rx="14.5"/><rect width="29" height="29" x="214.5" y="108.5" stroke="#e3e3e3" rx="14.5"/><path fill="#6e6e6e" d="M229 125.667a1.333 1.333 0 1 1 .002 2.665 1.333 1.333 0 0 1-.002-2.665m0-4a1.333 1.333 0 1 1 .002 2.665 1.333 1.333 0 0 1-.002-2.665m0-4a1.333 1.333 0 1 1 .002 2.665 1.333 1.333 0 0 1-.002-2.665"/></g><defs><clipPath id="a"><path fill="#fff" d="M0 0h262v395H0z"/></clipPath><pattern id="b" width="1" height="1" patternContentUnits="objectBoundingBox"><use xlink:href="#c" transform="matrix(.00215 0 0 .00382 -.013 0)"/></pattern><image xlink:href="stage-1.embedded-image.jpg" id="c" width="478" height="262" preserveAspectRatio="none"/></defs></svg>