<svg width="314" height="74" viewBox="0 0 314 74" fill="none" xmlns="http://www.w3.org/2000/svg">
<g clip-path="url(#clip0_4482_44602)">
<g filter="url(#filter0_d_4482_44602)">
<g clip-path="url(#clip1_4482_44602)">
<g filter="url(#filter1_d_4482_44602)">
<rect x="6" y="6" width="302" height="62" rx="2" fill="white"/>
<rect x="6.5" y="6.5" width="301" height="61" rx="1.5" stroke="#D6D6D6"/>
<g clip-path="url(#clip2_4482_44602)">
<rect width="60" height="60" transform="translate(7 7)" fill="#F8F8F8"/>
<g clip-path="url(#clip3_4482_44602)">
<rect width="30" height="30" transform="matrix(1 0 -0.00820296 0.999966 21.877 21.9995)" fill="white"/>
<mask id="mask0_4482_44602" style="mask-type:alpha" maskUnits="userSpaceOnUse" x="21" y="21" width="31" height="31">
<rect x="0.495899" y="0.499983" width="29" height="29" transform="matrix(1 0 -0.00820296 0.999966 21.8811 21.9995)" fill="#F8F8F8" stroke="#B8B8B8"/>
</mask>
<g mask="url(#mask0_4482_44602)">
<circle cx="4" cy="4" r="3.5" transform="matrix(1 0 -0.00820296 0.999966 38.1631 27.666)" fill="#FFEBAD" stroke="#FFCF30"/>
<rect x="28.1632" y="55.9288" width="16.3146" height="16.1732" rx="2.5" transform="rotate(-44.765 28.1632 55.9288)" fill="#C7CCFF" stroke="#636FF7"/>
<rect x="16.7452" y="50.3909" width="16.3146" height="23.1475" rx="2.5" transform="rotate(-44.765 16.7452 50.3909)" fill="#C7CCFF" stroke="#636FF7"/>
</g>
<rect x="0.495899" y="0.499983" width="29" height="29" transform="matrix(1 0 -0.00820296 0.999966 21.8811 21.9995)" stroke="#636FF7"/>
</g>
</g>
<path d="M80.2578 31V21.1357H81.4883V31H80.2578ZM83.8535 31V23.6309H85.043V24.752H85.1523C85.4805 23.959 86.1777 23.501 87.1416 23.501C88.1396 23.501 88.8369 24.0273 89.1787 24.793H89.2881C89.6846 24.0137 90.5254 23.501 91.5439 23.501C93.0479 23.501 93.8887 24.3623 93.8887 25.9072V31H92.6992V26.1807C92.6992 25.0938 92.2002 24.5537 91.1611 24.5537C90.1357 24.5537 89.459 25.3262 89.459 26.2627V31H88.2695V25.9961C88.2695 25.1211 87.668 24.5537 86.7383 24.5537C85.7744 24.5537 85.043 25.3945 85.043 26.4336V31H83.8535ZM98.0586 31.1299C96.6572 31.1299 95.5977 30.2822 95.5977 28.9424V28.9287C95.5977 27.6162 96.5684 26.8574 98.2842 26.7549L100.396 26.625V25.9551C100.396 25.0459 99.8428 24.5537 98.7422 24.5537C97.8604 24.5537 97.2793 24.8818 97.0879 25.4561L97.0811 25.4766H95.8916L95.8984 25.4355C96.0898 24.2803 97.2109 23.501 98.7832 23.501C100.581 23.501 101.586 24.4238 101.586 25.9551V31H100.396V29.9131H100.287C99.8223 30.6992 99.0498 31.1299 98.0586 31.1299ZM96.8145 28.915C96.8145 29.6602 97.4502 30.0977 98.3047 30.0977C99.5146 30.0977 100.396 29.3047 100.396 28.252V27.582L98.4277 27.7051C97.3066 27.7734 96.8145 28.1699 96.8145 28.9014V28.915ZM106.795 33.5977C105.018 33.5977 103.883 32.7979 103.698 31.5879L103.712 31.5811H104.942L104.949 31.5879C105.079 32.1484 105.735 32.5449 106.795 32.5449C108.114 32.5449 108.9 31.9229 108.9 30.8359V29.3457H108.791C108.326 30.1592 107.492 30.6172 106.48 30.6172C104.573 30.6172 103.391 29.1406 103.391 27.0762V27.0625C103.391 24.998 104.58 23.501 106.508 23.501C107.547 23.501 108.354 24.0137 108.805 24.8477H108.887V23.6309H110.076V30.8975C110.076 32.5449 108.805 33.5977 106.795 33.5977ZM106.74 29.5645C108.107 29.5645 108.928 28.5391 108.928 27.0762V27.0625C108.928 25.5996 108.101 24.5537 106.74 24.5537C105.373 24.5537 104.607 25.5996 104.607 27.0625V27.0762C104.607 28.5391 105.373 29.5645 106.74 29.5645ZM115.299 31.1299C113.193 31.1299 111.922 29.6533 111.922 27.3428V27.3359C111.922 25.0596 113.221 23.501 115.224 23.501C117.227 23.501 118.443 24.9912 118.443 27.1924V27.6572H113.139C113.173 29.1816 114.014 30.0703 115.326 30.0703C116.324 30.0703 116.939 29.5986 117.138 29.1543L117.165 29.0928H118.354L118.341 29.1475C118.088 30.1455 117.035 31.1299 115.299 31.1299ZM115.217 24.5605C114.123 24.5605 113.289 25.3057 113.159 26.707H117.233C117.11 25.251 116.304 24.5605 115.217 24.5605Z" fill="#141414" fill-opacity="0.85"/>
<path d="M82.0659 53L79.5713 43.8403H80.7646L82.5864 51.2861H82.6626L84.7129 43.8403H85.8682L87.9185 51.2861H87.9946L89.8164 43.8403H91.0098L88.5151 53H87.436L85.3286 45.77H85.2524L83.145 53H82.0659ZM93.1934 44.8369C92.7744 44.8369 92.4316 44.4941 92.4316 44.0752C92.4316 43.6562 92.7744 43.3135 93.1934 43.3135C93.6123 43.3135 93.9551 43.6562 93.9551 44.0752C93.9551 44.4941 93.6123 44.8369 93.1934 44.8369ZM92.6348 53V46.1572H93.7393V53H92.6348ZM98.2524 53.0508C96.8433 53.0508 96.2529 52.5303 96.2529 51.2227V47.0713H95.1738V46.1572H96.2529V44.3862H97.3955V46.1572H98.8936V47.0713H97.3955V50.9434C97.3955 51.7495 97.6748 52.0732 98.3857 52.0732C98.5825 52.0732 98.6904 52.0669 98.8936 52.0479V52.9873C98.6777 53.0254 98.4683 53.0508 98.2524 53.0508ZM100.607 53V43.4404H101.712V47.1855H101.813C102.156 46.4619 102.797 46.0366 103.807 46.0366C105.343 46.0366 106.2 46.9443 106.2 48.5693V53H105.095V48.8359C105.095 47.6045 104.587 47.0142 103.496 47.0142C102.404 47.0142 101.712 47.7505 101.712 48.9502V53H100.607ZM114.667 53.1206C112.719 53.1206 111.513 51.7749 111.513 49.585V49.5723C111.513 47.376 112.719 46.0366 114.667 46.0366C116.616 46.0366 117.822 47.376 117.822 49.5723V49.585C117.822 51.7749 116.616 53.1206 114.667 53.1206ZM114.667 52.1431C115.962 52.1431 116.692 51.1973 116.692 49.585V49.5723C116.692 47.9536 115.962 47.0142 114.667 47.0142C113.373 47.0142 112.643 47.9536 112.643 49.5723V49.585C112.643 51.1973 113.373 52.1431 114.667 52.1431ZM119.536 55.2852V46.1572H120.641V47.249H120.742C121.161 46.4873 121.923 46.0366 122.875 46.0366C124.608 46.0366 125.744 47.4395 125.744 49.5723V49.585C125.744 51.7305 124.614 53.1206 122.875 53.1206C121.936 53.1206 121.117 52.6509 120.742 51.9209H120.641V55.2852H119.536ZM122.621 52.1431C123.872 52.1431 124.614 51.1782 124.614 49.585V49.5723C124.614 47.979 123.872 47.0142 122.621 47.0142C121.377 47.0142 120.615 47.9917 120.615 49.5723V49.585C120.615 51.1655 121.377 52.1431 122.621 52.1431ZM129.902 53.0508C128.493 53.0508 127.902 52.5303 127.902 51.2227V47.0713H126.823V46.1572H127.902V44.3862H129.045V46.1572H130.543V47.0713H129.045V50.9434C129.045 51.7495 129.324 52.0732 130.035 52.0732C130.232 52.0732 130.34 52.0669 130.543 52.0479V52.9873C130.327 53.0254 130.118 53.0508 129.902 53.0508ZM132.777 44.8369C132.358 44.8369 132.016 44.4941 132.016 44.0752C132.016 43.6562 132.358 43.3135 132.777 43.3135C133.196 43.3135 133.539 43.6562 133.539 44.0752C133.539 44.4941 133.196 44.8369 132.777 44.8369ZM132.219 53V46.1572H133.323V53H132.219ZM138.217 53.1206C136.269 53.1206 135.062 51.7749 135.062 49.585V49.5723C135.062 47.376 136.269 46.0366 138.217 46.0366C140.166 46.0366 141.372 47.376 141.372 49.5723V49.585C141.372 51.7749 140.166 53.1206 138.217 53.1206ZM138.217 52.1431C139.512 52.1431 140.242 51.1973 140.242 49.585V49.5723C140.242 47.9536 139.512 47.0142 138.217 47.0142C136.922 47.0142 136.192 47.9536 136.192 49.5723V49.585C136.192 51.1973 136.922 52.1431 138.217 52.1431ZM143.086 53V46.1572H144.19V47.1855H144.292C144.635 46.4619 145.276 46.0366 146.285 46.0366C147.821 46.0366 148.678 46.9443 148.678 48.5693V53H147.574V48.8359C147.574 47.6045 147.066 47.0142 145.974 47.0142C144.882 47.0142 144.19 47.7505 144.19 48.9502V53H143.086ZM152.557 53.1206C151.255 53.1206 150.271 52.3335 150.271 51.0894V51.0767C150.271 49.8579 151.173 49.1533 152.766 49.0581L154.728 48.9375V48.3154C154.728 47.4712 154.213 47.0142 153.191 47.0142C152.373 47.0142 151.833 47.3188 151.655 47.8521L151.649 47.8711H150.544L150.551 47.833C150.729 46.7603 151.77 46.0366 153.229 46.0366C154.899 46.0366 155.832 46.8936 155.832 48.3154V53H154.728V51.9907H154.626C154.194 52.7207 153.477 53.1206 152.557 53.1206ZM151.401 51.064C151.401 51.7559 151.992 52.1621 152.785 52.1621C153.909 52.1621 154.728 51.4258 154.728 50.4482V49.8262L152.899 49.9404C151.858 50.0039 151.401 50.3721 151.401 51.0513V51.064ZM157.914 53V43.4404H159.019V53H157.914ZM167.594 53.1206C165.677 53.1206 164.452 51.7305 164.452 49.5596V49.5469C164.452 47.4204 165.671 46.0366 167.588 46.0366C169.251 46.0366 170.248 46.9951 170.451 48.2139L170.457 48.252H169.359L169.353 48.2329C169.181 47.5601 168.572 47.0142 167.588 47.0142C166.356 47.0142 165.582 48.0044 165.582 49.5469V49.5596C165.582 51.1338 166.369 52.1431 167.588 52.1431C168.508 52.1431 169.092 51.7368 169.346 50.9751L169.359 50.937L170.451 50.9307L170.438 51.0005C170.159 52.2383 169.238 53.1206 167.594 53.1206ZM173.948 53.1206C172.647 53.1206 171.663 52.3335 171.663 51.0894V51.0767C171.663 49.8579 172.564 49.1533 174.158 49.0581L176.119 48.9375V48.3154C176.119 47.4712 175.605 47.0142 174.583 47.0142C173.764 47.0142 173.225 47.3188 173.047 47.8521L173.041 47.8711H171.936L171.942 47.833C172.12 46.7603 173.161 46.0366 174.621 46.0366C176.291 46.0366 177.224 46.8936 177.224 48.3154V53H176.119V51.9907H176.018C175.586 52.7207 174.869 53.1206 173.948 53.1206ZM172.793 51.064C172.793 51.7559 173.383 52.1621 174.177 52.1621C175.3 52.1621 176.119 51.4258 176.119 50.4482V49.8262L174.291 49.9404C173.25 50.0039 172.793 50.3721 172.793 51.0513V51.064ZM179.242 55.2852V46.1572H180.347V47.249H180.448C180.867 46.4873 181.629 46.0366 182.581 46.0366C184.314 46.0366 185.45 47.4395 185.45 49.5723V49.585C185.45 51.7305 184.32 53.1206 182.581 53.1206C181.642 53.1206 180.823 52.6509 180.448 51.9209H180.347V55.2852H179.242ZM182.327 52.1431C183.578 52.1431 184.32 51.1782 184.32 49.585V49.5723C184.32 47.979 183.578 47.0142 182.327 47.0142C181.083 47.0142 180.321 47.9917 180.321 49.5723V49.585C180.321 51.1655 181.083 52.1431 182.327 52.1431ZM189.608 53.0508C188.199 53.0508 187.608 52.5303 187.608 51.2227V47.0713H186.529V46.1572H187.608V44.3862H188.751V46.1572H190.249V47.0713H188.751V50.9434C188.751 51.7495 189.03 52.0732 189.741 52.0732C189.938 52.0732 190.046 52.0669 190.249 52.0479V52.9873C190.033 53.0254 189.824 53.0508 189.608 53.0508ZM192.483 44.8369C192.064 44.8369 191.722 44.4941 191.722 44.0752C191.722 43.6562 192.064 43.3135 192.483 43.3135C192.902 43.3135 193.245 43.6562 193.245 44.0752C193.245 44.4941 192.902 44.8369 192.483 44.8369ZM191.925 53V46.1572H193.029V53H191.925ZM197.923 53.1206C195.975 53.1206 194.769 51.7749 194.769 49.585V49.5723C194.769 47.376 195.975 46.0366 197.923 46.0366C199.872 46.0366 201.078 47.376 201.078 49.5723V49.585C201.078 51.7749 199.872 53.1206 197.923 53.1206ZM197.923 52.1431C199.218 52.1431 199.948 51.1973 199.948 49.585V49.5723C199.948 47.9536 199.218 47.0142 197.923 47.0142C196.628 47.0142 195.898 47.9536 195.898 49.5723V49.585C195.898 51.1973 196.628 52.1431 197.923 52.1431ZM202.792 53V46.1572H203.896V47.1855H203.998C204.341 46.4619 204.982 46.0366 205.991 46.0366C207.527 46.0366 208.384 46.9443 208.384 48.5693V53H207.28V48.8359C207.28 47.6045 206.772 47.0142 205.68 47.0142C204.588 47.0142 203.896 47.7505 203.896 48.9502V53H202.792Z" fill="#141414" fill-opacity="0.45"/>
</g>
</g>
<rect x="7" y="7" width="300" height="60" rx="9" stroke="#DE3E73" stroke-width="2" shape-rendering="crispEdges"/>
</g>
</g>
<defs>
<filter id="filter0_d_4482_44602" x="0" y="1" width="314" height="74" filterUnits="userSpaceOnUse" color-interpolation-filters="sRGB">
<feFlood flood-opacity="0" result="BackgroundImageFix"/>
<feColorMatrix in="SourceAlpha" type="matrix" values="0 0 0 0 0 0 0 0 0 0 0 0 0 0 0 0 0 0 127 0" result="hardAlpha"/>
<feOffset dy="1"/>
<feGaussianBlur stdDeviation="3"/>
<feComposite in2="hardAlpha" operator="out"/>
<feColorMatrix type="matrix" values="0 0 0 0 0 0 0 0 0 0 0 0 0 0 0 0 0 0 0.12 0"/>
<feBlend mode="normal" in2="BackgroundImageFix" result="effect1_dropShadow_4482_44602"/>
<feBlend mode="normal" in="SourceGraphic" in2="effect1_dropShadow_4482_44602" result="shape"/>
</filter>
<filter id="filter1_d_4482_44602" x="1" y="2" width="312" height="72" filterUnits="userSpaceOnUse" color-interpolation-filters="sRGB">
<feFlood flood-opacity="0" result="BackgroundImageFix"/>
<feColorMatrix in="SourceAlpha" type="matrix" values="0 0 0 0 0 0 0 0 0 0 0 0 0 0 0 0 0 0 127 0" result="hardAlpha"/>
<feOffset dy="1"/>
<feGaussianBlur stdDeviation="2.5"/>
<feComposite in2="hardAlpha" operator="out"/>
<feColorMatrix type="matrix" values="0 0 0 0 0.0784314 0 0 0 0 0.0784314 0 0 0 0 0.0784314 0 0 0 0.12 0"/>
<feBlend mode="normal" in2="BackgroundImageFix" result="effect1_dropShadow_4482_44602"/>
<feBlend mode="normal" in="SourceGraphic" in2="effect1_dropShadow_4482_44602" result="shape"/>
</filter>
<clipPath id="clip0_4482_44602">
<rect width="314" height="74" fill="white"/>
</clipPath>
<clipPath id="clip1_4482_44602">
<rect x="6" y="6" width="302" height="62" rx="10" fill="white"/>
</clipPath>
<clipPath id="clip2_4482_44602">
<rect width="60" height="60" fill="white" transform="translate(7 7)"/>
</clipPath>
<clipPath id="clip3_4482_44602">
<rect width="60" height="60" fill="white" transform="translate(7 7)"/>
</clipPath>
</defs>
</svg>
