<svg xmlns="http://www.w3.org/2000/svg" xmlns:xlink="http://www.w3.org/1999/xlink" width="758" height="866" fill="none" viewBox="0 0 758 866"><g clip-path="url(#a)"><mask id="q" fill="#fff"><path d="M0 0h758v866H0z"/></mask><g clip-path="url(#b)"><path fill="#fff" d="M0 24C0 10.745 10.745 0 24 0h1242c13.25 0 24 10.745 24 24v872c0 13.255-10.75 24-24 24H24c-13.255 0-24-10.745-24-24z"/><mask id="c" fill="#fff"><path d="M0 0h1290v114H0z"/></mask><path fill="#fff" d="M0 0h1290v114H0z"/><path fill="#e3e3e3" d="M1290 114v-1H0v2h1290z" mask="url(#c)"/><path fill="#fff" d="M0 0h1290v113H0z"/><path fill="#13a463" d="M18 12c-2.75 0-5 2.25-5 5s2.25 5 5 5 5-2.25 5-5-2.25-5-5-5m-1 7.5L14.5 17l.705-.705L17 18.085l3.795-3.795.705.71z"/><text xml:space="preserve" fill="#141414" fill-opacity=".45" font-family="SF Pro Text" font-size="11" letter-spacing="0" style="white-space:pre"><tspan x="27" y="21.41">saved</tspan></text><text xml:space="preserve" fill="#141414" fill-opacity=".85" font-family="SF Pro Text" font-size="14" font-weight="600" letter-spacing="0" style="white-space:pre"><tspan x="454.455" y="50.977">Through the Spectrum: A Circle of Light and Perception</tspan></text><rect width="35" height="35" x="12.5" y="69.5" fill="#fff" rx="17.5"/><rect width="35" height="35" x="12.5" y="69.5" stroke="#e3e3e3" rx="17.5"/><path fill="#6e6e6e" d="M32.842 90.817 29.025 87l3.817-3.825L31.667 82l-5 5 5 5z"/><g style="mix-blend-mode:darken"><mask id="d" fill="#fff"><path d="M60 73a4 4 0 0 1 4-4h68v36H64a4 4 0 0 1-4-4z"/></mask><path fill="#fff" d="M60 73a4 4 0 0 1 4-4h68v36H64a4 4 0 0 1-4-4z"/><path fill="#f0f0f0" d="M59 73a5 5 0 0 1 5-5h68v2H64a3 3 0 0 0-3 3zm73 33H64a5 5 0 0 1-5-5h2a3 3 0 0 0 3 3h68zm-68 0a5 5 0 0 1-5-5V73a5 5 0 0 1 5-5v2a3 3 0 0 0-3 3v28a3 3 0 0 0 3 3zm68-37v36z" mask="url(#d)"/><path fill="#6e6e6e" d="M90.667 76v6.667H94V80a1.333 1.333 0 0 1 1.333-1.333h3.334A1.333 1.333 0 0 1 100 80v2.667h1.333V76zM88 85.333V84h2.667a1.333 1.333 0 0 1-1.334-1.333V76a1.333 1.333 0 0 1 1.334-1.333h10.666A1.333 1.333 0 0 1 102.667 76v6.667A1.334 1.334 0 0 1 101.333 84H104v1.333h-4c0 .74-.6 1.334-1.333 1.334h-3.334A1.333 1.333 0 0 1 94 85.333zm7.667 0a.333.333 0 1 0 0 .667.333.333 0 0 0 0-.667m2.666 0a.333.333 0 1 0 0 .667.333.333 0 0 0 0-.667m-1.666 0V86h.666v-.667zM95.333 80v4.667h3.334V80z"/><text xml:space="preserve" fill="#6e6e6e" font-family="SF Pro Text" font-size="10" font-weight="600" letter-spacing="0" style="white-space:pre"><tspan x="73.188" y="99.055">PREVIEW</tspan></text></g><g style="mix-blend-mode:darken"><mask id="e" fill="#fff"><path d="M131 69h72v36h-72z"/></mask><path fill="#fff" d="M131 69h72v36h-72z"/><path fill="#f0f0f0" d="M131 69v1h72v-2h-72zm72 36v-1h-72v2h72z" mask="url(#e)"/><path fill="#6e6e6e" d="M168 77.333h-1v3.334l2.854 1.693.48-.807L168 80.167zM167.667 74a6 6 0 0 0-6 6h-2l2.64 2.687L165 80h-2a4.667 4.667 0 1 1 4.667 4.667 4.63 4.63 0 0 1-3.293-1.374l-.947.947a5.93 5.93 0 0 0 4.24 1.76 6 6 0 0 0 6-6 6 6 0 0 0-6-6"/><text xml:space="preserve" fill="#6e6e6e" font-family="SF Pro Text" font-size="10" font-weight="600" letter-spacing="0" style="white-space:pre"><tspan x="144.588" y="99.055">HISTORY</tspan></text></g><g style="mix-blend-mode:darken"><mask id="f" fill="#fff"><path d="M202 69h68a4 4 0 0 1 4 4v28a4 4 0 0 1-4 4h-68z"/></mask><path fill="#fff" d="M202 69h68a4 4 0 0 1 4 4v28a4 4 0 0 1-4 4h-68z"/><path fill="#f0f0f0" d="M202 68h68a5 5 0 0 1 5 5h-2a3 3 0 0 0-3-3h-68zm73 33a5 5 0 0 1-5 5h-68v-2h68a3 3 0 0 0 3-3zm-73 4V69zm68-37a5 5 0 0 1 5 5v28a5 5 0 0 1-5 5v-2a3 3 0 0 0 3-3V73a3 3 0 0 0-3-3z" mask="url(#f)"/><g clip-path="url(#g)"><path fill="#6e6e6e" d="M238 87.333a.667.667 0 0 1-.666-.666v-2h-2.667a1.333 1.333 0 0 1-1.333-1.334v-6.666c0-.74.6-1.334 1.333-1.334H244a1.333 1.333 0 0 1 1.334 1.334v6.666A1.334 1.334 0 0 1 244 84.667h-2.733L238.8 87.14a.68.68 0 0 1-.466.193zm.667-4v2.054l2.053-2.054H244v-6.666h-9.333v6.666zM232 82h-1.333v-8A1.33 1.33 0 0 1 232 72.667h10.667V74H232z"/></g><text xml:space="preserve" fill="#6e6e6e" font-family="SF Pro Text" font-size="10" font-weight="600" letter-spacing="0" style="white-space:pre"><tspan x="208.073" y="99.055">COMMENTS</tspan></text><g clip-path="url(#h)"><path fill="#6e6e6e" d="M241 67.5a7.5 7.5 0 1 1 15 0 7.5 7.5 0 0 1-15 0"/><text xml:space="preserve" fill="#fff" font-family="SF Pro Text" font-size="10" font-weight="600" letter-spacing=".4" style="white-space:pre"><tspan x="245.229" y="71.055">3</tspan></text></g></g><g style="mix-blend-mode:darken"><mask id="i" fill="#fff"><path d="M339 73a4 4 0 0 1 4-4h68v36h-68a4 4 0 0 1-4-4z"/></mask><path fill="#fff" d="M339 73a4 4 0 0 1 4-4h68v36h-68a4 4 0 0 1-4-4z"/><path fill="#f0f0f0" d="M338 73a5 5 0 0 1 5-5h68v2h-68a3 3 0 0 0-3 3zm73 33h-68a5 5 0 0 1-5-5h2a3 3 0 0 0 3 3h68zm-68 0a5 5 0 0 1-5-5V73a5 5 0 0 1 5-5v2a3 3 0 0 0-3 3v28a3 3 0 0 0 3 3zm68-37v36z" mask="url(#i)"/><path fill="#6e6e6e" d="M378.333 78h-6.666v-1.333h6.666zm0 2.667h-6.666v-1.334h6.666zm-2 2.666h-4.666V82h4.666zM375 74a.665.665 0 0 1 .471 1.138.665.665 0 1 1-.942-.943A.67.67 0 0 1 375 74m4.667 0h-2.787a2.01 2.01 0 0 0-1.88-1.333c-.867 0-1.6.56-1.88 1.333h-2.787A1.333 1.333 0 0 0 369 75.333v9.334A1.33 1.33 0 0 0 370.333 86h9.334A1.333 1.333 0 0 0 381 84.667v-9.334A1.33 1.33 0 0 0 379.667 74"/><text xml:space="preserve" fill="#6e6e6e" font-family="SF Pro Text" font-size="10" font-weight="600" letter-spacing="0" style="white-space:pre"><tspan x="358.638" y="99.055">TASKS</tspan></text></g><g style="mix-blend-mode:darken"><mask id="j" fill="#fff"><path d="M410 69h72v36h-72z"/></mask><path fill="#fff" d="M410 69h72v36h-72z"/><path fill="#f0f0f0" d="M410 69v1h72v-2h-72zm72 36v-1h-72v2h72z" mask="url(#j)"/><path fill="#6e6e6e" d="M445.333 83.333h-4.667A1.33 1.33 0 0 1 439.333 82v-8a1.33 1.33 0 0 1 1.333-1.333h8V74h-8v8h4.667v-1.333l2.667 2-2.667 2zM450.666 86v-9.333h-7.333v4H442v-4a1.333 1.333 0 0 1 1.333-1.334h7.333A1.333 1.333 0 0 1 452 76.667V86a1.334 1.334 0 0 1-1.334 1.333h-7.333A1.333 1.333 0 0 1 442 86v-1.333h1.333V86z"/><text xml:space="preserve" fill="#6e6e6e" font-family="SF Pro Text" font-size="10" font-weight="600" letter-spacing="0" style="white-space:pre"><tspan x="431.806" y="99.055">COPY</tspan></text></g><g style="mix-blend-mode:darken"><mask id="k" fill="#fff"><path d="M481 69h72a4 4 0 0 1 4 4v28a4 4 0 0 1-4 4h-72z"/></mask><path fill="#fff" d="M481 69h72a4 4 0 0 1 4 4v28a4 4 0 0 1-4 4h-72z"/><path fill="#f0f0f0" d="M481 68h72a5 5 0 0 1 5 5h-2a3 3 0 0 0-3-3h-72zm77 33a5 5 0 0 1-5 5h-72v-2h72a3 3 0 0 0 3-3zm-77 4V69zm72-37a5 5 0 0 1 5 5v28a5 5 0 0 1-5 5v-2a3 3 0 0 0 3-3V73a3 3 0 0 0-3-3z" mask="url(#k)"/><path fill="#6e6e6e" d="M525.667 81.333H525a4.663 4.663 0 0 0-4.666-4.666h-.667v-.847a1.334 1.334 0 1 0-1.333 0v.847h-.667A4.663 4.663 0 0 0 513 81.333h-.666c-.367 0-.667.3-.667.667v2c0 .367.3.667.667.667H513v.666c0 .74.6 1.334 1.334 1.334h9.333c.74 0 1.333-.594 1.333-1.334v-.666h.667c.367 0 .667-.3.667-.667v-2c0-.367-.3-.667-.667-.667m-.667 2h-1.333v2h-9.333v-2H513v-.666h1.334v-1.334A3.334 3.334 0 0 1 517.667 78h2.667a3.334 3.334 0 0 1 3.333 3.333v1.334H525zM516.667 81l1.573 1.573-.786.787-.787-.787-.787.787-.786-.787zm4.667 0 1.573 1.573-.787.787-.786-.787-.787.787-.787-.787z"/><text xml:space="preserve" fill="#6e6e6e" font-family="SF Pro Text" font-size="10" font-weight="600" letter-spacing="0" style="white-space:pre"><tspan x="487.262" y="99.055">ASSISTANTS</tspan></text></g><g style="mix-blend-mode:darken"><mask id="l" fill="#fff"><path d="M622 73a4 4 0 0 1 4-4h68v36h-68a4 4 0 0 1-4-4z"/></mask><path fill="#fff" d="M622 73a4 4 0 0 1 4-4h68v36h-68a4 4 0 0 1-4-4z"/><path fill="#f0f0f0" d="M621 73a5 5 0 0 1 5-5h68v2h-68a3 3 0 0 0-3 3zm73 33h-68a5 5 0 0 1-5-5h2a3 3 0 0 0 3 3h68zm-68 0a5 5 0 0 1-5-5V73a5 5 0 0 1 5-5v2a3 3 0 0 0-3 3v28a3 3 0 0 0 3 3zm68-37v36z" mask="url(#l)"/><path fill="#6e6e6e" d="M664.666 82.667v-8a1.333 1.333 0 0 0-1.333-1.334h-8A1.333 1.333 0 0 0 654 74.667v8A1.333 1.333 0 0 0 655.333 84h8a1.333 1.333 0 0 0 1.333-1.333M657.333 80l1.353 1.807 1.98-2.474 2.667 3.334h-8zm-6-4v9.333a1.33 1.33 0 0 0 1.333 1.333H662v-1.333h-9.334V76"/><text xml:space="preserve" fill="#6e6e6e" font-family="SF Pro Text" font-size="10" font-weight="600" letter-spacing="0" style="white-space:pre"><tspan x="641.799" y="99.055">IMAGE</tspan></text></g><g style="mix-blend-mode:darken"><mask id="m" fill="#fff"><path d="M693 69h72v36h-72z"/></mask><path fill="#fff" d="M693 69h72v36h-72z"/><path fill="#f0f0f0" d="M693 69v1h72v-2h-72zm72 36v-1h-72v2h72z" mask="url(#m)"/><path fill="#6e6e6e" d="M723.666 76h-1.333v9.333a1.33 1.33 0 0 0 1.333 1.333H733v-1.333h-9.334zm10.667-2.667h-8A1.333 1.333 0 0 0 725 74.667v8A1.333 1.333 0 0 0 726.333 84h8a1.333 1.333 0 0 0 1.333-1.333v-8a1.333 1.333 0 0 0-1.333-1.334M729 81.667v-6l4 3z"/><text xml:space="preserve" fill="#6e6e6e" font-family="SF Pro Text" font-size="10" font-weight="600" letter-spacing="0" style="white-space:pre"><tspan x="713.312" y="99.055">VIDEO</tspan></text></g><text xml:space="preserve" fill="#141414" font-family="Arial" font-size="14" letter-spacing="0em" opacity=".8" style="white-space:pre"><tspan x="157.5" y="153.354">High above the rooftops of Aarhus, a luminous circle hovers like a quiet horizon. It is here, </tspan><tspan x="157.5" y="174.354">on top of the ARoS Art Museum, that Olafur Eliasson has inscribed his Your rainbow </tspan><tspan x="157.5" y="195.354">panorama into the city’s skyline, an artwork that is at once architecture, observation deck, </tspan><tspan x="157.5" y="216.354">and sensory experiment.</tspan></text><rect width="578" height="354" x="154.5" y="243" stroke="#75c3cb" stroke-width="2" opacity=".5" rx="3"/><path fill="url(#n)" d="M157.5 246h572v321.75h-572z"/><g filter="url(#o)"><g clip-path="url(#p)"><path fill="#fff" d="M163.5 270c0-9.941 8.059-18 18-18h36c9.941 0 18 8.059 18 18s-8.059 18-18 18h-36c-9.941 0-18-8.059-18-18"/><path fill="#fff" d="M163.5 256a4 4 0 0 1 4-4h28a4 4 0 0 1 4 4v28a4 4 0 0 1-4 4h-28a4 4 0 0 1-4-4z"/><path fill="#6e6e6e" d="M188.166 272.667v-8a1.333 1.333 0 0 0-1.333-1.334h-8a1.334 1.334 0 0 0-1.333 1.334v8a1.33 1.33 0 0 0 1.333 1.333h8a1.33 1.33 0 0 0 1.333-1.333M180.833 270l1.353 1.807 1.98-2.474 2.667 3.334h-8zm-6-4v9.333a1.333 1.333 0 0 0 1.333 1.334h9.334v-1.334h-9.334V266"/><path fill="#fff" d="M199.5 256a4 4 0 0 1 4-4h28a4 4 0 0 1 4 4v28a4 4 0 0 1-4 4h-28a4 4 0 0 1-4-4z"/><path fill="#6e6e6e" d="M215.5 272.667v-4h-2.667L217.5 264l4.666 4.667H219.5v4zm-2.667 2.666V274h9.333v1.333z"/></g><path stroke="#e3e3e3" d="M181.5 252.5h36c9.665 0 17.5 7.835 17.5 17.5s-7.835 17.5-17.5 17.5h-36c-9.665 0-17.5-7.835-17.5-17.5s7.835-17.5 17.5-17.5Z"/></g><text xml:space="preserve" fill="#141414" font-family="Arial" font-size="11" letter-spacing="-.01em" style="white-space:pre"><tspan x="157.5" y="590.563">Olafur Eliassons Your rainbow panorama på taget af ARoS</tspan></text><text xml:space="preserve" fill="#141414" font-family="Arial" font-size="14" letter-spacing="0em" opacity=".8" style="white-space:pre"><tspan x="157.5" y="633.104">Eliasson, the Danish-Icelandic artist known for exploring light, perception, and the </tspan><tspan x="157.5" y="654.104">relationship between humans and their environment, conceived the installation as a </tspan><tspan x="157.5" y="675.104">walkable spectrum. A circular corridor of glass unfolds in every color of the rainbow, inviting </tspan><tspan x="157.5" y="696.104">visitors to step inside and move through shifting atmospheres of red, green, blue, and </tspan><tspan x="157.5" y="717.104">everything in between. With each step, the city below transforms: streets dissolve into tinted </tspan><tspan x="157.5" y="738.104">abstractions, familiar landmarks reappear as if filtered through emotion rather than optics.</tspan></text><text xml:space="preserve" fill="#141414" font-family="Arial" font-size="14" letter-spacing="0em" opacity=".8" style="white-space:pre"><tspan x="157.5" y="783.104">What might first appear as a striking visual landmark reveals itself, on closer encounter, as a </tspan><tspan x="157.5" y="804.104">subtle investigation into how we see. The panorama does not simply frame Aarhus, it alters </tspan><tspan x="157.5" y="825.104">it. Visitors become participants in an ongoing interplay between body, space, and </tspan><tspan x="157.5" y="846.104">perception. The act of walking becomes a form of looking, and looking becomes a process </tspan><tspan x="157.5" y="867.104">shaped by color, movement, and awareness.</tspan></text></g><path stroke="#141414" stroke-width="2" d="M24 1h1242c12.7 0 23 10.297 23 23v872c0 12.703-10.3 23-23 23H24c-12.702 0-23-10.297-23-23V24C1 11.298 11.298 1 24 1Z"/></g><path fill="#d4d4d4" d="M758 0h-1v866h2V0z" mask="url(#q)"/><defs><clipPath id="a"><path fill="#fff" d="M0 0h758v866H0z"/></clipPath><clipPath id="b"><path fill="#fff" d="M0 24C0 10.745 10.745 0 24 0h1242c13.25 0 24 10.745 24 24v872c0 13.255-10.75 24-24 24H24c-13.255 0-24-10.745-24-24z"/></clipPath><clipPath id="g"><path fill="#fff" d="M230 72h16v16h-16z"/></clipPath><clipPath id="h"><path fill="#fff" d="M241 60h15v15h-15z"/></clipPath><clipPath id="p"><path fill="#fff" d="M163.5 270c0-9.941 8.059-18 18-18h36c9.941 0 18 8.059 18 18s-8.059 18-18 18h-36c-9.941 0-18-8.059-18-18"/></clipPath><pattern id="n" width="1" height="1" patternContentUnits="objectBoundingBox"><use xlink:href="#r" transform="matrix(.00076 0 0 .00136 -.004 0)"/></pattern><filter id="o" width="98" height="62" x="150.5" y="241" color-interpolation-filters="sRGB" filterUnits="userSpaceOnUse"><feFlood flood-opacity="0" result="BackgroundImageFix"/><feColorMatrix in="SourceAlpha" result="hardAlpha" values="0 0 0 0 0 0 0 0 0 0 0 0 0 0 0 0 0 0 127 0"/><feOffset dy="2"/><feGaussianBlur stdDeviation="6.5"/><feColorMatrix values="0 0 0 0 0.0784314 0 0 0 0 0.0784314 0 0 0 0 0.0784314 0 0 0 0.06 0"/><feBlend in2="BackgroundImageFix" result="effect1_dropShadow_4471_59306"/><feBlend in="SourceGraphic" in2="effect1_dropShadow_4471_59306" result="shape"/></filter><image xlink:href="stage-5.embedded-image.jpg" id="r" width="1320" height="736" preserveAspectRatio="none"/></defs></svg>