<svg width="55" height="34" viewBox="0 0 55 34" fill="none" xmlns="http://www.w3.org/2000/svg">
<path d="M0 6C0 2.68629 2.68629 0 6 0H49C52.3137 0 55 2.68629 55 6V28C55 31.3137 52.3137 34 49 34H6C2.68629 34 0 31.3137 0 28V6Z" fill="#FFD1E0"/>
<path d="M7.72159 26V8.54545H10.8835V23.3494H18.571V26H7.72159ZM26.9744 26.2557C25.6619 26.2557 24.5284 25.983 23.5739 25.4375C22.625 24.8864 21.8949 24.108 21.3835 23.1023C20.8722 22.0909 20.6165 20.9006 20.6165 19.5312C20.6165 18.1847 20.8722 17.0028 21.3835 15.9858C21.9006 14.9631 22.6222 14.1676 23.5483 13.5994C24.4744 13.0256 25.5625 12.7386 26.8125 12.7386C27.6193 12.7386 28.3807 12.8693 29.0966 13.1307C29.8182 13.3864 30.4545 13.7841 31.0057 14.3239C31.5625 14.8636 32 15.5511 32.3182 16.3864C32.6364 17.2159 32.7955 18.2045 32.7955 19.3523V20.2983H22.0653V18.2188H29.8381C29.8324 17.6278 29.7045 17.1023 29.4545 16.642C29.2045 16.1761 28.8551 15.8097 28.4062 15.5426C27.9631 15.2756 27.446 15.142 26.8551 15.142C26.2244 15.142 25.6705 15.2955 25.1932 15.6023C24.7159 15.9034 24.3438 16.3011 24.0767 16.7955C23.8153 17.2841 23.6818 17.821 23.6761 18.4062V20.2216C23.6761 20.983 23.8153 21.6364 24.0938 22.1818C24.3722 22.7216 24.7614 23.1364 25.2614 23.4261C25.7614 23.7102 26.3466 23.8523 27.017 23.8523C27.4659 23.8523 27.8722 23.7898 28.2358 23.6648C28.5994 23.5341 28.9148 23.3438 29.1818 23.0938C29.4489 22.8438 29.6506 22.5341 29.7869 22.1648L32.6676 22.4886C32.4858 23.25 32.1392 23.9148 31.6278 24.483C31.1222 25.0455 30.4744 25.483 29.6847 25.7955C28.8949 26.1023 27.9915 26.2557 26.9744 26.2557ZM41.1158 26.2557C39.8374 26.2557 38.7294 25.9744 37.7919 25.4119C36.8544 24.8494 36.1271 24.0625 35.6101 23.0511C35.0987 22.0398 34.843 20.858 34.843 19.5057C34.843 18.1534 35.0987 16.9687 35.6101 15.9517C36.1271 14.9347 36.8544 14.1449 37.7919 13.5824C38.7294 13.0199 39.8374 12.7386 41.1158 12.7386C42.3942 12.7386 43.5021 13.0199 44.4396 13.5824C45.3771 14.1449 46.1016 14.9347 46.6129 15.9517C47.13 16.9687 47.3885 18.1534 47.3885 19.5057C47.3885 20.858 47.13 22.0398 46.6129 23.0511C46.1016 24.0625 45.3771 24.8494 44.4396 25.4119C43.5021 25.9744 42.3942 26.2557 41.1158 26.2557ZM41.1328 23.7841C41.826 23.7841 42.4055 23.5937 42.8714 23.2131C43.3374 22.8267 43.6839 22.3097 43.9112 21.6619C44.1442 21.0142 44.2607 20.2926 44.2607 19.4972C44.2607 18.696 44.1442 17.9716 43.9112 17.3239C43.6839 16.6705 43.3374 16.1506 42.8714 15.7642C42.4055 15.3778 41.826 15.1847 41.1328 15.1847C40.4226 15.1847 39.8317 15.3778 39.3601 15.7642C38.8942 16.1506 38.5447 16.6705 38.3118 17.3239C38.0845 17.9716 37.9709 18.696 37.9709 19.4972C37.9709 20.2926 38.0845 21.0142 38.3118 21.6619C38.5447 22.3097 38.8942 22.8267 39.3601 23.2131C39.8317 23.5937 40.4226 23.7841 41.1328 23.7841Z" fill="#141414"/>
</svg>
