<svg width="119" height="83" viewBox="0 0 119 83" fill="none" xmlns="http://www.w3.org/2000/svg">
<g clip-path="url(#clip0_4471_53028)">
<path d="M16.5778 12.213L63.4052 41.0604L42.2442 47.0522L30.2496 65.4865L16.5778 12.213Z" fill="#FFD1E0"/>
<path d="M63.4052 41.0604L42.2443 47.0521L30.2496 65.4865L16.578 12.2129L63.4052 41.0604ZM31.9739 54.9893L39.5329 43.3716L52.8683 39.5962L23.3578 21.4165L31.9739 54.9893Z" fill="#DE3E73"/>
<path d="M63.1113 54.2432C63.1113 50.9295 65.7976 48.2432 69.1113 48.2432H112.111C115.425 48.2432 118.111 50.9295 118.111 54.2432V76.2432C118.111 79.5569 115.425 82.2432 112.111 82.2432H69.1113C65.7976 82.2432 63.1113 79.5569 63.1113 76.2432V54.2432Z" fill="#FFD1E0"/>
<path d="M70.8329 74.2432V56.7886H73.9949V71.5926H81.6824V74.2432H70.8329ZM90.0858 74.4989C88.7733 74.4989 87.6397 74.2261 86.6852 73.6807C85.7363 73.1296 85.0062 72.3511 84.4949 71.3455C83.9835 70.3341 83.7278 69.1438 83.7278 67.7744C83.7278 66.4279 83.9835 65.246 84.4949 64.229C85.0119 63.2063 85.7335 62.4108 86.6596 61.8426C87.5858 61.2688 88.6738 60.9818 89.9238 60.9818C90.7306 60.9818 91.492 61.1125 92.2079 61.3739C92.9295 61.6296 93.5659 62.0273 94.117 62.5671C94.6738 63.1068 95.1113 63.7943 95.4295 64.6296C95.7477 65.4591 95.9068 66.4477 95.9068 67.5955V68.5415H85.1767V66.4619H92.9494C92.9437 65.871 92.8159 65.3455 92.5659 64.8852C92.3159 64.4193 91.9664 64.0529 91.5176 63.7858C91.0744 63.5188 90.5574 63.3852 89.9664 63.3852C89.3358 63.3852 88.7818 63.5386 88.3045 63.8455C87.8272 64.1466 87.4551 64.5443 87.188 65.0386C86.9267 65.5273 86.7931 66.0642 86.7875 66.6494V68.4648C86.7875 69.2261 86.9267 69.8796 87.2051 70.425C87.4835 70.9648 87.8727 71.3796 88.3727 71.6693C88.8727 71.9534 89.4579 72.0955 90.1284 72.0955C90.5772 72.0955 90.9835 72.033 91.3471 71.908C91.7108 71.7773 92.0261 71.5869 92.2931 71.3369C92.5602 71.0869 92.7619 70.7773 92.8983 70.408L95.7789 70.7318C95.5971 71.4932 95.2505 72.158 94.7392 72.7261C94.2335 73.2886 93.5858 73.7261 92.796 74.0386C92.0062 74.3455 91.1028 74.4989 90.0858 74.4989ZM104.227 74.4989C102.949 74.4989 101.841 74.2176 100.903 73.6551C99.9657 73.0926 99.2385 72.3057 98.7214 71.2943C98.21 70.283 97.9544 69.1011 97.9544 67.7489C97.9544 66.3966 98.21 65.2119 98.7214 64.1949C99.2385 63.1779 99.9657 62.3881 100.903 61.8256C101.841 61.2631 102.949 60.9818 104.227 60.9818C105.506 60.9818 106.613 61.2631 107.551 61.8256C108.488 62.3881 109.213 63.1779 109.724 64.1949C110.241 65.2119 110.5 66.3966 110.5 67.7489C110.5 69.1011 110.241 70.283 109.724 71.2943C109.213 72.3057 108.488 73.0926 107.551 73.6551C106.613 74.2176 105.506 74.4989 104.227 74.4989ZM104.244 72.0273C104.937 72.0273 105.517 71.8369 105.983 71.4563C106.449 71.0699 106.795 70.5529 107.023 69.9051C107.256 69.2574 107.372 68.5358 107.372 67.7404C107.372 66.9392 107.256 66.2148 107.023 65.5671C106.795 64.9136 106.449 64.3938 105.983 64.0074C105.517 63.621 104.937 63.4279 104.244 63.4279C103.534 63.4279 102.943 63.621 102.471 64.0074C102.006 64.3938 101.656 64.9136 101.423 65.5671C101.196 66.2148 101.082 66.9392 101.082 67.7404C101.082 68.5358 101.196 69.2574 101.423 69.9051C101.656 70.5529 102.006 71.0699 102.471 71.4563C102.943 71.8369 103.534 72.0273 104.244 72.0273Z" fill="#141414"/>
</g>
<defs>
<clipPath id="clip0_4471_53028">
<rect width="118.111" height="82.2432" fill="white"/>
</clipPath>
</defs>
</svg>
