<svg width="57" height="34" viewBox="0 0 57 34" fill="none" xmlns="http://www.w3.org/2000/svg">
<path d="M0 6C0 2.68629 2.68629 0 6 0H51C54.3137 0 57 2.68629 57 6V28C57 31.3137 54.3137 34 51 34H6C2.68629 34 0 31.3137 0 28V6Z" fill="#C1F0F0"/>
<path d="M7.39773 26V24.0312L16.3466 11.196H7.34659V8.54545H20.267V10.5142L11.3267 23.3494H20.3182V26H7.39773ZM28.9517 26.2557C27.6733 26.2557 26.5653 25.9744 25.6278 25.4119C24.6903 24.8494 23.9631 24.0625 23.446 23.0511C22.9347 22.0398 22.679 20.858 22.679 19.5057C22.679 18.1534 22.9347 16.9687 23.446 15.9517C23.9631 14.9347 24.6903 14.1449 25.6278 13.5824C26.5653 13.0199 27.6733 12.7386 28.9517 12.7386C30.2301 12.7386 31.3381 13.0199 32.2756 13.5824C33.2131 14.1449 33.9375 14.9347 34.4489 15.9517C34.9659 16.9687 35.2244 18.1534 35.2244 19.5057C35.2244 20.858 34.9659 22.0398 34.4489 23.0511C33.9375 24.0625 33.2131 24.8494 32.2756 25.4119C31.3381 25.9744 30.2301 26.2557 28.9517 26.2557ZM28.9688 23.7841C29.6619 23.7841 30.2415 23.5937 30.7074 23.2131C31.1733 22.8267 31.5199 22.3097 31.7472 21.6619C31.9801 21.0142 32.0966 20.2926 32.0966 19.4972C32.0966 18.696 31.9801 17.9716 31.7472 17.3239C31.5199 16.6705 31.1733 16.1506 30.7074 15.7642C30.2415 15.3778 29.6619 15.1847 28.9688 15.1847C28.2585 15.1847 27.6676 15.3778 27.196 15.7642C26.7301 16.1506 26.3807 16.6705 26.1477 17.3239C25.9205 17.9716 25.8068 18.696 25.8068 19.4972C25.8068 20.2926 25.9205 21.0142 26.1477 21.6619C26.3807 22.3097 26.7301 22.8267 27.196 23.2131C27.6676 23.5937 28.2585 23.7841 28.9688 23.7841ZM43.6385 26.2557C42.326 26.2557 41.1925 25.983 40.2379 25.4375C39.2891 24.8864 38.5589 24.108 38.0476 23.1023C37.5362 22.0909 37.2805 20.9006 37.2805 19.5312C37.2805 18.1847 37.5362 17.0028 38.0476 15.9858C38.5646 14.9631 39.2862 14.1676 40.2124 13.5994C41.1385 13.0256 42.2266 12.7386 43.4766 12.7386C44.2834 12.7386 45.0447 12.8693 45.7607 13.1307C46.4822 13.3864 47.1186 13.7841 47.6697 14.3239C48.2266 14.8636 48.6641 15.5511 48.9822 16.3864C49.3004 17.2159 49.4595 18.2045 49.4595 19.3523V20.2983H38.7294V18.2188H46.5021C46.4964 17.6278 46.3686 17.1023 46.1186 16.642C45.8686 16.1761 45.5192 15.8097 45.0703 15.5426C44.6271 15.2756 44.1101 15.142 43.5192 15.142C42.8885 15.142 42.3345 15.2955 41.8572 15.6023C41.38 15.9034 41.0078 16.3011 40.7408 16.7955C40.4794 17.2841 40.3459 17.821 40.3402 18.4062V20.2216C40.3402 20.983 40.4794 21.6364 40.7578 22.1818C41.0362 22.7216 41.4254 23.1364 41.9254 23.4261C42.4254 23.7102 43.0107 23.8523 43.6811 23.8523C44.13 23.8523 44.5362 23.7898 44.8999 23.6648C45.2635 23.5341 45.5788 23.3438 45.8459 23.0938C46.1129 22.8438 46.3146 22.5341 46.451 22.1648L49.3317 22.4886C49.1499 23.25 48.8033 23.9148 48.2919 24.483C47.7862 25.0455 47.1385 25.483 46.3487 25.7955C45.5589 26.1023 44.6555 26.2557 43.6385 26.2557Z" fill="#141414"/>
</svg>
