<svg width="119" height="83" viewBox="0 0 119 83" fill="none" xmlns="http://www.w3.org/2000/svg">
<g clip-path="url(#clip0_4471_53029)">
<path d="M100.827 12.213L54 41.0604L75.1611 47.0522L87.1556 65.4865L100.827 12.213Z" fill="#C1F0F0"/>
<path d="M54 41.0604L75.1609 47.052L87.1556 65.4865L100.827 12.2129L54 41.0604ZM85.4314 54.9893L77.8723 43.3716L64.537 39.5962L94.0475 21.4164L85.4314 54.9893Z" fill="#12B2B2"/>
<path d="M0 54.2432C0 50.9295 2.68629 48.2432 6 48.2432H51C54.3137 48.2432 57 50.9295 57 54.2432V76.2432C57 79.5569 54.3137 82.2432 51 82.2432H6C2.68629 82.2432 0 79.5569 0 76.2432V54.2432Z" fill="#C1F0F0"/>
<path d="M7.39773 74.2432V72.2744L16.3466 59.4392H7.34659V56.7886H20.267V58.7574L11.3267 71.5926H20.3182V74.2432H7.39773ZM28.9517 74.4988C27.6733 74.4988 26.5653 74.2176 25.6278 73.6551C24.6903 73.0926 23.9631 72.3057 23.446 71.2943C22.9347 70.2829 22.679 69.1011 22.679 67.7488C22.679 66.3966 22.9347 65.2119 23.446 64.1949C23.9631 63.1778 24.6903 62.3881 25.6278 61.8256C26.5653 61.2631 27.6733 60.9818 28.9517 60.9818C30.2301 60.9818 31.3381 61.2631 32.2756 61.8256C33.2131 62.3881 33.9375 63.1778 34.4489 64.1949C34.9659 65.2119 35.2244 66.3966 35.2244 67.7488C35.2244 69.1011 34.9659 70.2829 34.4489 71.2943C33.9375 72.3057 33.2131 73.0926 32.2756 73.6551C31.3381 74.2176 30.2301 74.4988 28.9517 74.4988ZM28.9688 72.0273C29.6619 72.0273 30.2415 71.8369 30.7074 71.4562C31.1733 71.0699 31.5199 70.5528 31.7472 69.9051C31.9801 69.2574 32.0966 68.5358 32.0966 67.7403C32.0966 66.9392 31.9801 66.2148 31.7472 65.567C31.5199 64.9136 31.1733 64.3937 30.7074 64.0074C30.2415 63.621 29.6619 63.4278 28.9688 63.4278C28.2585 63.4278 27.6676 63.621 27.196 64.0074C26.7301 64.3937 26.3807 64.9136 26.1477 65.567C25.9205 66.2148 25.8068 66.9392 25.8068 67.7403C25.8068 68.5358 25.9205 69.2574 26.1477 69.9051C26.3807 70.5528 26.7301 71.0699 27.196 71.4562C27.6676 71.8369 28.2585 72.0273 28.9688 72.0273ZM43.6385 74.4988C42.326 74.4988 41.1925 74.2261 40.2379 73.6807C39.2891 73.1295 38.5589 72.3511 38.0476 71.3454C37.5362 70.3341 37.2805 69.1437 37.2805 67.7744C37.2805 66.4278 37.5362 65.246 38.0476 64.229C38.5646 63.2062 39.2862 62.4108 40.2124 61.8426C41.1385 61.2687 42.2266 60.9818 43.4766 60.9818C44.2834 60.9818 45.0447 61.1125 45.7607 61.3738C46.4822 61.6295 47.1186 62.0273 47.6697 62.567C48.2266 63.1068 48.6641 63.7943 48.9822 64.6295C49.3004 65.4591 49.4595 66.4477 49.4595 67.5954V68.5415H38.7294V66.4619H46.5021C46.4964 65.871 46.3686 65.3454 46.1186 64.8852C45.8686 64.4193 45.5192 64.0528 45.0703 63.7858C44.6271 63.5187 44.1101 63.3852 43.5192 63.3852C42.8885 63.3852 42.3345 63.5386 41.8572 63.8454C41.38 64.1466 41.0078 64.5443 40.7408 65.0386C40.4794 65.5273 40.3459 66.0642 40.3402 66.6494V68.4648C40.3402 69.2261 40.4794 69.8795 40.7578 70.425C41.0362 70.9648 41.4254 71.3795 41.9254 71.6693C42.4254 71.9534 43.0107 72.0954 43.6811 72.0954C44.13 72.0954 44.5362 72.0329 44.8999 71.9079C45.2635 71.7773 45.5788 71.5869 45.8459 71.3369C46.1129 71.0869 46.3146 70.7773 46.451 70.4079L49.3317 70.7318C49.1499 71.4932 48.8033 72.1579 48.2919 72.7261C47.7862 73.2886 47.1385 73.7261 46.3487 74.0386C45.5589 74.3454 44.6555 74.4988 43.6385 74.4988Z" fill="#141414"/>
</g>
<defs>
<clipPath id="clip0_4471_53029">
<rect width="118.111" height="82.2432" fill="white"/>
</clipPath>
</defs>
</svg>
