<?xml version="1.0" encoding="utf-8"?>
<!-- Generator: Adobe Illustrator 25.2.3, SVG Export Plug-In . SVG Version: 6.00 Build 0)  -->
<svg version="1.1" id="labels" xmlns="http://www.w3.org/2000/svg" xmlns:xlink="http://www.w3.org/1999/xlink" x="0px" y="0px"
	 viewBox="0 0 551 850" style="enable-background:new 0 0 551 850;" xml:space="preserve">
<style type="text/css">
	.st0{enable-background:new    ;}
	.st1{fill:#141414;}
	.st2{fill:#636FF7;}
</style>
<g class="st0">
	<path class="st1" d="M189.1,201.3c1.8,0,3,1.4,3,3.5c0,2.3-1.4,3.8-3.8,3.8c-1.7,0-3.1-0.9-3.5-2.6l1.7-0.7
		c0.2,1.2,0.9,1.7,1.9,1.7c1.1,0,1.9-0.7,1.9-2.1c0-1.4-0.8-2.1-1.8-2.1c-0.8,0-1.4,0.4-1.6,1.1l-1.6-0.2l0.4-5.7h5.8v1.6h-4.4
		l-0.2,2.6C187.4,201.6,188.2,201.3,189.1,201.3z"/>
	<path class="st1" d="M197.1,208.6c-2.5,0-3.9-2-3.9-5.4s1.4-5.4,3.9-5.4c2.4,0,3.8,2,3.8,5.4C201,206.7,199.6,208.6,197.1,208.6z
		 M197.2,199.4c-1.3,0-2.1,1.3-2.1,3.8c0,2.6,0.7,3.8,2.1,3.8c1.3,0,2.1-1.1,2.1-3.6C199.2,200.7,198.4,199.4,197.2,199.4z"/>
	<path class="st1" d="M205.8,208.6c-2.5,0-3.9-2-3.9-5.4s1.4-5.4,3.9-5.4c2.4,0,3.8,2,3.8,5.4C209.6,206.7,208.3,208.6,205.8,208.6z
		 M205.8,199.4c-1.3,0-2.1,1.3-2.1,3.8c0,2.6,0.7,3.8,2.1,3.8c1.3,0,2.1-1.1,2.1-3.6C207.9,200.7,207.1,199.4,205.8,199.4z"/>
	<path class="st1" d="M214.9,207.9v-3.3h-3.3v-1.7h3.3v-3.4h1.8v3.4h3.3v1.7h-3.3v3.3H214.9z"/>
	<path class="st1" d="M227.7,200.9v7.8c0,0.9-0.1,1.5-0.4,2c-0.5,0.7-1.3,0.9-2.1,0.9c-0.3,0-0.6,0-0.9-0.1V210
		c0.2,0,0.3,0.1,0.5,0.1c1,0,1.1-0.5,1.1-1.7v-7.5L227.7,200.9L227.7,200.9z M227.7,197.8v1.7h-1.8v-1.7H227.7z"/>
	<path class="st1" d="M232.8,208.6c-2.3,0-3.7-1.5-3.7-4s1.5-3.9,3.8-3.9c2.2,0,3.6,1.5,3.6,4C236.4,207.2,235,208.6,232.8,208.6z
		 M232.8,202.1c-1.1,0-1.9,0.9-1.9,2.4c0,1.7,0.8,2.5,1.9,2.5c1.1,0,1.9-0.8,1.9-2.4C234.7,203,233.9,202.1,232.8,202.1z"/>
	<path class="st1" d="M239.5,200.9v4.3c0,0.5,0.1,0.9,0.2,1.2c0.2,0.4,0.6,0.6,1.1,0.6s0.9-0.3,1.2-0.6c0.3-0.4,0.5-0.9,0.5-1.6
		v-3.9h1.8v7.5h-1.7v-1.1c-0.5,0.7-1.3,1.2-2.3,1.2s-1.5-0.3-2-0.9c-0.3-0.5-0.5-1.1-0.5-2v-4.7H239.5z"/>
	<path class="st1" d="M246.1,208.4v-7.5h1.7v1.2c0.5-0.8,1-1.2,2.1-1.2c0.2,0,0.4,0,0.6,0.1v1.8c-0.3-0.1-0.5-0.2-0.8-0.2
		c-0.6,0-1.1,0.3-1.4,0.7c-0.3,0.4-0.4,0.9-0.4,1.7v3.5h-1.8V208.4z"/>
	<path class="st1" d="M256.2,208.4v-4.3c0-0.6-0.1-1-0.3-1.3s-0.5-0.4-1-0.4s-1,0.3-1.3,0.7c-0.4,0.5-0.4,1-0.4,1.8v3.6h-1.8V201
		h1.7v1.1c0.5-0.8,1.4-1.2,2.5-1.2c0.9,0,1.5,0.3,1.9,0.9c0.3,0.5,0.4,1,0.4,2v4.7h-1.7V208.4z"/>
	<path class="st1" d="M263.9,203.3c0-0.4-0.1-0.7-0.3-0.9c-0.2-0.2-0.6-0.3-1-0.3c-0.9,0-1.3,0.5-1.4,1.3l-1.7-0.1
		c0.1-1.6,1.3-2.5,3.2-2.5c1,0,1.7,0.2,2.2,0.7c0.5,0.4,0.6,1,0.6,2.2v2.7c0,0.9,0.1,1.6,0.2,2H264c-0.1-0.2-0.2-0.7-0.2-0.9
		c-0.6,0.7-1.4,1.1-2.4,1.1c-1.4,0-2.3-0.9-2.3-2.2c0-1,0.5-1.6,1.4-2c0.7-0.3,2.2-0.5,3.4-0.6L263.9,203.3L263.9,203.3z
		 M263.9,204.9c-0.9,0-1.9,0.2-2.4,0.5c-0.5,0.2-0.6,0.5-0.6,0.9c0,0.5,0.4,0.9,1.1,0.9s1.2-0.3,1.6-0.8c0.2-0.3,0.3-0.8,0.3-1.2
		V204.9z"/>
	<path class="st1" d="M269.2,208.4h-1.8v-10.6h1.8V208.4z"/>
	<path class="st1" d="M271,199.4v-1.7h1.8v1.7H271z M272.8,208.4H271v-7.5h1.8V208.4z"/>
	<path class="st1" d="M275.3,206c0.4,0.8,1.1,1.2,1.9,1.2s1.2-0.3,1.2-0.8s-0.3-0.7-1.4-1.1l-0.8-0.3c-1.2-0.4-1.9-1-1.9-2.2
		s1.1-2.2,2.9-2.2c1.2,0,2.3,0.5,2.9,1.5l-1.3,0.9c-0.4-0.7-0.9-1-1.7-1c-0.8,0-1.1,0.3-1.1,0.7s0.2,0.7,1.2,1l0.8,0.2
		c1.3,0.4,2.1,1,2.1,2.2c0,1.4-1.2,2.4-3,2.4c-1.5,0-2.6-0.7-3.2-1.7L275.3,206z"/>
	<path class="st1" d="M285.1,208.3c-0.4,0.1-0.9,0.2-1.3,0.2c-0.7,0-1.2-0.2-1.5-0.5c-0.3-0.4-0.4-0.9-0.4-1.6v-4.1h-1.2v-1.4h1.2
		v-2.4h1.7v2.4h1.5v1.4h-1.5v3.7c0,0.8,0.2,1,0.8,1c0.2,0,0.5,0,0.7-0.1L285.1,208.3L285.1,208.3z"/>
	<path class="st1" d="M286.8,206c0.4,0.8,1.1,1.2,1.9,1.2s1.2-0.3,1.2-0.8s-0.3-0.7-1.4-1.1l-0.8-0.3c-1.2-0.4-1.9-1-1.9-2.2
		s1-2.2,2.9-2.2c1.2,0,2.3,0.5,2.9,1.5l-1.3,0.9c-0.4-0.7-0.9-1-1.7-1c-0.8,0-1.1,0.3-1.1,0.7s0.2,0.7,1.2,1l0.8,0.2
		c1.3,0.4,2.1,1,2.1,2.2c0,1.4-1.2,2.4-3,2.4c-1.5,0-2.6-0.7-3.2-1.7L286.8,206z"/>
	<path class="st1" d="M294.6,208.3c0,1.2-0.2,1.7-1,2.4l-0.8-0.7c0.5-0.4,0.6-0.8,0.6-1.7h-0.6v-2.2h1.8V208.3z"/>
</g>
<g class="st0">
	<path class="st1" d="M185.8,217.5c1.3-0.1,2.1-0.7,2.2-1.5h1.6v10.4h-1.8v-7.8c-0.5,0.3-1.1,0.5-2,0.6V217.5z"/>
	<path class="st1" d="M198.8,218.9v1.1c0.5-0.7,1.2-1.2,2.3-1.2c1.7,0,3,1.3,3,3.9c0,2.4-1.4,3.9-3.1,3.9c-1.1,0-1.7-0.4-2.1-1v3.8
		h-1.7V219h1.6V218.9z M200.5,225c1,0,1.7-0.8,1.7-2.4c0-1.5-0.6-2.5-1.6-2.5s-1.8,0.8-1.8,2.4C198.8,224.1,199.5,225,200.5,225z"/>
	<path class="st1" d="M205.5,226.4v-7.5h1.7v1.2c0.5-0.8,1-1.2,2.1-1.2c0.2,0,0.4,0,0.6,0.1v1.8c-0.3-0.1-0.5-0.2-0.8-0.2
		c-0.6,0-1.1,0.3-1.4,0.7c-0.3,0.4-0.4,0.9-0.4,1.7v3.5h-1.8V226.4z"/>
	<path class="st1" d="M214.1,226.6c-2.3,0-3.7-1.5-3.7-4s1.5-3.9,3.8-3.9c2.2,0,3.6,1.5,3.6,4C217.8,225.2,216.3,226.6,214.1,226.6z
		 M214.2,220.1c-1.1,0-1.9,0.9-1.9,2.4c0,1.7,0.8,2.5,1.9,2.5c1.1,0,1.9-0.8,1.9-2.4C216,221,215.3,220.1,214.2,220.1z"/>
	<path class="st1" d="M224,226.4v-1c-0.5,0.7-1.2,1.2-2.2,1.2c-1.7,0-3-1.3-3-3.9c0-2.4,1.4-3.9,3.1-3.9c1.1,0,1.7,0.4,2.1,1v-3.9
		h1.7v10.6H224V226.4z M222.3,220.2c-1,0-1.7,0.8-1.7,2.4c0,1.5,0.6,2.5,1.7,2.5c1,0,1.8-0.8,1.8-2.4
		C224,221.1,223.4,220.2,222.3,220.2z"/>
	<path class="st1" d="M229.3,218.9v4.3c0,0.5,0.1,0.9,0.2,1.2c0.2,0.4,0.6,0.6,1.1,0.6s0.9-0.3,1.2-0.6c0.3-0.4,0.5-0.9,0.5-1.6
		v-3.9h1.8v7.5h-1.7v-1.1c-0.5,0.7-1.3,1.2-2.3,1.2s-1.5-0.3-2-0.9c-0.3-0.5-0.5-1.1-0.5-2v-4.7H229.3z"/>
	<path class="st1" d="M240.4,221.5c-0.2-1-0.8-1.3-1.5-1.3c-1,0-1.8,0.8-1.8,2.4c0,1.7,0.7,2.5,1.8,2.5c0.8,0,1.3-0.4,1.5-1.2
		l1.6,0.5c-0.4,1.2-1.4,2.1-3.1,2.1c-2.2,0-3.6-1.5-3.6-4c0-2.4,1.4-3.9,3.6-3.9c1.6,0,2.6,0.9,3,2.2L240.4,221.5z"/>
	<path class="st1" d="M246.8,226.3c-0.4,0.1-0.9,0.2-1.3,0.2c-0.7,0-1.2-0.2-1.5-0.5c-0.3-0.4-0.4-0.9-0.4-1.6v-4.1h-1.2v-1.4h1.2
		v-2.4h1.7v2.4h1.5v1.4h-1.5v3.7c0,0.8,0.2,1,0.8,1c0.2,0,0.5,0,0.7-0.1V226.3z"/>
	<path class="st1" d="M247.9,217.4v-1.7h1.8v1.7H247.9z M249.6,226.4h-1.8v-7.5h1.8V226.4z"/>
	<path class="st1" d="M254.7,226.6c-2.3,0-3.7-1.5-3.7-4s1.5-3.9,3.8-3.9c2.2,0,3.6,1.5,3.6,4C258.4,225.2,256.9,226.6,254.7,226.6z
		 M254.8,220.1c-1.1,0-1.9,0.9-1.9,2.4c0,1.7,0.8,2.5,1.9,2.5c1.1,0,1.9-0.8,1.9-2.4C256.6,221,255.9,220.1,254.8,220.1z"/>
	<path class="st1" d="M264.5,226.4v-4.3c0-0.6-0.1-1-0.3-1.3c-0.2-0.3-0.5-0.4-1-0.4s-1,0.3-1.3,0.7c-0.4,0.5-0.4,1-0.4,1.8v3.6
		h-1.8V219h1.7v1.1c0.5-0.8,1.4-1.2,2.5-1.2c0.9,0,1.5,0.3,1.9,0.9c0.3,0.5,0.4,1,0.4,2v4.7h-1.7V226.4z"/>
	<path class="st1" d="M275.1,226.3c-0.4,0.1-0.9,0.2-1.3,0.2c-0.7,0-1.2-0.2-1.5-0.5c-0.3-0.4-0.4-0.9-0.4-1.6v-4.1h-1.2v-1.4h1.2
		v-2.4h1.7v2.4h1.5v1.4h-1.5v3.7c0,0.8,0.2,1,0.8,1c0.2,0,0.5,0,0.7-0.1L275.1,226.3L275.1,226.3z"/>
	<path class="st1" d="M279.4,226.6c-2.3,0-3.7-1.5-3.7-4s1.5-3.9,3.8-3.9c2.2,0,3.6,1.5,3.6,4C283,225.2,281.6,226.6,279.4,226.6z
		 M279.4,220.1c-1.1,0-1.9,0.9-1.9,2.4c0,1.7,0.8,2.5,1.9,2.5s1.9-0.8,1.9-2.4C281.3,221,280.6,220.1,279.4,220.1z"/>
	<path class="st1" d="M287.7,226.6c-2.3,0-3.7-1.5-3.7-4s1.5-3.9,3.8-3.9c2.2,0,3.6,1.5,3.6,4C291.4,225.2,289.9,226.6,287.7,226.6z
		 M287.8,220.1c-1.1,0-1.9,0.9-1.9,2.4c0,1.7,0.8,2.5,1.9,2.5s1.9-0.8,1.9-2.4C289.6,221,288.9,220.1,287.8,220.1z"/>
	<path class="st1" d="M294.6,226.4h-1.8v-10.6h1.8V226.4z"/>
</g>
<g class="st0">
	<path class="st2" d="M53.1,69.4V58.8h4.4c1.5,0,2.3,0.2,2.9,0.6c0.8,0.6,1.2,1.5,1.2,2.6c0,1.2-0.4,2.2-1.3,2.8
		c-0.8,0.4-1.9,0.6-3.1,0.6H55v4C55,69.4,53.1,69.4,53.1,69.4z M56.9,63.7c1,0,1.7-0.1,2.1-0.4c0.4-0.3,0.5-0.7,0.5-1.3
		c0-0.5-0.2-1-0.5-1.3c-0.4-0.3-0.9-0.4-2-0.4h-2v3.4H56.9z"/>
	<path class="st2" d="M63,69.4V58.8h1.9v8.9h5v1.7C69.9,69.4,63,69.4,63,69.4z"/>
	<path class="st2" d="M78.2,69.4l-0.8-2.5h-4.2l-0.9,2.5h-2.1l4-10.6h2.1l3.9,10.6H78.2z M76.9,65.4c-0.6-1.7-1.1-3.2-1.6-4.7
		c-0.3,1.1-0.7,2.1-1.6,4.7H76.9z"/>
	<path class="st2" d="M83.4,58.8c2.3,3.9,3.7,6,4.7,7.8C88,65,88,62.8,88,58.8h1.9v10.6h-2.1c-2.2-3.6-3.6-5.9-4.7-7.8
		c0,0.9,0.1,3,0.1,7.8h-1.9V58.8H83.4z"/>
</g>
<g class="st0">
	<path class="st2" d="M53.1,270.4v-10.6h4.4c1.5,0,2.3,0.2,2.9,0.6c0.8,0.6,1.2,1.5,1.2,2.6c0,1.2-0.4,2.2-1.3,2.8
		c-0.8,0.4-1.9,0.6-3.1,0.6H55v4H53.1z M56.9,264.7c1,0,1.7-0.1,2.1-0.4c0.4-0.3,0.5-0.7,0.5-1.3c0-0.5-0.2-1-0.5-1.3
		c-0.4-0.3-0.9-0.4-2-0.4h-2v3.4L56.9,264.7L56.9,264.7z"/>
	<path class="st2" d="M69.4,270.4l-2.7-4.2h-1.8v4.2H63v-10.6h3.4c1.4,0,2.4,0.1,3.2,0.4c1.1,0.4,1.6,1.3,1.6,2.7c0,1.7-1,2.7-2.6,3
		l3,4.5H69.4z M66.9,264.6c1,0,1.5-0.1,1.8-0.4s0.5-0.7,0.5-1.2c0-0.6-0.1-1-0.6-1.3c-0.3-0.2-0.9-0.3-1.7-0.3h-2v3.2L66.9,264.6
		L66.9,264.6z"/>
	<path class="st2" d="M72.4,265c0-3.3,2-5.5,5-5.5c2.9,0,4.8,2.2,4.8,5.6c0,3.5-1.9,5.5-4.8,5.5C74.3,270.6,72.4,268.4,72.4,265z
		 M77.4,261.2c-1.8,0-3,1.4-3,3.7c0,2.5,1.2,3.9,3,3.9c1.7,0,2.8-1.3,2.8-3.8C80.3,262.6,79.1,261.2,77.4,261.2z"/>
	<path class="st2" d="M83.9,259.8h3.3c1.9,0,2.7,0.1,3.5,0.5c1.5,0.7,2.1,2.5,2.1,4.7c0,1.7-0.5,3.2-1.4,4.1c-1,1-2.2,1.3-4.4,1.3
		h-3.1V259.8z M87.1,268.7c1.4,0,2.3-0.3,2.9-0.9s0.8-1.6,0.8-2.9c0-1.1-0.2-2.1-0.8-2.7c-0.5-0.5-1.1-0.8-2.6-0.8h-1.6v7.3H87.1z"
		/>
	<path class="st2" d="M102.8,265.8c0,1.7-0.2,2.7-0.9,3.5c-0.7,0.9-1.9,1.3-3.4,1.3s-2.7-0.4-3.4-1.3c-0.7-0.9-0.8-1.9-0.8-3.5v-6.1
		h1.9v6.2c0,0.8,0,1.5,0.3,2c0.4,0.7,1.1,1,2,1s1.7-0.2,2.1-1c0.2-0.4,0.3-1.1,0.3-1.9v-6.3h1.9V265.8z"/>
	<path class="st2" d="M111.5,263.1c-0.3-1.2-1-1.9-2.2-1.9c-1.9,0-3,1.4-3,3.7c0,2.4,1.1,4,3,4c1.2,0,2.1-0.7,2.4-2l1.8,0.7
		c-0.7,2-2.2,3-4.3,3c-3,0-4.9-2.1-4.9-5.6s2-5.5,5-5.5c2.1,0,3.5,1.1,4,2.9L111.5,263.1z"/>
	<path class="st2" d="M114.8,270.4v-10.6h7.4v1.6h-5.4v2.7h5v1.6h-5v3h5.7v1.7L114.8,270.4L114.8,270.4z"/>
</g>
<g class="st0">
	<path class="st2" d="M59.5,472.4l-2.7-4.2H55v4.2h-1.9v-10.6h3.4c1.4,0,2.4,0.1,3.2,0.4c1.1,0.4,1.6,1.3,1.6,2.7c0,1.7-1,2.7-2.6,3
		l3,4.5H59.5z M57,466.6c1,0,1.5-0.1,1.8-0.4s0.5-0.7,0.5-1.2c0-0.6-0.1-1-0.6-1.3c-0.3-0.2-0.9-0.3-1.7-0.3h-2v3.2L57,466.6
		L57,466.6z"/>
	<path class="st2" d="M62.9,472.4v-10.6h7.4v1.6h-5.4v2.7h5v1.6h-5v3h5.7v1.7L62.9,472.4L62.9,472.4z"/>
	<path class="st2" d="M72,472.4v-10.6h7.3v1.6H74v2.8h4.9v1.6H74v4.5h-2V472.4z"/>
	<path class="st2" d="M82.6,472.4h-1.9v-10.6h1.9V472.4z"/>
	<path class="st2" d="M86.7,461.8c2.3,3.9,3.7,6,4.7,7.8c-0.1-1.6-0.1-3.8-0.1-7.8h1.9v10.6h-2.1c-2.2-3.6-3.6-5.9-4.7-7.8
		c0,0.9,0.1,3,0.1,7.8h-1.9v-10.6H86.7z"/>
	<path class="st2" d="M95.2,472.4v-10.6h7.4v1.6h-5.4v2.7h5v1.6h-5v3h5.7v1.7L95.2,472.4L95.2,472.4z"/>
</g>
<g class="st0">
	<path class="st1" d="M216.2,733.8c2.3,3.9,3.7,6,4.7,7.8c-0.1-1.6-0.1-3.8-0.1-7.8h1.9v10.6h-2.1c-2.2-3.6-3.6-5.9-4.7-7.8
		c0,0.9,0.1,3,0.1,7.8h-1.9v-10.6H216.2z"/>
	<path class="st1" d="M224.2,744.4V743l5.8-7.5h-5.5v-1.6h7.9v1.5l-5.7,7.5h5.7v1.6L224.2,744.4L224.2,744.4z"/>
	<path class="st1" d="M233.3,744.4V743l5.8-7.5h-5.5v-1.6h7.9v1.5l-5.7,7.5h5.7v1.6L233.3,744.4L233.3,744.4z"/>
	<path class="st1" d="M248,736.9v1.1c0.5-0.7,1.2-1.2,2.3-1.2c1.7,0,3,1.3,3,3.9c0,2.4-1.4,3.9-3.1,3.9c-1.1,0-1.7-0.4-2.1-1v3.8
		h-1.7V737L248,736.9L248,736.9z M249.7,743c1,0,1.7-0.8,1.7-2.4c0-1.5-0.6-2.5-1.6-2.5s-1.8,0.8-1.8,2.4
		C248,742.1,248.7,743,249.7,743z"/>
	<path class="st1" d="M254.7,744.4v-7.5h1.7v1.2c0.5-0.8,1-1.2,2.1-1.2c0.2,0,0.4,0,0.6,0.1v1.8c-0.3-0.1-0.5-0.2-0.8-0.2
		c-0.6,0-1.1,0.3-1.4,0.7s-0.4,0.9-0.4,1.7v3.5L254.7,744.4L254.7,744.4z"/>
	<path class="st1" d="M260,735.4v-1.7h1.8v1.7H260z M261.8,744.4H260v-7.5h1.8V744.4z"/>
	<path class="st1" d="M268.4,744.4v-4.3c0-0.6-0.1-1-0.3-1.3c-0.2-0.3-0.5-0.4-1-0.4s-1,0.3-1.3,0.7c-0.4,0.5-0.4,1-0.4,1.8v3.6
		h-1.8V737h1.7v1.1c0.5-0.8,1.4-1.2,2.5-1.2c0.9,0,1.5,0.3,1.9,0.9c0.3,0.5,0.4,1,0.4,2v4.7L268.4,744.4L268.4,744.4z"/>
	<path class="st1" d="M275.5,744.3c-0.4,0.1-0.9,0.2-1.3,0.2c-0.7,0-1.2-0.2-1.5-0.5c-0.3-0.4-0.4-0.9-0.4-1.6v-4.1h-1.2v-1.4h1.2
		v-2.4h1.7v2.4h1.5v1.4H274v3.7c0,0.8,0.2,1,0.8,1c0.2,0,0.5,0,0.7-0.1V744.3z"/>
</g>
<g class="st0">
	<path class="st1" d="M215.8,754.9v1.1c0.5-0.7,1.2-1.2,2.3-1.2c1.7,0,3,1.3,3,3.9c0,2.4-1.4,3.9-3.1,3.9c-1.1,0-1.7-0.4-2.1-1v3.8
		h-1.7V755L215.8,754.9L215.8,754.9z M217.5,761c1,0,1.7-0.8,1.7-2.4c0-1.5-0.6-2.5-1.6-2.5s-1.8,0.8-1.8,2.4
		C215.8,760.1,216.4,761,217.5,761z"/>
	<path class="st1" d="M222.4,762.4v-7.5h1.7v1.2c0.5-0.8,1-1.2,2.1-1.2c0.2,0,0.4,0,0.6,0.1v1.8c-0.3-0.1-0.5-0.2-0.8-0.2
		c-0.6,0-1.1,0.3-1.4,0.7c-0.3,0.4-0.4,0.9-0.4,1.7v3.5L222.4,762.4L222.4,762.4z"/>
	<path class="st1" d="M231.1,762.6c-2.3,0-3.7-1.5-3.7-4s1.5-3.9,3.8-3.9c2.2,0,3.6,1.5,3.6,4C234.7,761.2,233.3,762.6,231.1,762.6z
		 M231.1,756.1c-1.1,0-1.9,0.9-1.9,2.4c0,1.7,0.8,2.5,1.9,2.5c1.1,0,1.9-0.8,1.9-2.4C233,757,232.2,756.1,231.1,756.1z"/>
	<path class="st1" d="M241,762.4v-1c-0.5,0.7-1.2,1.2-2.2,1.2c-1.7,0-3-1.3-3-3.9c0-2.4,1.4-3.9,3.1-3.9c1.1,0,1.7,0.4,2.1,1v-3.9
		h1.7v10.6L241,762.4L241,762.4z M239.3,756.2c-1,0-1.7,0.8-1.7,2.4c0,1.5,0.6,2.5,1.7,2.5c1,0,1.8-0.8,1.8-2.4
		C241,757.1,240.3,756.2,239.3,756.2z"/>
	<path class="st1" d="M246.2,754.9v4.3c0,0.5,0.1,0.9,0.2,1.2c0.2,0.4,0.6,0.6,1.1,0.6s0.9-0.3,1.2-0.6c0.3-0.4,0.5-0.9,0.5-1.6
		v-3.9h1.8v7.5h-1.7v-1.1c-0.5,0.7-1.3,1.2-2.3,1.2s-1.5-0.3-2-0.9c-0.3-0.5-0.5-1.1-0.5-2v-4.7H246.2z"/>
	<path class="st1" d="M257.4,757.5c-0.2-1-0.8-1.3-1.5-1.3c-1,0-1.8,0.8-1.8,2.4c0,1.7,0.7,2.5,1.8,2.5c0.8,0,1.3-0.4,1.5-1.2
		l1.6,0.5c-0.4,1.2-1.4,2.1-3.1,2.1c-2.2,0-3.6-1.5-3.6-4c0-2.4,1.4-3.9,3.6-3.9c1.6,0,2.6,0.9,3,2.2L257.4,757.5z"/>
	<path class="st1" d="M263.8,762.3c-0.4,0.1-0.9,0.2-1.3,0.2c-0.7,0-1.2-0.2-1.5-0.5c-0.3-0.4-0.4-0.9-0.4-1.6v-4.1h-1.2v-1.4h1.2
		v-2.4h1.7v2.4h1.5v1.4h-1.5v3.7c0,0.8,0.2,1,0.8,1c0.2,0,0.5,0,0.7-0.1L263.8,762.3L263.8,762.3z"/>
	<path class="st1" d="M265.5,760c0.4,0.8,1.1,1.2,1.9,1.2s1.2-0.3,1.2-0.8s-0.3-0.7-1.4-1.1l-0.8-0.3c-1.2-0.4-1.9-1-1.9-2.2
		s1.1-2.2,2.9-2.2c1.2,0,2.3,0.5,2.9,1.5L269,757c-0.4-0.7-0.9-1-1.7-1c-0.8,0-1.1,0.3-1.1,0.7s0.2,0.7,1.2,1l0.8,0.2
		c1.3,0.4,2.1,1,2.1,2.2c0,1.4-1.2,2.4-3,2.4c-1.5,0-2.6-0.7-3.2-1.7L265.5,760z"/>
</g>
<g class="st0">
	<path class="st1" d="M412.2,564.8c2.3,3.9,3.7,6,4.7,7.8c-0.1-1.6-0.1-3.8-0.1-7.8h1.9v10.6h-2.1c-2.2-3.6-3.6-5.9-4.7-7.8
		c0,0.9,0.1,3,0.1,7.8h-1.9v-10.6H412.2z"/>
	<path class="st1" d="M420.2,575.4V574l5.8-7.5h-5.5v-1.6h7.9v1.5l-5.7,7.5h5.7v1.6L420.2,575.4L420.2,575.4z"/>
	<path class="st1" d="M429.3,575.4V574l5.8-7.5h-5.5v-1.6h7.9v1.5l-5.7,7.5h5.7v1.6L429.3,575.4L429.3,575.4z"/>
	<path class="st1" d="M445.5,575.6c-2.3,0-3.7-1.5-3.7-4s1.5-3.9,3.8-3.9c2.2,0,3.6,1.5,3.6,4C449.2,574.2,447.7,575.6,445.5,575.6z
		 M445.6,569.1c-1.1,0-1.9,0.9-1.9,2.4c0,1.7,0.8,2.5,1.9,2.5s1.9-0.8,1.9-2.4C447.4,570,446.7,569.1,445.6,569.1z"/>
	<path class="st1" d="M455.4,575.4v-4.3c0-0.6-0.1-1-0.3-1.3c-0.2-0.3-0.5-0.4-1-0.4s-1,0.3-1.3,0.7c-0.4,0.5-0.4,1-0.4,1.8v3.6
		h-1.8V568h1.7v1.1c0.5-0.8,1.4-1.2,2.5-1.2c0.9,0,1.5,0.3,1.9,0.9c0.3,0.5,0.4,1,0.4,2v4.7L455.4,575.4L455.4,575.4z"/>
	<path class="st1" d="M460.6,575.4h-1.8v-10.6h1.8V575.4z"/>
	<path class="st1" d="M462.4,566.4v-1.7h1.8v1.7H462.4z M464.2,575.4h-1.8v-7.5h1.8V575.4z"/>
	<path class="st1" d="M470.8,575.4v-4.3c0-0.6-0.1-1-0.3-1.3c-0.2-0.3-0.5-0.4-1-0.4s-1,0.3-1.3,0.7c-0.4,0.5-0.4,1-0.4,1.8v3.6H466
		V568h1.7v1.1c0.5-0.8,1.4-1.2,2.5-1.2c0.9,0,1.5,0.3,1.9,0.9c0.3,0.5,0.4,1,0.4,2v4.7L470.8,575.4L470.8,575.4z"/>
	<path class="st1" d="M480.8,573.5c-0.6,1.3-1.7,2.1-3.3,2.1c-2.4,0-3.7-1.6-3.7-4s1.4-3.9,3.6-3.9c2.4,0,3.4,1.7,3.4,4.4h-5.2
		c0.1,1.3,0.8,2,2,2c0.8,0,1.4-0.3,1.7-1.2L480.8,573.5z M479.1,570.8c-0.1-1.2-0.7-1.8-1.6-1.8s-1.7,0.6-1.8,1.8H479.1z"/>
</g>
<g class="st0">
	<path class="st1" d="M411.8,585.9v1.1c0.5-0.7,1.2-1.2,2.3-1.2c1.7,0,3,1.3,3,3.9c0,2.4-1.4,3.9-3.1,3.9c-1.1,0-1.7-0.4-2.1-1v3.8
		h-1.7V586L411.8,585.9L411.8,585.9z M413.5,592c1,0,1.7-0.8,1.7-2.4c0-1.5-0.6-2.5-1.6-2.5s-1.8,0.8-1.8,2.4
		C411.8,591.1,412.4,592,413.5,592z"/>
	<path class="st1" d="M418.4,593.4v-7.5h1.7v1.2c0.5-0.8,1-1.2,2.1-1.2c0.2,0,0.4,0,0.6,0.1v1.8c-0.3-0.1-0.5-0.2-0.8-0.2
		c-0.6,0-1.1,0.3-1.4,0.7s-0.4,0.9-0.4,1.7v3.5L418.4,593.4L418.4,593.4z"/>
	<path class="st1" d="M427.1,593.6c-2.3,0-3.7-1.5-3.7-4s1.5-3.9,3.8-3.9c2.2,0,3.6,1.5,3.6,4C430.7,592.2,429.3,593.6,427.1,593.6z
		 M427.1,587.1c-1.1,0-1.9,0.9-1.9,2.4c0,1.7,0.8,2.5,1.9,2.5s1.9-0.8,1.9-2.4C429,588,428.2,587.1,427.1,587.1z"/>
	<path class="st1" d="M437,593.4v-1c-0.5,0.7-1.2,1.2-2.2,1.2c-1.7,0-3-1.3-3-3.9c0-2.4,1.4-3.9,3.1-3.9c1.1,0,1.7,0.4,2.1,1v-3.9
		h1.7v10.6L437,593.4L437,593.4z M435.3,587.2c-1,0-1.7,0.8-1.7,2.4c0,1.5,0.6,2.5,1.7,2.5c1,0,1.8-0.8,1.8-2.4
		C437,588.1,436.3,587.2,435.3,587.2z"/>
	<path class="st1" d="M442.2,585.9v4.3c0,0.5,0.1,0.9,0.2,1.2c0.2,0.4,0.6,0.6,1.1,0.6s0.9-0.3,1.2-0.6c0.3-0.4,0.5-0.9,0.5-1.6
		v-3.9h1.8v7.5h-1.7v-1.1c-0.5,0.7-1.3,1.2-2.3,1.2s-1.5-0.3-2-0.9c-0.3-0.5-0.5-1.1-0.5-2v-4.7H442.2z"/>
	<path class="st1" d="M453.4,588.5c-0.2-1-0.8-1.3-1.5-1.3c-1,0-1.8,0.8-1.8,2.4c0,1.7,0.7,2.5,1.8,2.5c0.8,0,1.3-0.4,1.5-1.2
		l1.6,0.5c-0.4,1.2-1.4,2.1-3.1,2.1c-2.2,0-3.6-1.5-3.6-4c0-2.4,1.4-3.9,3.6-3.9c1.6,0,2.6,0.9,3,2.2L453.4,588.5z"/>
	<path class="st1" d="M459.8,593.3c-0.4,0.1-0.9,0.2-1.3,0.2c-0.7,0-1.2-0.2-1.5-0.5c-0.3-0.4-0.4-0.9-0.4-1.6v-4.1h-1.2v-1.4h1.2
		v-2.4h1.7v2.4h1.5v1.4h-1.5v3.7c0,0.8,0.2,1,0.8,1c0.2,0,0.5,0,0.7-0.1L459.8,593.3L459.8,593.3z"/>
	<path class="st1" d="M461.5,591c0.4,0.8,1.1,1.2,1.9,1.2s1.2-0.3,1.2-0.8s-0.3-0.7-1.4-1.1l-0.8-0.3c-1.2-0.4-1.9-1-1.9-2.2
		s1.1-2.2,2.9-2.2c1.2,0,2.3,0.5,2.9,1.5L465,588c-0.4-0.7-0.9-1-1.7-1c-0.8,0-1.1,0.3-1.1,0.7s0.2,0.7,1.2,1l0.8,0.2
		c1.3,0.4,2.1,1,2.1,2.2c0,1.4-1.2,2.4-3,2.4c-1.5,0-2.6-0.7-3.2-1.7L461.5,591z"/>
</g>
<g class="st0">
	<path class="st1" d="M61.1,297.4v-10.6H63v8.9h5v1.7H61.1z"/>
	<path class="st1" d="M69.3,288.4v-1.7h1.8v1.7H69.3z M71.1,297.4h-1.8v-7.5h1.8V297.4z"/>
	<path class="st1" d="M74.7,297.4l-2.7-7.5h1.9c0.9,2.5,1.4,4.1,1.8,5.7c0.4-1.5,0.9-3.1,1.8-5.7h1.9l-2.7,7.5H74.7z"/>
	<path class="st1" d="M80.4,288.4v-1.7h1.8v1.7H80.4z M82.1,297.4h-1.8v-7.5h1.8V297.4z"/>
	<path class="st1" d="M88.7,297.4v-4.3c0-0.6-0.1-1-0.3-1.3c-0.2-0.3-0.5-0.4-1-0.4s-1,0.3-1.3,0.7c-0.4,0.5-0.4,1-0.4,1.8v3.6H84
		V290h1.7v1.1c0.5-0.8,1.4-1.2,2.5-1.2c0.9,0,1.5,0.3,1.9,0.9c0.3,0.5,0.4,1,0.4,2v4.7h-1.8V297.4z"/>
	<path class="st1" d="M97,296.3c-0.5,0.6-1.2,1-2.2,1c-1.8,0-3-1.4-3-3.8c0-2.3,1.3-3.8,3.1-3.8c1,0,1.8,0.4,2.2,1v-0.9h1.7v7
		c0,1.5-0.4,2.5-1.2,3.1c-0.6,0.4-1.4,0.6-2.4,0.6c-1.8,0-3-0.8-3.3-2.3l1.8-0.3c0.1,0.8,0.7,1.2,1.5,1.2c0.7,0,1.2-0.2,1.4-0.6
		c0.2-0.3,0.3-0.8,0.3-1.5L97,296.3L97,296.3z M95.4,291.2c-1.1,0-1.8,0.8-1.8,2.3s0.7,2.4,1.7,2.4s1.7-0.7,1.7-2.2
		C97,292.2,96.5,291.2,95.4,291.2z"/>
	<path class="st1" d="M105.5,297.4v-1c-0.5,0.7-1.2,1.2-2.2,1.2c-1.7,0-3-1.3-3-3.9c0-2.4,1.4-3.9,3.1-3.9c1.1,0,1.7,0.4,2.1,1v-3.9
		h1.7v10.6h-1.7V297.4z M103.8,291.2c-1,0-1.7,0.8-1.7,2.4c0,1.5,0.6,2.5,1.7,2.5c1,0,1.8-0.8,1.8-2.4
		C105.5,292.1,104.8,291.2,103.8,291.2z"/>
	<path class="st1" d="M112.3,297.6c-2.3,0-3.7-1.5-3.7-4s1.5-3.9,3.8-3.9c2.2,0,3.6,1.5,3.6,4C115.9,296.2,114.5,297.6,112.3,297.6z
		 M112.3,291.1c-1.1,0-1.9,0.9-1.9,2.4c0,1.7,0.8,2.5,1.9,2.5s1.9-0.8,1.9-2.4C114.2,292,113.4,291.1,112.3,291.1z"/>
	<path class="st1" d="M122,292.5c-0.2-1-0.8-1.3-1.5-1.3c-1,0-1.8,0.8-1.8,2.4c0,1.7,0.7,2.5,1.8,2.5c0.8,0,1.3-0.4,1.5-1.2l1.6,0.5
		c-0.4,1.2-1.4,2.1-3.1,2.1c-2.2,0-3.6-1.5-3.6-4c0-2.4,1.4-3.9,3.6-3.9c1.6,0,2.6,0.9,3,2.2L122,292.5z"/>
	<path class="st1" d="M125.4,295c0.4,0.8,1.1,1.2,1.9,1.2s1.2-0.3,1.2-0.8s-0.3-0.7-1.4-1.1l-0.8-0.3c-1.2-0.4-1.9-1-1.9-2.2
		s1.1-2.2,2.9-2.2c1.2,0,2.3,0.5,2.9,1.5l-1.3,0.9c-0.4-0.7-0.9-1-1.7-1c-0.8,0-1.1,0.3-1.1,0.7c0,0.4,0.2,0.7,1.2,1l0.8,0.2
		c1.3,0.4,2.1,1,2.1,2.2c0,1.4-1.2,2.4-3,2.4c-1.5,0-2.6-0.7-3.2-1.7L125.4,295z"/>
</g>
<g class="st0">
	<path class="st1" d="M61.1,315.4v-10.6h7.4v1.6H63v2.7h5v1.6h-5v3h5.7v1.7L61.1,315.4L61.1,315.4z"/>
	<path class="st1" d="M74.7,315.4v-1c-0.5,0.7-1.2,1.2-2.2,1.2c-1.7,0-3-1.3-3-3.9c0-2.4,1.4-3.9,3.1-3.9c1.1,0,1.7,0.4,2.1,1v-3.9
		h1.7v10.6h-1.7V315.4z M73,309.2c-1,0-1.7,0.8-1.7,2.4c0,1.5,0.6,2.5,1.7,2.5c1,0,1.8-0.8,1.8-2.4C74.7,310.1,74.1,309.2,73,309.2z
		"/>
	<path class="st1" d="M78.2,306.4v-1.7H80v1.7H78.2z M80,315.4h-1.8v-7.5H80V315.4z"/>
	<path class="st1" d="M85.5,315.3c-0.4,0.1-0.9,0.2-1.3,0.2c-0.7,0-1.2-0.2-1.5-0.5c-0.3-0.4-0.4-0.9-0.4-1.6v-4.1h-1.2v-1.4h1.2
		v-2.4H84v2.4h1.5v1.4H84v3.7c0,0.8,0.2,1,0.8,1c0.2,0,0.5,0,0.7-0.1V315.3z"/>
	<path class="st1" d="M89.8,315.6c-2.3,0-3.7-1.5-3.7-4s1.5-3.9,3.8-3.9c2.2,0,3.6,1.5,3.6,4C93.5,314.2,92,315.6,89.8,315.6z
		 M89.9,309.1c-1.1,0-1.9,0.9-1.9,2.4c0,1.7,0.8,2.5,1.9,2.5s1.9-0.8,1.9-2.4C91.7,310,91,309.1,89.9,309.1z"/>
	<path class="st1" d="M94.9,315.4v-7.5h1.7v1.2c0.5-0.8,1-1.2,2.1-1.2c0.2,0,0.4,0,0.6,0.1v1.8c-0.3-0.1-0.5-0.2-0.8-0.2
		c-0.6,0-1.1,0.3-1.4,0.7c-0.3,0.4-0.4,0.9-0.4,1.7v3.5h-1.8V315.4z"/>
</g>
<g class="st0">
	<path class="st1" d="M224.1,104.8h3.3c1.9,0,2.7,0.1,3.5,0.5c1.5,0.7,2.1,2.5,2.1,4.7c0,1.7-0.5,3.2-1.4,4.1c-1,1-2.2,1.3-4.4,1.3
		h-3.1L224.1,104.8L224.1,104.8z M227.4,113.7c1.4,0,2.3-0.3,2.9-0.9c0.6-0.6,0.8-1.6,0.8-2.9c0-1.1-0.2-2.1-0.8-2.7
		c-0.5-0.5-1.1-0.8-2.6-0.8H226v7.3H227.4z"/>
	<path class="st1" d="M241.1,113.5c-0.6,1.3-1.7,2.1-3.3,2.1c-2.4,0-3.7-1.6-3.7-4s1.4-3.9,3.6-3.9c2.4,0,3.4,1.7,3.4,4.4h-5.2
		c0.1,1.3,0.8,2,2,2c0.8,0,1.4-0.3,1.7-1.2L241.1,113.5z M239.3,110.8c-0.1-1.2-0.7-1.8-1.6-1.8s-1.7,0.6-1.8,1.8H239.3z"/>
	<path class="st1" d="M243.2,113c0.4,0.8,1.1,1.2,1.9,1.2c0.8,0,1.2-0.3,1.2-0.8s-0.3-0.7-1.4-1.1l-0.8-0.3c-1.2-0.4-1.9-1-1.9-2.2
		s1.1-2.2,2.9-2.2c1.2,0,2.3,0.5,2.9,1.5l-1.3,0.9c-0.4-0.7-0.9-1-1.7-1s-1.1,0.3-1.1,0.7c0,0.4,0.2,0.7,1.2,1l0.8,0.2
		c1.3,0.4,2.1,1,2.1,2.2c0,1.4-1.2,2.4-3,2.4c-1.5,0-2.6-0.7-3.2-1.7L243.2,113z"/>
	<path class="st1" d="M254.3,115.4l-2.1-3.4l-1.1,1.2v2.2h-1.8v-10.6h1.8v6.3l2.8-3.2h2.1l-2.6,2.8l2.9,4.6L254.3,115.4L254.3,115.4
		z"/>
	<path class="st1" d="M256.3,111.5v-1.4h4.3v1.4H256.3z"/>
	<path class="st1" d="M264.4,104.8c2.3,3.9,3.7,6,4.7,7.8c-0.1-1.6-0.1-3.8-0.1-7.8h1.9v10.6h-2.1c-2.2-3.6-3.6-5.9-4.7-7.8
		c0,0.9,0.1,3,0.1,7.8h-1.9v-10.6H264.4z"/>
	<path class="st1" d="M279.3,113.5c-0.6,1.3-1.7,2.1-3.3,2.1c-2.4,0-3.7-1.6-3.7-4s1.4-3.9,3.6-3.9c2.4,0,3.4,1.7,3.4,4.4h-5.2
		c0.1,1.3,0.8,2,2,2c0.8,0,1.4-0.3,1.7-1.2L279.3,113.5z M277.6,110.8c-0.1-1.2-0.7-1.8-1.6-1.8s-1.7,0.6-1.8,1.8H277.6z"/>
	<path class="st1" d="M284.3,115.3c-0.4,0.1-0.9,0.2-1.3,0.2c-0.7,0-1.2-0.2-1.5-0.5c-0.3-0.4-0.4-0.9-0.4-1.6v-4.1h-1.2v-1.4h1.2
		v-2.4h1.7v2.4h1.5v1.4h-1.5v3.7c0,0.8,0.2,1,0.8,1c0.2,0,0.5,0,0.7-0.1L284.3,115.3L284.3,115.3z"/>
</g>
<g class="st0">
	<path class="st1" d="M331.9,108.1c-0.3-1.2-1-1.9-2.2-1.9c-1.9,0-3,1.4-3,3.7c0,2.4,1.1,4,3,4c1.2,0,2.1-0.7,2.4-2l1.8,0.7
		c-0.7,2-2.2,3-4.3,3c-3,0-4.9-2.1-4.9-5.6s2-5.5,5-5.5c2.1,0,3.5,1.1,4,2.9L331.9,108.1z"/>
	<path class="st1" d="M339.8,115.4v-4.3c0-0.6-0.1-1.1-0.3-1.4c-0.2-0.3-0.5-0.4-1-0.4s-1,0.3-1.3,0.7c-0.4,0.5-0.4,1-0.4,1.8v3.6
		H335v-10.6h1.7v4.2c0.5-0.8,1.4-1.2,2.5-1.2c0.9,0,1.5,0.3,1.8,0.8s0.5,1,0.5,2.2v4.6C341.5,115.4,339.8,115.4,339.8,115.4z"/>
	<path class="st1" d="M347.6,110.3c0-0.4-0.1-0.7-0.3-0.9c-0.2-0.2-0.6-0.3-1-0.3c-0.9,0-1.3,0.5-1.4,1.3l-1.7-0.1
		c0.1-1.6,1.3-2.5,3.2-2.5c1,0,1.7,0.2,2.2,0.7c0.5,0.4,0.6,1,0.6,2.2v2.7c0,0.9,0.1,1.6,0.2,2h-1.7c-0.1-0.2-0.2-0.7-0.2-0.9
		c-0.6,0.7-1.4,1.1-2.4,1.1c-1.4,0-2.3-0.9-2.3-2.2c0-1,0.5-1.6,1.4-2c0.7-0.3,2.2-0.5,3.4-0.6L347.6,110.3L347.6,110.3z
		 M347.6,111.9c-0.9,0-1.9,0.2-2.4,0.5c-0.5,0.2-0.6,0.5-0.6,0.9c0,0.5,0.4,0.9,1.1,0.9s1.2-0.3,1.6-0.8c0.2-0.3,0.3-0.8,0.3-1.2
		V111.9z"/>
	<path class="st1" d="M351,115.4v-7.5h1.7v1.2c0.5-0.8,1-1.2,2.1-1.2c0.2,0,0.4,0,0.6,0.1v1.8c-0.3-0.1-0.5-0.2-0.8-0.2
		c-0.6,0-1.1,0.3-1.4,0.7c-0.3,0.4-0.4,0.9-0.4,1.7v3.5L351,115.4L351,115.4z"/>
	<path class="st1" d="M360.2,115.3c-0.4,0.1-0.9,0.2-1.3,0.2c-0.7,0-1.2-0.2-1.5-0.5c-0.3-0.4-0.4-0.9-0.4-1.6v-4.1h-1.2v-1.4h1.2
		v-2.4h1.7v2.4h1.5v1.4h-1.5v3.7c0,0.8,0.2,1,0.8,1c0.2,0,0.5,0,0.7-0.1L360.2,115.3L360.2,115.3z"/>
	<path class="st1" d="M363,104.8v4.1c0.5-0.6,1.3-1.2,2.3-1.2c1.8,0,2.9,1.5,2.9,3.9s-1.2,3.9-3.1,3.9c-1,0-1.7-0.4-2.2-1.1v1h-1.7
		v-10.6C361.2,104.8,363,104.8,363,104.8z M364.7,114c1,0,1.7-0.8,1.7-2.4c0-1.5-0.6-2.4-1.6-2.4c-1.1,0-1.8,0.9-1.8,2.3
		C363,113.1,363.6,114,364.7,114z"/>
	<path class="st1" d="M376.2,113.5c-0.6,1.3-1.7,2.1-3.3,2.1c-2.4,0-3.7-1.6-3.7-4s1.4-3.9,3.6-3.9c2.4,0,3.4,1.7,3.4,4.4H371
		c0.1,1.3,0.8,2,2,2c0.8,0,1.4-0.3,1.7-1.2L376.2,113.5z M374.5,110.8c-0.1-1.2-0.7-1.8-1.6-1.8s-1.7,0.6-1.8,1.8H374.5z"/>
	<path class="st1" d="M381.9,110.3c0-0.4-0.1-0.7-0.3-0.9c-0.2-0.2-0.6-0.3-1-0.3c-0.9,0-1.3,0.5-1.4,1.3l-1.7-0.1
		c0.1-1.6,1.3-2.5,3.2-2.5c1,0,1.7,0.2,2.2,0.7c0.5,0.4,0.6,1,0.6,2.2v2.7c0,0.9,0.1,1.6,0.2,2H382c-0.1-0.2-0.2-0.7-0.2-0.9
		c-0.6,0.7-1.4,1.1-2.4,1.1c-1.4,0-2.3-0.9-2.3-2.2c0-1,0.5-1.6,1.4-2c0.7-0.3,2.2-0.5,3.4-0.6L381.9,110.3L381.9,110.3z
		 M381.9,111.9c-0.9,0-1.9,0.2-2.4,0.5c-0.5,0.2-0.6,0.5-0.6,0.9c0,0.5,0.4,0.9,1.1,0.9s1.2-0.3,1.6-0.8c0.2-0.3,0.3-0.8,0.3-1.2
		V111.9z"/>
	<path class="st1" d="M389,115.3c-0.4,0.1-0.9,0.2-1.3,0.2c-0.7,0-1.2-0.2-1.5-0.5c-0.3-0.4-0.4-0.9-0.4-1.6v-4.1h-1.2v-1.4h1.2
		v-2.4h1.7v2.4h1.5v1.4h-1.5v3.7c0,0.8,0.2,1,0.8,1c0.2,0,0.5,0,0.7-0.1L389,115.3L389,115.3z"/>
</g>
<g class="st0">
	<path class="st1" d="M225.1,297.4v-10.6h1.9v8.9h5v1.7H225.1z"/>
	<path class="st1" d="M233.3,288.4v-1.7h1.8v1.7H233.3z M235.1,297.4h-1.8v-7.5h1.8V297.4z"/>
	<path class="st1" d="M238.7,297.4l-2.7-7.5h1.9c0.9,2.5,1.4,4.1,1.8,5.7c0.4-1.5,0.9-3.1,1.8-5.7h1.9l-2.7,7.5H238.7z"/>
	<path class="st1" d="M244.4,288.4v-1.7h1.8v1.7H244.4z M246.1,297.4h-1.8v-7.5h1.8V297.4z"/>
	<path class="st1" d="M252.7,297.4v-4.3c0-0.6-0.1-1-0.3-1.3s-0.5-0.4-1-0.4s-1,0.3-1.3,0.7c-0.4,0.5-0.4,1-0.4,1.8v3.6H248V290h1.7
		v1.1c0.5-0.8,1.4-1.2,2.5-1.2c0.9,0,1.5,0.3,1.9,0.9c0.3,0.5,0.4,1,0.4,2v4.7h-1.8V297.4z"/>
	<path class="st1" d="M261,296.3c-0.5,0.6-1.2,1-2.2,1c-1.8,0-3-1.4-3-3.8c0-2.3,1.3-3.8,3.1-3.8c1,0,1.8,0.4,2.2,1v-0.9h1.7v7
		c0,1.5-0.4,2.5-1.2,3.1c-0.6,0.4-1.4,0.6-2.4,0.6c-1.8,0-3-0.8-3.3-2.3l1.8-0.3c0.1,0.8,0.7,1.2,1.5,1.2c0.7,0,1.2-0.2,1.4-0.6
		c0.2-0.3,0.3-0.8,0.3-1.5v-0.7H261z M259.4,291.2c-1.1,0-1.8,0.8-1.8,2.3s0.7,2.4,1.7,2.4s1.7-0.7,1.7-2.2
		C261,292.2,260.5,291.2,259.4,291.2z"/>
	<path class="st1" d="M269.5,297.4v-1c-0.5,0.7-1.2,1.2-2.2,1.2c-1.7,0-3-1.3-3-3.9c0-2.4,1.4-3.9,3.1-3.9c1.1,0,1.7,0.4,2.1,1v-3.9
		h1.7v10.6h-1.7V297.4z M267.8,291.2c-1,0-1.7,0.8-1.7,2.4c0,1.5,0.6,2.5,1.7,2.5c1,0,1.8-0.8,1.8-2.4
		C269.5,292.1,268.8,291.2,267.8,291.2z"/>
	<path class="st1" d="M276.3,297.6c-2.3,0-3.7-1.5-3.7-4s1.5-3.9,3.8-3.9c2.2,0,3.6,1.5,3.6,4C279.9,296.2,278.5,297.6,276.3,297.6z
		 M276.3,291.1c-1.1,0-1.9,0.9-1.9,2.4c0,1.7,0.8,2.5,1.9,2.5s1.9-0.8,1.9-2.4C278.2,292,277.4,291.1,276.3,291.1z"/>
	<path class="st1" d="M286,292.5c-0.2-1-0.8-1.3-1.5-1.3c-1,0-1.8,0.8-1.8,2.4c0,1.7,0.7,2.5,1.8,2.5c0.8,0,1.3-0.4,1.5-1.2l1.6,0.5
		c-0.4,1.2-1.4,2.1-3.1,2.1c-2.2,0-3.6-1.5-3.6-4c0-2.4,1.4-3.9,3.6-3.9c1.6,0,2.6,0.9,3,2.2L286,292.5z"/>
	<path class="st1" d="M289.4,295c0.4,0.8,1.1,1.2,1.9,1.2s1.2-0.3,1.2-0.8s-0.3-0.7-1.4-1.1l-0.8-0.3c-1.2-0.4-1.9-1-1.9-2.2
		s1-2.2,2.9-2.2c1.2,0,2.3,0.5,2.9,1.5l-1.3,0.9c-0.4-0.7-0.9-1-1.7-1c-0.8,0-1.1,0.3-1.1,0.7c0,0.4,0.2,0.7,1.2,1l0.8,0.2
		c1.3,0.4,2.1,1,2.1,2.2c0,1.4-1.2,2.4-3,2.4c-1.5,0-2.6-0.7-3.2-1.7L289.4,295z"/>
</g>
<g class="st0">
	<path class="st1" d="M225.9,312.1c0.6,1.3,1.6,1.9,2.8,1.9c1.3,0,2-0.5,2-1.3s-0.5-1-2-1.6l-1.1-0.4c-1.8-0.6-2.6-1.5-2.6-3
		c0-1.8,1.6-3.1,3.8-3.1c1.8,0,3.2,0.8,4,2.2l-1.5,1.1c-0.7-1.2-1.6-1.6-2.7-1.6c-1.1,0-1.6,0.5-1.6,1.2s0.4,1,1.8,1.5l1.2,0.4
		c2,0.6,2.9,1.5,2.9,3.1c0,1.9-1.6,3.2-4,3.2c-1.9,0-3.5-0.9-4.3-2.4L225.9,312.1z"/>
	<path class="st1" d="M240.7,313.5c-0.6,1.3-1.7,2.1-3.3,2.1c-2.4,0-3.7-1.6-3.7-4s1.4-3.9,3.6-3.9c2.4,0,3.4,1.7,3.4,4.4h-5.2
		c0.1,1.3,0.8,2,2,2c0.8,0,1.4-0.3,1.7-1.2L240.7,313.5z M239,310.8c-0.1-1.2-0.7-1.8-1.6-1.8s-1.7,0.6-1.8,1.8H239z"/>
	<path class="st1" d="M242.1,315.4v-7.5h1.7v1.2c0.5-0.8,1-1.2,2.1-1.2c0.2,0,0.4,0,0.6,0.1v1.8c-0.3-0.1-0.5-0.2-0.8-0.2
		c-0.6,0-1.1,0.3-1.4,0.7c-0.3,0.4-0.4,0.9-0.4,1.7v3.5h-1.8V315.4z"/>
	<path class="st1" d="M249.5,315.4l-2.7-7.5h1.9c0.9,2.5,1.4,4.1,1.8,5.7c0.4-1.5,0.9-3.1,1.8-5.7h1.9l-2.7,7.5H249.5z"/>
	<path class="st1" d="M261.5,313.5c-0.6,1.3-1.7,2.1-3.3,2.1c-2.4,0-3.7-1.6-3.7-4s1.4-3.9,3.6-3.9c2.4,0,3.4,1.7,3.4,4.4h-5.2
		c0.1,1.3,0.8,2,2,2c0.8,0,1.4-0.3,1.7-1.2L261.5,313.5z M259.8,310.8c-0.1-1.2-0.7-1.8-1.6-1.8s-1.7,0.6-1.8,1.8H259.8z"/>
	<path class="st1" d="M262.9,315.4v-7.5h1.7v1.2c0.5-0.8,1-1.2,2.1-1.2c0.2,0,0.4,0,0.6,0.1v1.8c-0.3-0.1-0.5-0.2-0.8-0.2
		c-0.6,0-1.1,0.3-1.4,0.7c-0.3,0.4-0.4,0.9-0.4,1.7v3.5h-1.8V315.4z"/>
</g>
<g class="st0">
	<path class="st1" d="M70.1,644.4c-1.2-4.6-1.6-6.1-2-8c-0.5,1.9-0.8,3.4-2.2,8h-2l-2.8-10.6h2c0.7,3,1.3,5.4,1.9,8.2
		c0.5-2.2,0.9-4,2-8.2h2c0.8,3.2,1.6,6,2.1,8.2c0.2-1.2,0.7-3.6,1.8-8.2h2l-2.8,10.6H70.1z"/>
	<path class="st1" d="M78.4,644.6c-2.3,0-3.7-1.5-3.7-4s1.5-3.9,3.8-3.9c2.2,0,3.6,1.5,3.6,4C82,643.2,80.6,644.6,78.4,644.6z
		 M78.4,638.1c-1.1,0-1.9,0.9-1.9,2.4c0,1.7,0.8,2.5,1.9,2.5s1.9-0.8,1.9-2.4C80.3,639,79.6,638.1,78.4,638.1z"/>
	<path class="st1" d="M86.7,644.6c-2.3,0-3.7-1.5-3.7-4s1.5-3.9,3.8-3.9c2.2,0,3.6,1.5,3.6,4C90.4,643.2,88.9,644.6,86.7,644.6z
		 M86.8,638.1c-1.1,0-1.9,0.9-1.9,2.4c0,1.7,0.8,2.5,1.9,2.5s1.9-0.8,1.9-2.4C88.6,639,87.9,638.1,86.8,638.1z"/>
	<path class="st1" d="M96.6,644.4v-1c-0.5,0.7-1.2,1.2-2.2,1.2c-1.7,0-3-1.3-3-3.9c0-2.4,1.4-3.9,3.1-3.9c1.1,0,1.7,0.4,2.1,1v-3.9
		h1.7v10.6L96.6,644.4L96.6,644.4z M94.9,638.2c-1,0-1.7,0.8-1.7,2.4c0,1.5,0.6,2.5,1.7,2.5c1,0,1.8-0.8,1.8-2.4
		C96.6,639.1,96,638.2,94.9,638.2z"/>
	<path class="st1" d="M99.9,640.5v-1.4h4.3v1.4H99.9z"/>
</g>
<g class="st0">
	<path class="st1" d="M68.2,662.4c-0.5-2-1-3.8-1.3-5.5c-0.3,1.4-0.7,2.8-1.4,5.5h-2l-2.2-7.5h1.9c0.5,2,1.1,4.2,1.5,5.6
		c0.3-1.4,0.6-2.9,1.4-5.6h1.8c0.6,2.4,1,4,1.4,5.6c0.4-1.6,0.9-3.7,1.5-5.6h1.8l-2.3,7.5H68.2z"/>
	<path class="st1" d="M73.3,653.4v-1.7h1.8v1.7H73.3z M75.1,662.4h-1.8v-7.5h1.8V662.4z"/>
	<path class="st1" d="M81.6,662.4v-4.3c0-0.6-0.1-1-0.3-1.3c-0.2-0.3-0.5-0.4-1-0.4s-1,0.3-1.3,0.7c-0.4,0.5-0.4,1-0.4,1.8v3.6h-1.8
		V655h1.7v1.1c0.5-0.8,1.4-1.2,2.5-1.2c0.9,0,1.5,0.3,1.9,0.9c0.3,0.5,0.4,1,0.4,2v4.7L81.6,662.4L81.6,662.4z"/>
	<path class="st1" d="M89.9,661.3c-0.5,0.6-1.2,1-2.2,1c-1.8,0-3-1.4-3-3.8c0-2.3,1.3-3.8,3.1-3.8c1,0,1.8,0.4,2.2,1v-0.9h1.7v7
		c0,1.5-0.4,2.5-1.2,3.1c-0.6,0.4-1.4,0.6-2.4,0.6c-1.8,0-3-0.8-3.3-2.3l1.8-0.3c0.1,0.8,0.7,1.2,1.5,1.2c0.7,0,1.2-0.2,1.4-0.6
		c0.2-0.3,0.3-0.8,0.3-1.5L89.9,661.3L89.9,661.3z M88.3,656.2c-1.1,0-1.8,0.8-1.8,2.3s0.7,2.4,1.7,2.4s1.7-0.7,1.7-2.2
		C90,657.2,89.4,656.2,88.3,656.2z"/>
</g>
<g class="st0">
	<path class="st1" d="M65.8,555.4v-4.3c0-0.6-0.1-1.1-0.3-1.4c-0.2-0.3-0.5-0.4-1-0.4s-1,0.3-1.3,0.7c-0.4,0.5-0.4,1-0.4,1.8v3.6H61
		v-10.6h1.7v4.2c0.5-0.8,1.4-1.2,2.5-1.2c0.9,0,1.5,0.3,1.8,0.8s0.4,1,0.4,2.2v4.6L65.8,555.4L65.8,555.4z"/>
	<path class="st1" d="M71,547.9v4.3c0,0.5,0.1,0.9,0.2,1.2c0.2,0.4,0.6,0.6,1.1,0.6s0.9-0.3,1.2-0.6c0.3-0.4,0.5-0.9,0.5-1.6v-3.9
		h1.8v7.5H74v-1.1c-0.5,0.7-1.3,1.2-2.3,1.2s-1.5-0.3-2-0.9c-0.3-0.5-0.5-1.1-0.5-2v-4.7H71z"/>
	<path class="st1" d="M84.9,555.4v-1.2c-0.7,0.9-1.8,1.4-3.1,1.4c-2.7,0-4.6-2.1-4.6-5.4c0-3.2,1.9-5.7,5.2-5.7c2.1,0,3.5,1,4.2,2.8
		l-1.9,0.7c-0.3-1.1-1.1-1.8-2.4-1.8c-2,0-3.2,1.5-3.2,3.9c0,2.5,1.3,3.8,3.1,3.8c1.7,0,2.5-1,2.6-2.8h-3v-1.6h4.7v5.8L84.9,555.4
		L84.9,555.4z"/>
	<path class="st1" d="M88.3,550c0-3.3,2-5.5,5-5.5c2.9,0,4.8,2.2,4.8,5.6c0,3.5-1.9,5.5-4.8,5.5C90.1,555.6,88.3,553.4,88.3,550z
		 M93.2,546.2c-1.8,0-3,1.4-3,3.7c0,2.5,1.2,3.9,3,3.9c1.7,0,2.8-1.3,2.8-3.8C96.1,547.6,94.9,546.2,93.2,546.2z"/>
	<path class="st1" d="M103.5,554.9v-3.3h-3.3v-1.7h3.3v-3.4h1.8v3.4h3.3v1.7h-3.3v3.3H103.5z"/>
</g>
<g class="st0">
	<path class="st1" d="M325.1,297.4v-10.6h1.9v8.9h5v1.7H325.1z"/>
	<path class="st1" d="M333.3,288.4v-1.7h1.8v1.7H333.3z M335.1,297.4h-1.8v-7.5h1.8V297.4z"/>
	<path class="st1" d="M338.7,297.4l-2.7-7.5h2c0.9,2.5,1.4,4.1,1.8,5.7c0.4-1.5,0.9-3.1,1.8-5.7h1.9l-2.7,7.5H338.7z"/>
	<path class="st1" d="M344.4,288.4v-1.7h1.8v1.7H344.4z M346.1,297.4h-1.8v-7.5h1.8V297.4z"/>
	<path class="st1" d="M352.7,297.4v-4.3c0-0.6-0.1-1-0.3-1.3c-0.2-0.3-0.5-0.4-1-0.4s-1,0.3-1.3,0.7c-0.4,0.5-0.4,1-0.4,1.8v3.6H348
		V290h1.7v1.1c0.5-0.8,1.4-1.2,2.5-1.2c0.9,0,1.5,0.3,1.9,0.9c0.3,0.5,0.4,1,0.4,2v4.7h-1.8V297.4z"/>
	<path class="st1" d="M361,296.3c-0.5,0.6-1.2,1-2.2,1c-1.8,0-3-1.4-3-3.8c0-2.3,1.3-3.8,3.1-3.8c1,0,1.8,0.4,2.2,1v-0.9h1.7v7
		c0,1.5-0.4,2.5-1.2,3.1c-0.6,0.4-1.4,0.6-2.4,0.6c-1.8,0-3-0.8-3.3-2.3l1.8-0.3c0.1,0.8,0.7,1.2,1.5,1.2c0.7,0,1.2-0.2,1.4-0.6
		c0.2-0.3,0.3-0.8,0.3-1.5v-0.7H361z M359.4,291.2c-1.1,0-1.8,0.8-1.8,2.3s0.7,2.4,1.7,2.4s1.7-0.7,1.7-2.2
		C361,292.2,360.5,291.2,359.4,291.2z"/>
	<path class="st1" d="M369.5,297.4v-1c-0.5,0.7-1.2,1.2-2.2,1.2c-1.7,0-3-1.3-3-3.9c0-2.4,1.4-3.9,3.1-3.9c1.1,0,1.7,0.4,2.1,1v-3.9
		h1.7v10.6h-1.7V297.4z M367.8,291.2c-1,0-1.7,0.8-1.7,2.4c0,1.5,0.6,2.5,1.7,2.5c1,0,1.8-0.8,1.8-2.4
		C369.5,292.1,368.8,291.2,367.8,291.2z"/>
	<path class="st1" d="M376.3,297.6c-2.3,0-3.7-1.5-3.7-4s1.5-3.9,3.8-3.9c2.2,0,3.6,1.5,3.6,4C379.9,296.2,378.5,297.6,376.3,297.6z
		 M376.3,291.1c-1.1,0-1.9,0.9-1.9,2.4c0,1.7,0.8,2.5,1.9,2.5s1.9-0.8,1.9-2.4C378.2,292,377.4,291.1,376.3,291.1z"/>
	<path class="st1" d="M386,292.5c-0.2-1-0.8-1.3-1.5-1.3c-1,0-1.8,0.8-1.8,2.4c0,1.7,0.7,2.5,1.8,2.5c0.8,0,1.3-0.4,1.5-1.2l1.6,0.5
		c-0.4,1.2-1.4,2.1-3.1,2.1c-2.2,0-3.6-1.5-3.6-4c0-2.4,1.4-3.9,3.6-3.9c1.6,0,2.6,0.9,3,2.2L386,292.5z"/>
	<path class="st1" d="M389.4,295c0.4,0.8,1.1,1.2,1.9,1.2s1.2-0.3,1.2-0.8s-0.3-0.7-1.4-1.1l-0.8-0.3c-1.2-0.4-1.9-1-1.9-2.2
		s1-2.2,2.9-2.2c1.2,0,2.3,0.5,2.9,1.5l-1.3,0.9c-0.4-0.7-0.9-1-1.7-1c-0.8,0-1.1,0.3-1.1,0.7c0,0.4,0.2,0.7,1.2,1l0.8,0.2
		c1.3,0.4,2.1,1,2.1,2.2c0,1.4-1.2,2.4-3,2.4c-1.5,0-2.6-0.7-3.2-1.7L389.4,295z"/>
</g>
<g class="st0">
	<path class="st1" d="M325.1,315.4v-10.6h4.4c1.5,0,2.3,0.2,2.9,0.6c0.8,0.6,1.2,1.5,1.2,2.6c0,1.2-0.4,2.2-1.3,2.8
		c-0.8,0.4-1.9,0.6-3.2,0.6H327v4H325.1z M328.9,309.7c1,0,1.7-0.1,2.1-0.4s0.5-0.7,0.5-1.3c0-0.5-0.2-1-0.5-1.3
		c-0.4-0.3-0.9-0.4-2-0.4h-2v3.4L328.9,309.7L328.9,309.7z"/>
	<path class="st1" d="M336,307.9v4.3c0,0.5,0.1,0.9,0.2,1.2c0.2,0.4,0.6,0.6,1.1,0.6s0.9-0.3,1.2-0.6c0.3-0.4,0.5-0.9,0.5-1.6v-3.9
		h1.8v7.5H339v-1.1c-0.5,0.7-1.3,1.2-2.3,1.2s-1.5-0.3-2-0.9c-0.3-0.5-0.5-1.1-0.5-2v-4.7H336z"/>
	<path class="st1" d="M344.3,304.8v4.1c0.5-0.6,1.3-1.2,2.3-1.2c1.8,0,2.9,1.5,2.9,3.9s-1.2,3.9-3.1,3.9c-1,0-1.7-0.4-2.2-1.1v1
		h-1.7v-10.6L344.3,304.8L344.3,304.8z M346,314c1,0,1.7-0.8,1.7-2.4c0-1.5-0.6-2.4-1.6-2.4c-1.1,0-1.8,0.9-1.8,2.3
		C344.2,313.1,344.9,314,346,314z"/>
	<path class="st1" d="M352.7,315.4h-1.8v-10.6h1.8V315.4z"/>
	<path class="st1" d="M354.5,306.4v-1.7h1.8v1.7H354.5z M356.3,315.4h-1.8v-7.5h1.8V315.4z"/>
	<path class="st1" d="M358.8,313c0.4,0.8,1.1,1.2,1.9,1.2s1.2-0.3,1.2-0.8s-0.3-0.7-1.4-1.1l-0.8-0.3c-1.2-0.4-1.9-1-1.9-2.2
		s1.1-2.2,2.9-2.2c1.2,0,2.3,0.5,2.9,1.5l-1.3,0.9c-0.4-0.7-0.9-1-1.7-1c-0.8,0-1.1,0.3-1.1,0.7c0,0.4,0.2,0.7,1.2,1l0.8,0.2
		c1.3,0.4,2.1,1,2.1,2.2c0,1.4-1.2,2.4-3,2.4c-1.5,0-2.6-0.7-3.2-1.7L358.8,313z"/>
	<path class="st1" d="M369.7,315.4v-4.3c0-0.6-0.1-1.1-0.3-1.4c-0.2-0.3-0.5-0.4-1-0.4s-1,0.3-1.3,0.7c-0.4,0.5-0.4,1-0.4,1.8v3.6
		H365v-10.6h1.7v4.2c0.5-0.8,1.4-1.2,2.5-1.2c0.9,0,1.5,0.3,1.8,0.8s0.5,1,0.5,2.2v4.6L369.7,315.4L369.7,315.4z"/>
	<path class="st1" d="M379.7,313.5c-0.6,1.3-1.7,2.1-3.3,2.1c-2.4,0-3.7-1.6-3.7-4s1.4-3.9,3.6-3.9c2.4,0,3.4,1.7,3.4,4.4h-5.2
		c0.1,1.3,0.8,2,2,2c0.8,0,1.4-0.3,1.7-1.2L379.7,313.5z M378,310.8c-0.1-1.2-0.7-1.8-1.6-1.8s-1.7,0.6-1.8,1.8H378z"/>
	<path class="st1" d="M381.1,315.4v-7.5h1.7v1.2c0.5-0.8,1-1.2,2.1-1.2c0.2,0,0.4,0,0.6,0.1v1.8c-0.3-0.1-0.5-0.2-0.8-0.2
		c-0.6,0-1.1,0.3-1.4,0.7c-0.3,0.4-0.4,0.9-0.4,1.7v3.5h-1.8V315.4z"/>
</g>
<g class="st0">
	<path class="st1" d="M286.1,655.4v-10.6h4.4c1.5,0,2.3,0.2,2.9,0.6c0.8,0.6,1.2,1.5,1.2,2.6c0,1.2-0.4,2.2-1.3,2.8
		c-0.8,0.4-1.9,0.6-3.2,0.6H288v4L286.1,655.4L286.1,655.4z M289.9,649.7c1,0,1.7-0.1,2.1-0.4c0.4-0.3,0.5-0.7,0.5-1.3
		c0-0.5-0.2-1-0.5-1.3c-0.4-0.3-0.9-0.4-2-0.4h-2v3.4H289.9z"/>
	<path class="st1" d="M298.4,655.6c-2.3,0-3.7-1.5-3.7-4s1.5-3.9,3.8-3.9c2.2,0,3.6,1.5,3.6,4C302.1,654.2,300.6,655.6,298.4,655.6z
		 M298.5,649.1c-1.1,0-1.9,0.9-1.9,2.4c0,1.7,0.8,2.5,1.9,2.5s1.9-0.8,1.9-2.4C300.3,650,299.6,649.1,298.5,649.1z"/>
	<path class="st1" d="M304.2,653c0.4,0.8,1.1,1.2,1.9,1.2s1.2-0.3,1.2-0.8s-0.3-0.7-1.4-1.1l-0.8-0.3c-1.2-0.4-1.9-1-1.9-2.2
		s1-2.2,2.9-2.2c1.2,0,2.3,0.5,2.9,1.5l-1.3,0.9c-0.4-0.7-0.9-1-1.7-1c-0.8,0-1.1,0.3-1.1,0.7s0.2,0.7,1.2,1l0.8,0.2
		c1.3,0.4,2.1,1,2.1,2.2c0,1.4-1.2,2.4-3,2.4c-1.5,0-2.6-0.7-3.2-1.7L304.2,653z"/>
	<path class="st1" d="M313.9,655.3c-0.4,0.1-0.9,0.2-1.3,0.2c-0.7,0-1.2-0.2-1.5-0.5c-0.3-0.4-0.4-0.9-0.4-1.6v-4.1h-1.2v-1.4h1.2
		v-2.4h1.7v2.4h1.5v1.4h-1.5v3.7c0,0.8,0.2,1,0.8,1c0.2,0,0.5,0,0.7-0.1L313.9,655.3L313.9,655.3z"/>
	<path class="st1" d="M314.7,651.5v-1.4h4.3v1.4H314.7z"/>
	<path class="st1" d="M322.4,647.9v1.1c0.5-0.7,1.2-1.2,2.3-1.2c1.7,0,3,1.3,3,3.9c0,2.4-1.4,3.9-3.1,3.9c-1.1,0-1.7-0.4-2.1-1v3.8
		h-1.7V648L322.4,647.9L322.4,647.9z M324.1,654c1,0,1.7-0.8,1.7-2.4c0-1.5-0.6-2.5-1.7-2.5c-1,0-1.8,0.8-1.8,2.4
		C322.3,653.1,323,654,324.1,654z"/>
	<path class="st1" d="M329,655.4v-7.5h1.7v1.2c0.5-0.8,1-1.2,2.1-1.2c0.2,0,0.4,0,0.6,0.1v1.8c-0.3-0.1-0.5-0.2-0.8-0.2
		c-0.6,0-1.1,0.3-1.4,0.7s-0.4,0.9-0.4,1.7v3.5L329,655.4L329,655.4z"/>
	<path class="st1" d="M337.6,655.6c-2.3,0-3.7-1.5-3.7-4s1.5-3.9,3.8-3.9c2.2,0,3.6,1.5,3.6,4C341.3,654.2,339.8,655.6,337.6,655.6z
		 M337.7,649.1c-1.1,0-1.9,0.9-1.9,2.4c0,1.7,0.8,2.5,1.9,2.5s1.9-0.8,1.9-2.4C339.5,650,338.8,649.1,337.7,649.1z"/>
	<path class="st1" d="M347.6,655.4v-1c-0.5,0.7-1.2,1.2-2.2,1.2c-1.7,0-3-1.3-3-3.9c0-2.4,1.4-3.9,3.1-3.9c1.1,0,1.7,0.4,2.1,1v-3.9
		h1.7v10.6L347.6,655.4L347.6,655.4z M345.9,649.2c-1,0-1.7,0.8-1.7,2.4c0,1.5,0.6,2.5,1.7,2.5s1.8-0.8,1.8-2.4
		C347.6,650.1,346.9,649.2,345.9,649.2z"/>
	<path class="st1" d="M352.8,647.9v4.3c0,0.5,0.1,0.9,0.2,1.2c0.2,0.4,0.6,0.6,1.1,0.6s0.9-0.3,1.2-0.6c0.3-0.4,0.5-0.9,0.5-1.6
		v-3.9h1.8v7.5h-1.7v-1.1c-0.5,0.7-1.3,1.2-2.3,1.2s-1.5-0.3-2-0.9c-0.3-0.5-0.5-1.1-0.5-2v-4.7H352.8z"/>
	<path class="st1" d="M364,650.5c-0.2-1-0.8-1.3-1.5-1.3c-1,0-1.8,0.8-1.8,2.4c0,1.7,0.7,2.5,1.8,2.5c0.8,0,1.3-0.4,1.5-1.2l1.6,0.5
		c-0.4,1.2-1.4,2.1-3.1,2.1c-2.2,0-3.6-1.5-3.6-4c0-2.4,1.4-3.9,3.6-3.9c1.6,0,2.6,0.9,3,2.2L364,650.5z"/>
	<path class="st1" d="M373.2,653.5c-0.6,1.3-1.7,2.1-3.3,2.1c-2.4,0-3.7-1.6-3.7-4s1.4-3.9,3.6-3.9c2.4,0,3.4,1.7,3.4,4.4H368
		c0.1,1.3,0.8,2,2,2c0.8,0,1.4-0.3,1.7-1.2L373.2,653.5z M371.5,650.8c-0.1-1.2-0.7-1.8-1.6-1.8s-1.7,0.6-1.8,1.8H371.5z"/>
	<path class="st1" d="M374.7,655.4v-7.5h1.7v1.2c0.5-0.8,1-1.2,2.1-1.2c0.2,0,0.4,0,0.6,0.1v1.8c-0.3-0.1-0.5-0.2-0.8-0.2
		c-0.6,0-1.1,0.3-1.4,0.7s-0.4,0.9-0.4,1.7v3.5L374.7,655.4L374.7,655.4z"/>
</g>
</svg>
