<?xml version="1.0" encoding="utf-8"?>
<!-- Generator: Adobe Illustrator 25.2.3, SVG Export Plug-In . SVG Version: 6.00 Build 0)  -->
<svg version="1.1" id="labels_de" xmlns="http://www.w3.org/2000/svg" xmlns:xlink="http://www.w3.org/1999/xlink" x="0px" y="0px"
	 viewBox="0 0 1201 727" style="enable-background:new 0 0 1201 727;" xml:space="preserve">
<style type="text/css">
	.st0{fill:#141414;}
	.st1{fill:#636FF7;}
</style>
<g>
	<path class="st0" d="M199.1,198.3c1.8,0,3,1.4,3,3.5c0,2.3-1.4,3.8-3.8,3.8c-1.7,0-3.1-0.9-3.5-2.6l1.7-0.7
		c0.2,1.2,0.9,1.7,1.9,1.7c1.1,0,1.9-0.7,1.9-2.1c0-1.4-0.8-2.1-1.8-2.1c-0.8,0-1.4,0.4-1.6,1.1l-1.6-0.2l0.4-5.6h5.8v1.6h-4.4
		l-0.2,2.6C197.4,198.6,198.2,198.3,199.1,198.3z"/>
	<path class="st0" d="M207.1,205.6c-2.5,0-3.9-1.9-3.9-5.4c0-3.4,1.4-5.4,3.9-5.4c2.4,0,3.8,2,3.8,5.4S209.6,205.6,207.1,205.6z
		 M207.1,196.4c-1.3,0-2.1,1.3-2.1,3.8c0,2.6,0.8,3.8,2.1,3.8c1.3,0,2.1-1.1,2.1-3.6C209.2,197.7,208.4,196.4,207.1,196.4z"/>
	<path class="st0" d="M215.8,205.6c-2.5,0-3.9-1.9-3.9-5.4c0-3.4,1.4-5.4,3.9-5.4c2.4,0,3.8,2,3.8,5.4S218.2,205.6,215.8,205.6z
		 M215.8,196.4c-1.3,0-2.1,1.3-2.1,3.8c0,2.6,0.8,3.8,2.1,3.8c1.3,0,2.1-1.1,2.1-3.6C217.9,197.7,217.1,196.4,215.8,196.4z"/>
	<path class="st0" d="M224.9,204.9v-3.3h-3.3v-1.7h3.3v-3.4h1.8v3.4h3.3v1.7h-3.3v3.3H224.9z"/>
	<path class="st0" d="M240.1,200.8c0,1.9,0,3.1-0.8,3.9c-0.5,0.5-1.2,0.8-2.4,0.8c-0.7,0-1.5-0.1-2.1-0.4l0.4-1.7
		c0.4,0.3,0.9,0.5,1.4,0.5c0.7,0,1.1-0.2,1.3-0.8c0.2-0.4,0.2-1,0.2-1.9v-6.4h1.9L240.1,200.8L240.1,200.8z"/>
	<path class="st0" d="M245.2,205.6c-2.3,0-3.7-1.5-3.7-4c0-2.5,1.5-3.9,3.8-3.9c2.2,0,3.6,1.5,3.6,4
		C248.9,204.2,247.4,205.6,245.2,205.6z M245.3,199.2c-1.1,0-1.9,0.9-1.9,2.4c0,1.7,0.8,2.5,1.9,2.5c1.1,0,1.9-0.8,1.9-2.4
		C247.1,200,246.4,199.2,245.3,199.2z"/>
	<path class="st0" d="M252,197.9v4.3c0,0.4,0.1,0.9,0.2,1.2c0.2,0.4,0.6,0.6,1.1,0.6c0.5,0,0.9-0.2,1.2-0.6c0.3-0.4,0.5-0.9,0.5-1.6
		v-3.9h1.8v7.5H255v-1.1c-0.5,0.7-1.3,1.2-2.3,1.2c-1,0-1.5-0.3-2-0.9c-0.3-0.5-0.5-1.1-0.5-2v-4.7L252,197.9L252,197.9z"/>
	<path class="st0" d="M258.5,205.4v-7.5h1.7v1.1c0.5-0.8,1-1.2,2.1-1.2c0.2,0,0.4,0,0.6,0.1v1.8c-0.3-0.1-0.5-0.2-0.8-0.2
		c-0.6,0-1.1,0.2-1.4,0.7c-0.3,0.4-0.4,0.9-0.4,1.7v3.5L258.5,205.4L258.5,205.4z"/>
	<path class="st0" d="M268.7,205.4v-4.3c0-0.6-0.1-1-0.3-1.3c-0.2-0.3-0.5-0.4-1-0.4s-1,0.2-1.3,0.7c-0.4,0.5-0.4,1.1-0.4,1.8v3.6
		h-1.8v-7.5h1.7v1.1c0.5-0.8,1.4-1.2,2.5-1.2c0.9,0,1.5,0.3,1.9,0.9c0.3,0.4,0.4,1,0.4,2v4.7L268.7,205.4L268.7,205.4z"/>
	<path class="st0" d="M276.4,200.3c0-0.4-0.1-0.7-0.3-0.9c-0.2-0.2-0.6-0.3-1-0.3c-0.9,0-1.3,0.5-1.4,1.3l-1.7-0.1
		c0.1-1.6,1.3-2.5,3.2-2.5c1,0,1.7,0.2,2.2,0.7c0.5,0.4,0.6,1.1,0.6,2.2v2.7c0,0.9,0.1,1.6,0.2,2h-1.7c-0.1-0.2-0.1-0.7-0.1-0.9
		c-0.6,0.7-1.4,1.1-2.4,1.1c-1.4,0-2.3-0.9-2.3-2.2c0-1,0.5-1.6,1.4-2c0.7-0.3,2.2-0.5,3.4-0.6L276.4,200.3L276.4,200.3z
		 M276.4,201.9c-0.9,0-1.9,0.2-2.4,0.4c-0.5,0.2-0.6,0.5-0.6,0.9c0,0.5,0.4,0.9,1.1,0.9c0.7,0,1.2-0.3,1.6-0.8
		c0.2-0.4,0.3-0.8,0.3-1.2V201.9z"/>
	<path class="st0" d="M281.6,205.4h-1.8v-10.6h1.8V205.4z"/>
	<path class="st0" d="M283.4,196.4v-1.6h1.8v1.6H283.4z M285.2,205.4h-1.8v-7.5h1.8V205.4z"/>
	<path class="st0" d="M287.7,203c0.4,0.8,1.1,1.2,1.9,1.2c0.8,0,1.2-0.3,1.2-0.8c0-0.5-0.2-0.7-1.4-1.1l-0.8-0.2
		c-1.1-0.4-1.9-1-1.9-2.2c0-1.2,1-2.2,2.9-2.2c1.2,0,2.3,0.4,2.9,1.5l-1.3,0.9c-0.4-0.7-1-1.1-1.7-1.1c-0.8,0-1.1,0.3-1.1,0.7
		c0,0.4,0.2,0.7,1.2,1l0.8,0.2c1.3,0.4,2.1,1,2.1,2.2c0,1.4-1.1,2.4-3,2.4c-1.5,0-2.6-0.7-3.2-1.7L287.7,203z"/>
	<path class="st0" d="M297.5,205.3c-0.4,0.1-0.9,0.2-1.3,0.2c-0.7,0-1.2-0.2-1.5-0.5c-0.3-0.4-0.4-0.9-0.4-1.6v-4.1h-1.2v-1.4h1.2
		v-2.4h1.7v2.4h1.5v1.4H296v3.7c0,0.8,0.2,1,0.8,1c0.2,0,0.5,0,0.7-0.1L297.5,205.3L297.5,205.3z"/>
	<path class="st0" d="M305.1,203.5c-0.5,1.4-1.7,2.1-3.2,2.1c-2.4,0-3.7-1.6-3.7-4c0-2.4,1.4-3.9,3.6-3.9c2.4,0,3.4,1.7,3.4,4.4H300
		c0.1,1.3,0.8,2,2,2c0.8,0,1.4-0.3,1.7-1.2L305.1,203.5z M303.4,200.8c-0.1-1.2-0.7-1.8-1.6-1.8s-1.7,0.6-1.8,1.8H303.4z"/>
	<path class="st0" d="M311.3,205.4v-4.3c0-0.6-0.1-1-0.3-1.3c-0.2-0.3-0.5-0.4-1-0.4s-1,0.2-1.3,0.7c-0.4,0.5-0.4,1.1-0.4,1.8v3.6
		h-1.8v-7.5h1.7v1.1c0.5-0.8,1.4-1.2,2.5-1.2c0.9,0,1.5,0.3,1.9,0.9c0.3,0.4,0.4,1,0.4,2v4.7L311.3,205.4L311.3,205.4z"/>
	<path class="st0" d="M316.4,205.3c0,1.2-0.2,1.7-1,2.4l-0.8-0.7c0.5-0.4,0.6-0.8,0.6-1.7h-0.6v-2.2h1.8L316.4,205.3L316.4,205.3z"
		/>
	<path class="st0" d="M195.8,214.5c1.3-0.1,2.1-0.7,2.2-1.5h1.6v10.4h-1.8v-7.8c-0.5,0.3-1.1,0.5-2,0.6V214.5z"/>
	<path class="st0" d="M207.1,223.4v-10.6h4.4c1.5,0,2.3,0.2,2.9,0.6c0.8,0.6,1.1,1.5,1.1,2.6c0,1.2-0.4,2.2-1.4,2.8
		c-0.8,0.4-1.9,0.6-3.1,0.6H209v4L207.1,223.4L207.1,223.4z M210.9,217.8c1,0,1.7-0.1,2.1-0.4c0.4-0.3,0.5-0.7,0.5-1.3
		c0-0.5-0.2-1-0.5-1.3c-0.4-0.3-0.9-0.4-2-0.4h-2v3.4H210.9z"/>
	<path class="st0" d="M216.3,223.4v-7.5h1.7v1.1c0.4-0.8,1-1.2,2.1-1.2c0.2,0,0.4,0,0.6,0.1v1.8c-0.3-0.1-0.5-0.2-0.8-0.2
		c-0.6,0-1.1,0.2-1.4,0.7c-0.3,0.4-0.4,0.9-0.4,1.7v3.5L216.3,223.4L216.3,223.4z"/>
	<path class="st0" d="M225,223.6c-2.3,0-3.7-1.5-3.7-4c0-2.5,1.5-3.9,3.8-3.9c2.2,0,3.6,1.5,3.6,4
		C228.6,222.2,227.2,223.6,225,223.6z M225,217.2c-1.1,0-1.9,0.9-1.9,2.4c0,1.7,0.8,2.5,1.9,2.5c1.1,0,1.9-0.8,1.9-2.4
		C226.9,218,226.1,217.2,225,217.2z"/>
	<path class="st0" d="M234.9,223.4v-1.1c-0.5,0.7-1.2,1.2-2.2,1.2c-1.7,0-3-1.3-3-3.9c0-2.4,1.4-3.9,3.1-3.9c1.1,0,1.7,0.4,2.1,1
		v-3.9h1.7v10.6L234.9,223.4L234.9,223.4z M233.2,217.2c-1,0-1.7,0.8-1.7,2.4c0,1.5,0.6,2.5,1.7,2.5c1,0,1.8-0.8,1.8-2.4
		C234.9,218.1,234.2,217.2,233.2,217.2z"/>
	<path class="st0" d="M240.1,215.9v4.3c0,0.4,0.1,0.9,0.2,1.2c0.2,0.4,0.6,0.6,1.1,0.6c0.5,0,0.9-0.2,1.2-0.6
		c0.3-0.4,0.5-0.9,0.5-1.6v-3.9h1.8v7.5h-1.7v-1.1c-0.5,0.7-1.3,1.2-2.3,1.2c-1,0-1.5-0.3-2-0.9c-0.3-0.5-0.5-1.1-0.5-2v-4.7
		L240.1,215.9L240.1,215.9z"/>
	<path class="st0" d="M251.6,223.4l-2.1-3.4l-1.1,1.1v2.2h-1.8v-10.6h1.8v6.3l2.8-3.2h2.1l-2.6,2.8l2.9,4.6L251.6,223.4L251.6,223.4
		z"/>
	<path class="st0" d="M258.2,223.3c-0.4,0.1-0.9,0.2-1.3,0.2c-0.7,0-1.2-0.2-1.5-0.5c-0.3-0.4-0.4-0.9-0.4-1.6v-4.1h-1.2v-1.4h1.2
		v-2.4h1.7v2.4h1.5v1.4h-1.5v3.7c0,0.8,0.2,1,0.8,1c0.2,0,0.5,0,0.7-0.1L258.2,223.3L258.2,223.3z"/>
	<path class="st0" d="M259.2,214.4v-1.6h1.8v1.6H259.2z M261,223.4h-1.8v-7.5h1.8V223.4z"/>
	<path class="st0" d="M266.1,223.6c-2.3,0-3.7-1.5-3.7-4c0-2.5,1.5-3.9,3.8-3.9c2.2,0,3.5,1.5,3.5,4
		C269.8,222.2,268.3,223.6,266.1,223.6z M266.2,217.2c-1.1,0-1.9,0.9-1.9,2.4c0,1.7,0.8,2.5,1.9,2.5c1.1,0,1.9-0.8,1.9-2.4
		C268,218,267.3,217.2,266.2,217.2z"/>
	<path class="st0" d="M275.9,223.4v-4.3c0-0.6-0.1-1-0.3-1.3c-0.2-0.3-0.5-0.4-1-0.4s-1,0.2-1.3,0.7c-0.4,0.5-0.4,1.1-0.4,1.8v3.6
		h-1.8v-7.5h1.7v1.1c0.5-0.8,1.4-1.2,2.5-1.2c0.9,0,1.5,0.3,1.9,0.9c0.3,0.4,0.4,1,0.4,2v4.7L275.9,223.4L275.9,223.4z"/>
	<path class="st0" d="M280.1,221c0.4,0.8,1.1,1.2,1.9,1.2c0.8,0,1.2-0.3,1.2-0.8c0-0.5-0.2-0.7-1.4-1.1l-0.8-0.2
		c-1.1-0.4-1.9-1-1.9-2.2c0-1.2,1-2.2,2.9-2.2c1.2,0,2.3,0.4,2.9,1.5l-1.3,0.9c-0.4-0.7-1-1.1-1.7-1.1c-0.8,0-1.1,0.3-1.1,0.7
		c0,0.4,0.2,0.7,1.2,1l0.8,0.2c1.3,0.4,2.1,1,2.1,2.2c0,1.4-1.1,2.4-3,2.4c-1.5,0-2.6-0.7-3.2-1.7L280.1,221z"/>
	<path class="st0" d="M286,219.5v-1.4h4.3v1.4H286z"/>
	<path class="st0" d="M293.5,223.4v-8.9h-3v-1.6h8v1.6h-3v8.9H293.5z"/>
	<path class="st0" d="M301.1,223.6c-2.3,0-3.7-1.5-3.7-4c0-2.5,1.5-3.9,3.8-3.9c2.2,0,3.5,1.5,3.5,4
		C304.7,222.2,303.3,223.6,301.1,223.6z M301.1,217.2c-1.1,0-1.9,0.9-1.9,2.4c0,1.7,0.8,2.5,1.9,2.5c1.1,0,1.9-0.8,1.9-2.4
		C303,218,302.2,217.2,301.1,217.2z"/>
	<path class="st0" d="M309.4,223.6c-2.3,0-3.7-1.5-3.7-4c0-2.5,1.5-3.9,3.8-3.9c2.2,0,3.5,1.5,3.5,4
		C313.1,222.2,311.6,223.6,309.4,223.6z M309.5,217.2c-1.1,0-1.9,0.9-1.9,2.4c0,1.7,0.8,2.5,1.9,2.5c1.1,0,1.9-0.8,1.9-2.4
		C311.3,218,310.6,217.2,309.5,217.2z"/>
	<path class="st0" d="M316.3,223.4h-1.8v-10.6h1.8V223.4z"/>
</g>
<g>
	<path class="st1" d="M51,70.4v-9.2h3.8c1.3,0,2,0.2,2.5,0.6c0.7,0.5,1,1.3,1,2.2c0,1-0.4,2-1.2,2.4c-0.7,0.4-1.6,0.5-2.7,0.5h-1.8
		v3.5H51z M54.3,65.5c0.9,0,1.5-0.1,1.8-0.3c0.3-0.2,0.5-0.6,0.5-1.2c0-0.5-0.2-0.9-0.5-1.1c-0.3-0.3-0.8-0.3-1.7-0.3h-1.8v2.9
		C52.6,65.5,54.3,65.5,54.3,65.5z"/>
	<path class="st1" d="M59.6,70.4v-9.2h1.7v7.8h4.3v1.4H59.6z"/>
	<path class="st1" d="M72.8,70.4L72,68.2h-3.6l-0.7,2.2h-1.8l3.5-9.2h1.8l3.3,9.2H72.8z M71.6,66.9c-0.5-1.5-1-2.7-1.4-4.1
		c-0.3,0.9-0.6,1.8-1.4,4.1H71.6z"/>
	<path class="st1" d="M77.2,61.2c2,3.4,3.2,5.2,4.1,6.8c-0.1-1.4-0.1-3.3-0.1-6.8h1.6v9.2h-1.8c-1.9-3.2-3.1-5.1-4.1-6.7
		c0,0.8,0.1,2.6,0.1,6.7h-1.6v-9.2H77.2z"/>
	<path class="st1" d="M91.9,66.4c0,1.4-0.2,2.4-0.8,3c-0.6,0.7-1.6,1.1-2.9,1.1c-1.3,0-2.3-0.3-2.9-1.1c-0.6-0.8-0.7-1.6-0.7-3v-5.3
		h1.7v5.4c0,0.7,0,1.3,0.3,1.7c0.3,0.6,0.9,0.8,1.7,0.8c0.8,0,1.4-0.2,1.8-0.9c0.2-0.4,0.3-1,0.3-1.7v-5.4h1.7
		C91.9,61.2,91.9,66.4,91.9,66.4z"/>
	<path class="st1" d="M95.4,61.2c2,3.4,3.2,5.2,4.1,6.8c-0.1-1.4-0.1-3.3-0.1-6.8h1.6v9.2h-1.8c-1.9-3.2-3.1-5.1-4.1-6.7
		c0,0.8,0.1,2.6,0.1,6.7h-1.6v-9.2H95.4z"/>
	<path class="st1" d="M109.1,70.4v-1c-0.6,0.8-1.5,1.2-2.7,1.2c-2.3,0-4-1.8-4-4.7c0-2.8,1.6-4.9,4.5-4.9c1.8,0,3.1,0.8,3.6,2.4
		L109,64c-0.3-1-0.9-1.6-2-1.6c-1.7,0-2.8,1.3-2.8,3.3c0,2.2,1.1,3.3,2.7,3.3c1.5,0,2.2-0.9,2.2-2.4h-2.6v-1.4h4.1v5.1L109.1,70.4
		L109.1,70.4z"/>
</g>
<g>
	<path class="st1" d="M51,271.4v-9.2h3.8c1.3,0,2,0.2,2.5,0.6c0.7,0.5,1,1.3,1,2.2c0,1-0.4,2-1.2,2.4c-0.7,0.4-1.6,0.5-2.7,0.5h-1.8
		v3.5H51z M54.3,266.5c0.9,0,1.5-0.1,1.8-0.3c0.3-0.2,0.5-0.6,0.5-1.2c0-0.5-0.2-0.9-0.5-1.1c-0.3-0.3-0.8-0.3-1.7-0.3h-1.8v2.9
		H54.3z"/>
	<path class="st1" d="M65.1,271.4l-2.3-3.7h-1.6v3.7h-1.6v-9.2h3c1.2,0,2.1,0,2.8,0.3c0.9,0.4,1.4,1.1,1.4,2.4
		c0,1.5-0.8,2.3-2.3,2.6l2.6,3.9L65.1,271.4L65.1,271.4z M62.9,266.4c0.8,0,1.3-0.1,1.6-0.3c0.3-0.2,0.5-0.6,0.5-1.1
		c0-0.5-0.1-0.9-0.5-1.1c-0.3-0.2-0.8-0.3-1.5-0.3h-1.8v2.8L62.9,266.4L62.9,266.4z"/>
	<path class="st1" d="M67.7,266.7c0-2.9,1.7-4.7,4.4-4.7c2.5,0,4.2,1.9,4.2,4.8c0,3-1.7,4.8-4.2,4.8
		C69.4,271.6,67.7,269.7,67.7,266.7z M72,263.4c-1.6,0-2.6,1.2-2.6,3.2c0,2.1,1,3.4,2.6,3.4c1.4,0,2.5-1.1,2.5-3.3
		C74.5,264.7,73.5,263.4,72,263.4z"/>
	<path class="st1" d="M77.6,262.2h2.8c1.6,0,2.3,0.1,3,0.5c1.3,0.6,1.9,2.1,1.9,4c0,1.5-0.4,2.8-1.2,3.6c-0.8,0.8-1.9,1.1-3.8,1.1
		h-2.7V262.2z M80.4,270c1.2,0,2-0.3,2.5-0.8c0.5-0.5,0.7-1.4,0.7-2.5c0-1-0.2-1.8-0.7-2.4c-0.4-0.5-1-0.7-2.2-0.7h-1.4v6.4
		L80.4,270L80.4,270z"/>
	<path class="st1" d="M94.1,267.4c0,1.4-0.2,2.4-0.8,3c-0.6,0.7-1.6,1.1-2.9,1.1c-1.3,0-2.3-0.4-2.9-1.1c-0.6-0.8-0.7-1.6-0.7-3
		v-5.2h1.7v5.4c0,0.7,0,1.3,0.3,1.7c0.3,0.6,0.9,0.9,1.7,0.9c0.8,0,1.4-0.2,1.8-0.9c0.2-0.4,0.3-1,0.3-1.6v-5.4h1.7
		C94.1,262.2,94.1,267.4,94.1,267.4z"/>
	<path class="st1" d="M101.7,271.4L99,267l-1.6,1.8v2.6h-1.7v-9.2h1.7v4.4l3.9-4.4h2l-3.2,3.6l3.6,5.6L101.7,271.4L101.7,271.4z"/>
	<path class="st1" d="M106.2,271.4v-7.8h-2.6v-1.4h6.9v1.4h-2.6v7.8H106.2z"/>
	<path class="st1" d="M113.3,271.4h-1.7v-9.2h1.7V271.4z"/>
	<path class="st1" d="M114.7,266.7c0-2.9,1.7-4.7,4.4-4.7c2.5,0,4.2,1.9,4.2,4.8c0,3-1.7,4.8-4.2,4.8
		C116.4,271.6,114.7,269.7,114.7,266.7z M119,263.4c-1.6,0-2.6,1.2-2.6,3.2c0,2.1,1,3.4,2.6,3.4c1.4,0,2.5-1.1,2.5-3.3
		C121.5,264.7,120.5,263.4,119,263.4z"/>
	<path class="st1" d="M126.5,262.2c2,3.4,3.2,5.2,4.1,6.8c-0.1-1.4-0.1-3.3-0.1-6.8h1.6v9.2h-1.8c-1.9-3.1-3.1-5.1-4.1-6.7
		c0,0.8,0.1,2.6,0.1,6.7h-1.6v-9.2H126.5z"/>
</g>
<g>
	<path class="st1" d="M57,474.4l-0.7-2.1h-3.6l-0.7,2.1h-1.8l3.5-9.2h1.8l3.3,9.2H57z M55.9,470.9c-0.5-1.5-1-2.7-1.4-4.1
		c-0.3,0.9-0.6,1.8-1.4,4.1H55.9z"/>
	<path class="st1" d="M66.6,470.4c0,1.4-0.2,2.4-0.8,3c-0.6,0.7-1.6,1.1-3,1.1c-1.3,0-2.3-0.4-2.9-1.1c-0.6-0.8-0.7-1.6-0.7-3v-5.2
		h1.7v5.4c0,0.7,0,1.3,0.3,1.7c0.3,0.6,0.9,0.8,1.7,0.8c0.8,0,1.4-0.2,1.8-0.9c0.2-0.4,0.3-1,0.3-1.6v-5.4h1.7
		C66.6,465.2,66.6,470.4,66.6,470.4z"/>
	<path class="st1" d="M68.3,474.4v-9.2h6.3v1.4h-4.6v2.4h4.2v1.4h-4.2v3.9L68.3,474.4L68.3,474.4z"/>
	<path class="st1" d="M79.6,465.2c1,0,1.7,0.1,2.1,0.4c0.6,0.4,1,1,1,1.9c0,1-0.5,1.7-1.6,2c1.3,0.2,1.9,1.1,1.9,2.3
		c0,1-0.4,1.7-1.2,2.2c-0.6,0.3-1.3,0.4-2.6,0.4h-3.6v-9.2L79.6,465.2L79.6,465.2z M77.4,468.9h1.9c0.5,0,1-0.1,1.2-0.2
		c0.3-0.2,0.5-0.5,0.5-1s-0.1-0.8-0.5-1c-0.3-0.1-0.7-0.2-1.2-0.2h-1.9L77.4,468.9L77.4,468.9z M77.4,473h1.8c0.7,0,1.3-0.1,1.7-0.3
		c0.3-0.2,0.5-0.5,0.5-1c0-0.5-0.2-0.9-0.5-1.1c-0.3-0.2-0.8-0.3-1.5-0.3h-1.9L77.4,473L77.4,473z"/>
	<path class="st1" d="M84.4,474.4v-9.2h6.4v1.4H86v2.3h4.3v1.4H86v2.6h5v1.4L84.4,474.4L84.4,474.4z"/>
	<path class="st1" d="M97.8,474.4l-2.3-3.7h-1.6v3.7h-1.6v-9.2h3c1.2,0,2.1,0,2.8,0.3c0.9,0.4,1.4,1.1,1.4,2.4
		c0,1.5-0.8,2.3-2.3,2.6l2.6,3.9H97.8z M95.7,469.4c0.8,0,1.3-0.1,1.6-0.3c0.3-0.2,0.5-0.6,0.5-1.1c0-0.5-0.1-0.9-0.5-1.1
		c-0.3-0.2-0.8-0.3-1.5-0.3h-1.8v2.8L95.7,469.4L95.7,469.4z"/>
	<path class="st1" d="M100.8,474.4v-9.2h6.4v1.4h-4.7v2.3h4.3v1.4h-4.3v2.6h5v1.4L100.8,474.4L100.8,474.4z"/>
	<path class="st1" d="M110.4,474.4h-1.7v-9.2h1.7V474.4z"/>
	<path class="st1" d="M114.1,474.4v-7.8h-2.6v-1.4h6.9v1.4h-2.6v7.8H114.1z"/>
	<path class="st1" d="M126.8,470.4c0,1.4-0.2,2.4-0.8,3c-0.6,0.7-1.6,1.1-2.9,1.1c-1.3,0-2.3-0.4-2.9-1.1c-0.6-0.8-0.7-1.6-0.7-3
		v-5.2h1.7v5.4c0,0.7,0,1.3,0.3,1.7c0.3,0.6,0.9,0.8,1.7,0.8c0.8,0,1.4-0.2,1.8-0.9c0.2-0.4,0.3-1,0.3-1.6v-5.4h1.7
		C126.9,465.2,126.9,470.4,126.8,470.4z"/>
	<path class="st1" d="M130.4,465.2c2,3.4,3.2,5.2,4.1,6.8c-0.1-1.4-0.1-3.3-0.1-6.8h1.6v9.2h-1.8c-1.9-3.1-3.1-5.1-4.1-6.7
		c0,0.8,0.1,2.6,0.1,6.7h-1.6v-9.2H130.4z"/>
	<path class="st1" d="M144.1,474.4v-1c-0.6,0.8-1.5,1.2-2.7,1.2c-2.3,0-4-1.8-4-4.6c0-2.8,1.6-4.9,4.5-4.9c1.9,0,3.1,0.8,3.6,2.4
		l-1.6,0.6c-0.3-1-0.9-1.6-2-1.6c-1.7,0-2.8,1.3-2.8,3.3c0,2.2,1.1,3.3,2.7,3.3c1.5,0,2.2-0.9,2.2-2.4h-2.6v-1.4h4.1v5.1
		L144.1,474.4L144.1,474.4z"/>
</g>
<g>
	<path class="st0" d="M817.2,540.8c2.3,3.9,3.7,6,4.7,7.8c-0.1-1.6-0.1-3.8-0.1-7.8h1.9v10.6h-2.1c-2.2-3.6-3.6-5.9-4.7-7.8
		c0,0.9,0.1,3,0.1,7.8h-1.9v-10.6H817.2z"/>
	<path class="st0" d="M825.2,551.4V550l5.8-7.5h-5.5v-1.6h7.9v1.5l-5.7,7.5h5.7v1.6L825.2,551.4L825.2,551.4z"/>
	<path class="st0" d="M834.3,551.4V550l5.8-7.5h-5.5v-1.6h7.9v1.5l-5.7,7.5h5.7v1.6L834.3,551.4L834.3,551.4z"/>
	<path class="st0" d="M847.3,551.4v-10.6h4.4c1.5,0,2.3,0.2,2.9,0.6c0.8,0.5,1.2,1.5,1.2,2.6c0,1.2-0.4,2.2-1.3,2.8
		c-0.8,0.4-1.9,0.6-3.2,0.6h-2.1v4L847.3,551.4L847.3,551.4z M851.1,545.8c1,0,1.7-0.1,2.1-0.4c0.4-0.3,0.5-0.7,0.5-1.3
		c0-0.5-0.2-1-0.5-1.3c-0.4-0.3-0.9-0.4-2-0.4h-2v3.4L851.1,545.8L851.1,545.8z"/>
	<path class="st0" d="M856.5,551.4v-7.5h1.7v1.2c0.5-0.8,1-1.2,2.1-1.2c0.2,0,0.4,0,0.6,0.1v1.8c-0.3-0.2-0.5-0.2-0.8-0.2
		c-0.6,0-1.1,0.2-1.4,0.7c-0.2,0.4-0.4,0.9-0.4,1.7v3.5L856.5,551.4L856.5,551.4z"/>
	<path class="st0" d="M861.9,542.4v-1.7h1.8v1.7H861.9z M863.7,551.4h-1.8v-7.5h1.8V551.4z"/>
	<path class="st0" d="M870.2,551.4v-4.3c0-0.6-0.1-1-0.3-1.3c-0.2-0.3-0.5-0.4-1-0.4s-1,0.3-1.3,0.7c-0.4,0.5-0.4,1-0.4,1.8v3.6
		h-1.8v-7.5h1.7v1.1c0.5-0.8,1.4-1.2,2.5-1.2c0.9,0,1.5,0.3,1.9,0.9c0.3,0.5,0.4,1,0.4,2v4.7H870.2z"/>
	<path class="st0" d="M877.4,551.3c-0.4,0.1-0.9,0.2-1.3,0.2c-0.7,0-1.2-0.2-1.5-0.5c-0.3-0.4-0.4-0.9-0.4-1.6v-4.1H873v-1.4h1.2
		v-2.4h1.7v2.4h1.5v1.4h-1.5v3.7c0,0.8,0.2,1,0.8,1c0.2,0,0.5,0,0.7-0.1V551.3z"/>
	<path class="st0" d="M878.2,547.5v-1.4h4.3v1.4H878.2z"/>
	<path class="st0" d="M815.1,569.4v-10.6h4.4c1.5,0,2.3,0.2,2.9,0.6c0.8,0.5,1.2,1.5,1.2,2.6c0,1.2-0.4,2.2-1.3,2.8
		c-0.8,0.4-1.9,0.6-3.2,0.6H817v4L815.1,569.4L815.1,569.4z M818.9,563.8c1,0,1.7-0.1,2.1-0.4c0.4-0.3,0.5-0.7,0.5-1.3
		c0-0.5-0.2-1-0.5-1.3c-0.4-0.3-0.9-0.4-2-0.4h-2v3.4L818.9,563.8L818.9,563.8z"/>
	<path class="st0" d="M824.3,569.4v-7.5h1.7v1.2c0.5-0.8,1-1.2,2.1-1.2c0.2,0,0.4,0,0.6,0.1v1.8c-0.3-0.2-0.5-0.2-0.8-0.2
		c-0.6,0-1.1,0.2-1.4,0.7c-0.3,0.4-0.4,0.9-0.4,1.7v3.5L824.3,569.4L824.3,569.4z"/>
	<path class="st0" d="M832.9,569.6c-2.3,0-3.7-1.5-3.7-4c0-2.5,1.5-3.9,3.8-3.9c2.2,0,3.5,1.5,3.5,4
		C836.6,568.2,835.1,569.6,832.9,569.6z M833,563.2c-1.1,0-1.9,0.9-1.9,2.4c0,1.7,0.8,2.5,1.9,2.5s1.9-0.8,1.9-2.5
		C834.8,564,834.1,563.2,833,563.2z"/>
	<path class="st0" d="M842.9,569.4v-1c-0.5,0.7-1.2,1.2-2.2,1.2c-1.7,0-3-1.3-3-3.9c0-2.5,1.4-3.9,3.1-3.9c1.1,0,1.7,0.4,2.1,1v-3.9
		h1.7v10.6L842.9,569.4L842.9,569.4z M841.2,563.2c-1,0-1.7,0.8-1.7,2.4c0,1.5,0.6,2.5,1.7,2.5s1.8-0.8,1.8-2.4
		C842.9,564.1,842.2,563.2,841.2,563.2z"/>
	<path class="st0" d="M848.1,561.9v4.3c0,0.5,0.1,0.9,0.2,1.2c0.2,0.4,0.5,0.6,1.1,0.6c0.5,0,0.9-0.2,1.2-0.6
		c0.3-0.4,0.5-0.9,0.5-1.6v-3.9h1.8v7.5h-1.7v-1.1c-0.5,0.7-1.3,1.2-2.3,1.2c-1,0-1.5-0.3-2-0.9c-0.3-0.5-0.5-1.1-0.5-2v-4.7
		L848.1,561.9L848.1,561.9z"/>
	<path class="st0" d="M859.6,569.4l-2.1-3.4l-1.1,1.2v2.2h-1.8v-10.6h1.8v6.3l2.8-3.2h2.1l-2.6,2.8l2.9,4.6L859.6,569.4L859.6,569.4
		z"/>
	<path class="st0" d="M866.2,569.3c-0.4,0.1-0.9,0.2-1.3,0.2c-0.7,0-1.2-0.2-1.5-0.5c-0.3-0.4-0.4-0.9-0.4-1.6v-4.1h-1.2v-1.4h1.2
		v-2.4h1.7v2.4h1.5v1.4h-1.5v3.7c0,0.8,0.2,1,0.8,1c0.2,0,0.5,0,0.7-0.1V569.3z"/>
	<path class="st0" d="M873.8,567.5c-0.5,1.3-1.7,2.1-3.2,2.1c-2.4,0-3.7-1.6-3.7-4c0-2.4,1.4-3.9,3.6-3.9c2.4,0,3.4,1.7,3.4,4.4
		h-5.2c0.1,1.3,0.8,2,2,2c0.8,0,1.4-0.3,1.7-1.2L873.8,567.5z M872,564.8c-0.1-1.2-0.7-1.8-1.6-1.8s-1.7,0.6-1.8,1.8H872z"/>
</g>
<g>
	<path class="st0" d="M916.2,541.8c2.3,3.9,3.7,6,4.7,7.8c-0.1-1.6-0.1-3.8-0.1-7.8h1.9v10.6h-2.1c-2.2-3.6-3.6-5.9-4.7-7.8
		c0,0.9,0.1,3,0.1,7.8h-1.9v-10.6H916.2z"/>
	<path class="st0" d="M924.2,552.4V551l5.8-7.5h-5.5v-1.6h7.9v1.5l-5.7,7.5h5.7v1.6L924.2,552.4L924.2,552.4z"/>
	<path class="st0" d="M933.3,552.4V551l5.8-7.5h-5.5v-1.6h7.9v1.5l-5.7,7.5h5.7v1.6L933.3,552.4L933.3,552.4z"/>
	<path class="st0" d="M946,547c0-3.3,2-5.5,5-5.5c2.9,0,4.8,2.2,4.8,5.6c0,3.5-1.9,5.5-4.8,5.5C947.9,552.6,946,550.4,946,547z
		 M950.9,543.2c-1.8,0-3,1.4-3,3.7c0,2.5,1.2,3.9,3,3.9c1.7,0,2.8-1.3,2.8-3.8C953.8,544.6,952.7,543.2,950.9,543.2z"/>
	<path class="st0" d="M962.1,552.4v-4.3c0-0.6-0.1-1-0.3-1.3c-0.2-0.3-0.5-0.4-1-0.4s-1,0.3-1.3,0.7c-0.4,0.5-0.4,1-0.4,1.8v3.6
		h-1.8v-7.5h1.7v1.1c0.5-0.8,1.4-1.2,2.5-1.2c0.9,0,1.5,0.3,1.9,0.9c0.3,0.5,0.4,1,0.4,2v4.7H962.1z"/>
	<path class="st0" d="M967.3,552.4h-1.8v-10.6h1.8V552.4z"/>
	<path class="st0" d="M969.2,543.4v-1.7h1.8v1.7H969.2z M970.9,552.4h-1.8v-7.5h1.8V552.4z"/>
	<path class="st0" d="M977.5,552.4v-4.3c0-0.6-0.1-1-0.3-1.3c-0.2-0.3-0.5-0.4-1-0.4s-1,0.3-1.3,0.7c-0.4,0.5-0.4,1-0.4,1.8v3.6
		h-1.8v-7.5h1.7v1.1c0.5-0.8,1.4-1.2,2.5-1.2c0.9,0,1.5,0.3,1.9,0.9c0.3,0.5,0.4,1,0.4,2v4.7H977.5z"/>
	<path class="st0" d="M987.5,550.5c-0.5,1.3-1.7,2.1-3.2,2.1c-2.4,0-3.7-1.6-3.7-4c0-2.4,1.4-3.9,3.6-3.9c2.4,0,3.4,1.7,3.4,4.4
		h-5.2c0.1,1.3,0.8,2,2,2c0.8,0,1.4-0.3,1.7-1.2L987.5,550.5z M985.8,547.8c-0.1-1.2-0.7-1.8-1.6-1.8s-1.7,0.6-1.8,1.8H985.8z"/>
	<path class="st0" d="M988.7,548.5v-1.4h4.3v1.4H988.7z"/>
	<path class="st0" d="M914.1,570.4v-10.6h4.4c1.5,0,2.3,0.2,2.9,0.6c0.8,0.5,1.2,1.5,1.2,2.6c0,1.2-0.4,2.2-1.3,2.8
		c-0.8,0.4-1.9,0.6-3.2,0.6H916v4L914.1,570.4L914.1,570.4z M917.9,564.8c1,0,1.7-0.1,2.1-0.4c0.4-0.3,0.5-0.7,0.5-1.3
		c0-0.5-0.2-1-0.5-1.3c-0.4-0.3-0.9-0.4-2-0.4h-2v3.4L917.9,564.8L917.9,564.8z"/>
	<path class="st0" d="M923.3,570.4v-7.5h1.7v1.2c0.5-0.8,1-1.2,2.1-1.2c0.2,0,0.4,0,0.6,0.1v1.8c-0.3-0.2-0.5-0.2-0.8-0.2
		c-0.6,0-1.1,0.2-1.4,0.7c-0.3,0.4-0.4,0.9-0.4,1.7v3.5L923.3,570.4L923.3,570.4z"/>
	<path class="st0" d="M931.9,570.6c-2.3,0-3.7-1.5-3.7-4c0-2.5,1.5-3.9,3.8-3.9c2.2,0,3.5,1.5,3.5,4
		C935.6,569.2,934.1,570.6,931.9,570.6z M932,564.2c-1.1,0-1.9,0.9-1.9,2.4c0,1.7,0.8,2.5,1.9,2.5s1.9-0.8,1.9-2.5
		C933.8,565,933.1,564.2,932,564.2z"/>
	<path class="st0" d="M941.9,570.4v-1c-0.5,0.7-1.2,1.2-2.2,1.2c-1.7,0-3-1.3-3-3.9c0-2.5,1.4-3.9,3.1-3.9c1.1,0,1.7,0.4,2.1,1v-3.9
		h1.7v10.6L941.9,570.4L941.9,570.4z M940.2,564.2c-1,0-1.7,0.8-1.7,2.4c0,1.5,0.6,2.5,1.7,2.5s1.8-0.8,1.8-2.4
		C941.9,565.1,941.2,564.2,940.2,564.2z"/>
	<path class="st0" d="M947.1,562.9v4.3c0,0.5,0.1,0.9,0.2,1.2c0.2,0.4,0.5,0.6,1.1,0.6c0.5,0,0.9-0.2,1.2-0.6
		c0.3-0.4,0.5-0.9,0.5-1.6v-3.9h1.8v7.5h-1.7v-1.1c-0.5,0.7-1.3,1.2-2.3,1.2c-1,0-1.5-0.3-2-0.9c-0.3-0.5-0.5-1.1-0.5-2v-4.7
		L947.1,562.9L947.1,562.9z"/>
	<path class="st0" d="M958.6,570.4l-2.1-3.4l-1.1,1.2v2.2h-1.8v-10.6h1.8v6.3l2.8-3.2h2.1l-2.6,2.8l2.9,4.6L958.6,570.4L958.6,570.4
		z"/>
	<path class="st0" d="M965.2,570.3c-0.4,0.1-0.9,0.2-1.3,0.2c-0.7,0-1.2-0.2-1.5-0.5c-0.3-0.4-0.4-0.9-0.4-1.6v-4.1h-1.2v-1.4h1.2
		v-2.4h1.7v2.4h1.5v1.4h-1.5v3.7c0,0.8,0.2,1,0.8,1c0.2,0,0.5,0,0.7-0.1V570.3z"/>
	<path class="st0" d="M972.8,568.5c-0.5,1.3-1.7,2.1-3.2,2.1c-2.4,0-3.7-1.6-3.7-4c0-2.4,1.4-3.9,3.6-3.9c2.4,0,3.4,1.7,3.4,4.4
		h-5.2c0.1,1.3,0.8,2,2,2c0.8,0,1.4-0.3,1.7-1.2L972.8,568.5z M971,565.8c-0.1-1.2-0.7-1.8-1.6-1.8s-1.7,0.6-1.8,1.8H971z"/>
</g>
<g>
	<path class="st0" d="M192.1,310.4v-10.6h1.9v8.9h5v1.6H192.1z"/>
	<path class="st0" d="M200.3,301.4v-1.6h1.8v1.6H200.3z M202.1,310.4h-1.8v-7.5h1.8V310.4z"/>
	<path class="st0" d="M205.7,310.4l-2.7-7.5h1.9c0.9,2.5,1.4,4.1,1.9,5.7c0.4-1.5,0.9-3.1,1.8-5.7h1.9l-2.7,7.5H205.7z"/>
	<path class="st0" d="M211.4,301.4v-1.6h1.8v1.6H211.4z M213.1,310.4h-1.8v-7.5h1.8V310.4z"/>
	<path class="st0" d="M219.7,310.4v-4.3c0-0.6-0.1-1-0.3-1.3c-0.2-0.3-0.5-0.4-1-0.4s-1,0.2-1.3,0.7c-0.4,0.5-0.4,1-0.4,1.8v3.6H215
		v-7.5h1.7v1.1c0.5-0.8,1.4-1.2,2.5-1.2c0.9,0,1.5,0.3,1.9,0.9c0.3,0.5,0.4,1,0.4,2v4.7L219.7,310.4L219.7,310.4z"/>
	<path class="st0" d="M228,309.3c-0.5,0.6-1.2,1-2.2,1c-1.8,0-3-1.4-3-3.8c0-2.3,1.3-3.8,3.1-3.8c1,0,1.8,0.4,2.2,1v-0.9h1.7v7
		c0,1.5-0.4,2.5-1.2,3.1c-0.6,0.4-1.4,0.6-2.4,0.6c-1.8,0-3-0.8-3.3-2.3l1.9-0.3c0.1,0.8,0.7,1.2,1.5,1.2c0.7,0,1.2-0.2,1.4-0.6
		c0.2-0.3,0.3-0.8,0.3-1.5L228,309.3L228,309.3z M226.4,304.2c-1.1,0-1.8,0.8-1.8,2.3c0,1.5,0.7,2.4,1.7,2.4c1,0,1.7-0.7,1.7-2.2
		C228.1,305.1,227.5,304.2,226.4,304.2z"/>
	<path class="st0" d="M236.5,310.4v-1c-0.5,0.7-1.2,1.2-2.2,1.2c-1.7,0-3-1.3-3-3.9c0-2.5,1.4-3.9,3.1-3.9c1.1,0,1.7,0.4,2.1,1v-3.9
		h1.7v10.6L236.5,310.4L236.5,310.4z M234.8,304.2c-1,0-1.7,0.8-1.7,2.4c0,1.5,0.6,2.5,1.7,2.5c1,0,1.8-0.8,1.8-2.4
		C236.5,305.1,235.8,304.2,234.8,304.2z"/>
	<path class="st0" d="M243.3,310.6c-2.3,0-3.7-1.5-3.7-4c0-2.5,1.5-3.9,3.8-3.9c2.2,0,3.6,1.5,3.6,4
		C246.9,309.2,245.5,310.6,243.3,310.6z M243.3,304.1c-1.1,0-1.9,0.9-1.9,2.4c0,1.7,0.8,2.5,1.9,2.5c1.1,0,1.9-0.8,1.9-2.5
		C245.2,305,244.4,304.1,243.3,304.1z"/>
	<path class="st0" d="M253,305.5c-0.2-1-0.8-1.3-1.5-1.3c-1,0-1.8,0.8-1.8,2.4c0,1.6,0.7,2.5,1.8,2.5c0.8,0,1.3-0.4,1.5-1.2l1.6,0.5
		c-0.4,1.2-1.4,2.1-3.1,2.1c-2.2,0-3.6-1.5-3.6-4c0-2.4,1.4-3.9,3.6-3.9c1.6,0,2.6,0.9,3,2.2L253,305.5z"/>
	<path class="st0" d="M256.4,308c0.4,0.8,1.1,1.2,1.9,1.2c0.8,0,1.2-0.3,1.2-0.8c0-0.5-0.2-0.7-1.4-1.1l-0.8-0.2
		c-1.1-0.4-1.9-1-1.9-2.2c0-1.2,1.1-2.2,2.9-2.2c1.2,0,2.3,0.5,2.9,1.5l-1.3,0.9c-0.4-0.7-1-1-1.7-1c-0.8,0-1.1,0.3-1.1,0.7
		c0,0.5,0.2,0.7,1.2,1l0.8,0.2c1.3,0.4,2.1,1,2.1,2.2c0,1.4-1.1,2.4-3,2.4c-1.5,0-2.6-0.7-3.2-1.7L256.4,308z"/>
	<path class="st0" d="M192.1,328.4v-10.6h7.4v1.6H194v2.7h5v1.6h-5v3h5.7v1.6L192.1,328.4L192.1,328.4z"/>
	<path class="st0" d="M205.7,328.4v-1c-0.5,0.7-1.2,1.2-2.2,1.2c-1.7,0-3-1.3-3-3.9c0-2.5,1.4-3.9,3.1-3.9c1.1,0,1.7,0.4,2.1,1v-3.9
		h1.7v10.6L205.7,328.4L205.7,328.4z M204,322.2c-1,0-1.7,0.8-1.7,2.4c0,1.5,0.6,2.5,1.7,2.5c1,0,1.8-0.8,1.8-2.4
		C205.7,323.1,205.1,322.2,204,322.2z"/>
	<path class="st0" d="M209.2,319.4v-1.6h1.8v1.6H209.2z M211,328.4h-1.8v-7.5h1.8V328.4z"/>
	<path class="st0" d="M216.5,328.3c-0.4,0.1-0.9,0.2-1.3,0.2c-0.7,0-1.2-0.2-1.5-0.5c-0.3-0.4-0.4-0.9-0.4-1.6v-4.1h-1.2v-1.4h1.2
		v-2.4h1.8v2.4h1.5v1.4H215v3.7c0,0.8,0.2,1,0.8,1c0.2,0,0.5,0,0.7-0.1L216.5,328.3L216.5,328.3z"/>
	<path class="st0" d="M220.8,328.6c-2.3,0-3.7-1.5-3.7-4c0-2.5,1.5-3.9,3.8-3.9c2.2,0,3.6,1.5,3.6,4
		C224.5,327.2,223,328.6,220.8,328.6z M220.9,322.1c-1.1,0-1.9,0.9-1.9,2.4c0,1.7,0.8,2.5,1.9,2.5c1.1,0,1.9-0.8,1.9-2.5
		C222.7,323,222,322.1,220.9,322.1z"/>
	<path class="st0" d="M225.9,328.4v-7.5h1.7v1.1c0.4-0.8,1-1.2,2.1-1.2c0.2,0,0.4,0,0.6,0.1v1.8c-0.3-0.1-0.5-0.2-0.8-0.2
		c-0.6,0-1.1,0.2-1.4,0.7c-0.3,0.4-0.4,0.9-0.4,1.7v3.5L225.9,328.4L225.9,328.4z"/>
</g>
<g>
	<path class="st0" d="M492.1,115.8h3.3c1.9,0,2.7,0.1,3.5,0.5c1.5,0.7,2.1,2.5,2.1,4.7c0,1.7-0.5,3.2-1.4,4.1c-1,1-2.2,1.3-4.4,1.3
		h-3.1L492.1,115.8L492.1,115.8z M495.4,124.7c1.4,0,2.3-0.3,2.9-0.9c0.5-0.6,0.8-1.6,0.8-2.9c0-1.1-0.2-2.1-0.8-2.7
		c-0.5-0.5-1.1-0.8-2.6-0.8H494v7.3C494,124.7,495.4,124.7,495.4,124.7z"/>
	<path class="st0" d="M509.1,124.5c-0.5,1.3-1.7,2.1-3.2,2.1c-2.4,0-3.7-1.6-3.7-4c0-2.4,1.4-3.9,3.6-3.9c2.4,0,3.4,1.7,3.4,4.4
		h-5.2c0.1,1.3,0.8,2,2,2c0.8,0,1.4-0.3,1.7-1.2L509.1,124.5z M507.4,121.8c-0.1-1.2-0.7-1.8-1.6-1.8s-1.7,0.6-1.8,1.8H507.4z"/>
	<path class="st0" d="M511.2,124c0.4,0.8,1.1,1.2,1.9,1.2c0.8,0,1.2-0.3,1.2-0.8c0-0.5-0.2-0.7-1.4-1.1l-0.8-0.2
		c-1.1-0.4-1.9-1-1.9-2.2c0-1.2,1-2.2,2.9-2.2c1.2,0,2.3,0.4,2.9,1.5l-1.3,0.9c-0.4-0.7-1-1.1-1.7-1.1c-0.8,0-1.1,0.3-1.1,0.7
		c0,0.4,0.2,0.7,1.2,1l0.8,0.2c1.3,0.4,2.1,1,2.1,2.2c0,1.4-1.2,2.4-3,2.4c-1.5,0-2.6-0.7-3.2-1.7L511.2,124z"/>
	<path class="st0" d="M522.3,126.4l-2.1-3.4l-1.1,1.2v2.2h-1.8v-10.6h1.8v6.3l2.8-3.2h2.1l-2.6,2.8l2.9,4.6L522.3,126.4L522.3,126.4
		z"/>
	<path class="st0" d="M524.3,122.5v-1.4h4.3v1.4H524.3z"/>
	<path class="st0" d="M532.3,115.8c2.3,3.9,3.7,6,4.7,7.8c-0.1-1.6-0.1-3.8-0.1-7.8h1.9v10.6h-2.1c-2.2-3.6-3.6-5.9-4.7-7.8
		c0,0.9,0.1,2.9,0.1,7.8h-1.9v-10.6C530.2,115.8,532.3,115.8,532.3,115.8z"/>
	<path class="st0" d="M547.3,124.5c-0.5,1.3-1.7,2.1-3.2,2.1c-2.4,0-3.7-1.6-3.7-4c0-2.4,1.4-3.9,3.6-3.9c2.4,0,3.4,1.7,3.4,4.4
		h-5.2c0.1,1.3,0.8,2,2,2c0.8,0,1.4-0.3,1.7-1.2L547.3,124.5z M545.5,121.8c-0.1-1.2-0.7-1.8-1.6-1.8s-1.7,0.6-1.8,1.8H545.5z"/>
	<path class="st0" d="M552.3,126.3c-0.4,0.1-0.9,0.2-1.3,0.2c-0.7,0-1.2-0.2-1.5-0.5c-0.3-0.4-0.4-0.9-0.4-1.6v-4.1h-1.2v-1.4h1.2
		v-2.4h1.7v2.4h1.5v1.4h-1.5v3.7c0,0.8,0.2,1,0.8,1c0.2,0,0.5,0,0.7-0.1V126.3z"/>
</g>
<g>
	<path class="st0" d="M798.9,119.1c-0.3-1.2-1-1.9-2.2-1.9c-1.9,0-3,1.4-3,3.7c0,2.4,1.1,4,3,4c1.2,0,2.1-0.7,2.4-1.9l1.8,0.7
		c-0.7,1.9-2.2,3-4.3,3c-3,0-4.9-2.1-4.9-5.6s2-5.5,5-5.5c2.1,0,3.5,1.1,4,2.9L798.9,119.1z"/>
	<path class="st0" d="M806.8,126.4v-4.3c0-0.6-0.1-1.1-0.3-1.4c-0.2-0.2-0.5-0.4-1-0.4c-0.5,0-1,0.2-1.3,0.7
		c-0.4,0.5-0.4,1.1-0.4,1.8v3.6h-1.8v-10.6h1.7v4.2c0.5-0.8,1.4-1.2,2.5-1.2c0.9,0,1.5,0.3,1.8,0.8c0.3,0.5,0.5,1,0.5,2.2v4.6H806.8
		z"/>
	<path class="st0" d="M814.6,121.3c0-0.4-0.1-0.7-0.3-0.9c-0.2-0.2-0.6-0.3-1-0.3c-0.9,0-1.3,0.5-1.4,1.3l-1.7-0.2
		c0.1-1.6,1.3-2.5,3.2-2.5c1,0,1.7,0.2,2.2,0.7c0.5,0.4,0.6,1.1,0.6,2.2v2.7c0,0.9,0.1,1.6,0.2,2h-1.7c-0.1-0.2-0.2-0.7-0.2-0.9
		c-0.6,0.7-1.4,1.1-2.5,1.1c-1.4,0-2.3-0.8-2.3-2.2c0-1,0.5-1.6,1.4-2c0.7-0.3,2.2-0.5,3.4-0.6L814.6,121.3L814.6,121.3z
		 M814.6,122.9c-0.9,0-1.9,0.2-2.4,0.4c-0.5,0.2-0.7,0.5-0.7,0.9c0,0.5,0.4,0.9,1.1,0.9c0.7,0,1.2-0.3,1.6-0.8
		c0.2-0.3,0.3-0.8,0.3-1.2V122.9z"/>
	<path class="st0" d="M818,126.4v-7.5h1.7v1.2c0.5-0.8,1-1.2,2.1-1.2c0.2,0,0.4,0,0.6,0.1v1.8c-0.3-0.2-0.5-0.2-0.8-0.2
		c-0.6,0-1.1,0.2-1.4,0.7c-0.2,0.4-0.4,0.9-0.4,1.7v3.5L818,126.4L818,126.4z"/>
	<path class="st0" d="M827.2,126.3c-0.4,0.1-0.9,0.2-1.3,0.2c-0.7,0-1.2-0.2-1.5-0.5c-0.3-0.4-0.4-0.9-0.4-1.6v-4.1h-1.2v-1.4h1.2
		v-2.4h1.7v2.4h1.5v1.4h-1.5v3.7c0,0.8,0.2,1,0.8,1c0.2,0,0.5,0,0.7-0.1V126.3z"/>
	<path class="st0" d="M830,115.8v4.1c0.5-0.7,1.3-1.2,2.3-1.2c1.8,0,2.9,1.5,2.9,3.9c0,2.4-1.2,3.9-3.1,3.9c-1,0-1.7-0.4-2.2-1.1v1
		h-1.7v-10.6C828.3,115.8,830,115.8,830,115.8z M831.7,125c1,0,1.7-0.8,1.7-2.4c0-1.5-0.6-2.4-1.6-2.4c-1.1,0-1.8,0.9-1.8,2.3
		C830,124.1,830.6,125,831.7,125z"/>
	<path class="st0" d="M843.2,124.5c-0.5,1.3-1.7,2.1-3.2,2.1c-2.4,0-3.7-1.6-3.7-4c0-2.4,1.4-3.9,3.6-3.9c2.4,0,3.4,1.7,3.4,4.4H838
		c0.1,1.3,0.8,2,2,2c0.8,0,1.4-0.3,1.7-1.2L843.2,124.5z M841.5,121.8c-0.1-1.2-0.7-1.8-1.6-1.8s-1.7,0.6-1.8,1.8H841.5z"/>
	<path class="st0" d="M848.9,121.3c0-0.4-0.1-0.7-0.3-0.9c-0.2-0.2-0.6-0.3-1-0.3c-0.9,0-1.3,0.5-1.4,1.3l-1.7-0.2
		c0.1-1.6,1.3-2.5,3.2-2.5c1,0,1.7,0.2,2.2,0.7c0.5,0.4,0.6,1.1,0.6,2.2v2.7c0,0.9,0.1,1.6,0.2,2h-1.7c-0.1-0.2-0.2-0.7-0.2-0.9
		c-0.6,0.7-1.4,1.1-2.4,1.1c-1.4,0-2.3-0.8-2.3-2.2c0-1,0.5-1.6,1.4-2c0.7-0.3,2.2-0.5,3.4-0.6L848.9,121.3L848.9,121.3z
		 M848.9,122.9c-0.8,0-1.9,0.2-2.4,0.4c-0.5,0.2-0.7,0.5-0.7,0.9c0,0.5,0.4,0.9,1.1,0.9c0.7,0,1.2-0.3,1.6-0.8
		c0.2-0.3,0.3-0.8,0.3-1.2V122.9z"/>
	<path class="st0" d="M856,126.3c-0.4,0.1-0.9,0.2-1.3,0.2c-0.7,0-1.2-0.2-1.5-0.5c-0.3-0.4-0.4-0.9-0.4-1.6v-4.1h-1.2v-1.4h1.2
		v-2.4h1.7v2.4h1.5v1.4h-1.5v3.7c0,0.8,0.2,1,0.8,1c0.2,0,0.5,0,0.7-0.1V126.3z"/>
</g>
<g>
	<path class="st0" d="M493.1,310.4v-10.6h1.9v8.9h5v1.6H493.1z"/>
	<path class="st0" d="M501.3,301.4v-1.6h1.8v1.6H501.3z M503.1,310.4h-1.8v-7.5h1.8V310.4z"/>
	<path class="st0" d="M506.7,310.4l-2.7-7.5h2c0.9,2.5,1.4,4.1,1.9,5.7c0.4-1.5,0.9-3.1,1.8-5.7h1.9l-2.7,7.5H506.7z"/>
	<path class="st0" d="M512.3,301.4v-1.6h1.8v1.6H512.3z M514.1,310.4h-1.8v-7.5h1.8V310.4z"/>
	<path class="st0" d="M520.7,310.4v-4.3c0-0.6-0.1-1-0.3-1.3c-0.2-0.3-0.5-0.4-1-0.4s-1,0.2-1.3,0.7c-0.4,0.5-0.4,1-0.4,1.8v3.6H516
		v-7.5h1.7v1.1c0.5-0.8,1.4-1.2,2.5-1.2c0.9,0,1.5,0.3,1.9,0.9c0.3,0.5,0.4,1,0.4,2v4.7L520.7,310.4L520.7,310.4z"/>
	<path class="st0" d="M529,309.3c-0.5,0.6-1.2,1-2.2,1c-1.8,0-3-1.4-3-3.8c0-2.3,1.3-3.8,3.1-3.8c1,0,1.8,0.4,2.2,1v-0.9h1.7v7
		c0,1.5-0.4,2.5-1.2,3.1c-0.6,0.4-1.4,0.6-2.4,0.6c-1.8,0-3-0.8-3.3-2.3l1.8-0.3c0.1,0.8,0.7,1.2,1.5,1.2c0.7,0,1.2-0.2,1.4-0.6
		c0.2-0.3,0.3-0.8,0.3-1.5L529,309.3L529,309.3z M527.4,304.2c-1.1,0-1.8,0.8-1.8,2.3c0,1.5,0.7,2.4,1.7,2.4c1,0,1.7-0.7,1.7-2.2
		C529,305.1,528.5,304.2,527.4,304.2z"/>
	<path class="st0" d="M537.5,310.4v-1c-0.5,0.7-1.2,1.2-2.2,1.2c-1.7,0-3-1.3-3-3.9c0-2.5,1.4-3.9,3.1-3.9c1.1,0,1.7,0.4,2.1,1v-3.9
		h1.7v10.6L537.5,310.4L537.5,310.4z M535.8,304.2c-1,0-1.7,0.8-1.7,2.4c0,1.5,0.6,2.5,1.7,2.5c1,0,1.8-0.8,1.8-2.4
		C537.5,305.1,536.8,304.2,535.8,304.2z"/>
	<path class="st0" d="M544.3,310.6c-2.3,0-3.7-1.5-3.7-4c0-2.5,1.5-3.9,3.8-3.9c2.2,0,3.5,1.5,3.5,4
		C547.9,309.2,546.5,310.6,544.3,310.6z M544.3,304.1c-1.1,0-1.9,0.9-1.9,2.4c0,1.7,0.8,2.5,1.9,2.5c1.1,0,1.9-0.8,1.9-2.5
		C546.2,305,545.4,304.1,544.3,304.1z"/>
	<path class="st0" d="M554,305.5c-0.2-1-0.8-1.3-1.5-1.3c-1,0-1.8,0.8-1.8,2.4c0,1.6,0.7,2.5,1.8,2.5c0.8,0,1.3-0.4,1.5-1.2l1.6,0.5
		c-0.4,1.2-1.4,2.1-3.1,2.1c-2.2,0-3.6-1.5-3.6-4c0-2.4,1.4-3.9,3.7-3.9c1.6,0,2.6,0.9,3,2.2L554,305.5z"/>
	<path class="st0" d="M557.4,308c0.4,0.8,1.1,1.2,1.9,1.2c0.8,0,1.2-0.3,1.2-0.8c0-0.5-0.2-0.7-1.4-1.1l-0.8-0.2
		c-1.2-0.4-1.9-1-1.9-2.2c0-1.2,1-2.2,2.9-2.2c1.2,0,2.3,0.5,2.9,1.5l-1.3,0.9c-0.4-0.7-1-1-1.7-1c-0.8,0-1.1,0.3-1.1,0.7
		c0,0.5,0.2,0.7,1.2,1l0.8,0.2c1.3,0.4,2.1,1,2.1,2.2c0,1.4-1.2,2.4-3,2.4c-1.5,0-2.6-0.7-3.2-1.7L557.4,308z"/>
	<path class="st0" d="M494,325.1c0.6,1.3,1.6,1.9,2.8,1.9c1.3,0,2-0.5,2-1.3c0-0.8-0.5-1-2-1.6l-1.1-0.4c-1.8-0.6-2.6-1.5-2.6-3
		c0-1.8,1.6-3.1,3.8-3.1c1.8,0,3.2,0.8,4,2.2l-1.5,1.1c-0.7-1.2-1.6-1.6-2.7-1.6c-1,0-1.6,0.5-1.6,1.2c0,0.7,0.4,1,1.8,1.5l1.2,0.4
		c2,0.6,2.9,1.5,2.9,3.1c0,1.9-1.6,3.2-4,3.2c-1.9,0-3.5-0.9-4.3-2.4L494,325.1z"/>
	<path class="st0" d="M508.7,326.5c-0.5,1.4-1.7,2.1-3.2,2.1c-2.4,0-3.7-1.6-3.7-4c0-2.4,1.4-3.9,3.6-3.9c2.4,0,3.4,1.7,3.4,4.4
		h-5.2c0.1,1.3,0.8,2,2,2c0.8,0,1.4-0.3,1.7-1.2L508.7,326.5z M507,323.8c-0.1-1.2-0.7-1.8-1.6-1.8s-1.7,0.6-1.8,1.8H507z"/>
	<path class="st0" d="M510.1,328.4v-7.5h1.7v1.1c0.4-0.8,1-1.2,2.1-1.2c0.2,0,0.4,0,0.6,0.1v1.8c-0.3-0.1-0.5-0.2-0.8-0.2
		c-0.6,0-1.1,0.2-1.4,0.7c-0.3,0.4-0.4,0.9-0.4,1.7v3.5L510.1,328.4L510.1,328.4z"/>
	<path class="st0" d="M517.5,328.4l-2.7-7.5h2c0.9,2.5,1.4,4.1,1.8,5.7c0.4-1.5,0.9-3.1,1.8-5.7h1.9l-2.7,7.5H517.5z"/>
	<path class="st0" d="M529.5,326.5c-0.5,1.4-1.7,2.1-3.2,2.1c-2.4,0-3.7-1.6-3.7-4c0-2.4,1.4-3.9,3.6-3.9c2.4,0,3.4,1.7,3.4,4.4
		h-5.2c0.1,1.3,0.8,2,2,2c0.8,0,1.4-0.3,1.7-1.2L529.5,326.5z M527.8,323.8c-0.1-1.2-0.7-1.8-1.6-1.8s-1.7,0.6-1.8,1.8H527.8z"/>
	<path class="st0" d="M530.9,328.4v-7.5h1.7v1.1c0.5-0.8,1-1.2,2.1-1.2c0.2,0,0.4,0,0.6,0.1v1.8c-0.3-0.1-0.5-0.2-0.8-0.2
		c-0.6,0-1.1,0.2-1.4,0.7c-0.3,0.4-0.4,0.9-0.4,1.7v3.5L530.9,328.4L530.9,328.4z"/>
</g>
<g>
	<path class="st0" d="M344.1,581.4c-1.2-4.6-1.6-6.1-2-8c-0.5,1.9-0.8,3.4-2.2,8h-2l-2.8-10.6h2c0.7,3,1.3,5.4,1.9,8.2
		c0.5-2.2,0.9-4,2-8.2h1.9c0.8,3.2,1.6,6,2.1,8.2c0.2-1.2,0.7-3.6,1.9-8.2h2l-2.8,10.6H344.1z"/>
	<path class="st0" d="M352.4,581.6c-2.3,0-3.7-1.5-3.7-4c0-2.5,1.5-3.9,3.8-3.9c2.2,0,3.5,1.5,3.5,4
		C356,580.2,354.6,581.6,352.4,581.6z M352.4,575.2c-1.1,0-1.9,0.9-1.9,2.4c0,1.7,0.8,2.5,1.9,2.5c1.1,0,1.9-0.8,1.9-2.5
		C354.3,576,353.5,575.2,352.4,575.2z"/>
	<path class="st0" d="M360.7,581.6c-2.3,0-3.7-1.5-3.7-4c0-2.5,1.5-3.9,3.8-3.9c2.2,0,3.5,1.5,3.5,4
		C364.4,580.2,362.9,581.6,360.7,581.6z M360.8,575.2c-1.1,0-1.9,0.9-1.9,2.4c0,1.7,0.8,2.5,1.9,2.5c1.1,0,1.9-0.8,1.9-2.5
		C362.6,576,361.9,575.2,360.8,575.2z"/>
	<path class="st0" d="M370.6,581.4v-1c-0.5,0.7-1.2,1.2-2.2,1.2c-1.7,0-3-1.3-3-3.9c0-2.5,1.4-3.9,3.1-3.9c1.1,0,1.7,0.4,2.1,1v-3.9
		h1.7v10.6L370.6,581.4L370.6,581.4z M368.9,575.2c-1,0-1.7,0.8-1.7,2.4c0,1.5,0.6,2.5,1.7,2.5c1,0,1.8-0.8,1.8-2.4
		C370.6,576.1,370,575.2,368.9,575.2z"/>
	<path class="st0" d="M380.3,581.4c-0.5-2-1-3.8-1.3-5.5c-0.3,1.4-0.7,2.8-1.4,5.5h-2l-2.2-7.5h1.9c0.5,2,1.1,4.2,1.5,5.6
		c0.3-1.4,0.6-2.9,1.4-5.6h1.8c0.6,2.4,1,4,1.4,5.6c0.4-1.6,0.9-3.7,1.5-5.6h1.8l-2.3,7.5H380.3z"/>
	<path class="st0" d="M385.4,572.4v-1.7h1.8v1.7H385.4z M387.2,581.4h-1.8v-7.5h1.8V581.4z"/>
	<path class="st0" d="M393.8,581.4v-4.3c0-0.6-0.1-1-0.3-1.3c-0.2-0.3-0.5-0.4-1-0.4s-1,0.3-1.3,0.7c-0.4,0.5-0.4,1-0.4,1.8v3.6H389
		v-7.5h1.7v1.1c0.5-0.8,1.4-1.2,2.5-1.2c0.9,0,1.5,0.3,1.9,0.9c0.3,0.5,0.4,1,0.4,2v4.7H393.8z"/>
	<path class="st0" d="M402,580.3c-0.5,0.7-1.2,1-2.2,1c-1.8,0-3-1.4-3-3.8c0-2.3,1.3-3.8,3.1-3.8c1,0,1.8,0.4,2.2,1v-0.9h1.7v7
		c0,1.5-0.4,2.5-1.2,3.1c-0.6,0.4-1.4,0.6-2.4,0.6c-1.8,0-3-0.8-3.3-2.3l1.9-0.3c0.1,0.8,0.7,1.2,1.5,1.2c0.7,0,1.2-0.2,1.4-0.6
		c0.2-0.3,0.3-0.8,0.3-1.5L402,580.3L402,580.3z M400.5,575.2c-1.1,0-1.8,0.8-1.8,2.3c0,1.5,0.7,2.4,1.7,2.4c1,0,1.7-0.7,1.7-2.2
		C402.1,576.2,401.5,575.2,400.5,575.2z"/>
</g>
<g>
	<path class="st0" d="M198.8,581.4v-4.3c0-0.6-0.1-1.1-0.3-1.4c-0.2-0.2-0.5-0.4-1-0.4c-0.5,0-1,0.3-1.3,0.7c-0.4,0.5-0.4,1-0.4,1.8
		v3.6h-1.8v-10.6h1.7v4.2c0.5-0.8,1.4-1.2,2.5-1.2c0.9,0,1.5,0.3,1.8,0.8c0.3,0.5,0.4,1,0.4,2.2v4.6H198.8z"/>
	<path class="st0" d="M204,573.9v4.3c0,0.5,0.1,0.9,0.2,1.2c0.2,0.4,0.6,0.6,1.1,0.6c0.5,0,0.9-0.2,1.2-0.6c0.3-0.4,0.5-0.9,0.5-1.6
		v-3.9h1.8v7.5H207v-1.1c-0.5,0.7-1.3,1.2-2.3,1.2c-1,0-1.5-0.3-2-0.9c-0.3-0.5-0.5-1.1-0.5-2v-4.7L204,573.9L204,573.9z"/>
	<path class="st0" d="M217.9,581.4v-1.2c-0.7,1-1.8,1.4-3.1,1.4c-2.7,0-4.6-2.1-4.6-5.4c0-3.2,1.9-5.7,5.2-5.7c2.1,0,3.5,1,4.2,2.8
		l-1.9,0.7c-0.3-1.1-1.1-1.8-2.4-1.8c-2,0-3.2,1.5-3.2,3.8c0,2.5,1.3,3.8,3.1,3.8c1.7,0,2.5-1,2.6-2.8h-3v-1.6h4.7v5.8L217.9,581.4
		L217.9,581.4z"/>
	<path class="st0" d="M221.3,576c0-3.3,2-5.5,5-5.5c2.9,0,4.8,2.2,4.8,5.6c0,3.5-1.9,5.5-4.8,5.5C223.1,581.6,221.3,579.4,221.3,576
		z M226.2,572.2c-1.8,0-3,1.4-3,3.7c0,2.5,1.2,3.9,3,3.9c1.7,0,2.8-1.3,2.8-3.8C229.1,573.6,227.9,572.2,226.2,572.2z"/>
	<path class="st0" d="M236.5,580.9v-3.3h-3.3v-1.7h3.3v-3.4h1.8v3.4h3.3v1.7h-3.3v3.3H236.5z"/>
</g>
<g>
	<path class="st0" d="M793.1,310.4v-10.6h1.9v8.9h5v1.6H793.1z"/>
	<path class="st0" d="M801.3,301.4v-1.6h1.8v1.6H801.3z M803.1,310.4h-1.8v-7.5h1.8V310.4z"/>
	<path class="st0" d="M806.7,310.4l-2.7-7.5h2c0.9,2.5,1.4,4.1,1.8,5.7c0.4-1.5,0.9-3.1,1.8-5.7h1.9l-2.7,7.5H806.7z"/>
	<path class="st0" d="M812.3,301.4v-1.6h1.8v1.6H812.3z M814.1,310.4h-1.8v-7.5h1.8V310.4z"/>
	<path class="st0" d="M820.7,310.4v-4.3c0-0.6-0.1-1-0.3-1.3c-0.2-0.3-0.5-0.4-1-0.4s-1,0.2-1.3,0.7c-0.4,0.5-0.4,1-0.4,1.8v3.6H816
		v-7.5h1.7v1.1c0.5-0.8,1.4-1.2,2.5-1.2c0.9,0,1.5,0.3,1.9,0.9c0.3,0.5,0.4,1,0.4,2v4.7L820.7,310.4L820.7,310.4z"/>
	<path class="st0" d="M829,309.3c-0.5,0.6-1.2,1-2.2,1c-1.8,0-3-1.4-3-3.8c0-2.3,1.3-3.8,3.1-3.8c1,0,1.8,0.4,2.2,1v-0.9h1.7v7
		c0,1.5-0.4,2.5-1.2,3.1c-0.6,0.4-1.4,0.6-2.4,0.6c-1.8,0-3-0.8-3.3-2.3l1.8-0.3c0.1,0.8,0.7,1.2,1.5,1.2c0.7,0,1.2-0.2,1.4-0.6
		c0.2-0.3,0.3-0.8,0.3-1.5L829,309.3L829,309.3z M827.4,304.2c-1.1,0-1.8,0.8-1.8,2.3c0,1.5,0.7,2.4,1.7,2.4c1,0,1.7-0.7,1.7-2.2
		C829,305.1,828.5,304.2,827.4,304.2z"/>
	<path class="st0" d="M837.5,310.4v-1c-0.5,0.7-1.2,1.2-2.2,1.2c-1.7,0-3-1.3-3-3.9c0-2.5,1.4-3.9,3.1-3.9c1.1,0,1.7,0.4,2.1,1v-3.9
		h1.7v10.6L837.5,310.4L837.5,310.4z M835.8,304.2c-1,0-1.7,0.8-1.7,2.4c0,1.5,0.6,2.5,1.7,2.5s1.8-0.8,1.8-2.4
		C837.5,305.1,836.8,304.2,835.8,304.2z"/>
	<path class="st0" d="M844.3,310.6c-2.3,0-3.7-1.5-3.7-4c0-2.5,1.5-3.9,3.8-3.9c2.2,0,3.5,1.5,3.5,4
		C847.9,309.2,846.5,310.6,844.3,310.6z M844.3,304.1c-1.1,0-1.9,0.9-1.9,2.4c0,1.7,0.8,2.5,1.9,2.5c1.1,0,1.9-0.8,1.9-2.5
		C846.2,305,845.4,304.1,844.3,304.1z"/>
	<path class="st0" d="M854,305.5c-0.2-1-0.8-1.3-1.5-1.3c-1,0-1.8,0.8-1.8,2.4c0,1.6,0.7,2.5,1.8,2.5c0.8,0,1.3-0.4,1.5-1.2l1.6,0.5
		c-0.4,1.2-1.4,2.1-3.1,2.1c-2.2,0-3.5-1.5-3.5-4c0-2.4,1.4-3.9,3.6-3.9c1.6,0,2.6,0.9,3,2.2L854,305.5z"/>
	<path class="st0" d="M857.4,308c0.4,0.8,1.1,1.2,1.9,1.2c0.8,0,1.2-0.3,1.2-0.8c0-0.5-0.2-0.7-1.4-1.1l-0.8-0.2
		c-1.2-0.4-1.9-1-1.9-2.2c0-1.2,1-2.2,2.9-2.2c1.2,0,2.3,0.5,2.9,1.5l-1.3,0.9c-0.4-0.7-1-1-1.7-1c-0.8,0-1.1,0.3-1.1,0.7
		c0,0.5,0.2,0.7,1.2,1l0.8,0.2c1.3,0.4,2.1,1,2.1,2.2c0,1.4-1.2,2.4-3,2.4c-1.5,0-2.6-0.7-3.2-1.7L857.4,308z"/>
	<path class="st0" d="M793.1,328.4v-10.6h4.4c1.5,0,2.3,0.2,2.9,0.6c0.8,0.6,1.2,1.5,1.2,2.6c0,1.2-0.4,2.2-1.3,2.8
		c-0.8,0.4-1.9,0.6-3.2,0.6H795v4L793.1,328.4L793.1,328.4z M796.9,322.8c1,0,1.7-0.1,2.1-0.4c0.4-0.3,0.5-0.7,0.5-1.3
		c0-0.5-0.2-1-0.5-1.3c-0.4-0.3-0.9-0.4-2-0.4h-2v3.4H796.9z"/>
	<path class="st0" d="M804,320.9v4.3c0,0.5,0.1,0.9,0.2,1.2c0.2,0.4,0.6,0.6,1.1,0.6c0.5,0,0.9-0.2,1.2-0.6c0.3-0.4,0.5-0.9,0.5-1.6
		v-3.9h1.8v7.5H807v-1.1c-0.5,0.7-1.3,1.2-2.3,1.2c-1,0-1.5-0.3-2-0.9c-0.3-0.5-0.5-1.1-0.5-2v-4.7L804,320.9L804,320.9z"/>
	<path class="st0" d="M812.3,317.8v4.1c0.5-0.6,1.3-1.1,2.3-1.1c1.8,0,2.9,1.5,2.9,3.9c0,2.4-1.2,3.9-3.1,3.9c-1,0-1.7-0.4-2.2-1.1
		v1h-1.7v-10.6L812.3,317.8L812.3,317.8z M814,327c1,0,1.7-0.8,1.7-2.4c0-1.5-0.6-2.4-1.6-2.4c-1.1,0-1.8,0.9-1.8,2.3
		C812.2,326.1,812.9,327,814,327z"/>
	<path class="st0" d="M820.7,328.4h-1.8v-10.6h1.8V328.4z"/>
	<path class="st0" d="M822.5,319.4v-1.6h1.8v1.6H822.5z M824.3,328.4h-1.8v-7.5h1.8V328.4z"/>
	<path class="st0" d="M826.8,326c0.4,0.8,1.1,1.2,1.9,1.2c0.8,0,1.2-0.3,1.2-0.8c0-0.5-0.3-0.7-1.4-1.1l-0.8-0.2
		c-1.2-0.4-1.9-1-1.9-2.2c0-1.2,1-2.2,2.9-2.2c1.2,0,2.3,0.5,2.9,1.5l-1.3,0.9c-0.4-0.7-1-1-1.7-1c-0.8,0-1.1,0.3-1.1,0.7
		c0,0.5,0.2,0.7,1.2,1l0.8,0.2c1.3,0.4,2.1,1,2.1,2.2c0,1.4-1.2,2.4-3,2.4c-1.5,0-2.6-0.7-3.2-1.7L826.8,326z"/>
	<path class="st0" d="M837.7,328.4v-4.3c0-0.6-0.1-1.1-0.3-1.4c-0.2-0.2-0.5-0.4-1-0.4c-0.5,0-1,0.2-1.3,0.7c-0.4,0.5-0.4,1-0.4,1.8
		v3.6H833v-10.6h1.7v4.2c0.5-0.8,1.4-1.2,2.5-1.2c0.9,0,1.5,0.3,1.8,0.8c0.3,0.5,0.5,1,0.5,2.2v4.6L837.7,328.4L837.7,328.4z"/>
	<path class="st0" d="M847.7,326.5c-0.5,1.4-1.7,2.1-3.2,2.1c-2.4,0-3.7-1.6-3.7-4c0-2.4,1.4-3.9,3.6-3.9c2.4,0,3.4,1.7,3.4,4.4
		h-5.2c0.1,1.3,0.8,2,2,2c0.8,0,1.4-0.3,1.7-1.2L847.7,326.5z M846,323.8c-0.1-1.2-0.7-1.8-1.6-1.8s-1.7,0.6-1.8,1.8H846z"/>
	<path class="st0" d="M849.2,328.4v-7.5h1.7v1.1c0.5-0.8,1-1.2,2.1-1.2c0.2,0,0.4,0,0.6,0.1v1.8c-0.3-0.1-0.5-0.2-0.8-0.2
		c-0.6,0-1.1,0.2-1.4,0.7c-0.2,0.4-0.4,0.9-0.4,1.7v3.5L849.2,328.4L849.2,328.4z"/>
</g>
<g>
	<path class="st0" d="M500.1,656.4v-10.6h4.4c1.5,0,2.3,0.2,2.9,0.6c0.8,0.5,1.1,1.5,1.1,2.6c0,1.2-0.4,2.2-1.4,2.8
		c-0.8,0.4-1.9,0.6-3.1,0.6H502v4L500.1,656.4L500.1,656.4z M503.9,650.8c1,0,1.7-0.1,2.1-0.4c0.4-0.3,0.5-0.7,0.5-1.3
		c0-0.5-0.2-1-0.5-1.3c-0.4-0.3-0.9-0.4-2-0.4h-2v3.4L503.9,650.8L503.9,650.8z"/>
	<path class="st0" d="M512.4,656.6c-2.3,0-3.7-1.5-3.7-4c0-2.5,1.5-3.9,3.8-3.9c2.2,0,3.5,1.5,3.5,4
		C516,655.2,514.6,656.6,512.4,656.6z M512.5,650.2c-1.1,0-1.9,0.9-1.9,2.4c0,1.7,0.8,2.5,1.9,2.5c1.1,0,1.9-0.8,1.9-2.5
		C514.3,651,513.6,650.2,512.5,650.2z"/>
	<path class="st0" d="M518.2,654c0.4,0.8,1.1,1.2,1.9,1.2c0.8,0,1.2-0.3,1.2-0.8c0-0.5-0.2-0.7-1.4-1.1l-0.8-0.2
		c-1.2-0.4-1.9-1-1.9-2.2c0-1.2,1-2.2,2.9-2.2c1.2,0,2.3,0.5,2.9,1.5l-1.3,0.9c-0.4-0.7-1-1-1.7-1c-0.8,0-1.1,0.3-1.1,0.7
		c0,0.5,0.2,0.7,1.2,1l0.8,0.2c1.3,0.4,2.1,1,2.1,2.2c0,1.4-1.2,2.4-3,2.4c-1.5,0-2.6-0.7-3.2-1.7L518.2,654z"/>
	<path class="st0" d="M528,656.3c-0.4,0.1-0.9,0.2-1.3,0.2c-0.7,0-1.2-0.2-1.5-0.5c-0.3-0.4-0.4-0.9-0.4-1.6v-4.1h-1.2v-1.4h1.2
		v-2.4h1.7v2.4h1.5v1.4h-1.5v3.7c0,0.8,0.2,1,0.8,1c0.2,0,0.5,0,0.7-0.1V656.3z"/>
	<path class="st0" d="M528.7,652.5v-1.4h4.3v1.4H528.7z"/>
	<path class="st0" d="M534.7,656.4v-10.6h4.4c1.5,0,2.3,0.2,2.9,0.6c0.8,0.5,1.2,1.5,1.2,2.6c0,1.2-0.4,2.2-1.3,2.8
		c-0.8,0.4-1.9,0.6-3.2,0.6h-2.1v4L534.7,656.4L534.7,656.4z M538.5,650.8c1,0,1.7-0.1,2.1-0.4c0.4-0.3,0.5-0.7,0.5-1.3
		c0-0.5-0.2-1-0.5-1.3c-0.4-0.3-0.9-0.4-2-0.4h-2v3.4L538.5,650.8L538.5,650.8z"/>
	<path class="st0" d="M543.9,656.4v-7.5h1.7v1.2c0.5-0.8,1-1.2,2.1-1.2c0.2,0,0.4,0,0.6,0.1v1.8c-0.3-0.2-0.5-0.2-0.8-0.2
		c-0.6,0-1.1,0.2-1.4,0.7c-0.3,0.4-0.4,0.9-0.4,1.7v3.5L543.9,656.4L543.9,656.4z"/>
	<path class="st0" d="M552.5,656.6c-2.3,0-3.7-1.5-3.7-4c0-2.5,1.5-3.9,3.8-3.9c2.2,0,3.5,1.5,3.5,4
		C556.2,655.2,554.7,656.6,552.5,656.6z M552.6,650.2c-1.1,0-1.9,0.9-1.9,2.4c0,1.7,0.8,2.5,1.9,2.5c1.1,0,1.9-0.8,1.9-2.5
		C554.4,651,553.7,650.2,552.6,650.2z"/>
	<path class="st0" d="M562.4,656.4v-1c-0.5,0.7-1.2,1.2-2.2,1.2c-1.7,0-3-1.3-3-3.9c0-2.5,1.4-3.9,3.1-3.9c1.1,0,1.7,0.4,2.1,1v-3.9
		h1.7v10.6L562.4,656.4L562.4,656.4z M560.7,650.2c-1,0-1.7,0.8-1.7,2.4c0,1.5,0.6,2.5,1.7,2.5c1,0,1.8-0.8,1.8-2.4
		C562.4,651.1,561.8,650.2,560.7,650.2z"/>
	<path class="st0" d="M567.7,648.9v4.3c0,0.5,0.1,0.9,0.2,1.2c0.2,0.4,0.6,0.6,1.1,0.6c0.5,0,0.9-0.2,1.2-0.6
		c0.3-0.4,0.5-0.9,0.5-1.6v-3.9h1.8v7.5h-1.7v-1.1c-0.5,0.7-1.3,1.2-2.3,1.2c-1,0-1.5-0.3-2-0.9c-0.3-0.5-0.5-1.1-0.5-2v-4.7
		L567.7,648.9L567.7,648.9z"/>
	<path class="st0" d="M573.7,656.4v-1.1l3.7-4.9h-3.5v-1.4h5.7v1.1l-3.6,4.9h3.8v1.4L573.7,656.4L573.7,656.4z"/>
	<path class="st0" d="M587.3,654.5c-0.5,1.3-1.7,2.1-3.2,2.1c-2.4,0-3.7-1.6-3.7-4c0-2.4,1.4-3.9,3.6-3.9c2.4,0,3.4,1.7,3.4,4.4
		h-5.2c0.1,1.3,0.8,2,2,2c0.8,0,1.4-0.3,1.7-1.2L587.3,654.5z M585.5,651.8c-0.1-1.2-0.7-1.8-1.6-1.8s-1.7,0.6-1.8,1.8H585.5z"/>
	<path class="st0" d="M593.4,656.4v-4.3c0-0.6-0.1-1-0.3-1.3c-0.2-0.3-0.5-0.4-1-0.4s-1,0.3-1.3,0.7c-0.4,0.5-0.4,1-0.4,1.8v3.6
		h-1.8v-7.5h1.7v1.1c0.5-0.8,1.4-1.2,2.5-1.2c0.9,0,1.5,0.3,1.9,0.9c0.3,0.5,0.4,1,0.4,2v4.7H593.4z"/>
	<path class="st0" d="M600.6,656.3c-0.4,0.1-0.9,0.2-1.3,0.2c-0.7,0-1.2-0.2-1.5-0.5c-0.3-0.4-0.4-0.9-0.4-1.6v-4.1h-1.2v-1.4h1.2
		v-2.4h1.7v2.4h1.5v1.4h-1.5v3.7c0,0.8,0.2,1,0.8,1c0.2,0,0.5,0,0.7-0.1V656.3z"/>
</g>
</svg>
