<?xml version="1.0" encoding="utf-8"?>
<!-- Generator: Adobe Illustrator 24.1.0, SVG Export Plug-In . SVG Version: 6.00 Build 0)  -->
<svg version="1.1" id="labels_de" xmlns="http://www.w3.org/2000/svg" xmlns:xlink="http://www.w3.org/1999/xlink" x="0px" y="0px"
	 viewBox="0 0 551 850" style="enable-background:new 0 0 551 850;" xml:space="preserve">
<style type="text/css">
	.st0{fill:#3A2F3C;}
	.st1{fill:#3661b5;}
</style>
<g>
	<path class="st0" d="M189.11,201.26c1.82,0,2.99,1.4,2.99,3.51c0,2.34-1.43,3.79-3.77,3.79c-1.74,0-3.09-0.93-3.52-2.64l1.69-0.72
		c0.21,1.23,0.92,1.74,1.86,1.74c1.12,0,1.91-0.73,1.91-2.07c0-1.36-0.75-2.08-1.79-2.08c-0.79,0-1.37,0.39-1.65,1.1l-1.57-0.21
		l0.39-5.65h5.8v1.56h-4.38l-0.22,2.59C187.4,201.56,188.18,201.26,189.11,201.26z"/>
	<path class="st0" d="M197.12,208.57c-2.46,0-3.85-1.95-3.85-5.4c0-3.43,1.41-5.35,3.88-5.35c2.41,0,3.82,2.01,3.82,5.43
		S199.6,208.57,197.12,208.57z M197.15,199.43c-1.29,0-2.08,1.26-2.08,3.75c0,2.58,0.75,3.75,2.07,3.75c1.3,0,2.07-1.11,2.07-3.6
		C199.21,200.74,198.41,199.43,197.15,199.43z"/>
	<path class="st0" d="M205.78,208.57c-2.46,0-3.86-1.95-3.86-5.4c0-3.43,1.41-5.35,3.88-5.35c2.42,0,3.83,2.01,3.83,5.43
		S208.25,208.57,205.78,208.57z M205.81,199.43c-1.29,0-2.08,1.26-2.08,3.75c0,2.58,0.75,3.75,2.07,3.75c1.3,0,2.07-1.11,2.07-3.6
		C207.86,200.74,207.07,199.43,205.81,199.43z"/>
	<path class="st0" d="M214.88,207.92v-3.33h-3.3v-1.68h3.3v-3.36h1.75v3.36h3.3v1.68h-3.3v3.33H214.88z"/>
	<path class="st0" d="M230.06,203.8c0,1.89-0.04,3.12-0.77,3.91c-0.48,0.54-1.24,0.84-2.45,0.84c-0.72,0-1.46-0.15-2.07-0.44
		l0.43-1.71c0.42,0.31,0.9,0.48,1.4,0.48c0.66,0,1.09-0.18,1.33-0.75c0.17-0.41,0.21-1.02,0.21-1.92v-6.45h1.91V203.8z"/>
	<path class="st0" d="M235.22,208.57c-2.34,0-3.66-1.47-3.66-3.96c0-2.47,1.46-3.93,3.76-3.93c2.22,0,3.55,1.48,3.55,4.02
		C238.88,207.19,237.41,208.57,235.22,208.57z M235.28,202.15c-1.11,0-1.92,0.85-1.92,2.42c0,1.69,0.78,2.54,1.88,2.54
		c1.1,0,1.88-0.77,1.88-2.45C237.11,202.99,236.39,202.15,235.28,202.15z"/>
	<path class="st0" d="M242,200.89v4.26c0,0.45,0.06,0.89,0.2,1.17c0.2,0.41,0.55,0.63,1.12,0.63c0.49,0,0.93-0.25,1.2-0.58
		c0.32-0.4,0.46-0.9,0.46-1.6v-3.87h1.76v7.47h-1.72v-1.06c-0.51,0.72-1.28,1.2-2.33,1.2c-0.96,0-1.54-0.3-1.96-0.9
		c-0.33-0.46-0.46-1.12-0.46-1.99v-4.71H242z"/>
	<path class="st0" d="M248.54,208.36v-7.47h1.68v1.15c0.45-0.81,1.04-1.24,2.07-1.24c0.24,0,0.42,0.03,0.64,0.09v1.77
		c-0.28-0.15-0.51-0.21-0.84-0.21c-0.58,0-1.08,0.25-1.41,0.73c-0.26,0.38-0.39,0.9-0.39,1.69v3.48H248.54z"/>
	<path class="st0" d="M258.67,208.36v-4.29c0-0.58-0.06-1.02-0.27-1.32c-0.2-0.28-0.53-0.42-1-0.42s-0.98,0.25-1.27,0.66
		c-0.38,0.49-0.44,1.05-0.44,1.77v3.6h-1.75v-7.47h1.74V202c0.54-0.76,1.43-1.24,2.48-1.24c0.9,0,1.49,0.31,1.86,0.88
		c0.3,0.45,0.42,1.04,0.42,2.04v4.68H258.67z"/>
	<path class="st0" d="M266.41,203.29c0-0.42-0.09-0.71-0.29-0.9c-0.21-0.21-0.57-0.31-1.04-0.31c-0.91,0-1.32,0.46-1.41,1.29
		l-1.68-0.15c0.12-1.62,1.32-2.52,3.22-2.52c1.02,0,1.74,0.24,2.24,0.72c0.46,0.44,0.63,1.05,0.63,2.22v2.74
		c0,0.89,0.06,1.62,0.21,1.98h-1.7c-0.06-0.24-0.15-0.71-0.15-0.93c-0.57,0.69-1.38,1.06-2.45,1.06c-1.36,0-2.32-0.85-2.32-2.19
		c0-0.96,0.48-1.59,1.37-2c0.73-0.33,2.17-0.54,3.36-0.62V203.29z M266.41,204.86c-0.86,0.04-1.86,0.19-2.38,0.45
		c-0.46,0.21-0.64,0.5-0.64,0.92c0,0.54,0.36,0.94,1.14,0.94c0.67,0,1.23-0.28,1.56-0.78c0.24-0.35,0.32-0.77,0.33-1.19V204.86z"/>
	<path class="st0" d="M271.63,208.36h-1.77v-10.59h1.77V208.36z"/>
	<path class="st0" d="M273.44,199.42v-1.65h1.79v1.65H273.44z M275.23,208.36h-1.77v-7.47h1.77V208.36z"/>
	<path class="st0" d="M277.73,205.99c0.39,0.77,1.08,1.22,1.91,1.22c0.76,0,1.18-0.33,1.18-0.78c0-0.49-0.25-0.7-1.38-1.06
		l-0.79-0.25c-1.16-0.36-1.89-1.04-1.89-2.17c0-1.17,1.05-2.25,2.89-2.25c1.19,0,2.28,0.45,2.94,1.5l-1.3,0.88
		c-0.38-0.66-0.95-1.05-1.67-1.05c-0.75,0-1.11,0.3-1.11,0.73c0,0.45,0.24,0.66,1.2,0.96l0.79,0.24c1.32,0.42,2.07,1.03,2.07,2.23
		c0,1.38-1.16,2.38-3.02,2.38c-1.53,0-2.56-0.73-3.19-1.68L277.73,205.99z"/>
	<path class="st0" d="M287.53,208.33c-0.39,0.1-0.87,0.16-1.3,0.16c-0.73,0-1.23-0.18-1.53-0.54c-0.32-0.36-0.42-0.89-0.42-1.58
		v-4.08h-1.17v-1.41h1.2v-2.43h1.74v2.43h1.46v1.41h-1.46v3.73c0,0.76,0.22,1.03,0.76,1.03c0.21,0,0.48-0.04,0.72-0.13V208.33z"/>
	<path class="st0" d="M295.13,206.48c-0.55,1.35-1.7,2.1-3.26,2.1c-2.4,0-3.69-1.56-3.69-4.04c0-2.38,1.44-3.87,3.62-3.87
		c2.37,0,3.36,1.73,3.38,4.4h-5.22c0.06,1.29,0.77,2.02,1.95,2.02c0.76,0,1.41-0.3,1.68-1.16L295.13,206.48z M293.39,203.81
		c-0.06-1.17-0.67-1.77-1.63-1.77s-1.67,0.6-1.79,1.77H293.39z"/>
	<path class="st0" d="M301.28,208.36v-4.29c0-0.58-0.06-1.02-0.27-1.32c-0.19-0.28-0.52-0.42-1-0.42s-0.97,0.25-1.28,0.66
		c-0.38,0.49-0.43,1.05-0.43,1.77v3.6h-1.75v-7.47h1.74V202c0.54-0.76,1.42-1.24,2.47-1.24c0.9,0,1.48,0.31,1.86,0.88
		c0.3,0.45,0.42,1.04,0.42,2.04v4.68H301.28z"/>
	<path class="st0" d="M306.4,208.28c0,1.17-0.22,1.74-0.97,2.43l-0.84-0.66c0.45-0.44,0.63-0.81,0.64-1.69h-0.58v-2.17h1.75V208.28z
		"/>
	<path class="st0" d="M185.83,217.48c1.28-0.07,2.06-0.67,2.24-1.54h1.56v10.42h-1.83v-7.81c-0.47,0.33-1.11,0.51-1.97,0.55V217.48z
		"/>
	<path class="st0" d="M197.15,226.36v-10.59h4.37c1.46,0,2.34,0.22,2.92,0.64c0.79,0.56,1.16,1.53,1.16,2.6
		c0,1.19-0.42,2.25-1.35,2.77c-0.78,0.44-1.88,0.58-3.15,0.58h-2.06v3.99H197.15z M200.95,220.75c1.04,0,1.71-0.1,2.13-0.39
		c0.39-0.28,0.54-0.73,0.54-1.33c0-0.54-0.18-0.99-0.54-1.28c-0.41-0.3-0.92-0.36-2.01-0.36h-2.02v3.36H200.95z"/>
	<path class="st0" d="M206.33,226.36v-7.47h1.68v1.15c0.45-0.81,1.04-1.24,2.07-1.24c0.24,0,0.42,0.03,0.64,0.09v1.77
		c-0.29-0.15-0.51-0.21-0.84-0.21c-0.58,0-1.08,0.25-1.41,0.73c-0.25,0.38-0.39,0.9-0.39,1.69v3.48H206.33z"/>
	<path class="st0" d="M214.97,226.57c-2.34,0-3.66-1.47-3.66-3.96c0-2.47,1.46-3.93,3.76-3.93c2.22,0,3.55,1.48,3.55,4.02
		C218.63,225.19,217.16,226.57,214.97,226.57z M215.03,220.15c-1.11,0-1.92,0.85-1.92,2.42c0,1.69,0.78,2.54,1.88,2.54
		s1.87-0.77,1.87-2.45C216.86,220.99,216.14,220.15,215.03,220.15z"/>
	<path class="st0" d="M224.89,226.36v-1.05c-0.48,0.7-1.18,1.2-2.23,1.2c-1.72,0-3-1.32-3-3.91c0-2.45,1.38-3.85,3.1-3.85
		c1.11,0,1.73,0.4,2.13,0.98v-3.94h1.71v10.59H224.89z M223.19,220.19c-1.04,0-1.74,0.79-1.74,2.38c0,1.5,0.63,2.46,1.67,2.46
		s1.77-0.81,1.77-2.4C224.89,221.14,224.24,220.19,223.19,220.19z"/>
	<path class="st0" d="M230.12,218.89v4.26c0,0.45,0.06,0.89,0.19,1.17c0.2,0.41,0.56,0.63,1.12,0.63c0.5,0,0.93-0.25,1.2-0.58
		c0.31-0.4,0.46-0.9,0.46-1.6v-3.87h1.75v7.47h-1.72v-1.06c-0.51,0.72-1.28,1.2-2.32,1.2c-0.96,0-1.54-0.3-1.96-0.9
		c-0.33-0.46-0.46-1.12-0.46-1.99v-4.71H230.12z"/>
	<path class="st0" d="M241.6,226.36l-2.08-3.4l-1.09,1.15v2.25h-1.75v-10.59h1.75v6.3l2.83-3.18h2.13l-2.62,2.83l2.88,4.63H241.6z"
		/>
	<path class="st0" d="M248.2,226.33c-0.39,0.1-0.87,0.16-1.3,0.16c-0.74,0-1.23-0.18-1.53-0.54c-0.31-0.36-0.42-0.89-0.42-1.58
		v-4.08h-1.17v-1.41h1.2v-2.43h1.74v2.43h1.46v1.41h-1.46v3.73c0,0.76,0.23,1.03,0.77,1.03c0.21,0,0.48-0.04,0.72-0.13V226.33z"/>
	<path class="st0" d="M249.25,217.42v-1.65h1.79v1.65H249.25z M251.03,226.36h-1.77v-7.47h1.77V226.36z"/>
	<path class="st0" d="M256.12,226.57c-2.34,0-3.66-1.47-3.66-3.96c0-2.47,1.46-3.93,3.76-3.93c2.22,0,3.55,1.48,3.55,4.02
		C259.78,225.19,258.31,226.57,256.12,226.57z M256.18,220.15c-1.11,0-1.92,0.85-1.92,2.42c0,1.69,0.78,2.54,1.88,2.54
		s1.87-0.77,1.87-2.45C258.01,220.99,257.29,220.15,256.18,220.15z"/>
	<path class="st0" d="M265.94,226.36v-4.29c0-0.58-0.06-1.02-0.27-1.32c-0.2-0.28-0.53-0.42-1.01-0.42c-0.48,0-0.97,0.25-1.27,0.66
		c-0.38,0.49-0.43,1.05-0.43,1.77v3.6h-1.76v-7.47h1.74V220c0.54-0.76,1.42-1.24,2.47-1.24c0.9,0,1.49,0.31,1.86,0.88
		c0.3,0.45,0.42,1.04,0.42,2.04v4.68H265.94z"/>
	<path class="st0" d="M270.11,223.99c0.39,0.77,1.08,1.22,1.9,1.22c0.77,0,1.19-0.33,1.19-0.78c0-0.49-0.25-0.7-1.38-1.06
		l-0.79-0.25c-1.16-0.36-1.89-1.04-1.89-2.17c0-1.17,1.05-2.25,2.89-2.25c1.19,0,2.28,0.45,2.94,1.5l-1.3,0.88
		c-0.38-0.66-0.95-1.05-1.66-1.05c-0.75,0-1.11,0.3-1.11,0.73c0,0.45,0.24,0.66,1.2,0.96l0.79,0.24c1.32,0.42,2.07,1.03,2.07,2.23
		c0,1.38-1.16,2.38-3.01,2.38c-1.53,0-2.56-0.73-3.2-1.68L270.11,223.99z"/>
	<path class="st0" d="M275.99,222.53v-1.41h4.33v1.41H275.99z"/>
	<path class="st0" d="M283.45,226.36v-8.95h-2.99v-1.63h7.95v1.63h-3v8.95H283.45z"/>
	<path class="st0" d="M291.07,226.57c-2.34,0-3.66-1.47-3.66-3.96c0-2.47,1.46-3.93,3.77-3.93c2.22,0,3.55,1.48,3.55,4.02
		C294.73,225.19,293.26,226.57,291.07,226.57z M291.13,220.15c-1.11,0-1.92,0.85-1.92,2.42c0,1.69,0.78,2.54,1.88,2.54
		c1.09,0,1.87-0.77,1.87-2.45C292.96,220.99,292.24,220.15,291.13,220.15z"/>
	<path class="st0" d="M299.41,226.57c-2.34,0-3.66-1.47-3.66-3.96c0-2.47,1.46-3.93,3.77-3.93c2.22,0,3.55,1.48,3.55,4.02
		C303.07,225.19,301.6,226.57,299.41,226.57z M299.47,220.15c-1.11,0-1.92,0.85-1.92,2.42c0,1.69,0.78,2.54,1.88,2.54
		c1.09,0,1.87-0.77,1.87-2.45C301.3,220.99,300.58,220.15,299.47,220.15z"/>
	<path class="st0" d="M306.26,226.36h-1.77v-10.59h1.77V226.36z"/>
</g>
<g>
	<path class="st1" d="M52.99,69.36v-9.18h3.78c1.26,0,2.03,0.19,2.54,0.56c0.69,0.48,1,1.33,1,2.25c0,1.03-0.36,1.95-1.17,2.4
		c-0.68,0.38-1.62,0.51-2.73,0.51h-1.78v3.46H52.99z M56.28,64.49c0.9,0,1.48-0.09,1.85-0.34c0.34-0.25,0.47-0.64,0.47-1.16
		c0-0.47-0.16-0.86-0.47-1.1c-0.35-0.26-0.79-0.31-1.74-0.31h-1.76v2.91H56.28z"/>
	<path class="st1" d="M61.57,69.36v-9.18h1.65v7.75h4.33v1.43H61.57z"/>
	<path class="st1" d="M74.75,69.36l-0.73-2.15H70.4l-0.74,2.15h-1.78l3.48-9.18h1.83l3.35,9.18H74.75z M73.62,65.91
		c-0.52-1.5-0.96-2.74-1.39-4.08c-0.3,0.92-0.62,1.83-1.43,4.08H73.62z"/>
	<path class="st1" d="M79.23,60.18c2,3.35,3.19,5.23,4.07,6.79c-0.05-1.4-0.06-3.26-0.06-6.79h1.64v9.18h-1.81
		c-1.91-3.15-3.12-5.12-4.08-6.73c0.04,0.79,0.05,2.56,0.05,6.73h-1.64v-9.18H79.23z"/>
	<path class="st1" d="M93.89,65.43c0,1.44-0.19,2.37-0.77,3.03c-0.64,0.74-1.61,1.09-2.95,1.09c-1.31,0-2.34-0.35-2.91-1.1
		c-0.57-0.77-0.7-1.62-0.7-3.02v-5.25h1.65v5.37c0,0.69,0.04,1.27,0.29,1.72c0.34,0.61,0.94,0.85,1.7,0.85
		c0.81,0,1.44-0.21,1.78-0.86c0.2-0.38,0.26-0.98,0.26-1.65v-5.42h1.65V65.43z"/>
	<path class="st1" d="M97.43,60.18c2,3.35,3.19,5.23,4.07,6.79c-0.05-1.4-0.06-3.26-0.06-6.79h1.64v9.18h-1.81
		c-1.91-3.15-3.12-5.12-4.08-6.73c0.04,0.79,0.05,2.56,0.05,6.73h-1.64v-9.18H97.43z"/>
	<path class="st1" d="M111.11,69.36v-1c-0.64,0.82-1.52,1.18-2.69,1.18c-2.31,0-3.98-1.83-3.98-4.65c0-2.79,1.64-4.91,4.54-4.91
		c1.85,0,3.06,0.83,3.64,2.42l-1.64,0.62c-0.29-0.98-0.95-1.57-2.04-1.57c-1.73,0-2.77,1.29-2.77,3.34c0,2.16,1.1,3.31,2.68,3.31
		c1.47,0,2.17-0.9,2.22-2.39h-2.56v-1.4h4.1v5.06H111.11z"/>
</g>
<g>
	<path class="st1" d="M52.99,270.36v-9.18h3.78c1.26,0,2.03,0.19,2.54,0.56c0.69,0.48,1,1.33,1,2.25c0,1.03-0.36,1.95-1.17,2.4
		c-0.68,0.38-1.62,0.51-2.73,0.51h-1.78v3.46H52.99z M56.28,265.49c0.9,0,1.48-0.09,1.85-0.34c0.34-0.25,0.47-0.64,0.47-1.16
		c0-0.47-0.16-0.86-0.47-1.1c-0.35-0.26-0.79-0.31-1.74-0.31h-1.76v2.91H56.28z"/>
	<path class="st1" d="M67.1,270.36l-2.31-3.67h-1.57v3.67h-1.64v-9.18h2.98c1.18,0,2.09,0.05,2.77,0.32
		c0.94,0.38,1.38,1.13,1.38,2.37c0,1.51-0.85,2.34-2.29,2.57l2.61,3.91H67.1z M64.93,265.36c0.83,0,1.3-0.1,1.6-0.34
		c0.3-0.23,0.46-0.61,0.46-1.08c0-0.48-0.12-0.87-0.51-1.12c-0.3-0.19-0.77-0.27-1.5-0.27h-1.77v2.81H64.93z"/>
	<path class="st1" d="M69.74,265.7c0-2.9,1.7-4.73,4.37-4.73c2.51,0,4.15,1.92,4.15,4.84c0,3-1.65,4.76-4.15,4.76
		C71.36,270.56,69.74,268.68,69.74,265.7z M74.03,262.44c-1.57,0-2.57,1.2-2.57,3.24c0,2.13,1.03,3.42,2.61,3.42
		c1.44,0,2.46-1.12,2.46-3.31C76.52,263.66,75.52,262.44,74.03,262.44z"/>
	<path class="st1" d="M79.63,261.18h2.83c1.61,0,2.31,0.12,3.02,0.47c1.26,0.62,1.86,2.13,1.86,4.04c0,1.48-0.4,2.78-1.18,3.56
		c-0.83,0.83-1.94,1.1-3.81,1.1h-2.72V261.18z M82.45,268.95c1.24,0,2.02-0.26,2.5-0.79c0.48-0.55,0.65-1.36,0.65-2.48
		c0-0.99-0.2-1.82-0.69-2.37c-0.43-0.47-0.99-0.73-2.24-0.73h-1.39v6.37H82.45z"/>
	<path class="st1" d="M96.05,266.43c0,1.44-0.19,2.37-0.77,3.03c-0.64,0.74-1.61,1.09-2.95,1.09c-1.31,0-2.34-0.35-2.91-1.1
		c-0.57-0.77-0.7-1.62-0.7-3.02v-5.25h1.65v5.37c0,0.69,0.04,1.27,0.29,1.72c0.34,0.61,0.94,0.85,1.7,0.85
		c0.81,0,1.44-0.21,1.78-0.86c0.2-0.38,0.26-0.98,0.26-1.65v-5.42h1.65V266.43z"/>
	<path class="st1" d="M103.68,270.36l-2.69-4.37l-1.59,1.75v2.61h-1.65v-9.18h1.65v4.41l3.91-4.41h2.02l-3.22,3.58l3.55,5.6H103.68z
		"/>
	<path class="st1" d="M108.23,270.36v-7.76h-2.59v-1.42h6.89v1.42h-2.6v7.76H108.23z"/>
	<path class="st1" d="M115.34,270.36h-1.69v-9.18h1.69V270.36z"/>
	<path class="st1" d="M116.73,265.7c0-2.9,1.7-4.73,4.37-4.73c2.51,0,4.15,1.92,4.15,4.84c0,3-1.65,4.76-4.15,4.76
		C118.36,270.56,116.73,268.68,116.73,265.7z M121.02,262.44c-1.57,0-2.57,1.2-2.57,3.24c0,2.13,1.03,3.42,2.61,3.42
		c1.44,0,2.46-1.12,2.46-3.31C123.52,263.66,122.52,262.44,121.02,262.44z"/>
	<path class="st1" d="M128.46,261.18c2,3.35,3.19,5.23,4.07,6.79c-0.05-1.4-0.06-3.26-0.06-6.79h1.64v9.18h-1.81
		c-1.91-3.15-3.12-5.12-4.08-6.73c0.04,0.79,0.05,2.56,0.05,6.73h-1.64v-9.18H128.46z"/>
</g>
<g>
	<path class="st1" d="M59.02,472.36l-0.73-2.15h-3.63l-0.74,2.15h-1.78l3.48-9.18h1.83l3.35,9.18H59.02z M57.89,468.91
		c-0.52-1.5-0.96-2.74-1.39-4.08c-0.3,0.92-0.62,1.83-1.43,4.08H57.89z"/>
	<path class="st1" d="M68.57,468.43c0,1.44-0.19,2.37-0.77,3.03c-0.64,0.74-1.61,1.09-2.95,1.09c-1.31,0-2.34-0.35-2.91-1.1
		c-0.57-0.77-0.7-1.62-0.7-3.02v-5.25h1.65v5.37c0,0.69,0.04,1.27,0.29,1.72c0.34,0.61,0.94,0.84,1.7,0.84
		c0.81,0,1.44-0.21,1.78-0.86c0.2-0.38,0.26-0.97,0.26-1.65v-5.42h1.65V468.43z"/>
	<path class="st1" d="M70.27,472.36v-9.18h6.31v1.42h-4.64v2.42h4.23v1.42h-4.23v3.93H70.27z"/>
	<path class="st1" d="M81.62,463.18c1.03,0,1.65,0.1,2.11,0.35c0.64,0.35,1.01,1.05,1.01,1.92c0,0.96-0.52,1.72-1.57,2.03
		c1.26,0.22,1.9,1.09,1.9,2.29c0,0.96-0.44,1.74-1.16,2.16c-0.56,0.32-1.26,0.43-2.57,0.43h-3.56v-9.18H81.62z M79.42,466.9h1.89
		c0.53,0,0.96-0.07,1.25-0.21c0.34-0.17,0.52-0.53,0.52-0.96c0-0.43-0.12-0.79-0.49-0.99c-0.27-0.14-0.65-0.18-1.22-0.18h-1.94
		V466.9z M79.42,470.96h1.78c0.71,0,1.29-0.06,1.66-0.31c0.3-0.19,0.47-0.55,0.47-1.01c0-0.48-0.17-0.9-0.52-1.12
		c-0.34-0.21-0.75-0.26-1.46-0.26h-1.94V470.96z"/>
	<path class="st1" d="M86.38,472.36v-9.18h6.38v1.42h-4.72v2.34h4.35v1.42h-4.35v2.57h4.98v1.43H86.38z"/>
	<path class="st1" d="M94.01,468.51v-1.22h3.76v1.22H94.01z"/>
	<path class="st1" d="M58.52,487.96l-2.31-3.67h-1.57v3.67h-1.64v-9.18h2.98c1.18,0,2.09,0.05,2.77,0.33
		c0.94,0.38,1.38,1.13,1.38,2.37c0,1.51-0.85,2.34-2.29,2.57l2.61,3.91H58.52z M56.35,482.96c0.83,0,1.3-0.1,1.6-0.34
		c0.3-0.23,0.46-0.61,0.46-1.08c0-0.48-0.12-0.87-0.51-1.12c-0.3-0.2-0.77-0.27-1.5-0.27h-1.77v2.81H56.35z"/>
	<path class="st1" d="M61.47,487.96v-9.18h6.38v1.42h-4.72v2.34h4.35v1.42h-4.35v2.57h4.98v1.43H61.47z"/>
	<path class="st1" d="M71.08,487.96h-1.69v-9.18h1.69V487.96z"/>
	<path class="st1" d="M74.79,487.96v-7.76h-2.59v-1.42h6.89v1.42h-2.6v7.76H74.79z"/>
	<path class="st1" d="M87.55,484.03c0,1.44-0.19,2.37-0.77,3.03c-0.64,0.74-1.61,1.09-2.95,1.09c-1.31,0-2.34-0.35-2.91-1.1
		c-0.57-0.77-0.7-1.62-0.7-3.02v-5.25h1.65v5.37c0,0.69,0.04,1.27,0.29,1.72c0.34,0.61,0.94,0.85,1.7,0.85
		c0.81,0,1.44-0.21,1.78-0.86c0.2-0.38,0.26-0.98,0.26-1.65v-5.42h1.65V484.03z"/>
	<path class="st1" d="M91.08,478.78c2,3.35,3.19,5.23,4.07,6.79c-0.05-1.4-0.06-3.26-0.06-6.79h1.64v9.18h-1.81
		c-1.91-3.15-3.12-5.12-4.08-6.73c0.04,0.79,0.05,2.56,0.05,6.73h-1.64v-9.18H91.08z"/>
	<path class="st1" d="M104.77,487.96v-1c-0.64,0.82-1.52,1.18-2.69,1.18c-2.31,0-3.98-1.83-3.98-4.65c0-2.79,1.64-4.91,4.54-4.91
		c1.85,0,3.06,0.83,3.64,2.42l-1.64,0.62c-0.29-0.98-0.95-1.57-2.04-1.57c-1.73,0-2.77,1.29-2.77,3.34c0,2.16,1.1,3.31,2.68,3.31
		c1.47,0,2.17-0.9,2.22-2.39h-2.56v-1.4h4.1v5.06H104.77z"/>
</g>
<g>
	<path class="st0" d="M216.24,746.77c2.31,3.87,3.67,6.03,4.69,7.83c-0.06-1.62-0.07-3.76-0.07-7.83h1.89v10.59h-2.08
		c-2.21-3.63-3.6-5.91-4.71-7.77c0.05,0.92,0.06,2.95,0.06,7.77h-1.89v-10.59H216.24z"/>
	<path class="st0" d="M224.16,757.36v-1.41l5.76-7.54h-5.46v-1.63h7.89v1.47l-5.7,7.49h5.71v1.63H224.16z"/>
	<path class="st0" d="M233.29,757.36v-1.41l5.76-7.54h-5.46v-1.63h7.89v1.47l-5.7,7.49h5.71v1.63H233.29z"/>
	<path class="st0" d="M246.34,757.36v-10.59h4.37c1.46,0,2.34,0.22,2.92,0.64c0.79,0.55,1.16,1.53,1.16,2.59
		c0,1.18-0.42,2.25-1.35,2.77c-0.78,0.44-1.88,0.59-3.15,0.59h-2.06v3.99H246.34z M250.14,751.75c1.04,0,1.71-0.1,2.13-0.39
		c0.39-0.28,0.54-0.74,0.54-1.33c0-0.54-0.18-0.99-0.54-1.28c-0.41-0.3-0.92-0.36-2.01-0.36h-2.02v3.36H250.14z"/>
	<path class="st0" d="M255.52,757.36v-7.47h1.68v1.15c0.45-0.81,1.04-1.24,2.07-1.24c0.24,0,0.42,0.03,0.64,0.09v1.77
		c-0.28-0.15-0.51-0.21-0.84-0.21c-0.58,0-1.08,0.25-1.41,0.73c-0.25,0.38-0.39,0.9-0.39,1.7v3.48H255.52z"/>
	<path class="st0" d="M260.89,748.42v-1.65h1.79v1.65H260.89z M262.68,757.36h-1.77v-7.47h1.77V757.36z"/>
	<path class="st0" d="M269.25,757.36v-4.29c0-0.58-0.06-1.02-0.27-1.32c-0.2-0.28-0.53-0.42-1-0.42s-0.98,0.26-1.27,0.66
		c-0.38,0.5-0.44,1.05-0.44,1.77v3.6h-1.75v-7.47h1.74V751c0.54-0.76,1.43-1.24,2.48-1.24c0.9,0,1.49,0.31,1.86,0.88
		c0.3,0.45,0.42,1.04,0.42,2.04v4.68H269.25z"/>
	<path class="st0" d="M276.39,757.33c-0.39,0.11-0.87,0.17-1.3,0.17c-0.74,0-1.23-0.18-1.53-0.54c-0.32-0.36-0.42-0.88-0.42-1.57
		v-4.08h-1.17v-1.41h1.2v-2.43h1.74v2.43h1.46v1.41h-1.46v3.73c0,0.77,0.23,1.04,0.76,1.04c0.21,0,0.48-0.04,0.72-0.13V757.33z"/>
	<path class="st0" d="M277.18,753.53v-1.41h4.33v1.41H277.18z"/>
	<path class="st0" d="M283.14,757.36v-10.59h4.37c1.46,0,2.34,0.22,2.92,0.64c0.79,0.55,1.16,1.53,1.16,2.59
		c0,1.18-0.42,2.25-1.35,2.77c-0.78,0.44-1.88,0.59-3.15,0.59h-2.06v3.99H283.14z M286.93,751.75c1.04,0,1.71-0.1,2.13-0.39
		c0.39-0.28,0.54-0.74,0.54-1.33c0-0.54-0.18-0.99-0.54-1.28c-0.41-0.3-0.92-0.36-2.01-0.36h-2.02v3.36H286.93z"/>
	<path class="st0" d="M292.32,757.36v-7.47H294v1.15c0.45-0.81,1.04-1.24,2.07-1.24c0.24,0,0.42,0.03,0.64,0.09v1.77
		c-0.29-0.15-0.51-0.21-0.84-0.21c-0.58,0-1.08,0.25-1.41,0.73c-0.25,0.38-0.39,0.9-0.39,1.7v3.48H292.32z"/>
	<path class="st0" d="M300.96,757.57c-2.34,0-3.66-1.47-3.66-3.96c0-2.47,1.46-3.93,3.76-3.93c2.22,0,3.55,1.49,3.55,4.02
		C304.62,756.19,303.15,757.57,300.96,757.57z M301.02,751.15c-1.11,0-1.92,0.86-1.92,2.42c0,1.69,0.78,2.54,1.88,2.54
		c1.1,0,1.88-0.76,1.88-2.45C302.85,751.99,302.13,751.15,301.02,751.15z"/>
	<path class="st0" d="M310.87,757.36v-1.05c-0.48,0.71-1.18,1.2-2.23,1.2c-1.72,0-3-1.32-3-3.91c0-2.45,1.38-3.86,3.1-3.86
		c1.11,0,1.73,0.41,2.13,0.98v-3.94h1.71v10.59H310.87z M309.18,751.19c-1.04,0-1.74,0.79-1.74,2.38c0,1.5,0.63,2.46,1.67,2.46
		s1.77-0.81,1.77-2.4C310.87,752.14,310.23,751.19,309.18,751.19z"/>
	<path class="st0" d="M316.11,749.89v4.26c0,0.45,0.06,0.88,0.19,1.17c0.2,0.41,0.56,0.63,1.12,0.63c0.5,0,0.93-0.25,1.2-0.58
		c0.31-0.4,0.46-0.9,0.46-1.6v-3.87h1.75v7.47h-1.72v-1.07c-0.51,0.72-1.28,1.2-2.32,1.2c-0.96,0-1.54-0.3-1.96-0.9
		c-0.33-0.46-0.46-1.12-0.46-2v-4.71H316.11z"/>
	<path class="st0" d="M327.58,757.36l-2.08-3.41l-1.09,1.16v2.25h-1.75v-10.59h1.75v6.3l2.83-3.18h2.13l-2.62,2.83l2.88,4.63H327.58
		z"/>
	<path class="st0" d="M334.18,757.33c-0.39,0.11-0.87,0.17-1.3,0.17c-0.74,0-1.23-0.18-1.53-0.54c-0.31-0.36-0.42-0.88-0.42-1.57
		v-4.08h-1.17v-1.41h1.2v-2.43h1.74v2.43h1.46v1.41h-1.46v3.73c0,0.77,0.23,1.04,0.77,1.04c0.21,0,0.48-0.04,0.72-0.13V757.33z"/>
	<path class="st0" d="M341.79,755.48c-0.55,1.35-1.69,2.1-3.25,2.1c-2.4,0-3.69-1.56-3.69-4.04c0-2.38,1.44-3.87,3.62-3.87
		c2.37,0,3.36,1.73,3.37,4.4h-5.22c0.06,1.29,0.76,2.02,1.95,2.02c0.77,0,1.41-0.3,1.68-1.16L341.79,755.48z M340.05,752.81
		c-0.06-1.17-0.67-1.77-1.63-1.77s-1.67,0.6-1.79,1.77H340.05z"/>
</g>
<g>
	<path class="st0" d="M412.24,564.77c2.31,3.87,3.67,6.03,4.69,7.83c-0.06-1.62-0.07-3.76-0.07-7.83h1.89v10.59h-2.08
		c-2.21-3.63-3.6-5.91-4.71-7.77c0.05,0.92,0.06,2.95,0.06,7.77h-1.89v-10.59H412.24z"/>
	<path class="st0" d="M420.16,575.36v-1.41l5.76-7.54h-5.46v-1.63h7.89v1.47l-5.7,7.49h5.71v1.63H420.16z"/>
	<path class="st0" d="M429.29,575.36v-1.41l5.76-7.54h-5.46v-1.63h7.89v1.47l-5.7,7.49h5.71v1.63H429.29z"/>
	<path class="st0" d="M441.98,569.99c0-3.34,1.97-5.46,5.04-5.46c2.89,0,4.79,2.22,4.79,5.58c0,3.46-1.91,5.49-4.79,5.49
		C443.86,575.6,441.98,573.42,441.98,569.99z M446.93,566.22c-1.81,0-2.97,1.38-2.97,3.74c0,2.46,1.19,3.94,3.02,3.94
		c1.67,0,2.83-1.29,2.83-3.83C449.81,567.63,448.66,566.22,446.93,566.22z"/>
	<path class="st0" d="M458.08,575.36v-4.29c0-0.58-0.06-1.02-0.27-1.32c-0.2-0.28-0.53-0.42-1-0.42s-0.98,0.26-1.27,0.66
		c-0.38,0.5-0.44,1.05-0.44,1.77v3.6h-1.75v-7.47h1.74V569c0.54-0.76,1.43-1.24,2.48-1.24c0.9,0,1.49,0.31,1.86,0.88
		c0.3,0.45,0.42,1.04,0.42,2.04v4.68H458.08z"/>
	<path class="st0" d="M463.34,575.36h-1.77v-10.59h1.77V575.36z"/>
	<path class="st0" d="M465.16,566.42v-1.65h1.79v1.65H465.16z M466.94,575.36h-1.77v-7.47h1.77V575.36z"/>
	<path class="st0" d="M473.51,575.36v-4.29c0-0.58-0.06-1.02-0.27-1.32c-0.19-0.28-0.52-0.42-1-0.42s-0.97,0.26-1.28,0.66
		c-0.38,0.5-0.43,1.05-0.43,1.77v3.6h-1.75v-7.47h1.74V569c0.54-0.76,1.42-1.24,2.47-1.24c0.9,0,1.48,0.31,1.86,0.88
		c0.3,0.45,0.42,1.04,0.42,2.04v4.68H473.51z"/>
	<path class="st0" d="M483.55,573.48c-0.55,1.35-1.69,2.1-3.25,2.1c-2.4,0-3.69-1.56-3.69-4.04c0-2.38,1.44-3.87,3.62-3.87
		c2.37,0,3.36,1.73,3.37,4.4h-5.22c0.06,1.29,0.77,2.02,1.95,2.02c0.76,0,1.41-0.3,1.68-1.16L483.55,573.48z M481.81,570.81
		c-0.06-1.17-0.68-1.77-1.64-1.77s-1.67,0.6-1.78,1.77H481.81z"/>
	<path class="st0" d="M484.69,571.53v-1.41h4.33v1.41H484.69z"/>
	<path class="st0" d="M410.12,593.36v-10.59h4.36c1.46,0,2.34,0.22,2.92,0.64c0.79,0.55,1.15,1.53,1.15,2.59
		c0,1.18-0.42,2.25-1.35,2.77c-0.78,0.44-1.88,0.59-3.15,0.59h-2.06v3.99H410.12z M413.92,587.75c1.03,0,1.71-0.1,2.13-0.39
		c0.39-0.28,0.54-0.74,0.54-1.33c0-0.54-0.18-0.99-0.54-1.28c-0.4-0.3-0.91-0.36-2.01-0.36h-2.03v3.36H413.92z"/>
	<path class="st0" d="M419.3,593.36v-7.47h1.68v1.15c0.45-0.81,1.04-1.24,2.07-1.24c0.24,0,0.42,0.03,0.64,0.09v1.77
		c-0.29-0.15-0.51-0.21-0.84-0.21c-0.59,0-1.08,0.25-1.41,0.73c-0.26,0.38-0.39,0.9-0.39,1.7v3.48H419.3z"/>
	<path class="st0" d="M427.94,593.57c-2.34,0-3.66-1.47-3.66-3.96c0-2.47,1.46-3.93,3.76-3.93c2.22,0,3.55,1.49,3.55,4.02
		C431.6,592.19,430.13,593.57,427.94,593.57z M428,587.15c-1.11,0-1.92,0.86-1.92,2.42c0,1.69,0.78,2.54,1.88,2.54
		c1.1,0,1.88-0.76,1.88-2.45C429.83,587.99,429.11,587.15,428,587.15z"/>
	<path class="st0" d="M437.86,593.36v-1.05c-0.48,0.71-1.19,1.2-2.24,1.2c-1.72,0-3-1.32-3-3.91c0-2.45,1.38-3.86,3.1-3.86
		c1.11,0,1.73,0.41,2.13,0.98v-3.94h1.71v10.59H437.86z M436.16,587.19c-1.04,0-1.74,0.79-1.74,2.38c0,1.5,0.63,2.46,1.67,2.46
		c1.04,0,1.77-0.81,1.77-2.4C437.86,588.14,437.21,587.19,436.16,587.19z"/>
	<path class="st0" d="M443.09,585.89v4.26c0,0.45,0.06,0.88,0.2,1.17c0.2,0.41,0.55,0.63,1.12,0.63c0.5,0,0.93-0.25,1.2-0.58
		c0.32-0.4,0.46-0.9,0.46-1.6v-3.87h1.75v7.47h-1.72v-1.07c-0.51,0.72-1.28,1.2-2.33,1.2c-0.96,0-1.54-0.3-1.96-0.9
		c-0.33-0.46-0.46-1.12-0.46-2v-4.71H443.09z"/>
	<path class="st0" d="M454.57,593.36l-2.08-3.41l-1.1,1.16v2.25h-1.75v-10.59h1.75v6.3l2.84-3.18h2.13l-2.62,2.83l2.88,4.63H454.57z
		"/>
	<path class="st0" d="M461.17,593.33c-0.39,0.11-0.87,0.17-1.31,0.17c-0.73,0-1.23-0.18-1.53-0.54c-0.31-0.36-0.42-0.88-0.42-1.57
		v-4.08h-1.17v-1.41h1.2v-2.43h1.74v2.43h1.46v1.41h-1.46v3.73c0,0.77,0.22,1.04,0.77,1.04c0.21,0,0.48-0.04,0.72-0.13V593.33z"/>
	<path class="st0" d="M468.77,591.48c-0.55,1.35-1.7,2.1-3.25,2.1c-2.4,0-3.69-1.56-3.69-4.04c0-2.38,1.44-3.87,3.62-3.87
		c2.37,0,3.36,1.73,3.38,4.4h-5.22c0.06,1.29,0.76,2.02,1.95,2.02c0.76,0,1.41-0.3,1.68-1.16L468.77,591.48z M467.03,588.81
		c-0.06-1.17-0.67-1.77-1.63-1.77s-1.66,0.6-1.79,1.77H467.03z"/>
</g>
<g>
	<path class="st0" d="M61.12,297.36v-10.59h1.9v8.94h4.99v1.65H61.12z"/>
	<path class="st0" d="M69.3,288.42v-1.65h1.79v1.65H69.3z M71.08,297.36h-1.77v-7.47h1.77V297.36z"/>
	<path class="st0" d="M74.73,297.36L72,289.89h1.95c0.87,2.55,1.38,4.09,1.85,5.68c0.44-1.53,0.93-3.15,1.8-5.68h1.86l-2.68,7.47
		H74.73z"/>
	<path class="st0" d="M80.35,288.42v-1.65h1.79v1.65H80.35z M82.14,297.36h-1.77v-7.47h1.77V297.36z"/>
	<path class="st0" d="M88.71,297.36v-4.29c0-0.58-0.06-1.02-0.27-1.32c-0.19-0.28-0.52-0.42-1-0.42s-0.98,0.25-1.27,0.66
		c-0.38,0.49-0.44,1.05-0.44,1.77v3.6h-1.75v-7.47h1.74V291c0.54-0.76,1.43-1.24,2.48-1.24c0.9,0,1.48,0.31,1.86,0.88
		c0.3,0.45,0.42,1.04,0.42,2.04v4.68H88.71z"/>
	<path class="st0" d="M97,296.32c-0.52,0.65-1.25,0.96-2.21,0.96c-1.83,0-3-1.39-3-3.75c0-2.34,1.26-3.77,3.1-3.77
		c1.04,0,1.75,0.38,2.17,1.05v-0.92h1.74v6.96c0,1.54-0.36,2.52-1.16,3.08c-0.58,0.42-1.44,0.6-2.4,0.6c-1.81,0-2.97-0.79-3.3-2.34
		l1.85-0.33c0.13,0.83,0.69,1.25,1.5,1.25c0.72,0,1.17-0.21,1.42-0.63c0.21-0.31,0.27-0.83,0.27-1.46V296.32z M95.41,291.22
		c-1.11,0-1.8,0.84-1.8,2.29c0,1.53,0.68,2.4,1.74,2.4c1.02,0,1.68-0.72,1.69-2.23C97.05,292.15,96.49,291.22,95.41,291.22z"/>
	<path class="st0" d="M105.48,297.36v-1.05c-0.48,0.7-1.19,1.2-2.23,1.2c-1.72,0-3-1.32-3-3.91c0-2.45,1.38-3.85,3.1-3.85
		c1.11,0,1.73,0.4,2.13,0.98v-3.94h1.71v10.59H105.48z M103.78,291.19c-1.04,0-1.74,0.79-1.74,2.38c0,1.5,0.63,2.46,1.66,2.46
		c1.04,0,1.77-0.81,1.77-2.4C105.48,292.14,104.83,291.19,103.78,291.19z"/>
	<path class="st0" d="M112.27,297.57c-2.34,0-3.66-1.47-3.66-3.96c0-2.47,1.46-3.93,3.77-3.93c2.22,0,3.55,1.48,3.55,4.02
		C115.93,296.19,114.46,297.57,112.27,297.57z M112.33,291.15c-1.11,0-1.92,0.85-1.92,2.42c0,1.69,0.78,2.54,1.88,2.54
		c1.09,0,1.87-0.77,1.87-2.45C114.16,291.99,113.44,291.15,112.33,291.15z"/>
	<path class="st0" d="M122.01,292.47c-0.21-0.99-0.75-1.32-1.46-1.32c-1.02,0-1.8,0.77-1.8,2.43c0,1.65,0.69,2.52,1.84,2.52
		c0.79,0,1.27-0.42,1.46-1.22l1.57,0.54c-0.44,1.25-1.42,2.15-3.12,2.15c-2.17,0-3.56-1.5-3.56-3.96c0-2.44,1.41-3.93,3.65-3.93
		c1.62,0,2.64,0.92,2.98,2.25L122.01,292.47z"/>
	<path class="st0" d="M125.4,294.99c0.39,0.77,1.08,1.22,1.9,1.22c0.77,0,1.19-0.33,1.19-0.78c0-0.49-0.25-0.7-1.38-1.06l-0.79-0.25
		c-1.15-0.36-1.89-1.04-1.89-2.17c0-1.17,1.05-2.25,2.9-2.25c1.19,0,2.28,0.45,2.94,1.5l-1.3,0.88c-0.38-0.66-0.95-1.05-1.67-1.05
		c-0.75,0-1.11,0.3-1.11,0.73c0,0.45,0.24,0.66,1.2,0.96l0.79,0.24c1.32,0.42,2.07,1.03,2.07,2.23c0,1.38-1.15,2.38-3.01,2.38
		c-1.53,0-2.56-0.73-3.19-1.68L125.4,294.99z"/>
	<path class="st0" d="M61.12,315.36v-10.59h7.36v1.63h-5.44v2.7h5.02v1.64h-5.02v2.97h5.74v1.65H61.12z"/>
	<path class="st0" d="M74.7,315.36v-1.05c-0.48,0.7-1.18,1.2-2.23,1.2c-1.72,0-3-1.32-3-3.91c0-2.45,1.38-3.85,3.1-3.85
		c1.11,0,1.73,0.4,2.13,0.98v-3.94h1.71v10.59H74.7z M73,309.19c-1.04,0-1.74,0.79-1.74,2.38c0,1.5,0.63,2.46,1.66,2.46
		c1.04,0,1.77-0.81,1.77-2.4C74.7,310.14,74.05,309.19,73,309.19z"/>
	<path class="st0" d="M78.22,306.42v-1.65h1.79v1.65H78.22z M80.01,315.36h-1.77v-7.47h1.77V315.36z"/>
	<path class="st0" d="M85.48,315.33c-0.39,0.1-0.87,0.16-1.31,0.16c-0.73,0-1.23-0.18-1.53-0.54c-0.31-0.36-0.42-0.89-0.42-1.58
		v-4.08h-1.17v-1.41h1.2v-2.43H84v2.43h1.46v1.41H84v3.73c0,0.76,0.23,1.03,0.77,1.03c0.21,0,0.48-0.04,0.72-0.13V315.33z"/>
	<path class="st0" d="M89.8,315.57c-2.34,0-3.66-1.47-3.66-3.96c0-2.47,1.46-3.93,3.77-3.93c2.22,0,3.55,1.48,3.55,4.02
		C93.46,314.19,91.99,315.57,89.8,315.57z M89.86,309.15c-1.11,0-1.92,0.85-1.92,2.42c0,1.69,0.78,2.54,1.88,2.54
		c1.09,0,1.87-0.77,1.87-2.45C91.69,309.99,90.97,309.15,89.86,309.15z"/>
	<path class="st0" d="M94.89,315.36v-7.47h1.68v1.15c0.45-0.81,1.04-1.24,2.07-1.24c0.24,0,0.42,0.03,0.64,0.09v1.77
		c-0.28-0.15-0.51-0.21-0.84-0.21c-0.58,0-1.08,0.25-1.41,0.73c-0.26,0.38-0.39,0.9-0.39,1.69v3.48H94.89z"/>
</g>
<g>
	<path class="st0" d="M224.12,104.77h3.27c1.86,0,2.67,0.13,3.48,0.54c1.46,0.72,2.15,2.46,2.15,4.67c0,1.71-0.46,3.21-1.37,4.11
		c-0.96,0.96-2.24,1.27-4.39,1.27h-3.13V104.77z M227.38,113.74c1.43,0,2.33-0.3,2.88-0.91c0.55-0.63,0.75-1.58,0.75-2.87
		c0-1.14-0.23-2.1-0.79-2.73c-0.5-0.54-1.14-0.84-2.58-0.84h-1.61v7.35H227.38z"/>
	<path class="st0" d="M241.09,113.48c-0.55,1.35-1.69,2.1-3.25,2.1c-2.4,0-3.69-1.56-3.69-4.04c0-2.38,1.44-3.87,3.62-3.87
		c2.37,0,3.36,1.73,3.37,4.4h-5.22c0.06,1.29,0.77,2.02,1.95,2.02c0.76,0,1.41-0.3,1.68-1.16L241.09,113.48z M239.35,110.81
		c-0.06-1.17-0.68-1.77-1.64-1.77s-1.67,0.6-1.78,1.77H239.35z"/>
	<path class="st0" d="M243.17,112.99c0.39,0.77,1.08,1.22,1.91,1.22c0.76,0,1.18-0.33,1.18-0.78c0-0.49-0.25-0.7-1.38-1.06
		l-0.79-0.25c-1.16-0.36-1.89-1.04-1.89-2.17c0-1.17,1.05-2.25,2.89-2.25c1.19,0,2.28,0.45,2.94,1.5l-1.3,0.88
		c-0.38-0.66-0.95-1.05-1.67-1.05c-0.75,0-1.11,0.3-1.11,0.73c0,0.45,0.24,0.66,1.2,0.96l0.79,0.24c1.32,0.42,2.07,1.03,2.07,2.23
		c0,1.38-1.16,2.38-3.02,2.38c-1.53,0-2.56-0.73-3.19-1.68L243.17,112.99z"/>
	<path class="st0" d="M254.26,115.36l-2.08-3.4l-1.09,1.15v2.25h-1.75v-10.59h1.75v6.3l2.83-3.18h2.13l-2.62,2.83l2.88,4.63H254.26z
		"/>
	<path class="st0" d="M256.28,111.53v-1.41h4.33v1.41H256.28z"/>
	<path class="st0" d="M264.35,104.77c2.31,3.87,3.68,6.03,4.7,7.83c-0.06-1.62-0.08-3.77-0.08-7.83h1.89v10.59h-2.08
		c-2.21-3.63-3.6-5.91-4.71-7.77c0.05,0.92,0.06,2.95,0.06,7.77h-1.89v-10.59H264.35z"/>
	<path class="st0" d="M279.29,113.48c-0.55,1.35-1.69,2.1-3.25,2.1c-2.4,0-3.69-1.56-3.69-4.04c0-2.38,1.44-3.87,3.62-3.87
		c2.37,0,3.36,1.73,3.37,4.4h-5.22c0.06,1.29,0.76,2.02,1.95,2.02c0.77,0,1.41-0.3,1.68-1.16L279.29,113.48z M277.55,110.81
		c-0.06-1.17-0.67-1.77-1.63-1.77s-1.67,0.6-1.79,1.77H277.55z"/>
	<path class="st0" d="M284.35,115.33c-0.39,0.1-0.87,0.16-1.31,0.16c-0.73,0-1.23-0.18-1.53-0.54c-0.31-0.36-0.42-0.89-0.42-1.58
		v-4.08h-1.17v-1.41h1.2v-2.43h1.74v2.43h1.46v1.41h-1.46v3.73c0,0.76,0.22,1.03,0.77,1.03c0.21,0,0.48-0.04,0.72-0.13V115.33z"/>
</g>
<g>
	<path class="st0" d="M331.9,108.08c-0.29-1.15-1.02-1.86-2.18-1.86c-1.93,0-2.97,1.41-2.97,3.69c0,2.42,1.09,3.98,2.97,3.98
		c1.17,0,2.07-0.66,2.36-1.95l1.83,0.66c-0.66,1.95-2.22,3-4.26,3c-3.04,0-4.89-2.13-4.89-5.61c0-3.48,2-5.46,5-5.46
		c2.1,0,3.48,1.11,4.02,2.86L331.9,108.08z"/>
	<path class="st0" d="M339.82,115.36v-4.29c0-0.64-0.06-1.06-0.31-1.36c-0.2-0.25-0.5-0.38-0.96-0.38c-0.48,0-0.97,0.25-1.27,0.66
		c-0.38,0.49-0.43,1.05-0.43,1.77v3.6h-1.76v-10.59h1.74V109c0.54-0.76,1.42-1.24,2.47-1.24c0.87,0,1.46,0.28,1.83,0.81
		c0.33,0.47,0.45,1.04,0.45,2.16v4.63H339.82z"/>
	<path class="st0" d="M347.56,110.29c0-0.42-0.09-0.71-0.29-0.9c-0.21-0.21-0.57-0.31-1.04-0.31c-0.92,0-1.32,0.46-1.41,1.29
		l-1.68-0.15c0.12-1.62,1.32-2.52,3.22-2.52c1.02,0,1.74,0.24,2.24,0.72c0.46,0.44,0.63,1.05,0.63,2.22v2.74
		c0,0.89,0.06,1.62,0.21,1.98h-1.69c-0.06-0.24-0.15-0.71-0.15-0.93c-0.57,0.69-1.38,1.06-2.45,1.06c-1.37,0-2.32-0.85-2.32-2.19
		c0-0.96,0.48-1.59,1.36-2c0.74-0.33,2.17-0.54,3.36-0.62V110.29z M347.56,111.86c-0.86,0.04-1.86,0.19-2.38,0.45
		c-0.46,0.21-0.65,0.5-0.65,0.92c0,0.54,0.36,0.94,1.14,0.94c0.68,0,1.23-0.28,1.56-0.78c0.24-0.35,0.31-0.77,0.33-1.19V111.86z"/>
	<path class="st0" d="M351.01,115.36v-7.47h1.68v1.15c0.45-0.81,1.04-1.24,2.07-1.24c0.24,0,0.42,0.03,0.64,0.09v1.77
		c-0.28-0.15-0.51-0.21-0.84-0.21c-0.58,0-1.08,0.25-1.41,0.73c-0.25,0.38-0.39,0.9-0.39,1.69v3.48H351.01z"/>
	<path class="st0" d="M360.21,115.33c-0.39,0.1-0.87,0.16-1.3,0.16c-0.74,0-1.23-0.18-1.53-0.54c-0.32-0.36-0.42-0.89-0.42-1.58
		v-4.08h-1.17v-1.41h1.2v-2.43h1.74v2.43h1.46v1.41h-1.46v3.73c0,0.76,0.23,1.03,0.76,1.03c0.21,0,0.48-0.04,0.72-0.13V115.33z"/>
	<path class="st0" d="M363.03,104.77v4.12c0.49-0.65,1.27-1.15,2.34-1.15c1.75,0,2.88,1.46,2.88,3.88c0,2.44-1.23,3.88-3.07,3.88
		c-1.02,0-1.71-0.39-2.22-1.12v0.98h-1.68v-10.59H363.03z M364.74,114.04c1.04,0,1.68-0.83,1.68-2.42c0-1.5-0.61-2.42-1.62-2.42
		c-1.06,0-1.81,0.9-1.81,2.33C362.98,113.12,363.63,114.04,364.74,114.04z"/>
	<path class="st0" d="M376.21,113.48c-0.55,1.35-1.69,2.1-3.25,2.1c-2.4,0-3.69-1.56-3.69-4.04c0-2.38,1.44-3.87,3.62-3.87
		c2.37,0,3.36,1.73,3.37,4.4h-5.22c0.06,1.29,0.76,2.02,1.95,2.02c0.77,0,1.41-0.3,1.68-1.16L376.21,113.48z M374.47,110.81
		c-0.06-1.17-0.67-1.77-1.63-1.77s-1.67,0.6-1.79,1.77H374.47z"/>
	<path class="st0" d="M381.87,110.29c0-0.42-0.09-0.71-0.28-0.9c-0.21-0.21-0.57-0.31-1.04-0.31c-0.92,0-1.32,0.46-1.41,1.29
		l-1.68-0.15c0.12-1.62,1.32-2.52,3.22-2.52c1.02,0,1.74,0.24,2.23,0.72c0.46,0.44,0.63,1.05,0.63,2.22v2.74
		c0,0.89,0.06,1.62,0.21,1.98h-1.69c-0.06-0.24-0.15-0.71-0.15-0.93c-0.57,0.69-1.38,1.06-2.44,1.06c-1.37,0-2.33-0.85-2.33-2.19
		c0-0.96,0.48-1.59,1.36-2c0.74-0.33,2.18-0.54,3.36-0.62V110.29z M381.87,111.86c-0.85,0.04-1.86,0.19-2.38,0.45
		c-0.46,0.21-0.65,0.5-0.65,0.92c0,0.54,0.36,0.94,1.14,0.94c0.67,0,1.23-0.28,1.56-0.78c0.24-0.35,0.32-0.77,0.33-1.19V111.86z"/>
	<path class="st0" d="M388.96,115.33c-0.39,0.1-0.87,0.16-1.3,0.16c-0.73,0-1.23-0.18-1.53-0.54c-0.32-0.36-0.42-0.89-0.42-1.58
		v-4.08h-1.17v-1.41h1.2v-2.43h1.74v2.43h1.46v1.41h-1.46v3.73c0,0.76,0.22,1.03,0.76,1.03c0.21,0,0.48-0.04,0.72-0.13V115.33z"/>
</g>
<g>
	<path class="st0" d="M225.12,297.36v-10.59h1.9v8.94h4.99v1.65H225.12z"/>
	<path class="st0" d="M233.3,288.42v-1.65h1.79v1.65H233.3z M235.08,297.36h-1.77v-7.47h1.77V297.36z"/>
	<path class="st0" d="M238.73,297.36l-2.73-7.47h1.95c0.87,2.55,1.38,4.09,1.84,5.68c0.43-1.53,0.93-3.15,1.8-5.68h1.86l-2.68,7.47
		H238.73z"/>
	<path class="st0" d="M244.35,288.42v-1.65h1.79v1.65H244.35z M246.14,297.36h-1.77v-7.47h1.77V297.36z"/>
	<path class="st0" d="M252.71,297.36v-4.29c0-0.58-0.06-1.02-0.27-1.32c-0.19-0.28-0.52-0.42-1-0.42s-0.97,0.25-1.28,0.66
		c-0.38,0.49-0.43,1.05-0.43,1.77v3.6h-1.75v-7.47h1.74V291c0.54-0.76,1.42-1.24,2.47-1.24c0.9,0,1.48,0.31,1.86,0.88
		c0.3,0.45,0.42,1.04,0.42,2.04v4.68H252.71z"/>
	<path class="st0" d="M261,296.32c-0.53,0.65-1.25,0.96-2.21,0.96c-1.83,0-3-1.39-3-3.75c0-2.34,1.26-3.77,3.1-3.77
		c1.04,0,1.75,0.38,2.17,1.05v-0.92h1.74v6.96c0,1.54-0.36,2.52-1.16,3.08c-0.58,0.42-1.44,0.6-2.4,0.6c-1.82,0-2.97-0.79-3.3-2.34
		l1.85-0.33c0.13,0.83,0.69,1.25,1.5,1.25c0.72,0,1.17-0.21,1.42-0.63c0.21-0.31,0.27-0.83,0.27-1.46V296.32z M259.41,291.22
		c-1.11,0-1.8,0.84-1.8,2.29c0,1.53,0.68,2.4,1.74,2.4c1.02,0,1.68-0.72,1.7-2.23C261.05,292.15,260.49,291.22,259.41,291.22z"/>
	<path class="st0" d="M269.48,297.36v-1.05c-0.48,0.7-1.19,1.2-2.24,1.2c-1.72,0-3-1.32-3-3.91c0-2.45,1.38-3.85,3.1-3.85
		c1.11,0,1.73,0.4,2.13,0.98v-3.94h1.71v10.59H269.48z M267.78,291.19c-1.04,0-1.74,0.79-1.74,2.38c0,1.5,0.63,2.46,1.67,2.46
		c1.04,0,1.77-0.81,1.77-2.4C269.48,292.14,268.83,291.19,267.78,291.19z"/>
	<path class="st0" d="M276.27,297.57c-2.34,0-3.66-1.47-3.66-3.96c0-2.47,1.46-3.93,3.77-3.93c2.22,0,3.55,1.48,3.55,4.02
		C279.93,296.19,278.46,297.57,276.27,297.57z M276.33,291.15c-1.11,0-1.92,0.85-1.92,2.42c0,1.69,0.78,2.54,1.88,2.54
		c1.09,0,1.87-0.77,1.87-2.45C278.16,291.99,277.44,291.15,276.33,291.15z"/>
	<path class="st0" d="M286.01,292.47c-0.21-0.99-0.75-1.32-1.46-1.32c-1.02,0-1.8,0.77-1.8,2.43c0,1.65,0.69,2.52,1.84,2.52
		c0.79,0,1.28-0.42,1.46-1.22l1.58,0.54c-0.43,1.25-1.42,2.15-3.12,2.15c-2.17,0-3.55-1.5-3.55-3.96c0-2.44,1.41-3.93,3.64-3.93
		c1.62,0,2.64,0.92,2.99,2.25L286.01,292.47z"/>
	<path class="st0" d="M289.4,294.99c0.39,0.77,1.08,1.22,1.9,1.22c0.77,0,1.19-0.33,1.19-0.78c0-0.49-0.25-0.7-1.38-1.06l-0.79-0.25
		c-1.16-0.36-1.89-1.04-1.89-2.17c0-1.17,1.05-2.25,2.89-2.25c1.19,0,2.28,0.45,2.94,1.5l-1.3,0.88c-0.38-0.66-0.95-1.05-1.66-1.05
		c-0.75,0-1.11,0.3-1.11,0.73c0,0.45,0.24,0.66,1.2,0.96l0.79,0.24c1.32,0.42,2.07,1.03,2.07,2.23c0,1.38-1.16,2.38-3.01,2.38
		c-1.53,0-2.56-0.73-3.2-1.68L289.4,294.99z"/>
	<path class="st0" d="M225.95,312.06c0.63,1.26,1.62,1.88,2.79,1.88c1.29,0,2-0.51,2-1.33c0-0.75-0.46-1.05-2.04-1.6l-1.14-0.41
		c-1.8-0.64-2.62-1.47-2.62-3c0-1.81,1.63-3.06,3.79-3.06c1.81,0,3.21,0.77,4.05,2.16l-1.53,1.09c-0.71-1.2-1.62-1.63-2.7-1.63
		c-1.05,0-1.65,0.52-1.65,1.24c0,0.69,0.39,1.04,1.77,1.49l1.21,0.4c1.96,0.63,2.87,1.52,2.87,3.1c0,1.9-1.58,3.22-4.04,3.22
		c-1.92,0-3.46-0.9-4.33-2.43L225.95,312.06z"/>
	<path class="st0" d="M240.74,313.48c-0.55,1.35-1.69,2.1-3.25,2.1c-2.4,0-3.69-1.56-3.69-4.04c0-2.38,1.44-3.87,3.62-3.87
		c2.37,0,3.36,1.73,3.37,4.4h-5.22c0.06,1.29,0.76,2.02,1.95,2.02c0.77,0,1.41-0.3,1.68-1.16L240.74,313.48z M239,310.81
		c-0.06-1.17-0.67-1.77-1.63-1.77s-1.67,0.6-1.79,1.77H239z"/>
	<path class="st0" d="M242.15,315.36v-7.47h1.68v1.15c0.45-0.81,1.04-1.24,2.07-1.24c0.24,0,0.42,0.03,0.64,0.09v1.77
		c-0.28-0.15-0.51-0.21-0.84-0.21c-0.58,0-1.08,0.25-1.41,0.73c-0.26,0.38-0.39,0.9-0.39,1.69v3.48H242.15z"/>
	<path class="st0" d="M249.51,315.36l-2.73-7.47h1.95c0.87,2.55,1.38,4.09,1.84,5.68c0.43-1.53,0.93-3.15,1.8-5.68h1.86l-2.68,7.47
		H249.51z"/>
	<path class="st0" d="M261.53,313.48c-0.55,1.35-1.7,2.1-3.26,2.1c-2.4,0-3.69-1.56-3.69-4.04c0-2.38,1.44-3.87,3.62-3.87
		c2.37,0,3.36,1.73,3.38,4.4h-5.22c0.06,1.29,0.77,2.02,1.95,2.02c0.76,0,1.41-0.3,1.68-1.16L261.53,313.48z M259.79,310.81
		c-0.06-1.17-0.67-1.77-1.63-1.77s-1.67,0.6-1.79,1.77H259.79z"/>
	<path class="st0" d="M262.94,315.36v-7.47h1.68v1.15c0.45-0.81,1.04-1.24,2.07-1.24c0.24,0,0.42,0.03,0.64,0.09v1.77
		c-0.29-0.15-0.51-0.21-0.84-0.21c-0.59,0-1.08,0.25-1.41,0.73c-0.26,0.38-0.39,0.9-0.39,1.69v3.48H262.94z"/>
</g>
<g>
	<path class="st0" d="M70.09,644.36c-1.24-4.62-1.62-6.08-2.04-8.02c-0.45,1.93-0.83,3.36-2.16,8.02h-1.98l-2.76-10.59h2.04
		c0.72,3.04,1.3,5.44,1.92,8.17c0.48-2.16,0.94-4.02,1.99-8.17h1.88c0.81,3.15,1.56,6.04,2.07,8.17c0.21-1.18,0.74-3.6,1.85-8.17
		h1.98l-2.81,10.59H70.09z"/>
	<path class="st0" d="M78.38,644.57c-2.34,0-3.66-1.47-3.66-3.96c0-2.47,1.46-3.93,3.77-3.93c2.22,0,3.55,1.49,3.55,4.02
		C82.04,643.19,80.57,644.57,78.38,644.57z M78.44,638.15c-1.11,0-1.92,0.86-1.92,2.42c0,1.69,0.78,2.54,1.88,2.54
		c1.09,0,1.87-0.76,1.87-2.45C80.27,638.99,79.55,638.15,78.44,638.15z"/>
	<path class="st0" d="M86.72,644.57c-2.34,0-3.66-1.47-3.66-3.96c0-2.47,1.46-3.93,3.77-3.93c2.22,0,3.55,1.49,3.55,4.02
		C90.38,643.19,88.91,644.57,86.72,644.57z M86.78,638.15c-1.11,0-1.92,0.86-1.92,2.42c0,1.69,0.78,2.54,1.88,2.54
		c1.09,0,1.87-0.76,1.87-2.45C88.61,638.99,87.89,638.15,86.78,638.15z"/>
	<path class="st0" d="M96.64,644.36v-1.05c-0.48,0.71-1.19,1.2-2.23,1.2c-1.72,0-3-1.32-3-3.91c0-2.45,1.38-3.86,3.1-3.86
		c1.11,0,1.73,0.41,2.13,0.98v-3.94h1.71v10.59H96.64z M94.94,638.19c-1.04,0-1.74,0.79-1.74,2.38c0,1.5,0.63,2.46,1.66,2.46
		c1.04,0,1.77-0.81,1.77-2.4C96.64,639.14,95.99,638.19,94.94,638.19z"/>
	<path class="st0" d="M99.91,640.53v-1.41h4.33v1.41H99.91z"/>
	<path class="st0" d="M68.15,662.36c-0.5-2.04-0.96-3.75-1.33-5.55c-0.31,1.44-0.66,2.76-1.44,5.55H63.4l-2.25-7.47h1.92
		c0.51,1.98,1.11,4.2,1.46,5.62c0.3-1.41,0.63-2.89,1.38-5.62h1.84c0.63,2.4,1.02,3.97,1.38,5.62c0.36-1.61,0.93-3.71,1.46-5.62h1.8
		l-2.26,7.47H68.15z"/>
	<path class="st0" d="M73.28,653.42v-1.65h1.79v1.65H73.28z M75.07,662.36H73.3v-7.47h1.77V662.36z"/>
	<path class="st0" d="M81.64,662.36v-4.29c0-0.58-0.06-1.02-0.27-1.32c-0.19-0.28-0.52-0.42-1-0.42s-0.98,0.26-1.27,0.66
		c-0.38,0.5-0.44,1.05-0.44,1.77v3.6H76.9v-7.47h1.74V656c0.54-0.76,1.43-1.24,2.48-1.24c0.9,0,1.48,0.31,1.86,0.88
		c0.3,0.45,0.42,1.04,0.42,2.04v4.68H81.64z"/>
	<path class="st0" d="M89.93,661.32c-0.52,0.65-1.25,0.96-2.21,0.96c-1.83,0-3-1.39-3-3.75c0-2.34,1.26-3.76,3.1-3.76
		c1.04,0,1.75,0.38,2.17,1.05v-0.91h1.74v6.96c0,1.54-0.36,2.52-1.16,3.08c-0.58,0.42-1.44,0.6-2.4,0.6c-1.81,0-2.97-0.79-3.3-2.34
		l1.85-0.33c0.13,0.83,0.69,1.25,1.5,1.25c0.72,0,1.17-0.21,1.42-0.63c0.21-0.32,0.27-0.83,0.27-1.46V661.32z M88.34,656.22
		c-1.11,0-1.8,0.84-1.8,2.29c0,1.53,0.68,2.4,1.74,2.4c1.02,0,1.68-0.72,1.69-2.23C89.98,657.15,89.42,656.22,88.34,656.22z"/>
</g>
<g>
	<path class="st0" d="M65.8,555.36v-4.29c0-0.64-0.06-1.06-0.31-1.37c-0.19-0.25-0.5-0.38-0.96-0.38c-0.48,0-0.98,0.26-1.27,0.66
		c-0.38,0.5-0.44,1.05-0.44,1.77v3.6h-1.75v-10.59h1.74V549c0.54-0.76,1.43-1.24,2.48-1.24c0.87,0,1.46,0.29,1.83,0.81
		c0.33,0.47,0.45,1.04,0.45,2.16v4.63H65.8z"/>
	<path class="st0" d="M70.99,547.89v4.26c0,0.45,0.06,0.88,0.19,1.17c0.2,0.41,0.56,0.63,1.12,0.63c0.5,0,0.93-0.25,1.2-0.58
		c0.31-0.4,0.46-0.9,0.46-1.6v-3.87h1.75v7.47h-1.72v-1.07c-0.51,0.72-1.28,1.2-2.33,1.2c-0.96,0-1.54-0.3-1.96-0.9
		c-0.33-0.46-0.46-1.12-0.46-2v-4.71H70.99z"/>
	<path class="st0" d="M84.93,555.36v-1.16c-0.73,0.95-1.75,1.37-3.1,1.37c-2.67,0-4.59-2.12-4.59-5.37c0-3.23,1.89-5.67,5.23-5.67
		c2.13,0,3.52,0.96,4.2,2.79l-1.89,0.72c-0.33-1.12-1.09-1.82-2.35-1.82c-1.99,0-3.19,1.49-3.19,3.85c0,2.49,1.27,3.83,3.09,3.83
		c1.69,0,2.5-1.03,2.56-2.76h-2.96v-1.62h4.73v5.83H84.93z"/>
	<path class="st0" d="M88.27,549.99c0-3.34,1.97-5.46,5.04-5.46c2.9,0,4.78,2.22,4.78,5.58c0,3.46-1.9,5.49-4.78,5.49
		C90.15,555.6,88.27,553.42,88.27,549.99z M93.22,546.22c-1.81,0-2.97,1.38-2.97,3.74c0,2.46,1.19,3.94,3.02,3.94
		c1.67,0,2.83-1.29,2.83-3.83C96.1,547.63,94.95,546.22,93.22,546.22z"/>
	<path class="st0" d="M103.48,554.92v-3.33h-3.3v-1.68h3.3v-3.36h1.75v3.36h3.3v1.68h-3.3v3.33H103.48z"/>
</g>
<g>
	<path class="st0" d="M325.12,297.36v-10.59h1.9v8.94h4.99v1.65H325.12z"/>
	<path class="st0" d="M333.3,288.42v-1.65h1.79v1.65H333.3z M335.08,297.36h-1.77v-7.47h1.77V297.36z"/>
	<path class="st0" d="M338.73,297.36l-2.73-7.47h1.95c0.87,2.55,1.38,4.09,1.84,5.68c0.43-1.53,0.93-3.15,1.8-5.68h1.86l-2.68,7.47
		H338.73z"/>
	<path class="st0" d="M344.35,288.42v-1.65h1.79v1.65H344.35z M346.14,297.36h-1.77v-7.47h1.77V297.36z"/>
	<path class="st0" d="M352.71,297.36v-4.29c0-0.58-0.06-1.02-0.27-1.32c-0.19-0.28-0.52-0.42-1-0.42s-0.97,0.25-1.28,0.66
		c-0.38,0.49-0.43,1.05-0.43,1.77v3.6h-1.75v-7.47h1.74V291c0.54-0.76,1.42-1.24,2.47-1.24c0.9,0,1.48,0.31,1.86,0.88
		c0.3,0.45,0.42,1.04,0.42,2.04v4.68H352.71z"/>
	<path class="st0" d="M361,296.32c-0.53,0.65-1.25,0.96-2.21,0.96c-1.83,0-3-1.39-3-3.75c0-2.34,1.26-3.77,3.1-3.77
		c1.04,0,1.75,0.38,2.17,1.05v-0.92h1.74v6.96c0,1.54-0.36,2.52-1.16,3.08c-0.58,0.42-1.44,0.6-2.4,0.6c-1.82,0-2.97-0.79-3.3-2.34
		l1.85-0.33c0.13,0.83,0.69,1.25,1.5,1.25c0.72,0,1.17-0.21,1.42-0.63c0.21-0.31,0.27-0.83,0.27-1.46V296.32z M359.41,291.22
		c-1.11,0-1.8,0.84-1.8,2.29c0,1.53,0.68,2.4,1.74,2.4c1.02,0,1.68-0.72,1.7-2.23C361.05,292.15,360.49,291.22,359.41,291.22z"/>
	<path class="st0" d="M369.48,297.36v-1.05c-0.48,0.7-1.19,1.2-2.24,1.2c-1.72,0-3-1.32-3-3.91c0-2.45,1.38-3.85,3.1-3.85
		c1.11,0,1.73,0.4,2.13,0.98v-3.94h1.71v10.59H369.48z M367.78,291.19c-1.04,0-1.74,0.79-1.74,2.38c0,1.5,0.63,2.46,1.67,2.46
		c1.04,0,1.77-0.81,1.77-2.4C369.48,292.14,368.83,291.19,367.78,291.19z"/>
	<path class="st0" d="M376.27,297.57c-2.34,0-3.66-1.47-3.66-3.96c0-2.47,1.46-3.93,3.77-3.93c2.22,0,3.55,1.48,3.55,4.02
		C379.93,296.19,378.46,297.57,376.27,297.57z M376.33,291.15c-1.11,0-1.92,0.85-1.92,2.42c0,1.69,0.78,2.54,1.88,2.54
		c1.09,0,1.87-0.77,1.87-2.45C378.16,291.99,377.44,291.15,376.33,291.15z"/>
	<path class="st0" d="M386.01,292.47c-0.21-0.99-0.75-1.32-1.46-1.32c-1.02,0-1.8,0.77-1.8,2.43c0,1.65,0.69,2.52,1.84,2.52
		c0.79,0,1.28-0.42,1.46-1.22l1.58,0.54c-0.43,1.25-1.42,2.15-3.12,2.15c-2.17,0-3.55-1.5-3.55-3.96c0-2.44,1.41-3.93,3.64-3.93
		c1.62,0,2.64,0.92,2.99,2.25L386.01,292.47z"/>
	<path class="st0" d="M389.4,294.99c0.39,0.77,1.08,1.22,1.9,1.22c0.77,0,1.19-0.33,1.19-0.78c0-0.49-0.25-0.7-1.38-1.06l-0.79-0.25
		c-1.16-0.36-1.89-1.04-1.89-2.17c0-1.17,1.05-2.25,2.89-2.25c1.19,0,2.28,0.45,2.94,1.5l-1.3,0.88c-0.38-0.66-0.95-1.05-1.66-1.05
		c-0.75,0-1.11,0.3-1.11,0.73c0,0.45,0.24,0.66,1.2,0.96l0.79,0.24c1.32,0.42,2.07,1.03,2.07,2.23c0,1.38-1.16,2.38-3.01,2.38
		c-1.53,0-2.56-0.73-3.2-1.68L389.4,294.99z"/>
	<path class="st0" d="M325.12,315.36v-10.59h4.36c1.46,0,2.34,0.22,2.92,0.64c0.79,0.56,1.15,1.53,1.15,2.6
		c0,1.19-0.42,2.25-1.35,2.77c-0.78,0.44-1.88,0.58-3.15,0.58h-2.06v3.99H325.12z M328.92,309.75c1.03,0,1.71-0.1,2.13-0.39
		c0.39-0.28,0.54-0.73,0.54-1.33c0-0.54-0.18-0.99-0.54-1.28c-0.4-0.3-0.91-0.36-2.01-0.36h-2.03v3.36H328.92z"/>
	<path class="st0" d="M336,307.89v4.26c0,0.45,0.06,0.89,0.19,1.17c0.2,0.41,0.56,0.63,1.12,0.63c0.5,0,0.93-0.25,1.2-0.58
		c0.31-0.4,0.46-0.9,0.46-1.6v-3.87h1.75v7.47h-1.72v-1.06c-0.51,0.72-1.28,1.2-2.32,1.2c-0.96,0-1.54-0.3-1.96-0.9
		c-0.33-0.46-0.46-1.12-0.46-1.99v-4.71H336z"/>
	<path class="st0" d="M344.29,304.77v4.12c0.49-0.65,1.27-1.15,2.34-1.15c1.75,0,2.88,1.46,2.88,3.88c0,2.44-1.23,3.88-3.07,3.88
		c-1.02,0-1.71-0.39-2.22-1.12v0.98h-1.68v-10.59H344.29z M346,314.04c1.04,0,1.68-0.83,1.68-2.42c0-1.5-0.61-2.42-1.62-2.42
		c-1.06,0-1.81,0.9-1.81,2.33C344.25,313.12,344.89,314.04,346,314.04z"/>
	<path class="st0" d="M352.71,315.36h-1.77v-10.59h1.77V315.36z"/>
	<path class="st0" d="M354.52,306.42v-1.65h1.79v1.65H354.52z M356.31,315.36h-1.77v-7.47h1.77V315.36z"/>
	<path class="st0" d="M358.81,312.99c0.39,0.77,1.08,1.22,1.9,1.22c0.77,0,1.19-0.33,1.19-0.78c0-0.49-0.26-0.7-1.38-1.06
		l-0.79-0.25c-1.15-0.36-1.89-1.04-1.89-2.17c0-1.17,1.05-2.25,2.9-2.25c1.18,0,2.28,0.45,2.94,1.5l-1.3,0.88
		c-0.38-0.66-0.95-1.05-1.67-1.05c-0.75,0-1.11,0.3-1.11,0.73c0,0.45,0.24,0.66,1.2,0.96l0.79,0.24c1.32,0.42,2.07,1.03,2.07,2.23
		c0,1.38-1.15,2.38-3.01,2.38c-1.53,0-2.57-0.73-3.2-1.68L358.81,312.99z"/>
	<path class="st0" d="M369.7,315.36v-4.29c0-0.64-0.06-1.06-0.31-1.36c-0.2-0.25-0.5-0.38-0.96-0.38c-0.48,0-0.98,0.25-1.27,0.66
		c-0.38,0.49-0.44,1.05-0.44,1.77v3.6h-1.75v-10.59h1.74V309c0.54-0.76,1.43-1.24,2.48-1.24c0.87,0,1.46,0.28,1.83,0.81
		c0.33,0.47,0.45,1.04,0.45,2.16v4.63H369.7z"/>
	<path class="st0" d="M379.74,313.48c-0.55,1.35-1.7,2.1-3.25,2.1c-2.4,0-3.69-1.56-3.69-4.04c0-2.38,1.44-3.87,3.62-3.87
		c2.37,0,3.36,1.73,3.38,4.4h-5.22c0.06,1.29,0.76,2.02,1.95,2.02c0.76,0,1.41-0.3,1.68-1.16L379.74,313.48z M378,310.81
		c-0.06-1.17-0.67-1.77-1.63-1.77s-1.66,0.6-1.79,1.77H378z"/>
	<path class="st0" d="M381.15,315.36v-7.47h1.68v1.15c0.45-0.81,1.04-1.24,2.07-1.24c0.24,0,0.42,0.03,0.64,0.09v1.77
		c-0.28-0.15-0.51-0.21-0.84-0.21c-0.58,0-1.08,0.25-1.41,0.73c-0.25,0.38-0.39,0.9-0.39,1.69v3.48H381.15z"/>
</g>
<g>
	<path class="st0" d="M286.12,655.36v-10.59h4.36c1.46,0,2.34,0.22,2.92,0.64c0.79,0.55,1.15,1.53,1.15,2.59
		c0,1.18-0.42,2.25-1.35,2.77c-0.78,0.44-1.88,0.59-3.15,0.59h-2.06v3.99H286.12z M289.92,649.75c1.03,0,1.71-0.1,2.13-0.39
		c0.39-0.28,0.54-0.74,0.54-1.33c0-0.54-0.18-0.99-0.54-1.28c-0.4-0.3-0.91-0.36-2.01-0.36h-2.03v3.36H289.92z"/>
	<path class="st0" d="M298.39,655.57c-2.34,0-3.66-1.47-3.66-3.96c0-2.47,1.46-3.93,3.76-3.93c2.22,0,3.55,1.49,3.55,4.02
		C302.05,654.19,300.58,655.57,298.39,655.57z M298.45,649.15c-1.11,0-1.92,0.86-1.92,2.42c0,1.69,0.78,2.54,1.88,2.54
		s1.87-0.76,1.87-2.45C300.28,649.99,299.56,649.15,298.45,649.15z"/>
	<path class="st0" d="M304.15,652.99c0.39,0.77,1.08,1.21,1.9,1.21c0.77,0,1.19-0.33,1.19-0.78c0-0.5-0.25-0.71-1.38-1.07
		l-0.79-0.25c-1.16-0.36-1.89-1.04-1.89-2.17c0-1.17,1.05-2.25,2.89-2.25c1.19,0,2.28,0.45,2.94,1.5l-1.3,0.88
		c-0.38-0.66-0.95-1.05-1.66-1.05c-0.75,0-1.11,0.3-1.11,0.73c0,0.45,0.24,0.66,1.2,0.96l0.79,0.24c1.32,0.42,2.07,1.03,2.07,2.23
		c0,1.38-1.16,2.38-3.01,2.38c-1.53,0-2.56-0.73-3.2-1.68L304.15,652.99z"/>
	<path class="st0" d="M313.95,655.33c-0.39,0.11-0.87,0.17-1.3,0.17c-0.74,0-1.23-0.18-1.53-0.54c-0.32-0.36-0.42-0.88-0.42-1.57
		v-4.08h-1.17v-1.41h1.2v-2.43h1.74v2.43h1.46v1.41h-1.46v3.73c0,0.77,0.23,1.04,0.76,1.04c0.21,0,0.48-0.04,0.72-0.13V655.33z"/>
	<path class="st0" d="M314.74,651.53v-1.41h4.33v1.41H314.74z"/>
	<path class="st0" d="M320.7,655.36v-10.59h4.37c1.46,0,2.34,0.22,2.92,0.64c0.79,0.55,1.16,1.53,1.16,2.59
		c0,1.18-0.42,2.25-1.35,2.77c-0.78,0.44-1.88,0.59-3.15,0.59h-2.06v3.99H320.7z M324.49,649.75c1.04,0,1.71-0.1,2.13-0.39
		c0.39-0.28,0.54-0.74,0.54-1.33c0-0.54-0.18-0.99-0.54-1.28c-0.41-0.3-0.92-0.36-2.01-0.36h-2.02v3.36H324.49z"/>
	<path class="st0" d="M329.88,655.36v-7.47h1.68v1.15c0.45-0.81,1.04-1.24,2.07-1.24c0.24,0,0.42,0.03,0.64,0.09v1.77
		c-0.29-0.15-0.51-0.21-0.84-0.21c-0.58,0-1.08,0.25-1.41,0.73c-0.25,0.38-0.39,0.9-0.39,1.7v3.48H329.88z"/>
	<path class="st0" d="M338.52,655.57c-2.34,0-3.66-1.47-3.66-3.96c0-2.47,1.46-3.93,3.76-3.93c2.22,0,3.55,1.49,3.55,4.02
		C342.18,654.19,340.71,655.57,338.52,655.57z M338.58,649.15c-1.11,0-1.92,0.86-1.92,2.42c0,1.69,0.78,2.54,1.88,2.54
		s1.87-0.76,1.87-2.45C340.41,649.99,339.69,649.15,338.58,649.15z"/>
	<path class="st0" d="M348.43,655.36v-1.05c-0.48,0.71-1.18,1.2-2.23,1.2c-1.72,0-3-1.32-3-3.91c0-2.45,1.38-3.86,3.1-3.86
		c1.11,0,1.73,0.41,2.13,0.98v-3.94h1.71v10.59H348.43z M346.74,649.19c-1.04,0-1.74,0.79-1.74,2.38c0,1.5,0.63,2.46,1.67,2.46
		s1.77-0.81,1.77-2.4C348.43,650.14,347.79,649.19,346.74,649.19z"/>
	<path class="st0" d="M353.67,647.89v4.26c0,0.45,0.06,0.88,0.19,1.17c0.2,0.41,0.56,0.63,1.12,0.63c0.5,0,0.93-0.25,1.2-0.58
		c0.31-0.4,0.46-0.9,0.46-1.6v-3.87h1.75v7.47h-1.72v-1.07c-0.51,0.72-1.28,1.2-2.32,1.2c-0.96,0-1.54-0.3-1.96-0.9
		c-0.33-0.46-0.46-1.12-0.46-2v-4.71H353.67z"/>
	<path class="st0" d="M359.65,655.36v-1.12l3.67-4.93h-3.49v-1.41h5.7v1.14l-3.63,4.89h3.75v1.44H359.65z"/>
	<path class="st0" d="M373.29,653.48c-0.55,1.35-1.7,2.1-3.26,2.1c-2.4,0-3.69-1.56-3.69-4.04c0-2.38,1.44-3.87,3.62-3.87
		c2.37,0,3.36,1.73,3.38,4.4h-5.22c0.06,1.29,0.77,2.02,1.95,2.02c0.76,0,1.41-0.3,1.68-1.16L373.29,653.48z M371.55,650.81
		c-0.06-1.17-0.67-1.77-1.63-1.77s-1.67,0.6-1.79,1.77H371.55z"/>
	<path class="st0" d="M379.44,655.36v-4.29c0-0.58-0.06-1.02-0.27-1.32c-0.19-0.28-0.52-0.42-1-0.42c-0.48,0-0.98,0.26-1.28,0.66
		c-0.38,0.5-0.44,1.05-0.44,1.77v3.6h-1.75v-7.47h1.74V649c0.54-0.76,1.42-1.24,2.48-1.24c0.9,0,1.48,0.31,1.86,0.88
		c0.3,0.45,0.42,1.04,0.42,2.04v4.68H379.44z"/>
	<path class="st0" d="M386.58,655.33c-0.39,0.11-0.87,0.17-1.31,0.17c-0.73,0-1.23-0.18-1.53-0.54c-0.31-0.36-0.42-0.88-0.42-1.57
		v-4.08h-1.17v-1.41h1.2v-2.43h1.74v2.43h1.46v1.41h-1.46v3.73c0,0.77,0.22,1.04,0.77,1.04c0.21,0,0.48-0.04,0.72-0.13V655.33z"/>
</g>
</svg>
