<?xml version="1.0" encoding="utf-8"?>
<!-- Generator: Adobe Illustrator 25.2.3, SVG Export Plug-In . SVG Version: 6.00 Build 0)  -->
<svg version="1.1" id="Ebene_1" xmlns="http://www.w3.org/2000/svg" xmlns:xlink="http://www.w3.org/1999/xlink" x="0px" y="0px"
	 viewBox="0 0 100 100" style="enable-background:new 0 0 100 100;" xml:space="preserve">
<style type="text/css">
	.st0{fill:#12B2B2;}
	.st1{fill:#FFFFFF;}
</style>
<circle class="st0" cx="50" cy="50" r="50"/>
<g id="nzz">
	<g>
		<path class="st1" d="M35.8,61c-0.2-0.3-0.4-0.5-0.7-0.8c-0.9-0.9-1.7-1.9-2.6-2.8c-1.7-1.8-3.3-3.6-5-5.4c-1-1.1-2-2.2-3.1-3.3
			c-1.3-1.4-2.6-2.8-3.9-4.2c-0.3-0.3-0.5-0.6-0.8-0.9c0,0.2,0,0.4,0,0.5c0,4.2,0,8.4,0,12.6c0,0.6,0.1,1.3,0.3,1.9
			c0.2,0.7,0.7,1.1,1.4,1.3c0.6,0.2,1.2,0.2,1.7,0.2c0.1,0,0.1,0,0.2,0c0.1,0.2,0,0.5,0,0.7c-1.4,0.1-2.7-0.1-4,0
			c-1.3,0-2.7,0.1-4,0.1c0-0.1,0-0.3,0-0.4c0-0.1,0-0.2,0-0.4c0.2,0,0.3,0,0.4,0c0.3,0,0.7,0,1-0.1c0.8-0.1,1.2-0.6,1.5-1.3
			c0.2-0.6,0.3-1.2,0.3-1.9c0-2.2,0-4.5,0-6.7c0-2.1,0-4.3,0-6.4c0-0.5-0.1-1.1-0.3-1.6c-0.3-0.8-0.8-1.2-1.5-1.5
			c-0.6-0.2-1.3-0.3-2-0.3c0-0.3,0-0.5,0-0.8c1.8,0.1,3.5,0.1,5.3,0c0.2,0.2,0.3,0.4,0.4,0.6c0.7,0.8,1.4,1.6,2.1,2.4
			c1.3,1.4,2.6,2.8,3.9,4.2c0.8,0.9,1.7,1.8,2.5,2.8c1,1.1,2,2.1,3,3.2c1,1.1,2,2.1,3,3.2c0.1,0.1,0.2,0.3,0.4,0.3
			c0-0.1,0-0.2,0-0.3c0-4.1,0-8.2,0-12.3c0-0.5-0.1-0.9-0.2-1.4c-0.2-0.8-0.7-1.3-1.4-1.5c-0.5-0.1-1-0.2-1.6-0.3
			c-0.2,0-0.3,0-0.5,0c0-0.3,0-0.5,0-0.8c0.9,0,1.7,0.1,2.6,0.1c0.9,0,1.7,0,2.6,0c0.9,0,1.7-0.1,2.6-0.1c0,0.3,0,0.5,0,0.8
			c-0.3,0-0.5,0-0.8,0c-0.4,0-0.8,0.1-1.1,0.3c-0.5,0.3-0.7,0.8-0.8,1.4c-0.1,0.4-0.1,0.8-0.1,1.2c0,5.9,0,11.9,0,17.8
			c0,0.1,0,0.1,0,0.2C36.3,61,36,61,35.8,61z"/>
		<path class="st1" d="M64.6,43.8c-0.2,0.1-0.4,0-0.7,0c0.4-1.6,0.8-3.2,0.9-4.8c0.2,0,0.5,0,0.7,0c0.2,0.3,0.6,0.4,1,0.4
			c5.3,0,10.5,0,15.8,0c0.2,0,0.3,0,0.6,0c-1.3,1.7-2.6,3.4-3.8,5c-1.3,1.7-2.6,3.3-3.9,5s-2.6,3.3-3.8,5c-1.3,1.7-2.5,3.3-3.8,5
			c0.1,0,0.2,0,0.3,0c3.2,0,6.4,0,9.6,0c1,0,2-0.1,2.9-0.5c0.6-0.3,1.2-0.7,1.6-1.2s0.7-1.2,1-1.8c0.1-0.2,0.2-0.3,0.2-0.6
			c0.2,0.1,0.4,0.1,0.7,0.2c-0.5,1.7-0.9,3.4-1.4,5.1H63.2c0.1-0.3,1.7-2.4,3-4c1-1.3,2-2.6,3.1-4c1-1.3,2.1-2.7,3.1-4s2-2.6,3.1-4
			c1-1.3,2.1-2.7,3.1-4c-0.2,0-0.3,0-0.4,0c-3.2,0-6.4,0-9.6,0c-0.5,0-0.9,0.1-1.4,0.2c-0.9,0.2-1.5,0.8-1.9,1.7
			C64.9,43,64.8,43.4,64.6,43.8z"/>
		<path class="st1" d="M60.9,55.4c0.2,0,0.4,0.1,0.6,0.1c-0.4,1.7-0.9,3.4-1.4,5.2c-0.2,0-0.3,0-0.4,0c-1.9,0-3.7,0-5.6,0
			c-0.4,0-0.8,0-1.1,0c-1.4,0-2.9,0-4.3,0c-2.5,0-5,0-7.4,0.1c-0.1,0-0.3,0-0.4,0c0.1-0.3,0.3-0.5,0.5-0.8c0.7-0.9,1.4-1.8,2.1-2.7
			c0.8-1.1,1.7-2.1,2.5-3.2c1.6-2.1,3.3-4.2,4.9-6.4c1.6-2.1,3.2-4.2,4.9-6.3c0.1-0.2,0.3-0.4,0.4-0.6c-0.1,0-0.2-0.1-0.2-0.1
			c-0.3,0-0.6,0-0.8,0c-2.9,0-5.8,0-8.7,0c-0.5,0-0.9,0.1-1.4,0.2c-1.1,0.2-1.8,0.9-2.2,1.9c-0.1,0.3-0.2,0.6-0.3,0.9
			c0,0.1-0.1,0.2-0.1,0.3c-0.2,0-0.4,0-0.7,0c0-0.2,0-0.3,0.1-0.4c0.2-1.1,0.5-2.2,0.7-3.4c0.1-0.3,0.1-0.7,0.1-1c0.2,0,0.5,0,0.7,0
			c0.2,0.4,0.6,0.4,1,0.4c5.2,0,10.3,0,15.5,0c0.3,0,0.6,0,1,0c-5.2,6.7-10.3,13.4-15.4,20c0.1,0,0.2,0,0.3,0c3.2,0,6.4,0,9.6,0
			c0.8,0,1.6-0.1,2.4-0.3c1.1-0.3,1.9-1,2.5-2C60.3,56.6,60.6,56.1,60.9,55.4z"/>
	</g>
</g>
</svg>
