<?xml version="1.0" encoding="utf-8"?>
<!-- Generator: Adobe Illustrator 25.2.3, SVG Export Plug-In . SVG Version: 6.00 Build 0)  -->
<svg version="1.1" id="labels_de" xmlns="http://www.w3.org/2000/svg" xmlns:xlink="http://www.w3.org/1999/xlink" x="0px" y="0px"
	 viewBox="0 0 551 850" style="enable-background:new 0 0 551 850;" xml:space="preserve">
<style type="text/css">
	.st0{fill:#141414;}
	.st1{fill:#636FF7;}
</style>
<g>
	<path class="st0" d="M189.1,201.3c1.8,0,3,1.4,3,3.5c0,2.3-1.4,3.8-3.8,3.8c-1.7,0-3.1-0.9-3.5-2.6l1.7-0.7
		c0.2,1.2,0.9,1.7,1.9,1.7c1.1,0,1.9-0.7,1.9-2.1c0-1.4-0.8-2.1-1.8-2.1c-0.8,0-1.4,0.4-1.6,1.1l-1.6-0.2l0.4-5.6h5.8v1.6h-4.4
		l-0.2,2.6C187.4,201.6,188.2,201.3,189.1,201.3z"/>
	<path class="st0" d="M197.1,208.6c-2.5,0-3.9-1.9-3.9-5.4c0-3.4,1.4-5.4,3.9-5.4c2.4,0,3.8,2,3.8,5.4S199.6,208.6,197.1,208.6z
		 M197.1,199.4c-1.3,0-2.1,1.3-2.1,3.8c0,2.6,0.8,3.8,2.1,3.8c1.3,0,2.1-1.1,2.1-3.6C199.2,200.7,198.4,199.4,197.1,199.4z"/>
	<path class="st0" d="M205.8,208.6c-2.5,0-3.9-1.9-3.9-5.4c0-3.4,1.4-5.4,3.9-5.4c2.4,0,3.8,2,3.8,5.4S208.2,208.6,205.8,208.6z
		 M205.8,199.4c-1.3,0-2.1,1.3-2.1,3.8c0,2.6,0.8,3.8,2.1,3.8c1.3,0,2.1-1.1,2.1-3.6C207.9,200.7,207.1,199.4,205.8,199.4z"/>
	<path class="st0" d="M214.9,207.9v-3.3h-3.3v-1.7h3.3v-3.4h1.8v3.4h3.3v1.7h-3.3v3.3H214.9z"/>
	<path class="st0" d="M230.1,203.8c0,1.9,0,3.1-0.8,3.9c-0.5,0.5-1.2,0.8-2.4,0.8c-0.7,0-1.5-0.1-2.1-0.4l0.4-1.7
		c0.4,0.3,0.9,0.5,1.4,0.5c0.7,0,1.1-0.2,1.3-0.8c0.2-0.4,0.2-1,0.2-1.9v-6.4h1.9L230.1,203.8L230.1,203.8z"/>
	<path class="st0" d="M235.2,208.6c-2.3,0-3.7-1.5-3.7-4c0-2.5,1.5-3.9,3.8-3.9c2.2,0,3.6,1.5,3.6,4
		C238.9,207.2,237.4,208.6,235.2,208.6z M235.3,202.2c-1.1,0-1.9,0.9-1.9,2.4c0,1.7,0.8,2.5,1.9,2.5s1.9-0.8,1.9-2.4
		C237.1,203,236.4,202.2,235.3,202.2z"/>
	<path class="st0" d="M242,200.9v4.3c0,0.4,0.1,0.9,0.2,1.2c0.2,0.4,0.6,0.6,1.1,0.6c0.5,0,0.9-0.2,1.2-0.6c0.3-0.4,0.5-0.9,0.5-1.6
		v-3.9h1.8v7.5H245v-1.1c-0.5,0.7-1.3,1.2-2.3,1.2c-1,0-1.5-0.3-2-0.9c-0.3-0.5-0.5-1.1-0.5-2v-4.7L242,200.9L242,200.9z"/>
	<path class="st0" d="M248.5,208.4v-7.5h1.7v1.1c0.4-0.8,1-1.2,2.1-1.2c0.2,0,0.4,0,0.6,0.1v1.8c-0.3-0.1-0.5-0.2-0.8-0.2
		c-0.6,0-1.1,0.2-1.4,0.7c-0.3,0.4-0.4,0.9-0.4,1.7v3.5L248.5,208.4L248.5,208.4z"/>
	<path class="st0" d="M258.7,208.4v-4.3c0-0.6-0.1-1-0.3-1.3c-0.2-0.3-0.5-0.4-1-0.4s-1,0.2-1.3,0.7c-0.4,0.5-0.4,1.1-0.4,1.8v3.6
		h-1.8v-7.5h1.7v1.1c0.5-0.8,1.4-1.2,2.5-1.2c0.9,0,1.5,0.3,1.9,0.9c0.3,0.4,0.4,1,0.4,2v4.7L258.7,208.4L258.7,208.4z"/>
	<path class="st0" d="M266.4,203.3c0-0.4-0.1-0.7-0.3-0.9c-0.2-0.2-0.6-0.3-1-0.3c-0.9,0-1.3,0.5-1.4,1.3l-1.7-0.1
		c0.1-1.6,1.3-2.5,3.2-2.5c1,0,1.7,0.2,2.2,0.7c0.5,0.4,0.6,1.1,0.6,2.2v2.7c0,0.9,0.1,1.6,0.2,2h-1.7c-0.1-0.2-0.1-0.7-0.1-0.9
		c-0.6,0.7-1.4,1.1-2.5,1.1c-1.4,0-2.3-0.9-2.3-2.2c0-1,0.5-1.6,1.4-2c0.7-0.3,2.2-0.5,3.4-0.6L266.4,203.3L266.4,203.3z
		 M266.4,204.9c-0.9,0-1.9,0.2-2.4,0.4c-0.5,0.2-0.6,0.5-0.6,0.9c0,0.5,0.4,0.9,1.1,0.9c0.7,0,1.2-0.3,1.6-0.8
		c0.2-0.4,0.3-0.8,0.3-1.2L266.4,204.9L266.4,204.9z"/>
	<path class="st0" d="M271.6,208.4h-1.8v-10.6h1.8V208.4z"/>
	<path class="st0" d="M273.4,199.4v-1.6h1.8v1.6H273.4z M275.2,208.4h-1.8v-7.5h1.8V208.4z"/>
	<path class="st0" d="M277.7,206c0.4,0.8,1.1,1.2,1.9,1.2c0.8,0,1.2-0.3,1.2-0.8c0-0.5-0.2-0.7-1.4-1.1l-0.8-0.2
		c-1.2-0.4-1.9-1-1.9-2.2c0-1.2,1-2.2,2.9-2.2c1.2,0,2.3,0.4,2.9,1.5l-1.3,0.9c-0.4-0.7-1-1.1-1.7-1.1c-0.8,0-1.1,0.3-1.1,0.7
		c0,0.4,0.2,0.7,1.2,1l0.8,0.2c1.3,0.4,2.1,1,2.1,2.2c0,1.4-1.2,2.4-3,2.4c-1.5,0-2.6-0.7-3.2-1.7L277.7,206z"/>
	<path class="st0" d="M287.5,208.3c-0.4,0.1-0.9,0.2-1.3,0.2c-0.7,0-1.2-0.2-1.5-0.5c-0.3-0.4-0.4-0.9-0.4-1.6v-4.1h-1.2v-1.4h1.2
		v-2.4h1.7v2.4h1.5v1.4H286v3.7c0,0.8,0.2,1,0.8,1c0.2,0,0.5,0,0.7-0.1V208.3z"/>
	<path class="st0" d="M295.1,206.5c-0.5,1.4-1.7,2.1-3.3,2.1c-2.4,0-3.7-1.6-3.7-4c0-2.4,1.4-3.9,3.6-3.9c2.4,0,3.4,1.7,3.4,4.4H290
		c0.1,1.3,0.8,2,2,2c0.8,0,1.4-0.3,1.7-1.2L295.1,206.5z M293.4,203.8c-0.1-1.2-0.7-1.8-1.6-1.8s-1.7,0.6-1.8,1.8H293.4z"/>
	<path class="st0" d="M301.3,208.4v-4.3c0-0.6-0.1-1-0.3-1.3c-0.2-0.3-0.5-0.4-1-0.4s-1,0.2-1.3,0.7c-0.4,0.5-0.4,1.1-0.4,1.8v3.6
		h-1.8v-7.5h1.7v1.1c0.5-0.8,1.4-1.2,2.5-1.2c0.9,0,1.5,0.3,1.9,0.9c0.3,0.4,0.4,1,0.4,2v4.7L301.3,208.4L301.3,208.4z"/>
	<path class="st0" d="M306.4,208.3c0,1.2-0.2,1.7-1,2.4l-0.8-0.7c0.5-0.4,0.6-0.8,0.6-1.7h-0.6v-2.2h1.8L306.4,208.3L306.4,208.3z"
		/>
	<path class="st0" d="M185.8,217.5c1.3-0.1,2.1-0.7,2.2-1.5h1.6v10.4h-1.8v-7.8c-0.5,0.3-1.1,0.5-2,0.6V217.5z"/>
	<path class="st0" d="M197.1,226.4v-10.6h4.4c1.5,0,2.3,0.2,2.9,0.6c0.8,0.6,1.2,1.5,1.2,2.6c0,1.2-0.4,2.2-1.4,2.8
		c-0.8,0.4-1.9,0.6-3.1,0.6H199v4L197.1,226.4L197.1,226.4z M200.9,220.8c1,0,1.7-0.1,2.1-0.4c0.4-0.3,0.5-0.7,0.5-1.3
		c0-0.5-0.2-1-0.5-1.3c-0.4-0.3-0.9-0.4-2-0.4h-2v3.4H200.9z"/>
	<path class="st0" d="M206.3,226.4v-7.5h1.7v1.1c0.4-0.8,1-1.2,2.1-1.2c0.2,0,0.4,0,0.6,0.1v1.8c-0.3-0.1-0.5-0.2-0.8-0.2
		c-0.6,0-1.1,0.2-1.4,0.7c-0.2,0.4-0.4,0.9-0.4,1.7v3.5L206.3,226.4L206.3,226.4z"/>
	<path class="st0" d="M215,226.6c-2.3,0-3.7-1.5-3.7-4c0-2.5,1.5-3.9,3.8-3.9c2.2,0,3.6,1.5,3.6,4
		C218.6,225.2,217.2,226.6,215,226.6z M215,220.2c-1.1,0-1.9,0.9-1.9,2.4c0,1.7,0.8,2.5,1.9,2.5s1.9-0.8,1.9-2.4
		C216.9,221,216.1,220.2,215,220.2z"/>
	<path class="st0" d="M224.9,226.4v-1.1c-0.5,0.7-1.2,1.2-2.2,1.2c-1.7,0-3-1.3-3-3.9c0-2.4,1.4-3.9,3.1-3.9c1.1,0,1.7,0.4,2.1,1
		v-3.9h1.7v10.6L224.9,226.4L224.9,226.4z M223.2,220.2c-1,0-1.7,0.8-1.7,2.4c0,1.5,0.6,2.5,1.7,2.5s1.8-0.8,1.8-2.4
		C224.9,221.1,224.2,220.2,223.2,220.2z"/>
	<path class="st0" d="M230.1,218.9v4.3c0,0.4,0.1,0.9,0.2,1.2c0.2,0.4,0.6,0.6,1.1,0.6c0.5,0,0.9-0.2,1.2-0.6
		c0.3-0.4,0.5-0.9,0.5-1.6v-3.9h1.8v7.5h-1.7v-1.1c-0.5,0.7-1.3,1.2-2.3,1.2c-1,0-1.5-0.3-2-0.9c-0.3-0.5-0.5-1.1-0.5-2v-4.7
		L230.1,218.9L230.1,218.9z"/>
	<path class="st0" d="M241.6,226.4l-2.1-3.4l-1.1,1.1v2.2h-1.8v-10.6h1.8v6.3l2.8-3.2h2.1l-2.6,2.8l2.9,4.6L241.6,226.4L241.6,226.4
		z"/>
	<path class="st0" d="M248.2,226.3c-0.4,0.1-0.9,0.2-1.3,0.2c-0.7,0-1.2-0.2-1.5-0.5c-0.3-0.4-0.4-0.9-0.4-1.6v-4.1h-1.2v-1.4h1.2
		v-2.4h1.7v2.4h1.5v1.4h-1.5v3.7c0,0.8,0.2,1,0.8,1c0.2,0,0.5,0,0.7-0.1L248.2,226.3L248.2,226.3z"/>
	<path class="st0" d="M249.2,217.4v-1.6h1.8v1.6H249.2z M251,226.4h-1.8v-7.5h1.8V226.4z"/>
	<path class="st0" d="M256.1,226.6c-2.3,0-3.7-1.5-3.7-4c0-2.5,1.5-3.9,3.8-3.9c2.2,0,3.5,1.5,3.5,4
		C259.8,225.2,258.3,226.6,256.1,226.6z M256.2,220.2c-1.1,0-1.9,0.9-1.9,2.4c0,1.7,0.8,2.5,1.9,2.5c1.1,0,1.9-0.8,1.9-2.4
		C258,221,257.3,220.2,256.2,220.2z"/>
	<path class="st0" d="M265.9,226.4v-4.3c0-0.6-0.1-1-0.3-1.3c-0.2-0.3-0.5-0.4-1-0.4s-1,0.2-1.3,0.7c-0.4,0.5-0.4,1.1-0.4,1.8v3.6
		h-1.8v-7.5h1.7v1.1c0.5-0.8,1.4-1.2,2.5-1.2c0.9,0,1.5,0.3,1.9,0.9c0.3,0.4,0.4,1,0.4,2v4.7L265.9,226.4L265.9,226.4z"/>
	<path class="st0" d="M270.1,224c0.4,0.8,1.1,1.2,1.9,1.2c0.8,0,1.2-0.3,1.2-0.8c0-0.5-0.2-0.7-1.4-1.1l-0.8-0.2
		c-1.2-0.4-1.9-1-1.9-2.2c0-1.2,1-2.2,2.9-2.2c1.2,0,2.3,0.4,2.9,1.5l-1.3,0.9c-0.4-0.7-1-1.1-1.7-1.1c-0.8,0-1.1,0.3-1.1,0.7
		c0,0.4,0.2,0.7,1.2,1l0.8,0.2c1.3,0.4,2.1,1,2.1,2.2c0,1.4-1.2,2.4-3,2.4c-1.5,0-2.6-0.7-3.2-1.7L270.1,224z"/>
	<path class="st0" d="M276,222.5v-1.4h4.3v1.4H276z"/>
	<path class="st0" d="M283.5,226.4v-8.9h-3v-1.6h8v1.6h-3v8.9H283.5z"/>
	<path class="st0" d="M291.1,226.6c-2.3,0-3.7-1.5-3.7-4c0-2.5,1.5-3.9,3.8-3.9c2.2,0,3.5,1.5,3.5,4
		C294.7,225.2,293.3,226.6,291.1,226.6z M291.1,220.2c-1.1,0-1.9,0.9-1.9,2.4c0,1.7,0.8,2.5,1.9,2.5c1.1,0,1.9-0.8,1.9-2.4
		C293,221,292.2,220.2,291.1,220.2z"/>
	<path class="st0" d="M299.4,226.6c-2.3,0-3.7-1.5-3.7-4c0-2.5,1.5-3.9,3.8-3.9c2.2,0,3.5,1.5,3.5,4
		C303.1,225.2,301.6,226.6,299.4,226.6z M299.5,220.2c-1.1,0-1.9,0.9-1.9,2.4c0,1.7,0.8,2.5,1.9,2.5c1.1,0,1.9-0.8,1.9-2.4
		C301.3,221,300.6,220.2,299.5,220.2z"/>
	<path class="st0" d="M306.3,226.4h-1.8v-10.6h1.8V226.4z"/>
</g>
<g>
	<path class="st1" d="M53,69.4v-9.2h3.8c1.3,0,2,0.2,2.5,0.6c0.7,0.5,1,1.3,1,2.2c0,1-0.4,2-1.2,2.4c-0.7,0.4-1.6,0.5-2.7,0.5h-1.8
		v3.5H53z M56.3,64.5c0.9,0,1.5-0.1,1.8-0.3c0.3-0.3,0.5-0.6,0.5-1.2c0-0.5-0.2-0.9-0.5-1.1c-0.3-0.3-0.8-0.3-1.7-0.3h-1.8v2.9
		C54.6,64.5,56.3,64.5,56.3,64.5z"/>
	<path class="st1" d="M61.6,69.4v-9.2h1.7v7.8h4.3v1.4H61.6z"/>
	<path class="st1" d="M74.8,69.4L74,67.2h-3.6l-0.7,2.2h-1.8l3.5-9.2h1.8l3.3,9.2H74.8z M73.6,65.9c-0.5-1.5-1-2.7-1.4-4.1
		c-0.3,0.9-0.6,1.8-1.4,4.1H73.6z"/>
	<path class="st1" d="M79.2,60.2c2,3.3,3.2,5.2,4.1,6.8c-0.1-1.4-0.1-3.3-0.1-6.8h1.6v9.2h-1.8c-1.9-3.2-3.1-5.1-4.1-6.7
		c0,0.8,0.1,2.6,0.1,6.7h-1.6v-9.2H79.2z"/>
	<path class="st1" d="M93.9,65.4c0,1.4-0.2,2.4-0.8,3c-0.6,0.7-1.6,1.1-2.9,1.1c-1.3,0-2.3-0.3-2.9-1.1c-0.6-0.8-0.7-1.6-0.7-3v-5.3
		h1.7v5.4c0,0.7,0,1.3,0.3,1.7c0.3,0.6,0.9,0.8,1.7,0.8c0.8,0,1.4-0.2,1.8-0.9c0.2-0.4,0.3-1,0.3-1.7v-5.4h1.7
		C93.9,60.2,93.9,65.4,93.9,65.4z"/>
	<path class="st1" d="M97.4,60.2c2,3.3,3.2,5.2,4.1,6.8c-0.1-1.4-0.1-3.3-0.1-6.8h1.6v9.2h-1.8c-1.9-3.2-3.1-5.1-4.1-6.7
		c0,0.8,0.1,2.6,0.1,6.7h-1.6v-9.2H97.4z"/>
	<path class="st1" d="M111.1,69.4v-1c-0.6,0.8-1.5,1.2-2.7,1.2c-2.3,0-4-1.8-4-4.7c0-2.8,1.6-4.9,4.5-4.9c1.8,0,3.1,0.8,3.6,2.4
		L111,63c-0.3-1-0.9-1.6-2-1.6c-1.7,0-2.8,1.3-2.8,3.3c0,2.2,1.1,3.3,2.7,3.3c1.5,0,2.2-0.9,2.2-2.4h-2.6v-1.4h4.1v5.1L111.1,69.4
		L111.1,69.4z"/>
</g>
<g>
	<path class="st1" d="M53,270.4v-9.2h3.8c1.3,0,2,0.2,2.5,0.6c0.7,0.5,1,1.3,1,2.2c0,1-0.4,2-1.2,2.4c-0.7,0.4-1.6,0.5-2.7,0.5h-1.8
		v3.5H53z M56.3,265.5c0.9,0,1.5-0.1,1.8-0.3c0.3-0.2,0.5-0.6,0.5-1.2c0-0.5-0.2-0.9-0.5-1.1c-0.3-0.3-0.8-0.3-1.7-0.3h-1.8v2.9
		H56.3z"/>
	<path class="st1" d="M67.1,270.4l-2.3-3.7h-1.6v3.7h-1.6v-9.2h3c1.2,0,2.1,0,2.8,0.3c0.9,0.4,1.4,1.1,1.4,2.4
		c0,1.5-0.8,2.3-2.3,2.6l2.6,3.9L67.1,270.4L67.1,270.4z M64.9,265.4c0.8,0,1.3-0.1,1.6-0.3c0.3-0.2,0.5-0.6,0.5-1.1
		c0-0.5-0.1-0.9-0.5-1.1c-0.3-0.2-0.8-0.3-1.5-0.3h-1.8v2.8L64.9,265.4L64.9,265.4z"/>
	<path class="st1" d="M69.7,265.7c0-2.9,1.7-4.7,4.4-4.7c2.5,0,4.2,1.9,4.2,4.8c0,3-1.7,4.8-4.2,4.8
		C71.4,270.6,69.7,268.7,69.7,265.7z M74,262.4c-1.6,0-2.6,1.2-2.6,3.2c0,2.1,1,3.4,2.6,3.4c1.4,0,2.5-1.1,2.5-3.3
		C76.5,263.7,75.5,262.4,74,262.4z"/>
	<path class="st1" d="M79.6,261.2h2.8c1.6,0,2.3,0.1,3,0.5c1.3,0.6,1.9,2.1,1.9,4c0,1.5-0.4,2.8-1.2,3.6c-0.8,0.8-1.9,1.1-3.8,1.1
		h-2.7V261.2z M82.4,269c1.2,0,2-0.3,2.5-0.8c0.5-0.5,0.7-1.4,0.7-2.5c0-1-0.2-1.8-0.7-2.4c-0.4-0.5-1-0.7-2.2-0.7h-1.4v6.4
		L82.4,269L82.4,269z"/>
	<path class="st1" d="M96.1,266.4c0,1.4-0.2,2.4-0.8,3c-0.6,0.7-1.6,1.1-2.9,1.1c-1.3,0-2.3-0.4-2.9-1.1c-0.6-0.8-0.7-1.6-0.7-3
		v-5.2h1.7v5.4c0,0.7,0,1.3,0.3,1.7c0.3,0.6,0.9,0.9,1.7,0.9c0.8,0,1.4-0.2,1.8-0.9c0.2-0.4,0.3-1,0.3-1.6v-5.4h1.7
		C96.1,261.2,96.1,266.4,96.1,266.4z"/>
	<path class="st1" d="M103.7,270.4L101,266l-1.6,1.8v2.6h-1.7v-9.2h1.7v4.4l3.9-4.4h2l-3.2,3.6l3.6,5.6L103.7,270.4L103.7,270.4z"/>
	<path class="st1" d="M108.2,270.4v-7.8h-2.6v-1.4h6.9v1.4h-2.6v7.8H108.2z"/>
	<path class="st1" d="M115.3,270.4h-1.7v-9.2h1.7V270.4z"/>
	<path class="st1" d="M116.7,265.7c0-2.9,1.7-4.7,4.4-4.7c2.5,0,4.2,1.9,4.2,4.8c0,3-1.7,4.8-4.2,4.8
		C118.4,270.6,116.7,268.7,116.7,265.7z M121,262.4c-1.6,0-2.6,1.2-2.6,3.2c0,2.1,1,3.4,2.6,3.4c1.4,0,2.5-1.1,2.5-3.3
		C123.5,263.7,122.5,262.4,121,262.4z"/>
	<path class="st1" d="M128.5,261.2c2,3.4,3.2,5.2,4.1,6.8c-0.1-1.4-0.1-3.3-0.1-6.8h1.6v9.2h-1.8c-1.9-3.1-3.1-5.1-4.1-6.7
		c0,0.8,0.1,2.6,0.1,6.7h-1.6v-9.2H128.5z"/>
</g>
<g>
	<path class="st1" d="M59,472.4l-0.7-2.1h-3.6l-0.7,2.1h-1.8l3.5-9.2h1.8l3.3,9.2H59z M57.9,468.9c-0.5-1.5-1-2.7-1.4-4.1
		c-0.3,0.9-0.6,1.8-1.4,4.1H57.9z"/>
	<path class="st1" d="M68.6,468.4c0,1.4-0.2,2.4-0.8,3c-0.6,0.7-1.6,1.1-2.9,1.1c-1.3,0-2.3-0.4-2.9-1.1c-0.6-0.8-0.7-1.6-0.7-3
		v-5.2h1.7v5.4c0,0.7,0,1.3,0.3,1.7c0.3,0.6,0.9,0.8,1.7,0.8c0.8,0,1.4-0.2,1.8-0.9c0.2-0.4,0.3-1,0.3-1.6v-5.4h1.7
		C68.6,463.2,68.6,468.4,68.6,468.4z"/>
	<path class="st1" d="M70.3,472.4v-9.2h6.3v1.4h-4.6v2.4h4.2v1.4h-4.2v3.9L70.3,472.4L70.3,472.4z"/>
	<path class="st1" d="M81.6,463.2c1,0,1.7,0.1,2.1,0.4c0.6,0.4,1,1,1,1.9c0,1-0.5,1.7-1.6,2c1.3,0.2,1.9,1.1,1.9,2.3
		c0,1-0.4,1.7-1.2,2.2c-0.6,0.3-1.3,0.4-2.6,0.4h-3.6v-9.2L81.6,463.2L81.6,463.2z M79.4,466.9h1.9c0.5,0,1-0.1,1.2-0.2
		c0.3-0.2,0.5-0.5,0.5-1s-0.1-0.8-0.5-1c-0.3-0.1-0.7-0.2-1.2-0.2h-1.9L79.4,466.9L79.4,466.9z M79.4,471h1.8c0.7,0,1.3-0.1,1.7-0.3
		c0.3-0.2,0.5-0.5,0.5-1c0-0.5-0.2-0.9-0.5-1.1c-0.3-0.2-0.8-0.3-1.5-0.3h-1.9L79.4,471L79.4,471z"/>
	<path class="st1" d="M86.4,472.4v-9.2h6.4v1.4H88v2.3h4.3v1.4H88v2.6h5v1.4L86.4,472.4L86.4,472.4z"/>
	<path class="st1" d="M94,468.5v-1.2h3.8v1.2H94z"/>
	<path class="st1" d="M58.5,488l-2.3-3.7h-1.6v3.7H53v-9.2h3c1.2,0,2.1,0,2.8,0.3c0.9,0.4,1.4,1.1,1.4,2.4c0,1.5-0.8,2.3-2.3,2.6
		l2.6,3.9H58.5z M56.3,483c0.8,0,1.3-0.1,1.6-0.3c0.3-0.2,0.5-0.6,0.5-1.1c0-0.5-0.1-0.9-0.5-1.1c-0.3-0.2-0.8-0.3-1.5-0.3h-1.8v2.8
		L56.3,483L56.3,483z"/>
	<path class="st1" d="M61.5,488v-9.2h6.4v1.4h-4.7v2.3h4.3v1.4h-4.3v2.6h5v1.4L61.5,488L61.5,488z"/>
	<path class="st1" d="M71.1,488h-1.7v-9.2h1.7V488z"/>
	<path class="st1" d="M74.8,488v-7.8h-2.6v-1.4h6.9v1.4h-2.6v7.8H74.8z"/>
	<path class="st1" d="M87.6,484c0,1.4-0.2,2.4-0.8,3c-0.6,0.7-1.6,1.1-2.9,1.1c-1.3,0-2.3-0.4-2.9-1.1c-0.6-0.8-0.7-1.6-0.7-3v-5.2
		h1.7v5.4c0,0.7,0,1.3,0.3,1.7c0.3,0.6,0.9,0.9,1.7,0.9c0.8,0,1.4-0.2,1.8-0.9c0.2-0.4,0.3-1,0.3-1.6v-5.4h1.7
		C87.6,478.8,87.6,484,87.6,484z"/>
	<path class="st1" d="M91.1,478.8c2,3.4,3.2,5.2,4.1,6.8c-0.1-1.4-0.1-3.3-0.1-6.8h1.6v9.2h-1.8c-1.9-3.1-3.1-5.1-4.1-6.7
		c0,0.8,0.1,2.6,0.1,6.7h-1.6v-9.2H91.1z"/>
	<path class="st1" d="M104.8,488v-1c-0.6,0.8-1.5,1.2-2.7,1.2c-2.3,0-4-1.8-4-4.6c0-2.8,1.6-4.9,4.5-4.9c1.8,0,3.1,0.8,3.6,2.4
		l-1.6,0.6c-0.3-1-0.9-1.6-2-1.6c-1.7,0-2.8,1.3-2.8,3.3c0,2.2,1.1,3.3,2.7,3.3c1.5,0,2.2-0.9,2.2-2.4h-2.6v-1.4h4.1v5.1L104.8,488
		L104.8,488z"/>
</g>
<g>
	<path class="st0" d="M216.2,746.8c2.3,3.9,3.7,6,4.7,7.8c-0.1-1.6-0.1-3.8-0.1-7.8h1.9v10.6h-2.1c-2.2-3.6-3.6-5.9-4.7-7.8
		c0.1,0.9,0.1,3,0.1,7.8h-1.9v-10.6H216.2z"/>
	<path class="st0" d="M224.2,757.4V756l5.8-7.5h-5.5v-1.6h7.9v1.5l-5.7,7.5h5.7v1.6L224.2,757.4L224.2,757.4z"/>
	<path class="st0" d="M233.3,757.4V756l5.8-7.5h-5.5v-1.6h7.9v1.5l-5.7,7.5h5.7v1.6L233.3,757.4L233.3,757.4z"/>
	<path class="st0" d="M246.3,757.4v-10.6h4.4c1.5,0,2.3,0.2,2.9,0.6c0.8,0.5,1.2,1.5,1.2,2.6c0,1.2-0.4,2.2-1.4,2.8
		c-0.8,0.4-1.9,0.6-3.1,0.6h-2.1v4L246.3,757.4L246.3,757.4z M250.1,751.8c1,0,1.7-0.1,2.1-0.4c0.4-0.3,0.5-0.7,0.5-1.3
		c0-0.5-0.2-1-0.5-1.3c-0.4-0.3-0.9-0.4-2-0.4h-2v3.4L250.1,751.8L250.1,751.8z"/>
	<path class="st0" d="M255.5,757.4v-7.5h1.7v1.2c0.5-0.8,1-1.2,2.1-1.2c0.2,0,0.4,0,0.6,0.1v1.8c-0.3-0.2-0.5-0.2-0.8-0.2
		c-0.6,0-1.1,0.2-1.4,0.7c-0.2,0.4-0.4,0.9-0.4,1.7v3.5L255.5,757.4L255.5,757.4z"/>
	<path class="st0" d="M260.9,748.4v-1.7h1.8v1.7H260.9z M262.7,757.4h-1.8v-7.5h1.8V757.4z"/>
	<path class="st0" d="M269.2,757.4v-4.3c0-0.6-0.1-1-0.3-1.3c-0.2-0.3-0.5-0.4-1-0.4s-1,0.3-1.3,0.7c-0.4,0.5-0.4,1-0.4,1.8v3.6
		h-1.8v-7.5h1.7v1.1c0.5-0.8,1.4-1.2,2.5-1.2c0.9,0,1.5,0.3,1.9,0.9c0.3,0.5,0.4,1,0.4,2v4.7H269.2z"/>
	<path class="st0" d="M276.4,757.3c-0.4,0.1-0.9,0.2-1.3,0.2c-0.7,0-1.2-0.2-1.5-0.5c-0.3-0.4-0.4-0.9-0.4-1.6v-4.1H272v-1.4h1.2
		v-2.4h1.7v2.4h1.5v1.4h-1.5v3.7c0,0.8,0.2,1,0.8,1c0.2,0,0.5,0,0.7-0.1V757.3z"/>
	<path class="st0" d="M277.2,753.5v-1.4h4.3v1.4H277.2z"/>
	<path class="st0" d="M283.1,757.4v-10.6h4.4c1.5,0,2.3,0.2,2.9,0.6c0.8,0.5,1.2,1.5,1.2,2.6c0,1.2-0.4,2.2-1.4,2.8
		c-0.8,0.4-1.9,0.6-3.1,0.6H285v4L283.1,757.4L283.1,757.4z M286.9,751.8c1,0,1.7-0.1,2.1-0.4c0.4-0.3,0.5-0.7,0.5-1.3
		c0-0.5-0.2-1-0.5-1.3c-0.4-0.3-0.9-0.4-2-0.4h-2v3.4L286.9,751.8L286.9,751.8z"/>
	<path class="st0" d="M292.3,757.4v-7.5h1.7v1.2c0.5-0.8,1-1.2,2.1-1.2c0.2,0,0.4,0,0.6,0.1v1.8c-0.3-0.2-0.5-0.2-0.8-0.2
		c-0.6,0-1.1,0.2-1.4,0.7c-0.2,0.4-0.4,0.9-0.4,1.7v3.5L292.3,757.4L292.3,757.4z"/>
	<path class="st0" d="M301,757.6c-2.3,0-3.7-1.5-3.7-4c0-2.5,1.5-3.9,3.8-3.9c2.2,0,3.5,1.5,3.5,4
		C304.6,756.2,303.1,757.6,301,757.6z M301,751.2c-1.1,0-1.9,0.9-1.9,2.4c0,1.7,0.8,2.5,1.9,2.5s1.9-0.8,1.9-2.5
		C302.9,752,302.1,751.2,301,751.2z"/>
	<path class="st0" d="M310.9,757.4v-1c-0.5,0.7-1.2,1.2-2.2,1.2c-1.7,0-3-1.3-3-3.9c0-2.5,1.4-3.9,3.1-3.9c1.1,0,1.7,0.4,2.1,1v-3.9
		h1.7v10.6L310.9,757.4L310.9,757.4z M309.2,751.2c-1,0-1.7,0.8-1.7,2.4c0,1.5,0.6,2.5,1.7,2.5s1.8-0.8,1.8-2.4
		C310.9,752.1,310.2,751.2,309.2,751.2z"/>
	<path class="st0" d="M316.1,749.9v4.3c0,0.5,0.1,0.9,0.2,1.2c0.2,0.4,0.6,0.6,1.1,0.6c0.5,0,0.9-0.2,1.2-0.6
		c0.3-0.4,0.5-0.9,0.5-1.6v-3.9h1.8v7.5h-1.7v-1.1c-0.5,0.7-1.3,1.2-2.3,1.2c-1,0-1.5-0.3-2-0.9c-0.3-0.5-0.5-1.1-0.5-2v-4.7
		L316.1,749.9L316.1,749.9z"/>
	<path class="st0" d="M327.6,757.4l-2.1-3.4l-1.1,1.2v2.2h-1.8v-10.6h1.8v6.3l2.8-3.2h2.1l-2.6,2.8l2.9,4.6L327.6,757.4L327.6,757.4
		z"/>
	<path class="st0" d="M334.2,757.3c-0.4,0.1-0.9,0.2-1.3,0.2c-0.7,0-1.2-0.2-1.5-0.5c-0.3-0.4-0.4-0.9-0.4-1.6v-4.1h-1.2v-1.4h1.2
		v-2.4h1.7v2.4h1.5v1.4h-1.5v3.7c0,0.8,0.2,1,0.8,1c0.2,0,0.5,0,0.7-0.1L334.2,757.3L334.2,757.3z"/>
	<path class="st0" d="M341.8,755.5c-0.5,1.3-1.7,2.1-3.2,2.1c-2.4,0-3.7-1.6-3.7-4c0-2.4,1.4-3.9,3.6-3.9c2.4,0,3.4,1.7,3.4,4.4
		h-5.2c0.1,1.3,0.8,2,2,2c0.8,0,1.4-0.3,1.7-1.2L341.8,755.5z M340,752.8c-0.1-1.2-0.7-1.8-1.6-1.8s-1.7,0.6-1.8,1.8H340z"/>
</g>
<g>
	<path class="st0" d="M412.2,564.8c2.3,3.9,3.7,6,4.7,7.8c-0.1-1.6-0.1-3.8-0.1-7.8h1.9v10.6h-2.1c-2.2-3.6-3.6-5.9-4.7-7.8
		c0,0.9,0.1,3,0.1,7.8h-1.9v-10.6H412.2z"/>
	<path class="st0" d="M420.2,575.4V574l5.8-7.5h-5.5v-1.6h7.9v1.5l-5.7,7.5h5.7v1.6L420.2,575.4L420.2,575.4z"/>
	<path class="st0" d="M429.3,575.4V574l5.8-7.5h-5.5v-1.6h7.9v1.5l-5.7,7.5h5.7v1.6L429.3,575.4L429.3,575.4z"/>
	<path class="st0" d="M442,570c0-3.3,2-5.5,5-5.5c2.9,0,4.8,2.2,4.8,5.6c0,3.5-1.9,5.5-4.8,5.5C443.9,575.6,442,573.4,442,570z
		 M446.9,566.2c-1.8,0-3,1.4-3,3.7c0,2.5,1.2,3.9,3,3.9c1.7,0,2.8-1.3,2.8-3.8C449.8,567.6,448.7,566.2,446.9,566.2z"/>
	<path class="st0" d="M458.1,575.4v-4.3c0-0.6-0.1-1-0.3-1.3c-0.2-0.3-0.5-0.4-1-0.4s-1,0.3-1.3,0.7c-0.4,0.5-0.4,1-0.4,1.8v3.6
		h-1.8v-7.5h1.7v1.1c0.5-0.8,1.4-1.2,2.5-1.2c0.9,0,1.5,0.3,1.9,0.9c0.3,0.5,0.4,1,0.4,2v4.7H458.1z"/>
	<path class="st0" d="M463.3,575.4h-1.8v-10.6h1.8V575.4z"/>
	<path class="st0" d="M465.2,566.4v-1.7h1.8v1.7H465.2z M466.9,575.4h-1.8v-7.5h1.8V575.4z"/>
	<path class="st0" d="M473.5,575.4v-4.3c0-0.6-0.1-1-0.3-1.3c-0.2-0.3-0.5-0.4-1-0.4s-1,0.3-1.3,0.7c-0.4,0.5-0.4,1-0.4,1.8v3.6
		h-1.8v-7.5h1.7v1.1c0.5-0.8,1.4-1.2,2.5-1.2c0.9,0,1.5,0.3,1.9,0.9c0.3,0.5,0.4,1,0.4,2v4.7H473.5z"/>
	<path class="st0" d="M483.5,573.5c-0.5,1.3-1.7,2.1-3.2,2.1c-2.4,0-3.7-1.6-3.7-4c0-2.4,1.4-3.9,3.6-3.9c2.4,0,3.4,1.7,3.4,4.4
		h-5.2c0.1,1.3,0.8,2,2,2c0.8,0,1.4-0.3,1.7-1.2L483.5,573.5z M481.8,570.8c-0.1-1.2-0.7-1.8-1.6-1.8s-1.7,0.6-1.8,1.8H481.8z"/>
	<path class="st0" d="M484.7,571.5v-1.4h4.3v1.4H484.7z"/>
	<path class="st0" d="M410.1,593.4v-10.6h4.4c1.5,0,2.3,0.2,2.9,0.6c0.8,0.5,1.1,1.5,1.1,2.6c0,1.2-0.4,2.2-1.4,2.8
		c-0.8,0.4-1.9,0.6-3.1,0.6H412v4L410.1,593.4L410.1,593.4z M413.9,587.8c1,0,1.7-0.1,2.1-0.4c0.4-0.3,0.5-0.7,0.5-1.3
		c0-0.5-0.2-1-0.5-1.3c-0.4-0.3-0.9-0.4-2-0.4h-2v3.4L413.9,587.8L413.9,587.8z"/>
	<path class="st0" d="M419.3,593.4v-7.5h1.7v1.2c0.5-0.8,1-1.2,2.1-1.2c0.2,0,0.4,0,0.6,0.1v1.8c-0.3-0.2-0.5-0.2-0.8-0.2
		c-0.6,0-1.1,0.2-1.4,0.7c-0.3,0.4-0.4,0.9-0.4,1.7v3.5L419.3,593.4L419.3,593.4z"/>
	<path class="st0" d="M427.9,593.6c-2.3,0-3.7-1.5-3.7-4c0-2.5,1.5-3.9,3.8-3.9c2.2,0,3.5,1.5,3.5,4
		C431.6,592.2,430.1,593.6,427.9,593.6z M428,587.2c-1.1,0-1.9,0.9-1.9,2.4c0,1.7,0.8,2.5,1.9,2.5s1.9-0.8,1.9-2.5
		C429.8,588,429.1,587.2,428,587.2z"/>
	<path class="st0" d="M437.9,593.4v-1c-0.5,0.7-1.2,1.2-2.2,1.2c-1.7,0-3-1.3-3-3.9c0-2.5,1.4-3.9,3.1-3.9c1.1,0,1.7,0.4,2.1,1v-3.9
		h1.7v10.6L437.9,593.4L437.9,593.4z M436.2,587.2c-1,0-1.7,0.8-1.7,2.4c0,1.5,0.6,2.5,1.7,2.5s1.8-0.8,1.8-2.4
		C437.9,588.1,437.2,587.2,436.2,587.2z"/>
	<path class="st0" d="M443.1,585.9v4.3c0,0.5,0.1,0.9,0.2,1.2c0.2,0.4,0.5,0.6,1.1,0.6c0.5,0,0.9-0.2,1.2-0.6
		c0.3-0.4,0.5-0.9,0.5-1.6v-3.9h1.8v7.5h-1.7v-1.1c-0.5,0.7-1.3,1.2-2.3,1.2c-1,0-1.5-0.3-2-0.9c-0.3-0.5-0.5-1.1-0.5-2v-4.7
		L443.1,585.9L443.1,585.9z"/>
	<path class="st0" d="M454.6,593.4l-2.1-3.4l-1.1,1.2v2.2h-1.8v-10.6h1.8v6.3l2.8-3.2h2.1l-2.6,2.8l2.9,4.6L454.6,593.4L454.6,593.4
		z"/>
	<path class="st0" d="M461.2,593.3c-0.4,0.1-0.9,0.2-1.3,0.2c-0.7,0-1.2-0.2-1.5-0.5c-0.3-0.4-0.4-0.9-0.4-1.6v-4.1h-1.2v-1.4h1.2
		v-2.4h1.7v2.4h1.5v1.4h-1.5v3.7c0,0.8,0.2,1,0.8,1c0.2,0,0.5,0,0.7-0.1L461.2,593.3L461.2,593.3z"/>
	<path class="st0" d="M468.8,591.5c-0.5,1.3-1.7,2.1-3.2,2.1c-2.4,0-3.7-1.6-3.7-4c0-2.4,1.4-3.9,3.6-3.9c2.4,0,3.4,1.7,3.4,4.4
		h-5.2c0.1,1.3,0.8,2,2,2c0.8,0,1.4-0.3,1.7-1.2L468.8,591.5z M467,588.8c-0.1-1.2-0.7-1.8-1.6-1.8s-1.7,0.6-1.8,1.8H467z"/>
</g>
<g>
	<path class="st0" d="M61.1,297.4v-10.6H63v8.9h5v1.6H61.1z"/>
	<path class="st0" d="M69.3,288.4v-1.6h1.8v1.6H69.3z M71.1,297.4h-1.8v-7.5h1.8V297.4z"/>
	<path class="st0" d="M74.7,297.4l-2.7-7.5h1.9c0.9,2.5,1.4,4.1,1.8,5.7c0.4-1.5,0.9-3.1,1.8-5.7h1.9l-2.7,7.5L74.7,297.4
		L74.7,297.4z"/>
	<path class="st0" d="M80.3,288.4v-1.6h1.8v1.6H80.3z M82.1,297.4h-1.8v-7.5h1.8V297.4z"/>
	<path class="st0" d="M88.7,297.4v-4.3c0-0.6-0.1-1-0.3-1.3c-0.2-0.3-0.5-0.4-1-0.4s-1,0.2-1.3,0.7c-0.4,0.5-0.4,1-0.4,1.8v3.6H84
		v-7.5h1.7v1.1c0.5-0.8,1.4-1.2,2.5-1.2c0.9,0,1.5,0.3,1.9,0.9c0.3,0.5,0.4,1,0.4,2v4.7L88.7,297.4L88.7,297.4z"/>
	<path class="st0" d="M97,296.3c-0.5,0.6-1.2,1-2.2,1c-1.8,0-3-1.4-3-3.8c0-2.3,1.3-3.8,3.1-3.8c1,0,1.8,0.4,2.2,1v-0.9h1.7v7
		c0,1.5-0.4,2.5-1.2,3.1c-0.6,0.4-1.4,0.6-2.4,0.6c-1.8,0-3-0.8-3.3-2.3l1.8-0.3c0.1,0.8,0.7,1.2,1.5,1.2c0.7,0,1.2-0.2,1.4-0.6
		c0.2-0.3,0.3-0.8,0.3-1.5L97,296.3L97,296.3z M95.4,291.2c-1.1,0-1.8,0.8-1.8,2.3c0,1.5,0.7,2.4,1.7,2.4c1,0,1.7-0.7,1.7-2.2
		C97.1,292.1,96.5,291.2,95.4,291.2z"/>
	<path class="st0" d="M105.5,297.4v-1c-0.5,0.7-1.2,1.2-2.2,1.2c-1.7,0-3-1.3-3-3.9c0-2.5,1.4-3.9,3.1-3.9c1.1,0,1.7,0.4,2.1,1v-3.9
		h1.7v10.6L105.5,297.4L105.5,297.4z M103.8,291.2c-1,0-1.7,0.8-1.7,2.4c0,1.5,0.6,2.5,1.7,2.5c1,0,1.8-0.8,1.8-2.4
		C105.5,292.1,104.8,291.2,103.8,291.2z"/>
	<path class="st0" d="M112.3,297.6c-2.3,0-3.7-1.5-3.7-4c0-2.5,1.5-3.9,3.8-3.9c2.2,0,3.6,1.5,3.6,4
		C115.9,296.2,114.5,297.6,112.3,297.6z M112.3,291.1c-1.1,0-1.9,0.9-1.9,2.4c0,1.7,0.8,2.5,1.9,2.5c1.1,0,1.9-0.8,1.9-2.5
		C114.2,292,113.4,291.1,112.3,291.1z"/>
	<path class="st0" d="M122,292.5c-0.2-1-0.8-1.3-1.5-1.3c-1,0-1.8,0.8-1.8,2.4c0,1.6,0.7,2.5,1.8,2.5c0.8,0,1.3-0.4,1.5-1.2l1.6,0.5
		c-0.4,1.2-1.4,2.1-3.1,2.1c-2.2,0-3.6-1.5-3.6-4c0-2.4,1.4-3.9,3.7-3.9c1.6,0,2.6,0.9,3,2.2L122,292.5z"/>
	<path class="st0" d="M125.4,295c0.4,0.8,1.1,1.2,1.9,1.2c0.8,0,1.2-0.3,1.2-0.8c0-0.5-0.2-0.7-1.4-1.1l-0.8-0.2
		c-1.2-0.4-1.9-1-1.9-2.2c0-1.2,1.1-2.2,2.9-2.2c1.2,0,2.3,0.5,2.9,1.5l-1.3,0.9c-0.4-0.7-0.9-1-1.7-1c-0.8,0-1.1,0.3-1.1,0.7
		c0,0.5,0.2,0.7,1.2,1l0.8,0.2c1.3,0.4,2.1,1,2.1,2.2c0,1.4-1.1,2.4-3,2.4c-1.5,0-2.6-0.7-3.2-1.7L125.4,295z"/>
	<path class="st0" d="M61.1,315.4v-10.6h7.4v1.6H63v2.7h5v1.6h-5v3h5.7v1.6L61.1,315.4L61.1,315.4z"/>
	<path class="st0" d="M74.7,315.4v-1c-0.5,0.7-1.2,1.2-2.2,1.2c-1.7,0-3-1.3-3-3.9c0-2.5,1.4-3.9,3.1-3.9c1.1,0,1.7,0.4,2.1,1v-3.9
		h1.7v10.6L74.7,315.4L74.7,315.4z M73,309.2c-1,0-1.7,0.8-1.7,2.4c0,1.5,0.6,2.5,1.7,2.5c1,0,1.8-0.8,1.8-2.4
		C74.7,310.1,74.1,309.2,73,309.2z"/>
	<path class="st0" d="M78.2,306.4v-1.6H80v1.6H78.2z M80,315.4h-1.8v-7.5H80V315.4z"/>
	<path class="st0" d="M85.5,315.3c-0.4,0.1-0.9,0.2-1.3,0.2c-0.7,0-1.2-0.2-1.5-0.5c-0.3-0.4-0.4-0.9-0.4-1.6v-4.1h-1.2v-1.4h1.2
		v-2.4H84v2.4h1.5v1.4H84v3.7c0,0.8,0.2,1,0.8,1c0.2,0,0.5,0,0.7-0.1L85.5,315.3L85.5,315.3z"/>
	<path class="st0" d="M89.8,315.6c-2.3,0-3.7-1.5-3.7-4c0-2.5,1.5-3.9,3.8-3.9c2.2,0,3.6,1.5,3.6,4C93.5,314.2,92,315.6,89.8,315.6z
		 M89.9,309.1c-1.1,0-1.9,0.9-1.9,2.4c0,1.7,0.8,2.5,1.9,2.5c1.1,0,1.9-0.8,1.9-2.5C91.7,310,91,309.1,89.9,309.1z"/>
	<path class="st0" d="M94.9,315.4v-7.5h1.7v1.1c0.4-0.8,1-1.2,2.1-1.2c0.2,0,0.4,0,0.6,0.1v1.8c-0.3-0.1-0.5-0.2-0.8-0.2
		c-0.6,0-1.1,0.2-1.4,0.7c-0.3,0.4-0.4,0.9-0.4,1.7v3.5L94.9,315.4L94.9,315.4z"/>
</g>
<g>
	<path class="st0" d="M224.1,104.8h3.3c1.9,0,2.7,0.1,3.5,0.5c1.5,0.7,2.1,2.5,2.1,4.7c0,1.7-0.5,3.2-1.4,4.1c-1,1-2.2,1.3-4.4,1.3
		h-3.1L224.1,104.8L224.1,104.8z M227.4,113.7c1.4,0,2.3-0.3,2.9-0.9c0.6-0.6,0.8-1.6,0.8-2.9c0-1.1-0.2-2.1-0.8-2.7
		c-0.5-0.5-1.1-0.8-2.6-0.8H226v7.3C226,113.7,227.4,113.7,227.4,113.7z"/>
	<path class="st0" d="M241.1,113.5c-0.6,1.3-1.7,2.1-3.2,2.1c-2.4,0-3.7-1.6-3.7-4c0-2.4,1.4-3.9,3.6-3.9c2.4,0,3.4,1.7,3.4,4.4
		h-5.2c0.1,1.3,0.8,2,1.9,2c0.8,0,1.4-0.3,1.7-1.2L241.1,113.5z M239.4,110.8c-0.1-1.2-0.7-1.8-1.6-1.8s-1.7,0.6-1.8,1.8H239.4z"/>
	<path class="st0" d="M243.2,113c0.4,0.8,1.1,1.2,1.9,1.2c0.8,0,1.2-0.3,1.2-0.8c0-0.5-0.2-0.7-1.4-1.1l-0.8-0.2
		c-1.2-0.4-1.9-1-1.9-2.2c0-1.2,1.1-2.2,2.9-2.2c1.2,0,2.3,0.4,2.9,1.5l-1.3,0.9c-0.4-0.7-0.9-1.1-1.7-1.1c-0.8,0-1.1,0.3-1.1,0.7
		c0,0.4,0.2,0.7,1.2,1l0.8,0.2c1.3,0.4,2.1,1,2.1,2.2c0,1.4-1.2,2.4-3,2.4c-1.5,0-2.6-0.7-3.2-1.7L243.2,113z"/>
	<path class="st0" d="M254.3,115.4l-2.1-3.4l-1.1,1.2v2.2h-1.8v-10.6h1.8v6.3l2.8-3.2h2.1l-2.6,2.8l2.9,4.6L254.3,115.4L254.3,115.4
		z"/>
	<path class="st0" d="M256.3,111.5v-1.4h4.3v1.4H256.3z"/>
	<path class="st0" d="M264.4,104.8c2.3,3.9,3.7,6,4.7,7.8c-0.1-1.6-0.1-3.8-0.1-7.8h1.9v10.6h-2.1c-2.2-3.6-3.6-5.9-4.7-7.8
		c0,0.9,0.1,2.9,0.1,7.8h-1.9v-10.6C262.2,104.8,264.4,104.8,264.4,104.8z"/>
	<path class="st0" d="M279.3,113.5c-0.5,1.3-1.7,2.1-3.2,2.1c-2.4,0-3.7-1.6-3.7-4c0-2.4,1.4-3.9,3.6-3.9c2.4,0,3.4,1.7,3.4,4.4
		h-5.2c0.1,1.3,0.8,2,2,2c0.8,0,1.4-0.3,1.7-1.2L279.3,113.5z M277.5,110.8c-0.1-1.2-0.7-1.8-1.6-1.8s-1.7,0.6-1.8,1.8H277.5z"/>
	<path class="st0" d="M284.4,115.3c-0.4,0.1-0.9,0.2-1.3,0.2c-0.7,0-1.2-0.2-1.5-0.5c-0.3-0.4-0.4-0.9-0.4-1.6v-4.1h-1.2v-1.4h1.2
		v-2.4h1.7v2.4h1.5v1.4h-1.5v3.7c0,0.8,0.2,1,0.8,1c0.2,0,0.5,0,0.7-0.1L284.4,115.3L284.4,115.3z"/>
</g>
<g>
	<path class="st0" d="M331.9,108.1c-0.3-1.2-1-1.9-2.2-1.9c-1.9,0-3,1.4-3,3.7c0,2.4,1.1,4,3,4c1.2,0,2.1-0.7,2.4-1.9l1.8,0.7
		c-0.7,1.9-2.2,3-4.3,3c-3,0-4.9-2.1-4.9-5.6s2-5.5,5-5.5c2.1,0,3.5,1.1,4,2.9L331.9,108.1z"/>
	<path class="st0" d="M339.8,115.4v-4.3c0-0.6-0.1-1.1-0.3-1.4c-0.2-0.2-0.5-0.4-1-0.4c-0.5,0-1,0.2-1.3,0.7
		c-0.4,0.5-0.4,1.1-0.4,1.8v3.6h-1.8v-10.6h1.7v4.2c0.5-0.8,1.4-1.2,2.5-1.2c0.9,0,1.5,0.3,1.8,0.8c0.3,0.5,0.5,1,0.5,2.2v4.6H339.8
		z"/>
	<path class="st0" d="M347.6,110.3c0-0.4-0.1-0.7-0.3-0.9c-0.2-0.2-0.6-0.3-1-0.3c-0.9,0-1.3,0.5-1.4,1.3l-1.7-0.2
		c0.1-1.6,1.3-2.5,3.2-2.5c1,0,1.7,0.2,2.2,0.7c0.5,0.4,0.6,1.1,0.6,2.2v2.7c0,0.9,0.1,1.6,0.2,2h-1.7c-0.1-0.2-0.1-0.7-0.1-0.9
		c-0.6,0.7-1.4,1.1-2.5,1.1c-1.4,0-2.3-0.8-2.3-2.2c0-1,0.5-1.6,1.4-2c0.7-0.3,2.2-0.5,3.4-0.6L347.6,110.3L347.6,110.3z
		 M347.6,111.9c-0.9,0-1.9,0.2-2.4,0.4c-0.5,0.2-0.6,0.5-0.6,0.9c0,0.5,0.4,0.9,1.1,0.9c0.7,0,1.2-0.3,1.6-0.8
		c0.2-0.3,0.3-0.8,0.3-1.2V111.9z"/>
	<path class="st0" d="M351,115.4v-7.5h1.7v1.2c0.5-0.8,1-1.2,2.1-1.2c0.2,0,0.4,0,0.6,0.1v1.8c-0.3-0.2-0.5-0.2-0.8-0.2
		c-0.6,0-1.1,0.2-1.4,0.7c-0.2,0.4-0.4,0.9-0.4,1.7v3.5L351,115.4L351,115.4z"/>
	<path class="st0" d="M360.2,115.3c-0.4,0.1-0.9,0.2-1.3,0.2c-0.7,0-1.2-0.2-1.5-0.5c-0.3-0.4-0.4-0.9-0.4-1.6v-4.1h-1.2v-1.4h1.2
		v-2.4h1.7v2.4h1.5v1.4h-1.5v3.7c0,0.8,0.2,1,0.8,1c0.2,0,0.5,0,0.7-0.1V115.3z"/>
	<path class="st0" d="M363,104.8v4.1c0.5-0.7,1.3-1.2,2.3-1.2c1.8,0,2.9,1.5,2.9,3.9c0,2.4-1.2,3.9-3.1,3.9c-1,0-1.7-0.4-2.2-1.1v1
		h-1.7v-10.6C361.3,104.8,363,104.8,363,104.8z M364.7,114c1,0,1.7-0.8,1.7-2.4c0-1.5-0.6-2.4-1.6-2.4c-1.1,0-1.8,0.9-1.8,2.3
		C363,113.1,363.6,114,364.7,114z"/>
	<path class="st0" d="M376.2,113.5c-0.5,1.3-1.7,2.1-3.2,2.1c-2.4,0-3.7-1.6-3.7-4c0-2.4,1.4-3.9,3.6-3.9c2.4,0,3.4,1.7,3.4,4.4H371
		c0.1,1.3,0.8,2,2,2c0.8,0,1.4-0.3,1.7-1.2L376.2,113.5z M374.5,110.8c-0.1-1.2-0.7-1.8-1.6-1.8s-1.7,0.6-1.8,1.8H374.5z"/>
	<path class="st0" d="M381.9,110.3c0-0.4-0.1-0.7-0.3-0.9c-0.2-0.2-0.6-0.3-1-0.3c-0.9,0-1.3,0.5-1.4,1.3l-1.7-0.2
		c0.1-1.6,1.3-2.5,3.2-2.5c1,0,1.7,0.2,2.2,0.7c0.5,0.4,0.6,1.1,0.6,2.2v2.7c0,0.9,0.1,1.6,0.2,2h-1.7c-0.1-0.2-0.1-0.7-0.1-0.9
		c-0.6,0.7-1.4,1.1-2.4,1.1c-1.4,0-2.3-0.8-2.3-2.2c0-1,0.5-1.6,1.4-2c0.7-0.3,2.2-0.5,3.4-0.6L381.9,110.3L381.9,110.3z
		 M381.9,111.9c-0.9,0-1.9,0.2-2.4,0.4c-0.5,0.2-0.6,0.5-0.6,0.9c0,0.5,0.4,0.9,1.1,0.9c0.7,0,1.2-0.3,1.6-0.8
		c0.2-0.3,0.3-0.8,0.3-1.2V111.9z"/>
	<path class="st0" d="M389,115.3c-0.4,0.1-0.9,0.2-1.3,0.2c-0.7,0-1.2-0.2-1.5-0.5c-0.3-0.4-0.4-0.9-0.4-1.6v-4.1h-1.2v-1.4h1.2
		v-2.4h1.7v2.4h1.5v1.4h-1.5v3.7c0,0.8,0.2,1,0.8,1c0.2,0,0.5,0,0.7-0.1V115.3z"/>
</g>
<g>
	<path class="st0" d="M225.1,297.4v-10.6h1.9v8.9h5v1.6H225.1z"/>
	<path class="st0" d="M233.3,288.4v-1.6h1.8v1.6H233.3z M235.1,297.4h-1.8v-7.5h1.8V297.4z"/>
	<path class="st0" d="M238.7,297.4l-2.7-7.5h1.9c0.9,2.5,1.4,4.1,1.8,5.7c0.4-1.5,0.9-3.1,1.8-5.7h1.9l-2.7,7.5H238.7z"/>
	<path class="st0" d="M244.4,288.4v-1.6h1.8v1.6H244.4z M246.1,297.4h-1.8v-7.5h1.8V297.4z"/>
	<path class="st0" d="M252.7,297.4v-4.3c0-0.6-0.1-1-0.3-1.3c-0.2-0.3-0.5-0.4-1-0.4s-1,0.2-1.3,0.7c-0.4,0.5-0.4,1-0.4,1.8v3.6H248
		v-7.5h1.7v1.1c0.5-0.8,1.4-1.2,2.5-1.2c0.9,0,1.5,0.3,1.9,0.9c0.3,0.5,0.4,1,0.4,2v4.7L252.7,297.4L252.7,297.4z"/>
	<path class="st0" d="M261,296.3c-0.5,0.6-1.2,1-2.2,1c-1.8,0-3-1.4-3-3.8c0-2.3,1.3-3.8,3.1-3.8c1,0,1.8,0.4,2.2,1v-0.9h1.7v7
		c0,1.5-0.4,2.5-1.2,3.1c-0.6,0.4-1.4,0.6-2.4,0.6c-1.8,0-3-0.8-3.3-2.3l1.8-0.3c0.1,0.8,0.7,1.2,1.5,1.2c0.7,0,1.2-0.2,1.4-0.6
		c0.2-0.3,0.3-0.8,0.3-1.5L261,296.3L261,296.3z M259.4,291.2c-1.1,0-1.8,0.8-1.8,2.3c0,1.5,0.7,2.4,1.7,2.4c1,0,1.7-0.7,1.7-2.2
		C261,292.1,260.5,291.2,259.4,291.2z"/>
	<path class="st0" d="M269.5,297.4v-1c-0.5,0.7-1.2,1.2-2.2,1.2c-1.7,0-3-1.3-3-3.9c0-2.5,1.4-3.9,3.1-3.9c1.1,0,1.7,0.4,2.1,1v-3.9
		h1.7v10.6L269.5,297.4L269.5,297.4z M267.8,291.2c-1,0-1.7,0.8-1.7,2.4c0,1.5,0.6,2.5,1.7,2.5s1.8-0.8,1.8-2.4
		C269.5,292.1,268.8,291.2,267.8,291.2z"/>
	<path class="st0" d="M276.3,297.6c-2.3,0-3.7-1.5-3.7-4c0-2.5,1.5-3.9,3.8-3.9c2.2,0,3.5,1.5,3.5,4
		C279.9,296.2,278.5,297.6,276.3,297.6z M276.3,291.1c-1.1,0-1.9,0.9-1.9,2.4c0,1.7,0.8,2.5,1.9,2.5c1.1,0,1.9-0.8,1.9-2.5
		C278.2,292,277.4,291.1,276.3,291.1z"/>
	<path class="st0" d="M286,292.5c-0.2-1-0.8-1.3-1.5-1.3c-1,0-1.8,0.8-1.8,2.4c0,1.6,0.7,2.5,1.8,2.5c0.8,0,1.3-0.4,1.5-1.2l1.6,0.5
		c-0.4,1.2-1.4,2.1-3.1,2.1c-2.2,0-3.5-1.5-3.5-4c0-2.4,1.4-3.9,3.6-3.9c1.6,0,2.6,0.9,3,2.2L286,292.5z"/>
	<path class="st0" d="M289.4,295c0.4,0.8,1.1,1.2,1.9,1.2c0.8,0,1.2-0.3,1.2-0.8c0-0.5-0.2-0.7-1.4-1.1l-0.8-0.2
		c-1.2-0.4-1.9-1-1.9-2.2c0-1.2,1-2.2,2.9-2.2c1.2,0,2.3,0.5,2.9,1.5l-1.3,0.9c-0.4-0.7-1-1-1.7-1c-0.8,0-1.1,0.3-1.1,0.7
		c0,0.5,0.2,0.7,1.2,1l0.8,0.2c1.3,0.4,2.1,1,2.1,2.2c0,1.4-1.2,2.4-3,2.4c-1.5,0-2.6-0.7-3.2-1.7L289.4,295z"/>
	<path class="st0" d="M225.9,312.1c0.6,1.3,1.6,1.9,2.8,1.9c1.3,0,2-0.5,2-1.3c0-0.8-0.5-1-2-1.6l-1.1-0.4c-1.8-0.6-2.6-1.5-2.6-3
		c0-1.8,1.6-3.1,3.8-3.1c1.8,0,3.2,0.8,4.1,2.2l-1.5,1.1c-0.7-1.2-1.6-1.6-2.7-1.6c-1.1,0-1.6,0.5-1.6,1.2c0,0.7,0.4,1,1.8,1.5
		l1.2,0.4c2,0.6,2.9,1.5,2.9,3.1c0,1.9-1.6,3.2-4,3.2c-1.9,0-3.5-0.9-4.3-2.4L225.9,312.1z"/>
	<path class="st0" d="M240.7,313.5c-0.6,1.4-1.7,2.1-3.2,2.1c-2.4,0-3.7-1.6-3.7-4c0-2.4,1.4-3.9,3.6-3.9c2.4,0,3.4,1.7,3.4,4.4
		h-5.2c0.1,1.3,0.8,2,1.9,2c0.8,0,1.4-0.3,1.7-1.2L240.7,313.5z M239,310.8c-0.1-1.2-0.7-1.8-1.6-1.8s-1.7,0.6-1.8,1.8H239z"/>
	<path class="st0" d="M242.1,315.4v-7.5h1.7v1.1c0.4-0.8,1-1.2,2.1-1.2c0.2,0,0.4,0,0.6,0.1v1.8c-0.3-0.1-0.5-0.2-0.8-0.2
		c-0.6,0-1.1,0.2-1.4,0.7c-0.3,0.4-0.4,0.9-0.4,1.7v3.5L242.1,315.4L242.1,315.4z"/>
	<path class="st0" d="M249.5,315.4l-2.7-7.5h1.9c0.9,2.5,1.4,4.1,1.8,5.7c0.4-1.5,0.9-3.1,1.8-5.7h1.9l-2.7,7.5H249.5z"/>
	<path class="st0" d="M261.5,313.5c-0.5,1.4-1.7,2.1-3.3,2.1c-2.4,0-3.7-1.6-3.7-4c0-2.4,1.4-3.9,3.6-3.9c2.4,0,3.4,1.7,3.4,4.4
		h-5.2c0.1,1.3,0.8,2,2,2c0.8,0,1.4-0.3,1.7-1.2L261.5,313.5z M259.8,310.8c-0.1-1.2-0.7-1.8-1.6-1.8s-1.7,0.6-1.8,1.8H259.8z"/>
	<path class="st0" d="M262.9,315.4v-7.5h1.7v1.1c0.5-0.8,1-1.2,2.1-1.2c0.2,0,0.4,0,0.6,0.1v1.8c-0.3-0.1-0.5-0.2-0.8-0.2
		c-0.6,0-1.1,0.2-1.4,0.7c-0.3,0.4-0.4,0.9-0.4,1.7v3.5L262.9,315.4L262.9,315.4z"/>
</g>
<g>
	<path class="st0" d="M70.1,644.4c-1.2-4.6-1.6-6.1-2-8c-0.4,1.9-0.8,3.4-2.2,8h-2l-2.8-10.6h2c0.7,3,1.3,5.4,1.9,8.2
		c0.5-2.2,0.9-4,2-8.2H69c0.8,3.2,1.6,6,2.1,8.2c0.2-1.2,0.7-3.6,1.8-8.2h2l-2.8,10.6H70.1z"/>
	<path class="st0" d="M78.4,644.6c-2.3,0-3.7-1.5-3.7-4c0-2.5,1.5-3.9,3.8-3.9c2.2,0,3.6,1.5,3.6,4C82,643.2,80.6,644.6,78.4,644.6z
		 M78.4,638.2c-1.1,0-1.9,0.9-1.9,2.4c0,1.7,0.8,2.5,1.9,2.5c1.1,0,1.9-0.8,1.9-2.5C80.3,639,79.6,638.2,78.4,638.2z"/>
	<path class="st0" d="M86.7,644.6c-2.3,0-3.7-1.5-3.7-4c0-2.5,1.5-3.9,3.8-3.9c2.2,0,3.6,1.5,3.6,4
		C90.4,643.2,88.9,644.6,86.7,644.6z M86.8,638.2c-1.1,0-1.9,0.9-1.9,2.4c0,1.7,0.8,2.5,1.9,2.5c1.1,0,1.9-0.8,1.9-2.5
		C88.6,639,87.9,638.2,86.8,638.2z"/>
	<path class="st0" d="M96.6,644.4v-1c-0.5,0.7-1.2,1.2-2.2,1.2c-1.7,0-3-1.3-3-3.9c0-2.5,1.4-3.9,3.1-3.9c1.1,0,1.7,0.4,2.1,1v-3.9
		h1.7v10.6L96.6,644.4L96.6,644.4z M94.9,638.2c-1,0-1.7,0.8-1.7,2.4c0,1.5,0.6,2.5,1.7,2.5c1,0,1.8-0.8,1.8-2.4
		C96.6,639.1,96,638.2,94.9,638.2z"/>
	<path class="st0" d="M99.9,640.5v-1.4h4.3v1.4H99.9z"/>
	<path class="st0" d="M68.2,662.4c-0.5-2-1-3.8-1.3-5.5c-0.3,1.4-0.7,2.8-1.4,5.5h-2l-2.2-7.5h1.9c0.5,2,1.1,4.2,1.5,5.6
		c0.3-1.4,0.6-2.9,1.4-5.6h1.8c0.6,2.4,1,4,1.4,5.6c0.4-1.6,0.9-3.7,1.5-5.6h1.8l-2.3,7.5H68.2z"/>
	<path class="st0" d="M73.3,653.4v-1.7h1.8v1.7H73.3z M75.1,662.4h-1.8v-7.5h1.8V662.4z"/>
	<path class="st0" d="M81.6,662.4v-4.3c0-0.6-0.1-1-0.3-1.3c-0.2-0.3-0.5-0.4-1-0.4s-1,0.3-1.3,0.7c-0.4,0.5-0.4,1-0.4,1.8v3.6h-1.8
		v-7.5h1.7v1.1c0.5-0.8,1.4-1.2,2.5-1.2c0.9,0,1.5,0.3,1.9,0.9c0.3,0.5,0.4,1,0.4,2v4.7H81.6z"/>
	<path class="st0" d="M89.9,661.3c-0.5,0.7-1.2,1-2.2,1c-1.8,0-3-1.4-3-3.8c0-2.3,1.3-3.8,3.1-3.8c1,0,1.8,0.4,2.2,1v-0.9h1.7v7
		c0,1.5-0.4,2.5-1.2,3.1c-0.6,0.4-1.4,0.6-2.4,0.6c-1.8,0-3-0.8-3.3-2.3l1.8-0.3c0.1,0.8,0.7,1.2,1.5,1.2c0.7,0,1.2-0.2,1.4-0.6
		c0.2-0.3,0.3-0.8,0.3-1.5L89.9,661.3L89.9,661.3z M88.3,656.2c-1.1,0-1.8,0.8-1.8,2.3c0,1.5,0.7,2.4,1.7,2.4c1,0,1.7-0.7,1.7-2.2
		C90,657.2,89.4,656.2,88.3,656.2z"/>
</g>
<g>
	<path class="st0" d="M65.8,555.4v-4.3c0-0.6-0.1-1.1-0.3-1.4c-0.2-0.2-0.5-0.4-1-0.4c-0.5,0-1,0.3-1.3,0.7c-0.4,0.5-0.4,1-0.4,1.8
		v3.6h-1.8v-10.6h1.7v4.2c0.5-0.8,1.4-1.2,2.5-1.2c0.9,0,1.5,0.3,1.8,0.8c0.3,0.5,0.4,1,0.4,2.2v4.6H65.8z"/>
	<path class="st0" d="M71,547.9v4.3c0,0.5,0.1,0.9,0.2,1.2c0.2,0.4,0.6,0.6,1.1,0.6c0.5,0,0.9-0.2,1.2-0.6c0.3-0.4,0.5-0.9,0.5-1.6
		v-3.9h1.8v7.5H74v-1.1c-0.5,0.7-1.3,1.2-2.3,1.2c-1,0-1.5-0.3-2-0.9c-0.3-0.5-0.5-1.1-0.5-2v-4.7L71,547.9L71,547.9z"/>
	<path class="st0" d="M84.9,555.4v-1.2c-0.7,1-1.8,1.4-3.1,1.4c-2.7,0-4.6-2.1-4.6-5.4c0-3.2,1.9-5.7,5.2-5.7c2.1,0,3.5,1,4.2,2.8
		l-1.9,0.7c-0.3-1.1-1.1-1.8-2.3-1.8c-2,0-3.2,1.5-3.2,3.8c0,2.5,1.3,3.8,3.1,3.8c1.7,0,2.5-1,2.6-2.8h-3v-1.6h4.7v5.8L84.9,555.4
		L84.9,555.4z"/>
	<path class="st0" d="M88.3,550c0-3.3,2-5.5,5-5.5c2.9,0,4.8,2.2,4.8,5.6c0,3.5-1.9,5.5-4.8,5.5C90.2,555.6,88.3,553.4,88.3,550z
		 M93.2,546.2c-1.8,0-3,1.4-3,3.7c0,2.5,1.2,3.9,3,3.9c1.7,0,2.8-1.3,2.8-3.8C96.1,547.6,94.9,546.2,93.2,546.2z"/>
	<path class="st0" d="M103.5,554.9v-3.3h-3.3v-1.7h3.3v-3.4h1.8v3.4h3.3v1.7h-3.3v3.3H103.5z"/>
</g>
<g>
	<path class="st0" d="M325.1,297.4v-10.6h1.9v8.9h5v1.6H325.1z"/>
	<path class="st0" d="M333.3,288.4v-1.6h1.8v1.6H333.3z M335.1,297.4h-1.8v-7.5h1.8V297.4z"/>
	<path class="st0" d="M338.7,297.4l-2.7-7.5h2c0.9,2.5,1.4,4.1,1.8,5.7c0.4-1.5,0.9-3.1,1.8-5.7h1.9l-2.7,7.5H338.7z"/>
	<path class="st0" d="M344.4,288.4v-1.6h1.8v1.6H344.4z M346.1,297.4h-1.8v-7.5h1.8V297.4z"/>
	<path class="st0" d="M352.7,297.4v-4.3c0-0.6-0.1-1-0.3-1.3c-0.2-0.3-0.5-0.4-1-0.4s-1,0.2-1.3,0.7c-0.4,0.5-0.4,1-0.4,1.8v3.6H348
		v-7.5h1.7v1.1c0.5-0.8,1.4-1.2,2.5-1.2c0.9,0,1.5,0.3,1.9,0.9c0.3,0.5,0.4,1,0.4,2v4.7L352.7,297.4L352.7,297.4z"/>
	<path class="st0" d="M361,296.3c-0.5,0.6-1.2,1-2.2,1c-1.8,0-3-1.4-3-3.8c0-2.3,1.3-3.8,3.1-3.8c1,0,1.8,0.4,2.2,1v-0.9h1.7v7
		c0,1.5-0.4,2.5-1.2,3.1c-0.6,0.4-1.4,0.6-2.4,0.6c-1.8,0-3-0.8-3.3-2.3l1.9-0.3c0.1,0.8,0.7,1.2,1.5,1.2c0.7,0,1.2-0.2,1.4-0.6
		c0.2-0.3,0.3-0.8,0.3-1.5L361,296.3L361,296.3z M359.4,291.2c-1.1,0-1.8,0.8-1.8,2.3c0,1.5,0.7,2.4,1.7,2.4c1,0,1.7-0.7,1.7-2.2
		C361,292.1,360.5,291.2,359.4,291.2z"/>
	<path class="st0" d="M369.5,297.4v-1c-0.5,0.7-1.2,1.2-2.2,1.2c-1.7,0-3-1.3-3-3.9c0-2.5,1.4-3.9,3.1-3.9c1.1,0,1.7,0.4,2.1,1v-3.9
		h1.7v10.6L369.5,297.4L369.5,297.4z M367.8,291.2c-1,0-1.7,0.8-1.7,2.4c0,1.5,0.6,2.5,1.7,2.5s1.8-0.8,1.8-2.4
		C369.5,292.1,368.8,291.2,367.8,291.2z"/>
	<path class="st0" d="M376.3,297.6c-2.3,0-3.7-1.5-3.7-4c0-2.5,1.5-3.9,3.8-3.9c2.2,0,3.5,1.5,3.5,4
		C379.9,296.2,378.5,297.6,376.3,297.6z M376.3,291.1c-1.1,0-1.9,0.9-1.9,2.4c0,1.7,0.8,2.5,1.9,2.5c1.1,0,1.9-0.8,1.9-2.5
		C378.2,292,377.4,291.1,376.3,291.1z"/>
	<path class="st0" d="M386,292.5c-0.2-1-0.8-1.3-1.5-1.3c-1,0-1.8,0.8-1.8,2.4c0,1.6,0.7,2.5,1.8,2.5c0.8,0,1.3-0.4,1.5-1.2l1.6,0.5
		c-0.4,1.2-1.4,2.1-3.1,2.1c-2.2,0-3.5-1.5-3.5-4c0-2.4,1.4-3.9,3.6-3.9c1.6,0,2.6,0.9,3,2.2L386,292.5z"/>
	<path class="st0" d="M389.4,295c0.4,0.8,1.1,1.2,1.9,1.2c0.8,0,1.2-0.3,1.2-0.8c0-0.5-0.2-0.7-1.4-1.1l-0.8-0.2
		c-1.2-0.4-1.9-1-1.9-2.2c0-1.2,1-2.2,2.9-2.2c1.2,0,2.3,0.5,2.9,1.5l-1.3,0.9c-0.4-0.7-1-1-1.7-1c-0.8,0-1.1,0.3-1.1,0.7
		c0,0.5,0.2,0.7,1.2,1l0.8,0.2c1.3,0.4,2.1,1,2.1,2.2c0,1.4-1.2,2.4-3,2.4c-1.5,0-2.6-0.7-3.2-1.7L389.4,295z"/>
	<path class="st0" d="M325.1,315.4v-10.6h4.4c1.5,0,2.3,0.2,2.9,0.6c0.8,0.6,1.1,1.5,1.1,2.6c0,1.2-0.4,2.2-1.4,2.8
		c-0.8,0.4-1.9,0.6-3.1,0.6H327v4L325.1,315.4L325.1,315.4z M328.9,309.8c1,0,1.7-0.1,2.1-0.4c0.4-0.3,0.5-0.7,0.5-1.3
		c0-0.5-0.2-1-0.5-1.3c-0.4-0.3-0.9-0.4-2-0.4h-2v3.4H328.9z"/>
	<path class="st0" d="M336,307.9v4.3c0,0.5,0.1,0.9,0.2,1.2c0.2,0.4,0.6,0.6,1.1,0.6c0.5,0,0.9-0.2,1.2-0.6c0.3-0.4,0.5-0.9,0.5-1.6
		v-3.9h1.8v7.5H339v-1.1c-0.5,0.7-1.3,1.2-2.3,1.2c-1,0-1.5-0.3-2-0.9c-0.3-0.5-0.5-1.1-0.5-2v-4.7L336,307.9L336,307.9z"/>
	<path class="st0" d="M344.3,304.8v4.1c0.5-0.6,1.3-1.1,2.3-1.1c1.8,0,2.9,1.5,2.9,3.9c0,2.4-1.2,3.9-3.1,3.9c-1,0-1.7-0.4-2.2-1.1
		v1h-1.7v-10.6L344.3,304.8L344.3,304.8z M346,314c1,0,1.7-0.8,1.7-2.4c0-1.5-0.6-2.4-1.6-2.4c-1.1,0-1.8,0.9-1.8,2.3
		C344.2,313.1,344.9,314,346,314z"/>
	<path class="st0" d="M352.7,315.4h-1.8v-10.6h1.8V315.4z"/>
	<path class="st0" d="M354.5,306.4v-1.6h1.8v1.6H354.5z M356.3,315.4h-1.8v-7.5h1.8V315.4z"/>
	<path class="st0" d="M358.8,313c0.4,0.8,1.1,1.2,1.9,1.2c0.8,0,1.2-0.3,1.2-0.8c0-0.5-0.3-0.7-1.4-1.1l-0.8-0.2
		c-1.1-0.4-1.9-1-1.9-2.2c0-1.2,1-2.2,2.9-2.2c1.2,0,2.3,0.5,2.9,1.5l-1.3,0.9c-0.4-0.7-1-1-1.7-1c-0.8,0-1.1,0.3-1.1,0.7
		c0,0.5,0.2,0.7,1.2,1l0.8,0.2c1.3,0.4,2.1,1,2.1,2.2c0,1.4-1.1,2.4-3,2.4c-1.5,0-2.6-0.7-3.2-1.7L358.8,313z"/>
	<path class="st0" d="M369.7,315.4v-4.3c0-0.6-0.1-1.1-0.3-1.4c-0.2-0.2-0.5-0.4-1-0.4c-0.5,0-1,0.2-1.3,0.7c-0.4,0.5-0.4,1-0.4,1.8
		v3.6H365v-10.6h1.7v4.2c0.5-0.8,1.4-1.2,2.5-1.2c0.9,0,1.5,0.3,1.8,0.8c0.3,0.5,0.5,1,0.5,2.2v4.6L369.7,315.4L369.7,315.4z"/>
	<path class="st0" d="M379.7,313.5c-0.5,1.4-1.7,2.1-3.2,2.1c-2.4,0-3.7-1.6-3.7-4c0-2.4,1.4-3.9,3.6-3.9c2.4,0,3.4,1.7,3.4,4.4
		h-5.2c0.1,1.3,0.8,2,2,2c0.8,0,1.4-0.3,1.7-1.2L379.7,313.5z M378,310.8c-0.1-1.2-0.7-1.8-1.6-1.8s-1.7,0.6-1.8,1.8H378z"/>
	<path class="st0" d="M381.1,315.4v-7.5h1.7v1.1c0.5-0.8,1-1.2,2.1-1.2c0.2,0,0.4,0,0.6,0.1v1.8c-0.3-0.1-0.5-0.2-0.8-0.2
		c-0.6,0-1.1,0.2-1.4,0.7c-0.2,0.4-0.4,0.9-0.4,1.7v3.5L381.1,315.4L381.1,315.4z"/>
</g>
<g>
	<path class="st0" d="M286.1,655.4v-10.6h4.4c1.5,0,2.3,0.2,2.9,0.6c0.8,0.5,1.1,1.5,1.1,2.6c0,1.2-0.4,2.2-1.4,2.8
		c-0.8,0.4-1.9,0.6-3.1,0.6H288v4L286.1,655.4L286.1,655.4z M289.9,649.8c1,0,1.7-0.1,2.1-0.4c0.4-0.3,0.5-0.7,0.5-1.3
		c0-0.5-0.2-1-0.5-1.3c-0.4-0.3-0.9-0.4-2-0.4h-2v3.4L289.9,649.8L289.9,649.8z"/>
	<path class="st0" d="M298.4,655.6c-2.3,0-3.7-1.5-3.7-4c0-2.5,1.5-3.9,3.8-3.9c2.2,0,3.5,1.5,3.5,4
		C302,654.2,300.6,655.6,298.4,655.6z M298.5,649.2c-1.1,0-1.9,0.9-1.9,2.4c0,1.7,0.8,2.5,1.9,2.5s1.9-0.8,1.9-2.5
		C300.3,650,299.6,649.2,298.5,649.2z"/>
	<path class="st0" d="M304.1,653c0.4,0.8,1.1,1.2,1.9,1.2c0.8,0,1.2-0.3,1.2-0.8c0-0.5-0.2-0.7-1.4-1.1l-0.8-0.2
		c-1.2-0.4-1.9-1-1.9-2.2c0-1.2,1-2.2,2.9-2.2c1.2,0,2.3,0.5,2.9,1.5l-1.3,0.9c-0.4-0.7-1-1-1.7-1c-0.8,0-1.1,0.3-1.1,0.7
		c0,0.5,0.2,0.7,1.2,1l0.8,0.2c1.3,0.4,2.1,1,2.1,2.2c0,1.4-1.2,2.4-3,2.4c-1.5,0-2.6-0.7-3.2-1.7L304.1,653z"/>
	<path class="st0" d="M314,655.3c-0.4,0.1-0.9,0.2-1.3,0.2c-0.7,0-1.2-0.2-1.5-0.5c-0.3-0.4-0.4-0.9-0.4-1.6v-4.1h-1.2v-1.4h1.2
		v-2.4h1.7v2.4h1.5v1.4h-1.5v3.7c0,0.8,0.2,1,0.8,1c0.2,0,0.5,0,0.7-0.1V655.3z"/>
	<path class="st0" d="M314.7,651.5v-1.4h4.3v1.4H314.7z"/>
	<path class="st0" d="M320.7,655.4v-10.6h4.4c1.5,0,2.3,0.2,2.9,0.6c0.8,0.5,1.2,1.5,1.2,2.6c0,1.2-0.4,2.2-1.4,2.8
		c-0.8,0.4-1.9,0.6-3.1,0.6h-2.1v4L320.7,655.4L320.7,655.4z M324.5,649.8c1,0,1.7-0.1,2.1-0.4c0.4-0.3,0.5-0.7,0.5-1.3
		c0-0.5-0.2-1-0.5-1.3c-0.4-0.3-0.9-0.4-2-0.4h-2v3.4L324.5,649.8L324.5,649.8z"/>
	<path class="st0" d="M329.9,655.4v-7.5h1.7v1.2c0.5-0.8,1-1.2,2.1-1.2c0.2,0,0.4,0,0.6,0.1v1.8c-0.3-0.2-0.5-0.2-0.8-0.2
		c-0.6,0-1.1,0.2-1.4,0.7c-0.2,0.4-0.4,0.9-0.4,1.7v3.5L329.9,655.4L329.9,655.4z"/>
	<path class="st0" d="M338.5,655.6c-2.3,0-3.7-1.5-3.7-4c0-2.5,1.5-3.9,3.8-3.9c2.2,0,3.5,1.5,3.5,4
		C342.2,654.2,340.7,655.6,338.5,655.6z M338.6,649.2c-1.1,0-1.9,0.9-1.9,2.4c0,1.7,0.8,2.5,1.9,2.5s1.9-0.8,1.9-2.5
		C340.4,650,339.7,649.2,338.6,649.2z"/>
	<path class="st0" d="M348.4,655.4v-1c-0.5,0.7-1.2,1.2-2.2,1.2c-1.7,0-3-1.3-3-3.9c0-2.5,1.4-3.9,3.1-3.9c1.1,0,1.7,0.4,2.1,1v-3.9
		h1.7v10.6L348.4,655.4L348.4,655.4z M346.7,649.2c-1,0-1.7,0.8-1.7,2.4c0,1.5,0.6,2.5,1.7,2.5s1.8-0.8,1.8-2.4
		C348.4,650.1,347.8,649.2,346.7,649.2z"/>
	<path class="st0" d="M353.7,647.9v4.3c0,0.5,0.1,0.9,0.2,1.2c0.2,0.4,0.6,0.6,1.1,0.6c0.5,0,0.9-0.2,1.2-0.6
		c0.3-0.4,0.5-0.9,0.5-1.6v-3.9h1.8v7.5h-1.7v-1.1c-0.5,0.7-1.3,1.2-2.3,1.2c-1,0-1.5-0.3-2-0.9c-0.3-0.5-0.5-1.1-0.5-2v-4.7
		L353.7,647.9L353.7,647.9z"/>
	<path class="st0" d="M359.6,655.4v-1.1l3.7-4.9h-3.5v-1.4h5.7v1.1l-3.6,4.9h3.8v1.4L359.6,655.4L359.6,655.4z"/>
	<path class="st0" d="M373.3,653.5c-0.5,1.3-1.7,2.1-3.3,2.1c-2.4,0-3.7-1.6-3.7-4c0-2.4,1.4-3.9,3.6-3.9c2.4,0,3.4,1.7,3.4,4.4
		h-5.2c0.1,1.3,0.8,2,2,2c0.8,0,1.4-0.3,1.7-1.2L373.3,653.5z M371.5,650.8c-0.1-1.2-0.7-1.8-1.6-1.8s-1.7,0.6-1.8,1.8H371.5z"/>
	<path class="st0" d="M379.4,655.4v-4.3c0-0.6-0.1-1-0.3-1.3c-0.2-0.3-0.5-0.4-1-0.4s-1,0.3-1.3,0.7c-0.4,0.5-0.4,1-0.4,1.8v3.6
		h-1.8v-7.5h1.7v1.1c0.5-0.8,1.4-1.2,2.5-1.2c0.9,0,1.5,0.3,1.9,0.9c0.3,0.5,0.4,1,0.4,2v4.7H379.4z"/>
	<path class="st0" d="M386.6,655.3c-0.4,0.1-0.9,0.2-1.3,0.2c-0.7,0-1.2-0.2-1.5-0.5c-0.3-0.4-0.4-0.9-0.4-1.6v-4.1h-1.2v-1.4h1.2
		v-2.4h1.7v2.4h1.5v1.4h-1.5v3.7c0,0.8,0.2,1,0.8,1c0.2,0,0.5,0,0.7-0.1L386.6,655.3L386.6,655.3z"/>
</g>
</svg>
