<?xml version="1.0" encoding="utf-8"?>
<!-- Generator: Adobe Illustrator 22.1.0, SVG Export Plug-In . SVG Version: 6.00 Build 0)  -->
<svg version="1.1" id="arrows" xmlns="http://www.w3.org/2000/svg" xmlns:xlink="http://www.w3.org/1999/xlink" x="0px" y="0px"
	 viewBox="0 0 1201 727" style="enable-background:new 0 0 1201 727;" xml:space="preserve">
<style type="text/css">
	.st0{opacity:0.33;}
	.st1{fill:none;stroke:#000000;stroke-miterlimit:10;}
	.st2{fill:none;}
</style>
<g class="st0">
	<g>
		<polyline class="st1" points="789.6,151.5 1050.5,150.5 1050.5,502 		"/>
		<g>
			<polygon points="794.6,157.6 795.6,156.5 790.2,151.5 795.6,146.4 794.6,145.3 788,151.5 			"/>
		</g>
	</g>
</g>
<g class="st0">
	<g>
		<line class="st1" x1="450.5" y1="590.6" x2="450.5" y2="616"/>
		<g>
			<polygon points="444.4,595.6 445.5,596.6 450.5,591.2 455.5,596.6 456.6,595.6 450.5,589 			"/>
		</g>
	</g>
</g>
<g class="st0">
	<g>
		<line class="st1" x1="150.5" y1="313.4" x2="149.5" y2="199.5"/>
		<g>
			<polygon points="156.6,308.4 155.5,307.3 150.5,312.8 145.4,307.4 144.3,308.5 150.5,315 			"/>
		</g>
	</g>
</g>
<g class="st0">
	<g>
		<line class="st1" x1="411.4" y1="351.5" x2="188" y2="351.5"/>
		<g>
			<polygon points="406.4,345.4 405.4,346.5 410.8,351.5 405.4,356.5 406.4,357.6 413,351.5 			"/>
		</g>
	</g>
</g>
<g class="st0">
	<g>
		<line class="st1" x1="711.4" y1="351.5" x2="488" y2="351.5"/>
		<g>
			<polygon points="706.4,345.4 705.4,346.5 710.8,351.5 705.4,356.5 706.4,357.6 713,351.5 			"/>
		</g>
	</g>
</g>
<g class="st0">
	<g>
		<line class="st1" x1="696.4" y1="552.5" x2="476" y2="552.5"/>
		<g>
			<polygon points="691.4,546.4 690.4,547.5 695.8,552.5 690.4,557.5 691.4,558.6 698,552.5 			"/>
		</g>
	</g>
</g>
<g class="st0">
	<g>
		<line class="st1" x1="489.6" y1="150.5" x2="713" y2="151.5"/>
		<g>
			<polygon points="494.6,156.7 495.6,155.6 490.2,150.5 495.6,145.5 494.6,144.4 488,150.5 			"/>
		</g>
	</g>
</g>
<g class="st0">
	<g>
		<line class="st1" x1="201.6" y1="150.5" x2="413" y2="150.5"/>
		<g>
			<polygon points="206.6,156.6 207.6,155.5 202.2,150.5 207.6,145.5 206.6,144.4 200,150.5 			"/>
		</g>
	</g>
</g>
<g class="st0">
	<g>
		<line class="st1" x1="1010.1" y1="518.6" x2="775.5" y2="370.5"/>
		<g>
			<polygon points="1009.2,510.8 1007.7,511.2 1009.6,518.3 1002.4,519.7 1002.6,521.2 1011.5,519.5 			"/>
		</g>
	</g>
</g>
<g class="st0">
	<g>
		<line class="st1" x1="191" y1="539" x2="714.5" y2="364.5"/>
		<g>
			<polygon points="197.7,543.2 198.3,541.9 191.6,538.8 195.1,532.3 193.8,531.6 189.5,539.5 			"/>
		</g>
	</g>
</g>
<g class="st0">
	<g>
		<line class="st1" x1="150.5" y1="391.6" x2="150.5" y2="514"/>
		<g>
			<polygon points="144.4,396.6 145.5,397.6 150.5,392.2 155.5,397.6 156.6,396.6 150.5,390 			"/>
		</g>
	</g>
</g>
<g class="st0">
	<path class="st2" d="M176,551.5"/>
</g>
<g class="st0">
	<path class="st2" d="M426,551.5"/>
</g>
<g class="st0">
	<g>
		<line class="st1" x1="411.4" y1="552.5" x2="180" y2="552.5"/>
		<g>
			<polygon points="406.4,546.4 405.4,547.5 410.8,552.5 405.4,557.5 406.4,558.6 413,552.5 			"/>
		</g>
	</g>
</g>
</svg>
