<?xml version="1.0" encoding="utf-8"?>
<!-- Generator: Adobe Illustrator 22.1.0, SVG Export Plug-In . SVG Version: 6.00 Build 0)  -->
<svg version="1.1" id="Ebene_1" xmlns="http://www.w3.org/2000/svg" xmlns:xlink="http://www.w3.org/1999/xlink" x="0px" y="0px"
	 viewBox="0 0 75 75" style="enable-background:new 0 0 75 75;" xml:space="preserve">
<style type="text/css">
	.st0{fill:#9F9E97;}
	.st1{fill:#FFFFFF;}
</style>
<circle class="st0" cx="37.5" cy="37.5" r="37.5"/>
<g>
	<path class="st1" d="M18.2,28.7c-0.1-0.8-0.2-1.4-0.2-2c0-1.2,0-2.3,0-3.6c13.5,0,26.8,0,40.5,0c-2.2,2.2-4.4,3.9-6.5,5.6
		C40.8,28.7,29.6,28.7,18.2,28.7z"/>
	<path class="st1" d="M12.1,36.3c0-1.9,0-3.7,0-5.7c12.6,0,25.1,0,38,0c-1.3,1.1-2.4,2-3.4,2.9c-1.1,0.9-2.2,1.8-3.3,2.7
		C33.1,36.3,22.7,36.3,12.1,36.3z"/>
	<path class="st1" d="M61.7,23.1c0.4,0.3,0.7,0.6,1.3,1.1C52.7,35.6,42.5,46.8,32.4,57.9c-3.2,0.4-3.7,0-4.7-3
		c0.4-0.6,0.8-1.6,1.5-2.3C39.7,43,50.2,33.5,60.6,24C60.9,23.7,61.2,23.5,61.7,23.1z"/>
	<path class="st1" d="M23.3,38.2c5.9,0,11.7,0,17.6,0c0.1,0.1,0.1,0.3,0.2,0.4c-2,1.6-4.1,3.3-6.1,4.9c-3.8,0-7.6,0-11.7,0
		C23.3,41.5,23.3,39.8,23.3,38.2z"/>
	<path class="st1" d="M23.3,38.2c0,1.7,0,3.3,0,5.3c4.1,0,7.9,0,11.7,0c-0.5,0.1-1.1,0.4-1.6,0.4c-3.5,0-7,0-10.5,0
		c0-1.9,0-3.8,0-5.8C23.1,38.1,23.2,38.1,23.3,38.2z"/>
</g>
</svg>
