<?xml version="1.0" encoding="utf-8"?>
<!-- Generator: Adobe Illustrator 22.1.0, SVG Export Plug-In . SVG Version: 6.00 Build 0)  -->
<svg version="1.1" id="Ebene_1" xmlns="http://www.w3.org/2000/svg" xmlns:xlink="http://www.w3.org/1999/xlink" x="0px" y="0px"
	 viewBox="0 0 75 75" style="enable-background:new 0 0 75 75;" xml:space="preserve">
<style type="text/css">
	.st0{fill:#9F9E97;}
	.st1{fill:#FFFFFF;}
</style>
<circle class="st0" cx="37.5" cy="37.5" r="37.5"/>
<g id="gsyuvA_1_">
	<g>
		<path class="st1" d="M44.8,44.2c3.9,0.8,7-0.9,10.2-2.6c3.4,4.5,3.6,9.7,0.5,12.6c-4.1,1.2-7.2-1-9.6-3.8c-2.4-2.8-4.2-6-6.2-9.1
			c-0.4-0.6-0.7-1.2-1.1-2.1c2.3-3.8,4.5-7.7,7.1-11.4c2.2-3.2,5.1-5.8,8.7-7.3c1.8-0.7,3.7-1.4,5.4,0.1c1.8,1.5,1.8,3.7,1.4,5.8
			c-0.8,3.8-2.6,7.2-5,10.3c-2.6,3.5-5.9,5.9-10.3,6.7c-0.3,0.1-0.6,0.2-1,0.4C44.9,43.8,44.9,43.9,44.8,44.2z"/>
		<path class="st1" d="M36.6,39.5c-2,3.2-3.7,6.3-5.8,9.2c-1.1,1.5-2.6,2.8-4.1,4c-2,1.6-4.3,2.3-6.9,1.6c-3.4-2.6-3.3-7.8,0.3-12.6
			c3.2,1.5,6.3,3.4,10.2,2.5c-0.3-0.3-0.5-0.6-0.8-0.7c-7.9-1.6-12-7.3-14.8-14.1c-0.6-1.5-1-3.2-1-4.8c-0.1-3.8,2.4-5.6,6-4.4
			c4.4,1.5,7.6,4.6,10.1,8.3C32.3,32,34.4,35.8,36.6,39.5z"/>
	</g>
</g>
</svg>
