<?xml version="1.0" encoding="utf-8"?>
<!-- Generator: Adobe Illustrator 22.1.0, SVG Export Plug-In . SVG Version: 6.00 Build 0)  -->
<svg version="1.1" id="Formfield_Numeric_List" xmlns="http://www.w3.org/2000/svg" xmlns:xlink="http://www.w3.org/1999/xlink"
	 x="0px" y="0px" viewBox="0 0 500 500" style="enable-background:new 0 0 500 500;" xml:space="preserve">
<style type="text/css">
	.st0{fill:#525252;}
	.st1{fill:#d4d4d4;}
	.st2{fill:none;stroke:#525252;stroke-width:5;stroke-miterlimit:10;}
</style>
<g>
	<path class="st0" d="M231.6,325.3c0,7.8-1.5,11.6-6.5,16.2l-5.6-4.4c3-2.9,4.2-5.4,4.3-11.3h-3.9v-14.5h11.7V325.3z"/>
</g>
<g>
	<path class="st0" d="M281.6,277.3c0,7.8-1.5,11.6-6.5,16.2l-5.6-4.4c3-2.9,4.2-5.4,4.3-11.3h-3.9v-14.5h11.7V277.3z"/>
</g>
<g>
	<path class="st0" d="M331.6,227.3c0,7.8-1.5,11.6-6.5,16.2l-5.6-4.4c3-2.9,4.2-5.4,4.3-11.3h-3.9v-14.5h11.7V227.3z"/>
</g>
<rect x="100" y="312" class="st1" width="100" height="25"/>
<rect x="100" y="262" class="st1" width="150" height="25"/>
<rect x="100" y="212" class="st1" width="200" height="25"/>
<g>
	<path class="st0" d="M380.6,277.3c0,7.8-1.5,11.6-6.5,16.2l-5.6-4.4c3-2.9,4.2-5.4,4.3-11.3h-3.9v-14.5h11.7V277.3z"/>
</g>
<rect x="300" y="262" class="st1" width="50" height="25"/>
<g>
	<g>
		<path class="st0" d="M141.9,170.3c1.7,0.1,2.9,0.1,3.5,0.1c9.9,0,15.1-3,15.1-10.1c0-5.9-3.9-9.1-10.6-9.1
			c-5.8,0-10.6,3.6-11.8,11.1l-11.3-3.8c3-11.7,12.4-18,24-18c13.9,0,21.8,7.1,21.8,18.7c0,8.2-4.8,13.3-13.1,15.6
			c9.7,1.4,15.2,7.2,15.2,16.7c0,12.6-9.6,20.7-24.3,20.7c-13.3,0-22.3-6.3-25.5-18.4l11.4-5.1c1.6,8.8,6.5,12.7,13.1,12.7
			c7.6,0,12.5-3.8,12.5-10.3c0-7.5-5.1-10.6-16.1-10.6c-1.2,0-2.2,0-3.9,0.1V170.3z"/>
	</g>
</g>
<g>
	<line class="st2" x1="204" y1="211" x2="204" y2="141.5"/>
	<line class="st2" x1="191" y1="142.5" x2="216.5" y2="142.5"/>
	<line class="st2" x1="191" y1="208.5" x2="216.5" y2="208.5"/>
</g>
<g>
</g>
<g>
</g>
<g>
</g>
<g>
</g>
<g>
</g>
<g>
</g>
<g>
</g>
<g>
</g>
<g>
</g>
<g>
</g>
<g>
</g>
<g>
</g>
<g>
</g>
<g>
</g>
<g>
</g>
</svg>
