<?xml version="1.0" encoding="utf-8"?>
<!-- Generator: Adobe Illustrator 23.1.1, SVG Export Plug-In . SVG Version: 6.00 Build 0)  -->
<svg version="1.1" id="Plugin_Reference" xmlns="http://www.w3.org/2000/svg" xmlns:xlink="http://www.w3.org/1999/xlink" x="0px"
	 y="0px" viewBox="0 0 500 500" style="enable-background:new 0 0 500 500;" xml:space="preserve">
<style type="text/css">
	.st0{fill:#d4d4d4;}
	.st1{fill:#525252;}
</style>
<g id="Plugin_Print_Kopie">
	<polygon class="st0" points="184,350 184,350 184,149 286,149 314,174 313.7,262 324.7,262 325.1,176.7 285.7,138 173,138 173,335 
		184,335 	"/>
</g>
<polygon class="st0" points="325,177 286,177 286,138 305.5,157.5 "/>
<g>
	<path class="st1" d="M253.4,320.6c0.1,0.7,0,1.5,0.2,2.2c1.2,4.2,1.2,7.6-2.1,11.4c-3.8,4.3-2.1,11.2,2.5,15.2
		c4.4,3.9,11,4.2,15.3,0.2c5.5-5,10.7-10.2,15.8-15.6c4.6-5,4.4-11-0.1-16.5c-1.3-1.6-1.9-3.1-0.9-5c0.9-1.6,2.3-2.4,4.2-2
		c0.9,0.2,1.8,0.8,2.5,1.4c7,7.2,7.7,19,1,26.6c-5.2,5.8-10.7,11.4-16.5,16.7c-7.7,6.9-18.5,7-26.1,0.8c-7.9-6.5-10.1-17.1-4.7-26.1
		c2.2-3.6,5.5-6.6,8.3-9.8C253,320.3,253.2,320.4,253.4,320.6z"/>
	<path class="st1" d="M304.9,325.9c-0.7-3.2-1.4-5.8-1.6-8.4c-0.1-1,0.8-2.2,1.5-3.1c5-5.7,4.8-12.7-0.7-17.8
		c-4.3-4-11.5-4.2-15.7-0.1c-5.2,5-10.3,10-15.2,15.2c-4.7,4.8-4.6,11.2-0.2,16.7c1.3,1.6,2,3.3,0.8,5.2c-1,1.6-2.5,2.2-4.3,1.8
		c-1-0.3-2-0.9-2.6-1.7c-7.2-8.2-7.1-19.5,0.6-27.8c4.7-5.1,9.6-10,14.7-14.6c11.9-10.7,29.3-5.7,33.6,9.5c1.7,6,0.5,11.7-3,16.6
		C310.6,320.4,307.7,322.9,304.9,325.9z"/>
</g>
<rect x="200" y="221" class="st0" width="101" height="12"/>
<rect x="200" y="251" class="st0" width="101" height="12"/>
<rect x="199" y="280" class="st0" width="50" height="12"/>
<rect x="200" y="193" class="st0" width="101" height="12"/>
</svg>
