<?xml version="1.0" encoding="utf-8"?>
<!-- Generator: Adobe Illustrator 22.1.0, SVG Export Plug-In . SVG Version: 6.00 Build 0)  -->
<svg version="1.1" id="Formfield_String_List" xmlns="http://www.w3.org/2000/svg" xmlns:xlink="http://www.w3.org/1999/xlink"
	 x="0px" y="0px" viewBox="0 0 500 500" style="enable-background:new 0 0 500 500;" xml:space="preserve">
<style type="text/css">
	.st0{fill:#514853;}
	.st1{fill:#D4D4CE;}
	.st2{fill:none;stroke:#514853;stroke-width:5;stroke-miterlimit:10;}
</style>
<g>
	<path class="st0" d="M231.6,325.3c0,7.8-1.5,11.6-6.5,16.2l-5.6-4.4c3-2.9,4.2-5.4,4.3-11.3h-3.9v-14.5h11.7V325.3z"/>
</g>
<g>
	<path class="st0" d="M281.6,277.3c0,7.8-1.5,11.6-6.5,16.2l-5.6-4.4c3-2.9,4.2-5.4,4.3-11.3h-3.9v-14.5h11.7V277.3z"/>
</g>
<g>
	<path class="st0" d="M331.6,227.3c0,7.8-1.5,11.6-6.5,16.2l-5.6-4.4c3-2.9,4.2-5.4,4.3-11.3h-3.9v-14.5h11.7V227.3z"/>
</g>
<rect x="100" y="312" class="st1" width="100" height="25"/>
<rect x="100" y="262" class="st1" width="150" height="25"/>
<rect x="100" y="212" class="st1" width="200" height="25"/>
<g>
	<path class="st0" d="M380.6,277.3c0,7.8-1.5,11.6-6.5,16.2l-5.6-4.4c3-2.9,4.2-5.4,4.3-11.3h-3.9v-14.5h11.7V277.3z"/>
</g>
<rect x="300" y="262" class="st1" width="50" height="25"/>
<g>
	<g>
		<path class="st0" d="M173.6,209.8l-5.6-16.5h-27.9l-5.7,16.5h-13.7l26.8-70.6h14.1l25.8,70.6H173.6z M164.9,183.3
			c-4-11.5-7.4-21.1-10.7-31.4c-2.3,7.1-4.8,14.1-11,31.4H164.9z"/>
	</g>
</g>
<g>
	<line class="st2" x1="213" y1="210" x2="213" y2="140.5"/>
	<line class="st2" x1="200" y1="141.5" x2="225.5" y2="141.5"/>
	<line class="st2" x1="200" y1="207.5" x2="225.5" y2="207.5"/>
</g>
<g>
</g>
<g>
</g>
<g>
</g>
<g>
</g>
<g>
</g>
<g>
</g>
<g>
</g>
<g>
</g>
<g>
</g>
<g>
</g>
<g>
</g>
<g>
</g>
<g>
</g>
<g>
</g>
<g>
</g>
</svg>
