<?xml version="1.0" encoding="utf-8"?>
<!-- Generator: Adobe Illustrator 23.1.1, SVG Export Plug-In . SVG Version: 6.00 Build 0)  -->
<svg version="1.1" id="Plugin_Planning" xmlns="http://www.w3.org/2000/svg" xmlns:xlink="http://www.w3.org/1999/xlink" x="0px"
	 y="0px" viewBox="0 0 500 500" style="enable-background:new 0 0 500 500;" xml:space="preserve">
<style type="text/css">
	.st0{fill:#F9F9F3;}
	.st1{fill:#514853;}
</style>
<g>
	<circle class="st0" cx="250.2" cy="250.2" r="137.8"/>
	<path class="st1" d="M250.2,125c33.5,0,64.9,13,88.6,36.7c23.7,23.7,36.7,55.1,36.7,88.6s-13,64.9-36.7,88.6
		c-23.7,23.7-55.1,36.7-88.6,36.7s-64.9-13-88.6-36.7C138,315.2,125,283.7,125,250.2s13-64.9,36.7-88.6S216.8,125,250.2,125
		 M250.2,100c-83,0-150.2,67.3-150.2,150.2s67.3,150.2,150.2,150.2s150.2-67.3,150.2-150.2S333.2,100,250.2,100L250.2,100z"/>
</g>
<rect x="220" y="198.6" transform="matrix(0.5293 -0.8484 0.8484 0.5293 -42.1207 333.3362)" class="st1" width="118.7" height="12"/>
<rect x="171.8" y="242" transform="matrix(-0.9981 -6.110741e-02 6.110741e-02 -0.9981 410.9885 508.4719)" class="st1" width="83" height="12"/>
<circle class="st1" cx="250.5" cy="250.5" r="12.5"/>
</svg>
