<?xml version="1.0" encoding="utf-8"?>
<!-- Generator: Adobe Illustrator 23.1.1, SVG Export Plug-In . SVG Version: 6.00 Build 0)  -->
<svg version="1.1" id="Plugin_Language" xmlns="http://www.w3.org/2000/svg" xmlns:xlink="http://www.w3.org/1999/xlink" x="0px"
	 y="0px" viewBox="0 0 500 500" style="enable-background:new 0 0 500 500;" xml:space="preserve">
<style type="text/css">
	.st0{fill:#514853;}
	.st1{fill:#F9F9F3;}
</style>
<polygon class="st0" points="150.9,351.7 245.1,326.5 176.2,257.5 "/>
<circle class="st0" cx="250" cy="250" r="99.5"/>
<g>
	<path class="st1" d="M219.2,250.1c0,2.6-1,4.9-2.9,6.7c-1.9,1.8-4.2,2.7-6.7,2.7c-2.6,0-4.8-0.9-6.7-2.8s-2.9-4.1-2.9-6.7
		c0-2.6,0.9-4.8,2.8-6.7c1.9-1.9,4.1-2.9,6.8-2.9c2.6,0,4.8,1,6.7,2.9S219.2,247.5,219.2,250.1z M259.6,250.1c0,2.6-1,4.9-2.9,6.7
		c-1.9,1.8-4.2,2.7-6.7,2.7c-2.6,0-4.8-0.9-6.7-2.8s-2.9-4.1-2.9-6.7c0-2.6,0.9-4.8,2.8-6.7c1.9-1.9,4.1-2.9,6.8-2.9
		c2.6,0,4.8,1,6.7,2.9S259.6,247.5,259.6,250.1z M300,250.1c0,2.6-1,4.8-2.9,6.7s-4.2,2.8-6.7,2.8c-2.6,0-4.8-0.9-6.7-2.8
		s-2.9-4.1-2.9-6.7c0-2.6,0.9-4.8,2.8-6.7c1.9-1.9,4.1-2.9,6.8-2.9s4.9,1,6.8,2.9C299,245.2,300,247.5,300,250.1z"/>
</g>
</svg>
