<?xml version="1.0" encoding="utf-8"?>
<!-- Generator: Adobe Illustrator 22.1.0, SVG Export Plug-In . SVG Version: 6.00 Build 0)  -->
<svg version="1.1" id="Plugin_Push_notifications" xmlns="http://www.w3.org/2000/svg" xmlns:xlink="http://www.w3.org/1999/xlink"
	 x="0px" y="0px" viewBox="0 0 500 500" style="enable-background:new 0 0 500 500;" xml:space="preserve">
<style type="text/css">
	.st0{fill:#D4D4CE;}
	.st1{fill:#626262;}
	.st2{fill:#F9F9F3;}
</style>
<path class="st0" d="M179.8,400h-59.6c-11.2,0-20.2-9-20.2-20.2V270.2c0-11.2,9-20.2,20.2-20.2h59.6c11.2,0,20.2,9,20.2,20.2v109.6
	C200,391,191,400,179.8,400z"/>
<g>
	<circle class="st1" cx="300.5" cy="201.5" r="99.5"/>
	<polygon class="st1" points="201.9,302.7 296.1,277.5 227.2,208.5 	"/>
	<g>
		<path class="st2" d="M307.9,247.4c0,2.7-1,5.1-3,7c-2,1.9-4.3,2.9-7.1,2.9c-2.7,0-5.1-1-7.1-2.9c-2-1.9-3-4.3-3-7
			c0-2.7,1-5.1,3-7.1c2-2,4.3-3,7.1-3c2.7,0,5.1,1,7.1,3C306.9,242.3,307.9,244.7,307.9,247.4z M307.2,159.1
			c0,2.4-0.8,10.6-2.4,24.6c-1.6,14-3,27.5-4.2,40.5h-5.7c-1.1-13-2.4-26.5-4-40.5c-1.6-14-2.4-22.2-2.4-24.6c0-2.8,0.9-5.1,2.6-7
			s4-2.9,6.7-2.9c2.7,0,5,0.9,6.7,2.8C306.4,153.9,307.2,156.2,307.2,159.1z"/>
	</g>
</g>
<g>
</g>
<g>
</g>
<g>
</g>
<g>
</g>
<g>
</g>
<g>
</g>
<g>
</g>
<g>
</g>
<g>
</g>
<g>
</g>
<g>
</g>
<g>
</g>
<g>
</g>
<g>
</g>
<g>
</g>
</svg>
