<?xml version="1.0" encoding="utf-8"?>
<!-- Generator: Adobe Illustrator 22.1.0, SVG Export Plug-In . SVG Version: 6.00 Build 0)  -->
<svg version="1.1" id="Ebene_1" xmlns="http://www.w3.org/2000/svg" xmlns:xlink="http://www.w3.org/1999/xlink" x="0px" y="0px"
	 viewBox="0 0 75 75" style="enable-background:new 0 0 75 75;" xml:space="preserve">
<style type="text/css">
	.st0{fill:#141414;}
	.st1{fill:#FFFFFF;}
</style>
<circle class="st0" cx="37.5" cy="37.5" r="37.5"/>
<g id="s2N5UX_1_">
	<g>
		<path class="st1" d="M63.9,37.6c-0.3,0.3-0.6,0.6-0.9,0.8c-1.4,1.4-2.9,2.9-4.3,4.3c-0.1,0.1-0.2,0.2-0.3,0.3
			c-0.5-0.5-0.9-1-1.4-1.5c1.3-1.3,2.6-2.6,4-3.9c-1.4-1.4-2.7-2.7-4.1-4c0.5-0.6,1-1,1.5-1.5c0,0,0.1,0,0.1,0
			c0.1,0.1,0.1,0.2,0.2,0.3c1.7,1.7,3.3,3.3,5,5C63.7,37.4,63.8,37.4,63.9,37.6C63.9,37.5,63.9,37.5,63.9,37.6z"/>
		<path class="st1" d="M30.4,36.2c0,1.1,0,2.2,0,3.3c0,1.1,0,2.1,0,3.2c-0.7,0-1.3,0-1.9,0c0-3.4,0-6.7,0-10.2
			c0.5-0.1,1.1-0.2,1.6-0.3c1.8,2.2,3.5,4.4,5.3,6.6c0,0,0.1,0,0.1,0c0-2.1,0-4.3,0-6.4c0.6,0,1.2,0,1.9,0c0,3.4,0,6.7,0,10.2
			c-0.5,0.1-1,0.2-1.5,0.4C34,40.7,32.2,38.4,30.4,36.2C30.4,36.2,30.4,36.2,30.4,36.2z"/>
		<path class="st1" d="M11.9,42.6c0-3.4,0-6.8,0-10.2c0.5,0,1-0.1,1.5-0.1c1.3-0.1,2.6-0.2,3.8,0.1c2.6,0.6,4,2.7,3.8,5.3
			c-0.1,1.2-0.4,2.2-1.1,3.2c-0.9,1.3-2.2,1.9-3.7,1.9c-1.4,0.1-2.7-0.1-4.1-0.1C12,42.7,12,42.7,11.9,42.6z M14.1,40.9
			c0.5,0.1,0.9,0.1,1.3,0.1c1.6,0.1,2.7-0.7,3.2-2.2c0.2-0.7,0.3-1.5,0.1-2.2c-0.1-0.8-0.5-1.5-1.2-1.9c-1.1-0.7-2.2-0.6-3.4-0.5
			C14.1,36.5,14.1,38.7,14.1,40.9z"/>
		<path class="st1" d="M41.7,34.3c0,0.7,0,1.4,0,2.1c1.2,0,2.5,0,3.7,0c0,0.6,0,1.2,0,1.9c-1.2,0-2.4,0-3.7,0c0,0.9,0,1.7,0,2.5
			c1.5,0,2.9,0,4.4,0c0,0.6,0,1.2,0,1.9c-2.2,0-4.4,0-6.6,0c0-3.4,0-6.8,0-10.3c2.1,0,4.1,0,6.2,0c0,0.6,0,1.2,0,1.8
			C44.4,34.3,43,34.3,41.7,34.3z"/>
		<path class="st1" d="M46.9,32.4c2.9,0,5.8,0,8.8,0c0,0.6,0,1.2,0,1.9c-1.1,0-2.2,0-3.3,0c0,2.8,0,5.6,0,8.4c-0.7,0-1.4,0-2.2,0
			c0-2.8,0-5.6,0-8.4c-1.1,0-2.2,0-3.3,0C46.9,33.7,46.9,33.1,46.9,32.4z"/>
		<path class="st1" d="M26.8,36.6c0,0.6,0,1.1,0,1.7c-1.3,0-2.6,0-4,0c0-0.6,0-1.1,0-1.7C24.1,36.6,25.4,36.6,26.8,36.6z"/>
	</g>
</g>
</svg>
