<?xml version="1.0" encoding="utf-8"?>
<!-- Generator: Adobe Illustrator 24.2.1, SVG Export Plug-In . SVG Version: 6.00 Build 0)  -->
<svg version="1.1" id="arrows" xmlns="http://www.w3.org/2000/svg" xmlns:xlink="http://www.w3.org/1999/xlink" x="0px" y="0px"
	 viewBox="0 0 1201 912" style="enable-background:new 0 0 1201 912;" xml:space="preserve">
<style type="text/css">
	.st0{opacity:0.33;}
	.st1{fill:none;stroke:#000000;stroke-miterlimit:10;}
	.st2{fill:none;}
</style>
<g>
	<g class="st0">
		<g>
			<line class="st1" x1="1051.6" y1="189.6" x2="1048.9" y2="503"/>
			<g>
				<polygon points="1045.4,194.5 1046.5,195.6 1051.6,190.2 1056.6,195.7 1057.7,194.6 1051.6,188 				"/>
			</g>
		</g>
	</g>
</g>
<g>
	<g class="st0">
		<g>
			<line class="st1" x1="449.5" y1="716.4" x2="450.5" y2="389"/>
			<g>
				<polygon points="455.7,711.4 454.6,710.4 449.5,715.8 444.5,710.4 443.4,711.4 449.5,718 				"/>
			</g>
		</g>
	</g>
</g>
<g class="st0">
	<g>
		<line class="st1" x1="790.6" y1="150.9" x2="1014" y2="151.1"/>
		<g>
			<polygon points="795.6,157 796.6,155.9 791.2,150.9 796.6,145.9 795.6,144.8 789,150.9 			"/>
		</g>
	</g>
</g>
<g class="st0">
	<g>
		<line class="st1" x1="188.6" y1="755.9" x2="410.4" y2="756.1"/>
		<g>
			<polygon points="193.6,762 194.6,760.9 189.2,755.9 194.6,750.9 193.6,749.8 187,755.9 			"/>
		</g>
		<g>
			<polygon points="405.4,762.2 404.4,761.1 409.8,756.1 404.4,751.1 405.4,750 412,756.1 			"/>
		</g>
	</g>
</g>
<g class="st0">
	<g>
		<line class="st1" x1="711.4" y1="712.2" x2="486" y2="747"/>
		<g>
			<polygon points="705.5,706.9 704.7,708.2 710.8,712.3 706.2,718.1 707.4,719.1 713,712 			"/>
		</g>
	</g>
</g>
<g class="st0">
	<g>
		<line class="st1" x1="716.1" y1="530.6" x2="480.5" y2="373.5"/>
		<g>
			<polygon points="715.4,522.7 714,523.1 715.7,530.3 708.4,531.5 708.6,532.9 717.5,531.5 			"/>
		</g>
	</g>
</g>
<g class="st0">
	<g>
		<line class="st1" x1="420.5" y1="383.8" x2="169.5" y2="722.5"/>
		<g>
			<polygon points="412.6,384.1 412.9,385.6 420.2,384.3 421,391.6 422.5,391.5 421.5,382.5 			"/>
		</g>
	</g>
</g>
<g class="st0">
	<g>
		<line class="st1" x1="711.4" y1="797.8" x2="486" y2="763"/>
		<g>
			<polygon points="707.4,790.9 706.2,791.9 710.8,797.7 704.7,801.8 705.5,803.1 713,798 			"/>
		</g>
	</g>
</g>
<g class="st0">
	<g>
		<line class="st1" x1="502.6" y1="151" x2="714" y2="150"/>
		<g>
			<polygon points="507.6,157.1 508.6,156 503.2,151 508.6,146 507.6,144.9 501,151 			"/>
		</g>
	</g>
</g>
<g class="st0">
	<g>
		<line class="st1" x1="450" y1="311.4" x2="450" y2="198"/>
		<g>
			<polygon points="456.1,306.4 455,305.4 450,310.8 445,305.4 443.9,306.4 450,313 			"/>
		</g>
	</g>
</g>
<g class="st0">
	<path class="st2" d="M1026.5,552"/>
</g>
<g class="st0">
	<g>
		<line class="st1" x1="996.4" y1="551.5" x2="787.5" y2="551.5"/>
		<g>
			<polygon points="991.4,545.4 990.4,546.5 995.8,551.5 990.4,556.5 991.4,557.6 998,551.5 			"/>
		</g>
	</g>
</g>
</svg>
