<?xml version="1.0" encoding="utf-8"?>
<!-- Generator: Adobe Illustrator 24.2.1, SVG Export Plug-In . SVG Version: 6.00 Build 0)  -->
<svg version="1.1" id="Ebene_1" xmlns="http://www.w3.org/2000/svg" xmlns:xlink="http://www.w3.org/1999/xlink" x="0px" y="0px"
	 viewBox="0 0 75 75" style="enable-background:new 0 0 75 75;" xml:space="preserve">
<style type="text/css">
	.st0{fill:#9F9E97;}
	.st1{fill:#FFFFFF;}
</style>
<path class="st0" d="M75,38c0,20.7-16.8,37-37.5,37S0,58.2,0,37.5S16.8,0,37.5,0S75,17.3,75,38z"/>
<path class="st1" d="M26.8,35.2c0.3-0.4,0.7-0.8,1-1.2c0.2-0.3,0.4-0.5,0.7-0.9c0.7,0,1.4,0,2.2,0c0-1-0.1-2,0-3
	c0.1-1.8,0.6-3.4,1.7-4.9c1.1-1.4,2.5-2.1,4.2-2.3c0.5-0.1,1-0.1,1.6-0.2c0,0.8,0,1.5,0,2.3c-0.5,0.1-1,0.1-1.5,0.2
	c-1.4,0.3-2.4,1.2-3,2.5c-0.7,1.7-0.8,3.5-0.7,5.4c3.6,0,7.1,0,10.8,0c0,5.4,0,10.7,0,16.1c-0.7,0-1.5,0-2.4,0c0-4.6,0-9.2,0-13.8
	c-2.8,0-5.6,0-8.4,0c0,4.6,0,9.2,0,13.8c-0.8,0-1.5,0-2.4,0c0-4.6,0-9.2,0-13.9c-1.4,0-2.6,0-3.8,0C26.8,35.3,26.8,35.2,26.8,35.2z"
	/>
<path class="st1" d="M45.3,23.8c-1.5,0-2.9-1.4-2.8-2.9c0-1.5,1.4-2.8,2.9-2.8c1.5,0,2.8,1.4,2.8,2.9C48.1,22.5,46.7,23.9,45.3,23.8
	z"/>
</svg>
