<?xml version="1.0" encoding="utf-8"?>
<!-- Generator: Adobe Illustrator 24.2.1, SVG Export Plug-In . SVG Version: 6.00 Build 0)  -->
<svg version="1.1" id="arrows" xmlns="http://www.w3.org/2000/svg" xmlns:xlink="http://www.w3.org/1999/xlink" x="0px" y="0px"
	 viewBox="0 0 551 899" style="enable-background:new 0 0 551 899;" xml:space="preserve">
<style type="text/css">
	.st0{opacity:0.33;}
	.st1{fill:none;stroke:#000000;stroke-miterlimit:10;}
</style>
<g class="st0">
	<g>
		<line class="st1" x1="326.6" y1="150.5" x2="426" y2="150.5"/>
		<g>
			<polygon points="331.6,156.6 332.6,155.5 327.2,150.5 332.6,145.5 331.6,144.4 325,150.5 			"/>
		</g>
	</g>
</g>
<g class="st0">
	<g>
		<line class="st1" x1="201.6" y1="149.5" x2="275" y2="149.5"/>
		<g>
			<polygon points="206.6,155.6 207.6,154.5 202.2,149.5 207.6,144.5 206.6,143.4 200,149.5 			"/>
		</g>
	</g>
</g>
<g class="st0">
	<g>
		<line class="st1" x1="148.3" y1="323.4" x2="148.3" y2="196"/>
		<g>
			<polygon points="154.4,318.4 153.3,317.4 148.3,322.8 143.3,317.4 142.2,318.4 148.3,325 			"/>
		</g>
	</g>
</g>
<g class="st0">
	<g>
		<line class="st1" x1="397.4" y1="549.5" x2="325" y2="549.5"/>
		<g>
			<polygon points="392.4,543.4 391.4,544.5 396.8,549.5 391.4,554.5 392.4,555.6 399,549.5 			"/>
		</g>
	</g>
</g>
<g class="st0">
	<g>
		<line class="st1" x1="425" y1="709" x2="324.5" y2="742.5"/>
		<g>
			<polygon points="418.3,704.8 417.7,706.1 424.4,709.2 420.9,715.7 422.2,716.4 426.5,708.5 			"/>
		</g>
	</g>
</g>
<g class="st0">
	<g>
		<line class="st1" x1="425" y1="793" x2="322.5" y2="759.5"/>
		<g>
			<polygon points="422.1,785.6 420.8,786.3 424.4,792.8 417.7,795.9 418.3,797.3 426.5,793.5 			"/>
		</g>
	</g>
</g>
<g class="st0">
	<g>
		<line class="st1" x1="450.5" y1="175.6" x2="449.5" y2="501"/>
		<g>
			<polygon points="444.3,180.6 445.4,181.6 450.5,176.2 455.5,181.6 456.6,180.6 450.5,174 			"/>
		</g>
	</g>
</g>
<g class="st0">
	<g>
		<line class="st1" x1="176.6" y1="749.5" x2="273.4" y2="749.5"/>
		<g>
			<polygon points="181.6,755.6 182.6,754.5 177.2,749.5 182.6,744.5 181.6,743.4 175,749.5 			"/>
		</g>
		<g>
			<polygon points="268.4,755.6 267.4,754.5 272.8,749.5 267.4,744.5 268.4,743.4 275,749.5 			"/>
		</g>
	</g>
</g>
<g class="st0">
	<g>
		<line class="st1" x1="288.9" y1="723" x2="156.5" y2="374.5"/>
		<g>
			<polygon points="292.9,716.2 291.5,715.6 288.7,722.4 282.1,719.2 281.4,720.5 289.5,724.5 			"/>
		</g>
	</g>
</g>
<g class="st0">
	<g>
		<line class="st1" x1="149.5" y1="376.6" x2="149.5" y2="725"/>
		<g>
			<polygon points="143.4,381.6 144.5,382.6 149.5,377.2 154.5,382.6 155.6,381.6 149.5,375 			"/>
		</g>
	</g>
</g>
<g class="st0">
	<g>
		<line class="st1" x1="281.6" y1="529.2" x2="166.5" y2="368.5"/>
		<g>
			<polygon points="283.6,521.6 282.2,521.4 281.2,528.7 274,527.2 273.7,528.7 282.5,530.5 			"/>
		</g>
	</g>
</g>
</svg>
