<?xml version="1.0" encoding="utf-8"?>
<!-- Generator: Adobe Illustrator 24.2.3, SVG Export Plug-In . SVG Version: 6.00 Build 0)  -->
<svg version="1.1" id="labels_de" xmlns="http://www.w3.org/2000/svg" xmlns:xlink="http://www.w3.org/1999/xlink" x="0px" y="0px"
	 viewBox="0 0 601 750" style="enable-background:new 0 0 601 750;" xml:space="preserve">
<style type="text/css">
	.st0{fill:#FFFFFF;}
	.st1{fill:#3A2F3C;}
	.st2{font-family:'AkzidGrtskNext-Med';}
	.st3{font-size:15px;}
	.st4{fill:#647CC1;}
</style>
<rect x="258" y="69" class="st0" width="80" height="29"/>
<text transform="matrix(1 0 0 1 265.8628 90.3564)" class="st1 st2 st3">Redaktion</text>
<text transform="matrix(0 -1 1 0 64.7873 149.7603)"><tspan x="0" y="0" class="st4 st2 st3">Planung &amp;</tspan><tspan x="-10.4" y="18" class="st4 st2 st3">Bestellung</tspan></text>
<text transform="matrix(0 -1 1 0 65.0276 374.0952)"><tspan x="0" y="0" class="st4 st2 st3">Produktion &amp;</tspan><tspan x="-2.3" y="18" class="st4 st2 st3">Arrangement</tspan></text>
<text transform="matrix(0 -1 1 0 64.9447 689.6211)"><tspan x="0" y="0" class="st4 st2 st3">Auslieferung &amp;</tspan><tspan x="22.6" y="18" class="st4 st2 st3">Optimierung</tspan></text>
<text transform="matrix(1 0 0 1 114.6636 315.3564)" class="st1 st2 st3">Livingdocs</text>
<text transform="matrix(0 -1 1 0 121.0605 632.0972)" class="st1 st2 st3">Feedback</text>
<text transform="matrix(0 -1 1 0 523.0605 632.0972)" class="st1 st2 st3">Feedback</text>
<text transform="matrix(1 0 0 1 172.7178 720.3564)" class="st1 st2 st3">heute.at</text>
<text transform="matrix(1 0 0 1 358.2656 720.3564)" class="st1 st2 st3">Print-Zeitung</text>
<text transform="matrix(1 0 0 1 161.3281 415.3564)" class="st1 st2 st3">API</text>
<text transform="matrix(1 0 0 1 270.8281 115.3564)" class="st1 st2 st3">Ressorts</text>
<text transform="matrix(1 0 0 1 379.9653 115.3564)" class="st1 st2 st3">Grafik</text>
<text transform="matrix(1 0 0 1 165.3379 115.3564)" class="st1 st2 st3">Newsdesk</text>
<text transform="matrix(1 0 0 1 414.1475 297.3564)"><tspan x="0" y="0" class="st1 st2 st3">Adobe</tspan><tspan x="0" y="18" class="st1 st2 st3">InDesign</tspan></text>
<text transform="matrix(1 0 0 1 309.1475 415.3564)" class="st1 st2 st3">Ads</text>
</svg>
