<?xml version="1.0" encoding="utf-8"?>
<!-- Generator: Adobe Illustrator 24.2.3, SVG Export Plug-In . SVG Version: 6.00 Build 0)  -->
<svg version="1.1" id="labels_en" xmlns="http://www.w3.org/2000/svg" xmlns:xlink="http://www.w3.org/1999/xlink" x="0px" y="0px"
	 viewBox="0 0 601 750" style="enable-background:new 0 0 601 750;" xml:space="preserve">
<style type="text/css">
	.st0{fill:#FFFFFF;}
	.st1{enable-background:new    ;}
	.st2{fill:#3A2F3C;}
	.st3{fill:#3661b5;}
</style>
<rect x="244" y="69" class="st0" width="110" height="29"/>
<g class="st1">
	<path class="st2" d="M251.5,90.4V79.8h7.4v1.6h-5.4v2.7h5v1.6h-5v3h5.7v1.7C259.2,90.4,251.5,90.4,251.5,90.4z"/>
	<path class="st2" d="M265,90.4v-1c-0.5,0.7-1.2,1.2-2.2,1.2c-1.7,0-3-1.3-3-3.9c0-2.4,1.4-3.9,3.1-3.9c1.1,0,1.7,0.4,2.1,1v-3.9
		h1.7v10.6L265,90.4L265,90.4z M263.4,84.2c-1,0-1.7,0.8-1.7,2.4c0,1.5,0.6,2.5,1.7,2.5c1,0,1.8-0.8,1.8-2.4
		C265,85.1,264.4,84.2,263.4,84.2z"/>
	<path class="st2" d="M268.6,81.4v-1.7h1.8v1.7H268.6z M270.4,90.4h-1.8v-7.5h1.8V90.4z"/>
	<path class="st2" d="M275.8,90.3c-0.4,0.1-0.9,0.2-1.3,0.2c-0.7,0-1.2-0.2-1.5-0.5c-0.3-0.4-0.4-0.9-0.4-1.6v-4.1h-1.2v-1.4h1.2
		v-2.4h1.7v2.4h1.5v1.4h-1.5V88c0,0.8,0.2,1,0.8,1c0.2,0,0.5,0,0.7-0.1L275.8,90.3L275.8,90.3z"/>
	<path class="st2" d="M280.2,90.6c-2.3,0-3.7-1.5-3.7-4s1.5-3.9,3.8-3.9c2.2,0,3.6,1.5,3.6,4C283.8,89.2,282.3,90.6,280.2,90.6z
		 M280.2,84.1c-1.1,0-1.9,0.9-1.9,2.4c0,1.7,0.8,2.5,1.9,2.5s1.9-0.8,1.9-2.4C282,85,281.3,84.1,280.2,84.1z"/>
	<path class="st2" d="M285.2,90.4v-7.5h1.7V84c0.5-0.8,1-1.2,2.1-1.2c0.2,0,0.4,0,0.6,0.1v1.8c-0.3-0.1-0.5-0.2-0.8-0.2
		c-0.6,0-1.1,0.3-1.4,0.7c-0.3,0.4-0.4,0.9-0.4,1.7v3.5H285.2z"/>
	<path class="st2" d="M290.6,81.4v-1.7h1.8v1.7H290.6z M292.4,90.4h-1.8v-7.5h1.8V90.4z"/>
	<path class="st2" d="M298.5,85.3c0-0.4-0.1-0.7-0.3-0.9c-0.2-0.2-0.6-0.3-1-0.3c-0.9,0-1.3,0.5-1.4,1.3l-1.7-0.1
		c0.1-1.6,1.3-2.5,3.2-2.5c1,0,1.7,0.2,2.2,0.7c0.5,0.4,0.6,1,0.6,2.2v2.7c0,0.9,0.1,1.6,0.2,2h-1.7c-0.1-0.2-0.2-0.7-0.2-0.9
		c-0.6,0.7-1.4,1.1-2.4,1.1c-1.4,0-2.3-0.9-2.3-2.2c0-1,0.5-1.6,1.4-2c0.7-0.3,2.2-0.5,3.4-0.6L298.5,85.3L298.5,85.3z M298.5,86.9
		c-0.9,0-1.9,0.2-2.4,0.5c-0.5,0.2-0.6,0.5-0.6,0.9c0,0.5,0.4,0.9,1.1,0.9s1.2-0.3,1.6-0.8c0.2-0.3,0.3-0.8,0.3-1.2V86.9z"/>
	<path class="st2" d="M303.7,90.4h-1.8V79.8h1.8V90.4z"/>
	<path class="st2" d="M308.6,85c0-3.3,2-5.5,5-5.5c2.9,0,4.8,2.2,4.8,5.6c0,3.5-1.9,5.5-4.8,5.5C310.5,90.6,308.6,88.4,308.6,85z
		 M313.5,81.2c-1.8,0-3,1.4-3,3.7c0,2.5,1.2,3.9,3,3.9c1.7,0,2.8-1.3,2.8-3.8C316.4,82.6,315.3,81.2,313.5,81.2z"/>
	<path class="st2" d="M322.2,84.3v6.1h-1.8v-6.1h-1.3v-1.4h1.3V82c0-0.9,0.2-1.5,0.6-1.8c0.4-0.4,0.9-0.5,1.5-0.5
		c0.4,0,0.8,0,1.1,0.2v1.4c-0.2-0.1-0.5-0.2-0.7-0.2c-0.3,0-0.6,0.1-0.7,0.3c-0.1,0.2-0.1,0.4-0.1,0.8v0.7h1.5v1.4H322.2z"/>
	<path class="st2" d="M326.9,84.3v6.1h-1.8v-6.1h-1.3v-1.4h1.3V82c0-0.9,0.2-1.5,0.6-1.8c0.4-0.4,0.9-0.5,1.5-0.5
		c0.5,0,0.8,0,1.1,0.2v1.4c-0.2-0.1-0.5-0.2-0.7-0.2c-0.3,0-0.6,0.1-0.7,0.3c-0.1,0.2-0.1,0.4-0.1,0.8v0.7h1.5v1.4H326.9z
		 M329.5,81.4v-1.7h1.8v1.7H329.5z M331.2,90.4h-1.7v-7.5h1.7V90.4z"/>
	<path class="st2" d="M337.7,85.5c-0.2-1-0.8-1.3-1.5-1.3c-1,0-1.8,0.8-1.8,2.4c0,1.7,0.7,2.5,1.8,2.5c0.8,0,1.3-0.4,1.5-1.2
		l1.6,0.5c-0.4,1.2-1.4,2.1-3.1,2.1c-2.2,0-3.6-1.5-3.6-4c0-2.4,1.4-3.9,3.6-3.9c1.6,0,2.6,0.9,3,2.2L337.7,85.5z"/>
	<path class="st2" d="M347,88.5c-0.6,1.3-1.7,2.1-3.3,2.1c-2.4,0-3.7-1.6-3.7-4s1.4-3.9,3.6-3.9c2.4,0,3.4,1.7,3.4,4.4h-5.2
		c0.1,1.3,0.8,2,2,2c0.8,0,1.4-0.3,1.7-1.2L347,88.5z M345.2,85.8c-0.1-1.2-0.7-1.8-1.6-1.8c-1,0-1.7,0.6-1.8,1.8H345.2z"/>
</g>
<g class="st1">
	<path class="st3" d="M64.8,152.8H54.2v-4.4c0-1.5,0.2-2.3,0.6-2.9c0.6-0.8,1.5-1.2,2.6-1.2c1.2,0,2.2,0.4,2.8,1.3
		c0.4,0.8,0.6,1.9,0.6,3.1v2.1h4C64.8,150.8,64.8,152.8,64.8,152.8z M59.2,149.1c0-1-0.1-1.7-0.4-2.1c-0.3-0.4-0.7-0.5-1.3-0.5
		c-0.5,0-1,0.2-1.3,0.5c-0.3,0.4-0.4,0.9-0.4,2v2h3.4V149.1z"/>
	<path class="st3" d="M64.8,141.7v1.8H54.2v-1.8H64.8z"/>
	<path class="st3" d="M59.7,135.7c-0.4,0-0.7,0.1-0.9,0.3s-0.3,0.6-0.3,1c0,0.9,0.5,1.3,1.3,1.4l-0.1,1.7c-1.6-0.1-2.5-1.3-2.5-3.2
		c0-1,0.2-1.7,0.7-2.2c0.4-0.5,1-0.6,2.2-0.6h2.7c0.9,0,1.6-0.1,2-0.2v1.7c-0.2,0.1-0.7,0.2-0.9,0.2c0.7,0.6,1.1,1.4,1.1,2.4
		c0,1.4-0.9,2.3-2.2,2.3c-1,0-1.6-0.5-2-1.4c-0.3-0.7-0.5-2.2-0.6-3.4H59.7z M61.3,135.7c0,0.9,0.2,1.9,0.5,2.4
		c0.2,0.5,0.5,0.6,0.9,0.6c0.5,0,0.9-0.4,0.9-1.1c0-0.7-0.3-1.2-0.8-1.6c-0.3-0.2-0.8-0.3-1.2-0.3L61.3,135.7L61.3,135.7z"/>
	<path class="st3" d="M64.8,127.5h-4.3c-0.6,0-1,0.1-1.3,0.3c-0.3,0.2-0.4,0.5-0.4,1s0.3,1,0.7,1.3c0.5,0.4,1,0.4,1.8,0.4h3.6v1.8
		h-7.5v-1.7h1.1c-0.8-0.5-1.2-1.4-1.2-2.5c0-0.9,0.3-1.5,0.9-1.9c0.5-0.3,1-0.4,2-0.4h4.7L64.8,127.5L64.8,127.5z"/>
	<path class="st3" d="M64.8,119.2h-4.3c-0.6,0-1,0.1-1.3,0.3c-0.3,0.2-0.4,0.5-0.4,1s0.3,1,0.7,1.3c0.5,0.4,1,0.4,1.8,0.4h3.6v1.8
		h-7.5v-1.7h1.1c-0.8-0.5-1.2-1.4-1.2-2.5c0-0.9,0.3-1.5,0.9-1.9c0.5-0.3,1-0.4,2-0.4h4.7L64.8,119.2L64.8,119.2z"/>
	<path class="st3" d="M55.8,115.8h-1.7V114h1.7V115.8z M64.8,114v1.8h-7.5V114H64.8z"/>
	<path class="st3" d="M64.8,107.4h-4.3c-0.6,0-1,0.1-1.3,0.3c-0.3,0.2-0.4,0.5-0.4,1s0.3,1,0.7,1.3c0.5,0.4,1,0.4,1.8,0.4h3.6v1.8
		h-7.5v-1.7h1.1c-0.8-0.5-1.2-1.4-1.2-2.5c0-0.9,0.3-1.5,0.9-1.9c0.5-0.3,1-0.4,2-0.4h4.7L64.8,107.4L64.8,107.4z"/>
	<path class="st3" d="M63.8,99.1c0.6,0.5,1,1.2,1,2.2c0,1.8-1.4,3-3.8,3c-2.3,0-3.8-1.3-3.8-3.1c0-1,0.4-1.8,1-2.2h-0.9v-1.7h7
		c1.5,0,2.5,0.4,3.1,1.2c0.4,0.6,0.6,1.4,0.6,2.4c0,1.8-0.8,3-2.3,3.3l-0.3-1.8c0.8-0.1,1.2-0.7,1.2-1.5c0-0.7-0.2-1.2-0.6-1.4
		c-0.3-0.2-0.8-0.3-1.5-0.3L63.8,99.1L63.8,99.1z M58.7,100.7c0,1.1,0.8,1.8,2.3,1.8s2.4-0.7,2.4-1.7s-0.7-1.7-2.2-1.7
		C59.6,99.1,58.7,99.6,58.7,100.7z"/>
	<path class="st3" d="M60.5,83.4c0.9,0.4,1.7,0.8,2.3,1.3l0.2-0.2c0.3-0.3,0.5-0.5,0.5-1c0-0.1,0-0.2,0-0.3H65c0,0.2,0,0.4,0,0.6
		c0,0.8,0,1.3-0.9,2.2c0.8,0.9,1,1.9,1,3c0,2.1-1.2,3.5-3,3.5c-1.3,0-2.2-0.5-3.2-2.5c-0.8,0.5-1.4,0.8-2.1,0.8
		c-1.4,0-2.4-1-2.4-2.7c0-1.5,0.9-2.5,2.1-2.5c1.1,0,1.9,0.5,2.9,2.1l2.4-1.9c-0.5-0.4-1.1-0.7-1.9-0.9L60.5,83.4z M56.4,87.1
		c-0.5,0-0.9,0.4-0.9,1s0.4,1,0.9,1c0.4,0,0.8-0.1,1.5-0.7C57.5,87.5,57,87.1,56.4,87.1z M59.9,89.1c0.7,1.2,1.2,1.5,2,1.5
		c1,0,1.6-0.8,1.6-1.9c0-0.7-0.2-1.3-0.7-1.8L59.9,89.1z"/>
</g>
<g class="st1">
	<path class="st3" d="M75.5,131c-1.2,0.3-1.9,1-1.9,2.2c0,1.9,1.4,3,3.7,3c2.4,0,4-1.1,4-3c0-1.2-0.7-2.1-2-2.4L80,129
		c2,0.7,3,2.2,3,4.3c0,3-2.1,4.9-5.6,4.9s-5.5-2-5.5-5c0-2.1,1.1-3.5,2.9-4L75.5,131z"/>
	<path class="st3" d="M82.8,127.8h-7.5v-1.7h1.2c-0.8-0.5-1.2-1-1.2-2.1c0-0.2,0-0.4,0.1-0.6h1.8c-0.1,0.3-0.2,0.5-0.2,0.8
		c0,0.6,0.3,1.1,0.7,1.4c0.4,0.3,0.9,0.4,1.7,0.4h3.5L82.8,127.8L82.8,127.8z"/>
	<path class="st3" d="M80.9,115.9c1.3,0.6,2.1,1.7,2.1,3.3c0,2.4-1.6,3.7-4,3.7s-3.9-1.4-3.9-3.6c0-2.4,1.7-3.4,4.4-3.4v5.2
		c1.3-0.1,2-0.8,2-2c0-0.8-0.3-1.4-1.2-1.7L80.9,115.9z M78.2,117.6c-1.2,0.1-1.8,0.7-1.8,1.6s0.6,1.7,1.8,1.8V117.6z"/>
	<path class="st3" d="M77.7,110.2c-0.4,0-0.7,0.1-0.9,0.3c-0.2,0.2-0.3,0.6-0.3,1c0,0.9,0.5,1.3,1.3,1.4l-0.1,1.7
		c-1.6-0.1-2.5-1.3-2.5-3.2c0-1,0.2-1.7,0.7-2.2c0.4-0.5,1-0.6,2.2-0.6h2.7c0.9,0,1.6-0.1,2-0.2v1.7c-0.2,0.1-0.7,0.2-0.9,0.2
		c0.7,0.6,1.1,1.4,1.1,2.4c0,1.4-0.9,2.3-2.2,2.3c-1,0-1.6-0.5-2-1.4c-0.3-0.7-0.5-2.2-0.6-3.4C78.2,110.2,77.7,110.2,77.7,110.2z
		 M79.3,110.2c0,0.9,0.2,1.9,0.5,2.4c0.2,0.5,0.5,0.6,0.9,0.6c0.5,0,0.9-0.4,0.9-1.1s-0.3-1.2-0.8-1.6c-0.3-0.2-0.8-0.3-1.2-0.3
		H79.3z"/>
	<path class="st3" d="M82.8,103.1c0.1,0.4,0.2,0.9,0.2,1.3c0,0.7-0.2,1.2-0.5,1.5c-0.4,0.3-0.9,0.4-1.6,0.4h-4.1v1.2h-1.4v-1.2H73
		v-1.7h2.4v-1.5h1.4v1.5h3.7c0.8,0,1-0.2,1-0.8c0-0.2,0-0.5-0.1-0.7C81.4,103.1,82.8,103.1,82.8,103.1z"/>
	<path class="st3" d="M73.8,102.1h-1.7v-1.8h1.7V102.1z M82.8,100.3v1.8h-7.5v-1.8H82.8z"/>
	<path class="st3" d="M83,95.2c0,2.3-1.5,3.7-4,3.7s-3.9-1.5-3.9-3.8c0-2.2,1.5-3.6,4-3.6C81.6,91.5,83,93,83,95.2z M76.6,95.1
		c0,1.1,0.9,1.9,2.4,1.9c1.7,0,2.5-0.8,2.5-1.9s-0.8-1.9-2.4-1.9C77.4,93.3,76.6,94,76.6,95.1z"/>
	<path class="st3" d="M82.8,85.4h-4.3c-0.6,0-1,0.1-1.3,0.3c-0.3,0.2-0.4,0.5-0.4,1s0.3,1,0.7,1.3c0.5,0.4,1,0.4,1.8,0.4h3.6v1.8
		h-7.5v-1.7h1.1c-0.8-0.5-1.2-1.4-1.2-2.5c0-0.9,0.3-1.5,0.9-1.9c0.5-0.3,1-0.4,2-0.4h4.7L82.8,85.4L82.8,85.4z"/>
</g>
<g class="st1">
	<path class="st3" d="M65,373H54.4v-4.4c0-1.5,0.2-2.3,0.6-2.9c0.6-0.8,1.5-1.2,2.6-1.2c1.2,0,2.2,0.4,2.8,1.3
		c0.4,0.8,0.6,1.9,0.6,3.1v2.1h4V373z M59.4,369.3c0-1-0.1-1.7-0.4-2.1c-0.3-0.4-0.7-0.5-1.3-0.5c-0.5,0-1,0.2-1.3,0.5
		c-0.3,0.4-0.4,0.9-0.4,2v2h3.4V369.3z"/>
	<path class="st3" d="M65,363.9h-7.5v-1.7h1.2c-0.8-0.5-1.2-1-1.2-2.1c0-0.2,0-0.4,0.1-0.6h1.8c-0.1,0.3-0.2,0.5-0.2,0.8
		c0,0.6,0.3,1.1,0.7,1.4s0.9,0.4,1.7,0.4H65V363.9z"/>
	<path class="st3" d="M65.2,355.2c0,2.3-1.5,3.7-4,3.7s-3.9-1.5-3.9-3.8c0-2.2,1.5-3.6,4-3.6C63.9,351.6,65.2,353,65.2,355.2z
		 M58.8,355.2c0,1.1,0.9,1.9,2.4,1.9c1.7,0,2.5-0.8,2.5-1.9s-0.8-1.9-2.4-1.9C59.7,353.3,58.8,354.1,58.8,355.2z"/>
	<path class="st3" d="M65,345.3h-1c0.7,0.5,1.2,1.2,1.2,2.2c0,1.7-1.3,3-3.9,3c-2.4,0-3.9-1.4-3.9-3.1c0-1.1,0.4-1.7,1-2.1h-3.9
		v-1.7H65V345.3z M58.9,347c0,1,0.8,1.7,2.4,1.7c1.5,0,2.5-0.6,2.5-1.7c0-1-0.8-1.8-2.4-1.8C59.8,345.3,58.9,346,58.9,347z"/>
	<path class="st3" d="M57.6,340.1h4.3c0.5,0,0.9-0.1,1.2-0.2c0.4-0.2,0.6-0.6,0.6-1.1s-0.3-0.9-0.6-1.2c-0.4-0.3-0.9-0.5-1.6-0.5
		h-3.9v-1.8H65v1.7h-1c0.7,0.5,1.2,1.3,1.2,2.3s-0.3,1.5-0.9,2c-0.5,0.3-1.1,0.5-2,0.5h-4.7C57.6,341.8,57.6,340.1,57.6,340.1z"/>
	<path class="st3" d="M60.1,328.9c-1,0.2-1.3,0.8-1.3,1.5c0,1,0.8,1.8,2.4,1.8c1.7,0,2.5-0.7,2.5-1.8c0-0.8-0.4-1.3-1.2-1.5l0.5-1.6
		c1.2,0.4,2.1,1.4,2.1,3.1c0,2.2-1.5,3.6-4,3.6c-2.4,0-3.9-1.4-3.9-3.6c0-1.6,0.9-2.6,2.2-3L60.1,328.9z"/>
	<path class="st3" d="M65,322.5c0.1,0.4,0.2,0.9,0.2,1.3c0,0.7-0.2,1.2-0.5,1.5c-0.4,0.3-0.9,0.4-1.6,0.4H59v1.2h-1.4v-1.2h-2.4V324
		h2.4v-1.5H59v1.5h3.7c0.8,0,1-0.2,1-0.8c0-0.2,0-0.5-0.1-0.7H65z"/>
	<path class="st3" d="M56.1,321.5h-1.7v-1.8h1.7V321.5z M65,319.7v1.8h-7.5v-1.8H65z"/>
	<path class="st3" d="M65.2,314.6c0,2.3-1.5,3.7-4,3.7s-3.9-1.5-3.9-3.8c0-2.2,1.5-3.6,4-3.6C63.9,310.9,65.2,312.4,65.2,314.6z
		 M58.8,314.5c0,1.1,0.9,1.9,2.4,1.9c1.7,0,2.5-0.8,2.5-1.9s-0.8-1.9-2.4-1.9C59.7,312.7,58.8,313.4,58.8,314.5z"/>
	<path class="st3" d="M65,304.8h-4.3c-0.6,0-1,0.1-1.3,0.3c-0.3,0.2-0.4,0.5-0.4,1s0.3,1,0.7,1.3c0.5,0.4,1,0.4,1.8,0.4H65v1.8h-7.5
		v-1.7h1.1c-0.8-0.5-1.2-1.4-1.2-2.5c0-0.9,0.3-1.5,0.9-1.9c0.5-0.3,1-0.4,2-0.4H65V304.8z"/>
	<path class="st3" d="M60.7,289.3c0.9,0.4,1.7,0.8,2.3,1.3l0.2-0.2c0.3-0.3,0.5-0.5,0.5-1c0-0.1,0-0.2,0-0.3H65c0,0.2,0,0.4,0,0.6
		c0,0.8,0,1.3-0.9,2.2c0.8,0.9,1,1.9,1,3c0,2.1-1.2,3.5-3,3.5c-1.3,0-2.2-0.5-3.2-2.5c-0.8,0.5-1.4,0.8-2.1,0.8
		c-1.4,0-2.4-1-2.4-2.7c0-1.5,0.9-2.5,2.1-2.5c1.1,0,1.9,0.5,2.9,2.1l2.4-1.9c-0.5-0.4-1.1-0.7-1.9-0.9L60.7,289.3z M56.6,292.9
		c-0.5,0-0.9,0.4-0.9,1s0.4,1,0.9,1c0.4,0,0.8-0.1,1.5-0.7C57.7,293.3,57.2,292.9,56.6,292.9z M60.1,295c0.7,1.2,1.2,1.5,2,1.5
		c1,0,1.6-0.8,1.6-1.9c0-0.7-0.2-1.3-0.7-1.8L60.1,295z"/>
</g>
<g class="st1">
	<path class="st3" d="M83,368.5l-2.5,0.8v4.2l2.5,0.9v2.1l-10.6-4v-2.1l10.6-3.9V368.5z M79.1,369.8c-1.7,0.6-3.2,1.1-4.7,1.6
		c1.1,0.3,2.1,0.7,4.7,1.6V369.8z"/>
	<path class="st3" d="M83,365.5h-7.5v-1.7h1.2c-0.8-0.5-1.2-1-1.2-2.1c0-0.2,0-0.4,0.1-0.6h1.8c-0.1,0.3-0.2,0.5-0.2,0.8
		c0,0.6,0.3,1.1,0.7,1.4c0.4,0.3,0.9,0.4,1.7,0.4H83V365.5z"/>
	<path class="st3" d="M83,360.1h-7.5v-1.7h1.2c-0.8-0.5-1.2-1-1.2-2.1c0-0.2,0-0.4,0.1-0.6h1.8c-0.1,0.3-0.2,0.5-0.2,0.8
		c0,0.6,0.3,1.1,0.7,1.4c0.4,0.3,0.9,0.4,1.7,0.4H83V360.1z"/>
	<path class="st3" d="M78,350.5c-0.4,0-0.7,0.1-0.9,0.3c-0.2,0.2-0.3,0.6-0.3,1c0,0.9,0.5,1.3,1.3,1.4l-0.1,1.7
		c-1.6-0.1-2.5-1.3-2.5-3.2c0-1,0.2-1.7,0.7-2.2c0.4-0.5,1-0.6,2.2-0.6H81c0.9,0,1.6-0.1,2-0.2v1.7c-0.2,0.1-0.7,0.2-0.9,0.2
		c0.7,0.6,1.1,1.4,1.1,2.4c0,1.4-0.9,2.3-2.2,2.3c-1,0-1.6-0.5-2-1.4c-0.3-0.7-0.5-2.2-0.6-3.4L78,350.5L78,350.5z M79.5,350.5
		c0,0.9,0.2,1.9,0.5,2.4c0.2,0.5,0.5,0.6,0.9,0.6c0.5,0,0.9-0.4,0.9-1.1s-0.3-1.2-0.8-1.6c-0.3-0.2-0.8-0.3-1.2-0.3H79.5z"/>
	<path class="st3" d="M83,342.3h-4.3c-0.6,0-1,0.1-1.3,0.3c-0.3,0.2-0.4,0.5-0.4,1s0.3,1,0.7,1.3c0.5,0.4,1,0.4,1.8,0.4H83v1.8h-7.5
		v-1.7h1.1c-0.8-0.5-1.2-1.4-1.2-2.5c0-0.9,0.3-1.5,0.9-1.9c0.5-0.3,1-0.4,2-0.4H83V342.3z"/>
	<path class="st3" d="M82,334c0.6,0.5,1,1.2,1,2.2c0,1.8-1.4,3-3.8,3c-2.3,0-3.8-1.3-3.8-3.1c0-1,0.4-1.8,1-2.2h-0.9v-1.7h7
		c1.5,0,2.5,0.4,3.1,1.2c0.4,0.6,0.6,1.4,0.6,2.4c0,1.8-0.8,3-2.3,3.3l-0.3-1.8c0.8-0.1,1.2-0.7,1.2-1.5c0-0.7-0.2-1.2-0.6-1.4
		c-0.3-0.2-0.8-0.3-1.5-0.3H82V334z M76.9,335.6c0,1.1,0.8,1.8,2.3,1.8s2.4-0.7,2.4-1.7s-0.7-1.7-2.2-1.7
		C77.8,334,76.9,334.5,76.9,335.6z"/>
	<path class="st3" d="M81.2,323.8c1.3,0.6,2.1,1.7,2.1,3.3c0,2.4-1.6,3.7-4,3.7s-3.9-1.4-3.9-3.6c0-2.4,1.7-3.4,4.4-3.4v5.2
		c1.3-0.1,2-0.8,2-2c0-0.8-0.3-1.4-1.2-1.7L81.2,323.8z M78.5,325.6c-1.2,0.1-1.8,0.7-1.8,1.6s0.6,1.7,1.8,1.8V325.6z"/>
	<path class="st3" d="M75.6,320.7h1.1c-0.8-0.6-1.2-1.4-1.2-2.4c0-1.1,0.5-1.7,1.3-2c-0.8-0.6-1.3-1.5-1.3-2.6
		c0-0.9,0.4-1.6,1.2-1.9c0.5-0.2,1-0.2,2-0.2H83v1.8h-4c-0.8,0-1.2,0.1-1.5,0.2c-0.3,0.2-0.5,0.5-0.5,0.9s0.2,0.9,0.6,1.2
		c0.5,0.4,1,0.5,1.9,0.5H83v1.8h-4.1c-0.8,0-1.1,0-1.4,0.2c-0.4,0.2-0.5,0.5-0.5,1s0.3,1,0.7,1.3s0.9,0.4,1.8,0.4H83v1.8h-7.5
		L75.6,320.7L75.6,320.7z"/>
	<path class="st3" d="M81.2,303.2c1.3,0.6,2.1,1.7,2.1,3.3c0,2.4-1.6,3.7-4,3.7s-3.9-1.4-3.9-3.6c0-2.4,1.7-3.4,4.4-3.4v5.2
		c1.3-0.1,2-0.8,2-2c0-0.8-0.3-1.4-1.2-1.7L81.2,303.2z M78.5,304.9c-1.2,0.1-1.8,0.7-1.8,1.6s0.6,1.7,1.8,1.8V304.9z"/>
	<path class="st3" d="M83,297h-4.3c-0.6,0-1,0.1-1.3,0.3c-0.3,0.2-0.4,0.5-0.4,1s0.3,1,0.7,1.3c0.5,0.4,1,0.4,1.8,0.4H83v1.8h-7.5
		V300h1.1c-0.8-0.5-1.2-1.4-1.2-2.5c0-0.9,0.3-1.5,0.9-1.9c0.5-0.3,1-0.4,2-0.4H83V297z"/>
	<path class="st3" d="M83,289.9c0.1,0.4,0.2,0.9,0.2,1.3c0,0.7-0.2,1.2-0.5,1.5c-0.4,0.3-0.9,0.4-1.6,0.4H77v1.2h-1.4v-1.2h-2.4
		v-1.7h2.4v-1.5H77v1.5h3.7c0.8,0,1-0.2,1-0.8c0-0.2,0-0.5-0.1-0.7L83,289.9L83,289.9z"/>
</g>
<g class="st1">
	<path class="st3" d="M54.4,652.8v-3.3c0-1.9,0.1-2.7,0.5-3.5c0.7-1.5,2.5-2.1,4.7-2.1c1.7,0,3.2,0.5,4.1,1.4c1,1,1.3,2.2,1.3,4.4
		v3.1L54.4,652.8L54.4,652.8z M63.3,649.5c0-1.4-0.3-2.3-0.9-2.9c-0.6-0.6-1.6-0.8-2.9-0.8c-1.1,0-2.1,0.2-2.7,0.8
		c-0.5,0.5-0.8,1.1-0.8,2.6v1.6h7.3C63.3,650.8,63.3,649.5,63.3,649.5z"/>
	<path class="st3" d="M63.1,635.8c1.3,0.6,2.1,1.7,2.1,3.3c0,2.4-1.6,3.7-4,3.7s-3.9-1.4-3.9-3.6c0-2.4,1.7-3.4,4.4-3.4v5.2
		c1.3-0.1,2-0.8,2-2c0-0.8-0.3-1.4-1.2-1.7L63.1,635.8z M60.4,637.6c-1.2,0.1-1.8,0.7-1.8,1.6s0.6,1.7,1.8,1.8V637.6z"/>
	<path class="st3" d="M64.9,632.6v1.8H54.4v-1.8H64.9z"/>
	<path class="st3" d="M56,630.8h-1.7V629H56V630.8z M64.9,629v1.8h-7.5V629H64.9z"/>
	<path class="st3" d="M64.9,625.4l-7.5,2.7v-1.9c2.5-0.9,4.1-1.4,5.7-1.8c-1.5-0.4-3.1-0.9-5.7-1.8v-1.9l7.5,2.7V625.4z"/>
	<path class="st3" d="M63.1,613.4c1.3,0.6,2.1,1.7,2.1,3.3c0,2.4-1.6,3.7-4,3.7s-3.9-1.4-3.9-3.6c0-2.4,1.7-3.4,4.4-3.4v5.2
		c1.3-0.1,2-0.8,2-1.9c0-0.8-0.3-1.4-1.2-1.7L63.1,613.4z M60.4,615.1c-1.2,0.1-1.8,0.7-1.8,1.6s0.6,1.7,1.8,1.8V615.1z"/>
	<path class="st3" d="M64.9,612h-7.5v-1.7h1.2c-0.8-0.5-1.2-1-1.2-2.1c0-0.2,0-0.4,0.1-0.6h1.8c-0.1,0.3-0.2,0.5-0.2,0.8
		c0,0.6,0.3,1.1,0.7,1.4c0.4,0.3,0.9,0.4,1.7,0.4H65L64.9,612L64.9,612z"/>
	<path class="st3" d="M65.1,604.4l-7.6,2.9v-2c2.1-0.8,4-1.4,5.6-1.9c-1.5-0.5-3.6-1.1-5.6-1.8v-1.8l7.5,2.6
		c2.5,0.9,3.1,1.4,3.1,3.2c0,0.3,0,0.6-0.1,0.9h-1.5c0.1-0.2,0.1-0.5,0.1-0.7c0-0.8-0.2-1.1-1.2-1.4H65.1z"/>
	<path class="st3" d="M60.6,586.9c0.9,0.4,1.7,0.8,2.3,1.3l0.2-0.2c0.3-0.3,0.5-0.5,0.5-1c0-0.1,0-0.2,0-0.3h1.5c0,0.2,0,0.4,0,0.6
		c0,0.8,0,1.3-0.9,2.2c0.8,0.9,1,1.9,1,3c0,2.1-1.2,3.5-3,3.5c-1.3,0-2.2-0.5-3.2-2.5c-0.8,0.5-1.4,0.8-2.1,0.8
		c-1.4,0-2.4-1-2.4-2.7c0-1.5,0.9-2.5,2.1-2.5c1.1,0,1.9,0.5,2.9,2.1l2.4-1.9c-0.5-0.4-1.1-0.7-1.9-0.9L60.6,586.9z M56.6,590.6
		c-0.5,0-0.9,0.4-0.9,1s0.4,1,0.9,1c0.4,0,0.8-0.2,1.5-0.7C57.6,591,57.1,590.6,56.6,590.6z M60,592.7c0.7,1.2,1.2,1.5,2,1.5
		c1,0,1.6-0.8,1.6-1.9c0-0.7-0.2-1.3-0.7-1.8L60,592.7z"/>
</g>
<g class="st1">
	<path class="st3" d="M77.6,668.6c-3.3,0-5.5-2-5.5-5c0-2.9,2.2-4.8,5.6-4.8c3.5,0,5.5,1.9,5.5,4.8C83.2,666.8,81,668.6,77.6,668.6z
		 M73.8,663.7c0,1.8,1.4,3,3.7,3c2.5,0,3.9-1.2,3.9-3c0-1.7-1.3-2.8-3.8-2.8C75.2,660.8,73.8,662,73.8,663.7z"/>
	<path class="st3" d="M75.5,655.6h1.1c-0.7-0.5-1.2-1.2-1.2-2.3c0-1.7,1.3-3,3.9-3c2.4,0,3.9,1.4,3.9,3.1c0,1.1-0.4,1.7-1,2.1H86
		v1.7H75.5V655.6z M81.6,653.9c0-1-0.8-1.7-2.4-1.7c-1.5,0-2.5,0.6-2.5,1.7s0.8,1.8,2.4,1.8C80.7,655.6,81.6,654.9,81.6,653.9z"/>
	<path class="st3" d="M82.9,645.3c0.1,0.4,0.2,0.9,0.2,1.3c0,0.7-0.2,1.2-0.5,1.5c-0.4,0.3-0.9,0.4-1.6,0.4h-4.1v1.2h-1.4v-1.2H73
		v-1.7h2.4v-1.5h1.4v1.5h3.7c0.8,0,1-0.2,1-0.8c0-0.2,0-0.5-0.1-0.7H82.9z"/>
	<path class="st3" d="M74,644.2h-1.7v-1.8H74V644.2z M82.9,642.4v1.8h-7.5v-1.8H82.9z"/>
	<path class="st3" d="M75.5,638.9h1.1c-0.8-0.6-1.2-1.4-1.2-2.4c0-1.1,0.5-1.7,1.3-2c-0.8-0.6-1.3-1.5-1.3-2.6
		c0-0.9,0.4-1.7,1.2-1.9c0.5-0.2,1-0.2,2-0.2h4.3v1.8h-4c-0.8,0-1.2,0.1-1.5,0.2c-0.3,0.2-0.5,0.5-0.5,0.9s0.2,0.9,0.6,1.2
		c0.5,0.4,1,0.5,1.9,0.5H83v1.8h-4.1c-0.8,0-1.1,0-1.4,0.2c-0.4,0.2-0.5,0.5-0.5,1s0.3,1,0.7,1.3c0.4,0.3,0.9,0.4,1.8,0.4h3.6v1.8
		h-7.5L75.5,638.9L75.5,638.9z"/>
	<path class="st3" d="M74,627.9h-1.7v-1.8H74V627.9z M82.9,626.2v1.8h-7.5v-1.8H82.9z"/>
	<path class="st3" d="M80.6,623.6c0.8-0.4,1.2-1.1,1.2-1.9c0-0.8-0.3-1.2-0.8-1.2s-0.7,0.3-1.1,1.4l-0.3,0.8c-0.4,1.2-1,1.9-2.2,1.9
		s-2.2-1.1-2.2-2.9c0-1.2,0.5-2.3,1.5-2.9l0.9,1.3c-0.7,0.4-1,0.9-1,1.7s0.3,1.1,0.7,1.1c0.4,0,0.7-0.2,1-1.2l0.2-0.8
		c0.4-1.3,1-2.1,2.2-2.1c1.4,0,2.4,1.2,2.4,3c0,1.5-0.7,2.6-1.7,3.2L80.6,623.6z"/>
	<path class="st3" d="M77.9,613.3c-0.4,0-0.7,0.1-0.9,0.3c-0.2,0.2-0.3,0.6-0.3,1c0,0.9,0.5,1.3,1.3,1.4l-0.1,1.7
		c-1.6-0.1-2.5-1.3-2.5-3.2c0-1,0.2-1.7,0.7-2.2c0.4-0.5,1-0.6,2.2-0.6H81c0.9,0,1.6-0.1,2-0.2v1.7c-0.2,0.1-0.7,0.2-0.9,0.2
		c0.7,0.6,1.1,1.4,1.1,2.4c0,1.4-0.9,2.3-2.2,2.3c-1,0-1.6-0.5-2-1.4c-0.3-0.7-0.5-2.2-0.6-3.4H77.9z M79.4,613.3
		c0,0.9,0.2,1.9,0.5,2.4c0.2,0.5,0.5,0.6,0.9,0.6c0.5,0,0.9-0.4,0.9-1.1c0-0.7-0.3-1.2-0.8-1.6c-0.3-0.2-0.8-0.3-1.2-0.3L79.4,613.3
		L79.4,613.3z"/>
	<path class="st3" d="M82.9,606.2c0.1,0.4,0.2,0.9,0.2,1.3c0,0.7-0.2,1.2-0.5,1.5c-0.4,0.3-0.9,0.4-1.6,0.4h-4.1v1.2h-1.4v-1.2H73
		v-1.7h2.4v-1.5h1.4v1.5h3.7c0.8,0,1-0.2,1-0.8c0-0.2,0-0.5-0.1-0.7H82.9z"/>
	<path class="st3" d="M74,605.1h-1.7v-1.8H74V605.1z M82.9,603.3v1.8h-7.5v-1.8H82.9z"/>
	<path class="st3" d="M83.2,598.2c0,2.3-1.5,3.7-4,3.7s-3.9-1.5-3.9-3.8c0-2.2,1.5-3.6,4-3.6C81.8,594.6,83.2,596,83.2,598.2z
		 M76.7,598.2c0,1.1,0.9,1.9,2.4,1.9c1.7,0,2.5-0.8,2.5-1.9c0-1.1-0.8-1.9-2.4-1.9S76.7,597.1,76.7,598.2z"/>
	<path class="st3" d="M82.9,588.4h-4.3c-0.6,0-1,0.1-1.3,0.3s-0.4,0.5-0.4,1s0.3,1,0.7,1.3c0.5,0.4,1,0.4,1.8,0.4H83v1.8h-7.5v-1.7
		h1.1c-0.8-0.5-1.2-1.4-1.2-2.5c0-0.9,0.3-1.5,0.9-1.9c0.5-0.3,1-0.4,2-0.4H83L82.9,588.4L82.9,588.4z"/>
</g>
<g class="st1">
	<path class="st2" d="M115.6,315.4v-10.6h1.9v8.9h5v1.7H115.6z"/>
	<path class="st2" d="M123.8,306.4v-1.7h1.8v1.7H123.8z M125.6,315.4h-1.8v-7.5h1.8V315.4z"/>
	<path class="st2" d="M129.2,315.4l-2.7-7.5h1.9c0.9,2.5,1.4,4.1,1.8,5.7c0.4-1.5,0.9-3.1,1.8-5.7h1.9l-2.7,7.5H129.2z"/>
	<path class="st2" d="M134.9,306.4v-1.7h1.8v1.7H134.9z M136.7,315.4h-1.8v-7.5h1.8V315.4z"/>
	<path class="st2" d="M143.2,315.4v-4.3c0-0.6-0.1-1-0.3-1.3s-0.5-0.4-1-0.4s-1,0.3-1.3,0.7c-0.4,0.5-0.4,1-0.4,1.8v3.6h-1.8V308
		h1.7v1.1c0.5-0.8,1.4-1.2,2.5-1.2c0.9,0,1.5,0.3,1.9,0.9c0.3,0.5,0.4,1,0.4,2v4.7h-1.7V315.4z"/>
	<path class="st2" d="M151.5,314.3c-0.5,0.6-1.2,1-2.2,1c-1.8,0-3-1.4-3-3.8c0-2.3,1.3-3.8,3.1-3.8c1,0,1.8,0.4,2.2,1v-0.9h1.7v7
		c0,1.5-0.4,2.5-1.2,3.1c-0.6,0.4-1.4,0.6-2.4,0.6c-1.8,0-3-0.8-3.3-2.3l1.8-0.3c0.1,0.8,0.7,1.2,1.5,1.2c0.7,0,1.2-0.2,1.4-0.6
		c0.2-0.3,0.3-0.8,0.3-1.5L151.5,314.3L151.5,314.3z M149.9,309.2c-1.1,0-1.8,0.8-1.8,2.3s0.7,2.4,1.7,2.4s1.7-0.7,1.7-2.2
		C151.6,310.2,151,309.2,149.9,309.2z"/>
	<path class="st2" d="M160,315.4v-1c-0.5,0.7-1.2,1.2-2.2,1.2c-1.7,0-3-1.3-3-3.9c0-2.4,1.4-3.9,3.1-3.9c1.1,0,1.7,0.4,2.1,1v-3.9
		h1.7v10.6H160V315.4z M158.3,309.2c-1,0-1.7,0.8-1.7,2.4c0,1.5,0.6,2.5,1.7,2.5c1,0,1.8-0.8,1.8-2.4
		C160,310.1,159.3,309.2,158.3,309.2z"/>
	<path class="st2" d="M166.8,315.6c-2.3,0-3.7-1.5-3.7-4s1.5-3.9,3.8-3.9c2.2,0,3.6,1.5,3.6,4C170.4,314.2,169,315.6,166.8,315.6z
		 M166.8,309.1c-1.1,0-1.9,0.9-1.9,2.4c0,1.7,0.8,2.5,1.9,2.5c1.1,0,1.9-0.8,1.9-2.4S168,309.1,166.8,309.1z"/>
	<path class="st2" d="M176.5,310.5c-0.2-1-0.8-1.3-1.5-1.3c-1,0-1.8,0.8-1.8,2.4c0,1.7,0.7,2.5,1.8,2.5c0.8,0,1.3-0.4,1.5-1.2
		l1.6,0.5c-0.4,1.2-1.4,2.1-3.1,2.1c-2.2,0-3.6-1.5-3.6-4c0-2.4,1.4-3.9,3.6-3.9c1.6,0,2.6,0.9,3,2.2L176.5,310.5z"/>
	<path class="st2" d="M179.9,313c0.4,0.8,1.1,1.2,1.9,1.2c0.8,0,1.2-0.3,1.2-0.8s-0.3-0.7-1.4-1.1l-0.8-0.3c-1.2-0.4-1.9-1-1.9-2.2
		s1.1-2.2,2.9-2.2c1.2,0,2.3,0.5,2.9,1.5l-1.3,0.9c-0.4-0.7-0.9-1-1.7-1s-1.1,0.3-1.1,0.7c0,0.4,0.2,0.7,1.2,1l0.8,0.2
		c1.3,0.4,2.1,1,2.1,2.2c0,1.4-1.2,2.4-3,2.4c-1.5,0-2.6-0.7-3.2-1.7L179.9,313z"/>
</g>
<g class="st1">
	<path class="st2" d="M121.1,631.1h-10.6v-7.3h1.6v5.4h2.8v-4.9h1.6v4.9h4.5L121.1,631.1L121.1,631.1z"/>
	<path class="st2" d="M119.2,616.6c1.3,0.6,2.1,1.7,2.1,3.3c0,2.4-1.6,3.7-4,3.7s-3.9-1.4-3.9-3.6c0-2.4,1.7-3.4,4.4-3.4v5.2
		c1.3-0.1,2-0.8,2-1.9c0-0.8-0.3-1.4-1.2-1.7L119.2,616.6z M116.5,618.4c-1.2,0.1-1.8,0.7-1.8,1.6s0.6,1.7,1.8,1.8V618.4z"/>
	<path class="st2" d="M119.2,608.7c1.3,0.6,2.1,1.7,2.1,3.3c0,2.4-1.6,3.7-4,3.7s-3.9-1.4-3.9-3.6c0-2.4,1.7-3.4,4.4-3.4v5.2
		c1.3-0.1,2-0.8,2-2c0-0.8-0.3-1.4-1.2-1.7L119.2,608.7z M116.5,610.4c-1.2,0.1-1.8,0.7-1.8,1.6s0.6,1.7,1.8,1.8V610.4z"/>
	<path class="st2" d="M121.1,602.5h-1c0.7,0.5,1.2,1.2,1.2,2.2c0,1.7-1.3,3-3.9,3c-2.4,0-3.9-1.4-3.9-3.1c0-1.1,0.4-1.7,1-2.1h-3.9
		v-1.7h10.6L121.1,602.5L121.1,602.5z M114.9,604.2c0,1,0.8,1.7,2.4,1.7c1.5,0,2.5-0.6,2.5-1.7c0-1-0.8-1.8-2.4-1.8
		C115.8,602.5,114.9,603.1,114.9,604.2z"/>
	<path class="st2" d="M110.5,597.2h4.1c-0.6-0.5-1.2-1.3-1.2-2.3c0-1.8,1.5-2.9,3.9-2.9s3.9,1.2,3.9,3.1c0,1-0.4,1.7-1.1,2.2h1v1.7
		h-10.6C110.5,599,110.5,597.2,110.5,597.2z M119.7,595.5c0-1-0.8-1.7-2.4-1.7c-1.5,0-2.4,0.6-2.4,1.6c0,1.1,0.9,1.8,2.3,1.8
		C118.8,597.2,119.7,596.6,119.7,595.5z"/>
	<path class="st2" d="M116,586.3c-0.4,0-0.7,0.1-0.9,0.3c-0.2,0.2-0.3,0.6-0.3,1c0,0.9,0.5,1.3,1.3,1.4l-0.1,1.7
		c-1.6-0.1-2.5-1.3-2.5-3.2c0-1,0.2-1.7,0.7-2.2c0.4-0.5,1-0.6,2.2-0.6h2.7c0.9,0,1.6-0.1,2-0.2v1.7c-0.2,0.1-0.7,0.2-0.9,0.2
		c0.7,0.6,1.1,1.4,1.1,2.4c0,1.4-0.9,2.3-2.2,2.3c-1,0-1.6-0.5-2-1.4c-0.3-0.7-0.5-2.2-0.6-3.4H116z M117.6,586.3
		c0,0.9,0.2,1.9,0.5,2.4c0.2,0.5,0.5,0.6,0.9,0.6c0.5,0,0.9-0.4,0.9-1.1c0-0.7-0.3-1.2-0.8-1.6c-0.3-0.2-0.8-0.3-1.2-0.3
		L117.6,586.3L117.6,586.3z"/>
	<path class="st2" d="M116.2,578.2c-1,0.2-1.3,0.8-1.3,1.5c0,1,0.8,1.8,2.4,1.8c1.7,0,2.5-0.7,2.5-1.8c0-0.8-0.4-1.3-1.2-1.5
		l0.5-1.6c1.2,0.4,2.1,1.4,2.1,3.1c0,2.2-1.5,3.6-4,3.6c-2.4,0-3.9-1.4-3.9-3.6c0-1.6,0.9-2.6,2.2-3L116.2,578.2z"/>
	<path class="st2" d="M121.1,570.5l-3.4,2.1l1.2,1.1h2.2v1.8h-10.6v-1.8h6.3l-3.2-2.8v-2.1l2.8,2.6l4.6-2.9L121.1,570.5L121.1,570.5
		z"/>
</g>
<g class="st1">
	<path class="st2" d="M523.1,631.1h-10.6v-7.3h1.6v5.4h2.8v-4.9h1.6v4.9h4.5v1.9H523.1z"/>
	<path class="st2" d="M521.2,616.6c1.3,0.6,2.1,1.7,2.1,3.3c0,2.4-1.6,3.7-4,3.7s-3.9-1.4-3.9-3.6c0-2.4,1.7-3.4,4.4-3.4v5.2
		c1.3-0.1,2-0.8,2-1.9c0-0.8-0.3-1.4-1.2-1.7L521.2,616.6z M518.5,618.4c-1.2,0.1-1.8,0.7-1.8,1.6s0.6,1.7,1.8,1.8V618.4z"/>
	<path class="st2" d="M521.2,608.7c1.3,0.6,2.1,1.7,2.1,3.3c0,2.4-1.6,3.7-4,3.7s-3.9-1.4-3.9-3.6c0-2.4,1.7-3.4,4.4-3.4v5.2
		c1.3-0.1,2-0.8,2-2c0-0.8-0.3-1.4-1.2-1.7L521.2,608.7z M518.5,610.4c-1.2,0.1-1.8,0.7-1.8,1.6s0.6,1.7,1.8,1.8V610.4z"/>
	<path class="st2" d="M523.1,602.5h-1c0.7,0.5,1.2,1.2,1.2,2.2c0,1.7-1.3,3-3.9,3c-2.4,0-3.9-1.4-3.9-3.1c0-1.1,0.4-1.7,1-2.1h-3.9
		v-1.7h10.6L523.1,602.5L523.1,602.5z M516.9,604.2c0,1,0.8,1.7,2.4,1.7c1.5,0,2.5-0.6,2.5-1.7c0-1-0.8-1.8-2.4-1.8
		C517.8,602.5,516.9,603.1,516.9,604.2z"/>
	<path class="st2" d="M512.5,597.2h4.1c-0.6-0.5-1.2-1.3-1.2-2.3c0-1.8,1.5-2.9,3.9-2.9s3.9,1.2,3.9,3.1c0,1-0.4,1.7-1.1,2.2h1v1.7
		h-10.6L512.5,597.2L512.5,597.2z M521.7,595.5c0-1-0.8-1.7-2.4-1.7c-1.5,0-2.4,0.6-2.4,1.6c0,1.1,0.9,1.8,2.3,1.8
		C520.8,597.2,521.7,596.6,521.7,595.5z"/>
	<path class="st2" d="M518,586.3c-0.4,0-0.7,0.1-0.9,0.3s-0.3,0.6-0.3,1c0,0.9,0.5,1.3,1.3,1.4l-0.1,1.7c-1.6-0.1-2.5-1.3-2.5-3.2
		c0-1,0.2-1.7,0.7-2.2c0.4-0.5,1-0.6,2.2-0.6h2.7c0.9,0,1.6-0.1,2-0.2v1.7c-0.2,0.1-0.7,0.2-0.9,0.2c0.7,0.6,1.1,1.4,1.1,2.4
		c0,1.4-0.9,2.3-2.2,2.3c-1,0-1.6-0.5-2-1.4c-0.3-0.7-0.5-2.2-0.6-3.4H518z M519.6,586.3c0,0.9,0.2,1.9,0.5,2.4
		c0.2,0.5,0.5,0.6,0.9,0.6c0.5,0,0.9-0.4,0.9-1.1c0-0.7-0.3-1.2-0.8-1.6c-0.3-0.2-0.8-0.3-1.2-0.3L519.6,586.3L519.6,586.3z"/>
	<path class="st2" d="M518.2,578.2c-1,0.2-1.3,0.8-1.3,1.5c0,1,0.8,1.8,2.4,1.8c1.7,0,2.5-0.7,2.5-1.8c0-0.8-0.4-1.3-1.2-1.5
		l0.5-1.6c1.2,0.4,2.1,1.4,2.1,3.1c0,2.2-1.5,3.6-4,3.6c-2.4,0-3.9-1.4-3.9-3.6c0-1.6,0.9-2.6,2.2-3L518.2,578.2z"/>
	<path class="st2" d="M523.1,570.5l-3.4,2.1l1.2,1.1h2.2v1.8h-10.6v-1.8h6.3l-3.2-2.8v-2.1l2.8,2.6l4.6-2.9v2H523.1z"/>
</g>
<g class="st1">
	<path class="st2" d="M178.4,720.4v-4.3c0-0.6-0.1-1.1-0.3-1.4c-0.2-0.3-0.5-0.4-1-0.4s-1,0.3-1.3,0.7c-0.4,0.5-0.4,1-0.4,1.8v3.6
		h-1.8v-10.6h1.7v4.2c0.5-0.8,1.4-1.2,2.5-1.2c0.9,0,1.5,0.3,1.8,0.8s0.4,1,0.4,2.2v4.6L178.4,720.4L178.4,720.4z"/>
	<path class="st2" d="M188.4,718.5c-0.6,1.3-1.7,2.1-3.3,2.1c-2.4,0-3.7-1.6-3.7-4s1.4-3.9,3.6-3.9c2.4,0,3.4,1.7,3.4,4.4h-5.2
		c0.1,1.3,0.8,2,2,2c0.8,0,1.4-0.3,1.7-1.2L188.4,718.5z M186.7,715.8c-0.1-1.2-0.7-1.8-1.6-1.8s-1.7,0.6-1.8,1.8H186.7z"/>
	<path class="st2" d="M191.5,712.9v4.3c0,0.5,0.1,0.9,0.2,1.2c0.2,0.4,0.6,0.6,1.1,0.6s0.9-0.3,1.2-0.6c0.3-0.4,0.5-0.9,0.5-1.6
		v-3.9h1.8v7.5h-1.7v-1.1c-0.5,0.7-1.3,1.2-2.3,1.2s-1.5-0.3-2-0.9c-0.3-0.5-0.5-1.1-0.5-2v-4.7H191.5z"/>
	<path class="st2" d="M201.7,720.3c-0.4,0.1-0.9,0.2-1.3,0.2c-0.7,0-1.2-0.2-1.5-0.5c-0.3-0.4-0.4-0.9-0.4-1.6v-4.1h-1.2v-1.4h1.2
		v-2.4h1.7v2.4h1.5v1.4h-1.5v3.7c0,0.8,0.2,1,0.8,1c0.2,0,0.5,0,0.7-0.1V720.3z"/>
	<path class="st2" d="M209.3,718.5c-0.6,1.3-1.7,2.1-3.3,2.1c-2.4,0-3.7-1.6-3.7-4s1.4-3.9,3.6-3.9c2.4,0,3.4,1.7,3.4,4.4h-5.2
		c0.1,1.3,0.8,2,2,2c0.8,0,1.4-0.3,1.7-1.2L209.3,718.5z M207.6,715.8c-0.1-1.2-0.7-1.8-1.6-1.8s-1.7,0.6-1.8,1.8H207.6z"/>
	<path class="st2" d="M212.4,720.4h-1.8v-2.2h1.8V720.4z"/>
	<path class="st2" d="M218.3,715.3c0-0.4-0.1-0.7-0.3-0.9s-0.6-0.3-1-0.3c-0.9,0-1.3,0.5-1.4,1.3l-1.7-0.1c0.1-1.6,1.3-2.5,3.2-2.5
		c1,0,1.7,0.2,2.2,0.7c0.5,0.4,0.6,1,0.6,2.2v2.7c0,0.9,0.1,1.6,0.2,2h-1.7c-0.1-0.2-0.2-0.7-0.2-0.9c-0.6,0.7-1.4,1.1-2.4,1.1
		c-1.4,0-2.3-0.9-2.3-2.2c0-1,0.5-1.6,1.4-2c0.7-0.3,2.2-0.5,3.4-0.6V715.3z M218.3,716.9c-0.9,0-1.9,0.2-2.4,0.5
		c-0.5,0.2-0.6,0.5-0.6,0.9c0,0.5,0.4,0.9,1.1,0.9c0.7,0,1.2-0.3,1.6-0.8c0.2-0.3,0.3-0.8,0.3-1.2L218.3,716.9L218.3,716.9z"/>
	<path class="st2" d="M225.4,720.3c-0.4,0.1-0.9,0.2-1.3,0.2c-0.7,0-1.2-0.2-1.5-0.5c-0.3-0.4-0.4-0.9-0.4-1.6v-4.1H221v-1.4h1.2
		v-2.4h1.7v2.4h1.5v1.4h-1.5v3.7c0,0.8,0.2,1,0.8,1c0.2,0,0.5,0,0.7-0.1V720.3z"/>
</g>
<g class="st1">
	<path class="st2" d="M348.3,720.4v-10.6h4.4c1.5,0,2.3,0.2,2.9,0.6c0.8,0.6,1.2,1.5,1.2,2.6c0,1.2-0.4,2.2-1.3,2.8
		c-0.8,0.4-1.9,0.6-3.2,0.6h-2.1v4L348.3,720.4L348.3,720.4z M352.1,714.7c1,0,1.7-0.1,2.1-0.4c0.4-0.3,0.5-0.7,0.5-1.3
		c0-0.5-0.2-1-0.5-1.3c-0.4-0.3-0.9-0.4-2-0.4h-2v3.4H352.1z"/>
	<path class="st2" d="M357.5,720.4v-7.5h1.7v1.2c0.5-0.8,1-1.2,2.1-1.2c0.2,0,0.4,0,0.6,0.1v1.8c-0.3-0.1-0.5-0.2-0.8-0.2
		c-0.6,0-1.1,0.3-1.4,0.7s-0.4,0.9-0.4,1.7v3.5L357.5,720.4L357.5,720.4z"/>
	<path class="st2" d="M362.9,711.4v-1.7h1.8v1.7H362.9z M364.7,720.4h-1.8v-7.5h1.8V720.4z"/>
	<path class="st2" d="M371.2,720.4v-4.3c0-0.6-0.1-1-0.3-1.3c-0.2-0.3-0.5-0.4-1-0.4s-1,0.3-1.3,0.7c-0.4,0.5-0.4,1-0.4,1.8v3.6
		h-1.8V713h1.7v1.1c0.5-0.8,1.4-1.2,2.5-1.2c0.9,0,1.5,0.3,1.9,0.9c0.3,0.5,0.4,1,0.4,2v4.7L371.2,720.4L371.2,720.4z"/>
	<path class="st2" d="M378.4,720.3c-0.4,0.1-0.9,0.2-1.3,0.2c-0.7,0-1.2-0.2-1.5-0.5c-0.3-0.4-0.4-0.9-0.4-1.6v-4.1H374v-1.4h1.2
		v-2.4h1.7v2.4h1.5v1.4h-1.5v3.7c0,0.8,0.2,1,0.8,1c0.2,0,0.5,0,0.7-0.1L378.4,720.3L378.4,720.3z"/>
	<path class="st2" d="M385,709.8c2.3,3.9,3.7,6,4.7,7.8c-0.1-1.6-0.1-3.8-0.1-7.8h1.9v10.6h-2.1c-2.2-3.6-3.6-5.9-4.7-7.8
		c0,0.9,0.1,3,0.1,7.8h-1.9v-10.6H385z"/>
	<path class="st2" d="M399.9,718.5c-0.6,1.3-1.7,2.1-3.3,2.1c-2.4,0-3.7-1.6-3.7-4s1.4-3.9,3.6-3.9c2.4,0,3.4,1.7,3.4,4.4h-5.2
		c0.1,1.3,0.8,2,2,2c0.8,0,1.4-0.3,1.7-1.2L399.9,718.5z M398.2,715.8c-0.1-1.2-0.7-1.8-1.6-1.8s-1.7,0.6-1.8,1.8H398.2z"/>
	<path class="st2" d="M407.4,720.4c-0.5-2-1-3.8-1.3-5.5c-0.3,1.4-0.7,2.8-1.4,5.5h-2l-2.2-7.5h1.9c0.5,2,1.1,4.2,1.5,5.6
		c0.3-1.4,0.6-2.9,1.4-5.6h1.8c0.6,2.4,1,4,1.4,5.6c0.4-1.6,0.9-3.7,1.5-5.6h1.8l-2.3,7.5H407.4z"/>
	<path class="st2" d="M413.3,718c0.4,0.8,1.1,1.2,1.9,1.2s1.2-0.3,1.2-0.8s-0.3-0.7-1.4-1.1l-0.8-0.3c-1.2-0.4-1.9-1-1.9-2.2
		s1.1-2.2,2.9-2.2c1.2,0,2.3,0.5,2.9,1.5l-1.3,0.9c-0.4-0.7-0.9-1-1.7-1c-0.8,0-1.1,0.3-1.1,0.7s0.2,0.7,1.2,1l0.8,0.2
		c1.3,0.4,2.1,1,2.1,2.2c0,1.4-1.2,2.4-3,2.4c-1.5,0-2.6-0.7-3.2-1.7L413.3,718z"/>
	<path class="st2" d="M421.1,712.9v1.1c0.5-0.7,1.2-1.2,2.3-1.2c1.7,0,3,1.3,3,3.9c0,2.4-1.4,3.9-3.1,3.9c-1.1,0-1.7-0.4-2.1-1v3.8
		h-1.7V713L421.1,712.9L421.1,712.9z M422.8,719c1,0,1.7-0.8,1.7-2.4c0-1.5-0.6-2.5-1.6-2.5s-1.8,0.8-1.8,2.4
		C421.1,718.1,421.8,719,422.8,719z"/>
	<path class="st2" d="M432,715.3c0-0.4-0.1-0.7-0.3-0.9c-0.2-0.2-0.6-0.3-1-0.3c-0.9,0-1.3,0.5-1.4,1.3l-1.7-0.1
		c0.1-1.6,1.3-2.5,3.2-2.5c1,0,1.7,0.2,2.2,0.7c0.5,0.4,0.6,1,0.6,2.2v2.7c0,0.9,0.1,1.6,0.2,2h-1.7c-0.1-0.2-0.2-0.7-0.2-0.9
		c-0.6,0.7-1.4,1.1-2.4,1.1c-1.4,0-2.3-0.9-2.3-2.2c0-1,0.5-1.6,1.4-2c0.7-0.3,2.2-0.5,3.4-0.6L432,715.3L432,715.3z M432,716.9
		c-0.9,0-1.9,0.2-2.4,0.5c-0.5,0.2-0.6,0.5-0.6,0.9c0,0.5,0.4,0.9,1.1,0.9s1.2-0.3,1.6-0.8c0.2-0.3,0.3-0.8,0.3-1.2V716.9z"/>
	<path class="st2" d="M437.2,712.9v1.1c0.5-0.7,1.2-1.2,2.3-1.2c1.7,0,3,1.3,3,3.9c0,2.4-1.4,3.9-3.1,3.9c-1.1,0-1.7-0.4-2.1-1v3.8
		h-1.7V713L437.2,712.9L437.2,712.9z M438.9,719c1,0,1.7-0.8,1.7-2.4c0-1.5-0.6-2.5-1.7-2.5c-1,0-1.8,0.8-1.8,2.4
		C437.2,718.1,437.8,719,438.9,719z"/>
	<path class="st2" d="M450.4,718.5c-0.6,1.3-1.7,2.1-3.3,2.1c-2.4,0-3.7-1.6-3.7-4s1.4-3.9,3.6-3.9c2.4,0,3.4,1.7,3.4,4.4h-5.2
		c0.1,1.3,0.8,2,2,2c0.8,0,1.4-0.3,1.7-1.2L450.4,718.5z M448.6,715.8c-0.1-1.2-0.7-1.8-1.6-1.8s-1.7,0.6-1.8,1.8H448.6z"/>
	<path class="st2" d="M451.8,720.4v-7.5h1.7v1.2c0.5-0.8,1-1.2,2.1-1.2c0.2,0,0.4,0,0.6,0.1v1.8c-0.3-0.1-0.5-0.2-0.8-0.2
		c-0.6,0-1.1,0.3-1.4,0.7s-0.4,0.9-0.4,1.7v3.5L451.8,720.4L451.8,720.4z"/>
</g>
<g class="st1">
	<path class="st2" d="M169.3,415.4l-0.8-2.5h-4.2l-0.9,2.5h-2.1l4-10.6h2.1l3.9,10.6H169.3z M168,411.4c-0.6-1.7-1.1-3.2-1.6-4.7
		c-0.3,1.1-0.7,2.1-1.6,4.7H168z"/>
	<path class="st2" d="M172.3,415.4v-10.6h4.4c1.5,0,2.3,0.2,2.9,0.6c0.8,0.6,1.2,1.5,1.2,2.6c0,1.2-0.4,2.2-1.3,2.8
		c-0.8,0.4-1.9,0.6-3.1,0.6h-2.1v4H172.3z M176.1,409.7c1,0,1.7-0.1,2.1-0.4c0.4-0.3,0.5-0.7,0.5-1.3c0-0.5-0.2-1-0.5-1.3
		c-0.4-0.3-0.9-0.4-2-0.4h-2v3.4L176.1,409.7L176.1,409.7z"/>
	<path class="st2" d="M184.2,415.4h-1.9v-10.6h1.9V415.4z"/>
</g>
<g class="st1">
	<path class="st2" d="M257.6,104.8h3.3c1.9,0,2.7,0.1,3.5,0.5c1.5,0.7,2.1,2.5,2.1,4.7c0,1.7-0.5,3.2-1.4,4.1c-1,1-2.2,1.3-4.4,1.3
		h-3.1V104.8z M260.9,113.7c1.4,0,2.3-0.3,2.9-0.9s0.8-1.6,0.8-2.9c0-1.1-0.2-2.1-0.8-2.7c-0.5-0.5-1.1-0.8-2.6-0.8h-1.6v7.3H260.9z
		"/>
	<path class="st2" d="M274.6,113.5c-0.6,1.3-1.7,2.1-3.3,2.1c-2.4,0-3.7-1.6-3.7-4s1.4-3.9,3.6-3.9c2.4,0,3.4,1.7,3.4,4.4h-5.2
		c0.1,1.3,0.8,2,2,2c0.8,0,1.4-0.3,1.7-1.2L274.6,113.5z M272.8,110.8c-0.1-1.2-0.7-1.8-1.6-1.8s-1.7,0.6-1.8,1.8H272.8z"/>
	<path class="st2" d="M277.7,107.9v1.1c0.5-0.7,1.2-1.2,2.3-1.2c1.7,0,3,1.3,3,3.9c0,2.4-1.4,3.9-3.1,3.9c-1.1,0-1.7-0.4-2.1-1v3.8
		H276V108h1.7V107.9z M279.4,114c1,0,1.7-0.8,1.7-2.4c0-1.5-0.6-2.5-1.6-2.5s-1.8,0.8-1.8,2.4S278.4,114,279.4,114z"/>
	<path class="st2" d="M288.6,110.3c0-0.4-0.1-0.7-0.3-0.9c-0.2-0.2-0.6-0.3-1-0.3c-0.9,0-1.3,0.5-1.4,1.3l-1.7-0.1
		c0.1-1.6,1.3-2.5,3.2-2.5c1,0,1.7,0.2,2.2,0.7c0.5,0.4,0.6,1,0.6,2.2v2.7c0,0.9,0.1,1.6,0.2,2h-1.7c-0.1-0.2-0.2-0.7-0.2-0.9
		c-0.6,0.7-1.4,1.1-2.4,1.1c-1.4,0-2.3-0.9-2.3-2.2c0-1,0.5-1.6,1.4-2c0.7-0.3,2.2-0.5,3.4-0.6L288.6,110.3L288.6,110.3z
		 M288.6,111.9c-0.9,0-1.9,0.2-2.4,0.5c-0.5,0.2-0.6,0.5-0.6,0.9c0,0.5,0.4,0.9,1.1,0.9s1.2-0.3,1.6-0.8c0.2-0.3,0.3-0.8,0.3-1.2
		V111.9z"/>
	<path class="st2" d="M292.1,115.4v-7.5h1.7v1.2c0.5-0.8,1-1.2,2.1-1.2c0.2,0,0.4,0,0.6,0.1v1.8c-0.3-0.1-0.5-0.2-0.8-0.2
		c-0.6,0-1.1,0.3-1.4,0.7c-0.3,0.4-0.4,0.9-0.4,1.7v3.5L292.1,115.4L292.1,115.4z"/>
	<path class="st2" d="M301.3,115.3c-0.4,0.1-0.9,0.2-1.3,0.2c-0.7,0-1.2-0.2-1.5-0.5c-0.3-0.4-0.4-0.9-0.4-1.6v-4.1h-1.2v-1.4h1.2
		v-2.4h1.7v2.4h1.5v1.4h-1.5v3.7c0,0.8,0.2,1,0.8,1c0.2,0,0.5,0,0.7-0.1L301.3,115.3L301.3,115.3z"/>
	<path class="st2" d="M304.1,107.9v1.1c0.6-0.8,1.4-1.2,2.4-1.2c1.1,0,1.7,0.5,2,1.3c0.6-0.8,1.5-1.3,2.6-1.3c0.9,0,1.7,0.4,1.9,1.2
		c0.2,0.5,0.2,1,0.2,2v4.3h-1.8v-4c0-0.8-0.1-1.2-0.2-1.5c-0.2-0.3-0.5-0.5-0.9-0.5s-0.9,0.2-1.2,0.6c-0.4,0.5-0.5,1-0.5,1.9v3.6
		h-1.8v-4.1c0-0.8,0-1.1-0.2-1.4c-0.2-0.4-0.5-0.5-1-0.5s-1,0.3-1.3,0.7c-0.3,0.4-0.4,0.9-0.4,1.8v3.6h-1.8V108L304.1,107.9
		L304.1,107.9z"/>
	<path class="st2" d="M321.5,113.5c-0.6,1.3-1.7,2.1-3.3,2.1c-2.4,0-3.7-1.6-3.7-4s1.4-3.9,3.6-3.9c2.4,0,3.4,1.7,3.4,4.4h-5.2
		c0.1,1.3,0.8,2,1.9,2c0.8,0,1.4-0.3,1.7-1.2L321.5,113.5z M319.8,110.8c-0.1-1.2-0.7-1.8-1.6-1.8s-1.7,0.6-1.8,1.8H319.8z"/>
	<path class="st2" d="M327.7,115.4v-4.3c0-0.6-0.1-1-0.3-1.3c-0.2-0.3-0.5-0.4-1-0.4s-1,0.3-1.3,0.7c-0.4,0.5-0.4,1-0.4,1.8v3.6H323
		V108h1.7v1.1c0.5-0.8,1.4-1.2,2.5-1.2c0.9,0,1.5,0.3,1.9,0.9c0.3,0.5,0.4,1,0.4,2v4.7L327.7,115.4L327.7,115.4z"/>
	<path class="st2" d="M334.8,115.3c-0.4,0.1-0.9,0.2-1.3,0.2c-0.7,0-1.2-0.2-1.5-0.5c-0.3-0.4-0.4-0.9-0.4-1.6v-4.1h-1.2v-1.4h1.2
		v-2.4h1.7v2.4h1.5v1.4h-1.5v3.7c0,0.8,0.2,1,0.8,1c0.2,0,0.5,0,0.7-0.1L334.8,115.3L334.8,115.3z"/>
	<path class="st2" d="M336.6,113c0.4,0.8,1.1,1.2,1.9,1.2s1.2-0.3,1.2-0.8s-0.3-0.7-1.4-1.1l-0.8-0.3c-1.2-0.4-1.9-1-1.9-2.2
		s1.1-2.2,2.9-2.2c1.2,0,2.3,0.5,2.9,1.5l-1.3,0.9c-0.4-0.7-0.9-1-1.7-1c-0.8,0-1.1,0.3-1.1,0.7c0,0.4,0.2,0.7,1.2,1l0.8,0.2
		c1.3,0.4,2.1,1,2.1,2.2c0,1.4-1.2,2.4-3,2.4c-1.5,0-2.6-0.7-3.2-1.7L336.6,113z"/>
</g>
<g class="st1">
	<path class="st2" d="M364,115.4v-1.2c-0.7,0.9-1.8,1.4-3.1,1.4c-2.7,0-4.6-2.1-4.6-5.4c0-3.2,1.9-5.7,5.2-5.7c2.1,0,3.5,1,4.2,2.8
		l-1.9,0.7c-0.3-1.1-1.1-1.8-2.4-1.8c-2,0-3.2,1.5-3.2,3.9c0,2.5,1.3,3.8,3.1,3.8c1.7,0,2.5-1,2.6-2.8h-3v-1.6h4.7v5.8L364,115.4
		L364,115.4z"/>
	<path class="st2" d="M367.7,115.4v-7.5h1.7v1.2c0.5-0.8,1-1.2,2.1-1.2c0.2,0,0.4,0,0.6,0.1v1.8c-0.3-0.1-0.5-0.2-0.8-0.2
		c-0.6,0-1.1,0.3-1.4,0.7c-0.3,0.4-0.4,0.9-0.4,1.7v3.5L367.7,115.4L367.7,115.4z"/>
	<path class="st2" d="M377.3,110.3c0-0.4-0.1-0.7-0.3-0.9c-0.2-0.2-0.6-0.3-1-0.3c-0.9,0-1.3,0.5-1.4,1.3l-1.7-0.1
		c0.1-1.6,1.3-2.5,3.2-2.5c1,0,1.7,0.2,2.2,0.7c0.5,0.4,0.6,1,0.6,2.2v2.7c0,0.9,0.1,1.6,0.2,2h-1.7c-0.1-0.2-0.2-0.7-0.2-0.9
		c-0.6,0.7-1.4,1.1-2.4,1.1c-1.4,0-2.3-0.9-2.3-2.2c0-1,0.5-1.6,1.4-2c0.7-0.3,2.2-0.5,3.4-0.6L377.3,110.3L377.3,110.3z
		 M377.3,111.9c-0.9,0-1.9,0.2-2.4,0.5c-0.5,0.2-0.6,0.5-0.6,0.9c0,0.5,0.4,0.9,1.1,0.9s1.2-0.3,1.6-0.8c0.2-0.3,0.3-0.8,0.3-1.2
		V111.9z"/>
	<path class="st2" d="M382.5,107.9v1.1c0.5-0.7,1.2-1.2,2.3-1.2c1.7,0,3,1.3,3,3.9c0,2.4-1.4,3.9-3.1,3.9c-1.1,0-1.7-0.4-2.1-1v3.8
		h-1.7V108h1.6V107.9z M384.2,114c1,0,1.7-0.8,1.7-2.4c0-1.5-0.6-2.5-1.6-2.5s-1.8,0.8-1.8,2.4C382.5,113.1,383.1,114,384.2,114z"/>
	<path class="st2" d="M393.9,115.4v-4.3c0-0.6-0.1-1.1-0.3-1.4c-0.2-0.3-0.5-0.4-1-0.4s-1,0.3-1.3,0.7c-0.4,0.5-0.4,1-0.4,1.8v3.6
		h-1.8v-10.6h1.7v4.2c0.5-0.8,1.4-1.2,2.5-1.2c0.9,0,1.5,0.3,1.8,0.8s0.5,1,0.5,2.2v4.6C395.6,115.4,393.9,115.4,393.9,115.4z"/>
	<path class="st2" d="M397.4,106.4v-1.7h1.8v1.7H397.4z M399.1,115.4h-1.8v-7.5h1.8V115.4z"/>
	<path class="st2" d="M405.6,110.5c-0.2-1-0.8-1.3-1.5-1.3c-1,0-1.8,0.8-1.8,2.4c0,1.7,0.7,2.5,1.8,2.5c0.8,0,1.3-0.4,1.5-1.2
		l1.6,0.5c-0.4,1.2-1.4,2.1-3.1,2.1c-2.2,0-3.6-1.5-3.6-4c0-2.4,1.4-3.9,3.6-3.9c1.6,0,2.6,0.9,3,2.2L405.6,110.5z"/>
	<path class="st2" d="M409,113c0.4,0.8,1.1,1.2,1.9,1.2s1.2-0.3,1.2-0.8s-0.3-0.7-1.4-1.1l-0.8-0.3c-1.2-0.4-1.9-1-1.9-2.2
		s1.1-2.2,2.9-2.2c1.2,0,2.3,0.5,2.9,1.5l-1.3,0.9c-0.4-0.7-0.9-1-1.7-1c-0.8,0-1.1,0.3-1.1,0.7c0,0.4,0.2,0.7,1.2,1l0.8,0.2
		c1.3,0.4,2.1,1,2.1,2.2c0,1.4-1.2,2.4-3,2.4c-1.5,0-2.6-0.7-3.2-1.7L409,113z"/>
	<path class="st2" d="M418.6,104.8h3.3c1.9,0,2.7,0.1,3.5,0.5c1.5,0.7,2.1,2.5,2.1,4.7c0,1.7-0.5,3.2-1.4,4.1c-1,1-2.2,1.3-4.4,1.3
		h-3.1V104.8z M421.9,113.7c1.4,0,2.3-0.3,2.9-0.9s0.8-1.6,0.8-2.9c0-1.1-0.2-2.1-0.8-2.7c-0.5-0.5-1.1-0.8-2.6-0.8h-1.6v7.3H421.9z
		"/>
	<path class="st2" d="M430.7,107.9v1.1c0.5-0.7,1.2-1.2,2.3-1.2c1.7,0,3,1.3,3,3.9c0,2.4-1.4,3.9-3.1,3.9c-1.1,0-1.7-0.4-2.1-1v3.8
		H429V108h1.7V107.9z M432.4,114c1,0,1.7-0.8,1.7-2.4c0-1.5-0.6-2.5-1.6-2.5s-1.8,0.8-1.8,2.4S431.4,114,432.4,114z"/>
	<path class="st2" d="M441,115.3c-0.4,0.1-0.9,0.2-1.3,0.2c-0.7,0-1.2-0.2-1.5-0.5c-0.3-0.4-0.4-0.9-0.4-1.6v-4.1h-1.2v-1.4h1.2
		v-2.4h1.7v2.4h1.5v1.4h-1.5v3.7c0,0.8,0.2,1,0.8,1c0.2,0,0.5,0,0.7-0.1L441,115.3L441,115.3z"/>
	<path class="st2" d="M443.8,115.4H442v-2.2h1.8V115.4z"/>
</g>
<g class="st1">
	<path class="st2" d="M168.4,104.8c2.3,3.9,3.7,6,4.7,7.8c-0.1-1.6-0.1-3.8-0.1-7.8h1.9v10.6h-2.1c-2.2-3.6-3.6-5.9-4.7-7.8
		c0,0.9,0.1,3,0.1,7.8h-1.9v-10.6H168.4z"/>
	<path class="st2" d="M183.4,113.5c-0.6,1.3-1.7,2.1-3.3,2.1c-2.4,0-3.7-1.6-3.7-4s1.4-3.9,3.6-3.9c2.4,0,3.4,1.7,3.4,4.4h-5.2
		c0.1,1.3,0.8,2,2,2c0.8,0,1.4-0.3,1.7-1.2L183.4,113.5z M181.6,110.8c-0.1-1.2-0.7-1.8-1.6-1.8s-1.7,0.6-1.8,1.8H181.6z"/>
	<path class="st2" d="M190.9,115.4c-0.5-2-1-3.8-1.3-5.5c-0.3,1.4-0.7,2.8-1.4,5.5h-2l-2.2-7.5h1.9c0.5,2,1.1,4.2,1.5,5.6
		c0.3-1.4,0.6-2.9,1.4-5.6h1.8c0.6,2.4,1,4,1.4,5.6c0.4-1.6,0.9-3.7,1.5-5.6h1.8l-2.3,7.5H190.9z"/>
	<path class="st2" d="M196.7,113c0.4,0.8,1.1,1.2,1.9,1.2c0.8,0,1.2-0.3,1.2-0.8s-0.3-0.7-1.4-1.1l-0.8-0.3c-1.2-0.4-1.9-1-1.9-2.2
		s1.1-2.2,2.9-2.2c1.2,0,2.3,0.5,2.9,1.5l-1.3,0.9c-0.4-0.7-0.9-1-1.7-1s-1.1,0.3-1.1,0.7c0,0.4,0.2,0.7,1.2,1l0.8,0.2
		c1.3,0.4,2.1,1,2.1,2.2c0,1.4-1.2,2.4-3,2.4c-1.5,0-2.6-0.7-3.2-1.7L196.7,113z"/>
	<path class="st2" d="M207.7,115.4v-1c-0.5,0.7-1.2,1.2-2.2,1.2c-1.7,0-3-1.3-3-3.9c0-2.4,1.4-3.9,3.1-3.9c1.1,0,1.7,0.4,2.1,1v-3.9
		h1.7v10.6L207.7,115.4L207.7,115.4z M206,109.2c-1,0-1.7,0.8-1.7,2.4c0,1.5,0.6,2.5,1.7,2.5c1,0,1.8-0.8,1.8-2.4
		C207.7,110.1,207,109.2,206,109.2z"/>
	<path class="st2" d="M217.7,113.5c-0.6,1.3-1.7,2.1-3.3,2.1c-2.4,0-3.7-1.6-3.7-4s1.4-3.9,3.6-3.9c2.4,0,3.4,1.7,3.4,4.4h-5.2
		c0.1,1.3,0.8,2,2,2c0.8,0,1.4-0.3,1.7-1.2L217.7,113.5z M216,110.8c-0.1-1.2-0.7-1.8-1.6-1.8s-1.7,0.6-1.8,1.8H216z"/>
	<path class="st2" d="M219.8,113c0.4,0.8,1.1,1.2,1.9,1.2c0.8,0,1.2-0.3,1.2-0.8s-0.3-0.7-1.4-1.1l-0.8-0.3c-1.2-0.4-1.9-1-1.9-2.2
		s1.1-2.2,2.9-2.2c1.2,0,2.3,0.5,2.9,1.5l-1.3,0.9c-0.4-0.7-0.9-1-1.7-1s-1.1,0.3-1.1,0.7c0,0.4,0.2,0.7,1.2,1l0.8,0.2
		c1.3,0.4,2.1,1,2.1,2.2c0,1.4-1.2,2.4-3,2.4c-1.5,0-2.6-0.7-3.2-1.7L219.8,113z"/>
	<path class="st2" d="M230.9,115.4l-2.1-3.4l-1.1,1.2v2.2H226v-10.6h1.8v6.3l2.8-3.2h2.1l-2.6,2.8l2.9,4.6L230.9,115.4L230.9,115.4z
		"/>
</g>
<g class="st1">
	<path class="st2" d="M422.1,297.4l-0.8-2.5h-4.2l-0.9,2.5h-2.1l4-10.6h2.1l3.9,10.6H422.1z M420.8,293.4c-0.6-1.7-1.1-3.2-1.6-4.7
		c-0.3,1.1-0.7,2.1-1.7,4.7H420.8z"/>
	<path class="st2" d="M429.9,297.4v-1c-0.5,0.7-1.2,1.2-2.2,1.2c-1.7,0-3-1.3-3-3.9c0-2.4,1.4-3.9,3.1-3.9c1.1,0,1.7,0.4,2.1,1v-3.9
		h1.7v10.6h-1.7V297.4z M428.2,291.2c-1,0-1.7,0.8-1.7,2.4c0,1.5,0.6,2.5,1.7,2.5c1,0,1.8-0.8,1.8-2.4
		C429.9,292.1,429.3,291.2,428.2,291.2z"/>
	<path class="st2" d="M436.7,297.6c-2.3,0-3.7-1.5-3.7-4s1.5-3.9,3.8-3.9c2.2,0,3.6,1.5,3.6,4S438.9,297.6,436.7,297.6z
		 M436.8,291.1c-1.1,0-1.9,0.9-1.9,2.4c0,1.7,0.8,2.5,1.9,2.5s1.9-0.8,1.9-2.4C438.6,292,437.9,291.1,436.8,291.1z"/>
	<path class="st2" d="M443.5,286.8v4.1c0.5-0.6,1.3-1.2,2.3-1.2c1.8,0,2.9,1.5,2.9,3.9s-1.2,3.9-3.1,3.9c-1,0-1.7-0.4-2.2-1.1v1
		h-1.7v-10.6L443.5,286.8L443.5,286.8z M445.2,296c1,0,1.7-0.8,1.7-2.4c0-1.5-0.6-2.4-1.6-2.4c-1.1,0-1.8,0.9-1.8,2.3
		C443.5,295.1,444.1,296,445.2,296z"/>
	<path class="st2" d="M456.7,295.5c-0.6,1.3-1.7,2.1-3.3,2.1c-2.4,0-3.7-1.6-3.7-4s1.4-3.9,3.6-3.9c2.4,0,3.4,1.7,3.4,4.4h-5.2
		c0.1,1.3,0.8,2,2,2c0.8,0,1.4-0.3,1.7-1.2L456.7,295.5z M455,292.8c-0.1-1.2-0.7-1.8-1.6-1.8s-1.7,0.6-1.8,1.8H455z"/>
</g>
<g class="st1">
	<path class="st2" d="M417.1,315.4h-1.9v-10.6h1.9V315.4z"/>
	<path class="st2" d="M423.7,315.4v-4.3c0-0.6-0.1-1-0.3-1.3c-0.2-0.3-0.5-0.4-1-0.4s-1,0.3-1.3,0.7c-0.4,0.5-0.4,1-0.4,1.8v3.6H419
		V308h1.7v1.1c0.5-0.8,1.4-1.2,2.5-1.2c0.9,0,1.5,0.3,1.9,0.9c0.3,0.5,0.4,1,0.4,2v4.7h-1.8V315.4z"/>
	<path class="st2" d="M427.3,304.8h3.3c1.9,0,2.7,0.1,3.5,0.5c1.5,0.7,2.1,2.5,2.1,4.7c0,1.7-0.5,3.2-1.4,4.1c-1,1-2.2,1.3-4.4,1.3
		h-3.1V304.8z M430.5,313.7c1.4,0,2.3-0.3,2.9-0.9s0.8-1.6,0.8-2.9c0-1.1-0.2-2.1-0.8-2.7c-0.5-0.5-1.1-0.8-2.6-0.8h-1.6v7.3H430.5z
		"/>
	<path class="st2" d="M444.2,313.5c-0.6,1.3-1.7,2.1-3.3,2.1c-2.4,0-3.7-1.6-3.7-4s1.4-3.9,3.6-3.9c2.4,0,3.4,1.7,3.4,4.4H439
		c0.1,1.3,0.8,2,2,2c0.8,0,1.4-0.3,1.7-1.2L444.2,313.5z M442.5,310.8c-0.1-1.2-0.7-1.8-1.6-1.8s-1.7,0.6-1.8,1.8H442.5z"/>
	<path class="st2" d="M446.3,313c0.4,0.8,1.1,1.2,1.9,1.2s1.2-0.3,1.2-0.8s-0.3-0.7-1.4-1.1l-0.8-0.3c-1.2-0.4-1.9-1-1.9-2.2
		s1.1-2.2,2.9-2.2c1.2,0,2.3,0.5,2.9,1.5l-1.3,0.9c-0.4-0.7-0.9-1-1.7-1c-0.8,0-1.1,0.3-1.1,0.7c0,0.4,0.2,0.7,1.2,1l0.8,0.2
		c1.3,0.4,2.1,1,2.1,2.2c0,1.4-1.2,2.4-3,2.4c-1.5,0-2.6-0.7-3.2-1.7L446.3,313z"/>
	<path class="st2" d="M452.5,306.4v-1.7h1.8v1.7H452.5z M454.2,315.4h-1.8v-7.5h1.8V315.4z"/>
	<path class="st2" d="M460.9,314.3c-0.5,0.6-1.2,1-2.2,1c-1.8,0-3-1.4-3-3.8c0-2.3,1.3-3.8,3.1-3.8c1,0,1.8,0.4,2.2,1v-0.9h1.7v7
		c0,1.5-0.4,2.5-1.2,3.1c-0.6,0.4-1.4,0.6-2.4,0.6c-1.8,0-3-0.8-3.3-2.3l1.8-0.3c0.1,0.8,0.7,1.2,1.5,1.2c0.7,0,1.2-0.2,1.4-0.6
		c0.2-0.3,0.3-0.8,0.3-1.5v-0.7H460.9z M459.3,309.2c-1.1,0-1.8,0.8-1.8,2.3s0.7,2.4,1.7,2.4s1.7-0.7,1.7-2.2
		C460.9,310.2,460.4,309.2,459.3,309.2z"/>
	<path class="st2" d="M469.3,315.4v-4.3c0-0.6-0.1-1-0.3-1.3c-0.2-0.3-0.5-0.4-1-0.4s-1,0.3-1.3,0.7c-0.4,0.5-0.4,1-0.4,1.8v3.6
		h-1.8V308h1.7v1.1c0.5-0.8,1.4-1.2,2.5-1.2c0.9,0,1.5,0.3,1.9,0.9c0.3,0.5,0.4,1,0.4,2v4.7h-1.7V315.4z"/>
</g>
<g class="st1">
	<path class="st2" d="M317.1,415.4l-0.8-2.5h-4.2l-0.9,2.5h-2.1l4-10.6h2.1l3.9,10.6H317.1z M315.8,411.4c-0.6-1.7-1.1-3.2-1.6-4.7
		c-0.3,1.1-0.7,2.1-1.7,4.7H315.8z"/>
	<path class="st2" d="M324.9,415.4v-1c-0.5,0.7-1.2,1.2-2.2,1.2c-1.7,0-3-1.3-3-3.9c0-2.4,1.4-3.9,3.1-3.9c1.1,0,1.7,0.4,2.1,1v-3.9
		h1.7v10.6h-1.7V415.4z M323.2,409.2c-1,0-1.7,0.8-1.7,2.4c0,1.5,0.6,2.5,1.7,2.5c1,0,1.8-0.8,1.8-2.4
		C324.9,410.1,324.3,409.2,323.2,409.2z"/>
	<path class="st2" d="M329.1,413c0.4,0.8,1.1,1.2,1.9,1.2s1.2-0.3,1.2-0.8s-0.3-0.7-1.4-1.1L330,412c-1.2-0.4-1.9-1-1.9-2.2
		s1-2.2,2.9-2.2c1.2,0,2.3,0.5,2.9,1.5l-1.3,0.9c-0.4-0.7-0.9-1-1.7-1c-0.8,0-1.1,0.3-1.1,0.7c0,0.4,0.2,0.7,1.2,1l0.8,0.2
		c1.3,0.4,2.1,1,2.1,2.2c0,1.4-1.2,2.4-3,2.4c-1.5,0-2.6-0.7-3.2-1.7L329.1,413z"/>
</g>
</svg>
