<?xml version="1.0" encoding="utf-8"?>
<!-- Generator: Adobe Illustrator 24.1.0, SVG Export Plug-In . SVG Version: 6.00 Build 0)  -->
<svg version="1.1" id="labels_de" xmlns="http://www.w3.org/2000/svg" xmlns:xlink="http://www.w3.org/1999/xlink" x="0px" y="0px"
	 viewBox="0 0 1201 653" style="enable-background:new 0 0 1201 653;" xml:space="preserve">
<style type="text/css">
	.st0{fill:#141414;}
	.st1{fill:#636FF7;}
</style>
<g>
	<path class="st0" d="M344.24,101.77c2.31,3.87,3.67,6.03,4.69,7.83c-0.06-1.62-0.08-3.77-0.08-7.83h1.89v10.59h-2.08
		c-2.21-3.63-3.6-5.91-4.71-7.77c0.05,0.92,0.06,2.95,0.06,7.77h-1.89v-10.59H344.24z"/>
	<path class="st0" d="M359.18,110.48c-0.55,1.35-1.69,2.1-3.25,2.1c-2.4,0-3.69-1.56-3.69-4.04c0-2.38,1.44-3.87,3.62-3.87
		c2.37,0,3.36,1.73,3.37,4.4H354c0.06,1.29,0.77,2.02,1.95,2.02c0.76,0,1.41-0.3,1.68-1.16L359.18,110.48z M357.44,107.81
		c-0.06-1.17-0.68-1.77-1.64-1.77s-1.66,0.6-1.78,1.77H357.44z"/>
	<path class="st0" d="M366.68,112.36c-0.5-2.04-0.96-3.75-1.33-5.55c-0.31,1.44-0.66,2.76-1.44,5.55h-1.98l-2.25-7.47h1.92
		c0.51,1.98,1.11,4.2,1.46,5.62c0.3-1.41,0.63-2.9,1.38-5.62h1.84c0.63,2.4,1.02,3.98,1.38,5.62c0.36-1.6,0.93-3.71,1.46-5.62h1.8
		l-2.26,7.47H366.68z"/>
	<path class="st0" d="M372.5,109.99c0.39,0.77,1.08,1.22,1.9,1.22c0.77,0,1.19-0.33,1.19-0.78c0-0.49-0.25-0.7-1.38-1.06l-0.79-0.25
		c-1.15-0.36-1.89-1.04-1.89-2.17c0-1.17,1.05-2.25,2.9-2.25c1.19,0,2.28,0.45,2.94,1.5l-1.3,0.88c-0.38-0.66-0.95-1.05-1.67-1.05
		c-0.75,0-1.11,0.3-1.11,0.73c0,0.45,0.24,0.66,1.2,0.96l0.79,0.24c1.32,0.42,2.07,1.03,2.07,2.23c0,1.38-1.15,2.38-3.01,2.38
		c-1.53,0-2.56-0.73-3.19-1.68L372.5,109.99z"/>
	<path class="st0" d="M378.38,108.53v-1.41h4.33v1.41H378.38z"/>
	<path class="st0" d="M342.12,130.36v-10.59h7.27v1.63h-5.35v2.79h4.87v1.63h-4.87v4.53H342.12z"/>
	<path class="st0" d="M356.6,128.48c-0.55,1.35-1.69,2.1-3.25,2.1c-2.4,0-3.69-1.56-3.69-4.04c0-2.38,1.44-3.87,3.62-3.87
		c2.37,0,3.36,1.73,3.37,4.4h-5.22c0.06,1.29,0.77,2.02,1.95,2.02c0.76,0,1.41-0.3,1.68-1.16L356.6,128.48z M354.86,125.81
		c-0.06-1.17-0.67-1.77-1.63-1.77s-1.67,0.6-1.79,1.77H354.86z"/>
	<path class="st0" d="M364.55,128.48c-0.55,1.35-1.69,2.1-3.25,2.1c-2.4,0-3.69-1.56-3.69-4.04c0-2.38,1.44-3.87,3.62-3.87
		c2.37,0,3.36,1.73,3.37,4.4h-5.22c0.06,1.29,0.77,2.02,1.95,2.02c0.76,0,1.41-0.3,1.68-1.16L364.55,128.48z M362.81,125.81
		c-0.06-1.17-0.68-1.77-1.64-1.77s-1.66,0.6-1.78,1.77H362.81z"/>
	<path class="st0" d="M370.79,130.36v-1.05c-0.48,0.7-1.18,1.2-2.23,1.2c-1.72,0-3-1.32-3-3.91c0-2.45,1.38-3.85,3.1-3.85
		c1.11,0,1.73,0.4,2.13,0.98v-3.94h1.71v10.59H370.79z M369.09,124.19c-1.04,0-1.74,0.79-1.74,2.38c0,1.5,0.63,2.46,1.66,2.46
		c1.04,0,1.77-0.81,1.77-2.4C370.79,125.14,370.14,124.19,369.09,124.19z"/>
	<path class="st0" d="M375,127.99c0.39,0.77,1.08,1.22,1.9,1.22c0.77,0,1.19-0.33,1.19-0.78c0-0.49-0.25-0.7-1.38-1.06l-0.79-0.25
		c-1.15-0.36-1.89-1.04-1.89-2.17c0-1.17,1.05-2.25,2.9-2.25c1.19,0,2.28,0.45,2.94,1.5l-1.3,0.88c-0.38-0.66-0.95-1.05-1.67-1.05
		c-0.75,0-1.11,0.3-1.11,0.73c0,0.45,0.24,0.66,1.2,0.96l0.79,0.24c1.32,0.42,2.07,1.03,2.07,2.23c0,1.38-1.15,2.38-3.01,2.38
		c-1.53,0-2.56-0.73-3.19-1.68L375,127.99z"/>
</g>
<g>
	<path class="st1" d="M57.02,70.36l-0.73-2.15h-3.63l-0.74,2.15h-1.78l3.48-9.18h1.83l3.35,9.18H57.02z M55.89,66.91
		c-0.52-1.5-0.96-2.74-1.39-4.08c-0.3,0.92-0.62,1.83-1.43,4.08H55.89z"/>
	<path class="st1" d="M65.73,70.36v-1c-0.64,0.82-1.52,1.18-2.69,1.18c-2.31,0-3.98-1.83-3.98-4.65c0-2.79,1.64-4.91,4.54-4.91
		c1.85,0,3.06,0.83,3.64,2.42l-1.64,0.62c-0.29-0.98-0.95-1.57-2.04-1.57c-1.73,0-2.77,1.29-2.77,3.34c0,2.16,1.1,3.31,2.68,3.31
		c1.47,0,2.17-0.9,2.22-2.39h-2.56v-1.4h4.1v5.06H65.73z"/>
	<path class="st1" d="M75.3,70.36v-1c-0.64,0.82-1.52,1.18-2.69,1.18c-2.31,0-3.98-1.83-3.98-4.65c0-2.79,1.64-4.91,4.54-4.91
		c1.85,0,3.06,0.83,3.64,2.42l-1.64,0.62c-0.29-0.98-0.95-1.57-2.04-1.57c-1.73,0-2.77,1.29-2.77,3.34c0,2.16,1.1,3.31,2.68,3.31
		c1.47,0,2.17-0.9,2.22-2.39H72.7v-1.4h4.1v5.06H75.3z"/>
	<path class="st1" d="M84.04,70.36l-2.31-3.67h-1.57v3.67h-1.64v-9.18h2.98c1.18,0,2.09,0.05,2.77,0.32
		c0.94,0.38,1.38,1.13,1.38,2.37c0,1.51-0.84,2.34-2.29,2.57l2.61,3.91H84.04z M81.87,65.36c0.83,0,1.3-0.1,1.6-0.34
		c0.3-0.23,0.46-0.61,0.46-1.08c0-0.48-0.12-0.87-0.51-1.12c-0.3-0.19-0.77-0.27-1.5-0.27h-1.77v2.81H81.87z"/>
	<path class="st1" d="M86.99,70.36v-9.18h6.38v1.42h-4.72v2.34h4.35v1.42h-4.35v2.57h4.98v1.43H86.99z"/>
	<path class="st1" d="M100.98,70.36v-1c-0.64,0.82-1.52,1.18-2.69,1.18c-2.31,0-3.98-1.83-3.98-4.65c0-2.79,1.64-4.91,4.54-4.91
		c1.85,0,3.06,0.83,3.64,2.42l-1.64,0.62c-0.29-0.98-0.95-1.57-2.04-1.57c-1.73,0-2.77,1.29-2.77,3.34c0,2.16,1.1,3.31,2.68,3.31
		c1.47,0,2.17-0.9,2.22-2.39h-2.56v-1.4h4.1v5.06H100.98z"/>
	<path class="st1" d="M105.88,70.36h-1.69v-9.18h1.69V70.36z"/>
	<path class="st1" d="M107.58,70.36v-9.18h6.38v1.42h-4.72v2.34h4.35v1.42h-4.35v2.57h4.98v1.43H107.58z"/>
	<path class="st1" d="M121.02,70.36l-2.31-3.67h-1.57v3.67h-1.64v-9.18h2.98c1.18,0,2.09,0.05,2.77,0.32
		c0.94,0.38,1.38,1.13,1.38,2.37c0,1.51-0.84,2.34-2.29,2.57l2.61,3.91H121.02z M118.85,65.36c0.83,0,1.3-0.1,1.6-0.34
		c0.3-0.23,0.46-0.61,0.46-1.08c0-0.48-0.12-0.87-0.51-1.12c-0.3-0.19-0.77-0.27-1.5-0.27h-1.77v2.81H118.85z"/>
	<path class="st1" d="M131.31,66.43c0,1.44-0.19,2.37-0.77,3.03c-0.64,0.74-1.61,1.09-2.95,1.09c-1.31,0-2.34-0.35-2.91-1.1
		c-0.57-0.77-0.7-1.62-0.7-3.02v-5.25h1.65v5.37c0,0.69,0.04,1.27,0.29,1.72c0.34,0.61,0.94,0.85,1.7,0.85
		c0.81,0,1.44-0.21,1.78-0.86c0.2-0.38,0.26-0.98,0.26-1.65v-5.42h1.65V66.43z"/>
	<path class="st1" d="M134.84,61.18c2,3.35,3.19,5.23,4.07,6.79c-0.05-1.4-0.06-3.26-0.06-6.79h1.64v9.18h-1.81
		c-1.91-3.15-3.12-5.12-4.08-6.73c0.04,0.79,0.05,2.56,0.05,6.73h-1.64v-9.18H134.84z"/>
	<path class="st1" d="M148.53,70.36v-1c-0.64,0.82-1.52,1.18-2.69,1.18c-2.31,0-3.98-1.83-3.98-4.65c0-2.79,1.64-4.91,4.54-4.91
		c1.85,0,3.06,0.83,3.64,2.42l-1.64,0.62c-0.29-0.98-0.95-1.57-2.04-1.57c-1.73,0-2.77,1.29-2.77,3.34c0,2.16,1.1,3.31,2.68,3.31
		c1.47,0,2.17-0.9,2.22-2.39h-2.56v-1.4h4.1v5.06H148.53z"/>
</g>
<g>
	<path class="st1" d="M50.99,271.36v-9.18h3.78c1.26,0,2.03,0.19,2.54,0.56c0.69,0.48,1,1.33,1,2.25c0,1.03-0.36,1.95-1.17,2.4
		c-0.68,0.38-1.62,0.51-2.73,0.51h-1.78v3.46H50.99z M54.28,266.49c0.9,0,1.48-0.09,1.85-0.34c0.34-0.25,0.47-0.64,0.47-1.16
		c0-0.47-0.16-0.86-0.47-1.1c-0.35-0.26-0.79-0.31-1.74-0.31h-1.76v2.91H54.28z"/>
	<path class="st1" d="M65.1,271.36l-2.31-3.67h-1.57v3.67h-1.64v-9.18h2.98c1.18,0,2.09,0.05,2.77,0.32
		c0.94,0.38,1.38,1.13,1.38,2.37c0,1.51-0.85,2.34-2.29,2.57l2.61,3.91H65.1z M62.93,266.36c0.83,0,1.3-0.1,1.6-0.34
		c0.3-0.23,0.46-0.61,0.46-1.08c0-0.48-0.12-0.87-0.51-1.12c-0.3-0.19-0.77-0.27-1.5-0.27h-1.77v2.81H62.93z"/>
	<path class="st1" d="M67.74,266.7c0-2.9,1.7-4.73,4.37-4.73c2.51,0,4.15,1.92,4.15,4.84c0,3-1.65,4.76-4.15,4.76
		C69.36,271.56,67.74,269.68,67.74,266.7z M72.03,263.44c-1.57,0-2.57,1.2-2.57,3.24c0,2.13,1.03,3.42,2.61,3.42
		c1.44,0,2.46-1.12,2.46-3.31C74.52,264.66,73.52,263.44,72.03,263.44z"/>
	<path class="st1" d="M77.63,262.18h2.83c1.61,0,2.31,0.12,3.02,0.47c1.26,0.62,1.86,2.13,1.86,4.04c0,1.48-0.4,2.78-1.18,3.56
		c-0.83,0.83-1.94,1.1-3.81,1.1h-2.72V262.18z M80.45,269.95c1.24,0,2.02-0.26,2.5-0.79c0.48-0.55,0.65-1.36,0.65-2.48
		c0-0.99-0.2-1.82-0.69-2.37c-0.43-0.47-0.99-0.73-2.24-0.73h-1.39v6.37H80.45z"/>
	<path class="st1" d="M94.05,267.43c0,1.44-0.19,2.37-0.77,3.03c-0.64,0.74-1.61,1.09-2.95,1.09c-1.31,0-2.34-0.35-2.91-1.1
		c-0.57-0.77-0.7-1.62-0.7-3.02v-5.25h1.65v5.37c0,0.69,0.04,1.27,0.29,1.72c0.34,0.61,0.94,0.85,1.7,0.85
		c0.81,0,1.44-0.21,1.78-0.86c0.2-0.38,0.26-0.98,0.26-1.65v-5.42h1.65V267.43z"/>
	<path class="st1" d="M101.68,271.36l-2.69-4.37l-1.59,1.75v2.61h-1.65v-9.18h1.65v4.41l3.91-4.41h2.02l-3.22,3.58l3.55,5.6H101.68z
		"/>
	<path class="st1" d="M106.23,271.36v-7.76h-2.59v-1.42h6.89v1.42h-2.6v7.76H106.23z"/>
	<path class="st1" d="M113.34,271.36h-1.69v-9.18h1.69V271.36z"/>
	<path class="st1" d="M114.73,266.7c0-2.9,1.7-4.73,4.37-4.73c2.51,0,4.15,1.92,4.15,4.84c0,3-1.65,4.76-4.15,4.76
		C116.36,271.56,114.73,269.68,114.73,266.7z M119.02,263.44c-1.57,0-2.57,1.2-2.57,3.24c0,2.13,1.03,3.42,2.61,3.42
		c1.44,0,2.46-1.12,2.46-3.31C121.52,264.66,120.52,263.44,119.02,263.44z"/>
	<path class="st1" d="M126.46,262.18c2,3.35,3.19,5.23,4.07,6.79c-0.05-1.4-0.06-3.26-0.06-6.79h1.64v9.18h-1.81
		c-1.91-3.15-3.12-5.12-4.08-6.73c0.04,0.79,0.05,2.56,0.05,6.73h-1.64v-9.18H126.46z"/>
	<path class="st1" d="M144.16,267.6c-0.31,0.82-0.69,1.44-1.14,1.96l0.16,0.16c0.27,0.27,0.47,0.39,0.88,0.39
		c0.08,0,0.21-0.01,0.29-0.03v1.27c-0.16,0.03-0.35,0.04-0.48,0.04c-0.68,0-1.14-0.03-1.88-0.79c-0.74,0.65-1.62,0.88-2.61,0.88
		c-1.82,0-3.04-1.08-3.04-2.63c0-1.1,0.46-1.92,2.13-2.81c-0.47-0.66-0.68-1.22-0.68-1.83c0-1.22,0.87-2.08,2.38-2.08
		c1.27,0,2.15,0.77,2.15,1.82c0,0.96-0.42,1.65-1.78,2.48l1.61,2.11c0.33-0.43,0.6-0.98,0.77-1.61L144.16,267.6z M139.21,267.11
		c-1.05,0.6-1.33,1.08-1.33,1.73c0,0.87,0.71,1.38,1.68,1.38c0.61,0,1.1-0.19,1.56-0.61L139.21,267.11z M140.96,264.09
		c0-0.43-0.33-0.75-0.83-0.75c-0.56,0-0.9,0.34-0.9,0.81c0,0.39,0.13,0.72,0.58,1.34C140.65,265,140.96,264.57,140.96,264.09z"/>
	<path class="st1" d="M154.28,271.36l-0.73-2.15h-3.63l-0.74,2.15h-1.78l3.48-9.18h1.83l3.35,9.18H154.28z M153.15,267.91
		c-0.52-1.5-0.96-2.74-1.39-4.08c-0.3,0.92-0.62,1.83-1.43,4.08H153.15z"/>
	<path class="st1" d="M162.44,271.36l-2.31-3.67h-1.57v3.67h-1.64v-9.18h2.98c1.18,0,2.09,0.05,2.77,0.32
		c0.94,0.38,1.38,1.13,1.38,2.37c0,1.51-0.84,2.34-2.29,2.57l2.61,3.91H162.44z M160.27,266.36c0.83,0,1.3-0.1,1.6-0.34
		c0.3-0.23,0.46-0.61,0.46-1.08c0-0.48-0.12-0.87-0.51-1.12c-0.3-0.19-0.77-0.27-1.5-0.27h-1.77v2.81H160.27z"/>
	<path class="st1" d="M170.92,271.36l-2.31-3.67h-1.57v3.67h-1.64v-9.18h2.98c1.18,0,2.09,0.05,2.77,0.32
		c0.94,0.38,1.38,1.13,1.38,2.37c0,1.51-0.85,2.34-2.29,2.57l2.61,3.91H170.92z M168.75,266.36c0.83,0,1.3-0.1,1.6-0.34
		c0.3-0.23,0.46-0.61,0.46-1.08c0-0.48-0.12-0.87-0.51-1.12c-0.3-0.19-0.77-0.27-1.5-0.27h-1.77v2.81H168.75z"/>
	<path class="st1" d="M179.9,271.36l-0.73-2.15h-3.63l-0.74,2.15h-1.78l3.48-9.18h1.83l3.35,9.18H179.9z M178.77,267.91
		c-0.52-1.5-0.96-2.74-1.39-4.08c-0.3,0.92-0.62,1.83-1.43,4.08H178.77z"/>
	<path class="st1" d="M184.37,262.18c2,3.35,3.19,5.23,4.07,6.79c-0.05-1.4-0.06-3.26-0.06-6.79h1.64v9.18h-1.81
		c-1.91-3.15-3.12-5.12-4.08-6.73c0.04,0.79,0.05,2.56,0.05,6.73h-1.64v-9.18H184.37z"/>
	<path class="st1" d="M198.06,271.36v-1c-0.64,0.82-1.52,1.18-2.69,1.18c-2.31,0-3.98-1.83-3.98-4.65c0-2.79,1.64-4.91,4.54-4.91
		c1.85,0,3.06,0.83,3.64,2.42l-1.64,0.62c-0.29-0.98-0.95-1.57-2.04-1.57c-1.73,0-2.77,1.29-2.77,3.34c0,2.16,1.1,3.31,2.68,3.31
		c1.47,0,2.17-0.9,2.22-2.39h-2.56v-1.4h4.1v5.06H198.06z"/>
	<path class="st1" d="M201.27,271.36v-9.18h6.38v1.42h-4.72v2.34h4.35v1.42h-4.35v2.57h4.98v1.43H201.27z"/>
	<path class="st1" d="M217.03,271.36c0-4.59,0-5.89,0.05-7.41c-0.56,1.75-0.81,2.5-2.46,7.41h-1.43c-1.16-3.6-1.83-5.4-2.44-7.4
		c0.04,1.64,0.04,2.82,0.04,7.4h-1.6v-9.18h2.38c1.17,3.41,1.81,5.17,2.37,7.01c0.52-1.78,0.91-2.9,2.3-7.01h2.38v9.18H217.03z"/>
	<path class="st1" d="M220.31,271.36v-9.18h6.38v1.42h-4.72v2.34h4.36v1.42h-4.36v2.57h4.98v1.43H220.31z"/>
	<path class="st1" d="M230.06,262.18c2,3.35,3.19,5.23,4.07,6.79c-0.05-1.4-0.06-3.26-0.06-6.79h1.64v9.18h-1.81
		c-1.91-3.15-3.12-5.12-4.08-6.73c0.04,0.79,0.05,2.56,0.05,6.73h-1.64v-9.18H230.06z"/>
	<path class="st1" d="M239.41,271.36v-7.76h-2.59v-1.42h6.89v1.42h-2.6v7.76H239.41z"/>
</g>
<g>
	<path class="st1" d="M57.02,474.36l-0.73-2.15h-3.63l-0.74,2.15h-1.78l3.48-9.18h1.83l3.35,9.18H57.02z M55.89,470.91
		c-0.52-1.5-0.96-2.74-1.39-4.08c-0.3,0.92-0.62,1.83-1.43,4.08H55.89z"/>
	<path class="st1" d="M66.57,470.43c0,1.44-0.19,2.37-0.77,3.03c-0.64,0.74-1.61,1.09-2.95,1.09c-1.31,0-2.34-0.35-2.91-1.1
		c-0.57-0.77-0.7-1.62-0.7-3.02v-5.25h1.65v5.37c0,0.69,0.04,1.27,0.29,1.72c0.34,0.61,0.94,0.84,1.7,0.84
		c0.81,0,1.44-0.21,1.78-0.86c0.2-0.38,0.26-0.97,0.26-1.65v-5.42h1.65V470.43z"/>
	<path class="st1" d="M68.98,471.5c0.55,1.09,1.4,1.62,2.42,1.62c1.12,0,1.73-0.44,1.73-1.16c0-0.65-0.4-0.91-1.77-1.39l-0.99-0.35
		c-1.56-0.56-2.27-1.27-2.27-2.6c0-1.57,1.42-2.65,3.29-2.65c1.57,0,2.78,0.66,3.51,1.87l-1.33,0.95c-0.61-1.04-1.4-1.42-2.34-1.42
		c-0.91,0-1.43,0.46-1.43,1.08c0,0.6,0.34,0.9,1.53,1.29l1.05,0.35c1.7,0.54,2.48,1.31,2.48,2.69c0,1.65-1.36,2.8-3.5,2.8
		c-1.66,0-3-0.78-3.76-2.11L68.98,471.5z"/>
	<path class="st1" d="M76.19,474.36v-9.18h1.65v7.75h4.33v1.43H76.19z"/>
	<path class="st1" d="M85.03,474.36h-1.69v-9.18h1.69V474.36z"/>
	<path class="st1" d="M86.73,474.36v-9.18h6.38v1.42h-4.72v2.34h4.35v1.42h-4.35v2.57h4.98v1.43H86.73z"/>
	<path class="st1" d="M94.65,474.36v-9.18h6.31v1.42h-4.64v2.42h4.23v1.42h-4.23v3.93H94.65z"/>
	<path class="st1" d="M102.15,474.36v-9.18h6.38v1.42h-4.72v2.34h4.35v1.42h-4.35v2.57h4.98v1.43H102.15z"/>
	<path class="st1" d="M115.59,474.36l-2.31-3.67h-1.57v3.67h-1.64v-9.18h2.98c1.18,0,2.09,0.05,2.77,0.33
		c0.94,0.38,1.38,1.13,1.38,2.37c0,1.51-0.85,2.34-2.29,2.57l2.61,3.91H115.59z M113.42,469.36c0.83,0,1.3-0.1,1.6-0.34
		c0.3-0.23,0.46-0.61,0.46-1.08c0-0.48-0.12-0.87-0.51-1.12c-0.3-0.19-0.77-0.27-1.5-0.27h-1.77v2.81H113.42z"/>
	<path class="st1" d="M125.87,470.43c0,1.44-0.19,2.37-0.77,3.03c-0.64,0.74-1.61,1.09-2.95,1.09c-1.31,0-2.34-0.35-2.91-1.1
		c-0.57-0.77-0.7-1.62-0.7-3.02v-5.25h1.65v5.37c0,0.69,0.04,1.27,0.29,1.72c0.34,0.61,0.94,0.84,1.7,0.84
		c0.81,0,1.44-0.21,1.78-0.86c0.2-0.38,0.26-0.97,0.26-1.65v-5.42h1.65V470.43z"/>
	<path class="st1" d="M129.41,465.18c2,3.35,3.19,5.23,4.07,6.79c-0.05-1.4-0.06-3.26-0.06-6.79h1.64v9.18h-1.81
		c-1.91-3.15-3.12-5.12-4.08-6.73c0.04,0.79,0.05,2.56,0.05,6.73h-1.64v-9.18H129.41z"/>
	<path class="st1" d="M143.1,474.36v-1c-0.64,0.82-1.52,1.18-2.69,1.18c-2.31,0-3.98-1.83-3.98-4.65c0-2.79,1.64-4.91,4.54-4.91
		c1.85,0,3.06,0.83,3.64,2.42l-1.64,0.62c-0.29-0.97-0.95-1.57-2.04-1.57c-1.73,0-2.77,1.29-2.77,3.34c0,2.16,1.1,3.32,2.68,3.32
		c1.47,0,2.17-0.9,2.22-2.39h-2.56v-1.4h4.1v5.06H143.1z"/>
	<path class="st1" d="M156.68,470.6c-0.31,0.82-0.69,1.44-1.14,1.96l0.16,0.16c0.27,0.27,0.47,0.39,0.88,0.39
		c0.08,0,0.21-0.01,0.29-0.03v1.27c-0.16,0.03-0.35,0.04-0.48,0.04c-0.68,0-1.14-0.03-1.88-0.79c-0.74,0.65-1.62,0.88-2.61,0.88
		c-1.82,0-3.04-1.08-3.04-2.63c0-1.1,0.46-1.92,2.13-2.81c-0.47-0.66-0.68-1.22-0.68-1.83c0-1.22,0.87-2.08,2.38-2.08
		c1.27,0,2.15,0.77,2.15,1.82c0,0.96-0.42,1.65-1.78,2.48l1.61,2.11c0.33-0.43,0.6-0.98,0.77-1.61L156.68,470.6z M151.73,470.11
		c-1.05,0.6-1.33,1.08-1.33,1.73c0,0.87,0.71,1.38,1.68,1.38c0.61,0,1.11-0.2,1.56-0.61L151.73,470.11z M153.48,467.09
		c0-0.43-0.33-0.75-0.83-0.75c-0.56,0-0.9,0.34-0.9,0.81c0,0.39,0.13,0.72,0.58,1.34C153.17,468,153.48,467.57,153.48,467.09z"/>
	<path class="st1" d="M160.45,469.7c0-2.9,1.7-4.73,4.37-4.73c2.51,0,4.15,1.92,4.15,4.84c0,3-1.65,4.76-4.15,4.76
		C162.08,474.56,160.45,472.68,160.45,469.7z M164.74,466.44c-1.57,0-2.57,1.2-2.57,3.24c0,2.13,1.03,3.42,2.61,3.42
		c1.44,0,2.46-1.12,2.46-3.32C167.24,467.66,166.24,466.44,164.74,466.44z"/>
	<path class="st1" d="M170.34,474.36v-9.18h3.78c1.26,0,2.03,0.2,2.54,0.56c0.69,0.48,1,1.33,1,2.25c0,1.03-0.36,1.95-1.17,2.4
		c-0.68,0.38-1.62,0.51-2.73,0.51h-1.78v3.46H170.34z M173.63,469.49c0.9,0,1.48-0.09,1.85-0.34c0.34-0.25,0.47-0.64,0.47-1.16
		c0-0.47-0.16-0.86-0.47-1.1c-0.35-0.26-0.79-0.31-1.74-0.31h-1.76v2.91H173.63z"/>
	<path class="st1" d="M180.51,474.36v-7.76h-2.59v-1.42h6.89v1.42h-2.6v7.76H180.51z"/>
	<path class="st1" d="M187.62,474.36h-1.69v-9.18h1.69V474.36z"/>
	<path class="st1" d="M197.16,474.36c0-4.59,0-5.89,0.05-7.41c-0.56,1.75-0.81,2.5-2.46,7.41h-1.43c-1.16-3.6-1.83-5.4-2.44-7.4
		c0.04,1.64,0.04,2.82,0.04,7.4h-1.6v-9.18h2.38c1.17,3.41,1.81,5.17,2.37,7.01c0.52-1.78,0.91-2.9,2.3-7.01h2.38v9.18H197.16z"/>
	<path class="st1" d="M202.14,474.36h-1.69v-9.18h1.69V474.36z"/>
	<path class="st1" d="M203.84,474.36v-9.18h6.38v1.42h-4.72v2.34h4.36v1.42h-4.36v2.57h4.98v1.43H203.84z"/>
	<path class="st1" d="M217.29,474.36l-2.31-3.67h-1.57v3.67h-1.64v-9.18h2.98c1.18,0,2.09,0.05,2.77,0.33
		c0.94,0.38,1.38,1.13,1.38,2.37c0,1.51-0.85,2.34-2.29,2.57l2.61,3.91H217.29z M215.12,469.36c0.83,0,1.3-0.1,1.6-0.34
		c0.3-0.23,0.46-0.61,0.46-1.08c0-0.48-0.12-0.87-0.51-1.12c-0.3-0.19-0.77-0.27-1.5-0.27h-1.77v2.81H215.12z"/>
	<path class="st1" d="M227.57,470.43c0,1.44-0.2,2.37-0.77,3.03c-0.64,0.74-1.61,1.09-2.95,1.09c-1.31,0-2.34-0.35-2.91-1.1
		c-0.57-0.77-0.7-1.62-0.7-3.02v-5.25h1.65v5.37c0,0.69,0.04,1.27,0.29,1.72c0.34,0.61,0.94,0.84,1.7,0.84
		c0.81,0,1.44-0.21,1.78-0.86c0.19-0.38,0.26-0.97,0.26-1.65v-5.42h1.65V470.43z"/>
	<path class="st1" d="M231.1,465.18c2,3.35,3.19,5.23,4.07,6.79c-0.05-1.4-0.06-3.26-0.06-6.79h1.64v9.18h-1.81
		c-1.91-3.15-3.12-5.12-4.08-6.73c0.04,0.79,0.05,2.56,0.05,6.73h-1.64v-9.18H231.1z"/>
	<path class="st1" d="M244.79,474.36v-1c-0.64,0.82-1.52,1.18-2.69,1.18c-2.31,0-3.98-1.83-3.98-4.65c0-2.79,1.64-4.91,4.54-4.91
		c1.85,0,3.05,0.83,3.64,2.42l-1.64,0.62c-0.29-0.97-0.95-1.57-2.04-1.57c-1.73,0-2.77,1.29-2.77,3.34c0,2.16,1.11,3.32,2.68,3.32
		c1.47,0,2.17-0.9,2.22-2.39h-2.56v-1.4h4.09v5.06H244.79z"/>
</g>
<g>
	<path class="st0" d="M224.15,588.38c0-5.29,0-6.79,0.06-8.55c-0.65,2.02-0.93,2.88-2.83,8.55h-1.65c-1.33-4.15-2.11-6.22-2.82-8.53
		c0.04,1.89,0.04,3.25,0.04,8.53h-1.84v-10.59h2.74c1.35,3.93,2.08,5.97,2.73,8.08c0.6-2.05,1.05-3.34,2.65-8.08h2.75v10.59H224.15z
		"/>
	<path class="st0" d="M231.14,588.59c-2.34,0-3.66-1.47-3.66-3.96c0-2.47,1.46-3.93,3.77-3.93c2.22,0,3.55,1.48,3.55,4.02
		C234.8,587.21,233.33,588.59,231.14,588.59z M231.2,582.17c-1.11,0-1.92,0.85-1.92,2.42c0,1.69,0.78,2.54,1.88,2.54
		c1.09,0,1.87-0.77,1.87-2.45C233.03,583.01,232.31,582.17,231.2,582.17z"/>
	<path class="st0" d="M237.98,577.79v4.12c0.5-0.65,1.27-1.16,2.34-1.16c1.75,0,2.88,1.46,2.88,3.88c0,2.45-1.23,3.88-3.07,3.88
		c-1.02,0-1.71-0.39-2.22-1.12v0.98h-1.68v-10.59H237.98z M239.69,587.06c1.03,0,1.68-0.83,1.68-2.42c0-1.5-0.61-2.42-1.62-2.42
		c-1.06,0-1.81,0.9-1.81,2.33C237.93,586.15,238.58,587.06,239.69,587.06z"/>
	<path class="st0" d="M244.61,579.44v-1.65h1.79v1.65L244.61,579.44z M246.39,588.38l-1.77,0v-7.47l1.77,0V588.38z"/>
	<path class="st0" d="M249.99,588.38h-1.77v-10.59h1.77V588.38z"/>
	<path class="st0" d="M258.36,586.51c-0.55,1.35-1.69,2.1-3.25,2.1c-2.4,0-3.69-1.56-3.69-4.04c0-2.38,1.44-3.87,3.62-3.87
		c2.37,0,3.36,1.73,3.37,4.4h-5.22c0.06,1.29,0.77,2.02,1.95,2.02c0.76,0,1.41-0.3,1.68-1.16L258.36,586.51z M256.62,583.84
		c-0.06-1.17-0.67-1.77-1.63-1.77s-1.67,0.6-1.79,1.77H256.62z"/>
	<path class="st0" d="M222.06,606.38l-0.84-2.48l-4.19,0l-0.85,2.47h-2.05l4.02-10.59h2.11l3.87,10.59H222.06z M220.76,602.41
		c-0.6-1.72-1.11-3.17-1.61-4.71c-0.35,1.07-0.72,2.12-1.65,4.71H220.76z"/>
	<path class="st0" d="M226.77,598.91v1.06c0.48-0.71,1.22-1.21,2.27-1.21c1.71,0,2.96,1.3,2.96,3.9c0,2.44-1.38,3.85-3.09,3.85
		c-1.11,0-1.74-0.39-2.13-0.97v3.81h-1.72l0-10.44H226.77z M228.47,605.06c1.03,0,1.72-0.79,1.72-2.38c0-1.5-0.62-2.46-1.65-2.46
		c-1.03,0-1.78,0.83-1.78,2.42C226.76,604.13,227.42,605.06,228.47,605.06z"/>
	<path class="st0" d="M235.14,598.91v1.06c0.48-0.71,1.22-1.21,2.27-1.21c1.71,0,2.96,1.3,2.96,3.9c0,2.44-1.38,3.85-3.09,3.85
		c-1.11,0-1.74-0.39-2.13-0.97v3.81h-1.72l0-10.44H235.14z M236.84,605.06c1.03,0,1.72-0.79,1.72-2.38c0-1.5-0.62-2.46-1.65-2.46
		c-1.03,0-1.78,0.83-1.78,2.42C235.13,604.13,235.79,605.06,236.84,605.06z"/>
</g>
<g>
	<path class="st0" d="M344.43,589.38v-8.95h-2.98v-1.63l7.95,0v1.63l-3,0v8.95H344.43z"/>
	<path class="st0" d="M353.38,589.38l-3.67-10.59h2.07c1.21,3.71,2,6.01,2.65,8.38c0.65-2.35,1.37-4.68,2.6-8.38h2.02l-3.66,10.59
		H353.38z"/>
	<path class="st0" d="M363.04,584.01c0-3.34,1.97-5.46,5.04-5.46c2.9,0,4.78,2.22,4.78,5.58c0,3.46-1.9,5.49-4.78,5.49
		C364.92,589.62,363.04,587.44,363.04,584.01z M367.99,580.25c-1.81,0-2.97,1.38-2.97,3.73c0,2.46,1.19,3.95,3.02,3.95
		c1.67,0,2.83-1.29,2.83-3.83C370.87,581.66,369.72,580.25,367.99,580.25z"/>
	<path class="st0" d="M375.28,586.08c0.63,1.26,1.62,1.88,2.79,1.88c1.29,0,2-0.51,2-1.33c0-0.75-0.47-1.05-2.04-1.6l-1.14-0.41
		c-1.8-0.64-2.62-1.47-2.62-3c0-1.81,1.64-3.06,3.79-3.06c1.81,0,3.21,0.76,4.05,2.16l-1.53,1.09c-0.71-1.2-1.62-1.63-2.7-1.63
		c-1.05,0-1.65,0.52-1.65,1.24c0,0.69,0.39,1.04,1.77,1.49l1.22,0.41c1.96,0.63,2.86,1.51,2.86,3.1c0,1.91-1.58,3.22-4.04,3.22
		c-1.92,0-3.46-0.9-4.33-2.43L375.28,586.08z"/>
</g>
<g>
	<path class="st0" d="M619.8,573.79v4.12c0.49-0.64,1.27-1.15,2.34-1.15c1.75,0,2.88,1.45,2.88,3.88c0,2.45-1.23,3.88-3.07,3.89
		c-1.02,0-1.71-0.39-2.22-1.12v0.97h-1.68v-10.59H619.8z M621.51,583.06c1.04,0,1.68-0.83,1.68-2.42c0-1.5-0.61-2.42-1.62-2.42
		c-1.06,0-1.81,0.9-1.81,2.33C619.75,582.15,620.4,583.06,621.51,583.06z"/>
	<path class="st0" d="M628.21,584.38h-1.77v-10.59h1.77V584.38z"/>
	<path class="st0" d="M631.74,576.91v4.26c0,0.45,0.06,0.88,0.2,1.17c0.2,0.41,0.55,0.63,1.12,0.63c0.49,0,0.93-0.25,1.2-0.58
		c0.32-0.41,0.46-0.9,0.46-1.6v-3.87h1.76v7.47h-1.72v-1.07c-0.51,0.72-1.28,1.2-2.33,1.2c-0.96,0-1.54-0.3-1.96-0.9
		c-0.33-0.46-0.46-1.12-0.46-1.99v-4.71H631.74z"/>
	<path class="st0" d="M644.82,582.5c-0.55,1.35-1.7,2.1-3.26,2.1c-2.4,0-3.69-1.56-3.69-4.04c0-2.38,1.44-3.87,3.62-3.87
		c2.37,0,3.36,1.72,3.38,4.39h-5.22c0.06,1.29,0.77,2.03,1.95,2.03c0.76,0,1.41-0.3,1.68-1.16L644.82,582.5z M643.08,579.83
		c-0.06-1.17-0.68-1.77-1.63-1.77c-0.96,0-1.67,0.6-1.79,1.77H643.08z"/>
	<path class="st0" d="M652.32,584.38c-0.5-2.04-0.96-3.75-1.34-5.55c-0.31,1.44-0.66,2.76-1.44,5.55l-1.98,0l-2.25-7.47h1.92
		c0.51,1.98,1.11,4.2,1.46,5.62c0.3-1.41,0.63-2.89,1.38-5.62h1.84c0.63,2.4,1.02,3.98,1.38,5.62c0.36-1.6,0.93-3.71,1.46-5.62h1.8
		l-2.26,7.47H652.32z"/>
	<path class="st0" d="M657.45,575.44v-1.65h1.79v1.65H657.45z M659.23,584.38h-1.77v-7.47h1.77V584.38z"/>
	<path class="st0" d="M665.8,584.38v-4.29c0-0.58-0.06-1.02-0.27-1.32c-0.2-0.29-0.53-0.42-1.01-0.42c-0.48,0-0.97,0.25-1.27,0.66
		c-0.38,0.49-0.43,1.05-0.43,1.77v3.6h-1.76v-7.47h1.74v1.11c0.54-0.76,1.43-1.25,2.47-1.25c0.9,0,1.49,0.32,1.86,0.88
		c0.3,0.45,0.42,1.04,0.42,2.04v4.68H665.8z"/>
	<path class="st0" d="M670.95,584.38h-1.75v-2.17h1.75V584.38z"/>
	<path class="st0" d="M677.32,579.49c-0.21-0.99-0.75-1.32-1.46-1.32c-1.02,0-1.8,0.76-1.8,2.43c0,1.65,0.69,2.52,1.84,2.52
		c0.79,0,1.28-0.42,1.46-1.22l1.58,0.54c-0.43,1.25-1.42,2.15-3.12,2.15c-2.17,0-3.55-1.5-3.55-3.96c0-2.45,1.41-3.93,3.64-3.93
		c1.62,0,2.64,0.92,2.99,2.25L677.32,579.49z"/>
	<path class="st0" d="M684.78,584.38v-4.29c0-0.64-0.06-1.07-0.31-1.37c-0.2-0.25-0.5-0.38-0.96-0.38c-0.48,0-0.97,0.25-1.27,0.66
		c-0.38,0.5-0.43,1.05-0.43,1.77v3.6h-1.76v-10.59h1.74v4.23c0.54-0.76,1.43-1.24,2.47-1.24c0.87,0,1.46,0.28,1.83,0.81
		c0.33,0.46,0.45,1.04,0.45,2.16v4.63H684.78z"/>
</g>
<g>
	<path class="st0" d="M968.06,584.38l-0.84-2.48l-4.18,0l-0.85,2.47h-2.05l4.02-10.59h2.12l3.87,10.59H968.06z M966.76,580.41
		c-0.6-1.72-1.11-3.17-1.6-4.71c-0.34,1.07-0.72,2.12-1.65,4.71H966.76z"/>
	<path class="st0" d="M975.88,584.38v-1.05c-0.48,0.7-1.18,1.2-2.24,1.2c-1.72,0-3-1.32-3-3.91c0-2.45,1.38-3.86,3.11-3.86
		c1.11,0,1.72,0.41,2.13,0.98v-3.95h1.71v10.59H975.88z M974.18,578.21c-1.04,0-1.74,0.79-1.74,2.38c0,1.5,0.63,2.46,1.66,2.46
		c1.04,0,1.77-0.81,1.77-2.4C975.88,579.16,975.23,578.21,974.18,578.21z"/>
	<path class="st0" d="M982.67,584.59c-2.34,0-3.66-1.47-3.66-3.96c0-2.47,1.46-3.93,3.76-3.93c2.22,0,3.55,1.48,3.55,4.02
		C986.33,583.21,984.86,584.59,982.67,584.59z M982.73,578.17c-1.11,0-1.92,0.85-1.92,2.42c0,1.69,0.78,2.54,1.88,2.54
		s1.87-0.77,1.87-2.45C984.56,579.01,983.84,578.17,982.73,578.17z"/>
	<path class="st0" d="M989.51,573.79v4.12c0.49-0.65,1.27-1.16,2.34-1.16c1.75,0,2.88,1.46,2.88,3.88c0,2.44-1.23,3.88-3.07,3.88
		c-1.02,0-1.71-0.39-2.22-1.12v0.98h-1.68v-10.59H989.51z M991.22,583.06c1.04,0,1.68-0.83,1.68-2.42c0-1.5-0.61-2.42-1.62-2.42
		c-1.06,0-1.81,0.9-1.81,2.33C989.47,582.14,990.11,583.06,991.22,583.06z"/>
	<path class="st0" d="M1002.7,582.5c-0.55,1.35-1.69,2.1-3.25,2.1c-2.4,0-3.69-1.56-3.69-4.04c0-2.38,1.44-3.87,3.62-3.87
		c2.37,0,3.36,1.73,3.37,4.4h-5.22c0.06,1.29,0.76,2.02,1.95,2.02c0.77,0,1.41-0.3,1.68-1.16L1002.7,582.5z M1000.96,579.83
		c-0.06-1.17-0.67-1.77-1.64-1.77c-0.96,0-1.66,0.6-1.78,1.77H1000.96z"/>
	<path class="st0" d="M963.43,602.38l0-8.95h-2.98v-1.63l7.95,0v1.63l-3,0l0,8.95H963.43z"/>
	<path class="st0" d="M972.2,597.31c0-0.42-0.09-0.71-0.29-0.9c-0.21-0.21-0.57-0.32-1.04-0.32c-0.91,0-1.32,0.46-1.41,1.29
		l-1.68-0.15c0.12-1.62,1.32-2.52,3.22-2.52c1.02,0,1.74,0.24,2.24,0.72c0.46,0.44,0.63,1.05,0.63,2.22v2.74
		c0,0.89,0.06,1.62,0.21,1.98h-1.7c-0.06-0.24-0.15-0.71-0.15-0.93c-0.57,0.69-1.38,1.07-2.44,1.07c-1.36,0-2.33-0.85-2.33-2.19
		c0-0.96,0.48-1.59,1.37-2c0.73-0.33,2.17-0.54,3.36-0.62V597.31z M972.2,598.88c-0.85,0.04-1.86,0.2-2.38,0.45
		c-0.46,0.21-0.64,0.5-0.64,0.92c0,0.54,0.36,0.94,1.14,0.94c0.67,0,1.23-0.28,1.56-0.78c0.24-0.35,0.32-0.77,0.33-1.19V598.88z"/>
	<path class="st0" d="M975.65,602.38l0-7.47h1.68v1.15c0.45-0.81,1.04-1.24,2.07-1.24c0.24,0,0.42,0.03,0.64,0.09l0,1.77
		c-0.29-0.15-0.51-0.21-0.84-0.21c-0.58,0-1.08,0.25-1.41,0.74c-0.26,0.38-0.39,0.9-0.39,1.69v3.48H975.65z"/>
	<path class="st0" d="M985.84,601.34c-0.52,0.64-1.24,0.96-2.21,0.96c-1.83,0-3-1.39-3-3.75c0-2.34,1.26-3.76,3.11-3.76
		c1.04,0,1.75,0.38,2.17,1.05v-0.92h1.74l0,6.96c0,1.54-0.36,2.52-1.16,3.08c-0.58,0.42-1.44,0.6-2.4,0.6
		c-1.81,0-2.97-0.79-3.3-2.34l1.84-0.33c0.13,0.83,0.69,1.25,1.5,1.25c0.72,0,1.17-0.21,1.42-0.63c0.21-0.32,0.27-0.83,0.27-1.46
		V601.34z M984.25,596.25c-1.11,0-1.8,0.84-1.8,2.29c0,1.53,0.67,2.4,1.74,2.4c1.02,0,1.68-0.72,1.69-2.23
		C985.88,597.17,985.33,596.25,984.25,596.25z"/>
	<path class="st0" d="M996.02,600.5c-0.55,1.35-1.7,2.1-3.26,2.1c-2.4,0-3.69-1.56-3.69-4.04c0-2.38,1.44-3.87,3.62-3.87
		c2.37,0,3.36,1.73,3.38,4.4h-5.22c0.06,1.29,0.77,2.02,1.95,2.02c0.76,0,1.41-0.3,1.68-1.16L996.02,600.5z M994.28,597.83
		c-0.06-1.17-0.68-1.77-1.63-1.77c-0.96,0-1.67,0.6-1.79,1.77H994.28z"/>
	<path class="st0" d="M1001.08,602.35c-0.39,0.1-0.87,0.16-1.3,0.16c-0.73,0-1.23-0.18-1.53-0.54c-0.32-0.36-0.42-0.89-0.42-1.58
		l0-4.08h-1.17v-1.41h1.2v-2.43h1.74v2.43h1.46v1.41h-1.46l0,3.74c0,0.76,0.22,1.03,0.76,1.03c0.21,0,0.48-0.04,0.72-0.13V602.35z"
		/>
</g>
<g>
	<path class="st0" d="M341.12,310.36v-10.59h1.9v8.94h4.99v1.65H341.12z"/>
	<path class="st0" d="M349.3,301.42v-1.65h1.79v1.65H349.3z M351.08,310.36h-1.77v-7.47h1.77V310.36z"/>
	<path class="st0" d="M354.73,310.36l-2.73-7.47h1.95c0.87,2.55,1.38,4.09,1.85,5.68c0.44-1.53,0.93-3.15,1.8-5.68h1.86l-2.68,7.47
		H354.73z"/>
	<path class="st0" d="M360.35,301.42v-1.65h1.79v1.65H360.35z M362.14,310.36h-1.77v-7.47h1.77V310.36z"/>
	<path class="st0" d="M368.71,310.36v-4.29c0-0.58-0.06-1.02-0.27-1.32c-0.19-0.28-0.52-0.42-1-0.42s-0.98,0.25-1.27,0.66
		c-0.38,0.49-0.44,1.05-0.44,1.77v3.6h-1.75v-7.47h1.74V304c0.54-0.76,1.43-1.24,2.48-1.24c0.9,0,1.48,0.31,1.86,0.88
		c0.3,0.45,0.42,1.04,0.42,2.04v4.68H368.71z"/>
	<path class="st0" d="M377,309.32c-0.52,0.65-1.25,0.96-2.21,0.96c-1.83,0-3-1.39-3-3.75c0-2.34,1.26-3.77,3.1-3.77
		c1.04,0,1.75,0.38,2.17,1.05v-0.92h1.74v6.96c0,1.54-0.36,2.52-1.16,3.08c-0.58,0.42-1.44,0.6-2.4,0.6c-1.81,0-2.97-0.79-3.3-2.34
		l1.85-0.33c0.13,0.83,0.69,1.25,1.5,1.25c0.72,0,1.17-0.21,1.42-0.63c0.21-0.31,0.27-0.83,0.27-1.46V309.32z M375.41,304.22
		c-1.11,0-1.8,0.84-1.8,2.29c0,1.53,0.68,2.4,1.74,2.4c1.02,0,1.68-0.72,1.69-2.23C377.05,305.15,376.49,304.22,375.41,304.22z"/>
	<path class="st0" d="M385.48,310.36v-1.05c-0.48,0.7-1.19,1.2-2.23,1.2c-1.72,0-3-1.32-3-3.91c0-2.45,1.38-3.85,3.1-3.85
		c1.11,0,1.73,0.4,2.13,0.98v-3.94h1.71v10.59H385.48z M383.78,304.19c-1.04,0-1.74,0.79-1.74,2.38c0,1.5,0.63,2.46,1.66,2.46
		c1.04,0,1.77-0.81,1.77-2.4C385.48,305.14,384.83,304.19,383.78,304.19z"/>
	<path class="st0" d="M392.27,310.57c-2.34,0-3.66-1.47-3.66-3.96c0-2.47,1.46-3.93,3.77-3.93c2.22,0,3.55,1.48,3.55,4.02
		C395.93,309.19,394.46,310.57,392.27,310.57z M392.33,304.15c-1.11,0-1.92,0.85-1.92,2.42c0,1.69,0.78,2.54,1.88,2.54
		c1.09,0,1.87-0.77,1.87-2.45C394.16,304.99,393.44,304.15,392.33,304.15z"/>
	<path class="st0" d="M402.01,305.47c-0.21-0.99-0.75-1.32-1.46-1.32c-1.02,0-1.8,0.77-1.8,2.43c0,1.65,0.69,2.52,1.84,2.52
		c0.79,0,1.27-0.42,1.46-1.22l1.57,0.54c-0.44,1.25-1.42,2.15-3.12,2.15c-2.17,0-3.56-1.5-3.56-3.96c0-2.44,1.41-3.93,3.65-3.93
		c1.62,0,2.64,0.92,2.98,2.25L402.01,305.47z"/>
	<path class="st0" d="M405.4,307.99c0.39,0.77,1.08,1.22,1.9,1.22c0.77,0,1.19-0.33,1.19-0.78c0-0.49-0.25-0.7-1.38-1.06l-0.79-0.25
		c-1.15-0.36-1.89-1.04-1.89-2.17c0-1.17,1.05-2.25,2.9-2.25c1.19,0,2.28,0.45,2.94,1.5l-1.3,0.88c-0.38-0.66-0.95-1.05-1.67-1.05
		c-0.75,0-1.11,0.3-1.11,0.73c0,0.45,0.24,0.66,1.2,0.96l0.79,0.24c1.32,0.42,2.07,1.03,2.07,2.23c0,1.38-1.15,2.38-3.01,2.38
		c-1.53,0-2.56-0.73-3.19-1.68L405.4,307.99z"/>
	<path class="st0" d="M341.12,328.36v-10.59h4.36c1.46,0,2.34,0.22,2.92,0.64c0.79,0.56,1.15,1.53,1.15,2.6
		c0,1.19-0.42,2.25-1.35,2.77c-0.78,0.44-1.88,0.58-3.15,0.58h-2.06v3.99H341.12z M344.92,322.75c1.03,0,1.71-0.1,2.13-0.39
		c0.39-0.28,0.54-0.73,0.54-1.33c0-0.54-0.18-0.99-0.54-1.28c-0.41-0.3-0.92-0.36-2.01-0.36h-2.02v3.36H344.92z"/>
	<path class="st0" d="M352,320.89v4.26c0,0.45,0.06,0.89,0.19,1.17c0.2,0.41,0.56,0.63,1.12,0.63c0.5,0,0.93-0.25,1.2-0.58
		c0.31-0.4,0.46-0.9,0.46-1.6v-3.87h1.75v7.47h-1.72v-1.06c-0.51,0.72-1.28,1.2-2.33,1.2c-0.96,0-1.54-0.3-1.96-0.9
		c-0.33-0.46-0.46-1.12-0.46-1.99v-4.71H352z"/>
	<path class="st0" d="M360.29,317.77v4.12c0.5-0.65,1.27-1.15,2.34-1.15c1.75,0,2.88,1.46,2.88,3.88c0,2.44-1.23,3.88-3.07,3.88
		c-1.02,0-1.71-0.39-2.22-1.12v0.98h-1.68v-10.59H360.29z M362,327.04c1.03,0,1.68-0.83,1.68-2.42c0-1.5-0.61-2.42-1.62-2.42
		c-1.06,0-1.81,0.9-1.81,2.33C360.25,326.12,360.89,327.04,362,327.04z"/>
	<path class="st0" d="M368.71,328.36h-1.77v-10.59h1.77V328.36z"/>
	<path class="st0" d="M370.52,319.42v-1.65h1.79v1.65H370.52z M372.31,328.36h-1.77v-7.47h1.77V328.36z"/>
	<path class="st0" d="M374.81,325.99c0.39,0.77,1.08,1.22,1.9,1.22c0.77,0,1.19-0.33,1.19-0.78c0-0.49-0.25-0.7-1.38-1.06
		l-0.79-0.25c-1.15-0.36-1.89-1.04-1.89-2.17c0-1.17,1.05-2.25,2.9-2.25c1.19,0,2.28,0.45,2.94,1.5l-1.3,0.88
		c-0.38-0.66-0.95-1.05-1.67-1.05c-0.75,0-1.11,0.3-1.11,0.73c0,0.45,0.24,0.66,1.2,0.96l0.79,0.24c1.32,0.42,2.07,1.03,2.07,2.23
		c0,1.38-1.15,2.38-3.01,2.38c-1.53,0-2.56-0.73-3.19-1.68L374.81,325.99z"/>
	<path class="st0" d="M385.7,328.36v-4.29c0-0.64-0.06-1.06-0.31-1.36c-0.19-0.25-0.5-0.38-0.96-0.38c-0.48,0-0.98,0.25-1.27,0.66
		c-0.38,0.49-0.44,1.05-0.44,1.77v3.6h-1.75v-10.59h1.74V322c0.54-0.76,1.43-1.24,2.48-1.24c0.87,0,1.46,0.28,1.83,0.81
		c0.33,0.47,0.45,1.04,0.45,2.16v4.63H385.7z"/>
	<path class="st0" d="M395.74,326.48c-0.55,1.35-1.69,2.1-3.25,2.1c-2.4,0-3.69-1.56-3.69-4.04c0-2.38,1.44-3.87,3.62-3.87
		c2.37,0,3.36,1.73,3.37,4.4h-5.22c0.06,1.29,0.77,2.02,1.95,2.02c0.76,0,1.41-0.3,1.68-1.16L395.74,326.48z M394,323.81
		c-0.06-1.17-0.68-1.77-1.64-1.77s-1.66,0.6-1.78,1.77H394z"/>
	<path class="st0" d="M397.15,328.36v-7.47h1.68v1.15c0.45-0.81,1.04-1.24,2.07-1.24c0.24,0,0.42,0.03,0.64,0.09v1.77
		c-0.28-0.15-0.51-0.21-0.84-0.21c-0.58,0-1.08,0.25-1.41,0.73c-0.26,0.38-0.39,0.9-0.39,1.69v3.48H397.15z"/>
</g>
<g>
	<path class="st0" d="M645.8,130.36v-4.29c0-0.64-0.06-1.06-0.32-1.36c-0.19-0.25-0.5-0.38-0.96-0.38c-0.48,0-0.97,0.25-1.28,0.66
		c-0.38,0.49-0.43,1.05-0.43,1.77v3.6h-1.75v-10.59h1.74V124c0.54-0.76,1.42-1.24,2.47-1.24c0.87,0,1.46,0.28,1.83,0.81
		c0.33,0.47,0.45,1.04,0.45,2.16v4.63H645.8z"/>
	<path class="st0" d="M650.99,122.89v4.26c0,0.45,0.06,0.89,0.2,1.17c0.2,0.41,0.55,0.63,1.12,0.63c0.49,0,0.93-0.25,1.2-0.58
		c0.32-0.4,0.46-0.9,0.46-1.6v-3.87h1.76v7.47h-1.72v-1.06c-0.51,0.72-1.28,1.2-2.33,1.2c-0.96,0-1.54-0.3-1.96-0.9
		c-0.33-0.46-0.46-1.12-0.46-1.99v-4.71H650.99z"/>
	<path class="st0" d="M664.93,130.36v-1.15c-0.74,0.94-1.75,1.36-3.1,1.36c-2.67,0-4.59-2.11-4.59-5.37c0-3.23,1.89-5.67,5.23-5.67
		c2.13,0,3.53,0.96,4.2,2.79l-1.89,0.72c-0.33-1.12-1.1-1.81-2.36-1.81c-1.99,0-3.2,1.48-3.2,3.85c0,2.49,1.28,3.82,3.09,3.82
		c1.7,0,2.51-1.03,2.57-2.76h-2.96v-1.62h4.73v5.83H664.93z"/>
	<path class="st0" d="M668.27,124.99c0-3.35,1.97-5.46,5.04-5.46c2.89,0,4.78,2.22,4.78,5.58c0,3.46-1.91,5.49-4.78,5.49
		C670.15,130.6,668.27,128.42,668.27,124.99z M673.22,121.22c-1.82,0-2.97,1.38-2.97,3.73c0,2.46,1.19,3.94,3.02,3.94
		c1.66,0,2.83-1.29,2.83-3.82C676.1,122.63,674.95,121.22,673.22,121.22z"/>
	<path class="st0" d="M683.48,129.92v-3.33h-3.3v-1.68h3.3v-3.36h1.75v3.36h3.3v1.68h-3.3v3.33H683.48z"/>
</g>
<g>
	<path class="st0" d="M938.12,109.36V98.77h1.9v8.94h4.99v1.65H938.12z"/>
	<path class="st0" d="M946.3,100.42v-1.65h1.79v1.65H946.3z M948.08,109.36h-1.77v-7.47h1.77V109.36z"/>
	<path class="st0" d="M951.73,109.36l-2.73-7.47h1.95c0.87,2.55,1.38,4.09,1.84,5.68c0.43-1.53,0.93-3.15,1.8-5.68h1.86l-2.68,7.47
		H951.73z"/>
	<path class="st0" d="M957.35,100.42v-1.65h1.79v1.65H957.35z M959.14,109.36h-1.77v-7.47h1.77V109.36z"/>
	<path class="st0" d="M965.71,109.36v-4.29c0-0.58-0.06-1.02-0.27-1.32c-0.19-0.28-0.52-0.42-1-0.42s-0.97,0.25-1.28,0.66
		c-0.38,0.49-0.43,1.05-0.43,1.77v3.6h-1.75v-7.47h1.74V103c0.54-0.76,1.42-1.24,2.47-1.24c0.9,0,1.48,0.31,1.86,0.88
		c0.3,0.45,0.42,1.04,0.42,2.04v4.68H965.71z"/>
	<path class="st0" d="M974,108.32c-0.53,0.65-1.25,0.96-2.21,0.96c-1.83,0-3-1.39-3-3.75c0-2.34,1.26-3.77,3.1-3.77
		c1.04,0,1.75,0.38,2.17,1.05v-0.92h1.74v6.96c0,1.54-0.36,2.52-1.16,3.08c-0.58,0.42-1.44,0.6-2.4,0.6c-1.82,0-2.97-0.79-3.3-2.34
		l1.85-0.33c0.13,0.83,0.69,1.25,1.5,1.25c0.72,0,1.17-0.21,1.42-0.63c0.21-0.31,0.27-0.83,0.27-1.46V108.32z M972.41,103.22
		c-1.11,0-1.8,0.84-1.8,2.29c0,1.53,0.68,2.4,1.74,2.4c1.02,0,1.68-0.72,1.7-2.23C974.05,104.15,973.49,103.22,972.41,103.22z"/>
	<path class="st0" d="M982.48,109.36v-1.05c-0.48,0.7-1.19,1.2-2.24,1.2c-1.72,0-3-1.32-3-3.91c0-2.45,1.38-3.85,3.1-3.85
		c1.11,0,1.73,0.4,2.13,0.98v-3.94h1.71v10.59H982.48z M980.78,103.19c-1.04,0-1.74,0.79-1.74,2.38c0,1.5,0.63,2.46,1.67,2.46
		c1.04,0,1.77-0.81,1.77-2.4C982.48,104.14,981.83,103.19,980.78,103.19z"/>
	<path class="st0" d="M989.27,109.57c-2.34,0-3.66-1.47-3.66-3.96c0-2.47,1.46-3.93,3.77-3.93c2.22,0,3.55,1.48,3.55,4.02
		C992.93,108.19,991.46,109.57,989.27,109.57z M989.33,103.15c-1.11,0-1.92,0.85-1.92,2.42c0,1.69,0.78,2.54,1.88,2.54
		c1.09,0,1.87-0.77,1.87-2.45C991.16,103.99,990.44,103.15,989.33,103.15z"/>
	<path class="st0" d="M999.01,104.47c-0.21-0.99-0.75-1.32-1.46-1.32c-1.02,0-1.8,0.77-1.8,2.43c0,1.65,0.69,2.52,1.84,2.52
		c0.79,0,1.28-0.42,1.46-1.22l1.58,0.54c-0.43,1.25-1.42,2.15-3.12,2.15c-2.17,0-3.55-1.5-3.55-3.96c0-2.44,1.41-3.93,3.64-3.93
		c1.62,0,2.64,0.92,2.99,2.25L999.01,104.47z"/>
	<path class="st0" d="M1002.4,106.99c0.39,0.77,1.08,1.22,1.9,1.22c0.77,0,1.19-0.33,1.19-0.78c0-0.49-0.25-0.7-1.38-1.06
		l-0.79-0.25c-1.16-0.36-1.89-1.04-1.89-2.17c0-1.17,1.05-2.25,2.89-2.25c1.19,0,2.28,0.45,2.94,1.5l-1.3,0.88
		c-0.38-0.66-0.95-1.05-1.66-1.05c-0.75,0-1.11,0.3-1.11,0.73c0,0.45,0.24,0.66,1.2,0.96l0.79,0.24c1.32,0.42,2.07,1.03,2.07,2.23
		c0,1.38-1.16,2.38-3.01,2.38c-1.53,0-2.56-0.73-3.2-1.68L1002.4,106.99z"/>
	<path class="st0" d="M940.07,127.36h-1.95v-10.59h1.95V127.36z"/>
	<path class="st0" d="M943.72,119.89V121c0.56-0.78,1.43-1.24,2.4-1.24c1.06,0,1.72,0.45,2.03,1.32c0.63-0.84,1.53-1.31,2.58-1.31
		c0.93,0,1.65,0.39,1.95,1.23c0.17,0.47,0.24,0.96,0.24,2.04v4.32h-1.75v-4.05c0-0.84-0.06-1.23-0.2-1.5
		c-0.17-0.31-0.48-0.48-0.94-0.48s-0.92,0.24-1.17,0.56c-0.39,0.46-0.53,1-0.53,1.9v3.57h-1.75v-4.09c0-0.79-0.03-1.11-0.17-1.41
		c-0.17-0.36-0.51-0.52-0.99-0.52c-0.49,0-0.96,0.25-1.26,0.67c-0.3,0.42-0.42,0.85-0.42,1.77v3.58h-1.75v-7.47H943.72z"/>
	<path class="st0" d="M956.39,119.89v1.06c0.48-0.71,1.22-1.21,2.26-1.21c1.71,0,2.96,1.3,2.96,3.9c0,2.44-1.38,3.85-3.09,3.85
		c-1.11,0-1.74-0.39-2.13-0.97v3.81h-1.72v-10.44H956.39z M958.09,126.04c1.03,0,1.72-0.79,1.72-2.39c0-1.5-0.61-2.46-1.65-2.46
		s-1.79,0.82-1.79,2.41C956.38,125.11,957.04,126.04,958.09,126.04z"/>
	<path class="st0" d="M966.29,127.57c-2.34,0-3.66-1.47-3.66-3.96c0-2.47,1.46-3.93,3.76-3.93c2.22,0,3.55,1.48,3.55,4.02
		C969.95,126.19,968.48,127.57,966.29,127.57z M966.35,121.15c-1.11,0-1.92,0.85-1.92,2.42c0,1.69,0.78,2.54,1.88,2.54
		c1.1,0,1.88-0.77,1.88-2.45C968.18,121.99,967.46,121.15,966.35,121.15z"/>
	<path class="st0" d="M971.38,127.36v-7.47h1.68v1.15c0.45-0.81,1.04-1.24,2.07-1.24c0.24,0,0.42,0.03,0.64,0.09v1.77
		c-0.29-0.15-0.51-0.21-0.84-0.21c-0.58,0-1.08,0.25-1.41,0.73c-0.25,0.38-0.39,0.9-0.39,1.69v3.48H971.38z"/>
	<path class="st0" d="M980.57,127.33c-0.39,0.1-0.87,0.16-1.3,0.16c-0.74,0-1.23-0.18-1.53-0.54c-0.31-0.36-0.42-0.89-0.42-1.58
		v-4.08h-1.17v-1.41h1.2v-2.43h1.74v2.43h1.46v1.41h-1.46v3.73c0,0.76,0.23,1.03,0.77,1.03c0.21,0,0.48-0.04,0.72-0.13V127.33z"/>
	<path class="st0" d="M988.18,125.48c-0.55,1.35-1.69,2.1-3.25,2.1c-2.4,0-3.69-1.56-3.69-4.04c0-2.38,1.44-3.87,3.62-3.87
		c2.37,0,3.36,1.73,3.37,4.4H983c0.06,1.29,0.76,2.02,1.95,2.02c0.77,0,1.41-0.3,1.68-1.16L988.18,125.48z M986.44,122.81
		c-0.06-1.17-0.67-1.77-1.63-1.77s-1.67,0.6-1.79,1.77H986.44z"/>
	<path class="st0" d="M989.59,127.36v-7.47h1.68v1.15c0.45-0.81,1.04-1.24,2.07-1.24c0.24,0,0.42,0.03,0.64,0.09v1.77
		c-0.28-0.15-0.51-0.21-0.84-0.21c-0.58,0-1.08,0.25-1.41,0.73c-0.26,0.38-0.39,0.9-0.39,1.69v3.48H989.59z"/>
</g>
<g>
	<path class="st0" d="M641.12,310.36v-10.59h1.9v8.94h4.99v1.65H641.12z"/>
	<path class="st0" d="M649.3,301.42v-1.65h1.79v1.65H649.3z M651.08,310.36h-1.77v-7.47h1.77V310.36z"/>
	<path class="st0" d="M654.73,310.36l-2.73-7.47h1.95c0.87,2.55,1.38,4.09,1.84,5.68c0.43-1.53,0.93-3.15,1.8-5.68h1.86l-2.68,7.47
		H654.73z"/>
	<path class="st0" d="M660.35,301.42v-1.65h1.79v1.65H660.35z M662.14,310.36h-1.77v-7.47h1.77V310.36z"/>
	<path class="st0" d="M668.71,310.36v-4.29c0-0.58-0.06-1.02-0.27-1.32c-0.19-0.28-0.52-0.42-1-0.42s-0.97,0.25-1.28,0.66
		c-0.38,0.49-0.43,1.05-0.43,1.77v3.6h-1.75v-7.47h1.74V304c0.54-0.76,1.42-1.24,2.47-1.24c0.9,0,1.48,0.31,1.86,0.88
		c0.3,0.45,0.42,1.04,0.42,2.04v4.68H668.71z"/>
	<path class="st0" d="M677,309.32c-0.53,0.65-1.25,0.96-2.21,0.96c-1.83,0-3-1.39-3-3.75c0-2.34,1.26-3.77,3.1-3.77
		c1.04,0,1.75,0.38,2.17,1.05v-0.92h1.74v6.96c0,1.54-0.36,2.52-1.16,3.08c-0.58,0.42-1.44,0.6-2.4,0.6c-1.82,0-2.97-0.79-3.3-2.34
		l1.85-0.33c0.13,0.83,0.69,1.25,1.5,1.25c0.72,0,1.17-0.21,1.42-0.63c0.21-0.31,0.27-0.83,0.27-1.46V309.32z M675.41,304.22
		c-1.11,0-1.8,0.84-1.8,2.29c0,1.53,0.68,2.4,1.74,2.4c1.02,0,1.68-0.72,1.7-2.23C677.05,305.15,676.49,304.22,675.41,304.22z"/>
	<path class="st0" d="M685.48,310.36v-1.05c-0.48,0.7-1.19,1.2-2.24,1.2c-1.72,0-3-1.32-3-3.91c0-2.45,1.38-3.85,3.1-3.85
		c1.11,0,1.73,0.4,2.13,0.98v-3.94h1.71v10.59H685.48z M683.78,304.19c-1.04,0-1.74,0.79-1.74,2.38c0,1.5,0.63,2.46,1.67,2.46
		c1.04,0,1.77-0.81,1.77-2.4C685.48,305.14,684.83,304.19,683.78,304.19z"/>
	<path class="st0" d="M692.27,310.57c-2.34,0-3.66-1.47-3.66-3.96c0-2.47,1.46-3.93,3.77-3.93c2.22,0,3.55,1.48,3.55,4.02
		C695.93,309.19,694.46,310.57,692.27,310.57z M692.33,304.15c-1.11,0-1.92,0.85-1.92,2.42c0,1.69,0.78,2.54,1.88,2.54
		c1.09,0,1.87-0.77,1.87-2.45C694.16,304.99,693.44,304.15,692.33,304.15z"/>
	<path class="st0" d="M702.01,305.47c-0.21-0.99-0.75-1.32-1.46-1.32c-1.02,0-1.8,0.77-1.8,2.43c0,1.65,0.69,2.52,1.84,2.52
		c0.79,0,1.28-0.42,1.46-1.22l1.58,0.54c-0.43,1.25-1.42,2.15-3.12,2.15c-2.17,0-3.55-1.5-3.55-3.96c0-2.44,1.41-3.93,3.64-3.93
		c1.62,0,2.64,0.92,2.99,2.25L702.01,305.47z"/>
	<path class="st0" d="M705.4,307.99c0.39,0.77,1.08,1.22,1.9,1.22c0.77,0,1.19-0.33,1.19-0.78c0-0.49-0.25-0.7-1.38-1.06l-0.79-0.25
		c-1.16-0.36-1.89-1.04-1.89-2.17c0-1.17,1.05-2.25,2.89-2.25c1.19,0,2.28,0.45,2.94,1.5l-1.3,0.88c-0.38-0.66-0.95-1.05-1.66-1.05
		c-0.75,0-1.11,0.3-1.11,0.73c0,0.45,0.24,0.66,1.2,0.96l0.79,0.24c1.32,0.42,2.07,1.03,2.07,2.23c0,1.38-1.16,2.38-3.01,2.38
		c-1.53,0-2.56-0.73-3.2-1.68L705.4,307.99z"/>
	<path class="st0" d="M641.95,325.06c0.63,1.26,1.62,1.88,2.79,1.88c1.29,0,2-0.51,2-1.33c0-0.75-0.46-1.05-2.04-1.6l-1.14-0.41
		c-1.8-0.64-2.62-1.47-2.62-3c0-1.81,1.63-3.06,3.79-3.06c1.81,0,3.21,0.77,4.05,2.16l-1.53,1.09c-0.71-1.2-1.62-1.63-2.7-1.63
		c-1.05,0-1.65,0.52-1.65,1.24c0,0.69,0.39,1.04,1.77,1.49l1.21,0.4c1.96,0.63,2.87,1.52,2.87,3.1c0,1.9-1.58,3.22-4.04,3.22
		c-1.92,0-3.46-0.9-4.33-2.43L641.95,325.06z"/>
	<path class="st0" d="M656.74,326.48c-0.55,1.35-1.69,2.1-3.25,2.1c-2.4,0-3.69-1.56-3.69-4.04c0-2.38,1.44-3.87,3.62-3.87
		c2.37,0,3.36,1.73,3.37,4.4h-5.22c0.06,1.29,0.76,2.02,1.95,2.02c0.77,0,1.41-0.3,1.68-1.16L656.74,326.48z M655,323.81
		c-0.06-1.17-0.67-1.77-1.63-1.77s-1.67,0.6-1.79,1.77H655z"/>
	<path class="st0" d="M658.15,328.36v-7.47h1.68v1.15c0.45-0.81,1.04-1.24,2.07-1.24c0.24,0,0.42,0.03,0.64,0.09v1.77
		c-0.28-0.15-0.51-0.21-0.84-0.21c-0.58,0-1.08,0.25-1.41,0.73c-0.26,0.38-0.39,0.9-0.39,1.69v3.48H658.15z"/>
	<path class="st0" d="M665.51,328.36l-2.73-7.47h1.95c0.87,2.55,1.38,4.09,1.84,5.68c0.43-1.53,0.93-3.15,1.8-5.68h1.86l-2.68,7.47
		H665.51z"/>
	<path class="st0" d="M677.53,326.48c-0.55,1.35-1.7,2.1-3.26,2.1c-2.4,0-3.69-1.56-3.69-4.04c0-2.38,1.44-3.87,3.62-3.87
		c2.37,0,3.36,1.73,3.38,4.4h-5.22c0.06,1.29,0.77,2.02,1.95,2.02c0.76,0,1.41-0.3,1.68-1.16L677.53,326.48z M675.79,323.81
		c-0.06-1.17-0.67-1.77-1.63-1.77s-1.67,0.6-1.79,1.77H675.79z"/>
	<path class="st0" d="M678.94,328.36v-7.47h1.68v1.15c0.45-0.81,1.04-1.24,2.07-1.24c0.24,0,0.42,0.03,0.64,0.09v1.77
		c-0.29-0.15-0.51-0.21-0.84-0.21c-0.59,0-1.08,0.25-1.41,0.73c-0.26,0.38-0.39,0.9-0.39,1.69v3.48H678.94z"/>
</g>
<g>
	<path class="st0" d="M938.12,310.36v-10.59h1.9v8.94h4.99v1.65H938.12z"/>
	<path class="st0" d="M946.3,301.42v-1.65h1.79v1.65H946.3z M948.08,310.36h-1.77v-7.47h1.77V310.36z"/>
	<path class="st0" d="M951.73,310.36l-2.73-7.47h1.95c0.87,2.55,1.38,4.09,1.84,5.68c0.43-1.53,0.93-3.15,1.8-5.68h1.86l-2.68,7.47
		H951.73z"/>
	<path class="st0" d="M957.35,301.42v-1.65h1.79v1.65H957.35z M959.14,310.36h-1.77v-7.47h1.77V310.36z"/>
	<path class="st0" d="M965.71,310.36v-4.29c0-0.58-0.06-1.02-0.27-1.32c-0.19-0.28-0.52-0.42-1-0.42s-0.97,0.25-1.28,0.66
		c-0.38,0.49-0.43,1.05-0.43,1.77v3.6h-1.75v-7.47h1.74V304c0.54-0.76,1.42-1.24,2.47-1.24c0.9,0,1.48,0.31,1.86,0.88
		c0.3,0.45,0.42,1.04,0.42,2.04v4.68H965.71z"/>
	<path class="st0" d="M974,309.32c-0.53,0.65-1.25,0.96-2.21,0.96c-1.83,0-3-1.39-3-3.75c0-2.34,1.26-3.77,3.1-3.77
		c1.04,0,1.75,0.38,2.17,1.05v-0.92h1.74v6.96c0,1.54-0.36,2.52-1.16,3.08c-0.58,0.42-1.44,0.6-2.4,0.6c-1.82,0-2.97-0.79-3.3-2.34
		l1.85-0.33c0.13,0.83,0.69,1.25,1.5,1.25c0.72,0,1.17-0.21,1.42-0.63c0.21-0.31,0.27-0.83,0.27-1.46V309.32z M972.41,304.22
		c-1.11,0-1.8,0.84-1.8,2.29c0,1.53,0.68,2.4,1.74,2.4c1.02,0,1.68-0.72,1.7-2.23C974.05,305.15,973.49,304.22,972.41,304.22z"/>
	<path class="st0" d="M982.48,310.36v-1.05c-0.48,0.7-1.19,1.2-2.24,1.2c-1.72,0-3-1.32-3-3.91c0-2.45,1.38-3.85,3.1-3.85
		c1.11,0,1.73,0.4,2.13,0.98v-3.94h1.71v10.59H982.48z M980.78,304.19c-1.04,0-1.74,0.79-1.74,2.38c0,1.5,0.63,2.46,1.67,2.46
		c1.04,0,1.77-0.81,1.77-2.4C982.48,305.14,981.83,304.19,980.78,304.19z"/>
	<path class="st0" d="M989.27,310.57c-2.34,0-3.66-1.47-3.66-3.96c0-2.47,1.46-3.93,3.77-3.93c2.22,0,3.55,1.48,3.55,4.02
		C992.93,309.19,991.46,310.57,989.27,310.57z M989.33,304.15c-1.11,0-1.92,0.85-1.92,2.42c0,1.69,0.78,2.54,1.88,2.54
		c1.09,0,1.87-0.77,1.87-2.45C991.16,304.99,990.44,304.15,989.33,304.15z"/>
	<path class="st0" d="M999.01,305.47c-0.21-0.99-0.75-1.32-1.46-1.32c-1.02,0-1.8,0.77-1.8,2.43c0,1.65,0.69,2.52,1.84,2.52
		c0.79,0,1.28-0.42,1.46-1.22l1.58,0.54c-0.43,1.25-1.42,2.15-3.12,2.15c-2.17,0-3.55-1.5-3.55-3.96c0-2.44,1.41-3.93,3.64-3.93
		c1.62,0,2.64,0.92,2.99,2.25L999.01,305.47z"/>
	<path class="st0" d="M1002.4,307.99c0.39,0.77,1.08,1.22,1.9,1.22c0.77,0,1.19-0.33,1.19-0.78c0-0.49-0.25-0.7-1.38-1.06
		l-0.79-0.25c-1.16-0.36-1.89-1.04-1.89-2.17c0-1.17,1.05-2.25,2.89-2.25c1.19,0,2.28,0.45,2.94,1.5l-1.3,0.88
		c-0.38-0.66-0.95-1.05-1.66-1.05c-0.75,0-1.11,0.3-1.11,0.73c0,0.45,0.24,0.66,1.2,0.96l0.79,0.24c1.32,0.42,2.07,1.03,2.07,2.23
		c0,1.38-1.16,2.38-3.01,2.38c-1.53,0-2.56-0.73-3.2-1.68L1002.4,307.99z"/>
	<path class="st0" d="M938.12,328.36v-10.59h7.36v1.63h-5.44v2.7h5.02v1.64h-5.02v2.97h5.74v1.65H938.12z"/>
	<path class="st0" d="M951.7,328.36v-1.05c-0.48,0.7-1.18,1.2-2.23,1.2c-1.72,0-3-1.32-3-3.91c0-2.45,1.38-3.85,3.1-3.85
		c1.11,0,1.73,0.4,2.13,0.98v-3.94h1.71v10.59H951.7z M950,322.19c-1.04,0-1.74,0.79-1.74,2.38c0,1.5,0.63,2.46,1.67,2.46
		s1.77-0.81,1.77-2.4C951.7,323.14,951.05,322.19,950,322.19z"/>
	<path class="st0" d="M955.22,319.42v-1.65h1.79v1.65H955.22z M957.01,328.36h-1.77v-7.47h1.77V328.36z"/>
	<path class="st0" d="M962.48,328.33c-0.39,0.1-0.87,0.16-1.3,0.16c-0.74,0-1.23-0.18-1.53-0.54c-0.32-0.36-0.42-0.89-0.42-1.58
		v-4.08h-1.17v-1.41h1.2v-2.43H961v2.43h1.46v1.41H961v3.73c0,0.76,0.23,1.03,0.76,1.03c0.21,0,0.48-0.04,0.72-0.13V328.33z"/>
	<path class="st0" d="M966.8,328.57c-2.34,0-3.66-1.47-3.66-3.96c0-2.47,1.46-3.93,3.76-3.93c2.22,0,3.55,1.48,3.55,4.02
		C970.46,327.19,968.99,328.57,966.8,328.57z M966.86,322.15c-1.11,0-1.92,0.85-1.92,2.42c0,1.69,0.78,2.54,1.88,2.54
		s1.87-0.77,1.87-2.45C968.69,322.99,967.97,322.15,966.86,322.15z"/>
	<path class="st0" d="M971.89,328.36v-7.47h1.68v1.15c0.45-0.81,1.04-1.24,2.07-1.24c0.24,0,0.42,0.03,0.64,0.09v1.77
		c-0.28-0.15-0.51-0.21-0.84-0.21c-0.58,0-1.08,0.25-1.41,0.73c-0.25,0.38-0.39,0.9-0.39,1.69v3.48H971.89z"/>
</g>
</svg>
