<?xml version="1.0" encoding="utf-8"?>
<!-- Generator: Adobe Illustrator 24.1.0, SVG Export Plug-In . SVG Version: 6.00 Build 0)  -->
<svg version="1.1" id="labels" xmlns="http://www.w3.org/2000/svg" xmlns:xlink="http://www.w3.org/1999/xlink" x="0px" y="0px"
	 viewBox="0 0 1201 653" style="enable-background:new 0 0 1201 653;" xml:space="preserve">
<style type="text/css">
	.st0{fill:#3A2F3C;}
	.st1{fill:#3661b5;}
</style>
<g>
	<path class="st0" d="M344.24,101.77c2.31,3.87,3.67,6.03,4.69,7.83c-0.06-1.62-0.08-3.77-0.08-7.83h1.89v10.59h-2.08
		c-2.21-3.63-3.6-5.91-4.71-7.77c0.05,0.92,0.06,2.95,0.06,7.77h-1.89v-10.59H344.24z"/>
	<path class="st0" d="M359.18,110.48c-0.55,1.35-1.69,2.1-3.25,2.1c-2.4,0-3.69-1.56-3.69-4.04c0-2.38,1.44-3.87,3.62-3.87
		c2.37,0,3.36,1.73,3.37,4.4H354c0.06,1.29,0.77,2.02,1.95,2.02c0.76,0,1.41-0.3,1.68-1.16L359.18,110.48z M357.44,107.81
		c-0.06-1.17-0.68-1.77-1.64-1.77s-1.66,0.6-1.78,1.77H357.44z"/>
	<path class="st0" d="M366.68,112.36c-0.5-2.04-0.96-3.75-1.33-5.55c-0.31,1.44-0.66,2.76-1.44,5.55h-1.98l-2.25-7.47h1.92
		c0.51,1.98,1.11,4.2,1.46,5.62c0.3-1.41,0.63-2.9,1.38-5.62h1.84c0.63,2.4,1.02,3.98,1.38,5.62c0.36-1.6,0.93-3.71,1.46-5.62h1.8
		l-2.26,7.47H366.68z"/>
	<path class="st0" d="M372.5,109.99c0.39,0.77,1.08,1.22,1.9,1.22c0.77,0,1.19-0.33,1.19-0.78c0-0.49-0.25-0.7-1.38-1.06l-0.79-0.25
		c-1.15-0.36-1.89-1.04-1.89-2.17c0-1.17,1.05-2.25,2.9-2.25c1.19,0,2.28,0.45,2.94,1.5l-1.3,0.88c-0.38-0.66-0.95-1.05-1.67-1.05
		c-0.75,0-1.11,0.3-1.11,0.73c0,0.45,0.24,0.66,1.2,0.96l0.79,0.24c1.32,0.42,2.07,1.03,2.07,2.23c0,1.38-1.15,2.38-3.01,2.38
		c-1.53,0-2.56-0.73-3.19-1.68L372.5,109.99z"/>
	<path class="st0" d="M344.27,124.28v6.07h-1.76v-6.07h-1.26v-1.4h1.26v-0.9c0-0.9,0.21-1.47,0.62-1.83
		c0.38-0.36,0.9-0.51,1.54-0.51c0.45,0,0.78,0.04,1.12,0.15v1.44c-0.23-0.1-0.48-0.17-0.71-0.17c-0.35,0-0.57,0.1-0.71,0.35
		c-0.1,0.17-0.12,0.42-0.12,0.75v0.72h1.5v1.4H344.27z"/>
	<path class="st0" d="M352.88,128.48c-0.55,1.35-1.69,2.1-3.25,2.1c-2.4,0-3.69-1.56-3.69-4.04c0-2.38,1.44-3.87,3.62-3.87
		c2.37,0,3.36,1.73,3.37,4.4h-5.22c0.06,1.29,0.77,2.02,1.95,2.02c0.76,0,1.41-0.3,1.68-1.16L352.88,128.48z M351.14,125.81
		c-0.06-1.17-0.67-1.77-1.63-1.77s-1.67,0.6-1.79,1.77H351.14z"/>
	<path class="st0" d="M360.83,128.48c-0.55,1.35-1.69,2.1-3.25,2.1c-2.4,0-3.69-1.56-3.69-4.04c0-2.38,1.44-3.87,3.62-3.87
		c2.37,0,3.36,1.73,3.37,4.4h-5.22c0.06,1.29,0.77,2.02,1.95,2.02c0.76,0,1.41-0.3,1.68-1.16L360.83,128.48z M359.09,125.81
		c-0.06-1.17-0.67-1.77-1.63-1.77s-1.67,0.6-1.79,1.77H359.09z"/>
	<path class="st0" d="M367.07,130.36v-1.05c-0.48,0.7-1.19,1.2-2.23,1.2c-1.72,0-3-1.32-3-3.91c0-2.45,1.38-3.85,3.1-3.85
		c1.11,0,1.73,0.4,2.13,0.98v-3.94h1.71v10.59H367.07z M365.37,124.19c-1.04,0-1.74,0.79-1.74,2.38c0,1.5,0.63,2.46,1.66,2.46
		c1.04,0,1.77-0.81,1.77-2.4C367.07,125.14,366.42,124.19,365.37,124.19z"/>
	<path class="st0" d="M371.28,127.99c0.39,0.77,1.08,1.22,1.9,1.22c0.77,0,1.19-0.33,1.19-0.78c0-0.49-0.25-0.7-1.38-1.06
		l-0.79-0.25c-1.15-0.36-1.89-1.04-1.89-2.17c0-1.17,1.05-2.25,2.9-2.25c1.19,0,2.28,0.45,2.94,1.5l-1.3,0.88
		c-0.38-0.66-0.95-1.05-1.67-1.05c-0.75,0-1.11,0.3-1.11,0.73c0,0.45,0.24,0.66,1.2,0.96l0.79,0.24c1.32,0.42,2.07,1.03,2.07,2.23
		c0,1.38-1.15,2.38-3.01,2.38c-1.53,0-2.56-0.73-3.19-1.68L371.28,127.99z"/>
</g>
<g>
	<path class="st1" d="M58.08,70.36l-0.84-2.48h-4.19l-0.85,2.48h-2.05l4.02-10.59h2.11l3.87,10.59H58.08z M56.78,66.38
		c-0.6-1.73-1.11-3.17-1.6-4.71c-0.35,1.06-0.72,2.11-1.65,4.71H56.78z"/>
	<path class="st1" d="M68.13,70.36V69.2c-0.73,0.94-1.75,1.36-3.1,1.36c-2.67,0-4.59-2.11-4.59-5.37c0-3.23,1.89-5.67,5.23-5.67
		c2.13,0,3.52,0.96,4.2,2.79l-1.89,0.72c-0.33-1.12-1.09-1.81-2.35-1.81c-1.99,0-3.19,1.48-3.19,3.85c0,2.49,1.27,3.82,3.09,3.82
		c1.69,0,2.5-1.03,2.56-2.76h-2.96v-1.62h4.73v5.83H68.13z"/>
	<path class="st1" d="M79.17,70.36V69.2c-0.73,0.94-1.75,1.36-3.1,1.36c-2.67,0-4.59-2.11-4.59-5.37c0-3.23,1.89-5.67,5.23-5.67
		c2.13,0,3.52,0.96,4.2,2.79l-1.89,0.72c-0.33-1.12-1.09-1.81-2.35-1.81c-1.99,0-3.19,1.48-3.19,3.85c0,2.49,1.27,3.82,3.09,3.82
		c1.69,0,2.5-1.03,2.56-2.76h-2.96v-1.62h4.73v5.83H79.17z"/>
	<path class="st1" d="M89.25,70.36l-2.67-4.23h-1.81v4.23h-1.89V59.77h3.43c1.37,0,2.42,0.06,3.19,0.38
		c1.08,0.43,1.59,1.3,1.59,2.73c0,1.74-0.98,2.7-2.64,2.97l3.02,4.51H89.25z M86.75,64.6c0.96,0,1.5-0.12,1.85-0.39
		c0.34-0.27,0.52-0.7,0.52-1.24c0-0.56-0.14-1-0.58-1.29c-0.35-0.23-0.89-0.31-1.73-0.31h-2.04v3.24H86.75z"/>
	<path class="st1" d="M92.66,70.36V59.77h7.36v1.63h-5.44v2.7h5.02v1.64h-5.02v2.97h5.74v1.65H92.66z"/>
	<path class="st1" d="M108.8,70.36V69.2c-0.73,0.94-1.75,1.36-3.1,1.36c-2.67,0-4.59-2.11-4.59-5.37c0-3.23,1.89-5.67,5.23-5.67
		c2.13,0,3.52,0.96,4.2,2.79l-1.89,0.72c-0.33-1.12-1.09-1.81-2.35-1.81c-1.99,0-3.19,1.48-3.19,3.85c0,2.49,1.27,3.82,3.09,3.82
		c1.69,0,2.5-1.03,2.56-2.76h-2.96v-1.62h4.73v5.83H108.8z"/>
	<path class="st1" d="M119.46,70.36l-0.84-2.48h-4.19l-0.85,2.48h-2.05l4.02-10.59h2.11l3.87,10.59H119.46z M118.16,66.38
		c-0.6-1.73-1.11-3.17-1.6-4.71c-0.35,1.06-0.72,2.11-1.65,4.71H118.16z"/>
	<path class="st1" d="M123.17,70.36V61.4h-2.98v-1.63h7.95v1.63h-3v8.95H123.17z"/>
	<path class="st1" d="M129.42,70.36V59.77h7.36v1.63h-5.44v2.7h5.02v1.64h-5.02v2.97h5.74v1.65H129.42z"/>
</g>
<g>
	<path class="st1" d="M51.12,271.36v-10.59h4.36c1.46,0,2.34,0.22,2.92,0.64c0.79,0.56,1.15,1.53,1.15,2.6
		c0,1.19-0.42,2.25-1.35,2.77c-0.78,0.44-1.88,0.58-3.15,0.58h-2.06v3.99H51.12z M54.92,265.75c1.03,0,1.71-0.1,2.13-0.39
		c0.39-0.28,0.54-0.73,0.54-1.33c0-0.54-0.18-0.99-0.54-1.28c-0.41-0.3-0.92-0.36-2.01-0.36h-2.02v3.36H54.92z"/>
	<path class="st1" d="M67.4,271.36l-2.67-4.23h-1.81v4.23h-1.89v-10.59h3.43c1.37,0,2.42,0.06,3.19,0.38
		c1.08,0.43,1.59,1.3,1.59,2.73c0,1.74-0.98,2.7-2.64,2.97l3.02,4.51H67.4z M64.89,265.6c0.96,0,1.5-0.12,1.85-0.39
		c0.34-0.27,0.52-0.7,0.52-1.24c0-0.56-0.14-1-0.58-1.29c-0.35-0.23-0.89-0.31-1.73-0.31h-2.04v3.24H64.89z"/>
	<path class="st1" d="M70.44,265.99c0-3.35,1.97-5.46,5.04-5.46c2.9,0,4.78,2.22,4.78,5.58c0,3.46-1.9,5.49-4.78,5.49
		C72.32,271.6,70.44,269.42,70.44,265.99z M75.39,262.22c-1.81,0-2.97,1.38-2.97,3.73c0,2.46,1.19,3.94,3.02,3.94
		c1.67,0,2.83-1.29,2.83-3.82C78.27,263.63,77.12,262.22,75.39,262.22z"/>
	<path class="st1" d="M81.86,260.77h3.27c1.86,0,2.67,0.13,3.48,0.54c1.46,0.72,2.15,2.46,2.15,4.67c0,1.71-0.46,3.21-1.36,4.11
		c-0.96,0.96-2.24,1.27-4.4,1.27h-3.13V260.77z M85.11,269.74c1.42,0,2.32-0.3,2.88-0.91c0.55-0.63,0.75-1.58,0.75-2.87
		c0-1.14-0.23-2.1-0.79-2.73c-0.5-0.54-1.14-0.84-2.58-0.84h-1.6v7.35H85.11z"/>
	<path class="st1" d="M100.8,266.83c0,1.67-0.23,2.73-0.88,3.49c-0.74,0.85-1.86,1.26-3.4,1.26c-1.52,0-2.7-0.41-3.36-1.27
		c-0.66-0.89-0.81-1.88-0.81-3.48v-6.06h1.9v6.19c0,0.8,0.04,1.47,0.33,1.98c0.39,0.71,1.08,0.98,1.96,0.98
		c0.93,0,1.67-0.24,2.05-0.99c0.23-0.44,0.3-1.12,0.3-1.91v-6.25h1.9V266.83z"/>
	<path class="st1" d="M109.55,264.08c-0.29-1.15-1.02-1.86-2.18-1.86c-1.93,0-2.97,1.41-2.97,3.69c0,2.42,1.1,3.98,2.97,3.98
		c1.17,0,2.07-0.66,2.35-1.95l1.83,0.66c-0.66,1.95-2.22,3-4.26,3c-3.04,0-4.89-2.13-4.89-5.61c0-3.48,2-5.46,5-5.46
		c2.1,0,3.48,1.11,4.02,2.86L109.55,264.08z"/>
	<path class="st1" d="M112.79,271.36v-10.59h7.36v1.63h-5.44v2.7h5.02v1.64h-5.02v2.97h5.74v1.65H112.79z"/>
	<path class="st1" d="M133.89,267.02c-0.36,0.95-0.8,1.67-1.32,2.27l0.18,0.18c0.31,0.32,0.54,0.45,1.02,0.45
		c0.09,0,0.24-0.02,0.33-0.03v1.47c-0.18,0.03-0.41,0.04-0.56,0.04c-0.78,0-1.32-0.03-2.17-0.92c-0.85,0.75-1.88,1.02-3.02,1.02
		c-2.1,0-3.51-1.24-3.51-3.03c0-1.27,0.52-2.22,2.46-3.24c-0.54-0.77-0.78-1.41-0.78-2.12c0-1.41,1-2.4,2.74-2.4
		c1.47,0,2.48,0.89,2.48,2.1c0,1.11-0.48,1.9-2.06,2.86l1.86,2.43c0.38-0.5,0.69-1.12,0.89-1.86L133.89,267.02z M128.18,266.45
		c-1.21,0.69-1.53,1.25-1.53,2c0,1,0.83,1.59,1.94,1.59c0.71,0,1.27-0.23,1.8-0.71L128.18,266.45z M130.2,262.97
		c0-0.5-0.38-0.87-0.96-0.87c-0.65,0-1.04,0.39-1.04,0.93c0,0.45,0.15,0.83,0.68,1.54C129.84,264.02,130.2,263.53,130.2,262.97z"/>
	<path class="st1" d="M145.56,271.36l-0.84-2.48h-4.19l-0.85,2.48h-2.05l4.02-10.59h2.11l3.87,10.59H145.56z M144.26,267.38
		c-0.6-1.73-1.11-3.17-1.6-4.71c-0.35,1.06-0.72,2.11-1.65,4.71H144.26z"/>
	<path class="st1" d="M154.98,271.36l-2.67-4.23h-1.81v4.23h-1.89v-10.59h3.43c1.37,0,2.42,0.06,3.19,0.38
		c1.08,0.43,1.59,1.3,1.59,2.73c0,1.74-0.98,2.7-2.64,2.97l3.02,4.51H154.98z M152.48,265.6c0.96,0,1.5-0.12,1.85-0.39
		c0.34-0.27,0.52-0.7,0.52-1.24c0-0.56-0.14-1-0.58-1.29c-0.35-0.23-0.89-0.31-1.73-0.31h-2.04v3.24H152.48z"/>
	<path class="st1" d="M164.76,271.36l-2.67-4.23h-1.81v4.23h-1.89v-10.59h3.43c1.37,0,2.42,0.06,3.19,0.38
		c1.08,0.43,1.59,1.3,1.59,2.73c0,1.74-0.98,2.7-2.64,2.97l3.02,4.51H164.76z M162.26,265.6c0.96,0,1.5-0.12,1.85-0.39
		c0.34-0.27,0.52-0.7,0.52-1.24c0-0.56-0.14-1-0.58-1.29c-0.35-0.23-0.89-0.31-1.73-0.31h-2.04v3.24H162.26z"/>
	<path class="st1" d="M175.13,271.36l-0.84-2.48h-4.19l-0.85,2.48h-2.05l4.02-10.59h2.11l3.87,10.59H175.13z M173.82,267.38
		c-0.6-1.73-1.11-3.17-1.6-4.71c-0.35,1.06-0.72,2.11-1.65,4.71H173.82z"/>
	<path class="st1" d="M180.29,260.77c2.31,3.87,3.67,6.03,4.69,7.83c-0.06-1.62-0.08-3.77-0.08-7.83h1.89v10.59h-2.08
		c-2.21-3.63-3.6-5.91-4.71-7.77c0.05,0.92,0.06,2.95,0.06,7.77h-1.89v-10.59H180.29z"/>
	<path class="st1" d="M196.08,271.36v-1.15c-0.73,0.94-1.75,1.36-3.1,1.36c-2.67,0-4.59-2.11-4.59-5.37c0-3.23,1.89-5.67,5.23-5.67
		c2.13,0,3.52,0.96,4.2,2.79l-1.89,0.72c-0.33-1.12-1.09-1.81-2.35-1.81c-1.99,0-3.19,1.48-3.19,3.85c0,2.49,1.27,3.82,3.09,3.82
		c1.69,0,2.5-1.03,2.56-2.76h-2.96v-1.62h4.73v5.83H196.08z"/>
	<path class="st1" d="M199.79,271.36v-10.59h7.36v1.63h-5.44v2.7h5.02v1.64h-5.02v2.97h5.74v1.65H199.79z"/>
</g>
<g>
	<path class="st1" d="M51.12,463.77h3.27c1.86,0,2.67,0.13,3.48,0.54c1.46,0.72,2.15,2.46,2.15,4.67c0,1.71-0.46,3.21-1.36,4.11
		c-0.96,0.96-2.24,1.27-4.4,1.27h-3.13V463.77z M54.38,472.74c1.42,0,2.32-0.3,2.88-0.91c0.55-0.63,0.75-1.58,0.75-2.87
		c0-1.14-0.23-2.1-0.79-2.73c-0.5-0.54-1.14-0.84-2.58-0.84h-1.6v7.35H54.38z"/>
	<path class="st1" d="M61.61,474.36v-10.59h7.36v1.63h-5.44v2.7h5.02v1.63h-5.02v2.97h5.74v1.65H61.61z"/>
	<path class="st1" d="M70.74,474.36v-10.59h1.9v8.94h4.99v1.65H70.74z"/>
	<path class="st1" d="M80.94,474.36h-1.95v-10.59h1.95V474.36z"/>
	<path class="st1" d="M85.61,474.36l-3.67-10.59H84c1.21,3.7,2,6.01,2.65,8.38c0.65-2.35,1.37-4.68,2.6-8.38h2.02l-3.66,10.59H85.61
		z"/>
	<path class="st1" d="M92.25,474.36v-10.59h7.36v1.63h-5.44v2.7h5.02v1.63h-5.02v2.97h5.74v1.65H92.25z"/>
	<path class="st1" d="M107.76,474.36l-2.67-4.23h-1.81v4.23h-1.89v-10.59h3.43c1.37,0,2.42,0.06,3.19,0.38
		c1.08,0.43,1.59,1.3,1.59,2.73c0,1.74-0.98,2.7-2.64,2.97l3.02,4.51H107.76z M105.26,468.6c0.96,0,1.5-0.12,1.85-0.39
		c0.34-0.27,0.52-0.71,0.52-1.25c0-0.56-0.14-1-0.58-1.29c-0.35-0.22-0.89-0.31-1.73-0.31h-2.04v3.24H105.26z"/>
	<path class="st1" d="M123.14,470.02c-0.36,0.95-0.8,1.67-1.32,2.27l0.18,0.18c0.31,0.31,0.54,0.45,1.02,0.45
		c0.09,0,0.24-0.01,0.33-0.03v1.47c-0.18,0.03-0.41,0.04-0.56,0.04c-0.78,0-1.32-0.03-2.17-0.92c-0.85,0.75-1.88,1.02-3.02,1.02
		c-2.1,0-3.51-1.24-3.51-3.03c0-1.28,0.52-2.22,2.46-3.24c-0.54-0.76-0.78-1.41-0.78-2.12c0-1.41,1-2.4,2.74-2.4
		c1.47,0,2.48,0.89,2.48,2.1c0,1.11-0.48,1.9-2.06,2.86l1.86,2.43c0.38-0.5,0.69-1.12,0.89-1.86L123.14,470.02z M117.42,469.45
		c-1.21,0.69-1.53,1.25-1.53,2c0,1,0.83,1.59,1.94,1.59c0.71,0,1.27-0.23,1.8-0.71L117.42,469.45z M119.45,465.97
		c0-0.5-0.38-0.87-0.96-0.87c-0.65,0-1.04,0.39-1.04,0.93c0,0.45,0.15,0.83,0.68,1.54C119.09,467.02,119.45,466.53,119.45,465.97z"
		/>
	<path class="st1" d="M127.49,468.99c0-3.34,1.97-5.46,5.04-5.46c2.9,0,4.78,2.22,4.78,5.58c0,3.46-1.9,5.49-4.78,5.49
		C129.36,474.6,127.49,472.42,127.49,468.99z M132.44,465.22c-1.81,0-2.97,1.38-2.97,3.74c0,2.46,1.19,3.94,3.02,3.94
		c1.67,0,2.83-1.29,2.83-3.83C135.32,466.63,134.16,465.22,132.44,465.22z"/>
	<path class="st1" d="M138.9,474.36v-10.59h4.36c1.46,0,2.34,0.22,2.92,0.64c0.79,0.55,1.15,1.53,1.15,2.59
		c0,1.18-0.42,2.25-1.35,2.77c-0.78,0.44-1.88,0.59-3.15,0.59h-2.06v3.99H138.9z M142.7,468.75c1.03,0,1.71-0.1,2.13-0.39
		c0.39-0.28,0.54-0.74,0.54-1.33c0-0.54-0.18-0.99-0.54-1.28c-0.41-0.3-0.92-0.36-2.01-0.36h-2.02v3.36H142.7z"/>
	<path class="st1" d="M150.63,474.36v-8.95h-2.98v-1.63h7.95v1.63h-3v8.95H150.63z"/>
	<path class="st1" d="M158.84,474.36h-1.95v-10.59h1.95V474.36z"/>
	<path class="st1" d="M169.85,474.36c0-5.29,0-6.79,0.06-8.55c-0.65,2.03-0.93,2.88-2.83,8.55h-1.65c-1.33-4.16-2.11-6.22-2.82-8.53
		c0.04,1.89,0.04,3.25,0.04,8.53h-1.84v-10.59h2.74c1.35,3.93,2.08,5.97,2.73,8.08c0.6-2.05,1.05-3.34,2.65-8.08h2.75v10.59H169.85z
		"/>
	<path class="st1" d="M175.59,474.36h-1.95v-10.59h1.95V474.36z"/>
	<path class="st1" d="M177.02,474.36v-1.41l5.76-7.54h-5.46v-1.63h7.89v1.47l-5.7,7.49h5.71v1.63H177.02z"/>
	<path class="st1" d="M186.69,474.36v-10.59h7.36v1.63h-5.44v2.7h5.02v1.63h-5.02v2.97h5.74v1.65H186.69z"/>
</g>
<g>
	<path class="st0" d="M224.15,588.38c0-5.29,0-6.79,0.06-8.55c-0.65,2.02-0.93,2.88-2.83,8.55h-1.65c-1.33-4.15-2.11-6.22-2.82-8.53
		c0.04,1.89,0.04,3.25,0.04,8.53h-1.84v-10.59h2.74c1.35,3.93,2.08,5.97,2.73,8.08c0.6-2.05,1.05-3.34,2.65-8.08h2.75v10.59H224.15z
		"/>
	<path class="st0" d="M231.14,588.59c-2.34,0-3.66-1.47-3.66-3.96c0-2.47,1.46-3.93,3.77-3.93c2.22,0,3.55,1.48,3.55,4.02
		C234.8,587.21,233.33,588.59,231.14,588.59z M231.2,582.17c-1.11,0-1.92,0.85-1.92,2.42c0,1.69,0.78,2.54,1.88,2.54
		c1.09,0,1.87-0.77,1.87-2.45C233.03,583.01,232.31,582.17,231.2,582.17z"/>
	<path class="st0" d="M237.98,577.79v4.12c0.5-0.65,1.27-1.16,2.34-1.16c1.75,0,2.88,1.46,2.88,3.88c0,2.45-1.23,3.88-3.07,3.88
		c-1.02,0-1.71-0.39-2.22-1.12v0.98h-1.68v-10.59H237.98z M239.69,587.06c1.03,0,1.68-0.83,1.68-2.42c0-1.5-0.61-2.42-1.62-2.42
		c-1.06,0-1.81,0.9-1.81,2.33C237.93,586.15,238.58,587.06,239.69,587.06z"/>
	<path class="st0" d="M244.61,579.44v-1.65h1.79v1.65L244.61,579.44z M246.39,588.38l-1.77,0v-7.47l1.77,0V588.38z"/>
	<path class="st0" d="M249.99,588.38h-1.77v-10.59h1.77V588.38z"/>
	<path class="st0" d="M258.36,586.51c-0.55,1.35-1.69,2.1-3.25,2.1c-2.4,0-3.69-1.56-3.69-4.04c0-2.38,1.44-3.87,3.62-3.87
		c2.37,0,3.36,1.73,3.37,4.4h-5.22c0.06,1.29,0.77,2.02,1.95,2.02c0.76,0,1.41-0.3,1.68-1.16L258.36,586.51z M256.62,583.84
		c-0.06-1.17-0.67-1.77-1.63-1.77s-1.67,0.6-1.79,1.77H256.62z"/>
	<path class="st0" d="M222.06,606.38l-0.84-2.48l-4.19,0l-0.85,2.47h-2.05l4.02-10.59h2.11l3.87,10.59H222.06z M220.76,602.41
		c-0.6-1.72-1.11-3.17-1.61-4.71c-0.35,1.07-0.72,2.12-1.65,4.71H220.76z"/>
	<path class="st0" d="M226.77,598.91v1.06c0.48-0.71,1.22-1.21,2.27-1.21c1.71,0,2.96,1.3,2.96,3.9c0,2.44-1.38,3.85-3.09,3.85
		c-1.11,0-1.74-0.39-2.13-0.97v3.81h-1.72l0-10.44H226.77z M228.47,605.06c1.03,0,1.72-0.79,1.72-2.38c0-1.5-0.62-2.46-1.65-2.46
		c-1.03,0-1.78,0.83-1.78,2.42C226.76,604.13,227.42,605.06,228.47,605.06z"/>
	<path class="st0" d="M235.14,598.91v1.06c0.48-0.71,1.22-1.21,2.27-1.21c1.71,0,2.96,1.3,2.96,3.9c0,2.44-1.38,3.85-3.09,3.85
		c-1.11,0-1.74-0.39-2.13-0.97v3.81h-1.72l0-10.44H235.14z M236.84,605.06c1.03,0,1.72-0.79,1.72-2.38c0-1.5-0.62-2.46-1.65-2.46
		c-1.03,0-1.78,0.83-1.78,2.42C235.13,604.13,235.79,605.06,236.84,605.06z"/>
</g>
<g>
	<path class="st0" d="M344.43,589.38v-8.95h-2.98v-1.63l7.95,0v1.63l-3,0v8.95H344.43z"/>
	<path class="st0" d="M353.38,589.38l-3.67-10.59h2.07c1.21,3.71,2,6.01,2.65,8.38c0.65-2.35,1.37-4.68,2.6-8.38h2.02l-3.66,10.59
		H353.38z"/>
	<path class="st0" d="M363.04,584.01c0-3.34,1.97-5.46,5.04-5.46c2.9,0,4.78,2.22,4.78,5.58c0,3.46-1.9,5.49-4.78,5.49
		C364.92,589.62,363.04,587.44,363.04,584.01z M367.99,580.25c-1.81,0-2.97,1.38-2.97,3.73c0,2.46,1.19,3.95,3.02,3.95
		c1.67,0,2.83-1.29,2.83-3.83C370.87,581.66,369.72,580.25,367.99,580.25z"/>
	<path class="st0" d="M375.28,586.08c0.63,1.26,1.62,1.88,2.79,1.88c1.29,0,2-0.51,2-1.33c0-0.75-0.47-1.05-2.04-1.6l-1.14-0.41
		c-1.8-0.64-2.62-1.47-2.62-3c0-1.81,1.64-3.06,3.79-3.06c1.81,0,3.21,0.76,4.05,2.16l-1.53,1.09c-0.71-1.2-1.62-1.63-2.7-1.63
		c-1.05,0-1.65,0.52-1.65,1.24c0,0.69,0.39,1.04,1.77,1.49l1.22,0.41c1.96,0.63,2.86,1.51,2.86,3.1c0,1.91-1.58,3.22-4.03,3.22
		c-1.92,0-3.47-0.9-4.33-2.43L375.28,586.08z"/>
</g>
<g>
	<path class="st0" d="M619.8,573.79v4.12c0.49-0.64,1.27-1.15,2.34-1.15c1.75,0,2.88,1.45,2.88,3.88c0,2.45-1.23,3.88-3.07,3.89
		c-1.02,0-1.71-0.39-2.22-1.12v0.97h-1.68v-10.59H619.8z M621.51,583.06c1.04,0,1.68-0.83,1.68-2.42c0-1.5-0.61-2.42-1.62-2.42
		c-1.06,0-1.81,0.9-1.81,2.33C619.75,582.15,620.4,583.06,621.51,583.06z"/>
	<path class="st0" d="M628.21,584.38h-1.77v-10.59h1.77V584.38z"/>
	<path class="st0" d="M631.74,576.91v4.26c0,0.45,0.06,0.88,0.2,1.17c0.2,0.41,0.55,0.63,1.12,0.63c0.49,0,0.93-0.25,1.2-0.58
		c0.32-0.41,0.46-0.9,0.46-1.6v-3.87h1.76v7.47h-1.72v-1.07c-0.51,0.72-1.28,1.2-2.33,1.2c-0.96,0-1.54-0.3-1.96-0.9
		c-0.33-0.46-0.46-1.12-0.46-1.99v-4.71H631.74z"/>
	<path class="st0" d="M644.82,582.5c-0.55,1.35-1.7,2.1-3.26,2.1c-2.4,0-3.69-1.56-3.69-4.04c0-2.38,1.44-3.87,3.62-3.87
		c2.37,0,3.36,1.72,3.38,4.39h-5.22c0.06,1.29,0.77,2.03,1.95,2.03c0.76,0,1.41-0.3,1.68-1.16L644.82,582.5z M643.08,579.83
		c-0.06-1.17-0.68-1.77-1.63-1.77c-0.96,0-1.67,0.6-1.79,1.77H643.08z"/>
	<path class="st0" d="M652.32,584.38c-0.5-2.04-0.96-3.75-1.33-5.55c-0.32,1.44-0.66,2.76-1.44,5.55l-1.98,0l-2.25-7.47h1.92
		c0.51,1.98,1.11,4.2,1.46,5.62c0.3-1.41,0.63-2.89,1.38-5.62h1.84c0.63,2.4,1.02,3.98,1.38,5.62c0.36-1.6,0.93-3.71,1.46-5.62h1.8
		l-2.26,7.47H652.32z"/>
	<path class="st0" d="M657.45,575.44v-1.65h1.79v1.65H657.45z M659.23,584.38h-1.77v-7.47h1.77V584.38z"/>
	<path class="st0" d="M665.8,584.38v-4.29c0-0.58-0.06-1.02-0.27-1.32c-0.2-0.29-0.53-0.42-1.01-0.42c-0.48,0-0.97,0.25-1.27,0.66
		c-0.38,0.49-0.43,1.05-0.43,1.77v3.6h-1.76v-7.47h1.74v1.11c0.54-0.76,1.43-1.25,2.47-1.25c0.9,0,1.49,0.32,1.86,0.88
		c0.3,0.45,0.42,1.04,0.42,2.04v4.68H665.8z"/>
	<path class="st0" d="M670.95,584.38h-1.75v-2.17h1.75V584.38z"/>
	<path class="st0" d="M677.32,579.49c-0.21-0.99-0.75-1.32-1.46-1.32c-1.02,0-1.8,0.76-1.8,2.43c0,1.65,0.69,2.52,1.84,2.52
		c0.79,0,1.28-0.42,1.46-1.22l1.58,0.54c-0.43,1.25-1.42,2.15-3.12,2.15c-2.17,0-3.55-1.5-3.55-3.96c0-2.45,1.41-3.93,3.64-3.93
		c1.62,0,2.64,0.92,2.99,2.25L677.32,579.49z"/>
	<path class="st0" d="M684.78,584.38v-4.29c0-0.64-0.06-1.07-0.31-1.37c-0.2-0.25-0.5-0.38-0.96-0.38c-0.48,0-0.97,0.25-1.27,0.66
		c-0.38,0.5-0.43,1.05-0.43,1.77v3.6h-1.76v-10.59h1.74v4.23c0.54-0.76,1.43-1.24,2.47-1.24c0.87,0,1.46,0.28,1.83,0.81
		c0.33,0.46,0.45,1.04,0.45,2.16v4.63H684.78z"/>
</g>
<g>
	<path class="st0" d="M968.06,584.38l-0.84-2.48l-4.18,0l-0.85,2.47h-2.05l4.02-10.59h2.12l3.87,10.59H968.06z M966.76,580.41
		c-0.6-1.72-1.11-3.17-1.6-4.71c-0.34,1.07-0.72,2.12-1.65,4.71H966.76z"/>
	<path class="st0" d="M975.88,584.38v-1.05c-0.48,0.7-1.18,1.2-2.24,1.2c-1.72,0-3-1.32-3-3.91c0-2.45,1.38-3.86,3.11-3.86
		c1.11,0,1.72,0.41,2.13,0.98v-3.95h1.71v10.59H975.88z M974.18,578.21c-1.04,0-1.74,0.79-1.74,2.38c0,1.5,0.63,2.46,1.66,2.46
		c1.04,0,1.77-0.81,1.77-2.4C975.88,579.16,975.23,578.21,974.18,578.21z"/>
	<path class="st0" d="M982.67,584.59c-2.34,0-3.66-1.47-3.66-3.96c0-2.47,1.46-3.93,3.76-3.93c2.22,0,3.55,1.48,3.55,4.02
		C986.33,583.21,984.86,584.59,982.67,584.59z M982.73,578.17c-1.11,0-1.92,0.85-1.92,2.42c0,1.69,0.78,2.54,1.88,2.54
		s1.87-0.77,1.87-2.45C984.56,579.01,983.84,578.17,982.73,578.17z"/>
	<path class="st0" d="M989.51,573.79v4.12c0.49-0.65,1.27-1.16,2.34-1.16c1.75,0,2.88,1.46,2.88,3.88c0,2.44-1.23,3.88-3.07,3.88
		c-1.02,0-1.71-0.39-2.22-1.12v0.98h-1.68v-10.59H989.51z M991.22,583.06c1.04,0,1.68-0.83,1.68-2.42c0-1.5-0.61-2.42-1.62-2.42
		c-1.06,0-1.81,0.9-1.81,2.33C989.47,582.14,990.11,583.06,991.22,583.06z"/>
	<path class="st0" d="M1002.7,582.5c-0.55,1.35-1.69,2.1-3.25,2.1c-2.4,0-3.69-1.56-3.69-4.04c0-2.38,1.44-3.87,3.62-3.87
		c2.37,0,3.36,1.73,3.37,4.4h-5.22c0.06,1.29,0.76,2.02,1.95,2.02c0.77,0,1.41-0.3,1.68-1.16L1002.7,582.5z M1000.96,579.83
		c-0.06-1.17-0.67-1.77-1.64-1.77c-0.96,0-1.66,0.6-1.78,1.77H1000.96z"/>
	<path class="st0" d="M963.43,602.38l0-8.95h-2.98v-1.63l7.95,0v1.63l-3,0l0,8.95H963.43z"/>
	<path class="st0" d="M972.2,597.31c0-0.42-0.09-0.71-0.29-0.9c-0.21-0.21-0.57-0.32-1.04-0.32c-0.91,0-1.32,0.46-1.41,1.29
		l-1.68-0.15c0.12-1.62,1.32-2.52,3.22-2.52c1.02,0,1.74,0.24,2.24,0.72c0.46,0.44,0.63,1.05,0.63,2.22v2.74
		c0,0.89,0.06,1.62,0.21,1.98h-1.7c-0.06-0.24-0.15-0.71-0.15-0.93c-0.57,0.69-1.38,1.07-2.44,1.07c-1.36,0-2.33-0.85-2.33-2.19
		c0-0.96,0.48-1.59,1.37-2c0.73-0.33,2.17-0.54,3.36-0.62V597.31z M972.2,598.88c-0.85,0.04-1.86,0.2-2.38,0.45
		c-0.46,0.21-0.64,0.5-0.64,0.92c0,0.54,0.36,0.94,1.14,0.94c0.67,0,1.23-0.28,1.56-0.78c0.24-0.35,0.32-0.77,0.33-1.19V598.88z"/>
	<path class="st0" d="M975.65,602.38l0-7.47h1.68v1.15c0.45-0.81,1.04-1.24,2.07-1.24c0.24,0,0.42,0.03,0.64,0.09l0,1.77
		c-0.29-0.15-0.51-0.21-0.84-0.21c-0.58,0-1.08,0.25-1.41,0.74c-0.26,0.38-0.39,0.9-0.39,1.69v3.48H975.65z"/>
	<path class="st0" d="M985.84,601.34c-0.52,0.64-1.24,0.96-2.21,0.96c-1.83,0-3-1.39-3-3.75c0-2.34,1.26-3.76,3.11-3.76
		c1.04,0,1.75,0.38,2.17,1.05v-0.92h1.74l0,6.96c0,1.54-0.36,2.52-1.16,3.08c-0.58,0.42-1.44,0.6-2.4,0.6
		c-1.81,0-2.97-0.79-3.3-2.34l1.84-0.33c0.13,0.83,0.69,1.25,1.5,1.25c0.72,0,1.17-0.21,1.42-0.63c0.21-0.32,0.27-0.83,0.27-1.46
		V601.34z M984.25,596.25c-1.11,0-1.8,0.84-1.8,2.29c0,1.53,0.67,2.4,1.74,2.4c1.02,0,1.68-0.72,1.69-2.23
		C985.88,597.17,985.33,596.25,984.25,596.25z"/>
	<path class="st0" d="M996.02,600.5c-0.55,1.35-1.7,2.1-3.26,2.1c-2.4,0-3.69-1.56-3.69-4.04c0-2.38,1.44-3.87,3.62-3.87
		c2.37,0,3.36,1.73,3.38,4.4h-5.22c0.06,1.29,0.77,2.02,1.95,2.02c0.76,0,1.41-0.3,1.68-1.16L996.02,600.5z M994.28,597.83
		c-0.06-1.17-0.68-1.77-1.63-1.77c-0.96,0-1.67,0.6-1.79,1.77H994.28z"/>
	<path class="st0" d="M1001.08,602.35c-0.39,0.1-0.87,0.16-1.3,0.16c-0.73,0-1.23-0.18-1.53-0.54c-0.32-0.36-0.42-0.89-0.42-1.58
		l0-4.08h-1.17v-1.41h1.2v-2.43h1.74v2.43h1.46v1.41h-1.46l0,3.74c0,0.76,0.22,1.03,0.76,1.03c0.21,0,0.48-0.04,0.72-0.13V602.35z"
		/>
</g>
<g>
	<path class="st0" d="M341.12,310.36v-10.59h1.9v8.94h4.99v1.65H341.12z"/>
	<path class="st0" d="M349.3,301.42v-1.65h1.79v1.65H349.3z M351.08,310.36h-1.77v-7.47h1.77V310.36z"/>
	<path class="st0" d="M354.73,310.36l-2.73-7.47h1.95c0.87,2.55,1.38,4.09,1.85,5.68c0.44-1.53,0.93-3.15,1.8-5.68h1.86l-2.68,7.47
		H354.73z"/>
	<path class="st0" d="M360.35,301.42v-1.65h1.79v1.65H360.35z M362.14,310.36h-1.77v-7.47h1.77V310.36z"/>
	<path class="st0" d="M368.71,310.36v-4.29c0-0.58-0.06-1.02-0.27-1.32c-0.19-0.28-0.52-0.42-1-0.42s-0.98,0.25-1.27,0.66
		c-0.38,0.49-0.44,1.05-0.44,1.77v3.6h-1.75v-7.47h1.74V304c0.54-0.76,1.43-1.24,2.48-1.24c0.9,0,1.48,0.31,1.86,0.88
		c0.3,0.45,0.42,1.04,0.42,2.04v4.68H368.71z"/>
	<path class="st0" d="M377,309.32c-0.52,0.65-1.25,0.96-2.21,0.96c-1.83,0-3-1.39-3-3.75c0-2.34,1.26-3.77,3.1-3.77
		c1.04,0,1.75,0.38,2.17,1.05v-0.92h1.74v6.96c0,1.54-0.36,2.52-1.16,3.08c-0.58,0.42-1.44,0.6-2.4,0.6c-1.81,0-2.97-0.79-3.3-2.34
		l1.85-0.33c0.13,0.83,0.69,1.25,1.5,1.25c0.72,0,1.17-0.21,1.42-0.63c0.21-0.31,0.27-0.83,0.27-1.46V309.32z M375.41,304.22
		c-1.11,0-1.8,0.84-1.8,2.29c0,1.53,0.68,2.4,1.74,2.4c1.02,0,1.68-0.72,1.69-2.23C377.05,305.15,376.49,304.22,375.41,304.22z"/>
	<path class="st0" d="M385.48,310.36v-1.05c-0.48,0.7-1.19,1.2-2.23,1.2c-1.72,0-3-1.32-3-3.91c0-2.45,1.38-3.85,3.1-3.85
		c1.11,0,1.73,0.4,2.13,0.98v-3.94h1.71v10.59H385.48z M383.78,304.19c-1.04,0-1.74,0.79-1.74,2.38c0,1.5,0.63,2.46,1.66,2.46
		c1.04,0,1.77-0.81,1.77-2.4C385.48,305.14,384.83,304.19,383.78,304.19z"/>
	<path class="st0" d="M392.27,310.57c-2.34,0-3.66-1.47-3.66-3.96c0-2.47,1.46-3.93,3.77-3.93c2.22,0,3.55,1.48,3.55,4.02
		C395.93,309.19,394.46,310.57,392.27,310.57z M392.33,304.15c-1.11,0-1.92,0.85-1.92,2.42c0,1.69,0.78,2.54,1.88,2.54
		c1.09,0,1.87-0.77,1.87-2.45C394.16,304.99,393.44,304.15,392.33,304.15z"/>
	<path class="st0" d="M402.01,305.47c-0.21-0.99-0.75-1.32-1.46-1.32c-1.02,0-1.8,0.77-1.8,2.43c0,1.65,0.69,2.52,1.84,2.52
		c0.79,0,1.27-0.42,1.46-1.22l1.57,0.54c-0.44,1.25-1.42,2.15-3.12,2.15c-2.17,0-3.56-1.5-3.56-3.96c0-2.44,1.41-3.93,3.65-3.93
		c1.62,0,2.64,0.92,2.98,2.25L402.01,305.47z"/>
	<path class="st0" d="M405.4,307.99c0.39,0.77,1.08,1.22,1.9,1.22c0.77,0,1.19-0.33,1.19-0.78c0-0.49-0.25-0.7-1.38-1.06l-0.79-0.25
		c-1.15-0.36-1.89-1.04-1.89-2.17c0-1.17,1.05-2.25,2.9-2.25c1.19,0,2.28,0.45,2.94,1.5l-1.3,0.88c-0.38-0.66-0.95-1.05-1.67-1.05
		c-0.75,0-1.11,0.3-1.11,0.73c0,0.45,0.24,0.66,1.2,0.96l0.79,0.24c1.32,0.42,2.07,1.03,2.07,2.23c0,1.38-1.15,2.38-3.01,2.38
		c-1.53,0-2.56-0.73-3.19-1.68L405.4,307.99z"/>
	<path class="st0" d="M341.12,328.36v-10.59h4.36c1.46,0,2.34,0.22,2.92,0.64c0.79,0.56,1.15,1.53,1.15,2.6
		c0,1.19-0.42,2.25-1.35,2.77c-0.78,0.44-1.88,0.58-3.15,0.58h-2.06v3.99H341.12z M344.92,322.75c1.03,0,1.71-0.1,2.13-0.39
		c0.39-0.28,0.54-0.73,0.54-1.33c0-0.54-0.18-0.99-0.54-1.28c-0.41-0.3-0.92-0.36-2.01-0.36h-2.02v3.36H344.92z"/>
	<path class="st0" d="M352,320.89v4.26c0,0.45,0.06,0.89,0.19,1.17c0.2,0.41,0.56,0.63,1.12,0.63c0.5,0,0.93-0.25,1.2-0.58
		c0.31-0.4,0.46-0.9,0.46-1.6v-3.87h1.75v7.47h-1.72v-1.06c-0.51,0.72-1.28,1.2-2.33,1.2c-0.96,0-1.54-0.3-1.96-0.9
		c-0.33-0.46-0.46-1.12-0.46-1.99v-4.71H352z"/>
	<path class="st0" d="M360.29,317.77v4.12c0.5-0.65,1.27-1.15,2.34-1.15c1.75,0,2.88,1.46,2.88,3.88c0,2.44-1.23,3.88-3.07,3.88
		c-1.02,0-1.71-0.39-2.22-1.12v0.98h-1.68v-10.59H360.29z M362,327.04c1.03,0,1.68-0.83,1.68-2.42c0-1.5-0.61-2.42-1.62-2.42
		c-1.06,0-1.81,0.9-1.81,2.33C360.25,326.12,360.89,327.04,362,327.04z"/>
	<path class="st0" d="M368.71,328.36h-1.77v-10.59h1.77V328.36z"/>
	<path class="st0" d="M370.52,319.42v-1.65h1.79v1.65H370.52z M372.31,328.36h-1.77v-7.47h1.77V328.36z"/>
	<path class="st0" d="M374.81,325.99c0.39,0.77,1.08,1.22,1.9,1.22c0.77,0,1.19-0.33,1.19-0.78c0-0.49-0.25-0.7-1.38-1.06
		l-0.79-0.25c-1.15-0.36-1.89-1.04-1.89-2.17c0-1.17,1.05-2.25,2.9-2.25c1.19,0,2.28,0.45,2.94,1.5l-1.3,0.88
		c-0.38-0.66-0.95-1.05-1.67-1.05c-0.75,0-1.11,0.3-1.11,0.73c0,0.45,0.24,0.66,1.2,0.96l0.79,0.24c1.32,0.42,2.07,1.03,2.07,2.23
		c0,1.38-1.15,2.38-3.01,2.38c-1.53,0-2.56-0.73-3.19-1.68L374.81,325.99z"/>
	<path class="st0" d="M385.7,328.36v-4.29c0-0.64-0.06-1.06-0.31-1.36c-0.19-0.25-0.5-0.38-0.96-0.38c-0.48,0-0.98,0.25-1.27,0.66
		c-0.38,0.49-0.44,1.05-0.44,1.77v3.6h-1.75v-10.59h1.74V322c0.54-0.76,1.43-1.24,2.48-1.24c0.87,0,1.46,0.28,1.83,0.81
		c0.33,0.47,0.45,1.04,0.45,2.16v4.63H385.7z"/>
	<path class="st0" d="M395.74,326.48c-0.55,1.35-1.69,2.1-3.25,2.1c-2.4,0-3.69-1.56-3.69-4.04c0-2.38,1.44-3.87,3.62-3.87
		c2.37,0,3.36,1.73,3.37,4.4h-5.22c0.06,1.29,0.77,2.02,1.95,2.02c0.76,0,1.41-0.3,1.68-1.16L395.74,326.48z M394,323.81
		c-0.06-1.17-0.68-1.77-1.64-1.77s-1.66,0.6-1.78,1.77H394z"/>
	<path class="st0" d="M397.15,328.36v-7.47h1.68v1.15c0.45-0.81,1.04-1.24,2.07-1.24c0.24,0,0.42,0.03,0.64,0.09v1.77
		c-0.28-0.15-0.51-0.21-0.84-0.21c-0.58,0-1.08,0.25-1.41,0.73c-0.26,0.38-0.39,0.9-0.39,1.69v3.48H397.15z"/>
</g>
<g>
	<path class="st0" d="M645.8,130.36v-4.29c0-0.64-0.06-1.06-0.32-1.36c-0.19-0.25-0.5-0.38-0.96-0.38c-0.48,0-0.97,0.25-1.28,0.66
		c-0.38,0.49-0.43,1.05-0.43,1.77v3.6h-1.75v-10.59h1.74V124c0.54-0.76,1.42-1.24,2.47-1.24c0.87,0,1.46,0.28,1.83,0.81
		c0.33,0.47,0.45,1.04,0.45,2.16v4.63H645.8z"/>
	<path class="st0" d="M650.99,122.89v4.26c0,0.45,0.06,0.89,0.2,1.17c0.2,0.41,0.55,0.63,1.12,0.63c0.49,0,0.93-0.25,1.2-0.58
		c0.32-0.4,0.46-0.9,0.46-1.6v-3.87h1.76v7.47h-1.72v-1.06c-0.51,0.72-1.28,1.2-2.33,1.2c-0.96,0-1.54-0.3-1.96-0.9
		c-0.33-0.46-0.46-1.12-0.46-1.99v-4.71H650.99z"/>
	<path class="st0" d="M664.93,130.36v-1.15c-0.74,0.94-1.75,1.36-3.1,1.36c-2.67,0-4.59-2.11-4.59-5.37c0-3.23,1.89-5.67,5.23-5.67
		c2.13,0,3.53,0.96,4.2,2.79l-1.89,0.72c-0.33-1.12-1.1-1.81-2.36-1.81c-1.99,0-3.2,1.48-3.2,3.85c0,2.49,1.28,3.82,3.09,3.82
		c1.7,0,2.51-1.03,2.57-2.76h-2.96v-1.62h4.73v5.83H664.93z"/>
	<path class="st0" d="M668.27,124.99c0-3.35,1.97-5.46,5.04-5.46c2.89,0,4.78,2.22,4.78,5.58c0,3.46-1.91,5.49-4.78,5.49
		C670.15,130.6,668.27,128.42,668.27,124.99z M673.22,121.22c-1.82,0-2.97,1.38-2.97,3.73c0,2.46,1.19,3.94,3.02,3.94
		c1.66,0,2.83-1.29,2.83-3.82C676.1,122.63,674.95,121.22,673.22,121.22z"/>
	<path class="st0" d="M683.48,129.92v-3.33h-3.3v-1.68h3.3v-3.36h1.75v3.36h3.3v1.68h-3.3v3.33H683.48z"/>
</g>
<g>
	<path class="st0" d="M938.12,109.36V98.77h1.9v8.94h4.99v1.65H938.12z"/>
	<path class="st0" d="M946.3,100.42v-1.65h1.79v1.65H946.3z M948.08,109.36h-1.77v-7.47h1.77V109.36z"/>
	<path class="st0" d="M951.73,109.36l-2.73-7.47h1.95c0.87,2.55,1.38,4.09,1.84,5.68c0.43-1.53,0.93-3.15,1.8-5.68h1.86l-2.68,7.47
		H951.73z"/>
	<path class="st0" d="M957.35,100.42v-1.65h1.79v1.65H957.35z M959.14,109.36h-1.77v-7.47h1.77V109.36z"/>
	<path class="st0" d="M965.71,109.36v-4.29c0-0.58-0.06-1.02-0.27-1.32c-0.19-0.28-0.52-0.42-1-0.42s-0.97,0.25-1.28,0.66
		c-0.38,0.49-0.43,1.05-0.43,1.77v3.6h-1.75v-7.47h1.74V103c0.54-0.76,1.42-1.24,2.47-1.24c0.9,0,1.48,0.31,1.86,0.88
		c0.3,0.45,0.42,1.04,0.42,2.04v4.68H965.71z"/>
	<path class="st0" d="M974,108.32c-0.53,0.65-1.25,0.96-2.21,0.96c-1.83,0-3-1.39-3-3.75c0-2.34,1.26-3.77,3.1-3.77
		c1.04,0,1.75,0.38,2.17,1.05v-0.92h1.74v6.96c0,1.54-0.36,2.52-1.16,3.08c-0.58,0.42-1.44,0.6-2.4,0.6c-1.82,0-2.97-0.79-3.3-2.34
		l1.85-0.33c0.13,0.83,0.69,1.25,1.5,1.25c0.72,0,1.17-0.21,1.42-0.63c0.21-0.31,0.27-0.83,0.27-1.46V108.32z M972.41,103.22
		c-1.11,0-1.8,0.84-1.8,2.29c0,1.53,0.68,2.4,1.74,2.4c1.02,0,1.68-0.72,1.7-2.23C974.05,104.15,973.49,103.22,972.41,103.22z"/>
	<path class="st0" d="M982.48,109.36v-1.05c-0.48,0.7-1.19,1.2-2.24,1.2c-1.72,0-3-1.32-3-3.91c0-2.45,1.38-3.85,3.1-3.85
		c1.11,0,1.73,0.4,2.13,0.98v-3.94h1.71v10.59H982.48z M980.78,103.19c-1.04,0-1.74,0.79-1.74,2.38c0,1.5,0.63,2.46,1.67,2.46
		c1.04,0,1.77-0.81,1.77-2.4C982.48,104.14,981.83,103.19,980.78,103.19z"/>
	<path class="st0" d="M989.27,109.57c-2.34,0-3.66-1.47-3.66-3.96c0-2.47,1.46-3.93,3.77-3.93c2.22,0,3.55,1.48,3.55,4.02
		C992.93,108.19,991.46,109.57,989.27,109.57z M989.33,103.15c-1.11,0-1.92,0.85-1.92,2.42c0,1.69,0.78,2.54,1.88,2.54
		c1.09,0,1.87-0.77,1.87-2.45C991.16,103.99,990.44,103.15,989.33,103.15z"/>
	<path class="st0" d="M999.01,104.47c-0.21-0.99-0.75-1.32-1.46-1.32c-1.02,0-1.8,0.77-1.8,2.43c0,1.65,0.69,2.52,1.84,2.52
		c0.79,0,1.28-0.42,1.46-1.22l1.58,0.54c-0.43,1.25-1.42,2.15-3.12,2.15c-2.17,0-3.55-1.5-3.55-3.96c0-2.44,1.41-3.93,3.64-3.93
		c1.62,0,2.64,0.92,2.99,2.25L999.01,104.47z"/>
	<path class="st0" d="M1002.4,106.99c0.39,0.77,1.08,1.22,1.9,1.22c0.77,0,1.19-0.33,1.19-0.78c0-0.49-0.26-0.7-1.38-1.06
		l-0.79-0.25c-1.15-0.36-1.89-1.04-1.89-2.17c0-1.17,1.05-2.25,2.9-2.25c1.18,0,2.28,0.45,2.94,1.5l-1.3,0.88
		c-0.38-0.66-0.95-1.05-1.67-1.05c-0.75,0-1.11,0.3-1.11,0.73c0,0.45,0.24,0.66,1.2,0.96l0.79,0.24c1.32,0.42,2.07,1.03,2.07,2.23
		c0,1.38-1.15,2.38-3.01,2.38c-1.53,0-2.57-0.73-3.2-1.68L1002.4,106.99z"/>
	<path class="st0" d="M940.07,127.36h-1.95v-10.59h1.95V127.36z"/>
	<path class="st0" d="M943.72,119.89V121c0.56-0.78,1.43-1.24,2.4-1.24c1.06,0,1.72,0.45,2.03,1.32c0.63-0.84,1.53-1.31,2.58-1.31
		c0.93,0,1.65,0.39,1.95,1.23c0.17,0.47,0.24,0.96,0.24,2.04v4.32h-1.75v-4.05c0-0.84-0.06-1.23-0.2-1.5
		c-0.17-0.31-0.48-0.48-0.94-0.48s-0.92,0.24-1.17,0.56c-0.39,0.46-0.53,1-0.53,1.9v3.57h-1.75v-4.09c0-0.79-0.03-1.11-0.17-1.41
		c-0.17-0.36-0.51-0.52-0.99-0.52c-0.49,0-0.96,0.25-1.26,0.67c-0.3,0.42-0.42,0.85-0.42,1.77v3.58h-1.75v-7.47H943.72z"/>
	<path class="st0" d="M956.39,119.89v1.06c0.48-0.71,1.21-1.21,2.26-1.21c1.71,0,2.96,1.3,2.96,3.9c0,2.44-1.38,3.85-3.09,3.85
		c-1.11,0-1.74-0.39-2.13-0.97v3.81h-1.72v-10.44H956.39z M958.09,126.04c1.03,0,1.72-0.79,1.72-2.39c0-1.5-0.62-2.46-1.65-2.46
		s-1.79,0.82-1.79,2.41C956.38,125.11,957.04,126.04,958.09,126.04z"/>
	<path class="st0" d="M966.29,127.57c-2.34,0-3.66-1.47-3.66-3.96c0-2.47,1.46-3.93,3.76-3.93c2.22,0,3.55,1.48,3.55,4.02
		C969.95,126.19,968.48,127.57,966.29,127.57z M966.35,121.15c-1.11,0-1.92,0.85-1.92,2.42c0,1.69,0.78,2.54,1.88,2.54
		s1.87-0.77,1.87-2.45C968.18,121.99,967.46,121.15,966.35,121.15z"/>
	<path class="st0" d="M971.38,127.36v-7.47h1.68v1.15c0.45-0.81,1.04-1.24,2.07-1.24c0.24,0,0.42,0.03,0.64,0.09v1.77
		c-0.28-0.15-0.51-0.21-0.84-0.21c-0.58,0-1.08,0.25-1.41,0.73c-0.25,0.38-0.39,0.9-0.39,1.69v3.48H971.38z"/>
	<path class="st0" d="M980.57,127.33c-0.39,0.1-0.87,0.16-1.3,0.16c-0.74,0-1.23-0.18-1.53-0.54c-0.31-0.36-0.42-0.89-0.42-1.58
		v-4.08h-1.17v-1.41h1.2v-2.43h1.74v2.43h1.46v1.41h-1.46v3.73c0,0.76,0.23,1.03,0.77,1.03c0.21,0,0.48-0.04,0.72-0.13V127.33z"/>
	<path class="st0" d="M988.18,125.48c-0.55,1.35-1.69,2.1-3.25,2.1c-2.4,0-3.69-1.56-3.69-4.04c0-2.38,1.44-3.87,3.62-3.87
		c2.37,0,3.36,1.73,3.37,4.4H983c0.06,1.29,0.76,2.02,1.95,2.02c0.77,0,1.41-0.3,1.68-1.16L988.18,125.48z M986.44,122.81
		c-0.06-1.17-0.67-1.77-1.63-1.77s-1.67,0.6-1.79,1.77H986.44z"/>
	<path class="st0" d="M989.59,127.36v-7.47h1.68v1.15c0.45-0.81,1.04-1.24,2.07-1.24c0.24,0,0.42,0.03,0.64,0.09v1.77
		c-0.28-0.15-0.51-0.21-0.84-0.21c-0.58,0-1.08,0.25-1.41,0.73c-0.26,0.38-0.39,0.9-0.39,1.69v3.48H989.59z"/>
</g>
<g>
	<path class="st0" d="M641.12,310.36v-10.59h1.9v8.94h4.99v1.65H641.12z"/>
	<path class="st0" d="M649.3,301.42v-1.65h1.79v1.65H649.3z M651.08,310.36h-1.77v-7.47h1.77V310.36z"/>
	<path class="st0" d="M654.73,310.36l-2.73-7.47h1.95c0.87,2.55,1.38,4.09,1.84,5.68c0.43-1.53,0.93-3.15,1.8-5.68h1.86l-2.68,7.47
		H654.73z"/>
	<path class="st0" d="M660.35,301.42v-1.65h1.79v1.65H660.35z M662.14,310.36h-1.77v-7.47h1.77V310.36z"/>
	<path class="st0" d="M668.71,310.36v-4.29c0-0.58-0.06-1.02-0.27-1.32c-0.19-0.28-0.52-0.42-1-0.42s-0.97,0.25-1.28,0.66
		c-0.38,0.49-0.43,1.05-0.43,1.77v3.6h-1.75v-7.47h1.74V304c0.54-0.76,1.42-1.24,2.47-1.24c0.9,0,1.48,0.31,1.86,0.88
		c0.3,0.45,0.42,1.04,0.42,2.04v4.68H668.71z"/>
	<path class="st0" d="M677,309.32c-0.53,0.65-1.25,0.96-2.21,0.96c-1.83,0-3-1.39-3-3.75c0-2.34,1.26-3.77,3.1-3.77
		c1.04,0,1.75,0.38,2.17,1.05v-0.92h1.74v6.96c0,1.54-0.36,2.52-1.16,3.08c-0.58,0.42-1.44,0.6-2.4,0.6c-1.82,0-2.97-0.79-3.3-2.34
		l1.85-0.33c0.13,0.83,0.69,1.25,1.5,1.25c0.72,0,1.17-0.21,1.42-0.63c0.21-0.31,0.27-0.83,0.27-1.46V309.32z M675.41,304.22
		c-1.11,0-1.8,0.84-1.8,2.29c0,1.53,0.68,2.4,1.74,2.4c1.02,0,1.68-0.72,1.7-2.23C677.05,305.15,676.49,304.22,675.41,304.22z"/>
	<path class="st0" d="M685.48,310.36v-1.05c-0.48,0.7-1.19,1.2-2.24,1.2c-1.72,0-3-1.32-3-3.91c0-2.45,1.38-3.85,3.1-3.85
		c1.11,0,1.73,0.4,2.13,0.98v-3.94h1.71v10.59H685.48z M683.78,304.19c-1.04,0-1.74,0.79-1.74,2.38c0,1.5,0.63,2.46,1.67,2.46
		c1.04,0,1.77-0.81,1.77-2.4C685.48,305.14,684.83,304.19,683.78,304.19z"/>
	<path class="st0" d="M692.27,310.57c-2.34,0-3.66-1.47-3.66-3.96c0-2.47,1.46-3.93,3.77-3.93c2.22,0,3.55,1.48,3.55,4.02
		C695.93,309.19,694.46,310.57,692.27,310.57z M692.33,304.15c-1.11,0-1.92,0.85-1.92,2.42c0,1.69,0.78,2.54,1.88,2.54
		c1.09,0,1.87-0.77,1.87-2.45C694.16,304.99,693.44,304.15,692.33,304.15z"/>
	<path class="st0" d="M702.01,305.47c-0.21-0.99-0.75-1.32-1.46-1.32c-1.02,0-1.8,0.77-1.8,2.43c0,1.65,0.69,2.52,1.84,2.52
		c0.79,0,1.28-0.42,1.46-1.22l1.58,0.54c-0.43,1.25-1.42,2.15-3.12,2.15c-2.17,0-3.55-1.5-3.55-3.96c0-2.44,1.41-3.93,3.64-3.93
		c1.62,0,2.64,0.92,2.99,2.25L702.01,305.47z"/>
	<path class="st0" d="M705.4,307.99c0.39,0.77,1.08,1.22,1.9,1.22c0.77,0,1.19-0.33,1.19-0.78c0-0.49-0.26-0.7-1.38-1.06l-0.79-0.25
		c-1.15-0.36-1.89-1.04-1.89-2.17c0-1.17,1.05-2.25,2.9-2.25c1.18,0,2.28,0.45,2.94,1.5l-1.3,0.88c-0.38-0.66-0.95-1.05-1.67-1.05
		c-0.75,0-1.11,0.3-1.11,0.73c0,0.45,0.24,0.66,1.2,0.96l0.79,0.24c1.32,0.42,2.07,1.03,2.07,2.23c0,1.38-1.15,2.38-3.01,2.38
		c-1.53,0-2.57-0.73-3.2-1.68L705.4,307.99z"/>
	<path class="st0" d="M641.95,325.06c0.63,1.26,1.62,1.88,2.79,1.88c1.29,0,2-0.51,2-1.33c0-0.75-0.46-1.05-2.04-1.6l-1.14-0.41
		c-1.8-0.64-2.62-1.47-2.62-3c0-1.81,1.63-3.06,3.79-3.06c1.81,0,3.21,0.77,4.05,2.16l-1.53,1.09c-0.71-1.2-1.62-1.63-2.7-1.63
		c-1.05,0-1.65,0.52-1.65,1.24c0,0.69,0.39,1.04,1.77,1.49l1.21,0.4c1.96,0.63,2.87,1.52,2.87,3.1c0,1.9-1.58,3.22-4.04,3.22
		c-1.92,0-3.46-0.9-4.33-2.43L641.95,325.06z"/>
	<path class="st0" d="M656.74,326.48c-0.55,1.35-1.69,2.1-3.25,2.1c-2.4,0-3.69-1.56-3.69-4.04c0-2.38,1.44-3.87,3.62-3.87
		c2.37,0,3.36,1.73,3.37,4.4h-5.22c0.06,1.29,0.76,2.02,1.95,2.02c0.77,0,1.41-0.3,1.68-1.16L656.74,326.48z M655,323.81
		c-0.06-1.17-0.67-1.77-1.63-1.77s-1.67,0.6-1.79,1.77H655z"/>
	<path class="st0" d="M658.15,328.36v-7.47h1.68v1.15c0.45-0.81,1.04-1.24,2.07-1.24c0.24,0,0.42,0.03,0.64,0.09v1.77
		c-0.28-0.15-0.51-0.21-0.84-0.21c-0.58,0-1.08,0.25-1.41,0.73c-0.26,0.38-0.39,0.9-0.39,1.69v3.48H658.15z"/>
	<path class="st0" d="M665.51,328.36l-2.73-7.47h1.95c0.87,2.55,1.38,4.09,1.84,5.68c0.43-1.53,0.93-3.15,1.8-5.68h1.86l-2.68,7.47
		H665.51z"/>
	<path class="st0" d="M677.53,326.48c-0.55,1.35-1.7,2.1-3.26,2.1c-2.4,0-3.69-1.56-3.69-4.04c0-2.38,1.44-3.87,3.62-3.87
		c2.37,0,3.36,1.73,3.38,4.4h-5.22c0.06,1.29,0.77,2.02,1.95,2.02c0.76,0,1.41-0.3,1.68-1.16L677.53,326.48z M675.79,323.81
		c-0.06-1.17-0.67-1.77-1.63-1.77s-1.67,0.6-1.79,1.77H675.79z"/>
	<path class="st0" d="M678.94,328.36v-7.47h1.68v1.15c0.45-0.81,1.04-1.24,2.07-1.24c0.24,0,0.42,0.03,0.64,0.09v1.77
		c-0.29-0.15-0.51-0.21-0.84-0.21c-0.58,0-1.08,0.25-1.41,0.73c-0.25,0.38-0.39,0.9-0.39,1.69v3.48H678.94z"/>
</g>
<g>
	<path class="st0" d="M938.12,310.36v-10.59h1.9v8.94h4.99v1.65H938.12z"/>
	<path class="st0" d="M946.3,301.42v-1.65h1.79v1.65H946.3z M948.08,310.36h-1.77v-7.47h1.77V310.36z"/>
	<path class="st0" d="M951.73,310.36l-2.73-7.47h1.95c0.87,2.55,1.38,4.09,1.84,5.68c0.43-1.53,0.93-3.15,1.8-5.68h1.86l-2.68,7.47
		H951.73z"/>
	<path class="st0" d="M957.35,301.42v-1.65h1.79v1.65H957.35z M959.14,310.36h-1.77v-7.47h1.77V310.36z"/>
	<path class="st0" d="M965.71,310.36v-4.29c0-0.58-0.06-1.02-0.27-1.32c-0.19-0.28-0.52-0.42-1-0.42s-0.97,0.25-1.28,0.66
		c-0.38,0.49-0.43,1.05-0.43,1.77v3.6h-1.75v-7.47h1.74V304c0.54-0.76,1.42-1.24,2.47-1.24c0.9,0,1.48,0.31,1.86,0.88
		c0.3,0.45,0.42,1.04,0.42,2.04v4.68H965.71z"/>
	<path class="st0" d="M974,309.32c-0.53,0.65-1.25,0.96-2.21,0.96c-1.83,0-3-1.39-3-3.75c0-2.34,1.26-3.77,3.1-3.77
		c1.04,0,1.75,0.38,2.17,1.05v-0.92h1.74v6.96c0,1.54-0.36,2.52-1.16,3.08c-0.58,0.42-1.44,0.6-2.4,0.6c-1.82,0-2.97-0.79-3.3-2.34
		l1.85-0.33c0.13,0.83,0.69,1.25,1.5,1.25c0.72,0,1.17-0.21,1.42-0.63c0.21-0.31,0.27-0.83,0.27-1.46V309.32z M972.41,304.22
		c-1.11,0-1.8,0.84-1.8,2.29c0,1.53,0.68,2.4,1.74,2.4c1.02,0,1.68-0.72,1.7-2.23C974.05,305.15,973.49,304.22,972.41,304.22z"/>
	<path class="st0" d="M982.48,310.36v-1.05c-0.48,0.7-1.19,1.2-2.24,1.2c-1.72,0-3-1.32-3-3.91c0-2.45,1.38-3.85,3.1-3.85
		c1.11,0,1.73,0.4,2.13,0.98v-3.94h1.71v10.59H982.48z M980.78,304.19c-1.04,0-1.74,0.79-1.74,2.38c0,1.5,0.63,2.46,1.67,2.46
		c1.04,0,1.77-0.81,1.77-2.4C982.48,305.14,981.83,304.19,980.78,304.19z"/>
	<path class="st0" d="M989.27,310.57c-2.34,0-3.66-1.47-3.66-3.96c0-2.47,1.46-3.93,3.77-3.93c2.22,0,3.55,1.48,3.55,4.02
		C992.93,309.19,991.46,310.57,989.27,310.57z M989.33,304.15c-1.11,0-1.92,0.85-1.92,2.42c0,1.69,0.78,2.54,1.88,2.54
		c1.09,0,1.87-0.77,1.87-2.45C991.16,304.99,990.44,304.15,989.33,304.15z"/>
	<path class="st0" d="M999.01,305.47c-0.21-0.99-0.75-1.32-1.46-1.32c-1.02,0-1.8,0.77-1.8,2.43c0,1.65,0.69,2.52,1.84,2.52
		c0.79,0,1.28-0.42,1.46-1.22l1.58,0.54c-0.43,1.25-1.42,2.15-3.12,2.15c-2.17,0-3.55-1.5-3.55-3.96c0-2.44,1.41-3.93,3.64-3.93
		c1.62,0,2.64,0.92,2.99,2.25L999.01,305.47z"/>
	<path class="st0" d="M1002.4,307.99c0.39,0.77,1.08,1.22,1.9,1.22c0.77,0,1.19-0.33,1.19-0.78c0-0.49-0.26-0.7-1.38-1.06
		l-0.79-0.25c-1.15-0.36-1.89-1.04-1.89-2.17c0-1.17,1.05-2.25,2.9-2.25c1.18,0,2.28,0.45,2.94,1.5l-1.3,0.88
		c-0.38-0.66-0.95-1.05-1.67-1.05c-0.75,0-1.11,0.3-1.11,0.73c0,0.45,0.24,0.66,1.2,0.96l0.79,0.24c1.32,0.42,2.07,1.03,2.07,2.23
		c0,1.38-1.15,2.38-3.01,2.38c-1.53,0-2.57-0.73-3.2-1.68L1002.4,307.99z"/>
	<path class="st0" d="M938.12,328.36v-10.59h7.36v1.63h-5.44v2.7h5.02v1.64h-5.02v2.97h5.74v1.65H938.12z"/>
	<path class="st0" d="M951.7,328.36v-1.05c-0.48,0.7-1.18,1.2-2.23,1.2c-1.72,0-3-1.32-3-3.91c0-2.45,1.38-3.85,3.1-3.85
		c1.11,0,1.73,0.4,2.13,0.98v-3.94h1.71v10.59H951.7z M950,322.19c-1.04,0-1.74,0.79-1.74,2.38c0,1.5,0.63,2.46,1.67,2.46
		s1.77-0.81,1.77-2.4C951.7,323.14,951.05,322.19,950,322.19z"/>
	<path class="st0" d="M955.22,319.42v-1.65h1.79v1.65H955.22z M957.01,328.36h-1.77v-7.47h1.77V328.36z"/>
	<path class="st0" d="M962.48,328.33c-0.39,0.1-0.87,0.16-1.3,0.16c-0.74,0-1.23-0.18-1.53-0.54c-0.32-0.36-0.42-0.89-0.42-1.58
		v-4.08h-1.17v-1.41h1.2v-2.43H961v2.43h1.46v1.41H961v3.73c0,0.76,0.23,1.03,0.76,1.03c0.21,0,0.48-0.04,0.72-0.13V328.33z"/>
	<path class="st0" d="M966.8,328.57c-2.34,0-3.66-1.47-3.66-3.96c0-2.47,1.46-3.93,3.76-3.93c2.22,0,3.55,1.48,3.55,4.02
		C970.46,327.19,968.99,328.57,966.8,328.57z M966.86,322.15c-1.11,0-1.92,0.85-1.92,2.42c0,1.69,0.78,2.54,1.88,2.54
		s1.87-0.77,1.87-2.45C968.69,322.99,967.97,322.15,966.86,322.15z"/>
	<path class="st0" d="M971.89,328.36v-7.47h1.68v1.15c0.45-0.81,1.04-1.24,2.07-1.24c0.24,0,0.42,0.03,0.64,0.09v1.77
		c-0.28-0.15-0.51-0.21-0.84-0.21c-0.58,0-1.08,0.25-1.41,0.73c-0.25,0.38-0.39,0.9-0.39,1.69v3.48H971.89z"/>
</g>
</svg>
