<?xml version="1.0" encoding="utf-8"?>
<!-- Generator: Adobe Illustrator 22.1.0, SVG Export Plug-In . SVG Version: 6.00 Build 0)  -->
<svg version="1.1" id="Ebene_1" xmlns="http://www.w3.org/2000/svg" xmlns:xlink="http://www.w3.org/1999/xlink" x="0px" y="0px"
	 viewBox="0 0 100 100" style="enable-background:new 0 0 100 100;" xml:space="preserve">
<style type="text/css">
	.st0{fill:#636ff7;}
	.st1{fill:#FFFFFF;}
</style>
<circle class="st0" cx="50" cy="50" r="50"/>
<g id="swisscom_1_">
	<g>
		<path class="st1" d="M86,72.6c-0.8,0-1.5,0-2.4,0c0-0.1,0-0.2,0-0.4c0-1.8,0-3.5,0-5.3c0-0.1,0-0.3,0-0.4c-0.1-1-0.8-1.5-1.8-1.1
			c-0.6,0.2-1,0.7-1.2,1.3c-0.1,0.3-0.1,0.6-0.1,0.9c0,1.5,0,3.1,0,4.6c0,0.1,0,0.2,0,0.3c-0.8,0-1.5,0-2.3,0c0-0.1,0-0.2,0-0.4
			c0-1.8,0-3.5,0-5.3c0-0.1,0-0.2,0-0.2c0-0.7-0.3-1.2-0.8-1.4c-0.6-0.2-1.3,0-1.7,0.5c-0.4,0.5-0.6,1.1-0.6,1.8c0,1.5,0,3.1,0,4.6
			c0,0.1,0,0.2,0,0.4c-0.8,0-1.5,0-2.2,0c-0.1,0-0.1-0.1-0.2-0.2c0,0,0-0.1,0-0.1c0-2.9,0-5.7,0-8.6c0-0.1,0-0.1,0-0.2
			c1.2-0.3,2.1,0.2,2.2,1.3c0.7-1,1.6-1.6,2.8-1.6c1.2,0,2.1,0.4,2.6,1.7c0-0.1,0.1-0.1,0.1-0.2c1-1.7,3.2-1.8,4.3-1.2
			c0.9,0.4,1.2,1.2,1.3,2.1c0,0.2,0,0.3,0.1,0.5C86,68.4,86,70.5,86,72.6z"/>
		<path class="st1" d="M66.5,72.9c-0.3-0.1-0.6-0.1-0.9-0.2c-1.7-0.4-2.8-1.6-3-3.4c-0.1-1-0.1-2,0.3-3c0.7-1.9,2.4-3,4.4-2.9
			c0.5,0,1,0.1,1.4,0.2c1.1,0.3,1.9,1,2.3,2c0.6,1.7,0.6,3.4-0.2,5c-0.7,1.3-1.8,2-3.3,2.2c-0.1,0-0.2,0-0.3,0.1
			C67,72.9,66.8,72.9,66.5,72.9z M69,67.6c0-0.2-0.1-0.6-0.2-1c-0.2-0.6-0.6-1-1.2-1.2c-1.1-0.3-2,0.2-2.4,1.3
			c-0.3,0.9-0.3,1.8,0,2.7c0.2,0.9,0.8,1.3,1.7,1.4c0.8,0.1,1.5-0.4,1.8-1.1C68.9,69.1,69,68.5,69,67.6z"/>
		<path class="st1" d="M42.2,72.9c-0.6-0.1-1.1-0.2-1.7-0.3c-0.3,0-0.3-0.2-0.3-0.4c0.1-0.5,0.1-1,0.2-1.6c0.5,0.1,1,0.3,1.5,0.3
			c0.5,0.1,1,0.1,1.5,0c0.5,0,0.8-0.3,0.8-0.7c0.1-0.4-0.1-0.8-0.6-1c-0.4-0.2-0.9-0.3-1.3-0.5c-0.2-0.1-0.3-0.1-0.5-0.2
			c-1-0.4-1.6-1.1-1.6-2.2c0-1.2,0.5-2.1,1.6-2.6c1-0.4,2-0.4,3.1-0.3c0.5,0.1,1,0.2,1.5,0.3c-0.1,0.6-0.3,1.2-0.4,1.7
			c-0.2-0.1-0.4-0.1-0.6-0.2c-0.6-0.2-1.2-0.3-1.8-0.2c-0.5,0.1-0.8,0.3-0.8,0.7c-0.1,0.4,0.1,0.7,0.6,0.9c0.4,0.2,0.7,0.3,1.1,0.4
			c0.2,0.1,0.4,0.1,0.6,0.2c1.2,0.5,1.8,1.2,1.8,2.4c0,1.4-0.6,2.3-1.7,2.8c-0.5,0.2-1,0.3-1.5,0.4C43,72.9,42.6,72.9,42.2,72.9z"/>
		<path class="st1" d="M14.6,66.2c0-0.3,0.1-0.6,0.1-0.8c0.3-0.9,1-1.5,1.9-1.8c1.3-0.4,2.6-0.3,3.9,0.1c0.1,0,0.2,0.2,0.1,0.2
			c-0.1,0.5-0.2,1-0.4,1.5c-0.5-0.1-1.1-0.2-1.6-0.3c-0.3,0-0.7,0-1,0.1c-0.3,0.1-0.6,0.3-0.6,0.6c0,0.3,0.1,0.6,0.4,0.8
			c0.3,0.2,0.6,0.3,0.9,0.4c0.3,0.1,0.7,0.2,1.1,0.4c1,0.4,1.6,1.1,1.6,2.1c0.1,1.2-0.3,2.2-1.4,2.8c-0.5,0.2-1,0.3-1.5,0.5
			c-0.1,0-0.2,0-0.3,0.1c-0.4,0-0.9,0-1.3,0c-0.5-0.1-1-0.2-1.5-0.3c-0.5-0.1-0.5-0.1-0.5-0.6c0-0.1,0-0.3,0-0.4
			c0-0.3,0.1-0.7,0.1-1c0.5,0.1,1,0.2,1.6,0.3c0.6,0.1,1.2,0.2,1.7-0.1c0.3-0.1,0.5-0.3,0.6-0.7c0-0.4-0.1-0.6-0.4-0.8
			c-0.2-0.1-0.4-0.2-0.7-0.3c-0.5-0.2-1-0.3-1.4-0.5c-0.8-0.3-1.4-0.8-1.5-1.7C14.6,66.7,14.6,66.5,14.6,66.2
			C14.6,66.2,14.6,66.2,14.6,66.2z"/>
		<path class="st1" d="M49.6,72.9c-0.5-0.1-1.1-0.2-1.6-0.3c-0.1,0-0.2-0.1-0.3-0.1c0.1-0.6,0.1-1.3,0.2-1.9c0.7,0.1,1.3,0.3,2,0.4
			c0.4,0,0.8,0,1.2-0.1c0.4-0.1,0.6-0.3,0.7-0.7c0-0.4-0.1-0.7-0.5-0.9c-0.4-0.2-0.9-0.3-1.3-0.5c-0.3-0.1-0.5-0.2-0.8-0.3
			c-0.8-0.3-1.3-0.9-1.5-1.8c-0.1-1,0.1-1.9,1-2.6c0.5-0.4,1-0.5,1.6-0.6c1.2-0.2,2.3,0,3.4,0.3c-0.1,0.6-0.3,1.1-0.4,1.7
			c-0.5-0.1-1.1-0.2-1.6-0.3c-0.4,0-0.7,0-1.1,0.1c-0.3,0.1-0.5,0.3-0.5,0.6c-0.1,0.3,0,0.6,0.3,0.8c0.3,0.2,0.7,0.3,1,0.5
			c0.4,0.1,0.7,0.2,1.1,0.4c1.4,0.6,1.8,1.6,1.6,2.9c-0.2,1.3-1.1,2.1-2.5,2.4c-0.2,0-0.4,0.1-0.6,0.1C50.4,72.9,50,72.9,49.6,72.9z
			"/>
		<path class="st1" d="M47.5,20.1c0.3,0.1,0.1,0.4,0.2,0.6c-0.8,0-1.6,0-2.4,0c0.6-0.4,1.2-0.4,1.8-0.6
			C47.2,20.1,47.4,20.1,47.5,20.1z"/>
		<path class="st1" d="M58.2,36.7c-0.2,0-0.3,0-0.5,0c-0.1,0-0.2,0-0.2,0c-0.1,0.3-0.4,0.2-0.6,0.2c-3,0-5.9,0-8.9,0
			c-0.1,0-0.2,0-0.4,0c0-0.3,0-0.6,0-1c3.2,0,6.4,0,9.6,0c0,0,0,0,0-0.1c-0.4-0.3-0.7-0.6-1.1-0.9c-0.1-0.1-0.2,0-0.3,0
			c-2.6,0-5.2,0-7.8,0c-0.1,0-0.3,0-0.4,0c0-0.3,0-0.6,0-1c2.4,0,4.8,0,7.2,0c0,0,0,0,0-0.1c-0.4-0.3-0.7-0.6-1.1-0.9
			c-0.1-0.1-0.2-0.1-0.3-0.1c-1.8,0-3.6,0-5.4,0c-0.1,0-0.2,0-0.4,0c0-0.3,0-0.6,0-1c1.6,0,3.2,0,4.8,0c0,0,0,0,0-0.1
			c-0.4-0.3-0.7-0.6-1.1-0.9c-0.1-0.1-0.2-0.1-0.3-0.1c-1,0-2,0-3,0c-0.1,0-0.2,0-0.4,0c0-0.3,0-0.6,0-1c0.8,0,1.5,0,2.4,0
			c-0.4-0.4-0.8-0.7-1.1-1c0,0-0.1-0.1-0.2-0.1c-0.4,0-0.8,0-1.3,0c0.1,0.2,0.1,0.4,0.1,0.6c0,0,0,0.1-0.1,0.1
			c-0.9,0.1-1.5,0.7-1.8,1.5c-0.2,0.5-0.4,1-0.6,1.5c-0.3,0.7-0.8,1.1-1.4,1.4c-0.5,0.2-1,0.4-1.5,0.6c-1.5,0.7-1.9,2.2-0.9,3.5
			c0.3,0.4,0.8,0.8,1.2,1.1c0.3,0.3,0.7,0.5,1,0.7c1.1,0.7,1.6,1.7,1.9,2.9c0.1,0.6,0.2,1.2,0.4,1.8c0.3,0.9,0.8,1.4,1.8,1.7
			c0-0.1,0-0.3,0-0.4c0.1,0,0.2,0,0.3,0c1.6,0,3.2,0,4.8,0c0.1,0,0.3-0.1,0.3,0.2c3.2,0,6.4,0,9.6,0c0,0.2,0,0.3-0.1,0.5
			c0,0.1-0.1,0.1-0.2,0.1c-0.1,0-0.2,0-0.2,0c-3.1,0-6.2,0-9.2,0c-0.1,0-0.3,0.1-0.4,0.1c-0.1,0-0.2,0-0.3,0c-1.4,0-2.7,0-4.1,0
			c-0.1,0-0.2,0-0.4,0c0,0.3,0,0.7,0,1c1.3,0,2.6,0,3.9,0c0,0.1,0,0.1,0,0.2c3.5,0,6.9,0,10.4,0c-0.1,0.6-0.1,0.6-0.7,0.6
			c-3.3,0-6.6,0-9.9,0c-0.2,0-0.3,0.1-0.5,0.1c-0.1,0-0.2,0-0.3,0c-0.9,0-1.8,0-2.7,0c-0.1,0-0.2,0-0.3,0c0,0.3,0,0.7,0,1
			c0.8,0,1.6,0,2.3,0c0.1,0.1,0.1,0.2,0.2,0.2c0.1,0,0.2,0,0.2,0c3.4,0,6.7,0,10.1,0c0.1,0,0.2,0,0.4,0c-0.2,0.4-0.4,0.6-0.8,0.6
			c-3.4,0-6.8,0-10.2,0c-0.2,0-0.3,0.1-0.5,0.1c-0.1,0-0.2,0-0.3,0c-0.5,0-1,0-1.5,0c0,0.3,0,0.7,0,1c0.2,0,0.5,0,0.7,0
			c0,0,0,0,0,0.1c0.1,0.1,0.1,0.1,0.2,0.2c0.1,0,0.1,0,0.2,0c3.3,0,6.6,0,9.9,0c0.1,0,0.2,0,0.3,0c-0.3,0.3-0.5,0.6-1,0.6
			c-3.2,0-6.4,0-9.6,0c-0.7,0-0.7,0-0.8,0.8c-0.2-0.2-0.4-0.3-0.5-0.5c-0.2-0.4-0.5-0.6-0.9-0.7c-0.1,0-0.1-0.1-0.2-0.2
			c0.2,0,0.3,0,0.5,0c-0.2-0.5-0.3-0.9-0.5-1.3c0-0.1-0.2-0.1-0.3-0.1c-0.5,0-1,0-1.5,0c-0.5,0-0.8-0.2-1.2-0.6c0.9,0,1.8,0,2.7,0
			c-0.1-0.5-0.3-0.9-0.4-1.4c-0.4,0-0.8,0-1.2,0c-0.6,0-1.3,0-1.9,0c-0.5,0-0.6,0-0.8-0.6c1.3,0,2.5,0,3.8,0
			c-0.1-0.5-0.2-0.9-0.4-1.3c0-0.1-0.2-0.1-0.3-0.1c-1.1,0-2.2,0-3.3,0c-0.5,0-0.5,0-0.6-0.6c1.3,0,2.6,0,4,0
			c-0.2-0.5-0.4-0.9-0.6-1.3c0-0.1-0.2-0.1-0.3-0.1c-0.9,0-1.8,0-2.7,0c-0.1,0-0.2,0-0.4,0c0-0.2,0.1-0.4,0.1-0.6c0.9,0,1.8,0,2.8,0
			c-0.4-0.5-0.7-0.9-1.1-1.4c-0.1-0.1-0.2-0.1-0.3-0.1c-0.2,0-0.5,0-0.8,0c0.2-0.2,0.3-0.4,0.5-0.6c-0.3-0.3-0.6-0.6-0.9-0.9
			c-1.1-1-2.2-1.9-3.2-2.8c-0.9-0.8-1.6-1.6-2.1-2.7c-0.8-1.9-0.4-3.6,0.7-5.3c0.9-1.3,2-2.4,3.3-3.3c1.4-1.1,2.9-2.2,4.3-3.3
			c0,0,0.1,0,0.1-0.1c0.1,0.5,0.4,0.4,0.7,0.4c0.5,0,1,0,1.5,0c0.7,0,1.3,0,1.9-0.3c1.1-0.4,2.3-0.3,3.3,0.1
			c3.3,1.1,5.3,3.3,6.1,6.7c0.4,1.7,0.2,3.3-0.1,5c-0.1,0.3,0,0.6,0.3,0.8C58.1,36.5,58.1,36.6,58.2,36.7
			C58.2,36.7,58.2,36.7,58.2,36.7z M44.9,24.7c0.3,0.5,0.6,0.9,0.9,1.3c0,0.1,0.1,0.1,0.2,0.1c0.6,0,1.2,0,1.7,0c0-0.5,0-0.9,0-1.4
			C46.7,24.7,45.8,24.7,44.9,24.7z M46.3,26.7c0.2,0.4,0.5,0.7,0.7,1.1c0,0.1,0.1,0.1,0.2,0.1c0.2,0,0.3,0,0.5,0c0-0.4,0-0.8,0-1.2
			C47.2,26.7,46.8,26.7,46.3,26.7z"/>
		<path class="st1" d="M28.5,66.6c-0.5,1.6-0.9,3.1-1.3,4.5c-0.1,0.4-0.3,0.9-0.4,1.3c0,0.2-0.1,0.2-0.3,0.2c-0.7,0-1.4,0-2.1,0
			c-0.1,0-0.2-0.1-0.3-0.2c-1-2.8-1.9-5.6-2.5-8.6c0-0.1,0-0.2,0-0.3c0.8,0,1.5,0,2.3,0c0.5,2,1,4.1,1.5,6.1c0,0,0,0,0.1,0
			c0.6-2,1.2-4.1,1.8-6.2c0.7,0,1.5,0,2.2,0c0.1,0,0.2,0.1,0.2,0.2c0.5,1.6,1,3.3,1.4,5c0.1,0.3,0.2,0.6,0.3,0.9
			c0-0.1,0.1-0.2,0.1-0.4c0.5-1.8,0.9-3.7,1.4-5.5c0-0.2,0.1-0.3,0.3-0.3c0.7,0,1.3,0,2,0c-0.2,0.7-0.3,1.4-0.5,2
			c-0.6,2.3-1.3,4.6-2.1,6.8c-0.1,0.2-0.2,0.3-0.4,0.3c-0.6,0-1.2,0-1.8,0c-0.3,0-0.4-0.1-0.4-0.3c-0.5-1.8-1-3.7-1.6-5.5
			C28.6,66.8,28.5,66.7,28.5,66.6z"/>
		<path class="st1" d="M61.7,70.4c0.1,0.6,0.2,1.2,0.2,1.8c0,0.1-0.1,0.2-0.2,0.2c-0.5,0.1-1,0.3-1.5,0.3c-0.9,0.1-1.8,0.1-2.6-0.2
			c-1.2-0.4-1.9-1.2-2.3-2.3c-0.4-1.2-0.4-2.5,0-3.8c0.5-1.7,1.9-2.8,3.8-3c0.9-0.1,1.8,0,2.7,0.2c0.1,0,0.2,0.1,0.3,0.1
			c-0.2,0.6-0.3,1.2-0.5,1.9c-0.3-0.1-0.5-0.2-0.8-0.2c-0.5,0-0.9-0.1-1.4-0.1c-0.9,0.1-1.4,0.6-1.7,1.4c-0.3,0.8-0.3,1.7,0,2.6
			c0.3,0.9,0.9,1.3,1.8,1.4C60.2,70.9,60.9,70.7,61.7,70.4z"/>
		<path class="st1" d="M38.8,63.5c0,3,0,6,0,9.1c-0.8,0-1.5,0-2.3,0c0-0.1,0-0.1,0-0.2c0-2.3,0-4.7,0-7c0-1.3,0.7-1.9,2-1.9
			C38.5,63.5,38.6,63.5,38.8,63.5z"/>
		<path class="st1" d="M47.7,38.9c0-0.3,0-0.6,0-1c0.1,0,0.2,0,0.3,0c2.9,0,5.9,0,8.8,0c0.1,0,0.4-0.1,0.3,0.2c0.7,0,1.3,0,2,0
			c0.5,0,0.7,0.1,1,0.5c-0.1,0-0.2,0-0.2,0c-0.9,0-1.8,0-2.7,0c-0.1,0-0.2,0.1-0.4,0.2c-0.1,0-0.1,0.1-0.2,0.1
			C53.7,38.9,50.7,38.9,47.7,38.9C47.8,38.9,47.7,38.9,47.7,38.9z"/>
		<path class="st1" d="M47.7,42.9c0-0.3,0-0.6,0-1c0.1,0,0.3,0,0.4,0c2.3,0,4.6,0,6.9,0c0.1,0,0.4-0.1,0.4,0.2c0,0,0.2,0,0.3,0
			c2,0,4.1,0,6.1,0c0.5,0,0.5,0,0.6,0.6c-0.1,0-0.2,0-0.4,0c-2.2,0-4.5,0-6.7,0c-0.2,0-0.3,0-0.4,0.2c0,0-0.1,0.1-0.2,0.1
			c-2.3,0-4.6,0-6.9,0C47.8,42.9,47.7,42.9,47.7,42.9z"/>
		<path class="st1" d="M61.5,40.7c-0.2,0-0.3,0-0.4,0c-1.6,0-3.2,0-4.7,0c-0.2,0-0.3,0-0.4,0.2c0,0-0.1,0-0.2,0c-2.6,0-5.3,0-7.9,0
			c0,0-0.1,0-0.1,0c0-0.3,0-0.6,0-1c0.1,0,0.2,0,0.3,0c2.7,0,5.3,0,8,0c0.1,0,0.3-0.1,0.3,0.2c0,0,0.2,0,0.2,0c1.4,0,2.8,0,4.2,0
			C61.3,40.1,61.3,40.1,61.5,40.7z"/>
		<path class="st1" d="M62.7,44.7c-0.1,0-0.3,0-0.4,0c-2.7,0-5.4,0-8.1,0c-0.1,0-0.3,0.1-0.4,0.1c-0.1,0-0.1,0.1-0.2,0.1
			c-1.9,0-3.9,0-5.8,0c0,0,0,0-0.1,0c0-0.3,0-0.6,0-0.9c2.2,0,4.4,0,6.6,0c0,0.1,0,0.1,0,0.2c2.8,0,5.6,0,8.4,0
			C62.7,44.3,62.7,44.5,62.7,44.7z"/>
		<path class="st1" d="M37.7,62.4c-0.8,0-1.5-0.6-1.5-1.4c0-0.8,0.7-1.4,1.5-1.4c0.8,0,1.5,0.6,1.5,1.4
			C39.2,61.8,38.6,62.4,37.7,62.4z"/>
		<path class="st1" d="M47.7,54.7c0-0.2,0-0.4,0-0.6c2.8,0,5.6,0,8.5,0c0,0,0,0,0,0.1c-0.4,0.2-0.8,0.5-1.2,0.5c-2.4,0-4.8,0-7.2,0
			C47.8,54.7,47.8,54.7,47.7,54.7z"/>
		<path class="st1" d="M47.7,22.2c0,0.2,0,0.4,0,0.6c-1.2,0-2.4,0-3.6,0c0-0.2,0-0.4,0-0.6C45.3,22.2,46.5,22.2,47.7,22.2z"/>
		<path class="st1" d="M50.7,56.3c-1,0.2-2,0.3-3,0.5c0-0.2,0-0.4,0-0.6C48.7,56.2,49.7,56.2,50.7,56.3
			C50.7,56.2,50.7,56.2,50.7,56.3z"/>
	</g>
</g>
</svg>
