<?xml version="1.0" encoding="utf-8"?>
<!-- Generator: Adobe Illustrator 22.1.0, SVG Export Plug-In . SVG Version: 6.00 Build 0)  -->
<svg version="1.1" id="Ebene_1" xmlns="http://www.w3.org/2000/svg" xmlns:xlink="http://www.w3.org/1999/xlink" x="0px" y="0px"
	 viewBox="0 0 100 100" style="enable-background:new 0 0 100 100;" xml:space="preserve">
<style type="text/css">
	.st0{fill:#636ff7;}
	.st1{fill:#1FC47A;}
	.st2{fill:#FFFFFF;}
</style>
<path class="st0" d="M50,100c27.6,0,50-22.4,50-50H0C0,77.6,22.4,100,50,100z"/>
<path class="st1" d="M50,0C22.4,0,0,22.4,0,50h100C100,22.4,77.6,0,50,0z"/>
<g id="wruo85.tif">
	<g>
		<path class="st2" d="M19,75.7c0.1-0.5,0.2-1,0.3-1.5c0.4-1.8,0.7-3.5,1.1-5.3c0-0.1,0-0.1,0-0.2c-0.3,0-0.6-0.1-0.9-0.1
			c0.1-0.3,0.1-0.6,0.2-0.8c0.1-0.5,0.2-1.1,0.3-1.6c0-0.1,0.1-0.2,0.2-0.2c1.5,0,2.9,0,4.4,0c0,0,0.1,0,0.1,0c-0.2,1-0.4,2-0.6,3.1
			c0.1-0.1,0.2-0.1,0.2-0.1c0.8-0.7,1.8-0.9,2.8-0.8c0.9,0.1,1.5,0.7,1.8,1.6c0.2,0.6,0.2,1.3,0.2,2c-0.1,0.9-0.4,1.7-1,2.5
			c-0.7,0.8-1.5,1.3-2.6,1.5c-0.8,0.2-1.7,0.2-2.5,0.1c-1.3-0.1-2.6-0.1-3.9-0.2C19.1,75.7,19.1,75.7,19,75.7
			C19,75.7,19,75.7,19,75.7z M24.2,73.3C24.2,73.2,24.2,73.2,24.2,73.3c0.1,0,0.2,0,0.3,0c0.4,0,0.8-0.2,1-0.6
			c0.2-0.3,0.3-0.7,0.3-1.1c0-0.5-0.3-0.8-0.9-0.8c-0.3,0-0.6,0.1-0.9,0.1c-0.1,0-0.1,0.1-0.1,0.1c-0.2,0.7-0.3,1.4-0.5,2.1
			c0,0.1,0,0.1,0.1,0.2C23.7,73.2,24,73.2,24.2,73.3z"/>
		<path class="st2" d="M53.2,72.8c-0.4,0.1-0.7,0.2-1.1,0.3c-0.6,0.2-1.3,0.2-1.9,0.2c0,0-0.1,0-0.1,0c-0.7,0-1-0.4-0.9-1.1
			c0-0.5,0-0.5,0.5-0.5c0.8,0,1.6,0,2.4,0c0.2,0,0.2,0,0.3-0.2c0.1-0.7,0.2-1.3,0.4-2c0,0,0-0.1,0-0.1c-1,0.1-2.1,0.2-3.1,0.3
			c0-0.1,0-0.1,0-0.2c0.1-0.4,0.2-0.8,0.2-1.2c0-0.1,0.1-0.2,0.2-0.2c1.1,0,2.3,0,3.4,0c0.2,0,0.2-0.1,0.3-0.2
			c0.1-0.6,0.2-1.2,0.3-1.8c0-0.1,0.1-0.2,0.2-0.2c1,0,2.1,0,3.1,0c0,0,0.1,0,0.1,0c0,0.1,0,0.2,0,0.2c-0.4,1.8-0.7,3.7-1.1,5.5
			c0,0.1,0,0.1,0,0.2c-0.1,0.5,0.2,0.7,0.6,0.7c0.4,0,0.6-0.2,0.6-0.6c0.2-1.2,0.5-2.5,0.7-3.7c0-0.1,0-0.2,0.2-0.2
			c0.8,0,1.7,0,2.5,0c0,0,0.1,0,0.1,0c0,0.1,0,0.1,0,0.2c-0.3,1.3-0.5,2.5-0.8,3.8c0,0.1,0,0.2,0.1,0.3c0.4,0.3,1,0.2,1.1-0.3
			c0.1-0.4,0.2-0.7,0.2-1.1c0.3-1.6,0.6-3.2,0.9-4.8c0-0.1,0.1-0.2,0.2-0.2c1.1,0,2.3,0,3.4,0c0.1,0,0.2,0,0.2,0.2
			c-0.4,2.2-0.9,4.5-1.3,6.7c-0.4,1.8-1.8,2.9-3.6,3c-0.6,0-1.3,0-1.8-0.3c-0.5-0.3-0.8-0.7-1-1.3c0-0.1-0.1-0.1-0.1-0.2
			c-0.1,0.1-0.2,0.1-0.2,0.2c-0.5,0.6-1.1,1.2-1.8,1.4c-1.2,0.4-2.5,0.4-3.7-0.1c-0.4-0.2-0.4-0.2-0.3-0.6c0.1-0.7,0.2-1.3,0.3-2
			C53.2,72.9,53.2,72.9,53.2,72.8z"/>
		<path class="st2" d="M83,72.5c-0.1,0.3-0.1,0.7-0.2,1c-0.1,0.6-0.2,1.2-0.3,1.8c0,0.1-0.1,0.2-0.2,0.2c-0.9,0.2-1.7,0.4-2.6,0.4
			c-0.3,0-0.6,0-0.9-0.1c-0.6-0.2-1-0.7-1-1.4c0-0.6,0.1-1.2,0.2-1.7c0.2-0.8,0.3-1.6,0.5-2.4c0.2-0.8-0.3-0.9-0.9-0.9
			c-0.5,0.1-0.9,0.4-1,0.9c-0.3,1.7-0.7,3.5-1,5.2c0,0.2-0.1,0.2-0.2,0.2c-1.1,0-2.3,0-3.4,0c-0.2,0-0.2,0-0.2-0.2
			c0.5-2.4,0.9-4.7,1.4-7.1c0.1-0.4,0.1-0.9,0.1-1.3c0-0.3,0-0.6,0-0.9c0-0.1,0.1-0.2,0.2-0.2c1,0,1.9,0,2.9,0
			c0.1,0,0.2,0.1,0.2,0.2c0,0.5-0.1,0.9-0.1,1.4c0,0.1,0,0.1,0.1,0.2c0.1,0,0.1-0.1,0.2-0.1c0.4-0.5,0.8-0.9,1.3-1.2
			c1-0.6,2-0.7,3.1-0.4c1.2,0.3,1.7,1.3,1.6,2.4c-0.1,1-0.4,2-0.5,3c0,0.2-0.1,0.3-0.1,0.5c-0.1,0.3,0.1,0.6,0.4,0.6
			C82.5,72.5,82.7,72.5,83,72.5z"/>
		<path class="st2" d="M46.8,66.1c-0.1,0.3-0.1,0.7-0.2,1c-0.3,1.7-0.7,3.3-1,5c-0.1,0.5-0.2,1.1-0.1,1.6c0.1,0.7,0.3,1.3,0.8,1.8
			c-0.1,0-0.2,0.1-0.2,0.1c-0.6,0.2-1.2,0.4-1.8,0.4c-0.3,0-0.7,0-1-0.1c-0.6-0.2-0.9-0.6-1.1-1.2c0-0.1-0.1-0.1-0.1-0.2
			c-0.1,0-0.2,0.1-0.2,0.1c-0.8,1.1-1.9,1.5-3.2,1.4c-0.5,0-0.9-0.1-1.3-0.3c-0.8-0.4-1.2-1.1-1.2-1.9c0-0.6,0.1-1.2,0.2-1.8
			c0.4-1.9,0.7-3.7,1.1-5.6c0-0.2,0.1-0.2,0.2-0.2c1.1,0,2.3,0,3.4,0c0.2,0,0.2,0,0.2,0.2c-0.3,1.8-0.7,3.6-1,5.3c0,0.1,0,0.2,0,0.4
			c0,0.3,0.2,0.6,0.5,0.6c0.4,0,0.8,0,1.1-0.3c0.1-0.1,0.2-0.2,0.2-0.3c0.4-1.9,0.8-3.8,1.1-5.8c0-0.1,0.1-0.2,0.2-0.2
			c1.1,0,2.2,0,3.3,0C46.7,66,46.7,66.1,46.8,66.1z"/>
		<path class="st2" d="M30.7,68.7c-0.3,0-0.6,0-0.9-0.1c0-0.1,0-0.1,0-0.2c0.1-0.7,0.3-1.5,0.4-2.2c0-0.2,0.1-0.2,0.3-0.2
			c1.4,0,2.9,0,4.3,0c0.2,0,0.2,0,0.2,0.2c-0.4,1.9-0.7,3.8-1.1,5.6c-0.1,0.4,0,0.6,0.4,0.6c0.2,0,0.4,0,0.6,0c0.1,0,0.1,0,0.2,0
			c0,0.2-0.1,0.4-0.1,0.6c-0.1,0.8-0.3,1.5-0.4,2.3c0,0.1-0.1,0.2-0.1,0.2c-1.1,0.3-2.3,0.5-3.5,0.2c-0.9-0.2-1.4-0.8-1.3-1.7
			c0-0.5,0.1-1,0.2-1.6c0.2-1.2,0.5-2.4,0.7-3.6C30.7,68.9,30.7,68.8,30.7,68.7z"/>
		<path class="st2" d="M71.3,69.3c0,0.1,0,0.2,0,0.2c-0.4,2-0.8,4-1.2,6c0,0.2-0.1,0.2-0.3,0.2c-1.1,0-2.2,0-3.4,0
			c-0.2,0-0.2,0-0.2-0.2c0.3-1.6,0.7-3.3,1-4.9c0-0.1,0.1-0.2,0.2-0.2c0.9,0,1.9-0.2,2.8-0.5c0.3-0.1,0.6-0.3,0.9-0.4
			C71.2,69.4,71.3,69.4,71.3,69.3z"/>
		<path class="st2" d="M70.1,65.7c0.3,0,0.6,0.1,0.8,0.1c0.8,0.2,1.2,0.8,1,1.6c-0.1,0.8-0.6,1.2-1.4,1.5c-0.7,0.2-1.4,0.3-2.1,0.1
			c-0.6-0.1-0.9-0.5-1-1c-0.1-0.8,0.2-1.4,0.9-1.8C69,65.8,69.6,65.7,70.1,65.7z"/>
	</g>
</g>
<path class="st2" d="M44.5,37.6h4V14h-4V37.6z M53.5,14.2v4h4v-4H53.5z M53.5,37.6h4V20.9h-4V37.6z"/>
</svg>
