<svg width="624" height="351" viewBox="0 0 624 351" fill="none" xmlns="http://www.w3.org/2000/svg">
<path d="M588 18C597.941 18 606 26.0589 606 36V331C606 340.941 597.941 349 588 349H20C10.0589 349 2 340.941 2 331V36L2.00586 35.5352C2.25242 25.8089 10.2143 18 20 18H588Z" fill="white"/>
<path d="M588 18C597.941 18 606 26.0589 606 36V331C606 340.941 597.941 349 588 349H20C10.0589 349 2 340.941 2 331V36L2.00586 35.5352C2.25242 25.8089 10.2143 18 20 18H588Z" stroke="#C296DA" stroke-width="4"/>
<g clip-path="url(#clip0_4440_64676)">
<path d="M28 117C28 114.791 29.7909 113 32 113H72C74.2091 113 76 114.791 76 117V157C76 159.209 74.2091 161 72 161H32C29.7909 161 28 159.209 28 157V117Z" fill="#F8F8F8"/>
<g clip-path="url(#clip1_4440_64676)">
<path d="M58.6663 136.167H61.1663V137.833H58.6663V136.167ZM42.833 136.167H45.333V137.833H42.833V136.167ZM52.833 127.833V130.333H51.1663V127.833H52.833ZM46.0997 129.917L47.8747 131.7L46.6913 132.875L44.9163 131.108L46.0997 129.917ZM56.1247 131.692L57.8913 129.917L59.083 131.108L57.308 132.875L56.1247 131.692ZM51.9997 132C53.3258 132 54.5975 132.527 55.5352 133.464C56.4729 134.402 56.9997 135.674 56.9997 137C56.9997 138.85 55.9913 140.467 54.4997 141.333V142.833C54.4997 143.054 54.4119 143.266 54.2556 143.423C54.0993 143.579 53.8874 143.667 53.6663 143.667H50.333C50.112 143.667 49.9 143.579 49.7438 143.423C49.5875 143.266 49.4997 143.054 49.4997 142.833V141.333C48.008 140.467 46.9997 138.85 46.9997 137C46.9997 135.674 47.5265 134.402 48.4641 133.464C49.4018 132.527 50.6736 132 51.9997 132ZM53.6663 144.5V145.333C53.6663 145.554 53.5785 145.766 53.4223 145.923C53.266 146.079 53.054 146.167 52.833 146.167H51.1663C50.9453 146.167 50.7334 146.079 50.5771 145.923C50.4208 145.766 50.333 145.554 50.333 145.333V144.5H53.6663ZM51.1663 142H52.833V140.225C54.2747 139.858 55.333 138.55 55.333 137C55.333 136.116 54.9818 135.268 54.3567 134.643C53.7316 134.018 52.8837 133.667 51.9997 133.667C51.1156 133.667 50.2678 134.018 49.6427 134.643C49.0175 135.268 48.6663 136.116 48.6663 137C48.6663 138.55 49.7247 139.858 51.1663 140.225V142Z" fill="#6E6E6E"/>
</g>
<path d="M92.9731 131.264C90.5195 131.264 88.9595 130.055 88.8276 128.231L88.8203 128.129H90.6514L90.6587 128.202C90.7466 129.088 91.6914 129.674 93.0317 129.674C94.3062 129.674 95.1997 129.044 95.1997 128.136V128.129C95.1997 127.367 94.6504 126.906 93.2881 126.613L92.1528 126.378C89.9922 125.924 89.0547 124.914 89.0547 123.339V123.332C89.0547 121.442 90.6807 120.167 92.9658 120.167C95.3096 120.167 96.7671 121.449 96.8989 123.148L96.9062 123.244H95.0972L95.0825 123.156C94.9507 122.335 94.167 121.75 92.9585 121.757C91.7866 121.757 90.9517 122.306 90.9517 123.207V123.214C90.9517 123.961 91.4863 124.43 92.8047 124.708L93.9399 124.95C96.1665 125.419 97.0967 126.312 97.0967 127.909V127.917C97.0967 129.975 95.5073 131.264 92.9731 131.264ZM101.682 131.161C99.8799 131.161 98.957 130.077 98.957 128.173V122.995H100.781V127.755C100.781 128.993 101.242 129.623 102.341 129.623C103.52 129.623 104.15 128.861 104.15 127.66V122.995H105.974V131H104.15V129.784H104.025C103.652 130.641 102.839 131.161 101.682 131.161ZM111.643 133.812C109.533 133.812 108.266 132.912 108.083 131.564L108.09 131.542H109.914L109.921 131.564C110.046 132.077 110.654 132.436 111.672 132.436C112.917 132.436 113.642 131.857 113.642 130.832V129.301H113.518C113.056 130.158 112.185 130.626 111.079 130.626C109.05 130.626 107.79 129.059 107.79 126.789V126.774C107.79 124.459 109.05 122.863 111.115 122.863C112.221 122.863 113.085 123.405 113.54 124.313H113.635V122.995H115.458V130.802C115.458 132.648 113.979 133.812 111.643 133.812ZM111.643 129.176C112.91 129.176 113.671 128.202 113.671 126.789V126.774C113.671 125.36 112.902 124.379 111.643 124.379C110.375 124.379 109.658 125.36 109.658 126.774V126.789C109.658 128.202 110.375 129.176 111.643 129.176ZM121.135 133.812C119.025 133.812 117.758 132.912 117.575 131.564L117.583 131.542H119.406L119.414 131.564C119.538 132.077 120.146 132.436 121.164 132.436C122.409 132.436 123.134 131.857 123.134 130.832V129.301H123.01C122.548 130.158 121.677 130.626 120.571 130.626C118.542 130.626 117.282 129.059 117.282 126.789V126.774C117.282 124.459 118.542 122.863 120.607 122.863C121.713 122.863 122.578 123.405 123.032 124.313H123.127V122.995H124.951V130.802C124.951 132.648 123.471 133.812 121.135 133.812ZM121.135 129.176C122.402 129.176 123.164 128.202 123.164 126.789V126.774C123.164 125.36 122.395 124.379 121.135 124.379C119.868 124.379 119.15 125.36 119.15 126.774V126.789C119.15 128.202 119.868 129.176 121.135 129.176ZM130.612 131.161C128.232 131.161 126.789 129.564 126.789 127.016V127.008C126.789 124.489 128.247 122.841 130.524 122.841C132.802 122.841 134.208 124.438 134.208 126.854V127.455H128.613C128.635 128.891 129.411 129.726 130.649 129.726C131.638 129.726 132.202 129.228 132.377 128.861L132.399 128.81H134.135L134.113 128.876C133.857 129.909 132.788 131.161 130.612 131.161ZM130.546 124.269C129.528 124.269 128.767 124.958 128.627 126.232H132.429C132.304 124.921 131.564 124.269 130.546 124.269ZM139.057 131.161C137.021 131.161 135.791 130.224 135.637 128.869V128.854H137.446L137.453 128.869C137.644 129.425 138.178 129.813 139.086 129.813C139.995 129.813 140.625 129.403 140.625 128.803V128.788C140.625 128.319 140.273 128.012 139.394 127.814L138.098 127.521C136.574 127.184 135.849 126.466 135.849 125.287V125.28C135.849 123.837 137.167 122.841 139.057 122.841C141.005 122.841 142.17 123.808 142.287 125.104V125.119H140.573L140.566 125.097C140.434 124.591 139.907 124.181 139.05 124.181C138.237 124.181 137.651 124.577 137.651 125.177V125.185C137.651 125.653 137.988 125.939 138.852 126.137L140.148 126.422C141.716 126.774 142.456 127.44 142.456 128.605V128.62C142.456 130.143 141.027 131.161 139.057 131.161ZM147.385 131.037C145.546 131.037 144.792 130.421 144.792 128.876V124.408H143.547V122.995H144.792V121.032H146.645V122.995H148.337V124.408H146.645V128.444C146.645 129.242 146.96 129.579 147.722 129.579C147.978 129.579 148.117 129.572 148.337 129.55V130.956C148.073 131.007 147.736 131.037 147.385 131.037ZM158.012 131.264C155.559 131.264 153.999 130.055 153.867 128.231L153.859 128.129H155.69L155.698 128.202C155.786 129.088 156.73 129.674 158.071 129.674C159.345 129.674 160.239 129.044 160.239 128.136V128.129C160.239 127.367 159.689 126.906 158.327 126.613L157.192 126.378C155.031 125.924 154.094 124.914 154.094 123.339V123.332C154.094 121.442 155.72 120.167 158.005 120.167C160.349 120.167 161.806 121.449 161.938 123.148L161.945 123.244H160.136L160.122 123.156C159.99 122.335 159.206 121.75 157.998 121.757C156.826 121.757 155.991 122.306 155.991 123.207V123.214C155.991 123.961 156.525 124.43 157.844 124.708L158.979 124.95C161.206 125.419 162.136 126.312 162.136 127.909V127.917C162.136 129.975 160.546 131.264 158.012 131.264ZM164.26 131V120.431H171.101V122.021H166.149V124.884H170.83V126.386H166.149V129.411H171.101V131H164.26ZM178 131.264C174.902 131.264 172.998 129.118 172.998 125.719V125.705C172.998 122.299 174.931 120.167 178 120.167C181.076 120.167 182.995 122.299 182.995 125.705V125.719C182.995 129.118 181.083 131.264 178 131.264ZM178 129.63C179.882 129.63 181.069 128.092 181.069 125.719V125.705C181.069 123.317 179.875 121.801 178 121.801C176.125 121.801 174.924 123.317 174.924 125.705V125.719C174.924 128.092 176.096 129.63 178 129.63ZM192.121 131.037C190.283 131.037 189.528 130.421 189.528 128.876V124.408H188.283V122.995H189.528V121.032H191.381V122.995H193.073V124.408H191.381V128.444C191.381 129.242 191.696 129.579 192.458 129.579C192.714 129.579 192.854 129.572 193.073 129.55V130.956C192.81 131.007 192.473 131.037 192.121 131.037ZM195.827 121.654C195.227 121.654 194.736 121.178 194.736 120.578C194.736 119.984 195.227 119.501 195.827 119.501C196.42 119.501 196.911 119.984 196.911 120.578C196.911 121.178 196.42 121.654 195.827 121.654ZM194.912 131V122.995H196.735V131H194.912ZM202.126 131.037C200.288 131.037 199.533 130.421 199.533 128.876V124.408H198.288V122.995H199.533V121.032H201.386V122.995H203.078V124.408H201.386V128.444C201.386 129.242 201.701 129.579 202.463 129.579C202.719 129.579 202.858 129.572 203.078 129.55V130.956C202.814 131.007 202.478 131.037 202.126 131.037ZM204.968 131V119.896H206.792V131H204.968ZM212.526 131.161C210.146 131.161 208.703 129.564 208.703 127.016V127.008C208.703 124.489 210.161 122.841 212.438 122.841C214.716 122.841 216.123 124.438 216.123 126.854V127.455H210.527C210.549 128.891 211.325 129.726 212.563 129.726C213.552 129.726 214.116 129.228 214.292 128.861L214.313 128.81H216.049L216.027 128.876C215.771 129.909 214.702 131.161 212.526 131.161ZM212.46 124.269C211.442 124.269 210.681 124.958 210.542 126.232H214.343C214.218 124.921 213.479 124.269 212.46 124.269Z" fill="#141414" fill-opacity="0.85"/>
<path d="M92.9639 153.216C90.4312 153.216 88.8125 151.35 88.8125 148.423V148.411C88.8125 145.522 90.4565 143.625 92.9639 143.625C94.9951 143.625 96.4233 144.767 96.7852 146.506L96.7979 146.57H95.6426L95.6235 146.506C95.249 145.326 94.3286 144.678 92.9639 144.678C91.1484 144.678 89.9805 146.138 89.9805 148.411V148.423C89.9805 150.728 91.1294 152.162 92.9702 152.162C94.6079 152.162 95.7124 151.115 95.7124 149.566V149.344H93.1416V148.341H96.855V149.458C96.855 151.718 95.3062 153.216 92.9639 153.216ZM101.533 153.121C99.5781 153.121 98.3975 151.75 98.3975 149.604V149.598C98.3975 147.484 99.6035 146.037 101.463 146.037C103.323 146.037 104.453 147.42 104.453 149.464V149.896H99.5273C99.5591 151.312 100.34 152.137 101.559 152.137C102.485 152.137 103.057 151.699 103.241 151.286L103.266 151.229H104.371L104.358 151.28C104.123 152.207 103.146 153.121 101.533 153.121ZM101.457 147.021C100.441 147.021 99.667 147.712 99.5464 149.014H103.33C103.215 147.662 102.466 147.021 101.457 147.021ZM106.167 153V146.157H107.271V147.186H107.373C107.716 146.462 108.357 146.037 109.366 146.037C110.902 146.037 111.759 146.944 111.759 148.569V153H110.655V148.836C110.655 147.604 110.147 147.014 109.055 147.014C107.963 147.014 107.271 147.75 107.271 148.95V153H106.167ZM116.552 153.121C114.597 153.121 113.416 151.75 113.416 149.604V149.598C113.416 147.484 114.622 146.037 116.482 146.037C118.342 146.037 119.472 147.42 119.472 149.464V149.896H114.546C114.578 151.312 115.358 152.137 116.577 152.137C117.504 152.137 118.075 151.699 118.259 151.286L118.285 151.229H119.389L119.376 151.28C119.142 152.207 118.164 153.121 116.552 153.121ZM116.476 147.021C115.46 147.021 114.686 147.712 114.565 149.014H118.348C118.234 147.662 117.485 147.021 116.476 147.021ZM121.186 153V146.157H122.29V147.173H122.392C122.652 146.456 123.293 146.037 124.22 146.037C124.429 146.037 124.664 146.062 124.772 146.081V147.154C124.543 147.116 124.334 147.09 124.093 147.09C123.039 147.09 122.29 147.757 122.29 148.76V153H121.186ZM128.016 153.121C126.714 153.121 125.73 152.333 125.73 151.089V151.077C125.73 149.858 126.632 149.153 128.225 149.058L130.187 148.938V148.315C130.187 147.471 129.672 147.014 128.65 147.014C127.832 147.014 127.292 147.319 127.114 147.852L127.108 147.871H126.003L126.01 147.833C126.188 146.76 127.229 146.037 128.688 146.037C130.358 146.037 131.291 146.894 131.291 148.315V153H130.187V151.991H130.085C129.653 152.721 128.936 153.121 128.016 153.121ZM126.86 151.064C126.86 151.756 127.451 152.162 128.244 152.162C129.368 152.162 130.187 151.426 130.187 150.448V149.826L128.358 149.94C127.317 150.004 126.86 150.372 126.86 151.051V151.064ZM135.741 153.051C134.332 153.051 133.741 152.53 133.741 151.223V147.071H132.662V146.157H133.741V144.386H134.884V146.157H136.382V147.071H134.884V150.943C134.884 151.75 135.163 152.073 135.874 152.073C136.071 152.073 136.179 152.067 136.382 152.048V152.987C136.166 153.025 135.957 153.051 135.741 153.051ZM140.724 153.121C138.769 153.121 137.588 151.75 137.588 149.604V149.598C137.588 147.484 138.794 146.037 140.654 146.037C142.514 146.037 143.644 147.42 143.644 149.464V149.896H138.718C138.75 151.312 139.53 152.137 140.749 152.137C141.676 152.137 142.247 151.699 142.431 151.286L142.457 151.229H143.561L143.548 151.28C143.313 152.207 142.336 153.121 140.724 153.121ZM140.647 147.021C139.632 147.021 138.857 147.712 138.737 149.014H142.52C142.406 147.662 141.657 147.021 140.647 147.021ZM147.706 153.121C146.183 153.121 145.135 152.384 145.008 151.254H146.138C146.322 151.826 146.868 152.2 147.744 152.2C148.665 152.2 149.318 151.762 149.318 151.14V151.127C149.318 150.664 148.969 150.34 148.125 150.137L147.065 149.883C145.783 149.579 145.205 149.02 145.205 148.036V148.03C145.205 146.894 146.297 146.037 147.75 146.037C149.185 146.037 150.182 146.754 150.334 147.871H149.249C149.103 147.332 148.569 146.957 147.744 146.957C146.932 146.957 146.335 147.376 146.335 147.979V147.992C146.335 148.455 146.678 148.747 147.484 148.944L148.538 149.198C149.826 149.509 150.448 150.067 150.448 151.045V151.058C150.448 152.276 149.261 153.121 147.706 153.121ZM157.697 153.121C156.396 153.121 155.412 152.333 155.412 151.089V151.077C155.412 149.858 156.313 149.153 157.907 149.058L159.868 148.938V148.315C159.868 147.471 159.354 147.014 158.332 147.014C157.513 147.014 156.974 147.319 156.796 147.852L156.79 147.871H155.685L155.691 147.833C155.869 146.76 156.91 146.037 158.37 146.037C160.04 146.037 160.973 146.894 160.973 148.315V153H159.868V151.991H159.767C159.335 152.721 158.618 153.121 157.697 153.121ZM156.542 151.064C156.542 151.756 157.132 152.162 157.926 152.162C159.049 152.162 159.868 151.426 159.868 150.448V149.826L158.04 149.94C156.999 150.004 156.542 150.372 156.542 151.051V151.064ZM162.991 153V146.157H164.096V147.186H164.197C164.54 146.462 165.181 146.037 166.19 146.037C167.727 146.037 168.583 146.944 168.583 148.569V153H167.479V148.836C167.479 147.604 166.971 147.014 165.879 147.014C164.788 147.014 164.096 147.75 164.096 148.95V153H162.991ZM177.381 153.216C175.375 153.216 174.081 152.162 173.947 150.67L173.941 150.601H175.083L175.09 150.67C175.172 151.584 176.125 152.162 177.445 152.162C178.689 152.162 179.597 151.521 179.597 150.588V150.582C179.597 149.82 179.07 149.299 177.813 149.02L176.797 148.798C174.963 148.392 174.169 147.547 174.169 146.221V146.214C174.176 144.697 175.502 143.625 177.394 143.625C179.222 143.625 180.498 144.704 180.593 146.068L180.6 146.157H179.457L179.444 146.075C179.317 145.269 178.556 144.672 177.362 144.678C176.22 144.685 175.337 145.224 175.337 146.183V146.189C175.337 146.919 175.839 147.414 177.083 147.687L178.099 147.916C180.009 148.341 180.765 149.109 180.765 150.429V150.436C180.765 152.149 179.425 153.216 177.381 153.216ZM182.669 153V143.84H188.344V144.869H183.812V147.808H188.109V148.823H183.812V151.972H188.344V153H182.669ZM194.26 153.216C191.632 153.216 190.058 151.35 190.058 148.423V148.411C190.058 145.472 191.67 143.625 194.26 143.625C196.862 143.625 198.462 145.478 198.462 148.411V148.423C198.462 151.343 196.875 153.216 194.26 153.216ZM194.26 152.162C196.139 152.162 197.294 150.689 197.294 148.423V148.411C197.294 146.125 196.132 144.678 194.26 144.678C192.394 144.678 191.226 146.125 191.226 148.411V148.423C191.226 150.689 192.355 152.162 194.26 152.162ZM206.39 153.051C204.981 153.051 204.391 152.53 204.391 151.223V147.071H203.312V146.157H204.391V144.386H205.533V146.157H207.031V147.071H205.533V150.943C205.533 151.75 205.812 152.073 206.523 152.073C206.72 152.073 206.828 152.067 207.031 152.048V152.987C206.815 153.025 206.606 153.051 206.39 153.051ZM209.266 144.837C208.847 144.837 208.504 144.494 208.504 144.075C208.504 143.656 208.847 143.313 209.266 143.313C209.685 143.313 210.027 143.656 210.027 144.075C210.027 144.494 209.685 144.837 209.266 144.837ZM208.707 153V146.157H209.812V153H208.707ZM214.325 153.051C212.916 153.051 212.325 152.53 212.325 151.223V147.071H211.246V146.157H212.325V144.386H213.468V146.157H214.966V147.071H213.468V150.943C213.468 151.75 213.747 152.073 214.458 152.073C214.655 152.073 214.763 152.067 214.966 152.048V152.987C214.75 153.025 214.541 153.051 214.325 153.051ZM216.68 153V143.44H217.784V153H216.68ZM222.697 153.121C220.742 153.121 219.562 151.75 219.562 149.604V149.598C219.562 147.484 220.768 146.037 222.627 146.037C224.487 146.037 225.617 147.42 225.617 149.464V149.896H220.691C220.723 151.312 221.504 152.137 222.723 152.137C223.649 152.137 224.221 151.699 224.405 151.286L224.43 151.229H225.535L225.522 151.28C225.287 152.207 224.31 153.121 222.697 153.121ZM222.621 147.021C221.605 147.021 220.831 147.712 220.71 149.014H224.494C224.379 147.662 223.63 147.021 222.621 147.021ZM231.571 144.837C231.152 144.837 230.81 144.494 230.81 144.075C230.81 143.656 231.152 143.313 231.571 143.313C231.99 143.313 232.333 143.656 232.333 144.075C232.333 144.494 231.99 144.837 231.571 144.837ZM231.013 153V146.157H232.117V153H231.013ZM234.199 153V146.157H235.304V147.186H235.405C235.748 146.462 236.389 146.037 237.398 146.037C238.935 146.037 239.792 146.944 239.792 148.569V153H238.687V148.836C238.687 147.604 238.179 147.014 237.087 147.014C235.996 147.014 235.304 147.75 235.304 148.95V153H234.199ZM247.878 153.051C246.469 153.051 245.879 152.53 245.879 151.223V147.071H244.8V146.157H245.879V144.386H247.021V146.157H248.52V147.071H247.021V150.943C247.021 151.75 247.301 152.073 248.012 152.073C248.208 152.073 248.316 152.067 248.52 152.048V152.987C248.304 153.025 248.094 153.051 247.878 153.051ZM250.233 153V143.44H251.338V147.186H251.439C251.782 146.462 252.423 146.037 253.433 146.037C254.969 146.037 255.826 146.944 255.826 148.569V153H254.721V148.836C254.721 147.604 254.213 147.014 253.122 147.014C252.03 147.014 251.338 147.75 251.338 148.95V153H250.233ZM260.618 153.121C258.663 153.121 257.482 151.75 257.482 149.604V149.598C257.482 147.484 258.688 146.037 260.548 146.037C262.408 146.037 263.538 147.42 263.538 149.464V149.896H258.612C258.644 151.312 259.425 152.137 260.644 152.137C261.57 152.137 262.142 151.699 262.326 151.286L262.351 151.229H263.456L263.443 151.28C263.208 152.207 262.23 153.121 260.618 153.121ZM260.542 147.021C259.526 147.021 258.752 147.712 258.631 149.014H262.415C262.3 147.662 261.551 147.021 260.542 147.021ZM268.908 153V146.157H270.013V147.198H270.114C270.419 146.462 271.066 146.037 271.961 146.037C272.888 146.037 273.536 146.525 273.853 147.236H273.955C274.323 146.513 275.104 146.037 276.049 146.037C277.446 146.037 278.227 146.836 278.227 148.271V153H277.122V148.525C277.122 147.516 276.659 147.014 275.694 147.014C274.742 147.014 274.113 147.731 274.113 148.601V153H273.009V148.354C273.009 147.541 272.45 147.014 271.587 147.014C270.692 147.014 270.013 147.795 270.013 148.76V153H268.908ZM283.013 153.121C281.058 153.121 279.877 151.75 279.877 149.604V149.598C279.877 147.484 281.083 146.037 282.943 146.037C284.803 146.037 285.933 147.42 285.933 149.464V149.896H281.007C281.039 151.312 281.819 152.137 283.038 152.137C283.965 152.137 284.536 151.699 284.72 151.286L284.746 151.229H285.85L285.837 151.28C285.603 152.207 284.625 153.121 283.013 153.121ZM282.937 147.021C281.921 147.021 281.146 147.712 281.026 149.014H284.809C284.695 147.662 283.946 147.021 282.937 147.021ZM290.078 153.051C288.668 153.051 288.078 152.53 288.078 151.223V147.071H286.999V146.157H288.078V144.386H289.221V146.157H290.719V147.071H289.221V150.943C289.221 151.75 289.5 152.073 290.211 152.073C290.408 152.073 290.516 152.067 290.719 152.048V152.987C290.503 153.025 290.293 153.051 290.078 153.051ZM294.248 153.121C292.947 153.121 291.963 152.333 291.963 151.089V151.077C291.963 149.858 292.864 149.153 294.458 149.058L296.419 148.938V148.315C296.419 147.471 295.905 147.014 294.883 147.014C294.064 147.014 293.524 147.319 293.347 147.852L293.34 147.871H292.236L292.242 147.833C292.42 146.76 293.461 146.037 294.921 146.037C296.59 146.037 297.523 146.894 297.523 148.315V153H296.419V151.991H296.317C295.886 152.721 295.168 153.121 294.248 153.121ZM293.093 151.064C293.093 151.756 293.683 152.162 294.477 152.162C295.6 152.162 296.419 151.426 296.419 150.448V149.826L294.591 149.94C293.55 150.004 293.093 150.372 293.093 151.051V151.064ZM302.068 153.121C300.335 153.121 299.199 151.718 299.199 149.585V149.572C299.199 147.427 300.329 146.037 302.068 146.037C303.008 146.037 303.827 146.506 304.201 147.236H304.303V143.44H305.407V153H304.303V151.908H304.201C303.782 152.67 303.021 153.121 302.068 153.121ZM302.322 152.143C303.566 152.143 304.328 151.166 304.328 149.585V149.572C304.328 147.992 303.566 147.014 302.322 147.014C301.072 147.014 300.329 147.979 300.329 149.572V149.585C300.329 151.178 301.072 152.143 302.322 152.143ZM309.406 153.121C308.105 153.121 307.121 152.333 307.121 151.089V151.077C307.121 149.858 308.022 149.153 309.616 149.058L311.577 148.938V148.315C311.577 147.471 311.063 147.014 310.041 147.014C309.222 147.014 308.683 147.319 308.505 147.852L308.499 147.871H307.394L307.4 147.833C307.578 146.76 308.619 146.037 310.079 146.037C311.749 146.037 312.682 146.894 312.682 148.315V153H311.577V151.991H311.476C311.044 152.721 310.327 153.121 309.406 153.121ZM308.251 151.064C308.251 151.756 308.841 152.162 309.635 152.162C310.758 152.162 311.577 151.426 311.577 150.448V149.826L309.749 149.94C308.708 150.004 308.251 150.372 308.251 151.051V151.064ZM317.131 153.051C315.722 153.051 315.132 152.53 315.132 151.223V147.071H314.053V146.157H315.132V144.386H316.274V146.157H317.772V147.071H316.274V150.943C316.274 151.75 316.554 152.073 317.265 152.073C317.461 152.073 317.569 152.067 317.772 152.048V152.987C317.557 153.025 317.347 153.051 317.131 153.051ZM321.302 153.121C320 153.121 319.017 152.333 319.017 151.089V151.077C319.017 149.858 319.918 149.153 321.511 149.058L323.473 148.938V148.315C323.473 147.471 322.958 147.014 321.937 147.014C321.118 147.014 320.578 147.319 320.4 147.852L320.394 147.871H319.29L319.296 147.833C319.474 146.76 320.515 146.037 321.975 146.037C323.644 146.037 324.577 146.894 324.577 148.315V153H323.473V151.991H323.371C322.939 152.721 322.222 153.121 321.302 153.121ZM320.146 151.064C320.146 151.756 320.737 152.162 321.53 152.162C322.654 152.162 323.473 151.426 323.473 150.448V149.826L321.645 149.94C320.604 150.004 320.146 150.372 320.146 151.051V151.064ZM330.709 153V147.071H329.573V146.157H330.709V145.396C330.709 144.031 331.395 143.377 332.696 143.377C332.962 143.377 333.204 143.396 333.432 143.44V144.323C333.299 144.297 333.115 144.291 332.918 144.291C332.131 144.291 331.813 144.678 331.813 145.427V146.157H333.369V147.071H331.813V153H330.709ZM337.482 153.121C335.533 153.121 334.327 151.775 334.327 149.585V149.572C334.327 147.376 335.533 146.037 337.482 146.037C339.431 146.037 340.637 147.376 340.637 149.572V149.585C340.637 151.775 339.431 153.121 337.482 153.121ZM337.482 152.143C338.777 152.143 339.507 151.197 339.507 149.585V149.572C339.507 147.954 338.777 147.014 337.482 147.014C336.187 147.014 335.457 147.954 335.457 149.572V149.585C335.457 151.197 336.187 152.143 337.482 152.143ZM342.351 153V146.157H343.455V147.173H343.557C343.817 146.456 344.458 146.037 345.385 146.037C345.594 146.037 345.829 146.062 345.937 146.081V147.154C345.708 147.116 345.499 147.09 345.258 147.09C344.204 147.09 343.455 147.757 343.455 148.76V153H342.351ZM347.429 153V146.157H348.533V147.198H348.635C348.939 146.462 349.587 146.037 350.482 146.037C351.409 146.037 352.056 146.525 352.374 147.236H352.475C352.843 146.513 353.624 146.037 354.57 146.037C355.966 146.037 356.747 146.836 356.747 148.271V153H355.643V148.525C355.643 147.516 355.179 147.014 354.214 147.014C353.262 147.014 352.634 147.731 352.634 148.601V153H351.529V148.354C351.529 147.541 350.971 147.014 350.107 147.014C349.212 147.014 348.533 147.795 348.533 148.76V153H347.429Z" fill="#141414" fill-opacity="0.45"/>
<path d="M28 175C28 170.582 31.5817 167 36 167H572C576.418 167 580 170.582 580 175V197C580 201.418 576.418 205 572 205H36C31.5817 205 28 201.418 28 197V175Z" fill="white"/>
<path opacity="0.5" d="M28 175C28 170.582 31.5817 167 36 167H572C576.418 167 580 170.582 580 175V197C580 201.418 576.418 205 572 205H36C31.5817 205 28 201.418 28 197V175Z" fill="#F4EDF9"/>
<path d="M41.168 191V181.84H44.6211C46.3413 181.84 47.5601 183.027 47.5601 184.767V184.779C47.5601 186.519 46.3413 187.731 44.6211 187.731H42.3105V191H41.168ZM44.3291 182.856H42.3105V186.715H44.3291C45.6367 186.715 46.3921 185.998 46.3921 184.792V184.779C46.3921 183.573 45.6367 182.856 44.3291 182.856ZM49.877 182.837C49.458 182.837 49.1152 182.494 49.1152 182.075C49.1152 181.656 49.458 181.313 49.877 181.313C50.2959 181.313 50.6387 181.656 50.6387 182.075C50.6387 182.494 50.2959 182.837 49.877 182.837ZM49.3184 191V184.157H50.4229V191H49.3184ZM55.3042 191.121C53.3872 191.121 52.1621 189.73 52.1621 187.56V187.547C52.1621 185.42 53.3809 184.037 55.2979 184.037C56.9609 184.037 57.9575 184.995 58.1606 186.214L58.167 186.252H57.0688L57.0625 186.233C56.8911 185.56 56.2817 185.014 55.2979 185.014C54.0664 185.014 53.292 186.004 53.292 187.547V187.56C53.292 189.134 54.0791 190.143 55.2979 190.143C56.2183 190.143 56.8022 189.737 57.0562 188.975L57.0688 188.937L58.1606 188.931L58.1479 189C57.8687 190.238 56.9482 191.121 55.3042 191.121ZM59.8428 191V181.44H60.9473V187.147H61.0488L64.0068 184.157H65.3462L62.3628 187.033L65.543 191H64.1528L61.5884 187.782L60.9473 188.404V191H59.8428ZM72.373 191.121C71.0718 191.121 70.0879 190.333 70.0879 189.089V189.077C70.0879 187.858 70.9893 187.153 72.5825 187.058L74.5439 186.938V186.315C74.5439 185.471 74.0298 185.014 73.0078 185.014C72.189 185.014 71.6494 185.319 71.4717 185.852L71.4653 185.871H70.3608L70.3672 185.833C70.5449 184.76 71.5859 184.037 73.0459 184.037C74.7153 184.037 75.6484 184.894 75.6484 186.315V191H74.5439V189.991H74.4424C74.0107 190.721 73.2935 191.121 72.373 191.121ZM71.2178 189.064C71.2178 189.756 71.8081 190.162 72.6016 190.162C73.7251 190.162 74.5439 189.426 74.5439 188.448V187.826L72.7158 187.94C71.6748 188.004 71.2178 188.372 71.2178 189.051V189.064ZM77.667 191V184.157H78.7715V185.186H78.873C79.2158 184.462 79.8569 184.037 80.8662 184.037C82.4023 184.037 83.2593 184.944 83.2593 186.569V191H82.1548V186.836C82.1548 185.604 81.647 185.014 80.5552 185.014C79.4634 185.014 78.7715 185.75 78.7715 186.95V191H77.667ZM92.0571 191.216C90.0513 191.216 88.7563 190.162 88.623 188.67L88.6167 188.601H89.7593L89.7656 188.67C89.8481 189.584 90.8003 190.162 92.1206 190.162C93.3647 190.162 94.2725 189.521 94.2725 188.588V188.582C94.2725 187.82 93.7456 187.299 92.4888 187.02L91.4731 186.798C89.6387 186.392 88.8452 185.547 88.8452 184.221V184.214C88.8516 182.697 90.1782 181.625 92.0698 181.625C93.8979 181.625 95.1738 182.704 95.269 184.068L95.2754 184.157H94.1328L94.1201 184.075C93.9932 183.269 93.2314 182.672 92.0381 182.678C90.8955 182.685 90.0132 183.224 90.0132 184.183V184.189C90.0132 184.919 90.5146 185.414 91.7588 185.687L92.7744 185.916C94.6851 186.341 95.4404 187.109 95.4404 188.429V188.436C95.4404 190.149 94.1011 191.216 92.0571 191.216ZM97.3447 191V181.84H103.02V182.869H98.4873V185.808H102.785V186.823H98.4873V189.972H103.02V191H97.3447ZM108.936 191.216C106.308 191.216 104.733 189.35 104.733 186.423V186.411C104.733 183.472 106.346 181.625 108.936 181.625C111.538 181.625 113.138 183.478 113.138 186.411V186.423C113.138 189.343 111.551 191.216 108.936 191.216ZM108.936 190.162C110.814 190.162 111.97 188.689 111.97 186.423V186.411C111.97 184.125 110.808 182.678 108.936 182.678C107.069 182.678 105.901 184.125 105.901 186.411V186.423C105.901 188.689 107.031 190.162 108.936 190.162ZM121.066 191.051C119.657 191.051 119.066 190.53 119.066 189.223V185.071H117.987V184.157H119.066V182.386H120.209V184.157H121.707V185.071H120.209V188.943C120.209 189.75 120.488 190.073 121.199 190.073C121.396 190.073 121.504 190.067 121.707 190.048V190.987C121.491 191.025 121.282 191.051 121.066 191.051ZM123.941 182.837C123.522 182.837 123.18 182.494 123.18 182.075C123.18 181.656 123.522 181.313 123.941 181.313C124.36 181.313 124.703 181.656 124.703 182.075C124.703 182.494 124.36 182.837 123.941 182.837ZM123.383 191V184.157H124.487V191H123.383ZM129 191.051C127.591 191.051 127.001 190.53 127.001 189.223V185.071H125.922V184.157H127.001V182.386H128.144V184.157H129.642V185.071H128.144V188.943C128.144 189.75 128.423 190.073 129.134 190.073C129.331 190.073 129.438 190.067 129.642 190.048V190.987C129.426 191.025 129.216 191.051 129 191.051ZM131.355 191V181.44H132.46V191H131.355ZM137.373 191.121C135.418 191.121 134.237 189.75 134.237 187.604V187.598C134.237 185.484 135.443 184.037 137.303 184.037C139.163 184.037 140.293 185.42 140.293 187.464V187.896H135.367C135.399 189.312 136.18 190.137 137.398 190.137C138.325 190.137 138.896 189.699 139.081 189.286L139.106 189.229H140.21L140.198 189.28C139.963 190.207 138.985 191.121 137.373 191.121ZM137.297 185.021C136.281 185.021 135.507 185.712 135.386 187.014H139.169C139.055 185.662 138.306 185.021 137.297 185.021Z" fill="black"/>
<g filter="url(#filter0_d_4440_64676)">
<path d="M567 167.5C567 160.873 572.373 155.5 579 155.5C585.627 155.5 591 160.873 591 167.5C591 174.127 585.627 179.5 579 179.5C572.373 179.5 567 174.127 567 167.5Z" fill="white"/>
<path d="M578 164.5H580V162.5H578V164.5ZM579 175.5C574.59 175.5 571 171.91 571 167.5C571 163.09 574.59 159.5 579 159.5C583.41 159.5 587 163.09 587 167.5C587 171.91 583.41 175.5 579 175.5ZM579 157.5C577.687 157.5 576.386 157.759 575.173 158.261C573.96 158.764 572.858 159.5 571.929 160.429C570.054 162.304 569 164.848 569 167.5C569 170.152 570.054 172.696 571.929 174.571C572.858 175.5 573.96 176.236 575.173 176.739C576.386 177.241 577.687 177.5 579 177.5C581.652 177.5 584.196 176.446 586.071 174.571C587.946 172.696 589 170.152 589 167.5C589 166.187 588.741 164.886 588.239 163.673C587.736 162.46 587 161.358 586.071 160.429C585.142 159.5 584.04 158.764 582.827 158.261C581.614 157.759 580.313 157.5 579 157.5ZM578 172.5H580V166.5H578V172.5Z" fill="#C296DA"/>
</g>
<path d="M28 215C28 212.791 29.7909 211 32 211H576C578.209 211 580 212.791 580 215V231C580 233.209 578.209 235 576 235H32C29.7909 235 28 233.209 28 231V215Z" fill="#F8F8F8"/>
<path d="M37.168 228V218.84H38.2788L43.249 225.969H43.3506V218.84H44.4805V228H43.3696L38.3994 220.897H38.2979V228H37.168ZM49.4697 228.121C47.5146 228.121 46.334 226.75 46.334 224.604V224.598C46.334 222.484 47.54 221.037 49.3999 221.037C51.2598 221.037 52.3896 222.42 52.3896 224.464V224.896H47.4639C47.4956 226.312 48.2764 227.137 49.4951 227.137C50.4219 227.137 50.9932 226.699 51.1772 226.286L51.2026 226.229H52.3071L52.2944 226.28C52.0596 227.207 51.082 228.121 49.4697 228.121ZM49.3936 222.021C48.3779 222.021 47.6035 222.712 47.4829 224.014H51.2661C51.1519 222.662 50.4028 222.021 49.3936 222.021ZM55.4238 228L53.5068 221.157H54.6113L55.957 226.629H56.0586L57.5884 221.157H58.6357L60.1655 226.629H60.2671L61.6128 221.157H62.7109L60.7939 228H59.6831L58.1533 222.706H58.0518L56.5283 228H55.4238ZM70.9692 228.216C68.9634 228.216 67.6685 227.162 67.5352 225.67L67.5288 225.601H68.6714L68.6777 225.67C68.7603 226.584 69.7124 227.162 71.0327 227.162C72.2769 227.162 73.1846 226.521 73.1846 225.588V225.582C73.1846 224.82 72.6577 224.299 71.4009 224.02L70.3853 223.798C68.5508 223.392 67.7573 222.547 67.7573 221.221V221.214C67.7637 219.697 69.0903 218.625 70.9819 218.625C72.8101 218.625 74.0859 219.704 74.1812 221.068L74.1875 221.157H73.0449L73.0322 221.075C72.9053 220.269 72.1436 219.672 70.9502 219.678C69.8076 219.685 68.9253 220.224 68.9253 221.183V221.189C68.9253 221.919 69.4268 222.414 70.6709 222.687L71.6865 222.916C73.5972 223.341 74.3525 224.109 74.3525 225.429V225.436C74.3525 227.149 73.0132 228.216 70.9692 228.216ZM78.9165 228.121C76.9995 228.121 75.7744 226.73 75.7744 224.56V224.547C75.7744 222.42 76.9932 221.037 78.9102 221.037C80.5732 221.037 81.5698 221.995 81.7729 223.214L81.7793 223.252H80.6812L80.6748 223.233C80.5034 222.56 79.894 222.014 78.9102 222.014C77.6787 222.014 76.9043 223.004 76.9043 224.547V224.56C76.9043 226.134 77.6914 227.143 78.9102 227.143C79.8306 227.143 80.4146 226.737 80.6685 225.975L80.6812 225.937L81.7729 225.931L81.7603 226C81.481 227.238 80.5605 228.121 78.9165 228.121ZM83.4551 228V218.44H84.5596V222.186H84.6611C85.0039 221.462 85.645 221.037 86.6543 221.037C88.1904 221.037 89.0474 221.944 89.0474 223.569V228H87.9429V223.836C87.9429 222.604 87.4351 222.014 86.3433 222.014C85.2515 222.014 84.5596 222.75 84.5596 223.95V228H83.4551ZM93.8589 228.121C91.9102 228.121 90.7041 226.775 90.7041 224.585V224.572C90.7041 222.376 91.9102 221.037 93.8589 221.037C95.8076 221.037 97.0137 222.376 97.0137 224.572V224.585C97.0137 226.775 95.8076 228.121 93.8589 228.121ZM93.8589 227.143C95.1538 227.143 95.8838 226.197 95.8838 224.585V224.572C95.8838 222.954 95.1538 222.014 93.8589 222.014C92.564 222.014 91.834 222.954 91.834 224.572V224.585C91.834 226.197 92.564 227.143 93.8589 227.143ZM101.54 228.121C99.5908 228.121 98.3848 226.775 98.3848 224.585V224.572C98.3848 222.376 99.5908 221.037 101.54 221.037C103.488 221.037 104.694 222.376 104.694 224.572V224.585C104.694 226.775 103.488 228.121 101.54 228.121ZM101.54 227.143C102.834 227.143 103.564 226.197 103.564 224.585V224.572C103.564 222.954 102.834 222.014 101.54 222.014C100.245 222.014 99.5146 222.954 99.5146 224.572V224.585C99.5146 226.197 100.245 227.143 101.54 227.143ZM106.472 228V218.44H107.576V228H106.472ZM113.492 228V218.84H116.945C118.666 218.84 119.884 220.027 119.884 221.767V221.779C119.884 223.519 118.666 224.731 116.945 224.731H114.635V228H113.492ZM116.653 219.856H114.635V223.715H116.653C117.961 223.715 118.716 222.998 118.716 221.792V221.779C118.716 220.573 117.961 219.856 116.653 219.856ZM121.617 228V221.157H122.722V222.173H122.823C123.083 221.456 123.725 221.037 124.651 221.037C124.861 221.037 125.096 221.062 125.204 221.081V222.154C124.975 222.116 124.766 222.09 124.524 222.09C123.471 222.09 122.722 222.757 122.722 223.76V228H121.617ZM129.19 228.121C127.241 228.121 126.035 226.775 126.035 224.585V224.572C126.035 222.376 127.241 221.037 129.19 221.037C131.139 221.037 132.345 222.376 132.345 224.572V224.585C132.345 226.775 131.139 228.121 129.19 228.121ZM129.19 227.143C130.485 227.143 131.215 226.197 131.215 224.585V224.572C131.215 222.954 130.485 222.014 129.19 222.014C127.895 222.014 127.165 222.954 127.165 224.572V224.585C127.165 226.197 127.895 227.143 129.19 227.143ZM134.63 219.837C134.211 219.837 133.868 219.494 133.868 219.075C133.868 218.656 134.211 218.313 134.63 218.313C135.049 218.313 135.392 218.656 135.392 219.075C135.392 219.494 135.049 219.837 134.63 219.837ZM133.081 230.349H132.891V229.371H133.056C133.798 229.371 134.078 229.111 134.078 228.355V221.157H135.182V228.336C135.182 229.746 134.516 230.349 133.081 230.349ZM140.063 228.121C138.108 228.121 136.928 226.75 136.928 224.604V224.598C136.928 222.484 138.134 221.037 139.994 221.037C141.854 221.037 142.983 222.42 142.983 224.464V224.896H138.058C138.089 226.312 138.87 227.137 140.089 227.137C141.016 227.137 141.587 226.699 141.771 226.286L141.796 226.229H142.901L142.888 226.28C142.653 227.207 141.676 228.121 140.063 228.121ZM139.987 222.021C138.972 222.021 138.197 222.712 138.077 224.014H141.86C141.746 222.662 140.997 222.021 139.987 222.021ZM147.497 228.121C145.58 228.121 144.354 226.73 144.354 224.56V224.547C144.354 222.42 145.573 221.037 147.49 221.037C149.153 221.037 150.15 221.995 150.353 223.214L150.359 223.252H149.261L149.255 223.233C149.083 222.56 148.474 222.014 147.49 222.014C146.259 222.014 145.484 223.004 145.484 224.547V224.56C145.484 226.134 146.271 227.143 147.49 227.143C148.411 227.143 148.995 226.737 149.249 225.975L149.261 225.937L150.353 225.931L150.34 226C150.061 227.238 149.141 228.121 147.497 228.121ZM154.53 228.051C153.121 228.051 152.53 227.53 152.53 226.223V222.071H151.451V221.157H152.53V219.386H153.673V221.157H155.171V222.071H153.673V225.943C153.673 226.75 153.952 227.073 154.663 227.073C154.86 227.073 154.968 227.067 155.171 227.048V227.987C154.955 228.025 154.746 228.051 154.53 228.051ZM161.062 219.837C160.643 219.837 160.3 219.494 160.3 219.075C160.3 218.656 160.643 218.313 161.062 218.313C161.48 218.313 161.823 218.656 161.823 219.075C161.823 219.494 161.48 219.837 161.062 219.837ZM160.503 228V221.157H161.607V228H160.503ZM163.689 228V221.157H164.794V222.186H164.896C165.238 221.462 165.879 221.037 166.889 221.037C168.425 221.037 169.282 221.944 169.282 223.569V228H168.177V223.836C168.177 222.604 167.669 222.014 166.578 222.014C165.486 222.014 164.794 222.75 164.794 223.95V228H163.689ZM178.924 228.216C176.296 228.216 174.722 226.35 174.722 223.423V223.411C174.722 220.472 176.334 218.625 178.924 218.625C181.526 218.625 183.126 220.478 183.126 223.411V223.423C183.126 225.194 182.542 226.578 181.501 227.397L182.694 229.035H181.412L180.6 227.911C180.098 228.114 179.54 228.216 178.924 228.216ZM178.924 227.162C179.286 227.162 179.628 227.105 179.933 227.003L178.752 225.378H180.035L180.834 226.477C181.552 225.829 181.958 224.763 181.958 223.423V223.411C181.958 221.125 180.796 219.678 178.924 219.678C177.058 219.678 175.89 221.125 175.89 223.411V223.423C175.89 225.689 177.02 227.162 178.924 227.162ZM187.258 228.121C185.703 228.121 184.903 227.207 184.903 225.588V221.157H186.008V225.321C186.008 226.553 186.452 227.143 187.544 227.143C188.75 227.143 189.391 226.407 189.391 225.207V221.157H190.496V228H189.391V226.978H189.29C188.953 227.708 188.261 228.121 187.258 228.121ZM193.143 219.837C192.724 219.837 192.381 219.494 192.381 219.075C192.381 218.656 192.724 218.313 193.143 218.313C193.562 218.313 193.904 218.656 193.904 219.075C193.904 219.494 193.562 219.837 193.143 219.837ZM192.584 228V221.157H193.688V228H192.584ZM198.563 228.121C196.608 228.121 195.428 226.75 195.428 224.604V224.598C195.428 222.484 196.634 221.037 198.494 221.037C200.354 221.037 201.483 222.42 201.483 224.464V224.896H196.558C196.589 226.312 197.37 227.137 198.589 227.137C199.516 227.137 200.087 226.699 200.271 226.286L200.296 226.229H201.401L201.388 226.28C201.153 227.207 200.176 228.121 198.563 228.121ZM198.487 222.021C197.472 222.021 196.697 222.712 196.577 224.014H200.36C200.246 222.662 199.497 222.021 198.487 222.021ZM205.628 228.051C204.219 228.051 203.629 227.53 203.629 226.223V222.071H202.55V221.157H203.629V219.386H204.771V221.157H206.27V222.071H204.771V225.943C204.771 226.75 205.051 227.073 205.762 227.073C205.958 227.073 206.066 227.067 206.27 227.048V227.987C206.054 228.025 205.844 228.051 205.628 228.051ZM211.716 228V218.84H212.827L217.797 225.969H217.898V218.84H219.028V228H217.917L212.947 220.897H212.846V228H211.716ZM224.018 228.121C222.062 228.121 220.882 226.75 220.882 224.604V224.598C220.882 222.484 222.088 221.037 223.948 221.037C225.808 221.037 226.938 222.42 226.938 224.464V224.896H222.012C222.043 226.312 222.824 227.137 224.043 227.137C224.97 227.137 225.541 226.699 225.725 226.286L225.75 226.229H226.855L226.842 226.28C226.607 227.207 225.63 228.121 224.018 228.121ZM223.941 222.021C222.926 222.021 222.151 222.712 222.031 224.014H225.814C225.7 222.662 224.951 222.021 223.941 222.021ZM229.235 219.837C228.816 219.837 228.474 219.494 228.474 219.075C228.474 218.656 228.816 218.313 229.235 218.313C229.654 218.313 229.997 218.656 229.997 219.075C229.997 219.494 229.654 219.837 229.235 219.837ZM228.677 228V221.157H229.781V228H228.677ZM234.682 230.412C233.031 230.412 231.978 229.669 231.806 228.546L231.819 228.54H232.961L232.968 228.546C233.088 229.066 233.698 229.435 234.682 229.435C235.907 229.435 236.637 228.857 236.637 227.848V226.464H236.535C236.104 227.219 235.329 227.645 234.39 227.645C232.619 227.645 231.521 226.273 231.521 224.356V224.344C231.521 222.427 232.625 221.037 234.415 221.037C235.38 221.037 236.129 221.513 236.548 222.287H236.624V221.157H237.729V227.905C237.729 229.435 236.548 230.412 234.682 230.412ZM234.631 226.667C235.9 226.667 236.662 225.715 236.662 224.356V224.344C236.662 222.985 235.894 222.014 234.631 222.014C233.361 222.014 232.65 222.985 232.65 224.344V224.356C232.65 225.715 233.361 226.667 234.631 226.667ZM239.849 228V218.44H240.953V222.186H241.055C241.397 221.462 242.039 221.037 243.048 221.037C244.584 221.037 245.441 221.944 245.441 223.569V228H244.336V223.836C244.336 222.604 243.829 222.014 242.737 222.014C241.645 222.014 240.953 222.75 240.953 223.95V228H239.849ZM250.843 228.121C249.891 228.121 249.129 227.67 248.71 226.908H248.608V228H247.504V218.44H248.608V222.236H248.71C249.084 221.506 249.903 221.037 250.843 221.037C252.582 221.037 253.712 222.427 253.712 224.572V224.585C253.712 226.718 252.576 228.121 250.843 228.121ZM250.589 227.143C251.839 227.143 252.582 226.178 252.582 224.585V224.572C252.582 222.979 251.839 222.014 250.589 222.014C249.345 222.014 248.583 222.992 248.583 224.572V224.585C248.583 226.166 249.345 227.143 250.589 227.143ZM258.238 228.121C256.289 228.121 255.083 226.775 255.083 224.585V224.572C255.083 222.376 256.289 221.037 258.238 221.037C260.187 221.037 261.393 222.376 261.393 224.572V224.585C261.393 226.775 260.187 228.121 258.238 228.121ZM258.238 227.143C259.533 227.143 260.263 226.197 260.263 224.585V224.572C260.263 222.954 259.533 222.014 258.238 222.014C256.943 222.014 256.213 222.954 256.213 224.572V224.585C256.213 226.197 256.943 227.143 258.238 227.143ZM263.106 228V221.157H264.211V222.173H264.312C264.573 221.456 265.214 221.037 266.141 221.037C266.35 221.037 266.585 221.062 266.693 221.081V222.154C266.464 222.116 266.255 222.09 266.014 222.09C264.96 222.09 264.211 222.757 264.211 223.76V228H263.106ZM268.121 228V218.44H269.226V222.186H269.327C269.67 221.462 270.311 221.037 271.32 221.037C272.856 221.037 273.713 221.944 273.713 223.569V228H272.609V223.836C272.609 222.604 272.101 222.014 271.009 222.014C269.917 222.014 269.226 222.75 269.226 223.95V228H268.121ZM278.525 228.121C276.576 228.121 275.37 226.775 275.37 224.585V224.572C275.37 222.376 276.576 221.037 278.525 221.037C280.474 221.037 281.68 222.376 281.68 224.572V224.585C281.68 226.775 280.474 228.121 278.525 228.121ZM278.525 227.143C279.82 227.143 280.55 226.197 280.55 224.585V224.572C280.55 222.954 279.82 222.014 278.525 222.014C277.23 222.014 276.5 222.954 276.5 224.572V224.585C276.5 226.197 277.23 227.143 278.525 227.143ZM286.206 228.121C284.257 228.121 283.051 226.775 283.051 224.585V224.572C283.051 222.376 284.257 221.037 286.206 221.037C288.154 221.037 289.36 222.376 289.36 224.572V224.585C289.36 226.775 288.154 228.121 286.206 228.121ZM286.206 227.143C287.5 227.143 288.23 226.197 288.23 224.585V224.572C288.23 222.954 287.5 222.014 286.206 222.014C284.911 222.014 284.181 222.954 284.181 224.572V224.585C284.181 226.197 284.911 227.143 286.206 227.143ZM293.601 228.121C291.868 228.121 290.731 226.718 290.731 224.585V224.572C290.731 222.427 291.861 221.037 293.601 221.037C294.54 221.037 295.359 221.506 295.733 222.236H295.835V218.44H296.939V228H295.835V226.908H295.733C295.314 227.67 294.553 228.121 293.601 228.121ZM293.854 227.143C295.099 227.143 295.86 226.166 295.86 224.585V224.572C295.86 222.992 295.099 222.014 293.854 222.014C292.604 222.014 291.861 222.979 291.861 224.572V224.585C291.861 226.178 292.604 227.143 293.854 227.143ZM302.855 228V218.84H305.998C308.714 218.84 310.32 220.535 310.32 223.411V223.423C310.32 226.305 308.721 228 305.998 228H302.855ZM303.998 226.972H305.921C307.965 226.972 309.152 225.664 309.152 223.436V223.423C309.152 221.189 307.953 219.869 305.921 219.869H303.998V226.972ZM312.161 228V221.157H313.266V222.173H313.367C313.627 221.456 314.269 221.037 315.195 221.037C315.405 221.037 315.64 221.062 315.748 221.081V222.154C315.519 222.116 315.31 222.09 315.068 222.09C314.015 222.09 313.266 222.757 313.266 223.76V228H312.161ZM318.991 228.121C317.69 228.121 316.706 227.333 316.706 226.089V226.077C316.706 224.858 317.607 224.153 319.201 224.058L321.162 223.938V223.315C321.162 222.471 320.648 222.014 319.626 222.014C318.807 222.014 318.268 222.319 318.09 222.852L318.083 222.871H316.979L316.985 222.833C317.163 221.76 318.204 221.037 319.664 221.037C321.333 221.037 322.267 221.894 322.267 223.315V228H321.162V226.991H321.061C320.629 227.721 319.912 228.121 318.991 228.121ZM317.836 226.064C317.836 226.756 318.426 227.162 319.22 227.162C320.343 227.162 321.162 226.426 321.162 225.448V224.826L319.334 224.94C318.293 225.004 317.836 225.372 317.836 226.051V226.064ZM325.288 228L323.371 221.157H324.476L325.821 226.629H325.923L327.453 221.157H328.5L330.03 226.629H330.131L331.477 221.157H332.575L330.658 228H329.547L328.018 222.706H327.916L326.393 228H325.288ZM336.193 228.121C334.67 228.121 333.623 227.384 333.496 226.254H334.625C334.81 226.826 335.355 227.2 336.231 227.2C337.152 227.2 337.806 226.762 337.806 226.14V226.127C337.806 225.664 337.457 225.34 336.612 225.137L335.552 224.883C334.27 224.579 333.692 224.02 333.692 223.036V223.03C333.692 221.894 334.784 221.037 336.238 221.037C337.672 221.037 338.669 221.754 338.821 222.871H337.736C337.59 222.332 337.057 221.957 336.231 221.957C335.419 221.957 334.822 222.376 334.822 222.979V222.992C334.822 223.455 335.165 223.747 335.971 223.944L337.025 224.198C338.313 224.509 338.936 225.067 338.936 226.045V226.058C338.936 227.276 337.749 228.121 336.193 228.121ZM343.715 228L347.092 218.84H348.222L351.599 228H350.399L349.479 225.378H345.835L344.915 228H343.715ZM347.606 220.319L346.172 224.407H349.143L347.708 220.319H347.606ZM355.116 228.051C353.707 228.051 353.116 227.53 353.116 226.223V222.071H352.037V221.157H353.116V219.386H354.259V221.157H355.757V222.071H354.259V225.943C354.259 226.75 354.538 227.073 355.249 227.073C355.446 227.073 355.554 227.067 355.757 227.048V227.987C355.541 228.025 355.332 228.051 355.116 228.051ZM359.838 228.051C358.429 228.051 357.839 227.53 357.839 226.223V222.071H356.76V221.157H357.839V219.386H358.981V221.157H360.479V222.071H358.981V225.943C358.981 226.75 359.261 227.073 359.972 227.073C360.168 227.073 360.276 227.067 360.479 227.048V227.987C360.264 228.025 360.054 228.051 359.838 228.051ZM364.821 228.121C362.866 228.121 361.686 226.75 361.686 224.604V224.598C361.686 222.484 362.892 221.037 364.751 221.037C366.611 221.037 367.741 222.42 367.741 224.464V224.896H362.815C362.847 226.312 363.628 227.137 364.847 227.137C365.773 227.137 366.345 226.699 366.529 226.286L366.554 226.229H367.659L367.646 226.28C367.411 227.207 366.434 228.121 364.821 228.121ZM364.745 222.021C363.729 222.021 362.955 222.712 362.834 224.014H366.618C366.503 222.662 365.754 222.021 364.745 222.021ZM369.455 228V221.157H370.56V222.186H370.661C371.004 221.462 371.645 221.037 372.654 221.037C374.19 221.037 375.047 221.944 375.047 223.569V228H373.943V223.836C373.943 222.604 373.435 222.014 372.343 222.014C371.251 222.014 370.56 222.75 370.56 223.95V228H369.455ZM379.478 228.051C378.069 228.051 377.479 227.53 377.479 226.223V222.071H376.399V221.157H377.479V219.386H378.621V221.157H380.119V222.071H378.621V225.943C378.621 226.75 378.9 227.073 379.611 227.073C379.808 227.073 379.916 227.067 380.119 227.048V227.987C379.903 228.025 379.694 228.051 379.478 228.051ZM382.354 219.837C381.935 219.837 381.592 219.494 381.592 219.075C381.592 218.656 381.935 218.313 382.354 218.313C382.772 218.313 383.115 218.656 383.115 219.075C383.115 219.494 382.772 219.837 382.354 219.837ZM381.795 228V221.157H382.899V228H381.795ZM387.793 228.121C385.845 228.121 384.639 226.775 384.639 224.585V224.572C384.639 222.376 385.845 221.037 387.793 221.037C389.742 221.037 390.948 222.376 390.948 224.572V224.585C390.948 226.775 389.742 228.121 387.793 228.121ZM387.793 227.143C389.088 227.143 389.818 226.197 389.818 224.585V224.572C389.818 222.954 389.088 222.014 387.793 222.014C386.499 222.014 385.769 222.954 385.769 224.572V224.585C385.769 226.197 386.499 227.143 387.793 227.143ZM392.662 228V221.157H393.767V222.186H393.868C394.211 221.462 394.852 221.037 395.861 221.037C397.397 221.037 398.254 221.944 398.254 223.569V228H397.15V223.836C397.15 222.604 396.642 222.014 395.55 222.014C394.458 222.014 393.767 222.75 393.767 223.95V228H392.662Z" fill="black"/>
<rect x="568.5" y="211.5" width="23" height="23" rx="11.5" fill="white"/>
<rect x="568.5" y="211.5" width="23" height="23" rx="11.5" stroke="#E3E3E3"/>
<path d="M583.5 223.5H580.5V226.5H579.5V223.5H576.5V222.5H579.5V219.5H580.5V222.5H583.5V223.5Z" fill="#6E6E6E"/>
<path d="M28 245C28 242.791 29.7909 241 32 241H576C578.209 241 580 242.791 580 245V261C580 263.209 578.209 265 576 265H32C29.7909 265 28 263.209 28 261V245Z" fill="#F0F0F0"/>
<path d="M40.1704 258.216C38.1646 258.216 36.8696 257.162 36.7363 255.67L36.73 255.601H37.8726L37.8789 255.67C37.9614 256.584 38.9136 257.162 40.2339 257.162C41.478 257.162 42.3857 256.521 42.3857 255.588V255.582C42.3857 254.82 41.8589 254.299 40.6021 254.02L39.5864 253.798C37.752 253.392 36.9585 252.547 36.9585 251.221V251.214C36.9648 249.697 38.2915 248.625 40.1831 248.625C42.0112 248.625 43.2871 249.704 43.3823 251.068L43.3887 251.157H42.2461L42.2334 251.075C42.1064 250.269 41.3447 249.672 40.1514 249.678C39.0088 249.685 38.1265 250.224 38.1265 251.183V251.189C38.1265 251.919 38.6279 252.414 39.8721 252.687L40.8877 252.916C42.7983 253.341 43.5537 254.109 43.5537 255.429V255.436C43.5537 257.149 42.2144 258.216 40.1704 258.216ZM48.1177 258.121C46.2007 258.121 44.9756 256.73 44.9756 254.56V254.547C44.9756 252.42 46.1943 251.037 48.1113 251.037C49.7744 251.037 50.771 251.995 50.9741 253.214L50.9805 253.252H49.8823L49.876 253.233C49.7046 252.56 49.0952 252.014 48.1113 252.014C46.8799 252.014 46.1055 253.004 46.1055 254.547V254.56C46.1055 256.134 46.8926 257.143 48.1113 257.143C49.0317 257.143 49.6157 256.737 49.8696 255.975L49.8823 255.937L50.9741 255.931L50.9614 256C50.6821 257.238 49.7617 258.121 48.1177 258.121ZM52.6562 258V248.44H53.7607V252.186H53.8623C54.2051 251.462 54.8462 251.037 55.8555 251.037C57.3916 251.037 58.2485 251.944 58.2485 253.569V258H57.144V253.836C57.144 252.604 56.6362 252.014 55.5444 252.014C54.4526 252.014 53.7607 252.75 53.7607 253.95V258H52.6562ZM63.0601 258.121C61.1113 258.121 59.9053 256.775 59.9053 254.585V254.572C59.9053 252.376 61.1113 251.037 63.0601 251.037C65.0088 251.037 66.2148 252.376 66.2148 254.572V254.585C66.2148 256.775 65.0088 258.121 63.0601 258.121ZM63.0601 257.143C64.355 257.143 65.085 256.197 65.085 254.585V254.572C65.085 252.954 64.355 252.014 63.0601 252.014C61.7651 252.014 61.0352 252.954 61.0352 254.572V254.585C61.0352 256.197 61.7651 257.143 63.0601 257.143ZM70.7407 258.121C68.792 258.121 67.5859 256.775 67.5859 254.585V254.572C67.5859 252.376 68.792 251.037 70.7407 251.037C72.6895 251.037 73.8955 252.376 73.8955 254.572V254.585C73.8955 256.775 72.6895 258.121 70.7407 258.121ZM70.7407 257.143C72.0356 257.143 72.7656 256.197 72.7656 254.585V254.572C72.7656 252.954 72.0356 252.014 70.7407 252.014C69.4458 252.014 68.7158 252.954 68.7158 254.572V254.585C68.7158 256.197 69.4458 257.143 70.7407 257.143ZM75.6729 258V248.44H76.7773V258H75.6729ZM82.6934 258V248.84H85.8354C88.5522 248.84 90.1582 250.535 90.1582 253.411V253.423C90.1582 256.305 88.5586 258 85.8354 258H82.6934ZM83.8359 256.972H85.7593C87.8032 256.972 88.9902 255.664 88.9902 253.436V253.423C88.9902 251.189 87.7905 249.869 85.7593 249.869H83.8359V256.972ZM94.792 258.121C92.8369 258.121 91.6562 256.75 91.6562 254.604V254.598C91.6562 252.484 92.8623 251.037 94.7222 251.037C96.582 251.037 97.7119 252.42 97.7119 254.464V254.896H92.7861C92.8179 256.312 93.5986 257.137 94.8174 257.137C95.7441 257.137 96.3154 256.699 96.4995 256.286L96.5249 256.229H97.6294L97.6167 256.28C97.3818 257.207 96.4043 258.121 94.792 258.121ZM94.7158 252.021C93.7002 252.021 92.9258 252.712 92.8052 254.014H96.5884C96.4741 252.662 95.7251 252.021 94.7158 252.021ZM101.235 258L98.7021 251.157H99.8701L101.743 256.794H101.844L103.717 251.157H104.885L102.352 258H101.235ZM108.884 258.121C106.929 258.121 105.748 256.75 105.748 254.604V254.598C105.748 252.484 106.954 251.037 108.814 251.037C110.674 251.037 111.804 252.42 111.804 254.464V254.896H106.878C106.91 256.312 107.69 257.137 108.909 257.137C109.836 257.137 110.407 256.699 110.591 256.286L110.617 256.229H111.721L111.708 256.28C111.474 257.207 110.496 258.121 108.884 258.121ZM108.808 252.021C107.792 252.021 107.018 252.712 106.897 254.014H110.68C110.566 252.662 109.817 252.021 108.808 252.021ZM113.581 258V248.44H114.686V258H113.581ZM119.618 258.121C117.669 258.121 116.463 256.775 116.463 254.585V254.572C116.463 252.376 117.669 251.037 119.618 251.037C121.566 251.037 122.772 252.376 122.772 254.572V254.585C122.772 256.775 121.566 258.121 119.618 258.121ZM119.618 257.143C120.913 257.143 121.643 256.197 121.643 254.585V254.572C121.643 252.954 120.913 252.014 119.618 252.014C118.323 252.014 117.593 252.954 117.593 254.572V254.585C117.593 256.197 118.323 257.143 119.618 257.143ZM124.486 260.285V251.157H125.591V252.249H125.692C126.111 251.487 126.873 251.037 127.825 251.037C129.558 251.037 130.694 252.439 130.694 254.572V254.585C130.694 256.73 129.564 258.121 127.825 258.121C126.886 258.121 126.067 257.651 125.692 256.921H125.591V260.285H124.486ZM127.571 257.143C128.822 257.143 129.564 256.178 129.564 254.585V254.572C129.564 252.979 128.822 252.014 127.571 252.014C126.327 252.014 125.565 252.992 125.565 254.572V254.585C125.565 256.166 126.327 257.143 127.571 257.143ZM132.421 258V251.157H133.525V252.198H133.627C133.932 251.462 134.579 251.037 135.474 251.037C136.401 251.037 137.048 251.525 137.366 252.236H137.467C137.835 251.513 138.616 251.037 139.562 251.037C140.958 251.037 141.739 251.836 141.739 253.271V258H140.635V253.525C140.635 252.516 140.171 252.014 139.207 252.014C138.254 252.014 137.626 252.731 137.626 253.601V258H136.521V253.354C136.521 252.541 135.963 252.014 135.1 252.014C134.205 252.014 133.525 252.795 133.525 253.76V258H132.421ZM146.525 258.121C144.57 258.121 143.39 256.75 143.39 254.604V254.598C143.39 252.484 144.596 251.037 146.456 251.037C148.315 251.037 149.445 252.42 149.445 254.464V254.896H144.52C144.551 256.312 145.332 257.137 146.551 257.137C147.478 257.137 148.049 256.699 148.233 256.286L148.258 256.229H149.363L149.35 256.28C149.115 257.207 148.138 258.121 146.525 258.121ZM146.449 252.021C145.434 252.021 144.659 252.712 144.539 254.014H148.322C148.208 252.662 147.458 252.021 146.449 252.021ZM151.159 258V251.157H152.264V252.186H152.365C152.708 251.462 153.349 251.037 154.358 251.037C155.895 251.037 156.751 251.944 156.751 253.569V258H155.647V253.836C155.647 252.604 155.139 252.014 154.047 252.014C152.956 252.014 152.264 252.75 152.264 253.95V258H151.159ZM161.182 258.051C159.773 258.051 159.183 257.53 159.183 256.223V252.071H158.104V251.157H159.183V249.386H160.325V251.157H161.823V252.071H160.325V255.943C160.325 256.75 160.604 257.073 161.315 257.073C161.512 257.073 161.62 257.067 161.823 257.048V257.987C161.607 258.025 161.398 258.051 161.182 258.051ZM167.714 249.837C167.295 249.837 166.952 249.494 166.952 249.075C166.952 248.656 167.295 248.313 167.714 248.313C168.133 248.313 168.476 248.656 168.476 249.075C168.476 249.494 168.133 249.837 167.714 249.837ZM167.155 258V251.157H168.26V258H167.155ZM170.342 258V251.157H171.446V252.186H171.548C171.891 251.462 172.532 251.037 173.541 251.037C175.077 251.037 175.934 251.944 175.934 253.569V258H174.83V253.836C174.83 252.604 174.322 252.014 173.23 252.014C172.138 252.014 171.446 252.75 171.446 253.95V258H170.342ZM183.469 258.121C182.167 258.121 181.184 257.333 181.184 256.089V256.077C181.184 254.858 182.085 254.153 183.678 254.058L185.64 253.938V253.315C185.64 252.471 185.125 252.014 184.104 252.014C183.285 252.014 182.745 252.319 182.567 252.852L182.561 252.871H181.457L181.463 252.833C181.641 251.76 182.682 251.037 184.142 251.037C185.811 251.037 186.744 251.894 186.744 253.315V258H185.64V256.991H185.538C185.106 257.721 184.389 258.121 183.469 258.121ZM182.313 256.064C182.313 256.756 182.904 257.162 183.697 257.162C184.821 257.162 185.64 256.426 185.64 255.448V254.826L183.812 254.94C182.771 255.004 182.313 255.372 182.313 256.051V256.064ZM196.405 258.216C193.777 258.216 192.203 256.35 192.203 253.423V253.411C192.203 250.472 193.815 248.625 196.405 248.625C199.008 248.625 200.607 250.478 200.607 253.411V253.423C200.607 255.194 200.023 256.578 198.982 257.397L200.176 259.035H198.894L198.081 257.911C197.58 258.114 197.021 258.216 196.405 258.216ZM196.405 257.162C196.767 257.162 197.11 257.105 197.415 257.003L196.234 255.378H197.516L198.316 256.477C199.033 255.829 199.439 254.763 199.439 253.423V253.411C199.439 251.125 198.278 249.678 196.405 249.678C194.539 249.678 193.371 251.125 193.371 253.411V253.423C193.371 255.689 194.501 257.162 196.405 257.162ZM204.74 258.121C203.185 258.121 202.385 257.207 202.385 255.588V251.157H203.489V255.321C203.489 256.553 203.934 257.143 205.025 257.143C206.231 257.143 206.873 256.407 206.873 255.207V251.157H207.977V258H206.873V256.978H206.771C206.435 257.708 205.743 258.121 204.74 258.121ZM210.624 249.837C210.205 249.837 209.862 249.494 209.862 249.075C209.862 248.656 210.205 248.313 210.624 248.313C211.043 248.313 211.386 248.656 211.386 249.075C211.386 249.494 211.043 249.837 210.624 249.837ZM210.065 258V251.157H211.17V258H210.065ZM216.045 258.121C214.09 258.121 212.909 256.75 212.909 254.604V254.598C212.909 252.484 214.115 251.037 215.975 251.037C217.835 251.037 218.965 252.42 218.965 254.464V254.896H214.039C214.071 256.312 214.852 257.137 216.07 257.137C216.997 257.137 217.568 256.699 217.752 256.286L217.778 256.229H218.882L218.87 256.28C218.635 257.207 217.657 258.121 216.045 258.121ZM215.969 252.021C214.953 252.021 214.179 252.712 214.058 254.014H217.841C217.727 252.662 216.978 252.021 215.969 252.021ZM223.11 258.051C221.701 258.051 221.11 257.53 221.11 256.223V252.071H220.031V251.157H221.11V249.386H222.253V251.157H223.751V252.071H222.253V255.943C222.253 256.75 222.532 257.073 223.243 257.073C223.44 257.073 223.548 257.067 223.751 257.048V257.987C223.535 258.025 223.326 258.051 223.11 258.051ZM229.197 258V248.84H232.695C234.459 248.84 235.615 249.919 235.615 251.563V251.576C235.615 252.846 234.923 253.836 233.774 254.198L235.894 258H234.555L232.593 254.375H230.34V258H229.197ZM230.34 253.36H232.593C233.768 253.36 234.434 252.731 234.434 251.614V251.602C234.434 250.51 233.723 249.856 232.542 249.856H230.34V253.36ZM240.153 258.121C238.198 258.121 237.018 256.75 237.018 254.604V254.598C237.018 252.484 238.224 251.037 240.083 251.037C241.943 251.037 243.073 252.42 243.073 254.464V254.896H238.147C238.179 256.312 238.96 257.137 240.179 257.137C241.105 257.137 241.677 256.699 241.861 256.286L241.886 256.229H242.991L242.978 256.28C242.743 257.207 241.766 258.121 240.153 258.121ZM240.077 252.021C239.062 252.021 238.287 252.712 238.167 254.014H241.95C241.835 252.662 241.086 252.021 240.077 252.021ZM247.136 258.121C245.612 258.121 244.565 257.384 244.438 256.254H245.568C245.752 256.826 246.298 257.2 247.174 257.2C248.094 257.2 248.748 256.762 248.748 256.14V256.127C248.748 255.664 248.399 255.34 247.555 255.137L246.495 254.883C245.212 254.579 244.635 254.02 244.635 253.036V253.03C244.635 251.894 245.727 251.037 247.18 251.037C248.615 251.037 249.611 251.754 249.764 252.871H248.678C248.532 252.332 247.999 251.957 247.174 251.957C246.361 251.957 245.765 252.376 245.765 252.979V252.992C245.765 253.455 246.107 253.747 246.914 253.944L247.967 254.198C249.256 254.509 249.878 255.067 249.878 256.045V256.058C249.878 257.276 248.691 258.121 247.136 258.121ZM252.176 249.837C251.757 249.837 251.414 249.494 251.414 249.075C251.414 248.656 251.757 248.313 252.176 248.313C252.595 248.313 252.938 248.656 252.938 249.075C252.938 249.494 252.595 249.837 252.176 249.837ZM251.617 258V251.157H252.722V258H251.617ZM257.33 258.121C255.597 258.121 254.461 256.718 254.461 254.585V254.572C254.461 252.427 255.591 251.037 257.33 251.037C258.27 251.037 259.088 251.506 259.463 252.236H259.564V248.44H260.669V258H259.564V256.908H259.463C259.044 257.67 258.282 258.121 257.33 258.121ZM257.584 257.143C258.828 257.143 259.59 256.166 259.59 254.585V254.572C259.59 252.992 258.828 252.014 257.584 252.014C256.333 252.014 255.591 252.979 255.591 254.572V254.585C255.591 256.178 256.333 257.143 257.584 257.143ZM265.582 258.121C263.627 258.121 262.446 256.75 262.446 254.604V254.598C262.446 252.484 263.652 251.037 265.512 251.037C267.372 251.037 268.502 252.42 268.502 254.464V254.896H263.576C263.608 256.312 264.389 257.137 265.607 257.137C266.534 257.137 267.105 256.699 267.29 256.286L267.315 256.229H268.419L268.407 256.28C268.172 257.207 267.194 258.121 265.582 258.121ZM265.506 252.021C264.49 252.021 263.716 252.712 263.595 254.014H267.378C267.264 252.662 266.515 252.021 265.506 252.021ZM270.216 258V251.157H271.32V252.186H271.422C271.765 251.462 272.406 251.037 273.415 251.037C274.951 251.037 275.808 251.944 275.808 253.569V258H274.704V253.836C274.704 252.604 274.196 252.014 273.104 252.014C272.012 252.014 271.32 252.75 271.32 253.95V258H270.216ZM280.239 258.051C278.83 258.051 278.239 257.53 278.239 256.223V252.071H277.16V251.157H278.239V249.386H279.382V251.157H280.88V252.071H279.382V255.943C279.382 256.75 279.661 257.073 280.372 257.073C280.569 257.073 280.677 257.067 280.88 257.048V257.987C280.664 258.025 280.455 258.051 280.239 258.051ZM283.114 249.837C282.695 249.837 282.353 249.494 282.353 249.075C282.353 248.656 282.695 248.313 283.114 248.313C283.533 248.313 283.876 248.656 283.876 249.075C283.876 249.494 283.533 249.837 283.114 249.837ZM282.556 258V251.157H283.66V258H282.556ZM287.621 258.121C286.32 258.121 285.336 257.333 285.336 256.089V256.077C285.336 254.858 286.237 254.153 287.831 254.058L289.792 253.938V253.315C289.792 252.471 289.278 252.014 288.256 252.014C287.437 252.014 286.897 252.319 286.72 252.852L286.713 252.871H285.609L285.615 252.833C285.793 251.76 286.834 251.037 288.294 251.037C289.963 251.037 290.896 251.894 290.896 253.315V258H289.792V256.991H289.69C289.259 257.721 288.542 258.121 287.621 258.121ZM286.466 256.064C286.466 256.756 287.056 257.162 287.85 257.162C288.973 257.162 289.792 256.426 289.792 255.448V254.826L287.964 254.94C286.923 255.004 286.466 255.372 286.466 256.051V256.064ZM292.979 258V248.44H294.083V258H292.979ZM299.269 258L302.646 248.84H303.776L307.153 258H305.953L305.033 255.378H301.389L300.469 258H299.269ZM303.16 250.319L301.726 254.407H304.696L303.262 250.319H303.16ZM308.619 258V251.157H309.724V252.173H309.825C310.085 251.456 310.727 251.037 311.653 251.037C311.863 251.037 312.098 251.062 312.206 251.081V252.154C311.977 252.116 311.768 252.09 311.526 252.09C310.473 252.09 309.724 252.757 309.724 253.76V258H308.619ZM316.173 258.121C314.218 258.121 313.037 256.75 313.037 254.604V254.598C313.037 252.484 314.243 251.037 316.103 251.037C317.963 251.037 319.093 252.42 319.093 254.464V254.896H314.167C314.199 256.312 314.979 257.137 316.198 257.137C317.125 257.137 317.696 256.699 317.88 256.286L317.906 256.229H319.01L318.998 256.28C318.763 257.207 317.785 258.121 316.173 258.121ZM316.097 252.021C315.081 252.021 314.307 252.712 314.186 254.014H317.969C317.855 252.662 317.106 252.021 316.097 252.021ZM322.686 258.121C321.384 258.121 320.4 257.333 320.4 256.089V256.077C320.4 254.858 321.302 254.153 322.895 254.058L324.856 253.938V253.315C324.856 252.471 324.342 252.014 323.32 252.014C322.501 252.014 321.962 252.319 321.784 252.852L321.778 252.871H320.673L320.68 252.833C320.857 251.76 321.898 251.037 323.358 251.037C325.028 251.037 325.961 251.894 325.961 253.315V258H324.856V256.991H324.755C324.323 257.721 323.606 258.121 322.686 258.121ZM321.53 256.064C321.53 256.756 322.121 257.162 322.914 257.162C324.038 257.162 324.856 256.426 324.856 255.448V254.826L323.028 254.94C321.987 255.004 321.53 255.372 321.53 256.051V256.064ZM328.881 253.15C328.43 253.15 328.056 252.776 328.056 252.325C328.056 251.868 328.43 251.5 328.881 251.5C329.338 251.5 329.706 251.868 329.706 252.325C329.706 252.776 329.338 253.15 328.881 253.15ZM328.881 258.063C328.43 258.063 328.056 257.689 328.056 257.238C328.056 256.781 328.43 256.413 328.881 256.413C329.338 256.413 329.706 256.781 329.706 257.238C329.706 257.689 329.338 258.063 328.881 258.063ZM339.481 258.216C336.854 258.216 335.279 256.35 335.279 253.423V253.411C335.279 250.472 336.892 248.625 339.481 248.625C342.084 248.625 343.684 250.478 343.684 253.411V253.423C343.684 256.343 342.097 258.216 339.481 258.216ZM339.481 257.162C341.36 257.162 342.516 255.689 342.516 253.423V253.411C342.516 251.125 341.354 249.678 339.481 249.678C337.615 249.678 336.447 251.125 336.447 253.411V253.423C336.447 255.689 337.577 257.162 339.481 257.162ZM345.524 260.285V251.157H346.629V252.249H346.73C347.149 251.487 347.911 251.037 348.863 251.037C350.596 251.037 351.732 252.439 351.732 254.572V254.585C351.732 256.73 350.603 258.121 348.863 258.121C347.924 258.121 347.105 257.651 346.73 256.921H346.629V260.285H345.524ZM348.609 257.143C349.86 257.143 350.603 256.178 350.603 254.585V254.572C350.603 252.979 349.86 252.014 348.609 252.014C347.365 252.014 346.604 252.992 346.604 254.572V254.585C346.604 256.166 347.365 257.143 348.609 257.143ZM353.459 260.285V251.157H354.563V252.249H354.665C355.084 251.487 355.846 251.037 356.798 251.037C358.531 251.037 359.667 252.439 359.667 254.572V254.585C359.667 256.73 358.537 258.121 356.798 258.121C355.858 258.121 355.04 257.651 354.665 256.921H354.563V260.285H353.459ZM356.544 257.143C357.794 257.143 358.537 256.178 358.537 254.585V254.572C358.537 252.979 357.794 252.014 356.544 252.014C355.3 252.014 354.538 252.992 354.538 254.572V254.585C354.538 256.166 355.3 257.143 356.544 257.143ZM364.206 258.121C362.257 258.121 361.051 256.775 361.051 254.585V254.572C361.051 252.376 362.257 251.037 364.206 251.037C366.154 251.037 367.36 252.376 367.36 254.572V254.585C367.36 256.775 366.154 258.121 364.206 258.121ZM364.206 257.143C365.5 257.143 366.23 256.197 366.23 254.585V254.572C366.23 252.954 365.5 252.014 364.206 252.014C362.911 252.014 362.181 252.954 362.181 254.572V254.585C362.181 256.197 362.911 257.143 364.206 257.143ZM369.074 258V251.157H370.179V252.173H370.28C370.541 251.456 371.182 251.037 372.108 251.037C372.318 251.037 372.553 251.062 372.661 251.081V252.154C372.432 252.116 372.223 252.09 371.981 252.09C370.928 252.09 370.179 252.757 370.179 253.76V258H369.074ZM376.583 258.051C375.174 258.051 374.584 257.53 374.584 256.223V252.071H373.505V251.157H374.584V249.386H375.727V251.157H377.225V252.071H375.727V255.943C375.727 256.75 376.006 257.073 376.717 257.073C376.914 257.073 377.021 257.067 377.225 257.048V257.987C377.009 258.025 376.799 258.051 376.583 258.051ZM381.167 258.121C379.611 258.121 378.812 257.207 378.812 255.588V251.157H379.916V255.321C379.916 256.553 380.36 257.143 381.452 257.143C382.658 257.143 383.299 256.407 383.299 255.207V251.157H384.404V258H383.299V256.978H383.198C382.861 257.708 382.169 258.121 381.167 258.121ZM386.467 258V251.157H387.571V252.186H387.673C388.016 251.462 388.657 251.037 389.666 251.037C391.202 251.037 392.059 251.944 392.059 253.569V258H390.955V253.836C390.955 252.604 390.447 252.014 389.355 252.014C388.263 252.014 387.571 252.75 387.571 253.95V258H386.467ZM394.643 249.837C394.224 249.837 393.881 249.494 393.881 249.075C393.881 248.656 394.224 248.313 394.643 248.313C395.062 248.313 395.404 248.656 395.404 249.075C395.404 249.494 395.062 249.837 394.643 249.837ZM394.084 258V251.157H395.188V258H394.084ZM399.702 258.051C398.292 258.051 397.702 257.53 397.702 256.223V252.071H396.623V251.157H397.702V249.386H398.845V251.157H400.343V252.071H398.845V255.943C398.845 256.75 399.124 257.073 399.835 257.073C400.032 257.073 400.14 257.067 400.343 257.048V257.987C400.127 258.025 399.917 258.051 399.702 258.051ZM402.577 249.837C402.158 249.837 401.815 249.494 401.815 249.075C401.815 248.656 402.158 248.313 402.577 248.313C402.996 248.313 403.339 248.656 403.339 249.075C403.339 249.494 402.996 249.837 402.577 249.837ZM402.019 258V251.157H403.123V258H402.019ZM407.998 258.121C406.043 258.121 404.862 256.75 404.862 254.604V254.598C404.862 252.484 406.068 251.037 407.928 251.037C409.788 251.037 410.918 252.42 410.918 254.464V254.896H405.992C406.024 256.312 406.805 257.137 408.023 257.137C408.95 257.137 409.521 256.699 409.706 256.286L409.731 256.229H410.835L410.823 256.28C410.588 257.207 409.61 258.121 407.998 258.121ZM407.922 252.021C406.906 252.021 406.132 252.712 406.011 254.014H409.794C409.68 252.662 408.931 252.021 407.922 252.021ZM414.98 258.121C413.457 258.121 412.41 257.384 412.283 256.254H413.413C413.597 256.826 414.143 257.2 415.019 257.2C415.939 257.2 416.593 256.762 416.593 256.14V256.127C416.593 255.664 416.244 255.34 415.399 255.137L414.339 254.883C413.057 254.579 412.479 254.02 412.479 253.036V253.03C412.479 251.894 413.571 251.037 415.025 251.037C416.459 251.037 417.456 251.754 417.608 252.871H416.523C416.377 252.332 415.844 251.957 415.019 251.957C414.206 251.957 413.609 252.376 413.609 252.979V252.992C413.609 253.455 413.952 253.747 414.758 253.944L415.812 254.198C417.101 254.509 417.723 255.067 417.723 256.045V256.058C417.723 257.276 416.536 258.121 414.98 258.121ZM424.972 258.121C423.67 258.121 422.687 257.333 422.687 256.089V256.077C422.687 254.858 423.588 254.153 425.181 254.058L427.143 253.938V253.315C427.143 252.471 426.628 252.014 425.606 252.014C424.788 252.014 424.248 252.319 424.07 252.852L424.064 252.871H422.959L422.966 252.833C423.144 251.76 424.185 251.037 425.645 251.037C427.314 251.037 428.247 251.894 428.247 253.315V258H427.143V256.991H427.041C426.609 257.721 425.892 258.121 424.972 258.121ZM423.816 256.064C423.816 256.756 424.407 257.162 425.2 257.162C426.324 257.162 427.143 256.426 427.143 255.448V254.826L425.314 254.94C424.273 255.004 423.816 255.372 423.816 256.051V256.064ZM430.266 258V251.157H431.37V252.186H431.472C431.814 251.462 432.456 251.037 433.465 251.037C435.001 251.037 435.858 251.944 435.858 253.569V258H434.753V253.836C434.753 252.604 434.246 252.014 433.154 252.014C432.062 252.014 431.37 252.75 431.37 253.95V258H430.266ZM440.384 258.121C438.651 258.121 437.515 256.718 437.515 254.585V254.572C437.515 252.427 438.645 251.037 440.384 251.037C441.323 251.037 442.142 251.506 442.517 252.236H442.618V248.44H443.723V258H442.618V256.908H442.517C442.098 257.67 441.336 258.121 440.384 258.121ZM440.638 257.143C441.882 257.143 442.644 256.166 442.644 254.585V254.572C442.644 252.992 441.882 252.014 440.638 252.014C439.387 252.014 438.645 252.979 438.645 254.572V254.585C438.645 256.178 439.387 257.143 440.638 257.143ZM453.485 258.216C450.857 258.216 449.283 256.35 449.283 253.423V253.411C449.283 250.472 450.896 248.625 453.485 248.625C456.088 248.625 457.688 250.478 457.688 253.411V253.423C457.688 256.343 456.101 258.216 453.485 258.216ZM453.485 257.162C455.364 257.162 456.52 255.689 456.52 253.423V253.411C456.52 251.125 455.358 249.678 453.485 249.678C451.619 249.678 450.451 251.125 450.451 253.411V253.423C450.451 255.689 451.581 257.162 453.485 257.162ZM461.82 258.121C460.265 258.121 459.465 257.207 459.465 255.588V251.157H460.569V255.321C460.569 256.553 461.014 257.143 462.105 257.143C463.312 257.143 463.953 256.407 463.953 255.207V251.157H465.057V258H463.953V256.978H463.851C463.515 257.708 462.823 258.121 461.82 258.121ZM469.551 258.051C468.142 258.051 467.552 257.53 467.552 256.223V252.071H466.473V251.157H467.552V249.386H468.694V251.157H470.192V252.071H468.694V255.943C468.694 256.75 468.974 257.073 469.685 257.073C469.881 257.073 469.989 257.067 470.192 257.048V257.987C469.977 258.025 469.767 258.051 469.551 258.051ZM471.906 258V248.44H473.011V258H471.906ZM477.943 258.121C475.994 258.121 474.788 256.775 474.788 254.585V254.572C474.788 252.376 475.994 251.037 477.943 251.037C479.892 251.037 481.098 252.376 481.098 254.572V254.585C481.098 256.775 479.892 258.121 477.943 258.121ZM477.943 257.143C479.238 257.143 479.968 256.197 479.968 254.585V254.572C479.968 252.954 479.238 252.014 477.943 252.014C476.648 252.014 475.918 252.954 475.918 254.572V254.585C475.918 256.197 476.648 257.143 477.943 257.143ZM485.624 258.121C483.675 258.121 482.469 256.775 482.469 254.585V254.572C482.469 252.376 483.675 251.037 485.624 251.037C487.572 251.037 488.778 252.376 488.778 254.572V254.585C488.778 256.775 487.572 258.121 485.624 258.121ZM485.624 257.143C486.918 257.143 487.648 256.197 487.648 254.585V254.572C487.648 252.954 486.918 252.014 485.624 252.014C484.329 252.014 483.599 252.954 483.599 254.572V254.585C483.599 256.197 484.329 257.143 485.624 257.143ZM490.556 258V248.44H491.66V254.147H491.762L494.72 251.157H496.059L493.076 254.033L496.256 258H494.866L492.301 254.782L491.66 255.404V258H490.556Z" fill="black"/>
<rect x="568.5" y="241.5" width="23" height="23" rx="11.5" fill="white"/>
<rect x="568.5" y="241.5" width="23" height="23" rx="11.5" stroke="#E3E3E3"/>
<path d="M583.5 253.5H580.5V256.5H579.5V253.5H576.5V252.5H579.5V249.5H580.5V252.5H583.5V253.5Z" fill="#6E6E6E"/>
<path d="M28 275C28 272.791 29.7909 271 32 271H576C578.209 271 580 272.791 580 275V291C580 293.209 578.209 295 576 295H32C29.7909 295 28 293.209 28 291V275Z" fill="#F8F8F8"/>
<path d="M37.168 288V278.84H40.6211C42.3413 278.84 43.5601 280.027 43.5601 281.767V281.779C43.5601 283.519 42.3413 284.731 40.6211 284.731H38.3105V288H37.168ZM40.3291 279.856H38.3105V283.715H40.3291C41.6367 283.715 42.3921 282.998 42.3921 281.792V281.779C42.3921 280.573 41.6367 279.856 40.3291 279.856ZM45.3564 288V278.44H46.4609V288H45.3564ZM50.46 288.121C49.1587 288.121 48.1748 287.333 48.1748 286.089V286.077C48.1748 284.858 49.0762 284.153 50.6694 284.058L52.6309 283.938V283.315C52.6309 282.471 52.1167 282.014 51.0947 282.014C50.2759 282.014 49.7363 282.319 49.5586 282.852L49.5522 282.871H48.4478L48.4541 282.833C48.6318 281.76 49.6729 281.037 51.1328 281.037C52.8022 281.037 53.7354 281.894 53.7354 283.315V288H52.6309V286.991H52.5293C52.0977 287.721 51.3804 288.121 50.46 288.121ZM49.3047 286.064C49.3047 286.756 49.895 287.162 50.6885 287.162C51.812 287.162 52.6309 286.426 52.6309 285.448V284.826L50.8027 284.94C49.7617 285.004 49.3047 285.372 49.3047 286.051V286.064ZM55.7539 288V281.157H56.8584V282.186H56.96C57.3027 281.462 57.9438 281.037 58.9531 281.037C60.4893 281.037 61.3462 281.944 61.3462 283.569V288H60.2417V283.836C60.2417 282.604 59.7339 282.014 58.6421 282.014C57.5503 282.014 56.8584 282.75 56.8584 283.95V288H55.7539ZM63.3457 288V281.157H64.4502V282.186H64.5518C64.8945 281.462 65.5356 281.037 66.5449 281.037C68.0811 281.037 68.938 281.944 68.938 283.569V288H67.8335V283.836C67.8335 282.604 67.3257 282.014 66.2339 282.014C65.1421 282.014 64.4502 282.75 64.4502 283.95V288H63.3457ZM73.7305 288.121C71.7754 288.121 70.5947 286.75 70.5947 284.604V284.598C70.5947 282.484 71.8008 281.037 73.6606 281.037C75.5205 281.037 76.6504 282.42 76.6504 284.464V284.896H71.7246C71.7563 286.312 72.5371 287.137 73.7559 287.137C74.6826 287.137 75.2539 286.699 75.438 286.286L75.4634 286.229H76.5679L76.5552 286.28C76.3203 287.207 75.3428 288.121 73.7305 288.121ZM73.6543 282.021C72.6387 282.021 71.8643 282.712 71.7437 284.014H75.5269C75.4126 282.662 74.6636 282.021 73.6543 282.021ZM80.8906 288.121C79.1577 288.121 78.0215 286.718 78.0215 284.585V284.572C78.0215 282.427 79.1514 281.037 80.8906 281.037C81.8301 281.037 82.6489 281.506 83.0234 282.236H83.125V278.44H84.2295V288H83.125V286.908H83.0234C82.6045 287.67 81.8428 288.121 80.8906 288.121ZM81.1445 287.143C82.3887 287.143 83.1504 286.166 83.1504 284.585V284.572C83.1504 282.992 82.3887 282.014 81.1445 282.014C79.894 282.014 79.1514 282.979 79.1514 284.572V284.585C79.1514 286.178 79.894 287.143 81.1445 287.143ZM93.1479 288.216C91.1421 288.216 89.8472 287.162 89.7139 285.67L89.7075 285.601H90.8501L90.8564 285.67C90.939 286.584 91.8911 287.162 93.2114 287.162C94.4556 287.162 95.3633 286.521 95.3633 285.588V285.582C95.3633 284.82 94.8364 284.299 93.5796 284.02L92.564 283.798C90.7295 283.392 89.936 282.547 89.936 281.221V281.214C89.9424 279.697 91.269 278.625 93.1606 278.625C94.9888 278.625 96.2646 279.704 96.3599 281.068L96.3662 281.157H95.2236L95.2109 281.075C95.084 280.269 94.3223 279.672 93.1289 279.678C91.9863 279.685 91.104 280.224 91.104 281.183V281.189C91.104 281.919 91.6055 282.414 92.8496 282.687L93.8652 282.916C95.7759 283.341 96.5312 284.109 96.5312 285.429V285.436C96.5312 287.149 95.1919 288.216 93.1479 288.216ZM101.095 288.121C99.1782 288.121 97.9531 286.73 97.9531 284.56V284.547C97.9531 282.42 99.1719 281.037 101.089 281.037C102.752 281.037 103.749 281.995 103.952 283.214L103.958 283.252H102.86L102.854 283.233C102.682 282.56 102.073 282.014 101.089 282.014C99.8574 282.014 99.083 283.004 99.083 284.547V284.56C99.083 286.134 99.8701 287.143 101.089 287.143C102.009 287.143 102.593 286.737 102.847 285.975L102.86 285.937L103.952 285.931L103.939 286C103.66 287.238 102.739 288.121 101.095 288.121ZM105.634 288V278.44H106.738V282.186H106.84C107.183 281.462 107.824 281.037 108.833 281.037C110.369 281.037 111.226 281.944 111.226 283.569V288H110.122V283.836C110.122 282.604 109.614 282.014 108.522 282.014C107.43 282.014 106.738 282.75 106.738 283.95V288H105.634ZM116.038 288.121C114.089 288.121 112.883 286.775 112.883 284.585V284.572C112.883 282.376 114.089 281.037 116.038 281.037C117.986 281.037 119.192 282.376 119.192 284.572V284.585C119.192 286.775 117.986 288.121 116.038 288.121ZM116.038 287.143C117.333 287.143 118.062 286.197 118.062 284.585V284.572C118.062 282.954 117.333 282.014 116.038 282.014C114.743 282.014 114.013 282.954 114.013 284.572V284.585C114.013 286.197 114.743 287.143 116.038 287.143ZM123.718 288.121C121.77 288.121 120.563 286.775 120.563 284.585V284.572C120.563 282.376 121.77 281.037 123.718 281.037C125.667 281.037 126.873 282.376 126.873 284.572V284.585C126.873 286.775 125.667 288.121 123.718 288.121ZM123.718 287.143C125.013 287.143 125.743 286.197 125.743 284.585V284.572C125.743 282.954 125.013 282.014 123.718 282.014C122.423 282.014 121.693 282.954 121.693 284.572V284.585C121.693 286.197 122.423 287.143 123.718 287.143ZM128.65 288V278.44H129.755V288H128.65ZM135.671 288V278.84H139.124C140.844 278.84 142.063 280.027 142.063 281.767V281.779C142.063 283.519 140.844 284.731 139.124 284.731H136.813V288H135.671ZM138.832 279.856H136.813V283.715H138.832C140.14 283.715 140.895 282.998 140.895 281.792V281.779C140.895 280.573 140.14 279.856 138.832 279.856ZM143.796 288V281.157H144.9V282.173H145.002C145.262 281.456 145.903 281.037 146.83 281.037C147.04 281.037 147.274 281.062 147.382 281.081V282.154C147.154 282.116 146.944 282.09 146.703 282.09C145.649 282.09 144.9 282.757 144.9 283.76V288H143.796ZM151.369 288.121C149.42 288.121 148.214 286.775 148.214 284.585V284.572C148.214 282.376 149.42 281.037 151.369 281.037C153.317 281.037 154.523 282.376 154.523 284.572V284.585C154.523 286.775 153.317 288.121 151.369 288.121ZM151.369 287.143C152.664 287.143 153.394 286.197 153.394 284.585V284.572C153.394 282.954 152.664 282.014 151.369 282.014C150.074 282.014 149.344 282.954 149.344 284.572V284.585C149.344 286.197 150.074 287.143 151.369 287.143ZM156.809 279.837C156.39 279.837 156.047 279.494 156.047 279.075C156.047 278.656 156.39 278.313 156.809 278.313C157.228 278.313 157.57 278.656 157.57 279.075C157.57 279.494 157.228 279.837 156.809 279.837ZM155.26 290.349H155.069V289.371H155.234C155.977 289.371 156.256 289.111 156.256 288.355V281.157H157.361V288.336C157.361 289.746 156.694 290.349 155.26 290.349ZM162.242 288.121C160.287 288.121 159.106 286.75 159.106 284.604V284.598C159.106 282.484 160.312 281.037 162.172 281.037C164.032 281.037 165.162 282.42 165.162 284.464V284.896H160.236C160.268 286.312 161.049 287.137 162.268 287.137C163.194 287.137 163.766 286.699 163.95 286.286L163.975 286.229H165.08L165.067 286.28C164.832 287.207 163.854 288.121 162.242 288.121ZM162.166 282.021C161.15 282.021 160.376 282.712 160.255 284.014H164.039C163.924 282.662 163.175 282.021 162.166 282.021ZM169.675 288.121C167.758 288.121 166.533 286.73 166.533 284.56V284.547C166.533 282.42 167.752 281.037 169.669 281.037C171.332 281.037 172.329 281.995 172.532 283.214L172.538 283.252H171.44L171.434 283.233C171.262 282.56 170.653 282.014 169.669 282.014C168.438 282.014 167.663 283.004 167.663 284.547V284.56C167.663 286.134 168.45 287.143 169.669 287.143C170.589 287.143 171.173 286.737 171.427 285.975L171.44 285.937L172.532 285.931L172.519 286C172.24 287.238 171.319 288.121 169.675 288.121ZM176.708 288.051C175.299 288.051 174.709 287.53 174.709 286.223V282.071H173.63V281.157H174.709V279.386H175.852V281.157H177.35V282.071H175.852V285.943C175.852 286.75 176.131 287.073 176.842 287.073C177.039 287.073 177.146 287.067 177.35 287.048V287.987C177.134 288.025 176.924 288.051 176.708 288.051ZM185.176 288V279.869H182.225V278.84H189.271V279.869H186.319V288H185.176ZM189.943 288V281.157H191.048V282.173H191.149C191.41 281.456 192.051 281.037 192.978 281.037C193.187 281.037 193.422 281.062 193.53 281.081V282.154C193.301 282.116 193.092 282.09 192.851 282.09C191.797 282.09 191.048 282.757 191.048 283.76V288H189.943ZM196.773 288.121C195.472 288.121 194.488 287.333 194.488 286.089V286.077C194.488 284.858 195.39 284.153 196.983 284.058L198.944 283.938V283.315C198.944 282.471 198.43 282.014 197.408 282.014C196.589 282.014 196.05 282.319 195.872 282.852L195.866 282.871H194.761L194.768 282.833C194.945 281.76 195.986 281.037 197.446 281.037C199.116 281.037 200.049 281.894 200.049 283.315V288H198.944V286.991H198.843C198.411 287.721 197.694 288.121 196.773 288.121ZM195.618 286.064C195.618 286.756 196.208 287.162 197.002 287.162C198.125 287.162 198.944 286.426 198.944 285.448V284.826L197.116 284.94C196.075 285.004 195.618 285.372 195.618 286.051V286.064ZM202.067 288V281.157H203.172V282.186H203.273C203.616 281.462 204.257 281.037 205.267 281.037C206.803 281.037 207.66 281.944 207.66 283.569V288H206.555V283.836C206.555 282.604 206.047 282.014 204.956 282.014C203.864 282.014 203.172 282.75 203.172 283.95V288H202.067ZM212.008 288.121C210.484 288.121 209.437 287.384 209.31 286.254H210.44C210.624 286.826 211.17 287.2 212.046 287.2C212.966 287.2 213.62 286.762 213.62 286.14V286.127C213.62 285.664 213.271 285.34 212.427 285.137L211.367 284.883C210.084 284.579 209.507 284.02 209.507 283.036V283.03C209.507 281.894 210.599 281.037 212.052 281.037C213.487 281.037 214.483 281.754 214.636 282.871H213.55C213.404 282.332 212.871 281.957 212.046 281.957C211.233 281.957 210.637 282.376 210.637 282.979V282.992C210.637 283.455 210.979 283.747 211.786 283.944L212.839 284.198C214.128 284.509 214.75 285.067 214.75 286.045V286.058C214.75 287.276 213.563 288.121 212.008 288.121ZM216.921 288V282.071H215.785V281.157H216.921V280.396C216.921 279.031 217.606 278.377 218.908 278.377C219.174 278.377 219.416 278.396 219.644 278.44V279.323C219.511 279.297 219.327 279.291 219.13 279.291C218.343 279.291 218.025 279.678 218.025 280.427V281.157H219.581V282.071H218.025V288H216.921ZM223.694 288.121C221.745 288.121 220.539 286.775 220.539 284.585V284.572C220.539 282.376 221.745 281.037 223.694 281.037C225.643 281.037 226.849 282.376 226.849 284.572V284.585C226.849 286.775 225.643 288.121 223.694 288.121ZM223.694 287.143C224.989 287.143 225.719 286.197 225.719 284.585V284.572C225.719 282.954 224.989 282.014 223.694 282.014C222.399 282.014 221.669 282.954 221.669 284.572V284.585C221.669 286.197 222.399 287.143 223.694 287.143ZM228.562 288V281.157H229.667V282.173H229.769C230.029 281.456 230.67 281.037 231.597 281.037C231.806 281.037 232.041 281.062 232.149 281.081V282.154C231.92 282.116 231.711 282.09 231.47 282.09C230.416 282.09 229.667 282.757 229.667 283.76V288H228.562ZM233.641 288V281.157H234.745V282.198H234.847C235.151 281.462 235.799 281.037 236.694 281.037C237.621 281.037 238.268 281.525 238.585 282.236H238.687C239.055 281.513 239.836 281.037 240.782 281.037C242.178 281.037 242.959 281.836 242.959 283.271V288H241.854V283.525C241.854 282.516 241.391 282.014 240.426 282.014C239.474 282.014 238.846 282.731 238.846 283.601V288H237.741V283.354C237.741 282.541 237.183 282.014 236.319 282.014C235.424 282.014 234.745 282.795 234.745 283.76V288H233.641ZM247.301 288.121C245.777 288.121 244.73 287.384 244.603 286.254H245.733C245.917 286.826 246.463 287.2 247.339 287.2C248.259 287.2 248.913 286.762 248.913 286.14V286.127C248.913 285.664 248.564 285.34 247.72 285.137L246.66 284.883C245.377 284.579 244.8 284.02 244.8 283.036V283.03C244.8 281.894 245.892 281.037 247.345 281.037C248.78 281.037 249.776 281.754 249.929 282.871H248.843C248.697 282.332 248.164 281.957 247.339 281.957C246.526 281.957 245.93 282.376 245.93 282.979V282.992C245.93 283.455 246.272 283.747 247.079 283.944L248.132 284.198C249.421 284.509 250.043 285.067 250.043 286.045V286.058C250.043 287.276 248.856 288.121 247.301 288.121ZM255.553 288V278.84H259.006C260.726 278.84 261.945 280.027 261.945 281.767V281.779C261.945 283.519 260.726 284.731 259.006 284.731H256.695V288H255.553ZM258.714 279.856H256.695V283.715H258.714C260.021 283.715 260.777 282.998 260.777 281.792V281.779C260.777 280.573 260.021 279.856 258.714 279.856ZM266.28 288.121C264.325 288.121 263.145 286.75 263.145 284.604V284.598C263.145 282.484 264.351 281.037 266.21 281.037C268.07 281.037 269.2 282.42 269.2 284.464V284.896H264.274C264.306 286.312 265.087 287.137 266.306 287.137C267.232 287.137 267.804 286.699 267.988 286.286L268.013 286.229H269.118L269.105 286.28C268.87 287.207 267.893 288.121 266.28 288.121ZM266.204 282.021C265.188 282.021 264.414 282.712 264.293 284.014H268.077C267.962 282.662 267.213 282.021 266.204 282.021ZM272.793 288.121C271.492 288.121 270.508 287.333 270.508 286.089V286.077C270.508 284.858 271.409 284.153 273.002 284.058L274.964 283.938V283.315C274.964 282.471 274.45 282.014 273.428 282.014C272.609 282.014 272.069 282.319 271.892 282.852L271.885 282.871H270.781L270.787 282.833C270.965 281.76 272.006 281.037 273.466 281.037C275.135 281.037 276.068 281.894 276.068 283.315V288H274.964V286.991H274.862C274.431 287.721 273.713 288.121 272.793 288.121ZM271.638 286.064C271.638 286.756 272.228 287.162 273.021 287.162C274.145 287.162 274.964 286.426 274.964 285.448V284.826L273.136 284.94C272.095 285.004 271.638 285.372 271.638 286.051V286.064ZM280.886 288.121C278.969 288.121 277.744 286.73 277.744 284.56V284.547C277.744 282.42 278.963 281.037 280.88 281.037C282.543 281.037 283.54 281.995 283.743 283.214L283.749 283.252H282.651L282.645 283.233C282.473 282.56 281.864 282.014 280.88 282.014C279.648 282.014 278.874 283.004 278.874 284.547V284.56C278.874 286.134 279.661 287.143 280.88 287.143C281.8 287.143 282.384 286.737 282.638 285.975L282.651 285.937L283.743 285.931L283.73 286C283.451 287.238 282.53 288.121 280.886 288.121ZM288.154 288.121C286.199 288.121 285.019 286.75 285.019 284.604V284.598C285.019 282.484 286.225 281.037 288.084 281.037C289.944 281.037 291.074 282.42 291.074 284.464V284.896H286.148C286.18 286.312 286.961 287.137 288.18 287.137C289.106 287.137 289.678 286.699 289.862 286.286L289.887 286.229H290.992L290.979 286.28C290.744 287.207 289.767 288.121 288.154 288.121ZM288.078 282.021C287.062 282.021 286.288 282.712 286.167 284.014H289.951C289.836 282.662 289.087 282.021 288.078 282.021ZM293.245 288V282.071H292.109V281.157H293.245V280.396C293.245 279.031 293.931 278.377 295.232 278.377C295.499 278.377 295.74 278.396 295.968 278.44V279.323C295.835 279.297 295.651 279.291 295.454 279.291C294.667 279.291 294.35 279.678 294.35 280.427V281.157H295.905V282.071H294.35V288H293.245ZM299.79 288.121C298.234 288.121 297.435 287.207 297.435 285.588V281.157H298.539V285.321C298.539 286.553 298.983 287.143 300.075 287.143C301.281 287.143 301.922 286.407 301.922 285.207V281.157H303.027V288H301.922V286.978H301.821C301.484 287.708 300.792 288.121 299.79 288.121ZM305.153 288V278.44H306.258V288H305.153ZM312.174 288V278.84H313.285L318.255 285.969H318.356V278.84H319.486V288H318.375L313.405 280.897H313.304V288H312.174ZM324.476 288.121C322.521 288.121 321.34 286.75 321.34 284.604V284.598C321.34 282.484 322.546 281.037 324.406 281.037C326.266 281.037 327.396 282.42 327.396 284.464V284.896H322.47C322.501 286.312 323.282 287.137 324.501 287.137C325.428 287.137 325.999 286.699 326.183 286.286L326.208 286.229H327.313L327.3 286.28C327.065 287.207 326.088 288.121 324.476 288.121ZM324.399 282.021C323.384 282.021 322.609 282.712 322.489 284.014H326.272C326.158 282.662 325.409 282.021 324.399 282.021ZM329.693 279.837C329.274 279.837 328.932 279.494 328.932 279.075C328.932 278.656 329.274 278.313 329.693 278.313C330.112 278.313 330.455 278.656 330.455 279.075C330.455 279.494 330.112 279.837 329.693 279.837ZM329.135 288V281.157H330.239V288H329.135ZM335.14 290.412C333.489 290.412 332.436 289.669 332.264 288.546L332.277 288.54H333.419L333.426 288.546C333.546 289.066 334.156 289.435 335.14 289.435C336.365 289.435 337.095 288.857 337.095 287.848V286.464H336.993C336.562 287.219 335.787 287.645 334.848 287.645C333.077 287.645 331.979 286.273 331.979 284.356V284.344C331.979 282.427 333.083 281.037 334.873 281.037C335.838 281.037 336.587 281.513 337.006 282.287H337.082V281.157H338.187V287.905C338.187 289.435 337.006 290.412 335.14 290.412ZM335.089 286.667C336.358 286.667 337.12 285.715 337.12 284.356V284.344C337.12 282.985 336.352 282.014 335.089 282.014C333.819 282.014 333.108 282.985 333.108 284.344V284.356C333.108 285.715 333.819 286.667 335.089 286.667ZM340.307 288V278.44H341.411V282.186H341.513C341.855 281.462 342.497 281.037 343.506 281.037C345.042 281.037 345.899 281.944 345.899 283.569V288H344.794V283.836C344.794 282.604 344.287 282.014 343.195 282.014C342.103 282.014 341.411 282.75 341.411 283.95V288H340.307ZM351.301 288.121C350.349 288.121 349.587 287.67 349.168 286.908H349.066V288H347.962V278.44H349.066V282.236H349.168C349.542 281.506 350.361 281.037 351.301 281.037C353.04 281.037 354.17 282.427 354.17 284.572V284.585C354.17 286.718 353.034 288.121 351.301 288.121ZM351.047 287.143C352.297 287.143 353.04 286.178 353.04 284.585V284.572C353.04 282.979 352.297 282.014 351.047 282.014C349.803 282.014 349.041 282.992 349.041 284.572V284.585C349.041 286.166 349.803 287.143 351.047 287.143ZM358.696 288.121C356.747 288.121 355.541 286.775 355.541 284.585V284.572C355.541 282.376 356.747 281.037 358.696 281.037C360.645 281.037 361.851 282.376 361.851 284.572V284.585C361.851 286.775 360.645 288.121 358.696 288.121ZM358.696 287.143C359.991 287.143 360.721 286.197 360.721 284.585V284.572C360.721 282.954 359.991 282.014 358.696 282.014C357.401 282.014 356.671 282.954 356.671 284.572V284.585C356.671 286.197 357.401 287.143 358.696 287.143ZM363.564 288V281.157H364.669V282.173H364.771C365.031 281.456 365.672 281.037 366.599 281.037C366.808 281.037 367.043 281.062 367.151 281.081V282.154C366.922 282.116 366.713 282.09 366.472 282.09C365.418 282.09 364.669 282.757 364.669 283.76V288H363.564ZM368.579 288V278.44H369.684V282.186H369.785C370.128 281.462 370.769 281.037 371.778 281.037C373.314 281.037 374.171 281.944 374.171 283.569V288H373.067V283.836C373.067 282.604 372.559 282.014 371.467 282.014C370.375 282.014 369.684 282.75 369.684 283.95V288H368.579ZM378.983 288.121C377.034 288.121 375.828 286.775 375.828 284.585V284.572C375.828 282.376 377.034 281.037 378.983 281.037C380.932 281.037 382.138 282.376 382.138 284.572V284.585C382.138 286.775 380.932 288.121 378.983 288.121ZM378.983 287.143C380.278 287.143 381.008 286.197 381.008 284.585V284.572C381.008 282.954 380.278 282.014 378.983 282.014C377.688 282.014 376.958 282.954 376.958 284.572V284.585C376.958 286.197 377.688 287.143 378.983 287.143ZM386.664 288.121C384.715 288.121 383.509 286.775 383.509 284.585V284.572C383.509 282.376 384.715 281.037 386.664 281.037C388.612 281.037 389.818 282.376 389.818 284.572V284.585C389.818 286.775 388.612 288.121 386.664 288.121ZM386.664 287.143C387.958 287.143 388.688 286.197 388.688 284.585V284.572C388.688 282.954 387.958 282.014 386.664 282.014C385.369 282.014 384.639 282.954 384.639 284.572V284.585C384.639 286.197 385.369 287.143 386.664 287.143ZM394.059 288.121C392.326 288.121 391.189 286.718 391.189 284.585V284.572C391.189 282.427 392.319 281.037 394.059 281.037C394.998 281.037 395.817 281.506 396.191 282.236H396.293V278.44H397.397V288H396.293V286.908H396.191C395.772 287.67 395.011 288.121 394.059 288.121ZM394.312 287.143C395.557 287.143 396.318 286.166 396.318 284.585V284.572C396.318 282.992 395.557 282.014 394.312 282.014C393.062 282.014 392.319 282.979 392.319 284.572V284.585C392.319 286.178 393.062 287.143 394.312 287.143Z" fill="black"/>
<rect x="568.5" y="271.5" width="23" height="23" rx="11.5" fill="white"/>
<rect x="568.5" y="271.5" width="23" height="23" rx="11.5" stroke="#E3E3E3"/>
<path d="M583.5 283.5H580.5V286.5H579.5V283.5H576.5V282.5H579.5V279.5H580.5V282.5H583.5V283.5Z" fill="#6E6E6E"/>
<path d="M237 301.5H371C372.933 301.5 374.5 303.067 374.5 305V327C374.5 328.933 372.933 330.5 371 330.5H237C235.067 330.5 233.5 328.933 233.5 327V305C233.5 303.067 235.067 301.5 237 301.5Z" fill="white"/>
<path d="M237 301.5H371C372.933 301.5 374.5 303.067 374.5 305V327C374.5 328.933 372.933 330.5 371 330.5H237C235.067 330.5 233.5 328.933 233.5 327V305C233.5 303.067 235.067 301.5 237 301.5Z" stroke="#E3E3E3"/>
<path d="M242.333 316C242.333 319.313 245.02 322 248.333 322C249.926 322 251.453 321.373 252.6 320.267L251.6 319.267C250.753 320.167 249.573 320.667 248.333 320.667C244.173 320.667 242.093 315.64 245.033 312.7C247.973 309.76 253 311.847 253 316H251L253.666 318.667H253.733L256.333 316H254.333C254.333 312.687 251.646 310 248.333 310C245.02 310 242.333 312.687 242.333 316Z" fill="#6E6E6E"/>
<path d="M266.053 320.211C263.604 320.211 262.08 318.506 262.08 315.775V315.764C262.08 313.062 263.621 311.334 266.029 311.334C267.98 311.334 269.387 312.453 269.674 314.105L269.68 314.164H268.18L268.162 314.105C267.887 313.18 267.113 312.641 266.029 312.641C264.553 312.641 263.621 313.842 263.621 315.752V315.764C263.621 317.703 264.57 318.904 266.076 318.904C267.365 318.904 268.244 318.102 268.262 316.9L268.268 316.725H266.24V315.57H269.75V316.625C269.75 318.811 268.309 320.211 266.053 320.211ZM271.508 320V311.545H276.98V312.816H273.02V315.107H276.764V316.309H273.02V318.729H276.98V320H271.508ZM278.855 320V311.545H280.168L284.322 317.369H284.416V311.545H285.869V320H284.562L280.408 314.176H280.314V320H278.855ZM287.961 320V311.545H293.434V312.816H289.473V315.107H293.217V316.309H289.473V318.729H293.434V320H287.961ZM295.309 320V311.545H298.725C300.541 311.545 301.631 312.559 301.631 314.17V314.182C301.631 315.301 301.039 316.227 300.037 316.59L301.883 320H300.154L298.496 316.818H296.82V320H295.309ZM296.82 315.658H298.566C299.521 315.658 300.078 315.125 300.078 314.217V314.205C300.078 313.32 299.498 312.77 298.537 312.77H296.82V315.658ZM302.838 320L305.838 311.545H307.543L310.543 320H308.961L308.252 317.814H305.123L304.42 320H302.838ZM306.641 313.115L305.504 316.648H307.877L306.74 313.115H306.641ZM313.162 320V312.816H310.561V311.545H317.281V312.816H314.674V320H313.162ZM318.863 320V311.545H324.336V312.816H320.375V315.107H324.119V316.309H320.375V318.729H324.336V320H318.863ZM328.783 320L331.783 311.545H333.488L336.488 320H334.906L334.197 317.814H331.068L330.365 320H328.783ZM332.586 313.115L331.449 316.648H333.822L332.686 313.115H332.586ZM341.158 320.211C338.709 320.211 337.186 318.506 337.186 315.775V315.764C337.186 313.062 338.727 311.334 341.135 311.334C343.086 311.334 344.492 312.453 344.779 314.105L344.785 314.164H343.285L343.268 314.105C342.992 313.18 342.219 312.641 341.135 312.641C339.658 312.641 338.727 313.842 338.727 315.752V315.764C338.727 317.703 339.676 318.904 341.182 318.904C342.471 318.904 343.35 318.102 343.367 316.9L343.373 316.725H341.346V315.57H344.855V316.625C344.855 318.811 343.414 320.211 341.158 320.211ZM345.787 320L348.787 311.545H350.492L353.492 320H351.91L351.201 317.814H348.072L347.369 320H345.787ZM349.59 313.115L348.453 316.648H350.826L349.689 313.115H349.59ZM354.945 320V311.545H356.457V320H354.945ZM358.543 320V311.545H359.855L364.01 317.369H364.104V311.545H365.557V320H364.25L360.096 314.176H360.002V320H358.543Z" fill="#6E6E6E"/>
<g opacity="0.25">
<rect x="28.5" y="44.5" width="551" height="44" rx="3.5" fill="white" stroke="#ABABAB"/>
<path d="M76.1377 72.2324C73.9775 72.2324 72.583 71.0977 72.4395 69.4912L72.4326 69.416H73.6631L73.6699 69.4912C73.7588 70.4756 74.7842 71.0977 76.2061 71.0977C77.5459 71.0977 78.5234 70.4072 78.5234 69.4023V69.3955C78.5234 68.5752 77.9561 68.0146 76.6025 67.7139L75.5088 67.4746C73.5332 67.0371 72.6787 66.1279 72.6787 64.6992V64.6924C72.6855 63.0586 74.1143 61.9033 76.1514 61.9033C78.1201 61.9033 79.4941 63.0654 79.5967 64.5352L79.6035 64.6309H78.373L78.3594 64.542C78.2227 63.6738 77.4023 63.0312 76.1172 63.0381C74.8867 63.0449 73.9365 63.626 73.9365 64.6582V64.665C73.9365 65.4512 74.4766 65.9844 75.8164 66.2783L76.9102 66.5244C78.9678 66.9824 79.7812 67.8096 79.7812 69.2314V69.2383C79.7812 71.084 78.3389 72.2324 76.1377 72.2324ZM84.6895 72.1299C82.584 72.1299 81.3125 70.6533 81.3125 68.3428V68.3359C81.3125 66.0596 82.6113 64.501 84.6143 64.501C86.6172 64.501 87.834 65.9912 87.834 68.1924V68.6572H82.5293C82.5635 70.1816 83.4043 71.0703 84.7168 71.0703C85.7148 71.0703 86.3301 70.5986 86.5283 70.1543L86.5557 70.0928H87.7451L87.7314 70.1475C87.4785 71.1455 86.4258 72.1299 84.6895 72.1299ZM84.6074 65.5605C83.5137 65.5605 82.6797 66.3057 82.5498 67.707H86.624C86.501 66.251 85.6943 65.5605 84.6074 65.5605ZM91.7031 72.1299C90.3018 72.1299 89.2422 71.2822 89.2422 69.9424V69.9287C89.2422 68.6162 90.2129 67.8574 91.9287 67.7549L94.041 67.625V66.9551C94.041 66.0459 93.4873 65.5537 92.3867 65.5537C91.5049 65.5537 90.9238 65.8818 90.7324 66.4561L90.7256 66.4766H89.5361L89.543 66.4355C89.7344 65.2803 90.8555 64.501 92.4277 64.501C94.2256 64.501 95.2305 65.4238 95.2305 66.9551V72H94.041V70.9131H93.9316C93.4668 71.6992 92.6943 72.1299 91.7031 72.1299ZM90.459 69.915C90.459 70.6602 91.0947 71.0977 91.9492 71.0977C93.1592 71.0977 94.041 70.3047 94.041 69.252V68.582L92.0723 68.7051C90.9512 68.7734 90.459 69.1699 90.459 69.9014V69.915ZM97.4043 72V64.6309H98.5938V65.7246H98.7031C98.9834 64.9521 99.6738 64.501 100.672 64.501C100.897 64.501 101.15 64.5283 101.267 64.5488V65.7041C101.021 65.6631 100.795 65.6357 100.535 65.6357C99.4004 65.6357 98.5938 66.3535 98.5938 67.4336V72H97.4043ZM105.546 72.1299C103.481 72.1299 102.162 70.6328 102.162 68.2949V68.2812C102.162 65.9912 103.475 64.501 105.539 64.501C107.33 64.501 108.403 65.5332 108.622 66.8457L108.629 66.8867H107.446L107.439 66.8662C107.255 66.1416 106.599 65.5537 105.539 65.5537C104.213 65.5537 103.379 66.6201 103.379 68.2812V68.2949C103.379 69.9902 104.227 71.0771 105.539 71.0771C106.53 71.0771 107.159 70.6396 107.433 69.8193L107.446 69.7783L108.622 69.7715L108.608 69.8467C108.308 71.1797 107.316 72.1299 105.546 72.1299ZM110.434 72V61.7051H111.623V65.7383H111.732C112.102 64.959 112.792 64.501 113.879 64.501C115.533 64.501 116.456 65.4785 116.456 67.2285V72H115.267V67.5156C115.267 66.1895 114.72 65.5537 113.544 65.5537C112.368 65.5537 111.623 66.3467 111.623 67.6387V72H110.434Z" fill="#141414" fill-opacity="0.45"/>
<path d="M50.1465 58C51.8704 58 53.5237 58.6848 54.7427 59.9038C55.9617 61.1228 56.6465 62.7761 56.6465 64.5C56.6465 66.11 56.0565 67.59 55.0865 68.73L55.3565 69H56.1465L61.1465 74L59.6465 75.5L54.6465 70.5V69.71L54.3765 69.44C53.2365 70.41 51.7565 71 50.1465 71C48.4226 71 46.7693 70.3152 45.5503 69.0962C44.3313 67.8772 43.6465 66.2239 43.6465 64.5C43.6465 62.7761 44.3313 61.1228 45.5503 59.9038C46.7693 58.6848 48.4226 58 50.1465 58ZM50.1465 60C47.6465 60 45.6465 62 45.6465 64.5C45.6465 67 47.6465 69 50.1465 69C52.6465 69 54.6465 67 54.6465 64.5C54.6465 62 52.6465 60 50.1465 60Z" fill="#6E6E6E"/>
</g>
</g>
<rect x="588.5" y="0.5" width="35" height="35" rx="17.5" fill="white"/>
<rect x="588.5" y="0.5" width="35" height="35" rx="17.5" stroke="#D6D6D6"/>
<path d="M611.833 13.3417L610.658 12.1667L605.999 16.825L601.341 12.1667L600.166 13.3417L604.824 18L600.166 22.6584L601.341 23.8334L605.999 19.175L610.658 23.8334L611.833 22.6584L607.174 18L611.833 13.3417Z" fill="#6E6E6E"/>
<defs>
<filter id="filter0_d_4440_64676" x="554" y="144.5" width="50" height="50" filterUnits="userSpaceOnUse" color-interpolation-filters="sRGB">
<feFlood flood-opacity="0" result="BackgroundImageFix"/>
<feColorMatrix in="SourceAlpha" type="matrix" values="0 0 0 0 0 0 0 0 0 0 0 0 0 0 0 0 0 0 127 0" result="hardAlpha"/>
<feOffset dy="2"/>
<feGaussianBlur stdDeviation="6.5"/>
<feColorMatrix type="matrix" values="0 0 0 0 0.0784314 0 0 0 0 0.0784314 0 0 0 0 0.0784314 0 0 0 0.06 0"/>
<feBlend mode="normal" in2="BackgroundImageFix" result="effect1_dropShadow_4440_64676"/>
<feBlend mode="normal" in="SourceGraphic" in2="effect1_dropShadow_4440_64676" result="shape"/>
</filter>
<clipPath id="clip0_4440_64676">
<rect width="600" height="327" fill="white" transform="translate(4 20)"/>
</clipPath>
<clipPath id="clip1_4440_64676">
<rect width="20" height="20" fill="white" transform="translate(42 127)"/>
</clipPath>
</defs>
</svg>
