<svg xmlns="http://www.w3.org/2000/svg" xmlns:xlink="http://www.w3.org/1999/xlink" width="624" height="351" fill="none" viewBox="0 0 624 351"><path fill="#fff" d="M588 18c9.941 0 18 8.059 18 18v295c0 9.941-8.059 18-18 18H20c-9.941 0-18-8.059-18-18V36l.006-.465C2.252 25.81 10.214 18 20 18z"/><path stroke="#c296da" stroke-width="4" d="M588 18c9.941 0 18 8.059 18 18v295c0 9.941-8.059 18-18 18H20c-9.941 0-18-8.059-18-18V36l.006-.465C2.252 25.81 10.214 18 20 18z"/><g clip-path="url(#a)"><path fill="#f8f8f8" d="M28 117a4 4 0 0 1 4-4h40a4 4 0 0 1 4 4v40a4 4 0 0 1-4 4H32a4 4 0 0 1-4-4z"/><path fill="#13a463" d="m59.5 132.833-10 10-4.584-4.583 1.175-1.175 3.408 3.4 8.825-8.817z"/><path fill="#141414" fill-opacity=".85" d="M92.973 131.264c-2.454 0-4.013-1.209-4.145-3.033l-.008-.102h1.831l.008.073c.088.886 1.032 1.472 2.373 1.472 1.274 0 2.168-.63 2.168-1.538v-.007c0-.762-.55-1.223-1.912-1.516l-1.135-.235c-2.16-.454-3.098-1.464-3.098-3.039v-.007c0-1.89 1.626-3.165 3.91-3.165 2.345 0 3.802 1.282 3.934 2.981l.007.096h-1.809l-.014-.088c-.132-.821-.916-1.406-2.124-1.399-1.172 0-2.007.549-2.007 1.45v.007c0 .747.534 1.216 1.853 1.494l1.135.242c2.227.469 3.157 1.362 3.157 2.959v.008c0 2.058-1.59 3.347-4.124 3.347m8.709-.103c-1.802 0-2.725-1.084-2.725-2.988v-5.178h1.824v4.76c0 1.238.461 1.868 1.56 1.868 1.179 0 1.809-.762 1.809-1.963v-4.665h1.824V131h-1.824v-1.216h-.125c-.373.857-1.186 1.377-2.343 1.377m9.961 2.651c-2.11 0-3.377-.9-3.56-2.248l.007-.022h1.824l.007.022c.125.513.733.872 1.751.872 1.245 0 1.97-.579 1.97-1.604v-1.531h-.124c-.462.857-1.333 1.325-2.439 1.325-2.029 0-3.289-1.567-3.289-3.837v-.015c0-2.315 1.26-3.911 3.325-3.911 1.106 0 1.97.542 2.425 1.45h.095v-1.318h1.823v7.807c0 1.846-1.479 3.01-3.815 3.01m0-4.636c1.267 0 2.028-.974 2.028-2.387v-.015c0-1.414-.769-2.395-2.028-2.395-1.268 0-1.985.981-1.985 2.395v.015c0 1.413.717 2.387 1.985 2.387m9.492 4.636c-2.11 0-3.377-.9-3.56-2.248l.008-.022h1.823l.008.022c.124.513.732.872 1.75.872 1.245 0 1.97-.579 1.97-1.604v-1.531h-.124c-.462.857-1.333 1.325-2.439 1.325-2.029 0-3.289-1.567-3.289-3.837v-.015c0-2.315 1.26-3.911 3.325-3.911 1.106 0 1.971.542 2.425 1.45h.095v-1.318h1.824v7.807c0 1.846-1.48 3.01-3.816 3.01m0-4.636c1.267 0 2.029-.974 2.029-2.387v-.015c0-1.414-.769-2.395-2.029-2.395-1.267 0-1.985.981-1.985 2.395v.015c0 1.413.718 2.387 1.985 2.387m9.477 1.985c-2.38 0-3.823-1.597-3.823-4.145v-.008c0-2.519 1.458-4.167 3.735-4.167s3.684 1.597 3.684 4.013v.601h-5.595c.022 1.436.798 2.271 2.036 2.271.989 0 1.553-.498 1.728-.865l.022-.051h1.736l-.022.066c-.256 1.033-1.325 2.285-3.501 2.285m-.066-6.892c-1.018 0-1.779.689-1.919 1.963h3.802c-.125-1.311-.865-1.963-1.883-1.963m8.511 6.892c-2.036 0-3.266-.937-3.42-2.292v-.015h1.809l.007.015c.191.556.725.944 1.633.944.909 0 1.539-.41 1.539-1.01v-.015c0-.469-.352-.776-1.231-.974l-1.296-.293c-1.524-.337-2.249-1.055-2.249-2.234v-.007c0-1.443 1.318-2.439 3.208-2.439 1.948 0 3.113.967 3.23 2.263v.015h-1.714l-.007-.022c-.132-.506-.659-.916-1.516-.916-.813 0-1.399.396-1.399.996v.008c0 .468.337.754 1.201.952l1.296.285c1.568.352 2.308 1.018 2.308 2.183v.015c0 1.523-1.429 2.541-3.399 2.541m8.328-.124c-1.839 0-2.593-.616-2.593-2.161v-4.468h-1.245v-1.413h1.245v-1.963h1.853v1.963h1.692v1.413h-1.692v4.036c0 .798.315 1.135 1.077 1.135.256 0 .395-.007.615-.029v1.406a5 5 0 0 1-.952.081m10.627.227c-2.453 0-4.013-1.209-4.145-3.033l-.008-.102h1.831l.008.073c.088.886 1.032 1.472 2.373 1.472 1.274 0 2.168-.63 2.168-1.538v-.007c0-.762-.55-1.223-1.912-1.516l-1.135-.235c-2.161-.454-3.098-1.464-3.098-3.039v-.007c0-1.89 1.626-3.165 3.911-3.165 2.344 0 3.801 1.282 3.933 2.981l.007.096h-1.809l-.014-.088c-.132-.821-.916-1.406-2.124-1.399-1.172 0-2.007.549-2.007 1.45v.007c0 .747.534 1.216 1.853 1.494l1.135.242c2.227.469 3.157 1.362 3.157 2.959v.008c0 2.058-1.59 3.347-4.124 3.347m6.248-.264v-10.569h6.841v1.59h-4.952v2.863h4.681v1.502h-4.681v3.025h4.952V131zm13.74.264c-3.098 0-5.002-2.146-5.002-5.545v-.014c0-3.406 1.933-5.538 5.002-5.538 3.076 0 4.995 2.132 4.995 5.538v.014c0 3.399-1.912 5.545-4.995 5.545m0-1.634c1.882 0 3.069-1.538 3.069-3.911v-.014c0-2.388-1.194-3.904-3.069-3.904s-3.076 1.516-3.076 3.904v.014c0 2.373 1.172 3.911 3.076 3.911m14.121 1.407c-1.838 0-2.593-.616-2.593-2.161v-4.468h-1.245v-1.413h1.245v-1.963h1.853v1.963h1.692v1.413h-1.692v4.036c0 .798.315 1.135 1.077 1.135.256 0 .396-.007.615-.029v1.406c-.263.051-.6.081-.952.081m3.706-9.383c-.6 0-1.091-.476-1.091-1.076 0-.594.491-1.077 1.091-1.077.593 0 1.084.483 1.084 1.077 0 .6-.491 1.076-1.084 1.076m-.915 9.346v-8.005h1.823V131zm7.214.037c-1.838 0-2.593-.616-2.593-2.161v-4.468h-1.245v-1.413h1.245v-1.963h1.853v1.963h1.692v1.413h-1.692v4.036c0 .798.315 1.135 1.077 1.135.256 0 .395-.007.615-.029v1.406a5 5 0 0 1-.952.081m2.842-.037v-11.104h1.824V131zm7.558.161c-2.38 0-3.823-1.597-3.823-4.145v-.008c0-2.519 1.458-4.167 3.735-4.167s3.685 1.597 3.685 4.013v.601h-5.596c.022 1.436.798 2.271 2.036 2.271.989 0 1.553-.498 1.729-.865l.021-.051h1.736l-.022.066c-.256 1.033-1.325 2.285-3.501 2.285m-.066-6.892c-1.018 0-1.779.689-1.918 1.963h3.801c-.125-1.311-.864-1.963-1.883-1.963"/><path fill="#141414" fill-opacity=".45" d="M92.964 153.216c-2.533 0-4.151-1.866-4.151-4.793v-.012c0-2.889 1.644-4.786 4.15-4.786 2.032 0 3.46 1.142 3.822 2.881l.013.064h-1.155l-.02-.064c-.374-1.18-1.294-1.828-2.66-1.828-1.815 0-2.982 1.46-2.982 3.733v.012c0 2.305 1.148 3.739 2.99 3.739 1.637 0 2.741-1.047 2.741-2.596v-.222h-2.57v-1.003h3.713v1.117c0 2.26-1.549 3.758-3.891 3.758m8.569-.095c-1.955 0-3.136-1.371-3.136-3.517v-.006c0-2.114 1.206-3.561 3.066-3.561s2.99 1.383 2.99 3.427v.432h-4.926c.032 1.416.813 2.241 2.032 2.241.926 0 1.498-.438 1.682-.851l.025-.057h1.105l-.013.051c-.235.927-1.212 1.841-2.825 1.841m-.076-6.1c-1.016 0-1.79.691-1.91 1.993h3.783c-.115-1.352-.864-1.993-1.873-1.993m4.71 5.979v-6.843h1.104v1.029h.102c.343-.724.984-1.149 1.993-1.149 1.536 0 2.393.907 2.393 2.532V153h-1.104v-4.164c0-1.232-.508-1.822-1.6-1.822s-1.784.736-1.784 1.936V153zm10.385.121c-1.955 0-3.136-1.371-3.136-3.517v-.006c0-2.114 1.206-3.561 3.066-3.561s2.99 1.383 2.99 3.427v.432h-4.926c.032 1.416.812 2.241 2.031 2.241.927 0 1.498-.438 1.682-.851l.026-.057h1.104l-.013.051c-.234.927-1.212 1.841-2.824 1.841m-.076-6.1c-1.016 0-1.79.691-1.911 1.993h3.783c-.114-1.352-.863-1.993-1.872-1.993m4.71 5.979v-6.843h1.104v1.016h.102c.26-.717.901-1.136 1.828-1.136.209 0 .444.025.552.044v1.073a4 4 0 0 0-.679-.064c-1.054 0-1.803.667-1.803 1.67V153zm6.83.121c-1.302 0-2.286-.788-2.286-2.032v-.012c0-1.219.902-1.924 2.495-2.019l1.962-.12v-.623c0-.844-.515-1.301-1.537-1.301-.818 0-1.358.305-1.536.838l-.006.019h-1.105l.007-.038c.178-1.073 1.219-1.796 2.678-1.796 1.67 0 2.603.857 2.603 2.278V153h-1.104v-1.009h-.102c-.432.73-1.149 1.13-2.069 1.13m-1.156-2.057c0 .692.591 1.098 1.384 1.098 1.124 0 1.943-.736 1.943-1.714v-.622l-1.829.114c-1.041.064-1.498.432-1.498 1.111zm8.881 1.987c-1.409 0-2-.521-2-1.828v-4.152h-1.079v-.914h1.079v-1.771h1.143v1.771h1.498v.914h-1.498v3.872c0 .807.279 1.13.99 1.13.197 0 .305-.006.508-.025v.939a3.7 3.7 0 0 1-.641.064m4.983.07c-1.955 0-3.136-1.371-3.136-3.517v-.006c0-2.114 1.206-3.561 3.066-3.561s2.99 1.383 2.99 3.427v.432h-4.926c.032 1.416.812 2.241 2.031 2.241.927 0 1.498-.438 1.682-.851l.026-.057h1.104l-.013.051c-.235.927-1.212 1.841-2.824 1.841m-.077-6.1c-1.015 0-1.79.691-1.91 1.993h3.783c-.114-1.352-.863-1.993-1.873-1.993m7.059 6.1c-1.523 0-2.571-.737-2.698-1.867h1.13c.184.572.73.946 1.606.946.921 0 1.574-.438 1.574-1.06v-.013c0-.463-.349-.787-1.193-.99l-1.06-.254c-1.282-.304-1.86-.863-1.86-1.847v-.006c0-1.136 1.092-1.993 2.545-1.993 1.435 0 2.432.717 2.584 1.834h-1.085c-.146-.539-.68-.914-1.505-.914-.812 0-1.409.419-1.409 1.022v.013c0 .463.343.755 1.149.952l1.054.254c1.288.311 1.91.869 1.91 1.847v.013c0 1.218-1.187 2.063-2.742 2.063m9.991 0c-1.301 0-2.285-.788-2.285-2.032v-.012c0-1.219.901-1.924 2.495-2.019l1.961-.12v-.623c0-.844-.514-1.301-1.536-1.301-.819 0-1.358.305-1.536.838l-.006.019h-1.105l.006-.038c.178-1.073 1.219-1.796 2.679-1.796 1.67 0 2.603.857 2.603 2.278V153h-1.105v-1.009h-.101c-.432.73-1.149 1.13-2.07 1.13m-1.155-2.057c0 .692.59 1.098 1.384 1.098 1.123 0 1.942-.736 1.942-1.714v-.622l-1.828.114c-1.041.064-1.498.432-1.498 1.111zm6.449 1.936v-6.843h1.105v1.029h.101c.343-.724.984-1.149 1.993-1.149 1.537 0 2.393.907 2.393 2.532V153h-1.104v-4.164c0-1.232-.508-1.822-1.6-1.822-1.091 0-1.783.736-1.783 1.936V153zm14.39.216c-2.006 0-3.3-1.054-3.434-2.546l-.006-.069h1.142l.007.069c.082.914 1.035 1.492 2.355 1.492 1.244 0 2.152-.641 2.152-1.574v-.006c0-.762-.527-1.283-1.784-1.562l-1.016-.222c-1.834-.406-2.628-1.251-2.628-2.577v-.007c.007-1.517 1.333-2.589 3.225-2.589 1.828 0 3.104 1.079 3.199 2.443l.007.089h-1.143l-.013-.082c-.127-.806-.888-1.403-2.082-1.397-1.142.007-2.025.546-2.025 1.505v.006c0 .73.502 1.225 1.746 1.498l1.016.229c1.91.425 2.666 1.193 2.666 2.513v.007c0 1.713-1.34 2.78-3.384 2.78m5.288-.216v-9.16h5.675v1.029h-4.532v2.939h4.297v1.015h-4.297v3.149h4.532V153zm11.591.216c-2.628 0-4.202-1.866-4.202-4.793v-.012c0-2.939 1.612-4.786 4.202-4.786 2.602 0 4.202 1.853 4.202 4.786v.012c0 2.92-1.587 4.793-4.202 4.793m0-1.054c1.879 0 3.034-1.473 3.034-3.739v-.012c0-2.286-1.162-3.733-3.034-3.733-1.866 0-3.034 1.447-3.034 3.733v.012c0 2.266 1.129 3.739 3.034 3.739m12.13.889c-1.409 0-1.999-.521-1.999-1.828v-4.152h-1.079v-.914h1.079v-1.771h1.142v1.771h1.498v.914h-1.498v3.872c0 .807.279 1.13.99 1.13.197 0 .305-.006.508-.025v.939a3.7 3.7 0 0 1-.641.064m2.876-8.214a.764.764 0 0 1-.762-.762c0-.419.343-.762.762-.762s.761.343.761.762a.764.764 0 0 1-.761.762m-.559 8.163v-6.843h1.105V153zm5.618.051c-1.409 0-2-.521-2-1.828v-4.152h-1.079v-.914h1.079v-1.771h1.143v1.771h1.498v.914h-1.498v3.872c0 .807.279 1.13.99 1.13.197 0 .305-.006.508-.025v.939a3.7 3.7 0 0 1-.641.064m2.355-.051v-9.56h1.104V153zm6.017.121c-1.955 0-3.135-1.371-3.135-3.517v-.006c0-2.114 1.206-3.561 3.065-3.561 1.86 0 2.99 1.383 2.99 3.427v.432h-4.926c.032 1.416.813 2.241 2.032 2.241.926 0 1.498-.438 1.682-.851l.025-.057h1.105l-.013.051c-.235.927-1.212 1.841-2.825 1.841m-.076-6.1c-1.016 0-1.79.691-1.911 1.993h3.784c-.115-1.352-.864-1.993-1.873-1.993m8.95-2.184a.764.764 0 0 1-.761-.762c0-.419.342-.762.761-.762s.762.343.762.762a.764.764 0 0 1-.762.762m-.558 8.163v-6.843h1.104V153zm3.186 0v-6.843h1.105v1.029h.101c.343-.724.984-1.149 1.993-1.149 1.537 0 2.394.907 2.394 2.532V153h-1.105v-4.164c0-1.232-.508-1.822-1.6-1.822-1.091 0-1.783.736-1.783 1.936V153zm13.679.051c-1.409 0-1.999-.521-1.999-1.828v-4.152H244.8v-.914h1.079v-1.771h1.142v1.771h1.499v.914h-1.499v3.872c0 .807.28 1.13.991 1.13.196 0 .304-.006.508-.025v.939a3.7 3.7 0 0 1-.642.064m2.355-.051v-9.56h1.105v3.746h.101c.343-.724.984-1.149 1.994-1.149 1.536 0 2.393.907 2.393 2.532V153h-1.105v-4.164c0-1.232-.508-1.822-1.599-1.822-1.092 0-1.784.736-1.784 1.936V153zm10.385.121c-1.955 0-3.136-1.371-3.136-3.517v-.006c0-2.114 1.206-3.561 3.066-3.561s2.99 1.383 2.99 3.427v.432h-4.926c.032 1.416.813 2.241 2.032 2.241.926 0 1.498-.438 1.682-.851l.025-.057h1.105l-.013.051c-.235.927-1.213 1.841-2.825 1.841m-.076-6.1c-1.016 0-1.79.691-1.911 1.993h3.784c-.115-1.352-.864-1.993-1.873-1.993m8.366 5.979v-6.843h1.105v1.041h.101c.305-.736.952-1.161 1.847-1.161.927 0 1.575.488 1.892 1.199h.102c.368-.723 1.149-1.199 2.094-1.199 1.397 0 2.178.799 2.178 2.234V153h-1.105v-4.475c0-1.009-.463-1.511-1.428-1.511-.952 0-1.581.717-1.581 1.587V153h-1.104v-4.646c0-.813-.559-1.34-1.422-1.34-.895 0-1.574.781-1.574 1.746V153zm14.105.121c-1.955 0-3.136-1.371-3.136-3.517v-.006c0-2.114 1.206-3.561 3.066-3.561s2.99 1.383 2.99 3.427v.432h-4.926c.032 1.416.812 2.241 2.031 2.241.927 0 1.498-.438 1.682-.851l.026-.057h1.104l-.013.051c-.234.927-1.212 1.841-2.824 1.841m-.076-6.1c-1.016 0-1.791.691-1.911 1.993h3.783c-.114-1.352-.863-1.993-1.872-1.993m7.141 6.03c-1.41 0-2-.521-2-1.828v-4.152h-1.079v-.914h1.079v-1.771h1.143v1.771h1.498v.914h-1.498v3.872c0 .807.279 1.13.99 1.13.197 0 .305-.006.508-.025v.939a3.7 3.7 0 0 1-.641.064m4.17.07c-1.301 0-2.285-.788-2.285-2.032v-.012c0-1.219.901-1.924 2.495-2.019l1.961-.12v-.623c0-.844-.514-1.301-1.536-1.301-.819 0-1.359.305-1.536.838l-.007.019h-1.104l.006-.038c.178-1.073 1.219-1.796 2.679-1.796 1.669 0 2.602.857 2.602 2.278V153h-1.104v-1.009h-.102c-.431.73-1.149 1.13-2.069 1.13m-1.155-2.057c0 .692.59 1.098 1.384 1.098 1.123 0 1.942-.736 1.942-1.714v-.622l-1.828.114c-1.041.064-1.498.432-1.498 1.111zm8.975 2.057c-1.733 0-2.869-1.403-2.869-3.536v-.013c0-2.145 1.13-3.535 2.869-3.535.94 0 1.759.469 2.133 1.199h.102v-3.796h1.104V153h-1.104v-1.092h-.102c-.419.762-1.18 1.213-2.133 1.213m.254-.978c1.244 0 2.006-.977 2.006-2.558v-.013c0-1.58-.762-2.558-2.006-2.558-1.25 0-1.993.965-1.993 2.558v.013c0 1.593.743 2.558 1.993 2.558m7.084.978c-1.301 0-2.285-.788-2.285-2.032v-.012c0-1.219.901-1.924 2.495-2.019l1.961-.12v-.623c0-.844-.514-1.301-1.536-1.301-.819 0-1.358.305-1.536.838l-.006.019h-1.105l.006-.038c.178-1.073 1.219-1.796 2.679-1.796 1.67 0 2.603.857 2.603 2.278V153h-1.105v-1.009h-.101c-.432.73-1.149 1.13-2.07 1.13m-1.155-2.057c0 .692.59 1.098 1.384 1.098 1.123 0 1.942-.736 1.942-1.714v-.622l-1.828.114c-1.041.064-1.498.432-1.498 1.111zm8.88 1.987c-1.409 0-1.999-.521-1.999-1.828v-4.152h-1.079v-.914h1.079v-1.771h1.142v1.771h1.498v.914h-1.498v3.872c0 .807.28 1.13.991 1.13.196 0 .304-.006.507-.025v.939a3.7 3.7 0 0 1-.641.064m4.171.07c-1.302 0-2.285-.788-2.285-2.032v-.012c0-1.219.901-1.924 2.494-2.019l1.962-.12v-.623c0-.844-.515-1.301-1.536-1.301-.819 0-1.359.305-1.537.838l-.006.019h-1.104l.006-.038c.178-1.073 1.219-1.796 2.679-1.796 1.669 0 2.602.857 2.602 2.278V153h-1.104v-1.009h-.102c-.432.73-1.149 1.13-2.069 1.13m-1.156-2.057c0 .692.591 1.098 1.384 1.098 1.124 0 1.943-.736 1.943-1.714v-.622l-1.828.114c-1.041.064-1.499.432-1.499 1.111zM330.709 153v-5.929h-1.136v-.914h1.136v-.761c0-1.365.686-2.019 1.987-2.019.266 0 .508.019.736.063v.883a3 3 0 0 0-.514-.032c-.787 0-1.105.387-1.105 1.136v.73h1.556v.914h-1.556V153zm6.773.121c-1.949 0-3.155-1.346-3.155-3.536v-.013c0-2.196 1.206-3.535 3.155-3.535s3.155 1.339 3.155 3.535v.013c0 2.19-1.206 3.536-3.155 3.536m0-.978c1.295 0 2.025-.946 2.025-2.558v-.013c0-1.618-.73-2.558-2.025-2.558s-2.025.94-2.025 2.558v.013c0 1.612.73 2.558 2.025 2.558m4.869.857v-6.843h1.104v1.016h.102c.26-.717.901-1.136 1.828-1.136.209 0 .444.025.552.044v1.073a4 4 0 0 0-.679-.064c-1.054 0-1.803.667-1.803 1.67V153zm5.078 0v-6.843h1.104v1.041h.102c.304-.736.952-1.161 1.847-1.161.927 0 1.574.488 1.892 1.199h.101c.368-.723 1.149-1.199 2.095-1.199 1.396 0 2.177.799 2.177 2.234V153h-1.104v-4.475c0-1.009-.464-1.511-1.429-1.511-.952 0-1.58.717-1.58 1.587V153h-1.105v-4.646c0-.813-.558-1.34-1.422-1.34-.895 0-1.574.781-1.574 1.746V153z"/><g opacity=".25"><path fill="#f8f8f8" d="M28 171a4 4 0 0 1 4-4h40a4 4 0 0 1 4 4v40a4 4 0 0 1-4 4H32a4 4 0 0 1-4-4z"/><path fill="#6e6e6e" d="M59.258 186.867c.325-.325.325-.867 0-1.175l-1.95-1.95c-.308-.325-.85-.325-1.175 0l-1.533 1.525 3.125 3.125zM44.5 195.375v3.125h3.125l9.217-9.225-3.125-3.125z"/><path fill="#141414" fill-opacity=".85" d="M92.973 185.264c-2.454 0-4.013-1.209-4.145-3.033l-.008-.102h1.831l.008.073c.088.886 1.032 1.472 2.373 1.472 1.274 0 2.168-.63 2.168-1.538v-.007c0-.762-.55-1.223-1.912-1.516l-1.135-.235c-2.16-.454-3.098-1.464-3.098-3.039v-.007c0-1.89 1.626-3.165 3.91-3.165 2.345 0 3.802 1.282 3.934 2.981l.007.096h-1.809l-.014-.088c-.132-.821-.916-1.406-2.124-1.399-1.172 0-2.007.549-2.007 1.45v.007c0 .747.534 1.216 1.853 1.494l1.135.242c2.227.469 3.157 1.362 3.157 2.959v.008c0 2.058-1.59 3.347-4.124 3.347m8.709-.103c-1.802 0-2.725-1.084-2.725-2.988v-5.178h1.824v4.76c0 1.238.461 1.868 1.56 1.868 1.179 0 1.809-.762 1.809-1.963v-4.665h1.824V185h-1.824v-1.216h-.125c-.373.857-1.186 1.377-2.343 1.377m9.961 2.651c-2.11 0-3.377-.9-3.56-2.248l.007-.022h1.824l.007.022c.125.513.733.872 1.751.872 1.245 0 1.97-.579 1.97-1.604v-1.531h-.124c-.462.857-1.333 1.325-2.439 1.325-2.029 0-3.289-1.567-3.289-3.837v-.015c0-2.315 1.26-3.911 3.325-3.911 1.106 0 1.97.542 2.425 1.45h.095v-1.318h1.823v7.807c0 1.846-1.479 3.01-3.815 3.01m0-4.636c1.267 0 2.028-.974 2.028-2.387v-.015c0-1.414-.769-2.395-2.028-2.395-1.268 0-1.985.981-1.985 2.395v.015c0 1.413.717 2.387 1.985 2.387m9.492 4.636c-2.11 0-3.377-.9-3.56-2.248l.008-.022h1.823l.008.022c.124.513.732.872 1.75.872 1.245 0 1.97-.579 1.97-1.604v-1.531h-.124c-.462.857-1.333 1.325-2.439 1.325-2.029 0-3.289-1.567-3.289-3.837v-.015c0-2.315 1.26-3.911 3.325-3.911 1.106 0 1.971.542 2.425 1.45h.095v-1.318h1.824v7.807c0 1.846-1.48 3.01-3.816 3.01m0-4.636c1.267 0 2.029-.974 2.029-2.387v-.015c0-1.414-.769-2.395-2.029-2.395-1.267 0-1.985.981-1.985 2.395v.015c0 1.413.718 2.387 1.985 2.387m9.477 1.985c-2.38 0-3.823-1.597-3.823-4.145v-.008c0-2.519 1.458-4.167 3.735-4.167s3.684 1.597 3.684 4.013v.601h-5.595c.022 1.436.798 2.271 2.036 2.271.989 0 1.553-.498 1.728-.865l.022-.051h1.736l-.022.066c-.256 1.033-1.325 2.285-3.501 2.285m-.066-6.892c-1.018 0-1.779.689-1.919 1.963h3.802c-.125-1.311-.865-1.963-1.883-1.963m8.511 6.892c-2.036 0-3.266-.937-3.42-2.292v-.015h1.809l.007.015c.191.556.725.944 1.633.944.909 0 1.539-.41 1.539-1.01v-.015c0-.469-.352-.776-1.231-.974l-1.296-.293c-1.524-.337-2.249-1.055-2.249-2.234v-.007c0-1.443 1.318-2.439 3.208-2.439 1.948 0 3.113.967 3.23 2.263v.015h-1.714l-.007-.022c-.132-.506-.659-.916-1.516-.916-.813 0-1.399.396-1.399.996v.008c0 .468.337.754 1.201.952l1.296.285c1.568.352 2.308 1.018 2.308 2.183v.015c0 1.523-1.429 2.541-3.399 2.541m8.328-.124c-1.839 0-2.593-.616-2.593-2.161v-4.468h-1.245v-1.413h1.245v-1.963h1.853v1.963h1.692v1.413h-1.692v4.036c0 .798.315 1.135 1.077 1.135.256 0 .395-.007.615-.029v1.406a5 5 0 0 1-.952.081m10.627.227c-2.453 0-4.013-1.209-4.145-3.033l-.008-.102h1.831l.008.073c.088.886 1.032 1.472 2.373 1.472 1.274 0 2.168-.63 2.168-1.538v-.007c0-.762-.55-1.223-1.912-1.516l-1.135-.235c-2.161-.454-3.098-1.464-3.098-3.039v-.007c0-1.89 1.626-3.165 3.911-3.165 2.344 0 3.801 1.282 3.933 2.981l.007.096h-1.809l-.014-.088c-.132-.821-.916-1.406-2.124-1.399-1.172 0-2.007.549-2.007 1.45v.007c0 .747.534 1.216 1.853 1.494l1.135.242c2.227.469 3.157 1.362 3.157 2.959v.008c0 2.058-1.59 3.347-4.124 3.347m6.248-.264v-10.569h6.841v1.59h-4.952v2.863h4.681v1.502h-4.681v3.025h4.952V185zm13.74.264c-3.098 0-5.002-2.146-5.002-5.545v-.014c0-3.406 1.933-5.538 5.002-5.538 3.076 0 4.995 2.132 4.995 5.538v.014c0 3.399-1.912 5.545-4.995 5.545m0-1.634c1.882 0 3.069-1.538 3.069-3.911v-.014c0-2.388-1.194-3.904-3.069-3.904s-3.076 1.516-3.076 3.904v.014c0 2.373 1.172 3.911 3.076 3.911m13.857 1.502c-2.006 0-3.281-1.59-3.281-4.124v-.014c0-2.549 1.253-4.131 3.281-4.131 1.099 0 2.015.542 2.432 1.406h.125v-4.373h1.831V185h-1.831v-1.252h-.125c-.439.871-1.304 1.384-2.432 1.384m.572-1.538c1.245 0 2.014-.982 2.014-2.586v-.014c0-1.604-.776-2.593-2.014-2.593s-2 .981-2 2.593v.014c0 1.612.755 2.586 2 2.586m9.536 1.567c-2.381 0-3.823-1.597-3.823-4.145v-.008c0-2.519 1.457-4.167 3.735-4.167s3.684 1.597 3.684 4.013v.601h-5.596c.022 1.436.799 2.271 2.036 2.271.989 0 1.553-.498 1.729-.865l.022-.051h1.736l-.022.066c-.257 1.033-1.326 2.285-3.501 2.285m-.066-6.892c-1.018 0-1.78.689-1.919 1.963h3.801c-.124-1.311-.864-1.963-1.882-1.963m8.511 6.892c-2.036 0-3.267-.937-3.421-2.292v-.015h1.809l.008.015c.19.556.725.944 1.633.944s1.538-.41 1.538-1.01v-.015c0-.469-.352-.776-1.23-.974l-1.297-.293c-1.523-.337-2.248-1.055-2.248-2.234v-.007c0-1.443 1.318-2.439 3.208-2.439 1.948 0 3.112.967 3.23 2.263v.015h-1.714l-.008-.022c-.131-.506-.659-.916-1.516-.916-.813 0-1.399.396-1.399.996v.008c0 .468.337.754 1.202.952l1.296.285c1.567.352 2.307 1.018 2.307 2.183v.015c0 1.523-1.428 2.541-3.398 2.541m8.672 0c-2.41 0-3.831-1.56-3.831-4.175v-.014c0-2.586 1.414-4.131 3.823-4.131 2.058 0 3.289 1.142 3.494 2.798v.029h-1.721l-.008-.022c-.168-.776-.761-1.333-1.757-1.333-1.246 0-1.978.981-1.978 2.659v.014c0 1.7.74 2.696 1.978 2.696.944 0 1.523-.432 1.75-1.275l.015-.029 1.721-.007-.015.058c-.263 1.641-1.443 2.732-3.471 2.732m5.222-.161v-8.005h1.823v1.23h.125c.271-.857 1.003-1.362 2.058-1.362.278 0 .564.036.74.088v1.633a4.6 4.6 0 0 0-.908-.103c-1.216 0-2.015.726-2.015 1.868V185zm7.177-9.346c-.6 0-1.091-.476-1.091-1.076 0-.594.491-1.077 1.091-1.077.594 0 1.084.483 1.084 1.077 0 .6-.49 1.076-1.084 1.076m-.915 9.346v-8.005h1.824V185zm4.065 2.659v-10.664h1.824v1.252h.124c.44-.872 1.311-1.384 2.432-1.384 2.007 0 3.288 1.596 3.288 4.131v.014c0 2.549-1.259 4.124-3.288 4.124-1.099 0-2.014-.542-2.432-1.406h-.124v3.933zm3.808-4.065c1.246 0 2-.982 2-2.586v-.014c0-1.612-.754-2.593-2-2.593-1.237 0-2.006.981-2.006 2.585v.015c0 1.604.769 2.593 2.006 2.593m8.848 1.443c-1.838 0-2.593-.616-2.593-2.161v-4.468h-1.245v-1.413h1.245v-1.963h1.853v1.963h1.692v1.413h-1.692v4.036c0 .798.315 1.135 1.077 1.135.256 0 .396-.007.615-.029v1.406c-.263.051-.6.081-.952.081m3.706-9.383c-.6 0-1.091-.476-1.091-1.076 0-.594.491-1.077 1.091-1.077.593 0 1.084.483 1.084 1.077 0 .6-.491 1.076-1.084 1.076m-.915 9.346v-8.005h1.823V185zm7.522.161c-2.403 0-3.853-1.567-3.853-4.16v-.015c0-2.57 1.472-4.145 3.853-4.145 2.387 0 3.852 1.567 3.852 4.145v.015c0 2.593-1.457 4.16-3.852 4.16m0-1.479c1.267 0 1.984-.989 1.984-2.674v-.014c0-1.685-.725-2.681-1.984-2.681-1.267 0-1.993.996-1.993 2.681v.014c0 1.685.726 2.674 1.993 2.674m5.683 1.318v-8.005h1.824v1.223h.124c.381-.857 1.15-1.377 2.308-1.377 1.787 0 2.761 1.076 2.761 2.981V185h-1.824v-4.753c0-1.246-.505-1.875-1.611-1.875-1.084 0-1.758.761-1.758 1.962V185z"/><path fill="#141414" fill-opacity=".45" d="M92.964 207.216c-2.533 0-4.151-1.866-4.151-4.793v-.012c0-2.889 1.644-4.786 4.15-4.786 2.032 0 3.46 1.142 3.822 2.881l.013.064h-1.155l-.02-.064c-.374-1.18-1.294-1.828-2.66-1.828-1.815 0-2.982 1.46-2.982 3.733v.012c0 2.305 1.148 3.739 2.99 3.739 1.637 0 2.741-1.047 2.741-2.596v-.222h-2.57v-1.003h3.713v1.117c0 2.26-1.549 3.758-3.891 3.758m8.569-.095c-1.955 0-3.136-1.371-3.136-3.517v-.006c0-2.114 1.206-3.561 3.066-3.561s2.99 1.383 2.99 3.427v.432h-4.926c.032 1.416.813 2.241 2.032 2.241.926 0 1.498-.438 1.682-.851l.025-.057h1.105l-.013.051c-.235.927-1.212 1.841-2.825 1.841m-.076-6.1c-1.016 0-1.79.691-1.91 1.993h3.783c-.115-1.352-.864-1.993-1.873-1.993m4.71 5.979v-6.843h1.104v1.029h.102c.343-.724.984-1.149 1.993-1.149 1.536 0 2.393.907 2.393 2.532V207h-1.104v-4.164c0-1.232-.508-1.822-1.6-1.822s-1.784.736-1.784 1.936V207zm10.385.121c-1.955 0-3.136-1.371-3.136-3.517v-.006c0-2.114 1.206-3.561 3.066-3.561s2.99 1.383 2.99 3.427v.432h-4.926c.032 1.416.812 2.241 2.031 2.241.927 0 1.498-.438 1.682-.851l.026-.057h1.104l-.013.051c-.234.927-1.212 1.841-2.824 1.841m-.076-6.1c-1.016 0-1.79.691-1.911 1.993h3.783c-.114-1.352-.863-1.993-1.872-1.993m4.71 5.979v-6.843h1.104v1.016h.102c.26-.717.901-1.136 1.828-1.136.209 0 .444.025.552.044v1.073a4 4 0 0 0-.679-.064c-1.054 0-1.803.667-1.803 1.67V207zm6.83.121c-1.302 0-2.286-.788-2.286-2.032v-.012c0-1.219.902-1.924 2.495-2.019l1.962-.12v-.623c0-.844-.515-1.301-1.537-1.301-.818 0-1.358.305-1.536.838l-.006.019h-1.105l.007-.038c.178-1.073 1.219-1.796 2.678-1.796 1.67 0 2.603.857 2.603 2.278V207h-1.104v-1.009h-.102c-.432.73-1.149 1.13-2.069 1.13m-1.156-2.057c0 .692.591 1.098 1.384 1.098 1.124 0 1.943-.736 1.943-1.714v-.622l-1.829.114c-1.041.064-1.498.432-1.498 1.111zm8.881 1.987c-1.409 0-2-.521-2-1.828v-4.152h-1.079v-.914h1.079v-1.771h1.143v1.771h1.498v.914h-1.498v3.872c0 .807.279 1.13.99 1.13.197 0 .305-.006.508-.025v.939a3.7 3.7 0 0 1-.641.064m4.983.07c-1.955 0-3.136-1.371-3.136-3.517v-.006c0-2.114 1.206-3.561 3.066-3.561s2.99 1.383 2.99 3.427v.432h-4.926c.032 1.416.812 2.241 2.031 2.241.927 0 1.498-.438 1.682-.851l.026-.057h1.104l-.013.051c-.235.927-1.212 1.841-2.824 1.841m-.077-6.1c-1.015 0-1.79.691-1.91 1.993h3.783c-.114-1.352-.863-1.993-1.873-1.993m7.059 6.1c-1.523 0-2.571-.737-2.698-1.867h1.13c.184.572.73.946 1.606.946.921 0 1.574-.438 1.574-1.06v-.013c0-.463-.349-.787-1.193-.99l-1.06-.254c-1.282-.304-1.86-.863-1.86-1.847v-.006c0-1.136 1.092-1.993 2.545-1.993 1.435 0 2.432.717 2.584 1.834h-1.085c-.146-.539-.68-.914-1.505-.914-.812 0-1.409.419-1.409 1.022v.013c0 .463.343.755 1.149.952l1.054.254c1.288.311 1.91.869 1.91 1.847v.013c0 1.218-1.187 2.063-2.742 2.063m9.991 0c-1.301 0-2.285-.788-2.285-2.032v-.012c0-1.219.901-1.924 2.495-2.019l1.961-.12v-.623c0-.844-.514-1.301-1.536-1.301-.819 0-1.358.305-1.536.838l-.006.019h-1.105l.006-.038c.178-1.073 1.219-1.796 2.679-1.796 1.67 0 2.603.857 2.603 2.278V207h-1.105v-1.009h-.101c-.432.73-1.149 1.13-2.07 1.13m-1.155-2.057c0 .692.59 1.098 1.384 1.098 1.123 0 1.942-.736 1.942-1.714v-.622l-1.828.114c-1.041.064-1.498.432-1.498 1.111zm6.449 1.936v-6.843h1.105v1.029h.101c.343-.724.984-1.149 1.993-1.149 1.537 0 2.393.907 2.393 2.532V207h-1.104v-4.164c0-1.232-.508-1.822-1.6-1.822-1.091 0-1.783.736-1.783 1.936V207zm14.39.216c-2.006 0-3.3-1.054-3.434-2.546l-.006-.069h1.142l.007.069c.082.914 1.035 1.492 2.355 1.492 1.244 0 2.152-.641 2.152-1.574v-.006c0-.762-.527-1.283-1.784-1.562l-1.016-.222c-1.834-.406-2.628-1.251-2.628-2.577v-.007c.007-1.517 1.333-2.589 3.225-2.589 1.828 0 3.104 1.079 3.199 2.443l.007.089h-1.143l-.013-.082c-.127-.806-.888-1.403-2.082-1.397-1.142.007-2.025.546-2.025 1.505v.006c0 .73.502 1.225 1.746 1.498l1.016.229c1.91.425 2.666 1.193 2.666 2.513v.007c0 1.713-1.34 2.78-3.384 2.78m5.288-.216v-9.16h5.675v1.029h-4.532v2.939h4.297v1.015h-4.297v3.149h4.532V207zm11.591.216c-2.628 0-4.202-1.866-4.202-4.793v-.012c0-2.939 1.612-4.786 4.202-4.786 2.602 0 4.202 1.853 4.202 4.786v.012c0 2.92-1.587 4.793-4.202 4.793m0-1.054c1.879 0 3.034-1.473 3.034-3.739v-.012c0-2.286-1.162-3.733-3.034-3.733-1.866 0-3.034 1.447-3.034 3.733v.012c0 2.266 1.129 3.739 3.034 3.739m12.225.959c-1.733 0-2.869-1.403-2.869-3.536v-.013c0-2.145 1.13-3.535 2.869-3.535.94 0 1.759.469 2.133 1.199h.102v-3.796h1.104V207h-1.104v-1.092h-.102c-.419.762-1.18 1.213-2.133 1.213m.254-.978c1.244 0 2.006-.977 2.006-2.558v-.013c0-1.58-.762-2.558-2.006-2.558-1.25 0-1.993.965-1.993 2.558v.013c0 1.593.743 2.558 1.993 2.558m7.998.978c-1.955 0-3.135-1.371-3.135-3.517v-.006c0-2.114 1.206-3.561 3.065-3.561 1.86 0 2.99 1.383 2.99 3.427v.432h-4.926c.032 1.416.813 2.241 2.032 2.241.926 0 1.498-.438 1.682-.851l.025-.057h1.105l-.013.051c-.235.927-1.212 1.841-2.825 1.841m-.076-6.1c-1.015 0-1.79.691-1.911 1.993h3.784c-.115-1.352-.864-1.993-1.873-1.993m7.059 6.1c-1.524 0-2.571-.737-2.698-1.867h1.13c.184.572.73.946 1.606.946.92 0 1.574-.438 1.574-1.06v-.013c0-.463-.349-.787-1.193-.99l-1.06-.254c-1.283-.304-1.86-.863-1.86-1.847v-.006c0-1.136 1.092-1.993 2.545-1.993 1.435 0 2.431.717 2.584 1.834h-1.086c-.146-.539-.679-.914-1.504-.914-.813 0-1.409.419-1.409 1.022v.013c0 .463.342.755 1.149.952l1.053.254c1.289.311 1.911.869 1.911 1.847v.013c0 1.218-1.187 2.063-2.742 2.063m7.255 0c-1.917 0-3.142-1.391-3.142-3.561v-.013c0-2.127 1.219-3.51 3.136-3.51 1.663 0 2.659.958 2.863 2.177l.006.038h-1.098l-.007-.019c-.171-.673-.78-1.219-1.764-1.219-1.232 0-2.006.99-2.006 2.533v.013c0 1.574.787 2.583 2.006 2.583.92 0 1.504-.406 1.758-1.168l.013-.038 1.092-.006-.013.069c-.279 1.238-1.2 2.121-2.844 2.121m4.475-.121v-6.843h1.105v1.016h.101c.261-.717.902-1.136 1.828-1.136.21 0 .445.025.553.044v1.073a4 4 0 0 0-.68-.064c-1.053 0-1.802.667-1.802 1.67V207zm5.535-8.163a.764.764 0 0 1-.761-.762c0-.419.342-.762.761-.762s.762.343.762.762a.764.764 0 0 1-.762.762m-.558 8.163v-6.843h1.104V207zm3.186 2.285v-9.128h1.105v1.092h.101c.419-.762 1.181-1.212 2.133-1.212 1.733 0 2.869 1.402 2.869 3.535v.013c0 2.145-1.13 3.536-2.869 3.536-.939 0-1.758-.47-2.133-1.2h-.101v3.364zm3.085-3.142c1.251 0 1.993-.965 1.993-2.558v-.013c0-1.593-.742-2.558-1.993-2.558-1.244 0-2.006.978-2.006 2.558v.013c0 1.581.762 2.558 2.006 2.558m7.281.908c-1.409 0-2-.521-2-1.828v-4.152H248.9v-.914h1.079v-1.771h1.143v1.771h1.498v.914h-1.498v3.872c0 .807.279 1.13.99 1.13.197 0 .305-.006.508-.025v.939a3.7 3.7 0 0 1-.641.064m2.875-8.214a.764.764 0 0 1-.761-.762c0-.419.343-.762.761-.762.419 0 .762.343.762.762a.764.764 0 0 1-.762.762m-.558 8.163v-6.843h1.104V207zm5.998.121c-1.948 0-3.154-1.346-3.154-3.536v-.013c0-2.196 1.206-3.535 3.154-3.535 1.949 0 3.155 1.339 3.155 3.535v.013c0 2.19-1.206 3.536-3.155 3.536m0-.978c1.295 0 2.025-.946 2.025-2.558v-.013c0-1.618-.73-2.558-2.025-2.558s-2.024.94-2.024 2.558v.013c0 1.612.73 2.558 2.024 2.558m4.869.857v-6.843h1.105v1.029h.101c.343-.724.984-1.149 1.993-1.149 1.536 0 2.393.907 2.393 2.532V207h-1.104v-4.164c0-1.232-.508-1.822-1.6-1.822s-1.783.736-1.783 1.936V207zm11.832-8.163a.764.764 0 0 1-.762-.762c0-.419.343-.762.762-.762s.762.343.762.762a.764.764 0 0 1-.762.762m-.558 8.163v-6.843h1.104V207zm3.186 0v-6.843h1.105v1.029h.101c.343-.724.984-1.149 1.993-1.149 1.536 0 2.393.907 2.393 2.532V207h-1.104v-4.164c0-1.232-.508-1.822-1.6-1.822s-1.783.736-1.783 1.936V207zm13.679.051c-1.409 0-1.999-.521-1.999-1.828v-4.152h-1.079v-.914h1.079v-1.771h1.142v1.771h1.498v.914h-1.498v3.872c0 .807.28 1.13.991 1.13.196 0 .304-.006.507-.025v.939a3.7 3.7 0 0 1-.641.064m2.355-.051v-9.56h1.105v3.746h.101c.343-.724.984-1.149 1.993-1.149 1.537 0 2.394.907 2.394 2.532V207h-1.105v-4.164c0-1.232-.508-1.822-1.6-1.822-1.091 0-1.783.736-1.783 1.936V207zm10.385.121c-1.955 0-3.136-1.371-3.136-3.517v-.006c0-2.114 1.206-3.561 3.066-3.561s2.99 1.383 2.99 3.427v.432h-4.926c.032 1.416.813 2.241 2.031 2.241.927 0 1.498-.438 1.683-.851l.025-.057h1.104l-.012.051c-.235.927-1.213 1.841-2.825 1.841m-.076-6.1c-1.016 0-1.79.691-1.911 1.993h3.783c-.114-1.352-.863-1.993-1.872-1.993m8.366 5.979v-6.843h1.105v1.041h.101c.305-.736.952-1.161 1.847-1.161.927 0 1.574.488 1.892 1.199h.101c.369-.723 1.149-1.199 2.095-1.199 1.397 0 2.177.799 2.177 2.234V207h-1.104v-4.475c0-1.009-.463-1.511-1.428-1.511-.952 0-1.581.717-1.581 1.587V207h-1.104v-4.646c0-.813-.559-1.34-1.422-1.34-.895 0-1.574.781-1.574 1.746V207zm14.105.121c-1.956 0-3.136-1.371-3.136-3.517v-.006c0-2.114 1.206-3.561 3.066-3.561s2.989 1.383 2.989 3.427v.432h-4.925c.031 1.416.812 2.241 2.031 2.241.927 0 1.498-.438 1.682-.851l.025-.057h1.105l-.013.051c-.235.927-1.212 1.841-2.824 1.841m-.077-6.1c-1.015 0-1.79.691-1.91 1.993h3.783c-.114-1.352-.863-1.993-1.873-1.993m7.141 6.03c-1.409 0-1.999-.521-1.999-1.828v-4.152h-1.079v-.914h1.079v-1.771h1.143v1.771h1.498v.914h-1.498v3.872c0 .807.279 1.13.99 1.13.197 0 .304-.006.508-.025v.939a3.7 3.7 0 0 1-.642.064m4.171.07c-1.301 0-2.285-.788-2.285-2.032v-.012c0-1.219.901-1.924 2.494-2.019l1.962-.12v-.623c0-.844-.514-1.301-1.536-1.301-.819 0-1.359.305-1.536.838l-.007.019h-1.104l.006-.038c.178-1.073 1.219-1.796 2.679-1.796 1.669 0 2.602.857 2.602 2.278V207h-1.104v-1.009h-.102c-.431.73-1.149 1.13-2.069 1.13m-1.155-2.057c0 .692.59 1.098 1.383 1.098 1.124 0 1.943-.736 1.943-1.714v-.622l-1.828.114c-1.041.064-1.498.432-1.498 1.111zm8.975 2.057c-1.733 0-2.869-1.403-2.869-3.536v-.013c0-2.145 1.13-3.535 2.869-3.535.94 0 1.758.469 2.133 1.199h.102v-3.796h1.104V207h-1.104v-1.092h-.102c-.419.762-1.181 1.213-2.133 1.213m.254-.978c1.244 0 2.006-.977 2.006-2.558v-.013c0-1.58-.762-2.558-2.006-2.558-1.25 0-1.993.965-1.993 2.558v.013c0 1.593.743 2.558 1.993 2.558m7.084.978c-1.301 0-2.285-.788-2.285-2.032v-.012c0-1.219.901-1.924 2.495-2.019l1.961-.12v-.623c0-.844-.514-1.301-1.536-1.301-.819 0-1.359.305-1.536.838l-.007.019h-1.104l.006-.038c.178-1.073 1.219-1.796 2.679-1.796 1.669 0 2.602.857 2.602 2.278V207h-1.104v-1.009h-.102c-.431.73-1.149 1.13-2.069 1.13m-1.155-2.057c0 .692.59 1.098 1.384 1.098 1.123 0 1.942-.736 1.942-1.714v-.622l-1.828.114c-1.041.064-1.498.432-1.498 1.111zm8.88 1.987c-1.409 0-1.999-.521-1.999-1.828v-4.152h-1.079v-.914h1.079v-1.771h1.142v1.771h1.498v.914h-1.498v3.872c0 .807.28 1.13.99 1.13.197 0 .305-.006.508-.025v.939a3.7 3.7 0 0 1-.641.064m4.171.07c-1.302 0-2.286-.788-2.286-2.032v-.012c0-1.219.902-1.924 2.495-2.019l1.961-.12v-.623c0-.844-.514-1.301-1.536-1.301-.818 0-1.358.305-1.536.838l-.006.019h-1.105l.007-.038c.177-1.073 1.218-1.796 2.678-1.796 1.67 0 2.603.857 2.603 2.278V207h-1.105v-1.009h-.101c-.432.73-1.149 1.13-2.069 1.13m-1.156-2.057c0 .692.591 1.098 1.384 1.098 1.124 0 1.942-.736 1.942-1.714v-.622l-1.828.114c-1.041.064-1.498.432-1.498 1.111zM376.133 207v-5.929h-1.136v-.914h1.136v-.761c0-1.365.685-2.019 1.987-2.019.266 0 .507.019.736.063v.883a3 3 0 0 0-.514-.032c-.787 0-1.105.387-1.105 1.136v.73h1.555v.914h-1.555V207zm6.773.121c-1.949 0-3.155-1.346-3.155-3.536v-.013c0-2.196 1.206-3.535 3.155-3.535s3.155 1.339 3.155 3.535v.013c0 2.19-1.207 3.536-3.155 3.536m0-.978c1.295 0 2.025-.946 2.025-2.558v-.013c0-1.618-.73-2.558-2.025-2.558s-2.025.94-2.025 2.558v.013c0 1.612.73 2.558 2.025 2.558m4.868.857v-6.843h1.105v1.016h.101c.261-.717.902-1.136 1.829-1.136.209 0 .444.025.552.044v1.073a4 4 0 0 0-.679-.064c-1.054 0-1.803.667-1.803 1.67V207zm5.079 0v-6.843h1.104v1.041h.102c.304-.736.952-1.161 1.847-1.161.927 0 1.574.488 1.891 1.199h.102c.368-.723 1.149-1.199 2.095-1.199 1.396 0 2.177.799 2.177 2.234V207h-1.105v-4.475c0-1.009-.463-1.511-1.428-1.511-.952 0-1.58.717-1.58 1.587V207h-1.105v-4.646c0-.813-.558-1.34-1.422-1.34-.895 0-1.574.781-1.574 1.746V207z"/></g><g opacity=".25"><path fill="#f8f8f8" d="M28 225a4 4 0 0 1 4-4h40a4 4 0 0 1 4 4v40a4 4 0 0 1-4 4H32a4 4 0 0 1-4-4z"/><g clip-path="url(#b)"><path fill="url(#c)" d="M28 221h48v48H28z"/></g><path fill="#141414" fill-opacity=".85" d="m88.52 239 3.75-10.569h2.131L98.151 239h-1.977l-.886-2.732h-3.912L90.499 239zm4.753-8.606-1.42 4.417h2.966l-1.421-4.417zm8.951 8.738c-2.007 0-3.282-1.59-3.282-4.124v-.014c0-2.549 1.253-4.131 3.282-4.131 1.098 0 2.014.542 2.431 1.406h.125v-4.373h1.831V239h-1.831v-1.252h-.125c-.439.871-1.303 1.384-2.431 1.384m.571-1.538c1.245 0 2.014-.982 2.014-2.586v-.014c0-1.604-.776-2.593-2.014-2.593s-2 .981-2 2.593v.014c0 1.612.755 2.586 2 2.586m8.994 1.538c-2.007 0-3.281-1.59-3.281-4.124v-.014c0-2.549 1.252-4.131 3.281-4.131 1.099 0 2.014.542 2.432 1.406h.124v-4.373h1.831V239h-1.831v-1.252h-.124c-.44.871-1.304 1.384-2.432 1.384m.571-1.538c1.245 0 2.015-.982 2.015-2.586v-.014c0-1.604-.777-2.593-2.015-2.593s-1.999.981-1.999 2.593v.014c0 1.612.754 2.586 1.999 2.586m13.133 1.567c-2.036 0-3.267-.937-3.421-2.292v-.015h1.809l.008.015c.19.556.725.944 1.633.944s1.538-.41 1.538-1.01v-.015c0-.469-.352-.776-1.23-.974l-1.297-.293c-1.523-.337-2.248-1.055-2.248-2.234v-.007c0-1.443 1.318-2.439 3.208-2.439 1.948 0 3.112.967 3.23 2.263v.015h-1.714l-.008-.022c-.131-.506-.659-.916-1.516-.916-.813 0-1.399.396-1.399.996v.008c0 .468.337.754 1.202.952l1.296.285c1.567.352 2.307 1.018 2.307 2.183v.015c0 1.523-1.428 2.541-3.398 2.541m7.888 0c-1.802 0-2.725-1.084-2.725-2.988v-5.178h1.824v4.76c0 1.238.461 1.868 1.56 1.868 1.179 0 1.809-.762 1.809-1.963v-4.665h1.824V239h-1.824v-1.216h-.124c-.374.857-1.187 1.377-2.344 1.377m10.972-.029c-1.121 0-1.993-.513-2.432-1.384h-.125V239h-1.823v-11.104h1.823v4.373h.125c.417-.864 1.333-1.406 2.432-1.406 2.028 0 3.288 1.582 3.288 4.131v.014c0 2.534-1.282 4.124-3.288 4.124m-.572-1.538c1.245 0 2-.974 2-2.586v-.014c0-1.612-.755-2.593-2-2.593-1.238 0-2.007.989-2.007 2.593v.014c0 1.604.769 2.586 2.007 2.586m8.833 1.443c-1.838 0-2.593-.616-2.593-2.161v-4.468h-1.245v-1.413h1.245v-1.963h1.854v1.963h1.691v1.413h-1.691v4.036c0 .798.314 1.135 1.076 1.135.257 0 .396-.007.615-.029v1.406c-.263.051-.6.081-.952.081m3.706-9.383c-.6 0-1.091-.476-1.091-1.076 0-.594.491-1.077 1.091-1.077.594 0 1.084.483 1.084 1.077 0 .6-.49 1.076-1.084 1.076m-.915 9.346v-8.005h1.824V239zm7.214.037c-1.838 0-2.593-.616-2.593-2.161v-4.468h-1.245v-1.413h1.245v-1.963h1.853v1.963h1.692v1.413h-1.692v4.036c0 .798.315 1.135 1.077 1.135.256 0 .396-.007.615-.029v1.406c-.263.051-.6.081-.952.081m2.842-.037v-11.104h1.824V239zm7.559.161c-2.381 0-3.824-1.597-3.824-4.145v-.008c0-2.519 1.458-4.167 3.736-4.167 2.277 0 3.684 1.597 3.684 4.013v.601h-5.596c.022 1.436.798 2.271 2.036 2.271.989 0 1.553-.498 1.729-.865l.022-.051h1.735l-.021.066c-.257 1.033-1.326 2.285-3.501 2.285m-.066-6.892c-1.018 0-1.78.689-1.919 1.963h3.801c-.125-1.311-.864-1.963-1.882-1.963m8.51 6.892c-2.036 0-3.266-.937-3.42-2.292v-.015h1.809l.007.015c.191.556.725.944 1.634.944s1.538-.41 1.538-1.01v-.015c0-.469-.352-.776-1.231-.974l-1.296-.293c-1.524-.337-2.249-1.055-2.249-2.234v-.007c0-1.443 1.319-2.439 3.208-2.439 1.949 0 3.113.967 3.23 2.263v.015h-1.714l-.007-.022c-.132-.506-.659-.916-1.516-.916-.813 0-1.399.396-1.399.996v.008c0 .468.337.754 1.201.952l1.297.285c1.567.352 2.307 1.018 2.307 2.183v.015c0 1.523-1.428 2.541-3.399 2.541"/><path fill="#141414" fill-opacity=".45" d="m88.438 261 3.377-9.16h1.13l3.377 9.16h-1.2l-.92-2.622h-3.644l-.92 2.622zm3.891-7.681-1.434 4.088h2.97l-1.434-4.088zm7.605 7.802c-1.733 0-2.87-1.403-2.87-3.536v-.013c0-2.145 1.13-3.535 2.87-3.535.939 0 1.758.469 2.132 1.199h.102v-3.796h1.104V261h-1.104v-1.092h-.102c-.419.762-1.18 1.213-2.132 1.213m.254-.978c1.244 0 2.005-.977 2.005-2.558v-.013c0-1.58-.761-2.558-2.005-2.558-1.251 0-1.994.965-1.994 2.558v.013c0 1.593.743 2.558 1.994 2.558m7.731.978c-1.733 0-2.869-1.403-2.869-3.536v-.013c0-2.145 1.13-3.535 2.869-3.535.939 0 1.758.469 2.133 1.199h.101v-3.796h1.105V261h-1.105v-1.092h-.101c-.419.762-1.181 1.213-2.133 1.213m.254-.978c1.244 0 2.006-.977 2.006-2.558v-.013c0-1.58-.762-2.558-2.006-2.558-1.251 0-1.993.965-1.993 2.558v.013c0 1.593.742 2.558 1.993 2.558m7.554.978c-1.524 0-2.571-.737-2.698-1.867h1.13c.184.572.73.946 1.606.946.92 0 1.574-.438 1.574-1.06v-.013c0-.463-.349-.787-1.193-.99l-1.061-.254c-1.282-.304-1.859-.863-1.859-1.847v-.006c0-1.136 1.091-1.993 2.545-1.993 1.435 0 2.431.717 2.583 1.834h-1.085c-.146-.539-.679-.914-1.504-.914-.813 0-1.41.419-1.41 1.022v.013c0 .463.343.755 1.149.952l1.054.254c1.289.311 1.911.869 1.911 1.847v.013c0 1.218-1.187 2.063-2.742 2.063m9.991 0c-1.301 0-2.285-.788-2.285-2.032v-.012c0-1.219.901-1.924 2.494-2.019l1.962-.12v-.623c0-.844-.514-1.301-1.536-1.301-.819 0-1.359.305-1.537.838l-.006.019h-1.104l.006-.038c.178-1.073 1.219-1.796 2.679-1.796 1.669 0 2.602.857 2.602 2.278V261h-1.104v-1.009h-.102c-.432.73-1.149 1.13-2.069 1.13m-1.156-2.057c0 .692.591 1.098 1.384 1.098 1.124 0 1.943-.736 1.943-1.714v-.622l-1.828.114c-1.041.064-1.499.432-1.499 1.111zm8.741 2.057c-1.555 0-2.355-.914-2.355-2.533v-4.431h1.105v4.164c0 1.232.444 1.822 1.536 1.822 1.206 0 1.847-.736 1.847-1.936v-4.05h1.105V261h-1.105v-1.022h-.102c-.336.73-1.028 1.143-2.031 1.143m7.732-.07c-1.41 0-2-.521-2-1.828v-4.152h-1.079v-.914h1.079v-1.771h1.143v1.771h1.498v.914h-1.498v3.872c0 .807.279 1.13.99 1.13.197 0 .305-.006.508-.025v.939a3.7 3.7 0 0 1-.641.064m5.002.07c-1.949 0-3.155-1.346-3.155-3.536v-.013c0-2.196 1.206-3.535 3.155-3.535s3.154 1.339 3.154 3.535v.013c0 2.19-1.206 3.536-3.154 3.536m0-.978c1.295 0 2.025-.946 2.025-2.558v-.013c0-1.618-.73-2.558-2.025-2.558s-2.025.94-2.025 2.558v.013c0 1.612.73 2.558 2.025 2.558m4.868.857v-6.843h1.105v1.041h.101c.305-.736.952-1.161 1.847-1.161.927 0 1.575.488 1.892 1.199h.102c.368-.723 1.149-1.199 2.094-1.199 1.397 0 2.178.799 2.178 2.234V261h-1.105v-4.475c0-1.009-.463-1.511-1.428-1.511-.952 0-1.581.717-1.581 1.587V261h-1.104v-4.646c0-.813-.559-1.34-1.422-1.34-.895 0-1.574.781-1.574 1.746V261zm13.191.121c-1.302 0-2.285-.788-2.285-2.032v-.012c0-1.219.901-1.924 2.494-2.019l1.962-.12v-.623c0-.844-.515-1.301-1.537-1.301-.818 0-1.358.305-1.536.838l-.006.019h-1.105l.007-.038c.178-1.073 1.219-1.796 2.679-1.796 1.669 0 2.602.857 2.602 2.278V261h-1.104v-1.009h-.102c-.432.73-1.149 1.13-2.069 1.13m-1.156-2.057c0 .692.591 1.098 1.384 1.098 1.124 0 1.943-.736 1.943-1.714v-.622l-1.829.114c-1.041.064-1.498.432-1.498 1.111zm8.881 1.987c-1.409 0-2-.521-2-1.828v-4.152h-1.079v-.914h1.079v-1.771h1.143v1.771h1.498v.914h-1.498v3.872c0 .807.279 1.13.99 1.13.197 0 .305-.006.508-.025v.939a3.7 3.7 0 0 1-.641.064m2.875-8.214a.764.764 0 0 1-.761-.762c0-.419.342-.762.761-.762s.762.343.762.762a.764.764 0 0 1-.762.762m-.558 8.163v-6.843h1.104V261zm5.986.121c-1.917 0-3.143-1.391-3.143-3.561v-.013c0-2.127 1.219-3.51 3.136-3.51 1.663 0 2.66.958 2.863 2.177l.006.038h-1.098l-.006-.019c-.172-.673-.781-1.219-1.765-1.219-1.231 0-2.006.99-2.006 2.533v.013c0 1.574.787 2.583 2.006 2.583.921 0 1.505-.406 1.758-1.168l.013-.038 1.092-.006-.013.069c-.279 1.238-1.199 2.121-2.843 2.121m6.354 0c-1.302 0-2.286-.788-2.286-2.032v-.012c0-1.219.902-1.924 2.495-2.019l1.961-.12v-.623c0-.844-.514-1.301-1.536-1.301-.819 0-1.358.305-1.536.838l-.006.019h-1.105l.007-.038c.177-1.073 1.218-1.796 2.678-1.796 1.67 0 2.603.857 2.603 2.278V261h-1.105v-1.009h-.101c-.432.73-1.149 1.13-2.069 1.13m-1.156-2.057c0 .692.591 1.098 1.384 1.098 1.124 0 1.942-.736 1.942-1.714v-.622l-1.828.114c-1.041.064-1.498.432-1.498 1.111zm6.513 1.936v-9.56h1.104V261zm3.288 0v-9.56h1.105V261zm3.809 2.399c-.146 0-.337-.012-.489-.038v-.907c.133.025.305.031.457.031.628 0 1.009-.285 1.257-1.072l.127-.407-2.533-6.849h1.181l1.879 5.631h.101l1.873-5.631h1.161l-2.672 7.262c-.565 1.536-1.13 1.98-2.342 1.98m12.949.013c-1.651 0-2.704-.743-2.876-1.866l.013-.006h1.143l.006.006c.121.52.73.889 1.714.889 1.225 0 1.955-.578 1.955-1.587v-1.384h-.102c-.431.755-1.206 1.181-2.145 1.181-1.771 0-2.869-1.372-2.869-3.289v-.012c0-1.917 1.104-3.307 2.894-3.307.965 0 1.714.476 2.133 1.25h.076v-1.13h1.105v6.748c0 1.53-1.181 2.507-3.047 2.507m-.051-3.745c1.27 0 2.031-.952 2.031-2.311v-.012c0-1.359-.768-2.33-2.031-2.33-1.269 0-1.98.971-1.98 2.33v.012c0 1.359.711 2.311 1.98 2.311m7.947 1.454c-1.955 0-3.135-1.371-3.135-3.517v-.006c0-2.114 1.206-3.561 3.066-3.561s2.989 1.383 2.989 3.427v.432h-4.926c.032 1.416.813 2.241 2.032 2.241.926 0 1.498-.438 1.682-.851l.025-.057h1.105l-.013.051c-.235.927-1.212 1.841-2.825 1.841m-.076-6.1c-1.015 0-1.79.691-1.91 1.993h3.783c-.115-1.352-.864-1.993-1.873-1.993m4.71 5.979v-6.843h1.105v1.029h.101c.343-.724.984-1.149 1.993-1.149 1.536 0 2.393.907 2.393 2.532V261h-1.104v-4.164c0-1.232-.508-1.822-1.6-1.822-1.091 0-1.783.736-1.783 1.936V261zm10.385.121c-1.955 0-3.136-1.371-3.136-3.517v-.006c0-2.114 1.206-3.561 3.066-3.561s2.99 1.383 2.99 3.427v.432h-4.926c.032 1.416.813 2.241 2.031 2.241.927 0 1.498-.438 1.682-.851l.026-.057h1.104l-.012.051c-.235.927-1.213 1.841-2.825 1.841m-.076-6.1c-1.016 0-1.79.691-1.911 1.993h3.783c-.114-1.352-.863-1.993-1.872-1.993m4.71 5.979v-6.843h1.104v1.016h.102c.26-.717.901-1.136 1.828-1.136.209 0 .444.025.552.044v1.073a4 4 0 0 0-.679-.064c-1.054 0-1.803.667-1.803 1.67V261zm6.83.121c-1.302 0-2.285-.788-2.285-2.032v-.012c0-1.219.901-1.924 2.494-2.019l1.962-.12v-.623c0-.844-.514-1.301-1.536-1.301-.819 0-1.359.305-1.537.838l-.006.019h-1.104l.006-.038c.178-1.073 1.219-1.796 2.679-1.796 1.669 0 2.602.857 2.602 2.278V261h-1.104v-1.009h-.102c-.432.73-1.149 1.13-2.069 1.13m-1.156-2.057c0 .692.591 1.098 1.384 1.098 1.124 0 1.943-.736 1.943-1.714v-.622l-1.828.114c-1.041.064-1.499.432-1.499 1.111zm8.881 1.987c-1.409 0-2-.521-2-1.828v-4.152h-1.079v-.914h1.079v-1.771h1.143v1.771h1.498v.914h-1.498v3.872c0 .807.279 1.13.99 1.13.197 0 .305-.006.508-.025v.939a3.7 3.7 0 0 1-.641.064m4.983.07c-1.955 0-3.136-1.371-3.136-3.517v-.006c0-2.114 1.206-3.561 3.066-3.561s2.99 1.383 2.99 3.427v.432h-4.926c.032 1.416.812 2.241 2.031 2.241.927 0 1.498-.438 1.682-.851l.026-.057h1.104l-.013.051c-.234.927-1.212 1.841-2.824 1.841m-.076-6.1c-1.016 0-1.79.691-1.911 1.993h3.783c-.114-1.352-.863-1.993-1.872-1.993m7.236 6.1c-1.733 0-2.869-1.403-2.869-3.536v-.013c0-2.145 1.13-3.535 2.869-3.535.939 0 1.758.469 2.133 1.199h.101v-3.796h1.105V261h-1.105v-1.092h-.101c-.419.762-1.181 1.213-2.133 1.213m.254-.978c1.244 0 2.006-.977 2.006-2.558v-.013c0-1.58-.762-2.558-2.006-2.558-1.251 0-1.993.965-1.993 2.558v.013c0 1.593.742 2.558 1.993 2.558m11.21.978c-1.524 0-2.571-.737-2.698-1.867h1.13c.184.572.73.946 1.606.946.92 0 1.574-.438 1.574-1.06v-.013c0-.463-.349-.787-1.193-.99l-1.06-.254c-1.283-.304-1.86-.863-1.86-1.847v-.006c0-1.136 1.092-1.993 2.545-1.993 1.435 0 2.431.717 2.584 1.834h-1.086c-.146-.539-.679-.914-1.504-.914-.813 0-1.409.419-1.409 1.022v.013c0 .463.342.755 1.149.952l1.053.254c1.289.311 1.911.869 1.911 1.847v.013c0 1.218-1.187 2.063-2.742 2.063m6.747 0c-1.555 0-2.355-.914-2.355-2.533v-4.431h1.105v4.164c0 1.232.444 1.822 1.536 1.822 1.206 0 1.847-.736 1.847-1.936v-4.05h1.105V261h-1.105v-1.022h-.101c-.337.73-1.029 1.143-2.032 1.143m8.703 0c-.952 0-1.714-.451-2.133-1.213h-.101V261h-1.105v-9.56h1.105v3.796h.101c.375-.73 1.194-1.199 2.133-1.199 1.739 0 2.869 1.39 2.869 3.535v.013c0 2.133-1.136 3.536-2.869 3.536m-.254-.978c1.251 0 1.993-.965 1.993-2.558v-.013c0-1.593-.742-2.558-1.993-2.558-1.244 0-2.006.978-2.006 2.558v.013c0 1.581.762 2.558 2.006 2.558m7.268.908c-1.409 0-1.999-.521-1.999-1.828v-4.152h-1.079v-.914h1.079v-1.771h1.142v1.771h1.498v.914h-1.498v3.872c0 .807.28 1.13.99 1.13.197 0 .305-.006.508-.025v.939a3.7 3.7 0 0 1-.641.064m2.876-8.214a.764.764 0 0 1-.762-.762c0-.419.343-.762.762-.762s.761.343.761.762a.764.764 0 0 1-.761.762m-.559 8.163v-6.843h1.105V261zm5.618.051c-1.409 0-2-.521-2-1.828v-4.152h-1.079v-.914h1.079v-1.771h1.143v1.771h1.498v.914h-1.498v3.872c0 .807.279 1.13.99 1.13.197 0 .305-.006.508-.025v.939a3.7 3.7 0 0 1-.641.064m2.355-.051v-9.56h1.104V261zm6.017.121c-1.955 0-3.135-1.371-3.135-3.517v-.006c0-2.114 1.206-3.561 3.065-3.561 1.86 0 2.99 1.383 2.99 3.427v.432h-4.926c.032 1.416.813 2.241 2.032 2.241.926 0 1.498-.438 1.682-.851l.025-.057h1.105l-.013.051c-.235.927-1.212 1.841-2.825 1.841m-.076-6.1c-1.016 0-1.79.691-1.911 1.993h3.784c-.115-1.352-.864-1.993-1.873-1.993m7.059 6.1c-1.524 0-2.571-.737-2.698-1.867h1.13c.184.572.73.946 1.606.946.92 0 1.574-.438 1.574-1.06v-.013c0-.463-.349-.787-1.193-.99l-1.06-.254c-1.283-.304-1.86-.863-1.86-1.847v-.006c0-1.136 1.092-1.993 2.545-1.993 1.435 0 2.431.717 2.584 1.834h-1.086c-.146-.539-.679-.914-1.504-.914-.813 0-1.409.419-1.409 1.022v.013c0 .463.342.755 1.149.952l1.053.254c1.289.311 1.911.869 1.911 1.847v.013c0 1.218-1.187 2.063-2.742 2.063m10.543-.07c-1.409 0-1.999-.521-1.999-1.828v-4.152h-1.079v-.914h1.079v-1.771h1.142v1.771h1.498v.914h-1.498v3.872c0 .807.28 1.13.99 1.13.197 0 .305-.006.508-.025v.939a3.7 3.7 0 0 1-.641.064m5.002.07c-1.949 0-3.155-1.346-3.155-3.536v-.013c0-2.196 1.206-3.535 3.155-3.535s3.155 1.339 3.155 3.535v.013c0 2.19-1.206 3.536-3.155 3.536m0-.978c1.295 0 2.025-.946 2.025-2.558v-.013c0-1.618-.73-2.558-2.025-2.558s-2.025.94-2.025 2.558v.013c0 1.612.73 2.558 2.025 2.558m10.956.908c-1.409 0-1.999-.521-1.999-1.828v-4.152h-1.079v-.914h1.079v-1.771h1.142v1.771h1.498v.914h-1.498v3.872c0 .807.28 1.13.99 1.13.197 0 .305-.006.508-.025v.939a3.7 3.7 0 0 1-.641.064m2.355-.051v-9.56h1.105v3.746h.101c.343-.724.984-1.149 1.993-1.149 1.537 0 2.393.907 2.393 2.532V261h-1.104v-4.164c0-1.232-.508-1.822-1.6-1.822-1.091 0-1.783.736-1.783 1.936V261zm10.385.121c-1.955 0-3.136-1.371-3.136-3.517v-.006c0-2.114 1.206-3.561 3.066-3.561s2.99 1.383 2.99 3.427v.432h-4.926c.032 1.416.813 2.241 2.031 2.241.927 0 1.498-.438 1.682-.851l.026-.057h1.104l-.012.051c-.235.927-1.213 1.841-2.825 1.841m-.076-6.1c-1.016 0-1.79.691-1.911 1.993h3.783c-.114-1.352-.863-1.993-1.872-1.993m10.892 6.1c-1.733 0-2.869-1.403-2.869-3.536v-.013c0-2.145 1.13-3.535 2.869-3.535.94 0 1.759.469 2.133 1.199h.102v-3.796h1.104V261h-1.104v-1.092h-.102c-.419.762-1.181 1.213-2.133 1.213m.254-.978c1.244 0 2.006-.977 2.006-2.558v-.013c0-1.58-.762-2.558-2.006-2.558-1.25 0-1.993.965-1.993 2.558v.013c0 1.593.743 2.558 1.993 2.558m8.017.978c-1.948 0-3.154-1.346-3.154-3.536v-.013c0-2.196 1.206-3.535 3.154-3.535 1.949 0 3.155 1.339 3.155 3.535v.013c0 2.19-1.206 3.536-3.155 3.536m0-.978c1.295 0 2.025-.946 2.025-2.558v-.013c0-1.618-.73-2.558-2.025-2.558s-2.025.94-2.025 2.558v.013c0 1.612.73 2.558 2.025 2.558m7.668.978c-1.917 0-3.142-1.391-3.142-3.561v-.013c0-2.127 1.219-3.51 3.136-3.51 1.663 0 2.66.958 2.863 2.177l.006.038h-1.098l-.006-.019c-.172-.673-.781-1.219-1.765-1.219-1.232 0-2.006.99-2.006 2.533v.013c0 1.574.787 2.583 2.006 2.583.92 0 1.504-.406 1.758-1.168l.013-.038 1.092-.006-.013.069c-.279 1.238-1.2 2.121-2.844 2.121m6.767 0c-1.555 0-2.355-.914-2.355-2.533v-4.431h1.104v4.164c0 1.232.445 1.822 1.537 1.822 1.206 0 1.847-.736 1.847-1.936v-4.05h1.104V261h-1.104v-1.022h-.102c-.336.73-1.028 1.143-2.031 1.143m5.3-.121v-6.843h1.105v1.041h.101c.305-.736.952-1.161 1.847-1.161.927 0 1.575.488 1.892 1.199h.102c.368-.723 1.148-1.199 2.094-1.199 1.397 0 2.178.799 2.178 2.234V261h-1.105v-4.475c0-1.009-.463-1.511-1.428-1.511-.952 0-1.581.717-1.581 1.587V261h-1.104v-4.646c0-.813-.559-1.34-1.422-1.34-.895 0-1.574.781-1.574 1.746V261zm14.105.121c-1.955 0-3.136-1.371-3.136-3.517v-.006c0-2.114 1.206-3.561 3.066-3.561s2.99 1.383 2.99 3.427v.432h-4.926c.032 1.416.812 2.241 2.031 2.241.927 0 1.498-.438 1.682-.851l.026-.057h1.104l-.013.051c-.234.927-1.212 1.841-2.824 1.841m-.076-6.1c-1.016 0-1.791.691-1.911 1.993h3.783c-.114-1.352-.863-1.993-1.872-1.993m4.709 5.979v-6.843h1.105v1.029h.102c.342-.724.983-1.149 1.993-1.149 1.536 0 2.393.907 2.393 2.532V261h-1.105v-4.164c0-1.232-.508-1.822-1.599-1.822-1.092 0-1.784.736-1.784 1.936V261zm10.023.051c-1.409 0-1.999-.521-1.999-1.828v-4.152h-1.079v-.914h1.079v-1.771h1.142v1.771h1.499v.914h-1.499v3.872c0 .807.28 1.13.991 1.13.196 0 .304-.006.508-.025v.939a3.7 3.7 0 0 1-.642.064"/></g><g opacity=".25"><path fill="#f8f8f8" d="M28 279a4 4 0 0 1 4-4h40a4 4 0 0 1 4 4v40a4 4 0 0 1-4 4H32a4 4 0 0 1-4-4z"/><g clip-path="url(#d)"><path fill="url(#e)" d="M28 275h48v48H28z"/></g><path fill="#141414" fill-opacity=".85" d="m91.479 293-2.835-10.569h1.97l1.81 7.932h.11l2.08-7.932h1.677l2.11 7.932h.102l1.809-7.932h1.956L99.433 293h-1.772l-2.154-7.566h-.11L93.26 293zm12.063 0v-8.005h1.824v1.23h.124c.271-.857 1.004-1.362 2.058-1.362.279 0 .564.036.74.088v1.633a4.6 4.6 0 0 0-.908-.103c-1.216 0-2.014.726-2.014 1.868V293zm7.178-9.346a1.08 1.08 0 0 1-1.092-1.076c0-.594.491-1.077 1.092-1.077.593 0 1.084.483 1.084 1.077 0 .6-.491 1.076-1.084 1.076m-.916 9.346v-8.005h1.824V293zm7.215.037c-1.839 0-2.593-.616-2.593-2.161v-4.468h-1.245v-1.413h1.245v-1.963h1.853v1.963h1.692v1.413h-1.692v4.036c0 .798.315 1.135 1.076 1.135.257 0 .396-.007.616-.029v1.406a5 5 0 0 1-.952.081m6.123.124c-2.381 0-3.824-1.597-3.824-4.145v-.008c0-2.519 1.458-4.167 3.736-4.167s3.684 1.597 3.684 4.013v.601h-5.596c.022 1.436.798 2.271 2.036 2.271.989 0 1.553-.498 1.729-.865l.022-.051h1.736l-.022.066c-.257 1.033-1.326 2.285-3.501 2.285m-.066-6.892c-1.018 0-1.78.689-1.919 1.963h3.801c-.125-1.311-.864-1.963-1.882-1.963m9.558 6.731v-11.104h1.824V293zm7.558.161c-2.38 0-3.823-1.597-3.823-4.145v-.008c0-2.519 1.458-4.167 3.735-4.167s3.685 1.597 3.685 4.013v.601h-5.596c.022 1.436.798 2.271 2.036 2.271.989 0 1.553-.498 1.729-.865l.021-.051h1.736l-.022.066c-.256 1.033-1.325 2.285-3.501 2.285m-.066-6.892c-1.018 0-1.779.689-1.918 1.963h3.801c-.125-1.311-.864-1.963-1.883-1.963m7.669 6.863c-1.524 0-2.629-.938-2.629-2.395v-.015c0-1.428 1.091-2.263 3.039-2.38l2.058-.125v-.688c0-.799-.52-1.238-1.501-1.238-.835 0-1.377.3-1.56.828l-.008.029h-1.721l.007-.066c.176-1.348 1.465-2.241 3.37-2.241 2.058 0 3.215.996 3.215 2.688V293h-1.802v-1.099h-.124c-.44.777-1.289 1.231-2.344 1.231m-.828-2.483c0 .681.579 1.084 1.385 1.084 1.098 0 1.911-.718 1.911-1.67v-.645l-1.802.118c-1.018.066-1.494.439-1.494 1.098zm10.174 2.483c-2.007 0-3.282-1.59-3.282-4.124v-.014c0-2.549 1.253-4.131 3.282-4.131 1.098 0 2.014.542 2.431 1.406h.125v-4.373h1.831V293h-1.831v-1.252h-.125c-.439.871-1.303 1.384-2.431 1.384m.571-1.538c1.245 0 2.014-.982 2.014-2.586v-.014c0-1.604-.776-2.593-2.014-2.593s-2 .981-2 2.593v.014c0 1.612.755 2.586 2 2.586"/><path fill="#141414" fill-opacity=".45" d="M92.964 315.216c-2.533 0-4.151-1.866-4.151-4.793v-.012c0-2.889 1.644-4.786 4.15-4.786 2.032 0 3.46 1.142 3.822 2.881l.013.064h-1.155l-.02-.064c-.374-1.18-1.294-1.828-2.66-1.828-1.815 0-2.982 1.46-2.982 3.733v.012c0 2.305 1.148 3.739 2.99 3.739 1.637 0 2.741-1.047 2.741-2.596v-.222h-2.57v-1.003h3.713v1.117c0 2.26-1.549 3.758-3.891 3.758m8.569-.095c-1.955 0-3.136-1.371-3.136-3.517v-.006c0-2.114 1.206-3.561 3.066-3.561s2.99 1.383 2.99 3.427v.432h-4.926c.032 1.416.813 2.241 2.032 2.241.926 0 1.498-.438 1.682-.851l.025-.057h1.105l-.013.051c-.235.927-1.212 1.841-2.825 1.841m-.076-6.1c-1.016 0-1.79.691-1.91 1.993h3.783c-.115-1.352-.864-1.993-1.873-1.993m4.71 5.979v-6.843h1.104v1.029h.102c.343-.724.984-1.149 1.993-1.149 1.536 0 2.393.907 2.393 2.532V315h-1.104v-4.164c0-1.232-.508-1.822-1.6-1.822s-1.784.736-1.784 1.936V315zm10.385.121c-1.955 0-3.136-1.371-3.136-3.517v-.006c0-2.114 1.206-3.561 3.066-3.561s2.99 1.383 2.99 3.427v.432h-4.926c.032 1.416.812 2.241 2.031 2.241.927 0 1.498-.438 1.682-.851l.026-.057h1.104l-.013.051c-.234.927-1.212 1.841-2.824 1.841m-.076-6.1c-1.016 0-1.79.691-1.911 1.993h3.783c-.114-1.352-.863-1.993-1.872-1.993m4.71 5.979v-6.843h1.104v1.016h.102c.26-.717.901-1.136 1.828-1.136.209 0 .444.025.552.044v1.073a4 4 0 0 0-.679-.064c-1.054 0-1.803.667-1.803 1.67V315zm6.83.121c-1.302 0-2.286-.788-2.286-2.032v-.012c0-1.219.902-1.924 2.495-2.019l1.962-.12v-.623c0-.844-.515-1.301-1.537-1.301-.818 0-1.358.305-1.536.838l-.006.019h-1.105l.007-.038c.178-1.073 1.219-1.796 2.678-1.796 1.67 0 2.603.857 2.603 2.278V315h-1.104v-1.009h-.102c-.432.73-1.149 1.13-2.069 1.13m-1.156-2.057c0 .692.591 1.098 1.384 1.098 1.124 0 1.943-.736 1.943-1.714v-.622l-1.829.114c-1.041.064-1.498.432-1.498 1.111zm8.881 1.987c-1.409 0-2-.521-2-1.828v-4.152h-1.079v-.914h1.079v-1.771h1.143v1.771h1.498v.914h-1.498v3.872c0 .807.279 1.13.99 1.13.197 0 .305-.006.508-.025v.939a3.7 3.7 0 0 1-.641.064m4.983.07c-1.955 0-3.136-1.371-3.136-3.517v-.006c0-2.114 1.206-3.561 3.066-3.561s2.99 1.383 2.99 3.427v.432h-4.926c.032 1.416.812 2.241 2.031 2.241.927 0 1.498-.438 1.682-.851l.026-.057h1.104l-.013.051c-.235.927-1.212 1.841-2.824 1.841m-.077-6.1c-1.015 0-1.79.691-1.91 1.993h3.783c-.114-1.352-.863-1.993-1.873-1.993m7.059 6.1c-1.523 0-2.571-.737-2.698-1.867h1.13c.184.572.73.946 1.606.946.921 0 1.574-.438 1.574-1.06v-.013c0-.463-.349-.787-1.193-.99l-1.06-.254c-1.282-.304-1.86-.863-1.86-1.847v-.006c0-1.136 1.092-1.993 2.545-1.993 1.435 0 2.432.717 2.584 1.834h-1.085c-.146-.539-.68-.914-1.505-.914-.812 0-1.409.419-1.409 1.022v.013c0 .463.343.755 1.149.952l1.054.254c1.288.311 1.91.869 1.91 1.847v.013c0 1.218-1.187 2.063-2.742 2.063m9.991 0c-1.301 0-2.285-.788-2.285-2.032v-.012c0-1.219.901-1.924 2.495-2.019l1.961-.12v-.623c0-.844-.514-1.301-1.536-1.301-.819 0-1.358.305-1.536.838l-.006.019h-1.105l.006-.038c.178-1.073 1.219-1.796 2.679-1.796 1.67 0 2.603.857 2.603 2.278V315h-1.105v-1.009h-.101c-.432.73-1.149 1.13-2.07 1.13m-1.155-2.057c0 .692.59 1.098 1.384 1.098 1.123 0 1.942-.736 1.942-1.714v-.622l-1.828.114c-1.041.064-1.498.432-1.498 1.111zM166.711 315v-9.56h1.104V315zm6.018.121c-1.956 0-3.136-1.371-3.136-3.517v-.006c0-2.114 1.206-3.561 3.066-3.561s2.989 1.383 2.989 3.427v.432h-4.925c.031 1.416.812 2.241 2.031 2.241.927 0 1.498-.438 1.682-.851l.025-.057h1.105l-.013.051c-.235.927-1.212 1.841-2.824 1.841m-.077-6.1c-1.015 0-1.79.691-1.91 1.993h3.783c-.114-1.352-.863-1.993-1.873-1.993m6.589 6.1c-1.301 0-2.285-.788-2.285-2.032v-.012c0-1.219.901-1.924 2.495-2.019l1.961-.12v-.623c0-.844-.514-1.301-1.536-1.301-.819 0-1.358.305-1.536.838l-.007.019h-1.104l.006-.038c.178-1.073 1.219-1.796 2.679-1.796 1.669 0 2.603.857 2.603 2.278V315h-1.105v-1.009h-.101c-.432.73-1.149 1.13-2.07 1.13m-1.155-2.057c0 .692.59 1.098 1.384 1.098 1.123 0 1.942-.736 1.942-1.714v-.622l-1.828.114c-1.041.064-1.498.432-1.498 1.111zm8.976 2.057c-1.733 0-2.87-1.403-2.87-3.536v-.013c0-2.145 1.13-3.535 2.87-3.535.939 0 1.758.469 2.132 1.199h.102v-3.796h1.104V315h-1.104v-1.092h-.102c-.419.762-1.18 1.213-2.132 1.213m.253-.978c1.245 0 2.006-.977 2.006-2.558v-.013c0-1.58-.761-2.558-2.006-2.558-1.25 0-1.993.965-1.993 2.558v.013c0 1.593.743 2.558 1.993 2.558m11.293.908c-1.409 0-2-.521-2-1.828v-4.152h-1.079v-.914h1.079v-1.771h1.143v1.771h1.498v.914h-1.498v3.872c0 .807.279 1.13.99 1.13.197 0 .305-.006.508-.025v.939a3.7 3.7 0 0 1-.641.064m4.983.07c-1.955 0-3.136-1.371-3.136-3.517v-.006c0-2.114 1.206-3.561 3.066-3.561s2.99 1.383 2.99 3.427v.432h-4.926c.032 1.416.812 2.241 2.031 2.241.927 0 1.498-.438 1.682-.851l.026-.057h1.104l-.012.051c-.235.927-1.213 1.841-2.825 1.841m-.076-6.1c-1.016 0-1.79.691-1.911 1.993h3.783c-.114-1.352-.863-1.993-1.872-1.993m3.91 5.979 2.342-3.421-2.368-3.422h1.302l1.625 2.546h.101l1.606-2.546h1.238l-2.323 3.377 2.355 3.466h-1.295l-1.619-2.583h-.101L208.663 315zm9.794.051c-1.409 0-1.999-.521-1.999-1.828v-4.152h-1.079v-.914h1.079v-1.771h1.142v1.771h1.498v.914h-1.498v3.872c0 .807.28 1.13.991 1.13.196 0 .304-.006.507-.025v.939a3.7 3.7 0 0 1-.641.064m6.532-8.214a.764.764 0 0 1-.762-.762c0-.419.343-.762.762-.762s.762.343.762.762a.764.764 0 0 1-.762.762m-.559 8.163v-6.843h1.105V315zm3.187 0v-6.843h1.104v1.029h.102c.343-.724.984-1.149 1.993-1.149 1.536 0 2.393.907 2.393 2.532V315h-1.104v-4.164c0-1.232-.508-1.822-1.6-1.822s-1.784.736-1.784 1.936V315zm13.679.051c-1.409 0-1.999-.521-1.999-1.828v-4.152h-1.08v-.914h1.08v-1.771h1.142v1.771h1.498v.914h-1.498v3.872c0 .807.279 1.13.99 1.13.197 0 .305-.006.508-.025v.939a3.7 3.7 0 0 1-.641.064m2.355-.051v-9.56h1.105v3.746h.101c.343-.724.984-1.149 1.993-1.149 1.536 0 2.393.907 2.393 2.532V315h-1.104v-4.164c0-1.232-.508-1.822-1.6-1.822s-1.783.736-1.783 1.936V315zm10.385.121c-1.955 0-3.136-1.371-3.136-3.517v-.006c0-2.114 1.206-3.561 3.066-3.561s2.99 1.383 2.99 3.427v.432h-4.926c.032 1.416.812 2.241 2.031 2.241.927 0 1.498-.438 1.682-.851l.026-.057h1.104l-.012.051c-.235.927-1.213 1.841-2.825 1.841m-.076-6.1c-1.016 0-1.79.691-1.911 1.993h3.783c-.114-1.352-.863-1.993-1.872-1.993m10.892 6.1c-1.733 0-2.869-1.403-2.869-3.536v-.013c0-2.145 1.13-3.535 2.869-3.535.94 0 1.759.469 2.133 1.199h.102v-3.796h1.104V315h-1.104v-1.092h-.102c-.419.762-1.181 1.213-2.133 1.213m.254-.978c1.244 0 2.006-.977 2.006-2.558v-.013c0-1.58-.762-2.558-2.006-2.558-1.25 0-1.993.965-1.993 2.558v.013c0 1.593.743 2.558 1.993 2.558m8.017.978c-1.948 0-3.155-1.346-3.155-3.536v-.013c0-2.196 1.207-3.535 3.155-3.535 1.949 0 3.155 1.339 3.155 3.535v.013c0 2.19-1.206 3.536-3.155 3.536m0-.978c1.295 0 2.025-.946 2.025-2.558v-.013c0-1.618-.73-2.558-2.025-2.558s-2.025.94-2.025 2.558v.013c0 1.612.73 2.558 2.025 2.558m7.668.978c-1.917 0-3.142-1.391-3.142-3.561v-.013c0-2.127 1.219-3.51 3.136-3.51 1.663 0 2.66.958 2.863 2.177l.006.038h-1.098l-.006-.019c-.172-.673-.781-1.219-1.765-1.219-1.232 0-2.006.99-2.006 2.533v.013c0 1.574.787 2.583 2.006 2.583.92 0 1.504-.406 1.758-1.168l.013-.038 1.092-.006-.013.069c-.279 1.238-1.2 2.121-2.844 2.121m6.767 0c-1.555 0-2.355-.914-2.355-2.533v-4.431h1.104v4.164c0 1.232.445 1.822 1.536 1.822 1.207 0 1.848-.736 1.848-1.936v-4.05h1.104V315h-1.104v-1.022h-.102c-.336.73-1.028 1.143-2.031 1.143m5.3-.121v-6.843h1.105v1.041h.101c.305-.736.952-1.161 1.847-1.161.927 0 1.575.488 1.892 1.199h.102c.368-.723 1.148-1.199 2.094-1.199 1.397 0 2.177.799 2.177 2.234V315h-1.104v-4.475c0-1.009-.463-1.511-1.428-1.511-.952 0-1.581.717-1.581 1.587V315h-1.104v-4.646c0-.813-.559-1.34-1.422-1.34-.895 0-1.574.781-1.574 1.746V315zm14.105.121c-1.955 0-3.136-1.371-3.136-3.517v-.006c0-2.114 1.206-3.561 3.066-3.561s2.99 1.383 2.99 3.427v.432h-4.926c.031 1.416.812 2.241 2.031 2.241.927 0 1.498-.438 1.682-.851l.026-.057h1.104l-.013.051c-.235.927-1.212 1.841-2.824 1.841m-.077-6.1c-1.015 0-1.79.691-1.91 1.993h3.783c-.114-1.352-.863-1.993-1.873-1.993m4.71 5.979v-6.843h1.105v1.029h.101c.343-.724.984-1.149 1.994-1.149 1.536 0 2.393.907 2.393 2.532V315h-1.105v-4.164c0-1.232-.508-1.822-1.599-1.822-1.092 0-1.784.736-1.784 1.936V315zm10.023.051c-1.409 0-1.999-.521-1.999-1.828v-4.152h-1.079v-.914h1.079v-1.771h1.142v1.771h1.498v.914h-1.498v3.872c0 .807.28 1.13.991 1.13.196 0 .304-.006.507-.025v.939a3.7 3.7 0 0 1-.641.064m2.539-5.599.553-3.612h1.263l-.997 3.612zm5.39 5.669c-1.524 0-2.571-.737-2.698-1.867h1.13c.184.572.73.946 1.606.946.92 0 1.574-.438 1.574-1.06v-.013c0-.463-.349-.787-1.193-.99l-1.061-.254c-1.282-.304-1.859-.863-1.859-1.847v-.006c0-1.136 1.091-1.993 2.545-1.993 1.435 0 2.431.717 2.584 1.834h-1.086c-.146-.539-.679-.914-1.504-.914-.813 0-1.41.419-1.41 1.022v.013c0 .463.343.755 1.149.952l1.054.254c1.289.311 1.911.869 1.911 1.847v.013c0 1.218-1.187 2.063-2.742 2.063m8.175-.121v-9.56h1.105v3.746h.101c.343-.724.984-1.149 1.994-1.149 1.536 0 2.393.907 2.393 2.532V315h-1.105v-4.164c0-1.232-.508-1.822-1.599-1.822-1.092 0-1.784.736-1.784 1.936V315zm10.385.121c-1.955 0-3.136-1.371-3.136-3.517v-.006c0-2.114 1.206-3.561 3.066-3.561s2.99 1.383 2.99 3.427v.432h-4.926c.032 1.416.813 2.241 2.032 2.241.926 0 1.498-.438 1.682-.851l.025-.057h1.105l-.013.051c-.235.927-1.213 1.841-2.825 1.841m-.076-6.1c-1.016 0-1.79.691-1.911 1.993h3.784c-.115-1.352-.864-1.993-1.873-1.993m6.589 6.1c-1.301 0-2.285-.788-2.285-2.032v-.012c0-1.219.901-1.924 2.494-2.019l1.962-.12v-.623c0-.844-.514-1.301-1.536-1.301-.819 0-1.359.305-1.537.838l-.006.019h-1.104l.006-.038c.178-1.073 1.219-1.796 2.679-1.796 1.669 0 2.602.857 2.602 2.278V315h-1.104v-1.009h-.102c-.431.73-1.149 1.13-2.069 1.13m-1.155-2.057c0 .692.59 1.098 1.383 1.098 1.124 0 1.943-.736 1.943-1.714v-.622l-1.828.114c-1.041.064-1.498.432-1.498 1.111zm8.975 2.057c-1.733 0-2.869-1.403-2.869-3.536v-.013c0-2.145 1.13-3.535 2.869-3.535.94 0 1.758.469 2.133 1.199h.102v-3.796h1.104V315h-1.104v-1.092h-.102c-.419.762-1.181 1.213-2.133 1.213m.254-.978c1.244 0 2.006-.977 2.006-2.558v-.013c0-1.58-.762-2.558-2.006-2.558-1.25 0-1.993.965-1.993 2.558v.013c0 1.593.743 2.558 1.993 2.558m7.998.978c-1.955 0-3.136-1.371-3.136-3.517v-.006c0-2.114 1.206-3.561 3.066-3.561s2.99 1.383 2.99 3.427v.432h-4.926c.032 1.416.813 2.241 2.031 2.241.927 0 1.499-.438 1.683-.851l.025-.057h1.104l-.012.051c-.235.927-1.213 1.841-2.825 1.841m-.076-6.1c-1.016 0-1.79.691-1.911 1.993h3.783c-.114-1.352-.863-1.993-1.872-1.993m4.71 5.979v-6.843h1.104v1.016h.102c.26-.717.901-1.136 1.828-1.136.21 0 .444.025.552.044v1.073a4 4 0 0 0-.679-.064c-1.054 0-1.803.667-1.803 1.67V315zm11.407.121c-1.917 0-3.142-1.391-3.142-3.561v-.013c0-2.127 1.218-3.51 3.135-3.51 1.663 0 2.66.958 2.863 2.177l.006.038h-1.098l-.006-.019c-.171-.673-.781-1.219-1.765-1.219-1.231 0-2.006.99-2.006 2.533v.013c0 1.574.788 2.583 2.006 2.583.921 0 1.505-.406 1.759-1.168l.012-.038 1.092-.006-.013.069c-.279 1.238-1.199 2.121-2.843 2.121m7.287 0c-1.949 0-3.155-1.346-3.155-3.536v-.013c0-2.196 1.206-3.535 3.155-3.535s3.155 1.339 3.155 3.535v.013c0 2.19-1.207 3.536-3.155 3.536m0-.978c1.295 0 2.025-.946 2.025-2.558v-.013c0-1.618-.73-2.558-2.025-2.558s-2.025.94-2.025 2.558v.013c0 1.612.73 2.558 2.025 2.558m4.868.857v-6.843h1.105v1.041h.101c.305-.736.953-1.161 1.848-1.161.926 0 1.574.488 1.891 1.199h.102c.368-.723 1.149-1.199 2.094-1.199 1.397 0 2.178.799 2.178 2.234V315h-1.105v-4.475c0-1.009-.463-1.511-1.428-1.511-.952 0-1.581.717-1.581 1.587V315h-1.104v-4.646c0-.813-.559-1.34-1.422-1.34-.895 0-1.574.781-1.574 1.746V315zm11.312 2.285v-9.128h1.104v1.092h.102c.419-.762 1.181-1.212 2.133-1.212 1.733 0 2.869 1.402 2.869 3.535v.013c0 2.145-1.13 3.536-2.869 3.536-.94 0-1.759-.47-2.133-1.2h-.102v3.364zm3.085-3.142c1.25 0 1.993-.965 1.993-2.558v-.013c0-1.593-.743-2.558-1.993-2.558-1.244 0-2.006.978-2.006 2.558v.013c0 1.581.762 2.558 2.006 2.558m7.661.978c-1.948 0-3.154-1.346-3.154-3.536v-.013c0-2.196 1.206-3.535 3.154-3.535 1.949 0 3.155 1.339 3.155 3.535v.013c0 2.19-1.206 3.536-3.155 3.536m0-.978c1.295 0 2.025-.946 2.025-2.558v-.013c0-1.618-.73-2.558-2.025-2.558s-2.024.94-2.024 2.558v.013c0 1.612.73 2.558 2.024 2.558m4.869.857v-6.843h1.105v1.029h.101c.343-.724.984-1.149 1.993-1.149 1.536 0 2.393.907 2.393 2.532V315h-1.104v-4.164c0-1.232-.508-1.822-1.6-1.822-1.091 0-1.783.736-1.783 1.936V315zm10.385.121c-1.955 0-3.136-1.371-3.136-3.517v-.006c0-2.114 1.206-3.561 3.066-3.561s2.99 1.383 2.99 3.427v.432h-4.926c.032 1.416.813 2.241 2.031 2.241.927 0 1.498-.438 1.682-.851l.026-.057h1.104l-.012.051c-.235.927-1.213 1.841-2.825 1.841m-.076-6.1c-1.016 0-1.79.691-1.911 1.993h3.783c-.114-1.352-.863-1.993-1.872-1.993m4.71 5.979v-6.843h1.104v1.029h.102c.343-.724.984-1.149 1.993-1.149 1.536 0 2.393.907 2.393 2.532V315h-1.105v-4.164c0-1.232-.507-1.822-1.599-1.822s-1.784.736-1.784 1.936V315zm10.023.051c-1.41 0-2-.521-2-1.828v-4.152h-1.079v-.914h1.079v-1.771h1.143v1.771h1.498v.914h-1.498v3.872c0 .807.279 1.13.99 1.13.197 0 .305-.006.508-.025v.939a3.7 3.7 0 0 1-.641.064"/></g><g opacity=".25"><rect width="551" height="44" x="28.5" y="44.5" fill="#fff" stroke="#ababab" rx="3.5"/><path fill="#141414" fill-opacity=".45" d="M76.138 72.232c-2.16 0-3.555-1.134-3.699-2.74l-.006-.076h1.23l.007.075c.089.985 1.114 1.607 2.536 1.607 1.34 0 2.317-.69 2.317-1.696v-.007c0-.82-.567-1.38-1.92-1.681l-1.094-.24c-1.976-.437-2.83-1.346-2.83-2.775v-.007c.007-1.633 1.435-2.789 3.472-2.789 1.97 0 3.343 1.162 3.446 2.632l.007.096h-1.231l-.014-.089c-.136-.868-.957-1.51-2.242-1.504-1.23.007-2.18.588-2.18 1.62v.007c0 .786.54 1.32 1.88 1.613l1.093.246c2.058.458 2.871 1.286 2.871 2.707v.007c0 1.846-1.442 2.994-3.643 2.994m8.551-.102c-2.105 0-3.376-1.477-3.376-3.787v-.007c0-2.276 1.298-3.835 3.301-3.835s3.22 1.49 3.22 3.691v.465h-5.305c.035 1.525.875 2.413 2.188 2.413.998 0 1.613-.471 1.811-.916l.028-.061h1.19l-.015.054c-.252.998-1.305 1.983-3.041 1.983m-.082-6.57c-1.093 0-1.927.746-2.057 2.147h4.074c-.123-1.456-.93-2.146-2.017-2.146m7.096 6.57c-1.401 0-2.46-.848-2.46-2.188v-.013c0-1.313.97-2.072 2.686-2.174l2.112-.13v-.67c0-.91-.554-1.401-1.654-1.401-.882 0-1.463.328-1.655.902l-.006.02h-1.19l.007-.04c.191-1.156 1.313-1.935 2.885-1.935 1.798 0 2.803.923 2.803 2.454V72h-1.19v-1.087h-.11c-.464.786-1.237 1.217-2.228 1.217m-1.244-2.215c0 .745.636 1.183 1.49 1.183 1.21 0 2.092-.793 2.092-1.846v-.67l-1.969.123c-1.12.068-1.613.465-1.613 1.196zM97.404 72v-7.37h1.19v1.095h.11c.28-.773.97-1.224 1.968-1.224.225 0 .478.027.595.048v1.155a4.3 4.3 0 0 0-.732-.068c-1.135 0-1.941.718-1.941 1.798V72zm8.142.13c-2.065 0-3.384-1.497-3.384-3.835v-.014c0-2.29 1.313-3.78 3.377-3.78 1.791 0 2.864 1.032 3.083 2.345l.007.04h-1.183l-.007-.02c-.184-.724-.84-1.312-1.9-1.312-1.326 0-2.16 1.066-2.16 2.727v.014c0 1.695.848 2.782 2.16 2.782.991 0 1.62-.437 1.894-1.258l.013-.04 1.176-.007-.014.075c-.3 1.333-1.292 2.283-3.062 2.283m4.888-.13V61.705h1.189v4.033h.109c.37-.779 1.06-1.237 2.147-1.237 1.654 0 2.577.977 2.577 2.727V72h-1.189v-4.484c0-1.327-.547-1.962-1.723-1.962s-1.921.793-1.921 2.085V72z"/><path fill="#6e6e6e" d="M50.147 58a6.5 6.5 0 0 1 6.5 6.5c0 1.61-.59 3.09-1.56 4.23l.27.27h.79l5 5-1.5 1.5-5-5v-.79l-.27-.27a6.52 6.52 0 0 1-4.23 1.56 6.5 6.5 0 1 1 0-13m0 2c-2.5 0-4.5 2-4.5 4.5s2 4.5 4.5 4.5 4.5-2 4.5-4.5-2-4.5-4.5-4.5"/></g></g><rect width="35" height="35" x="588.5" y=".5" fill="#fff" rx="17.5"/><rect width="35" height="35" x="588.5" y=".5" stroke="#d6d6d6" rx="17.5"/><path fill="#6e6e6e" d="m611.833 13.342-1.175-1.175-4.659 4.658-4.658-4.658-1.175 1.175L604.824 18l-4.658 4.658 1.175 1.175 4.658-4.658 4.659 4.658 1.175-1.175L607.174 18z"/><defs><clipPath id="a"><path fill="#fff" d="M4 20h600v327H4z"/></clipPath><clipPath id="b"><path fill="#fff" d="M28 221h48v48H28z"/></clipPath><clipPath id="d"><path fill="#fff" d="M28 275h48v48H28z"/></clipPath><pattern id="c" width="1" height="1" patternContentUnits="objectBoundingBox"><use xlink:href="#f" transform="scale(.00417)"/></pattern><pattern id="e" width="1" height="1" patternContentUnits="objectBoundingBox"><use xlink:href="#g" transform="scale(.00417)"/></pattern><image xlink:href="stage-7.embedded-image-1.png" id="f" width="240" height="240" preserveAspectRatio="none"/><image xlink:href="stage-7.embedded-image-2.png" id="g" width="240" height="240" preserveAspectRatio="none"/></defs></svg>