<svg width="119" height="83" viewBox="0 0 119 83" fill="none" xmlns="http://www.w3.org/2000/svg">
<g clip-path="url(#clip0_4440_60138)">
<path d="M100.827 12.213L54 41.0604L75.1611 47.0522L87.1556 65.4865L100.827 12.213Z" fill="#FFD1E0"/>
<path d="M54 41.0604L75.1609 47.052L87.1556 65.4865L100.827 12.2129L54 41.0604ZM85.4314 54.9893L77.8723 43.3716L64.537 39.5962L94.0475 21.4164L85.4314 54.9893Z" fill="#DE3E73"/>
<path d="M0 54.2432C0 50.9295 2.68629 48.2432 6 48.2432H49C52.3137 48.2432 55 50.9295 55 54.2432V76.2432C55 79.5569 52.3137 82.2432 49 82.2432H6C2.68629 82.2432 0 79.5569 0 76.2432V54.2432Z" fill="#FFD1E0"/>
<path d="M7.72159 74.2432V56.7886H10.8835V71.5926H18.571V74.2432H7.72159ZM26.9744 74.4988C25.6619 74.4988 24.5284 74.2261 23.5739 73.6807C22.625 73.1295 21.8949 72.3511 21.3835 71.3454C20.8722 70.3341 20.6165 69.1437 20.6165 67.7744C20.6165 66.4278 20.8722 65.246 21.3835 64.229C21.9006 63.2062 22.6222 62.4108 23.5483 61.8426C24.4744 61.2687 25.5625 60.9818 26.8125 60.9818C27.6193 60.9818 28.3807 61.1125 29.0966 61.3738C29.8182 61.6295 30.4545 62.0273 31.0057 62.567C31.5625 63.1068 32 63.7943 32.3182 64.6295C32.6364 65.4591 32.7955 66.4477 32.7955 67.5954V68.5415H22.0653V66.4619H29.8381C29.8324 65.871 29.7045 65.3454 29.4545 64.8852C29.2045 64.4193 28.8551 64.0528 28.4062 63.7858C27.9631 63.5187 27.446 63.3852 26.8551 63.3852C26.2244 63.3852 25.6705 63.5386 25.1932 63.8454C24.7159 64.1466 24.3438 64.5443 24.0767 65.0386C23.8153 65.5273 23.6818 66.0642 23.6761 66.6494V68.4648C23.6761 69.2261 23.8153 69.8795 24.0938 70.425C24.3722 70.9648 24.7614 71.3795 25.2614 71.6693C25.7614 71.9534 26.3466 72.0954 27.017 72.0954C27.4659 72.0954 27.8722 72.0329 28.2358 71.9079C28.5994 71.7773 28.9148 71.5869 29.1818 71.3369C29.4489 71.0869 29.6506 70.7773 29.7869 70.4079L32.6676 70.7318C32.4858 71.4932 32.1392 72.1579 31.6278 72.7261C31.1222 73.2886 30.4744 73.7261 29.6847 74.0386C28.8949 74.3454 27.9915 74.4988 26.9744 74.4988ZM41.1158 74.4988C39.8374 74.4988 38.7294 74.2176 37.7919 73.6551C36.8544 73.0926 36.1271 72.3057 35.6101 71.2943C35.0987 70.2829 34.843 69.1011 34.843 67.7488C34.843 66.3966 35.0987 65.2119 35.6101 64.1949C36.1271 63.1778 36.8544 62.3881 37.7919 61.8256C38.7294 61.2631 39.8374 60.9818 41.1158 60.9818C42.3942 60.9818 43.5021 61.2631 44.4396 61.8256C45.3771 62.3881 46.1016 63.1778 46.6129 64.1949C47.13 65.2119 47.3885 66.3966 47.3885 67.7488C47.3885 69.1011 47.13 70.2829 46.6129 71.2943C46.1016 72.3057 45.3771 73.0926 44.4396 73.6551C43.5021 74.2176 42.3942 74.4988 41.1158 74.4988ZM41.1328 72.0273C41.826 72.0273 42.4055 71.8369 42.8714 71.4562C43.3374 71.0699 43.6839 70.5528 43.9112 69.9051C44.1442 69.2574 44.2607 68.5358 44.2607 67.7403C44.2607 66.9392 44.1442 66.2148 43.9112 65.567C43.6839 64.9136 43.3374 64.3937 42.8714 64.0074C42.4055 63.621 41.826 63.4278 41.1328 63.4278C40.4226 63.4278 39.8317 63.621 39.3601 64.0074C38.8942 64.3937 38.5447 64.9136 38.3118 65.567C38.0845 66.2148 37.9709 66.9392 37.9709 67.7403C37.9709 68.5358 38.0845 69.2574 38.3118 69.9051C38.5447 70.5528 38.8942 71.0699 39.3601 71.4562C39.8317 71.8369 40.4226 72.0273 41.1328 72.0273Z" fill="#141414"/>
</g>
<defs>
<clipPath id="clip0_4440_60138">
<rect width="118.111" height="82.2432" fill="white"/>
</clipPath>
</defs>
</svg>
